<svg width="70" height="72" viewBox="0 0 70 72" fill="none" xmlns="http://www.w3.org/2000/svg">
<path d="M34.5 71.98C53.5538 71.98 69 56.5338 69 37.48C69 18.4262 53.5538 2.97998 34.5 2.97998C15.4462 2.97998 0 18.4262 0 37.48C0 56.5338 15.4462 71.98 34.5 71.98Z" fill="#E8E3E6"/>
<path d="M34.53 69C53.5839 69 69.03 53.5538 69.03 34.5C69.03 15.4462 53.5839 0 34.53 0C15.4762 0 0.0300293 15.4462 0.0300293 34.5C0.0300293 53.5538 15.4762 69 34.53 69Z" fill="#FFF8FC"/>
<path d="M19.26 30.72L33.26 16.72C35.62 14.36 39.67 16.03 39.67 19.37V49.57C39.67 52.87 35.71 54.57 33.32 52.28L19.26 38.84V30.71V30.72Z" fill="#C8A9F2"/>
<path d="M16.55 30.6899H16.54C15.7061 30.6899 15.03 31.366 15.03 32.1999V36.7499C15.03 37.5839 15.7061 38.2599 16.54 38.2599H16.55C17.384 38.2599 18.06 37.5839 18.06 36.7499V32.1999C18.06 31.366 17.384 30.6899 16.55 30.6899Z" fill="#C8A9F2"/>
<path d="M43.42 42.5701C44.53 41.6201 46.0701 37.2701 46.0701 34.4701C46.0701 31.6701 45.03 27.7501 43.42 26.3701" fill="#C8A9F2"/>
<path d="M47.9901 45.19C49.4601 43.93 51.5 38.18 51.5 34.47C51.5 30.76 50.1301 25.57 47.9901 23.75" fill="#C8A9F2"/>
</svg>
