<svg width="385" height="61" viewBox="0 0 385 61" fill="none" xmlns="http://www.w3.org/2000/svg">
<path d="M354.22 0.75H30.34C13.8764 0.75 0.530029 14.0964 0.530029 30.56C0.530029 47.0236 13.8764 60.37 30.34 60.37H354.22C370.684 60.37 384.03 47.0236 384.03 30.56C384.03 14.0964 370.684 0.75 354.22 0.75Z" stroke="#B5B5B5"/>
<path d="M56.8401 43.59C51.3401 39.37 45.8301 35.15 40.3301 30.92C43.0901 26.21 41.9701 20.07 37.5401 16.66C32.7301 12.97 25.8201 13.88 22.1401 18.69C18.4601 23.5 19.3601 30.41 24.1701 34.09C28.3301 37.28 34.0601 37.03 37.9201 33.78L54.5701 46.55C56.4801 48.02 58.76 45.05 56.85 43.58L56.8401 43.59ZM25.9801 31.72C22.4801 29.04 21.8201 24.01 24.5001 20.52C27.1801 17.03 32.2101 16.36 35.7001 19.04C39.1901 21.72 39.8601 26.75 37.1801 30.24C34.5001 33.73 29.4701 34.4 25.9801 31.72Z" fill="#B5B5B5"/>
</svg>
