<svg width="341" height="642" viewBox="0 0 341 642" fill="none" xmlns="http://www.w3.org/2000/svg">
<path d="M316.15 -1.32999C316.15 -1.32999 416.62 249.84 210.39 370.98L281.83 606.52C288.46 625.86 235.88 628.1 213.01 629.25C202.59 629.77 190.91 628.51 178.83 623.81C178.83 623.81 131.94 667.35 64.96 617.11C64.96 617.11 40.4 653.2 -2.01999 633.48L0.450011 -4.67999" fill="#D64C5C"/>
<path d="M291.33 71.22C291.4 68.04 322.99 253.07 211.54 305.58C195.69 313.05 211.63 305.99 211.63 305.99C211.63 305.99 287.54 241.56 291.33 71.22Z" fill="#A03746"/>
<path d="M179 616.95L142 433.14C142 433.14 190.32 519.66 179 616.95Z" fill="#A03746"/>
<path d="M35.73 411.93C39.37 404.6 11.83 598.65 11.83 598.65C11.83 598.65 11.51 460.72 35.73 411.93Z" fill="#A03746"/>
<path d="M175.94 27.29C174.65 30.5 226.02 260.77 111.86 346.96C111.86 346.96 182.87 226.67 174.65 30.49" fill="#A03746"/>
<path d="M83.94 35.5C85.69 39.48 154.78 183.5 52.7 303.42C52.7 303.42 115.51 193.56 85.69 39.49" fill="#A03746"/>
<path d="M163.05 391.68C126.71 391.68 91.98 385.04 65.93 378.24C25.11 367.58 -0.82 354.2 -2 353.66V338.03C-0.76 338.61 114.12 391 209.67 371.68C213.9 370.83 218.02 373.56 218.88 377.79C219.74 382.02 217 386.14 212.77 387C196.31 390.33 179.51 391.69 163.05 391.69V391.68Z" fill="#FDE176"/>
<path d="M141.64 96.03C160.694 96.03 176.14 80.5838 176.14 61.53C176.14 42.4762 160.694 27.03 141.64 27.03C122.586 27.03 107.14 42.4762 107.14 61.53C107.14 80.5838 122.586 96.03 141.64 96.03Z" fill="#E8E3E6"/>
<path d="M63.64 96.03C82.6938 96.03 98.14 80.5838 98.14 61.53C98.14 42.4762 82.6938 27.03 63.64 27.03C44.5862 27.03 29.14 42.4762 29.14 61.53C29.14 80.5838 44.5862 96.03 63.64 96.03Z" fill="#E8E3E6"/>
<path d="M63.68 93.05C82.7338 93.05 98.18 77.6038 98.18 58.55C98.18 39.4962 82.7338 24.05 63.68 24.05C44.6262 24.05 29.18 39.4962 29.18 58.55C29.18 77.6038 44.6262 93.05 63.68 93.05Z" fill="#FFF8FC"/>
<path d="M141.68 93.05C160.734 93.05 176.18 77.6038 176.18 58.55C176.18 39.4962 160.734 24.05 141.68 24.05C122.626 24.05 107.18 39.4962 107.18 58.55C107.18 77.6038 122.626 93.05 141.68 93.05Z" fill="#FFF8FC"/>
<path d="M81.18 54.93H54.3L57.73 51.5C61.02 48.21 55.92 43.1 52.62 46.39C49.54 49.47 46.47 52.54 43.39 55.62C43.17 55.79 42.98 56 42.81 56.22C42.18 56.95 41.93 57.76 41.97 58.54C41.93 59.34 42.19 60.18 42.86 60.93C42.94 61.03 43.03 61.11 43.12 61.2C46.29 64.37 49.46 67.54 52.63 70.71C55.92 74 61.03 68.9 57.74 65.6L54.29 62.15H81.19C85.84 62.15 85.84 54.93 81.19 54.93H81.18Z" fill="#E1A9AF"/>
<path d="M161.16 53.78C155.61 49.7 150.06 45.61 144.5 41.53C143.89 40.93 143.12 40.56 142.26 40.59C141.41 40.57 140.64 40.93 140.03 41.53C134.48 45.61 128.92 49.7 123.37 53.78C119.52 56.61 123.26 63.12 127.16 60.26C127.53 59.99 127.9 59.72 128.27 59.45V69.99C128.27 73.6 131.19 76.52 134.8 76.52H138.8C138.79 76.41 138.77 76.31 138.77 76.2V69.85C138.77 68.57 139.81 67.53 141.09 67.53H143.44C144.72 67.53 145.76 68.57 145.76 69.85V76.2C145.76 76.31 145.74 76.42 145.73 76.52H149.73C153.34 76.52 156.26 73.6 156.26 69.99V59.45L157.37 60.26C161.26 63.12 165.01 56.62 161.16 53.78Z" fill="#EEC7A1"/>
<path d="M219.64 96.03C238.694 96.03 254.14 80.5838 254.14 61.53C254.14 42.4762 238.694 27.03 219.64 27.03C200.586 27.03 185.14 42.4762 185.14 61.53C185.14 80.5838 200.586 96.03 219.64 96.03Z" fill="#E8E3E6"/>
<path d="M219.68 93.05C238.734 93.05 254.18 77.6038 254.18 58.55C254.18 39.4962 238.734 24.05 219.68 24.05C200.626 24.05 185.18 39.4962 185.18 58.55C185.18 77.6038 200.626 93.05 219.68 93.05Z" fill="#FFF8FC"/>
<path d="M204.4 54.77L218.4 40.77C220.76 38.41 224.81 40.08 224.81 43.42V73.62C224.81 76.92 220.85 78.62 218.46 76.33L204.4 62.89V54.76V54.77Z" fill="#C8A9F2"/>
<path d="M201.7 54.74H201.69C200.856 54.74 200.18 55.416 200.18 56.25V60.8C200.18 61.6339 200.856 62.31 201.69 62.31H201.7C202.534 62.31 203.21 61.6339 203.21 60.8V56.25C203.21 55.416 202.534 54.74 201.7 54.74Z" fill="#C8A9F2"/>
<path d="M228.56 66.62C229.67 65.67 231.21 61.32 231.21 58.52C231.21 55.72 230.17 51.8 228.56 50.42" fill="#C8A9F2"/>
<path d="M233.13 69.24C234.6 67.98 236.64 62.23 236.64 58.52C236.64 54.81 235.27 49.62 233.13 47.8" fill="#C8A9F2"/>
</svg>
