<svg width="70" height="72" viewBox="0 0 70 72" fill="none" xmlns="http://www.w3.org/2000/svg">
<path d="M34.5 71.98C53.5538 71.98 69 56.5338 69 37.48C69 18.4262 53.5538 2.97998 34.5 2.97998C15.4462 2.97998 0 18.4262 0 37.48C0 56.5338 15.4462 71.98 34.5 71.98Z" fill="#E8E3E6"/>
<path d="M34.53 69C53.5839 69 69.03 53.5538 69.03 34.5C69.03 15.4462 53.5839 0 34.53 0C15.4762 0 0.0300293 15.4462 0.0300293 34.5C0.0300293 53.5538 15.4762 69 34.53 69Z" fill="#BDCFF6"/>
<path d="M27.03 18.75H18.03V27.75H27.03V18.75Z" fill="white"/>
<path d="M39.03 18.75H30.03V27.75H39.03V18.75Z" fill="white"/>
<path d="M51.03 18.75H42.03V27.75H51.03V18.75Z" fill="white"/>
<path d="M27.03 29.75H18.03V38.75H27.03V29.75Z" fill="white"/>
<path d="M39.03 29.75H30.03V38.75H39.03V29.75Z" fill="white"/>
<path d="M51.03 29.75H42.03V38.75H51.03V29.75Z" fill="white"/>
<path d="M27.03 41.75H18.03V50.75H27.03V41.75Z" fill="white"/>
<path d="M39.03 41.75H30.03V50.75H39.03V41.75Z" fill="white"/>
<path d="M51.03 41.75H42.03V50.75H51.03V41.75Z" fill="white"/>
</svg>
