<svg width="427" height="95" viewBox="0 0 427 95" fill="none" xmlns="http://www.w3.org/2000/svg">
<path d="M397.19 24.8401H29.81C13.3464 24.8401 0 38.1865 0 54.6501V65.0301C0 81.4937 13.3464 94.8401 29.81 94.8401H397.19C413.654 94.8401 427 81.4937 427 65.0301V54.6501C427 38.1865 413.654 24.8401 397.19 24.8401Z" fill="#92C1D6"/>
<path d="M46.35 73.6299C45.02 73.0199 43.97 72.1699 43.22 71.0899C42.47 70.0099 42.05 68.7899 42 67.4399H44.81C44.94 68.7299 45.51 69.8699 46.52 70.8399C47.53 71.8199 49.02 72.2999 50.97 72.2999C52.77 72.2999 54.19 71.8399 55.25 70.9099C56.3 69.9899 56.83 68.8099 56.83 67.3999C56.83 66.2599 56.54 65.3399 55.96 64.6399C55.38 63.9399 54.65 63.4299 53.79 63.0799C52.93 62.7399 51.74 62.3699 50.22 61.9599C48.45 61.4799 47.04 61.0099 46 60.5499C44.96 60.0899 44.07 59.3799 43.34 58.4199C42.6 57.4599 42.24 56.1499 42.24 54.5099C42.24 53.1399 42.59 51.9199 43.3 50.8399C44.01 49.7599 45.01 48.9199 46.3 48.3099C47.59 47.6999 49.07 47.3999 50.75 47.3999C53.21 47.3999 55.19 47.9999 56.7 49.1999C58.21 50.3999 59.08 51.9599 59.3 53.8499H56.41C56.23 52.7599 55.64 51.7899 54.62 50.9399C53.61 50.0899 52.24 49.6699 50.52 49.6699C48.92 49.6699 47.59 50.0999 46.53 50.9399C45.47 51.7899 44.93 52.9499 44.93 54.4199C44.93 55.5399 45.22 56.4299 45.8 57.1199C46.38 57.7999 47.11 58.3199 47.98 58.6799C48.85 59.0399 50.04 59.4199 51.53 59.8199C53.25 60.2999 54.65 60.7799 55.71 61.2499C56.77 61.7199 57.67 62.4299 58.41 63.3999C59.14 64.3599 59.51 65.6499 59.51 67.2799C59.51 68.5199 59.18 69.6999 58.52 70.8199C57.86 71.9399 56.89 72.8299 55.59 73.5199C54.29 74.2099 52.75 74.5499 50.95 74.5499C49.15 74.5499 47.66 74.2499 46.33 73.6399L46.35 73.6299Z" fill="white"/>
<path d="M67.15 49.8799V59.7999H77.22V61.9999H67.15V72.0699H78.36V74.2699H64.49V47.6699H78.36V49.8699H67.15V49.8799Z" fill="white"/>
<path d="M86.11 72.11H95.65V74.28H83.45V47.72H86.11V72.11Z" fill="white"/>
<path d="M101.96 49.8799V59.7999H112.03V61.9999H101.96V72.0699H113.17V74.2699H99.3V47.6699H113.17V49.8699H101.96V49.8799Z" fill="white"/>
<path d="M118.75 53.9699C119.89 51.9099 121.45 50.2999 123.42 49.1399C125.4 47.9899 127.6 47.4099 130.03 47.4099C132.99 47.4099 135.53 48.1099 137.65 49.5199C139.77 50.9299 141.3 52.9099 142.27 55.4699H139.15C138.39 53.6699 137.23 52.2599 135.67 51.2499C134.11 50.2399 132.23 49.7299 130.03 49.7299C128.08 49.7299 126.33 50.1899 124.77 51.0999C123.21 52.0099 121.99 53.3199 121.1 55.0299C120.21 56.7399 119.77 58.7199 119.77 60.9799C119.77 63.2399 120.21 65.2099 121.1 66.9099C121.99 68.6099 123.21 69.9099 124.77 70.8199C126.33 71.7299 128.08 72.1899 130.03 72.1899C132.23 72.1899 134.11 71.6899 135.67 70.6899C137.23 69.6899 138.39 68.2999 139.15 66.5299H142.27C141.31 69.0599 139.76 71.0299 137.63 72.4199C135.5 73.8099 132.97 74.5099 130.03 74.5099C127.6 74.5099 125.39 73.9299 123.42 72.7799C121.44 71.6299 119.89 70.0199 118.75 67.9699C117.61 65.9199 117.04 63.5899 117.04 60.9799C117.04 58.3699 117.61 56.0299 118.75 53.9699Z" fill="white"/>
<path d="M150.06 47.72V74.28H147.4V47.72H150.06Z" fill="white"/>
<path d="M161.2 72.8099C159.2 71.6599 157.62 70.0499 156.47 67.9799C155.32 65.9199 154.74 63.5799 154.74 60.9699C154.74 58.3599 155.32 56.0199 156.47 53.9599C157.62 51.8999 159.2 50.2899 161.2 49.1299C163.2 47.9799 165.43 47.3999 167.89 47.3999C170.35 47.3999 172.61 47.9799 174.62 49.1299C176.62 50.2799 178.19 51.8899 179.33 53.9599C180.47 56.0199 181.04 58.3599 181.04 60.9699C181.04 63.5799 180.47 65.9199 179.33 67.9799C178.19 70.0499 176.62 71.6499 174.62 72.8099C172.62 73.9599 170.38 74.5399 167.89 74.5399C165.4 74.5399 163.2 73.9699 161.2 72.8099ZM173.21 70.8599C174.78 69.9499 176.02 68.6399 176.93 66.9299C177.84 65.2199 178.3 63.2399 178.3 60.9799C178.3 58.7199 177.84 56.7499 176.93 55.0499C176.02 53.3499 174.78 52.0499 173.21 51.1399C171.64 50.2299 169.87 49.7699 167.89 49.7699C165.91 49.7699 164.14 50.2299 162.57 51.1399C161 52.0499 159.76 53.3599 158.85 55.0499C157.94 56.7399 157.48 58.7199 157.48 60.9799C157.48 63.2399 157.94 65.2199 158.85 66.9299C159.76 68.6399 161 69.9499 162.57 70.8599C164.14 71.7699 165.91 72.2299 167.89 72.2299C169.87 72.2299 171.64 71.7699 173.21 70.8599Z" fill="white"/>
<path d="M205.77 74.28H203.11L188.4 51.94V74.28H185.74V47.72H188.4L203.11 70.02V47.72H205.77V74.28Z" fill="white"/>
<path d="M214.32 49.8799V59.7999H224.39V61.9999H214.32V72.0699H225.53V74.2699H211.66V47.6699H225.53V49.8699H214.32V49.8799Z" fill="white"/>
<path d="M246.13 72.8099C244.13 71.6599 242.55 70.0499 241.4 67.9799C240.25 65.9199 239.67 63.5799 239.67 60.9699C239.67 58.3599 240.25 56.0199 241.4 53.9599C242.55 51.8999 244.13 50.2899 246.13 49.1299C248.13 47.9799 250.36 47.3999 252.82 47.3999C255.28 47.3999 257.54 47.9799 259.55 49.1299C261.55 50.2799 263.12 51.8899 264.26 53.9599C265.4 56.0199 265.97 58.3599 265.97 60.9699C265.97 63.5799 265.4 65.9199 264.26 67.9799C263.12 70.0499 261.55 71.6499 259.55 72.8099C257.55 73.9599 255.31 74.5399 252.82 74.5399C250.33 74.5399 248.13 73.9699 246.13 72.8099ZM258.14 70.8599C259.71 69.9499 260.95 68.6399 261.86 66.9299C262.77 65.2199 263.23 63.2399 263.23 60.9799C263.23 58.7199 262.77 56.7499 261.86 55.0499C260.95 53.3499 259.71 52.0499 258.14 51.1399C256.57 50.2299 254.8 49.7699 252.82 49.7699C250.84 49.7699 249.07 50.2299 247.5 51.1399C245.93 52.0499 244.69 53.3599 243.78 55.0499C242.87 56.7399 242.41 58.7199 242.41 60.9799C242.41 63.2399 242.87 65.2199 243.78 66.9299C244.69 68.6399 245.93 69.9499 247.5 70.8599C249.07 71.7699 250.84 72.2299 252.82 72.2299C254.8 72.2299 256.57 71.7699 258.14 70.8599Z" fill="white"/>
<path d="M293.21 47.72V67.82C293.21 69.85 292.59 71.47 291.35 72.7C290.11 73.93 288.45 74.54 286.37 74.54C284.29 74.54 282.5 73.89 281.22 72.58C279.94 71.28 279.3 69.51 279.3 67.28H282C282.02 68.73 282.39 69.9 283.08 70.82C283.78 71.73 284.87 72.19 286.37 72.19C287.79 72.19 288.84 71.77 289.52 70.94C290.2 70.1 290.55 69.06 290.55 67.82V47.72H293.21Z" fill="white"/>
<path d="M304.99 72.8099C302.99 71.6599 301.41 70.0499 300.26 67.9799C299.11 65.9199 298.53 63.5799 298.53 60.9699C298.53 58.3599 299.11 56.0199 300.26 53.9599C301.41 51.8999 302.99 50.2899 304.99 49.1299C306.99 47.9799 309.22 47.3999 311.68 47.3999C314.14 47.3999 316.4 47.9799 318.41 49.1299C320.41 50.2799 321.98 51.8899 323.12 53.9599C324.26 56.0299 324.83 58.3599 324.83 60.9699C324.83 63.5799 324.26 65.9199 323.12 67.9799C321.98 70.0499 320.41 71.6499 318.41 72.8099C316.41 73.9599 314.17 74.5399 311.68 74.5399C309.19 74.5399 306.99 73.9699 304.99 72.8099ZM317 70.8599C318.57 69.9499 319.81 68.6399 320.72 66.9299C321.63 65.2199 322.09 63.2399 322.09 60.9799C322.09 58.7199 321.63 56.7499 320.72 55.0499C319.81 53.3499 318.57 52.0499 317 51.1399C315.43 50.2299 313.66 49.7699 311.68 49.7699C309.7 49.7699 307.93 50.2299 306.36 51.1399C304.79 52.0499 303.55 53.3599 302.64 55.0499C301.73 56.7499 301.27 58.7199 301.27 60.9799C301.27 63.2399 301.73 65.2199 302.64 66.9299C303.55 68.6399 304.79 69.9499 306.36 70.8599C307.93 71.7699 309.7 72.2299 311.68 72.2299C313.66 72.2299 315.43 71.7699 317 70.8599Z" fill="white"/>
<path d="M350.44 55.4699C349.68 53.7199 348.52 52.3499 346.96 51.3499C345.4 50.3499 343.57 49.8499 341.47 49.8499C339.49 49.8499 337.72 50.3099 336.15 51.2199C334.58 52.1299 333.34 53.4299 332.43 55.1199C331.52 56.7999 331.06 58.7599 331.06 60.9899C331.06 63.2199 331.52 65.1799 332.43 66.8799C333.34 68.5799 334.58 69.8799 336.15 70.7899C337.72 71.6999 339.49 72.1599 341.47 72.1599C343.32 72.1599 344.98 71.7599 346.47 70.9599C347.95 70.1599 349.14 69.0199 350.04 67.5399C350.94 66.0599 351.45 64.3299 351.58 62.3499H340.41V60.1799H354.39V62.1199C354.26 64.4499 353.63 66.5599 352.49 68.4499C351.35 70.3399 349.82 71.8299 347.91 72.9099C346 73.9899 343.85 74.5399 341.47 74.5399C339.09 74.5399 336.78 73.9699 334.78 72.8099C332.78 71.6599 331.2 70.0499 330.05 67.9799C328.9 65.9199 328.32 63.5799 328.32 60.9699C328.32 58.3599 328.9 56.0199 330.05 53.9599C331.2 51.8999 332.78 50.2899 334.78 49.1299C336.78 47.9799 339.01 47.3999 341.47 47.3999C344.31 47.3999 346.79 48.1099 348.92 49.5299C351.05 50.9499 352.59 52.9299 353.56 55.4599H350.44V55.4699Z" fill="white"/>
<path d="M364.34 72.8099C362.34 71.6599 360.76 70.0499 359.61 67.9799C358.46 65.9199 357.88 63.5799 357.88 60.9699C357.88 58.3599 358.46 56.0199 359.61 53.9599C360.76 51.8999 362.34 50.2899 364.34 49.1299C366.34 47.9799 368.57 47.3999 371.03 47.3999C373.49 47.3999 375.75 47.9799 377.76 49.1299C379.76 50.2799 381.33 51.8899 382.47 53.9599C383.61 56.0199 384.18 58.3599 384.18 60.9699C384.18 63.5799 383.61 65.9199 382.47 67.9799C381.33 70.0499 379.76 71.6499 377.76 72.8099C375.76 73.9599 373.52 74.5399 371.03 74.5399C368.54 74.5399 366.34 73.9699 364.34 72.8099ZM376.35 70.8599C377.92 69.9499 379.16 68.6399 380.07 66.9299C380.98 65.2199 381.44 63.2399 381.44 60.9799C381.44 58.7199 380.98 56.7499 380.07 55.0499C379.16 53.3499 377.92 52.0499 376.35 51.1399C374.78 50.2299 373.01 49.7699 371.03 49.7699C369.05 49.7699 367.28 50.2299 365.71 51.1399C364.14 52.0499 362.9 53.3599 361.99 55.0499C361.08 56.7399 360.62 58.7199 360.62 60.9799C360.62 63.2399 361.08 65.2199 361.99 66.9299C362.9 68.6399 364.14 69.9499 365.71 70.8599C367.28 71.7699 369.05 72.2299 371.03 72.2299C373.01 72.2299 374.78 71.7699 376.35 70.8599Z" fill="white"/>
<path d="M126.05 2.14993C127 2.62993 127.72 3.31993 128.23 4.21993C128.74 5.10993 128.99 6.16993 128.99 7.37993C128.99 8.58993 128.74 9.63993 128.23 10.5299C127.73 11.4199 127 12.0999 126.05 12.5699C125.1 13.0399 123.99 13.2799 122.69 13.2799H119V1.42993H122.69C123.98 1.42993 125.1 1.66993 126.05 2.14993ZM126.2 10.7799C127 9.96993 127.41 8.82993 127.41 7.36993C127.41 5.90993 127.01 4.74993 126.2 3.91993C125.39 3.08993 124.23 2.67993 122.71 2.67993H120.57V11.9999H122.71C124.24 11.9999 125.41 11.5999 126.21 10.7899L126.2 10.7799Z" fill="#A8A8A8"/>
<path d="M132.72 12.8301C132.01 12.4301 131.46 11.8701 131.05 11.1401C130.65 10.4101 130.45 9.56006 130.45 8.60006C130.45 7.64006 130.66 6.81006 131.07 6.08006C131.48 5.35006 132.05 4.79006 132.76 4.40006C133.47 4.01006 134.27 3.81006 135.16 3.81006C136.05 3.81006 136.84 4.01006 137.56 4.40006C138.27 4.79006 138.84 5.35006 139.25 6.07006C139.66 6.79006 139.87 7.64006 139.87 8.60006C139.87 9.56006 139.66 10.4101 139.23 11.1401C138.8 11.8701 138.23 12.4301 137.5 12.8301C136.78 13.2301 135.97 13.4301 135.09 13.4301C134.21 13.4301 133.43 13.2301 132.72 12.8301ZM136.65 11.6801C137.14 11.4201 137.53 11.0301 137.83 10.5101C138.13 9.99006 138.28 9.35006 138.28 8.61006C138.28 7.87006 138.13 7.23006 137.84 6.71006C137.55 6.19006 137.16 5.80006 136.68 5.55006C136.21 5.30006 135.69 5.17006 135.13 5.17006C134.57 5.17006 134.05 5.30006 133.58 5.55006C133.11 5.80006 132.73 6.19006 132.45 6.71006C132.17 7.23006 132.02 7.87006 132.02 8.61006C132.02 9.35006 132.16 10.0101 132.44 10.5301C132.72 11.0501 133.09 11.4401 133.55 11.6901C134.01 11.9401 134.52 12.0701 135.08 12.0701C135.64 12.0701 136.16 11.9401 136.64 11.6801H136.65Z" fill="#A8A8A8"/>
<path d="M144.84 4.32994C145.45 3.97994 146.15 3.79994 146.93 3.79994C147.77 3.79994 148.52 3.99994 149.19 4.38994C149.86 4.78994 150.39 5.34994 150.77 6.05994C151.15 6.76994 151.35 7.61994 151.35 8.56994C151.35 9.51994 151.16 10.3499 150.77 11.0899C150.38 11.8299 149.85 12.3999 149.18 12.8099C148.51 13.2199 147.75 13.4199 146.93 13.4199C146.11 13.4199 145.42 13.2399 144.81 12.8899C144.2 12.5399 143.75 12.0899 143.44 11.5499V13.2699H141.89V0.689941H143.44V5.68994C143.76 5.13994 144.22 4.67994 144.83 4.32994H144.84ZM149.35 6.74994C149.07 6.22994 148.68 5.82994 148.2 5.55994C147.72 5.28994 147.19 5.14994 146.61 5.14994C146.03 5.14994 145.52 5.28994 145.04 5.56994C144.56 5.84994 144.17 6.24994 143.88 6.77994C143.59 7.30994 143.45 7.91994 143.45 8.60994C143.45 9.29994 143.59 9.92994 143.88 10.4499C144.17 10.9799 144.56 11.3799 145.04 11.6599C145.52 11.9399 146.05 12.0799 146.61 12.0799C147.17 12.0799 147.72 11.9399 148.2 11.6599C148.68 11.3799 149.07 10.9799 149.35 10.4499C149.63 9.91994 149.77 9.29994 149.77 8.58994C149.77 7.87994 149.63 7.27994 149.35 6.74994Z" fill="#A8A8A8"/>
<path d="M156.11 4.23004C156.61 3.94004 157.23 3.79004 157.95 3.79004V5.39004H157.54C155.81 5.39004 154.94 6.33004 154.94 8.21004V13.28H153.39V3.96004H154.94V5.47004C155.21 4.94004 155.6 4.52004 156.1 4.23004H156.11Z" fill="#A8A8A8"/>
<path d="M159.74 6.07006C160.12 5.35006 160.65 4.79006 161.33 4.40006C162 4.00006 162.75 3.81006 163.58 3.81006C164.41 3.81006 165.1 3.99006 165.7 4.34006C166.3 4.69006 166.75 5.13006 167.04 5.67006V3.97006H168.6V13.2901H167.04V11.5601C166.73 12.1001 166.28 12.5601 165.67 12.9101C165.06 13.2701 164.36 13.4501 163.55 13.4501C162.74 13.4501 161.98 13.2501 161.31 12.8401C160.64 12.4301 160.11 11.8601 159.73 11.1201C159.35 10.3801 159.15 9.54006 159.15 8.60006C159.15 7.66006 159.34 6.81006 159.73 6.09006L159.74 6.07006ZM166.62 6.76006C166.34 6.24006 165.95 5.84006 165.47 5.56006C164.99 5.28006 164.46 5.14006 163.88 5.14006C163.3 5.14006 162.77 5.28006 162.3 5.55006C161.83 5.82006 161.44 6.22006 161.16 6.74006C160.88 7.26006 160.73 7.87006 160.73 8.58006C160.73 9.29006 160.87 9.91006 161.16 10.4401C161.44 10.9701 161.82 11.3701 162.3 11.6501C162.78 11.9301 163.3 12.0701 163.88 12.0701C164.46 12.0701 164.99 11.9301 165.47 11.6501C165.95 11.3701 166.33 10.9701 166.62 10.4401C166.9 9.91006 167.05 9.30006 167.05 8.60006C167.05 7.90006 166.91 7.29006 166.62 6.76006Z" fill="#A8A8A8"/>
<path d="M171.23 6.06995C171.61 5.34995 172.14 4.78995 172.82 4.39995C173.49 3.99995 174.25 3.80995 175.09 3.80995C175.81 3.80995 176.49 3.97995 177.11 4.30995C177.73 4.63995 178.21 5.07995 178.54 5.62995V0.699951H180.1V13.2799H178.54V11.5299C178.23 12.0899 177.78 12.54 177.18 12.9C176.58 13.26 175.88 13.44 175.07 13.44C174.26 13.44 173.49 13.24 172.82 12.83C172.14 12.42 171.61 11.85 171.23 11.11C170.85 10.37 170.65 9.52995 170.65 8.58995C170.65 7.64995 170.84 6.79995 171.23 6.07995V6.06995ZM178.11 6.75995C177.83 6.23995 177.44 5.83995 176.96 5.55995C176.48 5.27995 175.95 5.13995 175.37 5.13995C174.79 5.13995 174.26 5.27995 173.79 5.54995C173.32 5.81995 172.93 6.21995 172.65 6.73995C172.37 7.25995 172.22 7.86995 172.22 8.57995C172.22 9.28995 172.36 9.90995 172.65 10.4399C172.93 10.9699 173.31 11.37 173.79 11.65C174.27 11.93 174.79 12.07 175.37 12.07C175.95 12.07 176.48 11.93 176.96 11.65C177.44 11.37 177.82 10.9699 178.11 10.4399C178.39 9.90995 178.54 9.29995 178.54 8.59995C178.54 7.89995 178.4 7.28995 178.11 6.75995Z" fill="#A8A8A8"/>
<path d="M190.98 3.95996V13.28H189.43V11.9C189.14 12.38 188.72 12.75 188.2 13.01C187.67 13.28 187.09 13.41 186.46 13.41C185.74 13.41 185.08 13.26 184.5 12.96C183.92 12.66 183.47 12.21 183.13 11.61C182.79 11.01 182.63 10.28 182.63 9.41996V3.95996H184.16V9.20996C184.16 10.13 184.39 10.83 184.86 11.33C185.33 11.83 185.96 12.07 186.76 12.07C187.56 12.07 188.24 11.82 188.72 11.31C189.2 10.8 189.43 10.06 189.43 9.07996V3.95996H190.98Z" fill="#A8A8A8"/>
<path d="M196.31 4.23004C196.81 3.94004 197.43 3.79004 198.15 3.79004V5.39004H197.74C196.01 5.39004 195.14 6.33004 195.14 8.21004V13.28H193.59V3.96004H195.14V5.47004C195.41 4.94004 195.8 4.52004 196.3 4.23004H196.31Z" fill="#A8A8A8"/>
<path d="M199.94 6.07006C200.33 5.35006 200.86 4.79006 201.53 4.40006C202.2 4.01006 202.96 3.81006 203.78 3.81006C204.6 3.81006 205.3 3.99006 205.9 4.34006C206.5 4.69006 206.95 5.13006 207.24 5.67006V3.97006H208.8V13.2901H207.24V11.5601C206.94 12.1001 206.48 12.5601 205.87 12.9101C205.26 13.2701 204.56 13.4501 203.75 13.4501C202.94 13.4501 202.17 13.2501 201.51 12.8401C200.84 12.4301 200.31 11.8601 199.93 11.1201C199.55 10.3801 199.35 9.54006 199.35 8.60006C199.35 7.66006 199.54 6.81006 199.93 6.09006L199.94 6.07006ZM206.83 6.76006C206.54 6.24006 206.16 5.84006 205.68 5.56006C205.2 5.28006 204.67 5.14006 204.09 5.14006C203.51 5.14006 202.98 5.28006 202.51 5.55006C202.03 5.82006 201.65 6.22006 201.37 6.74006C201.08 7.26006 200.94 7.87006 200.94 8.58006C200.94 9.29006 201.08 9.91006 201.37 10.4401C201.65 10.9701 202.03 11.3701 202.51 11.6501C202.98 11.9301 203.51 12.0701 204.09 12.0701C204.67 12.0701 205.2 11.9301 205.68 11.6501C206.16 11.3701 206.54 10.9701 206.83 10.4401C207.11 9.91006 207.25 9.30006 207.25 8.60006C207.25 7.90006 207.11 7.29006 206.83 6.76006Z" fill="#A8A8A8"/>
<path d="M212.81 13.0601C212.24 12.8201 211.8 12.4801 211.47 12.0401C211.14 11.6001 210.96 11.1001 210.93 10.5401H212.53C212.57 11.0001 212.79 11.3801 213.18 11.6801C213.57 11.9701 214.08 12.1201 214.72 12.1201C215.31 12.1201 215.77 11.9901 216.11 11.7301C216.45 11.4701 216.62 11.1401 216.62 10.7401C216.62 10.3401 216.44 10.0301 216.08 9.83006C215.72 9.63006 215.16 9.44006 214.4 9.24006C213.71 9.06006 213.14 8.87006 212.71 8.69006C212.27 8.50006 211.9 8.23006 211.59 7.86006C211.28 7.49006 211.12 7.01006 211.12 6.41006C211.12 5.93006 211.26 5.50006 211.55 5.10006C211.84 4.70006 212.24 4.39006 212.76 4.16006C213.28 3.93006 213.88 3.81006 214.55 3.81006C215.58 3.81006 216.41 4.07006 217.05 4.59006C217.68 5.11006 218.02 5.83006 218.07 6.73006H216.52C216.49 6.24006 216.29 5.85006 215.93 5.56006C215.57 5.27006 215.09 5.12006 214.49 5.12006C213.94 5.12006 213.49 5.24006 213.17 5.48006C212.84 5.72006 212.68 6.03006 212.68 6.41006C212.68 6.72006 212.78 6.97006 212.98 7.17006C213.18 7.37006 213.43 7.53006 213.73 7.65006C214.03 7.77006 214.45 7.90006 214.98 8.05006C215.65 8.23006 216.19 8.41006 216.61 8.59006C217.03 8.77006 217.39 9.03006 217.69 9.38006C217.99 9.73006 218.15 10.1901 218.16 10.7601C218.16 11.2701 218.02 11.7301 217.73 12.1401C217.44 12.5501 217.05 12.8701 216.53 13.1001C216.01 13.3301 215.42 13.4501 214.75 13.4501C214.04 13.4501 213.4 13.3301 212.83 13.0801L212.81 13.0601Z" fill="#A8A8A8"/>
<path d="M233.3 9.19004H225.85C225.91 10.11 226.22 10.82 226.8 11.34C227.37 11.86 228.07 12.11 228.88 12.11C229.55 12.11 230.11 11.95 230.55 11.64C231 11.33 231.31 10.91 231.49 10.39H233.16C232.91 11.29 232.41 12.01 231.66 12.57C230.91 13.13 229.98 13.41 228.87 13.41C227.99 13.41 227.19 13.21 226.5 12.81C225.8 12.41 225.26 11.85 224.86 11.12C224.46 10.39 224.26 9.54004 224.26 8.58004C224.26 7.62004 224.45 6.77004 224.84 6.05004C225.23 5.33004 225.77 4.77004 226.46 4.38004C227.16 3.99004 227.96 3.79004 228.87 3.79004C229.78 3.79004 230.54 3.98004 231.22 4.37004C231.9 4.75004 232.42 5.29004 232.79 5.96004C233.16 6.63004 233.34 7.40004 233.34 8.25004C233.34 8.54004 233.32 8.86004 233.29 9.18004L233.3 9.19004ZM231.36 6.41004C231.1 5.99004 230.74 5.66004 230.3 5.44004C229.85 5.22004 229.36 5.11004 228.81 5.11004C228.03 5.11004 227.36 5.36004 226.81 5.86004C226.26 6.36004 225.95 7.05004 225.87 7.93004H231.75C231.75 7.34004 231.62 6.83004 231.36 6.41004Z" fill="#A8A8A8"/>
<path d="M242.64 4.23004C243.14 3.94004 243.76 3.79004 244.48 3.79004V5.39004H244.07C242.34 5.39004 241.47 6.33004 241.47 8.21004V13.28H239.92V3.96004H241.47V5.47004C241.74 4.94004 242.13 4.52004 242.63 4.23004H242.64Z" fill="#A8A8A8"/>
<path d="M254.72 9.19004H247.27C247.33 10.11 247.64 10.82 248.22 11.34C248.79 11.86 249.49 12.11 250.3 12.11C250.97 12.11 251.53 11.95 251.97 11.64C252.42 11.33 252.73 10.91 252.91 10.39H254.58C254.33 11.29 253.83 12.01 253.08 12.57C252.33 13.13 251.4 13.41 250.29 13.41C249.41 13.41 248.61 13.21 247.92 12.81C247.22 12.41 246.68 11.85 246.28 11.12C245.88 10.39 245.68 9.54004 245.68 8.58004C245.68 7.62004 245.87 6.77004 246.26 6.05004C246.65 5.33004 247.19 4.77004 247.88 4.38004C248.58 3.99004 249.38 3.79004 250.29 3.79004C251.2 3.79004 251.96 3.98004 252.64 4.37004C253.32 4.75004 253.84 5.29004 254.21 5.96004C254.58 6.63004 254.76 7.40004 254.76 8.25004C254.76 8.54004 254.74 8.86004 254.71 9.18004L254.72 9.19004ZM252.78 6.41004C252.52 5.99004 252.16 5.66004 251.72 5.44004C251.27 5.22004 250.78 5.11004 250.23 5.11004C249.45 5.11004 248.78 5.36004 248.23 5.86004C247.68 6.36004 247.37 7.05004 247.29 7.93004H253.17C253.17 7.34004 253.04 6.83004 252.78 6.41004Z" fill="#A8A8A8"/>
<path d="M256.81 6.07006C257.19 5.35006 257.73 4.79006 258.42 4.40006C259.11 4.00006 259.89 3.81006 260.78 3.81006C261.92 3.81006 262.87 4.09006 263.61 4.64006C264.35 5.19006 264.84 5.97006 265.08 6.95006H263.41C263.25 6.38006 262.94 5.94006 262.48 5.61006C262.02 5.28006 261.45 5.12006 260.77 5.12006C259.89 5.12006 259.17 5.42006 258.63 6.03006C258.09 6.64006 257.81 7.50006 257.81 8.61006C257.81 9.72006 258.08 10.6001 258.63 11.2101C259.17 11.8201 259.89 12.1301 260.77 12.1301C261.45 12.1301 262.02 11.9701 262.47 11.6501C262.92 11.3301 263.24 10.8801 263.41 10.2901H265.08C264.83 11.2401 264.33 12.0001 263.58 12.5801C262.83 13.1601 261.9 13.4401 260.78 13.4401C259.9 13.4401 259.11 13.2401 258.42 12.8401C257.73 12.4401 257.2 11.8801 256.81 11.1601C256.42 10.4401 256.23 9.58006 256.23 8.61006C256.23 7.64006 256.42 6.81006 256.81 6.09006V6.07006Z" fill="#A8A8A8"/>
<path d="M268.82 12.8301C268.11 12.4301 267.55 11.8701 267.15 11.1401C266.75 10.4101 266.55 9.56006 266.55 8.60006C266.55 7.64006 266.76 6.81006 267.17 6.08006C267.58 5.35006 268.15 4.79006 268.86 4.40006C269.57 4.01006 270.37 3.81006 271.26 3.81006C272.15 3.81006 272.94 4.01006 273.66 4.40006C274.37 4.79006 274.94 5.35006 275.35 6.07006C275.76 6.79006 275.97 7.64006 275.97 8.60006C275.97 9.56006 275.76 10.4101 275.33 11.1401C274.91 11.8701 274.33 12.4301 273.61 12.8301C272.88 13.2301 272.08 13.4301 271.2 13.4301C270.32 13.4301 269.54 13.2301 268.83 12.8301H268.82ZM272.75 11.6801C273.24 11.4201 273.63 11.0301 273.93 10.5101C274.23 9.99006 274.38 9.35006 274.38 8.61006C274.38 7.87006 274.23 7.23006 273.94 6.71006C273.65 6.19006 273.26 5.80006 272.78 5.55006C272.3 5.30006 271.79 5.17006 271.23 5.17006C270.67 5.17006 270.14 5.30006 269.67 5.55006C269.2 5.80006 268.82 6.19006 268.54 6.71006C268.25 7.23006 268.11 7.87006 268.11 8.61006C268.11 9.35006 268.25 10.0101 268.53 10.5301C268.81 11.0501 269.18 11.4401 269.64 11.6901C270.1 11.9401 270.61 12.0701 271.17 12.0701C271.73 12.0701 272.25 11.9401 272.73 11.6801H272.75Z" fill="#A8A8A8"/>
<path d="M280.72 4.23004C281.22 3.94004 281.84 3.79004 282.57 3.79004V5.39004H282.16C280.43 5.39004 279.56 6.33004 279.56 8.21004V13.28H278.01V3.96004H279.56V5.47004C279.83 4.94004 280.22 4.52004 280.72 4.23004Z" fill="#A8A8A8"/>
<path d="M286.23 5.22985V10.7199C286.23 11.1699 286.33 11.4899 286.52 11.6799C286.71 11.8699 287.05 11.9599 287.52 11.9599H288.66V13.2699H287.27C286.41 13.2699 285.76 13.0699 285.33 12.6799C284.9 12.2799 284.69 11.6299 284.69 10.7199V5.22985H283.48V3.94986H284.69V1.59985H286.24V3.94986H288.67V5.22985H286.24H286.23Z" fill="#A8A8A8"/>
<path d="M298.98 9.19004H291.53C291.59 10.11 291.9 10.82 292.48 11.34C293.05 11.86 293.75 12.11 294.56 12.11C295.23 12.11 295.79 11.95 296.23 11.64C296.68 11.33 296.99 10.91 297.17 10.39H298.84C298.59 11.29 298.09 12.01 297.34 12.57C296.59 13.13 295.66 13.41 294.55 13.41C293.67 13.41 292.87 13.21 292.18 12.81C291.48 12.41 290.94 11.85 290.54 11.12C290.14 10.39 289.94 9.54004 289.94 8.58004C289.94 7.62004 290.13 6.77004 290.52 6.05004C290.91 5.33004 291.45 4.77004 292.14 4.38004C292.84 3.99004 293.64 3.79004 294.55 3.79004C295.46 3.79004 296.22 3.98004 296.9 4.37004C297.58 4.75004 298.1 5.29004 298.47 5.96004C298.84 6.63004 299.02 7.40004 299.02 8.25004C299.02 8.54004 299 8.86004 298.97 9.18004L298.98 9.19004ZM297.05 6.41004C296.79 5.99004 296.43 5.66004 295.99 5.44004C295.54 5.22004 295.05 5.11004 294.5 5.11004C293.72 5.11004 293.05 5.36004 292.5 5.86004C291.95 6.36004 291.64 7.05004 291.56 7.93004H297.44C297.44 7.34004 297.31 6.83004 297.05 6.41004Z" fill="#A8A8A8"/>
<path d="M302.45 13.0601C301.88 12.8201 301.44 12.4801 301.11 12.0401C300.78 11.6001 300.6 11.1001 300.57 10.5401H302.17C302.21 11.0001 302.43 11.3801 302.82 11.6801C303.21 11.9801 303.72 12.1201 304.36 12.1201C304.95 12.1201 305.41 11.9901 305.75 11.7301C306.09 11.4701 306.26 11.1401 306.26 10.7401C306.26 10.3401 306.08 10.0301 305.72 9.83006C305.36 9.63006 304.8 9.44006 304.04 9.24006C303.35 9.06006 302.79 8.87006 302.35 8.69006C301.91 8.50006 301.54 8.23006 301.23 7.86006C300.92 7.49006 300.76 7.01006 300.76 6.41006C300.76 5.93006 300.9 5.50006 301.18 5.10006C301.46 4.70006 301.87 4.39006 302.39 4.16006C302.91 3.93006 303.51 3.81006 304.18 3.81006C305.21 3.81006 306.05 4.07006 306.68 4.59006C307.31 5.11006 307.65 5.83006 307.7 6.73006H306.15C306.11 6.24006 305.92 5.85006 305.56 5.56006C305.2 5.27006 304.72 5.12006 304.12 5.12006C303.57 5.12006 303.12 5.24006 302.79 5.48006C302.46 5.72006 302.3 6.03006 302.3 6.41006C302.3 6.72006 302.4 6.97006 302.6 7.17006C302.8 7.37006 303.05 7.53006 303.35 7.65006C303.65 7.77006 304.07 7.90006 304.6 8.05006C305.27 8.23006 305.81 8.41006 306.23 8.59006C306.65 8.77006 307.01 9.03006 307.31 9.38006C307.61 9.73006 307.77 10.1901 307.78 10.7601C307.78 11.2701 307.64 11.7301 307.36 12.1401C307.08 12.5501 306.68 12.8701 306.16 13.1001C305.64 13.3301 305.05 13.4501 304.38 13.4501C303.67 13.4501 303.02 13.3301 302.46 13.0801L302.45 13.0601Z" fill="#A8A8A8"/>
</svg>
