<svg width="1209" height="720" viewBox="0 0 1209 720" fill="none" xmlns="http://www.w3.org/2000/svg">
<path d="M715.84 24.27H484.41C467.946 24.27 454.6 37.6164 454.6 54.08V64.46C454.6 80.9236 467.946 94.27 484.41 94.27H715.84C732.304 94.27 745.65 80.9236 745.65 64.46V54.08C745.65 37.6164 732.304 24.27 715.84 24.27Z" fill="#E1A9AF"/>
<path d="M561.48 1.57999C562.43 2.05999 563.15 2.74999 563.66 3.64999C564.16 4.53999 564.42 5.59999 564.42 6.80999C564.42 8.01999 564.17 9.06999 563.66 9.95999C563.16 10.85 562.43 11.53 561.48 12C560.53 12.47 559.41 12.71 558.12 12.71H554.43V0.859985H558.12C559.41 0.859985 560.53 1.09999 561.48 1.57999ZM561.63 10.21C562.43 9.39999 562.84 8.25999 562.84 6.79999C562.84 5.33999 562.43 4.17999 561.62 3.34999C560.81 2.51999 559.65 2.10999 558.13 2.10999H555.99V11.43H558.13C559.66 11.43 560.83 11.03 561.63 10.22V10.21Z" fill="#A8A8A8"/>
<path d="M568.15 12.26C567.44 11.86 566.89 11.3 566.48 10.57C566.08 9.83999 565.88 8.98999 565.88 8.02999C565.88 7.06999 566.09 6.23999 566.5 5.50999C566.91 4.77999 567.48 4.21999 568.19 3.82999C568.9 3.43999 569.7 3.23999 570.59 3.23999C571.48 3.23999 572.27 3.43999 572.99 3.82999C573.7 4.21999 574.27 4.77999 574.68 5.49999C575.09 6.21999 575.3 7.06999 575.3 8.02999C575.3 8.98999 575.09 9.83999 574.66 10.57C574.24 11.3 573.66 11.86 572.93 12.26C572.2 12.66 571.4 12.86 570.52 12.86C569.64 12.86 568.86 12.66 568.15 12.26ZM572.08 11.11C572.57 10.85 572.96 10.46 573.26 9.93999C573.56 9.41999 573.71 8.77999 573.71 8.03999C573.71 7.29999 573.56 6.65999 573.27 6.13999C572.98 5.61999 572.59 5.22999 572.11 4.97999C571.63 4.72999 571.12 4.59999 570.56 4.59999C570 4.59999 569.48 4.72999 569 4.97999C568.53 5.22999 568.15 5.61999 567.87 6.13999C567.59 6.65999 567.44 7.29999 567.44 8.03999C567.44 8.77999 567.58 9.43999 567.86 9.95999C568.14 10.48 568.51 10.87 568.97 11.12C569.43 11.37 569.94 11.5 570.5 11.5C571.06 11.5 571.58 11.37 572.06 11.11H572.08Z" fill="#A8A8A8"/>
<path d="M580.28 3.76C580.89 3.41 581.59 3.23 582.37 3.23C583.21 3.23 583.96 3.43 584.63 3.82C585.3 4.22 585.83 4.77999 586.21 5.49C586.6 6.21 586.79 7.05 586.79 8C586.79 8.95 586.6 9.78 586.21 10.52C585.83 11.26 585.29 11.83 584.62 12.24C583.95 12.65 583.19 12.85 582.37 12.85C581.55 12.85 580.86 12.67 580.25 12.32C579.64 11.97 579.19 11.52 578.88 10.98V12.7H577.33V0.119995H578.88V5.12C579.2 4.56999 579.66 4.11 580.27 3.76H580.28ZM584.78 6.18C584.5 5.66 584.11 5.25999 583.63 4.99C583.15 4.72 582.62 4.58 582.04 4.58C581.46 4.58 580.95 4.72 580.47 5C579.99 5.28 579.6 5.68 579.31 6.21C579.02 6.74 578.88 7.35 578.88 8.04C578.88 8.72999 579.02 9.35999 579.31 9.88C579.6 10.41 579.98 10.81 580.47 11.09C580.95 11.37 581.48 11.51 582.04 11.51C582.6 11.51 583.15 11.37 583.63 11.09C584.11 10.81 584.49 10.41 584.78 9.88C585.06 9.35 585.2 8.73 585.2 8.02C585.2 7.31 585.06 6.71 584.78 6.18Z" fill="#A8A8A8"/>
<path d="M591.54 3.65997C592.04 3.36997 592.66 3.21997 593.38 3.21997V4.81997H592.97C591.24 4.81997 590.37 5.75997 590.37 7.63997V12.71H588.82V3.38997H590.37V4.89997C590.64 4.36997 591.03 3.94997 591.53 3.65997H591.54Z" fill="#A8A8A8"/>
<path d="M595.17 5.51C595.56 4.79 596.09 4.23 596.76 3.84C597.43 3.44 598.18 3.25 599.01 3.25C599.84 3.25 600.53 3.43 601.13 3.78C601.73 4.13 602.18 4.57 602.47 5.11V3.41H604.03V12.73H602.47V11C602.16 11.54 601.71 12 601.1 12.35C600.49 12.71 599.79 12.89 598.98 12.89C598.17 12.89 597.4 12.69 596.74 12.28C596.08 11.87 595.54 11.3 595.16 10.56C594.78 9.82 594.58 8.98 594.58 8.04C594.58 7.1 594.77 6.25 595.16 5.53L595.17 5.51ZM602.05 6.19C601.77 5.67 601.38 5.27 600.9 4.99C600.42 4.71 599.89 4.57 599.31 4.57C598.73 4.57 598.2 4.71 597.73 4.98C597.25 5.25 596.87 5.65 596.59 6.17C596.31 6.69 596.16 7.3 596.16 8.01C596.16 8.72 596.3 9.34 596.59 9.87C596.87 10.4 597.25 10.8 597.73 11.08C598.21 11.36 598.73 11.5 599.31 11.5C599.89 11.5 600.42 11.36 600.9 11.08C601.38 10.8 601.76 10.4 602.05 9.87C602.33 9.34 602.47 8.73 602.47 8.03C602.47 7.33 602.33 6.72 602.05 6.19Z" fill="#A8A8A8"/>
<path d="M606.66 5.51002C607.05 4.79002 607.58 4.23001 608.25 3.84001C608.92 3.44001 609.68 3.25001 610.52 3.25001C611.25 3.25001 611.92 3.42001 612.54 3.75001C613.16 4.08001 613.64 4.52001 613.97 5.07001V0.140015H615.53V12.72H613.97V10.97C613.66 11.53 613.21 11.98 612.61 12.34C612.01 12.7 611.31 12.88 610.5 12.88C609.69 12.88 608.92 12.68 608.25 12.27C607.58 11.86 607.05 11.29 606.66 10.55C606.28 9.81001 606.08 8.97001 606.08 8.03001C606.08 7.09001 606.27 6.24002 606.66 5.52002V5.51002ZM613.55 6.19001C613.27 5.67001 612.88 5.27001 612.4 4.99001C611.92 4.71001 611.39 4.57001 610.81 4.57001C610.23 4.57001 609.7 4.71001 609.23 4.98001C608.75 5.25001 608.37 5.65001 608.09 6.17001C607.81 6.69001 607.66 7.30001 607.66 8.01002C607.66 8.72001 607.8 9.34001 608.09 9.87001C608.37 10.4 608.75 10.8 609.23 11.08C609.71 11.36 610.23 11.5 610.81 11.5C611.39 11.5 611.92 11.36 612.4 11.08C612.88 10.8 613.26 10.4 613.55 9.87001C613.83 9.34001 613.97 8.73001 613.97 8.03001C613.97 7.33001 613.83 6.72001 613.55 6.19001Z" fill="#A8A8A8"/>
<path d="M626.42 3.39001V12.71H624.87V11.33C624.58 11.81 624.16 12.18 623.64 12.44C623.11 12.71 622.53 12.84 621.9 12.84C621.17 12.84 620.52 12.69 619.94 12.39C619.36 12.09 618.91 11.64 618.57 11.04C618.24 10.44 618.07 9.71002 618.07 8.85002V3.39001H619.6V8.64002C619.6 9.56002 619.83 10.26 620.3 10.76C620.77 11.26 621.4 11.5 622.2 11.5C623 11.5 623.68 11.25 624.15 10.74C624.63 10.23 624.86 9.49002 624.86 8.51002V3.39001H626.41H626.42Z" fill="#A8A8A8"/>
<path d="M631.75 3.65997C632.25 3.36997 632.87 3.21997 633.59 3.21997V4.81997H633.18C631.45 4.81997 630.58 5.75997 630.58 7.63997V12.71H629.03V3.38997H630.58V4.89997C630.85 4.36997 631.24 3.94997 631.74 3.65997H631.75Z" fill="#A8A8A8"/>
<path d="M635.37 5.51C635.76 4.79 636.29 4.23 636.96 3.84C637.63 3.44 638.38 3.25 639.21 3.25C640.04 3.25 640.73 3.43 641.33 3.78C641.93 4.13 642.38 4.57 642.67 5.11V3.41H644.23V12.73H642.67V11C642.36 11.54 641.91 12 641.3 12.35C640.69 12.71 639.99 12.89 639.18 12.89C638.37 12.89 637.6 12.69 636.94 12.28C636.28 11.87 635.74 11.3 635.36 10.56C634.98 9.82 634.78 8.98 634.78 8.04C634.78 7.1 634.97 6.25 635.36 5.53L635.37 5.51ZM642.26 6.19C641.98 5.67 641.59 5.27 641.11 4.99C640.63 4.71 640.1 4.57 639.52 4.57C638.94 4.57 638.41 4.71 637.94 4.98C637.46 5.25 637.08 5.65 636.8 6.17C636.52 6.69 636.37 7.3 636.37 8.01C636.37 8.72 636.51 9.34 636.8 9.87C637.08 10.4 637.46 10.8 637.94 11.08C638.42 11.36 638.94 11.5 639.52 11.5C640.1 11.5 640.63 11.36 641.11 11.08C641.59 10.8 641.97 10.4 642.26 9.87C642.54 9.34 642.68 8.73 642.68 8.03C642.68 7.33 642.54 6.72 642.26 6.19Z" fill="#A8A8A8"/>
<path d="M648.24 12.49C647.67 12.25 647.23 11.91 646.9 11.47C646.57 11.03 646.39 10.53 646.36 9.96999H647.96C648 10.43 648.22 10.81 648.61 11.11C649 11.4 649.51 11.55 650.15 11.55C650.74 11.55 651.2 11.42 651.54 11.16C651.88 10.9 652.05 10.57 652.05 10.17C652.05 9.76999 651.87 9.45999 651.51 9.25999C651.15 9.05999 650.59 8.86999 649.83 8.66999C649.14 8.48999 648.58 8.29999 648.14 8.11999C647.7 7.92999 647.33 7.65999 647.02 7.28999C646.71 6.91999 646.55 6.43999 646.55 5.83999C646.55 5.35999 646.69 4.92999 646.97 4.52999C647.25 4.12999 647.66 3.81999 648.18 3.58999C648.7 3.35999 649.3 3.23999 649.97 3.23999C651 3.23999 651.83 3.49999 652.47 4.01999C653.1 4.53999 653.44 5.25999 653.49 6.15999H651.94C651.91 5.66999 651.71 5.27999 651.35 4.98999C650.99 4.69999 650.51 4.54999 649.91 4.54999C649.36 4.54999 648.91 4.66999 648.58 4.90999C648.25 5.14999 648.09 5.45999 648.09 5.83999C648.09 6.14999 648.19 6.39999 648.39 6.59999C648.59 6.79999 648.84 6.95999 649.14 7.07999C649.44 7.19999 649.86 7.32999 650.39 7.47999C651.06 7.65999 651.6 7.83999 652.02 8.01999C652.44 8.19999 652.8 8.45999 653.1 8.80999C653.4 9.15999 653.56 9.61999 653.57 10.19C653.57 10.7 653.43 11.16 653.15 11.57C652.87 11.98 652.47 12.3 651.95 12.53C651.43 12.76 650.84 12.88 650.17 12.88C649.46 12.88 648.82 12.76 648.25 12.51L648.24 12.49Z" fill="#A8A8A8"/>
<path d="M573.38 45.8199V48.7799H561.26V58.1799H571.1V61.1399H561.26V73.6999H557.62V45.8199H573.38Z" fill="white"/>
<path d="M581.42 70.7399H591.18V73.6999H577.78V45.8199H581.42V70.7399Z" fill="white"/>
<path d="M600.62 72.16C598.49 70.95 596.8 69.25 595.56 67.08C594.32 64.91 593.7 62.46 593.7 59.74C593.7 57.02 594.32 54.57 595.56 52.4C596.8 50.23 598.49 48.53 600.62 47.32C602.75 46.11 605.11 45.5 607.7 45.5C610.29 45.5 612.69 46.11 614.82 47.32C616.95 48.53 618.63 50.22 619.86 52.38C621.09 54.54 621.7 56.99 621.7 59.74C621.7 62.49 621.09 64.94 619.86 67.1C618.63 69.26 616.95 70.95 614.82 72.16C612.69 73.37 610.31 73.98 607.7 73.98C605.09 73.98 602.75 73.37 600.62 72.16ZM612.96 69.46C614.52 68.55 615.75 67.26 616.64 65.58C617.53 63.9 617.98 61.95 617.98 59.74C617.98 57.53 617.53 55.55 616.64 53.88C615.75 52.21 614.53 50.93 612.98 50.02C611.43 49.11 609.67 48.66 607.7 48.66C605.73 48.66 603.97 49.11 602.42 50.02C600.87 50.93 599.65 52.21 598.76 53.88C597.87 55.55 597.42 57.5 597.42 59.74C597.42 61.98 597.87 63.9 598.76 65.58C599.65 67.26 600.88 68.55 602.44 69.46C604 70.37 605.75 70.82 607.7 70.82C609.65 70.82 611.4 70.37 612.96 69.46Z" fill="white"/>
<path d="M641.18 73.6999L634.54 62.2999H630.14V73.6999H626.5V45.8199H635.5C637.61 45.8199 639.39 46.1799 640.84 46.8999C642.29 47.6199 643.38 48.5899 644.1 49.8199C644.82 51.0499 645.18 52.4499 645.18 54.0199C645.18 55.9399 644.63 57.6299 643.52 59.0999C642.41 60.5699 640.75 61.5399 638.54 62.0199L645.54 73.6999H641.18ZM630.14 59.3799H635.5C637.47 59.3799 638.95 58.8899 639.94 57.9199C640.93 56.9499 641.42 55.6499 641.42 54.0199C641.42 52.3899 640.93 51.0899 639.96 50.1799C638.99 49.2699 637.5 48.8199 635.5 48.8199H630.14V59.3799Z" fill="white"/>
<path d="M554.02 200.95H70.4401C44.9964 200.95 24.3701 221.576 24.3701 247.02V673.2C24.3701 698.644 44.9964 719.27 70.4401 719.27H554.02C579.464 719.27 600.09 698.644 600.09 673.2V247.02C600.09 221.576 579.464 200.95 554.02 200.95Z" fill="#D3D3D3"/>
<path d="M549.4 191.27H65.82C40.3762 191.27 19.75 211.896 19.75 237.34V663.52C19.75 688.964 40.3762 709.59 65.82 709.59H549.4C574.844 709.59 595.47 688.964 595.47 663.52V237.34C595.47 211.896 574.844 191.27 549.4 191.27Z" fill="#E1A9AF"/>
<path d="M43.73 231.27C66.7603 231.27 85.43 212.569 85.43 189.5C85.43 166.431 66.7603 147.73 43.73 147.73C20.6998 147.73 2.03003 166.431 2.03003 189.5C2.03003 212.569 20.6998 231.27 43.73 231.27Z" fill="#CCA98B" stroke="#F2F2F2"/>
<path d="M43.69 227.67C66.7203 227.67 85.39 208.969 85.39 185.9C85.39 162.831 66.7203 144.13 43.69 144.13C20.6597 144.13 1.98999 162.831 1.98999 185.9C1.98999 208.969 20.6597 227.67 43.69 227.67Z" fill="white" stroke="#F2F2F2" stroke-width="3"/>
<path d="M27.97 176.69V170.18H39.31V200.06H32.03V176.69H27.98H27.97Z" fill="#E1A9AF"/>
<path d="M44.32 174.58C45.02 173.48 46 172.61 47.27 171.98C48.54 171.35 49.99 171.04 51.63 171.04C53.27 171.04 54.72 171.35 55.99 171.98C57.26 172.61 58.24 173.47 58.94 174.58C59.64 175.69 59.98 176.96 59.98 178.41C59.98 179.86 59.63 181.14 58.92 182.26C58.21 183.38 57.22 184.26 55.95 184.9C54.68 185.54 53.23 185.86 51.59 185.86C49.95 185.86 48.51 185.54 47.25 184.9C45.99 184.26 45.02 183.38 44.32 182.26C43.62 181.14 43.28 179.86 43.28 178.41C43.28 176.96 43.63 175.69 44.32 174.58ZM53.71 175.95C53.14 175.38 52.43 175.09 51.58 175.09C50.73 175.09 50.07 175.38 49.51 175.95C48.95 176.52 48.67 177.36 48.67 178.45C48.67 179.54 48.94 180.33 49.49 180.91C50.04 181.49 50.73 181.77 51.58 181.77C52.43 181.77 53.13 181.48 53.71 180.89C54.28 180.3 54.57 179.49 54.57 178.46C54.57 177.37 54.28 176.54 53.71 175.96V175.95Z" fill="#E1A9AF"/>
<path d="M294.571 262.243L150.06 406.754L294.571 551.265L439.083 406.754L294.571 262.243Z" fill="#CCCCCC"/>
<path d="M297.707 253.572L153.195 398.083L297.707 542.594L442.218 398.083L297.707 253.572Z" fill="white"/>
<path d="M153.3 398.07H159.3" stroke="#E1A9AF" stroke-width="2"/>
<path d="M171.3 398.07H429.28" stroke="#E1A9AF" stroke-width="2"/>
<path d="M435.28 398.07H441.28" stroke="#E1A9AF" stroke-width="2"/>
<path d="M296.87 490.13C296.87 490.13 380.71 414.99 316.46 316.76" stroke="#E1A9AF" stroke-width="2"/>
<path d="M309.53 306.87C314.49 310.34 321.46 314.1 327.08 315.52L317.3 318.1L311.43 326.34C312.08 320.58 311.03 312.74 309.53 306.87Z" fill="#E1A9AF"/>
<path d="M105.38 177.45C104.59 178.22 103.38 178.6 101.75 178.6H99.07V184.42H97.25V170.48H101.75C103.32 170.48 104.52 170.86 105.34 171.62C106.16 172.38 106.57 173.36 106.57 174.56C106.57 175.76 106.17 176.68 105.38 177.45ZM103.99 176.44C104.47 176 104.71 175.37 104.71 174.56C104.71 172.84 103.72 171.98 101.75 171.98H99.07V177.1H101.75C102.76 177.1 103.51 176.88 103.99 176.44Z" fill="#E1A9AF"/>
<path d="M108.83 175.95C109.28 175.1 109.91 174.45 110.7 173.98C111.49 173.51 112.38 173.28 113.35 173.28C114.32 173.28 115.14 173.49 115.85 173.9C116.56 174.31 117.08 174.83 117.43 175.46V173.46H119.27V184.42H117.43V182.38C117.07 183.02 116.53 183.55 115.82 183.97C115.11 184.39 114.28 184.6 113.33 184.6C112.38 184.6 111.48 184.36 110.69 183.88C109.9 183.4 109.28 182.73 108.83 181.86C108.38 180.99 108.15 180.01 108.15 178.9C108.15 177.79 108.38 176.8 108.83 175.95ZM116.93 176.76C116.6 176.15 116.15 175.68 115.58 175.35C115.01 175.02 114.39 174.86 113.71 174.86C113.03 174.86 112.41 175.02 111.85 175.34C111.29 175.66 110.84 176.13 110.51 176.74C110.18 177.35 110.01 178.07 110.01 178.9C110.01 179.73 110.18 180.47 110.51 181.09C110.84 181.71 111.29 182.18 111.85 182.51C112.41 182.84 113.03 183 113.71 183C114.39 183 115.01 182.84 115.58 182.51C116.15 182.18 116.6 181.71 116.93 181.09C117.26 180.47 117.43 179.75 117.43 178.92C117.43 178.09 117.26 177.37 116.93 176.76Z" fill="#E1A9AF"/>
<path d="M123.97 184.17C123.3 183.88 122.78 183.48 122.39 182.97C122 182.46 121.79 181.87 121.75 181.2H123.63C123.68 181.75 123.94 182.19 124.4 182.54C124.86 182.89 125.46 183.06 126.21 183.06C126.9 183.06 127.45 182.91 127.85 182.6C128.25 182.29 128.45 181.91 128.45 181.44C128.45 180.97 128.24 180.6 127.81 180.37C127.38 180.14 126.72 179.91 125.83 179.68C125.02 179.47 124.35 179.25 123.84 179.03C123.33 178.81 122.89 178.48 122.52 178.05C122.15 177.62 121.97 177.05 121.97 176.34C121.97 175.78 122.14 175.27 122.47 174.8C122.8 174.33 123.28 173.96 123.89 173.69C124.5 173.42 125.2 173.28 125.99 173.28C127.2 173.28 128.18 173.59 128.93 174.2C129.68 174.81 130.08 175.65 130.13 176.72H128.31C128.27 176.15 128.04 175.69 127.62 175.34C127.2 174.99 126.64 174.82 125.93 174.82C125.28 174.82 124.76 174.96 124.37 175.24C123.98 175.52 123.79 175.89 123.79 176.34C123.79 176.7 123.91 177 124.14 177.23C124.37 177.46 124.67 177.65 125.02 177.79C125.37 177.93 125.86 178.09 126.49 178.26C127.28 178.47 127.92 178.68 128.41 178.89C128.9 179.1 129.33 179.41 129.68 179.82C130.03 180.23 130.22 180.77 130.23 181.44C130.23 182.04 130.06 182.58 129.73 183.06C129.4 183.54 128.93 183.92 128.32 184.19C127.71 184.46 127.02 184.6 126.23 184.6C125.39 184.6 124.64 184.46 123.97 184.17Z" fill="#E1A9AF"/>
<path d="M134.41 184.17C133.74 183.88 133.22 183.48 132.83 182.97C132.44 182.46 132.23 181.87 132.19 181.2H134.07C134.12 181.75 134.38 182.19 134.84 182.54C135.3 182.89 135.9 183.06 136.65 183.06C137.34 183.06 137.89 182.91 138.29 182.6C138.69 182.29 138.89 181.91 138.89 181.44C138.89 180.97 138.68 180.6 138.25 180.37C137.82 180.14 137.16 179.91 136.27 179.68C135.46 179.47 134.79 179.25 134.28 179.03C133.77 178.81 133.33 178.48 132.96 178.05C132.59 177.62 132.41 177.05 132.41 176.34C132.41 175.78 132.58 175.27 132.91 174.8C133.24 174.33 133.72 173.96 134.33 173.69C134.94 173.42 135.64 173.28 136.43 173.28C137.64 173.28 138.62 173.59 139.37 174.2C140.12 174.81 140.52 175.65 140.57 176.72H138.75C138.71 176.15 138.48 175.69 138.06 175.34C137.64 174.99 137.08 174.82 136.37 174.82C135.72 174.82 135.2 174.96 134.81 175.24C134.42 175.52 134.23 175.89 134.23 176.34C134.23 176.7 134.35 177 134.58 177.23C134.81 177.46 135.11 177.65 135.46 177.79C135.81 177.93 136.3 178.09 136.93 178.26C137.72 178.47 138.36 178.68 138.85 178.89C139.34 179.1 139.77 179.41 140.12 179.82C140.47 180.23 140.66 180.77 140.67 181.44C140.67 182.04 140.5 182.58 140.17 183.06C139.84 183.54 139.37 183.92 138.76 184.19C138.15 184.46 137.46 184.6 136.67 184.6C135.83 184.6 135.08 184.46 134.41 184.17Z" fill="#E1A9AF"/>
<path d="M145.22 183.9C144.39 183.43 143.73 182.77 143.26 181.91C142.79 181.05 142.55 180.05 142.55 178.92C142.55 177.79 142.79 176.81 143.28 175.95C143.77 175.09 144.43 174.43 145.27 173.97C146.11 173.51 147.05 173.28 148.09 173.28C149.13 173.28 150.07 173.51 150.91 173.97C151.75 174.43 152.41 175.09 152.9 175.94C153.39 176.79 153.63 177.79 153.63 178.92C153.63 180.05 153.38 181.05 152.88 181.91C152.38 182.77 151.7 183.43 150.85 183.9C150 184.37 149.05 184.6 148.01 184.6C146.97 184.6 146.05 184.37 145.22 183.9ZM149.85 182.54C150.42 182.23 150.89 181.77 151.24 181.16C151.59 180.55 151.77 179.8 151.77 178.92C151.77 178.04 151.6 177.29 151.25 176.68C150.9 176.07 150.45 175.61 149.89 175.31C149.33 175.01 148.72 174.86 148.07 174.86C147.42 174.86 146.79 175.01 146.24 175.31C145.69 175.61 145.24 176.07 144.91 176.68C144.58 177.29 144.41 178.04 144.41 178.92C144.41 179.8 144.57 180.57 144.9 181.18C145.23 181.79 145.66 182.25 146.21 182.55C146.76 182.85 147.36 183 148.01 183C148.66 183 149.28 182.85 149.85 182.54Z" fill="#E1A9AF"/>
<path d="M1162.02 200.95H678.44C652.996 200.95 632.37 221.576 632.37 247.02V673.2C632.37 698.644 652.996 719.27 678.44 719.27H1162.02C1187.46 719.27 1208.09 698.644 1208.09 673.2V247.02C1208.09 221.576 1187.46 200.95 1162.02 200.95Z" fill="#D3D3D3"/>
<path d="M1157.6 191.27H674.02C648.576 191.27 627.95 211.896 627.95 237.34V663.52C627.95 688.964 648.576 709.59 674.02 709.59H1157.6C1183.04 709.59 1203.67 688.964 1203.67 663.52V237.34C1203.67 211.896 1183.04 191.27 1157.6 191.27Z" fill="#E1A9AF"/>
<path d="M655.73 231.27C678.76 231.27 697.43 212.569 697.43 189.5C697.43 166.431 678.76 147.73 655.73 147.73C632.7 147.73 614.03 166.431 614.03 189.5C614.03 212.569 632.7 231.27 655.73 231.27Z" fill="#CCA98B" stroke="#F2F2F2"/>
<path d="M655.69 227.67C678.72 227.67 697.39 208.969 697.39 185.9C697.39 162.831 678.72 144.13 655.69 144.13C632.66 144.13 613.99 162.831 613.99 185.9C613.99 208.969 632.66 227.67 655.69 227.67Z" fill="white" stroke="#F2F2F2" stroke-width="3"/>
<path d="M637.74 193.43C640.41 191.22 642.52 189.41 644.06 187.99C645.6 186.57 646.9 185.08 647.97 183.53C649.03 181.97 649.57 180.46 649.57 178.99C649.57 177.87 649.31 177 648.79 176.37C648.27 175.74 647.49 175.43 646.46 175.43C645.43 175.43 644.61 175.82 644.03 176.6C643.44 177.38 643.15 178.48 643.15 179.89H636.4C636.45 177.57 636.95 175.63 637.89 174.08C638.83 172.52 640.07 171.38 641.61 170.64C643.15 169.9 644.86 169.54 646.75 169.54C650 169.54 652.44 170.37 654.1 172.04C655.75 173.71 656.58 175.87 656.58 178.55C656.58 181.47 655.58 184.18 653.59 186.67C651.6 189.17 649.06 191.6 645.98 193.97H657.03V199.66H636.49V194.46C637.42 193.72 637.84 193.38 637.76 193.44L637.74 193.43Z" fill="#E1A9AF"/>
<path d="M660.31 174.58C661.01 173.48 661.99 172.61 663.26 171.98C664.53 171.35 665.98 171.04 667.62 171.04C669.26 171.04 670.71 171.35 671.98 171.98C673.25 172.61 674.23 173.47 674.93 174.58C675.63 175.69 675.97 176.96 675.97 178.41C675.97 179.86 675.62 181.14 674.91 182.26C674.2 183.38 673.21 184.26 671.94 184.9C670.67 185.54 669.22 185.86 667.58 185.86C665.94 185.86 664.5 185.54 663.24 184.9C661.98 184.26 661.01 183.38 660.31 182.26C659.61 181.14 659.27 179.86 659.27 178.41C659.27 176.96 659.62 175.69 660.31 174.58ZM669.71 175.95C669.14 175.38 668.43 175.09 667.58 175.09C666.73 175.09 666.07 175.38 665.51 175.95C664.95 176.52 664.67 177.36 664.67 178.45C664.67 179.54 664.94 180.33 665.49 180.91C666.04 181.49 666.73 181.77 667.58 181.77C668.43 181.77 669.13 181.48 669.71 180.89C670.28 180.3 670.57 179.49 670.57 178.46C670.57 177.37 670.28 176.54 669.71 175.96V175.95Z" fill="#E1A9AF"/>
<path d="M717.38 177.45C716.59 178.22 715.38 178.6 713.75 178.6H711.07V184.42H709.25V170.48H713.75C715.32 170.48 716.52 170.86 717.34 171.62C718.16 172.38 718.57 173.36 718.57 174.56C718.57 175.76 718.17 176.68 717.38 177.45ZM715.99 176.44C716.47 176 716.71 175.37 716.71 174.56C716.71 172.84 715.72 171.98 713.75 171.98H711.07V177.1H713.75C714.76 177.1 715.51 176.88 715.99 176.44Z" fill="#E1A9AF"/>
<path d="M720.83 175.95C721.28 175.1 721.91 174.45 722.7 173.98C723.49 173.51 724.38 173.28 725.35 173.28C726.32 173.28 727.14 173.49 727.85 173.9C728.56 174.31 729.08 174.83 729.43 175.46V173.46H731.27V184.42H729.43V182.38C729.07 183.02 728.53 183.55 727.82 183.97C727.11 184.39 726.28 184.6 725.33 184.6C724.38 184.6 723.48 184.36 722.69 183.88C721.9 183.4 721.28 182.73 720.83 181.86C720.38 180.99 720.15 180.01 720.15 178.9C720.15 177.79 720.38 176.8 720.83 175.95ZM728.93 176.76C728.6 176.15 728.15 175.68 727.58 175.35C727.01 175.02 726.39 174.86 725.71 174.86C725.03 174.86 724.41 175.02 723.85 175.34C723.29 175.66 722.84 176.13 722.51 176.74C722.18 177.35 722.01 178.07 722.01 178.9C722.01 179.73 722.18 180.47 722.51 181.09C722.84 181.71 723.29 182.18 723.85 182.51C724.41 182.84 725.03 183 725.71 183C726.39 183 727.01 182.84 727.58 182.51C728.15 182.18 728.6 181.71 728.93 181.09C729.26 180.47 729.43 179.75 729.43 178.92C729.43 178.09 729.26 177.37 728.93 176.76Z" fill="#E1A9AF"/>
<path d="M735.97 184.17C735.3 183.88 734.78 183.48 734.39 182.97C734 182.46 733.79 181.87 733.75 181.2H735.63C735.68 181.75 735.94 182.19 736.4 182.54C736.86 182.89 737.46 183.06 738.21 183.06C738.9 183.06 739.45 182.91 739.85 182.6C740.25 182.29 740.45 181.91 740.45 181.44C740.45 180.97 740.24 180.6 739.81 180.37C739.38 180.14 738.72 179.91 737.83 179.68C737.02 179.47 736.35 179.25 735.84 179.03C735.33 178.81 734.89 178.48 734.52 178.05C734.15 177.62 733.97 177.05 733.97 176.34C733.97 175.78 734.14 175.27 734.47 174.8C734.8 174.33 735.28 173.96 735.89 173.69C736.5 173.42 737.2 173.28 737.99 173.28C739.2 173.28 740.18 173.59 740.93 174.2C741.68 174.81 742.08 175.65 742.13 176.72H740.31C740.27 176.15 740.04 175.69 739.62 175.34C739.2 174.99 738.64 174.82 737.93 174.82C737.28 174.82 736.76 174.96 736.37 175.24C735.98 175.52 735.79 175.89 735.79 176.34C735.79 176.7 735.91 177 736.14 177.23C736.37 177.46 736.67 177.65 737.02 177.79C737.37 177.93 737.86 178.09 738.49 178.26C739.28 178.47 739.92 178.68 740.41 178.89C740.9 179.1 741.33 179.41 741.68 179.82C742.03 180.23 742.22 180.77 742.23 181.44C742.23 182.04 742.06 182.58 741.73 183.06C741.4 183.54 740.93 183.92 740.32 184.19C739.71 184.46 739.02 184.6 738.23 184.6C737.39 184.6 736.64 184.46 735.97 184.17Z" fill="#E1A9AF"/>
<path d="M746.41 184.17C745.74 183.88 745.22 183.48 744.83 182.97C744.44 182.46 744.23 181.87 744.19 181.2H746.07C746.12 181.75 746.38 182.19 746.84 182.54C747.3 182.89 747.9 183.06 748.65 183.06C749.34 183.06 749.89 182.91 750.29 182.6C750.69 182.29 750.89 181.91 750.89 181.44C750.89 180.97 750.68 180.6 750.25 180.37C749.82 180.14 749.16 179.91 748.27 179.68C747.46 179.47 746.79 179.25 746.28 179.03C745.77 178.81 745.33 178.48 744.96 178.05C744.59 177.62 744.41 177.05 744.41 176.34C744.41 175.78 744.58 175.27 744.91 174.8C745.24 174.33 745.72 173.96 746.33 173.69C746.94 173.42 747.64 173.28 748.43 173.28C749.64 173.28 750.62 173.59 751.37 174.2C752.12 174.81 752.52 175.65 752.57 176.72H750.75C750.71 176.15 750.48 175.69 750.06 175.34C749.64 174.99 749.08 174.82 748.37 174.82C747.72 174.82 747.2 174.96 746.81 175.24C746.42 175.52 746.23 175.89 746.23 176.34C746.23 176.7 746.35 177 746.58 177.23C746.81 177.46 747.11 177.65 747.46 177.79C747.81 177.93 748.3 178.09 748.93 178.26C749.72 178.47 750.36 178.68 750.85 178.89C751.34 179.1 751.77 179.41 752.12 179.82C752.47 180.23 752.66 180.77 752.67 181.44C752.67 182.04 752.5 182.58 752.17 183.06C751.84 183.54 751.37 183.92 750.76 184.19C750.15 184.46 749.46 184.6 748.67 184.6C747.83 184.6 747.08 184.46 746.41 184.17Z" fill="#E1A9AF"/>
<path d="M757.22 183.9C756.39 183.43 755.73 182.77 755.26 181.91C754.79 181.05 754.55 180.05 754.55 178.92C754.55 177.79 754.79 176.81 755.28 175.95C755.77 175.09 756.43 174.43 757.27 173.97C758.11 173.51 759.05 173.28 760.09 173.28C761.13 173.28 762.07 173.51 762.91 173.97C763.75 174.43 764.41 175.09 764.9 175.94C765.39 176.79 765.63 177.79 765.63 178.92C765.63 180.05 765.38 181.05 764.88 181.91C764.38 182.77 763.7 183.43 762.85 183.9C762 184.37 761.05 184.6 760.01 184.6C758.97 184.6 758.05 184.37 757.22 183.9ZM761.85 182.54C762.42 182.23 762.89 181.77 763.24 181.16C763.59 180.55 763.77 179.8 763.77 178.92C763.77 178.04 763.6 177.29 763.25 176.68C762.9 176.07 762.45 175.61 761.89 175.31C761.33 175.01 760.72 174.86 760.07 174.86C759.42 174.86 758.79 175.01 758.24 175.31C757.69 175.61 757.24 176.07 756.91 176.68C756.58 177.29 756.41 178.04 756.41 178.92C756.41 179.8 756.57 180.57 756.9 181.18C757.23 181.79 757.66 182.25 758.21 182.55C758.76 182.85 759.36 183 760.01 183C760.66 183 761.28 182.85 761.85 182.54Z" fill="#E1A9AF"/>
<path d="M96.28 645.94C95.53 646.67 94.38 647.03 92.83 647.03H90.28V652.56H88.55V639.32H92.83C94.32 639.32 95.46 639.68 96.24 640.4C97.02 641.12 97.41 642.05 97.41 643.19C97.41 644.33 97.03 645.21 96.28 645.94ZM94.96 644.98C95.42 644.56 95.64 643.97 95.64 643.19C95.64 641.56 94.7 640.74 92.83 640.74H90.28V645.6H92.83C93.79 645.6 94.5 645.39 94.96 644.97V644.98Z" fill="#424242"/>
<path d="M109 648H100.68C100.74 649.03 101.1 649.83 101.73 650.4C102.37 650.98 103.15 651.26 104.06 651.26C104.81 651.26 105.43 651.09 105.93 650.74C106.43 650.39 106.78 649.93 106.98 649.34H108.84C108.56 650.34 108 651.15 107.17 651.78C106.34 652.41 105.29 652.72 104.05 652.72C103.06 652.72 102.18 652.5 101.4 652.05C100.62 651.6 100.01 650.98 99.5702 650.16C99.1302 649.34 98.9102 648.4 98.9102 647.32C98.9102 646.24 99.1202 645.3 99.5502 644.49C99.9802 643.68 100.59 643.06 101.36 642.62C102.14 642.18 103.04 641.96 104.05 641.96C105.06 641.96 105.91 642.18 106.67 642.61C107.43 643.04 108.02 643.63 108.43 644.39C108.84 645.15 109.05 646 109.05 646.94C109.05 647.27 109.03 647.62 108.99 647.99L109 648ZM106.83 644.89C106.54 644.41 106.14 644.05 105.64 643.81C105.14 643.56 104.59 643.44 103.98 643.44C103.1 643.44 102.36 643.72 101.75 644.28C101.13 644.84 100.78 645.61 100.7 646.6H107.27C107.27 645.94 107.12 645.37 106.83 644.9V644.89Z" fill="#424242"/>
<path d="M118 642.57C118.68 642.96 119.18 643.46 119.51 644.05V642.15H121.26V652.79C121.26 653.74 121.06 654.59 120.65 655.33C120.24 656.07 119.66 656.65 118.91 657.07C118.16 657.49 117.28 657.7 116.28 657.7C114.91 657.7 113.77 657.38 112.86 656.73C111.95 656.08 111.41 655.2 111.24 654.09H112.95C113.14 654.72 113.53 655.23 114.13 655.62C114.73 656.01 115.44 656.2 116.28 656.2C117.23 656.2 118.01 655.9 118.61 655.31C119.21 654.71 119.51 653.88 119.51 652.8V650.62C119.17 651.23 118.66 651.74 117.99 652.14C117.32 652.55 116.53 652.75 115.63 652.75C114.73 652.75 113.87 652.52 113.11 652.07C112.35 651.62 111.76 650.97 111.33 650.15C110.9 649.33 110.68 648.39 110.68 647.34C110.68 646.29 110.89 645.34 111.33 644.54C111.76 643.74 112.35 643.11 113.11 642.67C113.87 642.23 114.7 642 115.63 642C116.56 642 117.32 642.2 118 642.59V642.57ZM119.03 645.28C118.71 644.7 118.29 644.25 117.75 643.94C117.21 643.63 116.62 643.47 115.97 643.47C115.32 643.47 114.74 643.62 114.2 643.93C113.67 644.23 113.24 644.68 112.93 645.26C112.62 645.84 112.46 646.53 112.46 647.31C112.46 648.09 112.62 648.8 112.93 649.39C113.25 649.98 113.67 650.43 114.2 650.74C114.73 651.05 115.32 651.21 115.97 651.21C116.62 651.21 117.21 651.05 117.75 650.74C118.29 650.43 118.71 649.98 119.03 649.39C119.35 648.8 119.5 648.11 119.5 647.33C119.5 646.55 119.34 645.86 119.03 645.28Z" fill="#424242"/>
<path d="M133.42 642.15V652.56H131.69V651.02C131.36 651.55 130.9 651.97 130.31 652.26C129.72 652.56 129.07 652.71 128.36 652.71C127.55 652.71 126.82 652.54 126.17 652.21C125.52 651.88 125.01 651.37 124.64 650.7C124.27 650.03 124.08 649.21 124.08 648.25V642.15H125.79V648.02C125.79 649.05 126.05 649.83 126.57 650.39C127.09 650.94 127.8 651.22 128.7 651.22C129.6 651.22 130.35 650.93 130.89 650.36C131.42 649.79 131.69 648.96 131.69 647.87V642.15H133.42Z" fill="#424242"/>
<path d="M145.79 648H137.47C137.53 649.03 137.88 649.83 138.52 650.4C139.16 650.98 139.93 651.26 140.85 651.26C141.6 651.26 142.22 651.09 142.72 650.74C143.22 650.39 143.57 649.93 143.77 649.34H145.63C145.35 650.34 144.79 651.15 143.96 651.78C143.13 652.41 142.08 652.72 140.84 652.72C139.85 652.72 138.97 652.5 138.19 652.05C137.41 651.6 136.8 650.98 136.36 650.16C135.91 649.34 135.69 648.4 135.69 647.32C135.69 646.24 135.9 645.3 136.34 644.49C136.77 643.68 137.38 643.06 138.15 642.62C138.93 642.18 139.82 641.96 140.84 641.96C141.86 641.96 142.7 642.18 143.46 642.61C144.22 643.04 144.81 643.63 145.22 644.39C145.63 645.14 145.84 646 145.84 646.94C145.84 647.27 145.82 647.62 145.78 647.99L145.79 648ZM143.62 644.89C143.33 644.41 142.93 644.05 142.43 643.81C141.93 643.56 141.38 643.44 140.77 643.44C139.9 643.44 139.15 643.72 138.54 644.28C137.93 644.84 137.58 645.61 137.49 646.6H144.06C144.06 645.94 143.92 645.37 143.62 644.9V644.89Z" fill="#424242"/>
<path d="M162.43 642.15V652.56H160.7V651.02C160.37 651.55 159.91 651.97 159.32 652.26C158.73 652.56 158.08 652.71 157.37 652.71C156.56 652.71 155.83 652.54 155.19 652.21C154.54 651.88 154.03 651.37 153.66 650.7C153.28 650.03 153.1 649.21 153.1 648.25V642.15H154.81V648.02C154.81 649.05 155.07 649.83 155.59 650.39C156.11 650.94 156.82 651.22 157.72 651.22C158.62 651.22 159.37 650.93 159.9 650.36C160.43 649.79 160.7 648.96 160.7 647.87V642.15H162.43Z" fill="#424242"/>
<path d="M180.04 642.46C180.67 642.8 181.17 643.3 181.54 643.97C181.91 644.64 182.09 645.46 182.09 646.42V652.56H180.38V646.67C180.38 645.63 180.12 644.84 179.61 644.29C179.1 643.74 178.4 643.46 177.53 643.46C176.66 643.46 175.91 643.75 175.38 644.32C174.85 644.9 174.58 645.73 174.58 646.82V652.56H172.87V646.67C172.87 645.63 172.61 644.84 172.1 644.29C171.59 643.74 170.89 643.46 170.02 643.46C169.15 643.46 168.41 643.75 167.87 644.32C167.34 644.9 167.07 645.73 167.07 646.82V652.56H165.34V642.15H167.07V643.65C167.41 643.11 167.87 642.69 168.45 642.4C169.03 642.11 169.66 641.96 170.36 641.96C171.24 641.96 172.01 642.16 172.68 642.55C173.35 642.94 173.85 643.52 174.18 644.28C174.47 643.55 174.95 642.98 175.62 642.57C176.29 642.16 177.04 641.96 177.86 641.96C178.68 641.96 179.39 642.13 180.03 642.46H180.04Z" fill="#424242"/>
<path d="M193.26 642.58C193.94 642.18 194.72 641.98 195.63 641.98C196.54 641.98 197.39 642.2 198.15 642.65C198.91 643.1 199.5 643.72 199.93 644.52C200.36 645.32 200.58 646.26 200.58 647.32C200.58 648.38 200.37 649.31 199.93 650.13C199.5 650.95 198.91 651.59 198.15 652.05C197.39 652.51 196.56 652.73 195.63 652.73C194.7 652.73 193.96 652.53 193.28 652.13C192.6 651.73 192.09 651.23 191.73 650.64V657.5H190V642.15H191.73V644.07C192.07 643.48 192.58 642.98 193.26 642.58ZM198.32 645.26C198 644.68 197.58 644.23 197.04 643.93C196.5 643.63 195.91 643.47 195.26 643.47C194.61 643.47 194.04 643.63 193.5 643.94C192.96 644.25 192.53 644.7 192.21 645.29C191.89 645.88 191.73 646.56 191.73 647.33C191.73 648.1 191.89 648.8 192.21 649.39C192.53 649.98 192.96 650.43 193.5 650.74C194.04 651.05 194.62 651.21 195.26 651.21C195.9 651.21 196.5 651.05 197.04 650.74C197.58 650.43 198 649.98 198.32 649.39C198.64 648.8 198.79 648.11 198.79 647.31C198.79 646.51 198.63 645.84 198.32 645.26Z" fill="#424242"/>
<path d="M202.84 644.51C203.27 643.71 203.86 643.08 204.62 642.64C205.38 642.2 206.21 641.97 207.14 641.97C208.07 641.97 208.84 642.17 209.52 642.56C210.2 642.95 210.69 643.45 211.02 644.04V642.14H212.77V652.55H211.02V650.61C210.68 651.22 210.17 651.72 209.49 652.12C208.81 652.52 208.03 652.72 207.12 652.72C206.21 652.72 205.36 652.49 204.61 652.04C203.86 651.59 203.27 650.94 202.84 650.12C202.41 649.3 202.2 648.36 202.2 647.31C202.2 646.26 202.41 645.31 202.84 644.51ZM210.54 645.28C210.22 644.7 209.8 644.25 209.26 643.94C208.72 643.63 208.13 643.47 207.48 643.47C206.83 643.47 206.25 643.62 205.71 643.93C205.18 644.23 204.75 644.68 204.44 645.26C204.13 645.84 203.97 646.53 203.97 647.31C203.97 648.09 204.13 648.8 204.44 649.39C204.76 649.98 205.18 650.43 205.71 650.74C206.24 651.05 206.83 651.21 207.48 651.21C208.13 651.21 208.72 651.05 209.26 650.74C209.8 650.43 210.22 649.98 210.54 649.39C210.86 648.8 211.01 648.11 211.01 647.33C211.01 646.55 210.85 645.86 210.54 645.28Z" fill="#424242"/>
<path d="M218.94 642.58C219.62 642.18 220.4 641.98 221.31 641.98C222.22 641.98 223.07 642.2 223.83 642.65C224.59 643.1 225.18 643.72 225.61 644.52C226.04 645.32 226.26 646.26 226.26 647.32C226.26 648.38 226.05 649.31 225.61 650.13C225.18 650.95 224.59 651.59 223.83 652.05C223.07 652.51 222.24 652.73 221.31 652.73C220.38 652.73 219.64 652.53 218.96 652.13C218.28 651.73 217.77 651.23 217.41 650.64V657.5H215.68V642.15H217.41V644.07C217.75 643.48 218.26 642.98 218.94 642.58ZM224.01 645.26C223.69 644.68 223.27 644.23 222.73 643.93C222.19 643.63 221.6 643.47 220.95 643.47C220.3 643.47 219.73 643.63 219.19 643.94C218.65 644.25 218.22 644.7 217.9 645.29C217.58 645.88 217.42 646.56 217.42 647.33C217.42 648.1 217.58 648.8 217.9 649.39C218.22 649.98 218.65 650.43 219.19 650.74C219.73 651.05 220.31 651.21 220.95 651.21C221.59 651.21 222.19 651.05 222.73 650.74C223.27 650.43 223.69 649.98 224.01 649.39C224.33 648.8 224.48 648.11 224.48 647.31C224.48 646.51 224.32 645.84 224.01 645.26Z" fill="#424242"/>
<path d="M237.97 648H229.65C229.71 649.03 230.06 649.83 230.7 650.4C231.34 650.98 232.11 651.26 233.03 651.26C233.78 651.26 234.4 651.09 234.9 650.74C235.4 650.39 235.75 649.93 235.95 649.34H237.81C237.53 650.34 236.97 651.15 236.14 651.78C235.31 652.41 234.26 652.72 233.02 652.72C232.03 652.72 231.15 652.5 230.37 652.05C229.59 651.6 228.98 650.98 228.54 650.16C228.09 649.34 227.87 648.4 227.87 647.32C227.87 646.24 228.08 645.3 228.52 644.49C228.95 643.68 229.56 643.06 230.33 642.62C231.11 642.18 232 641.96 233.02 641.96C234.04 641.96 234.88 642.18 235.64 642.61C236.4 643.04 236.99 643.63 237.4 644.39C237.81 645.14 238.02 646 238.02 646.94C238.02 647.27 238 647.62 237.96 647.99L237.97 648ZM235.81 644.89C235.52 644.41 235.12 644.05 234.62 643.81C234.12 643.56 233.57 643.44 232.96 643.44C232.09 643.44 231.34 643.72 230.73 644.28C230.12 644.84 229.77 645.61 229.68 646.6H236.25C236.25 645.94 236.11 645.37 235.81 644.9V644.89Z" fill="#424242"/>
<path d="M242.04 638.5V652.56H240.31V638.5H242.04Z" fill="#424242"/>
<path d="M250.05 644.51C250.48 643.71 251.07 643.08 251.83 642.64C252.59 642.2 253.43 641.97 254.37 641.97C255.31 641.97 256.06 642.17 256.74 642.57C257.42 642.97 257.91 643.46 258.23 644.04V642.14H259.98V657.49H258.23V650.63C257.9 651.21 257.39 651.71 256.71 652.11C256.03 652.51 255.23 652.72 254.32 652.72C253.41 652.72 252.58 652.49 251.83 652.04C251.08 651.59 250.49 650.94 250.06 650.12C249.63 649.3 249.42 648.36 249.42 647.31C249.42 646.26 249.63 645.31 250.06 644.51H250.05ZM257.75 645.28C257.43 644.7 257.01 644.25 256.47 643.94C255.93 643.63 255.34 643.47 254.69 643.47C254.04 643.47 253.46 643.62 252.92 643.93C252.39 644.23 251.96 644.68 251.65 645.26C251.34 645.84 251.18 646.53 251.18 647.31C251.18 648.09 251.34 648.8 251.65 649.39C251.97 649.98 252.39 650.43 252.92 650.74C253.45 651.05 254.04 651.21 254.69 651.21C255.34 651.21 255.93 651.05 256.47 650.74C257.01 650.43 257.43 649.98 257.75 649.39C258.07 648.8 258.22 648.11 258.22 647.33C258.22 646.55 258.06 645.86 257.75 645.28Z" fill="#424242"/>
<path d="M272.13 642.15V652.56H270.4V651.02C270.07 651.55 269.61 651.97 269.02 652.26C268.43 652.56 267.78 652.71 267.07 652.71C266.26 652.71 265.53 652.54 264.89 652.21C264.24 651.88 263.73 651.37 263.36 650.7C262.98 650.03 262.8 649.21 262.8 648.25V642.15H264.51V648.02C264.51 649.05 264.77 649.83 265.29 650.39C265.81 650.94 266.52 651.22 267.42 651.22C268.32 651.22 269.07 650.93 269.6 650.36C270.13 649.79 270.4 648.96 270.4 647.87V642.15H272.13Z" fill="#424242"/>
<path d="M275.06 644.51C275.49 643.71 276.08 643.08 276.84 642.64C277.6 642.2 278.43 641.97 279.36 641.97C280.29 641.97 281.06 642.17 281.74 642.56C282.42 642.95 282.91 643.45 283.24 644.04V642.14H284.99V652.55H283.24V650.61C282.9 651.22 282.39 651.72 281.71 652.12C281.03 652.52 280.25 652.72 279.34 652.72C278.43 652.72 277.58 652.49 276.83 652.04C276.08 651.59 275.49 650.94 275.06 650.12C274.63 649.3 274.42 648.36 274.42 647.31C274.42 646.26 274.63 645.31 275.06 644.51ZM282.75 645.28C282.43 644.7 282.01 644.25 281.47 643.94C280.93 643.63 280.34 643.47 279.69 643.47C279.04 643.47 278.46 643.62 277.92 643.93C277.39 644.23 276.96 644.68 276.65 645.26C276.34 645.84 276.18 646.53 276.18 647.31C276.18 648.09 276.34 648.8 276.65 649.39C276.97 649.98 277.39 650.43 277.92 650.74C278.45 651.05 279.04 651.21 279.69 651.21C280.34 651.21 280.93 651.05 281.47 650.74C282.01 650.43 282.43 649.98 282.75 649.39C283.07 648.8 283.22 648.11 283.22 647.33C283.22 646.55 283.06 645.86 282.75 645.28Z" fill="#424242"/>
<path d="M287.9 644.51C288.33 643.71 288.92 643.08 289.68 642.64C290.44 642.2 291.28 641.97 292.22 641.97C293.03 641.97 293.78 642.16 294.48 642.53C295.18 642.9 295.71 643.39 296.08 644V638.49H297.83V652.55H296.08V650.59C295.74 651.21 295.23 651.72 294.56 652.12C293.89 652.52 293.1 652.72 292.2 652.72C291.3 652.72 290.44 652.49 289.68 652.04C288.92 651.59 288.33 650.94 287.9 650.12C287.47 649.3 287.26 648.36 287.26 647.31C287.26 646.26 287.47 645.31 287.9 644.51ZM295.6 645.28C295.28 644.7 294.86 644.25 294.32 643.94C293.78 643.63 293.19 643.47 292.54 643.47C291.89 643.47 291.31 643.62 290.77 643.93C290.24 644.23 289.81 644.68 289.5 645.26C289.19 645.84 289.03 646.53 289.03 647.31C289.03 648.09 289.19 648.8 289.5 649.39C289.82 649.98 290.24 650.43 290.77 650.74C291.3 651.05 291.89 651.21 292.54 651.21C293.19 651.21 293.78 651.05 294.32 650.74C294.86 650.43 295.28 649.98 295.6 649.39C295.92 648.8 296.07 648.11 296.07 647.33C296.07 646.55 295.91 645.86 295.6 645.28Z" fill="#424242"/>
<path d="M303.78 642.45C304.34 642.12 305.03 641.96 305.84 641.96V643.75H305.38C303.44 643.75 302.47 644.8 302.47 646.9V652.56H300.74V642.15H302.47V643.84C302.77 643.24 303.21 642.78 303.77 642.45H303.78Z" fill="#424242"/>
<path d="M307.83 644.51C308.26 643.71 308.85 643.08 309.61 642.64C310.37 642.2 311.2 641.97 312.13 641.97C313.06 641.97 313.84 642.17 314.51 642.56C315.18 642.95 315.68 643.45 316.01 644.04V642.14H317.76V652.55H316.01V650.61C315.67 651.22 315.16 651.72 314.48 652.12C313.8 652.52 313.01 652.72 312.11 652.72C311.21 652.72 310.35 652.49 309.6 652.04C308.85 651.58 308.26 650.94 307.83 650.12C307.4 649.3 307.18 648.36 307.18 647.31C307.18 646.26 307.39 645.31 307.83 644.51ZM315.53 645.28C315.21 644.7 314.79 644.25 314.25 643.94C313.71 643.63 313.12 643.47 312.47 643.47C311.82 643.47 311.24 643.62 310.7 643.93C310.17 644.23 309.74 644.68 309.43 645.26C309.12 645.84 308.96 646.53 308.96 647.31C308.96 648.09 309.12 648.8 309.43 649.39C309.75 649.98 310.17 650.43 310.7 650.74C311.23 651.05 311.82 651.21 312.47 651.21C313.12 651.21 313.71 651.05 314.25 650.74C314.79 650.43 315.21 649.98 315.53 649.39C315.85 648.8 316 648.11 316 647.33C316 646.55 315.84 645.86 315.53 645.28Z" fill="#424242"/>
<path d="M320.68 644.51C321.11 643.71 321.7 643.08 322.46 642.64C323.22 642.2 324.06 641.97 325 641.97C325.81 641.97 326.56 642.16 327.26 642.53C327.96 642.9 328.49 643.39 328.86 644V638.49H330.61V652.55H328.86V650.59C328.52 651.21 328.01 651.72 327.34 652.12C326.67 652.52 325.88 652.72 324.98 652.72C324.08 652.72 323.22 652.49 322.46 652.04C321.7 651.59 321.11 650.94 320.68 650.12C320.25 649.3 320.03 648.36 320.03 647.31C320.03 646.26 320.24 645.31 320.68 644.51ZM328.37 645.28C328.05 644.7 327.63 644.25 327.09 643.94C326.55 643.63 325.96 643.47 325.31 643.47C324.66 643.47 324.08 643.62 323.54 643.93C323.01 644.23 322.58 644.68 322.27 645.26C321.96 645.84 321.8 646.53 321.8 647.31C321.8 648.09 321.96 648.8 322.27 649.39C322.59 649.98 323.01 650.43 323.54 650.74C324.07 651.05 324.66 651.21 325.31 651.21C325.96 651.21 326.55 651.05 327.09 650.74C327.63 650.43 328.05 649.98 328.37 649.39C328.69 648.8 328.84 648.11 328.84 647.33C328.84 646.55 328.68 645.86 328.37 645.28Z" fill="#424242"/>
<path d="M335.41 652.07C334.62 651.63 334 651 333.55 650.18C333.1 649.36 332.88 648.42 332.88 647.34C332.88 646.26 333.11 645.34 333.57 644.52C334.03 643.7 334.66 643.08 335.46 642.64C336.26 642.2 337.15 641.98 338.14 641.98C339.13 641.98 340.02 642.2 340.82 642.64C341.62 643.08 342.25 643.7 342.71 644.51C343.17 645.32 343.4 646.26 343.4 647.34C343.4 648.42 343.16 649.36 342.69 650.18C342.21 651 341.57 651.63 340.76 652.07C339.95 652.51 339.05 652.74 338.06 652.74C337.07 652.74 336.2 652.52 335.41 652.07ZM339.81 650.77C340.35 650.48 340.79 650.04 341.13 649.46C341.47 648.88 341.63 648.17 341.63 647.33C341.63 646.49 341.46 645.78 341.14 645.2C340.81 644.62 340.38 644.18 339.85 643.9C339.32 643.61 338.74 643.47 338.12 643.47C337.5 643.47 336.91 643.61 336.38 643.9C335.85 644.19 335.43 644.62 335.12 645.2C334.8 645.78 334.65 646.49 334.65 647.33C334.65 648.17 334.8 648.89 335.11 649.48C335.42 650.06 335.83 650.5 336.35 650.78C336.87 651.06 337.44 651.21 338.06 651.21C338.68 651.21 339.26 651.06 339.81 650.77Z" fill="#424242"/>
<path d="M360.2 648H351.88C351.94 649.03 352.3 649.83 352.93 650.4C353.57 650.98 354.35 651.26 355.26 651.26C356.01 651.26 356.63 651.09 357.13 650.74C357.63 650.39 357.98 649.93 358.18 649.34H360.04C359.76 650.34 359.2 651.15 358.37 651.78C357.54 652.41 356.49 652.72 355.25 652.72C354.26 652.72 353.38 652.5 352.6 652.05C351.82 651.6 351.21 650.98 350.77 650.16C350.33 649.34 350.11 648.4 350.11 647.32C350.11 646.24 350.32 645.3 350.75 644.49C351.18 643.68 351.79 643.06 352.56 642.62C353.34 642.18 354.24 641.96 355.25 641.96C356.26 641.96 357.11 642.18 357.87 642.61C358.63 643.04 359.22 643.63 359.63 644.39C360.04 645.15 360.25 646 360.25 646.94C360.25 647.27 360.23 647.62 360.19 647.99L360.2 648ZM358.03 644.89C357.74 644.41 357.34 644.05 356.84 643.81C356.34 643.56 355.79 643.44 355.18 643.44C354.3 643.44 353.56 643.72 352.95 644.28C352.33 644.84 351.98 645.61 351.9 646.6H358.47C358.47 645.94 358.32 645.37 358.03 644.9V644.89Z" fill="#424242"/>
<path d="M367.61 644.51C368.04 643.71 368.63 643.08 369.39 642.64C370.15 642.2 370.99 641.97 371.93 641.97C372.74 641.97 373.49 642.16 374.19 642.53C374.89 642.9 375.42 643.39 375.79 644V638.49H377.54V652.55H375.79V650.59C375.45 651.21 374.94 651.72 374.27 652.12C373.6 652.52 372.81 652.72 371.91 652.72C371.01 652.72 370.15 652.49 369.39 652.04C368.63 651.59 368.04 650.94 367.61 650.12C367.18 649.3 366.96 648.36 366.96 647.31C366.96 646.26 367.17 645.31 367.61 644.51ZM375.3 645.28C374.98 644.7 374.56 644.25 374.02 643.94C373.48 643.63 372.89 643.47 372.24 643.47C371.59 643.47 371.01 643.62 370.47 643.93C369.94 644.23 369.51 644.68 369.2 645.26C368.89 645.84 368.73 646.53 368.73 647.31C368.73 648.09 368.89 648.8 369.2 649.39C369.52 649.98 369.94 650.43 370.47 650.74C371 651.05 371.59 651.21 372.24 651.21C372.89 651.21 373.48 651.05 374.02 650.74C374.56 650.43 374.98 649.98 375.3 649.39C375.62 648.8 375.77 648.11 375.77 647.33C375.77 646.55 375.61 645.86 375.3 645.28Z" fill="#424242"/>
<path d="M382.34 652.07C381.55 651.63 380.93 651 380.48 650.18C380.03 649.36 379.81 648.42 379.81 647.34C379.81 646.26 380.04 645.34 380.5 644.52C380.96 643.7 381.59 643.08 382.39 642.64C383.19 642.2 384.08 641.98 385.07 641.98C386.06 641.98 386.95 642.2 387.75 642.64C388.55 643.08 389.18 643.7 389.64 644.51C390.1 645.32 390.33 646.26 390.33 647.34C390.33 648.42 390.09 649.36 389.62 650.18C389.14 651 388.5 651.63 387.69 652.07C386.88 652.51 385.98 652.74 384.99 652.74C384 652.74 383.13 652.52 382.34 652.07ZM386.74 650.77C387.28 650.48 387.72 650.04 388.06 649.46C388.4 648.88 388.56 648.17 388.56 647.33C388.56 646.49 388.39 645.78 388.07 645.2C387.74 644.62 387.31 644.18 386.78 643.9C386.25 643.61 385.67 643.47 385.05 643.47C384.43 643.47 383.84 643.61 383.31 643.9C382.78 644.19 382.36 644.62 382.05 645.2C381.73 645.78 381.58 646.49 381.58 647.33C381.58 648.17 381.73 648.89 382.04 649.48C382.35 650.06 382.76 650.5 383.28 650.78C383.8 651.06 384.37 651.21 384.99 651.21C385.61 651.21 386.19 651.06 386.74 650.77Z" fill="#424242"/>
<path d="M395.9 642.57C396.58 642.18 397.36 641.98 398.24 641.98C399.18 641.98 400.02 642.2 400.77 642.65C401.52 643.1 402.11 643.72 402.54 644.52C402.97 645.32 403.19 646.26 403.19 647.32C403.19 648.38 402.97 649.31 402.54 650.13C402.11 650.95 401.52 651.59 400.76 652.05C400 652.51 399.17 652.73 398.24 652.73C397.31 652.73 396.55 652.53 395.87 652.14C395.19 651.75 394.68 651.25 394.34 650.64V652.56H392.61V638.5H394.34V644.09C394.7 643.47 395.22 642.96 395.9 642.57ZM400.93 645.26C400.61 644.68 400.19 644.23 399.65 643.93C399.11 643.63 398.52 643.47 397.87 643.47C397.22 643.47 396.65 643.63 396.11 643.94C395.57 644.25 395.14 644.7 394.82 645.29C394.5 645.88 394.34 646.56 394.34 647.33C394.34 648.1 394.5 648.8 394.82 649.39C395.14 649.98 395.57 650.43 396.11 650.74C396.65 651.05 397.23 651.21 397.87 651.21C398.51 651.21 399.11 651.05 399.65 650.74C400.19 650.43 400.61 649.98 400.93 649.39C401.25 648.8 401.4 648.11 401.4 647.31C401.4 646.51 401.24 645.84 400.93 645.26Z" fill="#424242"/>
<path d="M408.48 642.45C409.04 642.12 409.73 641.96 410.54 641.96V643.75H410.08C408.14 643.75 407.17 644.8 407.17 646.9V652.56H405.44V642.15H407.17V643.84C407.47 643.24 407.91 642.78 408.47 642.45H408.48Z" fill="#424242"/>
<path d="M421.98 648H413.66C413.72 649.03 414.08 649.83 414.71 650.4C415.35 650.98 416.13 651.26 417.04 651.26C417.79 651.26 418.41 651.09 418.91 650.74C419.41 650.39 419.76 649.93 419.96 649.34H421.82C421.54 650.34 420.98 651.15 420.15 651.78C419.32 652.41 418.27 652.72 417.03 652.72C416.04 652.72 415.16 652.5 414.38 652.05C413.6 651.6 412.99 650.98 412.55 650.16C412.11 649.34 411.89 648.4 411.89 647.32C411.89 646.24 412.1 645.3 412.53 644.49C412.96 643.68 413.57 643.06 414.34 642.62C415.12 642.18 416.02 641.96 417.03 641.96C418.04 641.96 418.89 642.18 419.65 642.61C420.41 643.04 421 643.63 421.41 644.39C421.82 645.15 422.03 646 422.03 646.94C422.03 647.27 422.01 647.62 421.97 647.99L421.98 648ZM419.82 644.89C419.53 644.41 419.13 644.05 418.63 643.81C418.13 643.56 417.58 643.44 416.97 643.44C416.09 643.44 415.35 643.72 414.74 644.28C414.12 644.84 413.77 645.61 413.69 646.6H420.26C420.26 645.94 420.11 645.37 419.82 644.9V644.89Z" fill="#424242"/>
<path d="M431.54 644.86V646.32H423.96V644.86H431.54Z" fill="#424242"/>
<path d="M436.68 652.07C435.89 651.63 435.27 651 434.82 650.18C434.37 649.36 434.15 648.42 434.15 647.34C434.15 646.26 434.38 645.34 434.84 644.52C435.3 643.7 435.93 643.08 436.73 642.64C437.53 642.2 438.42 641.98 439.41 641.98C440.4 641.98 441.29 642.2 442.09 642.64C442.89 643.08 443.52 643.7 443.98 644.51C444.44 645.32 444.67 646.26 444.67 647.34C444.67 648.42 444.43 649.36 443.96 650.18C443.48 651 442.84 651.63 442.03 652.07C441.22 652.51 440.32 652.74 439.33 652.74C438.34 652.74 437.47 652.52 436.68 652.07ZM441.08 650.77C441.62 650.48 442.06 650.04 442.4 649.46C442.74 648.88 442.9 648.17 442.9 647.33C442.9 646.49 442.73 645.78 442.41 645.2C442.08 644.62 441.65 644.18 441.12 643.9C440.59 643.61 440.01 643.47 439.39 643.47C438.77 643.47 438.18 643.61 437.65 643.9C437.12 644.19 436.7 644.62 436.39 645.2C436.07 645.78 435.92 646.49 435.92 647.33C435.92 648.17 436.07 648.89 436.38 649.48C436.69 650.06 437.1 650.5 437.62 650.78C438.14 651.06 438.71 651.21 439.33 651.21C439.95 651.21 440.53 651.06 441.08 650.77Z" fill="#424242"/>
<path d="M460.17 643.11C460.96 643.88 461.35 644.98 461.35 646.43V652.57H459.64V646.68C459.64 645.64 459.38 644.85 458.86 644.3C458.34 643.75 457.63 643.47 456.73 643.47C455.83 643.47 455.09 643.75 454.55 644.32C454.01 644.89 453.74 645.72 453.74 646.81V652.57H452.01V642.16H453.74V643.64C454.08 643.11 454.55 642.7 455.14 642.4C455.73 642.11 456.38 641.96 457.09 641.96C458.36 641.96 459.38 642.34 460.17 643.11Z" fill="#424242"/>
<path d="M466.07 652.07C465.28 651.63 464.66 651 464.21 650.18C463.76 649.36 463.54 648.42 463.54 647.34C463.54 646.26 463.77 645.34 464.23 644.52C464.69 643.7 465.32 643.08 466.12 642.64C466.92 642.2 467.81 641.98 468.8 641.98C469.79 641.98 470.68 642.2 471.48 642.64C472.28 643.08 472.91 643.7 473.37 644.51C473.83 645.32 474.06 646.26 474.06 647.34C474.06 648.42 473.82 649.36 473.35 650.18C472.87 651 472.23 651.63 471.42 652.07C470.61 652.51 469.71 652.74 468.72 652.74C467.73 652.74 466.86 652.52 466.07 652.07ZM470.47 650.77C471.01 650.48 471.45 650.04 471.79 649.46C472.13 648.88 472.29 648.17 472.29 647.33C472.29 646.49 472.12 645.78 471.8 645.2C471.47 644.62 471.04 644.18 470.51 643.9C469.98 643.61 469.4 643.47 468.78 643.47C468.16 643.47 467.57 643.61 467.04 643.9C466.51 644.19 466.09 644.62 465.78 645.2C465.46 645.78 465.31 646.49 465.31 647.33C465.31 648.17 465.46 648.89 465.77 649.48C466.08 650.06 466.49 650.5 467.01 650.78C467.53 651.06 468.1 651.21 468.72 651.21C469.34 651.21 469.92 651.06 470.47 650.77Z" fill="#424242"/>
<path d="M496.1 642.46C496.73 642.8 497.23 643.3 497.6 643.97C497.97 644.64 498.15 645.46 498.15 646.42V652.56H496.44V646.67C496.44 645.63 496.18 644.84 495.67 644.29C495.16 643.74 494.46 643.46 493.59 643.46C492.72 643.46 491.97 643.75 491.44 644.32C490.91 644.9 490.64 645.73 490.64 646.82V652.56H488.93V646.67C488.93 645.63 488.67 644.84 488.16 644.29C487.65 643.74 486.95 643.46 486.08 643.46C485.21 643.46 484.47 643.75 483.93 644.32C483.4 644.9 483.13 645.73 483.13 646.82V652.56H481.4V642.15H483.13V643.65C483.47 643.11 483.93 642.69 484.51 642.4C485.09 642.11 485.72 641.96 486.42 641.96C487.3 641.96 488.07 642.16 488.74 642.55C489.41 642.94 489.91 643.52 490.24 644.28C490.53 643.55 491.01 642.98 491.68 642.57C492.35 642.16 493.1 641.96 493.92 641.96C494.74 641.96 495.45 642.13 496.09 642.46H496.1Z" fill="#424242"/>
<path d="M510.43 648H502.11C502.17 649.03 502.52 649.83 503.16 650.4C503.8 650.98 504.57 651.26 505.49 651.26C506.24 651.26 506.86 651.09 507.36 650.74C507.86 650.39 508.21 649.93 508.41 649.34H510.27C509.99 650.34 509.43 651.15 508.6 651.78C507.77 652.41 506.72 652.72 505.48 652.72C504.49 652.72 503.61 652.5 502.83 652.05C502.05 651.6 501.44 650.98 501 650.16C500.55 649.34 500.33 648.4 500.33 647.32C500.33 646.24 500.54 645.3 500.98 644.49C501.41 643.68 502.02 643.06 502.79 642.62C503.57 642.18 504.46 641.96 505.48 641.96C506.5 641.96 507.34 642.18 508.1 642.61C508.86 643.04 509.45 643.63 509.86 644.39C510.27 645.14 510.48 646 510.48 646.94C510.48 647.27 510.46 647.62 510.42 647.99L510.43 648ZM508.26 644.89C507.97 644.41 507.57 644.05 507.07 643.81C506.57 643.56 506.02 643.44 505.41 643.44C504.54 643.44 503.79 643.72 503.18 644.28C502.57 644.84 502.22 645.61 502.13 646.6H508.7C508.7 645.94 508.56 645.37 508.26 644.9V644.89Z" fill="#424242"/>
<path d="M512.82 640.11C512.59 639.88 512.48 639.6 512.48 639.27C512.48 638.94 512.6 638.66 512.82 638.43C513.05 638.2 513.33 638.09 513.66 638.09C513.99 638.09 514.24 638.2 514.47 638.43C514.69 638.66 514.8 638.94 514.8 639.27C514.8 639.6 514.69 639.88 514.47 640.11C514.25 640.34 513.98 640.45 513.66 640.45C513.34 640.45 513.05 640.34 512.82 640.11ZM514.5 642.15V652.56H512.77V642.15H514.5Z" fill="#424242"/>
<path d="M519.33 652.07C518.54 651.63 517.92 651 517.47 650.18C517.02 649.36 516.8 648.42 516.8 647.34C516.8 646.26 517.03 645.34 517.49 644.52C517.95 643.7 518.58 643.08 519.38 642.64C520.18 642.2 521.07 641.98 522.06 641.98C523.05 641.98 523.94 642.2 524.74 642.64C525.54 643.08 526.17 643.7 526.63 644.51C527.09 645.32 527.32 646.26 527.32 647.34C527.32 648.42 527.08 649.36 526.61 650.18C526.14 651 525.49 651.63 524.68 652.07C523.87 652.51 522.97 652.74 521.98 652.74C520.99 652.74 520.12 652.52 519.33 652.07ZM523.73 650.77C524.27 650.48 524.71 650.04 525.05 649.46C525.39 648.88 525.55 648.17 525.55 647.33C525.55 646.49 525.39 645.78 525.06 645.2C524.73 644.62 524.3 644.18 523.77 643.9C523.24 643.61 522.66 643.47 522.04 643.47C521.42 643.47 520.83 643.61 520.3 643.9C519.77 644.19 519.35 644.62 519.04 645.2C518.72 645.78 518.57 646.49 518.57 647.33C518.57 648.17 518.73 648.89 519.04 649.48C519.35 650.06 519.76 650.5 520.28 650.78C520.8 651.06 521.37 651.21 521.99 651.21C522.61 651.21 523.19 651.06 523.74 650.77H523.73Z" fill="#424242"/>
<path d="M778.98 640.12C780.04 640.66 780.85 641.43 781.41 642.43C781.97 643.43 782.26 644.61 782.26 645.96C782.26 647.31 781.98 648.49 781.41 649.48C780.84 650.47 780.03 651.23 778.98 651.76C777.92 652.29 776.67 652.55 775.23 652.55H771.11V639.31H775.23C776.67 639.31 777.92 639.58 778.98 640.12ZM779.14 649.78C780.04 648.87 780.49 647.6 780.49 645.97C780.49 644.34 780.04 643.04 779.13 642.11C778.22 641.19 776.92 640.72 775.23 640.72H772.84V651.13H775.23C776.94 651.13 778.24 650.68 779.14 649.77V649.78Z" fill="#424242"/>
<path d="M786.43 652.07C785.64 651.63 785.02 651 784.57 650.18C784.12 649.36 783.9 648.42 783.9 647.34C783.9 646.26 784.13 645.34 784.59 644.52C785.05 643.7 785.68 643.08 786.48 642.64C787.28 642.2 788.17 641.98 789.16 641.98C790.15 641.98 791.04 642.2 791.84 642.64C792.64 643.08 793.27 643.7 793.73 644.51C794.19 645.32 794.42 646.26 794.42 647.34C794.42 648.42 794.18 649.36 793.71 650.18C793.23 651 792.59 651.63 791.78 652.07C790.97 652.51 790.07 652.74 789.08 652.74C788.09 652.74 787.22 652.52 786.43 652.07ZM790.83 650.77C791.37 650.48 791.81 650.04 792.15 649.46C792.49 648.88 792.65 648.17 792.65 647.33C792.65 646.49 792.48 645.78 792.16 645.2C791.83 644.62 791.4 644.18 790.87 643.9C790.34 643.62 789.76 643.47 789.14 643.47C788.52 643.47 787.93 643.61 787.4 643.9C786.87 644.19 786.45 644.62 786.14 645.2C785.82 645.78 785.67 646.49 785.67 647.33C785.67 648.17 785.83 648.89 786.14 649.48C786.45 650.06 786.86 650.5 787.38 650.78C787.9 651.06 788.47 651.21 789.09 651.21C789.71 651.21 790.29 651.06 790.84 650.77H790.83Z" fill="#424242"/>
<path d="M799.99 642.57C800.67 642.18 801.45 641.98 802.33 641.98C803.27 641.98 804.11 642.2 804.86 642.65C805.61 643.09 806.2 643.72 806.63 644.52C807.06 645.32 807.28 646.26 807.28 647.32C807.28 648.38 807.06 649.31 806.63 650.13C806.2 650.95 805.61 651.59 804.85 652.05C804.09 652.51 803.26 652.73 802.33 652.73C801.4 652.73 800.64 652.53 799.96 652.14C799.28 651.75 798.77 651.25 798.43 650.64V652.56H796.7V638.5H798.43V644.09C798.78 643.47 799.3 642.96 799.99 642.57ZM805.02 645.26C804.7 644.68 804.28 644.23 803.74 643.93C803.2 643.63 802.61 643.47 801.96 643.47C801.31 643.47 800.74 643.63 800.2 643.94C799.66 644.25 799.23 644.7 798.91 645.29C798.59 645.88 798.43 646.56 798.43 647.33C798.43 648.1 798.59 648.8 798.91 649.39C799.23 649.98 799.66 650.43 800.2 650.74C800.74 651.05 801.32 651.21 801.96 651.21C802.6 651.21 803.2 651.05 803.74 650.74C804.28 650.43 804.7 649.98 805.02 649.39C805.34 648.8 805.49 648.11 805.49 647.31C805.49 646.51 805.33 645.84 805.02 645.26Z" fill="#424242"/>
<path d="M812.57 642.45C813.13 642.12 813.82 641.96 814.63 641.96V643.75H814.17C812.23 643.75 811.26 644.8 811.26 646.9V652.56H809.53V642.15H811.26V643.84C811.56 643.24 812 642.78 812.56 642.45H812.57Z" fill="#424242"/>
<path d="M826.07 648H817.75C817.81 649.03 818.17 649.83 818.8 650.4C819.43 650.97 820.22 651.26 821.13 651.26C821.88 651.26 822.5 651.09 823 650.74C823.5 650.39 823.85 649.93 824.05 649.34H825.91C825.63 650.34 825.07 651.15 824.24 651.78C823.41 652.41 822.36 652.72 821.12 652.72C820.13 652.72 819.25 652.5 818.47 652.05C817.69 651.6 817.08 650.98 816.64 650.16C816.2 649.34 815.97 648.4 815.97 647.32C815.97 646.24 816.18 645.3 816.62 644.49C817.06 643.68 817.66 643.06 818.43 642.62C819.21 642.18 820.1 641.96 821.12 641.96C822.14 641.96 822.98 642.18 823.74 642.61C824.5 643.04 825.09 643.63 825.5 644.39C825.91 645.14 826.12 646 826.12 646.94C826.12 647.27 826.1 647.62 826.06 647.99L826.07 648ZM823.91 644.89C823.62 644.41 823.22 644.05 822.72 643.81C822.22 643.56 821.67 643.44 821.06 643.44C820.19 643.44 819.44 643.72 818.83 644.28C818.22 644.84 817.86 645.61 817.78 646.6H824.35C824.35 645.94 824.2 645.37 823.91 644.9V644.89Z" fill="#424242"/>
<path d="M833.48 644.51C833.91 643.71 834.5 643.08 835.26 642.64C836.02 642.2 836.85 641.97 837.78 641.97C838.71 641.97 839.48 642.17 840.16 642.56C840.83 642.95 841.33 643.45 841.66 644.04V642.14H843.41V652.55H841.66V650.61C841.32 651.22 840.81 651.72 840.13 652.12C839.45 652.52 838.66 652.72 837.76 652.72C836.86 652.72 836 652.49 835.25 652.04C834.5 651.58 833.91 650.94 833.48 650.12C833.05 649.3 832.83 648.36 832.83 647.31C832.83 646.26 833.04 645.31 833.48 644.51ZM841.18 645.28C840.86 644.7 840.44 644.25 839.9 643.94C839.36 643.63 838.77 643.47 838.12 643.47C837.47 643.47 836.89 643.62 836.35 643.93C835.81 644.24 835.39 644.68 835.08 645.26C834.77 645.84 834.61 646.53 834.61 647.31C834.61 648.09 834.77 648.8 835.08 649.39C835.4 649.98 835.82 650.43 836.35 650.74C836.88 651.05 837.47 651.21 838.12 651.21C838.77 651.21 839.36 651.05 839.9 650.74C840.44 650.43 840.86 649.98 841.18 649.39C841.5 648.8 841.65 648.11 841.65 647.33C841.65 646.55 841.49 645.86 841.18 645.28Z" fill="#424242"/>
<path d="M847.86 652.32C847.23 652.05 846.73 651.67 846.36 651.18C845.99 650.69 845.79 650.13 845.75 649.5H847.54C847.59 650.02 847.83 650.44 848.27 650.77C848.71 651.1 849.28 651.26 849.99 651.26C850.65 651.26 851.17 651.11 851.55 650.82C851.93 650.53 852.12 650.16 852.12 649.72C852.12 649.28 851.92 648.93 851.51 648.7C851.1 648.48 850.48 648.26 849.63 648.04C848.86 647.84 848.23 647.63 847.74 647.42C847.25 647.21 846.83 646.9 846.49 646.49C846.14 646.08 845.97 645.54 845.97 644.87C845.97 644.34 846.13 643.85 846.45 643.41C846.77 642.97 847.22 642.62 847.8 642.36C848.38 642.1 849.05 641.97 849.8 641.97C850.95 641.97 851.88 642.26 852.59 642.84C853.3 643.42 853.68 644.22 853.73 645.23H852C851.96 644.69 851.74 644.25 851.34 643.92C850.94 643.59 850.41 643.43 849.73 643.43C849.11 643.43 848.61 643.56 848.25 643.83C847.88 644.1 847.7 644.44 847.7 644.87C847.7 645.21 847.81 645.49 848.03 645.72C848.25 645.95 848.53 646.12 848.87 646.25C849.21 646.38 849.67 646.53 850.27 646.7C851.02 646.9 851.62 647.1 852.09 647.3C852.56 647.5 852.96 647.79 853.3 648.18C853.63 648.57 853.81 649.09 853.82 649.72C853.82 650.29 853.66 650.8 853.34 651.26C853.02 651.72 852.58 652.07 852 652.33C851.42 652.59 850.76 652.72 850.01 652.72C849.21 652.72 848.5 652.58 847.86 652.31V652.32Z" fill="#424242"/>
<path d="M864.58 642.58C865.26 642.18 866.05 641.98 866.95 641.98C867.85 641.98 868.71 642.2 869.47 642.65C870.23 643.1 870.82 643.72 871.25 644.52C871.68 645.32 871.9 646.26 871.9 647.32C871.9 648.38 871.68 649.31 871.25 650.13C870.82 650.95 870.23 651.59 869.47 652.05C868.71 652.51 867.88 652.73 866.95 652.73C866.02 652.73 865.28 652.53 864.6 652.13C863.92 651.73 863.41 651.23 863.05 650.64V657.5H861.32V642.15H863.05V644.07C863.39 643.48 863.9 642.98 864.58 642.58ZM869.64 645.26C869.32 644.68 868.9 644.23 868.36 643.93C867.82 643.63 867.23 643.47 866.58 643.47C865.93 643.47 865.36 643.63 864.82 643.94C864.28 644.25 863.85 644.7 863.53 645.29C863.21 645.88 863.05 646.56 863.05 647.33C863.05 648.1 863.21 648.8 863.53 649.39C863.85 649.98 864.28 650.43 864.82 650.74C865.36 651.05 865.94 651.21 866.58 651.21C867.22 651.21 867.82 651.05 868.36 650.74C868.9 650.43 869.32 649.98 869.64 649.39C869.96 648.8 870.11 648.11 870.11 647.31C870.11 646.51 869.95 645.84 869.64 645.26Z" fill="#424242"/>
<path d="M876.05 652.07C875.26 651.63 874.64 651 874.19 650.18C873.74 649.36 873.52 648.42 873.52 647.34C873.52 646.26 873.75 645.34 874.21 644.52C874.67 643.7 875.3 643.08 876.1 642.64C876.9 642.2 877.79 641.98 878.78 641.98C879.77 641.98 880.66 642.2 881.46 642.64C882.26 643.08 882.89 643.7 883.35 644.51C883.81 645.32 884.04 646.26 884.04 647.34C884.04 648.42 883.8 649.36 883.33 650.18C882.85 651 882.21 651.63 881.4 652.07C880.59 652.51 879.69 652.74 878.7 652.74C877.71 652.74 876.84 652.52 876.05 652.07ZM880.45 650.77C880.99 650.48 881.43 650.04 881.77 649.46C882.11 648.88 882.27 648.17 882.27 647.33C882.27 646.49 882.1 645.78 881.78 645.2C881.45 644.62 881.02 644.18 880.49 643.9C879.96 643.62 879.38 643.47 878.76 643.47C878.14 643.47 877.55 643.61 877.02 643.9C876.49 644.19 876.07 644.62 875.76 645.2C875.44 645.78 875.29 646.49 875.29 647.33C875.29 648.17 875.45 648.89 875.76 649.48C876.07 650.06 876.48 650.5 877 650.78C877.52 651.06 878.09 651.21 878.71 651.21C879.33 651.21 879.91 651.06 880.46 650.77H880.45Z" fill="#424242"/>
<path d="M894.47 643.11C895.26 643.88 895.65 644.98 895.65 646.43V652.57H893.94V646.68C893.94 645.64 893.68 644.85 893.16 644.3C892.64 643.75 891.93 643.47 891.03 643.47C890.13 643.47 889.39 643.75 888.85 644.32C888.31 644.89 888.04 645.72 888.04 646.81V652.57H886.31V642.16H888.04V643.64C888.38 643.11 888.85 642.7 889.44 642.4C890.03 642.11 890.68 641.96 891.39 641.96C892.66 641.96 893.68 642.34 894.47 643.11Z" fill="#424242"/>
<path d="M900.59 643.57V649.71C900.59 650.22 900.7 650.57 900.91 650.78C901.13 650.99 901.5 651.09 902.03 651.09H903.3V652.55H901.74C900.78 652.55 900.05 652.33 899.57 651.88C899.09 651.44 898.85 650.71 898.85 649.7V643.56H897.5V642.14H898.85V639.52H900.58V642.14H903.3V643.56H900.58L900.59 643.57Z" fill="#424242"/>
<path d="M905.4 644.51C905.83 643.71 906.42 643.08 907.18 642.64C907.94 642.2 908.77 641.97 909.7 641.97C910.63 641.97 911.4 642.17 912.08 642.56C912.75 642.95 913.25 643.45 913.58 644.04V642.14H915.33V652.55H913.58V650.61C913.24 651.22 912.73 651.72 912.05 652.12C911.37 652.52 910.58 652.72 909.68 652.72C908.78 652.72 907.92 652.49 907.17 652.04C906.42 651.58 905.83 650.94 905.4 650.12C904.97 649.3 904.75 648.36 904.75 647.31C904.75 646.26 904.96 645.31 905.4 644.51ZM913.09 645.28C912.77 644.7 912.35 644.25 911.81 643.94C911.27 643.63 910.68 643.47 910.03 643.47C909.38 643.47 908.8 643.62 908.26 643.93C907.72 644.24 907.3 644.68 906.99 645.26C906.68 645.84 906.52 646.53 906.52 647.31C906.52 648.09 906.68 648.8 906.99 649.39C907.31 649.98 907.73 650.43 908.26 650.74C908.79 651.05 909.38 651.21 910.03 651.21C910.68 651.21 911.27 651.05 911.81 650.74C912.35 650.43 912.77 649.98 913.09 649.39C913.41 648.8 913.56 648.11 913.56 647.33C913.56 646.55 913.4 645.86 913.09 645.28Z" fill="#424242"/>
<path d="M919.78 652.32C919.15 652.05 918.65 651.67 918.28 651.18C917.91 650.69 917.71 650.13 917.67 649.5H919.46C919.51 650.02 919.75 650.44 920.19 650.77C920.63 651.1 921.2 651.26 921.91 651.26C922.57 651.26 923.09 651.11 923.47 650.82C923.85 650.53 924.04 650.16 924.04 649.72C924.04 649.28 923.84 648.93 923.43 648.7C923.02 648.48 922.4 648.26 921.55 648.04C920.78 647.84 920.15 647.63 919.66 647.42C919.17 647.21 918.75 646.9 918.41 646.49C918.06 646.08 917.89 645.54 917.89 644.87C917.89 644.34 918.05 643.85 918.37 643.41C918.69 642.97 919.14 642.62 919.72 642.36C920.3 642.1 920.97 641.97 921.72 641.97C922.87 641.97 923.8 642.26 924.51 642.84C925.22 643.42 925.6 644.22 925.65 645.23H923.92C923.88 644.69 923.66 644.25 923.26 643.92C922.86 643.59 922.33 643.43 921.65 643.43C921.03 643.43 920.53 643.56 920.17 643.83C919.8 644.1 919.62 644.44 919.62 644.87C919.62 645.21 919.73 645.49 919.95 645.72C920.17 645.95 920.45 646.12 920.79 646.25C921.13 646.38 921.59 646.53 922.19 646.7C922.94 646.9 923.54 647.1 924.01 647.3C924.48 647.5 924.88 647.79 925.22 648.18C925.55 648.57 925.73 649.09 925.74 649.72C925.74 650.29 925.58 650.8 925.26 651.26C924.94 651.72 924.5 652.07 923.92 652.33C923.34 652.59 922.68 652.72 921.93 652.72C921.13 652.72 920.42 652.58 919.78 652.31V652.32Z" fill="#424242"/>
<path d="M936.49 642.58C937.17 642.18 937.96 641.98 938.86 641.98C939.76 641.98 940.62 642.2 941.38 642.65C942.14 643.1 942.73 643.72 943.16 644.52C943.59 645.32 943.81 646.26 943.81 647.32C943.81 648.38 943.59 649.31 943.16 650.13C942.73 650.95 942.14 651.59 941.38 652.05C940.62 652.51 939.79 652.73 938.86 652.73C937.93 652.73 937.19 652.53 936.51 652.13C935.83 651.73 935.32 651.23 934.96 650.64V657.5H933.23V642.15H934.96V644.07C935.3 643.48 935.81 642.98 936.49 642.58ZM941.55 645.26C941.23 644.68 940.81 644.23 940.27 643.93C939.73 643.63 939.14 643.47 938.49 643.47C937.84 643.47 937.27 643.63 936.73 643.94C936.19 644.25 935.76 644.7 935.44 645.29C935.12 645.88 934.96 646.56 934.96 647.33C934.96 648.1 935.12 648.8 935.44 649.39C935.76 649.98 936.19 650.43 936.73 650.74C937.27 651.05 937.85 651.21 938.49 651.21C939.13 651.21 939.73 651.05 940.27 650.74C940.81 650.43 941.23 649.98 941.55 649.39C941.87 648.8 942.02 648.11 942.02 647.31C942.02 646.51 941.86 645.84 941.55 645.26Z" fill="#424242"/>
<path d="M946.08 644.51C946.51 643.71 947.1 643.08 947.86 642.64C948.62 642.2 949.45 641.97 950.38 641.97C951.31 641.97 952.08 642.17 952.76 642.56C953.43 642.95 953.93 643.45 954.26 644.04V642.14H956.01V652.55H954.26V650.61C953.92 651.22 953.41 651.72 952.73 652.12C952.05 652.52 951.26 652.72 950.36 652.72C949.46 652.72 948.6 652.49 947.85 652.04C947.1 651.58 946.51 650.94 946.08 650.12C945.65 649.3 945.43 648.36 945.43 647.31C945.43 646.26 945.64 645.31 946.08 644.51ZM953.77 645.28C953.45 644.7 953.03 644.25 952.49 643.94C951.95 643.63 951.36 643.47 950.71 643.47C950.06 643.47 949.48 643.62 948.94 643.93C948.4 644.24 947.98 644.68 947.67 645.26C947.36 645.84 947.2 646.53 947.2 647.31C947.2 648.09 947.36 648.8 947.67 649.39C947.99 649.98 948.41 650.43 948.94 650.74C949.47 651.05 950.06 651.21 950.71 651.21C951.36 651.21 951.95 651.05 952.49 650.74C953.03 650.43 953.45 649.98 953.77 649.39C954.09 648.8 954.24 648.11 954.24 647.33C954.24 646.55 954.08 645.86 953.77 645.28Z" fill="#424242"/>
<path d="M961.95 642.45C962.51 642.12 963.2 641.96 964.01 641.96V643.75H963.55C961.61 643.75 960.64 644.8 960.64 646.9V652.56H958.91V642.15H960.64V643.84C960.94 643.24 961.38 642.78 961.94 642.45H961.95Z" fill="#424242"/>
<path d="M966 644.51C966.43 643.71 967.02 643.08 967.78 642.64C968.54 642.2 969.37 641.97 970.3 641.97C971.23 641.97 972 642.17 972.68 642.56C973.35 642.95 973.85 643.45 974.18 644.04V642.14H975.93V652.55H974.18V650.61C973.84 651.22 973.33 651.72 972.65 652.12C971.97 652.52 971.18 652.72 970.28 652.72C969.38 652.72 968.52 652.49 967.77 652.04C967.02 651.58 966.43 650.94 966 650.12C965.57 649.3 965.35 648.36 965.35 647.31C965.35 646.26 965.56 645.31 966 644.51ZM973.7 645.28C973.38 644.7 972.96 644.25 972.42 643.94C971.88 643.63 971.29 643.47 970.64 643.47C969.99 643.47 969.41 643.62 968.87 643.93C968.33 644.24 967.91 644.68 967.6 645.26C967.29 645.84 967.13 646.53 967.13 647.31C967.13 648.09 967.29 648.8 967.6 649.39C967.92 649.98 968.34 650.43 968.87 650.74C969.4 651.05 969.99 651.21 970.64 651.21C971.29 651.21 971.88 651.05 972.42 650.74C972.96 650.43 973.38 649.98 973.7 649.39C974.02 648.8 974.17 648.11 974.17 647.33C974.17 646.55 974.01 645.86 973.7 645.28Z" fill="#424242"/>
<path d="M988.16 643.57H985.97V652.56H984.24V643.57H982.89V642.15H984.24V641.41C984.24 640.24 984.54 639.39 985.14 638.85C985.74 638.31 986.71 638.04 988.04 638.04V639.48C987.28 639.48 986.75 639.63 986.43 639.93C986.12 640.23 985.96 640.72 985.96 641.4V642.14H988.15V643.56L988.16 643.57Z" fill="#424242"/>
<path d="M990.17 644.51C990.6 643.71 991.19 643.08 991.95 642.64C992.71 642.2 993.54 641.97 994.47 641.97C995.4 641.97 996.17 642.17 996.85 642.56C997.52 642.95 998.02 643.45 998.35 644.04V642.14H1000.1V652.55H998.35V650.61C998.01 651.22 997.5 651.72 996.82 652.12C996.14 652.52 995.35 652.72 994.45 652.72C993.55 652.72 992.69 652.49 991.94 652.04C991.19 651.58 990.6 650.94 990.17 650.12C989.74 649.3 989.52 648.36 989.52 647.31C989.52 646.26 989.73 645.31 990.17 644.51ZM997.87 645.28C997.55 644.7 997.13 644.25 996.59 643.94C996.05 643.63 995.46 643.47 994.81 643.47C994.16 643.47 993.58 643.62 993.04 643.93C992.5 644.24 992.08 644.68 991.77 645.26C991.46 645.84 991.3 646.53 991.3 647.31C991.3 648.09 991.46 648.8 991.77 649.39C992.09 649.98 992.51 650.43 993.04 650.74C993.57 651.05 994.16 651.21 994.81 651.21C995.46 651.21 996.05 651.05 996.59 650.74C997.13 650.43 997.55 649.98 997.87 649.39C998.19 648.8 998.34 648.11 998.34 647.33C998.34 646.55 998.18 645.86 997.87 645.28Z" fill="#424242"/>
<path d="M1004.31 651.13H1009.42V652.55H1002.33V651.13L1007.38 643.55H1002.36V642.14H1009.37V643.55L1004.3 651.13H1004.31Z" fill="#424242"/>
<path d="M1021.11 648H1012.79C1012.85 649.03 1013.21 649.83 1013.84 650.4C1014.47 650.97 1015.26 651.26 1016.17 651.26C1016.92 651.26 1017.54 651.09 1018.04 650.74C1018.54 650.39 1018.89 649.93 1019.09 649.34H1020.95C1020.67 650.34 1020.11 651.15 1019.28 651.78C1018.45 652.41 1017.4 652.72 1016.16 652.72C1015.17 652.72 1014.29 652.5 1013.51 652.05C1012.73 651.6 1012.12 650.98 1011.68 650.16C1011.24 649.34 1011.01 648.4 1011.01 647.32C1011.01 646.24 1011.22 645.3 1011.66 644.49C1012.1 643.68 1012.7 643.06 1013.47 642.62C1014.25 642.18 1015.14 641.96 1016.16 641.96C1017.18 641.96 1018.02 642.18 1018.78 642.61C1019.54 643.04 1020.13 643.63 1020.54 644.39C1020.95 645.14 1021.16 646 1021.16 646.94C1021.16 647.27 1021.14 647.62 1021.1 647.99L1021.11 648ZM1018.94 644.89C1018.65 644.41 1018.25 644.05 1017.75 643.81C1017.25 643.56 1016.7 643.44 1016.09 643.44C1015.22 643.44 1014.47 643.72 1013.86 644.28C1013.25 644.84 1012.89 645.61 1012.81 646.6H1019.38C1019.38 645.94 1019.23 645.37 1018.94 644.9V644.89Z" fill="#424242"/>
<path d="M1026.47 642.45C1027.03 642.12 1027.72 641.96 1028.53 641.96V643.75H1028.07C1026.13 643.75 1025.16 644.8 1025.16 646.9V652.56H1023.43V642.15H1025.16V643.84C1025.46 643.24 1025.9 642.78 1026.46 642.45H1026.47Z" fill="#424242"/>
<path d="M1035.6 644.51C1036.03 643.71 1036.62 643.08 1037.38 642.64C1038.14 642.2 1038.97 641.97 1039.9 641.97C1040.83 641.97 1041.6 642.17 1042.28 642.56C1042.95 642.95 1043.45 643.45 1043.78 644.04V642.14H1045.53V652.55H1043.78V650.61C1043.44 651.22 1042.93 651.72 1042.25 652.12C1041.57 652.52 1040.78 652.72 1039.88 652.72C1038.98 652.72 1038.12 652.49 1037.37 652.04C1036.62 651.58 1036.03 650.94 1035.6 650.12C1035.17 649.3 1034.95 648.36 1034.95 647.31C1034.95 646.26 1035.16 645.31 1035.6 644.51ZM1043.3 645.28C1042.98 644.7 1042.56 644.25 1042.02 643.94C1041.48 643.63 1040.89 643.47 1040.24 643.47C1039.59 643.47 1039.01 643.62 1038.47 643.93C1037.93 644.24 1037.51 644.68 1037.2 645.26C1036.89 645.84 1036.73 646.53 1036.73 647.31C1036.73 648.09 1036.89 648.8 1037.2 649.39C1037.52 649.98 1037.94 650.43 1038.47 650.74C1039 651.05 1039.59 651.21 1040.24 651.21C1040.89 651.21 1041.48 651.05 1042.02 650.74C1042.56 650.43 1042.98 649.98 1043.3 649.39C1043.62 648.8 1043.77 648.11 1043.77 647.33C1043.77 646.55 1043.61 645.86 1043.3 645.28Z" fill="#424242"/>
<path d="M1049.98 652.32C1049.35 652.05 1048.85 651.67 1048.48 651.18C1048.11 650.69 1047.91 650.13 1047.87 649.5H1049.66C1049.71 650.02 1049.95 650.44 1050.39 650.77C1050.83 651.1 1051.4 651.26 1052.11 651.26C1052.77 651.26 1053.29 651.11 1053.67 650.82C1054.05 650.53 1054.24 650.16 1054.24 649.72C1054.24 649.28 1054.04 648.93 1053.63 648.7C1053.22 648.48 1052.6 648.26 1051.75 648.04C1050.98 647.84 1050.35 647.63 1049.86 647.42C1049.37 647.21 1048.95 646.9 1048.61 646.49C1048.26 646.08 1048.09 645.54 1048.09 644.87C1048.09 644.34 1048.25 643.85 1048.57 643.41C1048.89 642.97 1049.34 642.62 1049.92 642.36C1050.5 642.1 1051.17 641.97 1051.92 641.97C1053.07 641.97 1054 642.26 1054.71 642.84C1055.42 643.42 1055.8 644.22 1055.85 645.23H1054.12C1054.08 644.69 1053.86 644.25 1053.46 643.92C1053.06 643.59 1052.53 643.43 1051.85 643.43C1051.23 643.43 1050.73 643.56 1050.37 643.83C1050 644.1 1049.82 644.44 1049.82 644.87C1049.82 645.21 1049.93 645.49 1050.15 645.72C1050.37 645.95 1050.65 646.12 1050.99 646.25C1051.33 646.38 1051.79 646.53 1052.39 646.7C1053.14 646.9 1053.74 647.1 1054.21 647.3C1054.68 647.5 1055.08 647.79 1055.42 648.18C1055.75 648.57 1055.93 649.09 1055.94 649.72C1055.94 650.29 1055.78 650.8 1055.46 651.26C1055.14 651.72 1054.7 652.07 1054.12 652.33C1053.54 652.59 1052.88 652.72 1052.13 652.72C1051.33 652.72 1050.62 652.58 1049.98 652.31V652.32Z" fill="#424242"/>
<path d="M851.62 665.38C852.3 664.98 853.09 664.78 853.99 664.78C854.89 664.78 855.75 665 856.51 665.45C857.27 665.9 857.86 666.52 858.29 667.32C858.72 668.12 858.94 669.06 858.94 670.12C858.94 671.18 858.72 672.11 858.29 672.93C857.86 673.75 857.27 674.39 856.51 674.85C855.75 675.31 854.92 675.53 853.99 675.53C853.06 675.53 852.32 675.33 851.64 674.93C850.96 674.53 850.45 674.03 850.09 673.44V680.3H848.36V664.95H850.09V666.87C850.43 666.28 850.94 665.78 851.62 665.38ZM856.68 668.06C856.36 667.48 855.94 667.03 855.4 666.73C854.86 666.43 854.27 666.27 853.62 666.27C852.97 666.27 852.4 666.43 851.86 666.74C851.32 667.05 850.89 667.5 850.57 668.09C850.25 668.68 850.09 669.36 850.09 670.13C850.09 670.9 850.25 671.6 850.57 672.19C850.89 672.78 851.32 673.23 851.86 673.54C852.4 673.85 852.98 674.01 853.62 674.01C854.26 674.01 854.86 673.85 855.4 673.54C855.94 673.23 856.36 672.78 856.68 672.19C857 671.6 857.15 670.91 857.15 670.11C857.15 669.31 856.99 668.64 856.68 668.06Z" fill="#424242"/>
<path d="M870.65 670.8H862.33C862.39 671.83 862.75 672.63 863.38 673.2C864.01 673.77 864.8 674.06 865.71 674.06C866.46 674.06 867.08 673.89 867.58 673.54C868.08 673.19 868.43 672.73 868.63 672.14H870.49C870.21 673.14 869.65 673.95 868.82 674.58C867.99 675.21 866.94 675.52 865.7 675.52C864.71 675.52 863.83 675.3 863.05 674.85C862.27 674.4 861.66 673.78 861.22 672.96C860.78 672.14 860.55 671.2 860.55 670.12C860.55 669.04 860.76 668.1 861.2 667.29C861.64 666.48 862.24 665.86 863.01 665.42C863.79 664.98 864.68 664.76 865.7 664.76C866.72 664.76 867.56 664.98 868.32 665.41C869.08 665.84 869.67 666.43 870.08 667.19C870.49 667.94 870.7 668.8 870.7 669.74C870.7 670.07 870.68 670.42 870.64 670.79L870.65 670.8ZM868.48 667.69C868.19 667.21 867.79 666.85 867.29 666.61C866.79 666.36 866.24 666.24 865.63 666.24C864.76 666.24 864.01 666.52 863.4 667.08C862.79 667.64 862.43 668.41 862.35 669.4H868.92C868.92 668.74 868.77 668.17 868.48 667.7V667.69ZM867.49 662L863.44 664.17V662.88L867.49 660.5V662Z" fill="#424242"/>
<path d="M875.09 666.37V672.51C875.09 673.02 875.2 673.37 875.41 673.58C875.63 673.79 876 673.89 876.53 673.89H877.8V675.35H876.24C875.28 675.35 874.55 675.13 874.07 674.68C873.59 674.24 873.35 673.51 873.35 672.5V666.36H872V664.94H873.35V662.32H875.08V664.94H877.8V666.36H875.08L875.09 666.37Z" fill="#424242"/>
<path d="M879.9 667.31C880.33 666.51 880.92 665.88 881.68 665.44C882.44 665 883.27 664.77 884.2 664.77C885.13 664.77 885.9 664.97 886.58 665.36C887.25 665.75 887.75 666.25 888.08 666.84V664.94H889.83V675.35H888.08V673.41C887.74 674.02 887.23 674.52 886.55 674.92C885.87 675.32 885.08 675.52 884.18 675.52C883.28 675.52 882.42 675.29 881.67 674.84C880.92 674.38 880.33 673.74 879.9 672.92C879.47 672.1 879.25 671.16 879.25 670.11C879.25 669.06 879.46 668.11 879.9 667.31ZM887.59 668.08C887.27 667.5 886.85 667.05 886.31 666.74C885.77 666.43 885.18 666.27 884.53 666.27C883.88 666.27 883.3 666.42 882.76 666.73C882.22 667.04 881.8 667.48 881.49 668.06C881.18 668.64 881.02 669.33 881.02 670.11C881.02 670.89 881.18 671.6 881.49 672.19C881.81 672.78 882.23 673.23 882.76 673.54C883.29 673.85 883.88 674.01 884.53 674.01C885.18 674.01 885.77 673.85 886.31 673.54C886.85 673.23 887.27 672.78 887.59 672.19C887.91 671.6 888.06 670.91 888.06 670.13C888.06 669.35 887.9 668.66 887.59 668.08Z" fill="#424242"/>
<path d="M894.47 661.3V675.36H892.74V661.3H894.47Z" fill="#424242"/>
<path d="M897.42 667.31C897.85 666.51 898.44 665.88 899.2 665.44C899.96 665 900.79 664.77 901.72 664.77C902.65 664.77 903.42 664.97 904.1 665.36C904.77 665.75 905.27 666.25 905.6 666.84V664.94H907.35V675.35H905.6V673.41C905.26 674.02 904.75 674.52 904.07 674.92C903.39 675.32 902.6 675.52 901.7 675.52C900.8 675.52 899.94 675.29 899.19 674.84C898.44 674.38 897.85 673.74 897.42 672.92C896.99 672.1 896.77 671.16 896.77 670.11C896.77 669.06 896.98 668.11 897.42 667.31ZM905.11 668.08C904.79 667.5 904.37 667.05 903.83 666.74C903.29 666.43 902.7 666.27 902.05 666.27C901.4 666.27 900.82 666.42 900.28 666.73C899.74 667.04 899.32 667.48 899.01 668.06C898.7 668.64 898.54 669.33 898.54 670.11C898.54 670.89 898.7 671.6 899.01 672.19C899.33 672.78 899.75 673.23 900.28 673.54C900.81 673.85 901.4 674.01 902.05 674.01C902.7 674.01 903.29 673.85 903.83 673.54C904.37 673.23 904.79 672.78 905.11 672.19C905.43 671.6 905.58 670.91 905.58 670.13C905.58 669.35 905.42 668.66 905.11 668.08Z" fill="#424242"/>
<path d="M911.8 675.12C911.17 674.85 910.67 674.47 910.3 673.98C909.93 673.49 909.73 672.93 909.69 672.3H911.48C911.53 672.82 911.77 673.24 912.21 673.57C912.65 673.9 913.22 674.06 913.93 674.06C914.59 674.06 915.11 673.91 915.49 673.62C915.87 673.33 916.06 672.96 916.06 672.52C916.06 672.08 915.86 671.73 915.45 671.5C915.04 671.28 914.42 671.06 913.57 670.84C912.8 670.64 912.17 670.43 911.68 670.22C911.19 670.01 910.77 669.7 910.43 669.29C910.08 668.88 909.91 668.34 909.91 667.67C909.91 667.14 910.07 666.65 910.39 666.21C910.71 665.77 911.16 665.42 911.74 665.16C912.32 664.9 912.99 664.77 913.74 664.77C914.89 664.77 915.82 665.06 916.53 665.64C917.24 666.22 917.62 667.02 917.67 668.03H915.94C915.9 667.49 915.68 667.05 915.28 666.72C914.88 666.39 914.35 666.23 913.67 666.23C913.05 666.23 912.55 666.36 912.19 666.63C911.82 666.9 911.64 667.24 911.64 667.67C911.64 668.01 911.75 668.29 911.97 668.52C912.19 668.75 912.47 668.92 912.81 669.05C913.15 669.18 913.61 669.33 914.21 669.5C914.96 669.7 915.56 669.9 916.03 670.1C916.5 670.3 916.9 670.59 917.24 670.98C917.57 671.37 917.75 671.89 917.76 672.52C917.76 673.09 917.6 673.6 917.28 674.06C916.96 674.52 916.52 674.87 915.94 675.13C915.36 675.39 914.7 675.52 913.95 675.52C913.15 675.52 912.44 675.38 911.8 675.11V675.12Z" fill="#424242"/>
<path d="M925.25 667.31C925.68 666.51 926.27 665.88 927.03 665.44C927.79 665 928.63 664.77 929.57 664.77C930.38 664.77 931.13 664.96 931.83 665.33C932.53 665.7 933.06 666.19 933.43 666.8V661.29H935.18V675.35H933.43V673.39C933.09 674.01 932.58 674.52 931.91 674.92C931.24 675.32 930.45 675.52 929.55 675.52C928.65 675.52 927.79 675.29 927.03 674.84C926.27 674.39 925.68 673.74 925.25 672.92C924.82 672.1 924.6 671.16 924.6 670.11C924.6 669.06 924.81 668.11 925.25 667.31ZM932.95 668.08C932.63 667.5 932.21 667.05 931.67 666.74C931.13 666.43 930.54 666.27 929.89 666.27C929.24 666.27 928.66 666.42 928.12 666.73C927.58 667.04 927.16 667.48 926.85 668.06C926.54 668.64 926.38 669.33 926.38 670.11C926.38 670.89 926.54 671.6 926.85 672.19C927.17 672.78 927.59 673.23 928.12 673.54C928.65 673.85 929.24 674.01 929.89 674.01C930.54 674.01 931.13 673.85 931.67 673.54C932.21 673.23 932.63 672.78 932.95 672.19C933.27 671.6 933.42 670.91 933.42 670.13C933.42 669.35 933.26 668.66 932.95 668.08Z" fill="#424242"/>
<path d="M938.09 667.31C938.52 666.51 939.11 665.88 939.87 665.44C940.63 665 941.46 664.77 942.39 664.77C943.32 664.77 944.09 664.97 944.77 665.36C945.44 665.75 945.94 666.25 946.27 666.84V664.94H948.02V675.35H946.27V673.41C945.93 674.02 945.42 674.52 944.74 674.92C944.06 675.32 943.27 675.52 942.37 675.52C941.47 675.52 940.61 675.29 939.86 674.84C939.11 674.38 938.52 673.74 938.09 672.92C937.66 672.1 937.44 671.16 937.44 670.11C937.44 669.06 937.65 668.11 938.09 667.31ZM945.79 668.08C945.47 667.5 945.05 667.05 944.51 666.74C943.97 666.43 943.38 666.27 942.73 666.27C942.08 666.27 941.5 666.42 940.96 666.73C940.42 667.04 940 667.48 939.69 668.06C939.38 668.64 939.22 669.33 939.22 670.11C939.22 670.89 939.38 671.6 939.69 672.19C940.01 672.78 940.43 673.23 940.96 673.54C941.49 673.85 942.08 674.01 942.73 674.01C943.38 674.01 943.97 673.85 944.51 673.54C945.05 673.23 945.47 672.78 945.79 672.19C946.11 671.6 946.26 670.91 946.26 670.13C946.26 669.35 946.1 668.66 945.79 668.08Z" fill="#424242"/>
<path d="M960.25 666.37H958.06V675.36H956.33V666.37H954.98V664.95H956.33V664.21C956.33 663.04 956.63 662.19 957.23 661.65C957.83 661.11 958.8 660.84 960.13 660.84V662.28C959.37 662.28 958.84 662.43 958.52 662.73C958.21 663.03 958.05 663.52 958.05 664.2V664.94H960.24V666.36L960.25 666.37Z" fill="#424242"/>
<path d="M963.99 661.3V675.36H962.26V661.3H963.99Z" fill="#424242"/>
<path d="M968.83 674.87C968.04 674.43 967.42 673.8 966.97 672.98C966.52 672.16 966.3 671.22 966.3 670.14C966.3 669.06 966.53 668.14 966.99 667.32C967.45 666.5 968.08 665.88 968.88 665.44C969.68 665 970.57 664.78 971.56 664.78C972.55 664.78 973.44 665 974.24 665.44C975.04 665.88 975.67 666.5 976.13 667.31C976.59 668.12 976.82 669.06 976.82 670.14C976.82 671.22 976.58 672.16 976.11 672.98C975.63 673.8 974.99 674.43 974.18 674.87C973.37 675.31 972.47 675.54 971.48 675.54C970.49 675.54 969.62 675.32 968.83 674.87ZM973.22 673.57C973.76 673.28 974.2 672.84 974.54 672.26C974.88 671.68 975.04 670.97 975.04 670.13C975.04 669.29 974.87 668.58 974.55 668C974.22 667.42 973.79 666.98 973.26 666.7C972.73 666.42 972.15 666.27 971.53 666.27C970.91 666.27 970.32 666.41 969.79 666.7C969.26 666.99 968.84 667.42 968.53 668C968.21 668.58 968.06 669.29 968.06 670.13C968.06 670.97 968.22 671.69 968.53 672.28C968.84 672.86 969.25 673.3 969.77 673.58C970.29 673.86 970.86 674.01 971.48 674.01C972.1 674.01 972.68 673.86 973.23 673.57H973.22Z" fill="#424242"/>
<path d="M982.13 665.25C982.69 664.92 983.38 664.76 984.19 664.76V666.55H983.73C981.79 666.55 980.82 667.6 980.82 669.7V675.36H979.09V664.95H980.82V666.64C981.12 666.04 981.56 665.58 982.12 665.25H982.13Z" fill="#424242"/>
<path d="M527.18 288.98C546.201 288.98 561.62 273.534 561.62 254.48C561.62 235.426 546.201 219.98 527.18 219.98C508.159 219.98 492.74 235.426 492.74 254.48C492.74 273.534 508.159 288.98 527.18 288.98Z" fill="#E8E3E6"/>
<path d="M527.22 286C546.241 286 561.66 270.554 561.66 251.5C561.66 232.446 546.241 217 527.22 217C508.199 217 492.78 232.446 492.78 251.5C492.78 270.554 508.199 286 527.22 286Z" fill="#FFF8FC"/>
<path d="M511.97 247.72L525.94 233.72C528.3 231.36 532.34 233.03 532.34 236.37V266.57C532.34 269.87 528.39 271.57 526 269.28L511.97 255.84V247.71V247.72Z" fill="#C8A9F2"/>
<path d="M510.77 249.2C510.77 248.366 510.094 247.69 509.26 247.69C508.426 247.69 507.75 248.366 507.75 249.2V253.75C507.75 254.584 508.426 255.26 509.26 255.26C510.094 255.26 510.77 254.584 510.77 253.75V249.2Z" fill="#C8A9F2"/>
<path d="M536.09 259.57C537.2 258.62 538.74 254.27 538.74 251.47C538.74 248.67 537.7 244.75 536.09 243.37" fill="#C8A9F2"/>
<path d="M540.65 262.19C542.12 260.93 544.15 255.18 544.15 251.47C544.15 247.76 542.78 242.57 540.65 240.75" fill="#C8A9F2"/>
<path d="M1139.18 288.98C1158.2 288.98 1173.62 273.534 1173.62 254.48C1173.62 235.426 1158.2 219.98 1139.18 219.98C1120.16 219.98 1104.74 235.426 1104.74 254.48C1104.74 273.534 1120.16 288.98 1139.18 288.98Z" fill="#E8E3E6"/>
<path d="M1139.22 286C1158.24 286 1173.66 270.554 1173.66 251.5C1173.66 232.446 1158.24 217 1139.22 217C1120.2 217 1104.78 232.446 1104.78 251.5C1104.78 270.554 1120.2 286 1139.22 286Z" fill="#FFF8FC"/>
<path d="M1123.97 247.72L1137.94 233.72C1140.3 231.36 1144.34 233.03 1144.34 236.37V266.57C1144.34 269.87 1140.39 271.57 1138 269.28L1123.97 255.84V247.71V247.72Z" fill="#C8A9F2"/>
<path d="M1122.77 249.2C1122.77 248.366 1122.09 247.69 1121.26 247.69C1120.43 247.69 1119.75 248.366 1119.75 249.2V253.75C1119.75 254.584 1120.43 255.26 1121.26 255.26C1122.09 255.26 1122.77 254.584 1122.77 253.75V249.2Z" fill="#C8A9F2"/>
<path d="M1148.09 259.57C1149.2 258.62 1150.74 254.27 1150.74 251.47C1150.74 248.67 1149.7 244.75 1148.09 243.37" fill="#C8A9F2"/>
<path d="M1152.65 262.19C1154.12 260.93 1156.15 255.18 1156.15 251.47C1156.15 247.76 1154.78 242.57 1152.65 240.75" fill="#C8A9F2"/>
<path d="M704.92 519.72L902.47 308.33L1101.64 519.72H704.92Z" fill="#CCCCCC"/>
<path d="M706.92 512.72L904.47 301.33L1103.64 512.72H706.92Z" fill="white" stroke="#E0E0E0" stroke-miterlimit="10"/>
<path d="M1006.83 483.16C1006.83 483.16 1012.14 432.49 963.05 415.79" stroke="#E1A9AF" stroke-width="2"/>
<path d="M951.38 412.69C957.41 412.16 965.16 410.56 970.38 408.04L964.54 416.3L965.34 426.38C962.14 421.55 956.29 416.22 951.37 412.68L951.38 412.69Z" fill="#E1A9AF"/>
<path d="M788.6 473.45C788.6 473.45 799.07 423.59 850.92 422.73" stroke="#E1A9AF" stroke-width="2"/>
<path d="M862.97 423.36C857.2 425.22 850.01 428.51 845.48 432.12L849.33 422.77L846.31 413.12C850.51 417.11 857.39 421.01 862.98 423.36H862.97Z" fill="#E1A9AF"/>
<path d="M905 517.27L804 407.27" stroke="#E1A9AF" stroke-width="2"/>
<path d="M1007 407.27L906 517.27" stroke="#E1A9AF" stroke-width="2"/>
</svg>
