<svg width="1209" height="720" viewBox="0 0 1209 720" fill="none" xmlns="http://www.w3.org/2000/svg">
<path d="M727.36 24.27H495.93C479.467 24.27 466.12 37.6164 466.12 54.08V64.46C466.12 80.9236 479.467 94.27 495.93 94.27H727.36C743.824 94.27 757.17 80.9236 757.17 64.46V54.08C757.17 37.6164 743.824 24.27 727.36 24.27Z" fill="#AED8A4"/>
<path d="M565.99 1.58011C566.94 2.06011 567.66 2.75011 568.17 3.65011C568.68 4.54011 568.93 5.60011 568.93 6.81011C568.93 8.02011 568.68 9.07011 568.17 9.96011C567.67 10.8501 566.94 11.5301 565.99 12.0001C565.04 12.4701 563.93 12.7101 562.63 12.7101H558.94V0.860107H562.63C563.92 0.860107 565.04 1.10011 565.99 1.58011ZM566.14 10.2101C566.94 9.40011 567.35 8.26011 567.35 6.80011C567.35 5.34011 566.95 4.18011 566.14 3.35011C565.33 2.52011 564.17 2.11011 562.65 2.11011H560.51V11.4301H562.65C564.18 11.4301 565.35 11.0301 566.15 10.2201L566.14 10.2101Z" fill="#A8A8A8"/>
<path d="M572.66 12.2602C571.95 11.8602 571.4 11.3002 570.99 10.5702C570.59 9.84023 570.39 8.99023 570.39 8.03023C570.39 7.07023 570.6 6.24023 571.01 5.51023C571.42 4.78023 571.99 4.22023 572.7 3.83023C573.41 3.44023 574.21 3.24023 575.1 3.24023C575.99 3.24023 576.78 3.44023 577.5 3.83023C578.21 4.22023 578.78 4.78023 579.19 5.50023C579.6 6.22023 579.81 7.07023 579.81 8.03023C579.81 8.99023 579.6 9.84023 579.17 10.5702C578.74 11.3002 578.17 11.8602 577.44 12.2602C576.72 12.6602 575.91 12.8602 575.03 12.8602C574.15 12.8602 573.37 12.6602 572.66 12.2602ZM576.59 11.1102C577.08 10.8502 577.47 10.4602 577.77 9.94023C578.07 9.42023 578.22 8.78023 578.22 8.04023C578.22 7.30023 578.07 6.66023 577.78 6.14023C577.49 5.62023 577.1 5.23023 576.62 4.98023C576.15 4.73023 575.63 4.60023 575.07 4.60023C574.51 4.60023 573.99 4.73023 573.52 4.98023C573.05 5.23023 572.67 5.62023 572.39 6.14023C572.11 6.66023 571.96 7.30023 571.96 8.04023C571.96 8.78023 572.1 9.44023 572.38 9.96023C572.66 10.4802 573.03 10.8702 573.49 11.1202C573.95 11.3702 574.46 11.5002 575.02 11.5002C575.58 11.5002 576.1 11.3702 576.58 11.1102H576.59Z" fill="#A8A8A8"/>
<path d="M584.79 3.76012C585.4 3.41012 586.1 3.23012 586.88 3.23012C587.72 3.23012 588.47 3.43012 589.14 3.82012C589.81 4.22012 590.34 4.78012 590.72 5.49012C591.1 6.20012 591.3 7.05012 591.3 8.00012C591.3 8.95012 591.11 9.78012 590.72 10.5201C590.33 11.2601 589.8 11.8301 589.13 12.2401C588.46 12.6501 587.7 12.8501 586.88 12.8501C586.06 12.8501 585.37 12.6701 584.76 12.3201C584.15 11.9701 583.7 11.5201 583.39 10.9801V12.7001H581.84V0.120117H583.39V5.12012C583.71 4.57012 584.17 4.11012 584.78 3.76012H584.79ZM589.29 6.18012C589.01 5.66012 588.62 5.26012 588.14 4.99012C587.66 4.72012 587.13 4.58012 586.55 4.58012C585.97 4.58012 585.46 4.72012 584.98 5.00012C584.5 5.28012 584.11 5.68012 583.82 6.21012C583.53 6.74012 583.39 7.35012 583.39 8.04012C583.39 8.73012 583.53 9.36012 583.82 9.88012C584.11 10.4101 584.5 10.8101 584.98 11.0901C585.46 11.3701 585.99 11.5101 586.55 11.5101C587.11 11.5101 587.66 11.3701 588.14 11.0901C588.62 10.8101 589.01 10.4101 589.29 9.88012C589.57 9.35012 589.71 8.73012 589.71 8.02012C589.71 7.31012 589.57 6.71012 589.29 6.18012Z" fill="#A8A8A8"/>
<path d="M596.05 3.66021C596.55 3.37021 597.17 3.22021 597.89 3.22021V4.82021H597.48C595.75 4.82021 594.88 5.76022 594.88 7.64022V12.7102H593.33V3.39021H594.88V4.90021C595.15 4.37021 595.54 3.95021 596.04 3.66021H596.05Z" fill="#A8A8A8"/>
<path d="M599.68 5.51C600.06 4.79 600.59 4.23 601.27 3.84C601.94 3.44 602.69 3.25 603.52 3.25C604.35 3.25 605.04 3.43 605.64 3.78C606.24 4.13 606.69 4.57 606.98 5.11V3.41H608.54V12.73H606.98V11C606.67 11.54 606.22 12 605.61 12.35C605 12.71 604.3 12.89 603.49 12.89C602.68 12.89 601.92 12.69 601.25 12.28C600.58 11.87 600.05 11.3 599.67 10.56C599.29 9.82 599.09 8.98 599.09 8.04C599.09 7.1 599.28 6.25 599.67 5.53L599.68 5.51ZM606.56 6.19C606.28 5.67 605.89 5.27 605.41 4.99C604.93 4.71 604.4 4.57 603.82 4.57C603.24 4.57 602.71 4.71 602.24 4.98C601.77 5.25 601.38 5.65 601.1 6.17C600.82 6.69 600.67 7.3 600.67 8.01C600.67 8.72 600.81 9.34 601.1 9.87C601.38 10.4 601.76 10.8 602.24 11.08C602.72 11.36 603.24 11.5 603.82 11.5C604.4 11.5 604.93 11.36 605.41 11.08C605.89 10.8 606.27 10.4 606.56 9.87C606.84 9.34 606.99 8.73 606.99 8.03C606.99 7.33 606.85 6.72 606.56 6.19Z" fill="#A8A8A8"/>
<path d="M611.17 5.51014C611.55 4.79014 612.08 4.23014 612.76 3.84014C613.43 3.44014 614.19 3.25014 615.03 3.25014C615.75 3.25014 616.43 3.42014 617.05 3.75014C617.67 4.08014 618.15 4.52014 618.48 5.07014V0.140137H620.04V12.7201H618.48V10.9701C618.17 11.5301 617.72 11.9801 617.12 12.3401C616.52 12.7001 615.82 12.8801 615.01 12.8801C614.2 12.8801 613.43 12.6801 612.76 12.2701C612.08 11.8601 611.55 11.2901 611.17 10.5501C610.79 9.81014 610.59 8.97014 610.59 8.03014C610.59 7.09014 610.78 6.24014 611.17 5.52014V5.51014ZM618.06 6.19014C617.78 5.67014 617.39 5.27014 616.91 4.99014C616.43 4.71014 615.9 4.57014 615.32 4.57014C614.74 4.57014 614.21 4.71014 613.74 4.98014C613.27 5.25014 612.88 5.65014 612.6 6.17014C612.32 6.69014 612.17 7.30014 612.17 8.01014C612.17 8.72014 612.31 9.34014 612.6 9.87014C612.88 10.4001 613.26 10.8001 613.74 11.0801C614.22 11.3601 614.74 11.5001 615.32 11.5001C615.9 11.5001 616.43 11.3601 616.91 11.0801C617.39 10.8001 617.77 10.4001 618.06 9.87014C618.34 9.34014 618.49 8.73014 618.49 8.03014C618.49 7.33014 618.35 6.72014 618.06 6.19014Z" fill="#A8A8A8"/>
<path d="M630.93 3.39014V12.7101H629.38V11.3301C629.09 11.8101 628.67 12.1801 628.15 12.4401C627.62 12.7101 627.04 12.8401 626.41 12.8401C625.68 12.8401 625.03 12.6901 624.45 12.3901C623.87 12.0901 623.41 11.6401 623.08 11.0401C622.75 10.4401 622.58 9.71014 622.58 8.85014V3.39014H624.11V8.64014C624.11 9.56014 624.34 10.2601 624.81 10.7601C625.28 11.2601 625.91 11.5001 626.71 11.5001C627.51 11.5001 628.19 11.2501 628.66 10.7401C629.14 10.2301 629.37 9.49014 629.37 8.51014V3.39014H630.92H630.93Z" fill="#A8A8A8"/>
<path d="M636.26 3.66021C636.76 3.37021 637.38 3.22021 638.1 3.22021V4.82021H637.69C635.96 4.82021 635.09 5.76022 635.09 7.64022V12.7102H633.54V3.39021H635.09V4.90021C635.36 4.37021 635.75 3.95021 636.25 3.66021H636.26Z" fill="#A8A8A8"/>
<path d="M639.88 5.51C640.26 4.79 640.79 4.23 641.47 3.84C642.14 3.44 642.89 3.25 643.72 3.25C644.55 3.25 645.24 3.43 645.84 3.78C646.44 4.13 646.89 4.57 647.18 5.11V3.41H648.74V12.73H647.18V11C646.87 11.54 646.42 12 645.81 12.35C645.2 12.71 644.5 12.89 643.69 12.89C642.88 12.89 642.12 12.69 641.45 12.28C640.78 11.87 640.25 11.3 639.87 10.56C639.49 9.82 639.29 8.98 639.29 8.04C639.29 7.1 639.48 6.25 639.87 5.53L639.88 5.51ZM646.77 6.19C646.49 5.67 646.1 5.27 645.62 4.99C645.14 4.71 644.61 4.57 644.03 4.57C643.45 4.57 642.92 4.71 642.45 4.98C641.98 5.25 641.59 5.65 641.31 6.17C641.03 6.69 640.88 7.3 640.88 8.01C640.88 8.72 641.02 9.34 641.31 9.87C641.59 10.4 641.97 10.8 642.45 11.08C642.93 11.36 643.45 11.5 644.03 11.5C644.61 11.5 645.14 11.36 645.62 11.08C646.1 10.8 646.48 10.4 646.77 9.87C647.05 9.34 647.2 8.73 647.2 8.03C647.2 7.33 647.06 6.72 646.77 6.19Z" fill="#A8A8A8"/>
<path d="M652.75 12.4902C652.18 12.2502 651.74 11.9102 651.41 11.4702C651.08 11.0302 650.9 10.5302 650.87 9.97023H652.47C652.51 10.4302 652.73 10.8102 653.12 11.1102C653.51 11.4102 654.02 11.5502 654.66 11.5502C655.25 11.5502 655.71 11.4202 656.05 11.1602C656.39 10.9002 656.56 10.5702 656.56 10.1702C656.56 9.77023 656.38 9.46023 656.02 9.26023C655.66 9.06024 655.1 8.87023 654.34 8.67023C653.65 8.49023 653.09 8.30023 652.65 8.12023C652.21 7.93023 651.84 7.66023 651.53 7.29023C651.22 6.92023 651.06 6.44023 651.06 5.84023C651.06 5.36023 651.2 4.93023 651.48 4.53023C651.76 4.13023 652.17 3.82023 652.69 3.59023C653.21 3.36023 653.81 3.24023 654.48 3.24023C655.51 3.24023 656.35 3.50024 656.98 4.02024C657.61 4.54024 657.95 5.26023 658 6.16023H656.45C656.41 5.67023 656.22 5.28023 655.86 4.99023C655.5 4.70023 655.02 4.55023 654.42 4.55023C653.87 4.55023 653.42 4.67023 653.09 4.91023C652.76 5.15023 652.6 5.46023 652.6 5.84023C652.6 6.15023 652.7 6.40023 652.9 6.60023C653.1 6.80024 653.35 6.96023 653.65 7.08023C653.95 7.20023 654.37 7.33023 654.9 7.48023C655.57 7.66023 656.11 7.84024 656.53 8.02024C656.95 8.20023 657.31 8.46024 657.61 8.81024C657.91 9.16023 658.07 9.62023 658.08 10.1902C658.08 10.7002 657.94 11.1602 657.66 11.5702C657.38 11.9802 656.98 12.3002 656.46 12.5302C655.94 12.7602 655.35 12.8802 654.68 12.8802C653.97 12.8802 653.32 12.7602 652.76 12.5102L652.75 12.4902Z" fill="#A8A8A8"/>
<path d="M570.08 67.5H557.92L555.68 73.7H551.84L561.92 45.98H566.12L576.16 73.7H572.32L570.08 67.5ZM569.04 64.54L564 50.46L558.96 64.54H569.04Z" fill="white"/>
<path d="M603.6 45.8198L593.08 73.6998H588.88L578.36 45.8198H582.24L591 69.8598L599.76 45.8198H603.6Z" fill="white"/>
<path d="M611.24 45.8198V73.6998H607.6V45.8198H611.24Z" fill="white"/>
<path d="M633.92 67.4999H621.76L619.52 73.6999H615.68L625.76 45.9799H629.96L640 73.6999H636.16L633.92 67.4999ZM623.3 40.4999C624.01 39.7799 624.89 39.4199 625.96 39.4199C626.47 39.4199 626.9 39.5099 627.26 39.6799C627.62 39.8499 628.05 40.0999 628.56 40.4199C628.93 40.6899 629.27 40.8899 629.56 41.0399C629.85 41.1899 630.17 41.2599 630.52 41.2599C630.97 41.2599 631.36 41.1099 631.68 40.8199C632 40.5299 632.2 40.0999 632.28 39.5399H634.36C634.2 40.8699 633.76 41.8999 633.04 42.6199C632.32 43.3399 631.43 43.6999 630.36 43.6999C629.85 43.6999 629.4 43.6099 629.02 43.4399C628.63 43.2699 628.2 43.0099 627.72 42.6599C627.29 42.3899 626.95 42.1899 626.7 42.0599C626.45 41.9299 626.15 41.8599 625.8 41.8599C625.35 41.8599 624.97 42.0099 624.66 42.2999C624.35 42.5899 624.16 43.0299 624.08 43.6199H621.96C622.15 42.2599 622.59 41.2199 623.3 40.4999ZM632.88 64.5399L627.84 50.4599L622.8 64.5399H632.88Z" fill="white"/>
<path d="M649.96 72.16C647.83 70.95 646.14 69.25 644.9 67.08C643.66 64.91 643.04 62.46 643.04 59.74C643.04 57.02 643.66 54.57 644.9 52.4C646.14 50.23 647.83 48.53 649.96 47.32C652.09 46.11 654.45 45.5 657.04 45.5C659.63 45.5 662.03 46.11 664.16 47.32C666.29 48.53 667.97 50.22 669.2 52.38C670.43 54.54 671.04 56.99 671.04 59.74C671.04 62.49 670.43 64.94 669.2 67.1C667.97 69.26 666.29 70.95 664.16 72.16C662.03 73.37 659.65 73.98 657.04 73.98C654.43 73.98 652.09 73.37 649.96 72.16ZM662.3 69.46C663.86 68.55 665.09 67.26 665.98 65.58C666.87 63.9 667.32 61.95 667.32 59.74C667.32 57.53 666.87 55.55 665.98 53.88C665.09 52.21 663.87 50.93 662.32 50.02C660.77 49.11 659.01 48.66 657.04 48.66C655.07 48.66 653.31 49.11 651.76 50.02C650.21 50.93 648.99 52.21 648.1 53.88C647.21 55.55 646.76 57.5 646.76 59.74C646.76 61.98 647.21 63.9 648.1 65.58C648.99 67.26 650.22 68.55 651.78 69.46C653.34 70.37 655.09 70.82 657.04 70.82C658.99 70.82 660.74 70.37 662.3 69.46Z" fill="white"/>
<path d="M554.02 200.95H70.4401C44.9964 200.95 24.3701 221.576 24.3701 247.02V673.2C24.3701 698.644 44.9964 719.27 70.4401 719.27H554.02C579.464 719.27 600.09 698.644 600.09 673.2V247.02C600.09 221.576 579.464 200.95 554.02 200.95Z" fill="#D3D3D3"/>
<path d="M549.4 191.27H65.82C40.3762 191.27 19.75 211.896 19.75 237.34V663.52C19.75 688.964 40.3762 709.59 65.82 709.59H549.4C574.844 709.59 595.47 688.964 595.47 663.52V237.34C595.47 211.896 574.844 191.27 549.4 191.27Z" fill="#AED8A4"/>
<path d="M43.73 231.27C66.7603 231.27 85.43 212.569 85.43 189.5C85.43 166.431 66.7603 147.73 43.73 147.73C20.6998 147.73 2.03003 166.431 2.03003 189.5C2.03003 212.569 20.6998 231.27 43.73 231.27Z" fill="#CCA98B" stroke="#F2F2F2"/>
<path d="M43.69 227.67C66.7203 227.67 85.39 208.969 85.39 185.9C85.39 162.831 66.7203 144.13 43.69 144.13C20.6597 144.13 1.98999 162.831 1.98999 185.9C1.98999 208.969 20.6597 227.67 43.69 227.67Z" fill="white" stroke="#F2F2F2" stroke-width="3"/>
<path d="M27.1399 171.86C28.9399 170.28 31.3799 169.49 34.4699 169.49C36.5199 169.49 38.2699 169.84 39.7299 170.55C41.1899 171.26 42.2899 172.23 43.0399 173.46C43.7899 174.69 44.1699 176.07 44.1699 177.59C44.1699 179.39 43.7199 180.86 42.8199 181.99C41.9199 183.12 40.8699 183.89 39.6699 184.3V184.46C41.2199 184.98 42.4499 185.84 43.3499 187.04C44.2499 188.24 44.6999 189.78 44.6999 191.66C44.6999 193.35 44.3099 194.85 43.5299 196.14C42.7499 197.43 41.6199 198.45 40.1299 199.19C38.6399 199.93 36.8799 200.29 34.8299 200.29C31.5599 200.29 28.9399 199.49 26.9899 197.88C25.0399 196.27 24.0099 193.84 23.8999 190.6H30.6899C30.7199 191.8 31.0599 192.75 31.7099 193.44C32.3699 194.14 33.3199 194.48 34.5799 194.48C35.6399 194.48 36.4699 194.17 37.0599 193.56C37.6499 192.95 37.9399 192.13 37.9399 191.12C37.9399 189.81 37.5199 188.86 36.6899 188.28C35.8599 187.69 34.5299 187.4 32.6999 187.4H31.3899V181.71H32.6999C34.0899 181.71 35.2199 181.47 36.0799 180.99C36.9399 180.51 37.3699 179.66 37.3699 178.43C37.3699 177.45 37.0999 176.68 36.5499 176.14C35.9999 175.6 35.2499 175.32 34.2999 175.32C33.2599 175.32 32.4899 175.63 31.9899 176.26C31.4799 176.89 31.1899 177.67 31.1099 178.59H24.2799C24.3899 175.67 25.3399 173.42 27.1499 171.84L27.1399 171.86Z" fill="#AED8A4"/>
<path d="M49.01 174.58C49.71 173.48 50.69 172.61 51.96 171.98C53.23 171.35 54.68 171.04 56.32 171.04C57.96 171.04 59.41 171.35 60.68 171.98C61.95 172.61 62.93 173.47 63.63 174.58C64.33 175.69 64.67 176.96 64.67 178.41C64.67 179.86 64.32 181.14 63.61 182.26C62.9 183.38 61.91 184.26 60.64 184.9C59.37 185.54 57.92 185.86 56.28 185.86C54.64 185.86 53.2 185.54 51.94 184.9C50.68 184.26 49.71 183.38 49.01 182.26C48.31 181.14 47.97 179.86 47.97 178.41C47.97 176.96 48.32 175.69 49.01 174.58ZM58.4 175.95C57.83 175.38 57.12 175.09 56.27 175.09C55.42 175.09 54.76 175.38 54.2 175.95C53.64 176.52 53.36 177.36 53.36 178.45C53.36 179.54 53.63 180.33 54.18 180.91C54.73 181.49 55.42 181.77 56.27 181.77C57.12 181.77 57.82 181.48 58.4 180.89C58.97 180.3 59.26 179.49 59.26 178.46C59.26 177.37 58.97 176.54 58.4 175.96V175.95Z" fill="#AED8A4"/>
<path d="M105.38 177.45C104.59 178.22 103.38 178.6 101.75 178.6H99.07V184.42H97.25V170.48H101.75C103.32 170.48 104.52 170.86 105.34 171.62C106.16 172.38 106.57 173.36 106.57 174.56C106.57 175.76 106.17 176.68 105.38 177.45ZM103.99 176.44C104.47 176 104.71 175.37 104.71 174.56C104.71 172.84 103.72 171.98 101.75 171.98H99.07V177.1H101.75C102.76 177.1 103.51 176.88 103.99 176.44Z" fill="#AED8A4"/>
<path d="M108.83 175.95C109.28 175.1 109.91 174.45 110.7 173.98C111.49 173.51 112.38 173.28 113.35 173.28C114.32 173.28 115.14 173.49 115.85 173.9C116.56 174.31 117.08 174.83 117.43 175.46V173.46H119.27V184.42H117.43V182.38C117.07 183.02 116.53 183.55 115.82 183.97C115.11 184.39 114.28 184.6 113.33 184.6C112.38 184.6 111.48 184.36 110.69 183.88C109.9 183.4 109.28 182.73 108.83 181.86C108.38 180.99 108.15 180.01 108.15 178.9C108.15 177.79 108.38 176.8 108.83 175.95ZM116.93 176.76C116.6 176.15 116.15 175.68 115.58 175.35C115.01 175.02 114.39 174.86 113.71 174.86C113.03 174.86 112.41 175.02 111.85 175.34C111.29 175.66 110.84 176.13 110.51 176.74C110.18 177.35 110.01 178.07 110.01 178.9C110.01 179.73 110.18 180.47 110.51 181.09C110.84 181.71 111.29 182.18 111.85 182.51C112.41 182.84 113.03 183 113.71 183C114.39 183 115.01 182.84 115.58 182.51C116.15 182.18 116.6 181.71 116.93 181.09C117.26 180.47 117.43 179.75 117.43 178.92C117.43 178.09 117.26 177.37 116.93 176.76Z" fill="#AED8A4"/>
<path d="M123.97 184.17C123.3 183.88 122.78 183.48 122.39 182.97C122 182.46 121.79 181.87 121.75 181.2H123.63C123.68 181.75 123.94 182.19 124.4 182.54C124.86 182.89 125.46 183.06 126.21 183.06C126.9 183.06 127.45 182.91 127.85 182.6C128.25 182.29 128.45 181.91 128.45 181.44C128.45 180.97 128.24 180.6 127.81 180.37C127.38 180.14 126.72 179.91 125.83 179.68C125.02 179.47 124.35 179.25 123.84 179.03C123.33 178.81 122.89 178.48 122.52 178.05C122.15 177.62 121.97 177.05 121.97 176.34C121.97 175.78 122.14 175.27 122.47 174.8C122.8 174.33 123.28 173.96 123.89 173.69C124.5 173.42 125.2 173.28 125.99 173.28C127.2 173.28 128.18 173.59 128.93 174.2C129.68 174.81 130.08 175.65 130.13 176.72H128.31C128.27 176.15 128.04 175.69 127.62 175.34C127.2 174.99 126.64 174.82 125.93 174.82C125.28 174.82 124.76 174.96 124.37 175.24C123.98 175.52 123.79 175.89 123.79 176.34C123.79 176.7 123.91 177 124.14 177.23C124.37 177.46 124.67 177.65 125.02 177.79C125.37 177.93 125.86 178.09 126.49 178.26C127.28 178.47 127.92 178.68 128.41 178.89C128.9 179.1 129.33 179.41 129.68 179.82C130.03 180.23 130.22 180.77 130.23 181.44C130.23 182.04 130.06 182.58 129.73 183.06C129.4 183.54 128.93 183.92 128.32 184.19C127.71 184.46 127.02 184.6 126.23 184.6C125.39 184.6 124.64 184.46 123.97 184.17Z" fill="#AED8A4"/>
<path d="M134.41 184.17C133.74 183.88 133.22 183.48 132.83 182.97C132.44 182.46 132.23 181.87 132.19 181.2H134.07C134.12 181.75 134.38 182.19 134.84 182.54C135.3 182.89 135.9 183.06 136.65 183.06C137.34 183.06 137.89 182.91 138.29 182.6C138.69 182.29 138.89 181.91 138.89 181.44C138.89 180.97 138.68 180.6 138.25 180.37C137.82 180.14 137.16 179.91 136.27 179.68C135.46 179.47 134.79 179.25 134.28 179.03C133.77 178.81 133.33 178.48 132.96 178.05C132.59 177.62 132.41 177.05 132.41 176.34C132.41 175.78 132.58 175.27 132.91 174.8C133.24 174.33 133.72 173.96 134.33 173.69C134.94 173.42 135.64 173.28 136.43 173.28C137.64 173.28 138.62 173.59 139.37 174.2C140.12 174.81 140.52 175.65 140.57 176.72H138.75C138.71 176.15 138.48 175.69 138.06 175.34C137.64 174.99 137.08 174.82 136.37 174.82C135.72 174.82 135.2 174.96 134.81 175.24C134.42 175.52 134.23 175.89 134.23 176.34C134.23 176.7 134.35 177 134.58 177.23C134.81 177.46 135.11 177.65 135.46 177.79C135.81 177.93 136.3 178.09 136.93 178.26C137.72 178.47 138.36 178.68 138.85 178.89C139.34 179.1 139.77 179.41 140.12 179.82C140.47 180.23 140.66 180.77 140.67 181.44C140.67 182.04 140.5 182.58 140.17 183.06C139.84 183.54 139.37 183.92 138.76 184.19C138.15 184.46 137.46 184.6 136.67 184.6C135.83 184.6 135.08 184.46 134.41 184.17Z" fill="#AED8A4"/>
<path d="M145.22 183.9C144.39 183.43 143.73 182.77 143.26 181.91C142.79 181.05 142.55 180.05 142.55 178.92C142.55 177.79 142.79 176.81 143.28 175.95C143.77 175.09 144.43 174.43 145.27 173.97C146.11 173.51 147.05 173.28 148.09 173.28C149.13 173.28 150.07 173.51 150.91 173.97C151.75 174.43 152.41 175.09 152.9 175.94C153.39 176.79 153.63 177.79 153.63 178.92C153.63 180.05 153.38 181.05 152.88 181.91C152.38 182.77 151.7 183.43 150.85 183.9C150 184.37 149.05 184.6 148.01 184.6C146.97 184.6 146.05 184.37 145.22 183.9ZM149.85 182.54C150.42 182.23 150.89 181.77 151.24 181.16C151.59 180.55 151.77 179.8 151.77 178.92C151.77 178.04 151.6 177.29 151.25 176.68C150.9 176.07 150.45 175.61 149.89 175.31C149.33 175.01 148.72 174.86 148.07 174.86C147.42 174.86 146.79 175.01 146.24 175.31C145.69 175.61 145.24 176.07 144.91 176.68C144.58 177.29 144.41 178.04 144.41 178.92C144.41 179.8 144.57 180.57 144.9 181.18C145.23 181.79 145.66 182.25 146.21 182.55C146.76 182.85 147.36 183 148.01 183C148.66 183 149.28 182.85 149.85 182.54Z" fill="#AED8A4"/>
<path d="M1162.02 200.95H678.44C652.996 200.95 632.37 221.576 632.37 247.02V673.2C632.37 698.644 652.996 719.27 678.44 719.27H1162.02C1187.46 719.27 1208.09 698.644 1208.09 673.2V247.02C1208.09 221.576 1187.46 200.95 1162.02 200.95Z" fill="#D3D3D3"/>
<path d="M1157.6 191.27H674.02C648.576 191.27 627.95 211.896 627.95 237.34V663.52C627.95 688.964 648.576 709.59 674.02 709.59H1157.6C1183.04 709.59 1203.67 688.964 1203.67 663.52V237.34C1203.67 211.896 1183.04 191.27 1157.6 191.27Z" fill="#AED8A4"/>
<path d="M655.73 231.27C678.76 231.27 697.43 212.569 697.43 189.5C697.43 166.431 678.76 147.73 655.73 147.73C632.7 147.73 614.03 166.431 614.03 189.5C614.03 212.569 632.7 231.27 655.73 231.27Z" fill="#CCA98B" stroke="#F2F2F2"/>
<path d="M655.69 227.67C678.721 227.67 697.39 208.969 697.39 185.9C697.39 162.831 678.721 144.13 655.69 144.13C632.66 144.13 613.99 162.831 613.99 185.9C613.99 208.969 632.66 227.67 655.69 227.67Z" fill="white" stroke="#F2F2F2" stroke-width="3"/>
<path d="M634.72 194.74V189.09L647.65 170.59H655.47V188.68H658.83V194.74H655.47V200.06H648.47V194.74H634.72ZM648.96 178.29L642.08 188.68H648.96V178.29Z" fill="#AED8A4"/>
<path d="M662.48 174.58C663.18 173.48 664.16 172.61 665.43 171.98C666.7 171.35 668.15 171.04 669.79 171.04C671.43 171.04 672.88 171.35 674.15 171.98C675.42 172.61 676.4 173.47 677.1 174.58C677.8 175.69 678.14 176.96 678.14 178.41C678.14 179.86 677.79 181.14 677.08 182.26C676.37 183.38 675.38 184.26 674.11 184.9C672.84 185.54 671.39 185.86 669.75 185.86C668.11 185.86 666.67 185.54 665.41 184.9C664.15 184.26 663.18 183.38 662.48 182.26C661.78 181.14 661.44 179.86 661.44 178.41C661.44 176.96 661.79 175.69 662.48 174.58ZM671.88 175.95C671.31 175.38 670.6 175.09 669.75 175.09C668.9 175.09 668.24 175.38 667.68 175.95C667.12 176.52 666.84 177.36 666.84 178.45C666.84 179.54 667.11 180.33 667.66 180.91C668.21 181.49 668.9 181.77 669.75 181.77C670.6 181.77 671.3 181.48 671.88 180.89C672.45 180.3 672.74 179.49 672.74 178.46C672.74 177.37 672.45 176.54 671.88 175.96V175.95Z" fill="#AED8A4"/>
<path d="M717.38 177.45C716.59 178.22 715.38 178.6 713.75 178.6H711.07V184.42H709.25V170.48H713.75C715.32 170.48 716.52 170.86 717.34 171.62C718.16 172.38 718.57 173.36 718.57 174.56C718.57 175.76 718.17 176.68 717.38 177.45ZM715.99 176.44C716.47 176 716.71 175.37 716.71 174.56C716.71 172.84 715.72 171.98 713.75 171.98H711.07V177.1H713.75C714.76 177.1 715.51 176.88 715.99 176.44Z" fill="#AED8A4"/>
<path d="M720.83 175.95C721.28 175.1 721.91 174.45 722.7 173.98C723.49 173.51 724.38 173.28 725.35 173.28C726.32 173.28 727.14 173.49 727.85 173.9C728.56 174.31 729.08 174.83 729.43 175.46V173.46H731.27V184.42H729.43V182.38C729.07 183.02 728.53 183.55 727.82 183.97C727.11 184.39 726.28 184.6 725.33 184.6C724.38 184.6 723.48 184.36 722.69 183.88C721.9 183.4 721.28 182.73 720.83 181.86C720.38 180.99 720.15 180.01 720.15 178.9C720.15 177.79 720.38 176.8 720.83 175.95ZM728.93 176.76C728.6 176.15 728.15 175.68 727.58 175.35C727.01 175.02 726.39 174.86 725.71 174.86C725.03 174.86 724.41 175.02 723.85 175.34C723.29 175.66 722.84 176.13 722.51 176.74C722.18 177.35 722.01 178.07 722.01 178.9C722.01 179.73 722.18 180.47 722.51 181.09C722.84 181.71 723.29 182.18 723.85 182.51C724.41 182.84 725.03 183 725.71 183C726.39 183 727.01 182.84 727.58 182.51C728.15 182.18 728.6 181.71 728.93 181.09C729.26 180.47 729.43 179.75 729.43 178.92C729.43 178.09 729.26 177.37 728.93 176.76Z" fill="#AED8A4"/>
<path d="M735.97 184.17C735.3 183.88 734.78 183.48 734.39 182.97C734 182.46 733.79 181.87 733.75 181.2H735.63C735.68 181.75 735.94 182.19 736.4 182.54C736.86 182.89 737.46 183.06 738.21 183.06C738.9 183.06 739.45 182.91 739.85 182.6C740.25 182.29 740.45 181.91 740.45 181.44C740.45 180.97 740.24 180.6 739.81 180.37C739.38 180.14 738.72 179.91 737.83 179.68C737.02 179.47 736.35 179.25 735.84 179.03C735.33 178.81 734.89 178.48 734.52 178.05C734.15 177.62 733.97 177.05 733.97 176.34C733.97 175.78 734.14 175.27 734.47 174.8C734.8 174.33 735.28 173.96 735.89 173.69C736.5 173.42 737.2 173.28 737.99 173.28C739.2 173.28 740.18 173.59 740.93 174.2C741.68 174.81 742.08 175.65 742.13 176.72H740.31C740.27 176.15 740.04 175.69 739.62 175.34C739.2 174.99 738.64 174.82 737.93 174.82C737.28 174.82 736.76 174.96 736.37 175.24C735.98 175.52 735.79 175.89 735.79 176.34C735.79 176.7 735.91 177 736.14 177.23C736.37 177.46 736.67 177.65 737.02 177.79C737.37 177.93 737.86 178.09 738.49 178.26C739.28 178.47 739.92 178.68 740.41 178.89C740.9 179.1 741.33 179.41 741.68 179.82C742.03 180.23 742.22 180.77 742.23 181.44C742.23 182.04 742.06 182.58 741.73 183.06C741.4 183.54 740.93 183.92 740.32 184.19C739.71 184.46 739.02 184.6 738.23 184.6C737.39 184.6 736.64 184.46 735.97 184.17Z" fill="#AED8A4"/>
<path d="M746.41 184.17C745.74 183.88 745.22 183.48 744.83 182.97C744.44 182.46 744.23 181.87 744.19 181.2H746.07C746.12 181.75 746.38 182.19 746.84 182.54C747.3 182.89 747.9 183.06 748.65 183.06C749.34 183.06 749.89 182.91 750.29 182.6C750.69 182.29 750.89 181.91 750.89 181.44C750.89 180.97 750.68 180.6 750.25 180.37C749.82 180.14 749.16 179.91 748.27 179.68C747.46 179.47 746.79 179.25 746.28 179.03C745.77 178.81 745.33 178.48 744.96 178.05C744.59 177.62 744.41 177.05 744.41 176.34C744.41 175.78 744.58 175.27 744.91 174.8C745.24 174.33 745.72 173.96 746.33 173.69C746.94 173.42 747.64 173.28 748.43 173.28C749.64 173.28 750.62 173.59 751.37 174.2C752.12 174.81 752.52 175.65 752.57 176.72H750.75C750.71 176.15 750.48 175.69 750.06 175.34C749.64 174.99 749.08 174.82 748.37 174.82C747.72 174.82 747.2 174.96 746.81 175.24C746.42 175.52 746.23 175.89 746.23 176.34C746.23 176.7 746.35 177 746.58 177.23C746.81 177.46 747.11 177.65 747.46 177.79C747.81 177.93 748.3 178.09 748.93 178.26C749.72 178.47 750.36 178.68 750.85 178.89C751.34 179.1 751.77 179.41 752.12 179.82C752.47 180.23 752.66 180.77 752.67 181.44C752.67 182.04 752.5 182.58 752.17 183.06C751.84 183.54 751.37 183.92 750.76 184.19C750.15 184.46 749.46 184.6 748.67 184.6C747.83 184.6 747.08 184.46 746.41 184.17Z" fill="#AED8A4"/>
<path d="M757.22 183.9C756.39 183.43 755.73 182.77 755.26 181.91C754.79 181.05 754.55 180.05 754.55 178.92C754.55 177.79 754.79 176.81 755.28 175.95C755.77 175.09 756.43 174.43 757.27 173.97C758.11 173.51 759.05 173.28 760.09 173.28C761.13 173.28 762.07 173.51 762.91 173.97C763.75 174.43 764.41 175.09 764.9 175.94C765.39 176.79 765.63 177.79 765.63 178.92C765.63 180.05 765.38 181.05 764.88 181.91C764.38 182.77 763.7 183.43 762.85 183.9C762 184.37 761.05 184.6 760.01 184.6C758.97 184.6 758.05 184.37 757.22 183.9ZM761.85 182.54C762.42 182.23 762.89 181.77 763.24 181.16C763.59 180.55 763.77 179.8 763.77 178.92C763.77 178.04 763.6 177.29 763.25 176.68C762.9 176.07 762.45 175.61 761.89 175.31C761.33 175.01 760.72 174.86 760.07 174.86C759.42 174.86 758.79 175.01 758.24 175.31C757.69 175.61 757.24 176.07 756.91 176.68C756.58 177.29 756.41 178.04 756.41 178.92C756.41 179.8 756.57 180.57 756.9 181.18C757.23 181.79 757.66 182.25 758.21 182.55C758.76 182.85 759.36 183 760.01 183C760.66 183 761.28 182.85 761.85 182.54Z" fill="#AED8A4"/>
<path d="M246.63 640.12C247.69 640.66 248.5 641.43 249.06 642.43C249.62 643.43 249.91 644.61 249.91 645.96C249.91 647.31 249.63 648.49 249.06 649.48C248.5 650.47 247.68 651.23 246.63 651.76C245.57 652.29 244.32 652.55 242.88 652.55H238.76V639.31H242.88C244.32 639.31 245.57 639.58 246.63 640.12ZM246.8 649.78C247.7 648.87 248.15 647.6 248.15 645.97C248.15 644.34 247.7 643.04 246.79 642.11C245.88 641.19 244.58 640.72 242.89 640.72H240.5V651.13H242.89C244.6 651.13 245.9 650.68 246.8 649.77V649.78Z" fill="#424242"/>
<path d="M254.08 652.07C253.29 651.63 252.67 651 252.22 650.18C251.77 649.36 251.55 648.42 251.55 647.34C251.55 646.26 251.78 645.34 252.24 644.52C252.7 643.7 253.33 643.08 254.13 642.64C254.93 642.2 255.82 641.98 256.81 641.98C257.8 641.98 258.69 642.2 259.49 642.64C260.29 643.08 260.92 643.7 261.38 644.51C261.84 645.32 262.07 646.26 262.07 647.34C262.07 648.42 261.83 649.36 261.36 650.18C260.89 651 260.24 651.63 259.43 652.07C258.62 652.51 257.72 652.74 256.73 652.74C255.74 652.74 254.87 652.52 254.08 652.07ZM258.48 650.77C259.02 650.48 259.46 650.04 259.8 649.46C260.14 648.88 260.3 648.17 260.3 647.33C260.3 646.49 260.14 645.78 259.81 645.2C259.48 644.62 259.05 644.18 258.52 643.9C257.99 643.61 257.41 643.47 256.79 643.47C256.17 643.47 255.58 643.61 255.05 643.9C254.52 644.19 254.1 644.62 253.79 645.2C253.47 645.78 253.32 646.49 253.32 647.33C253.32 648.17 253.48 648.89 253.79 649.48C254.1 650.06 254.51 650.5 255.03 650.78C255.55 651.06 256.12 651.21 256.74 651.21C257.36 651.21 257.94 651.06 258.49 650.77H258.48Z" fill="#424242"/>
<path d="M267.64 642.57C268.32 642.18 269.1 641.98 269.98 641.98C270.92 641.98 271.76 642.2 272.51 642.65C273.26 643.09 273.85 643.72 274.28 644.52C274.71 645.32 274.93 646.26 274.93 647.32C274.93 648.38 274.72 649.31 274.28 650.13C273.85 650.95 273.26 651.59 272.5 652.05C271.74 652.51 270.91 652.73 269.98 652.73C269.05 652.73 268.29 652.53 267.61 652.14C266.93 651.75 266.42 651.25 266.08 650.64V652.56H264.35V638.5H266.08V644.09C266.43 643.47 266.95 642.96 267.64 642.57ZM272.67 645.26C272.35 644.68 271.93 644.23 271.39 643.93C270.85 643.63 270.26 643.47 269.61 643.47C268.96 643.47 268.39 643.63 267.85 643.94C267.31 644.25 266.88 644.7 266.56 645.29C266.24 645.88 266.08 646.56 266.08 647.33C266.08 648.1 266.24 648.8 266.56 649.39C266.88 649.98 267.31 650.43 267.85 650.74C268.39 651.05 268.97 651.21 269.61 651.21C270.25 651.21 270.85 651.05 271.39 650.74C271.93 650.43 272.35 649.98 272.67 649.39C272.99 648.8 273.14 648.11 273.14 647.31C273.14 646.51 272.98 645.84 272.67 645.26Z" fill="#424242"/>
<path d="M280.23 642.45C280.79 642.12 281.48 641.96 282.29 641.96V643.75H281.83C279.89 643.75 278.92 644.8 278.92 646.9V652.56H277.19V642.15H278.92V643.84C279.22 643.24 279.66 642.78 280.22 642.45H280.23Z" fill="#424242"/>
<path d="M293.73 648H285.41C285.47 649.03 285.82 649.83 286.46 650.4C287.1 650.98 287.87 651.26 288.79 651.26C289.54 651.26 290.16 651.09 290.66 650.74C291.16 650.39 291.51 649.93 291.71 649.34H293.57C293.29 650.34 292.73 651.15 291.9 651.78C291.07 652.41 290.02 652.72 288.78 652.72C287.79 652.72 286.91 652.5 286.13 652.05C285.35 651.6 284.74 650.98 284.3 650.16C283.85 649.34 283.63 648.4 283.63 647.32C283.63 646.24 283.84 645.3 284.28 644.49C284.71 643.68 285.32 643.06 286.09 642.62C286.87 642.18 287.76 641.96 288.78 641.96C289.8 641.96 290.64 642.18 291.4 642.61C292.16 643.04 292.75 643.63 293.16 644.39C293.57 645.14 293.78 646 293.78 646.94C293.78 647.27 293.76 647.62 293.72 647.99L293.73 648ZM291.56 644.89C291.27 644.41 290.87 644.05 290.37 643.81C289.87 643.56 289.32 643.44 288.71 643.44C287.84 643.44 287.09 643.72 286.48 644.28C285.87 644.84 285.52 645.61 285.43 646.6H292C292 645.94 291.86 645.37 291.56 644.9V644.89Z" fill="#424242"/>
<path d="M301.13 644.51C301.56 643.71 302.15 643.08 302.91 642.64C303.67 642.2 304.5 641.97 305.43 641.97C306.36 641.97 307.13 642.17 307.81 642.56C308.49 642.95 308.98 643.45 309.31 644.04V642.14H311.06V652.55H309.31V650.61C308.97 651.22 308.46 651.72 307.78 652.12C307.1 652.52 306.32 652.72 305.41 652.72C304.5 652.72 303.65 652.49 302.9 652.04C302.15 651.59 301.56 650.94 301.13 650.12C300.7 649.3 300.49 648.36 300.49 647.31C300.49 646.26 300.7 645.31 301.13 644.51ZM308.83 645.28C308.51 644.7 308.09 644.25 307.55 643.94C307.01 643.63 306.42 643.47 305.77 643.47C305.12 643.47 304.54 643.62 304 643.93C303.47 644.23 303.04 644.68 302.73 645.26C302.42 645.84 302.26 646.53 302.26 647.31C302.26 648.09 302.42 648.8 302.73 649.39C303.05 649.98 303.47 650.43 304 650.74C304.53 651.05 305.12 651.21 305.77 651.21C306.42 651.21 307.01 651.05 307.55 650.74C308.09 650.43 308.51 649.98 308.83 649.39C309.15 648.8 309.3 648.11 309.3 647.33C309.3 646.55 309.14 645.86 308.83 645.28Z" fill="#424242"/>
<path d="M315.87 652.07C315.08 651.63 314.46 651 314.01 650.18C313.56 649.36 313.34 648.42 313.34 647.34C313.34 646.26 313.57 645.34 314.03 644.52C314.49 643.7 315.12 643.08 315.92 642.64C316.72 642.2 317.61 641.98 318.6 641.98C319.59 641.98 320.48 642.2 321.28 642.64C322.08 643.08 322.71 643.7 323.17 644.51C323.63 645.32 323.86 646.26 323.86 647.34C323.86 648.42 323.62 649.36 323.15 650.18C322.68 651 322.03 651.63 321.22 652.07C320.41 652.51 319.51 652.74 318.52 652.74C317.53 652.74 316.66 652.52 315.87 652.07ZM320.27 650.77C320.81 650.48 321.25 650.04 321.59 649.46C321.93 648.88 322.09 648.17 322.09 647.33C322.09 646.49 321.93 645.78 321.6 645.2C321.27 644.62 320.84 644.18 320.31 643.9C319.78 643.61 319.2 643.47 318.58 643.47C317.96 643.47 317.37 643.61 316.84 643.9C316.31 644.19 315.89 644.62 315.58 645.2C315.26 645.78 315.11 646.49 315.11 647.33C315.11 648.17 315.27 648.89 315.58 649.48C315.89 650.06 316.3 650.5 316.82 650.78C317.34 651.06 317.91 651.21 318.53 651.21C319.15 651.21 319.73 651.06 320.28 650.77H320.27Z" fill="#424242"/>
<path d="M345.9 642.46C346.53 642.8 347.03 643.3 347.4 643.97C347.77 644.64 347.95 645.46 347.95 646.42V652.56H346.24V646.67C346.24 645.63 345.98 644.84 345.47 644.29C344.96 643.74 344.26 643.46 343.39 643.46C342.52 643.46 341.78 643.75 341.24 644.32C340.71 644.9 340.44 645.73 340.44 646.82V652.56H338.73V646.67C338.73 645.63 338.47 644.84 337.96 644.29C337.45 643.74 336.75 643.46 335.88 643.46C335.01 643.46 334.26 643.75 333.73 644.32C333.2 644.9 332.93 645.73 332.93 646.82V652.56H331.2V642.15H332.93V643.65C333.27 643.11 333.73 642.69 334.31 642.4C334.89 642.11 335.52 641.96 336.22 641.96C337.09 641.96 337.87 642.16 338.54 642.55C339.21 642.94 339.71 643.52 340.04 644.28C340.33 643.55 340.81 642.98 341.49 642.57C342.16 642.16 342.91 641.96 343.73 641.96C344.55 641.96 345.26 642.13 345.9 642.46Z" fill="#424242"/>
<path d="M360.23 648H351.91C351.97 649.03 352.32 649.83 352.96 650.4C353.6 650.98 354.37 651.26 355.29 651.26C356.04 651.26 356.66 651.09 357.16 650.74C357.66 650.39 358.01 649.93 358.21 649.34H360.07C359.79 650.34 359.23 651.15 358.4 651.78C357.57 652.41 356.52 652.72 355.28 652.72C354.29 652.72 353.41 652.5 352.63 652.05C351.85 651.6 351.24 650.98 350.8 650.16C350.35 649.34 350.13 648.4 350.13 647.32C350.13 646.24 350.34 645.3 350.78 644.49C351.21 643.68 351.82 643.06 352.59 642.62C353.37 642.18 354.26 641.96 355.28 641.96C356.3 641.96 357.14 642.18 357.9 642.61C358.66 643.04 359.25 643.63 359.66 644.39C360.07 645.14 360.28 646 360.28 646.94C360.28 647.27 360.26 647.62 360.22 647.99L360.23 648ZM358.06 644.89C357.77 644.41 357.37 644.05 356.87 643.81C356.37 643.56 355.82 643.44 355.21 643.44C354.34 643.44 353.59 643.72 352.98 644.28C352.37 644.84 352.02 645.61 351.93 646.6H358.5C358.5 645.94 358.36 645.37 358.06 644.9V644.89Z" fill="#424242"/>
<path d="M362.62 640.11C362.39 639.88 362.28 639.6 362.28 639.27C362.28 638.94 362.39 638.66 362.62 638.43C362.85 638.2 363.13 638.09 363.46 638.09C363.79 638.09 364.05 638.2 364.27 638.43C364.49 638.66 364.6 638.94 364.6 639.27C364.6 639.6 364.49 639.88 364.27 640.11C364.05 640.34 363.78 640.45 363.46 640.45C363.14 640.45 362.85 640.34 362.62 640.11ZM364.29 642.15V652.56H362.56V642.15H364.29Z" fill="#424242"/>
<path d="M369.13 652.07C368.34 651.63 367.72 651 367.27 650.18C366.82 649.36 366.6 648.42 366.6 647.34C366.6 646.26 366.83 645.34 367.29 644.52C367.75 643.7 368.38 643.08 369.18 642.64C369.98 642.2 370.87 641.98 371.86 641.98C372.85 641.98 373.74 642.2 374.54 642.64C375.34 643.08 375.97 643.7 376.43 644.51C376.89 645.32 377.12 646.26 377.12 647.34C377.12 648.42 376.88 649.36 376.41 650.18C375.93 651 375.29 651.63 374.48 652.07C373.67 652.51 372.77 652.74 371.78 652.74C370.79 652.74 369.92 652.52 369.13 652.07ZM373.53 650.77C374.07 650.48 374.51 650.04 374.85 649.46C375.19 648.88 375.35 648.17 375.35 647.33C375.35 646.49 375.18 645.78 374.86 645.2C374.53 644.62 374.1 644.18 373.57 643.9C373.04 643.61 372.46 643.47 371.84 643.47C371.22 643.47 370.63 643.61 370.1 643.9C369.57 644.19 369.15 644.62 368.84 645.2C368.52 645.78 368.37 646.49 368.37 647.33C368.37 648.17 368.52 648.89 368.83 649.48C369.14 650.06 369.55 650.5 370.07 650.78C370.59 651.06 371.16 651.21 371.78 651.21C372.4 651.21 372.98 651.06 373.53 650.77Z" fill="#424242"/>
<path d="M803.95 640.12C805.01 640.66 805.82 641.43 806.38 642.43C806.94 643.43 807.23 644.61 807.23 645.96C807.23 647.31 806.95 648.49 806.38 649.48C805.81 650.47 805 651.23 803.95 651.76C802.89 652.29 801.64 652.55 800.2 652.55H796.08V639.31H800.2C801.64 639.31 802.89 639.58 803.95 640.12ZM804.11 649.78C805.01 648.87 805.46 647.6 805.46 645.97C805.46 644.34 805.01 643.04 804.1 642.11C803.19 641.19 801.89 640.72 800.2 640.72H797.81V651.13H800.2C801.91 651.13 803.21 650.68 804.11 649.77V649.78Z" fill="#424242"/>
<path d="M811.39 652.07C810.6 651.63 809.98 651 809.53 650.18C809.08 649.36 808.86 648.42 808.86 647.34C808.86 646.26 809.09 645.34 809.55 644.52C810.01 643.7 810.64 643.08 811.44 642.64C812.24 642.2 813.13 641.98 814.12 641.98C815.11 641.98 816 642.2 816.8 642.64C817.6 643.08 818.23 643.7 818.69 644.51C819.15 645.32 819.38 646.26 819.38 647.34C819.38 648.42 819.14 649.36 818.67 650.18C818.19 651 817.55 651.63 816.74 652.07C815.93 652.51 815.03 652.74 814.04 652.74C813.05 652.74 812.18 652.52 811.39 652.07ZM815.79 650.77C816.33 650.48 816.77 650.04 817.11 649.46C817.45 648.88 817.61 648.17 817.61 647.33C817.61 646.49 817.44 645.78 817.12 645.2C816.79 644.62 816.36 644.18 815.83 643.9C815.3 643.62 814.72 643.47 814.1 643.47C813.48 643.47 812.89 643.61 812.36 643.9C811.83 644.19 811.41 644.62 811.1 645.2C810.78 645.78 810.63 646.49 810.63 647.33C810.63 648.17 810.79 648.89 811.1 649.48C811.41 650.06 811.82 650.5 812.34 650.78C812.86 651.06 813.43 651.21 814.05 651.21C814.67 651.21 815.25 651.06 815.8 650.77H815.79Z" fill="#424242"/>
<path d="M824.95 642.57C825.63 642.18 826.41 641.98 827.29 641.98C828.23 641.98 829.07 642.2 829.82 642.65C830.57 643.09 831.16 643.72 831.59 644.52C832.02 645.32 832.24 646.26 832.24 647.32C832.24 648.38 832.02 649.31 831.59 650.13C831.16 650.95 830.57 651.59 829.81 652.05C829.05 652.51 828.22 652.73 827.29 652.73C826.36 652.73 825.6 652.53 824.92 652.14C824.24 651.75 823.73 651.25 823.39 650.64V652.56H821.66V638.5H823.39V644.09C823.74 643.47 824.26 642.96 824.95 642.57ZM829.99 645.26C829.67 644.68 829.25 644.23 828.71 643.93C828.17 643.63 827.58 643.47 826.93 643.47C826.28 643.47 825.71 643.63 825.17 643.94C824.63 644.25 824.2 644.7 823.88 645.29C823.56 645.88 823.4 646.56 823.4 647.33C823.4 648.1 823.56 648.8 823.88 649.39C824.2 649.98 824.63 650.43 825.17 650.74C825.71 651.05 826.29 651.21 826.93 651.21C827.57 651.21 828.17 651.05 828.71 650.74C829.25 650.43 829.67 649.98 829.99 649.39C830.31 648.8 830.46 648.11 830.46 647.31C830.46 646.51 830.3 645.84 829.99 645.26Z" fill="#424242"/>
<path d="M837.54 642.45C838.1 642.12 838.79 641.96 839.6 641.96V643.75H839.14C837.2 643.75 836.23 644.8 836.23 646.9V652.56H834.5V642.15H836.23V643.84C836.53 643.24 836.97 642.78 837.53 642.45H837.54Z" fill="#424242"/>
<path d="M851.04 648H842.72C842.78 649.03 843.14 649.83 843.77 650.4C844.4 650.97 845.19 651.26 846.1 651.26C846.85 651.26 847.47 651.09 847.97 650.74C848.47 650.39 848.82 649.93 849.02 649.34H850.88C850.6 650.34 850.04 651.15 849.21 651.78C848.38 652.41 847.33 652.72 846.09 652.72C845.1 652.72 844.22 652.5 843.44 652.05C842.66 651.6 842.05 650.98 841.61 650.16C841.17 649.34 840.94 648.4 840.94 647.32C840.94 646.24 841.15 645.3 841.59 644.49C842.03 643.68 842.63 643.06 843.4 642.62C844.18 642.18 845.07 641.96 846.09 641.96C847.11 641.96 847.95 642.18 848.71 642.61C849.47 643.04 850.06 643.63 850.47 644.39C850.88 645.14 851.09 646 851.09 646.94C851.09 647.27 851.07 647.62 851.03 647.99L851.04 648ZM848.87 644.89C848.58 644.41 848.18 644.05 847.68 643.81C847.18 643.56 846.63 643.44 846.02 643.44C845.15 643.44 844.4 643.72 843.79 644.28C843.18 644.84 842.82 645.61 842.74 646.6H849.31C849.31 645.94 849.16 645.37 848.87 644.9V644.89Z" fill="#424242"/>
<path d="M860.34 652.07C859.55 651.63 858.93 651 858.48 650.18C858.03 649.36 857.81 648.42 857.81 647.34C857.81 646.26 858.04 645.34 858.5 644.52C858.96 643.7 859.59 643.08 860.39 642.64C861.19 642.2 862.08 641.98 863.07 641.98C864.06 641.98 864.95 642.2 865.75 642.64C866.55 643.08 867.18 643.7 867.64 644.51C868.1 645.32 868.33 646.26 868.33 647.34C868.33 648.42 868.09 649.36 867.62 650.18C867.14 651 866.5 651.63 865.69 652.07C864.88 652.51 863.98 652.74 862.99 652.74C862 652.74 861.13 652.52 860.34 652.07ZM864.74 650.77C865.28 650.48 865.72 650.04 866.06 649.46C866.4 648.88 866.56 648.17 866.56 647.33C866.56 646.49 866.39 645.78 866.07 645.2C865.74 644.62 865.31 644.18 864.78 643.9C864.25 643.62 863.67 643.47 863.05 643.47C862.43 643.47 861.84 643.61 861.31 643.9C860.78 644.19 860.36 644.62 860.05 645.2C859.73 645.78 859.58 646.49 859.58 647.33C859.58 648.17 859.74 648.89 860.05 649.48C860.36 650.06 860.77 650.5 861.29 650.78C861.81 651.06 862.38 651.21 863 651.21C863.62 651.21 864.2 651.06 864.75 650.77H864.74Z" fill="#424242"/>
<path d="M872.15 652.32C871.52 652.05 871.02 651.67 870.65 651.18C870.28 650.69 870.08 650.13 870.04 649.5H871.83C871.88 650.02 872.12 650.44 872.56 650.77C873 651.1 873.57 651.26 874.28 651.26C874.94 651.26 875.46 651.11 875.84 650.82C876.22 650.53 876.41 650.16 876.41 649.72C876.41 649.28 876.21 648.93 875.8 648.7C875.39 648.48 874.77 648.26 873.92 648.04C873.15 647.84 872.52 647.63 872.03 647.42C871.54 647.21 871.12 646.9 870.78 646.49C870.43 646.08 870.26 645.54 870.26 644.87C870.26 644.34 870.42 643.85 870.74 643.41C871.06 642.97 871.51 642.62 872.09 642.36C872.67 642.1 873.34 641.97 874.09 641.97C875.24 641.97 876.17 642.26 876.88 642.84C877.59 643.42 877.97 644.22 878.02 645.23H876.29C876.25 644.69 876.03 644.25 875.63 643.92C875.23 643.59 874.7 643.43 874.02 643.43C873.4 643.43 872.9 643.56 872.54 643.83C872.17 644.1 871.99 644.44 871.99 644.87C871.99 645.21 872.1 645.49 872.32 645.72C872.54 645.95 872.82 646.12 873.16 646.25C873.5 646.38 873.96 646.53 874.56 646.7C875.31 646.9 875.91 647.1 876.38 647.3C876.85 647.5 877.25 647.79 877.59 648.18C877.92 648.57 878.1 649.09 878.11 649.72C878.11 650.29 877.95 650.8 877.63 651.26C877.31 651.72 876.87 652.07 876.29 652.33C875.71 652.59 875.05 652.72 874.3 652.72C873.5 652.72 872.79 652.58 872.15 652.31V652.32Z" fill="#424242"/>
<path d="M885.6 644.51C886.03 643.71 886.62 643.08 887.38 642.64C888.14 642.2 888.98 641.97 889.92 641.97C890.73 641.97 891.48 642.16 892.18 642.53C892.88 642.9 893.41 643.39 893.78 644V638.49H895.53V652.55H893.78V650.59C893.44 651.21 892.93 651.72 892.26 652.12C891.59 652.52 890.8 652.72 889.9 652.72C889 652.72 888.14 652.49 887.38 652.04C886.62 651.59 886.03 650.94 885.6 650.12C885.17 649.3 884.95 648.36 884.95 647.31C884.95 646.26 885.16 645.31 885.6 644.51ZM893.29 645.28C892.97 644.7 892.55 644.25 892.01 643.94C891.47 643.63 890.88 643.47 890.23 643.47C889.58 643.47 889 643.62 888.46 643.93C887.92 644.24 887.5 644.68 887.19 645.26C886.88 645.84 886.72 646.53 886.72 647.31C886.72 648.09 886.88 648.8 887.19 649.39C887.51 649.98 887.93 650.43 888.46 650.74C888.99 651.05 889.58 651.21 890.23 651.21C890.88 651.21 891.47 651.05 892.01 650.74C892.55 650.43 892.97 649.98 893.29 649.39C893.61 648.8 893.76 648.11 893.76 647.33C893.76 646.55 893.6 645.86 893.29 645.28Z" fill="#424242"/>
<path d="M900.33 652.07C899.54 651.63 898.92 651 898.47 650.18C898.02 649.36 897.8 648.42 897.8 647.34C897.8 646.26 898.03 645.34 898.49 644.52C898.95 643.7 899.58 643.08 900.38 642.64C901.18 642.2 902.07 641.98 903.06 641.98C904.05 641.98 904.94 642.2 905.74 642.64C906.54 643.08 907.17 643.7 907.63 644.51C908.09 645.32 908.32 646.26 908.32 647.34C908.32 648.42 908.08 649.36 907.61 650.18C907.13 651 906.49 651.63 905.68 652.07C904.87 652.51 903.97 652.74 902.98 652.74C901.99 652.74 901.12 652.52 900.33 652.07ZM904.73 650.77C905.27 650.48 905.71 650.04 906.05 649.46C906.39 648.88 906.55 648.17 906.55 647.33C906.55 646.49 906.38 645.78 906.06 645.2C905.73 644.62 905.3 644.18 904.77 643.9C904.24 643.62 903.66 643.47 903.04 643.47C902.42 643.47 901.83 643.61 901.3 643.9C900.77 644.19 900.35 644.62 900.04 645.2C899.72 645.78 899.57 646.49 899.57 647.33C899.57 648.17 899.73 648.89 900.04 649.48C900.35 650.06 900.76 650.5 901.28 650.78C901.8 651.06 902.37 651.21 902.99 651.21C903.61 651.21 904.19 651.06 904.74 650.77H904.73Z" fill="#424242"/>
<path d="M910.66 640.11C910.43 639.88 910.32 639.6 910.32 639.27C910.32 638.94 910.43 638.66 910.66 638.43C910.89 638.2 911.17 638.09 911.5 638.09C911.83 638.09 912.08 638.2 912.31 638.43C912.53 638.66 912.64 638.94 912.64 639.27C912.64 639.6 912.53 639.88 912.31 640.11C912.09 640.34 911.82 640.45 911.5 640.45C911.18 640.45 910.89 640.34 910.66 640.11ZM912.33 642.15V652.56H910.6V642.15H912.33Z" fill="#424242"/>
<path d="M916.82 652.32C916.19 652.05 915.69 651.67 915.32 651.18C914.95 650.69 914.75 650.13 914.71 649.5H916.5C916.55 650.02 916.79 650.44 917.23 650.77C917.67 651.1 918.24 651.26 918.95 651.26C919.61 651.26 920.13 651.11 920.51 650.82C920.89 650.53 921.08 650.16 921.08 649.72C921.08 649.28 920.88 648.93 920.47 648.7C920.06 648.48 919.44 648.26 918.59 648.04C917.82 647.84 917.19 647.63 916.7 647.42C916.21 647.21 915.79 646.9 915.45 646.49C915.1 646.08 914.93 645.54 914.93 644.87C914.93 644.34 915.09 643.85 915.41 643.41C915.73 642.97 916.18 642.62 916.76 642.36C917.34 642.1 918.01 641.97 918.76 641.97C919.91 641.97 920.84 642.26 921.55 642.84C922.26 643.42 922.64 644.22 922.69 645.23H920.96C920.92 644.69 920.7 644.25 920.3 643.92C919.9 643.59 919.37 643.43 918.69 643.43C918.07 643.43 917.57 643.56 917.21 643.83C916.84 644.1 916.66 644.44 916.66 644.87C916.66 645.21 916.77 645.49 916.99 645.72C917.21 645.95 917.49 646.12 917.83 646.25C918.17 646.38 918.63 646.53 919.23 646.7C919.98 646.9 920.58 647.1 921.05 647.3C921.52 647.5 921.92 647.79 922.26 648.18C922.59 648.57 922.77 649.09 922.78 649.72C922.78 650.29 922.62 650.8 922.3 651.26C921.98 651.72 921.54 652.07 920.96 652.33C920.38 652.59 919.72 652.72 918.97 652.72C918.17 652.72 917.46 652.58 916.82 652.31V652.32Z" fill="#424242"/>
<path d="M932 638.5V652.56H930.27V638.5H932Z" fill="#424242"/>
<path d="M934.94 644.51C935.37 643.71 935.96 643.08 936.72 642.64C937.48 642.2 938.31 641.97 939.24 641.97C940.17 641.97 940.94 642.17 941.62 642.56C942.29 642.95 942.79 643.45 943.12 644.04V642.14H944.87V652.55H943.12V650.61C942.78 651.22 942.27 651.72 941.59 652.12C940.91 652.52 940.12 652.72 939.22 652.72C938.32 652.72 937.46 652.49 936.71 652.04C935.96 651.58 935.37 650.94 934.94 650.12C934.51 649.3 934.29 648.36 934.29 647.31C934.29 646.26 934.5 645.31 934.94 644.51ZM942.64 645.28C942.32 644.7 941.9 644.25 941.36 643.94C940.82 643.63 940.23 643.47 939.58 643.47C938.93 643.47 938.35 643.62 937.81 643.93C937.27 644.24 936.85 644.68 936.54 645.26C936.23 645.84 936.07 646.53 936.07 647.31C936.07 648.09 936.23 648.8 936.54 649.39C936.86 649.98 937.28 650.43 937.81 650.74C938.34 651.05 938.93 651.21 939.58 651.21C940.23 651.21 940.82 651.05 941.36 650.74C941.9 650.43 942.32 649.98 942.64 649.39C942.96 648.8 943.11 648.11 943.11 647.33C943.11 646.55 942.95 645.86 942.64 645.28Z" fill="#424242"/>
<path d="M947.78 644.51C948.21 643.71 948.8 643.08 949.56 642.64C950.32 642.2 951.16 641.97 952.1 641.97C952.91 641.97 953.66 642.16 954.36 642.53C955.06 642.9 955.59 643.39 955.96 644V638.49H957.71V652.55H955.96V650.59C955.62 651.21 955.11 651.72 954.44 652.12C953.77 652.52 952.98 652.72 952.08 652.72C951.18 652.72 950.32 652.49 949.56 652.04C948.8 651.59 948.21 650.94 947.78 650.12C947.35 649.3 947.13 648.36 947.13 647.31C947.13 646.26 947.34 645.31 947.78 644.51ZM955.48 645.28C955.16 644.7 954.74 644.25 954.2 643.94C953.66 643.63 953.07 643.47 952.42 643.47C951.77 643.47 951.19 643.62 950.65 643.93C950.11 644.24 949.69 644.68 949.38 645.26C949.07 645.84 948.91 646.53 948.91 647.31C948.91 648.09 949.07 648.8 949.38 649.39C949.7 649.98 950.12 650.43 950.65 650.74C951.18 651.05 951.77 651.21 952.42 651.21C953.07 651.21 953.66 651.05 954.2 650.74C954.74 650.43 955.16 649.98 955.48 649.39C955.8 648.8 955.95 648.11 955.95 647.33C955.95 646.55 955.79 645.86 955.48 645.28Z" fill="#424242"/>
<path d="M962.52 652.07C961.73 651.63 961.11 651 960.66 650.18C960.21 649.36 959.99 648.42 959.99 647.34C959.99 646.26 960.22 645.34 960.68 644.52C961.14 643.7 961.77 643.08 962.57 642.64C963.37 642.2 964.26 641.98 965.25 641.98C966.24 641.98 967.13 642.2 967.93 642.64C968.73 643.08 969.36 643.7 969.82 644.51C970.28 645.32 970.51 646.26 970.51 647.34C970.51 648.42 970.27 649.36 969.8 650.18C969.32 651 968.68 651.63 967.87 652.07C967.06 652.51 966.16 652.74 965.17 652.74C964.18 652.74 963.31 652.52 962.52 652.07ZM966.92 650.77C967.46 650.48 967.9 650.04 968.24 649.46C968.58 648.88 968.74 648.17 968.74 647.33C968.74 646.49 968.57 645.78 968.25 645.2C967.92 644.62 967.49 644.18 966.96 643.9C966.43 643.62 965.85 643.47 965.23 643.47C964.61 643.47 964.02 643.61 963.49 643.9C962.96 644.19 962.54 644.62 962.23 645.2C961.91 645.78 961.76 646.49 961.76 647.33C961.76 648.17 961.92 648.89 962.23 649.48C962.54 650.06 962.95 650.5 963.47 650.78C963.99 651.06 964.56 651.21 965.18 651.21C965.8 651.21 966.38 651.06 966.93 650.77H966.92Z" fill="#424242"/>
<path d="M974.33 652.32C973.7 652.05 973.2 651.67 972.83 651.18C972.46 650.69 972.26 650.13 972.22 649.5H974.01C974.06 650.02 974.3 650.44 974.74 650.77C975.18 651.1 975.75 651.26 976.46 651.26C977.12 651.26 977.64 651.11 978.02 650.82C978.4 650.53 978.59 650.16 978.59 649.72C978.59 649.28 978.39 648.93 977.98 648.7C977.57 648.48 976.95 648.26 976.1 648.04C975.33 647.84 974.7 647.63 974.21 647.42C973.72 647.21 973.3 646.9 972.96 646.49C972.61 646.08 972.44 645.54 972.44 644.87C972.44 644.34 972.6 643.85 972.92 643.41C973.24 642.97 973.69 642.62 974.27 642.36C974.85 642.1 975.52 641.97 976.27 641.97C977.42 641.97 978.35 642.26 979.06 642.84C979.77 643.42 980.15 644.22 980.2 645.23H978.47C978.43 644.69 978.21 644.25 977.81 643.92C977.41 643.59 976.88 643.43 976.2 643.43C975.58 643.43 975.08 643.56 974.72 643.83C974.35 644.1 974.17 644.44 974.17 644.87C974.17 645.21 974.28 645.49 974.5 645.72C974.72 645.95 975 646.12 975.34 646.25C975.68 646.38 976.14 646.53 976.74 646.7C977.49 646.9 978.09 647.1 978.56 647.3C979.03 647.5 979.43 647.79 979.77 648.18C980.1 648.57 980.28 649.09 980.29 649.72C980.29 650.29 980.13 650.8 979.81 651.26C979.49 651.72 979.05 652.07 978.47 652.33C977.89 652.59 977.23 652.72 976.48 652.72C975.68 652.72 974.97 652.58 974.33 652.31V652.32Z" fill="#424242"/>
<path d="M991.04 642.58C991.72 642.18 992.51 641.98 993.41 641.98C994.31 641.98 995.17 642.2 995.93 642.65C996.69 643.1 997.28 643.72 997.71 644.52C998.14 645.32 998.36 646.26 998.36 647.32C998.36 648.38 998.14 649.31 997.71 650.13C997.28 650.95 996.69 651.59 995.93 652.05C995.17 652.51 994.34 652.73 993.41 652.73C992.48 652.73 991.74 652.53 991.06 652.13C990.38 651.73 989.87 651.23 989.51 650.64V657.5H987.78V642.15H989.51V644.07C989.85 643.48 990.36 642.98 991.04 642.58ZM996.1 645.26C995.78 644.68 995.36 644.23 994.82 643.93C994.28 643.63 993.69 643.47 993.04 643.47C992.39 643.47 991.82 643.63 991.28 643.94C990.74 644.25 990.31 644.7 989.99 645.29C989.67 645.88 989.51 646.56 989.51 647.33C989.51 648.1 989.67 648.8 989.99 649.39C990.31 649.98 990.74 650.43 991.28 650.74C991.82 651.05 992.4 651.21 993.04 651.21C993.68 651.21 994.28 651.05 994.82 650.74C995.36 650.43 995.78 649.98 996.1 649.39C996.42 648.8 996.57 648.11 996.57 647.31C996.57 646.51 996.41 645.84 996.1 645.26Z" fill="#424242"/>
<path d="M1000.62 644.51C1001.05 643.71 1001.64 643.08 1002.4 642.64C1003.16 642.2 1003.99 641.97 1004.92 641.97C1005.85 641.97 1006.62 642.17 1007.3 642.56C1007.97 642.95 1008.47 643.45 1008.8 644.04V642.14H1010.55V652.55H1008.8V650.61C1008.46 651.22 1007.95 651.72 1007.27 652.12C1006.59 652.52 1005.8 652.72 1004.9 652.72C1004 652.72 1003.14 652.49 1002.39 652.04C1001.64 651.58 1001.05 650.94 1000.62 650.12C1000.19 649.3 999.97 648.36 999.97 647.31C999.97 646.26 1000.18 645.31 1000.62 644.51ZM1008.32 645.28C1008 644.7 1007.58 644.25 1007.04 643.94C1006.5 643.63 1005.91 643.47 1005.26 643.47C1004.61 643.47 1004.03 643.62 1003.49 643.93C1002.95 644.24 1002.53 644.68 1002.22 645.26C1001.91 645.84 1001.75 646.53 1001.75 647.31C1001.75 648.09 1001.91 648.8 1002.22 649.39C1002.54 649.98 1002.96 650.43 1003.49 650.74C1004.02 651.05 1004.61 651.21 1005.26 651.21C1005.91 651.21 1006.5 651.05 1007.04 650.74C1007.58 650.43 1008 649.98 1008.32 649.39C1008.64 648.8 1008.79 648.11 1008.79 647.33C1008.79 646.55 1008.63 645.86 1008.32 645.28Z" fill="#424242"/>
<path d="M1016.5 642.45C1017.06 642.12 1017.75 641.96 1018.56 641.96V643.75H1018.1C1016.16 643.75 1015.19 644.8 1015.19 646.9V652.56H1013.46V642.15H1015.19V643.84C1015.49 643.24 1015.93 642.78 1016.49 642.45H1016.5Z" fill="#424242"/>
<path d="M1020.55 644.51C1020.98 643.71 1021.57 643.08 1022.33 642.64C1023.09 642.2 1023.92 641.97 1024.85 641.97C1025.78 641.97 1026.55 642.17 1027.23 642.56C1027.9 642.95 1028.4 643.45 1028.73 644.04V642.14H1030.48V652.55H1028.73V650.61C1028.39 651.22 1027.88 651.72 1027.2 652.12C1026.52 652.52 1025.73 652.72 1024.83 652.72C1023.93 652.72 1023.07 652.49 1022.32 652.04C1021.57 651.58 1020.98 650.94 1020.55 650.12C1020.12 649.3 1019.9 648.36 1019.9 647.31C1019.9 646.26 1020.11 645.31 1020.55 644.51ZM1028.25 645.28C1027.93 644.7 1027.51 644.25 1026.97 643.94C1026.43 643.63 1025.84 643.47 1025.19 643.47C1024.54 643.47 1023.96 643.62 1023.42 643.93C1022.88 644.24 1022.46 644.68 1022.15 645.26C1021.84 645.84 1021.68 646.53 1021.68 647.31C1021.68 648.09 1021.84 648.8 1022.15 649.39C1022.47 649.98 1022.89 650.43 1023.42 650.74C1023.95 651.05 1024.54 651.21 1025.19 651.21C1025.84 651.21 1026.43 651.05 1026.97 650.74C1027.51 650.43 1027.93 649.98 1028.25 649.39C1028.57 648.8 1028.72 648.11 1028.72 647.33C1028.72 646.55 1028.56 645.86 1028.25 645.28Z" fill="#424242"/>
<path d="M858.99 666.37H856.8V675.36H855.07V666.37H853.72V664.95H855.07V664.21C855.07 663.04 855.37 662.19 855.97 661.65C856.57 661.11 857.54 660.84 858.87 660.84V662.28C858.11 662.28 857.58 662.43 857.26 662.73C856.95 663.03 856.79 663.52 856.79 664.2V664.94H858.98V666.36L858.99 666.37Z" fill="#424242"/>
<path d="M861 667.31C861.43 666.51 862.02 665.88 862.78 665.44C863.54 665 864.37 664.77 865.3 664.77C866.23 664.77 867 664.97 867.68 665.36C868.35 665.75 868.85 666.25 869.18 666.84V664.94H870.93V675.35H869.18V673.41C868.84 674.02 868.33 674.52 867.65 674.92C866.97 675.32 866.18 675.52 865.28 675.52C864.38 675.52 863.52 675.29 862.77 674.84C862.02 674.38 861.43 673.74 861 672.92C860.57 672.1 860.35 671.16 860.35 670.11C860.35 669.06 860.56 668.11 861 667.31ZM868.7 668.08C868.38 667.5 867.96 667.05 867.42 666.74C866.88 666.43 866.29 666.27 865.64 666.27C864.99 666.27 864.41 666.42 863.87 666.73C863.33 667.04 862.91 667.48 862.6 668.06C862.29 668.64 862.13 669.33 862.13 670.11C862.13 670.89 862.29 671.6 862.6 672.19C862.92 672.78 863.34 673.23 863.87 673.54C864.4 673.85 864.99 674.01 865.64 674.01C866.29 674.01 866.88 673.85 867.42 673.54C867.96 673.23 868.38 672.78 868.7 672.19C869.02 671.6 869.17 670.91 869.17 670.13C869.17 669.35 869.01 668.66 868.7 668.08Z" fill="#424242"/>
<path d="M875.14 673.93H880.25V675.35H873.16V673.93L878.21 666.35H873.19V664.94H880.2V666.35L875.13 673.93H875.14Z" fill="#424242"/>
<path d="M891.93 670.8H883.61C883.67 671.83 884.03 672.63 884.66 673.2C885.29 673.77 886.08 674.06 886.99 674.06C887.74 674.06 888.36 673.89 888.86 673.54C889.36 673.19 889.71 672.73 889.91 672.14H891.77C891.49 673.14 890.93 673.95 890.1 674.58C889.27 675.21 888.22 675.52 886.98 675.52C885.99 675.52 885.11 675.3 884.33 674.85C883.55 674.4 882.94 673.78 882.5 672.96C882.06 672.14 881.83 671.2 881.83 670.12C881.83 669.04 882.04 668.1 882.48 667.29C882.92 666.48 883.52 665.86 884.29 665.42C885.07 664.98 885.96 664.76 886.98 664.76C888 664.76 888.84 664.98 889.6 665.41C890.36 665.84 890.95 666.43 891.36 667.19C891.77 667.94 891.98 668.8 891.98 669.74C891.98 670.07 891.96 670.42 891.92 670.79L891.93 670.8ZM889.77 667.69C889.48 667.21 889.08 666.85 888.58 666.61C888.08 666.36 887.53 666.24 886.92 666.24C886.05 666.24 885.3 666.52 884.69 667.08C884.08 667.64 883.72 668.41 883.64 669.4H890.21C890.21 668.74 890.06 668.17 889.77 667.7V667.69Z" fill="#424242"/>
<path d="M897.3 665.25C897.86 664.92 898.55 664.76 899.36 664.76V666.55H898.9C896.96 666.55 895.99 667.6 895.99 669.7V675.36H894.26V664.95H895.99V666.64C896.29 666.04 896.73 665.58 897.29 665.25H897.3Z" fill="#424242"/>
<path d="M906.43 667.31C906.86 666.51 907.45 665.88 908.21 665.44C908.97 665 909.8 664.77 910.73 664.77C911.66 664.77 912.43 664.97 913.11 665.36C913.78 665.75 914.28 666.25 914.61 666.84V664.94H916.36V675.35H914.61V673.41C914.27 674.02 913.76 674.52 913.08 674.92C912.4 675.32 911.61 675.52 910.71 675.52C909.81 675.52 908.95 675.29 908.2 674.84C907.45 674.38 906.86 673.74 906.43 672.92C906 672.1 905.78 671.16 905.78 670.11C905.78 669.06 905.99 668.11 906.43 667.31ZM914.13 668.08C913.81 667.5 913.39 667.05 912.85 666.74C912.31 666.43 911.72 666.27 911.07 666.27C910.42 666.27 909.84 666.42 909.3 666.73C908.76 667.04 908.34 667.48 908.03 668.06C907.72 668.64 907.56 669.33 907.56 670.11C907.56 670.89 907.72 671.6 908.03 672.19C908.35 672.78 908.77 673.23 909.3 673.54C909.83 673.85 910.42 674.01 911.07 674.01C911.72 674.01 912.31 673.85 912.85 673.54C913.39 673.23 913.81 672.78 914.13 672.19C914.45 671.6 914.6 670.91 914.6 670.13C914.6 669.35 914.44 668.66 914.13 668.08Z" fill="#424242"/>
<path d="M920.81 675.12C920.18 674.85 919.68 674.47 919.31 673.98C918.94 673.49 918.74 672.93 918.7 672.3H920.49C920.54 672.82 920.78 673.24 921.22 673.57C921.66 673.9 922.23 674.06 922.94 674.06C923.6 674.06 924.12 673.91 924.5 673.62C924.88 673.33 925.07 672.96 925.07 672.52C925.07 672.08 924.87 671.73 924.46 671.5C924.05 671.28 923.43 671.06 922.58 670.84C921.81 670.64 921.18 670.43 920.69 670.22C920.2 670.01 919.78 669.7 919.44 669.29C919.09 668.88 918.92 668.34 918.92 667.67C918.92 667.14 919.08 666.65 919.4 666.21C919.72 665.77 920.17 665.42 920.75 665.16C921.33 664.9 922 664.77 922.75 664.77C923.9 664.77 924.83 665.06 925.54 665.64C926.25 666.22 926.63 667.02 926.68 668.03H924.95C924.91 667.49 924.69 667.05 924.29 666.72C923.89 666.39 923.36 666.23 922.68 666.23C922.06 666.23 921.56 666.36 921.2 666.63C920.83 666.9 920.65 667.24 920.65 667.67C920.65 668.01 920.76 668.29 920.98 668.52C921.2 668.75 921.48 668.92 921.82 669.05C922.16 669.18 922.62 669.33 923.22 669.5C923.97 669.7 924.57 669.9 925.04 670.1C925.51 670.3 925.91 670.59 926.25 670.98C926.58 671.37 926.76 671.89 926.77 672.52C926.77 673.09 926.61 673.6 926.29 674.06C925.97 674.52 925.53 674.87 924.95 675.13C924.37 675.39 923.71 675.52 922.96 675.52C922.16 675.52 921.45 675.38 920.81 675.11V675.12Z" fill="#424242"/>
<path d="M934.27 667.31C934.7 666.51 935.29 665.88 936.05 665.44C936.81 665 937.64 664.77 938.57 664.77C939.5 664.77 940.27 664.97 940.95 665.36C941.62 665.75 942.12 666.25 942.45 666.84V664.94H944.2V675.35H942.45V673.41C942.11 674.02 941.6 674.52 940.92 674.92C940.24 675.32 939.45 675.52 938.55 675.52C937.65 675.52 936.79 675.29 936.04 674.84C935.29 674.38 934.7 673.74 934.27 672.92C933.84 672.1 933.62 671.16 933.62 670.11C933.62 669.06 933.83 668.11 934.27 667.31ZM941.96 668.08C941.64 667.5 941.22 667.05 940.68 666.74C940.14 666.43 939.55 666.27 938.9 666.27C938.25 666.27 937.67 666.42 937.13 666.73C936.59 667.04 936.17 667.48 935.86 668.06C935.55 668.64 935.39 669.33 935.39 670.11C935.39 670.89 935.55 671.6 935.86 672.19C936.18 672.78 936.6 673.23 937.13 673.54C937.66 673.85 938.25 674.01 938.9 674.01C939.55 674.01 940.14 673.85 940.68 673.54C941.22 673.23 941.64 672.78 941.96 672.19C942.28 671.6 942.43 670.91 942.43 670.13C942.43 669.35 942.27 668.66 941.96 668.08Z" fill="#424242"/>
<path d="M948.65 675.12C948.02 674.85 947.52 674.47 947.15 673.98C946.78 673.49 946.58 672.93 946.54 672.3H948.33C948.38 672.82 948.62 673.24 949.06 673.57C949.5 673.9 950.07 674.06 950.78 674.06C951.44 674.06 951.96 673.91 952.34 673.62C952.72 673.33 952.91 672.96 952.91 672.52C952.91 672.08 952.71 671.73 952.3 671.5C951.89 671.28 951.27 671.06 950.42 670.84C949.65 670.64 949.02 670.43 948.53 670.22C948.04 670.01 947.62 669.7 947.28 669.29C946.93 668.88 946.76 668.34 946.76 667.67C946.76 667.14 946.92 666.65 947.24 666.21C947.56 665.77 948.01 665.42 948.59 665.16C949.17 664.9 949.84 664.77 950.59 664.77C951.74 664.77 952.67 665.06 953.38 665.64C954.09 666.22 954.47 667.02 954.52 668.03H952.79C952.75 667.49 952.53 667.05 952.13 666.72C951.73 666.39 951.2 666.23 950.52 666.23C949.9 666.23 949.4 666.36 949.04 666.63C948.67 666.9 948.49 667.24 948.49 667.67C948.49 668.01 948.6 668.29 948.82 668.52C949.04 668.75 949.32 668.92 949.66 669.05C950 669.18 950.46 669.33 951.06 669.5C951.81 669.7 952.41 669.9 952.88 670.1C953.35 670.3 953.75 670.59 954.09 670.98C954.42 671.37 954.6 671.89 954.61 672.52C954.61 673.09 954.45 673.6 954.13 674.06C953.81 674.52 953.37 674.87 952.79 675.13C952.21 675.39 951.55 675.52 950.8 675.52C950 675.52 949.29 675.38 948.65 675.11V675.12Z" fill="#424242"/>
<path d="M957.03 667.31C957.46 666.51 958.05 665.88 958.81 665.44C959.57 665 960.4 664.77 961.33 664.77C962.26 664.77 963.03 664.97 963.71 665.36C964.38 665.75 964.88 666.25 965.21 666.84V664.94H966.96V675.35H965.21V673.41C964.87 674.02 964.36 674.52 963.68 674.92C963 675.32 962.21 675.52 961.31 675.52C960.41 675.52 959.55 675.29 958.8 674.84C958.05 674.38 957.46 673.74 957.03 672.92C956.6 672.1 956.38 671.16 956.38 670.11C956.38 669.06 956.59 668.11 957.03 667.31ZM964.72 668.08C964.4 667.5 963.98 667.05 963.44 666.74C962.9 666.43 962.31 666.27 961.66 666.27C961.01 666.27 960.43 666.42 959.89 666.73C959.35 667.04 958.93 667.48 958.62 668.06C958.31 668.64 958.15 669.33 958.15 670.11C958.15 670.89 958.31 671.6 958.62 672.19C958.94 672.78 959.36 673.23 959.89 673.54C960.42 673.85 961.01 674.01 961.66 674.01C962.31 674.01 962.9 673.85 963.44 673.54C963.98 673.23 964.4 672.78 964.72 672.19C965.04 671.6 965.19 670.91 965.19 670.13C965.19 669.35 965.03 668.66 964.72 668.08Z" fill="#424242"/>
<path d="M971.41 675.12C970.78 674.85 970.28 674.47 969.91 673.98C969.54 673.49 969.34 672.93 969.3 672.3H971.09C971.14 672.82 971.38 673.24 971.82 673.57C972.26 673.9 972.83 674.06 973.54 674.06C974.2 674.06 974.72 673.91 975.1 673.62C975.48 673.33 975.67 672.96 975.67 672.52C975.67 672.08 975.47 671.73 975.06 671.5C974.65 671.28 974.03 671.06 973.18 670.84C972.41 670.64 971.78 670.43 971.29 670.22C970.8 670.01 970.38 669.7 970.04 669.29C969.69 668.88 969.52 668.34 969.52 667.67C969.52 667.14 969.68 666.65 970 666.21C970.32 665.77 970.77 665.42 971.35 665.16C971.93 664.9 972.6 664.77 973.35 664.77C974.5 664.77 975.43 665.06 976.14 665.64C976.85 666.22 977.23 667.02 977.28 668.03H975.55C975.51 667.49 975.29 667.05 974.89 666.72C974.49 666.39 973.96 666.23 973.28 666.23C972.66 666.23 972.16 666.36 971.8 666.63C971.43 666.9 971.25 667.24 971.25 667.67C971.25 668.01 971.36 668.29 971.58 668.52C971.8 668.75 972.08 668.92 972.42 669.05C972.76 669.18 973.22 669.33 973.82 669.5C974.57 669.7 975.17 669.9 975.64 670.1C976.11 670.3 976.51 670.59 976.85 670.98C977.18 671.37 977.36 671.89 977.37 672.52C977.37 673.09 977.21 673.6 976.89 674.06C976.57 674.52 976.13 674.87 975.55 675.13C974.97 675.39 974.31 675.52 973.56 675.52C972.76 675.52 972.05 675.38 971.41 675.11V675.12Z" fill="#424242"/>
<path d="M527.18 288.98C546.201 288.98 561.62 273.534 561.62 254.48C561.62 235.426 546.201 219.98 527.18 219.98C508.159 219.98 492.74 235.426 492.74 254.48C492.74 273.534 508.159 288.98 527.18 288.98Z" fill="#E8E3E6"/>
<path d="M527.22 286C546.241 286 561.66 270.554 561.66 251.5C561.66 232.446 546.241 217 527.22 217C508.199 217 492.78 232.446 492.78 251.5C492.78 270.554 508.199 286 527.22 286Z" fill="#FFF8FC"/>
<path d="M511.97 247.72L525.94 233.72C528.3 231.36 532.34 233.03 532.34 236.37V266.57C532.34 269.87 528.39 271.57 526 269.28L511.97 255.84V247.71V247.72Z" fill="#C8A9F2"/>
<path d="M510.77 249.2C510.77 248.366 510.094 247.69 509.26 247.69C508.426 247.69 507.75 248.366 507.75 249.2V253.75C507.75 254.584 508.426 255.26 509.26 255.26C510.094 255.26 510.77 254.584 510.77 253.75V249.2Z" fill="#C8A9F2"/>
<path d="M536.09 259.57C537.2 258.62 538.74 254.27 538.74 251.47C538.74 248.67 537.7 244.75 536.09 243.37" fill="#C8A9F2"/>
<path d="M540.65 262.19C542.12 260.93 544.15 255.18 544.15 251.47C544.15 247.76 542.78 242.57 540.65 240.75" fill="#C8A9F2"/>
<path d="M1139.18 288.98C1158.2 288.98 1173.62 273.534 1173.62 254.48C1173.62 235.426 1158.2 219.98 1139.18 219.98C1120.16 219.98 1104.74 235.426 1104.74 254.48C1104.74 273.534 1120.16 288.98 1139.18 288.98Z" fill="#E8E3E6"/>
<path d="M1139.22 286C1158.24 286 1173.66 270.554 1173.66 251.5C1173.66 232.446 1158.24 217 1139.22 217C1120.2 217 1104.78 232.446 1104.78 251.5C1104.78 270.554 1120.2 286 1139.22 286Z" fill="#FFF8FC"/>
<path d="M1123.97 247.72L1137.94 233.72C1140.3 231.36 1144.34 233.03 1144.34 236.37V266.57C1144.34 269.87 1140.39 271.57 1138 269.28L1123.97 255.84V247.71V247.72Z" fill="#C8A9F2"/>
<path d="M1122.77 249.2C1122.77 248.366 1122.09 247.69 1121.26 247.69C1120.43 247.69 1119.75 248.366 1119.75 249.2V253.75C1119.75 254.584 1120.43 255.26 1121.26 255.26C1122.09 255.26 1122.77 254.584 1122.77 253.75V249.2Z" fill="#C8A9F2"/>
<path d="M1148.09 259.57C1149.2 258.62 1150.74 254.27 1150.74 251.47C1150.74 248.67 1149.7 244.75 1148.09 243.37" fill="#C8A9F2"/>
<path d="M1152.65 262.19C1154.12 260.93 1156.15 255.18 1156.15 251.47C1156.15 247.76 1154.78 242.57 1152.65 240.75" fill="#C8A9F2"/>
<path d="M403.58 392.27H196.27V586.53H403.58V392.27Z" fill="#CCCCCC"/>
<path d="M407.36 579.58H200.05V391.27L304 234.27L407.36 390.91V579.58Z" fill="white"/>
<path d="M263.37 470.39C263.37 470.39 294.23 410.9 335.18 451.78" stroke="#B2CCA2" stroke-width="2"/>
<path d="M343.12 460.86C337.77 458.01 330.4 455.14 324.65 454.4L334.05 450.65L338.87 441.76C338.93 447.55 340.92 455.21 343.12 460.86Z" fill="#B2CCA2"/>
<path d="M407.5 392.77H304.5V235.77L407.5 392.77Z" fill="#F7F7F7" stroke="#AFAFAF"/>
<path d="M200.5 392.77H303.5V235.77L200.5 392.77Z" fill="#F7F7F7" stroke="#AFAFAF"/>
<path d="M303.7 234.27V240.27" stroke="#B2CCA2" stroke-width="2"/>
<path d="M303.7 252.61V567.11" stroke="#B2CCA2" stroke-width="2"/>
<path d="M303.7 573.27V579.27" stroke="#B2CCA2" stroke-width="2"/>
<path d="M691.32 503.58V371.9L1150.04 366.27L941.96 503.58H691.32Z" fill="white"/>
<path d="M1041.26 438.99H1035.26" stroke="#B2CCA2" stroke-width="2"/>
<path d="M1022.85 438.99H706.34" stroke="#B2CCA2" stroke-width="2"/>
<path d="M700.14 438.99H694.14" stroke="#B2CCA2" stroke-width="2"/>
<path d="M838.22 488.03C838.22 488.03 912.76 449.37 859.05 398.39" stroke="#B2CCA2" stroke-width="2"/>
<path d="M849.87 390.54C855.54 392.68 863.22 394.59 869.01 394.58L860.17 399.5L856.53 408.93C855.73 403.19 852.78 395.85 849.87 390.54Z" fill="#B2CCA2"/>
</svg>
