<svg width="1087" height="763" viewBox="0 0 1087 763" fill="none" xmlns="http://www.w3.org/2000/svg">
<path d="M884.408 445.589L871.917 441.986L780.459 759.06L792.95 762.662L884.408 445.589Z" fill="#87CC8C"/>
<path d="M715.84 24.27H484.41C467.946 24.27 454.6 37.6164 454.6 54.08V64.46C454.6 80.9236 467.946 94.27 484.41 94.27H715.84C732.304 94.27 745.65 80.9236 745.65 64.46V54.08C745.65 37.6164 732.304 24.27 715.84 24.27Z" fill="#E1A9AF"/>
<path d="M561.48 1.57999C562.43 2.05999 563.15 2.74999 563.66 3.64999C564.16 4.53999 564.42 5.59999 564.42 6.80999C564.42 8.01999 564.17 9.06999 563.66 9.95999C563.16 10.85 562.43 11.53 561.48 12C560.53 12.47 559.41 12.71 558.12 12.71H554.43V0.859985H558.12C559.41 0.859985 560.53 1.09999 561.48 1.57999ZM561.63 10.21C562.43 9.39999 562.84 8.25999 562.84 6.79999C562.84 5.33999 562.43 4.17999 561.62 3.34999C560.81 2.51999 559.65 2.10999 558.13 2.10999H555.99V11.43H558.13C559.66 11.43 560.83 11.03 561.63 10.22V10.21Z" fill="#A8A8A8"/>
<path d="M568.15 12.26C567.44 11.86 566.89 11.3 566.48 10.57C566.08 9.83999 565.88 8.98999 565.88 8.02999C565.88 7.06999 566.09 6.23999 566.5 5.50999C566.91 4.77999 567.48 4.21999 568.19 3.82999C568.9 3.43999 569.7 3.23999 570.59 3.23999C571.48 3.23999 572.27 3.43999 572.99 3.82999C573.7 4.21999 574.27 4.77999 574.68 5.49999C575.09 6.21999 575.3 7.06999 575.3 8.02999C575.3 8.98999 575.09 9.83999 574.66 10.57C574.24 11.3 573.66 11.86 572.93 12.26C572.2 12.66 571.4 12.86 570.52 12.86C569.64 12.86 568.86 12.66 568.15 12.26ZM572.08 11.11C572.57 10.85 572.96 10.46 573.26 9.93999C573.56 9.41999 573.71 8.77999 573.71 8.03999C573.71 7.29999 573.56 6.65999 573.27 6.13999C572.98 5.61999 572.59 5.22999 572.11 4.97999C571.63 4.72999 571.12 4.59999 570.56 4.59999C570 4.59999 569.48 4.72999 569 4.97999C568.53 5.22999 568.15 5.61999 567.87 6.13999C567.59 6.65999 567.44 7.29999 567.44 8.03999C567.44 8.77999 567.58 9.43999 567.86 9.95999C568.14 10.48 568.51 10.87 568.97 11.12C569.43 11.37 569.94 11.5 570.5 11.5C571.06 11.5 571.58 11.37 572.06 11.11H572.08Z" fill="#A8A8A8"/>
<path d="M580.28 3.76C580.89 3.41 581.59 3.23 582.37 3.23C583.21 3.23 583.96 3.43 584.63 3.82C585.3 4.22 585.83 4.77999 586.21 5.49C586.6 6.21 586.79 7.05 586.79 8C586.79 8.95 586.6 9.78 586.21 10.52C585.83 11.26 585.29 11.83 584.62 12.24C583.95 12.65 583.19 12.85 582.37 12.85C581.55 12.85 580.86 12.67 580.25 12.32C579.64 11.97 579.19 11.52 578.88 10.98V12.7H577.33V0.119995H578.88V5.12C579.2 4.56999 579.66 4.11 580.27 3.76H580.28ZM584.78 6.18C584.5 5.66 584.11 5.25999 583.63 4.99C583.15 4.72 582.62 4.58 582.04 4.58C581.46 4.58 580.95 4.72 580.47 5C579.99 5.28 579.6 5.68 579.31 6.21C579.02 6.74 578.88 7.35 578.88 8.04C578.88 8.72999 579.02 9.35999 579.31 9.88C579.6 10.41 579.98 10.81 580.47 11.09C580.95 11.37 581.48 11.51 582.04 11.51C582.6 11.51 583.15 11.37 583.63 11.09C584.11 10.81 584.49 10.41 584.78 9.88C585.06 9.35 585.2 8.73 585.2 8.02C585.2 7.31 585.06 6.71 584.78 6.18Z" fill="#A8A8A8"/>
<path d="M591.54 3.65997C592.04 3.36997 592.66 3.21997 593.38 3.21997V4.81997H592.97C591.24 4.81997 590.37 5.75997 590.37 7.63997V12.71H588.82V3.38997H590.37V4.89997C590.64 4.36997 591.03 3.94997 591.53 3.65997H591.54Z" fill="#A8A8A8"/>
<path d="M595.17 5.51C595.56 4.79 596.09 4.23 596.76 3.84C597.43 3.44 598.18 3.25 599.01 3.25C599.84 3.25 600.53 3.43 601.13 3.78C601.73 4.13 602.18 4.57 602.47 5.11V3.41H604.03V12.73H602.47V11C602.16 11.54 601.71 12 601.1 12.35C600.49 12.71 599.79 12.89 598.98 12.89C598.17 12.89 597.4 12.69 596.74 12.28C596.08 11.87 595.54 11.3 595.16 10.56C594.78 9.82 594.58 8.98 594.58 8.04C594.58 7.1 594.77 6.25 595.16 5.53L595.17 5.51ZM602.05 6.19C601.77 5.67 601.38 5.27 600.9 4.99C600.42 4.71 599.89 4.57 599.31 4.57C598.73 4.57 598.2 4.71 597.73 4.98C597.25 5.25 596.87 5.65 596.59 6.17C596.31 6.69 596.16 7.3 596.16 8.01C596.16 8.72 596.3 9.34 596.59 9.87C596.87 10.4 597.25 10.8 597.73 11.08C598.21 11.36 598.73 11.5 599.31 11.5C599.89 11.5 600.42 11.36 600.9 11.08C601.38 10.8 601.76 10.4 602.05 9.87C602.33 9.34 602.47 8.73 602.47 8.03C602.47 7.33 602.33 6.72 602.05 6.19Z" fill="#A8A8A8"/>
<path d="M606.66 5.51002C607.05 4.79002 607.58 4.23001 608.25 3.84001C608.92 3.44001 609.68 3.25001 610.52 3.25001C611.25 3.25001 611.92 3.42001 612.54 3.75001C613.16 4.08001 613.64 4.52001 613.97 5.07001V0.140015H615.53V12.72H613.97V10.97C613.66 11.53 613.21 11.98 612.61 12.34C612.01 12.7 611.31 12.88 610.5 12.88C609.69 12.88 608.92 12.68 608.25 12.27C607.58 11.86 607.05 11.29 606.66 10.55C606.28 9.81001 606.08 8.97001 606.08 8.03001C606.08 7.09001 606.27 6.24002 606.66 5.52002V5.51002ZM613.55 6.19001C613.27 5.67001 612.88 5.27001 612.4 4.99001C611.92 4.71001 611.39 4.57001 610.81 4.57001C610.23 4.57001 609.7 4.71001 609.23 4.98001C608.75 5.25001 608.37 5.65001 608.09 6.17001C607.81 6.69001 607.66 7.30001 607.66 8.01002C607.66 8.72001 607.8 9.34001 608.09 9.87001C608.37 10.4 608.75 10.8 609.23 11.08C609.71 11.36 610.23 11.5 610.81 11.5C611.39 11.5 611.92 11.36 612.4 11.08C612.88 10.8 613.26 10.4 613.55 9.87001C613.83 9.34001 613.97 8.73001 613.97 8.03001C613.97 7.33001 613.83 6.72001 613.55 6.19001Z" fill="#A8A8A8"/>
<path d="M626.42 3.39001V12.71H624.87V11.33C624.58 11.81 624.16 12.18 623.64 12.44C623.11 12.71 622.53 12.84 621.9 12.84C621.17 12.84 620.52 12.69 619.94 12.39C619.36 12.09 618.91 11.64 618.57 11.04C618.24 10.44 618.07 9.71002 618.07 8.85002V3.39001H619.6V8.64002C619.6 9.56002 619.83 10.26 620.3 10.76C620.77 11.26 621.4 11.5 622.2 11.5C623 11.5 623.68 11.25 624.15 10.74C624.63 10.23 624.86 9.49002 624.86 8.51002V3.39001H626.41H626.42Z" fill="#A8A8A8"/>
<path d="M631.75 3.65997C632.25 3.36997 632.87 3.21997 633.59 3.21997V4.81997H633.18C631.45 4.81997 630.58 5.75997 630.58 7.63997V12.71H629.03V3.38997H630.58V4.89997C630.85 4.36997 631.24 3.94997 631.74 3.65997H631.75Z" fill="#A8A8A8"/>
<path d="M635.37 5.51C635.76 4.79 636.29 4.23 636.96 3.84C637.63 3.44 638.38 3.25 639.21 3.25C640.04 3.25 640.73 3.43 641.33 3.78C641.93 4.13 642.38 4.57 642.67 5.11V3.41H644.23V12.73H642.67V11C642.36 11.54 641.91 12 641.3 12.35C640.69 12.71 639.99 12.89 639.18 12.89C638.37 12.89 637.6 12.69 636.94 12.28C636.28 11.87 635.74 11.3 635.36 10.56C634.98 9.82 634.78 8.98 634.78 8.04C634.78 7.1 634.97 6.25 635.36 5.53L635.37 5.51ZM642.26 6.19C641.98 5.67 641.59 5.27 641.11 4.99C640.63 4.71 640.1 4.57 639.52 4.57C638.94 4.57 638.41 4.71 637.94 4.98C637.46 5.25 637.08 5.65 636.8 6.17C636.52 6.69 636.37 7.3 636.37 8.01C636.37 8.72 636.51 9.34 636.8 9.87C637.08 10.4 637.46 10.8 637.94 11.08C638.42 11.36 638.94 11.5 639.52 11.5C640.1 11.5 640.63 11.36 641.11 11.08C641.59 10.8 641.97 10.4 642.26 9.87C642.54 9.34 642.68 8.73 642.68 8.03C642.68 7.33 642.54 6.72 642.26 6.19Z" fill="#A8A8A8"/>
<path d="M648.24 12.49C647.67 12.25 647.23 11.91 646.9 11.47C646.57 11.03 646.39 10.53 646.36 9.96999H647.96C648 10.43 648.22 10.81 648.61 11.11C649 11.4 649.51 11.55 650.15 11.55C650.74 11.55 651.2 11.42 651.54 11.16C651.88 10.9 652.05 10.57 652.05 10.17C652.05 9.76999 651.87 9.45999 651.51 9.25999C651.15 9.05999 650.59 8.86999 649.83 8.66999C649.14 8.48999 648.58 8.29999 648.14 8.11999C647.7 7.92999 647.33 7.65999 647.02 7.28999C646.71 6.91999 646.55 6.43999 646.55 5.83999C646.55 5.35999 646.69 4.92999 646.97 4.52999C647.25 4.12999 647.66 3.81999 648.18 3.58999C648.7 3.35999 649.3 3.23999 649.97 3.23999C651 3.23999 651.83 3.49999 652.47 4.01999C653.1 4.53999 653.44 5.25999 653.49 6.15999H651.94C651.91 5.66999 651.71 5.27999 651.35 4.98999C650.99 4.69999 650.51 4.54999 649.91 4.54999C649.36 4.54999 648.91 4.66999 648.58 4.90999C648.25 5.14999 648.09 5.45999 648.09 5.83999C648.09 6.14999 648.19 6.39999 648.39 6.59999C648.59 6.79999 648.84 6.95999 649.14 7.07999C649.44 7.19999 649.86 7.32999 650.39 7.47999C651.06 7.65999 651.6 7.83999 652.02 8.01999C652.44 8.19999 652.8 8.45999 653.1 8.80999C653.4 9.15999 653.56 9.61999 653.57 10.19C653.57 10.7 653.43 11.16 653.15 11.57C652.87 11.98 652.47 12.3 651.95 12.53C651.43 12.76 650.84 12.88 650.17 12.88C649.46 12.88 648.82 12.76 648.25 12.51L648.24 12.49Z" fill="#A8A8A8"/>
<path d="M573.38 45.8199V48.7799H561.26V58.1799H571.1V61.1399H561.26V73.6999H557.62V45.8199H573.38Z" fill="white"/>
<path d="M581.42 70.7399H591.18V73.6999H577.78V45.8199H581.42V70.7399Z" fill="white"/>
<path d="M600.62 72.16C598.49 70.95 596.8 69.25 595.56 67.08C594.32 64.91 593.7 62.46 593.7 59.74C593.7 57.02 594.32 54.57 595.56 52.4C596.8 50.23 598.49 48.53 600.62 47.32C602.75 46.11 605.11 45.5 607.7 45.5C610.29 45.5 612.69 46.11 614.82 47.32C616.95 48.53 618.63 50.22 619.86 52.38C621.09 54.54 621.7 56.99 621.7 59.74C621.7 62.49 621.09 64.94 619.86 67.1C618.63 69.26 616.95 70.95 614.82 72.16C612.69 73.37 610.31 73.98 607.7 73.98C605.09 73.98 602.75 73.37 600.62 72.16ZM612.96 69.46C614.52 68.55 615.75 67.26 616.64 65.58C617.53 63.9 617.98 61.95 617.98 59.74C617.98 57.53 617.53 55.55 616.64 53.88C615.75 52.21 614.53 50.93 612.98 50.02C611.43 49.11 609.67 48.66 607.7 48.66C605.73 48.66 603.97 49.11 602.42 50.02C600.87 50.93 599.65 52.21 598.76 53.88C597.87 55.55 597.42 57.5 597.42 59.74C597.42 61.98 597.87 63.9 598.76 65.58C599.65 67.26 600.88 68.55 602.44 69.46C604 70.37 605.75 70.82 607.7 70.82C609.65 70.82 611.4 70.37 612.96 69.46Z" fill="white"/>
<path d="M641.18 73.6999L634.54 62.2999H630.14V73.6999H626.5V45.8199H635.5C637.61 45.8199 639.39 46.1799 640.84 46.8999C642.29 47.6199 643.38 48.5899 644.1 49.8199C644.82 51.0499 645.18 52.4499 645.18 54.0199C645.18 55.9399 644.63 57.6299 643.52 59.0999C642.41 60.5699 640.75 61.5399 638.54 62.0199L645.54 73.6999H641.18ZM630.14 59.3799H635.5C637.47 59.3799 638.95 58.8899 639.94 57.9199C640.93 56.9499 641.42 55.6499 641.42 54.0199C641.42 52.3899 640.93 51.0899 639.96 50.1799C638.99 49.2699 637.5 48.8199 635.5 48.8199H630.14V59.3799Z" fill="white"/>
<path d="M554.02 200.95H70.4401C44.9964 200.95 24.3701 221.576 24.3701 247.02V673.2C24.3701 698.644 44.9964 719.27 70.4401 719.27H554.02C579.464 719.27 600.09 698.644 600.09 673.2V247.02C600.09 221.576 579.464 200.95 554.02 200.95Z" fill="#D3D3D3"/>
<path d="M549.4 191.27H65.82C40.3762 191.27 19.75 211.896 19.75 237.34V663.52C19.75 688.964 40.3762 709.59 65.82 709.59H307.61H549.4C574.844 709.59 595.47 688.964 595.47 663.52V237.34C595.47 211.896 574.844 191.27 549.4 191.27Z" fill="#E1A9AF"/>
<path d="M43.73 231.27C66.7603 231.27 85.43 212.569 85.43 189.5C85.43 166.431 66.7603 147.73 43.73 147.73C20.6998 147.73 2.03003 166.431 2.03003 189.5C2.03003 212.569 20.6998 231.27 43.73 231.27Z" fill="#CCA98B" stroke="#F2F2F2"/>
<path d="M43.69 227.67C66.7203 227.67 85.39 208.969 85.39 185.9C85.39 162.831 66.7203 144.13 43.69 144.13C20.6597 144.13 1.98999 162.831 1.98999 185.9C1.98999 208.969 20.6597 227.67 43.69 227.67Z" fill="white" stroke="#F2F2F2" stroke-width="3"/>
<path d="M27.1399 171.86C28.9399 170.28 31.3799 169.49 34.4699 169.49C36.5199 169.49 38.2699 169.84 39.7299 170.55C41.1899 171.26 42.2899 172.23 43.0399 173.46C43.7899 174.69 44.1699 176.07 44.1699 177.59C44.1699 179.39 43.7199 180.86 42.8199 181.99C41.9199 183.12 40.8699 183.89 39.6699 184.3V184.46C41.2199 184.98 42.4499 185.84 43.3499 187.04C44.2499 188.24 44.6999 189.78 44.6999 191.66C44.6999 193.35 44.3099 194.85 43.5299 196.14C42.7499 197.43 41.6199 198.45 40.1299 199.19C38.6399 199.93 36.8799 200.29 34.8299 200.29C31.5599 200.29 28.9399 199.49 26.9899 197.88C25.0399 196.27 24.0099 193.84 23.8999 190.6H30.6899C30.7199 191.8 31.0599 192.75 31.7099 193.44C32.3699 194.14 33.3199 194.48 34.5799 194.48C35.6399 194.48 36.4699 194.17 37.0599 193.56C37.6499 192.95 37.9399 192.13 37.9399 191.12C37.9399 189.81 37.5199 188.86 36.6899 188.28C35.8599 187.69 34.5299 187.4 32.6999 187.4H31.3899V181.71H32.6999C34.0899 181.71 35.2199 181.47 36.0799 180.99C36.9399 180.51 37.3699 179.66 37.3699 178.43C37.3699 177.45 37.0999 176.68 36.5499 176.14C35.9999 175.6 35.2499 175.32 34.2999 175.32C33.2599 175.32 32.4899 175.63 31.9899 176.26C31.4799 176.89 31.1899 177.67 31.1099 178.59H24.2799C24.3899 175.67 25.3399 173.42 27.1499 171.84L27.1399 171.86Z" fill="#E1A9AF"/>
<path d="M49.01 174.58C49.71 173.48 50.69 172.61 51.96 171.98C53.23 171.35 54.68 171.04 56.32 171.04C57.96 171.04 59.41 171.35 60.68 171.98C61.95 172.61 62.93 173.47 63.63 174.58C64.33 175.69 64.67 176.96 64.67 178.41C64.67 179.86 64.32 181.14 63.61 182.26C62.9 183.38 61.91 184.26 60.64 184.9C59.37 185.54 57.92 185.86 56.28 185.86C54.64 185.86 53.2 185.54 51.94 184.9C50.68 184.26 49.71 183.38 49.01 182.26C48.31 181.14 47.97 179.86 47.97 178.41C47.97 176.96 48.32 175.69 49.01 174.58ZM58.4 175.95C57.83 175.38 57.12 175.09 56.27 175.09C55.42 175.09 54.76 175.38 54.2 175.95C53.64 176.52 53.36 177.36 53.36 178.45C53.36 179.54 53.63 180.33 54.18 180.91C54.73 181.49 55.42 181.77 56.27 181.77C57.12 181.77 57.82 181.48 58.4 180.89C58.97 180.3 59.26 179.49 59.26 178.46C59.26 177.37 58.97 176.54 58.4 175.96V175.95Z" fill="#E1A9AF"/>
<path d="M105.38 177.45C104.59 178.22 103.38 178.6 101.75 178.6H99.07V184.42H97.25V170.48H101.75C103.32 170.48 104.52 170.86 105.34 171.62C106.16 172.38 106.57 173.36 106.57 174.56C106.57 175.76 106.17 176.68 105.38 177.45ZM103.99 176.44C104.47 176 104.71 175.37 104.71 174.56C104.71 172.84 103.72 171.98 101.75 171.98H99.07V177.1H101.75C102.76 177.1 103.51 176.88 103.99 176.44Z" fill="#E1A9AF"/>
<path d="M108.83 175.95C109.28 175.1 109.91 174.45 110.7 173.98C111.49 173.51 112.38 173.28 113.35 173.28C114.32 173.28 115.14 173.49 115.85 173.9C116.56 174.31 117.08 174.83 117.43 175.46V173.46H119.27V184.42H117.43V182.38C117.07 183.02 116.53 183.55 115.82 183.97C115.11 184.39 114.28 184.6 113.33 184.6C112.38 184.6 111.48 184.36 110.69 183.88C109.9 183.4 109.28 182.73 108.83 181.86C108.38 180.99 108.15 180.01 108.15 178.9C108.15 177.79 108.38 176.8 108.83 175.95ZM116.93 176.76C116.6 176.15 116.15 175.68 115.58 175.35C115.01 175.02 114.39 174.86 113.71 174.86C113.03 174.86 112.41 175.02 111.85 175.34C111.29 175.66 110.84 176.13 110.51 176.74C110.18 177.35 110.01 178.07 110.01 178.9C110.01 179.73 110.18 180.47 110.51 181.09C110.84 181.71 111.29 182.18 111.85 182.51C112.41 182.84 113.03 183 113.71 183C114.39 183 115.01 182.84 115.58 182.51C116.15 182.18 116.6 181.71 116.93 181.09C117.26 180.47 117.43 179.75 117.43 178.92C117.43 178.09 117.26 177.37 116.93 176.76Z" fill="#E1A9AF"/>
<path d="M123.97 184.17C123.3 183.88 122.78 183.48 122.39 182.97C122 182.46 121.79 181.87 121.75 181.2H123.63C123.68 181.75 123.94 182.19 124.4 182.54C124.86 182.89 125.46 183.06 126.21 183.06C126.9 183.06 127.45 182.91 127.85 182.6C128.25 182.29 128.45 181.91 128.45 181.44C128.45 180.97 128.24 180.6 127.81 180.37C127.38 180.14 126.72 179.91 125.83 179.68C125.02 179.47 124.35 179.25 123.84 179.03C123.33 178.81 122.89 178.48 122.52 178.05C122.15 177.62 121.97 177.05 121.97 176.34C121.97 175.78 122.14 175.27 122.47 174.8C122.8 174.33 123.28 173.96 123.89 173.69C124.5 173.42 125.2 173.28 125.99 173.28C127.2 173.28 128.18 173.59 128.93 174.2C129.68 174.81 130.08 175.65 130.13 176.72H128.31C128.27 176.15 128.04 175.69 127.62 175.34C127.2 174.99 126.64 174.82 125.93 174.82C125.28 174.82 124.76 174.96 124.37 175.24C123.98 175.52 123.79 175.89 123.79 176.34C123.79 176.7 123.91 177 124.14 177.23C124.37 177.46 124.67 177.65 125.02 177.79C125.37 177.93 125.86 178.09 126.49 178.26C127.28 178.47 127.92 178.68 128.41 178.89C128.9 179.1 129.33 179.41 129.68 179.82C130.03 180.23 130.22 180.77 130.23 181.44C130.23 182.04 130.06 182.58 129.73 183.06C129.4 183.54 128.93 183.92 128.32 184.19C127.71 184.46 127.02 184.6 126.23 184.6C125.39 184.6 124.64 184.46 123.97 184.17Z" fill="#E1A9AF"/>
<path d="M134.41 184.17C133.74 183.88 133.22 183.48 132.83 182.97C132.44 182.46 132.23 181.87 132.19 181.2H134.07C134.12 181.75 134.38 182.19 134.84 182.54C135.3 182.89 135.9 183.06 136.65 183.06C137.34 183.06 137.89 182.91 138.29 182.6C138.69 182.29 138.89 181.91 138.89 181.44C138.89 180.97 138.68 180.6 138.25 180.37C137.82 180.14 137.16 179.91 136.27 179.68C135.46 179.47 134.79 179.25 134.28 179.03C133.77 178.81 133.33 178.48 132.96 178.05C132.59 177.62 132.41 177.05 132.41 176.34C132.41 175.78 132.58 175.27 132.91 174.8C133.24 174.33 133.72 173.96 134.33 173.69C134.94 173.42 135.64 173.28 136.43 173.28C137.64 173.28 138.62 173.59 139.37 174.2C140.12 174.81 140.52 175.65 140.57 176.72H138.75C138.71 176.15 138.48 175.69 138.06 175.34C137.64 174.99 137.08 174.82 136.37 174.82C135.72 174.82 135.2 174.96 134.81 175.24C134.42 175.52 134.23 175.89 134.23 176.34C134.23 176.7 134.35 177 134.58 177.23C134.81 177.46 135.11 177.65 135.46 177.79C135.81 177.93 136.3 178.09 136.93 178.26C137.72 178.47 138.36 178.68 138.85 178.89C139.34 179.1 139.77 179.41 140.12 179.82C140.47 180.23 140.66 180.77 140.67 181.44C140.67 182.04 140.5 182.58 140.17 183.06C139.84 183.54 139.37 183.92 138.76 184.19C138.15 184.46 137.46 184.6 136.67 184.6C135.83 184.6 135.08 184.46 134.41 184.17Z" fill="#E1A9AF"/>
<path d="M145.22 183.9C144.39 183.43 143.73 182.77 143.26 181.91C142.79 181.05 142.55 180.05 142.55 178.92C142.55 177.79 142.79 176.81 143.28 175.95C143.77 175.09 144.43 174.43 145.27 173.97C146.11 173.51 147.05 173.28 148.09 173.28C149.13 173.28 150.07 173.51 150.91 173.97C151.75 174.43 152.41 175.09 152.9 175.94C153.39 176.79 153.63 177.79 153.63 178.92C153.63 180.05 153.38 181.05 152.88 181.91C152.38 182.77 151.7 183.43 150.85 183.9C150 184.37 149.05 184.6 148.01 184.6C146.97 184.6 146.05 184.37 145.22 183.9ZM149.85 182.54C150.42 182.23 150.89 181.77 151.24 181.16C151.59 180.55 151.77 179.8 151.77 178.92C151.77 178.04 151.6 177.29 151.25 176.68C150.9 176.07 150.45 175.61 149.89 175.31C149.33 175.01 148.72 174.86 148.07 174.86C147.42 174.86 146.79 175.01 146.24 175.31C145.69 175.61 145.24 176.07 144.91 176.68C144.58 177.29 144.41 178.04 144.41 178.92C144.41 179.8 144.57 180.57 144.9 181.18C145.23 181.79 145.66 182.25 146.21 182.55C146.76 182.85 147.36 183 148.01 183C148.66 183 149.28 182.85 149.85 182.54Z" fill="#E1A9AF"/>
<path d="M232.24 649.61H226.46L225.4 652.56H223.58L228.37 639.39H230.36L235.13 652.56H233.31L232.25 649.61H232.24ZM231.75 648.21L229.36 641.52L226.97 648.21H231.76H231.75Z" fill="#424242"/>
<path d="M246.53 643.57H244.34V652.56H242.61V643.57H241.26V642.15H242.61V641.41C242.61 640.24 242.91 639.39 243.51 638.85C244.11 638.31 245.08 638.04 246.41 638.04V639.48C245.65 639.48 245.12 639.63 244.8 639.93C244.49 640.23 244.34 640.72 244.34 641.4V642.14H246.53V643.56V643.57Z" fill="#424242"/>
<path d="M250.27 638.5V652.56H248.54V638.5H250.27Z" fill="#424242"/>
<path d="M255.11 652.07C254.32 651.63 253.7 651 253.25 650.18C252.8 649.36 252.58 648.42 252.58 647.34C252.58 646.26 252.81 645.34 253.27 644.52C253.73 643.7 254.36 643.08 255.16 642.64C255.96 642.2 256.85 641.98 257.84 641.98C258.83 641.98 259.72 642.2 260.52 642.64C261.32 643.08 261.95 643.7 262.41 644.51C262.87 645.32 263.1 646.26 263.1 647.34C263.1 648.42 262.86 649.36 262.39 650.18C261.91 651 261.27 651.63 260.46 652.07C259.65 652.51 258.75 652.74 257.76 652.74C256.77 652.74 255.9 652.52 255.11 652.07ZM259.51 650.77C260.05 650.48 260.49 650.04 260.83 649.46C261.17 648.88 261.33 648.17 261.33 647.33C261.33 646.49 261.16 645.78 260.84 645.2C260.51 644.62 260.08 644.18 259.55 643.9C259.02 643.61 258.44 643.47 257.82 643.47C257.2 643.47 256.61 643.61 256.08 643.9C255.55 644.19 255.13 644.62 254.82 645.2C254.5 645.78 254.35 646.49 254.35 647.33C254.35 648.17 254.5 648.89 254.81 649.48C255.12 650.06 255.53 650.5 256.05 650.78C256.57 651.06 257.14 651.21 257.76 651.21C258.38 651.21 258.96 651.06 259.51 650.77Z" fill="#424242"/>
<path d="M268.41 642.45C268.97 642.12 269.66 641.96 270.47 641.96V643.75H270.01C268.07 643.75 267.1 644.8 267.1 646.9V652.56H265.37V642.15H267.1V643.84C267.4 643.24 267.84 642.78 268.4 642.45H268.41Z" fill="#424242"/>
<path d="M286.98 648H278.66C278.72 649.03 279.08 649.83 279.71 650.4C280.35 650.98 281.13 651.26 282.04 651.26C282.79 651.26 283.41 651.09 283.91 650.74C284.41 650.39 284.76 649.93 284.96 649.34H286.82C286.54 650.34 285.98 651.15 285.15 651.78C284.32 652.41 283.27 652.72 282.03 652.72C281.04 652.72 280.16 652.5 279.38 652.05C278.6 651.6 277.99 650.98 277.55 650.16C277.11 649.34 276.89 648.4 276.89 647.32C276.89 646.24 277.1 645.3 277.53 644.49C277.96 643.68 278.57 643.06 279.34 642.62C280.12 642.18 281.02 641.96 282.03 641.96C283.04 641.96 283.89 642.18 284.65 642.61C285.41 643.04 286 643.63 286.41 644.39C286.82 645.15 287.03 646 287.03 646.94C287.03 647.27 287.01 647.62 286.97 647.99L286.98 648ZM284.81 644.89C284.52 644.41 284.12 644.05 283.62 643.81C283.12 643.56 282.57 643.44 281.96 643.44C281.08 643.44 280.34 643.72 279.73 644.28C279.11 644.84 278.76 645.61 278.68 646.6H285.25C285.25 645.94 285.1 645.37 284.81 644.9V644.89Z" fill="#424242"/>
<path d="M290.86 652.32C290.23 652.05 289.73 651.67 289.36 651.18C288.99 650.69 288.79 650.13 288.75 649.5H290.54C290.59 650.02 290.83 650.44 291.27 650.77C291.71 651.1 292.28 651.26 292.99 651.26C293.65 651.26 294.17 651.11 294.55 650.82C294.93 650.53 295.12 650.16 295.12 649.72C295.12 649.28 294.92 648.93 294.51 648.7C294.1 648.48 293.48 648.26 292.63 648.04C291.86 647.84 291.23 647.63 290.74 647.42C290.25 647.21 289.83 646.9 289.48 646.49C289.13 646.08 288.96 645.54 288.96 644.87C288.96 644.34 289.12 643.85 289.43 643.41C289.74 642.97 290.2 642.62 290.78 642.36C291.36 642.1 292.03 641.97 292.77 641.97C293.92 641.97 294.85 642.26 295.56 642.84C296.27 643.42 296.65 644.22 296.7 645.23H294.97C294.93 644.69 294.71 644.25 294.31 643.92C293.91 643.59 293.38 643.43 292.7 643.43C292.08 643.43 291.58 643.56 291.22 643.83C290.85 644.1 290.67 644.44 290.67 644.87C290.67 645.21 290.78 645.49 291 645.72C291.22 645.94 291.5 646.12 291.84 646.25C292.18 646.38 292.64 646.53 293.24 646.7C293.99 646.9 294.59 647.1 295.06 647.3C295.53 647.5 295.93 647.79 296.27 648.18C296.61 648.57 296.78 649.09 296.79 649.72C296.79 650.29 296.63 650.8 296.31 651.26C295.99 651.72 295.55 652.07 294.97 652.33C294.39 652.59 293.73 652.72 292.98 652.72C292.18 652.72 291.47 652.58 290.83 652.31L290.86 652.32Z" fill="#424242"/>
<path d="M301.35 643.57V649.71C301.35 650.22 301.46 650.57 301.67 650.78C301.88 650.99 302.26 651.09 302.79 651.09H304.06V652.55H302.5C301.54 652.55 300.81 652.33 300.33 651.88C299.85 651.44 299.61 650.71 299.61 649.7V643.56H298.26V642.14H299.61V639.52H301.34V642.14H304.06V643.56H301.34L301.35 643.57Z" fill="#424242"/>
<path d="M306.15 644.51C306.58 643.71 307.17 643.08 307.93 642.64C308.69 642.2 309.52 641.97 310.45 641.97C311.38 641.97 312.16 642.17 312.83 642.56C313.5 642.95 314 643.45 314.33 644.04V642.14H316.08V652.55H314.33V650.61C313.99 651.22 313.48 651.72 312.8 652.12C312.12 652.52 311.33 652.72 310.43 652.72C309.53 652.72 308.67 652.49 307.92 652.04C307.17 651.58 306.58 650.94 306.15 650.12C305.72 649.3 305.5 648.36 305.5 647.31C305.5 646.26 305.71 645.31 306.15 644.51ZM313.85 645.28C313.53 644.7 313.11 644.25 312.57 643.94C312.03 643.63 311.44 643.47 310.79 643.47C310.14 643.47 309.56 643.62 309.02 643.93C308.49 644.23 308.06 644.68 307.75 645.26C307.44 645.84 307.28 646.53 307.28 647.31C307.28 648.09 307.44 648.8 307.75 649.39C308.07 649.98 308.49 650.43 309.02 650.74C309.55 651.05 310.14 651.21 310.79 651.21C311.44 651.21 312.03 651.05 312.57 650.74C313.11 650.43 313.53 649.98 313.85 649.39C314.17 648.8 314.32 648.11 314.32 647.33C314.32 646.55 314.16 645.86 313.85 645.28ZM312.97 639.2L308.92 641.37V640.08L312.97 637.7V639.2Z" fill="#424242"/>
<path d="M327.33 642.58C328.01 642.18 328.8 641.98 329.7 641.98C330.6 641.98 331.46 642.2 332.22 642.65C332.98 643.1 333.57 643.72 334 644.52C334.43 645.32 334.65 646.26 334.65 647.32C334.65 648.38 334.43 649.31 334 650.13C333.57 650.95 332.98 651.59 332.22 652.05C331.46 652.51 330.63 652.73 329.7 652.73C328.77 652.73 328.03 652.53 327.35 652.13C326.67 651.73 326.16 651.23 325.8 650.64V657.5H324.07V642.15H325.8V644.07C326.14 643.48 326.65 642.98 327.33 642.58ZM332.39 645.26C332.07 644.68 331.65 644.23 331.11 643.93C330.57 643.63 329.98 643.47 329.33 643.47C328.68 643.47 328.11 643.63 327.57 643.94C327.03 644.25 326.6 644.7 326.28 645.29C325.96 645.88 325.8 646.56 325.8 647.33C325.8 648.1 325.96 648.8 326.28 649.39C326.6 649.98 327.03 650.43 327.57 650.74C328.11 651.05 328.69 651.21 329.33 651.21C329.97 651.21 330.57 651.05 331.11 650.74C331.65 650.43 332.07 649.98 332.39 649.39C332.71 648.8 332.86 648.11 332.86 647.31C332.86 646.51 332.7 645.84 332.39 645.26Z" fill="#424242"/>
<path d="M339.94 642.45C340.5 642.12 341.19 641.96 342 641.96V643.75H341.54C339.6 643.75 338.63 644.8 338.63 646.9V652.56H336.9V642.15H338.63V643.84C338.93 643.24 339.37 642.78 339.93 642.45H339.94Z" fill="#424242"/>
<path d="M345.89 652.07C345.1 651.63 344.48 651 344.03 650.18C343.58 649.36 343.36 648.42 343.36 647.34C343.36 646.26 343.59 645.34 344.05 644.52C344.51 643.7 345.14 643.08 345.94 642.64C346.74 642.2 347.63 641.98 348.62 641.98C349.61 641.98 350.5 642.2 351.3 642.64C352.1 643.08 352.73 643.7 353.19 644.51C353.65 645.32 353.88 646.26 353.88 647.34C353.88 648.42 353.64 649.36 353.17 650.18C352.7 651 352.05 651.63 351.24 652.07C350.43 652.51 349.53 652.74 348.54 652.74C347.55 652.74 346.68 652.52 345.89 652.07ZM350.29 650.77C350.83 650.48 351.27 650.04 351.61 649.46C351.95 648.88 352.11 648.17 352.11 647.33C352.11 646.49 351.95 645.78 351.62 645.2C351.29 644.62 350.86 644.18 350.33 643.9C349.8 643.61 349.22 643.47 348.6 643.47C347.98 643.47 347.39 643.61 346.86 643.9C346.33 644.19 345.91 644.62 345.6 645.2C345.28 645.78 345.13 646.49 345.13 647.33C345.13 648.17 345.29 648.89 345.6 649.48C345.91 650.06 346.32 650.5 346.84 650.78C347.36 651.06 347.93 651.21 348.55 651.21C349.17 651.21 349.75 651.06 350.3 650.77H350.29Z" fill="#424242"/>
<path d="M364.31 643.11C365.1 643.88 365.49 644.98 365.49 646.43V652.57H363.78V646.68C363.78 645.64 363.52 644.85 363 644.3C362.48 643.75 361.77 643.47 360.87 643.47C359.97 643.47 359.23 643.75 358.69 644.32C358.15 644.89 357.88 645.72 357.88 646.81V652.57H356.15V642.16H357.88V643.64C358.22 643.11 358.69 642.7 359.28 642.4C359.87 642.11 360.52 641.96 361.23 641.96C362.5 641.96 363.52 642.34 364.31 643.11Z" fill="#424242"/>
<path d="M370.43 643.57V649.71C370.43 650.22 370.54 650.57 370.75 650.78C370.97 650.99 371.34 651.09 371.87 651.09H373.14V652.55H371.58C370.62 652.55 369.89 652.33 369.41 651.88C368.93 651.44 368.69 650.71 368.69 649.7V643.56H367.34V642.14H368.69V639.52H370.42V642.14H373.14V643.56H370.42L370.43 643.57Z" fill="#424242"/>
<path d="M375.23 644.51C375.66 643.71 376.25 643.08 377.01 642.64C377.77 642.2 378.6 641.97 379.53 641.97C380.46 641.97 381.23 642.17 381.91 642.56C382.59 642.95 383.08 643.45 383.41 644.04V642.14H385.16V652.55H383.41V650.61C383.07 651.22 382.56 651.72 381.88 652.12C381.2 652.52 380.42 652.72 379.51 652.72C378.6 652.72 377.75 652.49 377 652.04C376.25 651.59 375.66 650.94 375.23 650.12C374.8 649.3 374.59 648.36 374.59 647.31C374.59 646.26 374.8 645.31 375.23 644.51ZM382.93 645.28C382.61 644.7 382.19 644.25 381.65 643.94C381.11 643.63 380.52 643.47 379.87 643.47C379.22 643.47 378.64 643.62 378.1 643.93C377.57 644.23 377.14 644.68 376.83 645.26C376.52 645.84 376.36 646.53 376.36 647.31C376.36 648.09 376.52 648.8 376.83 649.39C377.15 649.98 377.57 650.43 378.1 650.74C378.63 651.05 379.22 651.21 379.87 651.21C380.52 651.21 381.11 651.05 381.65 650.74C382.19 650.43 382.61 649.98 382.93 649.39C383.25 648.8 383.4 648.11 383.4 647.33C383.4 646.55 383.24 645.86 382.93 645.28Z" fill="#424242"/>
<path d="M388.63 652.33C388.4 652.1 388.29 651.82 388.29 651.49C388.29 651.16 388.41 650.88 388.63 650.65C388.86 650.42 389.14 650.31 389.47 650.31C389.8 650.31 390.06 650.42 390.28 650.65C390.5 650.88 390.61 651.16 390.61 651.49C390.61 651.82 390.5 652.1 390.28 652.33C390.06 652.56 389.79 652.67 389.47 652.67C389.15 652.67 388.86 652.56 388.63 652.33ZM390.32 639.32L390.11 648.82H388.67L388.46 639.32H390.32Z" fill="#424242"/>
<path d="M527.18 288.98C546.201 288.98 561.62 273.534 561.62 254.48C561.62 235.426 546.201 219.98 527.18 219.98C508.159 219.98 492.74 235.426 492.74 254.48C492.74 273.534 508.159 288.98 527.18 288.98Z" fill="#E8E3E6"/>
<path d="M527.22 286C546.241 286 561.66 270.554 561.66 251.5C561.66 232.446 546.241 217 527.22 217C508.199 217 492.78 232.446 492.78 251.5C492.78 270.554 508.199 286 527.22 286Z" fill="#FFF8FC"/>
<path d="M511.97 247.72L525.94 233.72C528.3 231.36 532.34 233.03 532.34 236.37V266.57C532.34 269.87 528.39 271.57 526 269.28L511.97 255.84V247.71V247.72Z" fill="#C8A9F2"/>
<path d="M510.77 249.2C510.77 248.366 510.094 247.69 509.26 247.69C508.426 247.69 507.75 248.366 507.75 249.2V253.75C507.75 254.584 508.426 255.26 509.26 255.26C510.094 255.26 510.77 254.584 510.77 253.75V249.2Z" fill="#C8A9F2"/>
<path d="M536.09 259.57C537.2 258.62 538.74 254.27 538.74 251.47C538.74 248.67 537.7 244.75 536.09 243.37" fill="#C8A9F2"/>
<path d="M540.65 262.19C542.12 260.93 544.15 255.18 544.15 251.47C544.15 247.76 542.78 242.57 540.65 240.75" fill="#C8A9F2"/>
<path d="M298.53 312.35L199.06 412.78L299 596.27L297 595.27L392.49 412.78L298.53 312.35Z" fill="#CCCCCC"/>
<path d="M175.63 293.85L122.07 467.93L296.14 591.78L175.63 293.85Z" fill="#CCCCCC"/>
<path d="M418.65 293.85L472.21 467.93L298.14 591.78L418.65 293.85Z" fill="#CCCCCC"/>
<path d="M298.53 297.35L199.06 397.78L296.5 585.77H298.5L392.49 397.78L298.53 297.35Z" fill="white" stroke="#E0E0E0" stroke-miterlimit="10"/>
<path d="M175.63 287.35L122.07 461.43L296.14 585.28L175.63 287.35Z" fill="white" stroke="#E0E0E0" stroke-miterlimit="10"/>
<path d="M418.65 287.35L472.21 461.43L298.14 585.28L418.65 287.35Z" fill="white" stroke="#E0E0E0" stroke-miterlimit="10"/>
<path d="M376 380.27L380 384.27L298.14 585.28L376 380.27Z" fill="#DBDBDB"/>
<path d="M218.14 380.27L214.14 384.27L296 585.28L218.14 380.27Z" fill="#DBDBDB"/>
<path d="M939.03 190.65L799.47 274.46L854.78 511.95L857.02 512.52L1015.34 329.43L939.03 190.65Z" fill="#D19FA6"/>
<path d="M804.71 144.56L695.46 323.6L854.52 511.31L804.71 144.56Z" fill="#E1A9AF"/>
<path d="M1075.92 213.63L1086.23 423.12L856.76 511.87L1075.92 213.63Z" fill="#E1A9AF"/>
<path d="M1001.81 302.67L1005.22 308.22L859.8 511.52L1001.81 302.67Z" fill="#B78D95"/>
<path d="M824.98 260.48L819.43 263.9L857.4 510.95L824.98 260.48Z" fill="#B78D95"/>
<path d="M830.5 604.99C830.5 604.99 833 555.28 779 559.28C725 563.28 719 546.28 719 546.28C719 546.28 737 649.71 830.5 604.99Z" fill="#87CC8C"/>
</svg>
