<svg width="841" height="594" viewBox="0 0 841 594" fill="none" xmlns="http://www.w3.org/2000/svg">
<path d="M552.58 24.27H321.15C304.686 24.27 291.34 37.6164 291.34 54.08V64.46C291.34 80.9236 304.686 94.27 321.15 94.27H552.58C569.043 94.27 582.39 80.9236 582.39 64.46V54.08C582.39 37.6164 569.043 24.27 552.58 24.27Z" fill="#C8A9F2"/>
<path d="M386.48 1.58011C387.43 2.06011 388.15 2.75011 388.66 3.65011C389.16 4.54011 389.42 5.60011 389.42 6.81011C389.42 8.02011 389.17 9.07011 388.66 9.96011C388.16 10.8501 387.43 11.5301 386.48 12.0001C385.53 12.4701 384.41 12.7101 383.12 12.7101H379.43V0.860107H383.12C384.41 0.860107 385.53 1.10011 386.48 1.58011ZM386.63 10.2101C387.43 9.40011 387.84 8.26011 387.84 6.80011C387.84 5.34011 387.43 4.18011 386.62 3.35011C385.81 2.52011 384.65 2.11011 383.13 2.11011H380.99V11.4301H383.13C384.66 11.4301 385.83 11.0301 386.63 10.2201V10.2101Z" fill="#A8A8A8"/>
<path d="M393.15 12.2602C392.44 11.8602 391.89 11.3002 391.48 10.5702C391.08 9.84023 390.88 8.99023 390.88 8.03023C390.88 7.07023 391.09 6.24023 391.5 5.51023C391.91 4.78023 392.48 4.22023 393.19 3.83023C393.9 3.44023 394.7 3.24023 395.59 3.24023C396.48 3.24023 397.27 3.44023 397.99 3.83023C398.7 4.22023 399.27 4.78023 399.68 5.50023C400.09 6.22023 400.3 7.07023 400.3 8.03023C400.3 8.99023 400.09 9.84023 399.66 10.5702C399.24 11.3002 398.66 11.8602 397.93 12.2602C397.2 12.6602 396.4 12.8602 395.52 12.8602C394.64 12.8602 393.86 12.6602 393.15 12.2602ZM397.08 11.1102C397.57 10.8502 397.96 10.4602 398.26 9.94023C398.56 9.42023 398.71 8.78023 398.71 8.04023C398.71 7.30023 398.56 6.66023 398.27 6.14023C397.98 5.62023 397.59 5.23023 397.11 4.98023C396.63 4.73023 396.12 4.60023 395.56 4.60023C395 4.60023 394.48 4.73023 394 4.98023C393.53 5.23023 393.15 5.62023 392.87 6.14023C392.59 6.66023 392.44 7.30023 392.44 8.04023C392.44 8.78023 392.58 9.44023 392.86 9.96023C393.14 10.4802 393.51 10.8702 393.97 11.1202C394.43 11.3702 394.94 11.5002 395.5 11.5002C396.06 11.5002 396.58 11.3702 397.06 11.1102H397.08Z" fill="#A8A8A8"/>
<path d="M405.28 3.76012C405.89 3.41012 406.59 3.23012 407.37 3.23012C408.21 3.23012 408.96 3.43012 409.63 3.82012C410.3 4.22012 410.83 4.78012 411.21 5.49012C411.6 6.21012 411.79 7.05012 411.79 8.00012C411.79 8.95012 411.6 9.78012 411.21 10.5201C410.83 11.2601 410.29 11.8301 409.62 12.2401C408.95 12.6501 408.19 12.8501 407.37 12.8501C406.55 12.8501 405.86 12.6701 405.25 12.3201C404.64 11.9701 404.19 11.5201 403.88 10.9801V12.7001H402.33V0.120117H403.88V5.12012C404.2 4.57012 404.66 4.11012 405.27 3.76012H405.28ZM409.78 6.18012C409.5 5.66012 409.11 5.26012 408.63 4.99012C408.15 4.72012 407.62 4.58012 407.04 4.58012C406.46 4.58012 405.95 4.72012 405.47 5.00012C404.99 5.28012 404.6 5.68012 404.31 6.21012C404.02 6.74012 403.88 7.35012 403.88 8.04012C403.88 8.73012 404.02 9.36012 404.31 9.88012C404.6 10.4101 404.98 10.8101 405.47 11.0901C405.95 11.3701 406.48 11.5101 407.04 11.5101C407.6 11.5101 408.15 11.3701 408.63 11.0901C409.11 10.8101 409.49 10.4101 409.78 9.88012C410.06 9.35012 410.2 8.73012 410.2 8.02012C410.2 7.31012 410.06 6.71012 409.78 6.18012Z" fill="#A8A8A8"/>
<path d="M416.54 3.66021C417.04 3.37021 417.66 3.22021 418.38 3.22021V4.82021H417.97C416.24 4.82021 415.37 5.76022 415.37 7.64022V12.7102H413.82V3.39021H415.37V4.90021C415.64 4.37021 416.03 3.95021 416.53 3.66021H416.54Z" fill="#A8A8A8"/>
<path d="M420.17 5.51C420.56 4.79 421.09 4.23 421.76 3.84C422.43 3.44 423.18 3.25 424.01 3.25C424.84 3.25 425.53 3.43 426.13 3.78C426.73 4.13 427.18 4.57 427.47 5.11V3.41H429.03V12.73H427.47V11C427.16 11.54 426.71 12 426.1 12.35C425.49 12.71 424.79 12.89 423.98 12.89C423.17 12.89 422.4 12.69 421.74 12.28C421.08 11.87 420.54 11.3 420.16 10.56C419.78 9.82 419.58 8.98 419.58 8.04C419.58 7.1 419.77 6.25 420.16 5.53L420.17 5.51ZM427.05 6.19C426.77 5.67 426.38 5.27 425.9 4.99C425.42 4.71 424.89 4.57 424.31 4.57C423.73 4.57 423.2 4.71 422.73 4.98C422.25 5.25 421.87 5.65 421.59 6.17C421.31 6.69 421.16 7.3 421.16 8.01C421.16 8.72 421.3 9.34 421.59 9.87C421.87 10.4 422.25 10.8 422.73 11.08C423.21 11.36 423.73 11.5 424.31 11.5C424.89 11.5 425.42 11.36 425.9 11.08C426.38 10.8 426.76 10.4 427.05 9.87C427.33 9.34 427.47 8.73 427.47 8.03C427.47 7.33 427.33 6.72 427.05 6.19Z" fill="#A8A8A8"/>
<path d="M431.66 5.51014C432.05 4.79014 432.58 4.23014 433.25 3.84014C433.92 3.44014 434.68 3.25014 435.52 3.25014C436.25 3.25014 436.92 3.42014 437.54 3.75014C438.16 4.08014 438.64 4.52014 438.97 5.07014V0.140137H440.53V12.7201H438.97V10.9701C438.66 11.5301 438.21 11.9801 437.61 12.3401C437.01 12.7001 436.31 12.8801 435.5 12.8801C434.69 12.8801 433.92 12.6801 433.25 12.2701C432.58 11.8601 432.05 11.2901 431.66 10.5501C431.28 9.81014 431.08 8.97014 431.08 8.03014C431.08 7.09014 431.27 6.24014 431.66 5.52014V5.51014ZM438.55 6.19014C438.27 5.67014 437.88 5.27014 437.4 4.99014C436.92 4.71014 436.39 4.57014 435.81 4.57014C435.23 4.57014 434.7 4.71014 434.23 4.98014C433.75 5.25014 433.37 5.65014 433.09 6.17014C432.81 6.69014 432.66 7.30014 432.66 8.01014C432.66 8.72014 432.8 9.34014 433.09 9.87014C433.37 10.4001 433.75 10.8001 434.23 11.0801C434.71 11.3601 435.23 11.5001 435.81 11.5001C436.39 11.5001 436.92 11.3601 437.4 11.0801C437.88 10.8001 438.26 10.4001 438.55 9.87014C438.83 9.34014 438.97 8.73014 438.97 8.03014C438.97 7.33014 438.83 6.72014 438.55 6.19014Z" fill="#A8A8A8"/>
<path d="M451.42 3.39014V12.7101H449.87V11.3301C449.58 11.8101 449.16 12.1801 448.64 12.4401C448.11 12.7101 447.53 12.8401 446.9 12.8401C446.17 12.8401 445.52 12.6901 444.94 12.3901C444.36 12.0901 443.91 11.6401 443.57 11.0401C443.24 10.4401 443.07 9.71014 443.07 8.85014V3.39014H444.6V8.64014C444.6 9.56014 444.83 10.2601 445.3 10.7601C445.77 11.2601 446.4 11.5001 447.2 11.5001C448 11.5001 448.68 11.2501 449.15 10.7401C449.63 10.2301 449.86 9.49014 449.86 8.51014V3.39014H451.41H451.42Z" fill="#A8A8A8"/>
<path d="M456.75 3.66021C457.25 3.37021 457.87 3.22021 458.59 3.22021V4.82021H458.18C456.45 4.82021 455.58 5.76022 455.58 7.64022V12.7102H454.03V3.39021H455.58V4.90021C455.85 4.37021 456.24 3.95021 456.74 3.66021H456.75Z" fill="#A8A8A8"/>
<path d="M460.37 5.51C460.76 4.79 461.29 4.23 461.96 3.84C462.63 3.44 463.38 3.25 464.21 3.25C465.04 3.25 465.73 3.43 466.33 3.78C466.93 4.13 467.38 4.57 467.67 5.11V3.41H469.23V12.73H467.67V11C467.36 11.54 466.91 12 466.3 12.35C465.69 12.71 464.99 12.89 464.18 12.89C463.37 12.89 462.6 12.69 461.94 12.28C461.28 11.87 460.74 11.3 460.36 10.56C459.98 9.82 459.78 8.98 459.78 8.04C459.78 7.1 459.97 6.25 460.36 5.53L460.37 5.51ZM467.26 6.19C466.98 5.67 466.59 5.27 466.11 4.99C465.63 4.71 465.1 4.57 464.52 4.57C463.94 4.57 463.41 4.71 462.94 4.98C462.46 5.25 462.08 5.65 461.8 6.17C461.52 6.69 461.37 7.3 461.37 8.01C461.37 8.72 461.51 9.34 461.8 9.87C462.08 10.4 462.46 10.8 462.94 11.08C463.42 11.36 463.94 11.5 464.52 11.5C465.1 11.5 465.63 11.36 466.11 11.08C466.59 10.8 466.97 10.4 467.26 9.87C467.54 9.34 467.68 8.73 467.68 8.03C467.68 7.33 467.54 6.72 467.26 6.19Z" fill="#A8A8A8"/>
<path d="M473.24 12.4902C472.67 12.2502 472.23 11.9102 471.9 11.4702C471.57 11.0302 471.39 10.5302 471.36 9.97023H472.96C473 10.4302 473.22 10.8102 473.61 11.1102C474 11.4002 474.51 11.5502 475.15 11.5502C475.74 11.5502 476.2 11.4202 476.54 11.1602C476.88 10.9002 477.05 10.5702 477.05 10.1702C477.05 9.77023 476.87 9.46023 476.51 9.26023C476.15 9.06024 475.59 8.87023 474.83 8.67023C474.14 8.49023 473.58 8.30023 473.14 8.12023C472.7 7.93023 472.33 7.66023 472.02 7.29023C471.71 6.92023 471.55 6.44023 471.55 5.84023C471.55 5.36023 471.69 4.93023 471.97 4.53023C472.25 4.13023 472.66 3.82023 473.18 3.59023C473.7 3.36023 474.3 3.24023 474.97 3.24023C476 3.24023 476.83 3.50024 477.47 4.02024C478.1 4.54024 478.44 5.26023 478.49 6.16023H476.94C476.91 5.67023 476.71 5.28023 476.35 4.99023C475.99 4.70023 475.51 4.55023 474.91 4.55023C474.36 4.55023 473.91 4.67023 473.58 4.91023C473.25 5.15023 473.09 5.46023 473.09 5.84023C473.09 6.15023 473.19 6.40023 473.39 6.60023C473.59 6.80024 473.84 6.96023 474.14 7.08023C474.44 7.20023 474.86 7.33023 475.39 7.48023C476.06 7.66023 476.6 7.84024 477.02 8.02024C477.44 8.20023 477.8 8.46024 478.1 8.81024C478.4 9.16023 478.56 9.62023 478.57 10.1902C478.57 10.7002 478.43 11.1602 478.15 11.5702C477.87 11.9802 477.47 12.3002 476.95 12.5302C476.43 12.7602 475.84 12.8802 475.17 12.8802C474.46 12.8802 473.82 12.7602 473.25 12.5102L473.24 12.4902Z" fill="#A8A8A8"/>
<path d="M387.62 60.5801C388.46 61.2501 389.13 62.0701 389.62 63.0601C390.11 64.0501 390.36 65.1001 390.36 66.2201C390.36 67.6301 390 68.9101 389.28 70.0401C388.56 71.1701 387.51 72.0701 386.14 72.7201C384.77 73.3701 383.15 73.7001 381.28 73.7001H370.88V45.8201H380.88C382.77 45.8201 384.39 46.1301 385.72 46.7601C387.05 47.3901 388.05 48.2301 388.72 49.3001C389.39 50.3701 389.72 51.5701 389.72 52.9001C389.72 54.5501 389.27 55.9201 388.38 57.0001C387.49 58.0801 386.31 58.8601 384.84 59.3401C385.85 59.5001 386.78 59.9101 387.62 60.5801ZM374.53 57.8601H380.65C382.36 57.8601 383.68 57.4601 384.61 56.6601C385.54 55.8601 386.01 54.7501 386.01 53.3401C386.01 51.9301 385.54 50.8201 384.61 50.0201C383.68 49.2201 382.33 48.8201 380.57 48.8201H374.53V57.8601ZM385.21 69.4201C386.22 68.5701 386.73 67.3801 386.73 65.8601C386.73 64.3401 386.2 63.0901 385.13 62.2001C384.06 61.3101 382.64 60.8601 380.85 60.8601H374.53V70.7001H380.97C382.78 70.7001 384.2 70.2701 385.21 69.4201Z" fill="white"/>
<path d="M411.88 67.5H399.72L397.48 73.7H393.64L403.72 45.98H407.92L417.96 73.7H414.12L411.88 67.5ZM410.84 64.54L405.8 50.46L400.76 64.54H410.84Z" fill="white"/>
<path d="M437.04 73.7001L430.4 62.3001H426V73.7001H422.36V45.8201H431.36C433.47 45.8201 435.24 46.1801 436.7 46.9001C438.15 47.6201 439.24 48.5901 439.96 49.8201C440.68 51.0501 441.04 52.4501 441.04 54.0201C441.04 55.9401 440.49 57.6301 439.38 59.1001C438.27 60.5701 436.61 61.5401 434.4 62.0201L441.4 73.7001H437.04ZM426 59.3801H431.36C433.33 59.3801 434.81 58.8901 435.8 57.9201C436.79 56.9501 437.28 55.6501 437.28 54.0201C437.28 52.3901 436.79 51.0901 435.82 50.1801C434.85 49.2701 433.36 48.8201 431.36 48.8201H426V59.3801Z" fill="white"/>
<path d="M447.16 52.4C448.39 50.23 450.06 48.53 452.18 47.3C454.3 46.07 456.65 45.46 459.24 45.46C462.28 45.46 464.93 46.19 467.2 47.66C469.47 49.13 471.12 51.21 472.16 53.9H467.8C467.02 52.22 465.91 50.93 464.46 50.02C463 49.11 461.26 48.66 459.24 48.66C457.22 48.66 455.55 49.11 454 50.02C452.45 50.93 451.24 52.21 450.36 53.88C449.48 55.55 449.04 57.5 449.04 59.74C449.04 61.98 449.48 63.89 450.36 65.56C451.24 67.23 452.45 68.51 454 69.42C455.55 70.33 457.29 70.78 459.24 70.78C461.19 70.78 463.01 70.33 464.46 69.44C465.91 68.55 467.02 67.26 467.8 65.58H472.16C471.12 68.25 469.47 70.31 467.2 71.76C464.93 73.21 462.28 73.94 459.24 73.94C456.65 73.94 454.3 73.33 452.18 72.12C450.06 70.91 448.39 69.22 447.16 67.06C445.93 64.9 445.32 62.46 445.32 59.74C445.32 57.02 445.93 54.57 447.16 52.4Z" fill="white"/>
<path d="M483.12 72.16C480.99 70.95 479.3 69.25 478.06 67.08C476.82 64.91 476.2 62.46 476.2 59.74C476.2 57.02 476.82 54.57 478.06 52.4C479.3 50.23 480.99 48.53 483.12 47.32C485.25 46.11 487.61 45.5 490.2 45.5C492.79 45.5 495.19 46.11 497.32 47.32C499.45 48.53 501.13 50.22 502.36 52.38C503.59 54.54 504.2 56.99 504.2 59.74C504.2 62.49 503.59 64.94 502.36 67.1C501.13 69.26 499.45 70.95 497.32 72.16C495.19 73.37 492.81 73.98 490.2 73.98C487.59 73.98 485.25 73.37 483.12 72.16ZM495.46 69.46C497.02 68.55 498.25 67.26 499.14 65.58C500.03 63.9 500.48 61.95 500.48 59.74C500.48 57.53 500.03 55.55 499.14 53.88C498.25 52.21 497.02 50.93 495.48 50.02C493.93 49.11 492.17 48.66 490.2 48.66C488.23 48.66 486.47 49.11 484.92 50.02C483.37 50.93 482.15 52.21 481.26 53.88C480.37 55.55 479.92 57.5 479.92 59.74C479.92 61.98 480.37 63.9 481.26 65.58C482.15 67.26 483.38 68.55 484.94 69.46C486.5 70.37 488.25 70.82 490.2 70.82C492.15 70.82 493.9 70.37 495.46 69.46Z" fill="white"/>
<path d="M608.34 387.17L396.15 207L196.47 447.63L200.37 490.18L614.3 452.29L608.34 387.17Z" fill="#9C8ABF"/>
<path d="M396.09 206.35L162.79 491.67L420.88 477.15L396.09 206.35Z" fill="#BAA1E2"/>
<path d="M396.09 206.35L672.39 440.48L435.24 484.94L396.09 206.35Z" fill="#BAA1E2"/>
<path d="M40.1698 593.92L0.279785 456.49L799.14 383.36L827.42 521.86L40.1698 593.92Z" fill="#C8A9F2"/>
<path d="M825.49 522.04L841 393.18L801.88 396.76L825.49 522.04Z" fill="#BAA1E2"/>
</svg>
