<svg width="1209" height="720" viewBox="0 0 1209 720" fill="none" xmlns="http://www.w3.org/2000/svg">
<path d="M722.85 24.27H491.42C474.956 24.27 461.61 37.6164 461.61 54.08V64.46C461.61 80.9236 474.956 94.27 491.42 94.27H722.85C739.313 94.27 752.66 80.9236 752.66 64.46V54.08C752.66 37.6164 739.313 24.27 722.85 24.27Z" fill="#CCA98B"/>
<path d="M561.48 1.57999C562.43 2.05999 563.15 2.74999 563.66 3.64999C564.16 4.53999 564.42 5.59999 564.42 6.80999C564.42 8.01999 564.17 9.06999 563.66 9.95999C563.16 10.85 562.43 11.53 561.48 12C560.53 12.47 559.41 12.71 558.12 12.71H554.43V0.859985H558.12C559.41 0.859985 560.53 1.09999 561.48 1.57999ZM561.63 10.21C562.43 9.39999 562.84 8.25999 562.84 6.79999C562.84 5.33999 562.43 4.17999 561.62 3.34999C560.81 2.51999 559.65 2.10999 558.13 2.10999H555.99V11.43H558.13C559.66 11.43 560.83 11.03 561.63 10.22V10.21Z" fill="#A8A8A8"/>
<path d="M568.15 12.26C567.44 11.86 566.89 11.3 566.48 10.57C566.08 9.83999 565.88 8.98999 565.88 8.02999C565.88 7.06999 566.09 6.23999 566.5 5.50999C566.91 4.77999 567.48 4.21999 568.19 3.82999C568.9 3.43999 569.7 3.23999 570.59 3.23999C571.48 3.23999 572.27 3.43999 572.99 3.82999C573.7 4.21999 574.27 4.77999 574.68 5.49999C575.09 6.21999 575.3 7.06999 575.3 8.02999C575.3 8.98999 575.09 9.83999 574.66 10.57C574.24 11.3 573.66 11.86 572.93 12.26C572.2 12.66 571.4 12.86 570.52 12.86C569.64 12.86 568.86 12.66 568.15 12.26ZM572.08 11.11C572.57 10.85 572.96 10.46 573.26 9.93999C573.56 9.41999 573.71 8.77999 573.71 8.03999C573.71 7.29999 573.56 6.65999 573.27 6.13999C572.98 5.61999 572.59 5.22999 572.11 4.97999C571.63 4.72999 571.12 4.59999 570.56 4.59999C570 4.59999 569.48 4.72999 569 4.97999C568.53 5.22999 568.15 5.61999 567.87 6.13999C567.59 6.65999 567.44 7.29999 567.44 8.03999C567.44 8.77999 567.58 9.43999 567.86 9.95999C568.14 10.48 568.51 10.87 568.97 11.12C569.43 11.37 569.94 11.5 570.5 11.5C571.06 11.5 571.58 11.37 572.06 11.11H572.08Z" fill="#A8A8A8"/>
<path d="M580.28 3.76C580.89 3.41 581.59 3.23 582.37 3.23C583.21 3.23 583.96 3.43 584.63 3.82C585.3 4.22 585.83 4.77999 586.21 5.49C586.6 6.21 586.79 7.05 586.79 8C586.79 8.95 586.6 9.78 586.21 10.52C585.83 11.26 585.29 11.83 584.62 12.24C583.95 12.65 583.19 12.85 582.37 12.85C581.55 12.85 580.86 12.67 580.25 12.32C579.64 11.97 579.19 11.52 578.88 10.98V12.7H577.33V0.119995H578.88V5.12C579.2 4.56999 579.66 4.11 580.27 3.76H580.28ZM584.78 6.18C584.5 5.66 584.11 5.25999 583.63 4.99C583.15 4.72 582.62 4.58 582.04 4.58C581.46 4.58 580.95 4.72 580.47 5C579.99 5.28 579.6 5.68 579.31 6.21C579.02 6.74 578.88 7.35 578.88 8.04C578.88 8.72999 579.02 9.35999 579.31 9.88C579.6 10.41 579.98 10.81 580.47 11.09C580.95 11.37 581.48 11.51 582.04 11.51C582.6 11.51 583.15 11.37 583.63 11.09C584.11 10.81 584.49 10.41 584.78 9.88C585.06 9.35 585.2 8.73 585.2 8.02C585.2 7.31 585.06 6.71 584.78 6.18Z" fill="#A8A8A8"/>
<path d="M591.54 3.66C592.04 3.37 592.66 3.22 593.38 3.22V4.82H592.97C591.24 4.82 590.37 5.76 590.37 7.64V12.71H588.82V3.39H590.37V4.9C590.64 4.37 591.03 3.95 591.53 3.66H591.54Z" fill="#A8A8A8"/>
<path d="M595.17 5.51C595.56 4.79 596.09 4.23 596.76 3.84C597.43 3.44 598.18 3.25 599.01 3.25C599.84 3.25 600.53 3.43 601.13 3.78C601.73 4.13 602.18 4.57 602.47 5.11V3.41H604.03V12.73H602.47V11C602.16 11.54 601.71 12 601.1 12.35C600.49 12.71 599.79 12.89 598.98 12.89C598.17 12.89 597.4 12.69 596.74 12.28C596.08 11.87 595.54 11.3 595.16 10.56C594.78 9.82 594.58 8.98 594.58 8.04C594.58 7.1 594.77 6.25 595.16 5.53L595.17 5.51ZM602.05 6.19C601.77 5.67 601.38 5.27 600.9 4.99C600.42 4.71 599.89 4.57 599.31 4.57C598.73 4.57 598.2 4.71 597.73 4.98C597.25 5.25 596.87 5.65 596.59 6.17C596.31 6.69 596.16 7.3 596.16 8.01C596.16 8.72 596.3 9.34 596.59 9.87C596.87 10.4 597.25 10.8 597.73 11.08C598.21 11.36 598.73 11.5 599.31 11.5C599.89 11.5 600.42 11.36 600.9 11.08C601.38 10.8 601.76 10.4 602.05 9.87C602.33 9.34 602.47 8.73 602.47 8.03C602.47 7.33 602.33 6.72 602.05 6.19Z" fill="#A8A8A8"/>
<path d="M606.66 5.50998C607.05 4.78998 607.58 4.22998 608.25 3.83998C608.92 3.43998 609.68 3.24998 610.52 3.24998C611.25 3.24998 611.92 3.41998 612.54 3.74998C613.16 4.07998 613.64 4.51998 613.97 5.06998V0.139984H615.53V12.72H613.97V10.97C613.66 11.53 613.21 11.98 612.61 12.34C612.01 12.7 611.31 12.88 610.5 12.88C609.69 12.88 608.92 12.68 608.25 12.27C607.58 11.86 607.05 11.29 606.66 10.55C606.28 9.80998 606.08 8.96998 606.08 8.02998C606.08 7.08998 606.27 6.23998 606.66 5.51998V5.50998ZM613.55 6.18998C613.27 5.66998 612.88 5.26998 612.4 4.98998C611.92 4.70998 611.39 4.56998 610.81 4.56998C610.23 4.56998 609.7 4.70998 609.23 4.97998C608.75 5.24998 608.37 5.64998 608.09 6.16998C607.81 6.68998 607.66 7.29998 607.66 8.00998C607.66 8.71998 607.8 9.33998 608.09 9.86998C608.37 10.4 608.75 10.8 609.23 11.08C609.71 11.36 610.23 11.5 610.81 11.5C611.39 11.5 611.92 11.36 612.4 11.08C612.88 10.8 613.26 10.4 613.55 9.86998C613.83 9.33998 613.97 8.72998 613.97 8.02998C613.97 7.32998 613.83 6.71998 613.55 6.18998Z" fill="#A8A8A8"/>
<path d="M626.42 3.38998V12.71H624.87V11.33C624.58 11.81 624.16 12.18 623.64 12.44C623.11 12.71 622.53 12.84 621.9 12.84C621.17 12.84 620.52 12.69 619.94 12.39C619.36 12.09 618.91 11.64 618.57 11.04C618.24 10.44 618.07 9.70998 618.07 8.84998V3.38998H619.6V8.63998C619.6 9.55998 619.83 10.26 620.3 10.76C620.77 11.26 621.4 11.5 622.2 11.5C623 11.5 623.68 11.25 624.15 10.74C624.63 10.23 624.86 9.48998 624.86 8.50998V3.38998H626.41H626.42Z" fill="#A8A8A8"/>
<path d="M631.75 3.66C632.25 3.37 632.87 3.22 633.59 3.22V4.82H633.18C631.45 4.82 630.58 5.76 630.58 7.64V12.71H629.03V3.39H630.58V4.9C630.85 4.37 631.24 3.95 631.74 3.66H631.75Z" fill="#A8A8A8"/>
<path d="M635.37 5.51C635.76 4.79 636.29 4.23 636.96 3.84C637.63 3.44 638.38 3.25 639.21 3.25C640.04 3.25 640.73 3.43 641.33 3.78C641.93 4.13 642.38 4.57 642.67 5.11V3.41H644.23V12.73H642.67V11C642.36 11.54 641.91 12 641.3 12.35C640.69 12.71 639.99 12.89 639.18 12.89C638.37 12.89 637.6 12.69 636.94 12.28C636.28 11.87 635.74 11.3 635.36 10.56C634.98 9.82 634.78 8.98 634.78 8.04C634.78 7.1 634.97 6.25 635.36 5.53L635.37 5.51ZM642.26 6.19C641.98 5.67 641.59 5.27 641.11 4.99C640.63 4.71 640.1 4.57 639.52 4.57C638.94 4.57 638.41 4.71 637.94 4.98C637.46 5.25 637.08 5.65 636.8 6.17C636.52 6.69 636.37 7.3 636.37 8.01C636.37 8.72 636.51 9.34 636.8 9.87C637.08 10.4 637.46 10.8 637.94 11.08C638.42 11.36 638.94 11.5 639.52 11.5C640.1 11.5 640.63 11.36 641.11 11.08C641.59 10.8 641.97 10.4 642.26 9.87C642.54 9.34 642.68 8.73 642.68 8.03C642.68 7.33 642.54 6.72 642.26 6.19Z" fill="#A8A8A8"/>
<path d="M648.24 12.49C647.67 12.25 647.23 11.91 646.9 11.47C646.57 11.03 646.39 10.53 646.36 9.96999H647.96C648 10.43 648.22 10.81 648.61 11.11C649 11.4 649.51 11.55 650.15 11.55C650.74 11.55 651.2 11.42 651.54 11.16C651.88 10.9 652.05 10.57 652.05 10.17C652.05 9.76999 651.87 9.45999 651.51 9.25999C651.15 9.05999 650.59 8.86999 649.83 8.66999C649.14 8.48999 648.58 8.29999 648.14 8.11999C647.7 7.92999 647.33 7.65999 647.02 7.28999C646.71 6.91999 646.55 6.43999 646.55 5.83999C646.55 5.35999 646.69 4.92999 646.97 4.52999C647.25 4.12999 647.66 3.81999 648.18 3.58999C648.7 3.35999 649.3 3.23999 649.97 3.23999C651 3.23999 651.83 3.49999 652.47 4.01999C653.1 4.53999 653.44 5.25999 653.49 6.15999H651.94C651.91 5.66999 651.71 5.27999 651.35 4.98999C650.99 4.69999 650.51 4.54999 649.91 4.54999C649.36 4.54999 648.91 4.66999 648.58 4.90999C648.25 5.14999 648.09 5.45999 648.09 5.83999C648.09 6.14999 648.19 6.39999 648.39 6.59999C648.59 6.79999 648.84 6.95999 649.14 7.07999C649.44 7.19999 649.86 7.32999 650.39 7.47999C651.06 7.65999 651.6 7.83999 652.02 8.01999C652.44 8.19999 652.8 8.45999 653.1 8.80999C653.4 9.15999 653.56 9.61999 653.57 10.19C653.57 10.7 653.43 11.16 653.15 11.57C652.87 11.98 652.47 12.3 651.95 12.53C651.43 12.76 650.84 12.88 650.17 12.88C649.46 12.88 648.82 12.76 648.25 12.51L648.24 12.49Z" fill="#A8A8A8"/>
<path d="M496.73 52.4C497.96 50.23 499.63 48.53 501.75 47.3C503.87 46.07 506.22 45.46 508.81 45.46C511.85 45.46 514.5 46.19 516.77 47.66C519.04 49.13 520.69 51.21 521.73 53.9H517.37C516.6 52.22 515.48 50.93 514.03 50.02C512.58 49.11 510.84 48.66 508.81 48.66C506.78 48.66 505.12 49.11 503.57 50.02C502.02 50.93 500.81 52.21 499.93 53.88C499.05 55.55 498.61 57.5 498.61 59.74C498.61 61.98 499.05 63.89 499.93 65.56C500.81 67.23 502.02 68.51 503.57 69.42C505.12 70.33 506.86 70.78 508.81 70.78C510.76 70.78 512.58 70.33 514.03 69.44C515.48 68.55 516.6 67.26 517.37 65.58H521.73C520.69 68.25 519.04 70.31 516.77 71.76C514.5 73.21 511.85 73.94 508.81 73.94C506.22 73.94 503.87 73.33 501.75 72.12C499.63 70.91 497.96 69.22 496.73 67.06C495.5 64.9 494.89 62.46 494.89 59.74C494.89 57.02 495.5 54.57 496.73 52.4Z" fill="white"/>
<path d="M543.61 67.5H531.45L529.21 73.7H525.37L535.45 45.98H539.65L549.69 73.7H545.85L543.61 67.5ZM542.57 64.54L537.53 50.46L532.49 64.54H542.57Z" fill="white"/>
<path d="M554.57 52.4C555.8 50.23 557.47 48.53 559.59 47.3C561.71 46.07 564.06 45.46 566.65 45.46C569.69 45.46 572.34 46.19 574.61 47.66C576.88 49.13 578.53 51.21 579.57 53.9H575.21C574.44 52.22 573.32 50.93 571.87 50.02C570.42 49.11 568.68 48.66 566.65 48.66C564.62 48.66 562.96 49.11 561.41 50.02C559.86 50.93 558.65 52.21 557.77 53.88C556.89 55.55 556.45 57.5 556.45 59.74C556.45 61.98 556.89 63.89 557.77 65.56C558.65 67.23 559.86 68.51 561.41 69.42C562.96 70.33 564.7 70.78 566.65 70.78C568.6 70.78 570.42 70.33 571.87 69.44C573.32 68.55 574.44 67.26 575.21 65.58H579.57C578.53 68.25 576.88 70.31 574.61 71.76C572.34 73.21 569.69 73.94 566.65 73.94C564.06 73.94 561.71 73.33 559.59 72.12C557.47 70.91 555.8 69.22 554.57 67.06C553.34 64.9 552.73 62.46 552.73 59.74C552.73 57.02 553.34 54.57 554.57 52.4Z" fill="white"/>
<path d="M606.45 45.82V73.7H602.81V61.06H588.61V73.7H584.97V45.82H588.61V58.06H602.81V45.82H606.45Z" fill="white"/>
<path d="M618.21 72.16C616.08 70.95 614.39 69.25 613.15 67.08C611.91 64.91 611.29 62.46 611.29 59.74C611.29 57.02 611.91 54.57 613.15 52.4C614.39 50.23 616.08 48.53 618.21 47.32C620.34 46.11 622.7 45.5 625.29 45.5C627.88 45.5 630.28 46.11 632.41 47.32C634.54 48.53 636.22 50.22 637.45 52.38C638.68 54.54 639.29 56.99 639.29 59.74C639.29 62.49 638.68 64.94 637.45 67.1C636.22 69.26 634.54 70.95 632.41 72.16C630.28 73.37 627.9 73.98 625.29 73.98C622.68 73.98 620.34 73.37 618.21 72.16ZM630.55 69.46C632.11 68.55 633.34 67.26 634.23 65.58C635.12 63.9 635.57 61.95 635.57 59.74C635.57 57.53 635.12 55.55 634.23 53.88C633.34 52.21 632.12 50.93 630.57 50.02C629.02 49.11 627.26 48.66 625.29 48.66C623.32 48.66 621.56 49.11 620.01 50.02C618.46 50.93 617.24 52.21 616.35 53.88C615.46 55.55 615.01 57.5 615.01 59.74C615.01 61.98 615.46 63.9 616.35 65.58C617.24 67.26 618.47 68.55 620.03 69.46C621.59 70.37 623.34 70.82 625.29 70.82C627.24 70.82 628.99 70.37 630.55 69.46Z" fill="white"/>
<path d="M658.77 73.7L652.13 62.3H647.73V73.7H644.09V45.82H653.09C655.2 45.82 656.98 46.18 658.43 46.9C659.88 47.62 660.97 48.59 661.69 49.82C662.41 51.05 662.77 52.45 662.77 54.02C662.77 55.94 662.22 57.63 661.11 59.1C660 60.57 658.34 61.54 656.13 62.02L663.13 73.7H658.77ZM647.73 59.38H653.09C655.06 59.38 656.54 58.89 657.53 57.92C658.52 56.95 659.01 55.65 659.01 54.02C659.01 52.39 658.52 51.09 657.55 50.18C656.58 49.27 655.09 48.82 653.09 48.82H647.73V59.38Z" fill="white"/>
<path d="M683.09 73.7L676.45 62.3H672.05V73.7H668.41V45.82H677.41C679.52 45.82 681.3 46.18 682.75 46.9C684.2 47.62 685.29 48.59 686.01 49.82C686.73 51.05 687.09 52.45 687.09 54.02C687.09 55.94 686.54 57.63 685.43 59.1C684.32 60.57 682.66 61.54 680.45 62.02L687.45 73.7H683.09ZM672.05 59.38H677.41C679.38 59.38 680.86 58.89 681.85 57.92C682.84 56.95 683.33 55.65 683.33 54.02C683.33 52.39 682.84 51.09 681.87 50.18C680.9 49.27 679.41 48.82 677.41 48.82H672.05V59.38Z" fill="white"/>
<path d="M698.29 72.16C696.16 70.95 694.47 69.25 693.23 67.08C691.99 64.91 691.37 62.46 691.37 59.74C691.37 57.02 691.99 54.57 693.23 52.4C694.47 50.23 696.16 48.53 698.29 47.32C700.42 46.11 702.78 45.5 705.37 45.5C707.96 45.5 710.36 46.11 712.49 47.32C714.62 48.53 716.3 50.22 717.53 52.38C718.76 54.54 719.37 56.99 719.37 59.74C719.37 62.49 718.76 64.94 717.53 67.1C716.3 69.26 714.62 70.95 712.49 72.16C710.36 73.37 707.98 73.98 705.37 73.98C702.76 73.98 700.42 73.37 698.29 72.16ZM710.63 69.46C712.19 68.55 713.42 67.26 714.31 65.58C715.2 63.9 715.65 61.95 715.65 59.74C715.65 57.53 715.2 55.55 714.31 53.88C713.42 52.21 712.2 50.93 710.65 50.02C709.1 49.11 707.34 48.66 705.37 48.66C703.4 48.66 701.64 49.11 700.09 50.02C698.54 50.93 697.32 52.21 696.43 53.88C695.54 55.55 695.09 57.5 695.09 59.74C695.09 61.98 695.54 63.9 696.43 65.58C697.32 67.26 698.55 68.55 700.11 69.46C701.67 70.37 703.42 70.82 705.37 70.82C707.32 70.82 709.07 70.37 710.63 69.46Z" fill="white"/>
<path d="M554.02 200.95H70.4401C44.9964 200.95 24.3701 221.576 24.3701 247.02V673.2C24.3701 698.644 44.9964 719.27 70.4401 719.27H554.02C579.464 719.27 600.09 698.644 600.09 673.2V247.02C600.09 221.576 579.464 200.95 554.02 200.95Z" fill="#D3D3D3"/>
<path d="M549.4 191.27H65.82C40.3762 191.27 19.75 211.896 19.75 237.34V663.52C19.75 688.964 40.3762 709.59 65.82 709.59H549.4C574.844 709.59 595.47 688.964 595.47 663.52V237.34C595.47 211.896 574.844 191.27 549.4 191.27Z" fill="#FCC8A1"/>
<path d="M43.73 231.27C66.7603 231.27 85.43 212.569 85.43 189.5C85.43 166.431 66.7603 147.73 43.73 147.73C20.6998 147.73 2.03003 166.431 2.03003 189.5C2.03003 212.569 20.6998 231.27 43.73 231.27Z" fill="#CCA98B" stroke="#F2F2F2"/>
<path d="M43.69 227.67C66.7203 227.67 85.39 208.969 85.39 185.9C85.39 162.831 66.7203 144.13 43.69 144.13C20.6597 144.13 1.98999 162.831 1.98999 185.9C1.98999 208.969 20.6597 227.67 43.69 227.67Z" fill="white" stroke="#F2F2F2" stroke-width="3"/>
<path d="M27.1399 171.86C28.9399 170.28 31.3799 169.49 34.4699 169.49C36.5199 169.49 38.2699 169.84 39.7299 170.55C41.1899 171.26 42.2899 172.23 43.0399 173.46C43.7899 174.69 44.1699 176.07 44.1699 177.59C44.1699 179.39 43.7199 180.86 42.8199 181.99C41.9199 183.12 40.8699 183.89 39.6699 184.3V184.46C41.2199 184.98 42.4499 185.84 43.3499 187.04C44.2499 188.24 44.6999 189.78 44.6999 191.66C44.6999 193.35 44.3099 194.85 43.5299 196.14C42.7499 197.43 41.6199 198.45 40.1299 199.19C38.6399 199.93 36.8799 200.29 34.8299 200.29C31.5599 200.29 28.9399 199.49 26.9899 197.88C25.0399 196.27 24.0099 193.84 23.8999 190.6H30.6899C30.7199 191.8 31.0599 192.75 31.7099 193.44C32.3699 194.14 33.3199 194.48 34.5799 194.48C35.6399 194.48 36.4699 194.17 37.0599 193.56C37.6499 192.95 37.9399 192.13 37.9399 191.12C37.9399 189.81 37.5199 188.86 36.6899 188.28C35.8599 187.69 34.5299 187.4 32.6999 187.4H31.3899V181.71H32.6999C34.0899 181.71 35.2199 181.47 36.0799 180.99C36.9399 180.51 37.3699 179.66 37.3699 178.43C37.3699 177.45 37.0999 176.68 36.5499 176.14C35.9999 175.6 35.2499 175.32 34.2999 175.32C33.2599 175.32 32.4899 175.63 31.9899 176.26C31.4799 176.89 31.1899 177.67 31.1099 178.59H24.2799C24.3899 175.67 25.3399 173.42 27.1499 171.84L27.1399 171.86Z" fill="#CCA98B"/>
<path d="M49.01 174.58C49.71 173.48 50.69 172.61 51.96 171.98C53.23 171.35 54.68 171.04 56.32 171.04C57.96 171.04 59.41 171.35 60.68 171.98C61.95 172.61 62.93 173.47 63.63 174.58C64.33 175.69 64.67 176.96 64.67 178.41C64.67 179.86 64.32 181.14 63.61 182.26C62.9 183.38 61.91 184.26 60.64 184.9C59.37 185.54 57.92 185.86 56.28 185.86C54.64 185.86 53.2 185.54 51.94 184.9C50.68 184.26 49.71 183.38 49.01 182.26C48.31 181.14 47.97 179.86 47.97 178.41C47.97 176.96 48.32 175.69 49.01 174.58ZM58.4 175.95C57.83 175.38 57.12 175.09 56.27 175.09C55.42 175.09 54.76 175.38 54.2 175.95C53.64 176.52 53.36 177.36 53.36 178.45C53.36 179.54 53.63 180.33 54.18 180.91C54.73 181.49 55.42 181.77 56.27 181.77C57.12 181.77 57.82 181.48 58.4 180.89C58.97 180.3 59.26 179.49 59.26 178.46C59.26 177.37 58.97 176.54 58.4 175.96V175.95Z" fill="#CCA98B"/>
<path d="M108.29 348.27L305.83 559.66L505 348.27H108.29Z" fill="#CCCCCC"/>
<path d="M110.29 341.27L307.83 552.66L507 341.27H110.29Z" fill="white" stroke="#E0E0E0" stroke-miterlimit="10"/>
<path d="M437.95 361.03C437.95 361.03 414.07 406.03 364.02 392.49" stroke="#7A6154" stroke-width="2"/>
<path d="M352.6 388.54C358.66 388.35 366.48 387.19 371.83 384.97L365.54 392.89L365.77 403C362.84 398 357.31 392.34 352.6 388.54Z" fill="#7A6154"/>
<path d="M147.51 361.03C147.51 361.03 171.39 406.03 221.44 392.49" stroke="#7A6154" stroke-width="2"/>
<path d="M232.85 388.54C228.14 392.35 222.6 398 219.68 403L219.91 392.89L213.62 384.97C218.97 387.19 226.8 388.35 232.85 388.54Z" fill="#7A6154"/>
<path d="M357.45 341.27L448.04 413.62" stroke="#A3826F" stroke-width="2"/>
<path d="M253.01 341.27L162.41 413.62" stroke="#A3826F" stroke-width="2"/>
<path d="M105.38 177.45C104.59 178.22 103.38 178.6 101.75 178.6H99.07V184.42H97.25V170.48H101.75C103.32 170.48 104.52 170.86 105.34 171.62C106.16 172.38 106.57 173.36 106.57 174.56C106.57 175.76 106.17 176.68 105.38 177.45ZM103.99 176.44C104.47 176 104.71 175.37 104.71 174.56C104.71 172.84 103.72 171.98 101.75 171.98H99.07V177.1H101.75C102.76 177.1 103.51 176.88 103.99 176.44Z" fill="#CCA98B"/>
<path d="M108.83 175.95C109.28 175.1 109.91 174.45 110.7 173.98C111.49 173.51 112.38 173.28 113.35 173.28C114.32 173.28 115.14 173.49 115.85 173.9C116.56 174.31 117.08 174.83 117.43 175.46V173.46H119.27V184.42H117.43V182.38C117.07 183.02 116.53 183.55 115.82 183.97C115.11 184.39 114.28 184.6 113.33 184.6C112.38 184.6 111.48 184.36 110.69 183.88C109.9 183.4 109.28 182.73 108.83 181.86C108.38 180.99 108.15 180.01 108.15 178.9C108.15 177.79 108.38 176.8 108.83 175.95ZM116.93 176.76C116.6 176.15 116.15 175.68 115.58 175.35C115.01 175.02 114.39 174.86 113.71 174.86C113.03 174.86 112.41 175.02 111.85 175.34C111.29 175.66 110.84 176.13 110.51 176.74C110.18 177.35 110.01 178.07 110.01 178.9C110.01 179.73 110.18 180.47 110.51 181.09C110.84 181.71 111.29 182.18 111.85 182.51C112.41 182.84 113.03 183 113.71 183C114.39 183 115.01 182.84 115.58 182.51C116.15 182.18 116.6 181.71 116.93 181.09C117.26 180.47 117.43 179.75 117.43 178.92C117.43 178.09 117.26 177.37 116.93 176.76Z" fill="#CCA98B"/>
<path d="M123.97 184.17C123.3 183.88 122.78 183.48 122.39 182.97C122 182.46 121.79 181.87 121.75 181.2H123.63C123.68 181.75 123.94 182.19 124.4 182.54C124.86 182.89 125.46 183.06 126.21 183.06C126.9 183.06 127.45 182.91 127.85 182.6C128.25 182.29 128.45 181.91 128.45 181.44C128.45 180.97 128.24 180.6 127.81 180.37C127.38 180.14 126.72 179.91 125.83 179.68C125.02 179.47 124.35 179.25 123.84 179.03C123.33 178.81 122.89 178.48 122.52 178.05C122.15 177.62 121.97 177.05 121.97 176.34C121.97 175.78 122.14 175.27 122.47 174.8C122.8 174.33 123.28 173.96 123.89 173.69C124.5 173.42 125.2 173.28 125.99 173.28C127.2 173.28 128.18 173.59 128.93 174.2C129.68 174.81 130.08 175.65 130.13 176.72H128.31C128.27 176.15 128.04 175.69 127.62 175.34C127.2 174.99 126.64 174.82 125.93 174.82C125.28 174.82 124.76 174.96 124.37 175.24C123.98 175.52 123.79 175.89 123.79 176.34C123.79 176.7 123.91 177 124.14 177.23C124.37 177.46 124.67 177.65 125.02 177.79C125.37 177.93 125.86 178.09 126.49 178.26C127.28 178.47 127.92 178.68 128.41 178.89C128.9 179.1 129.33 179.41 129.68 179.82C130.03 180.23 130.22 180.77 130.23 181.44C130.23 182.04 130.06 182.58 129.73 183.06C129.4 183.54 128.93 183.92 128.32 184.19C127.71 184.46 127.02 184.6 126.23 184.6C125.39 184.6 124.64 184.46 123.97 184.17Z" fill="#CCA98B"/>
<path d="M134.41 184.17C133.74 183.88 133.22 183.48 132.83 182.97C132.44 182.46 132.23 181.87 132.19 181.2H134.07C134.12 181.75 134.38 182.19 134.84 182.54C135.3 182.89 135.9 183.06 136.65 183.06C137.34 183.06 137.89 182.91 138.29 182.6C138.69 182.29 138.89 181.91 138.89 181.44C138.89 180.97 138.68 180.6 138.25 180.37C137.82 180.14 137.16 179.91 136.27 179.68C135.46 179.47 134.79 179.25 134.28 179.03C133.77 178.81 133.33 178.48 132.96 178.05C132.59 177.62 132.41 177.05 132.41 176.34C132.41 175.78 132.58 175.27 132.91 174.8C133.24 174.33 133.72 173.96 134.33 173.69C134.94 173.42 135.64 173.28 136.43 173.28C137.64 173.28 138.62 173.59 139.37 174.2C140.12 174.81 140.52 175.65 140.57 176.72H138.75C138.71 176.15 138.48 175.69 138.06 175.34C137.64 174.99 137.08 174.82 136.37 174.82C135.72 174.82 135.2 174.96 134.81 175.24C134.42 175.52 134.23 175.89 134.23 176.34C134.23 176.7 134.35 177 134.58 177.23C134.81 177.46 135.11 177.65 135.46 177.79C135.81 177.93 136.3 178.09 136.93 178.26C137.72 178.47 138.36 178.68 138.85 178.89C139.34 179.1 139.77 179.41 140.12 179.82C140.47 180.23 140.66 180.77 140.67 181.44C140.67 182.04 140.5 182.58 140.17 183.06C139.84 183.54 139.37 183.92 138.76 184.19C138.15 184.46 137.46 184.6 136.67 184.6C135.83 184.6 135.08 184.46 134.41 184.17Z" fill="#CCA98B"/>
<path d="M145.22 183.9C144.39 183.43 143.73 182.77 143.26 181.91C142.79 181.05 142.55 180.05 142.55 178.92C142.55 177.79 142.79 176.81 143.28 175.95C143.77 175.09 144.43 174.43 145.27 173.97C146.11 173.51 147.05 173.28 148.09 173.28C149.13 173.28 150.07 173.51 150.91 173.97C151.75 174.43 152.41 175.09 152.9 175.94C153.39 176.79 153.63 177.79 153.63 178.92C153.63 180.05 153.38 181.05 152.88 181.91C152.38 182.77 151.7 183.43 150.85 183.9C150 184.37 149.05 184.6 148.01 184.6C146.97 184.6 146.05 184.37 145.22 183.9ZM149.85 182.54C150.42 182.23 150.89 181.77 151.24 181.16C151.59 180.55 151.77 179.8 151.77 178.92C151.77 178.04 151.6 177.29 151.25 176.68C150.9 176.07 150.45 175.61 149.89 175.31C149.33 175.01 148.72 174.86 148.07 174.86C147.42 174.86 146.79 175.01 146.24 175.31C145.69 175.61 145.24 176.07 144.91 176.68C144.58 177.29 144.41 178.04 144.41 178.92C144.41 179.8 144.57 180.57 144.9 181.18C145.23 181.79 145.66 182.25 146.21 182.55C146.76 182.85 147.36 183 148.01 183C148.66 183 149.28 182.85 149.85 182.54Z" fill="#CCA98B"/>
<path d="M1162.02 200.95H678.44C652.996 200.95 632.37 221.576 632.37 247.02V673.2C632.37 698.644 652.996 719.27 678.44 719.27H1162.02C1187.46 719.27 1208.09 698.644 1208.09 673.2V247.02C1208.09 221.576 1187.46 200.95 1162.02 200.95Z" fill="#D3D3D3"/>
<path d="M1157.6 191.27H674.02C648.576 191.27 627.95 211.896 627.95 237.34V663.52C627.95 688.964 648.576 709.59 674.02 709.59H1157.6C1183.04 709.59 1203.67 688.964 1203.67 663.52V237.34C1203.67 211.896 1183.04 191.27 1157.6 191.27Z" fill="#FCC8A1"/>
<path d="M655.73 231.27C678.76 231.27 697.43 212.569 697.43 189.5C697.43 166.431 678.76 147.73 655.73 147.73C632.7 147.73 614.03 166.431 614.03 189.5C614.03 212.569 632.7 231.27 655.73 231.27Z" fill="#CCA98B" stroke="#F2F2F2"/>
<path d="M655.69 227.67C678.721 227.67 697.39 208.969 697.39 185.9C697.39 162.831 678.721 144.13 655.69 144.13C632.66 144.13 613.99 162.831 613.99 185.9C613.99 208.969 632.66 227.67 655.69 227.67Z" fill="white" stroke="#F2F2F2" stroke-width="3"/>
<path d="M634.72 194.74V189.09L647.65 170.59H655.47V188.68H658.83V194.74H655.47V200.06H648.47V194.74H634.72ZM648.96 178.29L642.08 188.68H648.96V178.29Z" fill="#CCA98B"/>
<path d="M662.48 174.58C663.18 173.48 664.16 172.61 665.43 171.98C666.7 171.35 668.15 171.04 669.79 171.04C671.43 171.04 672.88 171.35 674.15 171.98C675.42 172.61 676.4 173.47 677.1 174.58C677.8 175.69 678.14 176.96 678.14 178.41C678.14 179.86 677.79 181.14 677.08 182.26C676.37 183.38 675.38 184.26 674.11 184.9C672.84 185.54 671.39 185.86 669.75 185.86C668.11 185.86 666.67 185.54 665.41 184.9C664.15 184.26 663.18 183.38 662.48 182.26C661.78 181.14 661.44 179.86 661.44 178.41C661.44 176.96 661.79 175.69 662.48 174.58ZM671.88 175.95C671.31 175.38 670.6 175.09 669.75 175.09C668.9 175.09 668.24 175.38 667.68 175.95C667.12 176.52 666.84 177.36 666.84 178.45C666.84 179.54 667.11 180.33 667.66 180.91C668.21 181.49 668.9 181.77 669.75 181.77C670.6 181.77 671.3 181.48 671.88 180.89C672.45 180.3 672.74 179.49 672.74 178.46C672.74 177.37 672.45 176.54 671.88 175.96V175.95Z" fill="#CCA98B"/>
<path d="M717.38 177.45C716.59 178.22 715.38 178.6 713.75 178.6H711.07V184.42H709.25V170.48H713.75C715.32 170.48 716.52 170.86 717.34 171.62C718.16 172.38 718.57 173.36 718.57 174.56C718.57 175.76 718.17 176.68 717.38 177.45ZM715.99 176.44C716.47 176 716.71 175.37 716.71 174.56C716.71 172.84 715.72 171.98 713.75 171.98H711.07V177.1H713.75C714.76 177.1 715.51 176.88 715.99 176.44Z" fill="#CCA98B"/>
<path d="M720.83 175.95C721.28 175.1 721.91 174.45 722.7 173.98C723.49 173.51 724.38 173.28 725.35 173.28C726.32 173.28 727.14 173.49 727.85 173.9C728.56 174.31 729.08 174.83 729.43 175.46V173.46H731.27V184.42H729.43V182.38C729.07 183.02 728.53 183.55 727.82 183.97C727.11 184.39 726.28 184.6 725.33 184.6C724.38 184.6 723.48 184.36 722.69 183.88C721.9 183.4 721.28 182.73 720.83 181.86C720.38 180.99 720.15 180.01 720.15 178.9C720.15 177.79 720.38 176.8 720.83 175.95ZM728.93 176.76C728.6 176.15 728.15 175.68 727.58 175.35C727.01 175.02 726.39 174.86 725.71 174.86C725.03 174.86 724.41 175.02 723.85 175.34C723.29 175.66 722.84 176.13 722.51 176.74C722.18 177.35 722.01 178.07 722.01 178.9C722.01 179.73 722.18 180.47 722.51 181.09C722.84 181.71 723.29 182.18 723.85 182.51C724.41 182.84 725.03 183 725.71 183C726.39 183 727.01 182.84 727.58 182.51C728.15 182.18 728.6 181.71 728.93 181.09C729.26 180.47 729.43 179.75 729.43 178.92C729.43 178.09 729.26 177.37 728.93 176.76Z" fill="#CCA98B"/>
<path d="M735.97 184.17C735.3 183.88 734.78 183.48 734.39 182.97C734 182.46 733.79 181.87 733.75 181.2H735.63C735.68 181.75 735.94 182.19 736.4 182.54C736.86 182.89 737.46 183.06 738.21 183.06C738.9 183.06 739.45 182.91 739.85 182.6C740.25 182.29 740.45 181.91 740.45 181.44C740.45 180.97 740.24 180.6 739.81 180.37C739.38 180.14 738.72 179.91 737.83 179.68C737.02 179.47 736.35 179.25 735.84 179.03C735.33 178.81 734.89 178.48 734.52 178.05C734.15 177.62 733.97 177.05 733.97 176.34C733.97 175.78 734.14 175.27 734.47 174.8C734.8 174.33 735.28 173.96 735.89 173.69C736.5 173.42 737.2 173.28 737.99 173.28C739.2 173.28 740.18 173.59 740.93 174.2C741.68 174.81 742.08 175.65 742.13 176.72H740.31C740.27 176.15 740.04 175.69 739.62 175.34C739.2 174.99 738.64 174.82 737.93 174.82C737.28 174.82 736.76 174.96 736.37 175.24C735.98 175.52 735.79 175.89 735.79 176.34C735.79 176.7 735.91 177 736.14 177.23C736.37 177.46 736.67 177.65 737.02 177.79C737.37 177.93 737.86 178.09 738.49 178.26C739.28 178.47 739.92 178.68 740.41 178.89C740.9 179.1 741.33 179.41 741.68 179.82C742.03 180.23 742.22 180.77 742.23 181.44C742.23 182.04 742.06 182.58 741.73 183.06C741.4 183.54 740.93 183.92 740.32 184.19C739.71 184.46 739.02 184.6 738.23 184.6C737.39 184.6 736.64 184.46 735.97 184.17Z" fill="#CCA98B"/>
<path d="M746.41 184.17C745.74 183.88 745.22 183.48 744.83 182.97C744.44 182.46 744.23 181.87 744.19 181.2H746.07C746.12 181.75 746.38 182.19 746.84 182.54C747.3 182.89 747.9 183.06 748.65 183.06C749.34 183.06 749.89 182.91 750.29 182.6C750.69 182.29 750.89 181.91 750.89 181.44C750.89 180.97 750.68 180.6 750.25 180.37C749.82 180.14 749.16 179.91 748.27 179.68C747.46 179.47 746.79 179.25 746.28 179.03C745.77 178.81 745.33 178.48 744.96 178.05C744.59 177.62 744.41 177.05 744.41 176.34C744.41 175.78 744.58 175.27 744.91 174.8C745.24 174.33 745.72 173.96 746.33 173.69C746.94 173.42 747.64 173.28 748.43 173.28C749.64 173.28 750.62 173.59 751.37 174.2C752.12 174.81 752.52 175.65 752.57 176.72H750.75C750.71 176.15 750.48 175.69 750.06 175.34C749.64 174.99 749.08 174.82 748.37 174.82C747.72 174.82 747.2 174.96 746.81 175.24C746.42 175.52 746.23 175.89 746.23 176.34C746.23 176.7 746.35 177 746.58 177.23C746.81 177.46 747.11 177.65 747.46 177.79C747.81 177.93 748.3 178.09 748.93 178.26C749.72 178.47 750.36 178.68 750.85 178.89C751.34 179.1 751.77 179.41 752.12 179.82C752.47 180.23 752.66 180.77 752.67 181.44C752.67 182.04 752.5 182.58 752.17 183.06C751.84 183.54 751.37 183.92 750.76 184.19C750.15 184.46 749.46 184.6 748.67 184.6C747.83 184.6 747.08 184.46 746.41 184.17Z" fill="#CCA98B"/>
<path d="M757.22 183.9C756.39 183.43 755.73 182.77 755.26 181.91C754.79 181.05 754.55 180.05 754.55 178.92C754.55 177.79 754.79 176.81 755.28 175.95C755.77 175.09 756.43 174.43 757.27 173.97C758.11 173.51 759.05 173.28 760.09 173.28C761.13 173.28 762.07 173.51 762.91 173.97C763.75 174.43 764.41 175.09 764.9 175.94C765.39 176.79 765.63 177.79 765.63 178.92C765.63 180.05 765.38 181.05 764.88 181.91C764.38 182.77 763.7 183.43 762.85 183.9C762 184.37 761.05 184.6 760.01 184.6C758.97 184.6 758.05 184.37 757.22 183.9ZM761.85 182.54C762.42 182.23 762.89 181.77 763.24 181.16C763.59 180.55 763.77 179.8 763.77 178.92C763.77 178.04 763.6 177.29 763.25 176.68C762.9 176.07 762.45 175.61 761.89 175.31C761.33 175.01 760.72 174.86 760.07 174.86C759.42 174.86 758.79 175.01 758.24 175.31C757.69 175.61 757.24 176.07 756.91 176.68C756.58 177.29 756.41 178.04 756.41 178.92C756.41 179.8 756.57 180.57 756.9 181.18C757.23 181.79 757.66 182.25 758.21 182.55C758.76 182.85 759.36 183 760.01 183C760.66 183 761.28 182.85 761.85 182.54Z" fill="#CCA98B"/>
<path d="M170.79 640.12C171.85 640.66 172.66 641.43 173.22 642.43C173.78 643.43 174.07 644.61 174.07 645.96C174.07 647.31 173.79 648.49 173.22 649.48C172.66 650.47 171.84 651.23 170.79 651.76C169.73 652.29 168.48 652.55 167.04 652.55H162.92V639.31H167.04C168.49 639.31 169.74 639.58 170.79 640.12ZM170.95 649.78C171.85 648.87 172.3 647.6 172.3 645.97C172.3 644.34 171.85 643.04 170.94 642.11C170.04 641.19 168.73 640.72 167.04 640.72H164.65V651.13H167.04C168.75 651.13 170.06 650.68 170.95 649.77V649.78Z" fill="#424242"/>
<path d="M178.24 652.07C177.45 651.63 176.83 651 176.38 650.18C175.93 649.36 175.71 648.42 175.71 647.34C175.71 646.26 175.94 645.34 176.4 644.52C176.86 643.7 177.49 643.08 178.29 642.64C179.09 642.2 179.98 641.98 180.97 641.98C181.96 641.98 182.85 642.2 183.65 642.64C184.45 643.08 185.08 643.7 185.54 644.51C186 645.32 186.23 646.26 186.23 647.34C186.23 648.42 185.99 649.36 185.52 650.18C185.04 651 184.4 651.63 183.59 652.07C182.78 652.51 181.88 652.74 180.89 652.74C179.9 652.74 179.03 652.52 178.24 652.07ZM182.63 650.77C183.17 650.48 183.61 650.04 183.95 649.46C184.29 648.88 184.45 648.17 184.45 647.33C184.45 646.49 184.28 645.78 183.96 645.2C183.63 644.62 183.2 644.18 182.67 643.9C182.14 643.61 181.56 643.47 180.94 643.47C180.32 643.47 179.73 643.61 179.2 643.9C178.67 644.19 178.25 644.62 177.94 645.2C177.62 645.78 177.47 646.49 177.47 647.33C177.47 648.17 177.62 648.89 177.93 649.48C178.24 650.06 178.65 650.5 179.17 650.78C179.69 651.06 180.26 651.21 180.88 651.21C181.5 651.21 182.08 651.06 182.63 650.77Z" fill="#424242"/>
<path d="M191.79 642.57C192.47 642.18 193.25 641.98 194.13 641.98C195.07 641.98 195.91 642.2 196.66 642.65C197.41 643.1 198 643.72 198.43 644.52C198.86 645.32 199.08 646.26 199.08 647.32C199.08 648.38 198.86 649.31 198.43 650.13C198 650.95 197.41 651.59 196.65 652.05C195.89 652.51 195.06 652.73 194.13 652.73C193.2 652.73 192.44 652.53 191.76 652.14C191.08 651.75 190.57 651.25 190.23 650.64V652.56H188.5V638.5H190.23V644.09C190.59 643.47 191.11 642.96 191.79 642.57ZM196.83 645.26C196.51 644.68 196.09 644.23 195.55 643.93C195.01 643.63 194.42 643.47 193.77 643.47C193.12 643.47 192.55 643.63 192.01 643.94C191.47 644.25 191.04 644.7 190.72 645.29C190.4 645.88 190.24 646.56 190.24 647.33C190.24 648.1 190.4 648.8 190.72 649.39C191.04 649.98 191.47 650.43 192.01 650.74C192.55 651.05 193.13 651.21 193.77 651.21C194.41 651.21 195.01 651.05 195.55 650.74C196.09 650.43 196.51 649.98 196.83 649.39C197.15 648.8 197.3 648.11 197.3 647.31C197.3 646.51 197.14 645.84 196.83 645.26Z" fill="#424242"/>
<path d="M204.38 642.45C204.94 642.12 205.63 641.96 206.44 641.96V643.75H205.98C204.04 643.75 203.07 644.8 203.07 646.9V652.56H201.34V642.15H203.07V643.84C203.37 643.24 203.81 642.78 204.37 642.45H204.38Z" fill="#424242"/>
<path d="M217.88 648H209.56C209.62 649.03 209.98 649.83 210.61 650.4C211.25 650.98 212.03 651.26 212.94 651.26C213.69 651.26 214.31 651.09 214.81 650.74C215.31 650.39 215.66 649.93 215.86 649.34H217.72C217.44 650.34 216.88 651.15 216.05 651.78C215.22 652.41 214.17 652.72 212.93 652.72C211.94 652.72 211.06 652.5 210.28 652.05C209.5 651.6 208.89 650.98 208.45 650.16C208.01 649.34 207.79 648.4 207.79 647.32C207.79 646.24 208 645.3 208.43 644.49C208.86 643.68 209.47 643.06 210.24 642.62C211.02 642.18 211.92 641.96 212.93 641.96C213.94 641.96 214.79 642.18 215.55 642.61C216.31 643.04 216.9 643.63 217.31 644.39C217.72 645.15 217.93 646 217.93 646.94C217.93 647.27 217.91 647.62 217.87 647.99L217.88 648ZM215.71 644.89C215.42 644.41 215.02 644.05 214.52 643.81C214.02 643.56 213.47 643.44 212.86 643.44C211.98 643.44 211.24 643.72 210.63 644.28C210.01 644.84 209.66 645.61 209.58 646.6H216.15C216.15 645.94 216 645.37 215.71 644.9V644.89Z" fill="#424242"/>
<path d="M225.29 644.51C225.72 643.71 226.31 643.08 227.07 642.64C227.83 642.2 228.66 641.97 229.59 641.97C230.52 641.97 231.3 642.17 231.97 642.56C232.64 642.95 233.14 643.45 233.47 644.04V642.14H235.22V652.55H233.47V650.61C233.13 651.22 232.62 651.72 231.94 652.12C231.26 652.52 230.47 652.72 229.57 652.72C228.67 652.72 227.81 652.49 227.06 652.04C226.31 651.58 225.72 650.94 225.29 650.12C224.86 649.3 224.64 648.36 224.64 647.31C224.64 646.26 224.85 645.31 225.29 644.51ZM232.98 645.28C232.66 644.7 232.24 644.25 231.7 643.94C231.16 643.63 230.57 643.47 229.92 643.47C229.27 643.47 228.69 643.62 228.15 643.93C227.62 644.23 227.19 644.68 226.88 645.26C226.57 645.84 226.41 646.53 226.41 647.31C226.41 648.09 226.57 648.8 226.88 649.39C227.2 649.98 227.62 650.43 228.15 650.74C228.68 651.05 229.27 651.21 229.92 651.21C230.57 651.21 231.16 651.05 231.7 650.74C232.24 650.43 232.66 649.98 232.98 649.39C233.3 648.8 233.45 648.11 233.45 647.33C233.45 646.55 233.29 645.86 232.98 645.28Z" fill="#424242"/>
<path d="M239.67 652.32C239.04 652.05 238.54 651.67 238.17 651.18C237.8 650.69 237.6 650.13 237.56 649.5H239.35C239.4 650.02 239.64 650.44 240.08 650.77C240.52 651.1 241.09 651.26 241.8 651.26C242.46 651.26 242.98 651.11 243.36 650.82C243.74 650.53 243.93 650.16 243.93 649.72C243.93 649.28 243.73 648.93 243.32 648.7C242.91 648.48 242.29 648.26 241.44 648.04C240.67 647.84 240.04 647.63 239.55 647.42C239.06 647.21 238.64 646.9 238.29 646.49C237.94 646.08 237.77 645.54 237.77 644.87C237.77 644.34 237.93 643.85 238.24 643.41C238.55 642.97 239.01 642.62 239.59 642.36C240.17 642.1 240.84 641.97 241.58 641.97C242.73 641.97 243.66 642.26 244.37 642.84C245.08 643.42 245.46 644.22 245.51 645.23H243.78C243.74 644.69 243.52 644.25 243.12 643.92C242.72 643.59 242.19 643.43 241.51 643.43C240.89 643.43 240.39 643.56 240.03 643.83C239.66 644.1 239.48 644.44 239.48 644.87C239.48 645.21 239.59 645.49 239.81 645.72C240.03 645.94 240.31 646.12 240.65 646.25C240.99 646.38 241.45 646.53 242.05 646.7C242.8 646.9 243.4 647.1 243.87 647.3C244.34 647.5 244.74 647.79 245.08 648.18C245.42 648.57 245.59 649.09 245.6 649.72C245.6 650.29 245.44 650.8 245.12 651.26C244.8 651.72 244.36 652.07 243.78 652.33C243.2 652.59 242.54 652.72 241.79 652.72C240.99 652.72 240.28 652.58 239.64 652.31L239.67 652.32Z" fill="#424242"/>
<path d="M256.38 642.58C257.06 642.18 257.84 641.98 258.75 641.98C259.66 641.98 260.51 642.2 261.27 642.65C262.03 643.1 262.62 643.72 263.05 644.52C263.48 645.32 263.7 646.26 263.7 647.32C263.7 648.38 263.49 649.31 263.05 650.13C262.62 650.95 262.03 651.59 261.27 652.05C260.51 652.51 259.68 652.73 258.75 652.73C257.82 652.73 257.08 652.53 256.4 652.13C255.72 651.73 255.21 651.23 254.85 650.64V657.5H253.12V642.15H254.85V644.07C255.19 643.48 255.7 642.98 256.38 642.58ZM261.45 645.26C261.13 644.68 260.71 644.23 260.17 643.93C259.63 643.63 259.04 643.47 258.39 643.47C257.74 643.47 257.17 643.63 256.63 643.94C256.09 644.25 255.66 644.7 255.34 645.29C255.02 645.88 254.86 646.56 254.86 647.33C254.86 648.1 255.02 648.8 255.34 649.39C255.66 649.98 256.09 650.43 256.63 650.74C257.17 651.05 257.75 651.21 258.39 651.21C259.03 651.21 259.63 651.05 260.17 650.74C260.71 650.43 261.13 649.98 261.45 649.39C261.77 648.8 261.92 648.11 261.92 647.31C261.92 646.51 261.76 645.84 261.45 645.26Z" fill="#424242"/>
<path d="M267.86 652.07C267.07 651.63 266.45 651 266 650.18C265.55 649.36 265.33 648.42 265.33 647.34C265.33 646.26 265.56 645.34 266.02 644.52C266.48 643.7 267.11 643.08 267.91 642.64C268.71 642.2 269.6 641.98 270.59 641.98C271.58 641.98 272.47 642.2 273.27 642.64C274.07 643.08 274.7 643.7 275.16 644.51C275.62 645.32 275.85 646.26 275.85 647.34C275.85 648.42 275.61 649.36 275.14 650.18C274.67 651 274.02 651.63 273.21 652.07C272.4 652.51 271.5 652.74 270.51 652.74C269.52 652.74 268.65 652.52 267.86 652.07ZM272.26 650.77C272.8 650.48 273.24 650.04 273.58 649.46C273.92 648.88 274.08 648.17 274.08 647.33C274.08 646.49 273.92 645.78 273.59 645.2C273.26 644.62 272.83 644.18 272.3 643.9C271.77 643.61 271.19 643.47 270.57 643.47C269.95 643.47 269.36 643.61 268.83 643.9C268.3 644.19 267.88 644.62 267.57 645.2C267.25 645.78 267.1 646.49 267.1 647.33C267.1 648.17 267.26 648.89 267.57 649.48C267.88 650.06 268.29 650.5 268.81 650.78C269.33 651.06 269.9 651.21 270.52 651.21C271.14 651.21 271.72 651.06 272.27 650.77H272.26Z" fill="#424242"/>
<path d="M286.28 643.11C287.07 643.88 287.46 644.98 287.46 646.43V652.57H285.75V646.68C285.75 645.64 285.49 644.85 284.97 644.3C284.45 643.75 283.74 643.47 282.84 643.47C281.94 643.47 281.2 643.75 280.66 644.32C280.12 644.89 279.85 645.72 279.85 646.81V652.57H278.12V642.16H279.85V643.64C280.19 643.11 280.66 642.7 281.25 642.4C281.84 642.11 282.49 641.96 283.2 641.96C284.47 641.96 285.49 642.34 286.28 643.11Z" fill="#424242"/>
<path d="M292.4 643.57V649.71C292.4 650.22 292.51 650.57 292.72 650.78C292.94 650.99 293.31 651.09 293.84 651.09H295.11V652.55H293.55C292.59 652.55 291.86 652.33 291.38 651.88C290.9 651.44 290.66 650.71 290.66 649.7V643.56H289.31V642.14H290.66V639.52H292.39V642.14H295.11V643.56H292.39L292.4 643.57Z" fill="#424242"/>
<path d="M297.2 644.51C297.63 643.71 298.22 643.08 298.98 642.64C299.74 642.2 300.57 641.97 301.5 641.97C302.43 641.97 303.2 642.17 303.88 642.56C304.56 642.95 305.05 643.45 305.38 644.04V642.14H307.13V652.55H305.38V650.61C305.04 651.22 304.53 651.72 303.85 652.12C303.17 652.52 302.39 652.72 301.48 652.72C300.57 652.72 299.72 652.49 298.97 652.04C298.22 651.59 297.63 650.94 297.2 650.12C296.77 649.3 296.56 648.36 296.56 647.31C296.56 646.26 296.77 645.31 297.2 644.51ZM304.9 645.28C304.58 644.7 304.16 644.25 303.62 643.94C303.08 643.63 302.49 643.47 301.84 643.47C301.19 643.47 300.61 643.62 300.07 643.93C299.54 644.23 299.11 644.68 298.8 645.26C298.49 645.84 298.33 646.53 298.33 647.31C298.33 648.09 298.49 648.8 298.8 649.39C299.12 649.98 299.54 650.43 300.07 650.74C300.6 651.05 301.19 651.21 301.84 651.21C302.49 651.21 303.08 651.05 303.62 650.74C304.16 650.43 304.58 649.98 304.9 649.39C305.22 648.8 305.37 648.11 305.37 647.33C305.37 646.55 305.21 645.86 304.9 645.28Z" fill="#424242"/>
<path d="M311.59 652.32C310.96 652.05 310.46 651.67 310.09 651.18C309.72 650.69 309.52 650.13 309.48 649.5H311.27C311.32 650.02 311.56 650.44 312 650.77C312.44 651.1 313.01 651.26 313.72 651.26C314.38 651.26 314.9 651.11 315.28 650.82C315.66 650.53 315.85 650.16 315.85 649.72C315.85 649.28 315.65 648.93 315.24 648.7C314.83 648.47 314.21 648.26 313.36 648.04C312.59 647.84 311.96 647.63 311.47 647.42C310.98 647.21 310.56 646.9 310.22 646.49C309.87 646.08 309.7 645.54 309.7 644.87C309.7 644.34 309.86 643.85 310.18 643.41C310.5 642.97 310.95 642.62 311.53 642.36C312.11 642.1 312.78 641.97 313.53 641.97C314.68 641.97 315.61 642.26 316.32 642.84C317.03 643.42 317.41 644.22 317.46 645.23H315.73C315.69 644.69 315.47 644.25 315.08 643.92C314.68 643.59 314.14 643.43 313.47 643.43C312.85 643.43 312.35 643.56 311.99 643.83C311.62 644.1 311.44 644.44 311.44 644.87C311.44 645.21 311.55 645.49 311.77 645.72C311.99 645.94 312.27 646.12 312.61 646.25C312.95 646.38 313.41 646.53 314.01 646.7C314.76 646.9 315.37 647.1 315.83 647.3C316.3 647.5 316.7 647.79 317.04 648.18C317.37 648.57 317.55 649.09 317.56 649.72C317.56 650.29 317.4 650.8 317.09 651.26C316.78 651.72 316.33 652.07 315.75 652.33C315.17 652.59 314.51 652.72 313.77 652.72C312.97 652.72 312.25 652.58 311.62 652.31L311.59 652.32Z" fill="#424242"/>
<path d="M328.3 642.58C328.98 642.18 329.76 641.98 330.67 641.98C331.58 641.98 332.43 642.2 333.19 642.65C333.95 643.1 334.54 643.72 334.97 644.52C335.4 645.32 335.62 646.26 335.62 647.32C335.62 648.38 335.41 649.31 334.97 650.13C334.54 650.95 333.95 651.59 333.19 652.05C332.43 652.51 331.6 652.73 330.67 652.73C329.74 652.73 329 652.53 328.32 652.13C327.64 651.73 327.13 651.23 326.77 650.64V657.5H325.04V642.15H326.77V644.07C327.11 643.48 327.62 642.98 328.3 642.58ZM333.36 645.26C333.04 644.68 332.62 644.23 332.08 643.93C331.54 643.63 330.95 643.47 330.3 643.47C329.65 643.47 329.08 643.63 328.54 643.94C328 644.25 327.57 644.7 327.25 645.29C326.93 645.88 326.77 646.56 326.77 647.33C326.77 648.1 326.93 648.8 327.25 649.39C327.57 649.98 328 650.43 328.54 650.74C329.08 651.05 329.66 651.21 330.3 651.21C330.94 651.21 331.54 651.05 332.08 650.74C332.62 650.43 333.04 649.98 333.36 649.39C333.68 648.8 333.83 648.11 333.83 647.31C333.83 646.51 333.67 645.84 333.36 645.26Z" fill="#424242"/>
<path d="M337.88 644.51C338.31 643.71 338.9 643.08 339.66 642.64C340.42 642.2 341.25 641.97 342.18 641.97C343.11 641.97 343.89 642.17 344.56 642.56C345.23 642.95 345.73 643.45 346.06 644.04V642.14H347.81V652.55H346.06V650.61C345.72 651.22 345.21 651.72 344.53 652.12C343.85 652.52 343.06 652.72 342.16 652.72C341.26 652.72 340.4 652.49 339.65 652.04C338.9 651.58 338.31 650.94 337.88 650.12C337.45 649.3 337.23 648.36 337.23 647.31C337.23 646.26 337.44 645.31 337.88 644.51ZM345.58 645.28C345.26 644.7 344.84 644.25 344.3 643.94C343.76 643.63 343.17 643.47 342.52 643.47C341.87 643.47 341.29 643.62 340.75 643.93C340.22 644.23 339.79 644.68 339.48 645.26C339.17 645.84 339.01 646.53 339.01 647.31C339.01 648.09 339.17 648.8 339.48 649.39C339.8 649.98 340.22 650.43 340.75 650.74C341.28 651.05 341.87 651.21 342.52 651.21C343.17 651.21 343.76 651.05 344.3 650.74C344.84 650.43 345.26 649.98 345.58 649.39C345.9 648.8 346.05 648.11 346.05 647.33C346.05 646.55 345.89 645.86 345.58 645.28Z" fill="#424242"/>
<path d="M353.76 642.45C354.32 642.12 355.01 641.96 355.82 641.96V643.75H355.36C353.42 643.75 352.45 644.8 352.45 646.9V652.56H350.72V642.15H352.45V643.84C352.75 643.24 353.19 642.78 353.75 642.45H353.76Z" fill="#424242"/>
<path d="M357.81 644.51C358.24 643.71 358.83 643.08 359.59 642.64C360.35 642.2 361.18 641.97 362.11 641.97C363.04 641.97 363.82 642.17 364.49 642.56C365.16 642.95 365.66 643.45 365.99 644.04V642.14H367.74V652.55H365.99V650.61C365.65 651.22 365.14 651.72 364.46 652.12C363.78 652.52 362.99 652.72 362.09 652.72C361.19 652.72 360.33 652.49 359.58 652.04C358.83 651.58 358.24 650.94 357.81 650.12C357.38 649.3 357.16 648.36 357.16 647.31C357.16 646.26 357.37 645.31 357.81 644.51ZM365.51 645.28C365.19 644.7 364.77 644.25 364.23 643.94C363.69 643.63 363.1 643.47 362.45 643.47C361.8 643.47 361.22 643.62 360.68 643.93C360.15 644.23 359.72 644.68 359.41 645.26C359.1 645.84 358.94 646.53 358.94 647.31C358.94 648.09 359.1 648.8 359.41 649.39C359.73 649.98 360.15 650.43 360.68 650.74C361.21 651.05 361.8 651.21 362.45 651.21C363.1 651.21 363.69 651.05 364.23 650.74C364.77 650.43 365.19 649.98 365.51 649.39C365.83 648.8 365.98 648.11 365.98 647.33C365.98 646.55 365.82 645.86 365.51 645.28Z" fill="#424242"/>
<path d="M379.97 643.57H377.78V652.56H376.05V643.57H374.7V642.15H376.05V641.41C376.05 640.24 376.35 639.39 376.95 638.85C377.55 638.31 378.52 638.04 379.85 638.04V639.48C379.09 639.48 378.56 639.63 378.24 639.93C377.93 640.23 377.78 640.72 377.78 641.4V642.14H379.97V643.56V643.57Z" fill="#424242"/>
<path d="M381.98 644.51C382.41 643.71 383 643.08 383.76 642.64C384.52 642.2 385.35 641.97 386.28 641.97C387.21 641.97 387.99 642.17 388.66 642.56C389.33 642.95 389.83 643.45 390.16 644.04V642.14H391.91V652.55H390.16V650.61C389.82 651.22 389.31 651.72 388.63 652.12C387.95 652.52 387.16 652.72 386.26 652.72C385.36 652.72 384.5 652.49 383.75 652.04C383 651.58 382.41 650.94 381.98 650.12C381.55 649.3 381.33 648.36 381.33 647.31C381.33 646.26 381.54 645.31 381.98 644.51ZM389.68 645.28C389.36 644.7 388.94 644.25 388.4 643.94C387.86 643.63 387.27 643.47 386.62 643.47C385.97 643.47 385.39 643.62 384.85 643.93C384.32 644.23 383.89 644.68 383.58 645.26C383.27 645.84 383.11 646.53 383.11 647.31C383.11 648.09 383.27 648.8 383.58 649.39C383.9 649.98 384.32 650.43 384.85 650.74C385.38 651.05 385.97 651.21 386.62 651.21C387.27 651.21 387.86 651.05 388.4 650.74C388.94 650.43 389.36 649.98 389.68 649.39C390 648.8 390.15 648.11 390.15 647.33C390.15 646.55 389.99 645.86 389.68 645.28Z" fill="#424242"/>
<path d="M396.12 651.13H401.23V652.55H394.14V651.13L399.19 643.55H394.17V642.14H401.18V643.55L396.11 651.13H396.12Z" fill="#424242"/>
<path d="M412.91 648H404.59C404.65 649.03 405.01 649.83 405.64 650.4C406.28 650.98 407.06 651.26 407.97 651.26C408.72 651.26 409.34 651.09 409.84 650.74C410.34 650.39 410.69 649.93 410.89 649.34H412.75C412.47 650.34 411.91 651.15 411.08 651.78C410.25 652.41 409.2 652.72 407.96 652.72C406.97 652.72 406.09 652.5 405.31 652.05C404.53 651.6 403.92 650.98 403.48 650.16C403.04 649.34 402.82 648.4 402.82 647.32C402.82 646.24 403.03 645.3 403.46 644.49C403.89 643.68 404.5 643.06 405.27 642.62C406.05 642.18 406.95 641.96 407.96 641.96C408.97 641.96 409.82 642.18 410.58 642.61C411.34 643.04 411.93 643.63 412.34 644.39C412.75 645.15 412.96 646 412.96 646.94C412.96 647.27 412.94 647.62 412.9 647.99L412.91 648ZM410.75 644.89C410.46 644.41 410.06 644.05 409.56 643.81C409.06 643.56 408.51 643.44 407.9 643.44C407.02 643.44 406.28 643.72 405.67 644.28C405.05 644.84 404.7 645.61 404.62 646.6H411.19C411.19 645.94 411.04 645.37 410.75 644.9V644.89Z" fill="#424242"/>
<path d="M418.28 642.45C418.84 642.12 419.53 641.96 420.34 641.96V643.75H419.88C417.94 643.75 416.97 644.8 416.97 646.9V652.56H415.24V642.15H416.97V643.84C417.27 643.24 417.71 642.78 418.27 642.45H418.28Z" fill="#424242"/>
<path d="M427.41 644.51C427.84 643.71 428.43 643.08 429.19 642.64C429.95 642.2 430.78 641.97 431.71 641.97C432.64 641.97 433.41 642.17 434.09 642.56C434.77 642.95 435.26 643.45 435.59 644.04V642.14H437.34V652.55H435.59V650.61C435.25 651.22 434.74 651.72 434.06 652.12C433.38 652.52 432.6 652.72 431.69 652.72C430.78 652.72 429.93 652.49 429.18 652.04C428.43 651.59 427.84 650.94 427.41 650.12C426.98 649.3 426.77 648.36 426.77 647.31C426.77 646.26 426.98 645.31 427.41 644.51ZM435.1 645.28C434.78 644.7 434.36 644.25 433.82 643.94C433.28 643.63 432.69 643.47 432.04 643.47C431.39 643.47 430.81 643.62 430.27 643.93C429.74 644.23 429.31 644.68 429 645.26C428.69 645.84 428.53 646.53 428.53 647.31C428.53 648.09 428.69 648.8 429 649.39C429.32 649.98 429.74 650.43 430.27 650.74C430.8 651.05 431.39 651.21 432.04 651.21C432.69 651.21 433.28 651.05 433.82 650.74C434.36 650.43 434.78 649.98 435.1 649.39C435.42 648.8 435.57 648.11 435.57 647.33C435.57 646.55 435.41 645.86 435.1 645.28Z" fill="#424242"/>
<path d="M441.79 652.32C441.16 652.05 440.66 651.67 440.29 651.18C439.92 650.69 439.72 650.13 439.68 649.5H441.47C441.52 650.02 441.76 650.44 442.2 650.77C442.64 651.1 443.21 651.26 443.92 651.26C444.58 651.26 445.1 651.11 445.48 650.82C445.86 650.53 446.05 650.16 446.05 649.72C446.05 649.28 445.85 648.93 445.44 648.7C445.03 648.47 444.41 648.26 443.56 648.04C442.79 647.84 442.16 647.63 441.67 647.42C441.18 647.21 440.76 646.9 440.42 646.49C440.07 646.08 439.9 645.54 439.9 644.87C439.9 644.34 440.06 643.85 440.38 643.41C440.7 642.97 441.15 642.62 441.73 642.36C442.31 642.1 442.98 641.97 443.73 641.97C444.88 641.97 445.81 642.26 446.52 642.84C447.23 643.42 447.61 644.22 447.66 645.23H445.93C445.89 644.69 445.67 644.25 445.28 643.92C444.88 643.59 444.34 643.43 443.67 643.43C443.05 643.43 442.55 643.56 442.19 643.83C441.82 644.1 441.64 644.44 441.64 644.87C441.64 645.21 441.75 645.49 441.97 645.72C442.19 645.94 442.47 646.12 442.81 646.25C443.15 646.38 443.61 646.53 444.21 646.7C444.96 646.9 445.57 647.1 446.03 647.3C446.5 647.5 446.9 647.79 447.24 648.18C447.57 648.57 447.75 649.09 447.76 649.72C447.76 650.29 447.6 650.8 447.29 651.26C446.98 651.72 446.53 652.07 445.95 652.33C445.37 652.59 444.71 652.72 443.97 652.72C443.17 652.72 442.45 652.58 441.82 652.31L441.79 652.32Z" fill="#424242"/>
<path d="M206.38 674.87C205.59 674.43 204.97 673.8 204.52 672.98C204.07 672.16 203.85 671.22 203.85 670.14C203.85 669.06 204.08 668.14 204.54 667.32C205 666.5 205.63 665.88 206.43 665.44C207.23 665 208.12 664.78 209.11 664.78C210.1 664.78 210.99 665 211.79 665.44C212.59 665.88 213.22 666.5 213.68 667.31C214.14 668.12 214.37 669.06 214.37 670.14C214.37 671.22 214.13 672.16 213.66 672.98C213.18 673.8 212.54 674.43 211.73 674.87C210.92 675.31 210.02 675.54 209.03 675.54C208.04 675.54 207.17 675.32 206.38 674.87ZM210.78 673.57C211.32 673.28 211.76 672.84 212.1 672.26C212.44 671.68 212.6 670.97 212.6 670.13C212.6 669.29 212.43 668.58 212.11 668C211.78 667.42 211.35 666.98 210.82 666.7C210.29 666.41 209.71 666.27 209.09 666.27C208.47 666.27 207.88 666.41 207.35 666.7C206.82 666.99 206.4 667.42 206.09 668C205.77 668.58 205.62 669.29 205.62 670.13C205.62 670.97 205.77 671.69 206.08 672.28C206.39 672.86 206.8 673.3 207.32 673.58C207.84 673.86 208.41 674.01 209.03 674.01C209.65 674.01 210.23 673.86 210.78 673.57Z" fill="#424242"/>
<path d="M219.68 665.25C220.24 664.92 220.93 664.76 221.74 664.76V666.55H221.28C219.34 666.55 218.37 667.6 218.37 669.7V675.36H216.64V664.95H218.37V666.64C218.67 666.04 219.11 665.58 219.67 665.25H219.68Z" fill="#424242"/>
<path d="M233.18 670.8H224.86C224.92 671.83 225.28 672.63 225.91 673.2C226.55 673.78 227.33 674.06 228.24 674.06C228.99 674.06 229.61 673.89 230.11 673.54C230.61 673.19 230.96 672.73 231.16 672.14H233.02C232.74 673.14 232.18 673.95 231.35 674.58C230.52 675.21 229.47 675.52 228.23 675.52C227.24 675.52 226.36 675.3 225.58 674.85C224.8 674.4 224.19 673.78 223.75 672.96C223.31 672.14 223.09 671.2 223.09 670.12C223.09 669.04 223.3 668.1 223.73 667.29C224.16 666.48 224.77 665.86 225.54 665.42C226.32 664.98 227.22 664.76 228.23 664.76C229.24 664.76 230.09 664.98 230.85 665.41C231.61 665.84 232.2 666.43 232.61 667.19C233.02 667.95 233.23 668.8 233.23 669.74C233.23 670.07 233.21 670.42 233.17 670.79L233.18 670.8ZM231.02 667.69C230.73 667.21 230.33 666.85 229.83 666.61C229.33 666.36 228.78 666.24 228.17 666.24C227.29 666.24 226.55 666.52 225.94 667.08C225.32 667.64 224.97 668.41 224.89 669.4H231.46C231.46 668.74 231.31 668.17 231.02 667.7V667.69Z" fill="#424242"/>
<path d="M237.25 661.3V675.36H235.52V661.3H237.25Z" fill="#424242"/>
<path d="M240.25 662.91C240.02 662.68 239.91 662.4 239.91 662.07C239.91 661.74 240.03 661.46 240.25 661.23C240.48 661 240.76 660.89 241.09 660.89C241.42 660.89 241.67 661 241.9 661.23C242.12 661.46 242.23 661.74 242.23 662.07C242.23 662.4 242.12 662.68 241.9 662.91C241.68 663.14 241.41 663.25 241.09 663.25C240.77 663.25 240.48 663.14 240.25 662.91ZM241.92 664.95V675.36H240.19V664.95H241.92Z" fill="#424242"/>
<path d="M253.02 665.91C253.81 666.68 254.2 667.78 254.2 669.23V675.37H252.49V669.48C252.49 668.44 252.23 667.65 251.71 667.1C251.19 666.55 250.48 666.27 249.58 666.27C248.68 666.27 247.94 666.55 247.4 667.12C246.86 667.69 246.59 668.52 246.59 669.61V675.37H244.86V664.96H246.59V666.44C246.93 665.91 247.4 665.5 247.99 665.2C248.58 664.91 249.23 664.76 249.94 664.76C251.21 664.76 252.23 665.14 253.02 665.91Z" fill="#424242"/>
<path d="M264.32 665.26C264.95 665.6 265.45 666.1 265.81 666.77C266.17 667.44 266.35 668.26 266.35 669.22V675.36H264.64V669.47C264.64 668.43 264.38 667.64 263.86 667.09C263.34 666.54 262.63 666.26 261.73 666.26C260.83 666.26 260.09 666.54 259.55 667.11C259.01 667.68 258.74 668.51 258.74 669.6V675.36H257.01V661.3H258.74V666.43C259.08 665.9 259.55 665.49 260.15 665.19C260.75 664.9 261.43 664.75 262.17 664.75C262.96 664.75 263.66 664.92 264.3 665.25L264.32 665.26Z" fill="#424242"/>
<path d="M269.19 667.31C269.62 666.51 270.21 665.88 270.97 665.44C271.73 665 272.56 664.77 273.49 664.77C274.42 664.77 275.19 664.97 275.87 665.36C276.55 665.75 277.04 666.25 277.37 666.84V664.94H279.12V675.35H277.37V673.41C277.03 674.02 276.52 674.52 275.84 674.92C275.16 675.32 274.38 675.52 273.47 675.52C272.56 675.52 271.71 675.29 270.96 674.84C270.21 674.39 269.62 673.74 269.19 672.92C268.76 672.1 268.55 671.16 268.55 670.11C268.55 669.06 268.76 668.11 269.19 667.31ZM276.88 668.08C276.56 667.5 276.14 667.05 275.6 666.74C275.06 666.43 274.47 666.27 273.82 666.27C273.17 666.27 272.59 666.42 272.05 666.73C271.52 667.03 271.09 667.48 270.78 668.06C270.47 668.64 270.31 669.33 270.31 670.11C270.31 670.89 270.47 671.6 270.78 672.19C271.1 672.78 271.52 673.23 272.05 673.54C272.58 673.85 273.17 674.01 273.82 674.01C274.47 674.01 275.06 673.85 275.6 673.54C276.14 673.23 276.56 672.78 276.88 672.19C277.2 671.6 277.35 670.91 277.35 670.13C277.35 669.35 277.19 668.66 276.88 668.08Z" fill="#424242"/>
<path d="M283.57 675.12C282.94 674.85 282.44 674.47 282.07 673.98C281.7 673.49 281.5 672.93 281.46 672.3H283.25C283.3 672.82 283.54 673.24 283.98 673.57C284.42 673.9 284.99 674.06 285.7 674.06C286.36 674.06 286.88 673.91 287.26 673.62C287.64 673.33 287.83 672.96 287.83 672.52C287.83 672.08 287.63 671.73 287.22 671.5C286.81 671.27 286.19 671.06 285.34 670.84C284.57 670.64 283.94 670.43 283.45 670.22C282.96 670.01 282.54 669.7 282.2 669.29C281.85 668.88 281.68 668.34 281.68 667.67C281.68 667.14 281.84 666.65 282.16 666.21C282.48 665.77 282.93 665.42 283.51 665.16C284.09 664.9 284.76 664.77 285.51 664.77C286.66 664.77 287.59 665.06 288.3 665.64C289.01 666.22 289.39 667.02 289.44 668.03H287.71C287.67 667.49 287.45 667.05 287.06 666.72C286.66 666.39 286.12 666.23 285.45 666.23C284.83 666.23 284.33 666.36 283.97 666.63C283.6 666.9 283.42 667.24 283.42 667.67C283.42 668.01 283.53 668.29 283.75 668.52C283.97 668.74 284.25 668.92 284.59 669.05C284.93 669.18 285.39 669.33 285.99 669.5C286.74 669.7 287.35 669.9 287.81 670.1C288.28 670.3 288.68 670.59 289.02 670.98C289.35 671.37 289.53 671.89 289.54 672.52C289.54 673.09 289.38 673.6 289.07 674.06C288.76 674.52 288.31 674.87 287.73 675.13C287.15 675.39 286.49 675.52 285.75 675.52C284.95 675.52 284.23 675.38 283.6 675.11L283.57 675.12Z" fill="#424242"/>
<path d="M297.02 667.31C297.45 666.51 298.04 665.88 298.8 665.44C299.56 665 300.4 664.77 301.34 664.77C302.15 664.77 302.9 664.96 303.6 665.33C304.3 665.7 304.83 666.19 305.2 666.8V661.29H306.95V675.35H305.2V673.39C304.86 674.01 304.35 674.52 303.68 674.92C303.01 675.32 302.22 675.52 301.32 675.52C300.42 675.52 299.56 675.29 298.8 674.84C298.04 674.39 297.45 673.74 297.02 672.92C296.59 672.1 296.38 671.16 296.38 670.11C296.38 669.06 296.59 668.11 297.02 667.31ZM304.72 668.08C304.4 667.5 303.98 667.05 303.44 666.74C302.9 666.43 302.31 666.27 301.66 666.27C301.01 666.27 300.43 666.42 299.89 666.73C299.36 667.03 298.93 667.48 298.62 668.06C298.31 668.64 298.15 669.33 298.15 670.11C298.15 670.89 298.31 671.6 298.62 672.19C298.94 672.78 299.36 673.23 299.89 673.54C300.42 673.85 301.01 674.01 301.66 674.01C302.31 674.01 302.9 673.85 303.44 673.54C303.98 673.23 304.4 672.78 304.72 672.19C305.04 671.6 305.19 670.91 305.19 670.13C305.19 669.35 305.03 668.66 304.72 668.08Z" fill="#424242"/>
<path d="M311.76 674.87C310.97 674.43 310.35 673.8 309.9 672.98C309.45 672.16 309.23 671.22 309.23 670.14C309.23 669.06 309.46 668.14 309.92 667.32C310.38 666.5 311.01 665.88 311.81 665.44C312.61 665 313.5 664.78 314.49 664.78C315.48 664.78 316.37 665 317.17 665.44C317.97 665.88 318.6 666.5 319.06 667.31C319.52 668.12 319.75 669.06 319.75 670.14C319.75 671.22 319.51 672.16 319.04 672.98C318.56 673.8 317.92 674.43 317.11 674.87C316.3 675.31 315.4 675.54 314.41 675.54C313.42 675.54 312.55 675.32 311.76 674.87ZM316.16 673.57C316.7 673.28 317.14 672.84 317.48 672.26C317.82 671.68 317.98 670.97 317.98 670.13C317.98 669.29 317.81 668.58 317.49 668C317.16 667.42 316.73 666.98 316.2 666.7C315.67 666.41 315.09 666.27 314.47 666.27C313.85 666.27 313.26 666.41 312.73 666.7C312.2 666.99 311.78 667.42 311.47 668C311.15 668.58 311 669.29 311 670.13C311 670.97 311.15 671.69 311.46 672.28C311.77 672.86 312.18 673.3 312.7 673.58C313.22 673.86 313.79 674.01 314.41 674.01C315.03 674.01 315.61 673.86 316.16 673.57Z" fill="#424242"/>
<path d="M327.1 667.31C327.53 666.51 328.13 665.88 328.89 665.44C329.65 665 330.53 664.77 331.52 664.77C332.8 664.77 333.85 665.08 334.68 665.7C335.51 666.32 336.06 667.18 336.32 668.28H334.46C334.28 667.65 333.94 667.15 333.42 666.78C332.91 666.41 332.27 666.23 331.51 666.23C330.52 666.23 329.72 666.57 329.12 667.25C328.51 667.93 328.21 668.89 328.21 670.13C328.21 671.37 328.51 672.35 329.12 673.04C329.73 673.72 330.53 674.07 331.51 674.07C332.27 674.07 332.9 673.89 333.41 673.54C333.92 673.19 334.27 672.68 334.45 672.02H336.31C336.03 673.08 335.47 673.94 334.64 674.58C333.81 675.22 332.76 675.54 331.5 675.54C330.51 675.54 329.63 675.32 328.87 674.87C328.11 674.42 327.5 673.8 327.08 672.99C326.65 672.18 326.43 671.23 326.43 670.14C326.43 669.05 326.64 668.12 327.08 667.32L327.1 667.31Z" fill="#424242"/>
<path d="M338.63 667.31C339.06 666.51 339.65 665.88 340.41 665.44C341.17 665 342 664.77 342.93 664.77C343.86 664.77 344.64 664.97 345.31 665.36C345.98 665.75 346.48 666.25 346.81 666.84V664.94H348.56V675.35H346.81V673.41C346.47 674.02 345.96 674.52 345.28 674.92C344.6 675.32 343.81 675.52 342.91 675.52C342.01 675.52 341.15 675.29 340.4 674.84C339.65 674.38 339.06 673.74 338.63 672.92C338.2 672.1 337.98 671.16 337.98 670.11C337.98 669.06 338.19 668.11 338.63 667.31ZM346.33 668.08C346.01 667.5 345.59 667.05 345.05 666.74C344.51 666.43 343.92 666.27 343.27 666.27C342.62 666.27 342.04 666.42 341.5 666.73C340.97 667.03 340.54 667.48 340.23 668.06C339.92 668.64 339.76 669.33 339.76 670.11C339.76 670.89 339.92 671.6 340.23 672.19C340.55 672.78 340.97 673.23 341.5 673.54C342.03 673.85 342.62 674.01 343.27 674.01C343.92 674.01 344.51 673.85 345.05 673.54C345.59 673.23 346.01 672.78 346.33 672.19C346.65 671.6 346.8 670.91 346.8 670.13C346.8 669.35 346.64 668.66 346.33 668.08Z" fill="#424242"/>
<path d="M351.48 667.31C351.91 666.51 352.51 665.88 353.27 665.44C354.03 665 354.91 664.77 355.9 664.77C357.18 664.77 358.23 665.08 359.06 665.7C359.89 666.32 360.44 667.18 360.7 668.28H358.84C358.66 667.65 358.32 667.15 357.8 666.78C357.29 666.41 356.65 666.23 355.89 666.23C354.9 666.23 354.1 666.57 353.5 667.25C352.89 667.93 352.59 668.89 352.59 670.13C352.59 671.37 352.89 672.35 353.5 673.04C354.11 673.72 354.91 674.07 355.89 674.07C356.65 674.07 357.28 673.89 357.79 673.54C358.3 673.19 358.65 672.68 358.83 672.02H360.69C360.41 673.08 359.85 673.94 359.02 674.58C358.19 675.22 357.14 675.54 355.88 675.54C354.89 675.54 354.01 675.32 353.25 674.87C352.49 674.42 351.88 673.8 351.46 672.99C351.03 672.18 350.81 671.23 350.81 670.14C350.81 669.05 351.02 668.12 351.46 667.32L351.48 667.31Z" fill="#424242"/>
<path d="M370.3 665.26C370.93 665.6 371.43 666.1 371.79 666.77C372.15 667.44 372.33 668.26 372.33 669.22V675.36H370.62V669.47C370.62 668.43 370.36 667.64 369.84 667.09C369.32 666.54 368.61 666.26 367.71 666.26C366.81 666.26 366.07 666.54 365.53 667.11C364.99 667.68 364.72 668.51 364.72 669.6V675.36H362.99V661.3H364.72V666.43C365.06 665.9 365.53 665.49 366.14 665.19C366.74 664.9 367.42 664.75 368.16 664.75C368.95 664.75 369.65 664.92 370.29 665.25L370.3 665.26Z" fill="#424242"/>
<path d="M377.06 674.87C376.27 674.43 375.65 673.8 375.2 672.98C374.75 672.16 374.53 671.22 374.53 670.14C374.53 669.06 374.76 668.14 375.22 667.32C375.68 666.5 376.31 665.88 377.11 665.44C377.91 665 378.8 664.78 379.79 664.78C380.78 664.78 381.67 665 382.47 665.44C383.27 665.88 383.9 666.5 384.36 667.31C384.82 668.12 385.05 669.06 385.05 670.14C385.05 671.22 384.81 672.16 384.34 672.98C383.86 673.8 383.22 674.43 382.41 674.87C381.6 675.31 380.7 675.54 379.71 675.54C378.72 675.54 377.85 675.32 377.06 674.87ZM381.46 673.57C382 673.28 382.44 672.84 382.78 672.26C383.12 671.68 383.28 670.97 383.28 670.13C383.28 669.29 383.11 668.58 382.79 668C382.46 667.42 382.03 666.98 381.5 666.7C380.97 666.41 380.39 666.27 379.77 666.27C379.15 666.27 378.56 666.41 378.03 666.7C377.5 666.99 377.08 667.42 376.77 668C376.45 668.58 376.3 669.29 376.3 670.13C376.3 670.97 376.45 671.69 376.76 672.28C377.07 672.86 377.48 673.3 378 673.58C378.52 673.86 379.09 674.01 379.71 674.01C380.33 674.01 380.91 673.86 381.46 673.57Z" fill="#424242"/>
<path d="M390.36 665.25C390.92 664.92 391.61 664.76 392.42 664.76V666.55H391.96C390.02 666.55 389.05 667.6 389.05 669.7V675.36H387.32V664.95H389.05V666.64C389.35 666.04 389.79 665.58 390.35 665.25H390.36Z" fill="#424242"/>
<path d="M397.45 665.25C398.01 664.92 398.7 664.76 399.51 664.76V666.55H399.05C397.11 666.55 396.14 667.6 396.14 669.7V675.36H394.41V664.95H396.14V666.64C396.44 666.04 396.88 665.58 397.44 665.25H397.45Z" fill="#424242"/>
<path d="M403.39 674.87C402.6 674.43 401.98 673.8 401.53 672.98C401.08 672.16 400.86 671.22 400.86 670.14C400.86 669.06 401.09 668.14 401.55 667.32C402.01 666.5 402.64 665.88 403.44 665.44C404.24 665 405.13 664.78 406.12 664.78C407.11 664.78 408 665 408.8 665.44C409.6 665.88 410.23 666.5 410.69 667.31C411.15 668.12 411.38 669.06 411.38 670.14C411.38 671.22 411.14 672.16 410.67 672.98C410.2 673.8 409.55 674.43 408.74 674.87C407.93 675.31 407.03 675.54 406.04 675.54C405.05 675.54 404.18 675.32 403.39 674.87ZM407.79 673.57C408.33 673.28 408.77 672.84 409.11 672.26C409.45 671.68 409.61 670.97 409.61 670.13C409.61 669.29 409.45 668.58 409.12 668C408.79 667.42 408.36 666.98 407.83 666.7C407.3 666.41 406.72 666.27 406.1 666.27C405.48 666.27 404.89 666.41 404.36 666.7C403.83 666.99 403.41 667.42 403.1 668C402.78 668.58 402.63 669.29 402.63 670.13C402.63 670.97 402.79 671.69 403.1 672.28C403.41 672.86 403.82 673.3 404.34 673.58C404.86 673.86 405.43 674.01 406.05 674.01C406.67 674.01 407.25 673.86 407.8 673.57H407.79Z" fill="#424242"/>
<path d="M818.53 640.12C819.59 640.66 820.4 641.43 820.96 642.43C821.52 643.43 821.81 644.61 821.81 645.96C821.81 647.31 821.53 648.49 820.96 649.48C820.39 650.47 819.58 651.23 818.53 651.76C817.47 652.29 816.22 652.55 814.78 652.55H810.66V639.31H814.78C816.22 639.31 817.47 639.58 818.53 640.12ZM818.69 649.78C819.59 648.87 820.04 647.6 820.04 645.97C820.04 644.34 819.59 643.04 818.68 642.11C817.77 641.19 816.47 640.72 814.78 640.72H812.39V651.13H814.78C816.49 651.13 817.79 650.68 818.69 649.77V649.78Z" fill="#424242"/>
<path d="M825.98 652.07C825.19 651.63 824.57 651 824.12 650.18C823.67 649.36 823.45 648.42 823.45 647.34C823.45 646.26 823.68 645.34 824.14 644.52C824.6 643.7 825.23 643.08 826.03 642.64C826.83 642.2 827.72 641.98 828.71 641.98C829.7 641.98 830.59 642.2 831.39 642.64C832.19 643.08 832.82 643.7 833.28 644.51C833.74 645.32 833.97 646.26 833.97 647.34C833.97 648.42 833.73 649.36 833.26 650.18C832.78 651 832.14 651.63 831.33 652.07C830.52 652.51 829.62 652.74 828.63 652.74C827.64 652.74 826.77 652.52 825.98 652.07ZM830.38 650.77C830.92 650.48 831.36 650.04 831.7 649.46C832.04 648.88 832.2 648.17 832.2 647.33C832.2 646.49 832.03 645.78 831.71 645.2C831.38 644.62 830.95 644.18 830.42 643.9C829.89 643.62 829.31 643.47 828.69 643.47C828.07 643.47 827.48 643.61 826.95 643.9C826.42 644.19 826 644.62 825.69 645.2C825.37 645.78 825.22 646.49 825.22 647.33C825.22 648.17 825.38 648.89 825.69 649.48C826 650.06 826.41 650.5 826.93 650.78C827.45 651.06 828.02 651.21 828.64 651.21C829.26 651.21 829.84 651.06 830.39 650.77H830.38Z" fill="#424242"/>
<path d="M839.53 642.57C840.21 642.18 840.99 641.98 841.87 641.98C842.81 641.98 843.65 642.2 844.4 642.65C845.15 643.09 845.74 643.72 846.17 644.52C846.6 645.32 846.82 646.26 846.82 647.32C846.82 648.38 846.6 649.31 846.17 650.13C845.74 650.95 845.15 651.59 844.39 652.05C843.63 652.51 842.8 652.73 841.87 652.73C840.94 652.73 840.18 652.53 839.5 652.14C838.82 651.75 838.31 651.25 837.97 650.64V652.56H836.24V638.5H837.97V644.09C838.32 643.47 838.84 642.96 839.53 642.57ZM844.57 645.26C844.25 644.68 843.83 644.23 843.29 643.93C842.75 643.63 842.16 643.47 841.51 643.47C840.86 643.47 840.29 643.63 839.75 643.94C839.21 644.25 838.78 644.7 838.46 645.29C838.14 645.88 837.98 646.56 837.98 647.33C837.98 648.1 838.14 648.8 838.46 649.39C838.78 649.98 839.21 650.43 839.75 650.74C840.29 651.05 840.87 651.21 841.51 651.21C842.15 651.21 842.75 651.05 843.29 650.74C843.83 650.43 844.25 649.98 844.57 649.39C844.89 648.8 845.04 648.11 845.04 647.31C845.04 646.51 844.88 645.84 844.57 645.26Z" fill="#424242"/>
<path d="M852.12 642.45C852.68 642.12 853.37 641.96 854.18 641.96V643.75H853.72C851.78 643.75 850.81 644.8 850.81 646.9V652.56H849.08V642.15H850.81V643.84C851.11 643.24 851.55 642.78 852.11 642.45H852.12Z" fill="#424242"/>
<path d="M865.62 648H857.3C857.36 649.03 857.72 649.83 858.35 650.4C858.98 650.97 859.77 651.26 860.68 651.26C861.43 651.26 862.05 651.09 862.55 650.74C863.05 650.39 863.4 649.93 863.6 649.34H865.46C865.18 650.34 864.62 651.15 863.79 651.78C862.96 652.41 861.91 652.72 860.67 652.72C859.68 652.72 858.8 652.5 858.02 652.05C857.24 651.6 856.63 650.98 856.19 650.16C855.75 649.34 855.52 648.4 855.52 647.32C855.52 646.24 855.73 645.3 856.17 644.49C856.61 643.68 857.21 643.06 857.98 642.62C858.76 642.18 859.65 641.96 860.67 641.96C861.69 641.96 862.53 642.18 863.29 642.61C864.05 643.04 864.64 643.63 865.05 644.39C865.46 645.14 865.67 646 865.67 646.94C865.67 647.27 865.65 647.62 865.61 647.99L865.62 648ZM863.45 644.89C863.16 644.41 862.76 644.05 862.26 643.81C861.76 643.56 861.21 643.44 860.6 643.44C859.73 643.44 858.98 643.72 858.37 644.28C857.76 644.84 857.4 645.61 857.32 646.6H863.89C863.89 645.94 863.74 645.37 863.45 644.9V644.89Z" fill="#424242"/>
<path d="M873.03 644.51C873.46 643.71 874.05 643.08 874.81 642.64C875.57 642.2 876.4 641.97 877.33 641.97C878.26 641.97 879.03 642.17 879.71 642.56C880.38 642.95 880.88 643.45 881.21 644.04V642.14H882.96V652.55H881.21V650.61C880.87 651.22 880.36 651.72 879.68 652.12C879 652.52 878.21 652.72 877.31 652.72C876.41 652.72 875.55 652.49 874.8 652.04C874.05 651.58 873.46 650.94 873.03 650.12C872.6 649.3 872.38 648.36 872.38 647.31C872.38 646.26 872.59 645.31 873.03 644.51ZM880.72 645.28C880.4 644.7 879.98 644.25 879.44 643.94C878.9 643.63 878.31 643.47 877.66 643.47C877.01 643.47 876.43 643.62 875.89 643.93C875.35 644.24 874.93 644.68 874.62 645.26C874.31 645.84 874.15 646.53 874.15 647.31C874.15 648.09 874.31 648.8 874.62 649.39C874.94 649.98 875.36 650.43 875.89 650.74C876.42 651.05 877.01 651.21 877.66 651.21C878.31 651.21 878.9 651.05 879.44 650.74C879.98 650.43 880.4 649.98 880.72 649.39C881.04 648.8 881.19 648.11 881.19 647.33C881.19 646.55 881.03 645.86 880.72 645.28Z" fill="#424242"/>
<path d="M894.21 642.58C894.89 642.18 895.68 641.98 896.58 641.98C897.48 641.98 898.34 642.2 899.1 642.65C899.86 643.1 900.45 643.72 900.88 644.52C901.31 645.32 901.53 646.26 901.53 647.32C901.53 648.38 901.31 649.31 900.88 650.13C900.45 650.95 899.86 651.59 899.1 652.05C898.34 652.51 897.51 652.73 896.58 652.73C895.65 652.73 894.91 652.53 894.23 652.13C893.55 651.73 893.04 651.23 892.68 650.64V657.5H890.95V642.15H892.68V644.07C893.02 643.48 893.53 642.98 894.21 642.58ZM899.27 645.26C898.95 644.68 898.53 644.23 897.99 643.93C897.45 643.63 896.86 643.47 896.21 643.47C895.56 643.47 894.99 643.63 894.45 643.94C893.91 644.25 893.48 644.7 893.16 645.29C892.84 645.88 892.68 646.56 892.68 647.33C892.68 648.1 892.84 648.8 893.16 649.39C893.48 649.98 893.91 650.43 894.45 650.74C894.99 651.05 895.57 651.21 896.21 651.21C896.85 651.21 897.45 651.05 897.99 650.74C898.53 650.43 898.95 649.98 899.27 649.39C899.59 648.8 899.74 648.11 899.74 647.31C899.74 646.51 899.58 645.84 899.27 645.26Z" fill="#424242"/>
<path d="M905.68 652.07C904.89 651.63 904.27 651 903.82 650.18C903.37 649.36 903.15 648.42 903.15 647.34C903.15 646.26 903.38 645.34 903.84 644.52C904.3 643.7 904.93 643.08 905.73 642.64C906.53 642.2 907.42 641.98 908.41 641.98C909.4 641.98 910.29 642.2 911.09 642.64C911.89 643.08 912.52 643.7 912.98 644.51C913.44 645.32 913.67 646.26 913.67 647.34C913.67 648.42 913.43 649.36 912.96 650.18C912.48 651 911.84 651.63 911.03 652.07C910.22 652.51 909.32 652.74 908.33 652.74C907.34 652.74 906.47 652.52 905.68 652.07ZM910.08 650.77C910.62 650.48 911.06 650.04 911.4 649.46C911.74 648.88 911.9 648.17 911.9 647.33C911.9 646.49 911.73 645.78 911.41 645.2C911.08 644.62 910.65 644.18 910.12 643.9C909.59 643.62 909.01 643.47 908.39 643.47C907.77 643.47 907.18 643.61 906.65 643.9C906.12 644.19 905.7 644.62 905.39 645.2C905.07 645.78 904.92 646.49 904.92 647.33C904.92 648.17 905.08 648.89 905.39 649.48C905.7 650.06 906.11 650.5 906.63 650.78C907.15 651.06 907.72 651.21 908.34 651.21C908.96 651.21 909.54 651.06 910.09 650.77H910.08Z" fill="#424242"/>
<path d="M924.1 643.11C924.89 643.88 925.28 644.98 925.28 646.43V652.57H923.57V646.68C923.57 645.64 923.31 644.85 922.79 644.3C922.27 643.75 921.56 643.47 920.66 643.47C919.76 643.47 919.02 643.75 918.48 644.32C917.94 644.89 917.67 645.72 917.67 646.81V652.57H915.94V642.16H917.67V643.64C918.01 643.11 918.48 642.7 919.07 642.4C919.66 642.11 920.31 641.96 921.02 641.96C922.29 641.96 923.31 642.34 924.1 643.11Z" fill="#424242"/>
<path d="M930.22 643.57V649.71C930.22 650.22 930.33 650.57 930.54 650.78C930.76 650.99 931.13 651.09 931.66 651.09H932.93V652.55H931.37C930.41 652.55 929.68 652.33 929.2 651.88C928.72 651.44 928.48 650.71 928.48 649.7V643.56H927.13V642.14H928.48V639.52H930.21V642.14H932.93V643.56H930.21L930.22 643.57Z" fill="#424242"/>
<path d="M935.03 644.51C935.46 643.71 936.05 643.08 936.81 642.64C937.57 642.2 938.4 641.97 939.33 641.97C940.26 641.97 941.03 642.17 941.71 642.56C942.38 642.95 942.88 643.45 943.21 644.04V642.14H944.96V652.55H943.21V650.61C942.87 651.22 942.36 651.72 941.68 652.12C941 652.52 940.21 652.72 939.31 652.72C938.41 652.72 937.55 652.49 936.8 652.04C936.05 651.58 935.46 650.94 935.03 650.12C934.6 649.3 934.38 648.36 934.38 647.31C934.38 646.26 934.59 645.31 935.03 644.51ZM942.72 645.28C942.4 644.7 941.98 644.25 941.44 643.94C940.9 643.63 940.31 643.47 939.66 643.47C939.01 643.47 938.43 643.62 937.89 643.93C937.35 644.24 936.93 644.68 936.62 645.26C936.31 645.84 936.15 646.53 936.15 647.31C936.15 648.09 936.31 648.8 936.62 649.39C936.94 649.98 937.36 650.43 937.89 650.74C938.42 651.05 939.01 651.21 939.66 651.21C940.31 651.21 940.9 651.05 941.44 650.74C941.98 650.43 942.4 649.98 942.72 649.39C943.04 648.8 943.19 648.11 943.19 647.33C943.19 646.55 943.03 645.86 942.72 645.28Z" fill="#424242"/>
<path d="M953 640.11C952.77 639.88 952.66 639.6 952.66 639.27C952.66 638.94 952.77 638.66 953 638.43C953.23 638.2 953.51 638.09 953.84 638.09C954.17 638.09 954.42 638.2 954.65 638.43C954.87 638.66 954.98 638.94 954.98 639.27C954.98 639.6 954.87 639.88 954.65 640.11C954.43 640.34 954.16 640.45 953.84 640.45C953.52 640.45 953.23 640.34 953 640.11ZM954.67 642.15V652.56H952.94V642.15H954.67Z" fill="#424242"/>
<path d="M965.77 643.11C966.56 643.88 966.95 644.98 966.95 646.43V652.57H965.24V646.68C965.24 645.64 964.98 644.85 964.46 644.3C963.94 643.75 963.23 643.47 962.33 643.47C961.43 643.47 960.69 643.75 960.15 644.32C959.61 644.89 959.34 645.72 959.34 646.81V652.57H957.61V642.16H959.34V643.64C959.68 643.11 960.15 642.7 960.74 642.4C961.33 642.11 961.98 641.96 962.69 641.96C963.96 641.96 964.98 642.34 965.77 643.11Z" fill="#424242"/>
<path d="M974.01 643.57H971.82V652.56H970.09V643.57H968.74V642.15H970.09V641.41C970.09 640.24 970.39 639.39 970.99 638.85C971.59 638.31 972.56 638.04 973.89 638.04V639.48C973.13 639.48 972.6 639.63 972.28 639.93C971.97 640.23 971.81 640.72 971.81 641.4V642.14H974V643.56L974.01 643.57Z" fill="#424242"/>
<path d="M985.47 648H977.15C977.21 649.03 977.57 649.83 978.2 650.4C978.83 650.97 979.62 651.26 980.53 651.26C981.28 651.26 981.9 651.09 982.4 650.74C982.9 650.39 983.25 649.93 983.45 649.34H985.31C985.03 650.34 984.47 651.15 983.64 651.78C982.81 652.41 981.76 652.72 980.52 652.72C979.53 652.72 978.65 652.5 977.87 652.05C977.09 651.6 976.48 650.98 976.04 650.16C975.6 649.34 975.37 648.4 975.37 647.32C975.37 646.24 975.58 645.3 976.02 644.49C976.46 643.68 977.06 643.06 977.83 642.62C978.61 642.18 979.5 641.96 980.52 641.96C981.54 641.96 982.38 642.18 983.14 642.61C983.9 643.04 984.49 643.63 984.9 644.39C985.31 645.14 985.52 646 985.52 646.94C985.52 647.27 985.5 647.62 985.46 647.99L985.47 648ZM983.3 644.89C983.01 644.41 982.61 644.05 982.11 643.81C981.61 643.56 981.06 643.44 980.45 643.44C979.58 643.44 978.83 643.72 978.22 644.28C977.61 644.84 977.25 645.61 977.17 646.6H983.74C983.74 645.94 983.59 645.37 983.3 644.9V644.89Z" fill="#424242"/>
<path d="M990.84 642.45C991.4 642.12 992.09 641.96 992.9 641.96V643.75H992.44C990.5 643.75 989.53 644.8 989.53 646.9V652.56H987.8V642.15H989.53V643.84C989.83 643.24 990.27 642.78 990.83 642.45H990.84Z" fill="#424242"/>
<path d="M994.95 640.11C994.72 639.88 994.61 639.6 994.61 639.27C994.61 638.94 994.72 638.66 994.95 638.43C995.18 638.2 995.46 638.09 995.79 638.09C996.12 638.09 996.37 638.2 996.6 638.43C996.82 638.66 996.93 638.94 996.93 639.27C996.93 639.6 996.82 639.88 996.6 640.11C996.38 640.34 996.11 640.45 995.79 640.45C995.47 640.45 995.18 640.34 994.95 640.11ZM996.62 642.15V652.56H994.89V642.15H996.62Z" fill="#424242"/>
<path d="M1001.46 652.07C1000.67 651.63 1000.05 651 999.6 650.18C999.15 649.36 998.93 648.42 998.93 647.34C998.93 646.26 999.16 645.34 999.62 644.52C1000.08 643.7 1000.71 643.08 1001.51 642.64C1002.31 642.2 1003.2 641.98 1004.19 641.98C1005.18 641.98 1006.07 642.2 1006.87 642.64C1007.67 643.08 1008.3 643.7 1008.76 644.51C1009.22 645.32 1009.45 646.26 1009.45 647.34C1009.45 648.42 1009.21 649.36 1008.74 650.18C1008.26 651 1007.62 651.63 1006.81 652.07C1006 652.51 1005.1 652.74 1004.11 652.74C1003.12 652.74 1002.25 652.52 1001.46 652.07ZM1005.86 650.77C1006.4 650.48 1006.84 650.04 1007.18 649.46C1007.52 648.88 1007.68 648.17 1007.68 647.33C1007.68 646.49 1007.51 645.78 1007.19 645.2C1006.86 644.62 1006.43 644.18 1005.9 643.9C1005.37 643.62 1004.79 643.47 1004.17 643.47C1003.55 643.47 1002.96 643.61 1002.43 643.9C1001.9 644.19 1001.48 644.62 1001.17 645.2C1000.85 645.78 1000.7 646.49 1000.7 647.33C1000.7 648.17 1000.86 648.89 1001.17 649.48C1001.48 650.06 1001.89 650.5 1002.41 650.78C1002.93 651.06 1003.5 651.21 1004.12 651.21C1004.74 651.21 1005.32 651.06 1005.87 650.77H1005.86Z" fill="#424242"/>
<path d="M1014.76 642.45C1015.32 642.12 1016.01 641.96 1016.82 641.96V643.75H1016.36C1014.42 643.75 1013.45 644.8 1013.45 646.9V652.56H1011.72V642.15H1013.45V643.84C1013.75 643.24 1014.19 642.78 1014.75 642.45H1014.76Z" fill="#424242"/>
<path d="M764.32 665.38C765 664.98 765.79 664.78 766.69 664.78C767.59 664.78 768.45 665 769.21 665.45C769.97 665.9 770.56 666.52 770.99 667.32C771.42 668.12 771.64 669.06 771.64 670.12C771.64 671.18 771.42 672.11 770.99 672.93C770.56 673.75 769.97 674.39 769.21 674.85C768.45 675.31 767.62 675.53 766.69 675.53C765.76 675.53 765.02 675.33 764.34 674.93C763.66 674.53 763.15 674.03 762.79 673.44V680.3H761.06V664.95H762.79V666.87C763.13 666.28 763.64 665.78 764.32 665.38ZM769.39 668.06C769.07 667.48 768.65 667.03 768.11 666.73C767.57 666.43 766.98 666.27 766.33 666.27C765.68 666.27 765.11 666.43 764.57 666.74C764.03 667.05 763.6 667.5 763.28 668.09C762.96 668.68 762.8 669.36 762.8 670.13C762.8 670.9 762.96 671.6 763.28 672.19C763.6 672.78 764.03 673.23 764.57 673.54C765.11 673.85 765.69 674.01 766.33 674.01C766.97 674.01 767.57 673.85 768.11 673.54C768.65 673.23 769.07 672.78 769.39 672.19C769.71 671.6 769.86 670.91 769.86 670.11C769.86 669.31 769.7 668.64 769.39 668.06Z" fill="#424242"/>
<path d="M773.91 667.31C774.34 666.51 774.93 665.88 775.69 665.44C776.45 665 777.28 664.77 778.21 664.77C779.14 664.77 779.91 664.97 780.59 665.36C781.26 665.75 781.76 666.25 782.09 666.84V664.94H783.84V675.35H782.09V673.41C781.75 674.02 781.24 674.52 780.56 674.92C779.88 675.32 779.09 675.52 778.19 675.52C777.29 675.52 776.43 675.29 775.68 674.84C774.93 674.38 774.34 673.74 773.91 672.92C773.48 672.1 773.26 671.16 773.26 670.11C773.26 669.06 773.47 668.11 773.91 667.31ZM781.6 668.08C781.28 667.5 780.86 667.05 780.32 666.74C779.78 666.43 779.19 666.27 778.54 666.27C777.89 666.27 777.31 666.42 776.77 666.73C776.23 667.04 775.81 667.48 775.5 668.06C775.19 668.64 775.03 669.33 775.03 670.11C775.03 670.89 775.19 671.6 775.5 672.19C775.82 672.78 776.24 673.23 776.77 673.54C777.3 673.85 777.89 674.01 778.54 674.01C779.19 674.01 779.78 673.85 780.32 673.54C780.86 673.23 781.28 672.78 781.6 672.19C781.92 671.6 782.07 670.91 782.07 670.13C782.07 669.35 781.91 668.66 781.6 668.08Z" fill="#424242"/>
<path d="M789.78 665.25C790.34 664.92 791.03 664.76 791.84 664.76V666.55H791.38C789.44 666.55 788.47 667.6 788.47 669.7V675.36H786.74V664.95H788.47V666.64C788.77 666.04 789.21 665.58 789.77 665.25H789.78Z" fill="#424242"/>
<path d="M793.84 667.31C794.27 666.51 794.86 665.88 795.62 665.44C796.38 665 797.21 664.77 798.14 664.77C799.07 664.77 799.84 664.97 800.52 665.36C801.19 665.75 801.69 666.25 802.02 666.84V664.94H803.77V675.35H802.02V673.41C801.68 674.02 801.17 674.52 800.49 674.92C799.81 675.32 799.02 675.52 798.12 675.52C797.22 675.52 796.36 675.29 795.61 674.84C794.86 674.38 794.27 673.74 793.84 672.92C793.41 672.1 793.19 671.16 793.19 670.11C793.19 669.06 793.4 668.11 793.84 667.31ZM801.53 668.08C801.21 667.5 800.79 667.05 800.25 666.74C799.71 666.43 799.12 666.27 798.47 666.27C797.82 666.27 797.24 666.42 796.7 666.73C796.16 667.04 795.74 667.48 795.43 668.06C795.12 668.64 794.96 669.33 794.96 670.11C794.96 670.89 795.12 671.6 795.43 672.19C795.75 672.78 796.17 673.23 796.7 673.54C797.23 673.85 797.82 674.01 798.47 674.01C799.12 674.01 799.71 673.85 800.25 673.54C800.79 673.23 801.21 672.78 801.53 672.19C801.85 671.6 802 670.91 802 670.13C802 669.35 801.84 668.66 801.53 668.08Z" fill="#424242"/>
<path d="M815.99 666.37H813.8V675.36H812.07V666.37H810.72V664.95H812.07V664.21C812.07 663.04 812.37 662.19 812.97 661.65C813.57 661.11 814.54 660.84 815.87 660.84V662.28C815.11 662.28 814.58 662.43 814.26 662.73C813.95 663.03 813.79 663.52 813.79 664.2V664.94H815.98V666.36L815.99 666.37Z" fill="#424242"/>
<path d="M818.01 667.31C818.44 666.51 819.03 665.88 819.79 665.44C820.55 665 821.38 664.77 822.31 664.77C823.24 664.77 824.01 664.97 824.69 665.36C825.36 665.75 825.86 666.25 826.19 666.84V664.94H827.94V675.35H826.19V673.41C825.85 674.02 825.34 674.52 824.66 674.92C823.98 675.32 823.19 675.52 822.29 675.52C821.39 675.52 820.53 675.29 819.78 674.84C819.03 674.38 818.44 673.74 818.01 672.92C817.58 672.1 817.36 671.16 817.36 670.11C817.36 669.06 817.57 668.11 818.01 667.31ZM825.7 668.08C825.38 667.5 824.96 667.05 824.42 666.74C823.88 666.43 823.29 666.27 822.64 666.27C821.99 666.27 821.41 666.42 820.87 666.73C820.33 667.04 819.91 667.48 819.6 668.06C819.29 668.64 819.13 669.33 819.13 670.11C819.13 670.89 819.29 671.6 819.6 672.19C819.92 672.78 820.34 673.23 820.87 673.54C821.4 673.85 821.99 674.01 822.64 674.01C823.29 674.01 823.88 673.85 824.42 673.54C824.96 673.23 825.38 672.78 825.7 672.19C826.02 671.6 826.17 670.91 826.17 670.13C826.17 669.35 826.01 668.66 825.7 668.08Z" fill="#424242"/>
<path d="M832.14 673.93H837.25V675.35H830.16V673.93L835.21 666.35H830.19V664.94H837.2V666.35L832.13 673.93H832.14Z" fill="#424242"/>
<path d="M848.94 670.8H840.62C840.68 671.83 841.04 672.63 841.67 673.2C842.3 673.77 843.09 674.06 844 674.06C844.75 674.06 845.37 673.89 845.87 673.54C846.37 673.19 846.72 672.73 846.92 672.14H848.78C848.5 673.14 847.94 673.95 847.11 674.58C846.28 675.21 845.23 675.52 843.99 675.52C843 675.52 842.12 675.3 841.34 674.85C840.56 674.4 839.95 673.78 839.51 672.96C839.07 672.14 838.84 671.2 838.84 670.12C838.84 669.04 839.05 668.1 839.49 667.29C839.93 666.48 840.53 665.86 841.3 665.42C842.08 664.98 842.97 664.76 843.99 664.76C845.01 664.76 845.85 664.98 846.61 665.41C847.37 665.84 847.96 666.43 848.37 667.19C848.78 667.94 848.99 668.8 848.99 669.74C848.99 670.07 848.97 670.42 848.93 670.79L848.94 670.8ZM846.77 667.69C846.48 667.21 846.08 666.85 845.58 666.61C845.08 666.36 844.53 666.24 843.92 666.24C843.05 666.24 842.3 666.52 841.69 667.08C841.08 667.64 840.72 668.41 840.64 669.4H847.21C847.21 668.74 847.06 668.17 846.77 667.7V667.69Z" fill="#424242"/>
<path d="M854.3 665.25C854.86 664.92 855.55 664.76 856.36 664.76V666.55H855.9C853.96 666.55 852.99 667.6 852.99 669.7V675.36H851.26V664.95H852.99V666.64C853.29 666.04 853.73 665.58 854.29 665.25H854.3Z" fill="#424242"/>
<path d="M865.32 674.87C864.53 674.43 863.91 673.8 863.46 672.98C863.01 672.16 862.79 671.22 862.79 670.14C862.79 669.06 863.02 668.14 863.48 667.32C863.94 666.5 864.57 665.88 865.37 665.44C866.17 665 867.06 664.78 868.05 664.78C869.04 664.78 869.93 665 870.73 665.44C871.53 665.88 872.16 666.5 872.62 667.31C873.08 668.12 873.31 669.06 873.31 670.14C873.31 671.22 873.07 672.16 872.6 672.98C872.12 673.8 871.48 674.43 870.67 674.87C869.86 675.31 868.96 675.54 867.97 675.54C866.98 675.54 866.11 675.32 865.32 674.87ZM869.72 673.57C870.26 673.28 870.7 672.84 871.04 672.26C871.38 671.68 871.54 670.97 871.54 670.13C871.54 669.29 871.37 668.58 871.05 668C870.72 667.42 870.29 666.98 869.76 666.7C869.23 666.42 868.65 666.27 868.03 666.27C867.41 666.27 866.82 666.41 866.29 666.7C865.76 666.99 865.34 667.42 865.03 668C864.71 668.58 864.56 669.29 864.56 670.13C864.56 670.97 864.72 671.69 865.03 672.28C865.34 672.86 865.75 673.3 866.27 673.58C866.79 673.86 867.36 674.01 867.98 674.01C868.6 674.01 869.18 673.86 869.73 673.57H869.72Z" fill="#424242"/>
<path d="M884.9 666.37H882.71V675.36H880.98V666.37H879.63V664.95H880.98V664.21C880.98 663.04 881.28 662.19 881.88 661.65C882.48 661.11 883.45 660.84 884.78 660.84V662.28C884.02 662.28 883.49 662.43 883.17 662.73C882.86 663.03 882.7 663.52 882.7 664.2V664.94H884.89V666.36L884.9 666.37Z" fill="#424242"/>
<path d="M888.81 674.87C888.02 674.43 887.4 673.8 886.95 672.98C886.5 672.16 886.28 671.22 886.28 670.14C886.28 669.06 886.51 668.14 886.97 667.32C887.43 666.5 888.06 665.88 888.86 665.44C889.66 665 890.55 664.78 891.54 664.78C892.53 664.78 893.42 665 894.22 665.44C895.02 665.88 895.65 666.5 896.11 667.31C896.57 668.12 896.8 669.06 896.8 670.14C896.8 671.22 896.56 672.16 896.09 672.98C895.61 673.8 894.97 674.43 894.16 674.87C893.35 675.31 892.45 675.54 891.46 675.54C890.47 675.54 889.6 675.32 888.81 674.87ZM893.21 673.57C893.75 673.28 894.19 672.84 894.53 672.26C894.87 671.68 895.03 670.97 895.03 670.13C895.03 669.29 894.86 668.58 894.54 668C894.21 667.42 893.78 666.98 893.25 666.7C892.72 666.42 892.14 666.27 891.52 666.27C890.9 666.27 890.31 666.41 889.78 666.7C889.25 666.99 888.83 667.42 888.52 668C888.2 668.58 888.05 669.29 888.05 670.13C888.05 670.97 888.21 671.69 888.52 672.28C888.83 672.86 889.24 673.3 889.76 673.58C890.28 673.86 890.85 674.01 891.47 674.01C892.09 674.01 892.67 673.86 893.22 673.57H893.21Z" fill="#424242"/>
<path d="M899.08 667.31C899.51 666.51 900.11 665.88 900.88 665.44C901.65 665 902.52 664.77 903.51 664.77C904.79 664.77 905.84 665.08 906.67 665.7C907.5 666.32 908.05 667.18 908.31 668.28H906.45C906.27 667.65 905.93 667.15 905.41 666.78C904.9 666.41 904.26 666.23 903.5 666.23C902.51 666.23 901.71 666.57 901.11 667.25C900.5 667.93 900.2 668.89 900.2 670.13C900.2 671.37 900.5 672.35 901.11 673.04C901.72 673.72 902.52 674.07 903.5 674.07C904.26 674.07 904.89 673.89 905.4 673.54C905.91 673.19 906.25 672.68 906.44 672.02H908.3C908.02 673.08 907.46 673.94 906.63 674.58C905.8 675.22 904.75 675.54 903.49 675.54C902.5 675.54 901.62 675.32 900.86 674.87C900.09 674.43 899.49 673.8 899.06 672.99C898.63 672.18 898.41 671.23 898.41 670.14C898.41 669.05 898.62 668.12 899.06 667.32L899.08 667.31Z" fill="#424242"/>
<path d="M910.67 662.91C910.44 662.68 910.33 662.4 910.33 662.07C910.33 661.74 910.44 661.46 910.67 661.23C910.9 661 911.18 660.89 911.51 660.89C911.84 660.89 912.09 661 912.32 661.23C912.54 661.46 912.65 661.74 912.65 662.07C912.65 662.4 912.54 662.68 912.32 662.91C912.1 663.14 911.83 663.25 911.51 663.25C911.19 663.25 910.9 663.14 910.67 662.91ZM912.34 664.95V675.36H910.61V664.95H912.34Z" fill="#424242"/>
<path d="M923.44 665.91C924.23 666.68 924.62 667.78 924.62 669.23V675.37H922.91V669.48C922.91 668.44 922.65 667.65 922.13 667.1C921.61 666.55 920.9 666.27 920 666.27C919.1 666.27 918.36 666.55 917.82 667.12C917.28 667.69 917.01 668.52 917.01 669.61V675.37H915.28V664.96H917.01V666.44C917.35 665.91 917.82 665.5 918.41 665.2C919 664.91 919.65 664.76 920.36 664.76C921.63 664.76 922.65 665.14 923.44 665.91Z" fill="#424242"/>
<path d="M934.74 665.26C935.37 665.6 935.87 666.1 936.23 666.77C936.59 667.44 936.77 668.26 936.77 669.22V675.36H935.06V669.47C935.06 668.43 934.8 667.64 934.28 667.09C933.76 666.54 933.05 666.26 932.15 666.26C931.25 666.26 930.51 666.54 929.97 667.11C929.43 667.68 929.16 668.51 929.16 669.6V675.36H927.43V661.3H929.16V666.43C929.5 665.9 929.97 665.49 930.58 665.19C931.18 664.9 931.86 664.75 932.6 664.75C933.39 664.75 934.09 664.92 934.73 665.25L934.74 665.26Z" fill="#424242"/>
<path d="M941.5 674.87C940.71 674.43 940.09 673.8 939.64 672.98C939.19 672.16 938.97 671.22 938.97 670.14C938.97 669.06 939.2 668.14 939.66 667.32C940.12 666.5 940.75 665.88 941.55 665.44C942.35 665 943.24 664.78 944.23 664.78C945.22 664.78 946.11 665 946.91 665.44C947.71 665.88 948.34 666.5 948.8 667.31C949.26 668.12 949.49 669.06 949.49 670.14C949.49 671.22 949.25 672.16 948.78 672.98C948.3 673.8 947.66 674.43 946.85 674.87C946.04 675.31 945.14 675.54 944.15 675.54C943.16 675.54 942.29 675.32 941.5 674.87ZM945.89 673.57C946.43 673.28 946.87 672.84 947.21 672.26C947.55 671.68 947.71 670.97 947.71 670.13C947.71 669.29 947.54 668.58 947.22 668C946.89 667.42 946.46 666.98 945.93 666.7C945.4 666.42 944.82 666.27 944.2 666.27C943.58 666.27 942.99 666.41 942.46 666.7C941.93 666.99 941.51 667.42 941.2 668C940.88 668.58 940.73 669.29 940.73 670.13C940.73 670.97 940.89 671.69 941.2 672.28C941.51 672.86 941.92 673.3 942.44 673.58C942.96 673.86 943.53 674.01 944.15 674.01C944.77 674.01 945.35 673.86 945.9 673.57H945.89Z" fill="#424242"/>
<path d="M956.84 667.31C957.27 666.51 957.86 665.88 958.62 665.44C959.38 665 960.22 664.77 961.16 664.77C961.97 664.77 962.72 664.96 963.42 665.33C964.12 665.7 964.65 666.19 965.02 666.8V661.29H966.77V675.35H965.02V673.39C964.68 674.01 964.17 674.52 963.5 674.92C962.83 675.32 962.04 675.52 961.14 675.52C960.24 675.52 959.38 675.29 958.62 674.84C957.86 674.39 957.27 673.74 956.84 672.92C956.41 672.1 956.19 671.16 956.19 670.11C956.19 669.06 956.4 668.11 956.84 667.31ZM964.53 668.08C964.21 667.5 963.79 667.05 963.25 666.74C962.71 666.43 962.12 666.27 961.47 666.27C960.82 666.27 960.24 666.42 959.7 666.73C959.16 667.04 958.74 667.48 958.43 668.06C958.12 668.64 957.96 669.33 957.96 670.11C957.96 670.89 958.12 671.6 958.43 672.19C958.75 672.78 959.17 673.23 959.7 673.54C960.23 673.85 960.82 674.01 961.47 674.01C962.12 674.01 962.71 673.85 963.25 673.54C963.79 673.23 964.21 672.78 964.53 672.19C964.85 671.6 965 670.91 965 670.13C965 669.35 964.84 668.66 964.53 668.08Z" fill="#424242"/>
<path d="M971.57 674.87C970.78 674.43 970.16 673.8 969.71 672.98C969.26 672.16 969.04 671.22 969.04 670.14C969.04 669.06 969.27 668.14 969.73 667.32C970.19 666.5 970.82 665.88 971.62 665.44C972.42 665 973.31 664.78 974.3 664.78C975.29 664.78 976.18 665 976.98 665.44C977.78 665.88 978.41 666.5 978.87 667.31C979.33 668.12 979.56 669.06 979.56 670.14C979.56 671.22 979.32 672.16 978.85 672.98C978.37 673.8 977.73 674.43 976.92 674.87C976.11 675.31 975.21 675.54 974.22 675.54C973.23 675.54 972.36 675.32 971.57 674.87ZM975.97 673.57C976.51 673.28 976.95 672.84 977.29 672.26C977.63 671.68 977.79 670.97 977.79 670.13C977.79 669.29 977.62 668.58 977.3 668C976.97 667.42 976.54 666.98 976.01 666.7C975.48 666.42 974.9 666.27 974.28 666.27C973.66 666.27 973.07 666.41 972.54 666.7C972.01 666.99 971.59 667.42 971.28 668C970.96 668.58 970.81 669.29 970.81 670.13C970.81 670.97 970.97 671.69 971.28 672.28C971.59 672.86 972 673.3 972.52 673.58C973.04 673.86 973.61 674.01 974.23 674.01C974.85 674.01 975.43 673.86 975.98 673.57H975.97Z" fill="#424242"/>
<path d="M986.91 667.31C987.34 666.51 987.94 665.88 988.71 665.44C989.48 665 990.35 664.77 991.34 664.77C992.62 664.77 993.67 665.08 994.5 665.7C995.33 666.32 995.88 667.18 996.14 668.28H994.28C994.1 667.65 993.76 667.15 993.24 666.78C992.73 666.41 992.09 666.23 991.33 666.23C990.34 666.23 989.54 666.57 988.94 667.25C988.33 667.93 988.03 668.89 988.03 670.13C988.03 671.37 988.33 672.35 988.94 673.04C989.55 673.72 990.35 674.07 991.33 674.07C992.09 674.07 992.72 673.89 993.23 673.54C993.74 673.19 994.08 672.68 994.27 672.02H996.13C995.85 673.08 995.29 673.94 994.46 674.58C993.63 675.22 992.58 675.54 991.32 675.54C990.33 675.54 989.45 675.32 988.69 674.87C987.92 674.43 987.32 673.8 986.89 672.99C986.46 672.18 986.24 671.23 986.24 670.14C986.24 669.05 986.45 668.12 986.89 667.32L986.91 667.31Z" fill="#424242"/>
<path d="M998.45 667.31C998.88 666.51 999.47 665.88 1000.23 665.44C1000.99 665 1001.82 664.77 1002.75 664.77C1003.68 664.77 1004.45 664.97 1005.13 665.36C1005.8 665.75 1006.3 666.25 1006.63 666.84V664.94H1008.38V675.35H1006.63V673.41C1006.29 674.02 1005.78 674.52 1005.1 674.92C1004.42 675.32 1003.63 675.52 1002.73 675.52C1001.83 675.52 1000.97 675.29 1000.22 674.84C999.47 674.38 998.88 673.74 998.45 672.92C998.02 672.1 997.8 671.16 997.8 670.11C997.8 669.06 998.01 668.11 998.45 667.31ZM1006.14 668.08C1005.82 667.5 1005.4 667.05 1004.86 666.74C1004.32 666.43 1003.73 666.27 1003.08 666.27C1002.43 666.27 1001.85 666.42 1001.31 666.73C1000.77 667.04 1000.35 667.48 1000.04 668.06C999.73 668.64 999.57 669.33 999.57 670.11C999.57 670.89 999.73 671.6 1000.04 672.19C1000.36 672.78 1000.78 673.23 1001.31 673.54C1001.84 673.85 1002.43 674.01 1003.08 674.01C1003.73 674.01 1004.32 673.85 1004.86 673.54C1005.4 673.23 1005.82 672.78 1006.14 672.19C1006.46 671.6 1006.61 670.91 1006.61 670.13C1006.61 669.35 1006.45 668.66 1006.14 668.08Z" fill="#424242"/>
<path d="M1011.29 667.31C1011.72 666.51 1012.32 665.88 1013.09 665.44C1013.86 665 1014.73 664.77 1015.72 664.77C1017 664.77 1018.05 665.08 1018.88 665.7C1019.71 666.32 1020.26 667.18 1020.52 668.28H1018.66C1018.48 667.65 1018.14 667.15 1017.62 666.78C1017.11 666.41 1016.47 666.23 1015.71 666.23C1014.72 666.23 1013.92 666.57 1013.32 667.25C1012.71 667.93 1012.41 668.89 1012.41 670.13C1012.41 671.37 1012.71 672.35 1013.32 673.04C1013.93 673.72 1014.73 674.07 1015.71 674.07C1016.47 674.07 1017.1 673.89 1017.61 673.54C1018.12 673.19 1018.46 672.68 1018.65 672.02H1020.51C1020.23 673.08 1019.67 673.94 1018.84 674.58C1018.01 675.22 1016.96 675.54 1015.7 675.54C1014.71 675.54 1013.83 675.32 1013.07 674.87C1012.3 674.43 1011.7 673.8 1011.27 672.99C1010.84 672.18 1010.62 671.23 1010.62 670.14C1010.62 669.05 1010.83 668.12 1011.27 667.32L1011.29 667.31Z" fill="#424242"/>
<path d="M1030.12 665.26C1030.75 665.6 1031.25 666.1 1031.61 666.77C1031.97 667.44 1032.15 668.26 1032.15 669.22V675.36H1030.44V669.47C1030.44 668.43 1030.18 667.64 1029.66 667.09C1029.14 666.54 1028.43 666.26 1027.53 666.26C1026.63 666.26 1025.89 666.54 1025.35 667.11C1024.81 667.68 1024.54 668.51 1024.54 669.6V675.36H1022.81V661.3H1024.54V666.43C1024.88 665.9 1025.35 665.49 1025.96 665.19C1026.56 664.9 1027.24 664.75 1027.98 664.75C1028.77 664.75 1029.47 664.92 1030.11 665.25L1030.12 665.26Z" fill="#424242"/>
<path d="M1036.88 674.87C1036.09 674.43 1035.47 673.8 1035.02 672.98C1034.57 672.16 1034.35 671.22 1034.35 670.14C1034.35 669.06 1034.58 668.14 1035.04 667.32C1035.5 666.5 1036.13 665.88 1036.93 665.44C1037.73 665 1038.62 664.78 1039.61 664.78C1040.6 664.78 1041.49 665 1042.29 665.44C1043.09 665.88 1043.72 666.5 1044.18 667.31C1044.64 668.12 1044.87 669.06 1044.87 670.14C1044.87 671.22 1044.63 672.16 1044.16 672.98C1043.68 673.8 1043.04 674.43 1042.23 674.87C1041.42 675.31 1040.52 675.54 1039.53 675.54C1038.54 675.54 1037.67 675.32 1036.88 674.87ZM1041.27 673.57C1041.81 673.28 1042.25 672.84 1042.59 672.26C1042.93 671.68 1043.09 670.97 1043.09 670.13C1043.09 669.29 1042.92 668.58 1042.6 668C1042.27 667.42 1041.84 666.98 1041.31 666.7C1040.78 666.42 1040.2 666.27 1039.58 666.27C1038.96 666.27 1038.37 666.41 1037.84 666.7C1037.31 666.99 1036.89 667.42 1036.58 668C1036.26 668.58 1036.11 669.29 1036.11 670.13C1036.11 670.97 1036.27 671.69 1036.58 672.28C1036.89 672.86 1037.3 673.3 1037.82 673.58C1038.34 673.86 1038.91 674.01 1039.53 674.01C1040.15 674.01 1040.73 673.86 1041.28 673.57H1041.27Z" fill="#424242"/>
<path d="M1050.17 665.25C1050.73 664.92 1051.42 664.76 1052.23 664.76V666.55H1051.77C1049.83 666.55 1048.86 667.6 1048.86 669.7V675.36H1047.13V664.95H1048.86V666.64C1049.16 666.04 1049.6 665.58 1050.16 665.25H1050.17Z" fill="#424242"/>
<path d="M1057.26 665.25C1057.82 664.92 1058.51 664.76 1059.32 664.76V666.55H1058.86C1056.92 666.55 1055.95 667.6 1055.95 669.7V675.36H1054.22V664.95H1055.95V666.64C1056.25 666.04 1056.69 665.58 1057.25 665.25H1057.26Z" fill="#424242"/>
<path d="M1063.21 674.87C1062.42 674.43 1061.8 673.8 1061.35 672.98C1060.9 672.16 1060.68 671.22 1060.68 670.14C1060.68 669.06 1060.91 668.14 1061.37 667.32C1061.83 666.5 1062.46 665.88 1063.26 665.44C1064.06 665 1064.95 664.78 1065.94 664.78C1066.93 664.78 1067.82 665 1068.62 665.44C1069.42 665.88 1070.05 666.5 1070.51 667.31C1070.97 668.12 1071.2 669.06 1071.2 670.14C1071.2 671.22 1070.96 672.16 1070.49 672.98C1070.01 673.8 1069.37 674.43 1068.56 674.87C1067.75 675.31 1066.85 675.54 1065.86 675.54C1064.87 675.54 1064 675.32 1063.21 674.87ZM1067.61 673.57C1068.15 673.28 1068.59 672.84 1068.93 672.26C1069.27 671.68 1069.43 670.97 1069.43 670.13C1069.43 669.29 1069.26 668.58 1068.94 668C1068.61 667.42 1068.18 666.98 1067.65 666.7C1067.12 666.42 1066.54 666.27 1065.92 666.27C1065.3 666.27 1064.71 666.41 1064.18 666.7C1063.65 666.99 1063.23 667.42 1062.92 668C1062.6 668.58 1062.45 669.29 1062.45 670.13C1062.45 670.97 1062.61 671.69 1062.92 672.28C1063.23 672.86 1063.64 673.3 1064.16 673.58C1064.68 673.86 1065.25 674.01 1065.87 674.01C1066.49 674.01 1067.07 673.86 1067.62 673.57H1067.61Z" fill="#424242"/>
<path d="M529.18 288.98C548.201 288.98 563.62 273.534 563.62 254.48C563.62 235.426 548.201 219.98 529.18 219.98C510.159 219.98 494.74 235.426 494.74 254.48C494.74 273.534 510.159 288.98 529.18 288.98Z" fill="#E8E3E6"/>
<path d="M529.22 286C548.241 286 563.66 270.554 563.66 251.5C563.66 232.446 548.241 217 529.22 217C510.199 217 494.78 232.446 494.78 251.5C494.78 270.554 510.199 286 529.22 286Z" fill="#FFF8FC"/>
<path d="M513.97 247.72L527.94 233.72C530.3 231.36 534.34 233.03 534.34 236.37V266.57C534.34 269.87 530.39 271.57 528 269.28L513.97 255.84V247.71V247.72Z" fill="#C8A9F2"/>
<path d="M512.77 249.2C512.77 248.366 512.094 247.69 511.26 247.69C510.426 247.69 509.75 248.366 509.75 249.2V253.75C509.75 254.584 510.426 255.26 511.26 255.26C512.094 255.26 512.77 254.584 512.77 253.75V249.2Z" fill="#C8A9F2"/>
<path d="M538.09 259.57C539.2 258.62 540.74 254.27 540.74 251.47C540.74 248.67 539.7 244.75 538.09 243.37" fill="#C8A9F2"/>
<path d="M542.65 262.19C544.12 260.93 546.15 255.18 546.15 251.47C546.15 247.76 544.78 242.57 542.65 240.75" fill="#C8A9F2"/>
<path d="M1152.18 288.98C1171.2 288.98 1186.62 273.534 1186.62 254.48C1186.62 235.426 1171.2 219.98 1152.18 219.98C1133.16 219.98 1117.74 235.426 1117.74 254.48C1117.74 273.534 1133.16 288.98 1152.18 288.98Z" fill="#E8E3E6"/>
<path d="M1152.22 286C1171.24 286 1186.66 270.554 1186.66 251.5C1186.66 232.446 1171.24 217 1152.22 217C1133.2 217 1117.78 232.446 1117.78 251.5C1117.78 270.554 1133.2 286 1152.22 286Z" fill="#FFF8FC"/>
<path d="M1136.97 247.72L1150.94 233.72C1153.3 231.36 1157.34 233.03 1157.34 236.37V266.57C1157.34 269.87 1153.39 271.57 1151 269.28L1136.97 255.84V247.71V247.72Z" fill="#C8A9F2"/>
<path d="M1135.77 249.2C1135.77 248.366 1135.09 247.69 1134.26 247.69C1133.43 247.69 1132.75 248.366 1132.75 249.2V253.75C1132.75 254.584 1133.43 255.26 1134.26 255.26C1135.09 255.26 1135.77 254.584 1135.77 253.75V249.2Z" fill="#C8A9F2"/>
<path d="M1161.09 259.57C1162.2 258.62 1163.74 254.27 1163.74 251.47C1163.74 248.67 1162.7 244.75 1161.09 243.37" fill="#C8A9F2"/>
<path d="M1165.65 262.19C1167.12 260.93 1169.15 255.18 1169.15 251.47C1169.15 247.76 1167.78 242.57 1165.65 240.75" fill="#C8A9F2"/>
<path d="M983 331.77H872.25H844.76L759.15 395L915.85 562.69L1073.59 395.27" fill="#CCCCCC"/>
<path d="M841.62 331.77L741.28 404.24L771.94 491.57L841.62 331.77Z" fill="#CCCCCC"/>
<path d="M985.95 331.77L1086.28 404.24L1055.62 491.57L985.95 331.77Z" fill="#CCCCCC"/>
<path d="M984.72 323.82H873.97H846.48L760.87 387.04L917.56 554.73L1075.3 387.31" fill="white"/>
<path d="M984.72 323.82H873.97H846.48L760.87 387.04L917.56 554.73L1075.3 387.31" stroke="#E0E0E0" stroke-miterlimit="10"/>
<path d="M942.07 544.79C942.07 544.79 888.61 526.87 895.06 469.63" stroke="#7A6154" stroke-width="2"/>
<path d="M897.16 457.75C898.29 463.7 900.67 471.25 903.69 476.19L894.88 471.21L884.93 473.02C889.41 469.35 894.13 463 897.15 457.75H897.16Z" fill="#7A6154"/>
<path d="M867.42 501.08H971.76" stroke="#A3826F" stroke-width="2"/>
<path d="M843.34 323.82L743 396.28L773.66 483.61L843.34 323.82Z" fill="white" stroke="#E0E0E0" stroke-miterlimit="10"/>
<path d="M987.66 323.82L1088 396.28L1057.34 483.61L987.66 323.82Z" fill="white" stroke="#E0E0E0" stroke-miterlimit="10"/>
</svg>
