<svg width="1209" height="720" viewBox="0 0 1209 720" fill="none" xmlns="http://www.w3.org/2000/svg">
<path d="M722.85 24.27H491.42C474.956 24.27 461.61 37.6164 461.61 54.08V64.46C461.61 80.9236 474.956 94.27 491.42 94.27H722.85C739.313 94.27 752.66 80.9236 752.66 64.46V54.08C752.66 37.6164 739.313 24.27 722.85 24.27Z" fill="#CCA98B"/>
<path d="M561.48 1.57999C562.43 2.05999 563.15 2.74999 563.66 3.64999C564.16 4.53999 564.42 5.59999 564.42 6.80999C564.42 8.01999 564.17 9.06999 563.66 9.95999C563.16 10.85 562.43 11.53 561.48 12C560.53 12.47 559.41 12.71 558.12 12.71H554.43V0.859985H558.12C559.41 0.859985 560.53 1.09999 561.48 1.57999ZM561.63 10.21C562.43 9.39999 562.84 8.25999 562.84 6.79999C562.84 5.33999 562.43 4.17999 561.62 3.34999C560.81 2.51999 559.65 2.10999 558.13 2.10999H555.99V11.43H558.13C559.66 11.43 560.83 11.03 561.63 10.22V10.21Z" fill="#A8A8A8"/>
<path d="M568.15 12.26C567.44 11.86 566.89 11.3 566.48 10.57C566.08 9.83999 565.88 8.98999 565.88 8.02999C565.88 7.06999 566.09 6.23999 566.5 5.50999C566.91 4.77999 567.48 4.21999 568.19 3.82999C568.9 3.43999 569.7 3.23999 570.59 3.23999C571.48 3.23999 572.27 3.43999 572.99 3.82999C573.7 4.21999 574.27 4.77999 574.68 5.49999C575.09 6.21999 575.3 7.06999 575.3 8.02999C575.3 8.98999 575.09 9.83999 574.66 10.57C574.24 11.3 573.66 11.86 572.93 12.26C572.2 12.66 571.4 12.86 570.52 12.86C569.64 12.86 568.86 12.66 568.15 12.26ZM572.08 11.11C572.57 10.85 572.96 10.46 573.26 9.93999C573.56 9.41999 573.71 8.77999 573.71 8.03999C573.71 7.29999 573.56 6.65999 573.27 6.13999C572.98 5.61999 572.59 5.22999 572.11 4.97999C571.63 4.72999 571.12 4.59999 570.56 4.59999C570 4.59999 569.48 4.72999 569 4.97999C568.53 5.22999 568.15 5.61999 567.87 6.13999C567.59 6.65999 567.44 7.29999 567.44 8.03999C567.44 8.77999 567.58 9.43999 567.86 9.95999C568.14 10.48 568.51 10.87 568.97 11.12C569.43 11.37 569.94 11.5 570.5 11.5C571.06 11.5 571.58 11.37 572.06 11.11H572.08Z" fill="#A8A8A8"/>
<path d="M580.28 3.76C580.89 3.41 581.59 3.23 582.37 3.23C583.21 3.23 583.96 3.43 584.63 3.82C585.3 4.22 585.83 4.77999 586.21 5.49C586.6 6.21 586.79 7.05 586.79 8C586.79 8.95 586.6 9.78 586.21 10.52C585.83 11.26 585.29 11.83 584.62 12.24C583.95 12.65 583.19 12.85 582.37 12.85C581.55 12.85 580.86 12.67 580.25 12.32C579.64 11.97 579.19 11.52 578.88 10.98V12.7H577.33V0.119995H578.88V5.12C579.2 4.56999 579.66 4.11 580.27 3.76H580.28ZM584.78 6.18C584.5 5.66 584.11 5.25999 583.63 4.99C583.15 4.72 582.62 4.58 582.04 4.58C581.46 4.58 580.95 4.72 580.47 5C579.99 5.28 579.6 5.68 579.31 6.21C579.02 6.74 578.88 7.35 578.88 8.04C578.88 8.72999 579.02 9.35999 579.31 9.88C579.6 10.41 579.98 10.81 580.47 11.09C580.95 11.37 581.48 11.51 582.04 11.51C582.6 11.51 583.15 11.37 583.63 11.09C584.11 10.81 584.49 10.41 584.78 9.88C585.06 9.35 585.2 8.73 585.2 8.02C585.2 7.31 585.06 6.71 584.78 6.18Z" fill="#A8A8A8"/>
<path d="M591.54 3.66C592.04 3.37 592.66 3.22 593.38 3.22V4.82H592.97C591.24 4.82 590.37 5.76 590.37 7.64V12.71H588.82V3.39H590.37V4.9C590.64 4.37 591.03 3.95 591.53 3.66H591.54Z" fill="#A8A8A8"/>
<path d="M595.17 5.51C595.56 4.79 596.09 4.23 596.76 3.84C597.43 3.44 598.18 3.25 599.01 3.25C599.84 3.25 600.53 3.43 601.13 3.78C601.73 4.13 602.18 4.57 602.47 5.11V3.41H604.03V12.73H602.47V11C602.16 11.54 601.71 12 601.1 12.35C600.49 12.71 599.79 12.89 598.98 12.89C598.17 12.89 597.4 12.69 596.74 12.28C596.08 11.87 595.54 11.3 595.16 10.56C594.78 9.82 594.58 8.98 594.58 8.04C594.58 7.1 594.77 6.25 595.16 5.53L595.17 5.51ZM602.05 6.19C601.77 5.67 601.38 5.27 600.9 4.99C600.42 4.71 599.89 4.57 599.31 4.57C598.73 4.57 598.2 4.71 597.73 4.98C597.25 5.25 596.87 5.65 596.59 6.17C596.31 6.69 596.16 7.3 596.16 8.01C596.16 8.72 596.3 9.34 596.59 9.87C596.87 10.4 597.25 10.8 597.73 11.08C598.21 11.36 598.73 11.5 599.31 11.5C599.89 11.5 600.42 11.36 600.9 11.08C601.38 10.8 601.76 10.4 602.05 9.87C602.33 9.34 602.47 8.73 602.47 8.03C602.47 7.33 602.33 6.72 602.05 6.19Z" fill="#A8A8A8"/>
<path d="M606.66 5.50998C607.05 4.78998 607.58 4.22998 608.25 3.83998C608.92 3.43998 609.68 3.24998 610.52 3.24998C611.25 3.24998 611.92 3.41998 612.54 3.74998C613.16 4.07998 613.64 4.51998 613.97 5.06998V0.139984H615.53V12.72H613.97V10.97C613.66 11.53 613.21 11.98 612.61 12.34C612.01 12.7 611.31 12.88 610.5 12.88C609.69 12.88 608.92 12.68 608.25 12.27C607.58 11.86 607.05 11.29 606.66 10.55C606.28 9.80998 606.08 8.96998 606.08 8.02998C606.08 7.08998 606.27 6.23998 606.66 5.51998V5.50998ZM613.55 6.18998C613.27 5.66998 612.88 5.26998 612.4 4.98998C611.92 4.70998 611.39 4.56998 610.81 4.56998C610.23 4.56998 609.7 4.70998 609.23 4.97998C608.75 5.24998 608.37 5.64998 608.09 6.16998C607.81 6.68998 607.66 7.29998 607.66 8.00998C607.66 8.71998 607.8 9.33998 608.09 9.86998C608.37 10.4 608.75 10.8 609.23 11.08C609.71 11.36 610.23 11.5 610.81 11.5C611.39 11.5 611.92 11.36 612.4 11.08C612.88 10.8 613.26 10.4 613.55 9.86998C613.83 9.33998 613.97 8.72998 613.97 8.02998C613.97 7.32998 613.83 6.71998 613.55 6.18998Z" fill="#A8A8A8"/>
<path d="M626.42 3.38998V12.71H624.87V11.33C624.58 11.81 624.16 12.18 623.64 12.44C623.11 12.71 622.53 12.84 621.9 12.84C621.17 12.84 620.52 12.69 619.94 12.39C619.36 12.09 618.91 11.64 618.57 11.04C618.24 10.44 618.07 9.70998 618.07 8.84998V3.38998H619.6V8.63998C619.6 9.55998 619.83 10.26 620.3 10.76C620.77 11.26 621.4 11.5 622.2 11.5C623 11.5 623.68 11.25 624.15 10.74C624.63 10.23 624.86 9.48998 624.86 8.50998V3.38998H626.41H626.42Z" fill="#A8A8A8"/>
<path d="M631.75 3.66C632.25 3.37 632.87 3.22 633.59 3.22V4.82H633.18C631.45 4.82 630.58 5.76 630.58 7.64V12.71H629.03V3.39H630.58V4.9C630.85 4.37 631.24 3.95 631.74 3.66H631.75Z" fill="#A8A8A8"/>
<path d="M635.37 5.51C635.76 4.79 636.29 4.23 636.96 3.84C637.63 3.44 638.38 3.25 639.21 3.25C640.04 3.25 640.73 3.43 641.33 3.78C641.93 4.13 642.38 4.57 642.67 5.11V3.41H644.23V12.73H642.67V11C642.36 11.54 641.91 12 641.3 12.35C640.69 12.71 639.99 12.89 639.18 12.89C638.37 12.89 637.6 12.69 636.94 12.28C636.28 11.87 635.74 11.3 635.36 10.56C634.98 9.82 634.78 8.98 634.78 8.04C634.78 7.1 634.97 6.25 635.36 5.53L635.37 5.51ZM642.26 6.19C641.98 5.67 641.59 5.27 641.11 4.99C640.63 4.71 640.1 4.57 639.52 4.57C638.94 4.57 638.41 4.71 637.94 4.98C637.46 5.25 637.08 5.65 636.8 6.17C636.52 6.69 636.37 7.3 636.37 8.01C636.37 8.72 636.51 9.34 636.8 9.87C637.08 10.4 637.46 10.8 637.94 11.08C638.42 11.36 638.94 11.5 639.52 11.5C640.1 11.5 640.63 11.36 641.11 11.08C641.59 10.8 641.97 10.4 642.26 9.87C642.54 9.34 642.68 8.73 642.68 8.03C642.68 7.33 642.54 6.72 642.26 6.19Z" fill="#A8A8A8"/>
<path d="M648.24 12.49C647.67 12.25 647.23 11.91 646.9 11.47C646.57 11.03 646.39 10.53 646.36 9.96999H647.96C648 10.43 648.22 10.81 648.61 11.11C649 11.4 649.51 11.55 650.15 11.55C650.74 11.55 651.2 11.42 651.54 11.16C651.88 10.9 652.05 10.57 652.05 10.17C652.05 9.76999 651.87 9.45999 651.51 9.25999C651.15 9.05999 650.59 8.86999 649.83 8.66999C649.14 8.48999 648.58 8.29999 648.14 8.11999C647.7 7.92999 647.33 7.65999 647.02 7.28999C646.71 6.91999 646.55 6.43999 646.55 5.83999C646.55 5.35999 646.69 4.92999 646.97 4.52999C647.25 4.12999 647.66 3.81999 648.18 3.58999C648.7 3.35999 649.3 3.23999 649.97 3.23999C651 3.23999 651.83 3.49999 652.47 4.01999C653.1 4.53999 653.44 5.25999 653.49 6.15999H651.94C651.91 5.66999 651.71 5.27999 651.35 4.98999C650.99 4.69999 650.51 4.54999 649.91 4.54999C649.36 4.54999 648.91 4.66999 648.58 4.90999C648.25 5.14999 648.09 5.45999 648.09 5.83999C648.09 6.14999 648.19 6.39999 648.39 6.59999C648.59 6.79999 648.84 6.95999 649.14 7.07999C649.44 7.19999 649.86 7.32999 650.39 7.47999C651.06 7.65999 651.6 7.83999 652.02 8.01999C652.44 8.19999 652.8 8.45999 653.1 8.80999C653.4 9.15999 653.56 9.61999 653.57 10.19C653.57 10.7 653.43 11.16 653.15 11.57C652.87 11.98 652.47 12.3 651.95 12.53C651.43 12.76 650.84 12.88 650.17 12.88C649.46 12.88 648.82 12.76 648.25 12.51L648.24 12.49Z" fill="#A8A8A8"/>
<path d="M496.73 52.4C497.96 50.23 499.63 48.53 501.75 47.3C503.87 46.07 506.22 45.46 508.81 45.46C511.85 45.46 514.5 46.19 516.77 47.66C519.04 49.13 520.69 51.21 521.73 53.9H517.37C516.6 52.22 515.48 50.93 514.03 50.02C512.58 49.11 510.84 48.66 508.81 48.66C506.78 48.66 505.12 49.11 503.57 50.02C502.02 50.93 500.81 52.21 499.93 53.88C499.05 55.55 498.61 57.5 498.61 59.74C498.61 61.98 499.05 63.89 499.93 65.56C500.81 67.23 502.02 68.51 503.57 69.42C505.12 70.33 506.86 70.78 508.81 70.78C510.76 70.78 512.58 70.33 514.03 69.44C515.48 68.55 516.6 67.26 517.37 65.58H521.73C520.69 68.25 519.04 70.31 516.77 71.76C514.5 73.21 511.85 73.94 508.81 73.94C506.22 73.94 503.87 73.33 501.75 72.12C499.63 70.91 497.96 69.22 496.73 67.06C495.5 64.9 494.89 62.46 494.89 59.74C494.89 57.02 495.5 54.57 496.73 52.4Z" fill="white"/>
<path d="M543.61 67.5H531.45L529.21 73.7H525.37L535.45 45.98H539.65L549.69 73.7H545.85L543.61 67.5ZM542.57 64.54L537.53 50.46L532.49 64.54H542.57Z" fill="white"/>
<path d="M554.57 52.4C555.8 50.23 557.47 48.53 559.59 47.3C561.71 46.07 564.06 45.46 566.65 45.46C569.69 45.46 572.34 46.19 574.61 47.66C576.88 49.13 578.53 51.21 579.57 53.9H575.21C574.44 52.22 573.32 50.93 571.87 50.02C570.42 49.11 568.68 48.66 566.65 48.66C564.62 48.66 562.96 49.11 561.41 50.02C559.86 50.93 558.65 52.21 557.77 53.88C556.89 55.55 556.45 57.5 556.45 59.74C556.45 61.98 556.89 63.89 557.77 65.56C558.65 67.23 559.86 68.51 561.41 69.42C562.96 70.33 564.7 70.78 566.65 70.78C568.6 70.78 570.42 70.33 571.87 69.44C573.32 68.55 574.44 67.26 575.21 65.58H579.57C578.53 68.25 576.88 70.31 574.61 71.76C572.34 73.21 569.69 73.94 566.65 73.94C564.06 73.94 561.71 73.33 559.59 72.12C557.47 70.91 555.8 69.22 554.57 67.06C553.34 64.9 552.73 62.46 552.73 59.74C552.73 57.02 553.34 54.57 554.57 52.4Z" fill="white"/>
<path d="M606.45 45.82V73.7H602.81V61.06H588.61V73.7H584.97V45.82H588.61V58.06H602.81V45.82H606.45Z" fill="white"/>
<path d="M618.21 72.16C616.08 70.95 614.39 69.25 613.15 67.08C611.91 64.91 611.29 62.46 611.29 59.74C611.29 57.02 611.91 54.57 613.15 52.4C614.39 50.23 616.08 48.53 618.21 47.32C620.34 46.11 622.7 45.5 625.29 45.5C627.88 45.5 630.28 46.11 632.41 47.32C634.54 48.53 636.22 50.22 637.45 52.38C638.68 54.54 639.29 56.99 639.29 59.74C639.29 62.49 638.68 64.94 637.45 67.1C636.22 69.26 634.54 70.95 632.41 72.16C630.28 73.37 627.9 73.98 625.29 73.98C622.68 73.98 620.34 73.37 618.21 72.16ZM630.55 69.46C632.11 68.55 633.34 67.26 634.23 65.58C635.12 63.9 635.57 61.95 635.57 59.74C635.57 57.53 635.12 55.55 634.23 53.88C633.34 52.21 632.12 50.93 630.57 50.02C629.02 49.11 627.26 48.66 625.29 48.66C623.32 48.66 621.56 49.11 620.01 50.02C618.46 50.93 617.24 52.21 616.35 53.88C615.46 55.55 615.01 57.5 615.01 59.74C615.01 61.98 615.46 63.9 616.35 65.58C617.24 67.26 618.47 68.55 620.03 69.46C621.59 70.37 623.34 70.82 625.29 70.82C627.24 70.82 628.99 70.37 630.55 69.46Z" fill="white"/>
<path d="M658.77 73.7L652.13 62.3H647.73V73.7H644.09V45.82H653.09C655.2 45.82 656.98 46.18 658.43 46.9C659.88 47.62 660.97 48.59 661.69 49.82C662.41 51.05 662.77 52.45 662.77 54.02C662.77 55.94 662.22 57.63 661.11 59.1C660 60.57 658.34 61.54 656.13 62.02L663.13 73.7H658.77ZM647.73 59.38H653.09C655.06 59.38 656.54 58.89 657.53 57.92C658.52 56.95 659.01 55.65 659.01 54.02C659.01 52.39 658.52 51.09 657.55 50.18C656.58 49.27 655.09 48.82 653.09 48.82H647.73V59.38Z" fill="white"/>
<path d="M683.09 73.7L676.45 62.3H672.05V73.7H668.41V45.82H677.41C679.52 45.82 681.3 46.18 682.75 46.9C684.2 47.62 685.29 48.59 686.01 49.82C686.73 51.05 687.09 52.45 687.09 54.02C687.09 55.94 686.54 57.63 685.43 59.1C684.32 60.57 682.66 61.54 680.45 62.02L687.45 73.7H683.09ZM672.05 59.38H677.41C679.38 59.38 680.86 58.89 681.85 57.92C682.84 56.95 683.33 55.65 683.33 54.02C683.33 52.39 682.84 51.09 681.87 50.18C680.9 49.27 679.41 48.82 677.41 48.82H672.05V59.38Z" fill="white"/>
<path d="M698.29 72.16C696.16 70.95 694.47 69.25 693.23 67.08C691.99 64.91 691.37 62.46 691.37 59.74C691.37 57.02 691.99 54.57 693.23 52.4C694.47 50.23 696.16 48.53 698.29 47.32C700.42 46.11 702.78 45.5 705.37 45.5C707.96 45.5 710.36 46.11 712.49 47.32C714.62 48.53 716.3 50.22 717.53 52.38C718.76 54.54 719.37 56.99 719.37 59.74C719.37 62.49 718.76 64.94 717.53 67.1C716.3 69.26 714.62 70.95 712.49 72.16C710.36 73.37 707.98 73.98 705.37 73.98C702.76 73.98 700.42 73.37 698.29 72.16ZM710.63 69.46C712.19 68.55 713.42 67.26 714.31 65.58C715.2 63.9 715.65 61.95 715.65 59.74C715.65 57.53 715.2 55.55 714.31 53.88C713.42 52.21 712.2 50.93 710.65 50.02C709.1 49.11 707.34 48.66 705.37 48.66C703.4 48.66 701.64 49.11 700.09 50.02C698.54 50.93 697.32 52.21 696.43 53.88C695.54 55.55 695.09 57.5 695.09 59.74C695.09 61.98 695.54 63.9 696.43 65.58C697.32 67.26 698.55 68.55 700.11 69.46C701.67 70.37 703.42 70.82 705.37 70.82C707.32 70.82 709.07 70.37 710.63 69.46Z" fill="white"/>
<path d="M554.02 200.95H70.4401C44.9964 200.95 24.3701 221.576 24.3701 247.02V673.2C24.3701 698.644 44.9964 719.27 70.4401 719.27H554.02C579.464 719.27 600.09 698.644 600.09 673.2V247.02C600.09 221.576 579.464 200.95 554.02 200.95Z" fill="#D3D3D3"/>
<path d="M549.4 191.27H65.82C40.3762 191.27 19.75 211.896 19.75 237.34V663.52C19.75 688.964 40.3762 709.59 65.82 709.59H549.4C574.844 709.59 595.47 688.964 595.47 663.52V237.34C595.47 211.896 574.844 191.27 549.4 191.27Z" fill="#FCC8A1"/>
<path d="M43.73 231.27C66.7603 231.27 85.43 212.569 85.43 189.5C85.43 166.431 66.7603 147.73 43.73 147.73C20.6998 147.73 2.03003 166.431 2.03003 189.5C2.03003 212.569 20.6998 231.27 43.73 231.27Z" fill="#CCA98B" stroke="#F2F2F2"/>
<path d="M43.69 227.67C66.7203 227.67 85.39 208.969 85.39 185.9C85.39 162.831 66.7203 144.13 43.69 144.13C20.6597 144.13 1.98999 162.831 1.98999 185.9C1.98999 208.969 20.6597 227.67 43.69 227.67Z" fill="white" stroke="#F2F2F2" stroke-width="3"/>
<path d="M27.97 176.69V170.18H39.31V200.06H32.03V176.69H27.98H27.97Z" fill="#CCA98B"/>
<path d="M44.32 174.58C45.02 173.48 46 172.61 47.27 171.98C48.54 171.35 49.99 171.04 51.63 171.04C53.27 171.04 54.72 171.35 55.99 171.98C57.26 172.61 58.24 173.47 58.94 174.58C59.64 175.69 59.98 176.96 59.98 178.41C59.98 179.86 59.63 181.14 58.92 182.26C58.21 183.38 57.22 184.26 55.95 184.9C54.68 185.54 53.23 185.86 51.59 185.86C49.95 185.86 48.51 185.54 47.25 184.9C45.99 184.26 45.02 183.38 44.32 182.26C43.62 181.14 43.28 179.86 43.28 178.41C43.28 176.96 43.63 175.69 44.32 174.58ZM53.71 175.95C53.14 175.38 52.43 175.09 51.58 175.09C50.73 175.09 50.07 175.38 49.51 175.95C48.95 176.52 48.67 177.36 48.67 178.45C48.67 179.54 48.94 180.33 49.49 180.91C50.04 181.49 50.73 181.77 51.58 181.77C52.43 181.77 53.13 181.48 53.71 180.89C54.28 180.3 54.57 179.49 54.57 178.46C54.57 177.37 54.28 176.54 53.71 175.96V175.95Z" fill="#CCA98B"/>
<path d="M294.571 262.243L150.06 406.754L294.571 551.265L439.083 406.754L294.571 262.243Z" fill="#CCCCCC"/>
<path d="M297.707 253.572L153.195 398.083L297.707 542.594L442.218 398.083L297.707 253.572Z" fill="white"/>
<path d="M153.3 398.07H159.3" stroke="#A3826F" stroke-width="2"/>
<path d="M171.3 398.07H429.28" stroke="#A3826F" stroke-width="2"/>
<path d="M435.28 398.07H441.28" stroke="#A3826F" stroke-width="2"/>
<path d="M296.87 306.87C296.87 306.87 380.71 382.01 316.46 480.24" stroke="#7A6154" stroke-width="2"/>
<path d="M309.53 490.13C311.03 484.26 312.08 476.42 311.43 470.66L317.3 478.9L327.08 481.48C321.46 482.91 314.5 486.66 309.54 490.13H309.53Z" fill="#7A6154"/>
<path d="M105.38 177.45C104.59 178.22 103.38 178.6 101.75 178.6H99.07V184.42H97.25V170.48H101.75C103.32 170.48 104.52 170.86 105.34 171.62C106.16 172.38 106.57 173.36 106.57 174.56C106.57 175.76 106.17 176.68 105.38 177.45ZM103.99 176.44C104.47 176 104.71 175.37 104.71 174.56C104.71 172.84 103.72 171.98 101.75 171.98H99.07V177.1H101.75C102.76 177.1 103.51 176.88 103.99 176.44Z" fill="#CCA98B"/>
<path d="M108.83 175.95C109.28 175.1 109.91 174.45 110.7 173.98C111.49 173.51 112.38 173.28 113.35 173.28C114.32 173.28 115.14 173.49 115.85 173.9C116.56 174.31 117.08 174.83 117.43 175.46V173.46H119.27V184.42H117.43V182.38C117.07 183.02 116.53 183.55 115.82 183.97C115.11 184.39 114.28 184.6 113.33 184.6C112.38 184.6 111.48 184.36 110.69 183.88C109.9 183.4 109.28 182.73 108.83 181.86C108.38 180.99 108.15 180.01 108.15 178.9C108.15 177.79 108.38 176.8 108.83 175.95ZM116.93 176.76C116.6 176.15 116.15 175.68 115.58 175.35C115.01 175.02 114.39 174.86 113.71 174.86C113.03 174.86 112.41 175.02 111.85 175.34C111.29 175.66 110.84 176.13 110.51 176.74C110.18 177.35 110.01 178.07 110.01 178.9C110.01 179.73 110.18 180.47 110.51 181.09C110.84 181.71 111.29 182.18 111.85 182.51C112.41 182.84 113.03 183 113.71 183C114.39 183 115.01 182.84 115.58 182.51C116.15 182.18 116.6 181.71 116.93 181.09C117.26 180.47 117.43 179.75 117.43 178.92C117.43 178.09 117.26 177.37 116.93 176.76Z" fill="#CCA98B"/>
<path d="M123.97 184.17C123.3 183.88 122.78 183.48 122.39 182.97C122 182.46 121.79 181.87 121.75 181.2H123.63C123.68 181.75 123.94 182.19 124.4 182.54C124.86 182.89 125.46 183.06 126.21 183.06C126.9 183.06 127.45 182.91 127.85 182.6C128.25 182.29 128.45 181.91 128.45 181.44C128.45 180.97 128.24 180.6 127.81 180.37C127.38 180.14 126.72 179.91 125.83 179.68C125.02 179.47 124.35 179.25 123.84 179.03C123.33 178.81 122.89 178.48 122.52 178.05C122.15 177.62 121.97 177.05 121.97 176.34C121.97 175.78 122.14 175.27 122.47 174.8C122.8 174.33 123.28 173.96 123.89 173.69C124.5 173.42 125.2 173.28 125.99 173.28C127.2 173.28 128.18 173.59 128.93 174.2C129.68 174.81 130.08 175.65 130.13 176.72H128.31C128.27 176.15 128.04 175.69 127.62 175.34C127.2 174.99 126.64 174.82 125.93 174.82C125.28 174.82 124.76 174.96 124.37 175.24C123.98 175.52 123.79 175.89 123.79 176.34C123.79 176.7 123.91 177 124.14 177.23C124.37 177.46 124.67 177.65 125.02 177.79C125.37 177.93 125.86 178.09 126.49 178.26C127.28 178.47 127.92 178.68 128.41 178.89C128.9 179.1 129.33 179.41 129.68 179.82C130.03 180.23 130.22 180.77 130.23 181.44C130.23 182.04 130.06 182.58 129.73 183.06C129.4 183.54 128.93 183.92 128.32 184.19C127.71 184.46 127.02 184.6 126.23 184.6C125.39 184.6 124.64 184.46 123.97 184.17Z" fill="#CCA98B"/>
<path d="M134.41 184.17C133.74 183.88 133.22 183.48 132.83 182.97C132.44 182.46 132.23 181.87 132.19 181.2H134.07C134.12 181.75 134.38 182.19 134.84 182.54C135.3 182.89 135.9 183.06 136.65 183.06C137.34 183.06 137.89 182.91 138.29 182.6C138.69 182.29 138.89 181.91 138.89 181.44C138.89 180.97 138.68 180.6 138.25 180.37C137.82 180.14 137.16 179.91 136.27 179.68C135.46 179.47 134.79 179.25 134.28 179.03C133.77 178.81 133.33 178.48 132.96 178.05C132.59 177.62 132.41 177.05 132.41 176.34C132.41 175.78 132.58 175.27 132.91 174.8C133.24 174.33 133.72 173.96 134.33 173.69C134.94 173.42 135.64 173.28 136.43 173.28C137.64 173.28 138.62 173.59 139.37 174.2C140.12 174.81 140.52 175.65 140.57 176.72H138.75C138.71 176.15 138.48 175.69 138.06 175.34C137.64 174.99 137.08 174.82 136.37 174.82C135.72 174.82 135.2 174.96 134.81 175.24C134.42 175.52 134.23 175.89 134.23 176.34C134.23 176.7 134.35 177 134.58 177.23C134.81 177.46 135.11 177.65 135.46 177.79C135.81 177.93 136.3 178.09 136.93 178.26C137.72 178.47 138.36 178.68 138.85 178.89C139.34 179.1 139.77 179.41 140.12 179.82C140.47 180.23 140.66 180.77 140.67 181.44C140.67 182.04 140.5 182.58 140.17 183.06C139.84 183.54 139.37 183.92 138.76 184.19C138.15 184.46 137.46 184.6 136.67 184.6C135.83 184.6 135.08 184.46 134.41 184.17Z" fill="#CCA98B"/>
<path d="M145.22 183.9C144.39 183.43 143.73 182.77 143.26 181.91C142.79 181.05 142.55 180.05 142.55 178.92C142.55 177.79 142.79 176.81 143.28 175.95C143.77 175.09 144.43 174.43 145.27 173.97C146.11 173.51 147.05 173.28 148.09 173.28C149.13 173.28 150.07 173.51 150.91 173.97C151.75 174.43 152.41 175.09 152.9 175.94C153.39 176.79 153.63 177.79 153.63 178.92C153.63 180.05 153.38 181.05 152.88 181.91C152.38 182.77 151.7 183.43 150.85 183.9C150 184.37 149.05 184.6 148.01 184.6C146.97 184.6 146.05 184.37 145.22 183.9ZM149.85 182.54C150.42 182.23 150.89 181.77 151.24 181.16C151.59 180.55 151.77 179.8 151.77 178.92C151.77 178.04 151.6 177.29 151.25 176.68C150.9 176.07 150.45 175.61 149.89 175.31C149.33 175.01 148.72 174.86 148.07 174.86C147.42 174.86 146.79 175.01 146.24 175.31C145.69 175.61 145.24 176.07 144.91 176.68C144.58 177.29 144.41 178.04 144.41 178.92C144.41 179.8 144.57 180.57 144.9 181.18C145.23 181.79 145.66 182.25 146.21 182.55C146.76 182.85 147.36 183 148.01 183C148.66 183 149.28 182.85 149.85 182.54Z" fill="#CCA98B"/>
<path d="M1162.02 200.95H678.44C652.996 200.95 632.37 221.576 632.37 247.02V673.2C632.37 698.644 652.996 719.27 678.44 719.27H1162.02C1187.46 719.27 1208.09 698.644 1208.09 673.2V247.02C1208.09 221.576 1187.46 200.95 1162.02 200.95Z" fill="#D3D3D3"/>
<path d="M1157.6 191.27H674.02C648.576 191.27 627.95 211.896 627.95 237.34V663.52C627.95 688.964 648.576 709.59 674.02 709.59H1157.6C1183.04 709.59 1203.67 688.964 1203.67 663.52V237.34C1203.67 211.896 1183.04 191.27 1157.6 191.27Z" fill="#FCC8A1"/>
<path d="M655.73 231.27C678.76 231.27 697.43 212.569 697.43 189.5C697.43 166.431 678.76 147.73 655.73 147.73C632.7 147.73 614.03 166.431 614.03 189.5C614.03 212.569 632.7 231.27 655.73 231.27Z" fill="#CCA98B" stroke="#F2F2F2"/>
<path d="M655.69 227.67C678.72 227.67 697.39 208.969 697.39 185.9C697.39 162.831 678.72 144.13 655.69 144.13C632.66 144.13 613.99 162.831 613.99 185.9C613.99 208.969 632.66 227.67 655.69 227.67Z" fill="white" stroke="#F2F2F2" stroke-width="3"/>
<path d="M637.74 193.43C640.41 191.22 642.52 189.41 644.06 187.99C645.6 186.57 646.9 185.08 647.97 183.53C649.03 181.97 649.57 180.46 649.57 178.99C649.57 177.87 649.31 177 648.79 176.37C648.27 175.74 647.49 175.43 646.46 175.43C645.43 175.43 644.61 175.82 644.03 176.6C643.44 177.38 643.15 178.48 643.15 179.89H636.4C636.45 177.57 636.95 175.63 637.89 174.08C638.83 172.52 640.07 171.38 641.61 170.64C643.15 169.9 644.86 169.54 646.75 169.54C650 169.54 652.44 170.37 654.1 172.04C655.75 173.71 656.58 175.87 656.58 178.55C656.58 181.47 655.58 184.18 653.59 186.67C651.6 189.17 649.06 191.6 645.98 193.97H657.03V199.66H636.49V194.46C637.42 193.72 637.84 193.38 637.76 193.44L637.74 193.43Z" fill="#CCA98B"/>
<path d="M660.31 174.58C661.01 173.48 661.99 172.61 663.26 171.98C664.53 171.35 665.98 171.04 667.62 171.04C669.26 171.04 670.71 171.35 671.98 171.98C673.25 172.61 674.23 173.47 674.93 174.58C675.63 175.69 675.97 176.96 675.97 178.41C675.97 179.86 675.62 181.14 674.91 182.26C674.2 183.38 673.21 184.26 671.94 184.9C670.67 185.54 669.22 185.86 667.58 185.86C665.94 185.86 664.5 185.54 663.24 184.9C661.98 184.26 661.01 183.38 660.31 182.26C659.61 181.14 659.27 179.86 659.27 178.41C659.27 176.96 659.62 175.69 660.31 174.58ZM669.71 175.95C669.14 175.38 668.43 175.09 667.58 175.09C666.73 175.09 666.07 175.38 665.51 175.95C664.95 176.52 664.67 177.36 664.67 178.45C664.67 179.54 664.94 180.33 665.49 180.91C666.04 181.49 666.73 181.77 667.58 181.77C668.43 181.77 669.13 181.48 669.71 180.89C670.28 180.3 670.57 179.49 670.57 178.46C670.57 177.37 670.28 176.54 669.71 175.96V175.95Z" fill="#CCA98B"/>
<path d="M717.38 177.45C716.59 178.22 715.38 178.6 713.75 178.6H711.07V184.42H709.25V170.48H713.75C715.32 170.48 716.52 170.86 717.34 171.62C718.16 172.38 718.57 173.36 718.57 174.56C718.57 175.76 718.17 176.68 717.38 177.45ZM715.99 176.44C716.47 176 716.71 175.37 716.71 174.56C716.71 172.84 715.72 171.98 713.75 171.98H711.07V177.1H713.75C714.76 177.1 715.51 176.88 715.99 176.44Z" fill="#CCA98B"/>
<path d="M720.83 175.95C721.28 175.1 721.91 174.45 722.7 173.98C723.49 173.51 724.38 173.28 725.35 173.28C726.32 173.28 727.14 173.49 727.85 173.9C728.56 174.31 729.08 174.83 729.43 175.46V173.46H731.27V184.42H729.43V182.38C729.07 183.02 728.53 183.55 727.82 183.97C727.11 184.39 726.28 184.6 725.33 184.6C724.38 184.6 723.48 184.36 722.69 183.88C721.9 183.4 721.28 182.73 720.83 181.86C720.38 180.99 720.15 180.01 720.15 178.9C720.15 177.79 720.38 176.8 720.83 175.95ZM728.93 176.76C728.6 176.15 728.15 175.68 727.58 175.35C727.01 175.02 726.39 174.86 725.71 174.86C725.03 174.86 724.41 175.02 723.85 175.34C723.29 175.66 722.84 176.13 722.51 176.74C722.18 177.35 722.01 178.07 722.01 178.9C722.01 179.73 722.18 180.47 722.51 181.09C722.84 181.71 723.29 182.18 723.85 182.51C724.41 182.84 725.03 183 725.71 183C726.39 183 727.01 182.84 727.58 182.51C728.15 182.18 728.6 181.71 728.93 181.09C729.26 180.47 729.43 179.75 729.43 178.92C729.43 178.09 729.26 177.37 728.93 176.76Z" fill="#CCA98B"/>
<path d="M735.97 184.17C735.3 183.88 734.78 183.48 734.39 182.97C734 182.46 733.79 181.87 733.75 181.2H735.63C735.68 181.75 735.94 182.19 736.4 182.54C736.86 182.89 737.46 183.06 738.21 183.06C738.9 183.06 739.45 182.91 739.85 182.6C740.25 182.29 740.45 181.91 740.45 181.44C740.45 180.97 740.24 180.6 739.81 180.37C739.38 180.14 738.72 179.91 737.83 179.68C737.02 179.47 736.35 179.25 735.84 179.03C735.33 178.81 734.89 178.48 734.52 178.05C734.15 177.62 733.97 177.05 733.97 176.34C733.97 175.78 734.14 175.27 734.47 174.8C734.8 174.33 735.28 173.96 735.89 173.69C736.5 173.42 737.2 173.28 737.99 173.28C739.2 173.28 740.18 173.59 740.93 174.2C741.68 174.81 742.08 175.65 742.13 176.72H740.31C740.27 176.15 740.04 175.69 739.62 175.34C739.2 174.99 738.64 174.82 737.93 174.82C737.28 174.82 736.76 174.96 736.37 175.24C735.98 175.52 735.79 175.89 735.79 176.34C735.79 176.7 735.91 177 736.14 177.23C736.37 177.46 736.67 177.65 737.02 177.79C737.37 177.93 737.86 178.09 738.49 178.26C739.28 178.47 739.92 178.68 740.41 178.89C740.9 179.1 741.33 179.41 741.68 179.82C742.03 180.23 742.22 180.77 742.23 181.44C742.23 182.04 742.06 182.58 741.73 183.06C741.4 183.54 740.93 183.92 740.32 184.19C739.71 184.46 739.02 184.6 738.23 184.6C737.39 184.6 736.64 184.46 735.97 184.17Z" fill="#CCA98B"/>
<path d="M746.41 184.17C745.74 183.88 745.22 183.48 744.83 182.97C744.44 182.46 744.23 181.87 744.19 181.2H746.07C746.12 181.75 746.38 182.19 746.84 182.54C747.3 182.89 747.9 183.06 748.65 183.06C749.34 183.06 749.89 182.91 750.29 182.6C750.69 182.29 750.89 181.91 750.89 181.44C750.89 180.97 750.68 180.6 750.25 180.37C749.82 180.14 749.16 179.91 748.27 179.68C747.46 179.47 746.79 179.25 746.28 179.03C745.77 178.81 745.33 178.48 744.96 178.05C744.59 177.62 744.41 177.05 744.41 176.34C744.41 175.78 744.58 175.27 744.91 174.8C745.24 174.33 745.72 173.96 746.33 173.69C746.94 173.42 747.64 173.28 748.43 173.28C749.64 173.28 750.62 173.59 751.37 174.2C752.12 174.81 752.52 175.65 752.57 176.72H750.75C750.71 176.15 750.48 175.69 750.06 175.34C749.64 174.99 749.08 174.82 748.37 174.82C747.72 174.82 747.2 174.96 746.81 175.24C746.42 175.52 746.23 175.89 746.23 176.34C746.23 176.7 746.35 177 746.58 177.23C746.81 177.46 747.11 177.65 747.46 177.79C747.81 177.93 748.3 178.09 748.93 178.26C749.72 178.47 750.36 178.68 750.85 178.89C751.34 179.1 751.77 179.41 752.12 179.82C752.47 180.23 752.66 180.77 752.67 181.44C752.67 182.04 752.5 182.58 752.17 183.06C751.84 183.54 751.37 183.92 750.76 184.19C750.15 184.46 749.46 184.6 748.67 184.6C747.83 184.6 747.08 184.46 746.41 184.17Z" fill="#CCA98B"/>
<path d="M757.22 183.9C756.39 183.43 755.73 182.77 755.26 181.91C754.79 181.05 754.55 180.05 754.55 178.92C754.55 177.79 754.79 176.81 755.28 175.95C755.77 175.09 756.43 174.43 757.27 173.97C758.11 173.51 759.05 173.28 760.09 173.28C761.13 173.28 762.07 173.51 762.91 173.97C763.75 174.43 764.41 175.09 764.9 175.94C765.39 176.79 765.63 177.79 765.63 178.92C765.63 180.05 765.38 181.05 764.88 181.91C764.38 182.77 763.7 183.43 762.85 183.9C762 184.37 761.05 184.6 760.01 184.6C758.97 184.6 758.05 184.37 757.22 183.9ZM761.85 182.54C762.42 182.23 762.89 181.77 763.24 181.16C763.59 180.55 763.77 179.8 763.77 178.92C763.77 178.04 763.6 177.29 763.25 176.68C762.9 176.07 762.45 175.61 761.89 175.31C761.33 175.01 760.72 174.86 760.07 174.86C759.42 174.86 758.79 175.01 758.24 175.31C757.69 175.61 757.24 176.07 756.91 176.68C756.58 177.29 756.41 178.04 756.41 178.92C756.41 179.8 756.57 180.57 756.9 181.18C757.23 181.79 757.66 182.25 758.21 182.55C758.76 182.85 759.36 183 760.01 183C760.66 183 761.28 182.85 761.85 182.54Z" fill="#CCA98B"/>
<path d="M737.3 345.27L913.09 533.38L1090.32 345.27H737.3Z" fill="#CCCCCC"/>
<path d="M96.28 645.94C95.53 646.67 94.38 647.03 92.83 647.03H90.28V652.56H88.55V639.32H92.83C94.32 639.32 95.46 639.68 96.24 640.4C97.02 641.12 97.41 642.05 97.41 643.19C97.41 644.33 97.03 645.21 96.28 645.94ZM94.96 644.98C95.42 644.56 95.64 643.97 95.64 643.19C95.64 641.56 94.7 640.74 92.83 640.74H90.28V645.6H92.83C93.79 645.6 94.5 645.39 94.96 644.97V644.98Z" fill="#424242"/>
<path d="M109 648H100.68C100.74 649.03 101.1 649.83 101.73 650.4C102.37 650.98 103.15 651.26 104.06 651.26C104.81 651.26 105.43 651.09 105.93 650.74C106.43 650.39 106.78 649.93 106.98 649.34H108.84C108.56 650.34 108 651.15 107.17 651.78C106.34 652.41 105.29 652.72 104.05 652.72C103.06 652.72 102.18 652.5 101.4 652.05C100.62 651.6 100.01 650.98 99.5702 650.16C99.1302 649.34 98.9102 648.4 98.9102 647.32C98.9102 646.24 99.1202 645.3 99.5502 644.49C99.9802 643.68 100.59 643.06 101.36 642.62C102.14 642.18 103.04 641.96 104.05 641.96C105.06 641.96 105.91 642.18 106.67 642.61C107.43 643.04 108.02 643.63 108.43 644.39C108.84 645.15 109.05 646 109.05 646.94C109.05 647.27 109.03 647.62 108.99 647.99L109 648ZM106.83 644.89C106.54 644.41 106.14 644.05 105.64 643.81C105.14 643.56 104.59 643.44 103.98 643.44C103.1 643.44 102.36 643.72 101.75 644.28C101.13 644.84 100.78 645.61 100.7 646.6H107.27C107.27 645.94 107.12 645.37 106.83 644.9V644.89Z" fill="#424242"/>
<path d="M118 642.57C118.68 642.96 119.18 643.46 119.51 644.05V642.15H121.26V652.79C121.26 653.74 121.06 654.59 120.65 655.33C120.24 656.07 119.66 656.65 118.91 657.07C118.16 657.49 117.28 657.7 116.28 657.7C114.91 657.7 113.77 657.38 112.86 656.73C111.95 656.08 111.41 655.2 111.24 654.09H112.95C113.14 654.72 113.53 655.23 114.13 655.62C114.73 656.01 115.44 656.2 116.28 656.2C117.23 656.2 118.01 655.9 118.61 655.31C119.21 654.71 119.51 653.88 119.51 652.8V650.62C119.17 651.23 118.66 651.74 117.99 652.14C117.32 652.55 116.53 652.75 115.63 652.75C114.73 652.75 113.87 652.52 113.11 652.07C112.35 651.62 111.76 650.97 111.33 650.15C110.9 649.33 110.68 648.39 110.68 647.34C110.68 646.29 110.89 645.34 111.33 644.54C111.76 643.74 112.35 643.11 113.11 642.67C113.87 642.23 114.7 642 115.63 642C116.56 642 117.32 642.2 118 642.59V642.57ZM119.03 645.28C118.71 644.7 118.29 644.25 117.75 643.94C117.21 643.63 116.62 643.47 115.97 643.47C115.32 643.47 114.74 643.62 114.2 643.93C113.67 644.23 113.24 644.68 112.93 645.26C112.62 645.84 112.46 646.53 112.46 647.31C112.46 648.09 112.62 648.8 112.93 649.39C113.25 649.98 113.67 650.43 114.2 650.74C114.73 651.05 115.32 651.21 115.97 651.21C116.62 651.21 117.21 651.05 117.75 650.74C118.29 650.43 118.71 649.98 119.03 649.39C119.35 648.8 119.5 648.11 119.5 647.33C119.5 646.55 119.34 645.86 119.03 645.28Z" fill="#424242"/>
<path d="M133.42 642.15V652.56H131.69V651.02C131.36 651.55 130.9 651.97 130.31 652.26C129.72 652.56 129.07 652.71 128.36 652.71C127.55 652.71 126.82 652.54 126.17 652.21C125.52 651.88 125.01 651.37 124.64 650.7C124.27 650.03 124.08 649.21 124.08 648.25V642.15H125.79V648.02C125.79 649.05 126.05 649.83 126.57 650.39C127.09 650.94 127.8 651.22 128.7 651.22C129.6 651.22 130.35 650.93 130.89 650.36C131.42 649.79 131.69 648.96 131.69 647.87V642.15H133.42Z" fill="#424242"/>
<path d="M145.79 648H137.47C137.53 649.03 137.88 649.83 138.52 650.4C139.16 650.98 139.93 651.26 140.85 651.26C141.6 651.26 142.22 651.09 142.72 650.74C143.22 650.39 143.57 649.93 143.77 649.34H145.63C145.35 650.34 144.79 651.15 143.96 651.78C143.13 652.41 142.08 652.72 140.84 652.72C139.85 652.72 138.97 652.5 138.19 652.05C137.41 651.6 136.8 650.98 136.36 650.16C135.91 649.34 135.69 648.4 135.69 647.32C135.69 646.24 135.9 645.3 136.34 644.49C136.77 643.68 137.38 643.06 138.15 642.62C138.93 642.18 139.82 641.96 140.84 641.96C141.86 641.96 142.7 642.18 143.46 642.61C144.22 643.04 144.81 643.63 145.22 644.39C145.63 645.14 145.84 646 145.84 646.94C145.84 647.27 145.82 647.62 145.78 647.99L145.79 648ZM143.62 644.89C143.33 644.41 142.93 644.05 142.43 643.81C141.93 643.56 141.38 643.44 140.77 643.44C139.9 643.44 139.15 643.72 138.54 644.28C137.93 644.84 137.58 645.61 137.49 646.6H144.06C144.06 645.94 143.92 645.37 143.62 644.9V644.89Z" fill="#424242"/>
<path d="M162.43 642.15V652.56H160.7V651.02C160.37 651.55 159.91 651.97 159.32 652.26C158.73 652.56 158.08 652.71 157.37 652.71C156.56 652.71 155.83 652.54 155.19 652.21C154.54 651.88 154.03 651.37 153.66 650.7C153.28 650.03 153.1 649.21 153.1 648.25V642.15H154.81V648.02C154.81 649.05 155.07 649.83 155.59 650.39C156.11 650.94 156.82 651.22 157.72 651.22C158.62 651.22 159.37 650.93 159.9 650.36C160.43 649.79 160.7 648.96 160.7 647.87V642.15H162.43Z" fill="#424242"/>
<path d="M180.04 642.46C180.67 642.8 181.17 643.3 181.54 643.97C181.91 644.64 182.09 645.46 182.09 646.42V652.56H180.38V646.67C180.38 645.63 180.12 644.84 179.61 644.29C179.1 643.74 178.4 643.46 177.53 643.46C176.66 643.46 175.91 643.75 175.38 644.32C174.85 644.9 174.58 645.73 174.58 646.82V652.56H172.87V646.67C172.87 645.63 172.61 644.84 172.1 644.29C171.59 643.74 170.89 643.46 170.02 643.46C169.15 643.46 168.41 643.75 167.87 644.32C167.34 644.9 167.07 645.73 167.07 646.82V652.56H165.34V642.15H167.07V643.65C167.41 643.11 167.87 642.69 168.45 642.4C169.03 642.11 169.66 641.96 170.36 641.96C171.24 641.96 172.01 642.16 172.68 642.55C173.35 642.94 173.85 643.52 174.18 644.28C174.47 643.55 174.95 642.98 175.62 642.57C176.29 642.16 177.04 641.96 177.86 641.96C178.68 641.96 179.39 642.13 180.03 642.46H180.04Z" fill="#424242"/>
<path d="M193.26 642.58C193.94 642.18 194.72 641.98 195.63 641.98C196.54 641.98 197.39 642.2 198.15 642.65C198.91 643.1 199.5 643.72 199.93 644.52C200.36 645.32 200.58 646.26 200.58 647.32C200.58 648.38 200.37 649.31 199.93 650.13C199.5 650.95 198.91 651.59 198.15 652.05C197.39 652.51 196.56 652.73 195.63 652.73C194.7 652.73 193.96 652.53 193.28 652.13C192.6 651.73 192.09 651.23 191.73 650.64V657.5H190V642.15H191.73V644.07C192.07 643.48 192.58 642.98 193.26 642.58ZM198.32 645.26C198 644.68 197.58 644.23 197.04 643.93C196.5 643.63 195.91 643.47 195.26 643.47C194.61 643.47 194.04 643.63 193.5 643.94C192.96 644.25 192.53 644.7 192.21 645.29C191.89 645.88 191.73 646.56 191.73 647.33C191.73 648.1 191.89 648.8 192.21 649.39C192.53 649.98 192.96 650.43 193.5 650.74C194.04 651.05 194.62 651.21 195.26 651.21C195.9 651.21 196.5 651.05 197.04 650.74C197.58 650.43 198 649.98 198.32 649.39C198.64 648.8 198.79 648.11 198.79 647.31C198.79 646.51 198.63 645.84 198.32 645.26Z" fill="#424242"/>
<path d="M202.84 644.51C203.27 643.71 203.86 643.08 204.62 642.64C205.38 642.2 206.21 641.97 207.14 641.97C208.07 641.97 208.84 642.17 209.52 642.56C210.2 642.95 210.69 643.45 211.02 644.04V642.14H212.77V652.55H211.02V650.61C210.68 651.22 210.17 651.72 209.49 652.12C208.81 652.52 208.03 652.72 207.12 652.72C206.21 652.72 205.36 652.49 204.61 652.04C203.86 651.59 203.27 650.94 202.84 650.12C202.41 649.3 202.2 648.36 202.2 647.31C202.2 646.26 202.41 645.31 202.84 644.51ZM210.54 645.28C210.22 644.7 209.8 644.25 209.26 643.94C208.72 643.63 208.13 643.47 207.48 643.47C206.83 643.47 206.25 643.62 205.71 643.93C205.18 644.23 204.75 644.68 204.44 645.26C204.13 645.84 203.97 646.53 203.97 647.31C203.97 648.09 204.13 648.8 204.44 649.39C204.76 649.98 205.18 650.43 205.71 650.74C206.24 651.05 206.83 651.21 207.48 651.21C208.13 651.21 208.72 651.05 209.26 650.74C209.8 650.43 210.22 649.98 210.54 649.39C210.86 648.8 211.01 648.11 211.01 647.33C211.01 646.55 210.85 645.86 210.54 645.28Z" fill="#424242"/>
<path d="M218.94 642.58C219.62 642.18 220.4 641.98 221.31 641.98C222.22 641.98 223.07 642.2 223.83 642.65C224.59 643.1 225.18 643.72 225.61 644.52C226.04 645.32 226.26 646.26 226.26 647.32C226.26 648.38 226.05 649.31 225.61 650.13C225.18 650.95 224.59 651.59 223.83 652.05C223.07 652.51 222.24 652.73 221.31 652.73C220.38 652.73 219.64 652.53 218.96 652.13C218.28 651.73 217.77 651.23 217.41 650.64V657.5H215.68V642.15H217.41V644.07C217.75 643.48 218.26 642.98 218.94 642.58ZM224.01 645.26C223.69 644.68 223.27 644.23 222.73 643.93C222.19 643.63 221.6 643.47 220.95 643.47C220.3 643.47 219.73 643.63 219.19 643.94C218.65 644.25 218.22 644.7 217.9 645.29C217.58 645.88 217.42 646.56 217.42 647.33C217.42 648.1 217.58 648.8 217.9 649.39C218.22 649.98 218.65 650.43 219.19 650.74C219.73 651.05 220.31 651.21 220.95 651.21C221.59 651.21 222.19 651.05 222.73 650.74C223.27 650.43 223.69 649.98 224.01 649.39C224.33 648.8 224.48 648.11 224.48 647.31C224.48 646.51 224.32 645.84 224.01 645.26Z" fill="#424242"/>
<path d="M237.97 648H229.65C229.71 649.03 230.06 649.83 230.7 650.4C231.34 650.98 232.11 651.26 233.03 651.26C233.78 651.26 234.4 651.09 234.9 650.74C235.4 650.39 235.75 649.93 235.95 649.34H237.81C237.53 650.34 236.97 651.15 236.14 651.78C235.31 652.41 234.26 652.72 233.02 652.72C232.03 652.72 231.15 652.5 230.37 652.05C229.59 651.6 228.98 650.98 228.54 650.16C228.09 649.34 227.87 648.4 227.87 647.32C227.87 646.24 228.08 645.3 228.52 644.49C228.95 643.68 229.56 643.06 230.33 642.62C231.11 642.18 232 641.96 233.02 641.96C234.04 641.96 234.88 642.18 235.64 642.61C236.4 643.04 236.99 643.63 237.4 644.39C237.81 645.14 238.02 646 238.02 646.94C238.02 647.27 238 647.62 237.96 647.99L237.97 648ZM235.81 644.89C235.52 644.41 235.12 644.05 234.62 643.81C234.12 643.56 233.57 643.44 232.96 643.44C232.09 643.44 231.34 643.72 230.73 644.28C230.12 644.84 229.77 645.61 229.68 646.6H236.25C236.25 645.94 236.11 645.37 235.81 644.9V644.89Z" fill="#424242"/>
<path d="M242.04 638.5V652.56H240.31V638.5H242.04Z" fill="#424242"/>
<path d="M250.05 644.51C250.48 643.71 251.07 643.08 251.83 642.64C252.59 642.2 253.43 641.97 254.37 641.97C255.31 641.97 256.06 642.17 256.74 642.57C257.42 642.97 257.91 643.46 258.23 644.04V642.14H259.98V657.49H258.23V650.63C257.9 651.21 257.39 651.71 256.71 652.11C256.03 652.51 255.23 652.72 254.32 652.72C253.41 652.72 252.58 652.49 251.83 652.04C251.08 651.59 250.49 650.94 250.06 650.12C249.63 649.3 249.42 648.36 249.42 647.31C249.42 646.26 249.63 645.31 250.06 644.51H250.05ZM257.75 645.28C257.43 644.7 257.01 644.25 256.47 643.94C255.93 643.63 255.34 643.47 254.69 643.47C254.04 643.47 253.46 643.62 252.92 643.93C252.39 644.23 251.96 644.68 251.65 645.26C251.34 645.84 251.18 646.53 251.18 647.31C251.18 648.09 251.34 648.8 251.65 649.39C251.97 649.98 252.39 650.43 252.92 650.74C253.45 651.05 254.04 651.21 254.69 651.21C255.34 651.21 255.93 651.05 256.47 650.74C257.01 650.43 257.43 649.98 257.75 649.39C258.07 648.8 258.22 648.11 258.22 647.33C258.22 646.55 258.06 645.86 257.75 645.28Z" fill="#424242"/>
<path d="M272.13 642.15V652.56H270.4V651.02C270.07 651.55 269.61 651.97 269.02 652.26C268.43 652.56 267.78 652.71 267.07 652.71C266.26 652.71 265.53 652.54 264.89 652.21C264.24 651.88 263.73 651.37 263.36 650.7C262.98 650.03 262.8 649.21 262.8 648.25V642.15H264.51V648.02C264.51 649.05 264.77 649.83 265.29 650.39C265.81 650.94 266.52 651.22 267.42 651.22C268.32 651.22 269.07 650.93 269.6 650.36C270.13 649.79 270.4 648.96 270.4 647.87V642.15H272.13Z" fill="#424242"/>
<path d="M275.06 644.51C275.49 643.71 276.08 643.08 276.84 642.64C277.6 642.2 278.43 641.97 279.36 641.97C280.29 641.97 281.06 642.17 281.74 642.56C282.42 642.95 282.91 643.45 283.24 644.04V642.14H284.99V652.55H283.24V650.61C282.9 651.22 282.39 651.72 281.71 652.12C281.03 652.52 280.25 652.72 279.34 652.72C278.43 652.72 277.58 652.49 276.83 652.04C276.08 651.59 275.49 650.94 275.06 650.12C274.63 649.3 274.42 648.36 274.42 647.31C274.42 646.26 274.63 645.31 275.06 644.51ZM282.75 645.28C282.43 644.7 282.01 644.25 281.47 643.94C280.93 643.63 280.34 643.47 279.69 643.47C279.04 643.47 278.46 643.62 277.92 643.93C277.39 644.23 276.96 644.68 276.65 645.26C276.34 645.84 276.18 646.53 276.18 647.31C276.18 648.09 276.34 648.8 276.65 649.39C276.97 649.98 277.39 650.43 277.92 650.74C278.45 651.05 279.04 651.21 279.69 651.21C280.34 651.21 280.93 651.05 281.47 650.74C282.01 650.43 282.43 649.98 282.75 649.39C283.07 648.8 283.22 648.11 283.22 647.33C283.22 646.55 283.06 645.86 282.75 645.28Z" fill="#424242"/>
<path d="M287.9 644.51C288.33 643.71 288.92 643.08 289.68 642.64C290.44 642.2 291.28 641.97 292.22 641.97C293.03 641.97 293.78 642.16 294.48 642.53C295.18 642.9 295.71 643.39 296.08 644V638.49H297.83V652.55H296.08V650.59C295.74 651.21 295.23 651.72 294.56 652.12C293.89 652.52 293.1 652.72 292.2 652.72C291.3 652.72 290.44 652.49 289.68 652.04C288.92 651.59 288.33 650.94 287.9 650.12C287.47 649.3 287.26 648.36 287.26 647.31C287.26 646.26 287.47 645.31 287.9 644.51ZM295.6 645.28C295.28 644.7 294.86 644.25 294.32 643.94C293.78 643.63 293.19 643.47 292.54 643.47C291.89 643.47 291.31 643.62 290.77 643.93C290.24 644.23 289.81 644.68 289.5 645.26C289.19 645.84 289.03 646.53 289.03 647.31C289.03 648.09 289.19 648.8 289.5 649.39C289.82 649.98 290.24 650.43 290.77 650.74C291.3 651.05 291.89 651.21 292.54 651.21C293.19 651.21 293.78 651.05 294.32 650.74C294.86 650.43 295.28 649.98 295.6 649.39C295.92 648.8 296.07 648.11 296.07 647.33C296.07 646.55 295.91 645.86 295.6 645.28Z" fill="#424242"/>
<path d="M303.78 642.45C304.34 642.12 305.03 641.96 305.84 641.96V643.75H305.38C303.44 643.75 302.47 644.8 302.47 646.9V652.56H300.74V642.15H302.47V643.84C302.77 643.24 303.21 642.78 303.77 642.45H303.78Z" fill="#424242"/>
<path d="M307.83 644.51C308.26 643.71 308.85 643.08 309.61 642.64C310.37 642.2 311.2 641.97 312.13 641.97C313.06 641.97 313.84 642.17 314.51 642.56C315.18 642.95 315.68 643.45 316.01 644.04V642.14H317.76V652.55H316.01V650.61C315.67 651.22 315.16 651.72 314.48 652.12C313.8 652.52 313.01 652.72 312.11 652.72C311.21 652.72 310.35 652.49 309.6 652.04C308.85 651.58 308.26 650.94 307.83 650.12C307.4 649.3 307.18 648.36 307.18 647.31C307.18 646.26 307.39 645.31 307.83 644.51ZM315.53 645.28C315.21 644.7 314.79 644.25 314.25 643.94C313.71 643.63 313.12 643.47 312.47 643.47C311.82 643.47 311.24 643.62 310.7 643.93C310.17 644.23 309.74 644.68 309.43 645.26C309.12 645.84 308.96 646.53 308.96 647.31C308.96 648.09 309.12 648.8 309.43 649.39C309.75 649.98 310.17 650.43 310.7 650.74C311.23 651.05 311.82 651.21 312.47 651.21C313.12 651.21 313.71 651.05 314.25 650.74C314.79 650.43 315.21 649.98 315.53 649.39C315.85 648.8 316 648.11 316 647.33C316 646.55 315.84 645.86 315.53 645.28Z" fill="#424242"/>
<path d="M320.68 644.51C321.11 643.71 321.7 643.08 322.46 642.64C323.22 642.2 324.06 641.97 325 641.97C325.81 641.97 326.56 642.16 327.26 642.53C327.96 642.9 328.49 643.39 328.86 644V638.49H330.61V652.55H328.86V650.59C328.52 651.21 328.01 651.72 327.34 652.12C326.67 652.52 325.88 652.72 324.98 652.72C324.08 652.72 323.22 652.49 322.46 652.04C321.7 651.59 321.11 650.94 320.68 650.12C320.25 649.3 320.03 648.36 320.03 647.31C320.03 646.26 320.24 645.31 320.68 644.51ZM328.37 645.28C328.05 644.7 327.63 644.25 327.09 643.94C326.55 643.63 325.96 643.47 325.31 643.47C324.66 643.47 324.08 643.62 323.54 643.93C323.01 644.23 322.58 644.68 322.27 645.26C321.96 645.84 321.8 646.53 321.8 647.31C321.8 648.09 321.96 648.8 322.27 649.39C322.59 649.98 323.01 650.43 323.54 650.74C324.07 651.05 324.66 651.21 325.31 651.21C325.96 651.21 326.55 651.05 327.09 650.74C327.63 650.43 328.05 649.98 328.37 649.39C328.69 648.8 328.84 648.11 328.84 647.33C328.84 646.55 328.68 645.86 328.37 645.28Z" fill="#424242"/>
<path d="M335.41 652.07C334.62 651.63 334 651 333.55 650.18C333.1 649.36 332.88 648.42 332.88 647.34C332.88 646.26 333.11 645.34 333.57 644.52C334.03 643.7 334.66 643.08 335.46 642.64C336.26 642.2 337.15 641.98 338.14 641.98C339.13 641.98 340.02 642.2 340.82 642.64C341.62 643.08 342.25 643.7 342.71 644.51C343.17 645.32 343.4 646.26 343.4 647.34C343.4 648.42 343.16 649.36 342.69 650.18C342.21 651 341.57 651.63 340.76 652.07C339.95 652.51 339.05 652.74 338.06 652.74C337.07 652.74 336.2 652.52 335.41 652.07ZM339.81 650.77C340.35 650.48 340.79 650.04 341.13 649.46C341.47 648.88 341.63 648.17 341.63 647.33C341.63 646.49 341.46 645.78 341.14 645.2C340.81 644.62 340.38 644.18 339.85 643.9C339.32 643.61 338.74 643.47 338.12 643.47C337.5 643.47 336.91 643.61 336.38 643.9C335.85 644.19 335.43 644.62 335.12 645.2C334.8 645.78 334.65 646.49 334.65 647.33C334.65 648.17 334.8 648.89 335.11 649.48C335.42 650.06 335.83 650.5 336.35 650.78C336.87 651.06 337.44 651.21 338.06 651.21C338.68 651.21 339.26 651.06 339.81 650.77Z" fill="#424242"/>
<path d="M360.2 648H351.88C351.94 649.03 352.3 649.83 352.93 650.4C353.57 650.98 354.35 651.26 355.26 651.26C356.01 651.26 356.63 651.09 357.13 650.74C357.63 650.39 357.98 649.93 358.18 649.34H360.04C359.76 650.34 359.2 651.15 358.37 651.78C357.54 652.41 356.49 652.72 355.25 652.72C354.26 652.72 353.38 652.5 352.6 652.05C351.82 651.6 351.21 650.98 350.77 650.16C350.33 649.34 350.11 648.4 350.11 647.32C350.11 646.24 350.32 645.3 350.75 644.49C351.18 643.68 351.79 643.06 352.56 642.62C353.34 642.18 354.24 641.96 355.25 641.96C356.26 641.96 357.11 642.18 357.87 642.61C358.63 643.04 359.22 643.63 359.63 644.39C360.04 645.15 360.25 646 360.25 646.94C360.25 647.27 360.23 647.62 360.19 647.99L360.2 648ZM358.03 644.89C357.74 644.41 357.34 644.05 356.84 643.81C356.34 643.56 355.79 643.44 355.18 643.44C354.3 643.44 353.56 643.72 352.95 644.28C352.33 644.84 351.98 645.61 351.9 646.6H358.47C358.47 645.94 358.32 645.37 358.03 644.9V644.89Z" fill="#424242"/>
<path d="M367.61 644.51C368.04 643.71 368.63 643.08 369.39 642.64C370.15 642.2 370.99 641.97 371.93 641.97C372.74 641.97 373.49 642.16 374.19 642.53C374.89 642.9 375.42 643.39 375.79 644V638.49H377.54V652.55H375.79V650.59C375.45 651.21 374.94 651.72 374.27 652.12C373.6 652.52 372.81 652.72 371.91 652.72C371.01 652.72 370.15 652.49 369.39 652.04C368.63 651.59 368.04 650.94 367.61 650.12C367.18 649.3 366.96 648.36 366.96 647.31C366.96 646.26 367.17 645.31 367.61 644.51ZM375.3 645.28C374.98 644.7 374.56 644.25 374.02 643.94C373.48 643.63 372.89 643.47 372.24 643.47C371.59 643.47 371.01 643.62 370.47 643.93C369.94 644.23 369.51 644.68 369.2 645.26C368.89 645.84 368.73 646.53 368.73 647.31C368.73 648.09 368.89 648.8 369.2 649.39C369.52 649.98 369.94 650.43 370.47 650.74C371 651.05 371.59 651.21 372.24 651.21C372.89 651.21 373.48 651.05 374.02 650.74C374.56 650.43 374.98 649.98 375.3 649.39C375.62 648.8 375.77 648.11 375.77 647.33C375.77 646.55 375.61 645.86 375.3 645.28Z" fill="#424242"/>
<path d="M382.34 652.07C381.55 651.63 380.93 651 380.48 650.18C380.03 649.36 379.81 648.42 379.81 647.34C379.81 646.26 380.04 645.34 380.5 644.52C380.96 643.7 381.59 643.08 382.39 642.64C383.19 642.2 384.08 641.98 385.07 641.98C386.06 641.98 386.95 642.2 387.75 642.64C388.55 643.08 389.18 643.7 389.64 644.51C390.1 645.32 390.33 646.26 390.33 647.34C390.33 648.42 390.09 649.36 389.62 650.18C389.14 651 388.5 651.63 387.69 652.07C386.88 652.51 385.98 652.74 384.99 652.74C384 652.74 383.13 652.52 382.34 652.07ZM386.74 650.77C387.28 650.48 387.72 650.04 388.06 649.46C388.4 648.88 388.56 648.17 388.56 647.33C388.56 646.49 388.39 645.78 388.07 645.2C387.74 644.62 387.31 644.18 386.78 643.9C386.25 643.61 385.67 643.47 385.05 643.47C384.43 643.47 383.84 643.61 383.31 643.9C382.78 644.19 382.36 644.62 382.05 645.2C381.73 645.78 381.58 646.49 381.58 647.33C381.58 648.17 381.73 648.89 382.04 649.48C382.35 650.06 382.76 650.5 383.28 650.78C383.8 651.06 384.37 651.21 384.99 651.21C385.61 651.21 386.19 651.06 386.74 650.77Z" fill="#424242"/>
<path d="M395.9 642.57C396.58 642.18 397.36 641.98 398.24 641.98C399.18 641.98 400.02 642.2 400.77 642.65C401.52 643.1 402.11 643.72 402.54 644.52C402.97 645.32 403.19 646.26 403.19 647.32C403.19 648.38 402.97 649.31 402.54 650.13C402.11 650.95 401.52 651.59 400.76 652.05C400 652.51 399.17 652.73 398.24 652.73C397.31 652.73 396.55 652.53 395.87 652.14C395.19 651.75 394.68 651.25 394.34 650.64V652.56H392.61V638.5H394.34V644.09C394.7 643.47 395.22 642.96 395.9 642.57ZM400.93 645.26C400.61 644.68 400.19 644.23 399.65 643.93C399.11 643.63 398.52 643.47 397.87 643.47C397.22 643.47 396.65 643.63 396.11 643.94C395.57 644.25 395.14 644.7 394.82 645.29C394.5 645.88 394.34 646.56 394.34 647.33C394.34 648.1 394.5 648.8 394.82 649.39C395.14 649.98 395.57 650.43 396.11 650.74C396.65 651.05 397.23 651.21 397.87 651.21C398.51 651.21 399.11 651.05 399.65 650.74C400.19 650.43 400.61 649.98 400.93 649.39C401.25 648.8 401.4 648.11 401.4 647.31C401.4 646.51 401.24 645.84 400.93 645.26Z" fill="#424242"/>
<path d="M408.48 642.45C409.04 642.12 409.73 641.96 410.54 641.96V643.75H410.08C408.14 643.75 407.17 644.8 407.17 646.9V652.56H405.44V642.15H407.17V643.84C407.47 643.24 407.91 642.78 408.47 642.45H408.48Z" fill="#424242"/>
<path d="M421.98 648H413.66C413.72 649.03 414.08 649.83 414.71 650.4C415.35 650.98 416.13 651.26 417.04 651.26C417.79 651.26 418.41 651.09 418.91 650.74C419.41 650.39 419.76 649.93 419.96 649.34H421.82C421.54 650.34 420.98 651.15 420.15 651.78C419.32 652.41 418.27 652.72 417.03 652.72C416.04 652.72 415.16 652.5 414.38 652.05C413.6 651.6 412.99 650.98 412.55 650.16C412.11 649.34 411.89 648.4 411.89 647.32C411.89 646.24 412.1 645.3 412.53 644.49C412.96 643.68 413.57 643.06 414.34 642.62C415.12 642.18 416.02 641.96 417.03 641.96C418.04 641.96 418.89 642.18 419.65 642.61C420.41 643.04 421 643.63 421.41 644.39C421.82 645.15 422.03 646 422.03 646.94C422.03 647.27 422.01 647.62 421.97 647.99L421.98 648ZM419.82 644.89C419.53 644.41 419.13 644.05 418.63 643.81C418.13 643.56 417.58 643.44 416.97 643.44C416.09 643.44 415.35 643.72 414.74 644.28C414.12 644.84 413.77 645.61 413.69 646.6H420.26C420.26 645.94 420.11 645.37 419.82 644.9V644.89Z" fill="#424242"/>
<path d="M431.54 644.86V646.32H423.96V644.86H431.54Z" fill="#424242"/>
<path d="M436.68 652.07C435.89 651.63 435.27 651 434.82 650.18C434.37 649.36 434.15 648.42 434.15 647.34C434.15 646.26 434.38 645.34 434.84 644.52C435.3 643.7 435.93 643.08 436.73 642.64C437.53 642.2 438.42 641.98 439.41 641.98C440.4 641.98 441.29 642.2 442.09 642.64C442.89 643.08 443.52 643.7 443.98 644.51C444.44 645.32 444.67 646.26 444.67 647.34C444.67 648.42 444.43 649.36 443.96 650.18C443.48 651 442.84 651.63 442.03 652.07C441.22 652.51 440.32 652.74 439.33 652.74C438.34 652.74 437.47 652.52 436.68 652.07ZM441.08 650.77C441.62 650.48 442.06 650.04 442.4 649.46C442.74 648.88 442.9 648.17 442.9 647.33C442.9 646.49 442.73 645.78 442.41 645.2C442.08 644.62 441.65 644.18 441.12 643.9C440.59 643.61 440.01 643.47 439.39 643.47C438.77 643.47 438.18 643.61 437.65 643.9C437.12 644.19 436.7 644.62 436.39 645.2C436.07 645.78 435.92 646.49 435.92 647.33C435.92 648.17 436.07 648.89 436.38 649.48C436.69 650.06 437.1 650.5 437.62 650.78C438.14 651.06 438.71 651.21 439.33 651.21C439.95 651.21 440.53 651.06 441.08 650.77Z" fill="#424242"/>
<path d="M460.17 643.11C460.96 643.88 461.35 644.98 461.35 646.43V652.57H459.64V646.68C459.64 645.64 459.38 644.85 458.86 644.3C458.34 643.75 457.63 643.47 456.73 643.47C455.83 643.47 455.09 643.75 454.55 644.32C454.01 644.89 453.74 645.72 453.74 646.81V652.57H452.01V642.16H453.74V643.64C454.08 643.11 454.55 642.7 455.14 642.4C455.73 642.11 456.38 641.96 457.09 641.96C458.36 641.96 459.38 642.34 460.17 643.11Z" fill="#424242"/>
<path d="M466.07 652.07C465.28 651.63 464.66 651 464.21 650.18C463.76 649.36 463.54 648.42 463.54 647.34C463.54 646.26 463.77 645.34 464.23 644.52C464.69 643.7 465.32 643.08 466.12 642.64C466.92 642.2 467.81 641.98 468.8 641.98C469.79 641.98 470.68 642.2 471.48 642.64C472.28 643.08 472.91 643.7 473.37 644.51C473.83 645.32 474.06 646.26 474.06 647.34C474.06 648.42 473.82 649.36 473.35 650.18C472.87 651 472.23 651.63 471.42 652.07C470.61 652.51 469.71 652.74 468.72 652.74C467.73 652.74 466.86 652.52 466.07 652.07ZM470.47 650.77C471.01 650.48 471.45 650.04 471.79 649.46C472.13 648.88 472.29 648.17 472.29 647.33C472.29 646.49 472.12 645.78 471.8 645.2C471.47 644.62 471.04 644.18 470.51 643.9C469.98 643.61 469.4 643.47 468.78 643.47C468.16 643.47 467.57 643.61 467.04 643.9C466.51 644.19 466.09 644.62 465.78 645.2C465.46 645.78 465.31 646.49 465.31 647.33C465.31 648.17 465.46 648.89 465.77 649.48C466.08 650.06 466.49 650.5 467.01 650.78C467.53 651.06 468.1 651.21 468.72 651.21C469.34 651.21 469.92 651.06 470.47 650.77Z" fill="#424242"/>
<path d="M496.1 642.46C496.73 642.8 497.23 643.3 497.6 643.97C497.97 644.64 498.15 645.46 498.15 646.42V652.56H496.44V646.67C496.44 645.63 496.18 644.84 495.67 644.29C495.16 643.74 494.46 643.46 493.59 643.46C492.72 643.46 491.97 643.75 491.44 644.32C490.91 644.9 490.64 645.73 490.64 646.82V652.56H488.93V646.67C488.93 645.63 488.67 644.84 488.16 644.29C487.65 643.74 486.95 643.46 486.08 643.46C485.21 643.46 484.47 643.75 483.93 644.32C483.4 644.9 483.13 645.73 483.13 646.82V652.56H481.4V642.15H483.13V643.65C483.47 643.11 483.93 642.69 484.51 642.4C485.09 642.11 485.72 641.96 486.42 641.96C487.3 641.96 488.07 642.16 488.74 642.55C489.41 642.94 489.91 643.52 490.24 644.28C490.53 643.55 491.01 642.98 491.68 642.57C492.35 642.16 493.1 641.96 493.92 641.96C494.74 641.96 495.45 642.13 496.09 642.46H496.1Z" fill="#424242"/>
<path d="M510.43 648H502.11C502.17 649.03 502.52 649.83 503.16 650.4C503.8 650.98 504.57 651.26 505.49 651.26C506.24 651.26 506.86 651.09 507.36 650.74C507.86 650.39 508.21 649.93 508.41 649.34H510.27C509.99 650.34 509.43 651.15 508.6 651.78C507.77 652.41 506.72 652.72 505.48 652.72C504.49 652.72 503.61 652.5 502.83 652.05C502.05 651.6 501.44 650.98 501 650.16C500.55 649.34 500.33 648.4 500.33 647.32C500.33 646.24 500.54 645.3 500.98 644.49C501.41 643.68 502.02 643.06 502.79 642.62C503.57 642.18 504.46 641.96 505.48 641.96C506.5 641.96 507.34 642.18 508.1 642.61C508.86 643.04 509.45 643.63 509.86 644.39C510.27 645.14 510.48 646 510.48 646.94C510.48 647.27 510.46 647.62 510.42 647.99L510.43 648ZM508.26 644.89C507.97 644.41 507.57 644.05 507.07 643.81C506.57 643.56 506.02 643.44 505.41 643.44C504.54 643.44 503.79 643.72 503.18 644.28C502.57 644.84 502.22 645.61 502.13 646.6H508.7C508.7 645.94 508.56 645.37 508.26 644.9V644.89Z" fill="#424242"/>
<path d="M512.82 640.11C512.59 639.88 512.48 639.6 512.48 639.27C512.48 638.94 512.6 638.66 512.82 638.43C513.05 638.2 513.33 638.09 513.66 638.09C513.99 638.09 514.24 638.2 514.47 638.43C514.69 638.66 514.8 638.94 514.8 639.27C514.8 639.6 514.69 639.88 514.47 640.11C514.25 640.34 513.98 640.45 513.66 640.45C513.34 640.45 513.05 640.34 512.82 640.11ZM514.5 642.15V652.56H512.77V642.15H514.5Z" fill="#424242"/>
<path d="M519.33 652.07C518.54 651.63 517.92 651 517.47 650.18C517.02 649.36 516.8 648.42 516.8 647.34C516.8 646.26 517.03 645.34 517.49 644.52C517.95 643.7 518.58 643.08 519.38 642.64C520.18 642.2 521.07 641.98 522.06 641.98C523.05 641.98 523.94 642.2 524.74 642.64C525.54 643.08 526.17 643.7 526.63 644.51C527.09 645.32 527.32 646.26 527.32 647.34C527.32 648.42 527.08 649.36 526.61 650.18C526.14 651 525.49 651.63 524.68 652.07C523.87 652.51 522.97 652.74 521.98 652.74C520.99 652.74 520.12 652.52 519.33 652.07ZM523.73 650.77C524.27 650.48 524.71 650.04 525.05 649.46C525.39 648.88 525.55 648.17 525.55 647.33C525.55 646.49 525.39 645.78 525.06 645.2C524.73 644.62 524.3 644.18 523.77 643.9C523.24 643.61 522.66 643.47 522.04 643.47C521.42 643.47 520.83 643.61 520.3 643.9C519.77 644.19 519.35 644.62 519.04 645.2C518.72 645.78 518.57 646.49 518.57 647.33C518.57 648.17 518.73 648.89 519.04 649.48C519.35 650.06 519.76 650.5 520.28 650.78C520.8 651.06 521.37 651.21 521.99 651.21C522.61 651.21 523.19 651.06 523.74 650.77H523.73Z" fill="#424242"/>
<path d="M707.44 640.72V645.15H712.27V646.57H707.44V651.13H712.84V652.55H705.72V639.29H712.84V640.71H707.44V640.72Z" fill="#424242"/>
<path d="M723.61 643.11C724.4 643.88 724.79 644.98 724.79 646.43V652.57H723.08V646.68C723.08 645.64 722.82 644.85 722.3 644.3C721.78 643.75 721.07 643.47 720.17 643.47C719.27 643.47 718.53 643.75 717.99 644.32C717.45 644.89 717.18 645.72 717.18 646.81V652.57H715.45V642.16H717.18V643.64C717.52 643.11 717.99 642.7 718.58 642.4C719.17 642.11 719.82 641.96 720.53 641.96C721.8 641.96 722.82 642.34 723.61 643.11Z" fill="#424242"/>
<path d="M729.72 643.57V649.71C729.72 650.22 729.83 650.57 730.04 650.78C730.26 650.99 730.63 651.09 731.16 651.09H732.43V652.55H730.87C729.91 652.55 729.18 652.33 728.7 651.88C728.22 651.44 727.98 650.71 727.98 649.7V643.56H726.63V642.14H727.98V639.52H729.71V642.14H732.43V643.56H729.71L729.72 643.57Z" fill="#424242"/>
<path d="M734.53 644.51C734.96 643.71 735.55 643.08 736.31 642.64C737.07 642.2 737.9 641.97 738.83 641.97C739.76 641.97 740.53 642.17 741.21 642.56C741.88 642.95 742.38 643.45 742.71 644.04V642.14H744.46V652.55H742.71V650.61C742.37 651.22 741.86 651.72 741.18 652.12C740.5 652.52 739.71 652.72 738.81 652.72C737.91 652.72 737.05 652.49 736.3 652.04C735.55 651.58 734.96 650.94 734.53 650.12C734.1 649.3 733.88 648.36 733.88 647.31C733.88 646.26 734.09 645.31 734.53 644.51ZM742.22 645.28C741.9 644.7 741.48 644.25 740.94 643.94C740.4 643.63 739.81 643.47 739.16 643.47C738.51 643.47 737.93 643.62 737.39 643.93C736.85 644.24 736.43 644.68 736.12 645.26C735.81 645.84 735.65 646.53 735.65 647.31C735.65 648.09 735.81 648.8 736.12 649.39C736.44 649.98 736.86 650.43 737.39 650.74C737.92 651.05 738.51 651.21 739.16 651.21C739.81 651.21 740.4 651.05 740.94 650.74C741.48 650.43 741.9 649.98 742.22 649.39C742.54 648.8 742.69 648.11 742.69 647.33C742.69 646.55 742.53 645.86 742.22 645.28ZM737.35 639.55C737.69 639.21 738.11 639.04 738.61 639.04C738.85 639.04 739.06 639.08 739.23 639.16C739.4 639.24 739.61 639.36 739.85 639.51C740.03 639.64 740.18 639.73 740.32 639.8C740.46 639.87 740.61 639.9 740.78 639.9C741 639.9 741.18 639.83 741.33 639.69C741.48 639.55 741.58 639.35 741.62 639.08H742.61C742.53 639.71 742.32 640.2 741.98 640.54C741.64 640.88 741.21 641.05 740.71 641.05C740.47 641.05 740.26 641.01 740.07 640.93C739.89 640.85 739.68 640.72 739.45 640.56C739.25 640.43 739.09 640.34 738.97 640.27C738.85 640.21 738.71 640.18 738.54 640.18C738.33 640.18 738.14 640.25 738 640.39C737.85 640.53 737.76 640.74 737.72 641.02H736.71C736.8 640.37 737.01 639.88 737.35 639.54V639.55Z" fill="#424242"/>
<path d="M749.26 652.07C748.47 651.63 747.85 651 747.4 650.18C746.95 649.36 746.73 648.42 746.73 647.34C746.73 646.26 746.96 645.34 747.42 644.52C747.88 643.7 748.51 643.08 749.31 642.64C750.11 642.2 751 641.98 751.99 641.98C752.98 641.98 753.87 642.2 754.67 642.64C755.47 643.08 756.1 643.7 756.56 644.51C757.02 645.32 757.25 646.26 757.25 647.34C757.25 648.42 757.01 649.36 756.54 650.18C756.06 651 755.42 651.63 754.61 652.07C753.8 652.51 752.9 652.74 751.91 652.74C750.92 652.74 750.05 652.52 749.26 652.07ZM753.66 650.77C754.2 650.48 754.64 650.04 754.98 649.46C755.32 648.88 755.48 648.17 755.48 647.33C755.48 646.49 755.31 645.78 754.99 645.2C754.66 644.62 754.23 644.18 753.7 643.9C753.17 643.62 752.59 643.47 751.97 643.47C751.35 643.47 750.76 643.61 750.23 643.9C749.7 644.19 749.28 644.62 748.97 645.2C748.65 645.78 748.5 646.49 748.5 647.33C748.5 648.17 748.66 648.89 748.97 649.48C749.28 650.06 749.69 650.5 750.21 650.78C750.73 651.06 751.3 651.21 751.92 651.21C752.54 651.21 753.12 651.06 753.67 650.77H753.66Z" fill="#424242"/>
<path d="M764.61 644.51C765.04 643.71 765.63 643.08 766.39 642.64C767.15 642.2 767.99 641.97 768.93 641.97C769.74 641.97 770.49 642.16 771.19 642.53C771.89 642.9 772.42 643.39 772.79 644V638.49H774.54V652.55H772.79V650.59C772.45 651.21 771.94 651.72 771.27 652.12C770.6 652.52 769.81 652.72 768.91 652.72C768.01 652.72 767.15 652.49 766.39 652.04C765.63 651.59 765.04 650.94 764.61 650.12C764.18 649.3 763.96 648.36 763.96 647.31C763.96 646.26 764.17 645.31 764.61 644.51ZM772.3 645.28C771.98 644.7 771.56 644.25 771.02 643.94C770.48 643.63 769.89 643.47 769.24 643.47C768.59 643.47 768.01 643.62 767.47 643.93C766.93 644.24 766.51 644.68 766.2 645.26C765.89 645.84 765.73 646.53 765.73 647.31C765.73 648.09 765.89 648.8 766.2 649.39C766.52 649.98 766.94 650.43 767.47 650.74C768 651.05 768.59 651.21 769.24 651.21C769.89 651.21 770.48 651.05 771.02 650.74C771.56 650.43 771.98 649.98 772.3 649.39C772.62 648.8 772.77 648.11 772.77 647.33C772.77 646.55 772.61 645.86 772.3 645.28Z" fill="#424242"/>
<path d="M779.34 652.07C778.55 651.63 777.93 651 777.48 650.18C777.03 649.36 776.81 648.42 776.81 647.34C776.81 646.26 777.04 645.34 777.5 644.52C777.96 643.7 778.59 643.08 779.39 642.64C780.19 642.2 781.08 641.98 782.07 641.98C783.06 641.98 783.95 642.2 784.75 642.64C785.55 643.08 786.18 643.7 786.64 644.51C787.1 645.32 787.33 646.26 787.33 647.34C787.33 648.42 787.09 649.36 786.62 650.18C786.14 651 785.5 651.63 784.69 652.07C783.88 652.51 782.98 652.74 781.99 652.74C781 652.74 780.13 652.52 779.34 652.07ZM783.74 650.77C784.28 650.48 784.72 650.04 785.06 649.46C785.4 648.88 785.56 648.17 785.56 647.33C785.56 646.49 785.39 645.78 785.07 645.2C784.74 644.62 784.31 644.18 783.78 643.9C783.25 643.62 782.67 643.47 782.05 643.47C781.43 643.47 780.84 643.61 780.31 643.9C779.78 644.19 779.36 644.62 779.05 645.2C778.73 645.78 778.58 646.49 778.58 647.33C778.58 648.17 778.74 648.89 779.05 649.48C779.36 650.06 779.77 650.5 780.29 650.78C780.81 651.06 781.38 651.21 782 651.21C782.62 651.21 783.2 651.06 783.75 650.77H783.74Z" fill="#424242"/>
<path d="M792.9 642.57C793.58 642.18 794.36 641.98 795.24 641.98C796.18 641.98 797.02 642.2 797.77 642.65C798.52 643.09 799.11 643.72 799.54 644.52C799.97 645.32 800.19 646.26 800.19 647.32C800.19 648.38 799.97 649.31 799.54 650.13C799.11 650.95 798.52 651.59 797.76 652.05C797 652.51 796.17 652.73 795.24 652.73C794.31 652.73 793.55 652.53 792.87 652.14C792.19 651.75 791.68 651.25 791.34 650.64V652.56H789.61V638.5H791.34V644.09C791.69 643.47 792.21 642.96 792.9 642.57ZM797.93 645.26C797.61 644.68 797.19 644.23 796.65 643.93C796.11 643.63 795.52 643.47 794.87 643.47C794.22 643.47 793.65 643.63 793.11 643.94C792.57 644.25 792.14 644.7 791.82 645.29C791.5 645.88 791.34 646.56 791.34 647.33C791.34 648.1 791.5 648.8 791.82 649.39C792.14 649.98 792.57 650.43 793.11 650.74C793.65 651.05 794.23 651.21 794.87 651.21C795.51 651.21 796.11 651.05 796.65 650.74C797.19 650.43 797.61 649.98 797.93 649.39C798.25 648.8 798.4 648.11 798.4 647.31C798.4 646.51 798.24 645.84 797.93 645.26Z" fill="#424242"/>
<path d="M805.48 642.45C806.04 642.12 806.73 641.96 807.54 641.96V643.75H807.08C805.14 643.75 804.17 644.8 804.17 646.9V652.56H802.44V642.15H804.17V643.84C804.47 643.24 804.91 642.78 805.47 642.45H805.48Z" fill="#424242"/>
<path d="M818.98 648H810.66C810.72 649.03 811.08 649.83 811.71 650.4C812.34 650.97 813.13 651.26 814.04 651.26C814.79 651.26 815.41 651.09 815.91 650.74C816.41 650.39 816.76 649.93 816.96 649.34H818.82C818.54 650.34 817.98 651.15 817.15 651.78C816.32 652.41 815.27 652.72 814.03 652.72C813.04 652.72 812.16 652.5 811.38 652.05C810.6 651.6 809.99 650.98 809.55 650.16C809.11 649.34 808.88 648.4 808.88 647.32C808.88 646.24 809.09 645.3 809.53 644.49C809.97 643.68 810.57 643.06 811.34 642.62C812.12 642.18 813.01 641.96 814.03 641.96C815.05 641.96 815.89 642.18 816.65 642.61C817.41 643.04 818 643.63 818.41 644.39C818.82 645.14 819.03 646 819.03 646.94C819.03 647.27 819.01 647.62 818.97 647.99L818.98 648ZM816.82 644.89C816.53 644.41 816.13 644.05 815.63 643.81C815.13 643.56 814.58 643.44 813.97 643.44C813.1 643.44 812.35 643.72 811.74 644.28C811.13 644.84 810.77 645.61 810.69 646.6H817.26C817.26 645.94 817.11 645.37 816.82 644.9V644.89Z" fill="#424242"/>
<path d="M841.08 642.46C841.71 642.8 842.21 643.3 842.58 643.97C842.95 644.64 843.13 645.46 843.13 646.42V652.56H841.42V646.67C841.42 645.63 841.16 644.84 840.65 644.29C840.14 643.74 839.44 643.46 838.57 643.46C837.7 643.46 836.96 643.75 836.42 644.32C835.88 644.89 835.62 645.73 835.62 646.82V652.56H833.91V646.67C833.91 645.63 833.65 644.84 833.14 644.29C832.63 643.74 831.93 643.46 831.06 643.46C830.19 643.46 829.45 643.75 828.91 644.32C828.37 644.89 828.11 645.73 828.11 646.82V652.56H826.38V642.15H828.11V643.65C828.45 643.11 828.91 642.69 829.49 642.4C830.07 642.11 830.7 641.96 831.4 641.96C832.27 641.96 833.05 642.16 833.72 642.55C834.39 642.94 834.89 643.52 835.22 644.28C835.51 643.55 835.99 642.98 836.66 642.57C837.33 642.16 838.08 641.96 838.9 641.96C839.72 641.96 840.43 642.13 841.07 642.46H841.08Z" fill="#424242"/>
<path d="M845.96 644.51C846.39 643.71 846.98 643.08 847.74 642.64C848.5 642.2 849.33 641.97 850.26 641.97C851.19 641.97 851.96 642.17 852.64 642.56C853.31 642.95 853.81 643.45 854.14 644.04V642.14H855.89V652.55H854.14V650.61C853.8 651.22 853.29 651.72 852.61 652.12C851.93 652.52 851.14 652.72 850.24 652.72C849.34 652.72 848.48 652.49 847.73 652.04C846.98 651.58 846.39 650.94 845.96 650.12C845.53 649.3 845.31 648.36 845.31 647.31C845.31 646.26 845.52 645.31 845.96 644.51ZM853.66 645.28C853.34 644.7 852.92 644.25 852.38 643.94C851.84 643.63 851.25 643.47 850.6 643.47C849.95 643.47 849.37 643.62 848.83 643.93C848.29 644.24 847.87 644.68 847.56 645.26C847.25 645.84 847.09 646.53 847.09 647.31C847.09 648.09 847.25 648.8 847.56 649.39C847.88 649.98 848.3 650.43 848.83 650.74C849.36 651.05 849.95 651.21 850.6 651.21C851.25 651.21 851.84 651.05 852.38 650.74C852.92 650.43 853.34 649.98 853.66 649.39C853.98 648.8 854.13 648.11 854.13 647.33C854.13 646.55 853.97 645.86 853.66 645.28Z" fill="#424242"/>
<path d="M858.86 640.11C858.63 639.88 858.52 639.6 858.52 639.27C858.52 638.94 858.63 638.66 858.86 638.43C859.09 638.2 859.37 638.09 859.7 638.09C860.03 638.09 860.28 638.2 860.51 638.43C860.73 638.66 860.84 638.94 860.84 639.27C860.84 639.6 860.73 639.88 860.51 640.11C860.29 640.34 860.02 640.45 859.7 640.45C859.38 640.45 859.09 640.34 858.86 640.11ZM860.54 642.15V652.56H858.81V642.15H860.54Z" fill="#424242"/>
<path d="M865.02 652.32C864.39 652.05 863.89 651.67 863.52 651.18C863.15 650.69 862.95 650.13 862.91 649.5H864.7C864.75 650.02 864.99 650.44 865.43 650.77C865.87 651.1 866.44 651.26 867.15 651.26C867.81 651.26 868.33 651.11 868.71 650.82C869.09 650.53 869.28 650.16 869.28 649.72C869.28 649.28 869.08 648.93 868.67 648.7C868.26 648.48 867.64 648.26 866.79 648.04C866.02 647.84 865.39 647.63 864.9 647.42C864.41 647.21 863.99 646.9 863.65 646.49C863.3 646.08 863.13 645.54 863.13 644.87C863.13 644.34 863.29 643.85 863.61 643.41C863.93 642.97 864.38 642.62 864.96 642.36C865.54 642.1 866.21 641.97 866.96 641.97C868.11 641.97 869.04 642.26 869.75 642.84C870.46 643.42 870.84 644.22 870.89 645.23H869.16C869.12 644.69 868.9 644.25 868.5 643.92C868.1 643.59 867.57 643.43 866.89 643.43C866.27 643.43 865.77 643.56 865.41 643.83C865.04 644.1 864.86 644.44 864.86 644.87C864.86 645.21 864.97 645.49 865.19 645.72C865.41 645.95 865.69 646.12 866.03 646.25C866.37 646.38 866.83 646.53 867.43 646.7C868.18 646.9 868.78 647.1 869.25 647.3C869.72 647.5 870.12 647.79 870.46 648.18C870.79 648.57 870.97 649.09 870.98 649.72C870.98 650.29 870.82 650.8 870.5 651.26C870.18 651.72 869.74 652.07 869.16 652.33C868.58 652.59 867.92 652.72 867.17 652.72C866.37 652.72 865.66 652.58 865.02 652.31V652.32Z" fill="#424242"/>
<path d="M887.71 642.15V652.56H885.98V651.02C885.65 651.55 885.19 651.97 884.6 652.26C884.01 652.56 883.36 652.71 882.65 652.71C881.84 652.71 881.11 652.54 880.47 652.21C879.82 651.88 879.31 651.37 878.94 650.7C878.57 650.03 878.38 649.21 878.38 648.25V642.15H880.09V648.02C880.09 649.05 880.35 649.83 880.87 650.39C881.39 650.94 882.1 651.22 883 651.22C883.9 651.22 884.65 650.93 885.18 650.36C885.71 649.79 885.98 648.96 885.98 647.87V642.15H887.71Z" fill="#424242"/>
<path d="M905.32 642.46C905.95 642.8 906.45 643.3 906.82 643.97C907.19 644.64 907.37 645.46 907.37 646.42V652.56H905.66V646.67C905.66 645.63 905.4 644.84 904.89 644.29C904.38 643.74 903.68 643.46 902.81 643.46C901.94 643.46 901.2 643.75 900.66 644.32C900.12 644.89 899.86 645.73 899.86 646.82V652.56H898.15V646.67C898.15 645.63 897.89 644.84 897.38 644.29C896.87 643.74 896.17 643.46 895.3 643.46C894.43 643.46 893.69 643.75 893.15 644.32C892.61 644.89 892.35 645.73 892.35 646.82V652.56H890.62V642.15H892.35V643.65C892.69 643.11 893.15 642.69 893.73 642.4C894.31 642.11 894.94 641.96 895.64 641.96C896.51 641.96 897.29 642.16 897.96 642.55C898.63 642.94 899.13 643.52 899.46 644.28C899.75 643.55 900.23 642.98 900.9 642.57C901.57 642.16 902.32 641.96 903.14 641.96C903.96 641.96 904.67 642.13 905.31 642.46H905.32Z" fill="#424242"/>
<path d="M910.2 644.51C910.63 643.71 911.22 643.08 911.98 642.64C912.74 642.2 913.57 641.97 914.5 641.97C915.43 641.97 916.2 642.17 916.88 642.56C917.55 642.95 918.05 643.45 918.38 644.04V642.14H920.13V652.55H918.38V650.61C918.04 651.22 917.53 651.72 916.85 652.12C916.17 652.52 915.38 652.72 914.48 652.72C913.58 652.72 912.72 652.49 911.97 652.04C911.22 651.58 910.63 650.94 910.2 650.12C909.77 649.3 909.55 648.36 909.55 647.31C909.55 646.26 909.76 645.31 910.2 644.51ZM917.9 645.28C917.58 644.7 917.16 644.25 916.62 643.94C916.08 643.63 915.49 643.47 914.84 643.47C914.19 643.47 913.61 643.62 913.07 643.93C912.53 644.24 912.11 644.68 911.8 645.26C911.49 645.84 911.33 646.53 911.33 647.31C911.33 648.09 911.49 648.8 911.8 649.39C912.12 649.98 912.54 650.43 913.07 650.74C913.6 651.05 914.19 651.21 914.84 651.21C915.49 651.21 916.08 651.05 916.62 650.74C917.16 650.43 917.58 649.98 917.9 649.39C918.22 648.8 918.37 648.11 918.37 647.33C918.37 646.55 918.21 645.86 917.9 645.28Z" fill="#424242"/>
<path d="M932 650.96L935.23 642.14H937.07L932.99 652.55H930.98L926.89 642.14H928.75L932 650.96Z" fill="#424242"/>
<path d="M948.22 648H939.9C939.96 649.03 940.32 649.83 940.95 650.4C941.58 650.97 942.37 651.26 943.28 651.26C944.03 651.26 944.65 651.09 945.15 650.74C945.65 650.39 946 649.93 946.2 649.34H948.06C947.78 650.34 947.22 651.15 946.39 651.78C945.56 652.41 944.51 652.72 943.27 652.72C942.28 652.72 941.4 652.5 940.62 652.05C939.84 651.6 939.23 650.98 938.79 650.16C938.35 649.34 938.12 648.4 938.12 647.32C938.12 646.24 938.33 645.3 938.77 644.49C939.21 643.68 939.81 643.06 940.58 642.62C941.36 642.18 942.25 641.96 943.27 641.96C944.29 641.96 945.13 642.18 945.89 642.61C946.65 643.04 947.24 643.63 947.65 644.39C948.06 645.14 948.27 646 948.27 646.94C948.27 647.27 948.25 647.62 948.21 647.99L948.22 648ZM946.06 644.89C945.77 644.41 945.37 644.05 944.87 643.81C944.37 643.56 943.82 643.44 943.21 643.44C942.34 643.44 941.59 643.72 940.98 644.28C940.37 644.84 940.01 645.61 939.93 646.6H946.5C946.5 645.94 946.35 645.37 946.06 644.9V644.89Z" fill="#424242"/>
<path d="M951.85 651.13H956.96V652.55H949.87V651.13L954.92 643.55H949.9V642.14H956.91V643.55L951.84 651.13H951.85Z" fill="#424242"/>
<path d="M964.28 644.51C964.71 643.71 965.3 643.08 966.06 642.64C966.82 642.2 967.65 641.97 968.58 641.97C969.51 641.97 970.28 642.17 970.96 642.56C971.63 642.95 972.13 643.45 972.46 644.04V642.14H974.21V652.55H972.46V650.61C972.12 651.22 971.61 651.72 970.93 652.12C970.25 652.52 969.46 652.72 968.56 652.72C967.66 652.72 966.8 652.49 966.05 652.04C965.3 651.58 964.71 650.94 964.28 650.12C963.85 649.3 963.63 648.36 963.63 647.31C963.63 646.26 963.84 645.31 964.28 644.51ZM971.97 645.28C971.65 644.7 971.23 644.25 970.69 643.94C970.15 643.63 969.56 643.47 968.91 643.47C968.26 643.47 967.68 643.62 967.14 643.93C966.6 644.24 966.18 644.68 965.87 645.26C965.56 645.84 965.4 646.53 965.4 647.31C965.4 648.09 965.56 648.8 965.87 649.39C966.19 649.98 966.61 650.43 967.14 650.74C967.67 651.05 968.26 651.21 968.91 651.21C969.56 651.21 970.15 651.05 970.69 650.74C971.23 650.43 971.65 649.98 971.97 649.39C972.29 648.8 972.44 648.11 972.44 647.33C972.44 646.55 972.28 645.86 971.97 645.28Z" fill="#424242"/>
<path d="M979.01 652.07C978.22 651.63 977.6 651 977.15 650.18C976.7 649.36 976.48 648.42 976.48 647.34C976.48 646.26 976.71 645.34 977.17 644.52C977.63 643.7 978.26 643.08 979.06 642.64C979.86 642.2 980.75 641.98 981.74 641.98C982.73 641.98 983.62 642.2 984.42 642.64C985.22 643.08 985.85 643.7 986.31 644.51C986.77 645.32 987 646.26 987 647.34C987 648.42 986.76 649.36 986.29 650.18C985.81 651 985.17 651.63 984.36 652.07C983.55 652.51 982.65 652.74 981.66 652.74C980.67 652.74 979.8 652.52 979.01 652.07ZM983.41 650.77C983.95 650.48 984.39 650.04 984.73 649.46C985.07 648.88 985.23 648.17 985.23 647.33C985.23 646.49 985.06 645.78 984.74 645.2C984.41 644.62 983.98 644.18 983.45 643.9C982.92 643.62 982.34 643.47 981.72 643.47C981.1 643.47 980.51 643.61 979.98 643.9C979.45 644.19 979.03 644.62 978.72 645.2C978.4 645.78 978.25 646.49 978.25 647.33C978.25 648.17 978.41 648.89 978.72 649.48C979.03 650.06 979.44 650.5 979.96 650.78C980.48 651.06 981.05 651.21 981.67 651.21C982.29 651.21 982.87 651.06 983.42 650.77H983.41Z" fill="#424242"/>
<path d="M1009.04 642.46C1009.67 642.8 1010.17 643.3 1010.54 643.97C1010.91 644.64 1011.09 645.46 1011.09 646.42V652.56H1009.38V646.67C1009.38 645.63 1009.12 644.84 1008.61 644.29C1008.1 643.74 1007.4 643.46 1006.53 643.46C1005.66 643.46 1004.92 643.75 1004.38 644.32C1003.84 644.89 1003.58 645.73 1003.58 646.82V652.56H1001.87V646.67C1001.87 645.63 1001.61 644.84 1001.1 644.29C1000.59 643.74 999.89 643.46 999.02 643.46C998.15 643.46 997.41 643.75 996.87 644.32C996.33 644.89 996.07 645.73 996.07 646.82V652.56H994.34V642.15H996.07V643.65C996.41 643.11 996.87 642.69 997.45 642.4C998.03 642.11 998.66 641.96 999.36 641.96C1000.23 641.96 1001.01 642.16 1001.68 642.55C1002.35 642.94 1002.85 643.52 1003.18 644.28C1003.47 643.55 1003.95 642.98 1004.62 642.57C1005.29 642.16 1006.04 641.96 1006.86 641.96C1007.68 641.96 1008.39 642.13 1009.03 642.46H1009.04Z" fill="#424242"/>
<path d="M1023.37 648H1015.05C1015.11 649.03 1015.47 649.83 1016.1 650.4C1016.73 650.97 1017.52 651.26 1018.43 651.26C1019.18 651.26 1019.8 651.09 1020.3 650.74C1020.8 650.39 1021.15 649.93 1021.35 649.34H1023.21C1022.93 650.34 1022.37 651.15 1021.54 651.78C1020.71 652.41 1019.66 652.72 1018.42 652.72C1017.43 652.72 1016.55 652.5 1015.77 652.05C1014.99 651.6 1014.38 650.98 1013.94 650.16C1013.5 649.34 1013.27 648.4 1013.27 647.32C1013.27 646.24 1013.48 645.3 1013.92 644.49C1014.36 643.68 1014.96 643.06 1015.73 642.62C1016.51 642.18 1017.4 641.96 1018.42 641.96C1019.44 641.96 1020.28 642.18 1021.04 642.61C1021.8 643.04 1022.39 643.63 1022.8 644.39C1023.21 645.14 1023.42 646 1023.42 646.94C1023.42 647.27 1023.4 647.62 1023.36 647.99L1023.37 648ZM1021.2 644.89C1020.91 644.41 1020.51 644.05 1020.01 643.81C1019.51 643.56 1018.96 643.44 1018.35 643.44C1017.48 643.44 1016.73 643.72 1016.12 644.28C1015.51 644.84 1015.15 645.61 1015.07 646.6H1021.64C1021.64 645.94 1021.49 645.37 1021.2 644.9V644.89Z" fill="#424242"/>
<path d="M1025.76 640.11C1025.53 639.88 1025.42 639.6 1025.42 639.27C1025.42 638.94 1025.53 638.66 1025.76 638.43C1025.99 638.2 1026.27 638.09 1026.6 638.09C1026.93 638.09 1027.18 638.2 1027.41 638.43C1027.63 638.66 1027.74 638.94 1027.74 639.27C1027.74 639.6 1027.63 639.88 1027.41 640.11C1027.19 640.34 1026.92 640.45 1026.6 640.45C1026.28 640.45 1025.99 640.34 1025.76 640.11ZM1027.43 642.15V652.56H1025.7V642.15H1027.43Z" fill="#424242"/>
<path d="M1032.27 652.07C1031.48 651.63 1030.86 651 1030.41 650.18C1029.96 649.36 1029.74 648.42 1029.74 647.34C1029.74 646.26 1029.97 645.34 1030.43 644.52C1030.89 643.7 1031.52 643.08 1032.32 642.64C1033.12 642.2 1034.01 641.98 1035 641.98C1035.99 641.98 1036.88 642.2 1037.68 642.64C1038.48 643.08 1039.11 643.7 1039.57 644.51C1040.03 645.32 1040.26 646.26 1040.26 647.34C1040.26 648.42 1040.02 649.36 1039.55 650.18C1039.07 651 1038.43 651.63 1037.62 652.07C1036.81 652.51 1035.91 652.74 1034.92 652.74C1033.93 652.74 1033.06 652.52 1032.27 652.07ZM1036.67 650.77C1037.21 650.48 1037.65 650.04 1037.99 649.46C1038.33 648.88 1038.49 648.17 1038.49 647.33C1038.49 646.49 1038.32 645.78 1038 645.2C1037.67 644.62 1037.24 644.18 1036.71 643.9C1036.18 643.62 1035.6 643.47 1034.98 643.47C1034.36 643.47 1033.77 643.61 1033.24 643.9C1032.71 644.19 1032.29 644.62 1031.98 645.2C1031.66 645.78 1031.51 646.49 1031.51 647.33C1031.51 648.17 1031.67 648.89 1031.98 649.48C1032.29 650.06 1032.7 650.5 1033.22 650.78C1033.74 651.06 1034.31 651.21 1034.93 651.21C1035.55 651.21 1036.13 651.06 1036.68 650.77H1036.67Z" fill="#424242"/>
<path d="M1044.32 650.17L1042.19 655.28H1041.03L1042.42 650.17H1044.32Z" fill="#424242"/>
<path d="M1051.37 644.51C1051.8 643.71 1052.39 643.08 1053.15 642.64C1053.91 642.2 1054.74 641.97 1055.67 641.97C1056.6 641.97 1057.37 642.17 1058.05 642.56C1058.72 642.95 1059.22 643.45 1059.55 644.04V642.14H1061.3V652.55H1059.55V650.61C1059.21 651.22 1058.7 651.72 1058.02 652.12C1057.34 652.52 1056.55 652.72 1055.65 652.72C1054.75 652.72 1053.89 652.49 1053.14 652.04C1052.39 651.58 1051.8 650.94 1051.37 650.12C1050.94 649.3 1050.72 648.36 1050.72 647.31C1050.72 646.26 1050.93 645.31 1051.37 644.51ZM1059.07 645.28C1058.75 644.7 1058.33 644.25 1057.79 643.94C1057.25 643.63 1056.66 643.47 1056.01 643.47C1055.36 643.47 1054.78 643.62 1054.24 643.93C1053.7 644.24 1053.28 644.68 1052.97 645.26C1052.66 645.84 1052.5 646.53 1052.5 647.31C1052.5 648.09 1052.66 648.8 1052.97 649.39C1053.29 649.98 1053.71 650.43 1054.24 650.74C1054.77 651.05 1055.36 651.21 1056.01 651.21C1056.66 651.21 1057.25 651.05 1057.79 650.74C1058.33 650.43 1058.75 649.98 1059.07 649.39C1059.39 648.8 1059.54 648.11 1059.54 647.33C1059.54 646.55 1059.38 645.86 1059.07 645.28Z" fill="#424242"/>
<path d="M1067.47 642.58C1068.15 642.18 1068.94 641.98 1069.84 641.98C1070.74 641.98 1071.6 642.2 1072.36 642.65C1073.12 643.1 1073.71 643.72 1074.14 644.52C1074.57 645.32 1074.79 646.26 1074.79 647.32C1074.79 648.38 1074.57 649.31 1074.14 650.13C1073.71 650.95 1073.12 651.59 1072.36 652.05C1071.6 652.51 1070.77 652.73 1069.84 652.73C1068.91 652.73 1068.17 652.53 1067.49 652.13C1066.81 651.73 1066.3 651.23 1065.94 650.64V657.5H1064.21V642.15H1065.94V644.07C1066.28 643.48 1066.79 642.98 1067.47 642.58ZM1072.54 645.26C1072.22 644.68 1071.8 644.23 1071.26 643.93C1070.72 643.63 1070.13 643.47 1069.48 643.47C1068.83 643.47 1068.26 643.63 1067.72 643.94C1067.18 644.25 1066.75 644.7 1066.43 645.29C1066.11 645.88 1065.95 646.56 1065.95 647.33C1065.95 648.1 1066.11 648.8 1066.43 649.39C1066.75 649.98 1067.18 650.43 1067.72 650.74C1068.26 651.05 1068.84 651.21 1069.48 651.21C1070.12 651.21 1070.72 651.05 1071.26 650.74C1071.8 650.43 1072.22 649.98 1072.54 649.39C1072.86 648.8 1073.01 648.11 1073.01 647.31C1073.01 646.51 1072.85 645.84 1072.54 645.26Z" fill="#424242"/>
<path d="M1086.5 648H1078.18C1078.24 649.03 1078.6 649.83 1079.23 650.4C1079.86 650.97 1080.65 651.26 1081.56 651.26C1082.31 651.26 1082.93 651.09 1083.43 650.74C1083.93 650.39 1084.28 649.93 1084.48 649.34H1086.34C1086.06 650.34 1085.5 651.15 1084.67 651.78C1083.84 652.41 1082.79 652.72 1081.55 652.72C1080.56 652.72 1079.68 652.5 1078.9 652.05C1078.12 651.6 1077.51 650.98 1077.07 650.16C1076.63 649.34 1076.4 648.4 1076.4 647.32C1076.4 646.24 1076.61 645.3 1077.05 644.49C1077.49 643.68 1078.09 643.06 1078.86 642.62C1079.64 642.18 1080.53 641.96 1081.55 641.96C1082.57 641.96 1083.41 642.18 1084.17 642.61C1084.93 643.04 1085.52 643.63 1085.93 644.39C1086.34 645.14 1086.55 646 1086.55 646.94C1086.55 647.27 1086.53 647.62 1086.49 647.99L1086.5 648ZM1084.34 644.89C1084.05 644.41 1083.65 644.05 1083.15 643.81C1082.65 643.56 1082.1 643.44 1081.49 643.44C1080.62 643.44 1079.87 643.72 1079.26 644.28C1078.65 644.84 1078.29 645.61 1078.21 646.6H1084.78C1084.78 645.94 1084.63 645.37 1084.34 644.9V644.89Z" fill="#424242"/>
<path d="M1096.99 643.11C1097.78 643.88 1098.17 644.98 1098.17 646.43V652.57H1096.46V646.68C1096.46 645.64 1096.2 644.85 1095.68 644.3C1095.16 643.75 1094.45 643.47 1093.55 643.47C1092.65 643.47 1091.91 643.75 1091.37 644.32C1090.83 644.89 1090.56 645.72 1090.56 646.81V652.57H1088.83V642.16H1090.56V643.64C1090.9 643.11 1091.37 642.7 1091.96 642.4C1092.55 642.11 1093.2 641.96 1093.91 641.96C1095.18 641.96 1096.2 642.34 1096.99 643.11Z" fill="#424242"/>
<path d="M1101 644.51C1101.43 643.71 1102.02 643.08 1102.78 642.64C1103.54 642.2 1104.37 641.97 1105.3 641.97C1106.23 641.97 1107 642.17 1107.68 642.56C1108.35 642.95 1108.85 643.45 1109.18 644.04V642.14H1110.93V652.55H1109.18V650.61C1108.84 651.22 1108.33 651.72 1107.65 652.12C1106.97 652.52 1106.18 652.72 1105.28 652.72C1104.38 652.72 1103.52 652.49 1102.77 652.04C1102.02 651.58 1101.43 650.94 1101 650.12C1100.57 649.3 1100.35 648.36 1100.35 647.31C1100.35 646.26 1100.56 645.31 1101 644.51ZM1108.69 645.28C1108.37 644.7 1107.95 644.25 1107.41 643.94C1106.87 643.63 1106.28 643.47 1105.63 643.47C1104.98 643.47 1104.4 643.62 1103.86 643.93C1103.32 644.24 1102.9 644.68 1102.59 645.26C1102.28 645.84 1102.12 646.53 1102.12 647.31C1102.12 648.09 1102.28 648.8 1102.59 649.39C1102.91 649.98 1103.33 650.43 1103.86 650.74C1104.39 651.05 1104.98 651.21 1105.63 651.21C1106.28 651.21 1106.87 651.05 1107.41 650.74C1107.95 650.43 1108.37 649.98 1108.69 649.39C1109.01 648.8 1109.16 648.11 1109.16 647.33C1109.16 646.55 1109 645.86 1108.69 645.28Z" fill="#424242"/>
<path d="M1115.38 652.32C1114.75 652.05 1114.25 651.67 1113.88 651.18C1113.51 650.69 1113.31 650.13 1113.27 649.5H1115.06C1115.11 650.02 1115.35 650.44 1115.79 650.77C1116.23 651.1 1116.8 651.26 1117.51 651.26C1118.17 651.26 1118.69 651.11 1119.07 650.82C1119.45 650.53 1119.64 650.16 1119.64 649.72C1119.64 649.28 1119.44 648.93 1119.03 648.7C1118.62 648.48 1118 648.26 1117.15 648.04C1116.38 647.84 1115.75 647.63 1115.26 647.42C1114.77 647.21 1114.35 646.9 1114.01 646.49C1113.66 646.08 1113.49 645.54 1113.49 644.87C1113.49 644.34 1113.65 643.85 1113.97 643.41C1114.29 642.97 1114.74 642.62 1115.32 642.36C1115.9 642.1 1116.57 641.97 1117.32 641.97C1118.47 641.97 1119.4 642.26 1120.11 642.84C1120.82 643.42 1121.2 644.22 1121.25 645.23H1119.52C1119.48 644.69 1119.26 644.25 1118.86 643.92C1118.46 643.59 1117.93 643.43 1117.25 643.43C1116.63 643.43 1116.13 643.56 1115.77 643.83C1115.4 644.1 1115.22 644.44 1115.22 644.87C1115.22 645.21 1115.33 645.49 1115.55 645.72C1115.77 645.95 1116.05 646.12 1116.39 646.25C1116.73 646.38 1117.19 646.53 1117.79 646.7C1118.54 646.9 1119.14 647.1 1119.61 647.3C1120.08 647.5 1120.48 647.79 1120.82 648.18C1121.15 648.57 1121.33 649.09 1121.34 649.72C1121.34 650.29 1121.18 650.8 1120.86 651.26C1120.54 651.72 1120.1 652.07 1119.52 652.33C1118.94 652.59 1118.28 652.72 1117.53 652.72C1116.73 652.72 1116.02 652.58 1115.38 652.31V652.32Z" fill="#424242"/>
<path d="M815.74 665.38C816.42 664.98 817.21 664.78 818.11 664.78C819.01 664.78 819.87 665 820.63 665.45C821.39 665.9 821.98 666.52 822.41 667.32C822.84 668.12 823.06 669.06 823.06 670.12C823.06 671.18 822.84 672.11 822.41 672.93C821.98 673.75 821.39 674.39 820.63 674.85C819.87 675.31 819.04 675.53 818.11 675.53C817.18 675.53 816.44 675.33 815.76 674.93C815.08 674.53 814.57 674.03 814.21 673.44V680.3H812.48V664.95H814.21V666.87C814.55 666.28 815.06 665.78 815.74 665.38ZM820.8 668.06C820.48 667.48 820.06 667.03 819.52 666.73C818.98 666.43 818.39 666.27 817.74 666.27C817.09 666.27 816.52 666.43 815.98 666.74C815.44 667.05 815.01 667.5 814.69 668.09C814.37 668.68 814.21 669.36 814.21 670.13C814.21 670.9 814.37 671.6 814.69 672.19C815.01 672.78 815.44 673.23 815.98 673.54C816.52 673.85 817.1 674.01 817.74 674.01C818.38 674.01 818.98 673.85 819.52 673.54C820.06 673.23 820.48 672.78 820.8 672.19C821.12 671.6 821.27 670.91 821.27 670.11C821.27 669.31 821.11 668.64 820.8 668.06Z" fill="#424242"/>
<path d="M825.32 667.31C825.75 666.51 826.34 665.88 827.1 665.44C827.86 665 828.69 664.77 829.62 664.77C830.55 664.77 831.32 664.97 832 665.36C832.67 665.75 833.17 666.25 833.5 666.84V664.94H835.25V675.35H833.5V673.41C833.16 674.02 832.65 674.52 831.97 674.92C831.29 675.32 830.5 675.52 829.6 675.52C828.7 675.52 827.84 675.29 827.09 674.84C826.34 674.38 825.75 673.74 825.32 672.92C824.89 672.1 824.67 671.16 824.67 670.11C824.67 669.06 824.88 668.11 825.32 667.31ZM833.02 668.08C832.7 667.5 832.28 667.05 831.74 666.74C831.2 666.43 830.61 666.27 829.96 666.27C829.31 666.27 828.73 666.42 828.19 666.73C827.65 667.04 827.23 667.48 826.92 668.06C826.61 668.64 826.45 669.33 826.45 670.11C826.45 670.89 826.61 671.6 826.92 672.19C827.24 672.78 827.66 673.23 828.19 673.54C828.72 673.85 829.31 674.01 829.96 674.01C830.61 674.01 831.2 673.85 831.74 673.54C832.28 673.23 832.7 672.78 833.02 672.19C833.34 671.6 833.49 670.91 833.49 670.13C833.49 669.35 833.33 668.66 833.02 668.08Z" fill="#424242"/>
<path d="M841.2 665.25C841.76 664.92 842.45 664.76 843.26 664.76V666.55H842.8C840.86 666.55 839.89 667.6 839.89 669.7V675.36H838.16V664.95H839.89V666.64C840.19 666.04 840.63 665.58 841.19 665.25H841.2Z" fill="#424242"/>
<path d="M845.25 667.31C845.68 666.51 846.27 665.88 847.03 665.44C847.79 665 848.62 664.77 849.55 664.77C850.48 664.77 851.25 664.97 851.93 665.36C852.6 665.75 853.1 666.25 853.43 666.84V664.94H855.18V675.35H853.43V673.41C853.09 674.02 852.58 674.52 851.9 674.92C851.22 675.32 850.43 675.52 849.53 675.52C848.63 675.52 847.77 675.29 847.02 674.84C846.27 674.38 845.68 673.74 845.25 672.92C844.82 672.1 844.6 671.16 844.6 670.11C844.6 669.06 844.81 668.11 845.25 667.31ZM852.95 668.08C852.63 667.5 852.21 667.05 851.67 666.74C851.13 666.43 850.54 666.27 849.89 666.27C849.24 666.27 848.66 666.42 848.12 666.73C847.58 667.04 847.16 667.48 846.85 668.06C846.54 668.64 846.38 669.33 846.38 670.11C846.38 670.89 846.54 671.6 846.85 672.19C847.17 672.78 847.59 673.23 848.12 673.54C848.65 673.85 849.24 674.01 849.89 674.01C850.54 674.01 851.13 673.85 851.67 673.54C852.21 673.23 852.63 672.78 852.95 672.19C853.27 671.6 853.42 670.91 853.42 670.13C853.42 669.35 853.26 668.66 852.95 668.08Z" fill="#424242"/>
<path d="M877.86 665.26C878.49 665.6 878.99 666.1 879.36 666.77C879.73 667.44 879.91 668.26 879.91 669.22V675.36H878.2V669.47C878.2 668.43 877.94 667.64 877.43 667.09C876.92 666.54 876.22 666.26 875.35 666.26C874.48 666.26 873.74 666.55 873.2 667.12C872.66 667.69 872.4 668.53 872.4 669.62V675.36H870.69V669.47C870.69 668.43 870.43 667.64 869.92 667.09C869.41 666.54 868.71 666.26 867.84 666.26C866.97 666.26 866.23 666.55 865.69 667.12C865.15 667.69 864.89 668.53 864.89 669.62V675.36H863.16V664.95H864.89V666.45C865.23 665.91 865.69 665.49 866.27 665.2C866.85 664.91 867.48 664.76 868.18 664.76C869.05 664.76 869.83 664.96 870.5 665.35C871.17 665.74 871.67 666.32 872 667.08C872.29 666.35 872.77 665.78 873.44 665.37C874.11 664.96 874.86 664.76 875.68 664.76C876.5 664.76 877.21 664.93 877.85 665.26H877.86Z" fill="#424242"/>
<path d="M882.74 667.31C883.17 666.51 883.76 665.88 884.52 665.44C885.28 665 886.11 664.77 887.04 664.77C887.97 664.77 888.74 664.97 889.42 665.36C890.09 665.75 890.59 666.25 890.92 666.84V664.94H892.67V675.35H890.92V673.41C890.58 674.02 890.07 674.52 889.39 674.92C888.71 675.32 887.92 675.52 887.02 675.52C886.12 675.52 885.26 675.29 884.51 674.84C883.76 674.38 883.17 673.74 882.74 672.92C882.31 672.1 882.09 671.16 882.09 670.11C882.09 669.06 882.3 668.11 882.74 667.31ZM890.43 668.08C890.11 667.5 889.69 667.05 889.15 666.74C888.61 666.43 888.02 666.27 887.37 666.27C886.72 666.27 886.14 666.42 885.6 666.73C885.06 667.04 884.64 667.48 884.33 668.06C884.02 668.64 883.86 669.33 883.86 670.11C883.86 670.89 884.02 671.6 884.33 672.19C884.65 672.78 885.07 673.23 885.6 673.54C886.13 673.85 886.72 674.01 887.37 674.01C888.02 674.01 888.61 673.85 889.15 673.54C889.69 673.23 890.11 672.78 890.43 672.19C890.75 671.6 890.9 670.91 890.9 670.13C890.9 669.35 890.74 668.66 890.43 668.08Z" fill="#424242"/>
<path d="M898.61 665.25C899.17 664.92 899.86 664.76 900.67 664.76V666.55H900.21C898.27 666.55 897.3 667.6 897.3 669.7V675.36H895.57V664.95H897.3V666.64C897.6 666.04 898.04 665.58 898.6 665.25H898.61Z" fill="#424242"/>
<path d="M902.67 667.31C903.1 666.51 903.7 665.88 904.47 665.44C905.24 665 906.11 664.77 907.1 664.77C908.38 664.77 909.43 665.08 910.26 665.7C911.09 666.32 911.64 667.18 911.9 668.28H910.04C909.86 667.65 909.52 667.15 909 666.78C908.49 666.41 907.85 666.23 907.09 666.23C906.1 666.23 905.3 666.57 904.7 667.25C904.09 667.93 903.79 668.89 903.79 670.13C903.79 671.37 904.09 672.35 904.7 673.04C905.31 673.72 906.11 674.07 907.09 674.07C907.85 674.07 908.48 673.89 908.99 673.54C909.5 673.19 909.84 672.68 910.03 672.02H911.89C911.61 673.08 911.05 673.94 910.22 674.58C909.39 675.22 908.34 675.54 907.08 675.54C906.09 675.54 905.21 675.32 904.45 674.87C903.68 674.43 903.08 673.8 902.65 672.99C902.22 672.18 902 671.23 902 670.14C902 669.05 902.21 668.12 902.65 667.32L902.67 667.31Z" fill="#424242"/>
<path d="M914.2 667.31C914.63 666.51 915.22 665.88 915.98 665.44C916.74 665 917.57 664.77 918.5 664.77C919.43 664.77 920.2 664.97 920.88 665.36C921.55 665.75 922.05 666.25 922.38 666.84V664.94H924.13V675.35H922.38V673.41C922.04 674.02 921.53 674.52 920.85 674.92C920.17 675.32 919.38 675.52 918.48 675.52C917.58 675.52 916.72 675.29 915.97 674.84C915.22 674.38 914.63 673.74 914.2 672.92C913.77 672.1 913.55 671.16 913.55 670.11C913.55 669.06 913.76 668.11 914.2 667.31ZM921.9 668.08C921.58 667.5 921.16 667.05 920.62 666.74C920.08 666.43 919.49 666.27 918.84 666.27C918.19 666.27 917.61 666.42 917.07 666.73C916.53 667.04 916.11 667.48 915.8 668.06C915.49 668.64 915.33 669.33 915.33 670.11C915.33 670.89 915.49 671.6 915.8 672.19C916.12 672.78 916.54 673.23 917.07 673.54C917.6 673.85 918.19 674.01 918.84 674.01C919.49 674.01 920.08 673.85 920.62 673.54C921.16 673.23 921.58 672.78 921.9 672.19C922.22 671.6 922.37 670.91 922.37 670.13C922.37 669.35 922.21 668.66 921.9 668.08Z" fill="#424242"/>
<path d="M930.08 665.25C930.64 664.92 931.33 664.76 932.14 664.76V666.55H931.68C929.74 666.55 928.77 667.6 928.77 669.7V675.36H927.04V664.95H928.77V666.64C929.07 666.04 929.51 665.58 930.07 665.25H930.08Z" fill="#424242"/>
<path d="M941.1 674.87C940.31 674.43 939.69 673.8 939.24 672.98C938.79 672.16 938.57 671.22 938.57 670.14C938.57 669.06 938.8 668.14 939.26 667.32C939.72 666.5 940.35 665.88 941.15 665.44C941.95 665 942.84 664.78 943.83 664.78C944.82 664.78 945.71 665 946.51 665.44C947.31 665.88 947.94 666.5 948.4 667.31C948.86 668.12 949.09 669.06 949.09 670.14C949.09 671.22 948.85 672.16 948.38 672.98C947.9 673.8 947.26 674.43 946.45 674.87C945.64 675.31 944.74 675.54 943.75 675.54C942.76 675.54 941.89 675.32 941.1 674.87ZM945.5 673.57C946.04 673.28 946.48 672.84 946.82 672.26C947.16 671.68 947.32 670.97 947.32 670.13C947.32 669.29 947.15 668.58 946.83 668C946.5 667.42 946.07 666.98 945.54 666.7C945.01 666.42 944.43 666.27 943.81 666.27C943.19 666.27 942.6 666.41 942.07 666.7C941.54 666.99 941.12 667.42 940.81 668C940.49 668.58 940.34 669.29 940.34 670.13C940.34 670.97 940.5 671.69 940.81 672.28C941.12 672.86 941.53 673.3 942.05 673.58C942.57 673.86 943.14 674.01 943.76 674.01C944.38 674.01 944.96 673.86 945.51 673.57H945.5Z" fill="#424242"/>
<path d="M956.44 667.31C956.87 666.51 957.47 665.88 958.24 665.44C959.01 665 959.88 664.77 960.87 664.77C962.15 664.77 963.2 665.08 964.03 665.7C964.86 666.32 965.41 667.18 965.67 668.28H963.81C963.63 667.65 963.29 667.15 962.77 666.78C962.26 666.41 961.62 666.23 960.86 666.23C959.87 666.23 959.07 666.57 958.47 667.25C957.86 667.93 957.56 668.89 957.56 670.13C957.56 671.37 957.86 672.35 958.47 673.04C959.08 673.72 959.88 674.07 960.86 674.07C961.62 674.07 962.25 673.89 962.76 673.54C963.27 673.19 963.61 672.68 963.8 672.02H965.66C965.38 673.08 964.82 673.94 963.99 674.58C963.16 675.22 962.11 675.54 960.85 675.54C959.86 675.54 958.98 675.32 958.22 674.87C957.45 674.43 956.85 673.8 956.42 672.99C955.99 672.18 955.77 671.23 955.77 670.14C955.77 669.05 955.98 668.12 956.42 667.32L956.44 667.31Z" fill="#424242"/>
<path d="M977.42 670.8H969.1C969.16 671.83 969.52 672.63 970.15 673.2C970.78 673.77 971.57 674.06 972.48 674.06C973.23 674.06 973.85 673.89 974.35 673.54C974.85 673.19 975.2 672.73 975.4 672.14H977.26C976.98 673.14 976.42 673.95 975.59 674.58C974.76 675.21 973.71 675.52 972.47 675.52C971.48 675.52 970.6 675.3 969.82 674.85C969.04 674.4 968.43 673.78 967.99 672.96C967.55 672.14 967.32 671.2 967.32 670.12C967.32 669.04 967.53 668.1 967.97 667.29C968.41 666.48 969.01 665.86 969.78 665.42C970.56 664.98 971.45 664.76 972.47 664.76C973.49 664.76 974.33 664.98 975.09 665.41C975.85 665.84 976.44 666.43 976.85 667.19C977.26 667.94 977.47 668.8 977.47 669.74C977.47 670.07 977.45 670.42 977.41 670.79L977.42 670.8ZM975.25 667.69C974.96 667.21 974.56 666.85 974.06 666.61C973.56 666.36 973.01 666.24 972.4 666.24C971.53 666.24 970.78 666.52 970.17 667.08C969.56 667.64 969.2 668.41 969.12 669.4H975.69C975.69 668.74 975.54 668.17 975.25 667.7V667.69Z" fill="#424242"/>
<path d="M987.9 665.91C988.69 666.68 989.08 667.78 989.08 669.23V675.37H987.37V669.48C987.37 668.44 987.11 667.65 986.59 667.1C986.07 666.55 985.36 666.27 984.46 666.27C983.56 666.27 982.82 666.55 982.28 667.12C981.74 667.69 981.47 668.52 981.47 669.61V675.37H979.74V664.96H981.47V666.44C981.81 665.91 982.28 665.5 982.87 665.2C983.46 664.91 984.11 664.76 984.82 664.76C986.09 664.76 987.11 665.14 987.9 665.91Z" fill="#424242"/>
<path d="M994.02 666.37V672.51C994.02 673.02 994.13 673.37 994.34 673.58C994.56 673.79 994.93 673.89 995.46 673.89H996.73V675.35H995.17C994.21 675.35 993.48 675.13 993 674.68C992.52 674.24 992.28 673.51 992.28 672.5V666.36H990.93V664.94H992.28V662.32H994.01V664.94H996.73V666.36H994.01L994.02 666.37Z" fill="#424242"/>
<path d="M1001.86 665.25C1002.42 664.92 1003.11 664.76 1003.92 664.76V666.55H1003.46C1001.52 666.55 1000.55 667.6 1000.55 669.7V675.36H998.82V664.95H1000.55V666.64C1000.85 666.04 1001.29 665.58 1001.85 665.25H1001.86Z" fill="#424242"/>
<path d="M1007.8 674.87C1007.01 674.43 1006.39 673.8 1005.94 672.98C1005.49 672.16 1005.27 671.22 1005.27 670.14C1005.27 669.06 1005.5 668.14 1005.96 667.32C1006.42 666.5 1007.05 665.88 1007.85 665.44C1008.65 665 1009.54 664.78 1010.53 664.78C1011.52 664.78 1012.41 665 1013.21 665.44C1014.01 665.88 1014.64 666.5 1015.1 667.31C1015.56 668.12 1015.79 669.06 1015.79 670.14C1015.79 671.22 1015.55 672.16 1015.08 672.98C1014.6 673.8 1013.96 674.43 1013.15 674.87C1012.34 675.31 1011.44 675.54 1010.45 675.54C1009.46 675.54 1008.59 675.32 1007.8 674.87ZM1012.2 673.57C1012.74 673.28 1013.18 672.84 1013.52 672.26C1013.86 671.68 1014.02 670.97 1014.02 670.13C1014.02 669.29 1013.85 668.58 1013.53 668C1013.2 667.42 1012.77 666.98 1012.24 666.7C1011.71 666.42 1011.13 666.27 1010.51 666.27C1009.89 666.27 1009.3 666.41 1008.77 666.7C1008.24 666.99 1007.82 667.42 1007.51 668C1007.19 668.58 1007.04 669.29 1007.04 670.13C1007.04 670.97 1007.2 671.69 1007.51 672.28C1007.82 672.86 1008.23 673.3 1008.75 673.58C1009.27 673.86 1009.84 674.01 1010.46 674.01C1011.08 674.01 1011.66 673.86 1012.21 673.57H1012.2Z" fill="#424242"/>
<path d="M1017.79 675.13C1017.56 674.9 1017.45 674.62 1017.45 674.29C1017.45 673.96 1017.56 673.68 1017.79 673.45C1018.02 673.22 1018.3 673.11 1018.63 673.11C1018.96 673.11 1019.22 673.22 1019.44 673.45C1019.66 673.68 1019.77 673.96 1019.77 674.29C1019.77 674.62 1019.66 674.9 1019.44 675.13C1019.22 675.36 1018.95 675.47 1018.63 675.47C1018.31 675.47 1018.02 675.36 1017.79 675.13Z" fill="#424242"/>
<path d="M739.3 338.37L915.09 526.47L1092.32 338.37H739.3Z" fill="white" stroke="#E0E0E0" stroke-miterlimit="10"/>
<path d="M915.81 340.13V526.47" stroke="#A3826F" stroke-width="2"/>
<path d="M1005.44 381.31C1005.44 381.31 932.05 463.2 836.06 400.62" stroke="#7A6154" stroke-width="2"/>
<path d="M826.17 393.7C832.04 395.19 839.88 396.23 845.64 395.57L837.41 401.45L834.84 411.23C833.41 405.61 829.65 398.65 826.16 393.7H826.17Z" fill="#7A6154"/>
<path d="M527.18 288.98C546.201 288.98 561.62 273.534 561.62 254.48C561.62 235.426 546.201 219.98 527.18 219.98C508.159 219.98 492.74 235.426 492.74 254.48C492.74 273.534 508.159 288.98 527.18 288.98Z" fill="#E8E3E6"/>
<path d="M527.22 286C546.241 286 561.66 270.554 561.66 251.5C561.66 232.446 546.241 217 527.22 217C508.199 217 492.78 232.446 492.78 251.5C492.78 270.554 508.199 286 527.22 286Z" fill="#FFF8FC"/>
<path d="M511.97 247.72L525.94 233.72C528.3 231.36 532.34 233.03 532.34 236.37V266.57C532.34 269.87 528.39 271.57 526 269.28L511.97 255.84V247.71V247.72Z" fill="#C8A9F2"/>
<path d="M510.77 249.2C510.77 248.366 510.094 247.69 509.26 247.69C508.426 247.69 507.75 248.366 507.75 249.2V253.75C507.75 254.584 508.426 255.26 509.26 255.26C510.094 255.26 510.77 254.584 510.77 253.75V249.2Z" fill="#C8A9F2"/>
<path d="M536.09 259.57C537.2 258.62 538.74 254.27 538.74 251.47C538.74 248.67 537.7 244.75 536.09 243.37" fill="#C8A9F2"/>
<path d="M540.65 262.19C542.12 260.93 544.15 255.18 544.15 251.47C544.15 247.76 542.78 242.57 540.65 240.75" fill="#C8A9F2"/>
<path d="M1139.18 288.98C1158.2 288.98 1173.62 273.534 1173.62 254.48C1173.62 235.426 1158.2 219.98 1139.18 219.98C1120.16 219.98 1104.74 235.426 1104.74 254.48C1104.74 273.534 1120.16 288.98 1139.18 288.98Z" fill="#E8E3E6"/>
<path d="M1139.22 286C1158.24 286 1173.66 270.554 1173.66 251.5C1173.66 232.446 1158.24 217 1139.22 217C1120.2 217 1104.78 232.446 1104.78 251.5C1104.78 270.554 1120.2 286 1139.22 286Z" fill="#FFF8FC"/>
<path d="M1123.97 247.72L1137.94 233.72C1140.3 231.36 1144.34 233.03 1144.34 236.37V266.57C1144.34 269.87 1140.39 271.57 1138 269.28L1123.97 255.84V247.71V247.72Z" fill="#C8A9F2"/>
<path d="M1122.77 249.2C1122.77 248.366 1122.09 247.69 1121.26 247.69C1120.43 247.69 1119.75 248.366 1119.75 249.2V253.75C1119.75 254.584 1120.43 255.26 1121.26 255.26C1122.09 255.26 1122.77 254.584 1122.77 253.75V249.2Z" fill="#C8A9F2"/>
<path d="M1148.09 259.57C1149.2 258.62 1150.74 254.27 1150.74 251.47C1150.74 248.67 1149.7 244.75 1148.09 243.37" fill="#C8A9F2"/>
<path d="M1152.65 262.19C1154.12 260.93 1156.15 255.18 1156.15 251.47C1156.15 247.76 1154.78 242.57 1152.65 240.75" fill="#C8A9F2"/>
</svg>
