<svg width="1147" height="720" viewBox="0 0 1147 720" fill="none" xmlns="http://www.w3.org/2000/svg">
<path d="M716.36 24.27H484.93C468.467 24.27 455.12 37.6164 455.12 54.08V64.46C455.12 80.9236 468.467 94.27 484.93 94.27H716.36C732.824 94.27 746.17 80.9236 746.17 64.46V54.08C746.17 37.6164 732.824 24.27 716.36 24.27Z" fill="#AED8A4"/>
<path d="M554.99 1.58011C555.94 2.06011 556.66 2.75011 557.17 3.65011C557.68 4.54011 557.93 5.60011 557.93 6.81011C557.93 8.02011 557.68 9.07011 557.17 9.96011C556.67 10.8501 555.94 11.5301 554.99 12.0001C554.04 12.4701 552.93 12.7101 551.63 12.7101H547.94V0.860107H551.63C552.92 0.860107 554.04 1.10011 554.99 1.58011ZM555.14 10.2101C555.94 9.40011 556.35 8.26011 556.35 6.80011C556.35 5.34011 555.95 4.18011 555.14 3.35011C554.33 2.52011 553.17 2.11011 551.65 2.11011H549.51V11.4301H551.65C553.18 11.4301 554.35 11.0301 555.15 10.2201L555.14 10.2101Z" fill="#A8A8A8"/>
<path d="M561.66 12.2602C560.95 11.8602 560.4 11.3002 559.99 10.5702C559.59 9.84023 559.39 8.99023 559.39 8.03023C559.39 7.07023 559.6 6.24023 560.01 5.51023C560.42 4.78023 560.99 4.22023 561.7 3.83023C562.41 3.44023 563.21 3.24023 564.1 3.24023C564.99 3.24023 565.78 3.44023 566.5 3.83023C567.21 4.22023 567.78 4.78023 568.19 5.50023C568.6 6.22023 568.81 7.07023 568.81 8.03023C568.81 8.99023 568.6 9.84023 568.17 10.5702C567.74 11.3002 567.17 11.8602 566.44 12.2602C565.72 12.6602 564.91 12.8602 564.03 12.8602C563.15 12.8602 562.37 12.6602 561.66 12.2602ZM565.59 11.1102C566.08 10.8502 566.47 10.4602 566.77 9.94023C567.07 9.42023 567.22 8.78023 567.22 8.04023C567.22 7.30023 567.07 6.66023 566.78 6.14023C566.49 5.62023 566.1 5.23023 565.62 4.98023C565.15 4.73023 564.63 4.60023 564.07 4.60023C563.51 4.60023 562.99 4.73023 562.52 4.98023C562.05 5.23023 561.67 5.62023 561.39 6.14023C561.11 6.66023 560.96 7.30023 560.96 8.04023C560.96 8.78023 561.1 9.44023 561.38 9.96023C561.66 10.4802 562.03 10.8702 562.49 11.1202C562.95 11.3702 563.46 11.5002 564.02 11.5002C564.58 11.5002 565.1 11.3702 565.58 11.1102H565.59Z" fill="#A8A8A8"/>
<path d="M573.79 3.76012C574.4 3.41012 575.1 3.23012 575.88 3.23012C576.72 3.23012 577.47 3.43012 578.14 3.82012C578.81 4.22012 579.34 4.78012 579.72 5.49012C580.1 6.20012 580.3 7.05012 580.3 8.00012C580.3 8.95012 580.11 9.78012 579.72 10.5201C579.33 11.2601 578.8 11.8301 578.13 12.2401C577.46 12.6501 576.7 12.8501 575.88 12.8501C575.06 12.8501 574.37 12.6701 573.76 12.3201C573.15 11.9701 572.7 11.5201 572.39 10.9801V12.7001H570.84V0.120117H572.39V5.12012C572.71 4.57012 573.17 4.11012 573.78 3.76012H573.79ZM578.29 6.18012C578.01 5.66012 577.62 5.26012 577.14 4.99012C576.66 4.72012 576.13 4.58012 575.55 4.58012C574.97 4.58012 574.46 4.72012 573.98 5.00012C573.5 5.28012 573.11 5.68012 572.82 6.21012C572.53 6.74012 572.39 7.35012 572.39 8.04012C572.39 8.73012 572.53 9.36012 572.82 9.88012C573.11 10.4101 573.5 10.8101 573.98 11.0901C574.46 11.3701 574.99 11.5101 575.55 11.5101C576.11 11.5101 576.66 11.3701 577.14 11.0901C577.62 10.8101 578.01 10.4101 578.29 9.88012C578.57 9.35012 578.71 8.73012 578.71 8.02012C578.71 7.31012 578.57 6.71012 578.29 6.18012Z" fill="#A8A8A8"/>
<path d="M585.05 3.66021C585.55 3.37021 586.17 3.22021 586.89 3.22021V4.82021H586.48C584.75 4.82021 583.88 5.76022 583.88 7.64022V12.7102H582.33V3.39021H583.88V4.90021C584.15 4.37021 584.54 3.95021 585.04 3.66021H585.05Z" fill="#A8A8A8"/>
<path d="M588.68 5.51C589.06 4.79 589.59 4.23 590.27 3.84C590.94 3.44 591.69 3.25 592.52 3.25C593.35 3.25 594.04 3.43 594.64 3.78C595.24 4.13 595.69 4.57 595.98 5.11V3.41H597.54V12.73H595.98V11C595.67 11.54 595.22 12 594.61 12.35C594 12.71 593.3 12.89 592.49 12.89C591.68 12.89 590.92 12.69 590.25 12.28C589.58 11.87 589.05 11.3 588.67 10.56C588.29 9.82 588.09 8.98 588.09 8.04C588.09 7.1 588.28 6.25 588.67 5.53L588.68 5.51ZM595.56 6.19C595.28 5.67 594.89 5.27 594.41 4.99C593.93 4.71 593.4 4.57 592.82 4.57C592.24 4.57 591.71 4.71 591.24 4.98C590.77 5.25 590.38 5.65 590.1 6.17C589.82 6.69 589.67 7.3 589.67 8.01C589.67 8.72 589.81 9.34 590.1 9.87C590.38 10.4 590.76 10.8 591.24 11.08C591.72 11.36 592.24 11.5 592.82 11.5C593.4 11.5 593.93 11.36 594.41 11.08C594.89 10.8 595.27 10.4 595.56 9.87C595.84 9.34 595.99 8.73 595.99 8.03C595.99 7.33 595.85 6.72 595.56 6.19Z" fill="#A8A8A8"/>
<path d="M600.17 5.51014C600.55 4.79014 601.08 4.23014 601.76 3.84014C602.43 3.44014 603.19 3.25014 604.03 3.25014C604.75 3.25014 605.43 3.42014 606.05 3.75014C606.67 4.08014 607.15 4.52014 607.48 5.07014V0.140137H609.04V12.7201H607.48V10.9701C607.17 11.5301 606.72 11.9801 606.12 12.3401C605.52 12.7001 604.82 12.8801 604.01 12.8801C603.2 12.8801 602.43 12.6801 601.76 12.2701C601.08 11.8601 600.55 11.2901 600.17 10.5501C599.79 9.81014 599.59 8.97014 599.59 8.03014C599.59 7.09014 599.78 6.24014 600.17 5.52014V5.51014ZM607.06 6.19014C606.78 5.67014 606.39 5.27014 605.91 4.99014C605.43 4.71014 604.9 4.57014 604.32 4.57014C603.74 4.57014 603.21 4.71014 602.74 4.98014C602.27 5.25014 601.88 5.65014 601.6 6.17014C601.32 6.69014 601.17 7.30014 601.17 8.01014C601.17 8.72014 601.31 9.34014 601.6 9.87014C601.88 10.4001 602.26 10.8001 602.74 11.0801C603.22 11.3601 603.74 11.5001 604.32 11.5001C604.9 11.5001 605.43 11.3601 605.91 11.0801C606.39 10.8001 606.77 10.4001 607.06 9.87014C607.34 9.34014 607.49 8.73014 607.49 8.03014C607.49 7.33014 607.35 6.72014 607.06 6.19014Z" fill="#A8A8A8"/>
<path d="M619.93 3.39014V12.7101H618.38V11.3301C618.09 11.8101 617.67 12.1801 617.15 12.4401C616.62 12.7101 616.04 12.8401 615.41 12.8401C614.68 12.8401 614.03 12.6901 613.45 12.3901C612.87 12.0901 612.41 11.6401 612.08 11.0401C611.75 10.4401 611.58 9.71014 611.58 8.85014V3.39014H613.11V8.64014C613.11 9.56014 613.34 10.2601 613.81 10.7601C614.28 11.2601 614.91 11.5001 615.71 11.5001C616.51 11.5001 617.19 11.2501 617.66 10.7401C618.14 10.2301 618.37 9.49014 618.37 8.51014V3.39014H619.92H619.93Z" fill="#A8A8A8"/>
<path d="M625.26 3.66021C625.76 3.37021 626.38 3.22021 627.1 3.22021V4.82021H626.69C624.96 4.82021 624.09 5.76022 624.09 7.64022V12.7102H622.54V3.39021H624.09V4.90021C624.36 4.37021 624.75 3.95021 625.25 3.66021H625.26Z" fill="#A8A8A8"/>
<path d="M628.88 5.51C629.26 4.79 629.79 4.23 630.47 3.84C631.14 3.44 631.89 3.25 632.72 3.25C633.55 3.25 634.24 3.43 634.84 3.78C635.44 4.13 635.89 4.57 636.18 5.11V3.41H637.74V12.73H636.18V11C635.87 11.54 635.42 12 634.81 12.35C634.2 12.71 633.5 12.89 632.69 12.89C631.88 12.89 631.12 12.69 630.45 12.28C629.78 11.87 629.25 11.3 628.87 10.56C628.49 9.82 628.29 8.98 628.29 8.04C628.29 7.1 628.48 6.25 628.87 5.53L628.88 5.51ZM635.77 6.19C635.49 5.67 635.1 5.27 634.62 4.99C634.14 4.71 633.61 4.57 633.03 4.57C632.45 4.57 631.92 4.71 631.45 4.98C630.98 5.25 630.59 5.65 630.31 6.17C630.03 6.69 629.88 7.3 629.88 8.01C629.88 8.72 630.02 9.34 630.31 9.87C630.59 10.4 630.97 10.8 631.45 11.08C631.93 11.36 632.45 11.5 633.03 11.5C633.61 11.5 634.14 11.36 634.62 11.08C635.1 10.8 635.48 10.4 635.77 9.87C636.05 9.34 636.2 8.73 636.2 8.03C636.2 7.33 636.06 6.72 635.77 6.19Z" fill="#A8A8A8"/>
<path d="M641.75 12.4902C641.18 12.2502 640.74 11.9102 640.41 11.4702C640.08 11.0302 639.9 10.5302 639.87 9.97023H641.47C641.51 10.4302 641.73 10.8102 642.12 11.1102C642.51 11.4102 643.02 11.5502 643.66 11.5502C644.25 11.5502 644.71 11.4202 645.05 11.1602C645.39 10.9002 645.56 10.5702 645.56 10.1702C645.56 9.77023 645.38 9.46023 645.02 9.26023C644.66 9.06024 644.1 8.87023 643.34 8.67023C642.65 8.49023 642.09 8.30023 641.65 8.12023C641.21 7.93023 640.84 7.66023 640.53 7.29023C640.22 6.92023 640.06 6.44023 640.06 5.84023C640.06 5.36023 640.2 4.93023 640.48 4.53023C640.76 4.13023 641.17 3.82023 641.69 3.59023C642.21 3.36023 642.81 3.24023 643.48 3.24023C644.51 3.24023 645.35 3.50024 645.98 4.02024C646.61 4.54024 646.95 5.26023 647 6.16023H645.45C645.41 5.67023 645.22 5.28023 644.86 4.99023C644.5 4.70023 644.02 4.55023 643.42 4.55023C642.87 4.55023 642.42 4.67023 642.09 4.91023C641.76 5.15023 641.6 5.46023 641.6 5.84023C641.6 6.15023 641.7 6.40023 641.9 6.60023C642.1 6.80024 642.35 6.96023 642.65 7.08023C642.95 7.20023 643.37 7.33023 643.9 7.48023C644.57 7.66023 645.11 7.84024 645.53 8.02024C645.95 8.20023 646.31 8.46024 646.61 8.81024C646.91 9.16023 647.07 9.62023 647.08 10.1902C647.08 10.7002 646.94 11.1602 646.66 11.5702C646.38 11.9802 645.98 12.3002 645.46 12.5302C644.94 12.7602 644.35 12.8802 643.68 12.8802C642.97 12.8802 642.32 12.7602 641.76 12.5102L641.75 12.4902Z" fill="#A8A8A8"/>
<path d="M559.08 67.5H546.92L544.68 73.7H540.84L550.92 45.98H555.12L565.16 73.7H561.32L559.08 67.5ZM558.04 64.54L553 50.46L547.96 64.54H558.04Z" fill="white"/>
<path d="M592.6 45.8198L582.08 73.6998H577.88L567.36 45.8198H571.24L580 69.8598L588.76 45.8198H592.6Z" fill="white"/>
<path d="M600.24 45.8198V73.6998H596.6V45.8198H600.24Z" fill="white"/>
<path d="M622.92 67.4999H610.76L608.52 73.6999H604.68L614.76 45.9799H618.96L629 73.6999H625.16L622.92 67.4999ZM612.3 40.4999C613.01 39.7799 613.89 39.4199 614.96 39.4199C615.47 39.4199 615.9 39.5099 616.26 39.6799C616.62 39.8499 617.05 40.0999 617.56 40.4199C617.93 40.6899 618.27 40.8899 618.56 41.0399C618.85 41.1899 619.17 41.2599 619.52 41.2599C619.97 41.2599 620.36 41.1099 620.68 40.8199C621 40.5299 621.2 40.0999 621.28 39.5399H623.36C623.2 40.8699 622.76 41.8999 622.04 42.6199C621.32 43.3399 620.43 43.6999 619.36 43.6999C618.85 43.6999 618.4 43.6099 618.02 43.4399C617.63 43.2699 617.2 43.0099 616.72 42.6599C616.29 42.3899 615.95 42.1899 615.7 42.0599C615.45 41.9299 615.15 41.8599 614.8 41.8599C614.35 41.8599 613.97 42.0099 613.66 42.2999C613.35 42.5899 613.16 43.0299 613.08 43.6199H610.96C611.15 42.2599 611.59 41.2199 612.3 40.4999ZM621.88 64.5399L616.84 50.4599L611.8 64.5399H621.88Z" fill="white"/>
<path d="M638.96 72.16C636.83 70.95 635.14 69.25 633.9 67.08C632.66 64.91 632.04 62.46 632.04 59.74C632.04 57.02 632.66 54.57 633.9 52.4C635.14 50.23 636.83 48.53 638.96 47.32C641.09 46.11 643.45 45.5 646.04 45.5C648.63 45.5 651.03 46.11 653.16 47.32C655.29 48.53 656.97 50.22 658.2 52.38C659.43 54.54 660.04 56.99 660.04 59.74C660.04 62.49 659.43 64.94 658.2 67.1C656.97 69.26 655.29 70.95 653.16 72.16C651.03 73.37 648.65 73.98 646.04 73.98C643.43 73.98 641.09 73.37 638.96 72.16ZM651.3 69.46C652.86 68.55 654.09 67.26 654.98 65.58C655.87 63.9 656.32 61.95 656.32 59.74C656.32 57.53 655.87 55.55 654.98 53.88C654.09 52.21 652.87 50.93 651.32 50.02C649.77 49.11 648.01 48.66 646.04 48.66C644.07 48.66 642.31 49.11 640.76 50.02C639.21 50.93 637.99 52.21 637.1 53.88C636.21 55.55 635.76 57.5 635.76 59.74C635.76 61.98 636.21 63.9 637.1 65.58C637.99 67.26 639.22 68.55 640.78 69.46C642.34 70.37 644.09 70.82 646.04 70.82C647.99 70.82 649.74 70.37 651.3 69.46Z" fill="white"/>
<path d="M1143.69 192.74L818.39 427.48L743.82 449.62L1143.69 192.74Z" fill="#A8CC9E"/>
<path d="M818.39 427.48L836.48 524.89L1143.69 192.74L818.39 427.48Z" fill="#9FC195"/>
<path d="M836.48 524.89L935 577.59L1143.69 192.74L836.48 524.89Z" fill="#AED8A4"/>
<path d="M1146.14 192.28L650.35 398.93L743.82 449.62L1146.14 192.28Z" fill="#AED8A4"/>
<path d="M550.02 200.95H66.4401C40.9964 200.95 20.3701 221.576 20.3701 247.02V673.2C20.3701 698.644 40.9964 719.27 66.4401 719.27H550.02C575.464 719.27 596.09 698.644 596.09 673.2V247.02C596.09 221.576 575.464 200.95 550.02 200.95Z" fill="#D3D3D3"/>
<path d="M545.6 191.27H62.0202C36.5764 191.27 15.9502 211.896 15.9502 237.34V663.52C15.9502 688.964 36.5764 709.59 62.0202 709.59H545.6C571.044 709.59 591.67 688.964 591.67 663.52V237.34C591.67 211.896 571.044 191.27 545.6 191.27Z" fill="#AED8A4"/>
<path d="M43.7303 231.27C66.7606 231.27 85.4303 212.569 85.4303 189.5C85.4303 166.431 66.7606 147.73 43.7303 147.73C20.7 147.73 2.03027 166.431 2.03027 189.5C2.03027 212.569 20.7 231.27 43.7303 231.27Z" fill="#CCA98B" stroke="#F2F2F2"/>
<path d="M43.6902 227.67C66.7205 227.67 85.3902 208.969 85.3902 185.9C85.3902 162.831 66.7205 144.13 43.6902 144.13C20.66 144.13 1.99023 162.831 1.99023 185.9C1.99023 208.969 20.66 227.67 43.6902 227.67Z" fill="white" stroke="#F2F2F2" stroke-width="3"/>
<path d="M44.1404 176.28H31.3705V181.93C31.9105 181.33 32.6805 180.84 33.6605 180.46C34.6405 180.08 35.7104 179.89 36.8504 179.89C38.9004 179.89 40.6004 180.35 41.9504 181.28C43.3004 182.21 44.2904 183.41 44.9204 184.88C45.5504 186.35 45.8605 187.95 45.8605 189.67C45.8605 192.86 44.9605 195.39 43.1605 197.26C41.3605 199.13 38.8205 200.06 35.5505 200.06C33.3705 200.06 31.4705 199.68 29.8605 198.94C28.2505 198.2 27.0104 197.15 26.1404 195.81C25.2704 194.47 24.7904 192.93 24.7104 191.19H31.5405C31.7005 192.04 32.1005 192.74 32.7305 193.3C33.3605 193.86 34.2204 194.14 35.3104 194.14C36.5904 194.14 37.5504 193.73 38.1704 192.91C38.8004 192.09 39.1105 191 39.1105 189.64C39.1105 188.28 38.7804 187.28 38.1304 186.57C37.4804 185.86 36.5204 185.51 35.2704 185.51C34.3404 185.51 33.5805 185.74 32.9805 186.19C32.3805 186.64 31.9805 187.23 31.7905 187.97H25.0405V170.17H44.1505V176.31L44.1404 176.28Z" fill="#AED8A4"/>
<path d="M49.9306 174.58C50.6306 173.48 51.6106 172.61 52.8806 171.98C54.1506 171.35 55.6006 171.04 57.2406 171.04C58.8806 171.04 60.3306 171.35 61.6006 171.98C62.8706 172.61 63.8506 173.47 64.5506 174.58C65.2506 175.69 65.5906 176.96 65.5906 178.41C65.5906 179.86 65.2406 181.14 64.5306 182.26C63.8206 183.38 62.8306 184.26 61.5606 184.9C60.2906 185.54 58.8406 185.86 57.2006 185.86C55.5606 185.86 54.1206 185.54 52.8606 184.9C51.6006 184.26 50.6306 183.38 49.9306 182.26C49.2306 181.14 48.8906 179.86 48.8906 178.41C48.8906 176.96 49.2406 175.69 49.9306 174.58ZM59.3206 175.95C58.7506 175.38 58.0406 175.09 57.1906 175.09C56.3406 175.09 55.6806 175.38 55.1206 175.95C54.5606 176.52 54.2806 177.36 54.2806 178.45C54.2806 179.54 54.5506 180.33 55.1006 180.91C55.6506 181.49 56.3406 181.77 57.1906 181.77C58.0406 181.77 58.7406 181.48 59.3206 180.89C59.8906 180.3 60.1806 179.49 60.1806 178.46C60.1806 177.37 59.8906 176.54 59.3206 175.96V175.95Z" fill="#AED8A4"/>
<path d="M105.38 177.45C104.59 178.22 103.38 178.6 101.75 178.6H99.07V184.42H97.25V170.48H101.75C103.32 170.48 104.52 170.86 105.34 171.62C106.16 172.38 106.57 173.36 106.57 174.56C106.57 175.76 106.17 176.68 105.38 177.45ZM103.99 176.44C104.47 176 104.71 175.37 104.71 174.56C104.71 172.84 103.72 171.98 101.75 171.98H99.07V177.1H101.75C102.76 177.1 103.51 176.88 103.99 176.44Z" fill="#AED8A4"/>
<path d="M108.83 175.95C109.28 175.1 109.91 174.45 110.7 173.98C111.49 173.51 112.38 173.28 113.35 173.28C114.32 173.28 115.14 173.49 115.85 173.9C116.56 174.31 117.08 174.83 117.43 175.46V173.46H119.27V184.42H117.43V182.38C117.07 183.02 116.53 183.55 115.82 183.97C115.11 184.39 114.28 184.6 113.33 184.6C112.38 184.6 111.48 184.36 110.69 183.88C109.9 183.4 109.28 182.73 108.83 181.86C108.38 180.99 108.15 180.01 108.15 178.9C108.15 177.79 108.38 176.8 108.83 175.95ZM116.93 176.76C116.6 176.15 116.15 175.68 115.58 175.35C115.01 175.02 114.39 174.86 113.71 174.86C113.03 174.86 112.41 175.02 111.85 175.34C111.29 175.66 110.84 176.13 110.51 176.74C110.18 177.35 110.01 178.07 110.01 178.9C110.01 179.73 110.18 180.47 110.51 181.09C110.84 181.71 111.29 182.18 111.85 182.51C112.41 182.84 113.03 183 113.71 183C114.39 183 115.01 182.84 115.58 182.51C116.15 182.18 116.6 181.71 116.93 181.09C117.26 180.47 117.43 179.75 117.43 178.92C117.43 178.09 117.26 177.37 116.93 176.76Z" fill="#AED8A4"/>
<path d="M123.97 184.17C123.3 183.88 122.78 183.48 122.39 182.97C122 182.46 121.79 181.87 121.75 181.2H123.63C123.68 181.75 123.94 182.19 124.4 182.54C124.86 182.89 125.46 183.06 126.21 183.06C126.9 183.06 127.45 182.91 127.85 182.6C128.25 182.29 128.45 181.91 128.45 181.44C128.45 180.97 128.24 180.6 127.81 180.37C127.38 180.14 126.72 179.91 125.83 179.68C125.02 179.47 124.35 179.25 123.84 179.03C123.33 178.81 122.89 178.48 122.52 178.05C122.15 177.62 121.97 177.05 121.97 176.34C121.97 175.78 122.14 175.27 122.47 174.8C122.8 174.33 123.28 173.96 123.89 173.69C124.5 173.42 125.2 173.28 125.99 173.28C127.2 173.28 128.18 173.59 128.93 174.2C129.68 174.81 130.08 175.65 130.13 176.72H128.31C128.27 176.15 128.04 175.69 127.62 175.34C127.2 174.99 126.64 174.82 125.93 174.82C125.28 174.82 124.76 174.96 124.37 175.24C123.98 175.52 123.79 175.89 123.79 176.34C123.79 176.7 123.91 177 124.14 177.23C124.37 177.46 124.67 177.65 125.02 177.79C125.37 177.93 125.86 178.09 126.49 178.26C127.28 178.47 127.92 178.68 128.41 178.89C128.9 179.1 129.33 179.41 129.68 179.82C130.03 180.23 130.22 180.77 130.23 181.44C130.23 182.04 130.06 182.58 129.73 183.06C129.4 183.54 128.93 183.92 128.32 184.19C127.71 184.46 127.02 184.6 126.23 184.6C125.39 184.6 124.64 184.46 123.97 184.17Z" fill="#AED8A4"/>
<path d="M134.41 184.17C133.74 183.88 133.22 183.48 132.83 182.97C132.44 182.46 132.23 181.87 132.19 181.2H134.07C134.12 181.75 134.38 182.19 134.84 182.54C135.3 182.89 135.9 183.06 136.65 183.06C137.34 183.06 137.89 182.91 138.29 182.6C138.69 182.29 138.89 181.91 138.89 181.44C138.89 180.97 138.68 180.6 138.25 180.37C137.82 180.14 137.16 179.91 136.27 179.68C135.46 179.47 134.79 179.25 134.28 179.03C133.77 178.81 133.33 178.48 132.96 178.05C132.59 177.62 132.41 177.05 132.41 176.34C132.41 175.78 132.58 175.27 132.91 174.8C133.24 174.33 133.72 173.96 134.33 173.69C134.94 173.42 135.64 173.28 136.43 173.28C137.64 173.28 138.62 173.59 139.37 174.2C140.12 174.81 140.52 175.65 140.57 176.72H138.75C138.71 176.15 138.48 175.69 138.06 175.34C137.64 174.99 137.08 174.82 136.37 174.82C135.72 174.82 135.2 174.96 134.81 175.24C134.42 175.52 134.23 175.89 134.23 176.34C134.23 176.7 134.35 177 134.58 177.23C134.81 177.46 135.11 177.65 135.46 177.79C135.81 177.93 136.3 178.09 136.93 178.26C137.72 178.47 138.36 178.68 138.85 178.89C139.34 179.1 139.77 179.41 140.12 179.82C140.47 180.23 140.66 180.77 140.67 181.44C140.67 182.04 140.5 182.58 140.17 183.06C139.84 183.54 139.37 183.92 138.76 184.19C138.15 184.46 137.46 184.6 136.67 184.6C135.83 184.6 135.08 184.46 134.41 184.17Z" fill="#AED8A4"/>
<path d="M145.22 183.9C144.39 183.43 143.73 182.77 143.26 181.91C142.79 181.05 142.55 180.05 142.55 178.92C142.55 177.79 142.79 176.81 143.28 175.95C143.77 175.09 144.43 174.43 145.27 173.97C146.11 173.51 147.05 173.28 148.09 173.28C149.13 173.28 150.07 173.51 150.91 173.97C151.75 174.43 152.41 175.09 152.9 175.94C153.39 176.79 153.63 177.79 153.63 178.92C153.63 180.05 153.38 181.05 152.88 181.91C152.38 182.77 151.7 183.43 150.85 183.9C150 184.37 149.05 184.6 148.01 184.6C146.97 184.6 146.05 184.37 145.22 183.9ZM149.85 182.54C150.42 182.23 150.89 181.77 151.24 181.16C151.59 180.55 151.77 179.8 151.77 178.92C151.77 178.04 151.6 177.29 151.25 176.68C150.9 176.07 150.45 175.61 149.89 175.31C149.33 175.01 148.72 174.86 148.07 174.86C147.42 174.86 146.79 175.01 146.24 175.31C145.69 175.61 145.24 176.07 144.91 176.68C144.58 177.29 144.41 178.04 144.41 178.92C144.41 179.8 144.57 180.57 144.9 181.18C145.23 181.79 145.66 182.25 146.21 182.55C146.76 182.85 147.36 183 148.01 183C148.66 183 149.28 182.85 149.85 182.54Z" fill="#AED8A4"/>
<path d="M160.09 645.94C159.34 646.67 158.19 647.03 156.64 647.03H154.09V652.56H152.36V639.32H156.64C158.13 639.32 159.27 639.68 160.05 640.4C160.83 641.12 161.22 642.05 161.22 643.19C161.22 644.33 160.84 645.21 160.09 645.94ZM158.77 644.98C159.23 644.56 159.45 643.97 159.45 643.19C159.45 641.56 158.51 640.74 156.64 640.74H154.09V645.6H156.64C157.6 645.6 158.31 645.39 158.77 644.97V644.98Z" fill="#424242"/>
<path d="M166.4 642.45C166.96 642.12 167.65 641.96 168.46 641.96V643.75H168C166.06 643.75 165.09 644.8 165.09 646.9V652.56H163.36V642.15H165.09V643.84C165.39 643.24 165.83 642.78 166.39 642.45H166.4Z" fill="#424242"/>
<path d="M172.35 652.07C171.56 651.63 170.94 651 170.49 650.18C170.04 649.36 169.82 648.42 169.82 647.34C169.82 646.26 170.05 645.34 170.51 644.52C170.97 643.7 171.6 643.08 172.4 642.64C173.2 642.2 174.09 641.98 175.08 641.98C176.07 641.98 176.96 642.2 177.76 642.64C178.56 643.08 179.19 643.7 179.65 644.51C180.11 645.32 180.34 646.26 180.34 647.34C180.34 648.42 180.1 649.36 179.63 650.18C179.15 651 178.51 651.63 177.7 652.07C176.89 652.51 175.99 652.74 175 652.74C174.01 652.74 173.14 652.52 172.35 652.07ZM176.75 650.77C177.29 650.48 177.73 650.04 178.07 649.46C178.41 648.88 178.57 648.17 178.57 647.33C178.57 646.49 178.4 645.78 178.08 645.2C177.75 644.62 177.32 644.18 176.79 643.9C176.26 643.62 175.68 643.47 175.06 643.47C174.44 643.47 173.85 643.61 173.32 643.9C172.79 644.19 172.37 644.62 172.06 645.2C171.74 645.78 171.59 646.49 171.59 647.33C171.59 648.17 171.75 648.89 172.06 649.48C172.37 650.06 172.78 650.5 173.3 650.78C173.82 651.06 174.39 651.21 175.01 651.21C175.63 651.21 176.21 651.06 176.76 650.77H176.75Z" fill="#424242"/>
<path d="M190.77 643.11C191.56 643.88 191.95 644.98 191.95 646.43V652.57H190.24V646.68C190.24 645.64 189.98 644.85 189.46 644.3C188.94 643.75 188.23 643.47 187.33 643.47C186.43 643.47 185.69 643.75 185.15 644.32C184.61 644.89 184.34 645.72 184.34 646.81V652.57H182.61V642.16H184.34V643.64C184.68 643.11 185.15 642.7 185.74 642.4C186.33 642.11 186.98 641.96 187.69 641.96C188.96 641.96 189.98 642.34 190.77 643.11Z" fill="#424242"/>
<path d="M196.89 643.57V649.71C196.89 650.22 197 650.57 197.21 650.78C197.43 650.99 197.8 651.09 198.33 651.09H199.6V652.55H198.04C197.08 652.55 196.35 652.33 195.87 651.88C195.39 651.44 195.15 650.71 195.15 649.7V643.56H193.8V642.14H195.15V639.52H196.88V642.14H199.6V643.56H196.88L196.89 643.57Z" fill="#424242"/>
<path d="M203.58 652.07C202.79 651.63 202.17 651 201.72 650.18C201.27 649.36 201.05 648.42 201.05 647.34C201.05 646.26 201.28 645.34 201.74 644.52C202.2 643.7 202.83 643.08 203.63 642.64C204.43 642.2 205.32 641.98 206.31 641.98C207.3 641.98 208.19 642.2 208.99 642.64C209.79 643.08 210.42 643.7 210.88 644.51C211.34 645.32 211.57 646.26 211.57 647.34C211.57 648.42 211.33 649.36 210.86 650.18C210.38 651 209.74 651.63 208.93 652.07C208.12 652.51 207.22 652.74 206.23 652.74C205.24 652.74 204.37 652.52 203.58 652.07ZM207.98 650.77C208.52 650.48 208.96 650.04 209.3 649.46C209.64 648.88 209.8 648.17 209.8 647.33C209.8 646.49 209.63 645.78 209.31 645.2C208.98 644.62 208.55 644.18 208.02 643.9C207.49 643.62 206.91 643.47 206.29 643.47C205.67 643.47 205.08 643.61 204.55 643.9C204.02 644.19 203.6 644.62 203.29 645.2C202.97 645.78 202.82 646.49 202.82 647.33C202.82 648.17 202.98 648.89 203.29 649.48C203.6 650.06 204.01 650.5 204.53 650.78C205.05 651.06 205.62 651.21 206.24 651.21C206.86 651.21 207.44 651.06 207.99 650.77H207.98Z" fill="#424242"/>
<path d="M215.64 650.17L213.51 655.28H212.35L213.74 650.17H215.64Z" fill="#424242"/>
<path d="M224.23 652.32C223.6 652.05 223.1 651.67 222.73 651.18C222.36 650.69 222.16 650.13 222.12 649.5H223.91C223.96 650.02 224.2 650.44 224.64 650.77C225.08 651.1 225.65 651.26 226.36 651.26C227.02 651.26 227.54 651.11 227.92 650.82C228.3 650.53 228.49 650.16 228.49 649.72C228.49 649.28 228.29 648.93 227.88 648.7C227.47 648.48 226.85 648.26 226 648.04C225.23 647.84 224.6 647.63 224.11 647.42C223.62 647.21 223.2 646.9 222.86 646.49C222.51 646.08 222.34 645.54 222.34 644.87C222.34 644.34 222.5 643.85 222.82 643.41C223.14 642.97 223.59 642.62 224.17 642.36C224.75 642.1 225.42 641.97 226.17 641.97C227.32 641.97 228.25 642.26 228.96 642.84C229.67 643.42 230.05 644.22 230.1 645.23H228.37C228.33 644.69 228.11 644.25 227.71 643.92C227.31 643.59 226.78 643.43 226.1 643.43C225.48 643.43 224.98 643.56 224.62 643.83C224.25 644.1 224.07 644.44 224.07 644.87C224.07 645.21 224.18 645.49 224.4 645.72C224.62 645.95 224.9 646.12 225.24 646.25C225.58 646.38 226.04 646.53 226.64 646.7C227.39 646.9 227.99 647.1 228.46 647.3C228.93 647.5 229.33 647.79 229.67 648.18C230 648.57 230.18 649.09 230.19 649.72C230.19 650.29 230.03 650.8 229.71 651.26C229.39 651.72 228.95 652.07 228.37 652.33C227.79 652.59 227.13 652.72 226.38 652.72C225.58 652.72 224.87 652.58 224.23 652.31V652.32Z" fill="#424242"/>
<path d="M242.05 648H233.73C233.79 649.03 234.15 649.83 234.78 650.4C235.41 650.97 236.2 651.26 237.11 651.26C237.86 651.26 238.48 651.09 238.98 650.74C239.48 650.39 239.83 649.93 240.03 649.34H241.89C241.61 650.34 241.05 651.15 240.22 651.78C239.39 652.41 238.34 652.72 237.1 652.72C236.11 652.72 235.23 652.5 234.45 652.05C233.67 651.6 233.06 650.98 232.62 650.16C232.18 649.34 231.95 648.4 231.95 647.32C231.95 646.24 232.16 645.3 232.6 644.49C233.04 643.68 233.64 643.06 234.41 642.62C235.19 642.18 236.08 641.96 237.1 641.96C238.12 641.96 238.96 642.18 239.72 642.61C240.48 643.04 241.07 643.63 241.48 644.39C241.89 645.14 242.1 646 242.1 646.94C242.1 647.27 242.08 647.62 242.04 647.99L242.05 648ZM239.88 644.89C239.59 644.41 239.19 644.05 238.69 643.81C238.19 643.56 237.64 643.44 237.03 643.44C236.16 643.44 235.41 643.72 234.8 644.28C234.19 644.84 233.83 645.61 233.75 646.6H240.32C240.32 645.94 240.17 645.37 239.88 644.9V644.89Z" fill="#424242"/>
<path d="M253.62 642.15V652.56H251.89V651.02C251.56 651.55 251.1 651.97 250.51 652.26C249.92 652.56 249.27 652.71 248.56 652.71C247.75 652.71 247.02 652.54 246.38 652.21C245.73 651.88 245.22 651.37 244.85 650.7C244.48 650.03 244.29 649.21 244.29 648.25V642.15H246V648.02C246 649.05 246.26 649.83 246.78 650.39C247.3 650.94 248.01 651.22 248.91 651.22C249.81 651.22 250.56 650.93 251.09 650.36C251.62 649.79 251.89 648.96 251.89 647.87V642.15H253.62Z" fill="#424242"/>
<path d="M261.62 644.51C262.05 643.71 262.64 643.08 263.4 642.64C264.16 642.2 264.99 641.97 265.92 641.97C266.85 641.97 267.62 642.17 268.3 642.56C268.97 642.95 269.47 643.45 269.8 644.04V642.14H271.55V652.55H269.8V650.61C269.46 651.22 268.95 651.72 268.27 652.12C267.59 652.52 266.8 652.72 265.9 652.72C265 652.72 264.14 652.49 263.39 652.04C262.64 651.58 262.05 650.94 261.62 650.12C261.19 649.3 260.97 648.36 260.97 647.31C260.97 646.26 261.18 645.31 261.62 644.51ZM269.31 645.28C268.99 644.7 268.57 644.25 268.03 643.94C267.49 643.63 266.9 643.47 266.25 643.47C265.6 643.47 265.02 643.62 264.48 643.93C263.94 644.24 263.52 644.68 263.21 645.26C262.9 645.84 262.74 646.53 262.74 647.31C262.74 648.09 262.9 648.8 263.21 649.39C263.53 649.98 263.95 650.43 264.48 650.74C265.01 651.05 265.6 651.21 266.25 651.21C266.9 651.21 267.49 651.05 268.03 650.74C268.57 650.43 268.99 649.98 269.31 649.39C269.63 648.8 269.78 648.11 269.78 647.33C269.78 646.55 269.62 645.86 269.31 645.28Z" fill="#424242"/>
<path d="M278.34 650.96L281.57 642.14H283.41L279.33 652.55H277.32L273.23 642.14H275.09L278.34 650.96Z" fill="#424242"/>
<path d="M285.18 640.11C284.95 639.88 284.84 639.6 284.84 639.27C284.84 638.94 284.95 638.66 285.18 638.43C285.41 638.2 285.69 638.09 286.02 638.09C286.35 638.09 286.6 638.2 286.83 638.43C287.05 638.66 287.16 638.94 287.16 639.27C287.16 639.6 287.05 639.88 286.83 640.11C286.61 640.34 286.34 640.45 286.02 640.45C285.7 640.45 285.41 640.34 285.18 640.11ZM286.85 642.15V652.56H285.12V642.15H286.85Z" fill="#424242"/>
<path d="M289.8 644.51C290.23 643.71 290.82 643.08 291.58 642.64C292.34 642.2 293.17 641.97 294.1 641.97C295.03 641.97 295.8 642.17 296.48 642.56C297.15 642.95 297.65 643.45 297.98 644.04V642.14H299.73V652.55H297.98V650.61C297.64 651.22 297.13 651.72 296.45 652.12C295.77 652.52 294.98 652.72 294.08 652.72C293.18 652.72 292.32 652.49 291.57 652.04C290.82 651.58 290.23 650.94 289.8 650.12C289.37 649.3 289.15 648.36 289.15 647.31C289.15 646.26 289.36 645.31 289.8 644.51ZM297.49 645.28C297.17 644.7 296.75 644.25 296.21 643.94C295.67 643.63 295.08 643.47 294.43 643.47C293.78 643.47 293.2 643.62 292.66 643.93C292.12 644.24 291.7 644.68 291.39 645.26C291.08 645.84 290.92 646.53 290.92 647.31C290.92 648.09 291.08 648.8 291.39 649.39C291.71 649.98 292.13 650.43 292.66 650.74C293.19 651.05 293.78 651.21 294.43 651.21C295.08 651.21 295.67 651.05 296.21 650.74C296.75 650.43 297.17 649.98 297.49 649.39C297.81 648.8 297.96 648.11 297.96 647.33C297.96 646.55 297.8 645.86 297.49 645.28ZM292.62 639.55C292.96 639.21 293.38 639.04 293.88 639.04C294.12 639.04 294.33 639.08 294.5 639.16C294.67 639.24 294.88 639.36 295.12 639.51C295.3 639.64 295.45 639.73 295.59 639.8C295.73 639.87 295.88 639.9 296.05 639.9C296.27 639.9 296.45 639.83 296.6 639.69C296.75 639.55 296.85 639.35 296.89 639.08H297.88C297.8 639.71 297.59 640.2 297.25 640.54C296.91 640.88 296.48 641.05 295.98 641.05C295.74 641.05 295.53 641.01 295.34 640.93C295.16 640.85 294.95 640.72 294.72 640.56C294.52 640.43 294.36 640.34 294.24 640.27C294.12 640.21 293.98 640.18 293.81 640.18C293.6 640.18 293.41 640.25 293.27 640.39C293.12 640.53 293.03 640.74 292.99 641.02H291.98C292.07 640.37 292.28 639.88 292.62 639.54V639.55Z" fill="#424242"/>
<path d="M304.53 652.07C303.74 651.63 303.12 651 302.67 650.18C302.22 649.36 302 648.42 302 647.34C302 646.26 302.23 645.34 302.69 644.52C303.15 643.7 303.78 643.08 304.58 642.64C305.38 642.2 306.27 641.98 307.26 641.98C308.25 641.98 309.14 642.2 309.94 642.64C310.74 643.08 311.37 643.7 311.83 644.51C312.29 645.32 312.52 646.26 312.52 647.34C312.52 648.42 312.28 649.36 311.81 650.18C311.33 651 310.69 651.63 309.88 652.07C309.07 652.51 308.17 652.74 307.18 652.74C306.19 652.74 305.32 652.52 304.53 652.07ZM308.93 650.77C309.47 650.48 309.91 650.04 310.25 649.46C310.59 648.88 310.75 648.17 310.75 647.33C310.75 646.49 310.58 645.78 310.26 645.2C309.93 644.62 309.5 644.18 308.97 643.9C308.44 643.62 307.86 643.47 307.24 643.47C306.62 643.47 306.03 643.61 305.5 643.9C304.97 644.19 304.55 644.62 304.24 645.2C303.92 645.78 303.77 646.49 303.77 647.33C303.77 648.17 303.93 648.89 304.24 649.48C304.55 650.06 304.96 650.5 305.48 650.78C306 651.06 306.57 651.21 307.19 651.21C307.81 651.21 308.39 651.06 308.94 650.77H308.93Z" fill="#424242"/>
<path d="M329.32 648H321C321.06 649.03 321.42 649.83 322.05 650.4C322.68 650.97 323.47 651.26 324.38 651.26C325.13 651.26 325.75 651.09 326.25 650.74C326.75 650.39 327.1 649.93 327.3 649.34H329.16C328.88 650.34 328.32 651.15 327.49 651.78C326.66 652.41 325.61 652.72 324.37 652.72C323.38 652.72 322.5 652.5 321.72 652.05C320.94 651.6 320.33 650.98 319.89 650.16C319.45 649.34 319.22 648.4 319.22 647.32C319.22 646.24 319.43 645.3 319.87 644.49C320.31 643.68 320.91 643.06 321.68 642.62C322.46 642.18 323.35 641.96 324.37 641.96C325.39 641.96 326.23 642.18 326.99 642.61C327.75 643.04 328.34 643.63 328.75 644.39C329.16 645.14 329.37 646 329.37 646.94C329.37 647.27 329.35 647.62 329.31 647.99L329.32 648ZM327.15 644.89C326.86 644.41 326.46 644.05 325.96 643.81C325.46 643.56 324.91 643.44 324.3 643.44C323.43 643.44 322.68 643.72 322.07 644.28C321.46 644.84 321.1 645.61 321.02 646.6H327.59C327.59 645.94 327.44 645.37 327.15 644.9V644.89Z" fill="#424242"/>
<path d="M333.19 652.32C332.56 652.05 332.06 651.67 331.69 651.18C331.32 650.69 331.12 650.13 331.08 649.5H332.87C332.92 650.02 333.16 650.44 333.6 650.77C334.04 651.1 334.61 651.26 335.32 651.26C335.98 651.26 336.5 651.11 336.88 650.82C337.26 650.53 337.45 650.16 337.45 649.72C337.45 649.28 337.25 648.93 336.84 648.7C336.43 648.48 335.81 648.26 334.96 648.04C334.19 647.84 333.56 647.63 333.07 647.42C332.58 647.21 332.16 646.9 331.82 646.49C331.47 646.08 331.3 645.54 331.3 644.87C331.3 644.34 331.46 643.85 331.78 643.41C332.1 642.97 332.55 642.62 333.13 642.36C333.71 642.1 334.38 641.97 335.13 641.97C336.28 641.97 337.21 642.26 337.92 642.84C338.63 643.42 339.01 644.22 339.06 645.23H337.33C337.29 644.69 337.07 644.25 336.67 643.92C336.27 643.59 335.74 643.43 335.06 643.43C334.44 643.43 333.94 643.56 333.58 643.83C333.21 644.1 333.03 644.44 333.03 644.87C333.03 645.21 333.14 645.49 333.36 645.72C333.58 645.95 333.86 646.12 334.2 646.25C334.54 646.38 335 646.53 335.6 646.7C336.35 646.9 336.95 647.1 337.42 647.3C337.89 647.5 338.29 647.79 338.63 648.18C338.96 648.57 339.14 649.09 339.15 649.72C339.15 650.29 338.99 650.8 338.67 651.26C338.35 651.72 337.91 652.07 337.33 652.33C336.75 652.59 336.09 652.72 335.34 652.72C334.54 652.72 333.83 652.58 333.19 652.31V652.32Z" fill="#424242"/>
<path d="M343.68 643.57V649.71C343.68 650.22 343.79 650.57 344 650.78C344.22 650.99 344.59 651.09 345.12 651.09H346.39V652.55H344.83C343.87 652.55 343.14 652.33 342.66 651.88C342.18 651.44 341.94 650.71 341.94 649.7V643.56H340.59V642.14H341.94V639.52H343.67V642.14H346.39V643.56H343.67L343.68 643.57Z" fill="#424242"/>
<path d="M348.49 644.51C348.92 643.71 349.51 643.08 350.27 642.64C351.03 642.2 351.86 641.97 352.79 641.97C353.72 641.97 354.49 642.17 355.17 642.56C355.84 642.95 356.34 643.45 356.67 644.04V642.14H358.42V652.55H356.67V650.61C356.33 651.22 355.82 651.72 355.14 652.12C354.46 652.52 353.67 652.72 352.77 652.72C351.87 652.72 351.01 652.49 350.26 652.04C349.51 651.58 348.92 650.94 348.49 650.12C348.06 649.3 347.84 648.36 347.84 647.31C347.84 646.26 348.05 645.31 348.49 644.51ZM356.18 645.28C355.86 644.7 355.44 644.25 354.9 643.94C354.36 643.63 353.77 643.47 353.12 643.47C352.47 643.47 351.89 643.62 351.35 643.93C350.81 644.24 350.39 644.68 350.08 645.26C349.77 645.84 349.61 646.53 349.61 647.31C349.61 648.09 349.77 648.8 350.08 649.39C350.4 649.98 350.82 650.43 351.35 650.74C351.88 651.05 352.47 651.21 353.12 651.21C353.77 651.21 354.36 651.05 354.9 650.74C355.44 650.43 355.86 649.98 356.18 649.39C356.5 648.8 356.65 648.11 356.65 647.33C356.65 646.55 356.49 645.86 356.18 645.28ZM355.31 639.2L351.26 641.37V640.08L355.31 637.7V639.2Z" fill="#424242"/>
<path d="M370.64 643.57H368.45V652.56H366.72V643.57H365.37V642.15H366.72V641.41C366.72 640.24 367.02 639.39 367.62 638.85C368.22 638.31 369.19 638.04 370.52 638.04V639.48C369.76 639.48 369.23 639.63 368.91 639.93C368.6 640.23 368.44 640.72 368.44 641.4V642.14H370.63V643.56L370.64 643.57Z" fill="#424242"/>
<path d="M372.71 640.11C372.48 639.88 372.37 639.6 372.37 639.27C372.37 638.94 372.48 638.66 372.71 638.43C372.94 638.2 373.22 638.09 373.55 638.09C373.88 638.09 374.13 638.2 374.36 638.43C374.58 638.66 374.69 638.94 374.69 639.27C374.69 639.6 374.58 639.88 374.36 640.11C374.14 640.34 373.87 640.45 373.55 640.45C373.23 640.45 372.94 640.34 372.71 640.11ZM374.38 642.15V652.56H372.65V642.15H374.38Z" fill="#424242"/>
<path d="M385.48 643.11C386.27 643.88 386.66 644.98 386.66 646.43V652.57H384.95V646.68C384.95 645.64 384.69 644.85 384.17 644.3C383.65 643.75 382.94 643.47 382.04 643.47C381.14 643.47 380.4 643.75 379.86 644.32C379.32 644.89 379.05 645.72 379.05 646.81V652.57H377.32V642.16H379.05V643.64C379.39 643.11 379.86 642.7 380.45 642.4C381.04 642.11 381.69 641.96 382.4 641.96C383.67 641.96 384.69 642.34 385.48 643.11Z" fill="#424242"/>
<path d="M389.49 644.51C389.92 643.71 390.51 643.08 391.27 642.64C392.03 642.2 392.86 641.97 393.79 641.97C394.72 641.97 395.49 642.17 396.17 642.56C396.84 642.95 397.34 643.45 397.67 644.04V642.14H399.42V652.55H397.67V650.61C397.33 651.22 396.82 651.72 396.14 652.12C395.46 652.52 394.67 652.72 393.77 652.72C392.87 652.72 392.01 652.49 391.26 652.04C390.51 651.58 389.92 650.94 389.49 650.12C389.06 649.3 388.84 648.36 388.84 647.31C388.84 646.26 389.05 645.31 389.49 644.51ZM397.18 645.28C396.86 644.7 396.44 644.25 395.9 643.94C395.36 643.63 394.77 643.47 394.12 643.47C393.47 643.47 392.89 643.62 392.35 643.93C391.81 644.24 391.39 644.68 391.08 645.26C390.77 645.84 390.61 646.53 390.61 647.31C390.61 648.09 390.77 648.8 391.08 649.39C391.4 649.98 391.82 650.43 392.35 650.74C392.88 651.05 393.47 651.21 394.12 651.21C394.77 651.21 395.36 651.05 395.9 650.74C396.44 650.43 396.86 649.98 397.18 649.39C397.5 648.8 397.65 648.11 397.65 647.33C397.65 646.55 397.49 645.86 397.18 645.28Z" fill="#424242"/>
<path d="M404.06 638.5V652.56H402.33V638.5H404.06Z" fill="#424242"/>
<path d="M407.06 640.11C406.83 639.88 406.72 639.6 406.72 639.27C406.72 638.94 406.83 638.66 407.06 638.43C407.29 638.2 407.57 638.09 407.9 638.09C408.23 638.09 408.48 638.2 408.71 638.43C408.93 638.66 409.04 638.94 409.04 639.27C409.04 639.6 408.93 639.88 408.71 640.11C408.49 640.34 408.22 640.45 407.9 640.45C407.58 640.45 407.29 640.34 407.06 640.11ZM408.73 642.15V652.56H407V642.15H408.73Z" fill="#424242"/>
<path d="M412.97 651.13H418.08V652.55H410.99V651.13L416.04 643.55H411.02V642.14H418.03V643.55L412.96 651.13H412.97Z" fill="#424242"/>
<path d="M420.32 644.51C420.75 643.71 421.34 643.08 422.1 642.64C422.86 642.2 423.69 641.97 424.62 641.97C425.55 641.97 426.32 642.17 427 642.56C427.67 642.95 428.17 643.45 428.5 644.04V642.14H430.25V652.55H428.5V650.61C428.16 651.22 427.65 651.72 426.97 652.12C426.29 652.52 425.5 652.72 424.6 652.72C423.7 652.72 422.84 652.49 422.09 652.04C421.34 651.58 420.75 650.94 420.32 650.12C419.89 649.3 419.67 648.36 419.67 647.31C419.67 646.26 419.88 645.31 420.32 644.51ZM428.02 645.28C427.7 644.7 427.28 644.25 426.74 643.94C426.2 643.63 425.61 643.47 424.96 643.47C424.31 643.47 423.73 643.62 423.19 643.93C422.65 644.24 422.23 644.68 421.92 645.26C421.61 645.84 421.45 646.53 421.45 647.31C421.45 648.09 421.61 648.8 421.92 649.39C422.24 649.98 422.66 650.43 423.19 650.74C423.72 651.05 424.31 651.21 424.96 651.21C425.61 651.21 426.2 651.05 426.74 650.74C427.28 650.43 427.7 649.98 428.02 649.39C428.34 648.8 428.49 648.11 428.49 647.33C428.49 646.55 428.33 645.86 428.02 645.28Z" fill="#424242"/>
<path d="M433.17 644.51C433.6 643.71 434.19 643.08 434.95 642.64C435.71 642.2 436.55 641.97 437.49 641.97C438.3 641.97 439.05 642.16 439.75 642.53C440.45 642.9 440.98 643.39 441.35 644V638.49H443.1V652.55H441.35V650.59C441.01 651.21 440.5 651.72 439.83 652.12C439.16 652.52 438.37 652.72 437.47 652.72C436.57 652.72 435.71 652.49 434.95 652.04C434.19 651.59 433.6 650.94 433.17 650.12C432.74 649.3 432.52 648.36 432.52 647.31C432.52 646.26 432.73 645.31 433.17 644.51ZM440.86 645.28C440.54 644.7 440.12 644.25 439.58 643.94C439.04 643.63 438.45 643.47 437.8 643.47C437.15 643.47 436.57 643.62 436.03 643.93C435.49 644.24 435.07 644.68 434.76 645.26C434.45 645.84 434.29 646.53 434.29 647.31C434.29 648.09 434.45 648.8 434.76 649.39C435.08 649.98 435.5 650.43 436.03 650.74C436.56 651.05 437.15 651.21 437.8 651.21C438.45 651.21 439.04 651.05 439.58 650.74C440.12 650.43 440.54 649.98 440.86 649.39C441.18 648.8 441.33 648.11 441.33 647.33C441.33 646.55 441.17 645.86 440.86 645.28Z" fill="#424242"/>
<path d="M447.9 652.07C447.11 651.63 446.49 651 446.04 650.18C445.59 649.36 445.37 648.42 445.37 647.34C445.37 646.26 445.6 645.34 446.06 644.52C446.52 643.7 447.15 643.08 447.95 642.64C448.75 642.2 449.64 641.98 450.63 641.98C451.62 641.98 452.51 642.2 453.31 642.64C454.11 643.08 454.74 643.7 455.2 644.51C455.66 645.32 455.89 646.26 455.89 647.34C455.89 648.42 455.65 649.36 455.18 650.18C454.7 651 454.06 651.63 453.25 652.07C452.44 652.51 451.54 652.74 450.55 652.74C449.56 652.74 448.69 652.52 447.9 652.07ZM452.3 650.77C452.84 650.48 453.28 650.04 453.62 649.46C453.96 648.88 454.12 648.17 454.12 647.33C454.12 646.49 453.95 645.78 453.63 645.2C453.3 644.62 452.87 644.18 452.34 643.9C451.81 643.62 451.23 643.47 450.61 643.47C449.99 643.47 449.4 643.61 448.87 643.9C448.34 644.19 447.92 644.62 447.61 645.2C447.29 645.78 447.14 646.49 447.14 647.33C447.14 648.17 447.3 648.89 447.61 649.48C447.92 650.06 448.33 650.5 448.85 650.78C449.37 651.06 449.94 651.21 450.56 651.21C451.18 651.21 451.76 651.06 452.31 650.77H452.3Z" fill="#424242"/>
<path d="M527.18 288.98C546.201 288.98 561.62 273.534 561.62 254.48C561.62 235.426 546.201 219.98 527.18 219.98C508.16 219.98 492.74 235.426 492.74 254.48C492.74 273.534 508.16 288.98 527.18 288.98Z" fill="#E8E3E6"/>
<path d="M527.22 286C546.241 286 561.66 270.554 561.66 251.5C561.66 232.446 546.241 217 527.22 217C508.2 217 492.78 232.446 492.78 251.5C492.78 270.554 508.2 286 527.22 286Z" fill="#FFF8FC"/>
<path d="M511.97 247.72L525.94 233.72C528.3 231.36 532.34 233.03 532.34 236.37V266.57C532.34 269.87 528.39 271.57 526 269.28L511.97 255.84V247.71V247.72Z" fill="#C8A9F2"/>
<path d="M510.77 249.2C510.77 248.366 510.094 247.69 509.26 247.69C508.426 247.69 507.75 248.366 507.75 249.2V253.75C507.75 254.584 508.426 255.26 509.26 255.26C510.094 255.26 510.77 254.584 510.77 253.75V249.2Z" fill="#C8A9F2"/>
<path d="M536.09 259.57C537.2 258.62 538.74 254.27 538.74 251.47C538.74 248.67 537.7 244.75 536.09 243.37" fill="#C8A9F2"/>
<path d="M540.65 262.19C542.12 260.93 544.15 255.18 544.15 251.47C544.15 247.76 542.78 242.57 540.65 240.75" fill="#C8A9F2"/>
<path d="M388.55 285.23L282.53 505.37L249.03 538.87L388.55 285.23Z" fill="#F4F4F4"/>
<path d="M282.53 505.37L320.5 552.27L388.55 285.23L282.53 505.37Z" fill="#E0E0E0"/>
<path d="M320.5 552.27L388.55 551.89V285.23L320.5 552.27Z" fill="white"/>
<path d="M389.73 284.27L184.27 538.87H249.03L389.73 284.27Z" fill="white"/>
</svg>
