<svg width="1209" height="720" viewBox="0 0 1209 720" fill="none" xmlns="http://www.w3.org/2000/svg">
<path d="M715.84 24.27H484.41C467.946 24.27 454.6 37.6164 454.6 54.08V64.46C454.6 80.9236 467.946 94.27 484.41 94.27H715.84C732.304 94.27 745.65 80.9236 745.65 64.46V54.08C745.65 37.6164 732.304 24.27 715.84 24.27Z" fill="#8BA1CC"/>
<path d="M561.48 1.57999C562.43 2.05999 563.15 2.74999 563.66 3.64999C564.16 4.53999 564.42 5.59999 564.42 6.80999C564.42 8.01999 564.17 9.06999 563.66 9.95999C563.16 10.85 562.43 11.53 561.48 12C560.53 12.47 559.41 12.71 558.12 12.71H554.43V0.859985H558.12C559.41 0.859985 560.53 1.09999 561.48 1.57999ZM561.63 10.21C562.43 9.39999 562.84 8.25999 562.84 6.79999C562.84 5.33999 562.43 4.17999 561.62 3.34999C560.81 2.51999 559.65 2.10999 558.13 2.10999H555.99V11.43H558.13C559.66 11.43 560.83 11.03 561.63 10.22V10.21Z" fill="#A8A8A8"/>
<path d="M568.15 12.26C567.44 11.86 566.89 11.3 566.48 10.57C566.08 9.83999 565.88 8.98999 565.88 8.02999C565.88 7.06999 566.09 6.23999 566.5 5.50999C566.91 4.77999 567.48 4.21999 568.19 3.82999C568.9 3.43999 569.7 3.23999 570.59 3.23999C571.48 3.23999 572.27 3.43999 572.99 3.82999C573.7 4.21999 574.27 4.77999 574.68 5.49999C575.09 6.21999 575.3 7.06999 575.3 8.02999C575.3 8.98999 575.09 9.83999 574.66 10.57C574.24 11.3 573.66 11.86 572.93 12.26C572.2 12.66 571.4 12.86 570.52 12.86C569.64 12.86 568.86 12.66 568.15 12.26ZM572.08 11.11C572.57 10.85 572.96 10.46 573.26 9.93999C573.56 9.41999 573.71 8.77999 573.71 8.03999C573.71 7.29999 573.56 6.65999 573.27 6.13999C572.98 5.61999 572.59 5.22999 572.11 4.97999C571.63 4.72999 571.12 4.59999 570.56 4.59999C570 4.59999 569.48 4.72999 569 4.97999C568.53 5.22999 568.15 5.61999 567.87 6.13999C567.59 6.65999 567.44 7.29999 567.44 8.03999C567.44 8.77999 567.58 9.43999 567.86 9.95999C568.14 10.48 568.51 10.87 568.97 11.12C569.43 11.37 569.94 11.5 570.5 11.5C571.06 11.5 571.58 11.37 572.06 11.11H572.08Z" fill="#A8A8A8"/>
<path d="M580.28 3.76C580.89 3.41 581.59 3.23 582.37 3.23C583.21 3.23 583.96 3.43 584.63 3.82C585.3 4.22 585.83 4.77999 586.21 5.49C586.6 6.21 586.79 7.05 586.79 8C586.79 8.95 586.6 9.78 586.21 10.52C585.83 11.26 585.29 11.83 584.62 12.24C583.95 12.65 583.19 12.85 582.37 12.85C581.55 12.85 580.86 12.67 580.25 12.32C579.64 11.97 579.19 11.52 578.88 10.98V12.7H577.33V0.119995H578.88V5.12C579.2 4.56999 579.66 4.11 580.27 3.76H580.28ZM584.78 6.18C584.5 5.66 584.11 5.25999 583.63 4.99C583.15 4.72 582.62 4.58 582.04 4.58C581.46 4.58 580.95 4.72 580.47 5C579.99 5.28 579.6 5.68 579.31 6.21C579.02 6.74 578.88 7.35 578.88 8.04C578.88 8.72999 579.02 9.35999 579.31 9.88C579.6 10.41 579.98 10.81 580.47 11.09C580.95 11.37 581.48 11.51 582.04 11.51C582.6 11.51 583.15 11.37 583.63 11.09C584.11 10.81 584.49 10.41 584.78 9.88C585.06 9.35 585.2 8.73 585.2 8.02C585.2 7.31 585.06 6.71 584.78 6.18Z" fill="#A8A8A8"/>
<path d="M591.54 3.65997C592.04 3.36997 592.66 3.21997 593.38 3.21997V4.81997H592.97C591.24 4.81997 590.37 5.75997 590.37 7.63997V12.71H588.82V3.38997H590.37V4.89997C590.64 4.36997 591.03 3.94997 591.53 3.65997H591.54Z" fill="#A8A8A8"/>
<path d="M595.17 5.51C595.56 4.79 596.09 4.23 596.76 3.84C597.43 3.44 598.18 3.25 599.01 3.25C599.84 3.25 600.53 3.43 601.13 3.78C601.73 4.13 602.18 4.57 602.47 5.11V3.41H604.03V12.73H602.47V11C602.16 11.54 601.71 12 601.1 12.35C600.49 12.71 599.79 12.89 598.98 12.89C598.17 12.89 597.4 12.69 596.74 12.28C596.08 11.87 595.54 11.3 595.16 10.56C594.78 9.82 594.58 8.98 594.58 8.04C594.58 7.1 594.77 6.25 595.16 5.53L595.17 5.51ZM602.05 6.19C601.77 5.67 601.38 5.27 600.9 4.99C600.42 4.71 599.89 4.57 599.31 4.57C598.73 4.57 598.2 4.71 597.73 4.98C597.25 5.25 596.87 5.65 596.59 6.17C596.31 6.69 596.16 7.3 596.16 8.01C596.16 8.72 596.3 9.34 596.59 9.87C596.87 10.4 597.25 10.8 597.73 11.08C598.21 11.36 598.73 11.5 599.31 11.5C599.89 11.5 600.42 11.36 600.9 11.08C601.38 10.8 601.76 10.4 602.05 9.87C602.33 9.34 602.47 8.73 602.47 8.03C602.47 7.33 602.33 6.72 602.05 6.19Z" fill="#A8A8A8"/>
<path d="M606.66 5.51002C607.05 4.79002 607.58 4.23001 608.25 3.84001C608.92 3.44001 609.68 3.25001 610.52 3.25001C611.25 3.25001 611.92 3.42001 612.54 3.75001C613.16 4.08001 613.64 4.52001 613.97 5.07001V0.140015H615.53V12.72H613.97V10.97C613.66 11.53 613.21 11.98 612.61 12.34C612.01 12.7 611.31 12.88 610.5 12.88C609.69 12.88 608.92 12.68 608.25 12.27C607.58 11.86 607.05 11.29 606.66 10.55C606.28 9.81001 606.08 8.97001 606.08 8.03001C606.08 7.09001 606.27 6.24002 606.66 5.52002V5.51002ZM613.55 6.19001C613.27 5.67001 612.88 5.27001 612.4 4.99001C611.92 4.71001 611.39 4.57001 610.81 4.57001C610.23 4.57001 609.7 4.71001 609.23 4.98001C608.75 5.25001 608.37 5.65001 608.09 6.17001C607.81 6.69001 607.66 7.30001 607.66 8.01002C607.66 8.72001 607.8 9.34001 608.09 9.87001C608.37 10.4 608.75 10.8 609.23 11.08C609.71 11.36 610.23 11.5 610.81 11.5C611.39 11.5 611.92 11.36 612.4 11.08C612.88 10.8 613.26 10.4 613.55 9.87001C613.83 9.34001 613.97 8.73001 613.97 8.03001C613.97 7.33001 613.83 6.72001 613.55 6.19001Z" fill="#A8A8A8"/>
<path d="M626.42 3.39001V12.71H624.87V11.33C624.58 11.81 624.16 12.18 623.64 12.44C623.11 12.71 622.53 12.84 621.9 12.84C621.17 12.84 620.52 12.69 619.94 12.39C619.36 12.09 618.91 11.64 618.57 11.04C618.24 10.44 618.07 9.71002 618.07 8.85002V3.39001H619.6V8.64002C619.6 9.56002 619.83 10.26 620.3 10.76C620.77 11.26 621.4 11.5 622.2 11.5C623 11.5 623.68 11.25 624.15 10.74C624.63 10.23 624.86 9.49002 624.86 8.51002V3.39001H626.41H626.42Z" fill="#A8A8A8"/>
<path d="M631.75 3.65997C632.25 3.36997 632.87 3.21997 633.59 3.21997V4.81997H633.18C631.45 4.81997 630.58 5.75997 630.58 7.63997V12.71H629.03V3.38997H630.58V4.89997C630.85 4.36997 631.24 3.94997 631.74 3.65997H631.75Z" fill="#A8A8A8"/>
<path d="M635.37 5.51C635.76 4.79 636.29 4.23 636.96 3.84C637.63 3.44 638.38 3.25 639.21 3.25C640.04 3.25 640.73 3.43 641.33 3.78C641.93 4.13 642.38 4.57 642.67 5.11V3.41H644.23V12.73H642.67V11C642.36 11.54 641.91 12 641.3 12.35C640.69 12.71 639.99 12.89 639.18 12.89C638.37 12.89 637.6 12.69 636.94 12.28C636.28 11.87 635.74 11.3 635.36 10.56C634.98 9.82 634.78 8.98 634.78 8.04C634.78 7.1 634.97 6.25 635.36 5.53L635.37 5.51ZM642.26 6.19C641.98 5.67 641.59 5.27 641.11 4.99C640.63 4.71 640.1 4.57 639.52 4.57C638.94 4.57 638.41 4.71 637.94 4.98C637.46 5.25 637.08 5.65 636.8 6.17C636.52 6.69 636.37 7.3 636.37 8.01C636.37 8.72 636.51 9.34 636.8 9.87C637.08 10.4 637.46 10.8 637.94 11.08C638.42 11.36 638.94 11.5 639.52 11.5C640.1 11.5 640.63 11.36 641.11 11.08C641.59 10.8 641.97 10.4 642.26 9.87C642.54 9.34 642.68 8.73 642.68 8.03C642.68 7.33 642.54 6.72 642.26 6.19Z" fill="#A8A8A8"/>
<path d="M648.24 12.49C647.67 12.25 647.23 11.91 646.9 11.47C646.57 11.03 646.39 10.53 646.36 9.96999H647.96C648 10.43 648.22 10.81 648.61 11.11C649 11.4 649.51 11.55 650.15 11.55C650.74 11.55 651.2 11.42 651.54 11.16C651.88 10.9 652.05 10.57 652.05 10.17C652.05 9.76999 651.87 9.45999 651.51 9.25999C651.15 9.05999 650.59 8.86999 649.83 8.66999C649.14 8.48999 648.58 8.29999 648.14 8.11999C647.7 7.92999 647.33 7.65999 647.02 7.28999C646.71 6.91999 646.55 6.43999 646.55 5.83999C646.55 5.35999 646.69 4.92999 646.97 4.52999C647.25 4.12999 647.66 3.81999 648.18 3.58999C648.7 3.35999 649.3 3.23999 649.97 3.23999C651 3.23999 651.83 3.49999 652.47 4.01999C653.1 4.53999 653.44 5.25999 653.49 6.15999H651.94C651.91 5.66999 651.71 5.27999 651.35 4.98999C650.99 4.69999 650.51 4.54999 649.91 4.54999C649.36 4.54999 648.91 4.66999 648.58 4.90999C648.25 5.14999 648.09 5.45999 648.09 5.83999C648.09 6.14999 648.19 6.39999 648.39 6.59999C648.59 6.79999 648.84 6.95999 649.14 7.07999C649.44 7.19999 649.86 7.32999 650.39 7.47999C651.06 7.65999 651.6 7.83999 652.02 8.01999C652.44 8.19999 652.8 8.45999 653.1 8.80999C653.4 9.15999 653.56 9.61999 653.57 10.19C653.57 10.7 653.43 11.16 653.15 11.57C652.87 11.98 652.47 12.3 651.95 12.53C651.43 12.76 650.84 12.88 650.17 12.88C649.46 12.88 648.82 12.76 648.25 12.51L648.24 12.49Z" fill="#A8A8A8"/>
<path d="M568.75 53.9C567.98 52.27 566.86 51.01 565.39 50.12C563.92 49.23 562.22 48.78 560.27 48.78C558.32 48.78 556.57 49.23 555.01 50.12C553.45 51.01 552.22 52.29 551.33 53.96C550.44 55.63 549.99 57.55 549.99 59.74C549.99 61.93 550.44 63.85 551.33 65.5C552.22 67.15 553.45 68.43 555.01 69.32C556.57 70.21 558.32 70.66 560.27 70.66C562.99 70.66 565.23 69.85 566.99 68.22C568.75 66.59 569.78 64.39 570.07 61.62H558.95V58.66H573.95V61.46C573.74 63.75 573.02 65.85 571.79 67.76C570.56 69.67 568.95 71.17 566.95 72.28C564.95 73.39 562.72 73.94 560.27 73.94C557.68 73.94 555.32 73.33 553.19 72.12C551.06 70.91 549.37 69.22 548.13 67.06C546.89 64.9 546.27 62.46 546.27 59.74C546.27 57.02 546.89 54.57 548.13 52.4C549.37 50.23 551.06 48.53 553.19 47.32C555.32 46.11 557.68 45.5 560.27 45.5C563.23 45.5 565.85 46.23 568.13 47.7C570.41 49.17 572.07 51.23 573.11 53.9H568.75Z" fill="white"/>
<path d="M595.22 67.5H583.06L580.82 73.7H576.98L587.06 45.98H591.26L601.3 73.7H597.46L595.22 67.5ZM594.18 64.54L589.14 50.46L584.1 64.54H594.18Z" fill="white"/>
<path d="M622.87 45.82V48.78H615.27V73.7H611.63V48.78H603.99V45.82H622.87Z" fill="white"/>
<path d="M632.9 72.16C630.77 70.95 629.08 69.25 627.84 67.08C626.6 64.91 625.98 62.46 625.98 59.74C625.98 57.02 626.6 54.57 627.84 52.4C629.08 50.23 630.77 48.53 632.9 47.32C635.03 46.11 637.39 45.5 639.98 45.5C642.57 45.5 644.97 46.11 647.1 47.32C649.23 48.53 650.91 50.22 652.14 52.38C653.37 54.54 653.98 56.99 653.98 59.74C653.98 62.49 653.37 64.94 652.14 67.1C650.91 69.26 649.23 70.95 647.1 72.16C644.97 73.37 642.59 73.98 639.98 73.98C637.37 73.98 635.03 73.37 632.9 72.16ZM645.25 69.46C646.81 68.55 648.04 67.26 648.93 65.58C649.82 63.9 650.27 61.95 650.27 59.74C650.27 57.53 649.82 55.55 648.93 53.88C648.04 52.21 646.82 50.93 645.27 50.02C643.72 49.11 641.96 48.66 639.99 48.66C638.02 48.66 636.26 49.11 634.71 50.02C633.16 50.93 631.94 52.21 631.05 53.88C630.16 55.55 629.71 57.5 629.71 59.74C629.71 61.98 630.16 63.9 631.05 65.58C631.94 67.26 633.17 68.55 634.73 69.46C636.29 70.37 638.04 70.82 639.99 70.82C641.94 70.82 643.69 70.37 645.25 69.46Z" fill="white"/>
<path d="M554.02 200.95H70.4401C44.9964 200.95 24.3701 221.576 24.3701 247.02V673.2C24.3701 698.644 44.9964 719.27 70.4401 719.27H554.02C579.464 719.27 600.09 698.644 600.09 673.2V247.02C600.09 221.576 579.464 200.95 554.02 200.95Z" fill="#D3D3D3"/>
<path d="M549.4 191.27H65.82C40.3762 191.27 19.75 211.896 19.75 237.34V663.52C19.75 688.964 40.3762 709.59 65.82 709.59H549.4C574.844 709.59 595.47 688.964 595.47 663.52V237.34C595.47 211.896 574.844 191.27 549.4 191.27Z" fill="#8BA1CC"/>
<path d="M43.7303 231.27C66.7606 231.27 85.4303 212.569 85.4303 189.5C85.4303 166.431 66.7606 147.73 43.7303 147.73C20.7 147.73 2.03027 166.431 2.03027 189.5C2.03027 212.569 20.7 231.27 43.7303 231.27Z" fill="#CCA98B" stroke="#F2F2F2"/>
<path d="M43.6902 227.67C66.7205 227.67 85.3902 208.969 85.3902 185.9C85.3902 162.831 66.7205 144.13 43.6902 144.13C20.66 144.13 1.99023 162.831 1.99023 185.9C1.99023 208.969 20.66 227.67 43.6902 227.67Z" fill="white" stroke="#F2F2F2" stroke-width="3"/>
<path d="M44.1404 176.28H31.3704V181.93C31.9104 181.33 32.6804 180.84 33.6604 180.46C34.6404 180.08 35.7104 179.89 36.8504 179.89C38.9004 179.89 40.6004 180.35 41.9504 181.28C43.3004 182.21 44.2904 183.41 44.9204 184.88C45.5504 186.35 45.8605 187.95 45.8605 189.67C45.8605 192.86 44.9605 195.39 43.1605 197.26C41.3605 199.13 38.8204 200.06 35.5504 200.06C33.3704 200.06 31.4705 199.68 29.8605 198.94C28.2505 198.2 27.0104 197.15 26.1404 195.81C25.2704 194.47 24.7904 192.93 24.7104 191.19H31.5405C31.7005 192.04 32.1004 192.74 32.7304 193.3C33.3604 193.86 34.2205 194.14 35.3105 194.14C36.5905 194.14 37.5504 193.73 38.1704 192.91C38.8004 192.09 39.1105 191 39.1105 189.64C39.1105 188.28 38.7805 187.28 38.1305 186.57C37.4805 185.86 36.5205 185.51 35.2705 185.51C34.3405 185.51 33.5805 185.74 32.9804 186.19C32.3804 186.64 31.9805 187.23 31.7905 187.97H25.0405V170.17H44.1505V176.31L44.1404 176.28Z" fill="#8BA1CC"/>
<path d="M49.9306 174.58C50.6306 173.48 51.6106 172.61 52.8806 171.98C54.1506 171.35 55.6006 171.04 57.2406 171.04C58.8806 171.04 60.3306 171.35 61.6006 171.98C62.8706 172.61 63.8506 173.47 64.5506 174.58C65.2506 175.69 65.5906 176.96 65.5906 178.41C65.5906 179.86 65.2406 181.14 64.5306 182.26C63.8206 183.38 62.8306 184.26 61.5606 184.9C60.2906 185.54 58.8406 185.86 57.2006 185.86C55.5606 185.86 54.1206 185.54 52.8606 184.9C51.6006 184.26 50.6306 183.38 49.9306 182.26C49.2306 181.14 48.8906 179.86 48.8906 178.41C48.8906 176.96 49.2406 175.69 49.9306 174.58ZM59.3206 175.95C58.7506 175.38 58.0406 175.09 57.1906 175.09C56.3406 175.09 55.6806 175.38 55.1206 175.95C54.5606 176.52 54.2806 177.36 54.2806 178.45C54.2806 179.54 54.5506 180.33 55.1006 180.91C55.6506 181.49 56.3406 181.77 57.1906 181.77C58.0406 181.77 58.7406 181.48 59.3206 180.89C59.8906 180.3 60.1806 179.49 60.1806 178.46C60.1806 177.37 59.8906 176.54 59.3206 175.96V175.95Z" fill="#8BA1CC"/>
<path d="M105.38 177.45C104.59 178.22 103.38 178.6 101.75 178.6H99.07V184.42H97.25V170.48H101.75C103.32 170.48 104.52 170.86 105.34 171.62C106.16 172.38 106.57 173.36 106.57 174.56C106.57 175.76 106.17 176.68 105.38 177.45ZM103.99 176.44C104.47 176 104.71 175.37 104.71 174.56C104.71 172.84 103.72 171.98 101.75 171.98H99.07V177.1H101.75C102.76 177.1 103.51 176.88 103.99 176.44Z" fill="#8BA1CC"/>
<path d="M108.83 175.95C109.28 175.1 109.91 174.45 110.7 173.98C111.49 173.51 112.38 173.28 113.35 173.28C114.32 173.28 115.14 173.49 115.85 173.9C116.56 174.31 117.08 174.83 117.43 175.46V173.46H119.27V184.42H117.43V182.38C117.07 183.02 116.53 183.55 115.82 183.97C115.11 184.39 114.28 184.6 113.33 184.6C112.38 184.6 111.48 184.36 110.69 183.88C109.9 183.4 109.28 182.73 108.83 181.86C108.38 180.99 108.15 180.01 108.15 178.9C108.15 177.79 108.38 176.8 108.83 175.95ZM116.93 176.76C116.6 176.15 116.15 175.68 115.58 175.35C115.01 175.02 114.39 174.86 113.71 174.86C113.03 174.86 112.41 175.02 111.85 175.34C111.29 175.66 110.84 176.13 110.51 176.74C110.18 177.35 110.01 178.07 110.01 178.9C110.01 179.73 110.18 180.47 110.51 181.09C110.84 181.71 111.29 182.18 111.85 182.51C112.41 182.84 113.03 183 113.71 183C114.39 183 115.01 182.84 115.58 182.51C116.15 182.18 116.6 181.71 116.93 181.09C117.26 180.47 117.43 179.75 117.43 178.92C117.43 178.09 117.26 177.37 116.93 176.76Z" fill="#8BA1CC"/>
<path d="M123.97 184.17C123.3 183.88 122.78 183.48 122.39 182.97C122 182.46 121.79 181.87 121.75 181.2H123.63C123.68 181.75 123.94 182.19 124.4 182.54C124.86 182.89 125.46 183.06 126.21 183.06C126.9 183.06 127.45 182.91 127.85 182.6C128.25 182.29 128.45 181.91 128.45 181.44C128.45 180.97 128.24 180.6 127.81 180.37C127.38 180.14 126.72 179.91 125.83 179.68C125.02 179.47 124.35 179.25 123.84 179.03C123.33 178.81 122.89 178.48 122.52 178.05C122.15 177.62 121.97 177.05 121.97 176.34C121.97 175.78 122.14 175.27 122.47 174.8C122.8 174.33 123.28 173.96 123.89 173.69C124.5 173.42 125.2 173.28 125.99 173.28C127.2 173.28 128.18 173.59 128.93 174.2C129.68 174.81 130.08 175.65 130.13 176.72H128.31C128.27 176.15 128.04 175.69 127.62 175.34C127.2 174.99 126.64 174.82 125.93 174.82C125.28 174.82 124.76 174.96 124.37 175.24C123.98 175.52 123.79 175.89 123.79 176.34C123.79 176.7 123.91 177 124.14 177.23C124.37 177.46 124.67 177.65 125.02 177.79C125.37 177.93 125.86 178.09 126.49 178.26C127.28 178.47 127.92 178.68 128.41 178.89C128.9 179.1 129.33 179.41 129.68 179.82C130.03 180.23 130.22 180.77 130.23 181.44C130.23 182.04 130.06 182.58 129.73 183.06C129.4 183.54 128.93 183.92 128.32 184.19C127.71 184.46 127.02 184.6 126.23 184.6C125.39 184.6 124.64 184.46 123.97 184.17Z" fill="#8BA1CC"/>
<path d="M134.41 184.17C133.74 183.88 133.22 183.48 132.83 182.97C132.44 182.46 132.23 181.87 132.19 181.2H134.07C134.12 181.75 134.38 182.19 134.84 182.54C135.3 182.89 135.9 183.06 136.65 183.06C137.34 183.06 137.89 182.91 138.29 182.6C138.69 182.29 138.89 181.91 138.89 181.44C138.89 180.97 138.68 180.6 138.25 180.37C137.82 180.14 137.16 179.91 136.27 179.68C135.46 179.47 134.79 179.25 134.28 179.03C133.77 178.81 133.33 178.48 132.96 178.05C132.59 177.62 132.41 177.05 132.41 176.34C132.41 175.78 132.58 175.27 132.91 174.8C133.24 174.33 133.72 173.96 134.33 173.69C134.94 173.42 135.64 173.28 136.43 173.28C137.64 173.28 138.62 173.59 139.37 174.2C140.12 174.81 140.52 175.65 140.57 176.72H138.75C138.71 176.15 138.48 175.69 138.06 175.34C137.64 174.99 137.08 174.82 136.37 174.82C135.72 174.82 135.2 174.96 134.81 175.24C134.42 175.52 134.23 175.89 134.23 176.34C134.23 176.7 134.35 177 134.58 177.23C134.81 177.46 135.11 177.65 135.46 177.79C135.81 177.93 136.3 178.09 136.93 178.26C137.72 178.47 138.36 178.68 138.85 178.89C139.34 179.1 139.77 179.41 140.12 179.82C140.47 180.23 140.66 180.77 140.67 181.44C140.67 182.04 140.5 182.58 140.17 183.06C139.84 183.54 139.37 183.92 138.76 184.19C138.15 184.46 137.46 184.6 136.67 184.6C135.83 184.6 135.08 184.46 134.41 184.17Z" fill="#8BA1CC"/>
<path d="M145.22 183.9C144.39 183.43 143.73 182.77 143.26 181.91C142.79 181.05 142.55 180.05 142.55 178.92C142.55 177.79 142.79 176.81 143.28 175.95C143.77 175.09 144.43 174.43 145.27 173.97C146.11 173.51 147.05 173.28 148.09 173.28C149.13 173.28 150.07 173.51 150.91 173.97C151.75 174.43 152.41 175.09 152.9 175.94C153.39 176.79 153.63 177.79 153.63 178.92C153.63 180.05 153.38 181.05 152.88 181.91C152.38 182.77 151.7 183.43 150.85 183.9C150 184.37 149.05 184.6 148.01 184.6C146.97 184.6 146.05 184.37 145.22 183.9ZM149.85 182.54C150.42 182.23 150.89 181.77 151.24 181.16C151.59 180.55 151.77 179.8 151.77 178.92C151.77 178.04 151.6 177.29 151.25 176.68C150.9 176.07 150.45 175.61 149.89 175.31C149.33 175.01 148.72 174.86 148.07 174.86C147.42 174.86 146.79 175.01 146.24 175.31C145.69 175.61 145.24 176.07 144.91 176.68C144.58 177.29 144.41 178.04 144.41 178.92C144.41 179.8 144.57 180.57 144.9 181.18C145.23 181.79 145.66 182.25 146.21 182.55C146.76 182.85 147.36 183 148.01 183C148.66 183 149.28 182.85 149.85 182.54Z" fill="#8BA1CC"/>
<path d="M1162.02 200.95H678.44C652.996 200.95 632.37 221.576 632.37 247.02V673.2C632.37 698.644 652.996 719.27 678.44 719.27H1162.02C1187.46 719.27 1208.09 698.644 1208.09 673.2V247.02C1208.09 221.576 1187.46 200.95 1162.02 200.95Z" fill="#D3D3D3"/>
<path d="M1157.6 191.27H674.02C648.576 191.27 627.95 211.896 627.95 237.34V663.52C627.95 688.964 648.576 709.59 674.02 709.59H1157.6C1183.04 709.59 1203.67 688.964 1203.67 663.52V237.34C1203.67 211.896 1183.04 191.27 1157.6 191.27Z" fill="#8BA1CC"/>
<path d="M655.73 231.27C678.76 231.27 697.43 212.569 697.43 189.5C697.43 166.431 678.76 147.73 655.73 147.73C632.7 147.73 614.03 166.431 614.03 189.5C614.03 212.569 632.7 231.27 655.73 231.27Z" fill="#CCA98B" stroke="#F2F2F2"/>
<path d="M655.69 227.67C678.721 227.67 697.39 208.969 697.39 185.9C697.39 162.831 678.721 144.13 655.69 144.13C632.66 144.13 613.99 162.831 613.99 185.9C613.99 208.969 632.66 227.67 655.69 227.67Z" fill="white" stroke="#F2F2F2" stroke-width="3"/>
<path d="M649 175.97C648.45 175.47 647.68 175.21 646.67 175.21C645.11 175.21 644 175.88 643.31 177.24C642.63 178.59 642.27 180.73 642.25 183.65C642.85 182.69 643.72 181.94 644.85 181.4C645.98 180.85 647.23 180.58 648.59 180.58C651.26 180.58 653.41 181.43 655.04 183.12C656.66 184.81 657.47 187.17 657.47 190.2C657.47 192.19 657.07 193.94 656.26 195.44C655.46 196.94 654.28 198.11 652.74 198.96C651.2 199.81 649.38 200.23 647.28 200.23C643.08 200.23 640.16 198.91 638.52 196.28C636.88 193.65 636.06 189.86 636.06 184.92C636.06 179.74 636.93 175.88 638.66 173.36C640.39 170.84 643.17 169.57 646.99 169.57C649.04 169.57 650.76 169.97 652.17 170.78C653.58 171.59 654.64 172.64 655.36 173.95C656.08 175.26 656.51 176.69 656.65 178.25H650.14C649.92 177.24 649.54 176.48 648.99 175.98L649 175.97ZM643.99 187.15C643.21 187.85 642.82 188.83 642.82 190.12C642.82 191.41 643.18 192.45 643.9 193.19C644.62 193.93 645.65 194.29 646.99 194.29C648.19 194.29 649.14 193.93 649.83 193.21C650.53 192.49 650.87 191.5 650.87 190.24C650.87 188.98 650.53 187.95 649.85 187.21C649.17 186.47 648.18 186.11 646.9 186.11C645.73 186.11 644.75 186.46 643.97 187.15H643.99Z" fill="#8BA1CC"/>
<path d="M661.66 174.58C662.36 173.48 663.34 172.61 664.61 171.98C665.88 171.35 667.33 171.04 668.97 171.04C670.61 171.04 672.06 171.35 673.33 171.98C674.6 172.61 675.58 173.47 676.28 174.58C676.98 175.69 677.32 176.96 677.32 178.41C677.32 179.86 676.97 181.14 676.26 182.26C675.55 183.38 674.56 184.26 673.29 184.9C672.02 185.54 670.57 185.86 668.93 185.86C667.29 185.86 665.85 185.54 664.59 184.9C663.33 184.26 662.36 183.38 661.66 182.26C660.96 181.14 660.62 179.86 660.62 178.41C660.62 176.96 660.97 175.69 661.66 174.58ZM671.06 175.95C670.49 175.38 669.78 175.09 668.93 175.09C668.08 175.09 667.42 175.38 666.86 175.95C666.3 176.52 666.02 177.36 666.02 178.45C666.02 179.54 666.29 180.33 666.84 180.91C667.39 181.49 668.08 181.77 668.93 181.77C669.78 181.77 670.48 181.48 671.06 180.89C671.63 180.3 671.92 179.49 671.92 178.46C671.92 177.37 671.63 176.54 671.06 175.96V175.95Z" fill="#8BA1CC"/>
<path d="M717.38 177.45C716.59 178.22 715.38 178.6 713.75 178.6H711.07V184.42H709.25V170.48H713.75C715.32 170.48 716.52 170.86 717.34 171.62C718.16 172.38 718.57 173.36 718.57 174.56C718.57 175.76 718.17 176.68 717.38 177.45ZM715.99 176.44C716.47 176 716.71 175.37 716.71 174.56C716.71 172.84 715.72 171.98 713.75 171.98H711.07V177.1H713.75C714.76 177.1 715.51 176.88 715.99 176.44Z" fill="#8BA1CC"/>
<path d="M720.83 175.95C721.28 175.1 721.91 174.45 722.7 173.98C723.49 173.51 724.38 173.28 725.35 173.28C726.32 173.28 727.14 173.49 727.85 173.9C728.56 174.31 729.08 174.83 729.43 175.46V173.46H731.27V184.42H729.43V182.38C729.07 183.02 728.53 183.55 727.82 183.97C727.11 184.39 726.28 184.6 725.33 184.6C724.38 184.6 723.48 184.36 722.69 183.88C721.9 183.4 721.28 182.73 720.83 181.86C720.38 180.99 720.15 180.01 720.15 178.9C720.15 177.79 720.38 176.8 720.83 175.95ZM728.93 176.76C728.6 176.15 728.15 175.68 727.58 175.35C727.01 175.02 726.39 174.86 725.71 174.86C725.03 174.86 724.41 175.02 723.85 175.34C723.29 175.66 722.84 176.13 722.51 176.74C722.18 177.35 722.01 178.07 722.01 178.9C722.01 179.73 722.18 180.47 722.51 181.09C722.84 181.71 723.29 182.18 723.85 182.51C724.41 182.84 725.03 183 725.71 183C726.39 183 727.01 182.84 727.58 182.51C728.15 182.18 728.6 181.71 728.93 181.09C729.26 180.47 729.43 179.75 729.43 178.92C729.43 178.09 729.26 177.37 728.93 176.76Z" fill="#8BA1CC"/>
<path d="M735.97 184.17C735.3 183.88 734.78 183.48 734.39 182.97C734 182.46 733.79 181.87 733.75 181.2H735.63C735.68 181.75 735.94 182.19 736.4 182.54C736.86 182.89 737.46 183.06 738.21 183.06C738.9 183.06 739.45 182.91 739.85 182.6C740.25 182.29 740.45 181.91 740.45 181.44C740.45 180.97 740.24 180.6 739.81 180.37C739.38 180.14 738.72 179.91 737.83 179.68C737.02 179.47 736.35 179.25 735.84 179.03C735.33 178.81 734.89 178.48 734.52 178.05C734.15 177.62 733.97 177.05 733.97 176.34C733.97 175.78 734.14 175.27 734.47 174.8C734.8 174.33 735.28 173.96 735.89 173.69C736.5 173.42 737.2 173.28 737.99 173.28C739.2 173.28 740.18 173.59 740.93 174.2C741.68 174.81 742.08 175.65 742.13 176.72H740.31C740.27 176.15 740.04 175.69 739.62 175.34C739.2 174.99 738.64 174.82 737.93 174.82C737.28 174.82 736.76 174.96 736.37 175.24C735.98 175.52 735.79 175.89 735.79 176.34C735.79 176.7 735.91 177 736.14 177.23C736.37 177.46 736.67 177.65 737.02 177.79C737.37 177.93 737.86 178.09 738.49 178.26C739.28 178.47 739.92 178.68 740.41 178.89C740.9 179.1 741.33 179.41 741.68 179.82C742.03 180.23 742.22 180.77 742.23 181.44C742.23 182.04 742.06 182.58 741.73 183.06C741.4 183.54 740.93 183.92 740.32 184.19C739.71 184.46 739.02 184.6 738.23 184.6C737.39 184.6 736.64 184.46 735.97 184.17Z" fill="#8BA1CC"/>
<path d="M746.41 184.17C745.74 183.88 745.22 183.48 744.83 182.97C744.44 182.46 744.23 181.87 744.19 181.2H746.07C746.12 181.75 746.38 182.19 746.84 182.54C747.3 182.89 747.9 183.06 748.65 183.06C749.34 183.06 749.89 182.91 750.29 182.6C750.69 182.29 750.89 181.91 750.89 181.44C750.89 180.97 750.68 180.6 750.25 180.37C749.82 180.14 749.16 179.91 748.27 179.68C747.46 179.47 746.79 179.25 746.28 179.03C745.77 178.81 745.33 178.48 744.96 178.05C744.59 177.62 744.41 177.05 744.41 176.34C744.41 175.78 744.58 175.27 744.91 174.8C745.24 174.33 745.72 173.96 746.33 173.69C746.94 173.42 747.64 173.28 748.43 173.28C749.64 173.28 750.62 173.59 751.37 174.2C752.12 174.81 752.52 175.65 752.57 176.72H750.75C750.71 176.15 750.48 175.69 750.06 175.34C749.64 174.99 749.08 174.82 748.37 174.82C747.72 174.82 747.2 174.96 746.81 175.24C746.42 175.52 746.23 175.89 746.23 176.34C746.23 176.7 746.35 177 746.58 177.23C746.81 177.46 747.11 177.65 747.46 177.79C747.81 177.93 748.3 178.09 748.93 178.26C749.72 178.47 750.36 178.68 750.85 178.89C751.34 179.1 751.77 179.41 752.12 179.82C752.47 180.23 752.66 180.77 752.67 181.44C752.67 182.04 752.5 182.58 752.17 183.06C751.84 183.54 751.37 183.92 750.76 184.19C750.15 184.46 749.46 184.6 748.67 184.6C747.83 184.6 747.08 184.46 746.41 184.17Z" fill="#8BA1CC"/>
<path d="M757.22 183.9C756.39 183.43 755.73 182.77 755.26 181.91C754.79 181.05 754.55 180.05 754.55 178.92C754.55 177.79 754.79 176.81 755.28 175.95C755.77 175.09 756.43 174.43 757.27 173.97C758.11 173.51 759.05 173.28 760.09 173.28C761.13 173.28 762.07 173.51 762.91 173.97C763.75 174.43 764.41 175.09 764.9 175.94C765.39 176.79 765.63 177.79 765.63 178.92C765.63 180.05 765.38 181.05 764.88 181.91C764.38 182.77 763.7 183.43 762.85 183.9C762 184.37 761.05 184.6 760.01 184.6C758.97 184.6 758.05 184.37 757.22 183.9ZM761.85 182.54C762.42 182.23 762.89 181.77 763.24 181.16C763.59 180.55 763.77 179.8 763.77 178.92C763.77 178.04 763.6 177.29 763.25 176.68C762.9 176.07 762.45 175.61 761.89 175.31C761.33 175.01 760.72 174.86 760.07 174.86C759.42 174.86 758.79 175.01 758.24 175.31C757.69 175.61 757.24 176.07 756.91 176.68C756.58 177.29 756.41 178.04 756.41 178.92C756.41 179.8 756.57 180.57 756.9 181.18C757.23 181.79 757.66 182.25 758.21 182.55C758.76 182.85 759.36 183 760.01 183C760.66 183 761.28 182.85 761.85 182.54Z" fill="#8BA1CC"/>
<path d="M150.72 640.12C151.78 640.66 152.59 641.43 153.15 642.43C153.71 643.43 154 644.61 154 645.96C154 647.31 153.72 648.49 153.15 649.48C152.59 650.47 151.77 651.23 150.72 651.76C149.66 652.29 148.41 652.55 146.97 652.55H142.85V639.31H146.97C148.42 639.31 149.67 639.58 150.72 640.12ZM150.88 649.78C151.78 648.87 152.23 647.6 152.23 645.97C152.23 644.34 151.78 643.04 150.87 642.11C149.97 641.19 148.66 640.72 146.97 640.72H144.58V651.13H146.97C148.68 651.13 149.99 650.68 150.88 649.77V649.78Z" fill="#424242"/>
<path d="M158.17 652.07C157.38 651.63 156.76 651 156.31 650.18C155.86 649.36 155.64 648.42 155.64 647.34C155.64 646.26 155.87 645.34 156.33 644.52C156.79 643.7 157.42 643.08 158.22 642.64C159.02 642.2 159.91 641.98 160.9 641.98C161.89 641.98 162.78 642.2 163.58 642.64C164.38 643.08 165.01 643.7 165.47 644.51C165.93 645.32 166.16 646.26 166.16 647.34C166.16 648.42 165.92 649.36 165.45 650.18C164.97 651 164.33 651.63 163.52 652.07C162.71 652.51 161.81 652.74 160.82 652.74C159.83 652.74 158.96 652.52 158.17 652.07ZM162.57 650.77C163.11 650.48 163.55 650.04 163.89 649.46C164.23 648.88 164.39 648.17 164.39 647.33C164.39 646.49 164.22 645.78 163.9 645.2C163.57 644.62 163.14 644.18 162.61 643.9C162.08 643.61 161.5 643.47 160.88 643.47C160.26 643.47 159.67 643.61 159.14 643.9C158.61 644.19 158.19 644.62 157.88 645.2C157.56 645.78 157.41 646.49 157.41 647.33C157.41 648.17 157.56 648.89 157.87 649.48C158.18 650.06 158.59 650.5 159.11 650.78C159.63 651.06 160.2 651.21 160.82 651.21C161.44 651.21 162.02 651.06 162.57 650.77Z" fill="#424242"/>
<path d="M171.73 642.57C172.41 642.18 173.19 641.98 174.07 641.98C175.01 641.98 175.85 642.2 176.6 642.65C177.35 643.1 177.94 643.72 178.37 644.52C178.8 645.32 179.02 646.26 179.02 647.32C179.02 648.38 178.8 649.31 178.37 650.13C177.94 650.95 177.35 651.59 176.59 652.05C175.83 652.51 175 652.73 174.07 652.73C173.14 652.73 172.38 652.53 171.7 652.14C171.02 651.75 170.51 651.25 170.17 650.64V652.56H168.44V638.5H170.17V644.09C170.53 643.47 171.05 642.96 171.73 642.57ZM176.76 645.26C176.44 644.68 176.02 644.23 175.48 643.93C174.94 643.63 174.35 643.47 173.7 643.47C173.05 643.47 172.48 643.63 171.94 643.94C171.4 644.25 170.97 644.7 170.65 645.29C170.33 645.88 170.17 646.56 170.17 647.33C170.17 648.1 170.33 648.8 170.65 649.39C170.97 649.98 171.4 650.43 171.94 650.74C172.48 651.05 173.06 651.21 173.7 651.21C174.34 651.21 174.94 651.05 175.48 650.74C176.02 650.43 176.44 649.98 176.76 649.39C177.08 648.8 177.23 648.11 177.23 647.31C177.23 646.51 177.07 645.84 176.76 645.26Z" fill="#424242"/>
<path d="M184.31 642.45C184.87 642.12 185.56 641.96 186.37 641.96V643.75H185.91C183.97 643.75 183 644.8 183 646.9V652.56H181.27V642.15H183V643.84C183.3 643.24 183.74 642.78 184.3 642.45H184.31Z" fill="#424242"/>
<path d="M197.81 648H189.49C189.55 649.03 189.91 649.83 190.54 650.4C191.18 650.98 191.96 651.26 192.87 651.26C193.62 651.26 194.24 651.09 194.74 650.74C195.24 650.39 195.59 649.93 195.79 649.34H197.65C197.37 650.34 196.81 651.15 195.98 651.78C195.15 652.41 194.1 652.72 192.86 652.72C191.87 652.72 190.99 652.5 190.21 652.05C189.43 651.6 188.82 650.98 188.38 650.16C187.94 649.34 187.72 648.4 187.72 647.32C187.72 646.24 187.93 645.3 188.36 644.49C188.79 643.68 189.4 643.06 190.17 642.62C190.95 642.18 191.85 641.96 192.86 641.96C193.87 641.96 194.72 642.18 195.48 642.61C196.24 643.04 196.83 643.63 197.24 644.39C197.65 645.15 197.86 646 197.86 646.94C197.86 647.27 197.84 647.62 197.8 647.99L197.81 648ZM195.65 644.89C195.36 644.41 194.96 644.05 194.46 643.81C193.96 643.56 193.41 643.44 192.8 643.44C191.92 643.44 191.18 643.72 190.57 644.28C189.95 644.84 189.6 645.61 189.52 646.6H196.09C196.09 645.94 195.94 645.37 195.65 644.9V644.89Z" fill="#424242"/>
<path d="M205.22 644.51C205.65 643.71 206.24 643.08 207 642.64C207.76 642.2 208.59 641.97 209.52 641.97C210.45 641.97 211.23 642.17 211.9 642.56C212.57 642.95 213.07 643.45 213.4 644.04V642.14H215.15V652.55H213.4V650.61C213.06 651.22 212.55 651.72 211.87 652.12C211.19 652.52 210.4 652.72 209.5 652.72C208.6 652.72 207.74 652.49 206.99 652.04C206.24 651.58 205.65 650.94 205.22 650.12C204.79 649.3 204.57 648.36 204.57 647.31C204.57 646.26 204.78 645.31 205.22 644.51ZM212.92 645.28C212.6 644.7 212.18 644.25 211.64 643.94C211.1 643.63 210.51 643.47 209.86 643.47C209.21 643.47 208.63 643.62 208.09 643.93C207.56 644.23 207.13 644.68 206.82 645.26C206.51 645.84 206.35 646.53 206.35 647.31C206.35 648.09 206.51 648.8 206.82 649.39C207.14 649.98 207.56 650.43 208.09 650.74C208.62 651.05 209.21 651.21 209.86 651.21C210.51 651.21 211.1 651.05 211.64 650.74C212.18 650.43 212.6 649.98 212.92 649.39C213.24 648.8 213.39 648.11 213.39 647.33C213.39 646.55 213.23 645.86 212.92 645.28Z" fill="#424242"/>
<path d="M226.4 642.58C227.08 642.18 227.86 641.98 228.77 641.98C229.68 641.98 230.53 642.2 231.29 642.65C232.05 643.1 232.64 643.72 233.07 644.52C233.5 645.32 233.72 646.26 233.72 647.32C233.72 648.38 233.51 649.31 233.07 650.13C232.64 650.95 232.05 651.59 231.29 652.05C230.53 652.51 229.7 652.73 228.77 652.73C227.84 652.73 227.1 652.53 226.42 652.13C225.74 651.73 225.23 651.23 224.87 650.64V657.5H223.14V642.15H224.87V644.07C225.21 643.48 225.72 642.98 226.4 642.58ZM231.46 645.26C231.14 644.68 230.72 644.23 230.18 643.93C229.64 643.63 229.05 643.47 228.4 643.47C227.75 643.47 227.18 643.63 226.64 643.94C226.1 644.25 225.67 644.7 225.35 645.29C225.03 645.88 224.87 646.56 224.87 647.33C224.87 648.1 225.03 648.8 225.35 649.39C225.67 649.98 226.1 650.43 226.64 650.74C227.18 651.05 227.76 651.21 228.4 651.21C229.04 651.21 229.64 651.05 230.18 650.74C230.72 650.43 231.14 649.98 231.46 649.39C231.78 648.8 231.93 648.11 231.93 647.31C231.93 646.51 231.77 645.84 231.46 645.26Z" fill="#424242"/>
<path d="M237.88 652.07C237.09 651.63 236.47 651 236.02 650.18C235.57 649.36 235.35 648.42 235.35 647.34C235.35 646.26 235.58 645.34 236.04 644.52C236.5 643.7 237.13 643.08 237.93 642.64C238.73 642.2 239.62 641.98 240.61 641.98C241.6 641.98 242.49 642.2 243.29 642.64C244.09 643.08 244.72 643.7 245.18 644.51C245.64 645.32 245.87 646.26 245.87 647.34C245.87 648.42 245.63 649.36 245.16 650.18C244.69 651 244.04 651.63 243.23 652.07C242.42 652.51 241.52 652.74 240.53 652.74C239.54 652.74 238.67 652.52 237.88 652.07ZM242.27 650.77C242.81 650.48 243.25 650.04 243.59 649.46C243.93 648.88 244.09 648.17 244.09 647.33C244.09 646.49 243.93 645.78 243.6 645.2C243.27 644.62 242.84 644.18 242.31 643.9C241.78 643.61 241.2 643.47 240.58 643.47C239.96 643.47 239.37 643.61 238.84 643.9C238.31 644.19 237.89 644.62 237.58 645.2C237.26 645.78 237.11 646.49 237.11 647.33C237.11 648.17 237.27 648.89 237.58 649.48C237.89 650.06 238.3 650.5 238.82 650.78C239.34 651.06 239.91 651.21 240.53 651.21C241.15 651.21 241.73 651.06 242.28 650.77H242.27Z" fill="#424242"/>
<path d="M256.3 643.11C257.09 643.88 257.48 644.98 257.48 646.43V652.57H255.77V646.68C255.77 645.64 255.51 644.85 254.99 644.3C254.47 643.75 253.76 643.47 252.86 643.47C251.96 643.47 251.22 643.75 250.68 644.32C250.14 644.89 249.87 645.72 249.87 646.81V652.57H248.14V642.16H249.87V643.64C250.21 643.11 250.68 642.7 251.27 642.4C251.86 642.11 252.51 641.96 253.22 641.96C254.49 641.96 255.51 642.34 256.3 643.11Z" fill="#424242"/>
<path d="M262.41 643.57V649.71C262.41 650.22 262.52 650.57 262.73 650.78C262.95 650.99 263.32 651.09 263.85 651.09H265.12V652.55H263.56C262.6 652.55 261.87 652.33 261.39 651.88C260.91 651.44 260.67 650.71 260.67 649.7V643.56H259.32V642.14H260.67V639.52H262.4V642.14H265.12V643.56H262.4L262.41 643.57Z" fill="#424242"/>
<path d="M267.22 644.51C267.65 643.71 268.24 643.08 269 642.64C269.76 642.2 270.59 641.97 271.52 641.97C272.45 641.97 273.22 642.17 273.9 642.56C274.58 642.95 275.07 643.45 275.4 644.04V642.14H277.15V652.55H275.4V650.61C275.06 651.22 274.55 651.72 273.87 652.12C273.19 652.52 272.41 652.72 271.5 652.72C270.59 652.72 269.74 652.49 268.99 652.04C268.24 651.59 267.65 650.94 267.22 650.12C266.79 649.3 266.58 648.36 266.58 647.31C266.58 646.26 266.79 645.31 267.22 644.51ZM274.92 645.28C274.6 644.7 274.18 644.25 273.64 643.94C273.1 643.63 272.51 643.47 271.86 643.47C271.21 643.47 270.63 643.62 270.09 643.93C269.56 644.23 269.13 644.68 268.82 645.26C268.51 645.84 268.35 646.53 268.35 647.31C268.35 648.09 268.51 648.8 268.82 649.39C269.14 649.98 269.56 650.43 270.09 650.74C270.62 651.05 271.21 651.21 271.86 651.21C272.51 651.21 273.1 651.05 273.64 650.74C274.18 650.43 274.6 649.98 274.92 649.39C275.24 648.8 275.39 648.11 275.39 647.33C275.39 646.55 275.23 645.86 274.92 645.28Z" fill="#424242"/>
<path d="M286.68 652.32C286.05 652.05 285.55 651.67 285.18 651.18C284.81 650.69 284.61 650.13 284.57 649.5H286.36C286.41 650.02 286.65 650.44 287.09 650.77C287.53 651.1 288.1 651.26 288.81 651.26C289.47 651.26 289.99 651.11 290.37 650.82C290.75 650.53 290.94 650.16 290.94 649.72C290.94 649.28 290.74 648.93 290.33 648.7C289.92 648.48 289.3 648.26 288.45 648.04C287.68 647.84 287.05 647.63 286.56 647.42C286.07 647.21 285.65 646.9 285.3 646.49C284.95 646.08 284.78 645.54 284.78 644.87C284.78 644.34 284.94 643.85 285.25 643.41C285.56 642.97 286.02 642.62 286.6 642.36C287.18 642.1 287.85 641.97 288.59 641.97C289.74 641.97 290.67 642.26 291.38 642.84C292.09 643.42 292.47 644.22 292.52 645.23H290.79C290.75 644.69 290.53 644.25 290.13 643.92C289.73 643.59 289.2 643.43 288.52 643.43C287.9 643.43 287.4 643.56 287.04 643.83C286.67 644.1 286.49 644.44 286.49 644.87C286.49 645.21 286.6 645.49 286.82 645.72C287.04 645.94 287.32 646.12 287.66 646.25C288 646.38 288.46 646.53 289.06 646.7C289.81 646.9 290.41 647.1 290.88 647.3C291.35 647.5 291.75 647.79 292.09 648.18C292.43 648.57 292.6 649.09 292.61 649.72C292.61 650.29 292.45 650.8 292.13 651.26C291.81 651.72 291.37 652.07 290.79 652.33C290.21 652.59 289.55 652.72 288.8 652.72C288 652.72 287.29 652.58 286.65 652.31L286.68 652.32Z" fill="#424242"/>
<path d="M304.29 642.15V652.56H302.56V651.02C302.23 651.55 301.77 651.97 301.18 652.26C300.59 652.56 299.94 652.71 299.23 652.71C298.42 652.71 297.69 652.54 297.04 652.21C296.39 651.88 295.88 651.37 295.51 650.7C295.14 650.03 294.95 649.21 294.95 648.25V642.15H296.66V648.02C296.66 649.05 296.92 649.83 297.44 650.39C297.96 650.94 298.67 651.22 299.57 651.22C300.47 651.22 301.22 650.93 301.76 650.36C302.29 649.79 302.56 648.96 302.56 647.87V642.15H304.29Z" fill="#424242"/>
<path d="M310.47 642.58C311.15 642.18 311.93 641.98 312.84 641.98C313.75 641.98 314.6 642.2 315.36 642.65C316.12 643.1 316.71 643.72 317.14 644.52C317.57 645.32 317.79 646.26 317.79 647.32C317.79 648.38 317.58 649.31 317.14 650.13C316.71 650.95 316.12 651.59 315.36 652.05C314.6 652.51 313.77 652.73 312.84 652.73C311.91 652.73 311.17 652.53 310.49 652.13C309.81 651.73 309.3 651.23 308.94 650.64V657.5H307.21V642.15H308.94V644.07C309.28 643.48 309.79 642.98 310.47 642.58ZM315.54 645.26C315.22 644.68 314.8 644.23 314.26 643.93C313.72 643.63 313.13 643.47 312.48 643.47C311.83 643.47 311.26 643.63 310.72 643.94C310.18 644.25 309.75 644.7 309.43 645.29C309.11 645.88 308.95 646.56 308.95 647.33C308.95 648.1 309.11 648.8 309.43 649.39C309.75 649.98 310.18 650.43 310.72 650.74C311.26 651.05 311.84 651.21 312.48 651.21C313.12 651.21 313.72 651.05 314.26 650.74C314.8 650.43 315.22 649.98 315.54 649.39C315.86 648.8 316.01 648.11 316.01 647.31C316.01 646.51 315.85 645.84 315.54 645.26Z" fill="#424242"/>
<path d="M329.5 648H321.18C321.24 649.03 321.59 649.83 322.23 650.4C322.87 650.98 323.64 651.26 324.56 651.26C325.31 651.26 325.93 651.09 326.43 650.74C326.93 650.39 327.28 649.93 327.48 649.34H329.34C329.06 650.34 328.5 651.15 327.67 651.78C326.84 652.41 325.79 652.72 324.55 652.72C323.56 652.72 322.68 652.5 321.9 652.05C321.12 651.6 320.51 650.98 320.07 650.16C319.62 649.34 319.4 648.4 319.4 647.32C319.4 646.24 319.61 645.3 320.05 644.49C320.48 643.68 321.09 643.06 321.86 642.62C322.64 642.18 323.53 641.96 324.55 641.96C325.57 641.96 326.41 642.18 327.17 642.61C327.93 643.04 328.52 643.63 328.93 644.39C329.34 645.14 329.55 646 329.55 646.94C329.55 647.27 329.53 647.62 329.49 647.99L329.5 648ZM327.34 644.89C327.05 644.41 326.65 644.05 326.15 643.81C325.65 643.56 325.1 643.44 324.49 643.44C323.62 643.44 322.87 643.72 322.26 644.28C321.65 644.84 321.3 645.61 321.21 646.6H327.78C327.78 645.94 327.64 645.37 327.34 644.9V644.89Z" fill="#424242"/>
<path d="M334.87 642.45C335.43 642.12 336.12 641.96 336.93 641.96V643.75H336.47C334.53 643.75 333.56 644.8 333.56 646.9V652.56H331.83V642.15H333.56V643.84C333.86 643.24 334.3 642.78 334.86 642.45H334.87Z" fill="#424242"/>
<path d="M338.98 640.11C338.75 639.88 338.64 639.6 338.64 639.27C338.64 638.94 338.76 638.66 338.98 638.43C339.21 638.2 339.49 638.09 339.82 638.09C340.15 638.09 340.4 638.2 340.63 638.43C340.85 638.66 340.96 638.94 340.96 639.27C340.96 639.6 340.85 639.88 340.63 640.11C340.41 640.34 340.14 640.45 339.82 640.45C339.5 640.45 339.21 640.34 338.98 640.11ZM340.66 642.15V652.56H338.93V642.15H340.66Z" fill="#424242"/>
<path d="M345.49 652.07C344.7 651.63 344.08 651 343.63 650.18C343.18 649.36 342.96 648.42 342.96 647.34C342.96 646.26 343.19 645.34 343.65 644.52C344.11 643.7 344.74 643.08 345.54 642.64C346.34 642.2 347.23 641.98 348.22 641.98C349.21 641.98 350.1 642.2 350.9 642.64C351.7 643.08 352.33 643.7 352.79 644.51C353.25 645.32 353.48 646.26 353.48 647.34C353.48 648.42 353.24 649.36 352.77 650.18C352.3 651 351.65 651.63 350.84 652.07C350.03 652.51 349.13 652.74 348.14 652.74C347.15 652.74 346.28 652.52 345.49 652.07ZM349.89 650.77C350.43 650.48 350.87 650.04 351.21 649.46C351.55 648.88 351.71 648.17 351.71 647.33C351.71 646.49 351.55 645.78 351.22 645.2C350.89 644.62 350.46 644.18 349.93 643.9C349.4 643.61 348.82 643.47 348.2 643.47C347.58 643.47 346.99 643.61 346.46 643.9C345.93 644.19 345.51 644.62 345.2 645.2C344.88 645.78 344.73 646.49 344.73 647.33C344.73 648.17 344.89 648.89 345.2 649.48C345.51 650.06 345.92 650.5 346.44 650.78C346.96 651.06 347.53 651.21 348.15 651.21C348.77 651.21 349.35 651.06 349.9 650.77H349.89Z" fill="#424242"/>
<path d="M358.79 642.45C359.35 642.12 360.04 641.96 360.85 641.96V643.75H360.39C358.45 643.75 357.48 644.8 357.48 646.9V652.56H355.75V642.15H357.48V643.84C357.78 643.24 358.22 642.78 358.78 642.45H358.79Z" fill="#424242"/>
<path d="M371.18 642.58C371.86 642.18 372.65 641.98 373.55 641.98C374.45 641.98 375.31 642.2 376.07 642.65C376.83 643.1 377.42 643.72 377.85 644.52C378.28 645.32 378.5 646.26 378.5 647.32C378.5 648.38 378.28 649.31 377.85 650.13C377.42 650.95 376.83 651.59 376.07 652.05C375.31 652.51 374.48 652.73 373.55 652.73C372.62 652.73 371.88 652.53 371.2 652.13C370.52 651.73 370.01 651.23 369.65 650.64V657.5H367.92V642.15H369.65V644.07C369.99 643.48 370.5 642.98 371.18 642.58ZM376.24 645.26C375.92 644.68 375.5 644.23 374.96 643.93C374.42 643.63 373.83 643.47 373.18 643.47C372.53 643.47 371.96 643.63 371.42 643.94C370.88 644.25 370.45 644.7 370.13 645.29C369.81 645.88 369.65 646.56 369.65 647.33C369.65 648.1 369.81 648.8 370.13 649.39C370.45 649.98 370.88 650.43 371.42 650.74C371.96 651.05 372.54 651.21 373.18 651.21C373.82 651.21 374.42 651.05 374.96 650.74C375.5 650.43 375.92 649.98 376.24 649.39C376.56 648.8 376.71 648.11 376.71 647.31C376.71 646.51 376.55 645.84 376.24 645.26Z" fill="#424242"/>
<path d="M380.76 644.51C381.19 643.71 381.78 643.08 382.54 642.64C383.3 642.2 384.13 641.97 385.06 641.97C385.99 641.97 386.77 642.17 387.44 642.56C388.11 642.95 388.61 643.45 388.94 644.04V642.14H390.69V652.55H388.94V650.61C388.6 651.22 388.09 651.72 387.41 652.12C386.73 652.52 385.94 652.72 385.04 652.72C384.14 652.72 383.28 652.49 382.53 652.04C381.78 651.58 381.19 650.94 380.76 650.12C380.33 649.3 380.11 648.36 380.11 647.31C380.11 646.26 380.32 645.31 380.76 644.51ZM388.46 645.28C388.14 644.7 387.72 644.25 387.18 643.94C386.64 643.63 386.05 643.47 385.4 643.47C384.75 643.47 384.17 643.62 383.63 643.93C383.1 644.23 382.67 644.68 382.36 645.26C382.05 645.84 381.89 646.53 381.89 647.31C381.89 648.09 382.05 648.8 382.36 649.39C382.68 649.98 383.1 650.43 383.63 650.74C384.16 651.05 384.75 651.21 385.4 651.21C386.05 651.21 386.64 651.05 387.18 650.74C387.72 650.43 388.14 649.98 388.46 649.39C388.78 648.8 388.93 648.11 388.93 647.33C388.93 646.55 388.77 645.86 388.46 645.28Z" fill="#424242"/>
<path d="M396.64 642.45C397.2 642.12 397.89 641.96 398.7 641.96V643.75H398.24C396.3 643.75 395.33 644.8 395.33 646.9V652.56H393.6V642.15H395.33V643.84C395.63 643.24 396.07 642.78 396.63 642.45H396.64Z" fill="#424242"/>
<path d="M400.69 644.51C401.12 643.71 401.71 643.08 402.47 642.64C403.23 642.2 404.06 641.97 404.99 641.97C405.92 641.97 406.69 642.17 407.37 642.56C408.05 642.95 408.54 643.45 408.87 644.04V642.14H410.62V652.55H408.87V650.61C408.53 651.22 408.02 651.72 407.34 652.12C406.66 652.52 405.88 652.72 404.97 652.72C404.06 652.72 403.21 652.49 402.46 652.04C401.71 651.59 401.12 650.94 400.69 650.12C400.26 649.3 400.05 648.36 400.05 647.31C400.05 646.26 400.26 645.31 400.69 644.51ZM408.39 645.28C408.07 644.7 407.65 644.25 407.11 643.94C406.57 643.63 405.98 643.47 405.33 643.47C404.68 643.47 404.1 643.62 403.56 643.93C403.03 644.23 402.6 644.68 402.29 645.26C401.98 645.84 401.82 646.53 401.82 647.31C401.82 648.09 401.98 648.8 402.29 649.39C402.61 649.98 403.03 650.43 403.56 650.74C404.09 651.05 404.68 651.21 405.33 651.21C405.98 651.21 406.57 651.05 407.11 650.74C407.65 650.43 408.07 649.98 408.39 649.39C408.71 648.8 408.86 648.11 408.86 647.33C408.86 646.55 408.7 645.86 408.39 645.28Z" fill="#424242"/>
<path d="M421.9 642.57C422.58 642.18 423.36 641.98 424.24 641.98C425.18 641.98 426.02 642.2 426.77 642.65C427.52 643.1 428.11 643.72 428.54 644.52C428.97 645.32 429.19 646.26 429.19 647.32C429.19 648.38 428.97 649.31 428.54 650.13C428.11 650.95 427.52 651.59 426.76 652.05C426 652.51 425.17 652.73 424.24 652.73C423.31 652.73 422.55 652.53 421.87 652.14C421.19 651.75 420.68 651.25 420.34 650.64V652.56H418.61V638.5H420.34V644.09C420.7 643.47 421.22 642.96 421.9 642.57ZM426.93 645.26C426.61 644.68 426.19 644.23 425.65 643.93C425.11 643.63 424.52 643.47 423.87 643.47C423.22 643.47 422.65 643.63 422.11 643.94C421.57 644.25 421.14 644.7 420.82 645.29C420.5 645.88 420.34 646.56 420.34 647.33C420.34 648.1 420.5 648.8 420.82 649.39C421.14 649.98 421.57 650.43 422.11 650.74C422.65 651.05 423.23 651.21 423.87 651.21C424.51 651.21 425.11 651.05 425.65 650.74C426.19 650.43 426.61 649.98 426.93 649.39C427.25 648.8 427.4 648.11 427.4 647.31C427.4 646.51 427.24 645.84 426.93 645.26Z" fill="#424242"/>
<path d="M431.46 644.51C431.89 643.71 432.48 643.08 433.24 642.64C434 642.2 434.83 641.97 435.76 641.97C436.69 641.97 437.47 642.17 438.14 642.56C438.81 642.95 439.31 643.45 439.64 644.04V642.14H441.39V652.55H439.64V650.61C439.3 651.22 438.79 651.72 438.11 652.12C437.43 652.52 436.64 652.72 435.74 652.72C434.84 652.72 433.98 652.49 433.23 652.04C432.48 651.58 431.89 650.94 431.46 650.12C431.03 649.3 430.81 648.36 430.81 647.31C430.81 646.26 431.02 645.31 431.46 644.51ZM439.15 645.28C438.83 644.7 438.41 644.25 437.87 643.94C437.33 643.63 436.74 643.47 436.09 643.47C435.44 643.47 434.86 643.62 434.32 643.93C433.79 644.23 433.36 644.68 433.05 645.26C432.74 645.84 432.58 646.53 432.58 647.31C432.58 648.09 432.74 648.8 433.05 649.39C433.37 649.98 433.79 650.43 434.32 650.74C434.85 651.05 435.44 651.21 436.09 651.21C436.74 651.21 437.33 651.05 437.87 650.74C438.41 650.43 438.83 649.98 439.15 649.39C439.47 648.8 439.62 648.11 439.62 647.33C439.62 646.55 439.46 645.86 439.15 645.28Z" fill="#424242"/>
<path d="M444.36 640.11C444.13 639.88 444.02 639.6 444.02 639.27C444.02 638.94 444.14 638.66 444.36 638.43C444.59 638.2 444.87 638.09 445.2 638.09C445.53 638.09 445.78 638.2 446.01 638.43C446.23 638.66 446.34 638.94 446.34 639.27C446.34 639.6 446.23 639.88 446.01 640.11C445.79 640.34 445.52 640.45 445.2 640.45C444.88 640.45 444.59 640.34 444.36 640.11ZM446.03 642.15V652.56H444.3V642.15H446.03Z" fill="#424242"/>
<path d="M454.41 652.56L451.94 648.68L449.56 652.56H447.76L451.12 647.39L447.76 642.15H449.72L452.19 646.01L454.55 642.15H456.35L453.01 647.3L456.37 652.56H454.41Z" fill="#424242"/>
<path d="M459.96 652.07C459.17 651.63 458.55 651 458.1 650.18C457.65 649.36 457.43 648.42 457.43 647.34C457.43 646.26 457.66 645.34 458.12 644.52C458.58 643.7 459.21 643.08 460.01 642.64C460.81 642.2 461.7 641.98 462.69 641.98C463.68 641.98 464.57 642.2 465.37 642.64C466.17 643.08 466.8 643.7 467.26 644.51C467.72 645.32 467.95 646.26 467.95 647.34C467.95 648.42 467.71 649.36 467.24 650.18C466.76 651 466.12 651.63 465.31 652.07C464.5 652.51 463.6 652.74 462.61 652.74C461.62 652.74 460.75 652.52 459.96 652.07ZM464.36 650.77C464.9 650.48 465.34 650.04 465.68 649.46C466.02 648.88 466.18 648.17 466.18 647.33C466.18 646.49 466.01 645.78 465.69 645.2C465.36 644.62 464.93 644.18 464.4 643.9C463.87 643.61 463.29 643.47 462.67 643.47C462.05 643.47 461.46 643.61 460.93 643.9C460.4 644.19 459.98 644.62 459.67 645.2C459.35 645.78 459.2 646.49 459.2 647.33C459.2 648.17 459.35 648.89 459.66 649.48C459.97 650.06 460.38 650.5 460.9 650.78C461.42 651.06 461.99 651.21 462.61 651.21C463.23 651.21 463.81 651.06 464.36 650.77Z" fill="#424242"/>
<path d="M785.47 640.12C786.53 640.66 787.34 641.43 787.9 642.43C788.46 643.43 788.75 644.61 788.75 645.96C788.75 647.31 788.47 648.49 787.9 649.48C787.33 650.47 786.52 651.23 785.47 651.76C784.41 652.29 783.16 652.55 781.72 652.55H777.6V639.31H781.72C783.16 639.31 784.41 639.58 785.47 640.12ZM785.63 649.78C786.53 648.87 786.98 647.6 786.98 645.97C786.98 644.34 786.53 643.04 785.62 642.11C784.71 641.19 783.41 640.72 781.72 640.72H779.33V651.13H781.72C783.43 651.13 784.73 650.68 785.63 649.77V649.78Z" fill="#424242"/>
<path d="M792.92 652.07C792.13 651.63 791.51 651 791.06 650.18C790.61 649.36 790.39 648.42 790.39 647.34C790.39 646.26 790.62 645.34 791.08 644.52C791.54 643.7 792.17 643.08 792.97 642.64C793.77 642.2 794.66 641.98 795.65 641.98C796.64 641.98 797.53 642.2 798.33 642.64C799.13 643.08 799.76 643.7 800.22 644.51C800.68 645.32 800.91 646.26 800.91 647.34C800.91 648.42 800.67 649.36 800.2 650.18C799.72 651 799.08 651.63 798.27 652.07C797.46 652.51 796.56 652.74 795.57 652.74C794.58 652.74 793.71 652.52 792.92 652.07ZM797.32 650.77C797.86 650.48 798.3 650.04 798.64 649.46C798.98 648.88 799.14 648.17 799.14 647.33C799.14 646.49 798.97 645.78 798.65 645.2C798.32 644.62 797.89 644.18 797.36 643.9C796.83 643.62 796.25 643.47 795.63 643.47C795.01 643.47 794.42 643.61 793.89 643.9C793.36 644.19 792.94 644.62 792.63 645.2C792.31 645.78 792.16 646.49 792.16 647.33C792.16 648.17 792.32 648.89 792.63 649.48C792.94 650.06 793.35 650.5 793.87 650.78C794.39 651.06 794.96 651.21 795.58 651.21C796.2 651.21 796.78 651.06 797.33 650.77H797.32Z" fill="#424242"/>
<path d="M806.47 642.57C807.15 642.18 807.93 641.98 808.81 641.98C809.75 641.98 810.59 642.2 811.34 642.65C812.09 643.09 812.68 643.72 813.11 644.52C813.54 645.32 813.76 646.26 813.76 647.32C813.76 648.38 813.54 649.31 813.11 650.13C812.68 650.95 812.09 651.59 811.33 652.05C810.57 652.51 809.74 652.73 808.81 652.73C807.88 652.73 807.12 652.53 806.44 652.14C805.76 651.75 805.25 651.25 804.91 650.64V652.56H803.18V638.5H804.91V644.09C805.26 643.47 805.78 642.96 806.47 642.57ZM811.51 645.26C811.19 644.68 810.77 644.23 810.23 643.93C809.69 643.63 809.1 643.47 808.45 643.47C807.8 643.47 807.23 643.63 806.69 643.94C806.15 644.25 805.72 644.7 805.4 645.29C805.08 645.88 804.92 646.56 804.92 647.33C804.92 648.1 805.08 648.8 805.4 649.39C805.72 649.98 806.15 650.43 806.69 650.74C807.23 651.05 807.81 651.21 808.45 651.21C809.09 651.21 809.69 651.05 810.23 650.74C810.77 650.43 811.19 649.98 811.51 649.39C811.83 648.8 811.98 648.11 811.98 647.31C811.98 646.51 811.82 645.84 811.51 645.26Z" fill="#424242"/>
<path d="M819.06 642.45C819.62 642.12 820.31 641.96 821.12 641.96V643.75H820.66C818.72 643.75 817.75 644.8 817.75 646.9V652.56H816.02V642.15H817.75V643.84C818.05 643.24 818.49 642.78 819.05 642.45H819.06Z" fill="#424242"/>
<path d="M832.56 648H824.24C824.3 649.03 824.66 649.83 825.29 650.4C825.92 650.97 826.71 651.26 827.62 651.26C828.37 651.26 828.99 651.09 829.49 650.74C829.99 650.39 830.34 649.93 830.54 649.34H832.4C832.12 650.34 831.56 651.15 830.73 651.78C829.9 652.41 828.85 652.72 827.61 652.72C826.62 652.72 825.74 652.5 824.96 652.05C824.18 651.6 823.57 650.98 823.13 650.16C822.69 649.34 822.46 648.4 822.46 647.32C822.46 646.24 822.67 645.3 823.11 644.49C823.55 643.68 824.15 643.06 824.92 642.62C825.7 642.18 826.59 641.96 827.61 641.96C828.63 641.96 829.47 642.18 830.23 642.61C830.99 643.04 831.58 643.63 831.99 644.39C832.4 645.14 832.61 646 832.61 646.94C832.61 647.27 832.59 647.62 832.55 647.99L832.56 648ZM830.39 644.89C830.1 644.41 829.7 644.05 829.2 643.81C828.7 643.56 828.15 643.44 827.54 643.44C826.67 643.44 825.92 643.72 825.31 644.28C824.7 644.84 824.34 645.61 824.26 646.6H830.83C830.83 645.94 830.68 645.37 830.39 644.9V644.89Z" fill="#424242"/>
<path d="M839.97 644.51C840.4 643.71 840.99 643.08 841.75 642.64C842.51 642.2 843.34 641.97 844.27 641.97C845.2 641.97 845.97 642.17 846.65 642.56C847.32 642.95 847.82 643.45 848.15 644.04V642.14H849.9V652.55H848.15V650.61C847.81 651.22 847.3 651.72 846.62 652.12C845.94 652.52 845.15 652.72 844.25 652.72C843.35 652.72 842.49 652.49 841.74 652.04C840.99 651.58 840.4 650.94 839.97 650.12C839.54 649.3 839.32 648.36 839.32 647.31C839.32 646.26 839.53 645.31 839.97 644.51ZM847.67 645.28C847.35 644.7 846.93 644.25 846.39 643.94C845.85 643.63 845.26 643.47 844.61 643.47C843.96 643.47 843.38 643.62 842.84 643.93C842.3 644.24 841.88 644.68 841.57 645.26C841.26 645.84 841.1 646.53 841.1 647.31C841.1 648.09 841.26 648.8 841.57 649.39C841.89 649.98 842.31 650.43 842.84 650.74C843.37 651.05 843.96 651.21 844.61 651.21C845.26 651.21 845.85 651.05 846.39 650.74C846.93 650.43 847.35 649.98 847.67 649.39C847.99 648.8 848.14 648.11 848.14 647.33C848.14 646.55 847.98 645.86 847.67 645.28Z" fill="#424242"/>
<path d="M854.35 652.32C853.72 652.05 853.22 651.67 852.85 651.18C852.48 650.69 852.28 650.13 852.24 649.5H854.03C854.08 650.02 854.32 650.44 854.76 650.77C855.2 651.1 855.77 651.26 856.48 651.26C857.14 651.26 857.66 651.11 858.04 650.82C858.42 650.53 858.61 650.16 858.61 649.72C858.61 649.28 858.41 648.93 858 648.7C857.59 648.48 856.97 648.26 856.12 648.04C855.35 647.84 854.72 647.63 854.23 647.42C853.74 647.21 853.32 646.9 852.98 646.49C852.63 646.08 852.46 645.54 852.46 644.87C852.46 644.34 852.62 643.85 852.94 643.41C853.26 642.97 853.71 642.62 854.29 642.36C854.87 642.1 855.54 641.97 856.29 641.97C857.44 641.97 858.37 642.26 859.08 642.84C859.79 643.42 860.17 644.22 860.22 645.23H858.49C858.45 644.69 858.23 644.25 857.83 643.92C857.43 643.59 856.9 643.43 856.22 643.43C855.6 643.43 855.1 643.56 854.74 643.83C854.37 644.1 854.19 644.44 854.19 644.87C854.19 645.21 854.3 645.49 854.52 645.72C854.74 645.95 855.02 646.12 855.36 646.25C855.7 646.38 856.16 646.53 856.76 646.7C857.51 646.9 858.11 647.1 858.58 647.3C859.05 647.5 859.45 647.79 859.79 648.18C860.12 648.57 860.3 649.09 860.31 649.72C860.31 650.29 860.15 650.8 859.83 651.26C859.51 651.72 859.07 652.07 858.49 652.33C857.91 652.59 857.25 652.72 856.5 652.72C855.7 652.72 854.99 652.58 854.35 652.31V652.32Z" fill="#424242"/>
<path d="M869.91 643.57V649.71C869.91 650.22 870.02 650.57 870.23 650.78C870.45 650.99 870.82 651.09 871.35 651.09H872.62V652.55H871.06C870.1 652.55 869.37 652.33 868.89 651.88C868.41 651.44 868.17 650.71 868.17 649.7V643.56H866.82V642.14H868.17V639.52H869.9V642.14H872.62V643.56H869.9L869.91 643.57Z" fill="#424242"/>
<path d="M877.75 642.45C878.31 642.12 879 641.96 879.81 641.96V643.75H879.35C877.41 643.75 876.44 644.8 876.44 646.9V652.56H874.71V642.15H876.44V643.84C876.74 643.24 877.18 642.78 877.74 642.45H877.75Z" fill="#424242"/>
<path d="M891.25 648H882.93C882.99 649.03 883.35 649.83 883.98 650.4C884.61 650.97 885.4 651.26 886.31 651.26C887.06 651.26 887.68 651.09 888.18 650.74C888.68 650.39 889.03 649.93 889.23 649.34H891.09C890.81 650.34 890.25 651.15 889.42 651.78C888.59 652.41 887.54 652.72 886.3 652.72C885.31 652.72 884.43 652.5 883.65 652.05C882.87 651.6 882.26 650.98 881.82 650.16C881.38 649.34 881.15 648.4 881.15 647.32C881.15 646.24 881.36 645.3 881.8 644.49C882.24 643.68 882.84 643.06 883.61 642.62C884.39 642.18 885.28 641.96 886.3 641.96C887.32 641.96 888.16 642.18 888.92 642.61C889.68 643.04 890.27 643.63 890.68 644.39C891.09 645.14 891.3 646 891.3 646.94C891.3 647.27 891.28 647.62 891.24 647.99L891.25 648ZM889.08 644.89C888.79 644.41 888.39 644.05 887.89 643.81C887.39 643.56 886.84 643.44 886.23 643.44C885.36 643.44 884.61 643.72 884 644.28C883.39 644.84 883.03 645.61 882.95 646.6H889.52C889.52 645.94 889.37 645.37 889.08 644.9V644.89ZM886.25 639.6L883.61 641.22V639.85L886.25 638.27L888.87 639.85V641.22L886.25 639.6Z" fill="#424242"/>
<path d="M895.13 652.32C894.5 652.05 894 651.67 893.63 651.18C893.26 650.69 893.06 650.13 893.02 649.5H894.81C894.86 650.02 895.1 650.44 895.54 650.77C895.98 651.1 896.55 651.26 897.26 651.26C897.92 651.26 898.44 651.11 898.82 650.82C899.2 650.53 899.39 650.16 899.39 649.72C899.39 649.28 899.19 648.93 898.78 648.7C898.37 648.48 897.75 648.26 896.9 648.04C896.13 647.84 895.5 647.63 895.01 647.42C894.52 647.21 894.1 646.9 893.76 646.49C893.41 646.08 893.24 645.54 893.24 644.87C893.24 644.34 893.4 643.85 893.72 643.41C894.04 642.97 894.49 642.62 895.07 642.36C895.65 642.1 896.32 641.97 897.07 641.97C898.22 641.97 899.15 642.26 899.86 642.84C900.57 643.42 900.95 644.22 901 645.23H899.27C899.23 644.69 899.01 644.25 898.61 643.92C898.21 643.59 897.68 643.43 897 643.43C896.38 643.43 895.88 643.56 895.52 643.83C895.15 644.1 894.97 644.44 894.97 644.87C894.97 645.21 895.08 645.49 895.3 645.72C895.52 645.95 895.8 646.12 896.14 646.25C896.48 646.38 896.94 646.53 897.54 646.7C898.29 646.9 898.89 647.1 899.36 647.3C899.83 647.5 900.23 647.79 900.57 648.18C900.9 648.57 901.08 649.09 901.09 649.72C901.09 650.29 900.93 650.8 900.61 651.26C900.29 651.72 899.85 652.07 899.27 652.33C898.69 652.59 898.03 652.72 897.28 652.72C896.48 652.72 895.77 652.58 895.13 652.31V652.32Z" fill="#424242"/>
<path d="M918.02 648H909.7C909.76 649.03 910.12 649.83 910.75 650.4C911.38 650.97 912.17 651.26 913.08 651.26C913.83 651.26 914.45 651.09 914.95 650.74C915.45 650.39 915.8 649.93 916 649.34H917.86C917.58 650.34 917.02 651.15 916.19 651.78C915.36 652.41 914.31 652.72 913.07 652.72C912.08 652.72 911.2 652.5 910.42 652.05C909.64 651.6 909.03 650.98 908.59 650.16C908.15 649.34 907.92 648.4 907.92 647.32C907.92 646.24 908.13 645.3 908.57 644.49C909.01 643.68 909.61 643.06 910.38 642.62C911.16 642.18 912.05 641.96 913.07 641.96C914.09 641.96 914.93 642.18 915.69 642.61C916.45 643.04 917.04 643.63 917.45 644.39C917.86 645.14 918.07 646 918.07 646.94C918.07 647.27 918.05 647.62 918.01 647.99L918.02 648ZM915.86 644.89C915.57 644.41 915.17 644.05 914.67 643.81C914.17 643.56 913.62 643.44 913.01 643.44C912.14 643.44 911.39 643.72 910.78 644.28C910.17 644.84 909.81 645.61 909.73 646.6H916.3C916.3 645.94 916.15 645.37 915.86 644.9V644.89Z" fill="#424242"/>
<path d="M925.79 652.56L923.32 648.68L920.94 652.56H919.14L922.5 647.39L919.14 642.15H921.1L923.57 646.01L925.93 642.15H927.73L924.39 647.3L927.75 652.56H925.79Z" fill="#424242"/>
<path d="M931.57 643.57V649.71C931.57 650.22 931.68 650.57 931.89 650.78C932.11 650.99 932.48 651.09 933.01 651.09H934.28V652.55H932.72C931.76 652.55 931.03 652.33 930.55 651.88C930.07 651.44 929.83 650.71 929.83 649.7V643.56H928.48V642.14H929.83V639.52H931.56V642.14H934.28V643.56H931.56L931.57 643.57Z" fill="#424242"/>
<path d="M939.41 642.45C939.97 642.12 940.66 641.96 941.47 641.96V643.75H941.01C939.07 643.75 938.1 644.8 938.1 646.9V652.56H936.37V642.15H938.1V643.84C938.4 643.24 938.84 642.78 939.4 642.45H939.41Z" fill="#424242"/>
<path d="M952.9 648H944.58C944.64 649.03 945 649.83 945.63 650.4C946.26 650.97 947.05 651.26 947.96 651.26C948.71 651.26 949.33 651.09 949.83 650.74C950.33 650.39 950.68 649.93 950.88 649.34H952.74C952.46 650.34 951.9 651.15 951.07 651.78C950.24 652.41 949.19 652.72 947.95 652.72C946.96 652.72 946.08 652.5 945.3 652.05C944.52 651.6 943.91 650.98 943.47 650.16C943.03 649.34 942.8 648.4 942.8 647.32C942.8 646.24 943.01 645.3 943.45 644.49C943.89 643.68 944.49 643.06 945.26 642.62C946.04 642.18 946.93 641.96 947.95 641.96C948.97 641.96 949.81 642.18 950.57 642.61C951.33 643.04 951.92 643.63 952.33 644.39C952.74 645.14 952.95 646 952.95 646.94C952.95 647.27 952.93 647.62 952.89 647.99L952.9 648ZM950.74 644.89C950.45 644.41 950.05 644.05 949.55 643.81C949.05 643.56 948.5 643.44 947.89 643.44C947.02 643.44 946.27 643.72 945.66 644.28C945.05 644.84 944.69 645.61 944.61 646.6H951.18C951.18 645.94 951.03 645.37 950.74 644.9V644.89Z" fill="#424242"/>
<path d="M969.93 642.46C970.56 642.8 971.06 643.3 971.43 643.97C971.8 644.64 971.98 645.46 971.98 646.42V652.56H970.27V646.67C970.27 645.63 970.01 644.84 969.5 644.29C968.99 643.74 968.29 643.46 967.42 643.46C966.55 643.46 965.81 643.75 965.27 644.32C964.73 644.89 964.47 645.73 964.47 646.82V652.56H962.76V646.67C962.76 645.63 962.5 644.84 961.99 644.29C961.48 643.74 960.78 643.46 959.91 643.46C959.04 643.46 958.3 643.75 957.76 644.32C957.22 644.89 956.96 645.73 956.96 646.82V652.56H955.23V642.15H956.96V643.65C957.3 643.11 957.76 642.69 958.34 642.4C958.92 642.11 959.55 641.96 960.25 641.96C961.12 641.96 961.9 642.16 962.57 642.55C963.24 642.94 963.74 643.52 964.07 644.28C964.36 643.55 964.84 642.98 965.51 642.57C966.18 642.16 966.93 641.96 967.75 641.96C968.57 641.96 969.28 642.13 969.92 642.46H969.93Z" fill="#424242"/>
<path d="M974.87 640.11C974.64 639.88 974.53 639.6 974.53 639.27C974.53 638.94 974.64 638.66 974.87 638.43C975.1 638.2 975.38 638.09 975.71 638.09C976.04 638.09 976.29 638.2 976.52 638.43C976.74 638.66 976.85 638.94 976.85 639.27C976.85 639.6 976.74 639.88 976.52 640.11C976.3 640.34 976.03 640.45 975.71 640.45C975.39 640.45 975.1 640.34 974.87 640.11ZM976.54 642.15V652.56H974.81V642.15H976.54Z" fill="#424242"/>
<path d="M987.64 643.11C988.43 643.88 988.82 644.98 988.82 646.43V652.57H987.11V646.68C987.11 645.64 986.85 644.85 986.33 644.3C985.81 643.75 985.1 643.47 984.2 643.47C983.3 643.47 982.56 643.75 982.02 644.32C981.48 644.89 981.21 645.72 981.21 646.81V652.57H979.48V642.16H981.21V643.64C981.55 643.11 982.02 642.7 982.61 642.4C983.2 642.11 983.85 641.96 984.56 641.96C985.83 641.96 986.85 642.34 987.64 643.11Z" fill="#424242"/>
<path d="M991.64 644.51C992.07 643.71 992.66 643.08 993.42 642.64C994.18 642.2 995.02 641.97 995.96 641.97C996.77 641.97 997.52 642.16 998.22 642.53C998.92 642.9 999.45 643.39 999.82 644V638.49H1001.57V652.55H999.82V650.59C999.48 651.21 998.97 651.72 998.3 652.12C997.63 652.52 996.84 652.72 995.94 652.72C995.04 652.72 994.18 652.49 993.42 652.04C992.66 651.59 992.07 650.94 991.64 650.12C991.21 649.3 990.99 648.36 990.99 647.31C990.99 646.26 991.2 645.31 991.64 644.51ZM999.34 645.28C999.02 644.7 998.6 644.25 998.06 643.94C997.52 643.63 996.93 643.47 996.28 643.47C995.63 643.47 995.05 643.62 994.51 643.93C993.97 644.24 993.55 644.68 993.24 645.26C992.93 645.84 992.77 646.53 992.77 647.31C992.77 648.09 992.93 648.8 993.24 649.39C993.56 649.98 993.98 650.43 994.51 650.74C995.04 651.05 995.63 651.21 996.28 651.21C996.93 651.21 997.52 651.05 998.06 650.74C998.6 650.43 999.02 649.98 999.34 649.39C999.66 648.8 999.81 648.11 999.81 647.33C999.81 646.55 999.65 645.86 999.34 645.28Z" fill="#424242"/>
<path d="M1004.49 644.51C1004.92 643.71 1005.51 643.08 1006.27 642.64C1007.03 642.2 1007.86 641.97 1008.79 641.97C1009.72 641.97 1010.49 642.17 1011.17 642.56C1011.84 642.95 1012.34 643.45 1012.67 644.04V642.14H1014.42V652.55H1012.67V650.61C1012.33 651.22 1011.82 651.72 1011.14 652.12C1010.46 652.52 1009.67 652.72 1008.77 652.72C1007.87 652.72 1007.01 652.49 1006.26 652.04C1005.51 651.58 1004.92 650.94 1004.49 650.12C1004.06 649.3 1003.84 648.36 1003.84 647.31C1003.84 646.26 1004.05 645.31 1004.49 644.51ZM1012.18 645.28C1011.86 644.7 1011.44 644.25 1010.9 643.94C1010.36 643.63 1009.77 643.47 1009.12 643.47C1008.47 643.47 1007.89 643.62 1007.35 643.93C1006.81 644.24 1006.39 644.68 1006.08 645.26C1005.77 645.84 1005.61 646.53 1005.61 647.31C1005.61 648.09 1005.77 648.8 1006.08 649.39C1006.4 649.98 1006.82 650.43 1007.35 650.74C1007.88 651.05 1008.47 651.21 1009.12 651.21C1009.77 651.21 1010.36 651.05 1010.9 650.74C1011.44 650.43 1011.86 649.98 1012.18 649.39C1012.5 648.8 1012.65 648.11 1012.65 647.33C1012.65 646.55 1012.49 645.86 1012.18 645.28Z" fill="#424242"/>
<path d="M1017.33 644.51C1017.76 643.71 1018.35 643.08 1019.11 642.64C1019.87 642.2 1020.71 641.97 1021.65 641.97C1022.46 641.97 1023.21 642.16 1023.91 642.53C1024.61 642.9 1025.14 643.39 1025.51 644V638.49H1027.26V652.55H1025.51V650.59C1025.17 651.21 1024.66 651.72 1023.99 652.12C1023.32 652.52 1022.53 652.72 1021.63 652.72C1020.73 652.72 1019.87 652.49 1019.11 652.04C1018.35 651.59 1017.76 650.94 1017.33 650.12C1016.9 649.3 1016.68 648.36 1016.68 647.31C1016.68 646.26 1016.89 645.31 1017.33 644.51ZM1025.03 645.28C1024.71 644.7 1024.29 644.25 1023.75 643.94C1023.21 643.63 1022.62 643.47 1021.97 643.47C1021.32 643.47 1020.74 643.62 1020.2 643.93C1019.66 644.24 1019.24 644.68 1018.93 645.26C1018.62 645.84 1018.46 646.53 1018.46 647.31C1018.46 648.09 1018.62 648.8 1018.93 649.39C1019.25 649.98 1019.67 650.43 1020.2 650.74C1020.73 651.05 1021.32 651.21 1021.97 651.21C1022.62 651.21 1023.21 651.05 1023.75 650.74C1024.29 650.43 1024.71 649.98 1025.03 649.39C1025.35 648.8 1025.5 648.11 1025.5 647.33C1025.5 646.55 1025.34 645.86 1025.03 645.28Z" fill="#424242"/>
<path d="M1039.62 648H1031.3C1031.36 649.03 1031.72 649.83 1032.35 650.4C1032.98 650.97 1033.77 651.26 1034.68 651.26C1035.43 651.26 1036.05 651.09 1036.55 650.74C1037.05 650.39 1037.4 649.93 1037.6 649.34H1039.46C1039.18 650.34 1038.62 651.15 1037.79 651.78C1036.96 652.41 1035.91 652.72 1034.67 652.72C1033.68 652.72 1032.8 652.5 1032.02 652.05C1031.24 651.6 1030.63 650.98 1030.19 650.16C1029.75 649.34 1029.52 648.4 1029.52 647.32C1029.52 646.24 1029.73 645.3 1030.17 644.49C1030.61 643.68 1031.21 643.06 1031.98 642.62C1032.76 642.18 1033.65 641.96 1034.67 641.96C1035.69 641.96 1036.53 642.18 1037.29 642.61C1038.05 643.04 1038.64 643.63 1039.05 644.39C1039.46 645.14 1039.67 646 1039.67 646.94C1039.67 647.27 1039.65 647.62 1039.61 647.99L1039.62 648ZM1037.45 644.89C1037.16 644.41 1036.76 644.05 1036.26 643.81C1035.76 643.56 1035.21 643.44 1034.6 643.44C1033.73 643.44 1032.98 643.72 1032.37 644.28C1031.76 644.84 1031.4 645.61 1031.32 646.6H1037.89C1037.89 645.94 1037.74 645.37 1037.45 644.9V644.89Z" fill="#424242"/>
<path d="M1043.5 652.32C1042.87 652.05 1042.37 651.67 1042 651.18C1041.63 650.69 1041.43 650.13 1041.39 649.5H1043.18C1043.23 650.02 1043.47 650.44 1043.91 650.77C1044.35 651.1 1044.92 651.26 1045.63 651.26C1046.29 651.26 1046.81 651.11 1047.19 650.82C1047.57 650.53 1047.76 650.16 1047.76 649.72C1047.76 649.28 1047.56 648.93 1047.15 648.7C1046.74 648.48 1046.12 648.26 1045.27 648.04C1044.5 647.84 1043.87 647.63 1043.38 647.42C1042.89 647.21 1042.47 646.9 1042.13 646.49C1041.78 646.08 1041.61 645.54 1041.61 644.87C1041.61 644.34 1041.77 643.85 1042.09 643.41C1042.41 642.97 1042.86 642.62 1043.44 642.36C1044.02 642.1 1044.69 641.97 1045.44 641.97C1046.59 641.97 1047.52 642.26 1048.23 642.84C1048.94 643.42 1049.32 644.22 1049.37 645.23H1047.64C1047.6 644.69 1047.38 644.25 1046.98 643.92C1046.58 643.59 1046.05 643.43 1045.37 643.43C1044.75 643.43 1044.25 643.56 1043.89 643.83C1043.52 644.1 1043.34 644.44 1043.34 644.87C1043.34 645.21 1043.45 645.49 1043.67 645.72C1043.89 645.95 1044.17 646.12 1044.51 646.25C1044.85 646.38 1045.31 646.53 1045.91 646.7C1046.66 646.9 1047.26 647.1 1047.73 647.3C1048.2 647.5 1048.6 647.79 1048.94 648.18C1049.27 648.57 1049.45 649.09 1049.46 649.72C1049.46 650.29 1049.3 650.8 1048.98 651.26C1048.66 651.72 1048.22 652.07 1047.64 652.33C1047.06 652.59 1046.4 652.72 1045.65 652.72C1044.85 652.72 1044.14 652.58 1043.5 652.31V652.32Z" fill="#424242"/>
<path d="M863.71 665.38C864.39 664.98 865.18 664.78 866.08 664.78C866.98 664.78 867.84 665 868.6 665.45C869.36 665.9 869.95 666.52 870.38 667.32C870.81 668.12 871.03 669.06 871.03 670.12C871.03 671.18 870.81 672.11 870.38 672.93C869.95 673.75 869.36 674.39 868.6 674.85C867.84 675.31 867.01 675.53 866.08 675.53C865.15 675.53 864.41 675.33 863.73 674.93C863.05 674.53 862.54 674.03 862.18 673.44V680.3H860.45V664.95H862.18V666.87C862.52 666.28 863.03 665.78 863.71 665.38ZM868.77 668.06C868.45 667.48 868.03 667.03 867.49 666.73C866.95 666.43 866.36 666.27 865.71 666.27C865.06 666.27 864.49 666.43 863.95 666.74C863.41 667.05 862.98 667.5 862.66 668.09C862.34 668.68 862.18 669.36 862.18 670.13C862.18 670.9 862.34 671.6 862.66 672.19C862.98 672.78 863.41 673.23 863.95 673.54C864.49 673.85 865.07 674.01 865.71 674.01C866.35 674.01 866.95 673.85 867.49 673.54C868.03 673.23 868.45 672.78 868.77 672.19C869.09 671.6 869.24 670.91 869.24 670.11C869.24 669.31 869.08 668.64 868.77 668.06Z" fill="#424242"/>
<path d="M873.29 667.31C873.72 666.51 874.31 665.88 875.07 665.44C875.83 665 876.66 664.77 877.59 664.77C878.52 664.77 879.29 664.97 879.97 665.36C880.64 665.75 881.14 666.25 881.47 666.84V664.94H883.22V675.35H881.47V673.41C881.13 674.02 880.62 674.52 879.94 674.92C879.26 675.32 878.47 675.52 877.57 675.52C876.67 675.52 875.81 675.29 875.06 674.84C874.31 674.38 873.72 673.74 873.29 672.92C872.86 672.1 872.64 671.16 872.64 670.11C872.64 669.06 872.85 668.11 873.29 667.31ZM880.99 668.08C880.67 667.5 880.25 667.05 879.71 666.74C879.17 666.43 878.58 666.27 877.93 666.27C877.28 666.27 876.7 666.42 876.16 666.73C875.62 667.04 875.2 667.48 874.89 668.06C874.58 668.64 874.42 669.33 874.42 670.11C874.42 670.89 874.58 671.6 874.89 672.19C875.21 672.78 875.63 673.23 876.16 673.54C876.69 673.85 877.28 674.01 877.93 674.01C878.58 674.01 879.17 673.85 879.71 673.54C880.25 673.23 880.67 672.78 880.99 672.19C881.31 671.6 881.46 670.91 881.46 670.13C881.46 669.35 881.3 668.66 880.99 668.08Z" fill="#424242"/>
<path d="M889.17 665.25C889.73 664.92 890.42 664.76 891.23 664.76V666.55H890.77C888.83 666.55 887.86 667.6 887.86 669.7V675.36H886.13V664.95H887.86V666.64C888.16 666.04 888.6 665.58 889.16 665.25H889.17Z" fill="#424242"/>
<path d="M893.23 667.31C893.66 666.51 894.25 665.88 895.01 665.44C895.77 665 896.6 664.77 897.53 664.77C898.46 664.77 899.23 664.97 899.91 665.36C900.58 665.75 901.08 666.25 901.41 666.84V664.94H903.16V675.35H901.41V673.41C901.07 674.02 900.56 674.52 899.88 674.92C899.2 675.32 898.41 675.52 897.51 675.52C896.61 675.52 895.75 675.29 895 674.84C894.25 674.38 893.66 673.74 893.23 672.92C892.8 672.1 892.58 671.16 892.58 670.11C892.58 669.06 892.79 668.11 893.23 667.31ZM900.92 668.08C900.6 667.5 900.18 667.05 899.64 666.74C899.1 666.43 898.51 666.27 897.86 666.27C897.21 666.27 896.63 666.42 896.09 666.73C895.55 667.04 895.13 667.48 894.82 668.06C894.51 668.64 894.35 669.33 894.35 670.11C894.35 670.89 894.51 671.6 894.82 672.19C895.14 672.78 895.56 673.23 896.09 673.54C896.62 673.85 897.21 674.01 897.86 674.01C898.51 674.01 899.1 673.85 899.64 673.54C900.18 673.23 900.6 672.78 900.92 672.19C901.24 671.6 901.39 670.91 901.39 670.13C901.39 669.35 901.23 668.66 900.92 668.08Z" fill="#424242"/>
<path d="M911.14 667.31C911.57 666.51 912.16 665.88 912.92 665.44C913.68 665 914.52 664.77 915.46 664.77C916.27 664.77 917.02 664.96 917.72 665.33C918.42 665.7 918.95 666.19 919.32 666.8V661.29H921.07V675.35H919.32V673.39C918.98 674.01 918.47 674.52 917.8 674.92C917.13 675.32 916.34 675.52 915.44 675.52C914.54 675.52 913.68 675.29 912.92 674.84C912.16 674.39 911.57 673.74 911.14 672.92C910.71 672.1 910.49 671.16 910.49 670.11C910.49 669.06 910.7 668.11 911.14 667.31ZM918.84 668.08C918.52 667.5 918.1 667.05 917.56 666.74C917.02 666.43 916.43 666.27 915.78 666.27C915.13 666.27 914.55 666.42 914.01 666.73C913.47 667.04 913.05 667.48 912.74 668.06C912.43 668.64 912.27 669.33 912.27 670.11C912.27 670.89 912.43 671.6 912.74 672.19C913.06 672.78 913.48 673.23 914.01 673.54C914.54 673.85 915.13 674.01 915.78 674.01C916.43 674.01 917.02 673.85 917.56 673.54C918.1 673.23 918.52 672.78 918.84 672.19C919.16 671.6 919.31 670.91 919.31 670.13C919.31 669.35 919.15 668.66 918.84 668.08Z" fill="#424242"/>
<path d="M933.43 670.8H925.11C925.17 671.83 925.53 672.63 926.16 673.2C926.79 673.77 927.58 674.06 928.49 674.06C929.24 674.06 929.86 673.89 930.36 673.54C930.86 673.19 931.21 672.73 931.41 672.14H933.27C932.99 673.14 932.43 673.95 931.6 674.58C930.77 675.21 929.72 675.52 928.48 675.52C927.49 675.52 926.61 675.3 925.83 674.85C925.05 674.4 924.44 673.78 924 672.96C923.56 672.14 923.33 671.2 923.33 670.12C923.33 669.04 923.54 668.1 923.98 667.29C924.42 666.48 925.02 665.86 925.79 665.42C926.57 664.98 927.46 664.76 928.48 664.76C929.5 664.76 930.34 664.98 931.1 665.41C931.86 665.84 932.45 666.43 932.86 667.19C933.27 667.94 933.48 668.8 933.48 669.74C933.48 670.07 933.46 670.42 933.42 670.79L933.43 670.8ZM931.26 667.69C930.97 667.21 930.57 666.85 930.07 666.61C929.57 666.36 929.02 666.24 928.41 666.24C927.54 666.24 926.79 666.52 926.18 667.08C925.57 667.64 925.21 668.41 925.13 669.4H931.7C931.7 668.74 931.55 668.17 931.26 667.7V667.69Z" fill="#424242"/>
<path d="M943.92 665.91C944.71 666.68 945.1 667.78 945.1 669.23V675.37H943.39V669.48C943.39 668.44 943.13 667.65 942.61 667.1C942.09 666.55 941.38 666.27 940.48 666.27C939.58 666.27 938.84 666.55 938.3 667.12C937.76 667.69 937.49 668.52 937.49 669.61V675.37H935.76V664.96H937.49V666.44C937.83 665.91 938.3 665.5 938.89 665.2C939.48 664.91 940.13 664.76 940.84 664.76C942.11 664.76 943.13 665.14 943.92 665.91Z" fill="#424242"/>
<path d="M950.04 666.37V672.51C950.04 673.02 950.15 673.37 950.36 673.58C950.58 673.79 950.95 673.89 951.48 673.89H952.75V675.35H951.19C950.23 675.35 949.5 675.13 949.02 674.68C948.54 674.24 948.3 673.51 948.3 672.5V666.36H946.95V664.94H948.3V662.32H950.03V664.94H952.75V666.36H950.03L950.04 666.37Z" fill="#424242"/>
<path d="M957.87 665.25C958.43 664.92 959.12 664.76 959.93 664.76V666.55H959.47C957.53 666.55 956.56 667.6 956.56 669.7V675.36H954.83V664.95H956.56V666.64C956.86 666.04 957.3 665.58 957.86 665.25H957.87Z" fill="#424242"/>
<path d="M963.82 674.87C963.03 674.43 962.41 673.8 961.96 672.98C961.51 672.16 961.29 671.22 961.29 670.14C961.29 669.06 961.52 668.14 961.98 667.32C962.44 666.5 963.07 665.88 963.87 665.44C964.67 665 965.56 664.78 966.55 664.78C967.54 664.78 968.43 665 969.23 665.44C970.03 665.88 970.66 666.5 971.12 667.31C971.58 668.12 971.81 669.06 971.81 670.14C971.81 671.22 971.57 672.16 971.1 672.98C970.62 673.8 969.98 674.43 969.17 674.87C968.36 675.31 967.46 675.54 966.47 675.54C965.48 675.54 964.61 675.32 963.82 674.87ZM968.22 673.57C968.76 673.28 969.2 672.84 969.54 672.26C969.88 671.68 970.04 670.97 970.04 670.13C970.04 669.29 969.87 668.58 969.55 668C969.22 667.42 968.79 666.98 968.26 666.7C967.73 666.42 967.15 666.27 966.53 666.27C965.91 666.27 965.32 666.41 964.79 666.7C964.26 666.99 963.84 667.42 963.53 668C963.21 668.58 963.06 669.29 963.06 670.13C963.06 670.97 963.22 671.69 963.53 672.28C963.84 672.86 964.25 673.3 964.77 673.58C965.29 673.86 965.86 674.01 966.48 674.01C967.1 674.01 967.68 673.86 968.23 673.57H968.22Z" fill="#424242"/>
<path d="M527.18 288.98C546.201 288.98 561.62 273.534 561.62 254.48C561.62 235.426 546.201 219.98 527.18 219.98C508.16 219.98 492.74 235.426 492.74 254.48C492.74 273.534 508.16 288.98 527.18 288.98Z" fill="#E8E3E6"/>
<path d="M527.22 286C546.241 286 561.66 270.554 561.66 251.5C561.66 232.446 546.241 217 527.22 217C508.2 217 492.78 232.446 492.78 251.5C492.78 270.554 508.2 286 527.22 286Z" fill="#FFF8FC"/>
<path d="M511.97 247.72L525.94 233.72C528.3 231.36 532.34 233.03 532.34 236.37V266.57C532.34 269.87 528.39 271.57 526 269.28L511.97 255.84V247.71V247.72Z" fill="#C8A9F2"/>
<path d="M510.77 249.2C510.77 248.366 510.094 247.69 509.26 247.69C508.426 247.69 507.75 248.366 507.75 249.2V253.75C507.75 254.584 508.426 255.26 509.26 255.26C510.094 255.26 510.77 254.584 510.77 253.75V249.2Z" fill="#C8A9F2"/>
<path d="M536.09 259.57C537.2 258.62 538.74 254.27 538.74 251.47C538.74 248.67 537.7 244.75 536.09 243.37" fill="#C8A9F2"/>
<path d="M540.65 262.19C542.12 260.93 544.15 255.18 544.15 251.47C544.15 247.76 542.78 242.57 540.65 240.75" fill="#C8A9F2"/>
<path d="M1139.18 288.98C1158.2 288.98 1173.62 273.534 1173.62 254.48C1173.62 235.426 1158.2 219.98 1139.18 219.98C1120.16 219.98 1104.74 235.426 1104.74 254.48C1104.74 273.534 1120.16 288.98 1139.18 288.98Z" fill="#E8E3E6"/>
<path d="M1139.22 286C1158.24 286 1173.66 270.554 1173.66 251.5C1173.66 232.446 1158.24 217 1139.22 217C1120.2 217 1104.78 232.446 1104.78 251.5C1104.78 270.554 1120.2 286 1139.22 286Z" fill="#FFF8FC"/>
<path d="M1123.97 247.72L1137.94 233.72C1140.3 231.36 1144.34 233.03 1144.34 236.37V266.57C1144.34 269.87 1140.39 271.57 1138 269.28L1123.97 255.84V247.71V247.72Z" fill="#C8A9F2"/>
<path d="M1122.77 249.2C1122.77 248.366 1122.09 247.69 1121.26 247.69C1120.43 247.69 1119.75 248.366 1119.75 249.2V253.75C1119.75 254.584 1120.43 255.26 1121.26 255.26C1122.09 255.26 1122.77 254.584 1122.77 253.75V249.2Z" fill="#C8A9F2"/>
<path d="M1148.09 259.57C1149.2 258.62 1150.74 254.27 1150.74 251.47C1150.74 248.67 1149.7 244.75 1148.09 243.37" fill="#C8A9F2"/>
<path d="M1152.65 262.19C1154.12 260.93 1156.15 255.18 1156.15 251.47C1156.15 247.76 1154.78 242.57 1152.65 240.75" fill="#C8A9F2"/>
<path d="M296.32 276.52L196.85 376.95L284.15 567.49L306.36 565.47L390.28 376.95L296.32 276.52Z" fill="#CCCCCC"/>
<path d="M173.42 278.52L119.86 452.59L293.93 576.45L173.42 278.52Z" fill="#CCCCCC"/>
<path d="M412.44 278.52L466 452.59L291.93 576.45L412.44 278.52Z" fill="#CCCCCC"/>
<path d="M294.32 273.52L194.85 373.95L282.15 564.49L304.36 562.47L388.28 373.95L294.32 273.52Z" fill="#EFEFEF" stroke="#E0E0E0" stroke-miterlimit="10"/>
<path d="M173.42 273.52L119.86 447.59L293.93 571.45L173.42 273.52Z" fill="white" stroke="#E0E0E0" stroke-miterlimit="10"/>
<path d="M416.44 269.52L470 443.59L295.93 567.45L416.44 269.52Z" fill="white" stroke="#E0E0E0" stroke-miterlimit="10"/>
<path d="M210.17 362.15H373.85" stroke="#8BA1CC" stroke-width="2"/>
<path d="M297.58 311.66C297.58 311.66 258.6 344.47 282.36 390.55" stroke="#8BA1CC" stroke-width="2"/>
<path d="M288.63 400.87C283.92 397.06 277.23 392.84 271.72 391.03L281.65 389.13L288.07 381.31C287.03 387.01 287.53 394.91 288.63 400.86V400.87Z" fill="#8BA1CC"/>
<path d="M1017.96 355.75H823.14L916 588.8L1017.96 355.75Z" fill="#CCCCCC"/>
<path d="M822.62 357.57L919.64 444.96L1018.48 357.57H822.62Z" fill="#CCCCCC"/>
<path d="M787.91 260.25L915.36 587.98L726 442.32L787.91 260.25Z" fill="#CCCCCC"/>
<path d="M1044.09 260.25L916.64 587.98L1106 442.32L1044.09 260.25Z" fill="#CCCCCC"/>
<path d="M1017.96 345.75H823.14L916 578.8L1017.96 345.75Z" fill="#EFEFEF" stroke="#E0E0E0" stroke-miterlimit="10"/>
<path d="M822.62 347.57L919.64 434.96L1018.48 347.57H822.62Z" fill="#CCCCCC"/>
<path d="M822.62 341.77L919.64 429.17L1018.48 341.77H822.62Z" fill="white" stroke="#E0E0E0" stroke-miterlimit="10"/>
<path d="M787.91 250.25L915.36 577.98L726 432.32L787.91 250.25Z" fill="white" stroke="#E0E0E0" stroke-miterlimit="10"/>
<path d="M1044.09 250.25L916.64 577.98L1106 432.32L1044.09 250.25Z" fill="white" stroke="#E0E0E0" stroke-miterlimit="10"/>
<path d="M749 371.42V450.01" stroke="#8BA1CC" stroke-width="2"/>
<path d="M1084 371.42V450.01" stroke="#8BA1CC" stroke-width="2"/>
<path d="M877.7 555.71H956.3" stroke="#8BA1CC" stroke-width="2"/>
<path d="M692.78 421.72C692.78 421.72 726.78 383.78 772.11 408.96" stroke="#8BA1CC" stroke-width="2"/>
<path d="M782.23 415.54C776.31 414.27 768.43 413.51 762.7 414.38L770.71 408.21L772.92 398.34C774.56 403.9 778.57 410.72 782.23 415.54Z" fill="#8BA1CC"/>
<path d="M1128.23 421.72C1128.23 421.72 1094.23 383.78 1048.9 408.96" stroke="#8BA1CC" stroke-width="2"/>
<path d="M1038.78 415.54C1042.44 410.71 1046.45 403.89 1048.09 398.33L1050.3 408.2L1058.31 414.37C1052.58 413.5 1044.7 414.26 1038.78 415.53V415.54Z" fill="#8BA1CC"/>
<path d="M904.81 611.75C904.81 611.75 942.75 577.75 917.57 532.42" stroke="#8BA1CC" stroke-width="2"/>
<path d="M910.99 522.3C915.82 525.96 922.64 529.97 928.2 531.61L918.33 533.82L912.16 541.83C913.03 536.1 912.27 528.22 911 522.3H910.99Z" fill="#8BA1CC"/>
</svg>
