<svg width="70" height="72" viewBox="0 0 70 72" fill="none" xmlns="http://www.w3.org/2000/svg">
<path d="M34.5 71.98C53.5538 71.98 69 56.5338 69 37.48C69 18.4262 53.5538 2.97998 34.5 2.97998C15.4462 2.97998 0 18.4262 0 37.48C0 56.5338 15.4462 71.98 34.5 71.98Z" fill="#E8E3E6"/>
<path d="M34.53 69C53.5839 69 69.03 53.5538 69.03 34.5C69.03 15.4462 53.5839 0 34.53 0C15.4762 0 0.0300293 15.4462 0.0300293 34.5C0.0300293 53.5538 15.4762 69 34.53 69Z" fill="#FFF8FC"/>
<path d="M52.03 30.8801H25.15L28.58 27.4501C31.87 24.1601 26.77 19.0501 23.47 22.3401C20.39 25.4201 17.32 28.4901 14.24 31.5701C14.02 31.7401 13.83 31.9501 13.66 32.1701C13.03 32.9001 12.78 33.7101 12.82 34.4901C12.78 35.2901 13.04 36.1301 13.71 36.8801C13.79 36.9801 13.88 37.0601 13.97 37.1501C17.14 40.3201 20.31 43.4901 23.48 46.6601C26.77 49.9501 31.88 44.8501 28.59 41.5501L25.14 38.1001H52.04C56.69 38.1001 56.69 30.8801 52.04 30.8801H52.03Z" fill="#E1A9AF"/>
</svg>
