<svg width="86" height="69" viewBox="0 0 86 69" fill="none" xmlns="http://www.w3.org/2000/svg">
<path d="M2.64008 60.5328C2.64008 60.5328 -12.4799 69.3827 42.0201 68.4827C96.5301 67.5827 84.5701 60.5328 84.5701 60.5328C84.5701 60.5328 41.2901 54.2928 3.52009 60.5328" fill="#B29C74"/>
<path opacity="0.32" d="M7.04001 9.17272C6.61001 9.24272 6.20001 9.38276 5.85001 9.58276C4.15001 10.5028 0 13.3828 0 19.7228V61.3928C0 62.4328 0.979994 63.3628 2.39999 63.6528C7.25999 64.6528 19.67 66.6528 41.13 66.6528C62.59 66.6528 73.55 64.8427 78.09 63.8827C79.51 63.5827 80.47 62.6627 80.47 61.6227V17.4028C80.47 17.4028 80.47 10.3527 72.72 8.68273C71.52 8.42273 70.64 7.71272 70.42 6.85272C70.07 5.48272 71.64 0.352772 69.74 0.722772C65.14 1.62277 52.73 2.31277 40.04 2.59277C27.5 2.87277 14.69 2.57273 9.86002 1.86273C8.20002 1.61273 9.98 6.51275 9.44 7.64276C9.12 8.31276 8.43002 8.93272 7.02002 9.17272H7.04001Z" fill="#AAA9D3"/>
<path d="M4.87004 22.1127V58.3627C4.87004 59.7127 6.06006 60.9028 7.83006 61.3428C12.7301 62.5428 23.74 64.6327 41.27 64.6327C58.8 64.6327 68.33 63.1628 73.14 62.2228C75.09 61.8428 76.4201 60.5627 76.3701 59.1127L75.14 21.9128C75.08 20.0528 76.04 18.8227 73.47 19.0627C62.94 20.0127 30.31 21.6827 6.63005 19.0627C5.67005 18.9527 5.17007 19.0727 4.93007 19.3627C4.50007 19.8627 4.87004 20.8927 4.87004 22.1327V22.1127Z" fill="#F9E96D"/>
<path opacity="0.2" d="M50.5199 3.96277C49.7799 3.96277 50.1599 8.74278 51.6999 9.78278C53.2399 10.8228 58.25 12.8228 58.38 17.2028C58.51 21.5828 59.5099 66.1227 59.5099 66.1227C59.5099 66.1227 73.11 65.0828 76.36 64.2228C79.61 63.3628 80.4399 64.2427 80.4699 58.4227C80.4899 52.6027 80.4699 18.4028 80.4699 18.4028C80.4699 18.4028 79.8999 9.71274 72.7199 8.68274C72.7199 8.68274 70.07 8.28274 70.44 5.12274C70.81 1.96274 70.19 0.942749 70.19 0.942749C70.19 0.942749 69.77 4.06277 50.5 3.96277H50.5199Z" fill="white"/>
<path d="M5.75 19.0427C5.75 19.0427 15.8 17.2427 41.12 17.1927C67.31 17.1427 74.35 19.0427 74.35 19.0427C74.35 19.0427 29.5 23.4727 5.75 19.0427Z" fill="#FFF097"/>
<path opacity="0.32" d="M70.2699 1.86274C71.0499 1.75274 70.9999 1.00276 70.2099 0.942759C65.8099 0.572759 56.87 0.0627642 40.91 0.0727642C23.16 -0.367236 13.91 1.30277 9.80995 2.01277C9.05995 2.14277 9.10995 2.84275 9.86995 2.93275C15.5799 3.57275 29.09 4.29274 40.91 4.29274C52.73 4.29274 64.4099 2.72275 70.2699 1.87275V1.86274Z" fill="#A1A1C6"/>
<path opacity="0.32" d="M9.26998 5.12274C9.26998 5.12274 14.55 9.55273 39.17 9.55273C39.17 9.55273 25.12 10.3727 18.06 8.92273C6.86999 6.62273 9.26998 5.12274 9.26998 5.12274Z" fill="#AAA9D3"/>
<path opacity="0.32" d="M70.61 1.95276C70.61 1.95276 65.33 6.38275 40.71 6.38275C40.71 6.38275 54.76 7.20275 61.82 5.75275C73.01 3.45275 70.61 1.95276 70.61 1.95276Z" fill="#AAA9D3"/>
</svg>
