<svg width="86" height="69" viewBox="0 0 86 69" fill="none" xmlns="http://www.w3.org/2000/svg">
<path d="M2.64996 60.5427C2.64996 60.5427 -12.47 69.3928 42.03 68.4928C96.53 67.5928 84.58 60.5427 84.58 60.5427C84.58 60.5427 41.3 54.3027 3.52997 60.5427" fill="#B29C74"/>
<path opacity="0.32" d="M7.03998 9.17272C6.60998 9.24272 6.19998 9.38276 5.84998 9.58276C4.14998 10.5028 0 13.3828 0 19.7228V61.3928C0 62.4328 0.979963 63.3628 2.39996 63.6528C7.25996 64.6528 19.67 66.6528 41.13 66.6528C62.59 66.6528 73.55 64.8427 78.09 63.8827C79.51 63.5827 80.47 62.6627 80.47 61.6227V17.4028C80.47 17.4028 80.47 10.3527 72.72 8.68273C71.52 8.42273 70.64 7.71272 70.42 6.85272C70.07 5.48272 71.64 0.352772 69.74 0.722772C65.14 1.62277 52.73 2.31277 40.04 2.59277C27.5 2.87277 14.69 2.57273 9.85999 1.86273C8.19999 1.61273 9.98 6.51275 9.44 7.64276C9.12 8.31276 8.42996 8.93272 7.01996 9.17272H7.03998Z" fill="#AAA9D3"/>
<path d="M4.86994 22.1127V58.3627C4.86994 59.7127 6.0599 60.9028 7.8299 61.3428C12.7299 62.5428 23.7399 64.6327 41.2699 64.6327C58.7999 64.6327 68.33 63.1628 73.14 62.2228C75.09 61.8428 76.4199 60.5627 76.3699 59.1127L75.14 21.9127C75.08 20.0527 76.0399 18.8227 73.4699 19.0627C62.9399 20.0127 30.3099 21.6827 6.62995 19.0627C5.66995 18.9527 5.16993 19.0727 4.92993 19.3627C4.49993 19.8627 4.86994 20.8927 4.86994 22.1327V22.1127Z" fill="#ABE0FE"/>
<path opacity="0.2" d="M50.52 3.96277C49.78 3.96277 50.1601 8.74278 51.7001 9.78278C53.2401 10.8228 58.2501 12.8228 58.3801 17.2028C58.5101 21.5828 59.5101 66.1227 59.5101 66.1227C59.5101 66.1227 73.1101 65.0828 76.3601 64.2228C79.6101 63.3628 80.4401 64.2427 80.4701 58.4227C80.4901 52.6027 80.4701 18.4028 80.4701 18.4028C80.4701 18.4028 79.9001 9.71274 72.7201 8.68274C72.7201 8.68274 70.0701 8.28274 70.4401 5.12274C70.8101 1.96274 70.1901 0.942749 70.1901 0.942749C70.1901 0.942749 69.7701 4.06277 50.5001 3.96277H50.52Z" fill="white"/>
<path d="M5.75 19.0527C5.75 19.0527 15.8 17.2528 41.12 17.2028C67.31 17.1528 74.35 19.0527 74.35 19.0527C74.35 19.0527 29.5 23.4827 5.75 19.0527Z" fill="#D0EAFC"/>
<path opacity="0.32" d="M70.2699 1.86274C71.0499 1.75274 70.9999 1.00276 70.2099 0.942759C65.8099 0.572759 56.8699 0.0627642 40.9099 0.0727642C23.1599 -0.367236 13.91 1.30277 9.80995 2.01277C9.05995 2.14277 9.10995 2.84275 9.86995 2.93275C15.5799 3.57275 29.0899 4.29274 40.9099 4.29274C52.7299 4.29274 64.4099 2.72275 70.2699 1.87275V1.86274Z" fill="#A1A1C6"/>
<path opacity="0.32" d="M9.26997 5.12274C9.26997 5.12274 14.55 9.55273 39.17 9.55273C39.17 9.55273 25.12 10.3727 18.06 8.92273C6.87001 6.62273 9.26997 5.12274 9.26997 5.12274Z" fill="#AAA9D3"/>
<path opacity="0.32" d="M70.62 1.95276C70.62 1.95276 65.34 6.38275 40.72 6.38275C40.72 6.38275 54.77 7.20275 61.83 5.75275C73.02 3.45275 70.62 1.95276 70.62 1.95276Z" fill="#AAA9D3"/>
</svg>
