<svg width="86" height="69" viewBox="0 0 86 69" fill="none" xmlns="http://www.w3.org/2000/svg">
<path d="M2.64008 60.5427C2.64008 60.5427 -12.4799 69.3928 42.0201 68.4928C96.5301 67.5928 84.5701 60.5427 84.5701 60.5427C84.5701 60.5427 41.2901 54.3027 3.52008 60.5427" fill="#B29C74"/>
<path opacity="0.32" d="M7.03998 9.18273C6.60998 9.25273 6.19998 9.39277 5.84998 9.59277C4.14998 10.5128 0 13.3927 0 19.7327V61.4028C0 62.4428 0.979963 63.3728 2.39996 63.6628C7.25996 64.6628 19.67 66.6628 41.13 66.6628C62.59 66.6628 73.55 64.8528 78.09 63.8928C79.51 63.5928 80.47 62.6727 80.47 61.6327V17.4128C80.47 17.4128 80.47 10.3627 72.72 8.69274C71.52 8.43274 70.64 7.72273 70.42 6.86273C70.07 5.49273 71.6401 0.362721 69.7401 0.732721C65.1401 1.63272 52.73 2.32272 40.04 2.60272C27.5 2.88272 14.69 2.58274 9.85999 1.87274C8.19999 1.62274 9.98 6.52276 9.44 7.65276C9.12 8.32276 8.43002 8.94273 7.02002 9.18273H7.03998Z" fill="#AAA9D3"/>
<path d="M4.86994 22.1227V58.3727C4.86994 59.7227 6.05996 60.9127 7.82996 61.3527C12.73 62.5527 23.74 64.6427 41.27 64.6427C58.8 64.6427 68.3299 63.1727 73.1399 62.2327C75.0899 61.8527 76.4199 60.5727 76.3699 59.1227L75.1399 21.9227C75.0799 20.0627 76.04 18.8327 73.47 19.0727C62.94 20.0227 30.3099 21.6927 6.62995 19.0727C5.66995 18.9627 5.16993 19.0827 4.92993 19.3727C4.49993 19.8727 4.86994 20.9027 4.86994 22.1427V22.1227Z" fill="#F4F4F4"/>
<path opacity="0.2" d="M50.51 3.96277C49.77 3.96277 50.15 8.74278 51.69 9.78278C53.23 10.8228 58.24 12.8228 58.37 17.2028C58.5 21.5828 59.5 66.1227 59.5 66.1227C59.5 66.1227 73.1001 65.0828 76.3501 64.2228C79.6001 63.3628 80.4301 64.2427 80.4601 58.4227C80.4901 52.6027 80.4601 18.4028 80.4601 18.4028C80.4601 18.4028 79.8901 9.71274 72.7101 8.68274C72.7101 8.68274 70.06 8.28274 70.43 5.12274C70.8 1.96274 70.18 0.942749 70.18 0.942749C70.18 0.942749 69.76 4.06277 50.49 3.96277H50.51Z" fill="white"/>
<path d="M5.73999 19.0527C5.73999 19.0527 15.79 17.2528 41.11 17.2028C67.3 17.1528 74.34 19.0527 74.34 19.0527C74.34 19.0527 29.49 23.4827 5.73999 19.0527Z" fill="white"/>
<path opacity="0.32" d="M70.2599 1.86274C71.0399 1.75274 70.99 1.00276 70.2 0.942759C65.8 0.572759 56.8599 0.0627642 40.8999 0.0727642C23.1499 -0.367236 13.8999 1.30277 9.79994 2.01277C9.04994 2.14277 9.09994 2.84275 9.85994 2.93275C15.5699 3.57275 29.0799 4.29274 40.8999 4.29274C52.7199 4.29274 64.3999 2.72275 70.2599 1.87275V1.86274Z" fill="#A1A1C6"/>
<path opacity="0.32" d="M9.25998 5.12274C9.25998 5.12274 14.5399 9.55273 39.1599 9.55273C39.1599 9.55273 25.11 10.3727 18.05 8.92273C6.85995 6.62273 9.25998 5.12274 9.25998 5.12274Z" fill="#AAA9D3"/>
<path opacity="0.32" d="M70.61 1.96277C70.61 1.96277 65.33 6.39276 40.71 6.39276C40.71 6.39276 54.7599 7.21276 61.8199 5.76276C73.0099 3.46276 70.61 1.96277 70.61 1.96277Z" fill="#AAA9D3"/>
</svg>
