<svg width="86" height="69" viewBox="0 0 86 69" fill="none" xmlns="http://www.w3.org/2000/svg">
<path d="M2.64008 60.5427C2.64008 60.5427 -12.4799 69.3928 42.0201 68.4928C96.5201 67.5928 84.5701 60.5427 84.5701 60.5427C84.5701 60.5427 41.2901 54.3027 3.52008 60.5427" fill="#B29C74"/>
<path opacity="0.32" d="M7.04004 9.17272C6.61004 9.24272 6.20004 9.38276 5.85004 9.58276C4.15004 10.5028 0 13.3827 0 19.7227V61.3928C0 62.4328 0.980024 63.3627 2.40002 63.6527C7.26002 64.6527 19.67 66.6527 41.13 66.6527C62.59 66.6527 73.55 64.8427 78.09 63.8827C79.51 63.5827 80.47 62.6627 80.47 61.6227V17.4027C80.47 17.4027 80.47 10.3527 72.72 8.68273C71.52 8.42273 70.64 7.71272 70.42 6.85272C70.07 5.48272 71.6401 0.352711 69.7401 0.722711C65.1401 1.62271 52.73 2.31271 40.04 2.59271C27.5 2.87271 14.69 2.57273 9.86005 1.86273C8.20005 1.61273 9.98 6.51275 9.44 7.64275C9.12 8.31275 8.43002 8.93272 7.02002 9.17272H7.04004Z" fill="#AAA9D3"/>
<path d="M4.87006 22.1127V58.3627C4.87006 59.7127 6.06002 60.9027 7.83002 61.3427C12.73 62.5427 23.74 64.6327 41.27 64.6327C58.8 64.6327 68.33 63.1627 73.14 62.2227C75.09 61.8427 76.4201 60.5627 76.3701 59.1127L75.14 21.9127C75.08 20.0527 76.04 18.8227 73.47 19.0627C62.94 20.0127 30.31 21.6827 6.63001 19.0627C5.67001 18.9527 5.17006 19.0727 4.93006 19.3627C4.50006 19.8627 4.87006 20.8927 4.87006 22.1327V22.1127Z" fill="#EDC066"/>
<path opacity="0.2" d="M50.5201 3.96271C49.7801 3.96271 50.16 8.74271 51.7 9.78271C53.24 10.8227 58.25 12.8228 58.38 17.2028C58.51 21.5828 59.51 66.1227 59.51 66.1227C59.51 66.1227 73.1101 65.0827 76.3601 64.2227C79.6101 63.3627 80.4401 64.2427 80.4701 58.4227C80.4901 52.6027 80.4701 18.4027 80.4701 18.4027C80.4701 18.4027 79.9001 9.71274 72.7201 8.68274C72.7201 8.68274 70.07 8.28274 70.44 5.12274C70.81 1.95274 70.19 0.942749 70.19 0.942749C70.19 0.942749 69.77 4.06271 50.5 3.96271H50.5201Z" fill="white"/>
<path d="M5.75 19.0527C5.75 19.0527 15.8001 17.2528 41.1201 17.2028C67.3101 17.1528 74.35 19.0527 74.35 19.0527C74.35 19.0527 29.5 23.4827 5.75 19.0527Z" fill="#FFDA88"/>
<path opacity="0.32" d="M70.27 1.86274C71.05 1.75274 71 1.00276 70.21 0.942759C65.81 0.572759 56.87 0.0627642 40.91 0.0727642C23.16 -0.367236 13.9101 1.30277 9.81007 2.01277C9.06007 2.14277 9.11007 2.84275 9.87007 2.93275C15.5801 3.57275 29.09 4.29274 40.91 4.29274C52.73 4.29274 64.41 2.72275 70.27 1.87275V1.86274Z" fill="#A1A1C6"/>
<path opacity="0.32" d="M9.26997 5.12274C9.26997 5.12274 14.55 9.55273 39.17 9.55273C39.17 9.55273 25.12 10.3727 18.06 8.92273C6.87001 6.62273 9.26997 5.12274 9.26997 5.12274Z" fill="#AAA9D3"/>
<path opacity="0.32" d="M70.62 1.95276C70.62 1.95276 65.34 6.38275 40.72 6.38275C40.72 6.38275 54.77 7.20275 61.83 5.75275C73.02 3.45275 70.62 1.95276 70.62 1.95276Z" fill="#AAA9D3"/>
</svg>
