<svg width="86" height="69" viewBox="0 0 86 69" fill="none" xmlns="http://www.w3.org/2000/svg">
<path d="M2.64008 60.5328C2.64008 60.5328 -12.4799 69.3828 42.0201 68.4828C96.5301 67.5828 84.5701 60.5328 84.5701 60.5328C84.5701 60.5328 41.2901 54.2928 3.52008 60.5328" fill="#B29C74"/>
<path opacity="0.32" d="M7.03998 9.17278C6.60998 9.24278 6.20004 9.38276 5.85004 9.58276C4.15004 10.5028 0 13.3828 0 19.7228V61.3928C0 62.4328 0.980024 63.3628 2.40002 63.6528C7.26002 64.6528 19.67 66.6528 41.13 66.6528C62.59 66.6528 73.55 64.8427 78.09 63.8827C79.51 63.5827 80.47 62.6627 80.47 61.6227V17.4028C80.47 17.4028 80.47 10.3528 72.72 8.68279C71.52 8.42279 70.64 7.71278 70.42 6.85278C70.07 5.48278 71.64 0.352772 69.74 0.722772C65.14 1.62277 52.73 2.31277 40.04 2.59277C27.5 2.87277 14.69 2.57279 9.85999 1.86279C8.19999 1.61279 9.98 6.51275 9.44 7.64275C9.12 8.31275 8.43002 8.93278 7.02002 9.17278H7.03998Z" fill="#AAA9D3"/>
<path d="M4.86994 22.1128V58.3628C4.86994 59.7128 6.05996 60.9028 7.82996 61.3428C12.73 62.5428 23.74 64.6328 41.27 64.6328C58.8 64.6328 68.33 63.1628 73.14 62.2228C75.09 61.8428 76.4199 60.5628 76.3699 59.1128L75.14 21.9128C75.08 20.0528 76.04 18.8228 73.47 19.0628C62.94 20.0128 30.3099 21.6828 6.62995 19.0628C5.66995 18.9528 5.16993 19.0728 4.92993 19.3628C4.49993 19.8628 4.86994 20.8928 4.86994 22.1328V22.1128Z" fill="#C68D67"/>
<path opacity="0.2" d="M50.5201 3.95276C49.7801 3.95276 50.16 8.73277 51.7 9.77277C53.24 10.8128 58.25 12.8127 58.38 17.1927C58.51 21.5728 59.51 66.1128 59.51 66.1128C59.51 66.1128 73.11 65.0728 76.36 64.2128C79.61 63.3528 80.4401 64.2328 80.4701 58.4128C80.4901 52.5928 80.4701 18.3928 80.4701 18.3928C80.4701 18.3928 79.9001 9.70279 72.7201 8.67279C72.7201 8.67279 70.07 8.27279 70.44 5.11279C70.81 1.95279 70.19 0.9328 70.19 0.9328C70.19 0.9328 69.77 4.05276 50.5 3.95276H50.5201Z" fill="white"/>
<path d="M5.75 19.0428C5.75 19.0428 15.8 17.2427 41.12 17.1927C67.31 17.1427 74.35 19.0428 74.35 19.0428C74.35 19.0428 29.5 23.4728 5.75 19.0428Z" fill="#DD9F76"/>
<path opacity="0.32" d="M70.27 1.8628C71.05 1.7528 71 1.00276 70.21 0.942759C65.81 0.572759 56.87 0.0627642 40.91 0.0727642C23.16 -0.367236 13.91 1.30277 9.80995 2.01277C9.05995 2.14277 9.10995 2.84281 9.86995 2.93281C15.5799 3.57281 29.09 4.2928 40.91 4.2928C52.73 4.2928 64.41 2.72275 70.27 1.87275V1.8628Z" fill="#A1A1C6"/>
<path opacity="0.32" d="M9.26999 5.12274C9.26999 5.12274 14.5499 9.5528 39.1699 9.5528C39.1699 9.5528 25.12 10.3728 18.06 8.92279C6.86996 6.62279 9.26999 5.12274 9.26999 5.12274Z" fill="#AAA9D3"/>
<path opacity="0.32" d="M70.6099 1.95276C70.6099 1.95276 65.33 6.38275 40.71 6.38275C40.71 6.38275 54.7599 7.20275 61.8199 5.75275C73.0099 3.45275 70.6099 1.95276 70.6099 1.95276Z" fill="#AAA9D3"/>
</svg>
