<svg width="86" height="69" viewBox="0 0 86 69" fill="none" xmlns="http://www.w3.org/2000/svg">
<path d="M2.64008 60.5327C2.64008 60.5327 -12.4799 69.3827 42.0201 68.4827C96.5301 67.5827 84.5701 60.5327 84.5701 60.5327C84.5701 60.5327 41.2901 54.2927 3.52008 60.5327" fill="#B29C74"/>
<path opacity="0.32" d="M7.04004 9.17272C6.61004 9.24272 6.2001 9.38276 5.8501 9.58276C4.1501 10.5028 0 13.3827 0 19.7227V61.3928C0 62.4328 0.980024 63.3628 2.40002 63.6528C7.26002 64.6528 19.67 66.6528 41.13 66.6528C62.59 66.6528 73.5501 64.8427 78.0901 63.8827C79.5101 63.5827 80.4701 62.6627 80.4701 61.6227V17.4028C80.4701 17.4028 80.4701 10.3527 72.7201 8.68273C71.5201 8.42273 70.64 7.71272 70.42 6.85272C70.07 5.48272 71.6401 0.352711 69.7401 0.722711C65.1401 1.62271 52.73 2.31277 40.04 2.59277C27.5 2.87277 14.6901 2.57273 9.86011 1.86273C8.20011 1.61273 9.98006 6.51275 9.44006 7.64275C9.12006 8.31275 8.43002 8.93272 7.02002 9.17272H7.04004Z" fill="#AAA9D3"/>
<path d="M4.8701 22.1127V58.3627C4.8701 59.7127 6.06006 60.9028 7.83006 61.3428C12.7301 62.5428 23.74 64.6327 41.27 64.6327C58.8 64.6327 68.33 63.1627 73.14 62.2227C75.09 61.8427 76.4201 60.5627 76.3701 59.1127L75.14 21.9127C75.08 20.0527 76.0401 18.8227 73.4701 19.0627C62.9401 20.0127 30.31 21.6827 6.62999 19.0627C5.66999 18.9527 5.17004 19.0727 4.93004 19.3627C4.50004 19.8627 4.8701 20.8927 4.8701 22.1327V22.1127Z" fill="#595959"/>
<path opacity="0.2" d="M50.52 3.95276C49.78 3.95276 50.1601 8.73277 51.7001 9.77277C53.2401 10.8128 58.25 12.8127 58.38 17.1927C58.51 21.5728 59.51 66.1127 59.51 66.1127C59.51 66.1127 73.1101 65.0728 76.3601 64.2128C79.6101 63.3528 80.4401 64.2327 80.4701 58.4127C80.4901 52.5927 80.4701 18.3928 80.4701 18.3928C80.4701 18.3928 79.9001 9.70273 72.7201 8.67273C72.7201 8.67273 70.0701 8.27273 70.4401 5.11273C70.8101 1.94273 70.1901 0.932739 70.1901 0.932739C70.1901 0.932739 69.77 4.05276 50.5 3.95276H50.52Z" fill="white"/>
<path d="M5.75 19.0427C5.75 19.0427 15.8001 17.2427 41.1201 17.1927C67.3101 17.1427 74.3501 19.0427 74.3501 19.0427C74.3501 19.0427 29.5 23.4727 5.75 19.0427Z" fill="#686868"/>
<path opacity="0.32" d="M70.26 1.86274C71.04 1.75274 70.9901 1.00276 70.2001 0.942759C65.8001 0.572759 56.86 0.0627642 40.9 0.0727642C23.15 -0.367236 13.9 1.30277 9.80003 2.01277C9.05003 2.14277 9.10009 2.84275 9.86009 2.93275C15.5701 3.57275 29.08 4.29274 40.9 4.29274C52.72 4.29274 64.4 2.72275 70.26 1.87275V1.86274Z" fill="#A1A1C6"/>
<path opacity="0.32" d="M9.25996 5.11273C9.25996 5.11273 14.54 9.54272 39.16 9.54272C39.16 9.54272 25.11 10.3627 18.05 8.91272C6.86 6.61272 9.25996 5.11273 9.25996 5.11273Z" fill="#AAA9D3"/>
<path opacity="0.32" d="M70.6101 1.95276C70.6101 1.95276 65.3301 6.38275 40.7101 6.38275C40.7101 6.38275 54.7601 7.20275 61.8201 5.75275C73.0101 3.45275 70.6101 1.95276 70.6101 1.95276Z" fill="#AAA9D3"/>
</svg>
