<svg width="86" height="69" viewBox="0 0 86 69" fill="none" xmlns="http://www.w3.org/2000/svg">
<path d="M2.63995 60.5427C2.63995 60.5427 -12.48 69.3928 42.02 68.4928C96.53 67.5928 84.5699 60.5427 84.5699 60.5427C84.5699 60.5427 41.29 54.3027 3.51996 60.5427" fill="#B29C74"/>
<path opacity="0.32" d="M7.03998 9.18273C6.60998 9.25273 6.19998 9.39271 5.84998 9.59271C4.14998 10.5127 0 13.3927 0 19.7327V61.4027C0 62.4427 0.979963 63.3727 2.39996 63.6627C7.25996 64.6627 19.6699 66.6627 41.1299 66.6627C62.5899 66.6627 73.55 64.8527 78.09 63.8927C79.51 63.5927 80.47 62.6727 80.47 61.6327V17.4127C80.47 17.4127 80.47 10.3627 72.72 8.69274C71.52 8.43274 70.64 7.72273 70.42 6.86273C70.07 5.49273 71.64 0.362721 69.74 0.732721C65.14 1.63272 52.73 2.32272 40.04 2.60272C27.5 2.88272 14.69 2.58274 9.85999 1.87274C8.19999 1.62274 9.97994 6.5227 9.43994 7.6527C9.11994 8.3227 8.42996 8.94273 7.01996 9.18273H7.03998Z" fill="#AAA9D3"/>
<path d="M4.86994 22.1227V58.3727C4.86994 59.7227 6.0599 60.9127 7.8299 61.3527C12.7299 62.5527 23.7399 64.6427 41.2699 64.6427C58.7999 64.6427 68.3299 63.1727 73.1399 62.2327C75.0899 61.8527 76.4199 60.5727 76.3699 59.1227L75.1399 21.9227C75.0799 20.0627 76.0399 18.8327 73.4699 19.0727C62.9399 20.0227 30.3099 21.6927 6.62989 19.0727C5.66989 18.9627 5.16993 19.0827 4.92993 19.3727C4.49993 19.8727 4.86994 20.9027 4.86994 22.1427V22.1227Z" fill="#DFA6F4"/>
<path opacity="0.2" d="M50.5199 3.96271C49.7799 3.96271 50.1599 8.74271 51.6999 9.78271C53.2399 10.8227 58.2499 12.8227 58.3799 17.2027C58.5099 21.5827 59.5099 66.1227 59.5099 66.1227C59.5099 66.1227 73.11 65.0827 76.36 64.2227C79.61 63.3627 80.4399 64.2427 80.4699 58.4227C80.4899 52.6027 80.4699 18.4027 80.4699 18.4027C80.4699 18.4027 79.8999 9.71274 72.7199 8.68274C72.7199 8.68274 70.0699 8.28274 70.4399 5.12274C70.8099 1.96274 70.1899 0.942749 70.1899 0.942749C70.1899 0.942749 69.77 4.06271 50.5 3.96271H50.5199Z" fill="white"/>
<path d="M5.75 19.0527C5.75 19.0527 15.8 17.2527 41.12 17.2027C67.31 17.1527 74.35 19.0527 74.35 19.0527C74.35 19.0527 29.5 23.4827 5.75 19.0527Z" fill="#EEC5FF"/>
<path opacity="0.32" d="M70.2699 1.86274C71.0499 1.75274 70.9999 1.00276 70.2099 0.942759C65.8099 0.572759 56.8699 0.0627642 40.9099 0.0727642C23.1599 -0.367236 13.91 1.30277 9.80995 2.01277C9.05995 2.14277 9.10995 2.84275 9.86995 2.93275C15.5799 3.57275 29.0899 4.29274 40.9099 4.29274C52.7299 4.29274 64.4099 2.72275 70.2699 1.87275V1.86274Z" fill="#A1A1C6"/>
<path opacity="0.32" d="M9.26997 5.12274C9.26997 5.12274 14.55 9.55273 39.17 9.55273C39.17 9.55273 25.12 10.3727 18.06 8.92273C6.87001 6.62273 9.26997 5.12274 9.26997 5.12274Z" fill="#AAA9D3"/>
<path opacity="0.32" d="M70.62 1.96271C70.62 1.96271 65.34 6.3927 40.72 6.3927C40.72 6.3927 54.77 7.21276 61.83 5.76276C73.02 3.46276 70.62 1.96271 70.62 1.96271Z" fill="#AAA9D3"/>
</svg>
