<svg width="87" height="70" viewBox="0 0 87 70" fill="none" xmlns="http://www.w3.org/2000/svg">
<path d="M3.25 61.8028C3.25 61.8028 -11.87 70.6528 42.63 69.7528C97.14 68.8528 85.18 61.8028 85.18 61.8028C85.18 61.8028 41.9 55.5628 4.13 61.8028" fill="#B29C74"/>
<path opacity="0.32" d="M7.04001 9.17278C6.61001 9.24278 6.20001 9.38276 5.85001 9.58276C4.15001 10.5028 0 13.3828 0 19.7228V61.3928C0 62.4328 0.980024 63.3628 2.40002 63.6528C7.26002 64.6528 19.67 66.6528 41.13 66.6528C62.59 66.6528 73.55 64.8427 78.09 63.8827C79.51 63.5827 80.47 62.6627 80.47 61.6227V17.4028C80.47 17.4028 80.47 10.3527 72.72 8.68273C71.52 8.42273 70.64 7.71278 70.42 6.85278C70.07 5.48278 71.64 0.352772 69.74 0.722772C65.14 1.62277 52.73 2.31277 40.04 2.59277C27.5 2.87277 14.69 2.57279 9.86002 1.86279C8.20002 1.61279 9.98 6.51275 9.44 7.64275C9.12 8.31275 8.43002 8.93278 7.02002 9.17278H7.04001Z" fill="#AAA9D3"/>
<path d="M4.87006 22.1128V58.3628C4.87006 59.7128 6.06005 60.9028 7.83005 61.3428C12.7301 62.5428 23.7401 64.6328 41.2701 64.6328C58.8001 64.6328 68.33 63.1628 73.14 62.2228C75.09 61.8428 76.4201 60.5628 76.3701 59.1128L75.14 21.9128C75.08 20.0528 76.04 18.8228 73.47 19.0628C62.94 20.0128 30.31 21.6828 6.63004 19.0628C5.67004 18.9528 5.17006 19.0728 4.93006 19.3628C4.50006 19.8628 4.87006 20.8928 4.87006 22.1328V22.1128Z" fill="#9EE6B3"/>
<path opacity="0.2" d="M50.51 3.95276C49.77 3.95276 50.15 8.73277 51.69 9.77277C53.23 10.8128 58.2401 12.8127 58.3701 17.1927C58.5001 21.5728 59.5 66.1128 59.5 66.1128C59.5 66.1128 73.1 65.0728 76.35 64.2128C79.6 63.3528 80.4301 64.2328 80.4601 58.4128C80.4801 52.5928 80.4601 18.3928 80.4601 18.3928C80.4601 18.3928 79.8901 9.70279 72.7101 8.67279C72.7101 8.67279 70.0601 8.27279 70.4301 5.11279C70.8001 1.94279 70.1801 0.932739 70.1801 0.932739C70.1801 0.932739 69.7601 4.05276 50.4901 3.95276H50.51Z" fill="white"/>
<path d="M5.75 19.0428C5.75 19.0428 15.8 17.2427 41.12 17.1927C67.31 17.1427 74.35 19.0428 74.35 19.0428C74.35 19.0428 29.5 23.4728 5.75 19.0428Z" fill="#B3FFC7"/>
<path opacity="0.32" d="M70.2601 1.8628C71.0401 1.7528 70.9901 1.00276 70.2001 0.942759C65.8001 0.572759 56.8601 0.0627642 40.9001 0.0727642C23.1501 -0.367236 13.9001 1.30277 9.80006 2.01277C9.05006 2.14277 9.10006 2.84275 9.86006 2.93275C15.5701 3.57275 29.0801 4.2928 40.9001 4.2928C52.7201 4.2928 64.4001 2.72275 70.2601 1.87275V1.8628Z" fill="#A1A1C6"/>
<path opacity="0.32" d="M9.25997 5.12274C9.25997 5.12274 14.54 9.5528 39.16 9.5528C39.16 9.5528 25.11 10.3728 18.05 8.92279C6.85998 6.62279 9.25997 5.12274 9.25997 5.12274Z" fill="#AAA9D3"/>
<path opacity="0.32" d="M70.61 1.95276C70.61 1.95276 65.33 6.38275 40.71 6.38275C40.71 6.38275 54.7599 7.20275 61.8199 5.75275C73.0099 3.45275 70.61 1.95276 70.61 1.95276Z" fill="#AAA9D3"/>
</svg>
