<svg width="114" height="97" viewBox="0 0 114 97" fill="none" xmlns="http://www.w3.org/2000/svg">
<path d="M4.65996 81.2C4.65996 81.2 -14.7001 92.53 55.06 91.38C124.81 90.23 109.51 81.2 109.51 81.2C109.51 81.2 54.12 73.21 5.78996 81.2" fill="#B29C74"/>
<path opacity="0.32" d="M13.66 15.47C13.11 15.57 12.59 15.74 12.14 15.99C9.96998 17.16 4.65997 20.86 4.65997 28.96V82.29C4.65997 83.63 5.90998 84.81 7.72998 85.19C13.95 86.47 29.83 89.03 57.3 89.03C84.77 89.03 98.79 86.71 104.6 85.48C106.41 85.1 107.65 83.92 107.65 82.59V26.01C107.65 26.01 107.65 16.99 97.73 14.85C96.2 14.52 95.06 13.61 94.78 12.5C94.33 10.75 96.35 4.18003 93.91 4.65003C88.02 5.80003 72.14 6.68999 55.9 7.03999C39.86 7.38999 23.46 7.01999 17.28 6.10999C15.15 5.79999 17.44 12.06 16.75 13.51C16.35 14.36 15.46 15.16 13.66 15.47Z" fill="#AAA9D3"/>
<path d="M4.78997 29.94V82.75C4.78997 84.71 6.51997 86.46 9.09997 87.09C16.23 88.84 32.28 91.88 57.82 91.88C83.36 91.88 97.24 89.73 104.26 88.37C107.09 87.82 109.03 85.95 108.96 83.83L107.17 29.63C107.08 26.91 108.48 25.13 104.73 25.47C89.39 26.86 41.85 29.28 7.34997 25.47C5.94997 25.31 5.21996 25.49 4.86996 25.9C4.24996 26.64 4.78997 28.13 4.78997 29.93V29.94Z" fill="#9EE6B3"/>
<path opacity="0.2" d="M69.2999 8.79999C68.3499 8.79999 68.8399 14.92 70.8099 16.25C72.7799 17.58 79.1999 20.14 79.3599 25.74C79.5299 31.35 80.8099 88.34 80.8099 88.34C80.8099 88.34 98.2199 87 102.38 85.91C106.54 84.82 107.61 85.94 107.64 78.49C107.67 71.04 107.64 27.28 107.64 27.28C107.64 27.28 106.91 16.16 97.7199 14.84C97.7199 14.84 94.3299 14.33 94.8099 10.28C95.2899 6.23003 94.4899 4.92999 94.4899 4.92999C94.4899 4.92999 93.9499 8.92998 69.2999 8.78998V8.79999Z" fill="white"/>
<path d="M8 25.4188C8 25.4188 22.7951 23.063 60.0819 23.0015C98.6458 22.9298 109 25.4188 109 25.4188C109 25.4188 42.9629 31.2265 8 25.4188Z" fill="#B3FFC7"/>
<path opacity="0.32" d="M94.5799 6.11999C95.5799 5.96999 95.52 5.02 94.5 4.94C88.87 4.46 77.43 3.81 57.01 3.82C34.3 3.26 22.46 5.39998 17.21 6.29998C16.25 6.46998 16.31 7.36997 17.28 7.46997C24.59 8.28997 41.88 9.21002 57.01 9.21002C72.14 9.21002 87.09 7.20998 94.5799 6.10998V6.11999Z" fill="#A1A1C6"/>
<path opacity="0.32" d="M16.51 10.28C16.51 10.28 23.26 15.95 54.78 15.95C54.78 15.95 36.7999 16.99 27.7699 15.14C13.4499 12.2 16.5199 10.28 16.5199 10.28H16.51Z" fill="#AAA9D3"/>
<path opacity="0.32" d="M95.02 6.22998C95.02 6.22998 88.27 11.9 56.75 11.9C56.75 11.9 74.73 12.94 83.76 11.09C98.08 8.15003 95.01 6.22998 95.01 6.22998H95.02Z" fill="#AAA9D3"/>
<path d="M58.15 94.72C30.31 94.72 14 92.17 6.75 90.65C3.91 90.05 2 88.05 2 85.65V29.7C2 20.18 8.11001 15.78 10.73 14.34C11.4 13.97 12.14 13.71 12.92 13.58C13.78 13.43 14.34 13.1501 14.58 12.7401C14.62 12.2901 14.45 11.12 14.34 10.33C13.99 7.87002 13.69 5.75004 14.97 4.48004C15.58 3.88004 16.4 3.62 17.29 3.75C23.45 4.68 40.01 5.08002 56.67 4.71002C74.71 4.31002 89.92 3.33005 95.42 2.24005C96.38 2.05005 97.28 2.28002 97.95 2.90002C99.42 4.26002 99.13 6.79004 98.83 9.48004C98.73 10.32 98.59 11.6 98.65 11.97C98.73 12.29 99.29 12.75 100.17 12.94C109.48 14.99 111.94 22.77 111.94 26.6V85.96C111.94 88.34 110.04 90.34 107.22 90.95C100.69 92.36 85.63 94.72 58.14 94.72H58.15ZM18.06 7.89001C18.11 8.50001 18.22 9.24002 18.29 9.77002C18.59 11.9 18.76 13.26 18.25 14.34C17.7 15.52 16.45 17.02 13.6 17.52C13.26 17.58 12.93 17.69 12.65 17.85C10.65 18.95 5.98999 22.31 5.98999 29.71V85.66C5.98999 85.97 6.54 86.5301 7.56 86.7401C13.27 87.94 29.63 90.73 58.14 90.73C86.65 90.73 100 88.43 106.38 87.05C107.4 86.83 107.94 86.28 107.94 85.97V26.61C107.94 26.3 107.76 18.71 99.31 16.85C96.99 16.34 95.25 14.84 94.77 12.92C94.53 11.98 94.65 10.83 94.86 9.03003C94.94 8.32003 95.07 7.18006 95.09 6.37006C88.65 7.42006 73.93 8.33003 56.77 8.72003C41.01 9.08003 25.25 8.72002 18.07 7.90002L18.06 7.89001Z" fill="white" stroke="white" stroke-width="4" stroke-miterlimit="10"/>
</svg>
