<svg width="154" height="113" viewBox="0 0 154 113" fill="none" xmlns="http://www.w3.org/2000/svg">
<path d="M1.37947 72.1951C-3.778 52.4088 14.415 45.8836 24.1583 45.0964C44.5732 41.8704 30.82 66.6033 26.3072 72.1951C21.7944 77.7869 5.24757 82.7335 1.37947 72.1951Z" fill="#FEF9DE"/>
<path d="M152.751 72.1951C157.908 52.4088 139.715 45.8836 129.972 45.0964C109.557 41.8704 123.31 66.6033 127.823 72.1951C132.336 77.7869 148.883 82.7335 152.751 72.1951Z" fill="#FEF9DE"/>
<path d="M28.8173 50.5463C21.6355 51.5787 7.13444 56.6973 6.57142 68.8788C5.87086 84.1099 32.5736 67.6185 28.8173 50.5463Z" fill="#A8A8A8"/>
<path d="M125.318 50.5463C132.5 51.5787 147.001 56.6973 147.559 68.8788C148.26 84.1099 121.561 67.6185 125.318 50.5463Z" fill="#A8A8A8"/>
<path d="M130.273 66.9604C130.273 95.8226 106.893 112.77 78.0538 112.77C49.215 112.77 25.8345 95.8226 25.8345 66.9604C25.8345 38.0981 49.215 14.6987 78.0538 14.6987C106.893 14.6987 130.273 38.0981 130.273 66.9604Z" fill="#CECECE"/>
<path d="M106.205 91.2632C112.376 91.2632 117.379 86.4487 117.379 80.5097C117.379 74.5708 112.376 69.7563 106.205 69.7563C100.033 69.7563 95.0303 74.5708 95.0303 80.5097C95.0303 86.4487 100.033 91.2632 106.205 91.2632Z" fill="black"/>
<path d="M51.1918 91.2632C57.3634 91.2632 62.3663 86.4487 62.3663 80.5097C62.3663 74.5708 57.3634 69.7563 51.1918 69.7563C45.0203 69.7563 40.0173 74.5708 40.0173 80.5097C40.0173 86.4487 45.0203 91.2632 51.1918 91.2632Z" fill="black"/>
<path d="M82.2012 106.963C82.0766 106.963 81.952 106.959 81.823 106.95C79.9749 106.808 78.5008 105.612 77.74 104.541C77.5337 104.253 77.6025 103.849 77.8904 103.642C78.1784 103.436 78.5824 103.505 78.7887 103.793C79.3818 104.627 80.5121 105.557 81.9176 105.66C83.2628 105.759 84.6167 105.109 85.9662 103.716C86.2155 103.462 86.6238 103.453 86.8773 103.703C87.1309 103.952 87.1395 104.361 86.8902 104.615C85.3817 106.172 83.8043 106.963 82.1969 106.963H82.2012Z" fill="black"/>
<path d="M74.0352 106.963C73.9106 106.963 73.7859 106.959 73.657 106.95C71.8089 106.808 70.3347 105.612 69.574 104.541C69.3677 104.253 69.4365 103.849 69.7244 103.642C70.0124 103.436 70.4164 103.505 70.6227 103.793C71.2158 104.627 72.3461 105.557 73.7515 105.66C75.0968 105.759 76.4506 105.109 77.8002 103.716C78.0494 103.462 78.4577 103.453 78.7113 103.703C78.9649 103.952 78.9735 104.361 78.7242 104.615C77.2157 106.172 75.6383 106.963 74.0309 106.963H74.0352Z" fill="black"/>
<path d="M51.1922 87.3919C55.2274 87.3919 58.4986 84.3106 58.4986 80.5097C58.4986 76.7088 55.2274 73.6275 51.1922 73.6275C47.1569 73.6275 43.8857 76.7088 43.8857 80.5097C43.8857 84.3106 47.1569 87.3919 51.1922 87.3919Z" fill="black"/>
<path d="M53.1259 78.359C54.1941 78.359 55.06 77.4924 55.06 76.4234C55.06 75.3544 54.1941 74.4878 53.1259 74.4878C52.0578 74.4878 51.1919 75.3544 51.1919 76.4234C51.1919 77.4924 52.0578 78.359 53.1259 78.359Z" fill="white"/>
<path d="M108.139 78.359C109.207 78.359 110.073 77.4924 110.073 76.4234C110.073 75.3544 109.207 74.4878 108.139 74.4878C107.071 74.4878 106.205 75.3544 106.205 76.4234C106.205 77.4924 107.071 78.359 108.139 78.359Z" fill="white"/>
<path d="M84.7154 85.0261C84.7154 87.5209 78.9133 92.5535 78.2686 92.5535C77.6239 92.5535 71.8218 87.5209 71.8218 85.0261C71.8218 82.5313 74.71 82.2302 78.2686 82.2302C81.8273 82.2302 84.7154 82.5313 84.7154 85.0261Z" fill="black"/>
<path d="M69.0281 46.4815C65.7016 58.2802 58.6014 53.9358 55.4683 50.2882C55.7605 52.5894 55.2061 57.1876 50.6547 57.1876C46.1032 57.1876 44.5345 54.0175 44.3153 52.4303C44.1692 54.0175 42.8282 57.1876 38.6292 57.1876C34.4302 57.1876 34.1078 54.0175 34.4731 52.4303C33.5233 53.54 31.1036 55.0928 29.0062 52.4303C26.9045 49.7634 28.1294 47.3547 29.0062 46.4815C27.6954 47.0364 24.7642 47.4794 23.5393 44.8168C22.3144 42.1543 25.3616 40.6918 27.0378 40.2961C26.161 39.9004 24.545 38.0121 25.0693 33.6333C25.5937 29.2545 29.6638 26.893 31.6279 26.2564C30.6093 25.779 29.1824 24.067 31.6279 21.0217C34.0777 17.9763 36.0032 17.8515 36.6608 18.1655C36.0763 17.3741 35.6551 15.4557 38.6292 14.1223C41.6033 12.7888 44.8224 14.6771 46.0645 15.7869C45.4069 14.1223 45.407 10.079 50.6547 7.22285C55.9067 4.36674 59.5513 6.03137 60.716 7.22285C59.6244 5.47649 58.7476 1.79882 63.9953 1.03747C69.2431 0.276131 71.7229 3.73444 72.3074 5.55822C73.0338 4.05274 75.0194 1.03747 77.1167 1.03747C79.2141 1.03747 82.0765 3.57529 83.2412 4.84419C84.118 3.33871 86.6967 0.465392 90.019 1.03747C93.3456 1.60956 94.6135 5.39907 94.8327 7.22285C96.8742 6.19052 101.787 4.74956 105.109 7.22285C108.435 9.69614 109.411 13.9631 109.484 15.7869C111.818 14.5954 117.706 13.6921 122.606 19.5936C127.505 25.4951 126.396 30.4589 125.232 32.2009C127.342 32.1235 131.266 33.629 130.041 40.2875C129.091 45.4448 127.385 47.4149 126.156 47.9698C127.626 47.931 128.709 49.2 125.232 54.5595C121.273 60.6545 117.263 57.6564 115.475 55.0369C115.196 55.424 114.332 56.0864 112.325 57.179C108.478 59.2738 105.913 54.8778 105.109 52.4217C104.963 53.5314 103.665 55.5144 99.642 54.5638C97.0031 53.9401 95.7223 52.1163 95.1765 50.4473C94.953 51.441 94.1063 52.3185 91.9875 52.4217C88.1409 52.6109 86.3014 48.5375 85.8673 46.4729C85.6481 47.7418 84.204 50.2796 80.1811 50.2796C76.1583 50.2796 74.7142 47.7418 74.495 46.4729C74.422 47.1095 73.7515 48.3268 71.6498 48.1375C69.5525 47.9482 69.0281 46.946 69.0281 46.4729V46.4815Z" fill="#FEF9DE"/>
<path d="M78.2687 104.812C78.0323 104.812 77.8389 104.619 77.8389 104.382V92.7686C77.8389 92.5321 78.0323 92.3385 78.2687 92.3385C78.505 92.3385 78.6984 92.5321 78.6984 92.7686V104.382C78.6984 104.619 78.505 104.812 78.2687 104.812Z" fill="black"/>
<path d="M78.6983 92.9837C78.5951 92.9837 78.492 92.945 78.406 92.8718C78.2298 92.7127 78.2212 92.4374 78.3803 92.2654L83.1079 87.1037C83.267 86.9274 83.5377 86.9188 83.7139 87.0779C83.8902 87.2371 83.8987 87.5123 83.7397 87.6844L79.012 92.846C78.9261 92.9364 78.81 92.9837 78.694 92.9837H78.6983Z" fill="black"/>
<path d="M77.8388 92.9837C77.7228 92.9837 77.6067 92.9364 77.5208 92.846L72.7931 87.6844C72.6341 87.508 72.6426 87.2371 72.8189 87.0779C72.9951 86.9188 73.2658 86.9274 73.4249 87.1037L78.1525 92.2654C78.3116 92.4417 78.303 92.7127 78.1268 92.8718C78.0451 92.9493 77.942 92.9837 77.8345 92.9837H77.8388Z" fill="black"/>
<path d="M82.9964 87.822C82.876 87.9769 82.7127 88.1575 82.5107 88.3511L78.2687 92.9837L74.0267 88.3511C73.8247 88.1575 73.6614 87.9769 73.541 87.822L74.0267 88.3511C74.8992 89.2028 76.4722 90.2996 78.2687 90.2996C80.0652 90.2996 81.6382 89.2028 82.5107 88.3511L82.9964 87.822Z" fill="black"/>
<path d="M78.2686 93.6203L73.7086 88.6393C73.5281 88.4629 73.3432 88.2651 73.2014 88.0844L73.8547 87.5295L74.3404 88.0586C74.7616 88.4715 76.3432 89.8695 78.2643 89.8695C80.1855 89.8695 81.7671 88.4715 82.2055 88.0414L82.674 87.5295L83.3273 88.0844C83.1854 88.2651 83.0049 88.4629 82.8029 88.6565L78.2643 93.616L78.2686 93.6203ZM76.5065 90.4201L78.2686 92.3471L80.0308 90.4201C79.4935 90.605 78.9004 90.7298 78.2686 90.7298C77.6369 90.7298 77.0438 90.6093 76.5065 90.4201Z" fill="black"/>
</svg>
