<svg width="153" height="105" viewBox="0 0 153 105" fill="none" xmlns="http://www.w3.org/2000/svg">
<path d="M129.217 52.5166C129.217 81.3788 117.948 104.778 76.5591 104.778C35.1704 104.778 23.9014 81.3788 23.9014 52.5166C23.9014 23.6544 42.5972 4.12616 76.5591 4.12616C110.521 4.12616 129.217 23.6544 129.217 52.5166Z" fill="#FFD7AC"/>
<path d="M116.529 52.0262C119.056 63.2657 119.757 77.0903 110.727 79.1249C101.697 81.1594 90.0457 76.3849 87.5185 65.1454C84.9914 53.9059 82.5716 40.0813 91.6015 38.0468C100.631 36.0122 114.002 40.7867 116.529 52.0262Z" fill="#B18174"/>
<path d="M76.3314 100.047C88.6745 100.047 98.6805 93.1139 98.6805 84.5618C98.6805 76.0097 88.6745 69.0769 76.3314 69.0769C63.9884 69.0769 53.9824 76.0097 53.9824 84.5618C53.9824 93.1139 63.9884 100.047 76.3314 100.047Z" fill="#DB9861"/>
<path d="M76.5977 96.4293C70.7526 96.4293 70.6537 91.6978 71.6551 86.7512C73.7181 84.3424 78.9615 85.749 81.3254 86.7512C81.97 91.6978 82.4428 96.4293 76.5977 96.4293Z" fill="black"/>
<path d="M76.5977 95.9992C70.7526 95.9992 70.6537 91.2677 71.6551 86.3212C73.7181 83.9124 78.9615 85.3189 81.3254 86.3212C81.97 91.2677 82.4428 95.9992 76.5977 95.9992Z" fill="#FF837B"/>
<path d="M104.268 76.8194C110.439 76.8194 115.442 72.0049 115.442 66.0659C115.442 60.127 110.439 55.3125 104.268 55.3125C98.096 55.3125 93.093 60.127 93.093 66.0659C93.093 72.0049 98.096 76.8194 104.268 76.8194Z" fill="black"/>
<path d="M49.2546 76.8194C55.4261 76.8194 60.4291 72.0049 60.4291 66.0659C60.4291 60.127 55.4261 55.3125 49.2546 55.3125C43.0831 55.3125 38.0801 60.127 38.0801 66.0659C38.0801 72.0049 43.0831 76.8194 49.2546 76.8194Z" fill="black"/>
<path d="M84.8155 87.7793C80.6552 87.7793 77.3759 86.5276 75.747 85.4609C75.2484 85.1382 75.1109 84.4715 75.4333 83.9726C75.7556 83.4736 76.4217 83.336 76.9203 83.6586C79.3228 85.2286 85.8814 87.233 93.4887 83.5897C94.0259 83.3317 94.6663 83.5596 94.9199 84.0973C95.1777 84.635 94.9499 85.2759 94.4127 85.5297C90.9572 87.1857 87.6736 87.775 84.8112 87.775L84.8155 87.7793Z" fill="black"/>
<path d="M67.1939 87.7793C63.0336 87.7793 59.7543 86.5276 58.1254 85.4609C57.6269 85.1382 57.4893 84.4715 57.8117 83.9726C58.134 83.4736 58.8002 83.336 59.2987 83.6586C61.7012 85.2286 68.2598 87.233 75.8671 83.5897C76.4043 83.3317 77.0447 83.5596 77.2983 84.0973C77.5561 84.635 77.3284 85.2759 76.7911 85.5297C73.3356 87.1857 70.052 87.775 67.1896 87.775L67.1939 87.7793Z" fill="black"/>
<path d="M51.1884 63.9152C52.2566 63.9152 53.1225 63.0486 53.1225 61.9796C53.1225 60.9106 52.2566 60.044 51.1884 60.044C50.1203 60.044 49.2544 60.9106 49.2544 61.9796C49.2544 63.0486 50.1203 63.9152 51.1884 63.9152Z" fill="white"/>
<path d="M106.202 63.9152C107.27 63.9152 108.136 63.0486 108.136 61.9796C108.136 60.9106 107.27 60.044 106.202 60.044C105.133 60.044 104.268 60.9106 104.268 61.9796C104.268 63.0486 105.133 63.9152 106.202 63.9152Z" fill="white"/>
<path d="M82.7782 74.8838C82.7782 77.3785 79.89 82.4112 76.3314 82.4112C72.7727 82.4112 69.8845 77.3785 69.8845 74.8838C69.8845 72.389 72.7727 70.3673 76.3314 70.3673C79.89 70.3673 82.7782 72.389 82.7782 74.8838Z" fill="black"/>
<path d="M133.944 58.0654C127.476 41.1266 110.891 18.5659 103.408 9.40825C144.363 -0.682767 153.405 25.3276 152.808 39.5953C152.21 53.8629 140.413 75.0085 133.944 58.0697V58.0654Z" fill="#B18174"/>
<path d="M19.1479 58.0654C25.6162 41.1266 42.2018 18.5659 49.6844 9.40825C8.72981 -0.682767 -0.312945 25.3276 0.284461 39.5953C0.881867 53.8629 12.6796 75.0085 19.1479 58.0697V58.0654Z" fill="#B18174"/>
<path d="M76.1165 92.7345C76.1165 92.8549 76.211 92.9496 76.3313 92.9496C76.4517 92.9496 76.5462 92.8549 76.5462 92.7345H76.1165ZM76.1165 85.8523V92.7345H76.5462V85.8523H76.1165Z" fill="#94255F"/>
<path d="M49.9508 14.2946C49.925 14.4366 49.6843 15.684 49.4909 16.1915C49.3319 15.9851 49.1815 15.856 49.0869 15.9378C48.6614 16.3249 48.0683 16.8066 47.5654 17.1378C46.6156 17.7658 48.5411 17.4475 48.9107 17.426C50.0668 17.3486 51.1628 17.383 52.3232 17.1722C53.8017 16.9013 55.1813 16.2732 56.6727 16.0625C58.9506 15.7399 61.2585 15.5248 63.5579 15.7657C65.4103 15.9592 67.2197 15.6969 69.0678 15.7399C71.7625 15.8044 74.453 15.7184 77.1435 15.8044C83.5646 16.0066 89.977 15.2366 96.398 15.5377C97.855 15.6065 99.3507 15.9334 100.808 15.8646C101.194 15.8474 101.972 15.8431 102.149 15.4646C102.471 14.7764 102.269 14.4193 102.226 13.7698C102.179 13.0601 102.033 12.3719 101.964 11.688C101.886 10.9482 101.629 10.0836 101.693 9.36094C101.732 8.92219 101.861 8.49638 101.852 8.06194C101.848 7.89849 102.342 6.91776 102.204 6.89195C101.547 6.75001 100.498 7.12424 99.7891 7.17155C98.4653 7.25758 96.6817 7.57158 95.633 8.43616C95.5943 8.46626 95.6545 5.98868 95.7061 5.53703C95.7791 4.90043 95.9339 3.99713 95.7791 3.37343C95.6846 3.00351 95.0614 3.49817 94.8981 3.61431C93.57 4.54771 91.6231 4.72406 90.0758 5.05956C89.1002 5.27033 88.4126 5.82521 87.596 6.34997C87.0244 6.71989 87.3295 6.54785 87.6389 6.03598C88.1117 5.24883 88.4469 4.46598 89.0529 3.75195C89.242 3.52398 90.669 1.67009 90.4154 1.65719C87.9054 1.52815 85.4814 1.15822 83.0015 2.0486C81.3898 2.62498 79.7351 3.30462 78.2481 4.16059C77.6936 4.47889 77.1822 4.83159 76.6621 5.19721C76.3011 5.45099 75.8155 6.47042 75.6479 6.05748C75.5791 5.88973 76.4 4.76278 76.4215 4.72407C76.7825 4.11327 78.1363 2.81426 78.1277 2.14755C78.1277 2.00991 76.271 2.45725 76.2023 2.47015C74.7754 2.70673 73.37 3.03362 71.9216 3.12825C69.893 3.26159 67.9804 3.67453 65.9905 4.04875C65.8959 4.06596 63.906 4.71976 64.2455 4.25521C64.5378 3.85088 64.5507 3.17126 64.8043 2.72392L64.8215 2.69381C65.2642 1.90666 65.6553 1.22275 66.1882 0.47431C67.0478 -0.734376 64.5034 0.835621 64.2498 1.00768C62.0407 2.48735 59.9606 3.9025 58.6368 6.25105C58.4004 6.66828 58.2715 7.52856 57.8976 7.16294C57.5365 6.81023 57.3517 6.0704 57.2056 5.61446C56.9735 4.90043 57.0552 4.26382 57.0079 3.56269C56.9735 3.06803 56.6856 3.47237 56.4879 3.67884C54.7214 5.55424 52.7874 7.29628 51.5195 9.576C50.69 11.06 50.2688 12.6515 49.9594 14.2989L49.9508 14.2946Z" fill="#FFD7AC"/>
<path d="M86.8351 80.4025C86.8136 80.4025 86.7922 80.4025 86.7664 80.4025C86.5214 80.381 86.212 80.2003 86.1475 79.7701C86.0959 79.4174 86.3409 79.0905 86.6933 79.0389C87.0457 78.9873 87.3724 79.2325 87.4239 79.5852C87.3982 79.4217 87.2262 79.1679 86.9125 79.1206C86.6589 79.0819 86.4483 79.2067 86.3452 79.3314L87.5529 79.7228C87.4927 79.8992 87.3294 80.4025 86.8308 80.4025H86.8351Z" fill="black"/>
<path d="M87.897 77.0044C87.7981 77.0044 87.7079 76.9828 87.6219 76.9441C87.5746 76.9441 87.5317 76.9355 87.4844 76.9226C87.364 76.8925 87.0761 76.7764 86.96 76.3807C86.8612 76.0365 87.0589 75.6795 87.4027 75.5806C87.4758 75.5591 87.5532 75.5505 87.6262 75.5591C87.8282 75.4817 88.0001 75.5247 88.1033 75.5677C88.3955 75.6882 88.5417 75.9548 88.5417 76.3592C88.5417 76.7162 88.2537 77.0044 87.897 77.0044Z" fill="black"/>
<path d="M90.7336 79.8475C90.3768 79.8475 90.0889 79.5593 90.0889 79.2023V78.7292C90.0889 78.3722 90.3768 78.084 90.7336 78.084C91.0903 78.084 91.3782 78.3722 91.3782 78.7292V79.2023C91.3782 79.5593 91.0903 79.8475 90.7336 79.8475Z" fill="black"/>
<path d="M67.2199 80.7938C66.8632 80.7938 66.5752 80.5056 66.5752 80.1486V79.9894C66.5752 79.6324 66.8632 79.3442 67.2199 79.3442C67.5766 79.3442 67.8646 79.6324 67.8646 79.9894V80.1486C67.8646 80.5056 67.5766 80.7938 67.2199 80.7938Z" fill="black"/>
<path d="M62.9604 80.7938C62.6036 80.7938 62.3157 80.5056 62.3157 80.1486C62.3157 79.8475 62.522 79.5937 62.8013 79.5249L62.8357 79.4346C62.9689 79.1034 63.3429 78.9442 63.6738 79.0776C64.0047 79.2109 64.1638 79.5852 64.0305 79.9164L63.9918 80.0196C63.8973 80.2734 63.6996 80.7981 62.9604 80.7981V80.7938Z" fill="black"/>
<path d="M66.4333 77.3183C66.0765 77.3183 65.7886 77.0301 65.7886 76.6731V76.3548C65.7886 75.9978 66.0765 75.7096 66.4333 75.7096C66.79 75.7096 67.0779 75.9978 67.0779 76.3548V76.6731C67.0779 77.0301 66.79 77.3183 66.4333 77.3183Z" fill="black"/>
</svg>
