<svg width="107" height="137" viewBox="0 0 107 137" fill="none" xmlns="http://www.w3.org/2000/svg">
<path d="M103.664 29.5298C99.8347 36.1711 91.3464 38.4466 84.7105 34.614C78.0745 30.7815 75.8009 22.2863 79.6303 15.645C83.4641 9.00368 96.4523 4.21196 104.489 0.32782C106.38 7.39067 107.498 22.8928 103.664 29.5341V29.5298Z" fill="#7D5436"/>
<path d="M3.44609 29.5298C7.27981 36.1711 15.7638 38.4466 22.3998 34.614C29.0357 30.7815 31.3093 22.2863 27.4799 15.645C23.6505 9.00368 10.658 4.21196 2.6209 0.32782C0.729833 7.39067 -0.383327 22.8928 3.44609 29.5341V29.5298Z" fill="#7D5436"/>
<path d="M102.607 25.7318C100.041 30.1751 94.2392 31.6246 89.6404 28.9707C85.0417 26.3124 83.3956 20.5572 85.9571 16.1139C88.523 11.6705 97.3938 8.56927 102.874 6.02716C104.245 10.8146 105.169 21.2884 102.607 25.7318Z" fill="#DB9861"/>
<path d="M4.5033 25.7318C7.06913 30.1751 12.8713 31.6246 17.47 28.9707C22.0688 26.3124 23.7148 20.5572 21.1533 16.1139C18.5918 11.6705 9.71664 8.56927 4.23683 6.02716C2.8658 10.8146 1.94176 21.2884 4.5033 25.7318Z" fill="#DB9861"/>
<path d="M106.217 63.7086C106.217 92.5708 98.2661 129.95 53.9979 129.95C9.72966 129.95 1.77856 92.5708 1.77856 63.7086C1.77856 34.8464 25.1591 11.4469 53.9979 11.4469C82.8367 11.4469 106.217 34.8464 106.217 63.7086Z" fill="#B66C1A"/>
<path d="M91.2391 116.904C91.2391 125.235 89.1804 132.212 67.1065 134.014C63.4791 134.311 59.4305 136.402 54.6426 136.402C50.9034 136.402 47.3964 134.372 44.3277 134.187C19.5761 132.711 15.6651 125.532 15.6651 116.904C15.6651 107.204 11.1566 94.4634 54.5266 94.4634C97.8965 94.4634 91.2391 107.204 91.2391 116.904Z" fill="#DB9861"/>
<path d="M54.952 132.956C50.8991 132.956 47.71 131.743 46.1241 130.707C45.8276 130.513 45.7416 130.113 45.935 129.812C46.1284 129.515 46.5281 129.429 46.829 129.623C49.3046 131.24 56.0436 133.309 63.8185 129.58C64.1409 129.425 64.5234 129.563 64.6781 129.885C64.8328 130.208 64.6953 130.591 64.373 130.745C60.9776 132.371 57.7585 132.952 54.952 132.952V132.956Z" fill="black"/>
<path d="M82.1489 88.0113C88.3204 88.0113 93.3234 83.1968 93.3234 77.2578C93.3234 71.3189 88.3204 66.5044 82.1489 66.5044C75.9774 66.5044 70.9744 71.3189 70.9744 77.2578C70.9744 83.1968 75.9774 88.0113 82.1489 88.0113Z" fill="black"/>
<path d="M84.9982 107.152C83.8421 113.609 78.5772 117.579 73.6819 116.701C68.7866 115.82 65.228 110.271 66.3841 103.81C67.5402 97.3495 72.8051 93.3794 77.7004 94.2612C82.5957 95.1387 86.1544 100.692 84.9939 107.152H84.9982Z" fill="#6A4424"/>
<path d="M75.0703 118.547C74.5072 118.547 73.9442 118.499 73.3769 118.396C67.3126 117.304 63.4144 110.624 64.6909 103.509C65.3141 100.042 67.0375 97.0012 69.5561 94.9494C72.0488 92.9192 75.1261 92.0503 78.0057 92.5707C80.8853 93.0869 83.4726 94.9709 85.1015 97.741C86.7476 100.537 87.3106 103.987 86.6874 107.458C85.5313 113.91 80.5157 118.547 75.0703 118.547ZM76.3467 95.8613C74.7608 95.8613 73.1276 96.4721 71.7265 97.6162C69.8483 99.1475 68.5547 101.453 68.0776 104.116C67.1364 109.368 69.7882 114.254 73.9872 115.011C78.1905 115.764 82.3681 112.103 83.3093 106.851C83.7864 104.193 83.3738 101.578 82.1446 99.4874C81.0228 97.5819 79.2951 96.2957 77.404 95.9559C77.0602 95.8957 76.7078 95.8613 76.351 95.8613H76.3467Z" fill="#DB9861"/>
<path d="M23.8354 107.152C24.9916 113.609 30.2565 117.579 35.1518 116.701C40.0471 115.82 43.6057 110.271 42.4453 103.81C41.2891 97.3495 36.0242 93.3794 31.1289 94.2612C26.2336 95.1387 22.675 100.692 23.8311 107.152H23.8354Z" fill="#6A4424"/>
<path d="M33.7635 118.547C28.3181 118.547 23.2982 113.91 22.1421 107.458C21.5189 103.991 22.0862 100.537 23.728 97.741C25.3569 94.9709 27.9442 93.0826 30.8238 92.5664C33.6991 92.046 36.7806 92.9149 39.2734 94.9494C41.7877 97.0012 43.5154 100.038 44.1343 103.509C45.4108 110.628 41.5169 117.304 35.4526 118.396C34.8853 118.499 34.318 118.547 33.7593 118.547H33.7635ZM25.5288 106.847C26.47 112.099 30.6562 115.759 34.8509 115.007C39.0499 114.25 41.6974 109.363 40.7562 104.111C40.2791 101.453 38.9812 99.1432 37.1073 97.6119C35.3924 96.214 33.3295 95.6118 31.4384 95.9516C29.5473 96.2914 27.8195 97.5776 26.6978 99.4831C25.4686 101.569 25.056 104.184 25.5331 106.847H25.5288Z" fill="#DB9861"/>
<path d="M27.1362 88.0113C33.3077 88.0113 38.3107 83.1968 38.3107 77.2578C38.3107 71.3189 33.3077 66.5044 27.1362 66.5044C20.9647 66.5044 15.9617 71.3189 15.9617 77.2578C15.9617 83.1968 20.9647 88.0113 27.1362 88.0113Z" fill="black"/>
<path d="M27.136 84.1401C31.1712 84.1401 34.4424 81.0588 34.4424 77.2579C34.4424 73.4569 31.1712 70.3757 27.136 70.3757C23.1008 70.3757 19.8296 73.4569 19.8296 77.2579C19.8296 81.0588 23.1008 84.1401 27.136 84.1401Z" fill="black"/>
<path d="M29.0703 75.1072C30.1384 75.1072 31.0043 74.2406 31.0043 73.1716C31.0043 72.1026 30.1384 71.236 29.0703 71.236C28.0021 71.236 27.1362 72.1026 27.1362 73.1716C27.1362 74.2406 28.0021 75.1072 29.0703 75.1072Z" fill="white"/>
<path d="M84.083 75.1072C85.1511 75.1072 86.017 74.2406 86.017 73.1716C86.017 72.1026 85.1511 71.236 84.083 71.236C83.0148 71.236 82.1489 72.1026 82.1489 73.1716C82.1489 74.2406 83.0148 75.1072 84.083 75.1072Z" fill="white"/>
<path d="M54.2127 63.7085C43.3821 51.6647 42.0368 24.7811 43.8978 12.7373C49.7 10.3715 65.1723 11.877 66.8915 13.1674C68.0949 53.9444 58.7255 62.4181 58.2957 63.7085C57.0064 65.6442 54.2127 63.7085 54.2127 63.7085Z" fill="#D9D9D9"/>
<path d="M42.5654 45.4277C19.8166 38.5584 24.6475 23.4606 30.1445 15.7482C43.4249 7.04227 76.3768 7.35197 81.0744 16.1784C81.0744 16.1784 81.7965 16.944 82.3638 18.5441C83.5973 22.024 81.2807 30.5579 82.7162 34.9324C72.0102 35.8873 68.2194 28.4932 67.6607 24.6736C60.7798 25.8178 59.3744 36.4422 59.5377 41.6081C46.1541 38.5541 45.2 30.4761 46.3948 26.82C38.1729 29.3019 40.4207 40.2575 42.5697 45.4277H42.5654Z" fill="#E0A644"/>
</svg>
