<svg width="185" height="138" viewBox="0 0 185 138" fill="none" xmlns="http://www.w3.org/2000/svg">
<mask id="mask0_747_9888" style="mask-type:luminance" maskUnits="userSpaceOnUse" x="0" y="0" width="185" height="138">
<path d="M184.994 0H0.855469V137.141H184.994V0Z" fill="white"/>
</mask>
<g mask="url(#mask0_747_9888)">
<path d="M11.3595 31.5763C11.3595 31.5763 -12.2789 60.5891 11.3595 73.4416C34.9978 86.2941 22.1042 99.1466 36.717 101.168C51.3298 103.19 56.0575 81.154 56.0575 81.154C56.0575 81.154 40.5851 49.5733 48.3213 33.7829C56.0575 17.9926 56.0575 19.4594 56.0575 19.4594C56.0575 19.4594 44.883 6.97249 11.3595 31.5763Z" fill="#758481"/>
<path d="M11.3594 31.185C11.3594 31.185 36.2871 3.22606 54.768 16.5603C54.768 16.5603 44.0233 28.6042 46.1723 48.8206C46.1723 48.8206 44.8829 18.711 11.3594 31.185Z" fill="#5A6964"/>
<path d="M52.1892 22.1521C52.1892 22.1521 37.1466 11.3987 11.7891 31.185C11.7891 31.185 25.5423 8.81787 40.1551 8.81787C54.7679 8.81787 62.0743 15.2699 62.0743 15.2699L52.1892 22.1521Z" fill="#949A90"/>
<path d="M174.49 28.9957C174.49 28.9957 198.128 58.0084 174.49 70.8609C150.852 83.7134 163.745 96.5659 149.132 98.5876C134.52 100.609 129.792 78.5733 129.792 78.5733C129.792 78.5733 145.264 46.9926 137.528 31.2023C129.792 15.4119 129.792 16.8787 129.792 16.8787C129.792 16.8787 140.966 4.3918 174.49 28.9957Z" fill="#758481"/>
<path d="M175.78 31.185C175.78 31.185 150.852 3.22606 132.371 16.5603C132.371 16.5603 143.116 28.6042 140.967 48.8206C140.967 48.8206 142.256 18.711 175.78 31.185Z" fill="#5A6964"/>
<path d="M135.809 22.1521C135.809 22.1521 150.852 11.3987 176.209 31.185C176.209 31.185 162.456 8.81787 147.843 8.81787C133.23 8.81787 125.924 15.2699 125.924 15.2699L135.809 22.1521Z" fill="#949A90"/>
<path d="M145.883 52.2617C145.883 81.1239 136.858 104.523 93.6642 104.523C50.4704 104.523 41.4448 81.1239 41.4448 52.2617C41.4448 23.3995 64.8253 0 93.6642 0C122.503 0 145.883 23.3995 145.883 52.2617Z" fill="#949A90"/>
<path d="M122.245 76.5644C128.417 76.5644 133.419 71.7511 133.419 65.8109C133.419 59.8707 128.417 55.0575 122.245 55.0575C116.073 55.0575 111.07 59.8707 111.07 65.8109C111.07 71.7511 116.073 76.5644 122.245 76.5644Z" fill="black"/>
<path d="M67.2321 76.5644C73.4039 76.5644 78.4066 71.7511 78.4066 65.8109C78.4066 59.8707 73.4039 55.0575 67.2321 55.0575C61.0604 55.0575 56.0576 59.8707 56.0576 65.8109C56.0576 71.7511 61.0604 76.5644 67.2321 76.5644Z" fill="black"/>
<path d="M67.2319 72.6932C71.2677 72.6932 74.5384 69.6134 74.5384 65.811C74.5384 62.0086 71.2677 58.9288 67.2319 58.9288C63.1962 58.9288 59.9255 62.0086 59.9255 65.811C59.9255 69.6134 63.1962 72.6932 67.2319 72.6932Z" fill="black"/>
<path d="M69.166 63.6603C70.2362 63.6603 71.1 62.7957 71.1 61.7247C71.1 60.6536 70.2362 59.7891 69.166 59.7891C68.0958 59.7891 67.2319 60.6536 67.2319 61.7247C67.2319 62.7957 68.0958 63.6603 69.166 63.6603Z" fill="white"/>
<path d="M124.179 63.6603C125.249 63.6603 126.113 62.7957 126.113 61.7247C126.113 60.6536 125.249 59.7891 124.179 59.7891C123.109 59.7891 122.245 60.6536 122.245 61.7247C122.245 62.7957 123.109 63.6603 124.179 63.6603Z" fill="white"/>
<path d="M72.3035 85.3909C74.3707 91.0601 76.4424 96.7293 78.5096 102.394C79.6443 105.504 80.7961 108.734 80.5382 112.038C80.2804 115.341 78.183 118.739 74.9424 119.41C71.7018 120.081 68.0314 116.709 69.2348 113.625C69.9396 111.823 69.4841 109.956 68.0916 108.614C67.7348 108.266 63.4241 108.704 62.9341 108.614C57.2394 107.556 53.5389 109.943 49.6106 114.206C48.2052 115.733 49.8384 118.163 50.0404 120.228C50.1823 121.673 52.9458 123.738 53.9343 124.8C65.4097 137.154 86.9679 141.33 101.185 132.272C101.185 132.272 126.302 121.389 109.609 85.3952C99.0363 62.5893 72.2992 85.3952 72.2992 85.3952H72.3035V85.3909Z" fill="#949A90"/>
<path d="M115.338 99.2756C115.089 99.7703 117.522 103.448 121.819 103.878C126.117 104.308 120.53 96.1356 120.53 96.1356C120.53 96.1356 117.883 94.2387 115.338 99.2756Z" fill="#FEFFCF"/>
<path d="M76.5757 100.566C76.825 101.061 74.3923 104.738 70.0945 105.169C65.7966 105.599 71.3838 97.4262 71.3838 97.4262C71.3838 97.4262 74.0314 95.5293 76.5757 100.566Z" fill="#FEFFCF"/>
<path d="M108.466 99.2284C102.243 96.51 95.0351 96.6132 88.829 99.336C87.0754 100.106 85.4422 101.104 83.9294 102.274C83.65 102.489 83.7059 102.958 83.9294 103.186C84.2001 103.461 84.5655 103.396 84.8405 103.186C89.8089 99.3403 96.4749 97.7746 102.651 98.8198C104.422 99.1209 106.167 99.6199 107.817 100.342C108.569 100.674 109.227 99.5596 108.466 99.2284Z" fill="#858981"/>
<path d="M107.28 109.483C105.66 108.412 103.717 108.171 101.826 108.003C99.9519 107.835 98.0695 107.698 96.187 107.685C92.4349 107.663 88.6141 108.188 85.3219 110.089C84.6042 110.507 85.2532 111.621 85.9709 111.203C89.0697 109.41 92.6584 108.954 96.187 108.975C97.9491 108.984 99.7112 109.109 101.469 109.259C103.227 109.41 105.096 109.582 106.631 110.593C107.327 111.048 107.972 109.934 107.28 109.479V109.483Z" fill="#858981"/>
</g>
</svg>
