<svg width="106" height="125" viewBox="0 0 106 125" fill="none" xmlns="http://www.w3.org/2000/svg">
<path d="M105.068 64.5166C105.068 93.3788 96.0425 116.778 52.8487 116.778C9.65496 116.778 0.629395 93.3788 0.629395 64.5166C0.629395 35.6544 24.0099 12.2549 52.8487 12.2549C81.6875 12.2549 105.068 35.6544 105.068 64.5166Z" fill="#A46C44"/>
<path d="M80.9999 88.8194C87.1715 88.8194 92.1745 84.0049 92.1745 78.066C92.1745 72.127 87.1715 67.3126 80.9999 67.3126C74.8284 67.3126 69.8254 72.127 69.8254 78.066C69.8254 84.0049 74.8284 88.8194 80.9999 88.8194Z" fill="black"/>
<path d="M25.9868 88.8194C32.1583 88.8194 37.1613 84.0049 37.1613 78.066C37.1613 72.127 32.1583 67.3126 25.9868 67.3126C19.8153 67.3126 14.8123 72.127 14.8123 78.066C14.8123 84.0049 19.8153 88.8194 25.9868 88.8194Z" fill="black"/>
<path d="M25.9868 84.9482C30.022 84.9482 33.2932 81.8669 33.2932 78.066C33.2932 74.265 30.022 71.1838 25.9868 71.1838C21.9516 71.1838 18.6804 74.265 18.6804 78.066C18.6804 81.8669 21.9516 84.9482 25.9868 84.9482Z" fill="black"/>
<path d="M27.9211 75.9153C28.9893 75.9153 29.8552 75.0487 29.8552 73.9797C29.8552 72.9107 28.9893 72.0441 27.9211 72.0441C26.853 72.0441 25.9871 72.9107 25.9871 73.9797C25.9871 75.0487 26.853 75.9153 27.9211 75.9153Z" fill="white"/>
<path d="M82.9338 75.9153C84.002 75.9153 84.8679 75.0487 84.8679 73.9797C84.8679 72.9107 84.002 72.0441 82.9338 72.0441C81.8657 72.0441 80.9998 72.9107 80.9998 73.9797C80.9998 75.0487 81.8657 75.9153 82.9338 75.9153Z" fill="white"/>
<path d="M40.991 113.337C43.054 107.831 46.1485 102.726 45.7187 101.293H59.257C58.6123 104.016 62.0077 109.939 63.5549 111.832C65.489 114.198 67.6379 123.445 60.7613 124.306C53.8847 125.166 54.0996 115.918 51.7357 120.004C49.3719 124.091 38.4123 120.219 40.991 113.337Z" fill="#E72323"/>
<path d="M52.6337 114.628C51.3443 114.628 39.4521 99.4309 38.4507 97.4221L66.6018 98.7125C65.7423 100.575 53.9231 114.628 52.6337 114.628Z" fill="#D68123"/>
<path d="M46.7498 94.8413C44.8587 97.078 38.6956 96.6866 38.154 97.8523C37.4062 100.558 50.5362 112.907 52.7668 112.907C54.9974 112.907 69.0988 97.8523 66.735 97.8523C64.3711 97.8523 59.9701 96.9017 58.2509 94.5359C56.8756 92.6433 54.2453 92.2605 52.423 92.2605C50.6007 92.2605 48.6452 92.6046 46.7541 94.8413H46.7498Z" fill="#FB9728"/>
<path d="M55.8571 98.7126C56.2131 98.7126 56.5018 97.846 56.5018 96.777C56.5018 95.708 56.2131 94.8414 55.8571 94.8414C55.501 94.8414 55.2124 95.708 55.2124 96.777C55.2124 97.846 55.501 98.7126 55.8571 98.7126Z" fill="#D68123"/>
<path d="M49.84 98.7126C50.196 98.7126 50.4847 97.846 50.4847 96.777C50.4847 95.708 50.196 94.8414 49.84 94.8414C49.4839 94.8414 49.1953 95.708 49.1953 96.777C49.1953 97.846 49.4839 98.7126 49.84 98.7126Z" fill="#D68123"/>
<path d="M65.7423 34.1919C59.8972 33.8478 61.6593 46.4509 53.0635 46.4509C44.4678 46.4509 50.055 24.5139 51.7742 18.9221C55.4102 7.0933 51.7742 12.47 46.1869 8.59878C43.0967 6.45669 44.8116 -1.42342 53.0635 1.50151C59.231 3.68661 58.1007 12.8227 55.6981 20.3501C57.7482 15.8982 60.6622 10.986 64.0232 8.59878C70.6849 3.86727 72.404 17.8467 64.0232 20.8577C57.3184 23.2665 53.9231 32.9015 53.0635 37.418C53.7813 34.549 57.3184 28.4711 65.7423 27.0947C76.2721 25.3741 73.0487 34.6221 65.7423 34.1919Z" fill="#E72323"/>
</svg>
