<svg width="130" height="124" viewBox="0 0 130 124" fill="none" xmlns="http://www.w3.org/2000/svg">
<path d="M118.196 37.7933C103.445 52.5556 95.103 49.9318 88.3381 43.1657C81.5775 36.3997 82.9657 34.6189 93.7061 13.2841C103.093 -5.35808 117.89 -0.0888851 124.651 6.68148C131.412 13.4475 132.942 23.031 118.191 37.7933H118.196Z" fill="#99554A"/>
<path d="M15.7428 42.2667C30.4931 57.029 38.8353 54.4051 45.6002 47.6391C52.3608 40.873 50.9511 37.7459 40.2321 17.7575C30.3685 -0.639509 16.0479 4.38448 9.28735 11.1548C2.52677 17.9209 0.996735 27.5044 15.7471 42.2667H15.7428Z" fill="#99554A"/>
<path d="M124.556 73.4473C118.664 41.8839 98.954 12.7507 67.3774 12.7507C35.8009 12.7507 15.3945 40.4988 10.1983 73.4473C5.27294 104.667 34.0645 116.108 65.6454 116.108C97.2262 116.108 130.359 104.516 124.556 73.4473Z" fill="#FAB05B"/>
<path d="M91.1017 80.2736C96.7842 80.2736 101.391 75.8405 101.391 70.3719C101.391 64.9033 96.7842 60.4701 91.1017 60.4701C85.4191 60.4701 80.8125 64.9033 80.8125 70.3719C80.8125 75.8405 85.4191 80.2736 91.1017 80.2736Z" fill="black"/>
<path d="M92.8809 69.3825C93.8636 69.3825 94.6602 68.5852 94.6602 67.6018C94.6602 66.6183 93.8636 65.821 92.8809 65.821C91.8982 65.821 91.1016 66.6183 91.1016 67.6018C91.1016 68.5852 91.8982 69.3825 92.8809 69.3825Z" fill="white"/>
<path d="M42.815 80.2736C48.4976 80.2736 53.1042 75.8405 53.1042 70.3719C53.1042 64.9033 48.4976 60.4701 42.815 60.4701C37.1325 60.4701 32.5259 64.9033 32.5259 70.3719C32.5259 75.8405 37.1325 80.2736 42.815 80.2736Z" fill="black"/>
<path d="M44.5945 67.3996C45.5772 67.3996 46.3738 66.6023 46.3738 65.6188C46.3738 64.6353 45.5772 63.838 44.5945 63.838C43.6118 63.838 42.8152 64.6353 42.8152 65.6188C42.8152 66.6023 43.6118 67.3996 44.5945 67.3996Z" fill="white"/>
<path d="M65.048 28.326C65.1899 25.9731 67.3045 25.4655 69.2514 26.8205C71.1983 28.1754 73.1195 39.4708 73.4848 43.6431C74.1252 50.9727 74.9332 58.0656 75.8271 65.3694C76.7469 72.8925 77.585 81.1855 83.1249 86.416C90.8826 93.7412 105.001 89.0699 112.411 96.7436C113.808 98.1889 114.577 102.916 114.56 104.916C114.538 107.48 112.608 109.57 110.558 111.136C105.912 114.68 100.05 116.199 94.3639 117.631C92.3611 118.134 80.1809 123.434 67.717 123.412C54.8577 123.391 41.7062 118.04 39.7077 118.074C34.8812 118.156 29.8656 117.261 25.9545 114.461C22.0434 111.661 19.5119 106.654 20.6465 102.008C21.8414 97.1221 26.5476 93.8875 31.2581 92.0035C35.9642 90.1195 41.0873 89.0785 45.3121 86.2912C51.9739 81.8952 57.4752 73.856 56.3964 66.0017C55.683 60.8185 56.7789 50.1683 57.3032 42.2581C57.4752 39.6601 58.4852 26.0161 60.7502 24.6913C63.0151 23.3665 65.0567 27.4011 65.0567 28.3302" fill="#F3EEEB"/>
<path d="M77.1637 92.8595C77.1637 96.0855 69.8659 99.6772 67.4333 99.6772C64.0294 99.6772 57.7029 96.0855 57.7029 92.8595C57.7029 89.6335 58.6742 87.0182 67.4333 87.0182C76.1924 87.0182 77.1637 89.6335 77.1637 92.8595Z" fill="#F3A082"/>
<path d="M64.5279 105.23C64.5279 105.23 64.3002 111.768 65.4907 111.768H69.9562C69.9562 111.768 70.6352 111.373 70.6352 110.581V105.14L67.4677 104L64.5279 105.235V105.23Z" fill="white"/>
<path d="M72.0018 105.462C68.9932 105.462 67.4073 104.254 67.2999 104.168L67.2183 104.103V99.6857H67.6481V103.888C68.2669 104.301 72.3456 106.671 79.4371 102.912L79.6391 103.29C76.5103 104.951 73.9573 105.462 72.0018 105.462Z" fill="black"/>
<path d="M62.8948 105.463C60.9435 105.463 58.3906 104.951 55.2617 103.29L55.4637 102.912C62.5724 106.684 66.6382 104.306 67.2528 103.893V99.6901H67.6826V104.108L67.6009 104.172C67.4935 104.258 65.9033 105.467 62.8991 105.467L62.8948 105.463Z" fill="black"/>
<path d="M85.334 92.2831L85.1277 92.2272C85.1363 92.1928 86.1377 88.7 91.2694 85.616C95.9885 82.7814 105.276 79.7016 122.734 81.1511L122.717 81.3662C105.336 79.9252 96.0959 82.9749 91.4069 85.788C86.3354 88.8291 85.3469 92.253 85.3383 92.2874L85.334 92.2831Z" fill="black"/>
<path d="M127.29 95.0703C111.035 88.7516 101.305 89.0527 96.0101 90.4162C90.2853 91.8916 88.3641 94.894 88.3469 94.9241L88.1621 94.8122C88.1793 94.7821 90.1305 91.7195 95.9284 90.2184C101.258 88.8376 111.035 88.528 127.363 94.8725L127.286 95.0746L127.29 95.0703Z" fill="black"/>
<path d="M125.545 112.168C111.736 101.51 102.319 99.0492 96.8567 98.8599C90.9385 98.6534 88.2609 100.993 88.2351 101.015L88.0933 100.856C88.119 100.83 90.8482 98.4341 96.8395 98.6448C102.341 98.8298 111.809 101.295 125.678 111.996L125.549 112.168H125.545Z" fill="black"/>
<path d="M42.5571 92.2831C42.5485 92.2487 41.5599 88.8248 36.4884 85.7837C31.7951 82.9706 22.5546 79.921 5.17829 81.3619L5.16113 81.1468C22.6192 79.7016 31.9069 82.7771 36.6259 85.6117C41.7576 88.6958 42.7591 92.1885 42.7676 92.2229L42.5613 92.2788L42.5571 92.2831Z" fill="black"/>
<path d="M0.601067 95.0703L0.523682 94.8682C16.8514 88.5237 26.6291 88.8376 31.9584 90.2141C37.7563 91.7152 39.7032 94.7778 39.7247 94.808L39.5399 94.9198C39.5227 94.8897 37.6058 91.8873 31.8768 90.412C26.5818 89.0484 16.8557 88.7473 0.596765 95.066L0.601067 95.0703Z" fill="black"/>
<path d="M2.346 112.168L2.21704 111.996C16.0906 101.29 25.5589 98.8255 31.0559 98.6448C37.0386 98.4341 39.7763 100.83 39.8021 100.856L39.6602 101.015C39.6344 100.993 36.9526 98.6577 31.0387 98.8599C25.5718 99.0492 16.1594 101.514 2.346 112.168Z" fill="black"/>
<path d="M88.1533 20.5405C90.7879 18.3812 92.3266 14.9487 92.189 11.5463C94.8838 14.3508 95.8508 18.6909 94.6087 22.3772C98.1029 18.278 103.608 15.981 108.981 16.3811C104.885 18.2823 102.117 22.7385 102.216 27.2549C104.692 26.8936 107.128 26.2871 109.479 25.4398C108.826 28.2486 107.335 30.8552 105.255 32.8467C110.257 32.3606 115.054 29.982 118.475 26.2914C116.717 31.152 113.588 35.5093 109.544 38.7267C115.316 37.7847 121.969 37.3244 126.263 41.2989C121.376 40.9161 116.412 43.9744 114.547 48.5123C102.998 46.5294 93.8093 37.3159 88.3682 26.928C87.182 24.6655 86.2751 21.5298 88.192 19.8437" fill="#FAB05B"/>
<path d="M48.2561 23.1213C45.6215 20.962 44.0829 17.5295 44.2204 14.1271C41.5256 16.9316 40.5586 21.2717 41.8007 24.958C38.3065 20.8588 32.8009 18.5618 27.4285 18.9619C31.5244 20.8631 34.2922 25.3193 34.1934 29.8357C31.7178 29.4744 29.2809 28.8679 26.9299 28.0206C27.5832 30.8294 29.0746 33.436 31.1548 35.4275C26.1521 34.9415 21.3556 32.5628 17.9345 28.8722C19.6923 33.7328 22.8212 38.0901 26.8655 41.3075C21.0935 40.3655 14.4403 39.9053 10.1467 43.8797C15.0334 43.4969 19.9975 46.5552 21.8628 51.0931C33.4112 49.1102 42.6 39.8967 48.0412 29.5088C49.2274 27.2463 50.1343 24.1106 48.2174 22.4245" fill="#FAB05B"/>
</svg>
