<svg width="150" height="149" viewBox="0 0 150 149" fill="none" xmlns="http://www.w3.org/2000/svg">
<path d="M47.0969 1.05411C57.8029 0.314279 70.0132 6.2932 74.7796 9.37298C79.2107 1.23909 95.6974 -0.180364 103.386 0.129335C102.617 0.439034 101.358 1.51436 102.462 3.36395C103.571 5.21354 102.922 8.13849 102.462 9.37298C107.383 5.21355 118.15 -0.610504 121.841 9.37298C125.533 19.3565 139.991 28.3205 146.756 31.5594C147.496 37.4738 141.221 44.5023 137.989 47.2724C145.372 53.9266 145.678 68.2243 144.908 74.5387C142.888 72.2246 136.777 69.9492 132.152 68.5513C135.556 69.8761 139.076 72.4913 137.989 76.8486C136.514 82.7673 141.371 95.0305 143.988 100.42C139.557 104.119 131.684 101.345 128.301 99.4953C129.84 103.655 131.675 113.148 128.761 114.748C124.897 116.873 122.761 122.142 121.841 127.226C117.342 127.226 113.031 119.91 111.114 115.57C112.008 118.082 111.87 121.828 108.565 125.476C104.873 129.545 104.77 133.003 104.77 140.629C99.6042 143.589 92.7748 134.47 90.007 129.54C90.7763 131.541 91.0213 135.825 85.8552 136.934C80.6892 138.044 76.3182 145.098 74.7839 148.488C75.2438 145.868 74.7839 140.629 69.2482 140.629C63.7125 140.629 61.0951 134.16 60.4805 130.925C59.3717 137.58 49.869 140.169 45.2531 140.629C45.8677 139.244 46.0826 135.36 42.0254 130.925C38.2217 126.766 38.1702 119.849 38.6859 116.335C37.2848 123.617 30.5457 126.628 27.2621 127.226C27.1074 125.381 25.9685 120.482 22.6505 115.673C19.3282 110.868 20.0374 103.504 20.8067 100.42C18.2881 105.104 10.019 102.562 5.89734 100.579C5.78559 100.536 5.67815 100.48 5.5793 100.42C5.68245 100.472 5.78989 100.523 5.89734 100.579C7.49185 101.194 10.0792 99.8137 9.73106 89.7915C9.36144 79.0681 15.112 71.7644 18.0346 69.4546C15.0819 67.605 8.49756 72.6892 5.5793 75.4636C1.51779 65.85 8.80701 52.662 12.9631 47.2724C7.05777 45.4228 4.04066 36.0243 3.27563 31.5594C5.73832 31.0992 11.1193 29.155 12.9631 25.0902C23.6648 1.42834 40.1859 4.75331 47.1055 9.37729C45.2617 7.5277 46.3362 3.06286 47.1055 1.05842L47.0969 1.05411Z" fill="#67422D"/>
<path d="M139.301 35.2323C144.879 25.563 142.569 13.7765 134.141 8.90657C125.713 4.03662 114.358 7.92733 108.78 17.5967C103.202 27.2661 105.513 39.0525 113.941 43.9225C122.369 48.7924 133.723 44.9017 139.301 35.2323Z" fill="#E0A03B"/>
<path d="M35.7208 43.9217C44.149 39.0518 46.4594 27.2653 40.8813 17.596C35.3032 7.92659 23.9489 4.03587 15.5208 8.90582C7.09262 13.7758 4.78219 25.5622 10.3603 35.2316C15.9384 44.901 27.2927 48.7917 35.7208 43.9217Z" fill="#E0A03B"/>
<path d="M136.383 35.1818C140.299 28.3926 138.642 20.0965 132.68 16.652C126.719 13.2074 118.711 15.9186 114.795 22.7078C110.878 29.4969 112.536 37.793 118.497 41.2376C124.459 44.6822 132.466 41.9709 136.383 35.1818Z" fill="#7D5436"/>
<path d="M31.1624 41.2346C37.1237 37.7901 38.7814 29.494 34.8649 22.7048C30.9483 15.9157 22.9407 13.2044 16.9793 16.649C11.018 20.0936 9.36028 28.3897 13.2768 35.1788C17.1934 41.968 25.201 44.6792 31.1624 41.2346Z" fill="#7D5436"/>
<path d="M126.186 69.5578C126.186 93.6584 109.889 113.948 87.7204 119.987C83.3365 121.183 79.3739 126.121 74.6118 126.121C69.8498 126.121 64.5977 121.183 60.2139 119.987C38.0454 113.948 21.7478 93.6584 21.7478 69.5578C21.7478 40.6956 45.1283 23.3181 73.9671 23.3181C102.806 23.3181 126.186 40.6956 126.186 69.5578Z" fill="#E0A03B"/>
<path d="M102.118 93.8605C108.29 93.8605 113.293 89.046 113.293 83.1071C113.293 77.1681 108.29 72.3536 102.118 72.3536C95.9468 72.3536 90.9438 77.1681 90.9438 83.1071C90.9438 89.046 95.9468 93.8605 102.118 93.8605Z" fill="black"/>
<path d="M47.1054 93.8605C53.2769 93.8605 58.2799 89.046 58.2799 83.1071C58.2799 77.1681 53.2769 72.3536 47.1054 72.3536C40.9339 72.3536 35.9309 77.1681 35.9309 83.1071C35.9309 89.046 40.9339 93.8605 47.1054 93.8605Z" fill="black"/>
<path d="M47.1055 89.9893C51.1407 89.9893 54.4119 86.908 54.4119 83.1071C54.4119 79.3062 51.1407 76.2249 47.1055 76.2249C43.0703 76.2249 39.7991 79.3062 39.7991 83.1071C39.7991 86.908 43.0703 89.9893 47.1055 89.9893Z" fill="black"/>
<path d="M49.0395 80.9564C50.1077 80.9564 50.9736 80.0898 50.9736 79.0208C50.9736 77.9518 50.1077 77.0852 49.0395 77.0852C47.9714 77.0852 47.1055 77.9518 47.1055 79.0208C47.1055 80.0898 47.9714 80.9564 49.0395 80.9564Z" fill="white"/>
<path d="M104.052 80.9564C105.121 80.9564 105.987 80.0898 105.987 79.0208C105.987 77.9518 105.121 77.0852 104.052 77.0852C102.984 77.0852 102.118 77.9518 102.118 79.0208C102.118 80.0898 102.984 80.9564 104.052 80.9564Z" fill="white"/>
<path d="M74.4271 123.97C62.5435 123.97 62.0449 109.057 59.5693 101.603C64.6194 108.464 70.9029 102.739 73.7524 99.8824C80.586 107.337 87.4282 104.709 89.6545 101.603C87.0543 109.057 86.3108 123.97 74.4271 123.97Z" fill="black"/>
<path d="M82.348 111.496L81.0586 105.259H83.8522L82.348 111.496Z" fill="white"/>
<path d="M66.4459 111.496L65.1565 105.259H67.9501L66.4459 111.496Z" fill="white"/>
<path d="M73.9845 121.819C69.6178 121.819 66.5663 117.901 65.5864 115.944C72.6436 107.887 80.8482 112.589 84.0673 115.944C82.5287 117.901 78.3554 121.819 73.9845 121.819Z" fill="#F34FA5"/>
<path d="M82.9927 106.765C88.096 106.765 92.2331 102.913 92.2331 98.162C92.2331 93.4108 88.096 89.5592 82.9927 89.5592C77.8893 89.5592 73.7522 93.4108 73.7522 98.162C73.7522 102.913 77.8893 106.765 82.9927 106.765Z" fill="#FFE5B9"/>
<path d="M64.9416 106.765C70.045 106.765 74.1821 102.913 74.1821 98.162C74.1821 93.4108 70.045 89.5592 64.9416 89.5592C59.8383 89.5592 55.7012 93.4108 55.7012 98.162C55.7012 102.913 59.8383 106.765 64.9416 106.765Z" fill="#FFE5B9"/>
<path d="M83.2076 87.6795C83.2076 91.1507 79.1676 98.162 74.1821 98.162C69.1965 98.162 65.1565 91.1507 65.1565 87.6795C65.1565 84.2083 69.1965 81.3866 74.1821 81.3866C79.1676 81.3866 83.2076 84.204 83.2076 87.6795Z" fill="#9F5937"/>
<path d="M80.199 114.077L78.9097 120.314L81.2735 118.808L80.199 114.077Z" fill="white"/>
<path d="M69.4545 114.937L68.595 119.884L70.9588 121.174L69.4545 114.937Z" fill="white"/>
<path d="M124.038 55.5783C120.599 45.083 108.565 34.1446 102.978 29.9851L108.995 19.4468C108.651 28.7377 125.469 43.1043 133.923 49.1262L124.038 55.5783Z" fill="#67422D"/>
<path d="M24.3265 54.2879C27.7649 43.7926 41.3032 33.2843 46.8905 29.1249L44.3117 16.2208C44.6556 25.5117 22.8954 41.8139 14.4414 47.8359L24.3265 54.2879Z" fill="#67422D"/>
<path d="M63.0806 103.947C62.9173 103.947 62.7539 103.887 62.625 103.758C62.3714 103.509 62.3714 103.1 62.625 102.846L62.784 102.687C63.0333 102.433 63.4416 102.433 63.6952 102.687C63.9487 102.936 63.9487 103.345 63.6952 103.599L63.5361 103.758C63.4115 103.883 63.2439 103.947 63.0806 103.947Z" fill="black"/>
<path d="M59.9219 97.7877H59.7628C59.4061 97.7877 59.1182 97.4995 59.1182 97.1425C59.1182 96.7855 59.4061 96.4973 59.7628 96.4973H59.9219C60.2786 96.4973 60.5666 96.7855 60.5666 97.1425C60.5666 97.4995 60.2786 97.7877 59.9219 97.7877Z" fill="black"/>
<path d="M64.7999 99.0651C64.6279 99.0651 64.4517 98.992 64.3228 98.8501C64.0821 98.5877 64.1165 98.1704 64.3787 97.9296C64.5721 97.7532 64.7397 97.6973 64.86 97.6586L64.9116 97.6414C65.2468 97.521 65.6165 97.6973 65.7325 98.0328C65.8529 98.3683 65.6766 98.7382 65.3414 98.8544L65.2168 98.8974C65.0964 99.0092 64.946 99.0608 64.7956 99.0608L64.7999 99.0651Z" fill="black"/>
<path d="M81.3852 103.16H81.2262C80.8695 103.16 80.5815 102.872 80.5815 102.515C80.5815 102.158 80.8695 101.87 81.2262 101.87H81.3852C81.742 101.87 82.0299 102.158 82.0299 102.515C82.0299 102.872 81.742 103.16 81.3852 103.16Z" fill="black"/>
<path d="M86.2766 101.422C86.0402 101.422 85.8124 101.289 85.7006 101.065L85.5416 100.747C85.3826 100.429 85.5158 100.042 85.8339 99.8825C86.1519 99.7233 86.5387 99.8567 86.6977 100.175L86.8568 100.493C87.0158 100.812 86.8825 101.199 86.5645 101.358C86.4742 101.405 86.3754 101.427 86.2766 101.427V101.422Z" fill="black"/>
<path d="M82.6489 97.7877C82.4856 97.7877 82.3223 97.7275 82.1934 97.6027C81.9398 97.3533 81.9398 96.9446 82.1934 96.6909L82.3524 96.5317C82.6017 96.2779 83.0099 96.2779 83.2635 96.5317C83.5171 96.7812 83.5171 97.1898 83.2635 97.4436L83.1045 97.6027C82.9799 97.7318 82.8122 97.792 82.6446 97.792L82.6489 97.7877Z" fill="black"/>
</svg>
