<svg width="154" height="113" viewBox="0 0 154 113" fill="none" xmlns="http://www.w3.org/2000/svg">
<path d="M1.61287 71.4637C-3.5446 51.6773 14.6484 45.1522 24.3917 44.365C44.8066 41.139 31.0534 65.8719 26.5406 71.4637C22.0278 77.0554 5.48096 82.002 1.61287 71.4637Z" fill="#F9F8F3"/>
<path d="M152.985 71.4637C158.142 51.6773 139.949 45.1522 130.206 44.365C109.791 41.139 123.544 65.8719 128.057 71.4637C132.57 77.0554 149.116 82.002 152.985 71.4637Z" fill="#F9F8F3"/>
<path d="M29.0464 49.8148C21.8646 50.8471 7.36354 55.9658 6.80482 68.1473C6.10426 83.3784 32.8027 66.887 29.0464 49.8148Z" fill="#FFE5E5"/>
<path d="M125.551 49.8148C132.733 50.8471 147.234 55.9658 147.793 68.1473C148.493 83.3784 121.795 66.887 125.551 49.8148Z" fill="#FFE5E5"/>
<path d="M130.507 66.2289C130.507 95.0911 107.126 112.039 78.2872 112.039C49.4484 112.039 26.0679 95.0911 26.0679 66.2289C26.0679 37.3667 49.4484 13.9672 78.2872 13.9672C107.126 13.9672 130.507 37.3667 130.507 66.2289Z" fill="#FFE5E5"/>
<path d="M106.438 90.5316C112.61 90.5316 117.613 85.7172 117.613 79.7782C117.613 73.8393 112.61 69.0248 106.438 69.0248C100.267 69.0248 95.2637 73.8393 95.2637 79.7782C95.2637 85.7172 100.267 90.5316 106.438 90.5316Z" fill="black"/>
<path d="M51.4255 90.5316C57.597 90.5316 62.6 85.7172 62.6 79.7782C62.6 73.8393 57.597 69.0248 51.4255 69.0248C45.254 69.0248 40.251 73.8393 40.251 79.7782C40.251 85.7172 45.254 90.5316 51.4255 90.5316Z" fill="black"/>
<path d="M82.4349 106.232C82.3102 106.232 82.1856 106.227 82.0567 106.219C80.2043 106.077 78.7344 104.881 77.9737 103.81C77.7674 103.517 77.8361 103.117 78.1241 102.911C78.412 102.704 78.8161 102.773 79.0224 103.062C79.6155 103.896 80.7458 104.825 82.1512 104.928C83.4878 105.027 84.8503 104.378 86.1998 102.984C86.4491 102.726 86.8574 102.722 87.111 102.971C87.3689 103.221 87.3731 103.629 87.1239 103.883C85.6153 105.44 84.038 106.232 82.4306 106.232H82.4349Z" fill="black"/>
<path d="M74.2689 106.232C74.1442 106.232 74.0196 106.227 73.8906 106.219C72.0383 106.077 70.5684 104.881 69.8077 103.81C69.6014 103.517 69.6701 103.117 69.9581 102.911C70.246 102.704 70.65 102.773 70.8563 103.062C71.4494 103.896 72.5798 104.825 73.9852 104.928C75.3218 105.027 76.6843 104.378 78.0338 102.984C78.2831 102.726 78.6914 102.722 78.945 102.971C79.2028 103.221 79.2071 103.629 78.9578 103.883C77.4493 105.44 75.872 106.232 74.2646 106.232H74.2689Z" fill="black"/>
<path d="M51.4255 86.6604C55.4608 86.6604 58.732 83.5791 58.732 79.7782C58.732 75.9773 55.4608 72.896 51.4255 72.896C47.3903 72.896 44.1191 75.9773 44.1191 79.7782C44.1191 83.5791 47.3903 86.6604 51.4255 86.6604Z" fill="black"/>
<path d="M53.3596 77.6275C54.4277 77.6275 55.2936 76.7609 55.2936 75.6919C55.2936 74.6229 54.4277 73.7563 53.3596 73.7563C52.2914 73.7563 51.4255 74.6229 51.4255 75.6919C51.4255 76.7609 52.2914 77.6275 53.3596 77.6275Z" fill="white"/>
<path d="M108.373 77.6275C109.441 77.6275 110.307 76.7609 110.307 75.6919C110.307 74.6229 109.441 73.7563 108.373 73.7563C107.304 73.7563 106.438 74.6229 106.438 75.6919C106.438 76.7609 107.304 77.6275 108.373 77.6275Z" fill="white"/>
<path d="M84.9491 84.2946C84.9491 86.7894 79.1469 91.822 78.5023 91.822C77.8576 91.822 72.0554 86.7894 72.0554 84.2946C72.0554 81.7998 74.9436 81.4987 78.5023 81.4987C82.0609 81.4987 84.9491 81.7998 84.9491 84.2946Z" fill="#FFBFB2"/>
<path d="M69.2574 45.75C65.9351 57.5487 58.835 53.2043 55.6976 49.5567C55.9898 51.858 55.4354 56.4562 50.8882 56.4562C46.3411 56.4562 44.7637 53.286 44.5445 51.6988C44.3984 53.286 43.0575 56.4562 38.8584 56.4562C34.6594 56.4562 34.3371 53.286 34.7024 51.6988C33.7569 52.8086 31.3328 54.3614 29.2355 51.6988C27.1338 49.032 28.3587 46.6232 29.2355 45.75C27.9246 46.3049 24.9935 46.748 23.7686 44.0854C22.5437 41.4229 25.5909 39.9604 27.267 39.5647C26.3903 39.1689 24.7743 37.2806 25.2986 32.9018C25.823 28.523 29.893 26.1616 31.8615 25.525C30.8386 25.0475 29.4117 23.3356 31.8615 20.2902C34.3113 17.2448 36.2367 17.1201 36.89 17.4341C36.3055 16.6426 35.8843 14.7242 38.8584 13.3908C41.8326 12.0574 45.056 13.9457 46.2938 15.0554C45.6362 13.3908 45.6362 9.34752 50.8882 6.49141C56.1359 3.63529 59.7806 5.29992 60.9496 6.49141C59.8579 4.74505 58.9811 1.06737 64.2289 0.306029C69.4766 -0.455314 71.9565 3.00299 72.541 4.82678C73.2716 3.3213 75.253 0.306029 77.3503 0.306029C79.4477 0.306029 82.3058 2.84384 83.4748 4.11275C84.3473 2.60727 86.9303 -0.266054 90.2526 0.306029C93.5749 0.878111 94.8427 4.66762 95.0619 6.49141C97.1034 5.45908 102.016 4.01812 105.338 6.49141C108.665 8.96469 109.64 13.2317 109.713 15.0554C112.047 13.864 117.935 12.9607 122.835 18.8622C127.734 24.7636 126.626 29.7274 125.461 31.4695C127.571 31.3921 131.495 32.8975 130.27 39.5561C129.32 44.7134 127.614 46.6834 126.385 47.2383C127.855 47.1996 128.938 48.4685 125.461 53.828C121.503 59.9231 117.493 56.925 115.705 54.3055C115.425 54.6926 114.561 55.355 112.554 56.4476C108.708 58.5423 106.142 54.1463 105.338 51.6902C105.192 52.8 103.894 54.7829 99.8713 53.8323C97.2281 53.2086 95.9516 51.3848 95.4058 49.7159C95.1823 50.7095 94.3356 51.587 92.2167 51.6902C88.3701 51.8795 86.5306 47.8061 86.0922 45.7414C85.873 47.0103 84.4289 49.5481 80.4061 49.5481C76.3833 49.5481 74.9392 47.0103 74.72 45.7414C74.6469 46.378 73.9765 47.5953 71.8791 47.4061C69.7775 47.2168 69.2531 46.2146 69.2531 45.7414L69.2574 45.75Z" fill="#F9F8F3"/>
<path d="M78.5021 104.081C78.2657 104.081 78.0723 103.887 78.0723 103.651V92.0371C78.0723 91.8006 78.2657 91.607 78.5021 91.607C78.7384 91.607 78.9318 91.8006 78.9318 92.0371V103.651C78.9318 103.887 78.7384 104.081 78.5021 104.081Z" fill="black"/>
<path d="M78.9319 92.2522C78.8288 92.2522 78.7256 92.2135 78.6397 92.1403C78.4635 91.9812 78.4549 91.7059 78.6139 91.5339L83.3416 86.3722C83.5006 86.1958 83.7713 86.1872 83.9475 86.3464C84.1238 86.5055 84.1324 86.7808 83.9733 86.9529L79.2457 92.1145C79.1597 92.2049 79.0437 92.2522 78.9276 92.2522H78.9319Z" fill="black"/>
<path d="M78.0724 92.2522C77.9564 92.2522 77.8404 92.2049 77.7544 92.1145L73.0267 86.9529C72.8677 86.7765 72.8763 86.5055 73.0525 86.3464C73.2287 86.1872 73.4995 86.1958 73.6585 86.3722L78.3862 91.5339C78.5452 91.7102 78.5366 91.9812 78.3604 92.1403C78.2787 92.2178 78.1756 92.2522 78.0681 92.2522H78.0724Z" fill="black"/>
<path d="M83.23 87.0906C83.1097 87.2454 82.9463 87.4261 82.7443 87.6196L78.5023 92.2522L74.2603 87.6196C74.0626 87.4261 73.8993 87.2454 73.7747 87.0906L74.2603 87.6196C75.1371 88.4713 76.7058 89.5682 78.5023 89.5682C80.2989 89.5682 81.8719 88.4713 82.7443 87.6196L83.23 87.0906Z" fill="black"/>
<path d="M78.5024 92.8888L73.9423 87.9121C73.7618 87.7357 73.5813 87.5379 73.4395 87.3615L74.0927 86.8024L74.5784 87.3314C74.9996 87.7444 76.5855 89.1423 78.5067 89.1423C80.4278 89.1423 82.0094 87.7444 82.4521 87.3142L82.9206 86.8024L83.5739 87.3615C83.432 87.5422 83.2515 87.7401 83.0538 87.9293L78.511 92.8888H78.5024ZM76.7359 89.6886L78.5024 91.6156L80.2688 89.6886C79.7272 89.8778 79.1341 89.9983 78.5024 89.9983C77.8706 89.9983 77.2775 89.8778 76.7359 89.6886Z" fill="black"/>
</svg>
