<svg width="117" height="105" viewBox="0 0 117 105" fill="none" xmlns="http://www.w3.org/2000/svg">
<path d="M96.6927 40.4987C107.849 40.4987 116.893 31.4475 116.893 20.2822C116.893 9.11701 107.849 0.0657959 96.6927 0.0657959C85.5366 0.0657959 76.4927 9.11701 76.4927 20.2822C76.4927 31.4475 85.5366 40.4987 96.6927 40.4987Z" fill="black"/>
<path d="M20.62 40.4987C31.7762 40.4987 40.8201 31.4475 40.8201 20.2822C40.8201 9.11701 31.7762 0.0657959 20.62 0.0657959C9.4638 0.0657959 0.419922 9.11701 0.419922 20.2822C0.419922 31.4475 9.4638 40.4987 20.62 40.4987Z" fill="black"/>
<path d="M96.6925 34.4768C104.526 34.4768 110.876 28.1217 110.876 20.2823C110.876 12.4429 104.526 6.08777 96.6925 6.08777C88.8595 6.08777 82.5095 12.4429 82.5095 20.2823C82.5095 28.1217 88.8595 34.4768 96.6925 34.4768Z" fill="#3C4145"/>
<path d="M20.62 34.4768C28.4531 34.4768 34.8031 28.1217 34.8031 20.2823C34.8031 12.4429 28.4531 6.08777 20.62 6.08777C12.787 6.08777 6.43701 12.4429 6.43701 20.2823C6.43701 28.1217 12.787 34.4768 20.62 34.4768Z" fill="#3C4145"/>
<path d="M59.9456 104.589C88.7856 104.589 112.165 81.1908 112.165 52.3275C112.165 23.4641 88.7856 0.0657959 59.9456 0.0657959C31.1057 0.0657959 7.72632 23.4641 7.72632 52.3275C7.72632 81.1908 31.1057 104.589 59.9456 104.589Z" fill="#E8E8E8"/>
<path d="M108.533 36.8124C110.313 38.4254 112.002 40.1373 113.583 41.9439C112.801 41.2815 111.886 40.7739 110.91 40.4599C111.559 41.488 112.126 42.5719 112.603 43.6903C112.027 43.0107 111.305 42.4558 110.497 42.0816C111.567 44.1849 112.44 46.3872 113.102 48.6541C112.131 47.94 111.159 47.2303 110.188 46.5163C111.357 48.0863 112.229 49.8756 112.749 51.7596C112.088 50.8994 111.292 50.1466 110.403 49.5272C111.168 51.807 111.929 54.0824 112.694 56.3621C111.628 55.4201 110.566 54.4781 109.5 53.5361C109.909 55.4201 110.725 57.188 111.237 59.0462C111.748 60.9044 111.95 62.9561 111.146 64.7068C110.811 63.6787 110.308 62.7023 109.655 61.8378C109.792 64.1734 109.629 66.522 109.178 68.8189C108.907 68.4275 108.641 68.0317 108.37 67.6403" fill="#E8E8E8"/>
<path d="M108.078 37.2684C109.857 38.8814 111.542 40.5933 113.128 42.3999L114.039 41.488C113.149 40.7525 112.173 40.2019 111.082 39.8406C110.549 39.6642 110.063 40.3223 110.355 40.7869C111 41.8192 111.567 42.8989 112.049 44.0172L113.063 43.2344C112.44 42.516 111.683 41.9353 110.824 41.5224C110.239 41.2428 109.642 41.8106 109.943 42.4042C110.987 44.4646 111.83 46.6066 112.483 48.8218L113.428 48.0949C112.457 47.3809 111.486 46.6712 110.514 45.9571C110.003 45.5829 109.255 46.3271 109.633 46.8389C110.768 48.3831 111.61 50.0865 112.13 51.9274L113.209 51.2994C112.5 50.3961 111.671 49.6262 110.734 48.9638C110.278 48.6412 109.612 49.1789 109.788 49.6907C110.553 51.9704 111.314 54.2459 112.079 56.5256L113.158 55.8976C112.092 54.9556 111.03 54.0136 109.964 53.0716C109.479 52.6458 108.744 53.0544 108.886 53.6996C109.646 57.0676 112.13 60.8743 110.596 64.3713L111.774 64.5262C111.413 63.4422 110.897 62.4271 110.218 61.5023C109.874 61.0377 108.98 61.1238 109.014 61.8292C109.139 64.1132 108.993 66.393 108.559 68.6383L109.737 68.4834C109.466 68.092 109.199 67.6963 108.929 67.3048C108.464 66.6252 107.343 67.2704 107.815 67.9544C108.086 68.3458 108.353 68.7415 108.623 69.1329C108.907 69.5502 109.689 69.5674 109.801 68.9781C110.257 66.6209 110.433 64.2251 110.3 61.8249L109.096 62.1518C109.711 62.982 110.196 63.8853 110.523 64.866C110.682 65.3348 111.46 65.5671 111.701 65.0208C113.45 61.0334 110.987 57.2095 110.119 53.3555L109.04 53.9835C110.106 54.9255 111.168 55.8675 112.234 56.8095C112.685 57.2052 113.532 56.8353 113.312 56.1815C112.547 53.9018 111.787 51.6263 111.022 49.3466L110.076 50.0735C110.918 50.6714 111.653 51.3941 112.289 52.207C112.702 52.7318 113.532 52.1597 113.368 51.579C112.818 49.6348 111.937 47.8067 110.742 46.1808L109.861 47.0626C110.832 47.7766 111.804 48.4863 112.775 49.2004C113.239 49.5402 113.871 48.9767 113.721 48.4734C113.037 46.155 112.143 43.9054 111.052 41.7461L110.171 42.6279C110.94 42.9978 111.585 43.4924 112.148 44.1377C112.668 44.7355 113.424 43.9742 113.162 43.3548C112.681 42.2364 112.113 41.1568 111.469 40.1245L110.742 41.0708C111.615 41.3633 112.423 41.802 113.132 42.387C113.768 42.9118 114.597 42.1074 114.043 41.4751C112.457 39.6728 110.772 37.9609 108.993 36.3436C108.378 35.7887 107.467 36.6963 108.082 37.2555L108.078 37.2684Z" fill="#E8E8E8"/>
<path d="M10.2749 36.8124C8.49555 38.4254 6.80648 40.1373 5.22485 41.9439C6.00707 41.2815 6.92252 40.7739 7.89814 40.4599C7.24916 41.488 6.68184 42.5719 6.20477 43.6903C6.78069 43.0107 7.50273 42.4558 8.31074 42.0816C7.24056 44.1849 6.36809 46.3872 5.70622 48.6541C6.67754 47.94 7.64886 47.2303 8.62019 46.5163C7.45116 48.0863 6.57869 49.8756 6.05864 51.7596C6.72052 50.8994 7.51563 50.1466 8.40529 49.5272C7.64027 51.807 6.87954 54.0824 6.11452 56.3621C7.18039 55.4201 8.24197 54.4781 9.30785 53.5361C8.89955 55.4201 8.08295 57.188 7.5715 59.0462C7.06005 60.9044 6.85805 62.9561 7.66176 64.7068C7.99699 63.6787 8.49984 62.7023 9.15312 61.8378C9.01559 64.1734 9.17891 66.522 9.63019 68.8189C9.90096 68.4275 10.1674 68.0317 10.4382 67.6403" fill="#E8E8E8"/>
<path d="M9.81929 36.3564C8.03997 37.9694 6.3552 39.6814 4.76928 41.488C4.21485 42.1203 5.04434 42.9246 5.68043 42.3999C6.38958 41.8149 7.19758 41.3718 8.07005 41.0836L7.34371 40.1373C6.69903 41.1697 6.13171 42.2493 5.65034 43.3677C5.38817 43.9785 6.13601 44.7527 6.66465 44.1505C7.22767 43.5053 7.87235 43.015 8.64167 42.6407L7.76061 41.759C6.66894 43.9139 5.77498 46.1636 5.09162 48.4863C4.94549 48.9896 5.57298 49.5573 6.03715 49.2132C7.00848 48.4992 7.9798 47.7895 8.95112 47.0754L8.07005 46.1937C6.87524 47.8196 5.99418 49.6477 5.44405 51.5919C5.28073 52.1726 6.11022 52.7447 6.52281 52.2199C7.1589 51.4069 7.89384 50.6843 8.73623 50.0864L7.79069 49.3595C7.02567 51.6392 6.26494 53.9146 5.49992 56.1944C5.28072 56.8439 6.12741 57.2181 6.57869 56.8224C7.64456 55.8804 8.70614 54.9384 9.77202 53.9964L8.69325 53.3684C7.82507 57.2181 5.36238 61.0463 7.11162 65.0337C7.35231 65.58 8.13022 65.352 8.28925 64.8788C8.61589 63.8981 9.10155 62.9948 9.71615 62.1647L8.51274 61.8378C8.3838 64.2379 8.55572 66.6295 9.01129 68.991C9.12304 69.5802 9.90095 69.563 10.1889 69.1458C10.4597 68.7544 10.7262 68.3586 10.9969 67.9672C11.4654 67.279 10.3522 66.6338 9.88376 67.3177C9.613 67.7091 9.34653 68.1049 9.07576 68.4963L10.2534 68.6511C9.81929 66.4058 9.67746 64.1261 9.79781 61.8421C9.83649 61.1409 8.94252 61.0506 8.5944 61.5152C7.91533 62.4357 7.39958 63.4508 7.03856 64.539L8.21618 64.3842C6.68184 60.8872 9.17031 57.0804 9.92674 53.7125C10.0729 53.0716 9.33363 52.6543 8.84797 53.0845C7.7821 54.0265 6.72052 54.9685 5.65464 55.9105L6.73341 56.5385C7.49844 54.2587 8.25916 51.9833 9.02419 49.7036C9.1961 49.1917 8.53423 48.6498 8.07865 48.9767C7.14171 49.6391 6.31222 50.409 5.60307 51.3123L6.68184 51.9403C7.20188 50.0993 8.04427 48.3917 9.17891 46.8518C9.55283 46.3399 8.80929 45.5958 8.29784 45.97C7.32652 46.684 6.3552 47.3938 5.38387 48.1078L6.32941 48.8347C6.98269 46.6195 7.82507 44.4774 8.86946 42.4171C9.17031 41.8235 8.57291 41.2514 7.98839 41.5353C7.13311 41.9482 6.37669 42.5289 5.7492 43.2472L6.7635 44.0301C7.24486 42.9117 7.81218 41.8321 8.45686 40.7997C8.74912 40.3352 8.26346 39.6728 7.73052 39.8534C6.63456 40.2191 5.65894 40.7696 4.77357 41.5009L5.68473 42.4128C7.27065 40.6105 8.95542 38.8985 10.7347 37.2812C11.3493 36.722 10.4382 35.8102 9.82359 36.3693L9.81929 36.3564Z" fill="#E8E8E8"/>
<path d="M95.266 77.8668C102.666 73.5907 104.673 63.203 99.7474 54.6651C94.822 46.1273 84.8301 42.6724 77.4298 46.9484C70.0294 51.2245 68.023 61.6122 72.9484 70.1501C77.8737 78.6879 87.8657 82.1428 95.266 77.8668Z" fill="black"/>
<path d="M59.7309 95.5563C68.2761 95.5563 75.2033 88.6235 75.2033 80.0714C75.2033 71.5193 68.2761 64.5864 59.7309 64.5864C51.1858 64.5864 44.2585 71.5193 44.2585 80.0714C44.2585 88.6235 51.1858 95.5563 59.7309 95.5563Z" fill="#D9D9D9"/>
<path d="M74.9367 80.0369C74.4553 80.0197 74.3135 80.1359 74.5069 80.3853C74.5628 80.4929 74.6144 80.6047 74.6616 80.7208C74.7519 80.9402 74.8249 81.1682 74.8894 81.3962C75.0141 81.8306 75.0957 82.2736 75.143 82.721C75.2461 83.6544 75.2332 84.6007 75.2161 85.5384C75.2032 86.3729 76.4581 86.3643 76.5054 85.5384C76.5742 84.291 76.0885 83.0866 75.1774 82.2349C74.8121 81.8908 74.0041 82.1016 74.0771 82.6909C74.3006 84.5276 74.0212 86.3599 73.1918 88.0203L74.3694 88.5192C74.4854 87.6719 74.4596 86.8632 74.2447 86.033C74.09 85.4309 73.1445 85.405 73.0026 86.033C72.4869 88.2999 71.709 90.4893 70.6603 92.5625L71.8637 92.8894L71.5757 89.4053C71.5156 88.6827 70.5485 88.5235 70.3079 89.2333C69.7749 90.8162 68.9841 92.313 67.9569 93.6336L69.0572 94.0895C69.1002 93.255 68.9884 92.4335 68.7176 91.642C68.5543 91.1646 68.0171 91.0312 67.6389 91.3581C67.1231 91.7969 66.6976 92.3173 66.3538 92.9023C65.9326 93.6207 67.0458 94.2702 67.467 93.5518C67.7592 93.0572 68.1159 92.64 68.55 92.2657L67.4713 91.9818C67.7076 92.6744 67.8065 93.354 67.7678 94.0852C67.742 94.6057 68.5199 94.9885 68.8681 94.5412C70.0414 93.0357 70.944 91.384 71.5543 89.5731L70.2864 89.401L70.5743 92.8851C70.6216 93.4701 71.464 93.8314 71.7777 93.212C72.8737 91.0398 73.7118 88.7472 74.249 86.3729H73.0069C73.1574 86.9621 73.2132 87.5686 73.1316 88.1751C73.0413 88.8289 73.9482 89.3924 74.3092 88.6741C75.2375 86.8202 75.6244 84.7555 75.3708 82.6952L74.2705 83.1511C74.9496 83.7877 75.2719 84.6136 75.2204 85.5427H76.5097C76.5312 84.0759 76.5441 82.5704 76.1573 81.1424C75.994 80.5445 75.7705 79.753 75.3192 79.31C74.8679 78.867 74.1717 78.8239 73.8235 79.396C73.3895 80.1058 74.5026 80.7553 74.9367 80.0455V80.0369Z" fill="#D9D9D9"/>
<path d="M44.5637 79.9983C44.0737 81.4995 43.8459 83.0652 43.8889 84.6438C43.9018 85.1599 44.611 85.5471 44.9892 85.0997C45.4276 84.5836 45.9132 84.1319 46.4762 83.7534L45.5307 83.0265C44.9548 85.646 44.4519 88.4376 45.694 90.9453C45.9648 91.4916 46.6911 91.2636 46.8716 90.7904C47.3014 89.6592 47.6367 88.4978 47.8773 87.3106L46.6997 87.4655C47.9547 89.5731 49.2097 91.6808 50.469 93.7842C50.83 94.3864 51.9174 93.9907 51.6466 93.2852C50.9331 91.427 50.1939 89.5946 48.9303 88.0332C48.5091 87.5128 47.6925 88.0763 47.8516 88.6613C48.2642 90.1495 48.6768 91.6378 49.0937 93.1261C49.3171 93.9304 50.512 93.5906 50.3357 92.782C49.9919 91.1948 49.3257 89.6936 48.3802 88.3774C47.8988 87.702 46.906 88.2741 47.267 89.0269C47.6925 89.913 48.1137 90.799 48.5392 91.6851C48.8401 92.3131 49.6954 91.9389 49.7426 91.3582C49.7598 91.113 49.7813 90.8679 49.7985 90.6227L48.5951 90.9496C48.9003 91.3496 49.1495 91.7754 49.3601 92.2314C49.704 92.9884 50.8128 92.3303 50.4733 91.5819C50.267 91.1216 50.0134 90.7001 49.7083 90.3001C49.3214 89.7882 48.5607 89.956 48.5048 90.627C48.4877 90.8722 48.4662 91.1173 48.449 91.3625L49.6524 91.0356C49.2269 90.1495 48.8057 89.2634 48.3802 88.3774L47.267 89.0269C48.1567 90.2657 48.767 91.6335 49.0937 93.1261L50.3357 92.782C49.9231 91.2937 49.5105 89.8054 49.0937 88.3171L48.0149 88.9451C49.128 90.3173 49.7727 91.9948 50.4002 93.6293L51.5778 93.1304C50.3228 91.0227 49.0679 88.915 47.8086 86.8117C47.5421 86.36 46.7427 86.403 46.631 86.9665C46.3903 88.1537 46.055 89.3151 45.6253 90.4463L46.8029 90.2915C45.7327 88.1322 46.2785 85.603 46.7728 83.3663C46.8845 82.8544 46.3215 82.3038 45.8273 82.6393C45.174 83.0781 44.5895 83.5856 44.078 84.1878L45.1783 84.6438C45.1396 83.1727 45.3502 81.7403 45.8058 80.3424C46.0636 79.5509 44.8216 79.2111 44.5637 79.9983Z" fill="#D9D9D9"/>
<path d="M46.451 70.1507C51.3763 61.6128 49.3699 51.2251 41.9696 46.949C34.5693 42.673 24.5773 46.1279 19.652 54.6657C14.7267 63.2036 16.733 73.5913 24.1334 77.8673C31.5337 82.1434 41.5256 78.6885 46.451 70.1507Z" fill="black"/>
<path d="M87.6672 76.6302C93.8387 76.6302 98.8417 71.8157 98.8417 65.8767C98.8417 59.9378 93.8387 55.1233 87.6672 55.1233C81.4957 55.1233 76.4927 59.9378 76.4927 65.8767C76.4927 71.8157 81.4957 76.6302 87.6672 76.6302Z" fill="white"/>
<path d="M32.654 76.6302C38.8255 76.6302 43.8285 71.8157 43.8285 65.8767C43.8285 59.9378 38.8255 55.1233 32.654 55.1233C26.4825 55.1233 21.4795 59.9378 21.4795 65.8767C21.4795 71.8157 26.4825 76.6302 32.654 76.6302Z" fill="white"/>
<path d="M63.6677 87.5987C63.5302 87.5987 63.3926 87.5944 63.2551 87.5815C61.2566 87.431 59.6707 86.1449 58.8541 84.9921C58.5102 84.506 58.6263 83.835 59.1076 83.4909C59.589 83.1468 60.2638 83.2586 60.6076 83.7447C61.119 84.463 62.1591 85.3362 63.4184 85.4351C64.6218 85.5298 65.8725 84.9147 67.1232 83.62C67.5358 83.1941 68.2149 83.1812 68.6446 83.5941C69.0701 84.0071 69.083 84.6867 68.6704 85.1168C67.0759 86.7643 65.3954 87.5944 63.6677 87.5944V87.5987Z" fill="black"/>
<path d="M55.5017 87.5987C55.3641 87.5987 55.2266 87.5944 55.0891 87.5815C53.0906 87.431 51.5046 86.1449 50.688 84.9921C50.3442 84.506 50.4603 83.835 50.9416 83.4909C51.423 83.1468 52.0977 83.2586 52.4416 83.7447C52.953 84.463 53.9931 85.3362 55.2524 85.4351C56.4558 85.5298 57.7065 84.9147 58.9572 83.62C59.3698 83.1941 60.0488 83.1812 60.4786 83.5941C60.9041 84.0071 60.917 84.6867 60.5044 85.1168C58.9099 86.7643 57.2294 87.5944 55.5017 87.5944V87.5987Z" fill="black"/>
<path d="M32.6541 72.759C36.6893 72.759 39.9605 69.6778 39.9605 65.8768C39.9605 62.0759 36.6893 58.9946 32.6541 58.9946C28.6188 58.9946 25.3477 62.0759 25.3477 65.8768C25.3477 69.6778 28.6188 72.759 32.6541 72.759Z" fill="#423737"/>
<path d="M87.667 72.759C91.7022 72.759 94.9734 69.6778 94.9734 65.8768C94.9734 62.0759 91.7022 58.9946 87.667 58.9946C83.6318 58.9946 80.3606 62.0759 80.3606 65.8768C80.3606 69.6778 83.6318 72.759 87.667 72.759Z" fill="#423737"/>
<path d="M34.5881 63.7261C35.6562 63.7261 36.5222 62.8595 36.5222 61.7905C36.5222 60.7215 35.6562 59.8549 34.5881 59.8549C33.52 59.8549 32.6541 60.7215 32.6541 61.7905C32.6541 62.8595 33.52 63.7261 34.5881 63.7261Z" fill="white"/>
<path d="M89.601 63.7261C90.6692 63.7261 91.5351 62.8595 91.5351 61.7905C91.5351 60.7215 90.6692 59.8549 89.601 59.8549C88.5329 59.8549 87.667 60.7215 87.667 61.7905C87.667 62.8595 88.5329 63.7261 89.601 63.7261Z" fill="white"/>
<path d="M66.1776 74.6945C66.1776 77.1893 63.2894 82.2219 59.7308 82.2219C56.1721 82.2219 53.2839 77.1893 53.2839 74.6945C53.2839 72.1997 56.1721 70.1781 59.7308 70.1781C63.2894 70.1781 66.1776 72.1997 66.1776 74.6945Z" fill="black"/>
</svg>
