<svg width="106" height="106" viewBox="0 0 106 106" fill="none" xmlns="http://www.w3.org/2000/svg">
<path d="M105.068 53.1767C105.068 82.0389 96.0425 105.438 52.8487 105.438C9.65496 105.438 0.629395 82.0389 0.629395 53.1767C0.629395 24.3145 24.0099 0.915039 52.8487 0.915039C81.6875 0.915039 105.068 24.3145 105.068 53.1767Z" fill="#FCC16B"/>
<path d="M80.9999 77.4795C87.1715 77.4795 92.1745 72.665 92.1745 66.7261C92.1745 60.7871 87.1715 55.9727 80.9999 55.9727C74.8284 55.9727 69.8254 60.7871 69.8254 66.7261C69.8254 72.665 74.8284 77.4795 80.9999 77.4795Z" fill="black"/>
<path d="M25.9868 77.4795C32.1583 77.4795 37.1613 72.665 37.1613 66.7261C37.1613 60.7871 32.1583 55.9727 25.9868 55.9727C19.8153 55.9727 14.8123 60.7871 14.8123 66.7261C14.8123 72.665 19.8153 77.4795 25.9868 77.4795Z" fill="black"/>
<path d="M25.9868 73.6083C30.022 73.6083 33.2932 70.527 33.2932 66.7261C33.2932 62.9251 30.022 59.8439 25.9868 59.8439C21.9516 59.8439 18.6804 62.9251 18.6804 66.7261C18.6804 70.527 21.9516 73.6083 25.9868 73.6083Z" fill="black"/>
<path d="M27.9211 64.5753C28.9893 64.5753 29.8552 63.7087 29.8552 62.6397C29.8552 61.5707 28.9893 60.7041 27.9211 60.7041C26.853 60.7041 25.9871 61.5707 25.9871 62.6397C25.9871 63.7087 26.853 64.5753 27.9211 64.5753Z" fill="white"/>
<path d="M82.9338 64.5753C84.002 64.5753 84.8679 63.7087 84.8679 62.6397C84.8679 61.5707 84.002 60.7041 82.9338 60.7041C81.8657 60.7041 80.9998 61.5707 80.9998 62.6397C80.9998 63.7087 81.8657 64.5753 82.9338 64.5753Z" fill="white"/>
<path d="M53.0636 97.4809C45.1555 97.653 41.1713 93.6828 40.1699 91.6741H65.5275C64.6679 93.5366 60.9717 97.3089 53.0636 97.4809Z" fill="#D68123"/>
<path d="M46.7501 83.5014C44.8591 85.7382 38.6959 85.3467 38.1544 86.5124C37.4065 89.218 39.5297 95.3302 52.7672 95.3302C69.314 95.3302 69.0991 86.5124 66.7353 86.5124C64.3715 86.5124 59.9704 85.1317 58.2513 82.7659C56.876 80.8733 54.1683 80.4905 52.7672 80.4905C50.9449 80.4905 48.6412 81.2647 46.7501 83.5014Z" fill="#FB9728"/>
<path d="M56.2868 86.9425C56.6428 86.9425 56.9315 86.0759 56.9315 85.0069C56.9315 83.9379 56.6428 83.0713 56.2868 83.0713C55.9307 83.0713 55.6421 83.9379 55.6421 85.0069C55.6421 86.0759 55.9307 86.9425 56.2868 86.9425Z" fill="#D68123"/>
<path d="M50.2699 86.9425C50.626 86.9425 50.9146 86.0759 50.9146 85.0069C50.9146 83.9379 50.626 83.0713 50.2699 83.0713C49.9139 83.0713 49.6252 83.9379 49.6252 85.0069C49.6252 86.0759 49.9139 86.9425 50.2699 86.9425Z" fill="#D68123"/>
</svg>
