<svg width="106" height="105" viewBox="0 0 106 105" fill="none" xmlns="http://www.w3.org/2000/svg">
<path d="M105.133 52.6201C105.133 81.4823 96.1069 104.882 52.9132 104.882C9.71941 104.882 0.693848 81.4823 0.693848 52.6201C0.693848 23.7579 24.0744 0.358398 52.9132 0.358398C81.752 0.358398 105.133 23.7579 105.133 52.6201Z" fill="#FDE176"/>
<path d="M81.0644 74.7722C87.2359 74.7722 92.2389 69.9577 92.2389 64.0188C92.2389 58.0798 87.2359 53.2653 81.0644 53.2653C74.8929 53.2653 69.8899 58.0798 69.8899 64.0188C69.8899 69.9577 74.8929 74.7722 81.0644 74.7722Z" fill="black"/>
<path d="M26.0512 74.7722C32.2227 74.7722 37.2257 69.9577 37.2257 64.0188C37.2257 58.0798 32.2227 53.2653 26.0512 53.2653C19.8797 53.2653 14.8767 58.0798 14.8767 64.0188C14.8767 69.9577 19.8797 74.7722 26.0512 74.7722Z" fill="black"/>
<path d="M26.0513 70.9009C30.0865 70.9009 33.3577 67.8197 33.3577 64.0187C33.3577 60.2178 30.0865 57.1365 26.0513 57.1365C22.0161 57.1365 18.7449 60.2178 18.7449 64.0187C18.7449 67.8197 22.0161 70.9009 26.0513 70.9009Z" fill="black"/>
<path d="M27.9853 61.868C29.0535 61.868 29.9194 61.0014 29.9194 59.9324C29.9194 58.8634 29.0535 57.9968 27.9853 57.9968C26.9172 57.9968 26.0513 58.8634 26.0513 59.9324C26.0513 61.0014 26.9172 61.868 27.9853 61.868Z" fill="white"/>
<path d="M82.9983 61.868C84.0664 61.868 84.9323 61.0014 84.9323 59.9324C84.9323 58.8634 84.0664 57.9968 82.9983 57.9968C81.9301 57.9968 81.0642 58.8634 81.0642 59.9324C81.0642 61.0014 81.9301 61.868 82.9983 61.868Z" fill="white"/>
<path d="M52.6982 100.58C51.4088 100.58 39.5165 85.3837 38.5151 83.3749L66.6663 84.6654C65.8067 86.5278 53.9875 100.58 52.6982 100.58Z" fill="#D68123"/>
<path d="M46.8142 80.7941C44.9232 83.0308 38.76 82.6394 38.2185 83.805C37.4706 86.5106 50.6007 98.8598 52.8313 98.8598C55.0619 98.8598 69.1633 83.805 66.7994 83.805C64.4356 83.805 60.0345 82.8544 58.3153 80.4887C56.94 78.5961 54.3097 78.2133 52.4874 78.2133C50.6651 78.2133 48.7096 78.5574 46.8185 80.7941H46.8142Z" fill="#FB9728"/>
<path d="M55.9215 84.6653C56.2776 84.6653 56.5662 83.7987 56.5662 82.7297C56.5662 81.6607 56.2776 80.7941 55.9215 80.7941C55.5655 80.7941 55.2769 81.6607 55.2769 82.7297C55.2769 83.7987 55.5655 84.6653 55.9215 84.6653Z" fill="#D68123"/>
<path d="M49.9044 84.6653C50.2605 84.6653 50.5491 83.7987 50.5491 82.7297C50.5491 81.6607 50.2605 80.7941 49.9044 80.7941C49.5484 80.7941 49.2598 81.6607 49.2598 82.7297C49.2598 83.7987 49.5484 84.6653 49.9044 84.6653Z" fill="#D68123"/>
</svg>
