<svg width="127" height="103" viewBox="0 0 127 103" fill="none" xmlns="http://www.w3.org/2000/svg">
<path d="M117.766 53.6762C116.615 81.747 95.6109 103.667 61.8767 102.273C28.1426 100.879 11.2863 77.3854 12.4553 49.3275C13.6072 21.2568 44.2296 -0.258699 66.0887 0.635986C87.9477 1.53497 118.936 25.6141 117.784 53.6719H117.771L117.766 53.6762Z" fill="#F787BF"/>
<path d="M90.9048 82.2889C90.5094 90.6078 92.0695 102.041 62.6204 100.647C33.1713 99.2665 36.8245 88.0657 37.2242 79.7597C37.6196 71.4409 46.9546 65.1265 64.2493 65.9394C81.5569 66.7524 91.3045 73.9701 90.9091 82.2889H90.9048Z" fill="#FC9BCE"/>
<path d="M103.73 59.9046C103.639 54.1279 98.7011 49.5168 92.7012 49.6114C86.6971 49.7017 81.9049 54.4634 81.9909 60.2401C82.0811 66.0169 87.0194 70.6279 93.0193 70.5333C99.0234 70.443 103.816 65.6813 103.73 59.9046Z" fill="black"/>
<path d="M46.9159 57.9389C46.8256 52.1622 41.8874 47.5511 35.8875 47.6457C29.8834 47.736 25.0912 52.4977 25.1772 58.2744C25.2674 64.0512 30.2057 68.6622 36.2055 68.5676C42.2097 68.4773 47.0018 63.7156 46.9159 57.9389Z" fill="black"/>
<path d="M99.5219 57.027C100.549 56.8764 101.263 55.9259 101.116 54.8935C100.97 53.8612 100.016 53.1515 98.9847 53.2977C97.9532 53.444 97.244 54.3989 97.3902 55.4312C97.5363 56.4635 98.4904 57.1732 99.5219 57.027Z" fill="white"/>
<path d="M41.0536 55.5086C42.0808 55.358 42.7942 54.4074 42.6481 53.3751C42.502 52.3428 41.5478 51.633 40.5163 51.7793C39.4891 51.9298 38.7757 52.8804 38.9218 53.9128C39.0679 54.9451 40.0221 55.6548 41.0536 55.5086Z" fill="white"/>
<path d="M80.2545 81.5749C80.0654 85.6096 77.8863 88.8013 75.4022 88.6808C72.9051 88.5604 72.5441 85.2612 72.7332 81.2265C72.9223 77.1918 73.597 73.9271 76.0812 74.0475C78.5654 74.168 80.4436 77.5403 80.2416 81.5792H80.2545V81.5749Z" fill="#F34FA5"/>
<path d="M48.5103 80.0866C48.3212 84.1213 50.1864 87.4979 52.6706 87.6183C55.1677 87.7387 55.8339 84.4912 56.0187 80.4393C56.2035 76.3874 55.8468 73.1012 53.3497 72.9851C50.8526 72.8646 48.6865 76.0562 48.4974 80.0909H48.5103V80.0866Z" fill="#F34FA5"/>
<path d="M107.615 27.3992C106.399 24.4097 103.141 22.0182 101.658 21.2181C101.624 18.7706 102.72 13.8757 107.391 13.7982C111.878 13.7294 113.245 19.9965 113.391 23.5193C114.835 23.1666 114.118 23.6183 113.408 23.9538C113.404 23.8075 113.396 23.6656 113.391 23.5193C113.013 23.6183 112.467 23.7559 111.732 23.9753C108.229 25.0334 107.525 26.6895 107.598 27.3906L107.615 27.4035V27.3992Z" fill="#BB6590"/>
<path d="M107.43 27.4765C106.253 24.5774 103.081 22.2332 101.572 21.403L101.013 21.0976L101.486 21.0288C101.49 19.2781 102.036 16.7747 103.575 15.1789C104.581 14.138 105.879 13.6003 107.434 13.5788C107.456 13.5788 107.482 13.5788 107.503 13.5788C111.939 13.5788 113.417 19.5448 113.632 23.2569C114.367 23.102 114.41 23.2139 114.466 23.3515C114.547 23.558 114.431 23.7257 113.537 24.1559L113.232 24.3021V23.9666C113.224 23.9107 113.224 23.8548 113.224 23.7946C112.888 23.8806 112.433 24.0096 111.827 24.1903C108.363 25.2355 107.778 26.8399 107.843 27.3733L107.43 27.4808V27.4765ZM101.916 21.1019C103.403 21.9536 106.188 24.0483 107.533 26.6765C107.877 25.7947 108.986 24.5946 111.702 23.7731C112.347 23.5795 112.833 23.4419 113.207 23.3472C113.017 19.79 111.651 14.0003 107.503 14.0003C107.482 14.0003 107.46 14.0003 107.439 14.0003C105.999 14.0219 104.804 14.5165 103.88 15.4714C102.406 16.9984 101.903 19.4287 101.912 21.0976L101.916 21.1019Z" fill="#F787BF"/>
<path d="M20.024 29.9972C21.1544 26.9604 24.3348 24.4828 25.7789 23.6354C25.7445 21.1879 24.4938 16.3274 19.8177 16.3919C15.1416 16.4565 14.166 22.7709 14.123 26.3023C12.6575 26.0055 13.401 26.4227 14.1273 26.7367C14.123 26.5905 14.1273 26.4442 14.123 26.3023C14.5098 26.3754 15.0514 26.5174 15.7949 26.7152C19.3278 27.6701 20.0842 29.3047 20.024 29.9972Z" fill="#BB6590"/>
<path d="M20.226 30.0703L19.8091 29.98C19.865 29.3132 19.0828 27.8164 15.739 26.926C15.1244 26.7582 14.6646 26.6464 14.3293 26.569C14.3293 26.6249 14.3293 26.6851 14.3293 26.741V27.0808L14.0242 26.9432C13.1216 26.5346 13.0013 26.3711 13.0786 26.1646C13.1302 26.0227 13.1689 25.9109 13.9038 26.0442C13.9984 22.3106 15.2964 16.2629 19.8177 16.1812C21.9323 16.1554 23.6343 17.1146 24.7345 18.9641C25.8735 20.8826 25.9895 23.0246 25.9981 23.6354V23.7602L25.8906 23.8247C24.4036 24.7065 21.3091 27.1454 20.226 30.0789V30.0703ZM14.3293 26.1259C14.7032 26.2077 15.1975 26.3324 15.8508 26.5087C18.5842 27.2357 19.7318 28.3842 20.1014 29.2659C21.3736 26.5862 24.1113 24.4011 25.564 23.5107C25.5425 22.801 25.3835 20.8912 24.3606 19.1749C23.3291 17.4415 21.7948 16.5726 19.822 16.6027C15.5972 16.6758 14.4024 22.5429 14.3293 26.1216V26.1259Z" fill="#F787BF"/>
<path d="M107.662 16.6457C104.435 13.1788 102.041 18.1985 101.245 21.1449L89.177 11.2862C105.737 -0.267322 118.196 7.48804 119.795 16.465C121.076 23.644 125.043 26.9174 126.865 27.6572C112.79 37.503 111.702 20.9901 107.667 16.65L107.662 16.6457Z" fill="#F787BF"/>
<path d="M19.65 19.248C22.7789 15.6908 25.319 20.6245 26.2043 23.5451L37.9762 13.3207C21.0769 2.2705 8.86235 10.4216 7.5343 19.4416C6.47272 26.6679 2.60892 30.0574 0.808105 30.8531C15.1802 40.2645 15.7519 23.7171 19.6672 19.2566L19.65 19.2437V19.248Z" fill="#F787BF"/>
</svg>
