<svg width="122" height="105" viewBox="0 0 122 105" fill="none" xmlns="http://www.w3.org/2000/svg">
<path d="M114.753 51.9529C114.792 80.8151 91.4412 104.245 62.6023 104.283C33.7635 104.322 10.3529 80.9528 10.3142 52.0906C15.4373 25.4134 33.6345 7.75632 62.4734 7.7176C91.3122 7.67889 105.904 22.7165 114.753 51.9529Z" fill="#74BE21"/>
<path d="M91.9439 53.9188C105.236 53.9188 116.012 43.1344 116.012 29.8311C116.012 16.5278 105.236 5.74341 91.9439 5.74341C78.6514 5.74341 67.8757 16.5278 67.8757 29.8311C67.8757 43.1344 78.6514 53.9188 91.9439 53.9188Z" fill="white"/>
<path d="M91.9439 59.0803C84.1519 59.0803 76.824 56.0479 71.3055 50.5421C65.7784 45.0235 62.7269 37.6853 62.7183 29.8697C62.6968 13.7396 75.7882 0.603172 91.9053 0.581665H91.9439C99.736 0.581665 107.064 3.61413 112.582 9.11989C118.109 14.6386 121.161 21.9767 121.17 29.7923C121.178 37.6079 118.148 44.9546 112.638 50.4862C107.124 56.0178 99.7919 59.0717 91.9826 59.0803H91.9439ZM91.9439 10.905H91.9181C81.4915 10.9179 73.0203 19.4217 73.0332 29.8568C73.0418 34.9109 75.0145 39.6639 78.5904 43.2341C82.1662 46.8042 86.8982 48.7656 91.9697 48.7613C97.0197 48.7527 101.769 46.7784 105.336 43.1997C108.903 39.6209 110.863 34.8636 110.859 29.8095C110.85 24.7554 108.878 20.0024 105.302 16.4322C101.73 12.8664 96.9897 10.905 91.9482 10.905H91.9439Z" fill="#74BE21"/>
<path d="M29.6246 54.0046C42.917 54.0046 53.6927 43.2202 53.6927 29.9169C53.6927 16.6136 42.917 5.82922 29.6246 5.82922C16.3321 5.82922 5.5564 16.6136 5.5564 29.9169C5.5564 43.2202 16.3321 54.0046 29.6246 54.0046Z" fill="white"/>
<path d="M29.6246 59.1663C21.8325 59.1663 14.5046 56.1338 8.98612 50.6281C3.45903 45.1094 0.40754 37.7712 0.398944 29.9557C0.390348 22.1401 3.42036 14.7933 8.93025 9.26175C14.4444 3.73018 21.7766 0.676205 29.5859 0.667603H29.6246C45.7202 0.667603 58.8287 13.761 58.8502 29.8782C58.8717 46.0084 45.7803 59.1448 29.6633 59.1663H29.6246ZM29.5988 10.9909C24.5488 10.9995 19.7996 12.9738 16.2324 16.5526C12.6651 20.1313 10.7053 24.8886 10.7096 29.9427C10.7182 34.9969 12.6909 39.7499 16.2667 43.32C19.8383 46.8859 24.5789 48.8473 29.6203 48.8473H29.6461C40.0727 48.8344 48.5439 40.3306 48.531 29.8954C48.5181 19.4689 40.0341 10.9952 29.6203 10.9952H29.5945L29.5988 10.9909Z" fill="#74BE21"/>
<path d="M21.4701 37.653C25.5053 37.6473 28.7722 34.5615 28.7669 30.7606C28.7616 26.9596 25.4861 23.883 21.4509 23.8886C17.4157 23.8942 14.1488 26.9801 14.1541 30.781C14.1594 34.5819 17.4349 37.6586 21.4701 37.653Z" fill="#423737"/>
<path d="M101.403 31.5193C105.438 31.5137 108.705 28.4278 108.699 24.6269C108.694 20.826 105.419 17.7493 101.383 17.7549C97.3481 17.7606 94.0812 20.8464 94.0865 24.6473C94.0918 28.4483 97.3673 31.5249 101.403 31.5193Z" fill="#423737"/>
<path d="M23.3884 28.6352C24.4565 28.6352 25.3224 27.7685 25.3224 26.6995C25.3224 25.6305 24.4565 24.7639 23.3884 24.7639C22.3202 24.7639 21.4543 25.6305 21.4543 26.6995C21.4543 27.7685 22.3202 28.6352 23.3884 28.6352Z" fill="white"/>
<path d="M103.32 22.5058C104.388 22.5058 105.254 21.6392 105.254 20.5701C105.254 19.5011 104.388 18.6345 103.32 18.6345C102.252 18.6345 101.386 19.5011 101.386 20.5701C101.386 21.6392 102.252 22.5058 103.32 22.5058Z" fill="white"/>
<path d="M113.266 65.2916C59.826 86.1791 22.5891 72.7975 11.6208 64.1345C14.2125 74.2384 26.0704 104.567 65.6109 104.279C94.8366 104.068 109.918 78.1957 113.266 65.2873V65.2916Z" fill="#FFDE88"/>
<path d="M93.9554 86.8241C87.7707 88.5533 84.6332 78.5225 83.8381 73.2877C86.073 73.2877 92.9325 71.266 96.0828 70.2595C97.9524 75.0599 100.144 85.095 93.9554 86.8241Z" fill="#FF837B"/>
<path d="M68.142 70.2983C69.6849 70.2983 70.9356 69.0466 70.9356 67.5024C70.9356 65.9583 69.6849 64.7065 68.142 64.7065C66.5991 64.7065 65.3484 65.9583 65.3484 67.5024C65.3484 69.0466 66.5991 70.2983 68.142 70.2983Z" fill="black"/>
<path d="M56.1081 70.3111C57.651 70.3111 58.9017 69.0594 58.9017 67.5153C58.9017 65.9711 57.651 64.7194 56.1081 64.7194C54.5652 64.7194 53.3145 65.9711 53.3145 67.5153C53.3145 69.0594 54.5652 70.3111 56.1081 70.3111Z" fill="black"/>
<path d="M49.1927 38.4939C25.997 47.1268 13.7351 39.4015 11.5862 38.5455C13.099 44.1373 16.5502 55.2908 31.3779 54.4348C43.5839 53.7294 48.3417 43.5136 49.1927 38.4982V38.4939Z" fill="#6EB321"/>
<path d="M29.8264 54.6929C15.7293 54.6929 12.5875 43.0706 11.3798 38.6015L11.2681 38.1842L11.6678 38.3434C11.8569 38.4208 12.1234 38.5455 12.4543 38.7047C22.7649 43.647 35.0999 43.5093 49.1196 38.2918L49.4677 38.1627L49.4032 38.5283C48.5093 43.7932 43.5925 53.9402 31.3865 54.6456C30.8535 54.6757 30.3292 54.6929 29.8221 54.6929H29.8264ZM11.9127 38.9241C13.3268 44.1029 16.7092 55.0585 31.365 54.2154C43.0166 53.5444 47.8775 44.0642 48.9133 38.8251C34.9279 43.9567 22.6016 44.047 12.2695 39.0918C12.1405 39.0273 12.0202 38.9714 11.9127 38.9198V38.9241Z" fill="#74BE21"/>
<path d="M110.648 37.552C87.4523 46.1849 75.1904 38.4596 73.0415 37.6036C74.5544 43.1954 78.0056 54.3489 92.8333 53.4929C105.039 52.7875 109.797 42.5717 110.648 37.5563V37.552Z" fill="#6EB321"/>
<path d="M91.2819 53.7509C77.1848 53.7509 74.0431 42.1286 72.8354 37.6594L72.7236 37.2422L73.1233 37.4014C73.3124 37.4788 73.5789 37.6035 73.9099 37.7627C84.2205 42.705 96.5554 42.5673 110.575 37.3497L110.923 37.2207L110.859 37.5863C109.965 42.8512 105.048 52.9981 92.842 53.7036C92.3091 53.7337 91.7848 53.7509 91.2776 53.7509H91.2819ZM73.3683 37.982C74.7823 43.1609 78.1734 54.1208 92.8206 53.2734C104.476 52.6024 109.333 43.1222 110.369 37.8831C96.3835 43.0147 84.0572 43.105 73.725 38.1498C73.5961 38.0853 73.4758 38.0294 73.3683 37.9777V37.982Z" fill="#74BE21"/>
</svg>
