<svg width="153" height="114" viewBox="0 0 153 114" fill="none" xmlns="http://www.w3.org/2000/svg">
<path d="M1.62798 11.3487C14.7322 -4.34268 30.6 6.69895 36.9007 14.179C51.376 28.9413 23.2721 32.0943 16.1033 31.6641C8.93439 31.234 -4.69851 20.6225 1.63228 11.3487H1.62798Z" fill="#E8E8E8"/>
<path d="M150.494 11.3487C137.39 -4.34268 121.522 6.69895 115.221 14.179C100.746 28.9413 128.85 32.0943 136.018 31.6641C143.187 31.234 156.816 20.6225 150.489 11.3487H150.494Z" fill="#E8E8E8"/>
<path d="M35.1646 21.1387C30.1533 15.8867 17.5733 7.03879 7.33577 13.6586C-5.46334 21.9301 23.4528 34.1159 35.1646 21.1387Z" fill="#FCB6D9"/>
<path d="M116.953 21.1387C121.964 15.8867 134.544 7.03879 144.782 13.6586C157.581 21.9301 128.665 34.1159 116.953 21.1387Z" fill="#FCB6D9"/>
<path d="M130.595 54.2334C130.595 86.9281 116.768 113.433 77.593 113.433C38.4178 113.433 23.5771 86.9281 23.5771 54.2334C23.5771 21.5387 39.1097 3.31805 77.593 3.31805C109.969 3.31805 130.595 21.5387 130.595 54.2334Z" fill="#E8E8E8"/>
<path d="M131.824 6.35915C132.683 6.35915 134.807 6.60001 135.327 6.72045C135.92 6.66883 136.517 6.63443 137.102 6.81079C138.271 7.1635 138.907 6.78498 140.016 6.78498C140.832 6.78498 141.713 6.27312 142.538 6.14838C143.08 6.06666 143.776 5.84729 144.27 5.66663C144.662 5.52469 146.037 5.55049 145.521 5.18058C144.528 4.46655 143.768 3.85143 142.281 3.79121C141.868 3.77401 142.951 3.45571 143.243 3.25785C143.51 3.07719 145.534 2.29005 144.898 2.19542C143.686 2.01046 142.134 1.99326 140.879 2.08789C140.016 2.15241 139.143 2.29004 138.288 2.39757C137.798 2.45779 136.328 2.72879 135.907 2.59545C135.584 2.49221 138.314 0.371644 138.163 0.371644C136.809 0.371644 135.365 0.960932 134.016 1.12438C133.246 1.21901 132.365 1.64484 131.575 1.81259C130.668 2.00615 130.792 1.76098 131.11 1.27923C131.325 0.952323 131.729 0.750167 132.133 0.535098C133.006 0.0748509 132.039 0.431859 131.583 0.582407C129.821 1.16309 128.901 2.23842 127.767 3.25785C126.228 4.63859 124.715 5.96772 124.178 7.70117C123.967 8.38079 124.681 7.88182 125.27 7.74848C126.125 7.55492 126.954 7.27103 127.801 7.04736C129.176 6.68174 130.307 6.35915 131.82 6.35915H131.824Z" fill="#E8E8E8"/>
<path d="M18.0461 6.35915C17.1865 6.35915 15.0633 6.60001 14.5433 6.72045C13.9502 6.66883 13.3528 6.63443 12.7683 6.81079C11.5992 7.1635 10.9632 6.78498 9.8543 6.78498C9.0377 6.78498 8.15663 6.27312 7.33573 6.14838C6.7942 6.06666 6.09794 5.84729 5.60369 5.66663C5.21258 5.52469 3.83725 5.55049 4.353 5.18058C5.34581 4.46655 6.10654 3.85143 7.58931 3.79121C8.00191 3.77401 6.91884 3.45571 6.62658 3.25785C6.36011 3.07719 4.33581 2.29005 4.9719 2.19542C6.1839 2.01046 7.73544 1.99326 8.99042 2.08789C9.8543 2.15241 10.7268 2.29004 11.582 2.39757C12.072 2.45779 13.5419 2.72879 13.9631 2.59545C14.2854 2.49221 11.5563 0.371644 11.7067 0.371644C13.0605 0.371644 14.5046 0.960932 15.8541 1.12438C16.6235 1.21901 17.5045 1.64484 18.2953 1.81259C19.2022 2.00615 19.0776 1.76098 18.7595 1.27923C18.5446 0.952323 18.1406 0.750167 17.7366 0.535098C16.8642 0.0748509 17.8312 0.431859 18.2868 0.582407C20.0489 1.16309 20.9686 2.23842 22.1033 3.25785C23.6419 4.63859 25.1548 5.96772 25.692 7.70117C25.9026 8.38079 25.1892 7.88182 24.5961 7.74848C23.7408 7.55492 22.9113 7.27103 22.0689 7.04736C20.6936 6.68174 19.5632 6.35915 18.0504 6.35915H18.0461Z" fill="#E8E8E8"/>
<path d="M101.756 27.8058C105.645 17.2975 115.041 18.803 119.738 20.2655C141.61 45.3253 124.599 88.6272 119.008 94.9545C114.538 100.013 101.429 88.7906 95.4336 82.545C94.6213 81.4912 91.6429 78.4114 86.1974 74.5187C79.3939 69.6538 84.9811 57.7304 86.1974 52.1343C87.4137 46.5425 96.8906 40.9465 101.751 27.8101L101.756 27.8058Z" fill="#A1634B"/>
<path d="M109.32 81.6031C116.322 81.6031 121.999 76.2109 121.999 69.5592C121.999 62.9076 116.322 57.5154 109.32 57.5154C102.318 57.5154 96.6414 62.9076 96.6414 69.5592C96.6414 76.2109 102.318 81.6031 109.32 81.6031Z" fill="black"/>
<path d="M55.0549 47.2781C49.2399 41.8455 34.2231 34.3482 27.441 31.277C16.202 64.0535 32.1257 91.9608 41.4908 101.82C49.9705 94.3868 67.1664 78.0631 68.1377 72.2433C69.3497 64.974 62.3227 54.0657 55.0592 47.2781H55.0549Z" fill="#A1634B"/>
<path d="M47.2156 81.6031C54.0992 81.6031 59.6795 76.2109 59.6795 69.5592C59.6795 62.9076 54.0992 57.5154 47.2156 57.5154C40.332 57.5154 34.7517 62.9076 34.7517 69.5592C34.7517 76.2109 40.332 81.6031 47.2156 81.6031Z" fill="black"/>
<path d="M47.2155 77.3017C51.7255 77.3017 55.3815 73.8353 55.3815 69.5592C55.3815 65.2832 51.7255 61.8168 47.2155 61.8168C42.7056 61.8168 39.0496 65.2832 39.0496 69.5592C39.0496 73.8353 42.7056 77.3017 47.2155 77.3017Z" fill="black"/>
<path d="M49.3645 66.9784C50.5513 66.9784 51.5135 66.0155 51.5135 64.8277C51.5135 63.64 50.5513 62.6771 49.3645 62.6771C48.1777 62.6771 47.2156 63.64 47.2156 64.8277C47.2156 66.0155 48.1777 66.9784 49.3645 66.9784Z" fill="white"/>
<path d="M111.684 66.9784C112.871 66.9784 113.833 66.0155 113.833 64.8277C113.833 63.64 112.871 62.6771 111.684 62.6771C110.497 62.6771 109.535 63.64 109.535 64.8277C109.535 66.0155 110.497 66.9784 111.684 66.9784Z" fill="white"/>
<path d="M101.339 92.7006C101.339 100.013 103.174 109.992 77.2966 109.992C51.4191 109.992 54.174 100.013 54.174 92.7006C54.174 85.3883 62.095 79.4524 77.2966 79.4524C92.4983 79.4524 101.339 85.384 101.339 92.7006Z" fill="#FC9BCE"/>
<path d="M97.385 99.5398C96.4953 103.691 94.0413 106.684 91.9095 106.224C89.7777 105.768 90.0571 102.306 90.9468 98.1547C91.8364 94.0039 93.0012 90.7306 95.1372 91.1908C97.269 91.6468 98.279 95.3846 97.385 99.5398Z" fill="#F34FA5"/>
<path d="M57.8701 99.5484C58.7683 103.699 61.2267 106.689 63.3628 106.224C65.4945 105.76 65.2066 102.301 64.3083 98.1504C63.41 93.9996 62.2367 90.7306 60.105 91.1951C57.9732 91.6597 56.9718 95.3975 57.8701 99.5484Z" fill="#F34FA5"/>
<path d="M109.084 5.90753C105.865 9.5852 98.8765 12.9575 95.782 14.1834C96.7619 17.147 99.9294 22.2742 104.752 19.0869C109.578 15.8996 111.091 11.8348 111.25 10.2003C111.869 7.23664 112.303 2.22985 109.084 5.90753Z" fill="#FFE5B9"/>
<path d="M42.0797 5.90753C45.2988 9.5852 52.2872 12.9575 55.3816 14.1834C54.4017 17.147 51.2342 22.2742 46.4119 19.0869C41.5854 15.8996 40.0726 11.8348 39.9178 10.2003C39.2989 7.23664 38.8649 2.22985 42.084 5.90753H42.0797Z" fill="#FFE5B9"/>
</svg>
