<svg width="176" height="279" viewBox="0 0 176 279" fill="none" xmlns="http://www.w3.org/2000/svg">
<path d="M94.4308 8.54588C94.4919 4.32687 90.9287 0.854329 86.4723 0.789767C82.0158 0.725206 78.3536 4.09307 78.2924 8.31208C78.2313 12.5311 81.7945 16.0035 86.2509 16.0681C90.7074 16.1326 94.3696 12.7649 94.4308 8.54588Z" fill="#E5D79C"/>
<path d="M162.347 77.379C162.798 46.261 136.532 20.649 103.68 20.173C70.8279 19.6971 43.8307 44.5375 43.3799 75.6554C42.9291 106.773 69.1954 132.385 102.047 132.861C134.899 133.337 161.897 108.497 162.347 77.379Z" fill="#F5DCBE"/>
<path d="M86.3581 89.1916C86.4319 82.7911 80.7926 77.5368 73.7625 77.4558C66.7324 77.3748 60.9736 82.4978 60.8999 88.8984C60.8261 95.2989 66.4654 100.553 73.4955 100.634C80.5256 100.715 86.2844 95.5922 86.3581 89.1916Z" fill="#413A3A"/>
<path d="M139.278 89.9135C139.351 83.513 133.712 78.2587 126.682 78.1777C119.652 78.0967 113.893 83.2197 113.819 89.6203C113.746 96.0208 119.385 101.275 126.415 101.356C133.445 101.437 139.204 96.3141 139.278 89.9135Z" fill="#413A3A"/>
<path d="M70.25 85.3399C70.276 83.5452 68.7616 82.068 66.8674 82.0406C64.9733 82.0132 63.4167 83.4458 63.3907 85.2406C63.3647 87.0353 64.8791 88.5125 66.7733 88.5399C68.6674 88.5674 70.224 87.1347 70.25 85.3399Z" fill="white"/>
<path d="M124.861 84.4527C124.887 82.658 123.373 81.1808 121.479 81.1534C119.584 81.126 118.028 82.5586 118.002 84.3534C117.976 86.1481 119.49 87.6253 121.384 87.6527C123.278 87.6802 124.835 86.2475 124.861 84.4527Z" fill="white"/>
<path d="M131.875 160.445L131.685 188.185C131.595 200.995 120.565 211.285 107.045 211.185L97.1948 211.105C83.6748 210.995 72.7847 200.535 72.8747 187.725L73.0648 159.985C73.1548 147.175 84.1847 136.885 97.7047 136.985L107.555 137.065C121.125 137.175 131.935 151.925 131.875 160.445Z" fill="#E4827A"/>
<path d="M126.355 148.345C127.985 146.305 131.065 145.915 133.215 147.465L153.505 162.075C155.655 163.625 156.085 166.535 154.445 168.575C152.815 170.615 149.735 171.005 147.585 169.455L127.295 154.845C125.145 153.295 124.715 150.385 126.355 148.345Z" fill="#E4827A"/>
<path d="M76.6848 143.625L56.1547 158.135C53.9747 159.675 53.3447 162.695 54.7347 164.885C56.1347 167.075 59.0347 167.595 61.2147 166.055L81.7447 151.545C83.9247 150.005 84.5547 146.985 83.1647 144.795C81.7647 142.605 78.8648 142.085 76.6848 143.625Z" fill="#E4827A"/>
<path d="M149.175 162.365C151.545 161.145 154.525 161.975 155.815 164.225L168.005 185.415C169.295 187.665 168.425 190.485 166.055 191.705C163.685 192.925 160.705 192.095 159.415 189.845L147.225 168.655C145.935 166.405 146.805 163.585 149.175 162.365Z" fill="#E4827A"/>
<path d="M60.5148 158.595L45.8249 138.875C44.2649 136.785 41.2048 136.275 39.0048 137.755C36.7948 139.225 36.2748 142.125 37.8348 144.215L52.5248 163.935C54.0848 166.025 57.1448 166.535 59.3448 165.055C61.5548 163.585 62.0748 160.685 60.5148 158.595Z" fill="#E4827A"/>
<path d="M97.6648 209.795L96.9647 231.925C96.8847 234.415 94.2248 236.465 91.0148 236.505C87.8048 236.555 85.2647 234.575 85.3447 232.085L86.0448 209.955C86.1248 207.465 88.7848 205.415 91.9948 205.375C95.2048 205.325 97.7448 207.305 97.6648 209.795Z" fill="#2D679B"/>
<path d="M124.005 211.395L124.135 235.485C124.145 238.195 121.575 240.265 118.395 240.105C115.205 239.955 112.615 237.635 112.605 234.935L112.475 210.845C112.465 208.135 115.035 206.065 118.215 206.225C121.405 206.375 123.995 208.695 124.005 211.395Z" fill="#2D679B"/>
<path d="M95.2848 240.455L95.0947 267.815C95.0747 270.885 92.4248 273.355 89.1848 273.335C85.9448 273.305 83.3247 270.795 83.3447 267.725L83.5348 240.365C83.5548 237.295 86.2048 234.825 89.4448 234.845C92.6848 234.875 95.3048 237.385 95.2848 240.455Z" fill="#2D679B"/>
<path d="M125.175 242.005L124.795 269.365C124.755 272.435 122.085 274.895 118.845 274.845C115.605 274.795 113.005 272.265 113.045 269.195L113.425 241.835C113.465 238.765 116.135 236.305 119.375 236.355C122.615 236.405 125.215 238.935 125.175 242.005Z" fill="#2D679B"/>
<path d="M108.555 133.595L108.525 138.235C108.505 141.435 105.745 144.015 102.365 143.985C98.9847 143.955 96.2648 141.345 96.2848 138.145L96.3148 133.505C96.3348 130.305 99.0947 127.725 102.475 127.755C105.855 127.785 108.575 130.395 108.555 133.595Z" fill="#F5DCBE"/>
<path d="M95.8347 132.335C98.7647 132.825 105.605 133.115 109.055 132.435C103.015 140.785 97.7247 135.845 95.8347 132.335Z" fill="#CFBFA0"/>
<g opacity="0.2">
<path d="M72.0003 114.352C72.0429 111.408 69.5571 108.986 66.4481 108.941C63.339 108.896 60.7842 111.245 60.7415 114.189C60.6989 117.132 63.1846 119.555 66.2937 119.6C69.4027 119.645 71.9576 117.295 72.0003 114.352Z" fill="#E3817A"/>
</g>
<g opacity="0.2">
<path d="M144.46 114.917C144.503 111.974 142.017 109.551 138.908 109.506C135.799 109.461 133.244 111.811 133.201 114.754C133.158 117.698 135.644 120.12 138.753 120.165C141.862 120.21 144.417 117.861 144.46 114.917Z" fill="#E3817A"/>
</g>
<path d="M162.605 199.675L160.215 196.345C157.965 193.215 158.825 188.955 162.125 186.835C165.425 184.715 169.925 185.525 172.165 188.655L174.555 191.985C176.805 195.115 175.945 199.375 172.645 201.495C169.345 203.615 164.845 202.805 162.605 199.675Z" fill="#F5DCBE"/>
<path d="M157.525 196.785L158.185 193.545C158.445 192.285 159.735 191.465 161.065 191.705C162.395 191.955 163.265 193.175 163.005 194.435L162.345 197.675C162.085 198.935 160.795 199.755 159.465 199.515C158.135 199.265 157.265 198.045 157.525 196.785Z" fill="#F5DCBE"/>
<path d="M30.9848 125.905C27.7848 128.155 27.1148 132.445 29.4948 135.485L32.0348 138.725C34.4148 141.765 38.9448 142.405 42.1448 140.155C45.3448 137.905 46.0148 133.615 43.6348 130.575L41.0947 127.335C38.7147 124.295 34.1848 123.655 30.9848 125.905Z" fill="#F5DCBE"/>
<path d="M88.4449 268.535C95.0649 268.555 100.585 271.765 100.785 275.685C100.975 279.605 95.5848 278.985 88.9648 278.955C82.3448 278.935 77.0149 279.515 76.8149 275.595C76.6249 271.675 81.8249 268.505 88.4449 268.535Z" fill="#E4827A"/>
<path d="M128.045 268.205C134.745 268.165 140.065 271.275 139.935 275.145C139.795 279.015 134.885 278.205 128.175 278.245C121.475 278.285 115.525 279.145 115.665 275.275C115.805 271.405 121.345 268.235 128.045 268.205Z" fill="#E4827A"/>
<path d="M47.1597 96.4248C50.99 95.0155 52.5013 89.5409 50.5351 84.1971C48.569 78.8533 43.87 75.6637 40.0396 77.073C36.2093 78.4823 34.698 83.9568 36.6641 89.3006C38.6303 94.6444 43.3293 97.8341 47.1597 96.4248Z" fill="#F5DCBE"/>
<path d="M168.666 90.4141C170.7 85.1016 169.254 79.6105 165.438 78.1492C161.621 76.6879 156.878 79.8098 154.844 85.1223C152.81 90.4348 154.255 95.9261 158.072 97.3874C161.889 98.8486 166.632 95.7266 168.666 90.4141Z" fill="#F5DCBE"/>
<path d="M50.3048 96.0447L47.1047 97.8747L42.8447 77.2046C35.9647 57.2046 50.8748 14.1947 105.945 16.4747C153.745 18.4547 169.495 54.6947 161.085 78.1247L158.005 98.7347L153.105 98.6946C154.705 92.2146 156.145 77.5746 149.135 70.8346C140.385 62.4146 130.605 59.5646 125.755 53.2646C121.335 54.8546 109.725 56.3446 98.6047 49.5746C92.5547 51.3846 78.8947 52.5746 72.7047 42.8846C68.1547 51.0446 57.6948 68.2746 52.1848 71.9446C46.6748 75.6146 48.6348 89.5447 50.3048 96.0447Z" fill="#A55D5B"/>
<path d="M37.9647 63.4547C34.8947 58.7147 31.3648 48.3748 41.7648 44.9348C41.4048 38.6748 44.6347 27.0547 60.4747 30.7047C61.4947 24.6047 66.6648 14.0147 79.1548 20.4147C82.4648 14.4847 92.0848 5.48473 104.155 16.8947C109.005 12.0647 120.345 5.65472 126.915 18.6947C132.065 16.9547 143.135 16.5448 146.185 28.8148C150.845 28.3148 159.785 30.0847 158.335 41.1947C162.985 41.9247 171.125 46.6247 166.535 59.5747C170.345 63.3147 175.405 72.3047 165.175 78.3447L162.945 82.7348L155.115 82.6748C154.125 83.5948 151.535 82.8348 149.065 72.4248C146.935 73.1848 141.965 73.0148 139.065 66.3148C135.555 66.6748 128.645 65.3948 129.085 57.4248C125.485 59.3248 117.205 62.3447 112.915 59.1547C108.915 59.5847 100.725 59.1047 99.9747 53.7247C96.4447 56.2447 88.5248 60.1247 85.0248 55.4647C81.8348 56.2947 75.4748 55.8547 75.5348 47.5047C74.9348 52.2147 71.8548 62.0347 64.4048 63.6547C63.6348 68.2847 60.2448 77.5347 52.8048 77.4747C45.3648 77.4147 49.6948 78.9948 52.7848 79.7948C53.4048 83.9748 53.7748 92.0947 50.2548 91.1347C45.8548 89.9447 45.3048 98.9847 43.3848 93.4047C40.6248 91.2947 35.6548 85.5948 37.8548 79.6848C34.6948 76.3348 30.2947 68.4047 37.9647 63.4547Z" fill="#A55D5B"/>
<path d="M108.395 136.565C107.825 139.825 106.115 141.775 102.505 141.835C98.6648 141.905 98.0748 139.245 96.8748 136.295C96.1548 134.535 93.2548 135.305 93.9848 137.095C95.7448 141.405 97.1748 145.005 102.505 144.835C107.315 144.685 110.445 142.125 111.285 137.365C111.615 135.475 108.725 134.665 108.395 136.565Z" fill="#F9E96D"/>
<path d="M111.925 137.515C111.925 137.515 120.425 138.305 120.435 141.515C120.445 144.735 121.225 164.665 121.385 164.845C128.215 172.645 130.765 173.675 131.635 178.505C131.635 178.505 132.515 185.745 131.685 190.575L73.0548 188.295C73.0548 188.295 72.9748 169.785 83.9948 164.135L86.4448 139.985C86.4448 139.985 86.4448 138.375 88.9848 137.565C92.3048 136.505 94.0847 137.555 94.0847 137.555L94.1948 163.305L112.035 163.265L111.925 137.515Z" fill="#2D679B"/>
<path d="M120.484 169.133C120.513 167.184 118.866 165.579 116.806 165.55C114.746 165.52 113.053 167.076 113.025 169.025C112.997 170.975 114.644 172.579 116.704 172.609C118.763 172.639 120.456 171.083 120.484 169.133Z" fill="#F9E96D"/>
<path d="M91.6975 169.719C91.7257 167.769 90.0788 166.165 88.019 166.135C85.9592 166.105 84.2665 167.661 84.2383 169.611C84.21 171.56 85.8569 173.165 87.9167 173.194C89.9765 173.224 91.6693 171.668 91.6975 169.719Z" fill="#F9E96D"/>
<path d="M131.845 188.515C131.755 201.325 120.725 211.615 107.205 211.515L97.3547 211.435C83.8347 211.325 72.9447 200.865 73.0347 188.055" fill="#2D679B"/>
<path d="M85.7548 176.515C87.5148 176.625 119.315 176.445 119.315 176.445C119.315 176.445 119.345 182.615 119.345 182.935C119.345 183.255 120.575 196.635 102.915 196.675C85.2448 196.715 85.7848 182.365 85.7848 182.365L85.7648 176.515H85.7548Z" fill="#3A87C1"/>
<path d="M158.045 40.9647C158.045 40.9647 164.065 16.9347 139.545 4.48469C115.025 -7.9553 58.9147 5.53467 33.3847 44.3347C28.5247 51.8447 30.0547 61.2447 37.3947 63.6347C44.3347 65.9047 60.4147 5.64466 158.045 40.9547V40.9647Z" fill="#FFEFAB"/>
<mask id="mask0_284_10208" style="mask-type:luminance" maskUnits="userSpaceOnUse" x="30" y="0" width="129" height="64">
<path d="M158.045 40.9647C158.045 40.9647 164.065 16.9347 139.545 4.48469C115.025 -7.9553 58.9147 5.53467 33.3847 44.3347C28.5247 51.8447 30.0547 61.2447 37.3947 63.6347C44.3347 65.9047 60.4147 5.64466 158.045 40.9547V40.9647Z" fill="white"/>
</mask>
<g mask="url(#mask0_284_10208)">
<path d="M59.8547 3.64478C58.7047 4.85478 33.3448 33.8848 60.6848 41.0648C60.8148 41.0648 80.4048 46.2448 60.6848 41.0648C60.5548 41.0648 40.8047 63.0348 38.8447 66.5548C36.8847 70.0748 28.8148 66.2648 28.8148 66.2648L21.5248 55.6248C21.5248 55.6248 23.1748 44.3548 23.1648 41.9448C23.1648 39.5348 28.6648 31.1748 28.6648 31.1748L59.8347 3.63477L59.8547 3.64478Z" fill="#E5D79C"/>
<path d="M159.655 47.5647L161.475 41.7947C161.475 41.7947 73.1048 -4.01534 34.1448 69.5547C34.1448 69.5547 77.6348 14.2346 159.655 47.5746V47.5647Z" fill="#E5D79C"/>
</g>
<path d="M91.1448 109.045C97.7748 115.505 105.255 114.465 108.155 113.135" stroke="#764C4C" stroke-width="3" stroke-linecap="round"/>
<path d="M9.6748 80.0847C9.6748 81.2647 17.2448 102.485 26.0148 116.615C34.7948 130.755 44.8248 148.425 44.8248 148.425C44.8248 148.425 48.5748 151.955 47.3148 147.235C46.0548 142.515 23.4348 94.2047 20.9248 90.6647C18.4148 87.1247 14.0248 78.7847 14.0248 78.7847L9.6748 80.0746V80.0847Z" fill="#BA7842"/>
<path d="M5.4348 54.9446C5.4348 54.9446 -2.00523 63.2146 0.524769 71.4746C3.05477 79.7246 6.80478 83.2546 10.5348 82.0746C14.2648 80.8946 14.8848 80.0246 14.8848 80.0246C14.8848 80.0246 20.4747 76.1546 15.4747 71.4446C10.4747 66.7346 0.494813 62.0446 5.44481 54.9546L5.4348 54.9446Z" fill="#8D2321"/>
<path d="M45.1848 131.345C45.1648 130.065 44.0549 129.035 42.6949 129.045L39.2148 129.085C37.8548 129.105 36.7748 130.155 36.7948 131.445C36.8148 132.725 37.9248 133.755 39.2848 133.745L42.7648 133.705C44.1248 133.685 45.2048 132.635 45.1848 131.345Z" fill="#F5DCBE"/>
</svg>
