<svg width="116" height="313" viewBox="0 0 116 313" fill="none" xmlns="http://www.w3.org/2000/svg">
<path d="M115.93 57.06C115.93 47.9307 108.529 40.53 99.4 40.53C90.2707 40.53 82.87 47.9307 82.87 57.06V263.44C82.87 272.569 90.2707 279.97 99.4 279.97C108.529 279.97 115.93 272.569 115.93 263.44V57.06Z" fill="#B29C74"/>
<path d="M115.06 52.53C115.06 43.4007 107.659 36 98.53 36C89.4007 36 82 43.4007 82 52.53V258.91C82 268.039 89.4007 275.44 98.53 275.44C107.659 275.44 115.06 268.039 115.06 258.91V52.53Z" fill="#DDC38E"/>
<path d="M99.2499 249.33C97.8099 249.33 96.6599 246.12 96.7099 242.25L98.7999 65.09C98.7999 64.43 99.0099 63.91 99.2499 63.91C99.4899 63.91 99.6899 64.43 99.6999 65.09L101.79 242.25C101.84 246.12 100.68 249.33 99.2499 249.33Z" fill="white"/>
<path d="M42.5 6H38C17.0132 6 0 23.0132 0 44V275C0 295.987 17.0132 313 38 313H42.5C63.4868 313 80.5 295.987 80.5 275V44C80.5 23.0132 63.4868 6 42.5 6Z" fill="#B29C74"/>
<path d="M45.5 0H41C20.0132 0 3 17.0132 3 38V269C3 289.987 20.0132 307 41 307H45.5C66.4868 307 83.5 289.987 83.5 269V38C83.5 17.0132 66.4868 0 45.5 0Z" fill="#DDC38E"/>
</svg>
