<svg width="427" height="71" viewBox="0 0 427 71" fill="none" xmlns="http://www.w3.org/2000/svg">
<path d="M397.18 0.790009H29.8C13.3364 0.790009 -0.0100098 14.1364 -0.0100098 30.6V40.98C-0.0100098 57.4436 13.3364 70.79 29.8 70.79H397.18C413.644 70.79 426.99 57.4436 426.99 40.98V30.6C426.99 14.1364 413.644 0.790009 397.18 0.790009Z" fill="#FDC9A2"/>
<path d="M46.75 49.58C45.42 48.97 44.37 48.12 43.62 47.04C42.87 45.96 42.45 44.74 42.4 43.39H45.21C45.34 44.68 45.91 45.82 46.92 46.79C47.93 47.77 49.42 48.25 51.37 48.25C53.17 48.25 54.59 47.79 55.65 46.86C56.7 45.94 57.23 44.76 57.23 43.35C57.23 42.21 56.94 41.29 56.36 40.59C55.78 39.89 55.05 39.38 54.19 39.03C53.33 38.69 52.14 38.32 50.62 37.91C48.85 37.43 47.44 36.96 46.4 36.5C45.36 36.04 44.47 35.33 43.74 34.37C43 33.41 42.64 32.1 42.64 30.46C42.64 29.09 42.99 27.87 43.7 26.79C44.41 25.71 45.41 24.87 46.7 24.26C47.99 23.65 49.47 23.35 51.15 23.35C53.61 23.35 55.59 23.95 57.1 25.15C58.61 26.35 59.48 27.91 59.7 29.8H56.81C56.63 28.71 56.04 27.74 55.02 26.89C54.01 26.04 52.64 25.62 50.92 25.62C49.32 25.62 47.99 26.05 46.93 26.89C45.87 27.74 45.33 28.9 45.33 30.37C45.33 31.49 45.62 32.38 46.2 33.07C46.78 33.75 47.51 34.27 48.38 34.63C49.25 34.99 50.44 35.37 51.93 35.77C53.65 36.25 55.05 36.73 56.11 37.2C57.17 37.67 58.07 38.38 58.81 39.35C59.54 40.31 59.91 41.6 59.91 43.23C59.91 44.47 59.58 45.65 58.92 46.77C58.26 47.89 57.29 48.78 55.99 49.47C54.69 50.16 53.15 50.5 51.35 50.5C49.55 50.5 48.06 50.2 46.73 49.59L46.75 49.58Z" fill="white"/>
<path d="M67.55 25.83V35.75H77.62V37.95H67.55V48.02H78.76V50.22H64.89V23.62H78.76V25.82H67.55V25.83Z" fill="white"/>
<path d="M86.51 48.06H96.05V50.23H83.85V23.67H86.51V48.06Z" fill="white"/>
<path d="M102.36 25.83V35.75H112.43V37.95H102.36V48.02H113.57V50.22H99.7V23.62H113.57V25.82H102.36V25.83Z" fill="white"/>
<path d="M119.15 29.92C120.29 27.86 121.85 26.25 123.82 25.09C125.8 23.94 128 23.36 130.43 23.36C133.39 23.36 135.93 24.06 138.05 25.47C140.17 26.88 141.7 28.86 142.67 31.42H139.55C138.79 29.62 137.63 28.21 136.07 27.2C134.51 26.19 132.63 25.68 130.43 25.68C128.48 25.68 126.73 26.14 125.17 27.05C123.61 27.96 122.39 29.27 121.5 30.98C120.61 32.69 120.17 34.67 120.17 36.93C120.17 39.19 120.61 41.16 121.5 42.86C122.39 44.56 123.61 45.86 125.17 46.77C126.73 47.68 128.48 48.14 130.43 48.14C132.63 48.14 134.51 47.64 136.07 46.64C137.63 45.64 138.79 44.25 139.55 42.48H142.67C141.71 45.01 140.16 46.98 138.03 48.37C135.9 49.76 133.37 50.46 130.43 50.46C128 50.46 125.79 49.88 123.82 48.73C121.84 47.58 120.29 45.97 119.15 43.92C118.01 41.87 117.44 39.54 117.44 36.93C117.44 34.32 118.01 31.98 119.15 29.92Z" fill="white"/>
<path d="M150.47 23.67V50.23H147.81V23.67H150.47Z" fill="white"/>
<path d="M161.6 48.76C159.6 47.61 158.02 46 156.87 43.93C155.72 41.87 155.14 39.53 155.14 36.92C155.14 34.31 155.72 31.97 156.87 29.91C158.02 27.85 159.6 26.24 161.6 25.08C163.6 23.93 165.83 23.35 168.29 23.35C170.75 23.35 173.01 23.93 175.02 25.08C177.02 26.23 178.59 27.84 179.73 29.91C180.87 31.97 181.44 34.31 181.44 36.92C181.44 39.53 180.87 41.87 179.73 43.93C178.59 46 177.02 47.6 175.02 48.76C173.02 49.91 170.78 50.49 168.29 50.49C165.8 50.49 163.6 49.92 161.6 48.76ZM173.61 46.81C175.18 45.9 176.42 44.59 177.33 42.88C178.24 41.17 178.7 39.19 178.7 36.93C178.7 34.67 178.24 32.7 177.33 31C176.42 29.3 175.18 28 173.61 27.09C172.04 26.18 170.27 25.72 168.29 25.72C166.31 25.72 164.54 26.18 162.97 27.09C161.4 28 160.16 29.31 159.25 31C158.34 32.69 157.88 34.67 157.88 36.93C157.88 39.19 158.34 41.17 159.25 42.88C160.16 44.59 161.4 45.9 162.97 46.81C164.54 47.72 166.31 48.18 168.29 48.18C170.27 48.18 172.04 47.72 173.61 46.81Z" fill="white"/>
<path d="M206.17 50.23H203.51L188.8 27.89V50.23H186.14V23.67H188.8L203.51 45.97V23.67H206.17V50.23Z" fill="white"/>
<path d="M214.72 25.83V35.75H224.79V37.95H214.72V48.02H225.93V50.22H212.06V23.62H225.93V25.82H214.72V25.83Z" fill="white"/>
<path d="M246.53 48.76C244.53 47.61 242.95 46 241.8 43.93C240.65 41.87 240.07 39.53 240.07 36.92C240.07 34.31 240.65 31.97 241.8 29.91C242.95 27.85 244.53 26.24 246.53 25.08C248.53 23.93 250.76 23.35 253.22 23.35C255.68 23.35 257.94 23.93 259.95 25.08C261.95 26.23 263.52 27.84 264.66 29.91C265.8 31.97 266.37 34.31 266.37 36.92C266.37 39.53 265.8 41.87 264.66 43.93C263.52 46 261.95 47.6 259.95 48.76C257.95 49.91 255.71 50.49 253.22 50.49C250.73 50.49 248.53 49.92 246.53 48.76ZM258.54 46.81C260.11 45.9 261.35 44.59 262.26 42.88C263.17 41.17 263.63 39.19 263.63 36.93C263.63 34.67 263.17 32.7 262.26 31C261.35 29.3 260.11 28 258.54 27.09C256.97 26.18 255.2 25.72 253.22 25.72C251.24 25.72 249.47 26.18 247.9 27.09C246.33 28 245.09 29.31 244.18 31C243.27 32.69 242.81 34.67 242.81 36.93C242.81 39.19 243.27 41.17 244.18 42.88C245.09 44.59 246.33 45.9 247.9 46.81C249.47 47.72 251.24 48.18 253.22 48.18C255.2 48.18 256.97 47.72 258.54 46.81Z" fill="white"/>
<path d="M293.61 23.67V43.77C293.61 45.8 292.99 47.42 291.75 48.65C290.51 49.88 288.85 50.49 286.77 50.49C284.69 50.49 282.9 49.84 281.62 48.53C280.34 47.23 279.7 45.46 279.7 43.23H282.4C282.42 44.68 282.79 45.85 283.48 46.77C284.18 47.68 285.27 48.14 286.77 48.14C288.19 48.14 289.24 47.72 289.92 46.89C290.6 46.05 290.95 45.01 290.95 43.77V23.67H293.61Z" fill="white"/>
<path d="M305.39 48.76C303.39 47.61 301.81 46 300.66 43.93C299.51 41.87 298.93 39.53 298.93 36.92C298.93 34.31 299.51 31.97 300.66 29.91C301.81 27.85 303.39 26.24 305.39 25.08C307.39 23.93 309.62 23.35 312.08 23.35C314.54 23.35 316.8 23.93 318.81 25.08C320.81 26.23 322.38 27.84 323.52 29.91C324.66 31.98 325.23 34.31 325.23 36.92C325.23 39.53 324.66 41.87 323.52 43.93C322.38 46 320.81 47.6 318.81 48.76C316.81 49.91 314.57 50.49 312.08 50.49C309.59 50.49 307.39 49.92 305.39 48.76ZM317.4 46.81C318.97 45.9 320.21 44.59 321.12 42.88C322.03 41.17 322.49 39.19 322.49 36.93C322.49 34.67 322.03 32.7 321.12 31C320.21 29.3 318.97 28 317.4 27.09C315.83 26.18 314.06 25.72 312.08 25.72C310.1 25.72 308.33 26.18 306.76 27.09C305.19 28 303.95 29.31 303.04 31C302.13 32.7 301.67 34.67 301.67 36.93C301.67 39.19 302.13 41.17 303.04 42.88C303.95 44.59 305.19 45.9 306.76 46.81C308.33 47.72 310.1 48.18 312.08 48.18C314.06 48.18 315.83 47.72 317.4 46.81Z" fill="white"/>
<path d="M350.84 31.42C350.08 29.67 348.92 28.3 347.36 27.3C345.8 26.3 343.97 25.8 341.87 25.8C339.89 25.8 338.12 26.26 336.55 27.17C334.98 28.08 333.74 29.38 332.83 31.07C331.92 32.75 331.46 34.71 331.46 36.94C331.46 39.17 331.92 41.13 332.83 42.83C333.74 44.53 334.98 45.83 336.55 46.74C338.12 47.65 339.89 48.11 341.87 48.11C343.72 48.11 345.38 47.71 346.87 46.91C348.35 46.11 349.54 44.97 350.44 43.49C351.34 42.01 351.85 40.28 351.98 38.3H340.81V36.13H354.79V38.07C354.66 40.4 354.03 42.51 352.89 44.4C351.75 46.29 350.22 47.78 348.31 48.86C346.4 49.94 344.25 50.49 341.87 50.49C339.49 50.49 337.18 49.92 335.18 48.76C333.18 47.61 331.6 46 330.45 43.93C329.3 41.87 328.72 39.53 328.72 36.92C328.72 34.31 329.3 31.97 330.45 29.91C331.6 27.85 333.18 26.24 335.18 25.08C337.18 23.93 339.41 23.35 341.87 23.35C344.71 23.35 347.19 24.06 349.32 25.48C351.45 26.9 352.99 28.88 353.96 31.41H350.84V31.42Z" fill="white"/>
<path d="M364.74 48.76C362.74 47.61 361.16 46 360.01 43.93C358.86 41.87 358.28 39.53 358.28 36.92C358.28 34.31 358.86 31.97 360.01 29.91C361.16 27.85 362.74 26.24 364.74 25.08C366.74 23.93 368.97 23.35 371.43 23.35C373.89 23.35 376.15 23.93 378.16 25.08C380.16 26.23 381.73 27.84 382.87 29.91C384.01 31.97 384.58 34.31 384.58 36.92C384.58 39.53 384.01 41.87 382.87 43.93C381.73 46 380.16 47.6 378.16 48.76C376.16 49.91 373.92 50.49 371.43 50.49C368.94 50.49 366.74 49.92 364.74 48.76ZM376.75 46.81C378.32 45.9 379.56 44.59 380.47 42.88C381.38 41.17 381.84 39.19 381.84 36.93C381.84 34.67 381.38 32.7 380.47 31C379.56 29.3 378.32 28 376.75 27.09C375.18 26.18 373.41 25.72 371.43 25.72C369.45 25.72 367.68 26.18 366.11 27.09C364.54 28 363.3 29.31 362.39 31C361.48 32.69 361.02 34.67 361.02 36.93C361.02 39.19 361.48 41.17 362.39 42.88C363.3 44.59 364.54 45.9 366.11 46.81C367.68 47.72 369.45 48.18 371.43 48.18C373.41 48.18 375.18 47.72 376.75 46.81Z" fill="white"/>
</svg>
