<svg width="427" height="95" viewBox="0 0 427 95" fill="none" xmlns="http://www.w3.org/2000/svg">
<path d="M397.18 24.79H29.8C13.3364 24.79 -0.0100098 38.1364 -0.0100098 54.6V64.98C-0.0100098 81.4436 13.3364 94.79 29.8 94.79H397.18C413.644 94.79 426.99 81.4436 426.99 64.98V54.6C426.99 38.1364 413.644 24.79 397.18 24.79Z" fill="#FDC9A2"/>
<path d="M46.75 73.58C45.42 72.97 44.37 72.12 43.62 71.04C42.87 69.96 42.45 68.74 42.4 67.39H45.21C45.34 68.68 45.91 69.82 46.92 70.79C47.93 71.77 49.42 72.25 51.37 72.25C53.17 72.25 54.59 71.79 55.65 70.86C56.7 69.94 57.23 68.76 57.23 67.35C57.23 66.21 56.94 65.29 56.36 64.59C55.78 63.89 55.05 63.38 54.19 63.03C53.33 62.69 52.14 62.32 50.62 61.91C48.85 61.43 47.44 60.96 46.4 60.5C45.36 60.04 44.47 59.33 43.74 58.37C43 57.41 42.64 56.1 42.64 54.46C42.64 53.09 42.99 51.87 43.7 50.79C44.41 49.71 45.41 48.87 46.7 48.26C47.99 47.65 49.47 47.35 51.15 47.35C53.61 47.35 55.59 47.95 57.1 49.15C58.61 50.35 59.48 51.91 59.7 53.8H56.81C56.63 52.71 56.04 51.74 55.02 50.89C54.01 50.04 52.64 49.62 50.92 49.62C49.32 49.62 47.99 50.05 46.93 50.89C45.87 51.74 45.33 52.9 45.33 54.37C45.33 55.49 45.62 56.38 46.2 57.07C46.78 57.75 47.51 58.27 48.38 58.63C49.25 58.99 50.44 59.37 51.93 59.77C53.65 60.25 55.05 60.73 56.11 61.2C57.17 61.67 58.07 62.38 58.81 63.35C59.54 64.31 59.91 65.6 59.91 67.23C59.91 68.47 59.58 69.65 58.92 70.77C58.26 71.89 57.29 72.78 55.99 73.47C54.69 74.16 53.15 74.5 51.35 74.5C49.55 74.5 48.06 74.2 46.73 73.59L46.75 73.58Z" fill="white"/>
<path d="M67.55 49.83V59.75H77.62V61.95H67.55V72.02H78.76V74.22H64.89V47.62H78.76V49.82H67.55V49.83Z" fill="white"/>
<path d="M86.51 72.06H96.05V74.23H83.85V47.67H86.51V72.06Z" fill="white"/>
<path d="M102.36 49.83V59.75H112.43V61.95H102.36V72.02H113.57V74.22H99.7V47.62H113.57V49.82H102.36V49.83Z" fill="white"/>
<path d="M119.15 53.92C120.29 51.86 121.85 50.25 123.82 49.09C125.8 47.94 128 47.36 130.43 47.36C133.39 47.36 135.93 48.06 138.05 49.47C140.17 50.88 141.7 52.86 142.67 55.42H139.55C138.79 53.62 137.63 52.21 136.07 51.2C134.51 50.19 132.63 49.68 130.43 49.68C128.48 49.68 126.73 50.14 125.17 51.05C123.61 51.96 122.39 53.27 121.5 54.98C120.61 56.69 120.17 58.67 120.17 60.93C120.17 63.19 120.61 65.16 121.5 66.86C122.39 68.56 123.61 69.86 125.17 70.77C126.73 71.68 128.48 72.14 130.43 72.14C132.63 72.14 134.51 71.64 136.07 70.64C137.63 69.64 138.79 68.25 139.55 66.48H142.67C141.71 69.01 140.16 70.98 138.03 72.37C135.9 73.76 133.37 74.46 130.43 74.46C128 74.46 125.79 73.88 123.82 72.73C121.84 71.58 120.29 69.97 119.15 67.92C118.01 65.87 117.44 63.54 117.44 60.93C117.44 58.32 118.01 55.98 119.15 53.92Z" fill="white"/>
<path d="M150.47 47.67V74.23H147.81V47.67H150.47Z" fill="white"/>
<path d="M161.6 72.76C159.6 71.61 158.02 70 156.87 67.93C155.72 65.87 155.14 63.53 155.14 60.92C155.14 58.31 155.72 55.97 156.87 53.91C158.02 51.85 159.6 50.24 161.6 49.08C163.6 47.93 165.83 47.35 168.29 47.35C170.75 47.35 173.01 47.93 175.02 49.08C177.02 50.23 178.59 51.84 179.73 53.91C180.87 55.97 181.44 58.31 181.44 60.92C181.44 63.53 180.87 65.87 179.73 67.93C178.59 70 177.02 71.6 175.02 72.76C173.02 73.91 170.78 74.49 168.29 74.49C165.8 74.49 163.6 73.92 161.6 72.76ZM173.61 70.81C175.18 69.9 176.42 68.59 177.33 66.88C178.24 65.17 178.7 63.19 178.7 60.93C178.7 58.67 178.24 56.7 177.33 55C176.42 53.3 175.18 52 173.61 51.09C172.04 50.18 170.27 49.72 168.29 49.72C166.31 49.72 164.54 50.18 162.97 51.09C161.4 52 160.16 53.31 159.25 55C158.34 56.69 157.88 58.67 157.88 60.93C157.88 63.19 158.34 65.17 159.25 66.88C160.16 68.59 161.4 69.9 162.97 70.81C164.54 71.72 166.31 72.18 168.29 72.18C170.27 72.18 172.04 71.72 173.61 70.81Z" fill="white"/>
<path d="M206.17 74.23H203.51L188.8 51.89V74.23H186.14V47.67H188.8L203.51 69.97V47.67H206.17V74.23Z" fill="white"/>
<path d="M214.72 49.83V59.75H224.79V61.95H214.72V72.02H225.93V74.22H212.06V47.62H225.93V49.82H214.72V49.83Z" fill="white"/>
<path d="M246.53 72.76C244.53 71.61 242.95 70 241.8 67.93C240.65 65.87 240.07 63.53 240.07 60.92C240.07 58.31 240.65 55.97 241.8 53.91C242.95 51.85 244.53 50.24 246.53 49.08C248.53 47.93 250.76 47.35 253.22 47.35C255.68 47.35 257.94 47.93 259.95 49.08C261.95 50.23 263.52 51.84 264.66 53.91C265.8 55.97 266.37 58.31 266.37 60.92C266.37 63.53 265.8 65.87 264.66 67.93C263.52 70 261.95 71.6 259.95 72.76C257.95 73.91 255.71 74.49 253.22 74.49C250.73 74.49 248.53 73.92 246.53 72.76ZM258.54 70.81C260.11 69.9 261.35 68.59 262.26 66.88C263.17 65.17 263.63 63.19 263.63 60.93C263.63 58.67 263.17 56.7 262.26 55C261.35 53.3 260.11 52 258.54 51.09C256.97 50.18 255.2 49.72 253.22 49.72C251.24 49.72 249.47 50.18 247.9 51.09C246.33 52 245.09 53.31 244.18 55C243.27 56.69 242.81 58.67 242.81 60.93C242.81 63.19 243.27 65.17 244.18 66.88C245.09 68.59 246.33 69.9 247.9 70.81C249.47 71.72 251.24 72.18 253.22 72.18C255.2 72.18 256.97 71.72 258.54 70.81Z" fill="white"/>
<path d="M293.61 47.67V67.77C293.61 69.8 292.99 71.42 291.75 72.65C290.51 73.88 288.85 74.49 286.77 74.49C284.69 74.49 282.9 73.84 281.62 72.53C280.34 71.23 279.7 69.46 279.7 67.23H282.4C282.42 68.68 282.79 69.85 283.48 70.77C284.18 71.68 285.27 72.14 286.77 72.14C288.19 72.14 289.24 71.72 289.92 70.89C290.6 70.05 290.95 69.01 290.95 67.77V47.67H293.61Z" fill="white"/>
<path d="M305.39 72.76C303.39 71.61 301.81 70 300.66 67.93C299.51 65.87 298.93 63.53 298.93 60.92C298.93 58.31 299.51 55.97 300.66 53.91C301.81 51.85 303.39 50.24 305.39 49.08C307.39 47.93 309.62 47.35 312.08 47.35C314.54 47.35 316.8 47.93 318.81 49.08C320.81 50.23 322.38 51.84 323.52 53.91C324.66 55.98 325.23 58.31 325.23 60.92C325.23 63.53 324.66 65.87 323.52 67.93C322.38 70 320.81 71.6 318.81 72.76C316.81 73.91 314.57 74.49 312.08 74.49C309.59 74.49 307.39 73.92 305.39 72.76ZM317.4 70.81C318.97 69.9 320.21 68.59 321.12 66.88C322.03 65.17 322.49 63.19 322.49 60.93C322.49 58.67 322.03 56.7 321.12 55C320.21 53.3 318.97 52 317.4 51.09C315.83 50.18 314.06 49.72 312.08 49.72C310.1 49.72 308.33 50.18 306.76 51.09C305.19 52 303.95 53.31 303.04 55C302.13 56.7 301.67 58.67 301.67 60.93C301.67 63.19 302.13 65.17 303.04 66.88C303.95 68.59 305.19 69.9 306.76 70.81C308.33 71.72 310.1 72.18 312.08 72.18C314.06 72.18 315.83 71.72 317.4 70.81Z" fill="white"/>
<path d="M350.84 55.42C350.08 53.67 348.92 52.3 347.36 51.3C345.8 50.3 343.97 49.8 341.87 49.8C339.89 49.8 338.12 50.26 336.55 51.17C334.98 52.08 333.74 53.38 332.83 55.07C331.92 56.75 331.46 58.71 331.46 60.94C331.46 63.17 331.92 65.13 332.83 66.83C333.74 68.53 334.98 69.83 336.55 70.74C338.12 71.65 339.89 72.11 341.87 72.11C343.72 72.11 345.38 71.71 346.87 70.91C348.35 70.11 349.54 68.97 350.44 67.49C351.34 66.01 351.85 64.28 351.98 62.3H340.81V60.13H354.79V62.07C354.66 64.4 354.03 66.51 352.89 68.4C351.75 70.29 350.22 71.78 348.31 72.86C346.4 73.94 344.25 74.49 341.87 74.49C339.49 74.49 337.18 73.92 335.18 72.76C333.18 71.61 331.6 70 330.45 67.93C329.3 65.87 328.72 63.53 328.72 60.92C328.72 58.31 329.3 55.97 330.45 53.91C331.6 51.85 333.18 50.24 335.18 49.08C337.18 47.93 339.41 47.35 341.87 47.35C344.71 47.35 347.19 48.06 349.32 49.48C351.45 50.9 352.99 52.88 353.96 55.41H350.84V55.42Z" fill="white"/>
<path d="M364.74 72.76C362.74 71.61 361.16 70 360.01 67.93C358.86 65.87 358.28 63.53 358.28 60.92C358.28 58.31 358.86 55.97 360.01 53.91C361.16 51.85 362.74 50.24 364.74 49.08C366.74 47.93 368.97 47.35 371.43 47.35C373.89 47.35 376.15 47.93 378.16 49.08C380.16 50.23 381.73 51.84 382.87 53.91C384.01 55.97 384.58 58.31 384.58 60.92C384.58 63.53 384.01 65.87 382.87 67.93C381.73 70 380.16 71.6 378.16 72.76C376.16 73.91 373.92 74.49 371.43 74.49C368.94 74.49 366.74 73.92 364.74 72.76ZM376.75 70.81C378.32 69.9 379.56 68.59 380.47 66.88C381.38 65.17 381.84 63.19 381.84 60.93C381.84 58.67 381.38 56.7 380.47 55C379.56 53.3 378.32 52 376.75 51.09C375.18 50.18 373.41 49.72 371.43 49.72C369.45 49.72 367.68 50.18 366.11 51.09C364.54 52 363.3 53.31 362.39 55C361.48 56.69 361.02 58.67 361.02 60.93C361.02 63.19 361.48 65.17 362.39 66.88C363.3 68.59 364.54 69.9 366.11 70.81C367.68 71.72 369.45 72.18 371.43 72.18C373.41 72.18 375.18 71.72 376.75 70.81Z" fill="white"/>
<path d="M151.6 11.52H155.6V13.08H149.67V1.26001H151.61V11.51L151.6 11.52Z" fill="#A8A8A8"/>
<path d="M157.31 2.12C157.07 1.88 156.95 1.59 156.95 1.24C156.95 0.890002 157.07 0.590001 157.31 0.360001C157.55 0.120001 157.84 0 158.19 0C158.54 0 158.82 0.120001 159.06 0.360001C159.3 0.600001 159.42 0.890002 159.42 1.24C159.42 1.59 159.3 1.89 159.06 2.12C158.82 2.35 158.53 2.48 158.19 2.48C157.85 2.48 157.54 2.36 157.31 2.12ZM159.15 3.71V13.08H157.21V3.71H159.15Z" fill="#A8A8A8"/>
<path d="M167.4 3.99002C167.96 4.28002 168.4 4.64001 168.72 5.07001V3.71001H170.68V13.23C170.68 14.09 170.5 14.86 170.14 15.53C169.78 16.2 169.25 16.73 168.57 17.12C167.88 17.51 167.07 17.7 166.11 17.7C164.84 17.7 163.79 17.4 162.95 16.81C162.11 16.22 161.64 15.41 161.52 14.39H163.44C163.59 14.88 163.9 15.27 164.38 15.57C164.86 15.87 165.44 16.02 166.11 16.02C166.89 16.02 167.52 15.78 168.01 15.31C168.49 14.83 168.73 14.14 168.73 13.24V11.68C168.4 12.12 167.96 12.49 167.4 12.79C166.84 13.09 166.2 13.24 165.49 13.24C164.67 13.24 163.93 13.03 163.25 12.62C162.58 12.21 162.04 11.63 161.65 10.89C161.26 10.15 161.06 9.31001 161.06 8.37001C161.06 7.43001 161.26 6.60001 161.65 5.87001C162.04 5.14001 162.57 4.58002 163.25 4.18002C163.92 3.78002 164.67 3.58002 165.49 3.58002C166.22 3.58002 166.86 3.72002 167.42 4.01002L167.4 3.99002ZM168.32 6.71001C168.05 6.23001 167.71 5.87001 167.27 5.62001C166.84 5.37001 166.37 5.25002 165.88 5.25002C165.39 5.25002 164.92 5.37001 164.49 5.62001C164.06 5.86001 163.71 6.22002 163.44 6.69002C163.17 7.16002 163.04 7.72002 163.04 8.36002C163.04 9.00002 163.17 9.57002 163.44 10.06C163.71 10.55 164.06 10.92 164.49 11.17C164.93 11.42 165.39 11.55 165.88 11.55C166.37 11.55 166.84 11.43 167.27 11.18C167.7 10.93 168.05 10.57 168.32 10.08C168.59 9.60002 168.72 9.04001 168.72 8.39001C168.72 7.74001 168.59 7.18001 168.32 6.71001Z" fill="#A8A8A8"/>
<path d="M181.71 3.71001V13.08H179.77V11.97C179.46 12.36 179.06 12.66 178.57 12.88C178.08 13.1 177.55 13.21 177 13.21C176.26 13.21 175.6 13.06 175.02 12.75C174.44 12.44 173.98 11.99 173.64 11.39C173.3 10.79 173.14 10.06 173.14 9.21001V3.70001H175.06V8.92001C175.06 9.76001 175.27 10.4 175.69 10.85C176.11 11.3 176.68 11.52 177.41 11.52C178.14 11.52 178.71 11.3 179.14 10.85C179.56 10.4 179.78 9.76001 179.78 8.92001V3.70001H181.72L181.71 3.71001Z" fill="#A8A8A8"/>
<path d="M192.77 9.12001H185.61C185.67 9.87001 185.94 10.47 186.44 10.92C186.94 11.37 187.55 11.6 188.28 11.6C189.32 11.6 190.06 11.16 190.49 10.29H192.58C192.3 11.15 191.78 11.86 191.04 12.41C190.3 12.96 189.38 13.24 188.28 13.24C187.38 13.24 186.58 13.04 185.87 12.64C185.16 12.24 184.61 11.67 184.2 10.94C183.8 10.21 183.6 9.36002 183.6 8.40002C183.6 7.44002 183.8 6.59002 184.19 5.86002C184.58 5.13002 185.13 4.57002 185.84 4.17002C186.55 3.77002 187.36 3.58002 188.28 3.58002C189.2 3.58002 189.95 3.77002 190.64 4.16002C191.33 4.55002 191.87 5.09002 192.25 5.78002C192.64 6.48002 192.83 7.28002 192.83 8.19002C192.83 8.54002 192.81 8.86001 192.76 9.14001L192.77 9.12001ZM190.82 7.56002C190.81 6.85002 190.55 6.27002 190.06 5.84002C189.56 5.41002 188.94 5.19002 188.21 5.19002C187.54 5.19002 186.97 5.40002 186.49 5.83002C186.01 6.26002 185.73 6.83002 185.64 7.56002H190.82Z" fill="#A8A8A8"/>
<path d="M199.11 5.86001C199.5 5.13001 200.03 4.57001 200.71 4.17001C201.38 3.77001 202.13 3.57001 202.95 3.57001C203.69 3.57001 204.33 3.71001 204.88 4.00001C205.43 4.29001 205.87 4.65001 206.2 5.08001V3.72001H208.16V13.09H206.2V11.7C205.87 12.14 205.42 12.51 204.86 12.8C204.3 13.09 203.65 13.24 202.92 13.24C202.12 13.24 201.38 13.03 200.71 12.62C200.04 12.21 199.51 11.63 199.12 10.89C198.73 10.15 198.53 9.31001 198.53 8.37001C198.53 7.43001 198.73 6.60001 199.12 5.87001L199.11 5.86001ZM205.79 6.71001C205.52 6.23001 205.18 5.87001 204.74 5.62001C204.31 5.37001 203.84 5.25001 203.35 5.25001C202.86 5.25001 202.39 5.37001 201.96 5.62001C201.53 5.86001 201.18 6.22001 200.91 6.69001C200.64 7.16001 200.51 7.72001 200.51 8.36001C200.51 9.00001 200.64 9.57001 200.91 10.06C201.18 10.55 201.53 10.92 201.96 11.17C202.4 11.42 202.86 11.55 203.35 11.55C203.84 11.55 204.31 11.43 204.74 11.18C205.17 10.93 205.52 10.57 205.79 10.08C206.06 9.60001 206.19 9.04001 206.19 8.39001C206.19 7.74001 206.06 7.18001 205.79 6.71001Z" fill="#A8A8A8"/>
<path d="M212.11 12.83C211.53 12.56 211.06 12.2 210.72 11.74C210.38 11.28 210.2 10.77 210.18 10.2H212.19C212.22 10.6 212.41 10.93 212.76 11.19C213.11 11.46 213.54 11.59 214.06 11.59C214.58 11.59 215.03 11.48 215.33 11.27C215.63 11.06 215.78 10.79 215.78 10.46C215.78 10.11 215.61 9.85001 215.28 9.68001C214.95 9.51001 214.42 9.32001 213.69 9.12001C212.99 8.93001 212.41 8.74001 211.97 8.56001C211.53 8.38001 211.15 8.10001 210.82 7.73001C210.49 7.36001 210.34 6.86001 210.34 6.25001C210.34 5.75001 210.49 5.30001 210.78 4.88001C211.07 4.47001 211.5 4.14001 212.05 3.90001C212.6 3.66001 213.23 3.54001 213.95 3.54001C215.02 3.54001 215.87 3.81001 216.53 4.35001C217.18 4.89001 217.53 5.62001 217.58 6.55001H215.64C215.61 6.13001 215.44 5.80001 215.13 5.55001C214.82 5.30001 214.41 5.18001 213.89 5.18001C213.37 5.18001 212.99 5.28001 212.72 5.47001C212.45 5.66001 212.31 5.92001 212.31 6.23001C212.31 6.48001 212.4 6.69001 212.58 6.86001C212.76 7.03001 212.98 7.16001 213.24 7.26001C213.5 7.36001 213.89 7.48001 214.4 7.63001C215.08 7.81001 215.64 8.00001 216.07 8.18001C216.51 8.37001 216.88 8.64001 217.2 9.00001C217.52 9.36001 217.68 9.84001 217.69 10.45C217.69 10.98 217.54 11.46 217.25 11.88C216.96 12.3 216.54 12.63 216 12.87C215.46 13.11 214.83 13.23 214.1 13.23C213.37 13.23 212.7 13.1 212.12 12.83H212.11Z" fill="#A8A8A8"/>
<path d="M224.13 5.85001C224.52 5.12001 225.06 4.56001 225.75 4.16001C226.44 3.76001 227.23 3.57001 228.13 3.57001C229.26 3.57001 230.2 3.84001 230.94 4.38001C231.68 4.92001 232.18 5.69001 232.44 6.68001H230.35C230.18 6.22001 229.91 5.85001 229.53 5.59001C229.16 5.33001 228.69 5.20001 228.12 5.20001C227.33 5.20001 226.69 5.48001 226.22 6.04001C225.75 6.60001 225.51 7.39001 225.51 8.39001C225.51 9.39001 225.75 10.19 226.22 10.75C226.69 11.32 227.32 11.6 228.12 11.6C229.24 11.6 229.98 11.11 230.35 10.12H232.44C232.17 11.07 231.66 11.83 230.91 12.39C230.16 12.95 229.23 13.23 228.12 13.23C227.22 13.23 226.43 13.03 225.74 12.63C225.05 12.23 224.51 11.66 224.12 10.93C223.73 10.2 223.53 9.35001 223.53 8.39001C223.53 7.43001 223.73 6.58001 224.12 5.85001H224.13Z" fill="#A8A8A8"/>
<path d="M236.05 12.63C235.34 12.23 234.78 11.66 234.37 10.93C233.96 10.2 233.76 9.35001 233.76 8.39001C233.76 7.43001 233.97 6.59001 234.39 5.86001C234.81 5.12001 235.38 4.56001 236.11 4.16001C236.84 3.76001 237.65 3.57001 238.54 3.57001C239.43 3.57001 240.25 3.77001 240.97 4.16001C241.7 4.56001 242.27 5.12001 242.69 5.86001C243.11 6.60001 243.32 7.44001 243.32 8.39001C243.32 9.34001 243.1 10.19 242.67 10.92C242.24 11.66 241.65 12.23 240.91 12.63C240.17 13.03 239.35 13.23 238.45 13.23C237.55 13.23 236.77 13.03 236.05 12.63ZM239.85 11.19C240.29 10.95 240.64 10.59 240.91 10.12C241.18 9.65001 241.32 9.07001 241.32 8.39001C241.32 7.71001 241.19 7.14001 240.93 6.66001C240.67 6.19001 240.32 5.84001 239.89 5.60001C239.46 5.36001 238.99 5.24001 238.5 5.24001C238.01 5.24001 237.54 5.36001 237.11 5.60001C236.69 5.84001 236.35 6.19001 236.1 6.66001C235.85 7.13001 235.73 7.71001 235.73 8.39001C235.73 9.40001 235.99 10.18 236.5 10.73C237.02 11.28 237.66 11.55 238.45 11.55C238.95 11.55 239.42 11.43 239.85 11.19Z" fill="#A8A8A8"/>
<path d="M245.34 2.12C245.1 1.88 244.98 1.59 244.98 1.24C244.98 0.890002 245.1 0.590001 245.34 0.360001C245.58 0.120001 245.87 0 246.22 0C246.57 0 246.85 0.120001 247.09 0.360001C247.33 0.600001 247.45 0.890002 247.45 1.24C247.45 1.59 247.33 1.89 247.09 2.12C246.85 2.35 246.56 2.48 246.22 2.48C245.88 2.48 245.57 2.36 245.34 2.12ZM247.17 3.71V13.08H245.23V3.71H247.17Z" fill="#A8A8A8"/>
<path d="M251.14 12.83C250.56 12.56 250.09 12.2 249.75 11.74C249.41 11.28 249.23 10.77 249.21 10.2H251.22C251.25 10.6 251.44 10.93 251.79 11.19C252.14 11.46 252.57 11.59 253.09 11.59C253.61 11.59 254.06 11.48 254.36 11.27C254.66 11.06 254.81 10.79 254.81 10.46C254.81 10.11 254.64 9.85001 254.31 9.68001C253.98 9.51001 253.45 9.32001 252.72 9.12001C252.02 8.93001 251.44 8.74001 251 8.56001C250.56 8.38001 250.18 8.10001 249.85 7.73001C249.52 7.36001 249.37 6.86001 249.37 6.25001C249.37 5.75001 249.52 5.30001 249.81 4.88001C250.1 4.47001 250.53 4.14001 251.08 3.90001C251.63 3.66001 252.26 3.54001 252.98 3.54001C254.05 3.54001 254.9 3.81001 255.56 4.35001C256.21 4.89001 256.56 5.62001 256.61 6.55001H254.67C254.64 6.13001 254.47 5.80001 254.16 5.55001C253.85 5.30001 253.44 5.18001 252.92 5.18001C252.4 5.18001 252.02 5.28001 251.75 5.47001C251.48 5.66001 251.34 5.92001 251.34 6.23001C251.34 6.48001 251.43 6.69001 251.61 6.86001C251.79 7.03001 252.01 7.16001 252.27 7.26001C252.53 7.36001 252.92 7.48001 253.43 7.63001C254.11 7.81001 254.67 8.00001 255.1 8.18001C255.54 8.37001 255.91 8.64001 256.23 9.00001C256.55 9.36001 256.71 9.84001 256.72 10.45C256.72 10.98 256.57 11.46 256.28 11.88C255.99 12.3 255.57 12.63 255.03 12.87C254.49 13.11 253.86 13.23 253.13 13.23C252.4 13.23 251.73 13.1 251.15 12.83H251.14Z" fill="#A8A8A8"/>
<path d="M258.74 5.86001C259.13 5.13001 259.66 4.57001 260.34 4.17001C261.01 3.77001 261.76 3.57001 262.58 3.57001C263.32 3.57001 263.96 3.71001 264.51 4.00001C265.06 4.29001 265.5 4.65001 265.83 5.08001V3.72001H267.79V13.09H265.83V11.7C265.5 12.14 265.05 12.51 264.49 12.8C263.93 13.09 263.28 13.24 262.55 13.24C261.75 13.24 261.01 13.03 260.34 12.62C259.67 12.21 259.14 11.63 258.75 10.89C258.36 10.15 258.16 9.31001 258.16 8.37001C258.16 7.43001 258.36 6.60001 258.75 5.87001L258.74 5.86001ZM265.42 6.71001C265.15 6.23001 264.81 5.87001 264.37 5.62001C263.94 5.37001 263.47 5.25001 262.98 5.25001C262.49 5.25001 262.02 5.37001 261.59 5.62001C261.16 5.86001 260.81 6.22001 260.54 6.69001C260.27 7.16001 260.14 7.72001 260.14 8.36001C260.14 9.00001 260.27 9.57001 260.54 10.06C260.81 10.55 261.16 10.92 261.59 11.17C262.03 11.42 262.49 11.55 262.98 11.55C263.47 11.55 263.94 11.43 264.37 11.18C264.8 10.93 265.15 10.57 265.42 10.08C265.69 9.60001 265.82 9.04001 265.82 8.39001C265.82 7.74001 265.69 7.18001 265.42 6.71001Z" fill="#A8A8A8"/>
<path d="M271.75 12.83C271.17 12.56 270.7 12.2 270.36 11.74C270.02 11.28 269.84 10.77 269.82 10.2H271.83C271.86 10.6 272.05 10.93 272.4 11.19C272.75 11.46 273.18 11.59 273.7 11.59C274.22 11.59 274.67 11.48 274.97 11.27C275.27 11.06 275.42 10.79 275.42 10.46C275.42 10.11 275.25 9.85001 274.92 9.68001C274.59 9.51001 274.06 9.32001 273.33 9.12001C272.63 8.93001 272.05 8.74001 271.61 8.56001C271.17 8.38001 270.79 8.10001 270.46 7.73001C270.13 7.36001 269.98 6.86001 269.98 6.25001C269.98 5.75001 270.13 5.30001 270.42 4.88001C270.71 4.47001 271.14 4.14001 271.69 3.90001C272.24 3.66001 272.87 3.54001 273.59 3.54001C274.66 3.54001 275.51 3.81001 276.17 4.35001C276.82 4.89001 277.17 5.62001 277.22 6.55001H275.28C275.25 6.13001 275.08 5.80001 274.77 5.55001C274.46 5.30001 274.05 5.18001 273.53 5.18001C273.01 5.18001 272.63 5.28001 272.36 5.47001C272.09 5.66001 271.95 5.92001 271.95 6.23001C271.95 6.48001 272.04 6.69001 272.22 6.86001C272.4 7.03001 272.62 7.16001 272.88 7.26001C273.14 7.36001 273.53 7.48001 274.04 7.63001C274.72 7.81001 275.28 8.00001 275.71 8.18001C276.15 8.37001 276.52 8.64001 276.84 9.00001C277.16 9.36001 277.32 9.84001 277.33 10.45C277.33 10.98 277.18 11.46 276.89 11.88C276.6 12.3 276.18 12.63 275.64 12.87C275.1 13.11 274.47 13.23 273.74 13.23C273.01 13.23 272.34 13.1 271.76 12.83H271.75Z" fill="#A8A8A8"/>
</svg>
