<svg width="129" height="18" viewBox="0 0 129 18" fill="none" xmlns="http://www.w3.org/2000/svg">
<path d="M2.59998 11.52H6.59998V13.08H0.669983V1.26001H2.60999V11.51L2.59998 11.52Z" fill="#A8A8A8"/>
<path d="M8.31 2.12C8.07 1.88 7.95001 1.59 7.95001 1.24C7.95001 0.890002 8.07 0.590001 8.31 0.360001C8.55 0.120001 8.84 0 9.19 0C9.54 0 9.82 0.120001 10.06 0.360001C10.3 0.600001 10.42 0.890002 10.42 1.24C10.42 1.59 10.3 1.89 10.06 2.12C9.82 2.35 9.53 2.48 9.19 2.48C8.85 2.48 8.54 2.36 8.31 2.12ZM10.15 3.71V13.08H8.21002V3.71H10.15Z" fill="#A8A8A8"/>
<path d="M18.4 3.99002C18.96 4.28002 19.4 4.64001 19.72 5.07001V3.71001H21.68V13.23C21.68 14.09 21.5 14.86 21.14 15.53C20.78 16.2 20.25 16.73 19.57 17.12C18.88 17.51 18.07 17.7 17.11 17.7C15.84 17.7 14.79 17.4 13.95 16.81C13.11 16.22 12.64 15.41 12.52 14.39H14.44C14.59 14.88 14.9 15.27 15.38 15.57C15.86 15.87 16.44 16.02 17.11 16.02C17.89 16.02 18.52 15.78 19.01 15.31C19.49 14.83 19.73 14.14 19.73 13.24V11.68C19.4 12.12 18.96 12.49 18.4 12.79C17.84 13.09 17.2 13.24 16.49 13.24C15.67 13.24 14.93 13.03 14.25 12.62C13.58 12.21 13.04 11.63 12.65 10.89C12.26 10.15 12.06 9.31001 12.06 8.37001C12.06 7.43001 12.26 6.60001 12.65 5.87001C13.04 5.14001 13.57 4.58002 14.25 4.18002C14.92 3.78002 15.67 3.58002 16.49 3.58002C17.22 3.58002 17.86 3.72002 18.42 4.01002L18.4 3.99002ZM19.32 6.71001C19.05 6.23001 18.71 5.87001 18.27 5.62001C17.84 5.37001 17.37 5.25002 16.88 5.25002C16.39 5.25002 15.92 5.37001 15.49 5.62001C15.06 5.86001 14.71 6.22002 14.44 6.69002C14.17 7.16002 14.04 7.72002 14.04 8.36002C14.04 9.00002 14.17 9.57002 14.44 10.06C14.71 10.55 15.06 10.92 15.49 11.17C15.93 11.42 16.39 11.55 16.88 11.55C17.37 11.55 17.84 11.43 18.27 11.18C18.7 10.93 19.05 10.57 19.32 10.08C19.59 9.60002 19.72 9.04001 19.72 8.39001C19.72 7.74001 19.59 7.18001 19.32 6.71001Z" fill="#A8A8A8"/>
<path d="M32.71 3.71001V13.08H30.77V11.97C30.46 12.36 30.06 12.66 29.57 12.88C29.08 13.1 28.55 13.21 28 13.21C27.26 13.21 26.6 13.06 26.02 12.75C25.44 12.44 24.98 11.99 24.64 11.39C24.3 10.79 24.14 10.06 24.14 9.21001V3.70001H26.06V8.92001C26.06 9.76001 26.27 10.4 26.69 10.85C27.11 11.3 27.68 11.52 28.41 11.52C29.14 11.52 29.71 11.3 30.14 10.85C30.56 10.4 30.78 9.76001 30.78 8.92001V3.70001H32.72L32.71 3.71001Z" fill="#A8A8A8"/>
<path d="M43.77 9.12001H36.61C36.67 9.87001 36.94 10.47 37.44 10.92C37.94 11.37 38.55 11.6 39.28 11.6C40.32 11.6 41.06 11.16 41.49 10.29H43.58C43.3 11.15 42.78 11.86 42.04 12.41C41.3 12.96 40.38 13.24 39.28 13.24C38.38 13.24 37.58 13.04 36.87 12.64C36.16 12.24 35.61 11.67 35.2 10.94C34.8 10.21 34.6 9.36002 34.6 8.40002C34.6 7.44002 34.8 6.59002 35.19 5.86002C35.58 5.13002 36.13 4.57002 36.84 4.17002C37.55 3.77002 38.36 3.58002 39.28 3.58002C40.2 3.58002 40.95 3.77002 41.64 4.16002C42.33 4.55002 42.87 5.09002 43.25 5.78002C43.64 6.48002 43.83 7.28002 43.83 8.19002C43.83 8.54002 43.81 8.86001 43.76 9.14001L43.77 9.12001ZM41.82 7.56002C41.81 6.85002 41.55 6.27002 41.06 5.84002C40.56 5.41002 39.94 5.19002 39.21 5.19002C38.54 5.19002 37.97 5.40002 37.49 5.83002C37.01 6.26002 36.73 6.83002 36.64 7.56002H41.82Z" fill="#A8A8A8"/>
<path d="M50.11 5.86001C50.5 5.13001 51.03 4.57001 51.71 4.17001C52.38 3.77001 53.13 3.57001 53.95 3.57001C54.69 3.57001 55.33 3.71001 55.88 4.00001C56.43 4.29001 56.87 4.65001 57.2 5.08001V3.72001H59.16V13.09H57.2V11.7C56.87 12.14 56.42 12.51 55.86 12.8C55.3 13.09 54.65 13.24 53.92 13.24C53.12 13.24 52.38 13.03 51.71 12.62C51.04 12.21 50.51 11.63 50.12 10.89C49.73 10.15 49.53 9.31001 49.53 8.37001C49.53 7.43001 49.73 6.60001 50.12 5.87001L50.11 5.86001ZM56.79 6.71001C56.52 6.23001 56.18 5.87001 55.74 5.62001C55.31 5.37001 54.84 5.25001 54.35 5.25001C53.86 5.25001 53.39 5.37001 52.96 5.62001C52.53 5.86001 52.18 6.22001 51.91 6.69001C51.64 7.16001 51.51 7.72001 51.51 8.36001C51.51 9.00001 51.64 9.57001 51.91 10.06C52.18 10.55 52.53 10.92 52.96 11.17C53.4 11.42 53.86 11.55 54.35 11.55C54.84 11.55 55.31 11.43 55.74 11.18C56.17 10.93 56.52 10.57 56.79 10.08C57.06 9.60001 57.19 9.04001 57.19 8.39001C57.19 7.74001 57.06 7.18001 56.79 6.71001Z" fill="#A8A8A8"/>
<path d="M63.11 12.83C62.53 12.56 62.06 12.2 61.72 11.74C61.38 11.28 61.2 10.77 61.18 10.2H63.19C63.22 10.6 63.41 10.93 63.76 11.19C64.11 11.46 64.54 11.59 65.06 11.59C65.58 11.59 66.03 11.48 66.33 11.27C66.63 11.06 66.78 10.79 66.78 10.46C66.78 10.11 66.61 9.85001 66.28 9.68001C65.95 9.51001 65.42 9.32001 64.69 9.12001C63.99 8.93001 63.41 8.74001 62.97 8.56001C62.53 8.38001 62.15 8.10001 61.82 7.73001C61.49 7.36001 61.34 6.86001 61.34 6.25001C61.34 5.75001 61.49 5.30001 61.78 4.88001C62.07 4.47001 62.5 4.14001 63.05 3.90001C63.6 3.66001 64.23 3.54001 64.95 3.54001C66.02 3.54001 66.87 3.81001 67.53 4.35001C68.18 4.89001 68.53 5.62001 68.58 6.55001H66.64C66.61 6.13001 66.44 5.80001 66.13 5.55001C65.82 5.30001 65.41 5.18001 64.89 5.18001C64.37 5.18001 63.99 5.28001 63.72 5.47001C63.45 5.66001 63.31 5.92001 63.31 6.23001C63.31 6.48001 63.4 6.69001 63.58 6.86001C63.76 7.03001 63.98 7.16001 64.24 7.26001C64.5 7.36001 64.89 7.48001 65.4 7.63001C66.08 7.81001 66.64 8.00001 67.07 8.18001C67.51 8.37001 67.88 8.64001 68.2 9.00001C68.52 9.36001 68.68 9.84001 68.69 10.45C68.69 10.98 68.54 11.46 68.25 11.88C67.96 12.3 67.54 12.63 67 12.87C66.46 13.11 65.83 13.23 65.1 13.23C64.37 13.23 63.7 13.1 63.12 12.83H63.11Z" fill="#A8A8A8"/>
<path d="M75.13 5.85001C75.52 5.12001 76.06 4.56001 76.75 4.16001C77.44 3.76001 78.23 3.57001 79.13 3.57001C80.26 3.57001 81.2 3.84001 81.94 4.38001C82.68 4.92001 83.18 5.69001 83.44 6.68001H81.35C81.18 6.22001 80.91 5.85001 80.53 5.59001C80.16 5.33001 79.69 5.20001 79.12 5.20001C78.33 5.20001 77.69 5.48001 77.22 6.04001C76.75 6.60001 76.51 7.39001 76.51 8.39001C76.51 9.39001 76.75 10.19 77.22 10.75C77.69 11.32 78.32 11.6 79.12 11.6C80.24 11.6 80.98 11.11 81.35 10.12H83.44C83.17 11.07 82.66 11.83 81.91 12.39C81.16 12.95 80.23 13.23 79.12 13.23C78.22 13.23 77.43 13.03 76.74 12.63C76.05 12.23 75.51 11.66 75.12 10.93C74.73 10.2 74.53 9.35001 74.53 8.39001C74.53 7.43001 74.73 6.58001 75.12 5.85001H75.13Z" fill="#A8A8A8"/>
<path d="M87.05 12.63C86.34 12.23 85.78 11.66 85.37 10.93C84.96 10.2 84.76 9.35001 84.76 8.39001C84.76 7.43001 84.97 6.59001 85.39 5.86001C85.81 5.12001 86.38 4.56001 87.11 4.16001C87.84 3.76001 88.65 3.57001 89.54 3.57001C90.43 3.57001 91.25 3.77001 91.97 4.16001C92.7 4.56001 93.27 5.12001 93.69 5.86001C94.11 6.60001 94.32 7.44001 94.32 8.39001C94.32 9.34001 94.1 10.19 93.67 10.92C93.24 11.66 92.65 12.23 91.91 12.63C91.17 13.03 90.35 13.23 89.45 13.23C88.55 13.23 87.77 13.03 87.05 12.63ZM90.85 11.19C91.29 10.95 91.64 10.59 91.91 10.12C92.18 9.65001 92.32 9.07001 92.32 8.39001C92.32 7.71001 92.19 7.14001 91.93 6.66001C91.67 6.19001 91.32 5.84001 90.89 5.60001C90.46 5.36001 89.99 5.24001 89.5 5.24001C89.01 5.24001 88.54 5.36001 88.11 5.60001C87.69 5.84001 87.35 6.19001 87.1 6.66001C86.85 7.13001 86.73 7.71001 86.73 8.39001C86.73 9.40001 86.99 10.18 87.5 10.73C88.02 11.28 88.66 11.55 89.45 11.55C89.95 11.55 90.42 11.43 90.85 11.19Z" fill="#A8A8A8"/>
<path d="M96.34 2.12C96.1 1.88 95.98 1.59 95.98 1.24C95.98 0.890002 96.1 0.590001 96.34 0.360001C96.58 0.120001 96.87 0 97.22 0C97.57 0 97.85 0.120001 98.09 0.360001C98.33 0.600001 98.45 0.890002 98.45 1.24C98.45 1.59 98.33 1.89 98.09 2.12C97.85 2.35 97.56 2.48 97.22 2.48C96.88 2.48 96.57 2.36 96.34 2.12ZM98.17 3.71V13.08H96.23V3.71H98.17Z" fill="#A8A8A8"/>
<path d="M102.14 12.83C101.56 12.56 101.09 12.2 100.75 11.74C100.41 11.28 100.23 10.77 100.21 10.2H102.22C102.25 10.6 102.44 10.93 102.79 11.19C103.14 11.46 103.57 11.59 104.09 11.59C104.61 11.59 105.06 11.48 105.36 11.27C105.66 11.06 105.81 10.79 105.81 10.46C105.81 10.11 105.64 9.85001 105.31 9.68001C104.98 9.51001 104.45 9.32001 103.72 9.12001C103.02 8.93001 102.44 8.74001 102 8.56001C101.56 8.38001 101.18 8.10001 100.85 7.73001C100.52 7.36001 100.37 6.86001 100.37 6.25001C100.37 5.75001 100.52 5.30001 100.81 4.88001C101.1 4.47001 101.53 4.14001 102.08 3.90001C102.63 3.66001 103.26 3.54001 103.98 3.54001C105.05 3.54001 105.9 3.81001 106.56 4.35001C107.21 4.89001 107.56 5.62001 107.61 6.55001H105.67C105.64 6.13001 105.47 5.80001 105.16 5.55001C104.85 5.30001 104.44 5.18001 103.92 5.18001C103.4 5.18001 103.02 5.28001 102.75 5.47001C102.48 5.66001 102.34 5.92001 102.34 6.23001C102.34 6.48001 102.43 6.69001 102.61 6.86001C102.79 7.03001 103.01 7.16001 103.27 7.26001C103.53 7.36001 103.92 7.48001 104.43 7.63001C105.11 7.81001 105.67 8.00001 106.1 8.18001C106.54 8.37001 106.91 8.64001 107.23 9.00001C107.55 9.36001 107.71 9.84001 107.72 10.45C107.72 10.98 107.57 11.46 107.28 11.88C106.99 12.3 106.57 12.63 106.03 12.87C105.49 13.11 104.86 13.23 104.13 13.23C103.4 13.23 102.73 13.1 102.15 12.83H102.14Z" fill="#A8A8A8"/>
<path d="M109.74 5.86001C110.13 5.13001 110.66 4.57001 111.34 4.17001C112.01 3.77001 112.76 3.57001 113.58 3.57001C114.32 3.57001 114.96 3.71001 115.51 4.00001C116.06 4.29001 116.5 4.65001 116.83 5.08001V3.72001H118.79V13.09H116.83V11.7C116.5 12.14 116.05 12.51 115.49 12.8C114.93 13.09 114.28 13.24 113.55 13.24C112.75 13.24 112.01 13.03 111.34 12.62C110.67 12.21 110.14 11.63 109.75 10.89C109.36 10.15 109.16 9.31001 109.16 8.37001C109.16 7.43001 109.36 6.60001 109.75 5.87001L109.74 5.86001ZM116.42 6.71001C116.15 6.23001 115.81 5.87001 115.37 5.62001C114.94 5.37001 114.47 5.25001 113.98 5.25001C113.49 5.25001 113.02 5.37001 112.59 5.62001C112.16 5.86001 111.81 6.22001 111.54 6.69001C111.27 7.16001 111.14 7.72001 111.14 8.36001C111.14 9.00001 111.27 9.57001 111.54 10.06C111.81 10.55 112.16 10.92 112.59 11.17C113.03 11.42 113.49 11.55 113.98 11.55C114.47 11.55 114.94 11.43 115.37 11.18C115.8 10.93 116.15 10.57 116.42 10.08C116.69 9.60001 116.82 9.04001 116.82 8.39001C116.82 7.74001 116.69 7.18001 116.42 6.71001Z" fill="#A8A8A8"/>
<path d="M122.75 12.83C122.17 12.56 121.7 12.2 121.36 11.74C121.02 11.28 120.84 10.77 120.82 10.2H122.83C122.86 10.6 123.05 10.93 123.4 11.19C123.75 11.46 124.18 11.59 124.7 11.59C125.22 11.59 125.67 11.48 125.97 11.27C126.27 11.06 126.42 10.79 126.42 10.46C126.42 10.11 126.25 9.85001 125.92 9.68001C125.59 9.51001 125.06 9.32001 124.33 9.12001C123.63 8.93001 123.05 8.74001 122.61 8.56001C122.17 8.38001 121.79 8.10001 121.46 7.73001C121.13 7.36001 120.98 6.86001 120.98 6.25001C120.98 5.75001 121.13 5.30001 121.42 4.88001C121.71 4.47001 122.14 4.14001 122.69 3.90001C123.24 3.66001 123.87 3.54001 124.59 3.54001C125.66 3.54001 126.51 3.81001 127.17 4.35001C127.82 4.89001 128.17 5.62001 128.22 6.55001H126.28C126.25 6.13001 126.08 5.80001 125.77 5.55001C125.46 5.30001 125.05 5.18001 124.53 5.18001C124.01 5.18001 123.63 5.28001 123.36 5.47001C123.09 5.66001 122.95 5.92001 122.95 6.23001C122.95 6.48001 123.04 6.69001 123.22 6.86001C123.4 7.03001 123.62 7.16001 123.88 7.26001C124.14 7.36001 124.53 7.48001 125.04 7.63001C125.72 7.81001 126.28 8.00001 126.71 8.18001C127.15 8.37001 127.52 8.64001 127.84 9.00001C128.16 9.36001 128.32 9.84001 128.33 10.45C128.33 10.98 128.18 11.46 127.89 11.88C127.6 12.3 127.18 12.63 126.64 12.87C126.1 13.11 125.47 13.23 124.74 13.23C124.01 13.23 123.34 13.1 122.76 12.83H122.75Z" fill="#A8A8A8"/>
</svg>
