<svg width="224" height="263" viewBox="0 0 224 263" fill="none" xmlns="http://www.w3.org/2000/svg">
<path d="M85.51 259.89H80.56L79.71 262.3H77.69L81.92 250.47H84.16L88.39 262.3H86.35L85.5 259.89H85.51ZM84.97 258.31L83.05 252.82L81.11 258.31H84.97Z" fill="#A8A8A8"/>
<path d="M96.95 253.24C97.53 253.55 97.99 254 98.32 254.6C98.65 255.2 98.81 255.93 98.81 256.78V262.31H96.89V257.07C96.89 256.23 96.68 255.59 96.26 255.14C95.84 254.69 95.27 254.47 94.54 254.47C93.81 254.47 93.24 254.69 92.81 255.14C92.38 255.59 92.17 256.23 92.17 257.07V262.31H90.23V252.94H92.17V254.01C92.49 253.62 92.89 253.32 93.39 253.11C93.88 252.9 94.41 252.79 94.96 252.79C95.7 252.79 96.36 252.94 96.94 253.25L96.95 253.24Z" fill="#A8A8A8"/>
<path d="M101.38 251.34C101.14 251.1 101.02 250.81 101.02 250.46C101.02 250.11 101.14 249.81 101.38 249.58C101.62 249.34 101.91 249.22 102.26 249.22C102.61 249.22 102.89 249.34 103.13 249.58C103.37 249.82 103.49 250.11 103.49 250.46C103.49 250.81 103.37 251.11 103.13 251.34C102.89 251.57 102.6 251.7 102.26 251.7C101.92 251.7 101.61 251.58 101.38 251.34ZM103.21 252.93V262.3H101.27V252.93H103.21Z" fill="#A8A8A8"/>
<path d="M119.08 253.24C119.66 253.55 120.12 254 120.46 254.6C120.79 255.2 120.96 255.93 120.96 256.78V262.31H119.04V257.07C119.04 256.23 118.83 255.59 118.41 255.14C117.99 254.69 117.42 254.47 116.69 254.47C115.96 254.47 115.39 254.69 114.96 255.14C114.53 255.59 114.32 256.23 114.32 257.07V262.31H112.4V257.07C112.4 256.23 112.19 255.59 111.77 255.14C111.35 254.69 110.78 254.47 110.05 254.47C109.32 254.47 108.75 254.69 108.32 255.14C107.89 255.59 107.68 256.23 107.68 257.07V262.31H105.74V252.94H107.68V254.01C108 253.62 108.4 253.32 108.89 253.11C109.38 252.9 109.9 252.79 110.45 252.79C111.2 252.79 111.87 252.95 112.46 253.27C113.05 253.59 113.5 254.05 113.82 254.65C114.1 254.08 114.55 253.63 115.15 253.3C115.75 252.97 116.4 252.8 117.09 252.8C117.83 252.8 118.49 252.95 119.07 253.26L119.08 253.24Z" fill="#A8A8A8"/>
<path d="M123.36 255.08C123.75 254.35 124.28 253.79 124.96 253.39C125.63 252.99 126.38 252.79 127.2 252.79C127.94 252.79 128.58 252.93 129.13 253.22C129.68 253.51 130.12 253.87 130.45 254.3V252.94H132.41V262.31H130.45V260.92C130.12 261.36 129.67 261.73 129.11 262.02C128.55 262.31 127.9 262.46 127.17 262.46C126.37 262.46 125.63 262.25 124.96 261.84C124.29 261.43 123.76 260.85 123.37 260.11C122.98 259.37 122.78 258.53 122.78 257.59C122.78 256.65 122.98 255.82 123.37 255.09L123.36 255.08ZM130.05 255.93C129.78 255.45 129.44 255.09 129 254.84C128.57 254.59 128.1 254.47 127.61 254.47C127.12 254.47 126.65 254.59 126.22 254.84C125.79 255.08 125.44 255.44 125.17 255.91C124.9 256.38 124.77 256.94 124.77 257.58C124.77 258.22 124.9 258.79 125.17 259.28C125.44 259.77 125.79 260.14 126.22 260.39C126.66 260.64 127.12 260.77 127.61 260.77C128.1 260.77 128.57 260.65 129 260.4C129.43 260.15 129.78 259.79 130.05 259.3C130.32 258.82 130.45 258.26 130.45 257.61C130.45 256.96 130.32 256.4 130.05 255.93Z" fill="#A8A8A8"/>
<path d="M135.05 251.34C134.81 251.1 134.69 250.81 134.69 250.46C134.69 250.11 134.81 249.81 135.05 249.58C135.29 249.34 135.58 249.22 135.93 249.22C136.28 249.22 136.56 249.34 136.8 249.58C137.04 249.82 137.16 250.11 137.16 250.46C137.16 250.81 137.04 251.11 136.8 251.34C136.56 251.57 136.27 251.7 135.93 251.7C135.59 251.7 135.28 251.58 135.05 251.34ZM136.89 252.93V262.3H134.95V252.93H136.89Z" fill="#A8A8A8"/>
<path d="M140.86 262.05C140.28 261.78 139.81 261.42 139.47 260.96C139.13 260.5 138.95 259.99 138.93 259.42H140.94C140.97 259.82 141.16 260.15 141.51 260.41C141.86 260.68 142.29 260.81 142.81 260.81C143.33 260.81 143.78 260.7 144.08 260.49C144.38 260.28 144.53 260.01 144.53 259.68C144.53 259.33 144.36 259.07 144.03 258.9C143.7 258.73 143.17 258.54 142.44 258.34C141.74 258.15 141.16 257.96 140.72 257.78C140.28 257.6 139.9 257.32 139.57 256.95C139.24 256.58 139.09 256.08 139.09 255.47C139.09 254.97 139.24 254.52 139.53 254.1C139.82 253.69 140.25 253.36 140.8 253.12C141.35 252.88 141.98 252.76 142.7 252.76C143.77 252.76 144.62 253.03 145.28 253.57C145.93 254.11 146.28 254.84 146.33 255.77H144.39C144.36 255.35 144.19 255.02 143.88 254.77C143.57 254.52 143.16 254.4 142.64 254.4C142.12 254.4 141.74 254.5 141.47 254.69C141.2 254.88 141.06 255.14 141.06 255.45C141.06 255.7 141.15 255.91 141.33 256.08C141.51 256.25 141.73 256.38 141.99 256.48C142.25 256.58 142.64 256.7 143.15 256.85C143.83 257.03 144.39 257.22 144.82 257.4C145.26 257.59 145.63 257.86 145.95 258.22C146.27 258.58 146.43 259.06 146.44 259.67C146.44 260.2 146.29 260.68 146 261.1C145.71 261.52 145.29 261.85 144.75 262.09C144.21 262.33 143.58 262.45 142.85 262.45C142.12 262.45 141.45 262.32 140.87 262.05H140.86Z" fill="#A8A8A8"/>
<path d="M112.18 223.31C173.716 223.31 223.6 173.426 223.6 111.89C223.6 50.3544 173.716 0.470001 112.18 0.470001C50.6444 0.470001 0.76001 50.3544 0.76001 111.89C0.76001 173.426 50.6444 223.31 112.18 223.31Z" fill="#E1A9AF"/>
<path d="M169.74 117.68C169.78 148.44 144.88 173.41 114.12 173.45C83.36 173.49 58.39 148.59 58.35 117.83C63.81 89.4 83.22 70.58 113.98 70.54C144.74 70.5 160.3 86.52 169.74 117.68Z" fill="#8CBC38"/>
<path d="M145.41 119.77C159.587 119.77 171.08 108.277 171.08 94.1C171.08 79.9228 159.587 68.43 145.41 68.43C131.233 68.43 119.74 79.9228 119.74 94.1C119.74 108.277 131.233 119.77 145.41 119.77Z" fill="white"/>
<path d="M145.41 125.27C137.1 125.27 129.29 122.04 123.4 116.17C117.51 110.29 114.25 102.47 114.24 94.14C114.22 76.95 128.18 62.95 145.37 62.93H145.41C153.72 62.93 161.53 66.16 167.42 72.03C173.31 77.91 176.57 85.73 176.58 94.06C176.59 102.39 173.36 110.22 167.48 116.11C161.6 122 153.78 125.26 145.45 125.27H145.41ZM145.41 73.93H145.38C134.26 73.94 125.22 83 125.24 94.13C125.24 99.52 127.35 104.58 131.17 108.38C134.98 112.18 140.03 114.28 145.44 114.27C150.83 114.27 155.89 112.16 159.69 108.34C163.49 104.53 165.59 99.46 165.58 94.07C165.58 88.68 163.47 83.62 159.65 79.82C155.84 76.02 150.79 73.93 145.41 73.93Z" fill="#8CBC38"/>
<path d="M78.95 119.86C93.1272 119.86 104.62 108.367 104.62 94.19C104.62 80.0128 93.1272 68.52 78.95 68.52C64.7729 68.52 53.28 80.0128 53.28 94.19C53.28 108.367 64.7729 119.86 78.95 119.86Z" fill="white"/>
<path d="M78.95 125.36C70.64 125.36 62.83 122.13 56.94 116.26C51.05 110.38 47.7901 102.56 47.7801 94.23C47.7701 85.9 51 78.07 56.88 72.18C62.76 66.29 70.5801 63.03 78.9101 63.02H78.95C96.12 63.02 110.1 76.98 110.12 94.15C110.14 111.34 96.18 125.34 78.99 125.36H78.95ZM78.92 74.02C73.53 74.02 68.47 76.13 64.67 79.95C60.87 83.76 58.7701 88.83 58.7801 94.22C58.7801 99.61 60.89 104.67 64.71 108.47C68.52 112.27 73.57 114.36 78.95 114.36H78.98C90.1 114.35 99.14 105.29 99.12 94.16C99.11 83.05 90.06 74.02 78.95 74.02H78.92Z" fill="#8CBC38"/>
<path d="M70.2669 102.409C74.5692 102.403 78.0523 99.1162 78.0467 95.0679C78.041 91.0197 74.5487 87.7428 70.2464 87.7488C65.9441 87.7548 62.461 91.0414 62.4667 95.0897C62.4723 99.1379 65.9646 102.415 70.2669 102.409Z" fill="#413A3A"/>
<path d="M155.518 95.8698C159.82 95.8638 163.303 92.5772 163.297 88.5289C163.292 84.4807 159.799 81.2038 155.497 81.2098C151.195 81.2158 147.712 84.5024 147.717 88.5507C147.723 92.5989 151.215 95.8758 155.518 95.8698Z" fill="#413A3A"/>
<path d="M72.3 92.82C73.4377 92.82 74.36 91.8977 74.36 90.76C74.36 89.6223 73.4377 88.7 72.3 88.7C71.1623 88.7 70.24 89.6223 70.24 90.76C70.24 91.8977 71.1623 92.82 72.3 92.82Z" fill="white"/>
<path d="M157.55 86.29C158.688 86.29 159.61 85.3677 159.61 84.23C159.61 83.0923 158.688 82.17 157.55 82.17C156.412 82.17 155.49 83.0923 155.49 84.23C155.49 85.3677 156.412 86.29 157.55 86.29Z" fill="white"/>
<path d="M168.15 131.89C111.16 154.15 71.44 139.89 59.74 130.66C62.5 141.43 75.15 173.75 117.32 173.44C148.49 173.22 164.57 145.65 168.14 131.89H168.15Z" fill="#F5DC8B"/>
<path d="M147.55 154.83C140.95 156.67 137.61 145.98 136.76 140.41C139.14 140.41 146.46 138.26 149.82 137.18C151.81 142.3 154.15 152.99 147.55 154.83Z" fill="#E3817A"/>
<path d="M120.02 137.22C121.666 137.22 123 135.886 123 134.24C123 132.594 121.666 131.26 120.02 131.26C118.374 131.26 117.04 132.594 117.04 134.24C117.04 135.886 118.374 137.22 120.02 137.22Z" fill="black"/>
<path d="M107.19 137.24C108.836 137.24 110.17 135.906 110.17 134.26C110.17 132.614 108.836 131.28 107.19 131.28C105.544 131.28 104.21 132.614 104.21 134.26C104.21 135.906 105.544 137.24 107.19 137.24Z" fill="black"/>
<path d="M99.81 103.33C75.07 112.53 62 104.3 59.7 103.38C61.31 109.34 65 121.22 80.81 120.31C93.83 119.56 98.9 108.67 99.81 103.32V103.33Z" fill="#84B036"/>
<path d="M79.16 120.59C64.12 120.59 60.77 108.21 59.48 103.44L59.36 103L59.79 103.17C59.99 103.25 60.27 103.39 60.63 103.56C71.63 108.83 84.78 108.68 99.73 103.12L100.1 102.98L100.03 103.37C99.08 108.98 93.83 119.8 80.82 120.55C80.25 120.58 79.69 120.6 79.15 120.6L79.16 120.59ZM60.05 103.79C61.56 109.31 65.16 120.99 80.8 120.09C93.23 119.37 98.41 109.27 99.52 103.69C84.6 109.16 71.46 109.25 60.44 103.98C60.3 103.91 60.17 103.85 60.06 103.8L60.05 103.79Z" fill="#8CBC38"/>
<path d="M165.36 102.33C140.62 111.53 127.55 103.3 125.25 102.38C126.86 108.34 130.55 120.22 146.36 119.31C159.38 118.56 164.45 107.67 165.36 102.32V102.33Z" fill="#84B036"/>
<path d="M144.71 119.59C129.68 119.59 126.32 107.21 125.04 102.44L124.92 102L125.35 102.17C125.55 102.25 125.83 102.39 126.19 102.56C137.19 107.83 150.34 107.68 165.29 102.12L165.66 101.98L165.59 102.37C164.64 107.98 159.39 118.79 146.38 119.55C145.81 119.58 145.25 119.6 144.71 119.6V119.59ZM125.6 102.79C127.11 108.31 130.72 119.99 146.35 119.09C158.78 118.37 163.96 108.27 165.07 102.69C150.15 108.16 137.01 108.25 125.99 102.98C125.85 102.91 125.72 102.85 125.61 102.8L125.6 102.79Z" fill="#8CBC38"/>
</svg>
