<svg width="223" height="267" viewBox="0 0 223 267" fill="none" xmlns="http://www.w3.org/2000/svg">
<path d="M47.16 253.26C47.7 252.34 48.43 251.63 49.35 251.11C50.27 250.59 51.29 250.34 52.38 250.34C53.64 250.34 54.76 250.65 55.74 251.27C56.72 251.89 57.43 252.76 57.87 253.9H55.54C55.23 253.28 54.81 252.81 54.27 252.51C53.73 252.2 53.1 252.05 52.38 252.05C51.6 252.05 50.9 252.23 50.29 252.58C49.68 252.93 49.2 253.44 48.85 254.09C48.5 254.74 48.33 255.51 48.33 256.38C48.33 257.25 48.5 258.02 48.85 258.67C49.2 259.32 49.67 259.83 50.29 260.19C50.9 260.55 51.6 260.73 52.38 260.73C53.09 260.73 53.72 260.58 54.27 260.27C54.82 259.96 55.24 259.5 55.54 258.88H57.87C57.43 260.01 56.72 260.89 55.74 261.5C54.76 262.11 53.64 262.42 52.38 262.42C51.27 262.42 50.26 262.16 49.34 261.65C48.42 261.13 47.69 260.42 47.16 259.5C46.63 258.58 46.35 257.54 46.35 256.39C46.35 255.24 46.62 254.2 47.16 253.28V253.26Z" fill="#A8A8A8"/>
<path d="M61.8 261.85C61.09 261.45 60.53 260.88 60.12 260.15C59.71 259.42 59.51 258.57 59.51 257.61C59.51 256.65 59.72 255.81 60.14 255.08C60.56 254.34 61.13 253.78 61.86 253.38C62.59 252.98 63.4 252.79 64.29 252.79C65.18 252.79 66 252.99 66.72 253.38C67.45 253.78 68.02 254.34 68.44 255.08C68.86 255.82 69.07 256.66 69.07 257.61C69.07 258.56 68.85 259.41 68.42 260.14C67.99 260.88 67.4 261.45 66.66 261.85C65.92 262.25 65.1 262.45 64.2 262.45C63.3 262.45 62.52 262.25 61.8 261.85ZM65.6 260.41C66.04 260.17 66.39 259.81 66.66 259.34C66.93 258.87 67.07 258.29 67.07 257.61C67.07 256.93 66.94 256.36 66.68 255.88C66.42 255.41 66.07 255.06 65.64 254.82C65.21 254.58 64.74 254.46 64.25 254.46C63.76 254.46 63.29 254.58 62.86 254.82C62.44 255.06 62.1 255.41 61.85 255.88C61.6 256.35 61.48 256.93 61.48 257.61C61.48 258.62 61.74 259.4 62.25 259.95C62.77 260.5 63.41 260.77 64.2 260.77C64.7 260.77 65.17 260.65 65.6 260.41Z" fill="#A8A8A8"/>
<path d="M74.05 253.18C74.52 252.91 75.08 252.78 75.72 252.78V254.79H75.23C74.47 254.79 73.9 254.98 73.5 255.37C73.11 255.75 72.91 256.42 72.91 257.38V262.31H70.97V252.94H72.91V254.3C73.19 253.82 73.57 253.45 74.04 253.19L74.05 253.18Z" fill="#A8A8A8"/>
<path d="M80.79 253.22C81.36 252.93 82 252.78 82.71 252.78C83.53 252.78 84.27 252.98 84.95 253.38C85.63 253.78 86.15 254.35 86.54 255.07C86.93 255.79 87.12 256.63 87.12 257.57C87.12 258.51 86.93 259.35 86.54 260.09C86.15 260.83 85.62 261.41 84.95 261.82C84.28 262.23 83.53 262.44 82.71 262.44C82 262.44 81.36 262.3 80.81 262.01C80.26 261.72 79.8 261.36 79.45 260.93V266.74H77.51V252.92H79.45V254.3C79.78 253.87 80.23 253.51 80.79 253.21V253.22ZM84.74 255.9C84.47 255.43 84.12 255.07 83.69 254.83C83.25 254.59 82.79 254.46 82.29 254.46C81.79 254.46 81.34 254.58 80.9 254.83C80.46 255.08 80.11 255.44 79.85 255.92C79.59 256.4 79.45 256.96 79.45 257.6C79.45 258.24 79.58 258.81 79.85 259.29C80.12 259.77 80.47 260.14 80.9 260.39C81.34 260.64 81.8 260.76 82.29 260.76C82.78 260.76 83.26 260.63 83.69 260.38C84.13 260.12 84.48 259.75 84.74 259.27C85.01 258.78 85.14 258.22 85.14 257.57C85.14 256.92 85.01 256.37 84.74 255.9Z" fill="#A8A8A8"/>
<path d="M90.7 261.85C89.99 261.45 89.43 260.88 89.02 260.15C88.61 259.42 88.41 258.57 88.41 257.61C88.41 256.65 88.62 255.81 89.04 255.08C89.46 254.34 90.03 253.78 90.76 253.38C91.49 252.98 92.3 252.79 93.19 252.79C94.08 252.79 94.9 252.99 95.62 253.38C96.35 253.78 96.92 254.34 97.34 255.08C97.76 255.82 97.97 256.66 97.97 257.61C97.97 258.56 97.75 259.41 97.32 260.14C96.89 260.88 96.3 261.45 95.56 261.85C94.82 262.25 94 262.45 93.1 262.45C92.2 262.45 91.42 262.25 90.7 261.85ZM94.5 260.41C94.94 260.17 95.29 259.81 95.56 259.34C95.83 258.87 95.97 258.29 95.97 257.61C95.97 256.93 95.84 256.36 95.58 255.88C95.32 255.41 94.97 255.06 94.54 254.82C94.11 254.58 93.64 254.46 93.15 254.46C92.66 254.46 92.19 254.58 91.76 254.82C91.34 255.06 91 255.41 90.75 255.88C90.5 256.35 90.38 256.93 90.38 257.61C90.38 258.62 90.64 259.4 91.15 259.95C91.67 260.5 92.31 260.77 93.1 260.77C93.6 260.77 94.07 260.65 94.5 260.41Z" fill="#A8A8A8"/>
<path d="M113.74 250.49V262.31H111.8V257.14H106.24V262.31H104.3V250.49H106.24V255.56H111.8V250.49H113.74Z" fill="#A8A8A8"/>
<path d="M124.77 252.93V262.3H122.83V261.19C122.52 261.58 122.12 261.88 121.63 262.1C121.14 262.32 120.61 262.43 120.06 262.43C119.32 262.43 118.66 262.28 118.08 261.97C117.5 261.66 117.04 261.21 116.7 260.61C116.37 260.01 116.2 259.28 116.2 258.43V252.92H118.12V258.14C118.12 258.98 118.33 259.62 118.75 260.07C119.17 260.52 119.74 260.74 120.47 260.74C121.2 260.74 121.77 260.52 122.2 260.07C122.62 259.62 122.84 258.98 122.84 258.14V252.92H124.78L124.77 252.93Z" fill="#A8A8A8"/>
<path d="M140.64 253.24C141.22 253.55 141.68 254 142.02 254.6C142.36 255.2 142.52 255.93 142.52 256.78V262.31H140.6V257.07C140.6 256.23 140.39 255.59 139.97 255.14C139.55 254.69 138.98 254.47 138.25 254.47C137.52 254.47 136.95 254.69 136.52 255.14C136.09 255.59 135.88 256.23 135.88 257.07V262.31H133.96V257.07C133.96 256.23 133.75 255.59 133.33 255.14C132.91 254.69 132.34 254.47 131.61 254.47C130.88 254.47 130.31 254.69 129.88 255.14C129.45 255.59 129.24 256.23 129.24 257.07V262.31H127.3V252.94H129.24V254.01C129.56 253.62 129.96 253.32 130.45 253.11C130.94 252.9 131.46 252.79 132.01 252.79C132.76 252.79 133.43 252.95 134.02 253.27C134.61 253.59 135.06 254.05 135.38 254.65C135.66 254.08 136.11 253.63 136.71 253.3C137.31 252.97 137.96 252.8 138.65 252.8C139.39 252.8 140.05 252.95 140.63 253.26L140.64 253.24Z" fill="#A8A8A8"/>
<path d="M144.92 255.08C145.31 254.35 145.84 253.79 146.52 253.39C147.2 252.99 147.94 252.79 148.76 252.79C149.5 252.79 150.14 252.93 150.69 253.22C151.24 253.51 151.68 253.87 152.01 254.3V252.94H153.97V262.31H152.01V260.92C151.68 261.36 151.23 261.73 150.67 262.02C150.1 262.31 149.46 262.46 148.73 262.46C147.93 262.46 147.19 262.25 146.52 261.84C145.85 261.43 145.32 260.85 144.93 260.11C144.54 259.37 144.34 258.53 144.34 257.59C144.34 256.65 144.54 255.82 144.93 255.09L144.92 255.08ZM151.6 255.93C151.33 255.45 150.99 255.09 150.55 254.84C150.11 254.59 149.65 254.47 149.16 254.47C148.67 254.47 148.2 254.59 147.77 254.84C147.34 255.08 146.99 255.44 146.72 255.91C146.45 256.38 146.32 256.94 146.32 257.58C146.32 258.22 146.45 258.79 146.72 259.28C146.99 259.77 147.34 260.14 147.77 260.39C148.21 260.64 148.67 260.77 149.16 260.77C149.65 260.77 150.12 260.65 150.55 260.4C150.98 260.15 151.33 259.79 151.6 259.3C151.87 258.82 152 258.26 152 257.61C152 256.96 151.87 256.4 151.6 255.93Z" fill="#A8A8A8"/>
<path d="M163.21 253.24C163.79 253.55 164.25 254 164.58 254.6C164.91 255.2 165.07 255.93 165.07 256.78V262.31H163.15V257.07C163.15 256.23 162.94 255.59 162.52 255.14C162.1 254.69 161.53 254.47 160.8 254.47C160.07 254.47 159.5 254.69 159.07 255.14C158.65 255.59 158.43 256.23 158.43 257.07V262.31H156.49V252.94H158.43V254.01C158.75 253.62 159.15 253.32 159.65 253.11C160.14 252.9 160.67 252.79 161.22 252.79C161.96 252.79 162.62 252.94 163.2 253.25L163.21 253.24Z" fill="#A8A8A8"/>
<path d="M169.21 261.85C168.5 261.45 167.94 260.88 167.53 260.15C167.12 259.42 166.92 258.57 166.92 257.61C166.92 256.65 167.13 255.81 167.55 255.08C167.97 254.34 168.54 253.78 169.27 253.38C170 252.98 170.81 252.79 171.7 252.79C172.59 252.79 173.41 252.99 174.13 253.38C174.85 253.77 175.43 254.34 175.85 255.08C176.27 255.82 176.48 256.66 176.48 257.61C176.48 258.56 176.26 259.41 175.83 260.14C175.4 260.88 174.81 261.45 174.07 261.85C173.33 262.25 172.51 262.45 171.61 262.45C170.71 262.45 169.93 262.25 169.21 261.85ZM173.01 260.41C173.45 260.17 173.8 259.81 174.07 259.34C174.34 258.87 174.48 258.29 174.48 257.61C174.48 256.93 174.35 256.36 174.09 255.88C173.83 255.41 173.48 255.06 173.05 254.82C172.62 254.58 172.15 254.46 171.66 254.46C171.17 254.46 170.7 254.58 170.27 254.82C169.85 255.06 169.51 255.41 169.26 255.88C169.01 256.35 168.89 256.93 168.89 257.61C168.89 258.62 169.15 259.4 169.66 259.95C170.17 260.5 170.82 260.77 171.61 260.77C172.11 260.77 172.58 260.65 173.01 260.41Z" fill="#A8A8A8"/>
<path d="M111.42 223.31C172.956 223.31 222.84 173.426 222.84 111.89C222.84 50.3544 172.956 0.470001 111.42 0.470001C49.8844 0.470001 0 50.3544 0 111.89C0 173.426 49.8844 223.31 111.42 223.31Z" fill="#FABBF3"/>
<path d="M112.18 102.88C130.764 102.88 145.83 87.8144 145.83 69.23C145.83 50.6456 130.764 35.58 112.18 35.58C93.5956 35.58 78.53 50.6456 78.53 69.23C78.53 87.8144 93.5956 102.88 112.18 102.88Z" fill="#F5DCBE"/>
<path d="M128.66 83.76C132.636 83.76 135.86 80.6618 135.86 76.84C135.86 73.0182 132.636 69.92 128.66 69.92C124.684 69.92 121.46 73.0182 121.46 76.84C121.46 80.6618 124.684 83.76 128.66 83.76Z" fill="#413A3A"/>
<path d="M94.87 84.87C98.8464 84.87 102.07 81.7718 102.07 77.95C102.07 74.1282 98.8464 71.03 94.87 71.03C90.8935 71.03 87.67 74.1282 87.67 77.95C87.67 81.7718 90.8935 84.87 94.87 84.87Z" fill="#413A3A"/>
<path d="M112.09 92.49C112 92.49 111.91 92.49 111.82 92.48C110.53 92.38 109.51 91.56 108.98 90.81C108.76 90.5 108.83 90.07 109.14 89.84C109.45 89.62 109.88 89.69 110.11 90C110.44 90.46 111.11 91.03 111.92 91.09C112.7 91.15 113.5 90.76 114.31 89.92C114.58 89.65 115.01 89.64 115.29 89.9C115.56 90.17 115.57 90.6 115.31 90.88C114.28 91.94 113.2 92.48 112.09 92.48V92.49Z" fill="#764C4C"/>
<path d="M132.54 76.57C133.611 76.57 134.48 75.7014 134.48 74.63C134.48 73.5586 133.611 72.69 132.54 72.69C131.469 72.69 130.6 73.5586 130.6 74.63C130.6 75.7014 131.469 76.57 132.54 76.57Z" fill="white"/>
<path d="M98.75 77.67C99.8214 77.67 100.69 76.8014 100.69 75.73C100.69 74.6586 99.8214 73.79 98.75 73.79C97.6786 73.79 96.81 74.6586 96.81 75.73C96.81 76.8014 97.6786 77.67 98.75 77.67Z" fill="white"/>
<path d="M114.84 105.37H109.28C101.631 105.37 95.43 111.571 95.43 119.22V135.78C95.43 143.429 101.631 149.63 109.28 149.63H114.84C122.489 149.63 128.69 143.429 128.69 135.78V119.22C128.69 111.571 122.489 105.37 114.84 105.37Z" fill="#F5DCBE"/>
<path d="M98.04 115.89L86.51 124.52C85.29 125.44 83.55 125.19 82.63 123.96C81.71 122.74 81.96 121 83.19 120.08L94.72 111.45C95.94 110.53 97.68 110.78 98.6 112.01C99.52 113.23 99.27 114.97 98.04 115.89Z" fill="#F5DCBE"/>
<path d="M124.79 115.89L136.32 124.52C137.54 125.44 139.28 125.19 140.2 123.96C141.12 122.74 140.87 121 139.64 120.08L128.11 111.45C126.89 110.53 125.15 110.78 124.23 112.01C123.31 113.23 123.56 114.97 124.79 115.89Z" fill="#F5DCBE"/>
<path d="M86.72 124.05L79.74 136.65C79 137.99 77.31 138.47 75.98 137.73C74.64 136.99 74.16 135.3 74.9 133.97L81.88 121.37C82.62 120.03 84.31 119.55 85.64 120.29C86.98 121.03 87.46 122.72 86.72 124.05Z" fill="#F5DCBE"/>
<path d="M136.11 124.05L143.09 136.65C143.83 137.99 145.52 138.47 146.85 137.73C148.19 136.99 148.67 135.3 147.93 133.97L140.95 121.37C140.21 120.03 138.52 119.55 137.19 120.29C135.85 121.03 135.37 122.72 136.11 124.05Z" fill="#F5DCBE"/>
<path d="M119.8 145.8C121.64 145.8 123.12 147.29 123.12 149.12V165.46C123.12 167.3 121.63 168.78 119.8 168.78C117.96 168.78 116.48 167.29 116.48 165.46V149.12C116.48 147.28 117.97 145.8 119.8 145.8Z" fill="#F5DCBE"/>
<path d="M103.74 145.8C105.58 145.8 107.06 147.29 107.06 149.12V165.46C107.06 167.3 105.57 168.78 103.74 168.78C101.9 168.78 100.42 167.29 100.42 165.46V149.12C100.42 147.28 101.91 145.8 103.74 145.8Z" fill="#F5DCBE"/>
<path d="M119.8 166.58C121.64 166.58 123.12 168.07 123.12 169.9V186.24C123.12 188.08 121.63 189.56 119.8 189.56C117.96 189.56 116.48 188.07 116.48 186.24V169.9C116.48 168.06 117.97 166.58 119.8 166.58Z" fill="#F5DCBE"/>
<path d="M103.74 166.58C105.58 166.58 107.06 168.07 107.06 169.9V186.24C107.06 188.08 105.57 189.56 103.74 189.56C101.9 189.56 100.42 188.07 100.42 186.24V169.9C100.42 168.06 101.91 166.58 103.74 166.58Z" fill="#F5DCBE"/>
<path d="M112.18 99.83C114.09 99.83 115.64 101.38 115.64 103.29V106.06C115.64 107.97 114.09 109.52 112.18 109.52C110.27 109.52 108.72 107.97 108.72 106.06V103.29C108.72 101.38 110.27 99.83 112.18 99.83Z" fill="#F5DCBE"/>
<path d="M108.45 102.6C110.4 103.02 114.27 102.88 115.93 102.6C114.85 104.69 111.83 107.62 108.45 102.6Z" fill="#CFBFA0"/>
<g opacity="0.2">
<path d="M132.68 95.13C134.442 95.13 135.87 93.7018 135.87 91.94C135.87 90.1782 134.442 88.75 132.68 88.75C130.918 88.75 129.49 90.1782 129.49 91.94C129.49 93.7018 130.918 95.13 132.68 95.13Z" fill="#E3817A"/>
</g>
<g opacity="0.2">
<path d="M91.69 95.13C93.4518 95.13 94.88 93.7018 94.88 91.94C94.88 90.1782 93.4518 88.75 91.69 88.75C89.9282 88.75 88.5 90.1782 88.5 91.94C88.5 93.7018 89.9282 95.13 91.69 95.13Z" fill="#E3817A"/>
</g>
<path d="M72.21 143.54C70.35 142.26 69.88 139.71 71.17 137.85L72.54 135.87C73.82 134.01 76.37 133.54 78.23 134.83C80.09 136.11 80.56 138.66 79.27 140.52L77.9 142.5C76.62 144.36 74.07 144.83 72.21 143.54Z" fill="#F5DCBE"/>
<path d="M79.67 142.42C78.92 142.56 78.19 142.06 78.05 141.31L77.69 139.37C77.55 138.62 78.05 137.89 78.8 137.75C79.55 137.61 80.28 138.11 80.42 138.86L80.78 140.8C80.92 141.55 80.42 142.28 79.67 142.42Z" fill="#F5DCBE"/>
<path d="M150.63 143.54C152.49 142.26 152.96 139.71 151.67 137.85L150.3 135.87C149.02 134.01 146.47 133.54 144.61 134.83C142.75 136.11 142.28 138.66 143.57 140.52L144.94 142.5C146.22 144.36 148.77 144.83 150.63 143.54Z" fill="#F5DCBE"/>
<path d="M143.16 142.42C143.91 142.56 144.64 142.06 144.78 141.31L145.14 139.37C145.28 138.62 144.78 137.89 144.03 137.75C143.28 137.61 142.55 138.11 142.41 138.86L142.05 140.8C141.91 141.55 142.41 142.28 143.16 142.42Z" fill="#F5DCBE"/>
<path d="M126.73 190.95C126.73 193.24 123.63 192.89 119.81 192.89C115.99 192.89 112.89 193.25 112.89 190.95C112.89 188.65 115.99 186.8 119.81 186.8C123.63 186.8 126.73 188.66 126.73 190.95Z" fill="#F5DCBE"/>
<path d="M110.66 191.23C110.66 193.52 107.28 193.03 103.46 193.03C99.64 193.03 96.81 193.52 96.81 191.23C96.81 188.94 99.91 187.08 103.73 187.08C107.55 187.08 110.65 188.94 110.65 191.23H110.66Z" fill="#F5DCBE"/>
<path d="M149.665 76.8959C150.694 73.6764 149.733 70.4926 147.519 69.7845C145.304 69.0764 142.674 71.1123 141.645 74.3317C140.615 77.5512 141.576 80.735 143.791 81.4431C146.006 82.1512 148.636 80.1153 149.665 76.8959Z" fill="#F5DCBE"/>
<path d="M80.7191 81.4557C82.9338 80.7476 83.8947 77.5637 82.8654 74.3443C81.8361 71.1249 79.2063 69.089 76.9916 69.797C74.7769 70.5051 73.816 73.689 74.8453 76.9085C75.8746 80.1279 78.5044 82.1637 80.7191 81.4557Z" fill="#F5DCBE"/>
</svg>
