<svg width="223" height="267" viewBox="0 0 223 267" fill="none" xmlns="http://www.w3.org/2000/svg">
<path d="M76.2 255.71C75.92 256.24 75.46 256.68 74.84 257.01C74.22 257.34 73.42 257.51 72.44 257.51H70.3V262.3H68.36V250.48H72.44C73.35 250.48 74.11 250.64 74.74 250.95C75.37 251.26 75.84 251.68 76.15 252.22C76.46 252.75 76.62 253.35 76.62 254.01C76.62 254.61 76.48 255.18 76.19 255.71H76.2ZM74.09 255.42C74.45 255.09 74.63 254.61 74.63 254C74.63 252.71 73.9 252.06 72.44 252.06H70.3V255.92H72.44C73.18 255.92 73.73 255.75 74.09 255.42Z" fill="#A8A8A8"/>
<path d="M78.42 255.08C78.81 254.35 79.34 253.79 80.02 253.39C80.69 252.99 81.44 252.79 82.26 252.79C83 252.79 83.64 252.93 84.19 253.22C84.74 253.51 85.18 253.87 85.51 254.3V252.94H87.47V262.31H85.51V260.92C85.18 261.36 84.73 261.73 84.17 262.02C83.61 262.31 82.96 262.46 82.23 262.46C81.43 262.46 80.69 262.25 80.02 261.84C79.35 261.43 78.82 260.85 78.43 260.11C78.04 259.37 77.84 258.53 77.84 257.59C77.84 256.65 78.04 255.82 78.43 255.09L78.42 255.08ZM85.1 255.93C84.83 255.45 84.49 255.09 84.05 254.84C83.62 254.59 83.15 254.47 82.66 254.47C82.17 254.47 81.7 254.59 81.27 254.84C80.84 255.08 80.49 255.44 80.22 255.91C79.95 256.38 79.82 256.94 79.82 257.58C79.82 258.22 79.95 258.79 80.22 259.28C80.49 259.77 80.84 260.14 81.27 260.39C81.71 260.64 82.17 260.77 82.66 260.77C83.15 260.77 83.62 260.65 84.05 260.4C84.48 260.15 84.83 259.79 85.1 259.3C85.37 258.82 85.5 258.26 85.5 257.61C85.5 256.96 85.37 256.4 85.1 255.93Z" fill="#A8A8A8"/>
<path d="M90.1 251.34C89.86 251.1 89.74 250.81 89.74 250.46C89.74 250.11 89.86 249.81 90.1 249.58C90.34 249.34 90.63 249.22 90.98 249.22C91.33 249.22 91.61 249.34 91.85 249.58C92.09 249.82 92.21 250.11 92.21 250.46C92.21 250.81 92.09 251.11 91.85 251.34C91.61 251.57 91.32 251.7 90.98 251.7C90.64 251.7 90.33 251.58 90.1 251.34ZM91.94 252.93V262.3H90V252.93H91.94Z" fill="#A8A8A8"/>
<path d="M95.91 262.05C95.33 261.78 94.86 261.42 94.52 260.96C94.18 260.5 94 259.99 93.98 259.42H95.99C96.02 259.82 96.21 260.15 96.56 260.41C96.91 260.68 97.34 260.81 97.86 260.81C98.38 260.81 98.83 260.7 99.13 260.49C99.43 260.28 99.58 260.01 99.58 259.68C99.58 259.33 99.41 259.07 99.08 258.9C98.75 258.73 98.22 258.54 97.49 258.34C96.79 258.15 96.21 257.96 95.77 257.78C95.33 257.6 94.95 257.32 94.62 256.95C94.29 256.58 94.14 256.08 94.14 255.47C94.14 254.97 94.29 254.52 94.58 254.1C94.87 253.69 95.3 253.36 95.85 253.12C96.4 252.88 97.03 252.76 97.75 252.76C98.82 252.76 99.67 253.03 100.33 253.57C100.98 254.11 101.33 254.84 101.38 255.77H99.44C99.41 255.35 99.24 255.02 98.93 254.77C98.62 254.52 98.21 254.4 97.69 254.4C97.17 254.4 96.79 254.5 96.52 254.69C96.25 254.88 96.11 255.14 96.11 255.45C96.11 255.7 96.2 255.91 96.38 256.08C96.56 256.25 96.78 256.38 97.04 256.48C97.3 256.58 97.69 256.7 98.2 256.85C98.88 257.03 99.44 257.22 99.87 257.4C100.31 257.59 100.68 257.86 101 258.22C101.32 258.58 101.48 259.06 101.49 259.67C101.49 260.2 101.34 260.68 101.05 261.1C100.76 261.52 100.34 261.85 99.8 262.09C99.26 262.33 98.63 262.45 97.9 262.45C97.17 262.45 96.5 262.32 95.92 262.05H95.91Z" fill="#A8A8A8"/>
<path d="M103.51 255.08C103.9 254.35 104.43 253.79 105.11 253.39C105.78 252.99 106.53 252.79 107.35 252.79C108.09 252.79 108.73 252.93 109.28 253.22C109.83 253.51 110.27 253.87 110.6 254.3V252.94H112.56V262.31H110.6V260.92C110.27 261.36 109.82 261.73 109.26 262.02C108.7 262.31 108.05 262.46 107.32 262.46C106.52 262.46 105.78 262.25 105.11 261.84C104.44 261.43 103.91 260.85 103.52 260.11C103.13 259.37 102.93 258.53 102.93 257.59C102.93 256.65 103.13 255.82 103.52 255.09L103.51 255.08ZM110.19 255.93C109.92 255.45 109.58 255.09 109.14 254.84C108.71 254.59 108.24 254.47 107.75 254.47C107.26 254.47 106.79 254.59 106.36 254.84C105.93 255.08 105.58 255.44 105.31 255.91C105.04 256.38 104.91 256.94 104.91 257.58C104.91 258.22 105.04 258.79 105.31 259.28C105.58 259.77 105.93 260.14 106.36 260.39C106.8 260.64 107.26 260.77 107.75 260.77C108.24 260.77 108.71 260.65 109.14 260.4C109.57 260.15 109.92 259.79 110.19 259.3C110.46 258.82 110.59 258.26 110.59 257.61C110.59 256.96 110.46 256.4 110.19 255.93Z" fill="#A8A8A8"/>
<path d="M120.8 253.21C121.36 253.5 121.8 253.86 122.12 254.29V252.93H124.08V262.45C124.08 263.31 123.9 264.08 123.54 264.75C123.18 265.42 122.65 265.95 121.97 266.34C121.28 266.73 120.47 266.92 119.51 266.92C118.24 266.92 117.19 266.62 116.35 266.03C115.51 265.44 115.04 264.63 114.92 263.61H116.84C116.99 264.1 117.3 264.49 117.78 264.79C118.26 265.09 118.84 265.24 119.51 265.24C120.29 265.24 120.92 265 121.41 264.53C121.89 264.05 122.13 263.36 122.13 262.46V260.9C121.8 261.34 121.36 261.71 120.8 262.01C120.24 262.31 119.6 262.46 118.89 262.46C118.07 262.46 117.33 262.25 116.65 261.84C115.98 261.43 115.44 260.85 115.05 260.11C114.66 259.37 114.46 258.53 114.46 257.59C114.46 256.65 114.66 255.82 115.05 255.09C115.44 254.36 115.97 253.8 116.65 253.4C117.32 253 118.07 252.8 118.89 252.8C119.62 252.8 120.26 252.94 120.82 253.23L120.8 253.21ZM121.72 255.93C121.45 255.45 121.11 255.09 120.67 254.84C120.24 254.59 119.77 254.47 119.28 254.47C118.79 254.47 118.32 254.59 117.89 254.84C117.46 255.08 117.11 255.44 116.84 255.91C116.57 256.38 116.44 256.94 116.44 257.58C116.44 258.22 116.57 258.79 116.84 259.28C117.11 259.77 117.46 260.14 117.89 260.39C118.33 260.64 118.79 260.77 119.28 260.77C119.77 260.77 120.24 260.65 120.67 260.4C121.1 260.15 121.45 259.79 121.72 259.3C121.99 258.82 122.12 258.26 122.12 257.61C122.12 256.96 121.99 256.4 121.72 255.93Z" fill="#A8A8A8"/>
<path d="M135.14 258.34H127.98C128.04 259.09 128.31 259.69 128.81 260.14C129.31 260.59 129.92 260.82 130.65 260.82C131.69 260.82 132.43 260.38 132.86 259.51H134.95C134.67 260.37 134.15 261.08 133.41 261.63C132.67 262.18 131.75 262.46 130.65 262.46C129.75 262.46 128.95 262.26 128.24 261.86C127.53 261.46 126.98 260.89 126.57 260.16C126.17 259.43 125.97 258.58 125.97 257.62C125.97 256.66 126.17 255.81 126.56 255.08C126.95 254.35 127.5 253.79 128.21 253.39C128.92 252.99 129.73 252.8 130.65 252.8C131.57 252.8 132.32 252.99 133.01 253.38C133.7 253.77 134.24 254.31 134.62 255C135.01 255.7 135.2 256.5 135.2 257.41C135.2 257.76 135.18 258.08 135.13 258.36L135.14 258.34ZM133.18 256.78C133.17 256.07 132.91 255.49 132.42 255.06C131.92 254.63 131.3 254.41 130.57 254.41C129.9 254.41 129.33 254.62 128.85 255.05C128.37 255.48 128.09 256.05 128 256.78H133.18Z" fill="#A8A8A8"/>
<path d="M143.81 253.24C144.39 253.55 144.85 254 145.18 254.6C145.51 255.2 145.67 255.93 145.67 256.78V262.31H143.75V257.07C143.75 256.23 143.54 255.59 143.12 255.14C142.7 254.69 142.13 254.47 141.4 254.47C140.67 254.47 140.1 254.69 139.67 255.14C139.24 255.59 139.03 256.23 139.03 257.07V262.31H137.09V252.94H139.03V254.01C139.35 253.62 139.75 253.32 140.25 253.11C140.74 252.9 141.27 252.79 141.82 252.79C142.56 252.79 143.22 252.94 143.8 253.25L143.81 253.24Z" fill="#A8A8A8"/>
<path d="M149.56 262.05C148.98 261.78 148.51 261.42 148.17 260.96C147.83 260.5 147.65 259.99 147.63 259.42H149.64C149.67 259.82 149.86 260.15 150.21 260.41C150.56 260.68 150.99 260.81 151.51 260.81C152.03 260.81 152.48 260.7 152.78 260.49C153.08 260.28 153.23 260.01 153.23 259.68C153.23 259.33 153.06 259.07 152.73 258.9C152.4 258.73 151.87 258.54 151.14 258.34C150.44 258.15 149.86 257.96 149.42 257.78C148.98 257.6 148.6 257.32 148.27 256.95C147.94 256.58 147.79 256.08 147.79 255.47C147.79 254.97 147.94 254.52 148.23 254.1C148.52 253.69 148.95 253.36 149.5 253.12C150.05 252.88 150.68 252.76 151.4 252.76C152.47 252.76 153.32 253.03 153.98 253.57C154.63 254.11 154.98 254.84 155.03 255.77H153.09C153.06 255.35 152.89 255.02 152.58 254.77C152.27 254.52 151.86 254.4 151.34 254.4C150.82 254.4 150.44 254.5 150.17 254.69C149.9 254.88 149.76 255.14 149.76 255.45C149.76 255.7 149.85 255.91 150.03 256.08C150.21 256.25 150.43 256.38 150.69 256.48C150.95 256.58 151.34 256.7 151.85 256.85C152.53 257.03 153.09 257.22 153.52 257.4C153.96 257.59 154.33 257.86 154.65 258.22C154.97 258.58 155.13 259.06 155.14 259.67C155.14 260.2 154.99 260.68 154.7 261.1C154.41 261.52 153.99 261.85 153.45 262.09C152.91 262.33 152.28 262.45 151.55 262.45C150.82 262.45 150.15 262.32 149.57 262.05H149.56Z" fill="#A8A8A8"/>
<path d="M111.51 223.31C173.046 223.31 222.93 173.426 222.93 111.89C222.93 50.3544 173.046 0.470001 111.51 0.470001C49.9744 0.470001 0.0900269 50.3544 0.0900269 111.89C0.0900269 173.426 49.9744 223.31 111.51 223.31Z" fill="#B3D9E5"/>
<path d="M11 160.44C11 160.44 61.71 138.64 94.86 155.04C94.86 155.04 135.67 127.55 221.84 127.49C221.84 127.49 208.62 213.1 122.31 222.77C122.31 222.77 44 227.44 11 160.44Z" fill="#C2D379"/>
<path d="M141.18 142.02C136.41 142.19 131.82 139.58 128.76 135.92C125.69 132.26 123.97 127.64 122.89 122.99C122.52 121.39 122.21 119.75 122.35 118.11C122.51 116.22 123.27 114.44 124.01 112.7C124.97 110.46 126.07 108.05 128.23 106.91C125.92 104.26 124.74 100.67 125.03 97.17C125.32 93.67 127.07 90.32 129.77 88.08C130.22 87.71 130.73 87.31 130.82 86.73C130.87 86.39 130.77 86.05 130.68 85.71C130.05 83.3 130.43 80.74 130.89 78.29C131.49 75.15 132.24 71.98 133.86 69.22C136.68 64.43 142.16 61.34 147.71 61.39C153.26 61.45 158.68 64.65 161.41 69.49C164.14 74.33 164.06 80.62 161.23 85.4C163.17 85.86 164.17 87.96 164.9 89.82C165.9 92.38 166.92 95.01 166.95 97.76C166.98 100.51 165.8 103.45 163.38 104.74C165.65 105.59 167.15 107.77 168.07 110.01C171.43 118.2 168.33 128.34 161.39 133.83C159.82 135.08 158.08 136.1 156.35 137.11C151.13 140.13 145.05 143.08 139.3 141.26" fill="#ADAF61"/>
<mask id="mask0_156_624" style="mask-type:luminance" maskUnits="userSpaceOnUse" x="122" y="61" width="48" height="82">
<path d="M141.18 142.02C136.41 142.19 131.82 139.58 128.76 135.92C125.69 132.26 123.97 127.64 122.89 122.99C122.52 121.39 122.21 119.75 122.35 118.11C122.51 116.22 123.27 114.44 124.01 112.7C124.97 110.46 126.07 108.05 128.23 106.91C125.92 104.26 124.74 100.67 125.03 97.17C125.32 93.67 127.07 90.32 129.77 88.08C130.22 87.71 130.73 87.31 130.82 86.73C130.87 86.39 130.77 86.05 130.68 85.71C130.05 83.3 130.43 80.74 130.89 78.29C131.49 75.15 132.24 71.98 133.86 69.22C136.68 64.43 142.16 61.34 147.71 61.39C153.26 61.45 158.68 64.65 161.41 69.49C164.14 74.33 164.06 80.62 161.23 85.4C163.17 85.86 164.17 87.96 164.9 89.82C165.9 92.38 166.92 95.01 166.95 97.76C166.98 100.51 165.8 103.45 163.38 104.74C165.65 105.59 167.15 107.77 168.07 110.01C171.43 118.2 168.33 128.34 161.39 133.83C159.82 135.08 158.08 136.1 156.35 137.11C151.13 140.13 145.05 143.08 139.3 141.26" fill="white"/>
</mask>
<g mask="url(#mask0_156_624)">
<path d="M161.44 66.55C164.91 74.46 163.61 84.17 158.17 90.94C159.81 96.66 156.93 103.3 151.59 106.14C150.78 106.57 149.93 106.92 149.2 107.47C148.46 108.03 147.88 108.76 147.25 109.44C144.49 112.39 140.51 114.23 136.42 114.45C134.83 114.53 133.23 114.39 131.64 114.55C128.44 114.89 125.55 116.49 122.76 118.06C123.95 120.43 123.28 123.24 123.01 125.87C122.23 133.51 125.65 141.81 132.52 145.54C136.88 147.91 142.17 148.26 147.07 147.37C151.97 146.48 156.58 144.44 161.03 142.23C163.17 141.16 165.33 140.03 167 138.35C168.63 136.71 169.73 134.64 170.64 132.54C172.47 128.31 173.62 123.73 173.36 119.14C173.1 114.56 171.32 109.96 167.95 106.76C169.61 104.19 170.05 101 169.65 97.99C169.25 94.98 168.08 92.12 166.7 89.4C166.19 88.38 165.63 87.36 165.47 86.23C165.13 83.98 166.38 81.8 166.57 79.54C166.99 74.62 162.58 70.65 161.21 65.9" fill="#9E9E59"/>
</g>
<path d="M152.35 158.53L141.85 160.44L144.71 134.66L139.94 127.02L144.71 129.89L146.15 120.37L147.58 121.29L148.53 135.62L152.35 134.83L149.49 138.48L152.35 159.38" fill="#5C4131"/>
<path d="M68 102.44C79.598 102.44 89 93.038 89 81.44C89 69.842 79.598 60.44 68 60.44C56.402 60.44 47 69.842 47 81.44C47 93.038 56.402 102.44 68 102.44Z" fill="#F9E96D"/>
<path d="M63.32 104.74C81.21 102.77 99.28 102.36 117.24 103.53C118.74 103.63 120.38 103.7 121.61 102.83C122.3 102.34 122.77 101.62 123.18 100.88C125.06 97.44 125.74 93.16 124.13 89.59C122.52 86.02 118.23 83.61 114.52 84.85C113.49 80 110.66 75.44 106.44 72.84C102.22 70.24 96.58 69.84 92.27 72.29C87.96 74.75 85.42 80.19 86.79 84.96C82.33 83.9 77.34 87.28 76.66 91.81C74.03 89.94 70.32 89.9 67.49 91.45C64.66 93 62.74 95.98 62.17 99.15C61.81 101.17 62.15 103.51 63.36 105.06" fill="white"/>
<path d="M63.32 105.24C75.82 103.87 88.4 103.25 100.98 103.4C104.1 103.44 107.23 103.52 110.35 103.66C111.95 103.73 113.55 103.81 115.15 103.9C116.53 103.98 117.95 104.17 119.33 104.06C120.51 103.97 121.63 103.61 122.47 102.74C123.31 101.87 123.9 100.65 124.37 99.51C125.35 97.14 125.78 94.52 125.36 91.98C124.94 89.44 123.51 87.06 121.33 85.56C119.31 84.17 116.74 83.6 114.37 84.36L114.99 84.71C113.69 78.75 109.76 73.19 103.88 71.06C98 68.93 91.19 70.56 87.8 75.94C86.1 78.64 85.44 81.98 86.3 85.08L86.92 84.46C82.16 83.39 76.96 86.81 76.18 91.66L76.91 91.36C73.98 89.33 69.94 89.37 66.91 91.18C63.88 92.99 62.03 96.16 61.61 99.51C61.36 101.49 61.71 103.67 62.93 105.29C63.31 105.8 64.18 105.3 63.79 104.79C61.3 101.48 62.77 96.51 65.37 93.72C68.18 90.7 72.92 89.81 76.4 92.23C76.65 92.4 77.08 92.23 77.13 91.93C77.82 87.64 82.37 84.47 86.64 85.43C87.01 85.51 87.36 85.2 87.26 84.81C85.8 79.52 89.14 73.79 94.18 71.93C99.8 69.85 106.06 72.02 109.88 76.44C111.97 78.86 113.35 81.85 114.03 84.96C114.09 85.22 114.4 85.39 114.65 85.31C116.72 84.65 118.9 85.13 120.69 86.31C122.59 87.57 123.84 89.52 124.31 91.73C124.83 94.17 124.42 96.75 123.49 99.04C123.04 100.15 122.47 101.41 121.56 102.22C120.65 103.03 119.25 103.1 118.04 103.06C115.19 102.95 112.34 102.72 109.49 102.61C106.64 102.5 103.66 102.42 100.74 102.39C94.86 102.32 88.98 102.42 83.11 102.69C76.5 102.99 69.9 103.51 63.32 104.23C62.69 104.3 62.68 105.3 63.32 105.23V105.24Z" fill="white"/>
<path d="M67.06 104.69C82.66 103.62 98.4 103.4 114.06 104.03C115.37 104.08 116.79 104.12 117.87 103.65C118.47 103.39 118.88 102.99 119.24 102.59C120.88 100.72 121.48 98.4 120.07 96.46C118.66 94.52 114.93 93.21 111.69 93.89C110.79 91.26 108.33 88.78 104.65 87.37C100.97 85.96 96.06 85.74 92.3 87.07C88.55 88.41 86.33 91.36 87.52 93.95C83.64 93.37 79.28 95.21 78.69 97.67C76.4 96.65 73.16 96.63 70.7 97.47C68.23 98.31 66.56 99.93 66.07 101.65" fill="#F3F9FF"/>
<path d="M21.71 103.34C27.52 102.7 33.39 102.57 39.23 102.95C39.72 102.98 40.25 103.01 40.65 102.72C40.87 102.56 41.03 102.33 41.16 102.09C41.77 100.97 41.99 99.58 41.47 98.42C40.95 97.26 39.55 96.48 38.35 96.88C38.02 95.3 37.1 93.82 35.72 92.98C34.34 92.14 32.52 92 31.12 92.8C29.72 93.6 28.89 95.37 29.34 96.92C27.89 96.58 26.27 97.67 26.05 99.15C25.2 98.54 23.99 98.53 23.07 99.03C22.15 99.53 21.53 100.5 21.34 101.53C21.22 102.19 21.34 102.95 21.73 103.45" fill="white"/>
<path d="M21.71 103.84C26.09 103.36 30.5001 103.16 34.9101 103.26C35.9801 103.28 37.05 103.32 38.12 103.38C38.94 103.42 39.98 103.65 40.75 103.24C41.48 102.86 41.85 101.94 42.07 101.19C42.29 100.44 42.34 99.54 42.12 98.75C41.66 97.09 39.93 95.9 38.21 96.39L38.83 96.74C38.21 94.02 35.98 91.66 33.05 91.76C30.36 91.85 28.17 94.33 28.86 97.04L29.48 96.42C27.73 96.07 25.91 97.21 25.57 98.99L26.3 98.69C24.91 97.78 23.04 98.07 21.92 99.27C20.86 100.41 20.35 102.32 21.3 103.68C21.67 104.2 22.5301 103.7 22.1601 103.18C21.4701 102.19 21.86 100.81 22.63 99.98C23.46 99.09 24.77 98.88 25.8 99.56C26.05 99.73 26.48 99.57 26.53 99.26C26.76 98.04 27.96 97.13 29.21 97.38C29.58 97.45 29.92 97.15 29.83 96.76C29.25 94.51 31.28 92.65 33.44 92.75C35.78 92.86 37.39 94.84 37.87 96.99C37.93 97.25 38.23 97.41 38.49 97.34C39.36 97.09 40.26 97.48 40.79 98.2C41.38 99 41.37 100.09 41.09 101.01C40.95 101.47 40.7 102.19 40.21 102.38C39.78 102.55 39.2 102.43 38.75 102.4C37.64 102.33 36.53 102.29 35.42 102.26C30.85 102.14 26.27 102.33 21.73 102.83C21.1 102.9 21.09 103.9 21.73 103.83L21.71 103.84Z" fill="white"/>
<path d="M22.93 103.33C28 102.98 33.11 102.91 38.2 103.12C38.63 103.14 39.09 103.15 39.44 103C39.63 102.91 39.77 102.79 39.88 102.66C40.41 102.05 40.61 101.3 40.15 100.67C39.69 100.04 38.48 99.61 37.43 99.83C37.14 98.97 36.34 98.17 35.14 97.71C33.94 97.25 32.35 97.18 31.13 97.61C29.91 98.04 29.19 99 29.58 99.84C28.32 99.65 26.9 100.25 26.71 101.05C25.97 100.72 24.91 100.71 24.11 100.99C23.31 101.27 22.76 101.79 22.6 102.35" fill="#F3F9FF"/>
</svg>
