<svg width="427" height="99" viewBox="0 0 427 99" fill="none" xmlns="http://www.w3.org/2000/svg">
<path d="M397.19 28.31H29.81C13.3464 28.31 0 41.6564 0 58.12V68.5C0 84.9636 13.3464 98.31 29.81 98.31H397.19C413.654 98.31 427 84.9636 427 68.5V58.12C427 41.6564 413.654 28.31 397.19 28.31Z" fill="#C8A9F2"/>
<path d="M46.75 77.1C45.42 76.49 44.37 75.64 43.62 74.56C42.87 73.48 42.45 72.26 42.4 70.91H45.21C45.34 72.2 45.91 73.34 46.92 74.31C47.93 75.29 49.42 75.77 51.37 75.77C53.17 75.77 54.59 75.31 55.65 74.38C56.7 73.46 57.23 72.28 57.23 70.87C57.23 69.73 56.94 68.81 56.36 68.11C55.78 67.41 55.05 66.9 54.19 66.55C53.33 66.21 52.14 65.84 50.62 65.43C48.85 64.95 47.44 64.48 46.4 64.02C45.36 63.56 44.47 62.85 43.74 61.89C43 60.93 42.64 59.62 42.64 57.98C42.64 56.61 42.99 55.39 43.7 54.31C44.41 53.23 45.41 52.39 46.7 51.78C47.99 51.17 49.47 50.87 51.15 50.87C53.61 50.87 55.59 51.47 57.1 52.67C58.61 53.87 59.48 55.43 59.7 57.32H56.81C56.63 56.23 56.04 55.26 55.02 54.41C54.01 53.56 52.64 53.14 50.92 53.14C49.32 53.14 47.99 53.57 46.93 54.41C45.87 55.26 45.33 56.42 45.33 57.89C45.33 59.01 45.62 59.9 46.2 60.59C46.78 61.27 47.51 61.79 48.38 62.15C49.25 62.51 50.44 62.89 51.93 63.29C53.65 63.77 55.05 64.25 56.11 64.72C57.17 65.19 58.07 65.9 58.81 66.87C59.54 67.83 59.91 69.12 59.91 70.75C59.91 71.99 59.58 73.17 58.92 74.29C58.26 75.41 57.29 76.3 55.99 76.99C54.69 77.68 53.15 78.02 51.35 78.02C49.55 78.02 48.06 77.72 46.73 77.11L46.75 77.1Z" fill="white"/>
<path d="M67.55 53.35V63.27H77.62V65.47H67.55V75.54H78.76V77.74H64.89V51.14H78.76V53.34H67.55V53.35Z" fill="white"/>
<path d="M86.51 75.58H96.05V77.75H83.85V51.19H86.51V75.58Z" fill="white"/>
<path d="M102.36 53.35V63.27H112.43V65.47H102.36V75.54H113.57V77.74H99.7V51.14H113.57V53.34H102.36V53.35Z" fill="white"/>
<path d="M119.15 57.44C120.29 55.38 121.85 53.77 123.82 52.61C125.8 51.46 128 50.88 130.43 50.88C133.39 50.88 135.93 51.58 138.05 52.99C140.17 54.4 141.7 56.38 142.67 58.94H139.55C138.79 57.14 137.63 55.73 136.07 54.72C134.51 53.71 132.63 53.2 130.43 53.2C128.48 53.2 126.73 53.66 125.17 54.57C123.61 55.48 122.39 56.79 121.5 58.5C120.61 60.21 120.17 62.19 120.17 64.45C120.17 66.71 120.61 68.68 121.5 70.38C122.39 72.08 123.61 73.38 125.17 74.29C126.73 75.2 128.48 75.66 130.43 75.66C132.63 75.66 134.51 75.16 136.07 74.16C137.63 73.16 138.79 71.77 139.55 70H142.67C141.71 72.53 140.16 74.5 138.03 75.89C135.9 77.28 133.37 77.98 130.43 77.98C128 77.98 125.79 77.4 123.82 76.25C121.84 75.1 120.29 73.49 119.15 71.44C118.01 69.39 117.44 67.06 117.44 64.45C117.44 61.84 118.01 59.5 119.15 57.44Z" fill="white"/>
<path d="M150.47 51.19V77.75H147.81V51.19H150.47Z" fill="white"/>
<path d="M161.6 76.28C159.6 75.13 158.02 73.52 156.87 71.45C155.72 69.39 155.14 67.05 155.14 64.44C155.14 61.83 155.72 59.49 156.87 57.43C158.02 55.37 159.6 53.76 161.6 52.6C163.6 51.45 165.83 50.87 168.29 50.87C170.75 50.87 173.01 51.45 175.02 52.6C177.02 53.75 178.59 55.36 179.73 57.43C180.87 59.49 181.44 61.83 181.44 64.44C181.44 67.05 180.87 69.39 179.73 71.45C178.59 73.52 177.02 75.12 175.02 76.28C173.02 77.43 170.78 78.01 168.29 78.01C165.8 78.01 163.6 77.44 161.6 76.28ZM173.61 74.33C175.18 73.42 176.42 72.11 177.33 70.4C178.24 68.69 178.7 66.71 178.7 64.45C178.7 62.19 178.24 60.22 177.33 58.52C176.42 56.82 175.18 55.52 173.61 54.61C172.04 53.7 170.27 53.24 168.29 53.24C166.31 53.24 164.54 53.7 162.97 54.61C161.4 55.52 160.16 56.83 159.25 58.52C158.34 60.21 157.88 62.19 157.88 64.45C157.88 66.71 158.34 68.69 159.25 70.4C160.16 72.11 161.4 73.42 162.97 74.33C164.54 75.24 166.31 75.7 168.29 75.7C170.27 75.7 172.04 75.24 173.61 74.33Z" fill="white"/>
<path d="M206.17 77.75H203.51L188.8 55.41V77.75H186.14V51.19H188.8L203.51 73.49V51.19H206.17V77.75Z" fill="white"/>
<path d="M214.72 53.35V63.27H224.79V65.47H214.72V75.54H225.93V77.74H212.06V51.14H225.93V53.34H214.72V53.35Z" fill="white"/>
<path d="M246.53 76.28C244.53 75.13 242.95 73.52 241.8 71.45C240.65 69.39 240.07 67.05 240.07 64.44C240.07 61.83 240.65 59.49 241.8 57.43C242.95 55.37 244.53 53.76 246.53 52.6C248.53 51.45 250.76 50.87 253.22 50.87C255.68 50.87 257.94 51.45 259.95 52.6C261.95 53.75 263.52 55.36 264.66 57.43C265.8 59.49 266.37 61.83 266.37 64.44C266.37 67.05 265.8 69.39 264.66 71.45C263.52 73.52 261.95 75.12 259.95 76.28C257.95 77.43 255.71 78.01 253.22 78.01C250.73 78.01 248.53 77.44 246.53 76.28ZM258.54 74.33C260.11 73.42 261.35 72.11 262.26 70.4C263.17 68.69 263.63 66.71 263.63 64.45C263.63 62.19 263.17 60.22 262.26 58.52C261.35 56.82 260.11 55.52 258.54 54.61C256.97 53.7 255.2 53.24 253.22 53.24C251.24 53.24 249.47 53.7 247.9 54.61C246.33 55.52 245.09 56.83 244.18 58.52C243.27 60.21 242.81 62.19 242.81 64.45C242.81 66.71 243.27 68.69 244.18 70.4C245.09 72.11 246.33 73.42 247.9 74.33C249.47 75.24 251.24 75.7 253.22 75.7C255.2 75.7 256.97 75.24 258.54 74.33Z" fill="white"/>
<path d="M293.61 51.19V71.29C293.61 73.32 292.99 74.94 291.75 76.17C290.51 77.4 288.85 78.01 286.77 78.01C284.69 78.01 282.9 77.36 281.62 76.05C280.34 74.75 279.7 72.98 279.7 70.75H282.4C282.42 72.2 282.79 73.37 283.48 74.29C284.18 75.2 285.27 75.66 286.77 75.66C288.19 75.66 289.24 75.24 289.92 74.41C290.6 73.57 290.95 72.53 290.95 71.29V51.19H293.61Z" fill="white"/>
<path d="M305.39 76.28C303.39 75.13 301.81 73.52 300.66 71.45C299.51 69.39 298.93 67.05 298.93 64.44C298.93 61.83 299.51 59.49 300.66 57.43C301.81 55.37 303.39 53.76 305.39 52.6C307.39 51.45 309.62 50.87 312.08 50.87C314.54 50.87 316.8 51.45 318.81 52.6C320.81 53.75 322.38 55.36 323.52 57.43C324.66 59.5 325.23 61.83 325.23 64.44C325.23 67.05 324.66 69.39 323.52 71.45C322.38 73.52 320.81 75.12 318.81 76.28C316.81 77.43 314.57 78.01 312.08 78.01C309.59 78.01 307.39 77.44 305.39 76.28ZM317.4 74.33C318.97 73.42 320.21 72.11 321.12 70.4C322.03 68.69 322.49 66.71 322.49 64.45C322.49 62.19 322.03 60.22 321.12 58.52C320.21 56.82 318.97 55.52 317.4 54.61C315.83 53.7 314.06 53.24 312.08 53.24C310.1 53.24 308.33 53.7 306.76 54.61C305.19 55.52 303.95 56.83 303.04 58.52C302.13 60.22 301.67 62.19 301.67 64.45C301.67 66.71 302.13 68.69 303.04 70.4C303.95 72.11 305.19 73.42 306.76 74.33C308.33 75.24 310.1 75.7 312.08 75.7C314.06 75.7 315.83 75.24 317.4 74.33Z" fill="white"/>
<path d="M350.84 58.94C350.08 57.19 348.92 55.82 347.36 54.82C345.8 53.82 343.97 53.32 341.87 53.32C339.89 53.32 338.12 53.78 336.55 54.69C334.98 55.6 333.74 56.9 332.83 58.59C331.92 60.27 331.46 62.23 331.46 64.46C331.46 66.69 331.92 68.65 332.83 70.35C333.74 72.05 334.98 73.35 336.55 74.26C338.12 75.17 339.89 75.63 341.87 75.63C343.72 75.63 345.38 75.23 346.87 74.43C348.35 73.63 349.54 72.49 350.44 71.01C351.34 69.53 351.85 67.8 351.98 65.82H340.81V63.65H354.79V65.59C354.66 67.92 354.03 70.03 352.89 71.92C351.75 73.81 350.22 75.3 348.31 76.38C346.4 77.46 344.25 78.01 341.87 78.01C339.49 78.01 337.18 77.44 335.18 76.28C333.18 75.13 331.6 73.52 330.45 71.45C329.3 69.39 328.72 67.05 328.72 64.44C328.72 61.83 329.3 59.49 330.45 57.43C331.6 55.37 333.18 53.76 335.18 52.6C337.18 51.45 339.41 50.87 341.87 50.87C344.71 50.87 347.19 51.58 349.32 53C351.45 54.42 352.99 56.4 353.96 58.93H350.84V58.94Z" fill="white"/>
<path d="M364.74 76.28C362.74 75.13 361.16 73.52 360.01 71.45C358.86 69.39 358.28 67.05 358.28 64.44C358.28 61.83 358.86 59.49 360.01 57.43C361.16 55.37 362.74 53.76 364.74 52.6C366.74 51.45 368.97 50.87 371.43 50.87C373.89 50.87 376.15 51.45 378.16 52.6C380.16 53.75 381.73 55.36 382.87 57.43C384.01 59.49 384.58 61.83 384.58 64.44C384.58 67.05 384.01 69.39 382.87 71.45C381.73 73.52 380.16 75.12 378.16 76.28C376.16 77.43 373.92 78.01 371.43 78.01C368.94 78.01 366.74 77.44 364.74 76.28ZM376.75 74.33C378.32 73.42 379.56 72.11 380.47 70.4C381.38 68.69 381.84 66.71 381.84 64.45C381.84 62.19 381.38 60.22 380.47 58.52C379.56 56.82 378.32 55.52 376.75 54.61C375.18 53.7 373.41 53.24 371.43 53.24C369.45 53.24 367.68 53.7 366.11 54.61C364.54 55.52 363.3 56.83 362.39 58.52C361.48 60.21 361.02 62.19 361.02 64.45C361.02 66.71 361.48 68.69 362.39 70.4C363.3 72.11 364.54 73.42 366.11 74.33C367.68 75.24 369.45 75.7 371.43 75.7C373.41 75.7 375.18 75.24 376.75 74.33Z" fill="white"/>
<path d="M155.78 14.74L153.71 12.5C153.2 12.65 152.64 12.72 152.03 12.72C150.93 12.72 149.92 12.46 149 11.95C148.08 11.43 147.35 10.71 146.81 9.79C146.27 8.87 146 7.83 146 6.67C146 5.51 146.27 4.48 146.81 3.56C147.35 2.64 148.08 1.93 149 1.41C149.92 0.89 150.94 0.639999 152.03 0.639999C153.12 0.639999 154.16 0.9 155.08 1.41C156 1.93 156.73 2.64 157.26 3.56C157.79 4.48 158.06 5.52 158.06 6.67C158.06 7.76 157.82 8.74 157.35 9.62C156.88 10.5 156.23 11.2 155.4 11.74L158.24 14.75H155.77L155.78 14.74ZM148.5 8.97C148.85 9.63 149.32 10.14 149.94 10.5C150.55 10.86 151.25 11.04 152.03 11.04C152.81 11.04 153.51 10.86 154.12 10.5C154.73 10.14 155.21 9.63 155.56 8.97C155.91 8.31 156.08 7.54 156.08 6.67C156.08 5.8 155.91 5.03 155.56 4.38C155.21 3.73 154.74 3.22 154.12 2.87C153.51 2.52 152.81 2.34 152.03 2.34C151.25 2.34 150.55 2.52 149.94 2.87C149.33 3.22 148.85 3.73 148.5 4.38C148.15 5.03 147.98 5.8 147.98 6.67C147.98 7.54 148.15 8.31 148.5 8.97Z" fill="#A8A8A8"/>
<path d="M168.5 3.23V12.6H166.56V11.49C166.25 11.88 165.85 12.18 165.36 12.4C164.87 12.62 164.34 12.73 163.79 12.73C163.05 12.73 162.39 12.58 161.81 12.27C161.23 11.96 160.77 11.51 160.43 10.91C160.09 10.31 159.93 9.58 159.93 8.73V3.22H161.85V8.44C161.85 9.28 162.06 9.92 162.48 10.37C162.9 10.82 163.47 11.04 164.2 11.04C164.93 11.04 165.5 10.82 165.93 10.37C166.35 9.92 166.57 9.28 166.57 8.44V3.22H168.51L168.5 3.23Z" fill="#A8A8A8"/>
<path d="M179.56 8.64H172.4C172.46 9.39 172.73 9.99001 173.23 10.44C173.73 10.89 174.34 11.12 175.07 11.12C176.11 11.12 176.85 10.68 177.28 9.81001H179.37C179.09 10.67 178.57 11.38 177.83 11.93C177.09 12.48 176.17 12.76 175.07 12.76C174.17 12.76 173.37 12.56 172.66 12.16C171.95 11.76 171.4 11.19 170.99 10.46C170.59 9.73001 170.39 8.88001 170.39 7.92001C170.39 6.96001 170.59 6.11 170.98 5.38C171.37 4.65 171.92 4.09001 172.63 3.69001C173.34 3.29001 174.15 3.10001 175.07 3.10001C175.99 3.10001 176.74 3.29 177.43 3.68C178.12 4.07 178.66 4.61001 179.04 5.30001C179.43 6.00001 179.62 6.80001 179.62 7.71001C179.62 8.06001 179.6 8.38 179.55 8.66L179.56 8.64ZM177.61 7.08001C177.6 6.37001 177.34 5.79 176.85 5.36C176.35 4.93 175.73 4.71001 175 4.71001C174.33 4.71001 173.76 4.92001 173.28 5.35001C172.8 5.78001 172.52 6.35001 172.43 7.08001H177.61Z" fill="#A8A8A8"/>
<path d="M184.82 3.51C185.39 3.22 186.03 3.08 186.73 3.08C187.56 3.08 188.31 3.28 188.97 3.67C189.63 4.06 190.17 4.63 190.55 5.36C190.94 6.09 191.13 6.93 191.13 7.87C191.13 8.81 190.94 9.65 190.55 10.39C190.16 11.13 189.63 11.71 188.96 12.12C188.29 12.53 187.54 12.74 186.72 12.74C185.99 12.74 185.35 12.6 184.79 12.31C184.23 12.03 183.78 11.66 183.46 11.22V12.58H181.52V0H183.46V4.61C183.79 4.16 184.24 3.78 184.81 3.5L184.82 3.51ZM188.77 6.2C188.5 5.73 188.15 5.37 187.72 5.13C187.28 4.89 186.82 4.76 186.32 4.76C185.82 4.76 185.37 4.88 184.93 5.13C184.49 5.38 184.14 5.74 183.88 6.22C183.61 6.7 183.48 7.26 183.48 7.9C183.48 8.54 183.61 9.11 183.88 9.59C184.15 10.07 184.5 10.44 184.93 10.69C185.37 10.94 185.83 11.06 186.32 11.06C186.81 11.06 187.29 10.93 187.72 10.68C188.16 10.42 188.51 10.05 188.77 9.57C189.04 9.08 189.17 8.52 189.17 7.87C189.17 7.22 189.04 6.67 188.77 6.2Z" fill="#A8A8A8"/>
<path d="M196.13 3.48C196.6 3.21 197.16 3.08 197.8 3.08V5.09H197.31C196.55 5.09 195.98 5.28 195.58 5.67C195.19 6.05 194.99 6.72 194.99 7.68V12.61H193.05V3.24H194.99V4.6C195.27 4.12 195.65 3.75 196.12 3.49L196.13 3.48Z" fill="#A8A8A8"/>
<path d="M199.53 5.38C199.92 4.65 200.45 4.09 201.13 3.69C201.8 3.29 202.55 3.09 203.37 3.09C204.11 3.09 204.75 3.23 205.3 3.52C205.85 3.81 206.29 4.17 206.62 4.6V3.24H208.58V12.61H206.62V11.22C206.29 11.66 205.84 12.03 205.28 12.32C204.72 12.61 204.07 12.76 203.34 12.76C202.54 12.76 201.8 12.55 201.13 12.14C200.46 11.73 199.93 11.15 199.54 10.41C199.15 9.67 198.95 8.83 198.95 7.89C198.95 6.95 199.15 6.12 199.54 5.39L199.53 5.38ZM206.21 6.23C205.94 5.75 205.6 5.39 205.16 5.14C204.73 4.89 204.26 4.77 203.77 4.77C203.28 4.77 202.81 4.89 202.38 5.14C201.95 5.38 201.6 5.74 201.33 6.21C201.06 6.68 200.93 7.24 200.93 7.88C200.93 8.52 201.06 9.09 201.33 9.58C201.6 10.07 201.95 10.44 202.38 10.69C202.82 10.94 203.28 11.07 203.77 11.07C204.26 11.07 204.73 10.95 205.16 10.7C205.59 10.45 205.94 10.09 206.21 9.6C206.48 9.12 206.61 8.56 206.61 7.91C206.61 7.26 206.48 6.7 206.21 6.23Z" fill="#A8A8A8"/>
<path d="M215.7 3.56C216.24 2.64 216.97 1.93 217.89 1.41C218.81 0.89 219.83 0.639999 220.92 0.639999C222.18 0.639999 223.3 0.95 224.28 1.57C225.26 2.19 225.97 3.06 226.41 4.2H224.08C223.77 3.58 223.35 3.11 222.81 2.81C222.27 2.5 221.64 2.35 220.92 2.35C220.14 2.35 219.44 2.53 218.83 2.88C218.22 3.23 217.74 3.74 217.39 4.39C217.04 5.04 216.87 5.81 216.87 6.68C216.87 7.55 217.04 8.32 217.39 8.97C217.74 9.62 218.21 10.13 218.83 10.49C219.44 10.85 220.14 11.03 220.92 11.03C221.63 11.03 222.26 10.88 222.81 10.57C223.36 10.26 223.78 9.8 224.08 9.18H226.41C225.97 10.31 225.26 11.19 224.28 11.8C223.3 12.41 222.18 12.72 220.92 12.72C219.81 12.72 218.8 12.46 217.88 11.95C216.96 11.43 216.23 10.72 215.7 9.8C215.16 8.88 214.89 7.84 214.89 6.69C214.89 5.54 215.16 4.5 215.7 3.58V3.56Z" fill="#A8A8A8"/>
<path d="M228.62 5.38C229.01 4.65 229.54 4.09 230.22 3.69C230.89 3.29 231.64 3.09 232.46 3.09C233.2 3.09 233.84 3.23 234.39 3.52C234.94 3.81 235.38 4.17 235.71 4.6V3.24H237.67V12.61H235.71V11.22C235.38 11.66 234.93 12.03 234.37 12.32C233.81 12.61 233.16 12.76 232.43 12.76C231.63 12.76 230.89 12.55 230.22 12.14C229.55 11.73 229.02 11.15 228.63 10.41C228.24 9.67 228.04 8.83 228.04 7.89C228.04 6.95 228.24 6.12 228.63 5.39L228.62 5.38ZM235.3 6.23C235.03 5.75 234.69 5.39 234.25 5.14C233.82 4.89 233.35 4.77 232.86 4.77C232.37 4.77 231.9 4.89 231.47 5.14C231.04 5.38 230.69 5.74 230.42 6.21C230.15 6.68 230.02 7.24 230.02 7.88C230.02 8.52 230.15 9.09 230.42 9.58C230.69 10.07 231.04 10.44 231.47 10.69C231.91 10.94 232.37 11.07 232.86 11.07C233.35 11.07 233.82 10.95 234.25 10.7C234.68 10.45 235.03 10.09 235.3 9.6C235.57 9.12 235.7 8.56 235.7 7.91C235.7 7.26 235.57 6.7 235.3 6.23Z" fill="#A8A8A8"/>
<path d="M243.49 3.51C244.06 3.22 244.7 3.08 245.4 3.08C246.23 3.08 246.98 3.28 247.64 3.67C248.3 4.06 248.84 4.63 249.22 5.36C249.61 6.09 249.8 6.93 249.8 7.87C249.8 8.81 249.61 9.65 249.22 10.39C248.83 11.13 248.3 11.71 247.63 12.12C246.96 12.53 246.21 12.74 245.39 12.74C244.66 12.74 244.02 12.6 243.46 12.31C242.9 12.03 242.45 11.66 242.13 11.22V12.58H240.19V0H242.13V4.61C242.46 4.16 242.91 3.78 243.48 3.5L243.49 3.51ZM247.43 6.2C247.16 5.73 246.81 5.37 246.38 5.13C245.94 4.89 245.48 4.76 244.98 4.76C244.48 4.76 244.03 4.88 243.59 5.13C243.15 5.38 242.8 5.74 242.54 6.22C242.27 6.7 242.14 7.26 242.14 7.9C242.14 8.54 242.27 9.11 242.54 9.59C242.81 10.07 243.16 10.44 243.59 10.69C244.03 10.94 244.49 11.06 244.98 11.06C245.47 11.06 245.95 10.93 246.38 10.68C246.82 10.42 247.17 10.05 247.43 9.57C247.7 9.08 247.83 8.52 247.83 7.87C247.83 7.22 247.7 6.67 247.43 6.2Z" fill="#A8A8A8"/>
<path d="M260.24 8.64H253.08C253.14 9.39 253.41 9.99001 253.91 10.44C254.41 10.89 255.02 11.12 255.75 11.12C256.79 11.12 257.53 10.68 257.96 9.81001H260.05C259.77 10.67 259.25 11.38 258.51 11.93C257.77 12.48 256.85 12.76 255.75 12.76C254.85 12.76 254.05 12.56 253.34 12.16C252.63 11.76 252.08 11.19 251.67 10.46C251.27 9.73001 251.07 8.88001 251.07 7.92001C251.07 6.96001 251.27 6.11 251.66 5.38C252.05 4.65 252.6 4.09001 253.31 3.69001C254.02 3.29001 254.83 3.10001 255.75 3.10001C256.67 3.10001 257.42 3.29 258.11 3.68C258.8 4.07 259.34 4.61001 259.72 5.30001C260.11 6.00001 260.3 6.80001 260.3 7.71001C260.3 8.06001 260.28 8.38 260.23 8.66L260.24 8.64ZM258.29 7.08001C258.28 6.37001 258.02 5.79 257.53 5.36C257.03 4.93 256.41 4.71001 255.68 4.71001C255.01 4.71001 254.44 4.92001 253.96 5.35001C253.48 5.78001 253.2 6.35001 253.11 7.08001H258.29Z" fill="#A8A8A8"/>
<path d="M268.39 9.64H270.48C270.23 10.5 269.79 11.21 269.15 11.76C268.51 12.31 267.71 12.63 266.74 12.72V13.42C267.4 13.42 267.93 13.58 268.34 13.89C268.75 14.2 268.95 14.64 268.95 15.21C268.95 15.78 268.75 16.23 268.34 16.56C267.93 16.89 267.42 17.06 266.79 17.06H264.55V15.84H266.4C266.72 15.84 266.96 15.79 267.11 15.7C267.26 15.61 267.35 15.45 267.35 15.21C267.35 14.97 267.27 14.81 267.11 14.72C266.95 14.63 266.71 14.58 266.4 14.58H265.46V12.71C264.69 12.62 264.01 12.36 263.42 11.94C262.83 11.52 262.37 10.96 262.05 10.27C261.73 9.58 261.57 8.80001 261.57 7.92001C261.57 6.96001 261.77 6.11 262.16 5.38C262.55 4.65 263.09 4.09001 263.78 3.69001C264.47 3.29001 265.26 3.10001 266.16 3.10001C267.29 3.10001 268.23 3.37 268.97 3.91C269.71 4.45 270.21 5.22001 270.47 6.21001H268.38C268.21 5.75001 267.94 5.38001 267.56 5.12001C267.19 4.86001 266.72 4.73 266.15 4.73C265.36 4.73 264.72 5.01 264.25 5.57C263.78 6.13 263.54 6.92001 263.54 7.92001C263.54 8.92001 263.78 9.72001 264.25 10.28C264.72 10.85 265.35 11.13 266.15 11.13C267.27 11.13 268.01 10.64 268.38 9.65001L268.39 9.64Z" fill="#A8A8A8"/>
<path d="M272.36 5.38C272.75 4.65 273.28 4.09 273.96 3.69C274.63 3.29 275.38 3.09 276.2 3.09C276.94 3.09 277.58 3.23 278.13 3.52C278.68 3.81 279.12 4.17 279.45 4.6V3.24H281.41V12.61H279.45V11.22C279.12 11.66 278.67 12.03 278.11 12.32C277.55 12.61 276.9 12.76 276.17 12.76C275.37 12.76 274.63 12.55 273.96 12.14C273.29 11.73 272.76 11.15 272.37 10.41C271.98 9.67 271.78 8.83 271.78 7.89C271.78 6.95 271.98 6.12 272.37 5.39L272.36 5.38ZM279.04 6.23C278.77 5.75 278.43 5.39 277.99 5.14C277.56 4.89 277.09 4.77 276.6 4.77C276.11 4.77 275.64 4.89 275.21 5.14C274.78 5.38 274.43 5.74 274.16 6.21C273.89 6.68 273.76 7.24 273.76 7.88C273.76 8.52 273.89 9.09 274.16 9.58C274.43 10.07 274.78 10.44 275.21 10.69C275.65 10.94 276.11 11.07 276.6 11.07C277.09 11.07 277.56 10.95 277.99 10.7C278.42 10.45 278.77 10.09 279.04 9.6C279.31 9.12 279.44 8.56 279.44 7.91C279.44 7.26 279.31 6.7 279.04 6.23Z" fill="#A8A8A8"/>
</svg>
