<svg width="800" height="157" viewBox="0 0 800 157" fill="none" xmlns="http://www.w3.org/2000/svg">
<path d="M75.8097 108.13C72.9797 113.11 68.7997 117.06 63.2697 119.98C57.7397 122.9 51.0497 124.36 43.1997 124.36H31.1397V155.19H0.719727V58.19H43.1897C55.0597 58.19 64.1697 61.2 70.5197 67.23C76.8697 73.26 80.0397 81.34 80.0397 91.48C80.0397 97.6 78.6197 103.15 75.7897 108.13H75.8097ZM49.2297 91.49C49.2297 85.55 46.0797 82.58 39.7797 82.58H31.1497V100.39H39.7797C46.0797 100.39 49.2297 97.42 49.2297 91.48V91.49Z" fill="#B58A90"/>
<path d="M151.84 140.54H119.51L114.72 155.2H82.7998L118.29 58.2H153.36L188.71 155.2H156.65L151.86 140.54H151.84ZM144.45 117.66L135.68 90.67L126.91 117.66H144.45Z" fill="#B58A90"/>
<path d="M244.32 155.2L226.1 120.4H225.96V155.2H195.54V58.2H240.75C248.6 58.2 255.32 59.59 260.89 62.38C266.46 65.17 270.64 68.96 273.43 73.75C276.22 78.55 277.61 83.96 277.61 89.99C277.61 96.48 275.81 102.23 272.2 107.25C268.59 112.27 263.41 115.88 256.65 118.07L277.75 155.2H244.32ZM225.96 100.12H238.02C240.94 100.12 243.13 99.46 244.6 98.13C246.06 96.81 246.79 94.73 246.79 91.9C246.79 89.34 246.04 87.33 244.53 85.87C243.02 84.41 240.85 83.68 238.02 83.68H225.96V100.12Z" fill="#B58A90"/>
<path d="M349.55 140.54H317.22L312.43 155.2H280.51L316 58.2H351.07L386.42 155.2H354.36L349.57 140.54H349.55ZM342.15 117.66L333.38 90.67L324.61 117.66H342.15Z" fill="#B58A90"/>
<path d="M471.819 113.89C475.059 118.14 476.679 123.05 476.679 128.62C476.679 137.11 473.869 143.67 468.249 148.28C462.629 152.89 454.569 155.2 444.069 155.2H393.239V58.2H442.699C452.559 58.2 460.329 60.35 465.989 64.64C471.649 68.93 474.479 75.19 474.479 83.41C474.479 89.07 472.989 93.85 470.029 97.73C467.059 101.61 463.109 104.19 458.179 105.47C464.019 106.84 468.569 109.65 471.809 113.9L471.819 113.89ZM423.669 96.01H435.449C438.189 96.01 440.219 95.46 441.549 94.37C442.869 93.27 443.539 91.58 443.539 89.3C443.539 87.02 442.879 85.17 441.549 84.02C440.219 82.88 438.189 82.31 435.449 82.31H423.669V96.01ZM443.599 129.23C444.919 128.18 445.589 126.47 445.589 124.09C445.589 119.43 442.889 117.1 437.509 117.1H423.669V130.8H437.509C440.249 130.8 442.279 130.28 443.609 129.22L443.599 129.23Z" fill="#B58A90"/>
<path d="M517.38 82.44V94.36H547.52V117.24H517.38V130.94H551.63V155.19H486.96V58.19H551.63V82.44H517.38Z" fill="#B58A90"/>
<path d="M656.17 155.2H625.75L593.55 106.43V155.2H563.13V58.2H593.55L625.75 107.8V58.2H656.17V155.2Z" fill="#B58A90"/>
<path d="M679.11 148C671.57 142.57 667.49 134.6 666.85 124.09H699.18C699.64 129.66 702.1 132.45 706.58 132.45C708.22 132.45 709.62 132.06 710.76 131.28C711.9 130.51 712.47 129.29 712.47 127.65C712.47 125.37 711.24 123.52 708.77 122.1C706.3 120.68 702.47 119.06 697.26 117.24C691.05 115.05 685.91 112.9 681.85 110.8C677.78 108.7 674.29 105.64 671.37 101.62C668.45 97.6 667.03 92.44 667.12 86.14C667.12 79.84 668.74 74.47 671.98 70.04C675.22 65.61 679.65 62.25 685.27 59.97C690.89 57.69 697.21 56.55 704.25 56.55C716.12 56.55 725.55 59.29 732.54 64.77C739.53 70.25 743.2 77.97 743.57 87.92H710.82C710.73 85.18 710.04 83.22 708.77 82.03C707.49 80.84 705.94 80.25 704.11 80.25C702.83 80.25 701.78 80.68 700.96 81.55C700.14 82.42 699.73 83.63 699.73 85.18C699.73 87.37 700.94 89.18 703.36 90.59C705.78 92.01 709.64 93.72 714.94 95.73C721.06 98.01 726.11 100.21 730.08 102.31C734.05 104.41 737.5 107.33 740.42 111.08C743.34 114.83 744.8 119.53 744.8 125.19C744.8 131.13 743.34 136.45 740.42 141.15C737.5 145.86 733.25 149.53 727.68 152.18C722.11 154.83 715.49 156.15 707.81 156.15C696.21 156.15 686.64 153.43 679.11 148Z" fill="#B58A90"/>
<path d="M767.14 152.04C763.94 149.21 762.35 145.65 762.35 141.35C762.35 137.05 763.95 133.34 767.14 130.46C770.34 127.58 774.58 126.14 779.88 126.14C785.18 126.14 789.29 127.58 792.49 130.46C795.69 133.34 797.28 136.97 797.28 141.35C797.28 145.73 795.68 149.21 792.49 152.04C789.29 154.87 785.09 156.29 779.88 156.29C774.67 156.29 770.34 154.87 767.14 152.04ZM796.46 51.75L792.9 116.69H766.87L763.31 51.75H796.47H796.46Z" fill="#B58A90"/>
<path d="M77.8097 91.13C74.9797 96.11 70.7997 100.06 65.2697 102.98C59.7397 105.9 53.0497 107.36 45.1997 107.36H33.1397V138.19H2.71973V41.19H45.1897C57.0597 41.19 66.1697 44.2 72.5197 50.23C78.8697 56.26 82.0397 64.34 82.0397 74.48C82.0397 80.6 80.6197 86.15 77.7897 91.13H77.8097ZM51.2297 74.49C51.2297 68.55 48.0797 65.58 41.7797 65.58H33.1497V83.39H41.7797C48.0797 83.39 51.2297 80.42 51.2297 74.48V74.49Z" fill="#EEC7A1"/>
<path d="M153.84 123.54H121.51L116.72 138.2H84.7998L120.29 41.2H155.36L190.71 138.2H158.65L153.86 123.54H153.84ZM146.45 100.66L137.68 73.67L128.91 100.66H146.45Z" fill="#EEC7A1"/>
<path d="M246.32 138.2L228.1 103.4H227.96V138.2H197.54V41.2H242.75C250.6 41.2 257.32 42.59 262.89 45.38C268.46 48.17 272.64 51.96 275.43 56.75C278.22 61.55 279.61 66.96 279.61 72.99C279.61 79.48 277.81 85.23 274.2 90.25C270.59 95.27 265.41 98.88 258.65 101.07L279.75 138.2H246.32ZM227.96 83.12H240.02C242.94 83.12 245.13 82.46 246.6 81.13C248.06 79.81 248.79 77.73 248.79 74.9C248.79 72.34 248.04 70.33 246.53 68.87C245.02 67.41 242.85 66.68 240.02 66.68H227.96V83.12Z" fill="#EEC7A1"/>
<path d="M351.55 123.54H319.22L314.43 138.2H282.51L318 41.2H353.07L388.42 138.2H356.36L351.57 123.54H351.55ZM344.15 100.66L335.38 73.67L326.61 100.66H344.15Z" fill="#EEC7A1"/>
<path d="M473.819 96.89C477.059 101.14 478.679 106.05 478.679 111.62C478.679 120.11 475.869 126.67 470.249 131.28C464.629 135.89 456.569 138.2 446.069 138.2H395.239V41.2H444.699C454.559 41.2 462.329 43.35 467.989 47.64C473.649 51.93 476.479 58.19 476.479 66.41C476.479 72.07 474.989 76.85 472.029 80.73C469.059 84.61 465.109 87.19 460.179 88.47C466.019 89.84 470.569 92.65 473.809 96.9L473.819 96.89ZM425.669 79.01H437.449C440.189 79.01 442.219 78.46 443.549 77.37C444.869 76.27 445.539 74.58 445.539 72.3C445.539 70.02 444.879 68.17 443.549 67.02C442.219 65.88 440.189 65.31 437.449 65.31H425.669V79.01ZM445.599 112.23C446.919 111.18 447.589 109.47 447.589 107.09C447.589 102.43 444.889 100.1 439.509 100.1H425.669V113.8H439.509C442.249 113.8 444.279 113.28 445.609 112.22L445.599 112.23Z" fill="#EEC7A1"/>
<path d="M519.38 65.44V77.36H549.52V100.24H519.38V113.94H553.63V138.19H488.96V41.19H553.63V65.44H519.38ZM538.29 22.7L502.81 35.58V15.3L538.29 0.22998V22.7Z" fill="#EEC7A1"/>
<path d="M658.17 138.2H627.75L595.55 89.43V138.2H565.13V41.2H595.55L627.75 90.8V41.2H658.17V138.2Z" fill="#EEC7A1"/>
<path d="M681.11 131C673.57 125.57 669.49 117.6 668.85 107.09H701.18C701.64 112.66 704.1 115.45 708.58 115.45C710.22 115.45 711.62 115.06 712.76 114.28C713.9 113.51 714.47 112.29 714.47 110.65C714.47 108.37 713.24 106.52 710.77 105.1C708.3 103.68 704.47 102.06 699.26 100.24C693.05 98.05 687.91 95.9 683.85 93.8C679.78 91.7 676.29 88.64 673.37 84.62C670.45 80.6 669.03 75.44 669.12 69.14C669.12 62.84 670.74 57.47 673.98 53.04C677.22 48.61 681.65 45.25 687.27 42.97C692.89 40.69 699.21 39.55 706.25 39.55C718.12 39.55 727.55 42.29 734.54 47.77C741.53 53.25 745.2 60.97 745.57 70.92H712.82C712.73 68.18 712.04 66.22 710.77 65.03C709.49 63.84 707.94 63.25 706.11 63.25C704.83 63.25 703.78 63.68 702.96 64.55C702.14 65.42 701.73 66.63 701.73 68.18C701.73 70.37 702.94 72.18 705.36 73.59C707.78 75.01 711.64 76.72 716.94 78.73C723.06 81.01 728.11 83.21 732.08 85.31C736.05 87.41 739.5 90.33 742.42 94.08C745.34 97.83 746.8 102.53 746.8 108.19C746.8 114.13 745.34 119.45 742.42 124.15C739.5 128.86 735.25 132.53 729.68 135.18C724.11 137.83 717.49 139.15 709.81 139.15C698.21 139.15 688.64 136.43 681.11 131Z" fill="#EEC7A1"/>
<path d="M769.14 135.04C765.94 132.21 764.35 128.65 764.35 124.35C764.35 120.05 765.95 116.34 769.14 113.46C772.34 110.58 776.58 109.14 781.88 109.14C787.18 109.14 791.29 110.58 794.49 113.46C797.69 116.34 799.28 119.97 799.28 124.35C799.28 128.73 797.68 132.21 794.49 135.04C791.29 137.87 787.09 139.29 781.88 139.29C776.67 139.29 772.34 137.87 769.14 135.04ZM798.46 34.75L794.9 99.69H768.87L765.31 34.75H798.47H798.46Z" fill="#EEC7A1"/>
</svg>
