<svg width="117" height="109" viewBox="0 0 117 109" fill="none" xmlns="http://www.w3.org/2000/svg">
<path d="M96.6927 44.4001C107.849 44.4001 116.893 35.3489 116.893 24.1836C116.893 13.0184 107.849 3.96716 96.6927 3.96716C85.5366 3.96716 76.4927 13.0184 76.4927 24.1836C76.4927 35.3489 85.5366 44.4001 96.6927 44.4001Z" fill="#7D5436"/>
<path d="M20.62 44.4001C31.7762 44.4001 40.8201 35.3489 40.8201 24.1836C40.8201 13.0184 31.7762 3.96716 20.62 3.96716C9.4638 3.96716 0.419922 13.0184 0.419922 24.1836C0.419922 35.3489 9.4638 44.4001 20.62 44.4001Z" fill="#7D5436"/>
<path d="M96.6925 38.3781C104.526 38.3781 110.876 32.023 110.876 24.1836C110.876 16.3442 104.526 9.98907 96.6925 9.98907C88.8595 9.98907 82.5095 16.3442 82.5095 24.1836C82.5095 32.023 88.8595 38.3781 96.6925 38.3781Z" fill="#DB9861"/>
<path d="M20.62 38.3781C28.4531 38.3781 34.8031 32.023 34.8031 24.1836C34.8031 16.3442 28.4531 9.98907 20.62 9.98907C12.787 9.98907 6.43701 16.3442 6.43701 24.1836C6.43701 32.023 12.787 38.3781 20.62 38.3781Z" fill="#DB9861"/>
<path d="M59.5157 108.491C88.3557 108.491 111.735 85.0922 111.735 56.2288C111.735 27.3655 88.3557 3.96716 59.5157 3.96716C30.6758 3.96716 7.29639 27.3655 7.29639 56.2288C7.29639 85.0922 30.6758 108.491 59.5157 108.491Z" fill="#7D5436"/>
<path d="M59.7309 99.4577C68.2761 99.4577 75.2033 92.5248 75.2033 83.9727C75.2033 75.4206 68.2761 68.4878 59.7309 68.4878C51.1858 68.4878 44.2585 75.4206 44.2585 83.9727C44.2585 92.5248 51.1858 99.4577 59.7309 99.4577Z" fill="#DB9861"/>
<path d="M87.6672 80.5317C93.8387 80.5317 98.8417 75.7172 98.8417 69.7783C98.8417 63.8393 93.8387 59.0248 87.6672 59.0248C81.4957 59.0248 76.4927 63.8393 76.4927 69.7783C76.4927 75.7172 81.4957 80.5317 87.6672 80.5317Z" fill="black"/>
<path d="M32.654 80.5317C38.8255 80.5317 43.8285 75.7172 43.8285 69.7783C43.8285 63.8393 38.8255 59.0248 32.654 59.0248C26.4825 59.0248 21.4795 63.8393 21.4795 69.7783C21.4795 75.7172 26.4825 80.5317 32.654 80.5317Z" fill="black"/>
<path d="M63.6677 91.5001C63.5302 91.5001 63.3926 91.4958 63.2551 91.4829C61.2566 91.3323 59.6707 90.0462 58.8541 88.8935C58.5102 88.4074 58.6263 87.7364 59.1076 87.3923C59.589 87.0482 60.2638 87.16 60.6076 87.6461C61.119 88.3644 62.1591 89.2376 63.4184 89.3365C64.6218 89.4268 65.8725 88.816 67.1232 87.5213C67.5358 87.0955 68.2149 87.0826 68.6446 87.4955C69.0701 87.9084 69.083 88.5881 68.6704 89.0182C67.0759 90.6656 65.3954 91.4958 63.6677 91.4958V91.5001Z" fill="black"/>
<path d="M55.5017 91.5001C55.3641 91.5001 55.2266 91.4958 55.0891 91.4829C53.0906 91.3323 51.5046 90.0462 50.688 88.8935C50.3442 88.4074 50.4603 87.7364 50.9416 87.3923C51.423 87.0482 52.0977 87.16 52.4416 87.6461C52.953 88.3644 53.9931 89.2376 55.2524 89.3365C56.4558 89.4268 57.7065 88.816 58.9572 87.5213C59.3698 87.0955 60.0488 87.0826 60.4786 87.4955C60.9041 87.9084 60.917 88.5881 60.5044 89.0182C58.9099 90.6656 57.2294 91.4958 55.5017 91.4958V91.5001Z" fill="black"/>
<path d="M32.6541 76.6604C36.6893 76.6604 39.9605 73.5791 39.9605 69.7782C39.9605 65.9773 36.6893 62.896 32.6541 62.896C28.6188 62.896 25.3477 65.9773 25.3477 69.7782C25.3477 73.5791 28.6188 76.6604 32.6541 76.6604Z" fill="black"/>
<path d="M34.5881 67.6276C35.6562 67.6276 36.5222 66.761 36.5222 65.692C36.5222 64.623 35.6562 63.7563 34.5881 63.7563C33.52 63.7563 32.6541 64.623 32.6541 65.692C32.6541 66.761 33.52 67.6276 34.5881 67.6276Z" fill="white"/>
<path d="M89.601 67.6276C90.6692 67.6276 91.5351 66.761 91.5351 65.692C91.5351 64.623 90.6692 63.7563 89.601 63.7563C88.5329 63.7563 87.667 64.623 87.667 65.692C87.667 66.761 88.5329 67.6276 89.601 67.6276Z" fill="white"/>
<path d="M66.1776 78.596C66.1776 81.0908 63.2894 86.1234 59.7308 86.1234C56.1721 86.1234 53.2839 81.0908 53.2839 78.596C53.2839 76.1012 56.1721 74.0796 59.7308 74.0796C63.2894 74.0796 66.1776 76.1012 66.1776 78.596Z" fill="black"/>
<path d="M42.4488 4.93071C41.6323 5.87701 38.6839 8.75033 39.3071 10.3074C38.9418 10.6042 38.6409 10.9268 38.5163 11.1806C37.545 13.1506 39.3329 14.1098 40.777 14.4798C42.8657 15.0174 45.3069 14.4927 47.4086 14.4927H58.0029C60.1561 14.4927 62.2105 14.2002 64.3466 14.0496C66.7233 13.8819 69.1086 14.127 71.4467 13.4689C73.2948 12.9485 75.9337 12.1355 76.4365 9.64932C76.6257 8.71592 76.2345 8.15244 76.0755 7.32227C75.9165 6.48781 75.6715 5.45119 75.6715 4.57801C75.6715 3.6231 75.9423 2.88327 74.9839 2.88327C73.5441 2.88327 72.1515 3.72634 70.8665 4.36294C70.7161 4.44036 69.6803 5.11137 69.8737 4.93071C70.1659 4.65972 70.3636 4.19947 70.6688 3.90698C72.4094 2.25525 70.4281 2.74992 69.3364 2.93488C68.3092 3.10693 67.3594 3.49836 66.517 4.19948C65.954 4.66833 65.8723 4.65113 66.2334 3.97151C66.4783 3.51127 67.6517 1.04227 66.8222 1.46811C66.4783 1.64447 66.0442 1.4337 65.6875 1.57134C64.7119 1.93265 63.6847 2.3843 62.7392 2.83594C62.4684 2.96498 60.4914 4.30271 60.3581 4.11345C60.2292 3.92849 60.6762 2.98219 60.7278 2.77143C61.1404 1.22293 61.3037 1.26594 60.0272 1.53263C58.4972 1.85523 56.5846 3.27469 55.321 4.2511C55.1491 4.38444 53.2752 5.73077 53.2666 5.70497C53.1678 5.42538 53.6534 4.73715 53.7566 4.46617C54.1305 3.47685 55.5316 2.0875 54.195 2.20364C52.7939 2.32408 51.3498 3.08112 50.1077 3.79945C49.7982 3.9801 49.0633 4.83608 48.7753 4.83608C48.367 4.83608 48.5604 3.67042 48.4917 3.39513C48.2725 2.54346 48.5089 1.48961 47.5977 2.25526C46.635 3.06391 45.6938 3.86398 44.8471 4.8834C44.2411 5.61463 43.764 6.4405 43.274 5.16299C43.0978 4.70274 43.5792 4.38874 43.5362 3.95C43.5233 3.80375 42.466 4.90921 42.4445 4.93502L42.4488 4.93071Z" fill="#7D5436"/>
<path d="M42.9905 15.3659C42.1868 15.3659 41.3874 15.3013 40.6181 15.1035C39.7972 14.8927 38.3402 14.3636 37.803 13.1851C37.4849 12.4925 37.5322 11.7226 37.9405 10.8924C38.0609 10.6472 38.2929 10.3591 38.5895 10.0795C38.4004 8.40623 40.386 6.23834 41.5464 4.97373C41.7141 4.78877 41.8559 4.63393 41.9633 4.50919C43.1582 3.13275 43.502 3.24458 43.7341 3.3177L44.1381 3.44675L44.1854 3.88118C44.2197 4.2597 44.0779 4.55219 43.9705 4.76726C43.9404 4.83178 43.8931 4.92641 43.8888 4.95652C43.8974 4.97803 43.906 4.99524 43.9146 5.01244C43.9962 4.91781 44.0908 4.80169 44.1596 4.71136C44.224 4.62963 44.2928 4.5436 44.3616 4.46187C45.2641 3.37362 46.2913 2.51335 47.1939 1.75201C47.3787 1.59716 47.8729 1.17992 48.4059 1.39499C48.9259 1.60145 48.9861 2.15634 49.042 2.6424C49.0635 2.84026 49.0849 3.04672 49.1322 3.22307C49.1709 3.37362 49.1709 3.54568 49.1666 3.75645C49.1666 3.75645 49.1752 3.74785 49.1795 3.74355C49.4159 3.52418 49.6179 3.33491 49.8027 3.22738C51.1737 2.43162 52.6522 1.67889 54.1564 1.54984C54.7023 1.50253 55.0848 1.64877 55.2911 1.98858C55.622 2.53055 55.2739 3.13705 54.8785 3.78226C54.9086 3.76075 54.9301 3.74354 54.943 3.73494C56.5246 2.51335 58.3512 1.22293 59.9113 0.896028L60.0875 0.857317C60.7193 0.723975 61.1362 0.633645 61.4715 0.990659C61.8067 1.34767 61.6863 1.77782 61.5058 2.42733C61.4672 2.56927 61.4199 2.73272 61.3683 2.92198C61.566 2.80155 61.7508 2.6854 61.8755 2.60798C62.215 2.39721 62.3697 2.29829 62.4729 2.25097C63.5258 1.74771 64.5659 1.30036 65.4771 0.964851C65.7779 0.853016 66.0616 0.874526 66.2851 0.88743C66.3753 0.891731 66.5086 0.904635 66.5473 0.88743C67.0931 0.607841 67.4455 0.896033 67.5401 0.994964C67.669 1.12401 67.9999 1.45951 67.4842 2.83595C68.03 2.58217 68.6145 2.40151 69.2463 2.29828L69.5558 2.24236C70.5916 2.0531 71.5715 1.87675 71.9282 2.58217C72.0099 2.74562 72.0314 2.90908 72.0142 3.06823C72.9425 2.62519 73.9482 2.23807 75.0012 2.23807C75.4482 2.23807 75.7963 2.3671 76.0327 2.61658C76.4109 3.0166 76.3808 3.56288 76.3507 4.08765C76.3421 4.2382 76.3335 4.40596 76.3335 4.57371C76.3335 5.23612 76.4969 6.04048 76.6387 6.7502L76.729 7.19324C76.7719 7.41692 76.8364 7.62339 76.9052 7.84276C77.0685 8.36752 77.2533 8.96541 77.09 9.76976C76.4926 12.7162 73.3379 13.6023 71.6403 14.0797C69.9512 14.5529 68.2535 14.583 66.6074 14.6088C65.8854 14.6217 65.1375 14.6346 64.4112 14.6819C63.7064 14.7336 63.0101 14.7981 62.3138 14.8626C60.9256 14.9916 59.4858 15.1293 58.0203 15.1293H47.426C46.7684 15.1293 46.0764 15.1809 45.3415 15.2411C44.5722 15.3013 43.7857 15.3615 43.0077 15.3615L42.9905 15.3659ZM39.2643 11.2236C39.1912 11.3097 39.131 11.3914 39.0967 11.4645C38.8646 11.9334 38.8259 12.3205 38.9763 12.6474C39.2084 13.1549 39.9261 13.5937 40.9404 13.8561C42.247 14.1916 43.7642 14.0754 45.2254 13.9636C45.9518 13.9077 46.6996 13.8518 47.4088 13.8518H58.0031C59.4128 13.8518 60.7537 13.727 62.1763 13.5937C62.8812 13.5292 63.586 13.4603 64.3038 13.413C65.0645 13.3614 65.8295 13.3485 66.5687 13.3356C68.2019 13.3098 69.7492 13.284 71.2749 12.8539C73.2563 12.2947 75.4009 11.5333 75.8092 9.52889C75.9081 9.04713 75.8006 8.70732 75.6588 8.23847C75.5857 8.0062 75.5041 7.74382 75.4482 7.45133L75.3622 7.01689C75.2075 6.24694 75.0313 5.37376 75.0313 4.58661C75.0313 4.38875 75.0399 4.19949 75.0528 4.02744C75.0614 3.86829 75.0743 3.66182 75.0657 3.54138C75.0442 3.54138 75.0227 3.54138 74.9883 3.54138C73.9138 3.54138 72.8093 4.10915 71.7348 4.65973C71.5414 4.75866 71.348 4.8576 71.1546 4.95223C71.103 4.97804 70.9612 5.06837 70.8065 5.163C70.0973 5.60174 69.7062 5.84261 69.3366 5.36085L68.9842 4.89631L69.4354 4.47048C69.5257 4.38875 69.6245 4.2382 69.7277 4.08335C69.8652 3.88118 70.0199 3.64891 70.2262 3.45104C70.2262 3.45104 70.2262 3.45105 70.2305 3.44675C70.0543 3.47256 69.8867 3.50267 69.7664 3.52848L69.4397 3.58439C68.4555 3.74784 67.6346 4.11776 66.9298 4.70705C66.5773 5.00385 66.0917 5.41248 65.6189 5.02965C65.1504 4.64683 65.447 4.09195 65.6619 3.68332C65.8682 3.2962 66.1476 2.66821 66.3152 2.19936C66.2679 2.19936 66.2206 2.19505 66.1776 2.19075C66.0874 2.18214 65.9456 2.17354 65.9069 2.19075C65.0301 2.51765 64.0287 2.94349 63.0101 3.43385C62.9413 3.46826 62.7651 3.58009 62.5416 3.72203C60.9342 4.72425 60.268 5.14149 59.8211 4.49629C59.5503 4.10486 59.7136 3.61021 60.0145 2.84456C60.0532 2.74563 60.0875 2.66389 60.1004 2.61658C60.1434 2.44882 60.1864 2.29828 60.2251 2.16494L60.1563 2.17784C58.6735 2.49184 56.5976 4.09196 55.708 4.77587C53.5161 6.47062 53.3527 6.419 53.0777 6.33728L52.7639 6.24264L52.6565 5.92864C52.4932 5.46409 52.7725 4.95223 53.0218 4.50489C53.0777 4.40165 53.1293 4.31563 53.155 4.25111C53.2883 3.89839 53.5118 3.53708 53.7224 3.19297C53.7739 3.10695 53.8384 3.00371 53.8986 2.90477C52.7553 3.09404 51.5605 3.71773 50.4345 4.36724C50.37 4.41025 50.1766 4.59091 50.0477 4.70705C49.5276 5.19311 49.1881 5.4899 48.7798 5.4899C48.5563 5.4899 48.3457 5.39957 48.1867 5.24042C47.8471 4.89201 47.8557 4.32423 47.8643 3.82097C47.8643 3.70483 47.8729 3.5973 47.8643 3.52848C47.8171 3.34782 47.787 3.14996 47.7655 2.965C46.9403 3.66182 46.0979 4.39735 45.3415 5.30493C45.277 5.38236 45.2168 5.45979 45.1567 5.53721C44.7484 6.04477 44.3272 6.56955 43.6911 6.47062C43.1925 6.39319 42.9132 5.96305 42.7456 5.57592C42.6682 5.65765 42.5822 5.75229 42.492 5.85552C41.2112 7.25347 40.3989 8.33741 40.0508 9.10306C40.4462 8.9267 40.8416 8.83207 41.1897 8.86218C41.7313 8.90949 42.131 9.2407 42.2814 9.77407C42.3802 10.1182 42.1825 10.4752 41.8387 10.5741C41.4992 10.673 41.1467 10.4795 41.0436 10.144C40.8545 10.1311 40.4935 10.2945 40.1324 10.5225C40.1711 10.7376 40.0981 10.9699 39.9176 11.1247C39.7284 11.2882 39.4749 11.3226 39.26 11.2365L39.2643 11.2236Z" fill="#7D5436"/>
</svg>
