<svg width="107" height="107" viewBox="0 0 107 107" fill="none" xmlns="http://www.w3.org/2000/svg">
<path d="M103.319 48.8519C98.8015 59.0591 86.8705 63.6745 76.6717 59.1537C66.4685 54.633 61.8612 42.6924 66.3782 32.4852C70.8953 22.2737 78.3994 3.60577 104.625 0.745361C107.625 8.12222 107.836 38.6448 103.319 48.8562V48.8519Z" fill="#FECA74"/>
<path d="M5.2924 48.8519C9.80948 59.0591 21.7404 63.6745 31.9393 59.1537C42.1382 54.633 46.7498 42.6924 42.2327 32.4852C37.7157 22.2737 30.2116 3.60577 3.98585 0.745361C0.985928 8.12222 0.775322 38.6448 5.2924 48.8562V48.8519Z" fill="#FECA74"/>
<path d="M101.398 44.8043C97.8475 52.8264 88.4738 56.4524 80.4539 52.8995C72.4384 49.3465 71.841 41.9525 75.391 33.9261C78.9411 25.8998 87.4251 12.6343 102.425 6.99524C104.784 12.7935 104.948 36.7779 101.398 44.8043Z" fill="#F34FA5"/>
<path d="M7.21353 44.8043C10.7636 52.8264 20.1416 56.4524 28.1571 52.8995C36.1727 49.3465 36.7701 41.9525 33.22 33.9261C29.67 25.9041 21.186 12.6343 6.18634 6.99524C3.8268 12.7935 3.66347 36.7779 7.21353 44.8043Z" fill="#F34FA5"/>
<path d="M105.046 58.2288C105.046 87.091 81.6658 106.404 52.827 106.404C23.9882 106.404 0.607666 87.091 0.607666 58.2288C0.607666 29.3666 23.9882 5.96716 52.827 5.96716C81.6658 5.96716 105.046 29.3666 105.046 58.2288Z" fill="#FECA74"/>
<path d="M80.9782 82.5317C87.1497 82.5317 92.1527 77.7172 92.1527 71.7783C92.1527 65.8393 87.1497 61.0248 80.9782 61.0248C74.8067 61.0248 69.8037 65.8393 69.8037 71.7783C69.8037 77.7172 74.8067 82.5317 80.9782 82.5317Z" fill="black"/>
<path d="M25.965 82.5317C32.1365 82.5317 37.1395 77.7172 37.1395 71.7783C37.1395 65.8393 32.1365 61.0248 25.965 61.0248C19.7935 61.0248 14.7905 65.8393 14.7905 71.7783C14.7905 77.7172 19.7935 82.5317 25.965 82.5317Z" fill="black"/>
<path d="M25.9653 78.6604C30.0006 78.6604 33.2718 75.5791 33.2718 71.7782C33.2718 67.9773 30.0006 64.896 25.9653 64.896C21.9301 64.896 18.6589 67.9773 18.6589 71.7782C18.6589 75.5791 21.9301 78.6604 25.9653 78.6604Z" fill="black"/>
<path d="M27.8994 69.6276C28.9675 69.6276 29.8334 68.761 29.8334 67.692C29.8334 66.623 28.9675 65.7563 27.8994 65.7563C26.8312 65.7563 25.9653 66.623 25.9653 67.692C25.9653 68.761 26.8312 69.6276 27.8994 69.6276Z" fill="white"/>
<path d="M82.9121 69.6276C83.9802 69.6276 84.8461 68.761 84.8461 67.692C84.8461 66.623 83.9802 65.7563 82.9121 65.7563C81.8439 65.7563 80.978 66.623 80.978 67.692C80.978 68.761 81.8439 69.6276 82.9121 69.6276Z" fill="white"/>
<path d="M53.0421 101.888C46.1654 101.888 45.8775 93.2851 44.4463 88.9837C47.3689 92.941 51.396 90.6311 53.0421 88.9837C56.9961 93.2851 60.5634 90.7774 61.8527 88.9837C60.3485 93.2851 59.9187 101.888 53.0421 101.888Z" fill="black"/>
<path d="M52.7667 100.597C50.2266 100.597 48.4516 98.3134 47.8843 97.1692C51.9845 92.4678 56.7551 95.2121 58.629 97.1692C57.735 98.3134 55.3067 100.597 52.7667 100.597Z" fill="#F34FA5"/>
<path d="M40.5781 24.2481L31.5525 10.4837C33.7014 9.6234 37.9993 8.11792 40.5781 7.47272V24.2481Z" fill="#FFE5B9"/>
<path d="M32.743 93.7153L31.0582 102.512C29.8935 102.034 27.6457 100.993 26.395 100.266L32.743 93.7153Z" fill="#FFE5B9"/>
<path d="M72.8979 93.7153L74.5827 102.512C75.7474 102.034 77.9953 100.993 79.2459 100.266L72.8979 93.7153Z" fill="#FFE5B9"/>
<path d="M26.4123 90.2741L23.3307 98.679C22.2606 98.0166 20.2105 96.6273 19.093 95.7068L26.4166 90.2698L26.4123 90.2741Z" fill="#FFE5B9"/>
<path d="M79.2289 90.2741L82.3105 98.679C83.3807 98.0166 85.4308 96.6273 86.5482 95.7068L79.2246 90.2698L79.2289 90.2741Z" fill="#FFE5B9"/>
<path d="M67.2249 24.4632L76.2504 10.6988C74.1015 9.83849 69.8036 8.33301 67.2249 7.68781V24.4632Z" fill="#FFE5B9"/>
<path d="M55.049 27.9042L49.552 6.25541C51.86 6.08766 56.4114 5.95861 59.0632 6.12636L55.049 27.9042Z" fill="#FFE5B9"/>
<path d="M57.9844 91.9947C60.9515 91.9947 63.3568 89.7801 63.3568 87.0481C63.3568 84.3162 60.9515 82.1016 57.9844 82.1016C55.0173 82.1016 52.6121 84.3162 52.6121 87.0481C52.6121 89.7801 55.0173 91.9947 57.9844 91.9947Z" fill="#FFE5B9"/>
<path d="M47.6695 91.9947C50.6365 91.9947 53.0418 89.7801 53.0418 87.0481C53.0418 84.3162 50.6365 82.1016 47.6695 82.1016C44.7024 82.1016 42.2971 84.3162 42.2971 87.0481C42.2971 89.7801 44.7024 91.9947 47.6695 91.9947Z" fill="#FFE5B9"/>
<path d="M59.4886 80.5961C59.4886 83.0909 56.6005 88.1235 53.0418 88.1235C49.4832 88.1235 46.595 83.0909 46.595 80.5961C46.595 78.1013 49.4832 76.0797 53.0418 76.0797C56.6005 76.0797 59.4886 78.1013 59.4886 80.5961Z" fill="black"/>
<path d="M56.9787 93.9303C56.8412 93.9303 56.7037 93.926 56.5661 93.9131C54.5676 93.7626 52.9817 92.4765 52.1651 91.3237C51.8213 90.8376 51.9373 90.1666 52.4187 89.8225C52.9 89.4784 53.5748 89.5902 53.9186 90.0763C54.4301 90.7946 55.4702 91.6678 56.7295 91.7667C57.9329 91.8571 59.1835 91.2463 60.4342 89.9516C60.8468 89.5257 61.5259 89.5128 61.9557 89.9258C62.3812 90.3387 62.3941 91.0183 61.9815 91.4484C60.3869 93.0959 58.7065 93.926 56.9787 93.926V93.9303Z" fill="black"/>
<path d="M48.8127 93.9303C48.6752 93.9303 48.5376 93.926 48.4001 93.9131C46.4016 93.7626 44.8157 92.4765 43.9991 91.3237C43.6553 90.8376 43.7713 90.1666 44.2526 89.8225C44.734 89.4784 45.4088 89.5902 45.7526 90.0763C46.264 90.7946 47.3042 91.6678 48.5634 91.7667C49.7668 91.8571 51.0175 91.2463 52.2682 89.9516C52.6808 89.5257 53.3599 89.5128 53.7897 89.9258C54.2151 90.3387 54.228 91.0183 53.8154 91.4484C52.2209 93.0959 50.5405 93.926 48.8127 93.926V93.9303Z" fill="black"/>
<path d="M57.3053 94.5755L56.9099 92.855H57.7695L57.3053 94.5755Z" fill="white"/>
<path d="M49.5692 94.5755L49.1738 92.855H50.0334L49.5692 94.5755Z" fill="white"/>
<path d="M4.26518 78.497C4.31245 77.9464 4.47147 77.4087 4.48007 76.8582C4.77233 77.284 5.17633 77.6969 5.52876 78.0281C6.16914 78.6303 6.76654 79.3444 7.49718 79.8476C9.98136 81.5596 12.2335 84.192 13.6303 86.8417C13.9182 87.3922 14.4125 88.1923 14.4469 88.8246C14.477 89.3709 14.3609 90.1924 14.5758 90.7043C14.636 90.8462 14.8122 91.642 14.7864 91.6205C14.3824 91.3108 14.0257 90.9581 13.5873 90.6828C13.222 90.4505 12.7879 89.7623 12.5859 90.2871C12.444 90.6484 12.4569 91.371 12.4569 91.7538C12.4569 91.9302 12.4569 92.67 12.2979 92.7904C12.0315 93.0012 11.7564 92.5926 11.5501 92.4205C10.2392 91.3194 9.45272 90.0849 8.83812 88.5106C8.62752 87.9686 8.60604 88.7816 8.52008 89.031C8.30519 89.6289 8.24502 90.2526 8.00004 90.8419C7.92268 91.0226 7.65621 90.0031 7.62613 89.8139C7.4757 88.8074 7.03732 87.8052 6.74076 86.8373C6.47429 85.9685 6.26369 85.0867 6.26369 84.1748C6.26369 84.0544 6.4614 82.8199 6.16055 83.3446C5.98003 83.6543 4.49296 85.5555 4.18351 85.2974C4.0073 85.1512 4.16632 83.8909 4.16632 83.6457C4.16632 82.9145 3.98152 82.1919 4.06748 81.4606C4.18352 80.4756 4.18352 79.482 4.26518 78.4927V78.497Z" fill="#FECA74"/>
<path d="M102.674 75.9162C102.627 75.3656 102.468 74.8279 102.459 74.2773C102.167 74.7032 101.763 75.1161 101.41 75.4473C100.77 76.0495 100.173 76.7635 99.4419 77.2668C96.9578 78.9787 94.7057 81.6112 93.3088 84.2608C93.0209 84.8114 92.5266 85.6115 92.4922 86.2438C92.4621 86.79 92.5782 87.6116 92.3633 88.1235C92.3031 88.2654 92.1269 89.0612 92.1527 89.0397C92.5567 88.73 92.9134 88.3773 93.3518 88.102C93.7171 87.8697 94.1512 87.1815 94.3532 87.7062C94.4951 88.0676 94.4822 88.7902 94.4822 89.173C94.4822 89.3494 94.4822 90.0892 94.6412 90.2096C94.9076 90.4204 95.1827 90.0118 95.389 89.8397C96.6999 88.7386 97.4864 87.5041 98.101 85.9298C98.3116 85.3878 98.3331 86.2007 98.419 86.4502C98.6339 87.0481 98.6941 87.6718 98.9391 88.2611C99.0121 88.4418 99.2829 87.4223 99.313 87.2331C99.4634 86.2266 99.9018 85.2243 100.198 84.2565C100.465 83.3877 100.675 82.5059 100.675 81.594C100.675 81.4735 100.478 80.2391 100.779 80.7638C100.959 81.0735 102.446 82.9747 102.756 82.7166C102.932 82.5704 102.773 81.3101 102.773 81.0649C102.773 80.3337 102.958 79.6111 102.872 78.8798C102.756 77.8948 102.756 76.9012 102.674 75.9119V75.9162Z" fill="#FECA74"/>
</svg>
