<svg width="99" height="184" viewBox="0 0 99 184" fill="none" xmlns="http://www.w3.org/2000/svg">
<path d="M97.7601 171.68H0.420044L3.59009 183.74H94.6L97.7701 171.68H97.7601Z" fill="#C492BE"/>
<path d="M93.4501 0.26001H4.73004C2.34969 0.26001 0.420044 2.18966 0.420044 4.57001V169.1C0.420044 171.48 2.34969 173.41 4.73004 173.41H93.4501C95.8304 173.41 97.7601 171.48 97.7601 169.1V4.57001C97.7601 2.18966 95.8304 0.26001 93.4501 0.26001Z" fill="#FABBF3"/>
<path opacity="0.09" d="M0.0500488 30.83C0.0500488 30.83 4.54004 12.76 51.04 13.6C97.54 14.44 97.6201 30.69 97.6201 30.69L98.1301 0.890024L0.78009 0.650024L0.0600586 30.83H0.0500488Z" fill="#1A1515"/>
<path d="M49.0901 159.65C60.1358 159.65 69.0901 150.696 69.0901 139.65C69.0901 128.604 60.1358 119.65 49.0901 119.65C38.0444 119.65 29.0901 128.604 29.0901 139.65C29.0901 150.696 38.0444 159.65 49.0901 159.65Z" fill="#F9F9F9"/>
<path d="M45.9301 132.39H52.1101C52.7001 132.39 53.1301 132.48 53.4001 132.67C53.6701 132.86 53.8001 133.16 53.8001 133.59C53.8001 133.85 53.6401 134.19 53.3301 134.62C53.0201 135.05 52.6601 135.52 52.2601 136.04C51.8601 136.56 51.4502 137.2 51.0302 137.96C50.6102 138.72 50.2201 139.66 49.8701 140.77C49.7201 141.26 49.6201 141.66 49.5501 141.99C49.4901 142.31 49.4201 142.73 49.3501 143.24C49.2801 143.75 49.2101 144.15 49.1501 144.42C49.0201 145.05 48.8401 145.49 48.6001 145.73C48.3601 145.97 48.0401 146.1 47.6501 146.1C47.2601 146.1 46.9701 145.97 46.7401 145.71C46.5101 145.45 46.4001 145.06 46.4001 144.55C46.4001 144.15 46.4801 143.62 46.6501 142.93C46.8201 142.25 47.0901 141.44 47.4701 140.49C47.8501 139.54 48.3201 138.57 48.8901 137.57C49.4601 136.57 50.1301 135.58 50.9101 134.59H45.9501C45.4301 134.59 45.0402 134.5 44.7802 134.31C44.5202 134.12 44.4001 133.83 44.4001 133.42C44.4001 132.99 44.5401 132.72 44.8101 132.59C45.0801 132.46 45.4601 132.4 45.9501 132.4L45.9301 132.39Z" fill="#C997C6"/>
<path d="M53.2001 28.25C53.2001 29.36 52.91 30.35 52.35 31.23C51.78 32.11 50.95 32.8 49.85 33.3C48.75 33.8 47.4501 34.05 45.9401 34.05C44.1401 34.05 42.65 33.71 41.47 33.03C40.64 32.54 39.9601 31.88 39.4401 31.06C38.9201 30.24 38.66 29.44 38.66 28.67C38.66 28.22 38.8201 27.84 39.1301 27.52C39.4401 27.2 39.8401 27.04 40.3201 27.04C40.7101 27.04 41.0401 27.16 41.3101 27.41C41.5801 27.66 41.8101 28.03 42.0001 28.52C42.2301 29.1 42.4801 29.59 42.7601 29.98C43.0301 30.37 43.4101 30.69 43.9001 30.95C44.3901 31.2 45.0401 31.33 45.8301 31.33C46.9301 31.33 47.8201 31.07 48.5101 30.56C49.2001 30.05 49.54 29.41 49.54 28.64C49.54 28.03 49.3501 27.54 48.9901 27.16C48.6201 26.78 48.14 26.49 47.55 26.29C46.96 26.09 46.1801 25.88 45.2001 25.65C43.8901 25.34 42.7801 24.98 41.9001 24.57C41.0101 24.16 40.31 23.6 39.79 22.89C39.27 22.18 39.0101 21.29 39.0101 20.24C39.0101 19.19 39.2801 18.34 39.8301 17.56C40.3801 16.78 41.1701 16.18 42.2101 15.76C43.2501 15.34 44.4701 15.13 45.8801 15.13C47.0001 15.13 47.97 15.27 48.79 15.55C49.61 15.83 50.2901 16.2 50.8301 16.66C51.3701 17.12 51.7701 17.61 52.0201 18.11C52.2701 18.62 52.3901 19.11 52.3901 19.6C52.3901 20.04 52.23 20.44 51.92 20.79C51.61 21.14 51.2201 21.32 50.7501 21.32C50.3301 21.32 50.0001 21.21 49.7801 21C49.5601 20.79 49.3201 20.44 49.0601 19.96C48.7301 19.27 48.33 18.73 47.86 18.34C47.39 17.95 46.65 17.76 45.61 17.76C44.65 17.76 43.88 17.97 43.29 18.39C42.7 18.81 42.41 19.32 42.41 19.91C42.41 20.28 42.5101 20.59 42.7101 20.86C42.9101 21.13 43.1801 21.36 43.5301 21.55C43.8801 21.74 44.2301 21.89 44.5901 22C44.9501 22.11 45.54 22.27 46.36 22.47C47.39 22.71 48.32 22.98 49.16 23.27C50 23.56 50.71 23.91 51.29 24.33C51.88 24.75 52.33 25.27 52.66 25.91C52.99 26.55 53.1501 27.33 53.1501 28.25H53.2001Z" fill="#C191BE"/>
<path d="M57.8301 18.61C57.3601 18.61 56.9501 18.46 56.6101 18.17C56.2701 17.88 56.1101 17.47 56.1101 16.93C56.1101 16.45 56.2801 16.05 56.6301 15.74C56.9701 15.43 57.3801 15.27 57.8301 15.27C58.2801 15.27 58.6601 15.41 59.0001 15.69C59.3401 15.97 59.5101 16.39 59.5101 16.93C59.5101 17.47 59.3401 17.86 59.0101 18.16C58.6801 18.45 58.2801 18.6 57.8201 18.6L57.8301 18.61ZM59.5201 22.13V31.98C59.5201 32.66 59.3602 33.18 59.0302 33.53C58.7002 33.88 58.2901 34.05 57.7901 34.05C57.2901 34.05 56.8901 33.87 56.5701 33.51C56.2601 33.15 56.1001 32.64 56.1001 31.97V22.22C56.1001 21.55 56.2601 21.04 56.5701 20.7C56.8801 20.36 57.2901 20.19 57.7901 20.19C58.2901 20.19 58.7002 20.36 59.0302 20.7C59.3502 21.04 59.5201 21.52 59.5201 22.12V22.13Z" fill="#C191BE"/>
</svg>
