<svg width="99" height="184" viewBox="0 0 99 184" fill="none" xmlns="http://www.w3.org/2000/svg">
<path d="M98.37 171.68H0.159973L3.34997 183.74H95.17L98.36 171.68H98.37Z" fill="#AF7B81"/>
<path d="M94.05 0.26001H4.46997C2.08963 0.26001 0.159973 2.18966 0.159973 4.57001V169.1C0.159973 171.48 2.08963 173.41 4.46997 173.41H94.05C96.4303 173.41 98.36 171.48 98.36 169.1V4.57001C98.36 2.18966 96.4303 0.26001 94.05 0.26001Z" fill="#F4ACB2"/>
<path d="M49.26 159.47C60.3057 159.47 69.26 150.516 69.26 139.47C69.26 128.424 60.3057 119.47 49.26 119.47C38.2143 119.47 29.26 128.424 29.26 139.47C29.26 150.516 38.2143 159.47 49.26 159.47Z" fill="#F9F9F9"/>
<path d="M50.09 144.4V135.96C48.52 137.17 47.46 137.77 46.92 137.77C46.66 137.77 46.43 137.67 46.23 137.46C46.03 137.25 45.93 137.01 45.93 136.74C45.93 136.42 46.03 136.19 46.23 136.04C46.43 135.89 46.78 135.7 47.28 135.47C48.03 135.12 48.63 134.75 49.07 134.36C49.52 133.97 49.92 133.53 50.26 133.05C50.61 132.57 50.83 132.27 50.94 132.16C51.04 132.05 51.24 131.99 51.53 131.99C51.86 131.99 52.12 132.11 52.32 132.37C52.52 132.62 52.62 132.97 52.62 133.42V144.04C52.62 145.28 52.2 145.91 51.35 145.91C50.97 145.91 50.67 145.78 50.44 145.53C50.21 145.28 50.1 144.9 50.1 144.41L50.09 144.4Z" fill="#C48C93"/>
<path opacity="0.09" d="M0 30.89C0 30.89 4.49 12.82 50.99 13.66C97.49 14.5 97.57 30.75 97.57 30.75L98.08 0.950022L0.72 0.710022L0 30.89Z" fill="#1A1515"/>
<path d="M35.83 15.44H40.66C41.92 15.44 42.99 15.56 43.89 15.79C44.79 16.02 45.6 16.46 46.34 17.1C48.25 18.73 49.2 21.21 49.2 24.54C49.2 25.64 49.1 26.64 48.91 27.55C48.72 28.46 48.42 29.27 48.02 30C47.62 30.73 47.11 31.38 46.48 31.95C45.99 32.39 45.45 32.74 44.87 33.01C44.29 33.28 43.66 33.46 42.99 33.57C42.32 33.68 41.56 33.73 40.72 33.73H35.89C35.22 33.73 34.71 33.63 34.37 33.42C34.03 33.21 33.81 32.93 33.7 32.56C33.6 32.19 33.54 31.71 33.54 31.12V17.7C33.54 16.9 33.72 16.32 34.08 15.97C34.44 15.61 35.02 15.43 35.81 15.43L35.83 15.44ZM37.26 18.37V30.79H40.07C40.69 30.79 41.17 30.77 41.52 30.74C41.87 30.71 42.23 30.62 42.61 30.49C42.98 30.36 43.31 30.17 43.58 29.93C44.82 28.88 45.44 27.08 45.44 24.51C45.44 22.7 45.17 21.35 44.62 20.45C44.07 19.55 43.4 18.98 42.6 18.73C41.8 18.48 40.84 18.36 39.7 18.36H37.25L37.26 18.37Z" fill="#AF8C74"/>
<path d="M64.97 27.12C64.97 28.14 64.81 29.07 64.5 29.93C64.18 30.79 63.73 31.52 63.13 32.14C62.53 32.76 61.82 33.23 60.98 33.56C60.15 33.89 59.21 34.05 58.17 34.05C57.13 34.05 56.21 33.88 55.39 33.55C54.57 33.22 53.85 32.74 53.25 32.12C52.65 31.5 52.19 30.77 51.88 29.92C51.57 29.08 51.41 28.14 51.41 27.12C51.41 26.1 51.57 25.14 51.88 24.29C52.2 23.43 52.65 22.7 53.24 22.09C53.83 21.48 54.55 21.01 55.39 20.69C56.23 20.36 57.16 20.2 58.17 20.2C59.18 20.2 60.14 20.37 60.98 20.7C61.82 21.03 62.54 21.51 63.14 22.12C63.74 22.73 64.19 23.47 64.51 24.32C64.83 25.17 64.98 26.11 64.98 27.13L64.97 27.12ZM61.55 27.12C61.55 25.73 61.24 24.65 60.63 23.87C60.02 23.1 59.2 22.71 58.16 22.71C57.49 22.71 56.91 22.88 56.4 23.23C55.89 23.57 55.5 24.08 55.23 24.76C54.96 25.43 54.82 26.22 54.82 27.12C54.82 28.02 54.95 28.79 55.23 29.45C55.5 30.12 55.89 30.63 56.39 30.98C56.89 31.33 57.49 31.51 58.17 31.51C59.2 31.51 60.02 31.12 60.64 30.34C61.25 29.56 61.56 28.49 61.56 27.11L61.55 27.12ZM58.56 15.3H60.25C60.67 15.3 60.89 15.36 60.89 15.49C60.89 15.56 60.66 15.83 60.19 16.3C59.72 16.77 59.25 17.23 58.78 17.66C58.31 18.09 57.98 18.36 57.79 18.45C57.32 18.69 56.81 18.81 56.27 18.81C55.91 18.81 55.73 18.71 55.73 18.5C55.73 18.36 55.84 18.11 56.05 17.76L56.61 16.71C56.93 16.1 57.22 15.72 57.46 15.55C57.7 15.38 58.07 15.3 58.56 15.3Z" fill="#AF8C74"/>
</svg>
