<svg width="100" height="184" viewBox="0 0 100 184" fill="none" xmlns="http://www.w3.org/2000/svg">
<path d="M98.65 171.68H1.30994L4.47995 183.74H95.4899L98.6599 171.68H98.65Z" fill="#B792CD"/>
<path d="M94.34 0.26001H5.61993C3.23959 0.26001 1.30994 2.18966 1.30994 4.57001V169.1C1.30994 171.48 3.23959 173.41 5.61993 173.41H94.34C96.7203 173.41 98.65 171.48 98.65 169.1V4.57001C98.65 2.18966 96.7203 0.26001 94.34 0.26001Z" fill="#D5ACF6"/>
<path opacity="0.09" d="M0.939941 30.83C0.939941 30.83 5.42993 12.76 51.9299 13.6C98.4299 14.44 98.5099 30.69 98.5099 30.69L99.02 0.890024L1.66995 0.650024L0.949951 30.83H0.939941Z" fill="#1A1515"/>
<path d="M49.98 159.65C61.0257 159.65 69.98 150.696 69.98 139.65C69.98 128.604 61.0257 119.65 49.98 119.65C38.9343 119.65 29.98 128.604 29.98 139.65C29.98 150.696 38.9343 159.65 49.98 159.65Z" fill="#F9F9F9"/>
<path d="M47.6999 138.5C48.1199 138 48.5799 137.63 49.0699 137.39C49.5599 137.15 50.1199 137.03 50.7299 137.03C51.3399 137.03 51.8599 137.14 52.3599 137.36C52.8599 137.58 53.2899 137.89 53.6699 138.3C54.0499 138.71 54.3299 139.18 54.5399 139.73C54.7399 140.28 54.8499 140.86 54.8499 141.46C54.8499 142.33 54.6499 143.12 54.2499 143.84C53.8499 144.55 53.2899 145.11 52.5799 145.51C51.8699 145.91 51.0599 146.11 50.1499 146.11C49.1099 146.11 48.2099 145.86 47.4599 145.35C46.7099 144.84 46.1299 144.09 45.7299 143.1C45.3299 142.11 45.1299 140.89 45.1299 139.46C45.1299 138.29 45.2499 137.25 45.4899 136.32C45.7299 135.39 46.0799 134.63 46.5299 134.03C46.9799 133.42 47.5299 132.97 48.1699 132.66C48.8099 132.35 49.5499 132.2 50.3699 132.2C51.1899 132.2 51.8599 132.35 52.4599 132.66C53.0599 132.97 53.5199 133.35 53.8199 133.81C54.1299 134.27 54.2799 134.71 54.2799 135.13C54.2799 135.38 54.1799 135.61 53.9899 135.82C53.7999 136.03 53.5499 136.13 53.2599 136.13C52.9999 136.13 52.7599 136.05 52.5399 135.88C52.3199 135.71 52.1499 135.49 52.0499 135.2C51.9099 134.83 51.6799 134.53 51.3699 134.3C51.0599 134.07 50.6999 133.96 50.2899 133.96C49.9599 133.96 49.6399 134.05 49.3099 134.24C48.9899 134.43 48.7099 134.68 48.4899 135.01C48.0399 135.67 47.7699 136.83 47.6899 138.52L47.6999 138.5ZM50.1999 144.26C50.8199 144.26 51.3399 144.01 51.7499 143.49C52.1599 142.98 52.3599 142.31 52.3599 141.48C52.3599 140.92 52.2599 140.43 52.0699 140.03C51.8799 139.62 51.6099 139.32 51.2799 139.1C50.9499 138.89 50.5799 138.78 50.1799 138.78C49.7799 138.78 49.4299 138.88 49.0799 139.09C48.7299 139.3 48.4499 139.59 48.2399 139.98C48.0299 140.37 47.9199 140.82 47.9199 141.34C47.9199 142.17 48.1399 142.87 48.5699 143.43C48.9999 143.99 49.5499 144.26 50.1999 144.26Z" fill="#B899D6"/>
<path d="M39.8799 17.38V30.7H47.39C47.99 30.7 48.45 30.85 48.77 31.14C49.09 31.43 49.2499 31.8 49.2499 32.24C49.2499 32.68 49.09 33.05 48.78 33.33C48.46 33.61 48 33.75 47.39 33.75H38.4399C37.6299 33.75 37.05 33.57 36.7 33.21C36.35 32.85 36.1699 32.27 36.1699 31.48V17.39C36.1699 16.64 36.3399 16.08 36.6799 15.71C37.0199 15.33 37.4599 15.15 38.0099 15.15C38.5599 15.15 39.0199 15.33 39.3599 15.7C39.7099 16.07 39.8799 16.63 39.8799 17.39V17.38Z" fill="#A085BA"/>
<path d="M60.0599 32.13C59.2399 32.77 58.4399 33.25 57.6699 33.57C56.8999 33.89 56.04 34.05 55.08 34.05C54.2 34.05 53.44 33.88 52.78 33.53C52.12 33.19 51.6099 32.72 51.2499 32.13C50.8899 31.54 50.71 30.9 50.71 30.21C50.71 29.28 50.9999 28.48 51.5999 27.83C52.1899 27.17 53 26.73 54.03 26.51C54.25 26.46 54.78 26.35 55.64 26.17C56.5 26 57.23 25.84 57.84 25.69C58.45 25.54 59.12 25.37 59.83 25.16C59.79 24.26 59.6099 23.6 59.2899 23.18C58.9699 22.76 58.3099 22.55 57.2999 22.55C56.4299 22.55 55.7799 22.67 55.3499 22.91C54.9099 23.15 54.5399 23.51 54.2299 24C53.9199 24.49 53.6999 24.8 53.5699 24.96C53.4399 25.12 53.1599 25.19 52.7399 25.19C52.3599 25.19 52.0299 25.07 51.7499 24.82C51.4699 24.57 51.33 24.26 51.33 23.88C51.33 23.28 51.5399 22.7 51.9699 22.13C52.3999 21.56 53.06 21.1 53.95 20.73C54.85 20.36 55.9699 20.18 57.3099 20.18C58.8099 20.18 59.99 20.36 60.84 20.71C61.7 21.06 62.2999 21.62 62.6599 22.39C63.0199 23.16 63.1899 24.17 63.1899 25.44C63.1899 26.24 63.1899 26.92 63.1899 27.47C63.1899 28.02 63.1799 28.65 63.1699 29.33C63.1699 29.97 63.2799 30.64 63.4899 31.33C63.6999 32.02 63.8099 32.47 63.8099 32.67C63.8099 33.02 63.6499 33.34 63.3199 33.63C62.9899 33.92 62.62 34.06 62.2 34.06C61.85 34.06 61.4999 33.89 61.1599 33.57C60.8199 33.24 60.4599 32.76 60.0699 32.14L60.0599 32.13ZM59.84 27.2C59.34 27.38 58.6099 27.58 57.6599 27.78C56.7099 27.98 56.0499 28.13 55.6799 28.23C55.3099 28.33 54.9599 28.51 54.6299 28.79C54.2999 29.07 54.1299 29.46 54.1299 29.96C54.1299 30.46 54.3299 30.92 54.7199 31.28C55.1099 31.64 55.6199 31.82 56.2599 31.82C56.9299 31.82 57.5599 31.67 58.1299 31.38C58.6999 31.09 59.1199 30.7 59.3799 30.24C59.6899 29.72 59.84 28.87 59.84 27.69V27.2ZM57.7899 15.3H59.4699C59.8899 15.3 60.1099 15.36 60.1099 15.49C60.1099 15.56 59.8799 15.83 59.4099 16.3C58.9399 16.77 58.4699 17.23 57.9999 17.66C57.5299 18.09 57.1999 18.36 57.0099 18.45C56.5399 18.69 56.0299 18.81 55.4899 18.81C55.1299 18.81 54.95 18.71 54.95 18.5C54.95 18.36 55.06 18.11 55.27 17.76L55.83 16.71C56.16 16.1 56.4399 15.72 56.6799 15.55C56.9199 15.38 57.29 15.3 57.78 15.3H57.7899Z" fill="#A085BA"/>
</svg>
