<svg width="99" height="184" viewBox="0 0 99 184" fill="none" xmlns="http://www.w3.org/2000/svg">
<path d="M98.49 171.68H1.15002L4.32004 183.74H95.33L98.5 171.68H98.49Z" fill="#CBCA99"/>
<path d="M94.18 0.26001H5.46004C3.07969 0.26001 1.15002 2.18966 1.15002 4.57001V169.1C1.15002 171.48 3.07969 173.41 5.46004 173.41H94.18C96.5604 173.41 98.49 171.48 98.49 169.1V4.57001C98.49 2.18966 96.5604 0.26001 94.18 0.26001Z" fill="#FEFDC1"/>
<path opacity="0.09" d="M0.780029 30.83C0.780029 30.83 5.27003 12.76 51.77 13.6C98.27 14.44 98.35 30.69 98.35 30.69L98.86 0.890024L1.51003 0.650024L0.790024 30.83H0.780029Z" fill="#1A1515"/>
<path d="M48.72 159.65C59.7657 159.65 68.72 150.696 68.72 139.65C68.72 128.604 59.7657 119.65 48.72 119.65C37.6743 119.65 28.72 128.604 28.72 139.65C28.72 150.696 37.6743 159.65 48.72 159.65Z" fill="#F9F9F9"/>
<path d="M48.3501 137.65C48.9201 137.65 49.4101 137.48 49.8201 137.15C50.2301 136.82 50.4401 136.34 50.4401 135.71C50.4401 135.23 50.2801 134.82 49.9501 134.48C49.6201 134.14 49.1801 133.97 48.6201 133.97C48.2401 133.97 47.9301 134.02 47.6901 134.13C47.4501 134.24 47.2501 134.38 47.1101 134.55C46.9701 134.72 46.8301 134.95 46.7101 135.22C46.5801 135.49 46.4701 135.75 46.3601 135.99C46.3001 136.12 46.1901 136.22 46.0301 136.3C45.8701 136.38 45.6801 136.41 45.4701 136.41C45.2201 136.41 45.0001 136.31 44.7901 136.11C44.5801 135.91 44.4801 135.64 44.4801 135.31C44.4801 134.98 44.5801 134.65 44.7701 134.29C44.9601 133.93 45.2501 133.6 45.6201 133.27C45.9901 132.94 46.4601 132.69 47.0201 132.5C47.5801 132.3 48.2001 132.21 48.8801 132.21C49.4801 132.21 50.0301 132.29 50.5201 132.46C51.0101 132.62 51.4401 132.86 51.8101 133.17C52.1801 133.48 52.4501 133.84 52.6401 134.25C52.8301 134.66 52.9201 135.1 52.9201 135.57C52.9201 136.19 52.7901 136.72 52.5201 137.16C52.2501 137.6 51.8701 138.03 51.3701 138.45C51.8501 138.71 52.2601 139.01 52.5901 139.34C52.9201 139.67 53.1701 140.04 53.3401 140.45C53.5101 140.86 53.5901 141.29 53.5901 141.76C53.5901 142.32 53.4801 142.87 53.2501 143.39C53.0201 143.92 52.6901 144.38 52.2501 144.8C51.8101 145.21 51.2901 145.53 50.6901 145.76C50.0901 145.99 49.4201 146.11 48.6901 146.11C47.9601 146.11 47.2801 145.98 46.7001 145.71C46.1101 145.44 45.6301 145.11 45.2501 144.71C44.8701 144.31 44.5801 143.9 44.3901 143.47C44.2001 143.04 44.1001 142.69 44.1001 142.41C44.1001 142.05 44.2201 141.76 44.4501 141.54C44.6801 141.32 44.9701 141.21 45.3201 141.21C45.4901 141.21 45.6601 141.26 45.8201 141.36C45.9801 141.46 46.0901 141.58 46.1401 141.73C46.4601 142.59 46.8101 143.23 47.1701 143.65C47.5401 144.07 48.0601 144.28 48.7201 144.28C49.1001 144.28 49.4701 144.19 49.8301 144C50.1901 143.81 50.4801 143.53 50.7101 143.16C50.9401 142.79 51.0601 142.36 51.0601 141.87C51.0601 141.15 50.8601 140.58 50.4701 140.17C50.0801 139.76 49.5201 139.55 48.8201 139.55C48.7001 139.55 48.5001 139.56 48.2401 139.59C47.9801 139.62 47.8101 139.63 47.7401 139.63C47.4001 139.63 47.1401 139.55 46.9501 139.38C46.7601 139.21 46.6701 138.97 46.6701 138.67C46.6701 138.37 46.7801 138.13 47.0001 137.95C47.2201 137.77 47.5501 137.68 47.9901 137.68H48.3701L48.3501 137.65Z" fill="#CCCA9E"/>
<path d="M43.85 30.98L40.92 19.32V31.95C40.92 32.65 40.76 33.17 40.45 33.52C40.14 33.87 39.72 34.04 39.21 34.04C38.7 34.04 38.3 33.87 37.99 33.52C37.67 33.18 37.52 32.65 37.52 31.94V17.46C37.52 16.66 37.73 16.12 38.14 15.84C38.56 15.56 39.12 15.42 39.83 15.42H40.98C41.67 15.42 42.17 15.48 42.48 15.61C42.79 15.73 43.02 15.96 43.17 16.28C43.32 16.6 43.49 17.13 43.68 17.86L46.34 27.88L49 17.86C49.19 17.13 49.36 16.6 49.51 16.28C49.66 15.96 49.89 15.73 50.2 15.61C50.51 15.49 51.01 15.42 51.7 15.42H52.85C53.56 15.42 54.12 15.56 54.54 15.84C54.96 16.12 55.16 16.66 55.16 17.46V31.94C55.16 32.64 55 33.16 54.69 33.51C54.38 33.86 53.96 34.03 53.44 34.03C52.95 34.03 52.55 33.86 52.23 33.51C51.91 33.16 51.76 32.64 51.76 31.94V19.31L48.83 30.97C48.64 31.73 48.48 32.28 48.36 32.64C48.24 33 48.02 33.32 47.69 33.61C47.37 33.9 46.92 34.05 46.34 34.05C45.91 34.05 45.54 33.96 45.24 33.77C44.94 33.58 44.71 33.34 44.54 33.05C44.37 32.76 44.24 32.44 44.15 32.08C44.05 31.73 43.96 31.36 43.86 30.97L43.85 30.98Z" fill="#BCBA91"/>
<path d="M60.45 18.61C59.98 18.61 59.57 18.46 59.23 18.17C58.89 17.88 58.72 17.47 58.72 16.93C58.72 16.45 58.89 16.05 59.24 15.74C59.59 15.43 59.99 15.27 60.44 15.27C60.89 15.27 61.27 15.41 61.61 15.69C61.95 15.97 62.12 16.39 62.12 16.93C62.12 17.47 61.95 17.86 61.62 18.16C61.29 18.45 60.89 18.6 60.43 18.6L60.45 18.61ZM62.13 22.13V31.98C62.13 32.66 61.97 33.18 61.64 33.53C61.32 33.88 60.9 34.05 60.4 34.05C59.9 34.05 59.5 33.87 59.18 33.51C58.86 33.15 58.71 32.64 58.71 31.97V22.22C58.71 21.55 58.87 21.04 59.18 20.7C59.49 20.36 59.9 20.19 60.4 20.19C60.9 20.19 61.31 20.36 61.64 20.7C61.96 21.04 62.13 21.52 62.13 22.12V22.13Z" fill="#BCBA91"/>
</svg>
