<svg width="118" height="94" viewBox="0 0 118 94" fill="none" xmlns="http://www.w3.org/2000/svg">
<g clip-path="url(#clip0_283_4381)">
<path d="M93.6969 54.8697C89.1914 73.9048 78.0639 87.568 50.6106 81.0701C23.1573 74.5721 19.3352 57.3705 23.8406 38.3354C28.346 19.3002 43.7926 9.35555 66.3197 14.6875C88.8468 20.0194 98.1994 35.8339 93.694 54.869L93.6969 54.8697Z" fill="#FFD7AC"/>
<path d="M85.3605 52.555C85.2823 60.3644 83.589 69.592 77.2818 69.5161C70.9747 69.4403 63.9914 64.4621 64.0696 56.6527C64.1479 48.8433 64.7009 39.3459 71.0081 39.4217C77.3152 39.4976 85.4388 44.7456 85.3605 52.555Z" fill="#B18174"/>
<path d="M51.198 77.9138C59.3852 79.8516 67.1045 76.8502 68.4395 71.21C69.7745 65.5697 64.2197 59.4264 56.0325 57.4886C47.8453 55.5508 40.126 58.5522 38.791 64.1925C37.456 69.8327 43.0108 75.976 51.198 77.9138Z" fill="#DB9861"/>
<path d="M51.9395 75.5698C48.0624 74.6521 48.7355 71.5161 50.1719 68.4109C51.9163 67.1462 55.1747 68.8971 56.5862 69.9292C56.2416 73.2927 55.8166 76.4875 51.9395 75.5698Z" fill="black"/>
<path d="M52.0067 75.2861C48.1296 74.3684 48.8026 71.2324 50.239 68.1273C51.9834 66.8625 55.2418 68.6134 56.6533 69.6455C56.3088 73.009 55.8838 76.2038 52.0067 75.2861Z" fill="#FF837B"/>
<path d="M73.3542 66.9808C77.4478 67.9497 81.5178 65.5599 82.4449 61.6431C83.372 57.7262 80.805 53.7655 76.7114 52.7966C72.6178 51.8277 68.5478 54.2175 67.6207 58.1343C66.6936 62.0512 69.2606 66.0119 73.3542 66.9808Z" fill="black"/>
<path d="M36.8638 58.3439C40.9574 59.3128 45.0275 56.9231 45.9546 53.0062C46.8816 49.0894 44.3147 45.1287 40.2211 44.1598C36.1275 43.1909 32.0574 45.5806 31.1303 49.4975C30.2033 53.4143 32.7702 57.375 36.8638 58.3439Z" fill="black"/>
<path d="M58.7405 71.1551C55.9809 70.5019 54.0011 69.1615 53.0872 68.2023C52.8069 67.9112 52.8197 67.4499 53.1114 67.1715C53.4031 66.893 53.8665 66.9068 54.1468 67.1978C55.4953 68.6105 59.5328 70.9621 65.1474 69.7536C65.5441 69.6678 65.9333 69.9187 66.0175 70.3131C66.1046 70.7082 65.8535 71.0951 65.4575 71.1781C62.907 71.7278 60.637 71.6009 58.7383 71.1515L58.7405 71.1551Z" fill="black"/>
<path d="M47.0522 68.3886C44.2926 67.7354 42.3128 66.395 41.3989 65.4358C41.1185 65.1447 41.1314 64.6834 41.4231 64.405C41.7148 64.1265 42.1781 64.1403 42.4585 64.4314C43.807 65.844 47.8444 68.1956 53.4591 66.9872C53.8557 66.9013 54.2449 67.1522 54.3292 67.5466C54.4163 67.9417 54.1652 68.3286 53.7692 68.4117C51.2186 68.9613 48.9486 68.8345 47.05 68.3851L47.0522 68.3886Z" fill="black"/>
<path d="M40.161 50.1371C40.8695 50.3048 41.5791 49.8692 41.746 49.1641C41.9129 48.4591 41.4738 47.7516 40.7653 47.5839C40.0568 47.4162 39.3471 47.8518 39.1803 48.5568C39.0134 49.2619 39.4525 49.9694 40.161 50.1371Z" fill="white"/>
<path d="M76.6513 58.774C77.3598 58.9417 78.0695 58.5061 78.2364 57.8011C78.4032 57.0961 77.9642 56.3886 77.2556 56.2209C76.5471 56.0532 75.8375 56.4888 75.6706 57.1938C75.5038 57.8988 75.9428 58.6063 76.6513 58.774Z" fill="white"/>
<path d="M59.4022 62.3305C59.0128 63.9758 56.3114 66.8415 53.951 66.2828C51.5905 65.7241 50.4603 61.9516 50.8498 60.3062C51.2392 58.6608 53.4706 57.781 55.831 58.3397C58.1915 58.8984 59.7917 60.6851 59.4022 62.3305Z" fill="black"/>
<path d="M95.9666 59.2714C94.3203 47.0845 86.8408 29.6014 83.307 22.387C112.048 22.1616 113.985 40.7356 111.362 50.0516C108.739 59.3676 97.6122 71.4612 95.9659 59.2743L95.9666 59.2714Z" fill="#B18174"/>
<path d="M19.8214 41.2487C26.756 31.0927 41.2791 18.8175 47.6718 13.9526C22.0824 0.864764 12.0233 16.6022 10.1924 26.1058C8.36144 35.6094 12.8861 51.4074 19.8207 41.2515L19.8214 41.2487Z" fill="#B18174"/>
<path d="M52.1969 73.0574C52.1781 73.1368 52.2261 73.2141 52.3059 73.2329C52.3857 73.2518 52.4632 73.2043 52.482 73.1248L52.1969 73.0574ZM53.2712 68.5184L52.1969 73.0574L52.482 73.1248L53.5563 68.5859L53.2712 68.5184Z" fill="#94255F"/>
<path d="M47.0887 17.2177C47.0494 17.3073 46.6951 18.0922 46.4876 18.3966C46.4143 18.2354 46.3347 18.1267 46.2592 18.1658C45.9165 18.3543 45.4479 18.5789 45.0627 18.7184C44.3346 18.9834 45.6615 19.0758 45.91 19.1197C46.6889 19.2501 47.4105 19.4449 48.2132 19.488C49.2361 19.5414 50.2493 19.3439 51.2714 19.439C52.8327 19.5839 54.3972 19.8044 55.8847 20.3242C57.0832 20.7427 58.3244 20.8537 59.5435 21.1722C61.3209 21.6379 63.1189 22.0035 64.8901 22.4827C69.1177 23.6241 73.4913 24.123 77.7034 25.3297C78.6591 25.6038 79.6001 26.0542 80.5773 26.2376C80.8365 26.287 81.3532 26.4063 81.5292 26.1843C81.8504 25.781 81.7722 25.5138 81.845 25.0787C81.9245 24.6032 81.935 24.1264 81.9961 23.6645C82.0603 23.1645 82.0242 22.5538 82.1798 22.0873C82.2739 21.804 82.4259 21.5434 82.488 21.2556C82.5107 21.1471 82.9916 20.5779 82.9044 20.5393C82.4904 20.3424 81.7364 20.4246 81.2586 20.3444C80.3672 20.1934 79.1351 20.1204 78.3045 20.526C78.2741 20.5398 78.7008 18.9152 78.8055 18.6254C78.9534 18.217 79.197 17.6456 79.1917 17.21C79.1867 16.9512 78.6962 17.1796 78.5697 17.2305C77.5431 17.6376 76.2242 17.4482 75.1455 17.4266C74.4655 17.4124 73.9227 17.6704 73.2991 17.8883C72.8622 18.0425 73.0915 17.977 73.3767 17.688C73.8131 17.2431 74.1577 16.7794 74.6711 16.4036C74.8321 16.283 76.068 15.2843 75.9018 15.236C74.2571 14.7568 72.707 14.1323 70.9231 14.3302C69.764 14.4573 68.5604 14.6457 67.4404 14.9768C67.0229 15.0997 66.6286 15.252 66.2266 15.4115C65.9475 15.5222 65.4663 16.1182 65.4195 15.8196C65.4001 15.6982 66.1205 15.0838 66.1408 15.0616C66.4756 14.7155 67.5764 14.0713 67.6748 13.6302C67.6963 13.5395 66.3949 13.543 66.3473 13.5407C65.3639 13.4727 64.3806 13.4677 63.4051 13.3027C62.0387 13.0721 60.7057 13.0442 59.3273 12.9786C59.2619 12.9751 57.8399 13.0939 58.1377 12.8408C58.3946 12.62 58.5093 12.1738 58.7473 11.9186L58.7634 11.9015C59.1799 11.4518 59.5461 11.0622 60.0164 10.6522C60.7753 9.99003 58.8425 10.626 58.6475 10.6997C56.9512 11.3287 55.3505 11.9355 54.1058 13.2765C53.8839 13.5146 53.6641 14.0617 53.4731 13.7619C53.2887 13.4726 53.2816 12.9556 53.2559 12.632C53.2134 12.1246 53.3669 11.7176 53.445 11.2478C53.4994 10.9162 53.2453 11.1376 53.0819 11.2427C51.6175 12.2023 50.0627 13.0475 48.8658 14.352C48.084 15.2005 47.5562 16.184 47.0937 17.2219L47.0887 17.2177Z" fill="#FFD7AC"/>
<path d="M61.2348 66.6078C61.2205 66.6044 61.2063 66.6011 61.1892 66.597C61.03 66.5444 60.853 66.3766 60.8774 66.0828C60.8982 65.8421 61.1117 65.665 61.3536 65.6863C61.5954 65.7076 61.7738 65.9205 61.7529 66.1613C61.7613 66.0494 61.6869 65.855 61.4862 65.7746C61.324 65.7092 61.1649 65.7584 61.077 65.8245L61.817 66.2723C61.7495 66.3791 61.5626 66.6854 61.2319 66.6071L61.2348 66.6078Z" fill="black"/>
<path d="M62.4665 64.5326C62.4009 64.5171 62.3444 64.4888 62.2934 64.4497C62.2621 64.4423 62.2349 64.4299 62.2056 64.414C62.1305 64.3752 61.9576 64.2534 61.9424 63.9742C61.9305 63.7317 62.1174 63.5273 62.3609 63.5161C62.4127 63.5133 62.4654 63.5198 62.5125 63.537C62.6586 63.5176 62.7659 63.573 62.8276 63.6175C63.0027 63.7429 63.058 63.9417 62.9948 64.2083C62.9391 64.4438 62.7031 64.5887 62.4665 64.5326Z" fill="black"/>
<path d="M63.9071 66.8538C63.6705 66.7978 63.5245 66.5625 63.5802 66.3271L63.654 66.015C63.7098 65.7795 63.9458 65.6347 64.1824 65.6907C64.419 65.7467 64.565 65.982 64.5093 66.2174L64.4354 66.5295C64.3797 66.7649 64.1437 66.9098 63.9071 66.8538Z" fill="black"/>
<path d="M48.1626 63.7864C47.926 63.7303 47.78 63.4951 47.8357 63.2596L47.8606 63.1547C47.9163 62.9192 48.1523 62.7743 48.3889 62.8303C48.6255 62.8863 48.7716 63.1216 48.7158 63.3571L48.691 63.462C48.6353 63.6975 48.3993 63.8424 48.1626 63.7864Z" fill="black"/>
<path d="M45.3346 63.117C45.098 63.061 44.952 62.8257 45.0077 62.5902C45.0547 62.3917 45.2312 62.2567 45.4272 62.2551L45.4641 62.201C45.6042 62.0035 45.8771 61.9572 46.0758 62.0971C46.2744 62.237 46.3215 62.5088 46.1814 62.7063L46.1397 62.7683C46.0373 62.9208 45.8243 63.2359 45.3339 63.1198L45.3346 63.117Z" fill="black"/>
<path d="M48.1805 61.37C47.9439 61.3139 47.7979 61.0787 47.8536 60.8432L47.9033 60.6333C47.959 60.3978 48.195 60.253 48.4316 60.309C48.6683 60.365 48.8143 60.6003 48.7586 60.8357L48.7089 61.0456C48.6531 61.2811 48.4171 61.426 48.1805 61.37Z" fill="black"/>
</g>
<defs>
<clipPath id="clip0_283_4381">
<rect width="104" height="71" fill="white" transform="translate(16.3533) rotate(13.3163)"/>
</clipPath>
</defs>
</svg>
