<svg width="85" height="88" viewBox="0 0 85 88" fill="none" xmlns="http://www.w3.org/2000/svg">
<path d="M81.74 37.2204C79.36 45.5304 70.69 50.3304 62.38 47.9504C54.07 45.5704 49.27 36.9004 51.65 28.5904C54.03 20.2804 57.81 5.17043 77.63 0.19043C80.72 5.53043 84.12 28.9104 81.73 37.2204H81.74Z" fill="#FECA74"/>
<path d="M6.50998 47.6304C11.06 54.9804 20.71 57.2504 28.05 52.7004C35.4 48.1504 37.67 38.5004 33.12 31.1604C28.57 23.8104 20.83 10.2904 0.399967 10.8804C-1.12003 16.8604 1.95998 40.2804 6.50998 47.6304Z" fill="#FECA74"/>
<path d="M79.8399 34.3205C77.9699 40.8505 71.1599 44.6205 64.6299 42.7505C58.0999 40.8805 56.8599 35.2705 58.7299 28.7405C60.5999 22.2105 65.7099 11.1305 76.6199 5.22046C79.0499 9.42046 81.7199 27.7905 79.8499 34.3205H79.8399Z" fill="#F34FA5"/>
<path d="M7.5599 44.3204C11.1399 50.1004 18.7199 51.8804 24.4899 48.3004C30.2699 44.7204 29.9399 38.9904 26.3599 33.2104C22.7799 27.4304 14.8599 18.1604 2.75991 15.4304C1.56991 20.1304 3.9799 38.5404 7.5599 44.3104V44.3204Z" fill="#F34FA5"/>
<path d="M84.06 44.2304C87.1199 66.3604 71.23 83.6604 49.1 86.7204C26.97 89.7804 6.97996 77.4604 3.90996 55.3304C0.849961 33.2004 16.31 12.7704 38.44 9.71038C60.57 6.65038 81 22.1104 84.06 44.2404V44.2304Z" fill="#FECA74"/>
<path d="M68.1681 65.4158C72.9058 64.7601 76.2357 60.5387 75.6057 55.9871C74.9757 51.4355 70.6244 48.2772 65.8868 48.933C61.1492 49.5887 57.8193 53.8101 58.4493 58.3617C59.0792 62.9133 63.4305 66.0716 68.1681 65.4158Z" fill="black"/>
<path d="M25.9489 71.269C30.6865 70.6133 34.0164 66.3919 33.3865 61.8403C32.7565 57.2887 28.4052 54.1304 23.6676 54.7861C18.93 55.4418 15.6 59.6632 16.23 64.2148C16.86 68.7664 21.2113 71.9247 25.9489 71.269Z" fill="black"/>
<path d="M25.539 68.3072C28.6354 67.8786 30.8184 65.1674 30.4148 62.2515C30.0112 59.3356 27.1739 57.3193 24.0775 57.7478C20.9811 58.1764 18.7981 60.8876 19.2017 63.8035C19.6053 66.7194 22.4426 68.7357 25.539 68.3072Z" fill="black"/>
<path d="M25.86 61.1804C26.6884 61.1804 27.36 60.5088 27.36 59.6804C27.36 58.852 26.6884 58.1804 25.86 58.1804C25.0316 58.1804 24.36 58.852 24.36 59.6804C24.36 60.5088 25.0316 61.1804 25.86 61.1804Z" fill="white"/>
<path d="M68.08 55.3405C68.9084 55.3405 69.58 54.6689 69.58 53.8405C69.58 53.012 68.9084 52.3405 68.08 52.3405C67.2515 52.3405 66.58 53.012 66.58 53.8405C66.58 54.6689 67.2515 55.3405 68.08 55.3405Z" fill="white"/>
<path d="M48.7899 83.2304C43.5099 83.9604 42.3799 77.3904 40.8199 74.2504C43.4799 76.9704 46.33 74.7804 47.42 73.3404C50.91 76.2204 53.3799 73.9204 54.1799 72.4004C53.4799 75.8604 54.0699 82.5004 48.7899 83.2304Z" fill="black"/>
<path d="M48.44 82.2704C46.49 82.5404 44.89 80.9804 44.33 80.1604C46.98 76.1204 50.93 77.7204 52.58 79.0204C52.01 79.9904 50.4 82.0004 48.45 82.2704H48.44Z" fill="#F34FA5"/>
<path d="M30.98 25.0204L22.59 15.4204C24.15 14.5304 27.29 12.9204 29.2 12.1504L30.98 25.0104V25.0204Z" fill="#FFE5B9"/>
<path d="M32.3399 79.1205L31.9799 86.0405C31.0399 85.8005 29.1999 85.2405 28.1599 84.8105L32.3399 79.1105V79.1205Z" fill="#FFE5B9"/>
<path d="M63.1599 74.8505L65.3899 81.4205C66.2299 80.9305 67.8499 79.8905 68.7299 79.2005L63.1599 74.8505Z" fill="#FFE5B9"/>
<path d="M27.12 77.1504L25.65 83.9204C24.76 83.5304 23.04 82.6804 22.08 82.0904L27.12 77.1404V77.1504Z" fill="#FFE5B9"/>
<path d="M67.6499 71.5404L70.9099 77.6604C71.6599 77.0404 73.0899 75.7604 73.8499 74.9304L67.6499 71.5404Z" fill="#FFE5B9"/>
<path d="M51.4499 22.3505L56.9199 10.8405C55.1799 10.4105 51.7199 9.71048 49.6699 9.49048L51.4499 22.3505Z" fill="#FFE5B9"/>
<path d="M42.4699 26.2904L35.95 10.2704C37.7 9.9004 41.1799 9.3104 43.2399 9.1604L42.4699 26.2904Z" fill="#FFE5B9"/>
<path d="M51.5253 75.1322C53.8011 74.8172 55.4109 72.8633 55.1209 70.768C54.8309 68.6728 52.7509 67.2296 50.4751 67.5445C48.1993 67.8595 46.5895 69.8134 46.8795 71.9087C47.1695 74.004 49.2495 75.4472 51.5253 75.1322Z" fill="#FFE5B9"/>
<path d="M43.6194 76.2164C45.8952 75.9015 47.505 73.9475 47.215 71.8523C46.925 69.757 44.845 68.3138 42.5692 68.6288C40.2934 68.9438 38.6836 70.8977 38.9736 72.9929C39.2636 75.0882 41.3436 76.5314 43.6194 76.2164Z" fill="#FFE5B9"/>
<path d="M51.47 66.2204C51.73 68.1304 50.05 72.3004 47.32 72.6804C44.59 73.0604 41.84 69.5104 41.57 67.5904C41.31 65.6804 43.31 63.8204 46.04 63.4404C48.77 63.0604 51.2 64.3104 51.47 66.2204Z" fill="black"/>
<path d="M47.6 74.6604C48.66 75.7804 51.39 77.1804 53.87 73.7904" stroke="black" stroke-width="5" stroke-linecap="round"/>
<path d="M41.33 75.5204C42.39 76.6404 45.12 78.0404 47.6 74.6504" stroke="black" stroke-width="5" stroke-linecap="round"/>
<path d="M51.28 77.1704L50.79 75.8904L51.45 75.8004L51.28 77.1704Z" fill="white"/>
<path d="M45.35 77.9905L44.86 76.7105L45.52 76.6205L45.35 77.9905Z" fill="white"/>
<path d="M8.86993 70.4804C8.84993 70.0504 8.90993 69.6204 8.86993 69.2004C9.13993 69.5004 9.48992 69.7704 9.79992 69.9804C10.3599 70.3704 10.8899 70.8604 11.5099 71.1704C13.5999 72.2204 15.6099 74.0004 16.9599 75.8804C17.2399 76.2704 17.6999 76.8304 17.7999 77.3104C17.8799 77.7304 17.8799 78.3704 18.0999 78.7404C18.1599 78.8404 18.3799 79.4304 18.3599 79.4204C18.0199 79.2204 17.6999 78.9904 17.3399 78.8304C17.0299 78.6904 16.6299 78.2104 16.5299 78.6304C16.4599 78.9204 16.5499 79.4704 16.5899 79.7704C16.6099 79.9104 16.6799 80.4704 16.5799 80.5804C16.3999 80.7704 16.1499 80.4904 15.9699 80.3704C14.8499 79.6604 14.1099 78.8004 13.4799 77.6604C13.2599 77.2704 13.3299 77.8904 13.2899 78.0904C13.1899 78.5704 13.2099 79.0604 13.0799 79.5304C13.0399 79.6804 12.7299 78.9204 12.6799 78.7804C12.4599 78.0304 12.0099 77.3004 11.6799 76.5904C11.3799 75.9504 11.1299 75.3004 11.0299 74.6004C11.0199 74.5104 11.0299 73.5404 10.8599 73.9804C10.7599 74.2404 9.80992 75.8504 9.54992 75.6904C9.39992 75.6004 9.38992 74.6104 9.35992 74.4204C9.27992 73.8604 9.05992 73.3204 9.04992 72.7504C9.02992 71.9804 8.92995 71.2204 8.88995 70.4504L8.86993 70.4804Z" fill="#FECA74"/>
<path d="M84.12 58.0404C84.03 57.6204 83.84 57.2304 83.78 56.8104C83.6 57.1704 83.33 57.5304 83.1 57.8204C82.67 58.3504 82.29 58.9604 81.78 59.4304C80.06 61.0104 78.61 63.2604 77.82 65.4404C77.66 65.8904 77.36 66.5604 77.4 67.0504C77.43 67.4704 77.61 68.0904 77.5 68.5004C77.47 68.6104 77.42 69.2404 77.44 69.2304C77.72 68.9504 77.95 68.6404 78.26 68.3804C78.52 68.1604 78.77 67.5904 78.99 67.9704C79.14 68.2304 79.2 68.7904 79.24 69.0804C79.26 69.2204 79.34 69.7804 79.47 69.8604C79.7 69.9904 79.86 69.6504 80 69.5004C80.89 68.5204 81.36 67.4904 81.67 66.2104C81.77 65.7704 81.88 66.3904 81.97 66.5804C82.2 67.0204 82.31 67.4904 82.56 67.9104C82.64 68.0404 82.74 67.2304 82.74 67.0804C82.74 66.2904 82.98 65.4804 83.1 64.7004C83.21 64.0104 83.28 63.3104 83.18 62.6104C83.17 62.5204 82.88 61.5904 83.18 61.9604C83.35 62.1804 84.69 63.4804 84.9 63.2504C85.02 63.1204 84.76 62.1704 84.74 61.9804C84.66 61.4204 84.73 60.8404 84.58 60.2904C84.39 59.5504 84.28 58.7804 84.11 58.0304L84.12 58.0404Z" fill="#FECA74"/>
</svg>
