<svg width="80" height="80" viewBox="0 0 80 80" fill="none" xmlns="http://www.w3.org/2000/svg">
<path d="M77.25 29.8105C82.66 50.6605 80.53 69.2505 49.31 77.3605C18.09 85.4705 7.17999 70.2605 1.75999 49.4205C-3.65001 28.5705 8.85999 7.29046 29.7 1.87046C50.55 -3.53954 71.83 8.97046 77.25 29.8105Z" fill="#FDE176"/>
<path d="M64.4132 51.8821C68.8714 50.7242 71.5827 46.3101 70.4692 42.023C69.3557 37.736 64.839 35.1993 60.3809 36.3572C55.9227 37.5152 53.2114 41.9292 54.3249 46.2163C55.4384 50.5034 59.9551 53.04 64.4132 51.8821Z" fill="black"/>
<path d="M24.6446 62.1962C29.1027 61.0383 31.814 56.6242 30.7005 52.3371C29.587 48.0501 25.0703 45.5134 20.6122 46.6713C16.1541 47.8293 13.4427 52.2433 14.5562 56.5304C15.6697 60.8175 20.1864 63.3541 24.6446 62.1962Z" fill="black"/>
<path d="M23.9205 59.4087C26.8391 58.6506 28.6266 55.8087 27.913 53.0611C27.1993 50.3136 24.2548 48.7007 21.3362 49.4588C18.4175 50.2169 16.63 53.0588 17.3437 55.8064C18.0573 58.5539 21.0019 60.1667 23.9205 59.4087Z" fill="black"/>
<path d="M23.26 52.5704C24.0553 52.5704 24.7 51.9257 24.7 51.1304C24.7 50.3351 24.0553 49.6904 23.26 49.6904C22.4647 49.6904 21.82 50.3351 21.82 51.1304C21.82 51.9257 22.4647 52.5704 23.26 52.5704Z" fill="white"/>
<path d="M63.02 42.2405C63.8152 42.2405 64.46 41.5958 64.46 40.8005C64.46 40.0052 63.8152 39.3605 63.02 39.3605C62.2247 39.3605 61.58 40.0052 61.58 40.8005C61.58 41.5958 62.2247 42.2405 63.02 42.2405Z" fill="white"/>
<path d="M47.9699 71.5704C42.2899 73.1804 38.6599 71.0604 37.5599 69.8004L55.8899 65.0404C55.6199 66.5504 53.6499 69.9704 47.9699 71.5704Z" fill="#D68123"/>
<path d="M40.78 62.6604C39.83 64.6304 35.3 65.5104 35.13 66.4504C35.1 68.5504 37.78 72.5604 47.35 70.0804C59.31 66.9704 57.5 60.6504 55.79 61.0904C54.08 61.5304 50.64 61.3604 48.95 59.9804C47.6 58.8704 45.57 59.1004 44.56 59.3604C43.24 59.7004 41.72 60.6904 40.78 62.6604Z" fill="#FB9728"/>
<path d="M48.3274 63.3481C48.584 63.2815 48.6299 62.6034 48.43 61.8337C48.23 61.0639 47.86 60.494 47.6034 60.5606C47.3468 60.6273 47.3009 61.3053 47.5008 62.075C47.7007 62.8448 48.0708 63.4148 48.3274 63.3481Z" fill="#D68123"/>
<path d="M43.9712 64.4854C44.2278 64.4188 44.2737 63.7408 44.0738 62.971C43.8738 62.2013 43.5038 61.6313 43.2472 61.6979C42.9906 61.7646 42.9447 62.4426 43.1446 63.2124C43.3445 63.9821 43.7146 64.5521 43.9712 64.4854Z" fill="#D68123"/>
</svg>
