<svg width="90" height="79" viewBox="0 0 90 79" fill="none" xmlns="http://www.w3.org/2000/svg">
<path d="M82.3999 44.6405C80.0399 65.6505 61.09 80.7605 40.0799 78.4005C19.0699 76.0405 3.95995 57.0905 6.31995 36.0805C12.2599 17.0905 26.98 5.75052 47.99 8.11052C69 10.4705 78.3799 22.6205 82.3999 44.6305V44.6405Z" fill="#74BE21"/>
<path d="M67.62 44.2905C77.3623 44.2905 85.26 36.3928 85.26 26.6505C85.26 16.9082 77.3623 9.0105 67.62 9.0105C57.8777 9.0105 49.98 16.9082 49.98 26.6505C49.98 36.3928 57.8777 44.2905 67.62 44.2905Z" fill="white"/>
<path d="M65.22 47.9405C53.48 46.6205 45.01 36.0005 46.33 24.2605C47.65 12.5205 58.27 4.05054 70.01 5.37054C81.75 6.69054 90.22 17.3105 88.9 29.0505C87.58 40.7905 76.96 49.2605 65.22 47.9405ZM69.17 12.8705C61.57 12.0205 54.7 17.5005 53.85 25.1005C53 32.7005 58.48 39.5705 66.08 40.4205C73.68 41.2705 80.55 35.7905 81.4 28.1905C82.25 20.5905 76.77 13.7205 69.17 12.8705Z" fill="#74BE21"/>
<path d="M22.22 39.1805C31.9623 39.1805 39.86 31.2828 39.86 21.5405C39.86 11.7982 31.9623 3.90051 22.22 3.90051C12.4777 3.90051 4.57996 11.7982 4.57996 21.5405C4.57996 31.2828 12.4777 39.1805 22.22 39.1805Z" fill="white"/>
<path d="M19.83 42.8306C8.08999 41.5106 -0.380005 30.8906 0.939995 19.1506C2.25999 7.41055 12.88 -1.05945 24.62 0.260551C36.36 1.58055 44.83 12.2006 43.51 23.9406C42.19 35.6805 31.57 44.1506 19.83 42.8306ZM23.77 7.77055C16.17 6.92055 9.29999 12.4006 8.44999 20.0006C7.59999 27.6006 13.08 34.4706 20.68 35.3206C28.28 36.1706 35.15 30.6906 36 23.0906C36.85 15.4906 31.37 8.62055 23.77 7.77055Z" fill="#74BE21"/>
<path d="M21.5415 22.0916C21.8528 19.3256 19.7204 16.8149 16.7787 16.4839C13.837 16.1529 11.2 18.1269 10.8887 20.893C10.5775 23.659 12.7099 26.1697 15.6516 26.5007C18.5933 26.8317 21.2303 24.8577 21.5415 22.0916Z" fill="#423737"/>
<path d="M80.2637 24.2726C80.5749 21.5065 78.4425 18.9958 75.5009 18.6648C72.5592 18.3338 69.9222 20.3078 69.6109 23.0739C69.2997 25.8399 71.4321 28.3506 74.3737 28.6816C77.3154 29.0126 79.9524 27.0386 80.2637 24.2726Z" fill="#423737"/>
<path d="M17.95 20.1005C18.7343 20.1005 19.37 19.4647 19.37 18.6805C19.37 17.8963 18.7343 17.2605 17.95 17.2605C17.1658 17.2605 16.53 17.8963 16.53 18.6805C16.53 19.4647 17.1658 20.1005 17.95 20.1005Z" fill="white"/>
<path d="M76.67 22.2705C77.4542 22.2705 78.09 21.6348 78.09 20.8505C78.09 20.0663 77.4542 19.4305 76.67 19.4305C75.8858 19.4305 75.25 20.0663 75.25 20.8505C75.25 21.6348 75.8858 22.2705 76.67 22.2705Z" fill="white"/>
<path d="M80.21 54.2206C39.56 64.9906 13.55 52.1606 6.27002 44.9506C7.32002 52.5206 13.45 75.5706 42.27 78.6406C63.57 80.9106 76.7 63.3306 80.21 54.2206Z" fill="#FFDE88"/>
<path d="M64.36 68.2905C59.71 69.0405 58.26 61.4705 58.11 57.6005C59.74 57.7805 64.9 56.8805 67.28 56.4105C68.24 60.0605 69.01 67.5405 64.36 68.2905Z" fill="#FF837B"/>
<path d="M47.16 54.1405C48.2922 54.1405 49.21 53.2227 49.21 52.0905C49.21 50.9583 48.2922 50.0405 47.16 50.0405C46.0278 50.0405 45.11 50.9583 45.11 52.0905C45.11 53.2227 46.0278 54.1405 47.16 54.1405Z" fill="black"/>
<path d="M38.4 53.1505C39.5321 53.1505 40.45 52.2327 40.45 51.1005C40.45 49.9683 39.5321 49.0505 38.4 49.0505C37.2678 49.0505 36.35 49.9683 36.35 51.1005C36.35 52.2327 37.2678 53.1505 38.4 53.1505Z" fill="black"/>
</svg>
