<svg width="120" height="98" viewBox="0 0 120 98" fill="none" xmlns="http://www.w3.org/2000/svg">
<g clip-path="url(#clip0_283_4303)">
<path d="M14.881 7.78344C25.9444 -1.19948 35.2897 8.49509 38.583 14.4644C46.4758 26.5196 26.8617 24.8996 22.0249 23.6411C17.1881 22.3826 9.31077 13.2831 14.8839 7.78402L14.881 7.78344Z" fill="#E8E8E8"/>
<path d="M116.524 27.8004C109.693 15.2934 97.3697 20.7207 92.0589 24.9956C80.1847 33.158 98.9484 39.0959 103.901 39.7653C108.854 40.4347 119.59 35.0008 116.521 27.7998L116.524 27.8004Z" fill="#E8E8E8"/>
<path d="M36.4595 18.9937C33.7461 14.7235 26.3499 6.97319 18.4671 10.1296C8.61263 14.0727 26.7129 26.3053 36.4595 18.9937Z" fill="#FCB6D9"/>
<path d="M92.3035 29.9913C96.4334 27.0687 106.216 22.7015 112.313 28.6111C119.937 35.9962 98.5501 40.4525 92.3035 29.9913Z" fill="#FCB6D9"/>
<path d="M97.1547 54.4878C92.7457 76.8761 79.7311 93.1668 52.9828 87.8991C26.2346 82.6315 19.6759 62.4862 24.0849 40.0979C28.4939 17.7097 41.5535 7.32076 67.8322 12.4959C89.938 16.8493 101.564 32.0995 97.1547 54.4878Z" fill="#E8E8E8"/>
<path d="M104.45 21.8704C105.037 21.986 106.454 22.4364 106.793 22.5888C107.205 22.6332 107.617 22.69 107.993 22.8894C108.743 23.2881 109.229 23.1144 109.986 23.2635C110.543 23.3733 111.214 23.1413 111.794 23.1668C112.175 23.1837 112.68 23.1271 113.042 23.0698C113.328 23.0252 114.264 23.2278 113.961 22.9052C113.38 22.2827 112.943 21.7592 111.936 21.518C111.657 21.4508 112.439 21.3784 112.665 21.2822C112.872 21.1944 114.36 20.9276 113.938 20.7772C113.136 20.4876 112.079 20.2672 111.209 20.1632C110.611 20.0913 109.996 20.0682 109.398 20.0268C109.055 20.0022 108.015 19.9901 107.745 19.8422C107.539 19.7281 109.689 18.643 109.586 18.6228C108.662 18.4407 107.596 18.6501 106.653 18.5805C106.115 18.5419 105.456 18.715 104.893 18.7236C104.248 18.7342 104.366 18.583 104.648 18.2959C104.839 18.101 105.142 18.0168 105.447 17.9239C106.104 17.7261 105.396 17.8405 105.065 17.8823C103.783 18.043 103.01 18.6557 102.098 19.2012C100.861 19.9398 99.6491 20.6465 99.0485 21.7613C98.8131 22.1984 99.3675 21.9526 99.7875 21.9405C100.398 21.9229 101.002 21.8401 101.611 21.8008C102.599 21.7353 103.414 21.6664 104.447 21.8698L104.45 21.8704Z" fill="#E8E8E8"/>
<path d="M26.7642 6.57138C26.1773 6.4558 24.6952 6.33526 24.3239 6.3478C23.9258 6.23271 23.5226 6.12881 23.0997 6.17098C22.254 6.25532 21.8707 5.91059 21.1136 5.76149C20.556 5.65169 20.0235 5.18271 19.4798 4.98691C19.1211 4.85813 18.6753 4.61429 18.3621 4.42412C18.1142 4.27434 17.1717 4.10708 17.5737 3.92312C18.3479 3.56767 18.9503 3.24876 19.9708 3.40691C20.2548 3.4506 19.5583 3.08701 19.3854 2.91222C19.2278 2.75268 17.9518 1.94147 18.3989 1.9622C19.2514 1.99852 20.313 2.19536 21.1572 2.42891C21.7383 2.58925 22.3154 2.80082 22.8849 2.98946C23.2113 3.09658 24.1784 3.47978 24.484 3.44511C24.718 3.41776 23.1405 1.59869 23.2432 1.61892C24.1676 1.80096 25.0741 2.39866 25.9735 2.69205C26.4861 2.86029 27.0302 3.27036 27.5475 3.49157C28.1406 3.74605 28.0886 3.5614 27.9364 3.18875C27.8338 2.936 27.5852 2.74324 27.3383 2.54165C26.8047 2.10917 27.4168 2.48367 27.7076 2.64802C28.8324 3.28259 29.3154 4.14263 29.9526 4.99326C30.817 6.14564 31.6707 7.2592 31.8038 8.51845C31.8559 9.01215 31.4361 8.57454 31.0491 8.40348C30.4912 8.15594 29.9631 7.85 29.4181 7.58357C28.5284 7.14828 27.8001 6.77538 26.7672 6.57196L26.7642 6.57138Z" fill="#E8E8E8"/>
<path d="M81.0273 32.5163C85.1002 25.8436 91.312 28.1378 94.3222 29.7709C105.877 49.872 88.4224 77.2363 83.7513 80.8172C80.0172 83.68 72.5803 74.2328 69.3289 69.1498C68.9163 68.3189 67.298 65.8095 64.1049 62.4117C60.1156 58.1656 65.5384 50.7521 67.1235 47.0836C68.7081 43.4181 75.9334 40.8604 81.0238 32.5186L81.0273 32.5163Z" fill="#A1634B"/>
<path d="M78.938 70.369C83.719 71.3105 88.322 68.3814 89.219 63.8266C90.116 59.2717 86.9673 54.8161 82.1863 53.8745C77.4052 52.933 72.8023 55.8621 71.9053 60.4169C71.0083 64.9717 74.1569 69.4274 78.938 70.369Z" fill="black"/>
<path d="M46.5154 39.5678C43.2776 35.0658 34.0354 27.9127 29.8189 24.8977C17.7251 45.8307 24.8341 67.0818 29.899 75.092C36.6911 71.1425 50.6335 62.2768 52.0815 58.4222C53.8893 53.6074 50.5624 45.1929 46.5184 39.5683L46.5154 39.5678Z" fill="#A1634B"/>
<path d="M36.534 62.0183C41.2341 62.9439 45.7713 60.0018 46.6683 55.447C47.5653 50.8922 44.4824 46.4494 39.7824 45.5238C35.0823 44.5982 30.5451 47.5403 29.6481 52.0951C28.7511 56.6499 31.834 61.0927 36.534 62.0183Z" fill="black"/>
<path d="M37.1141 59.0728C40.1934 59.6792 43.1572 57.7971 43.7338 54.869C44.3105 51.941 42.2816 49.0757 39.2023 48.4692C36.123 47.8628 33.1593 49.7449 32.5826 52.673C32.006 55.6011 34.0348 58.4664 37.1141 59.0728Z" fill="black"/>
<path d="M39.9735 52.2927C40.7839 52.4523 41.5706 51.9223 41.7308 51.109C41.891 50.2956 41.3639 49.5069 40.5536 49.3473C39.7432 49.1877 38.9565 49.7177 38.7963 50.5311C38.6361 51.3444 39.1632 52.1332 39.9735 52.2927Z" fill="white"/>
<path d="M82.5242 60.6724C83.3345 60.832 84.1213 60.302 84.2815 59.4886C84.4416 58.6753 83.9146 57.8865 83.1042 57.7269C82.2939 57.5674 81.5071 58.0973 81.3469 58.9107C81.1868 59.7241 81.7138 60.5128 82.5242 60.6724Z" fill="white"/>
<path d="M71.992 76.895C71.0059 81.9023 70.9132 88.9825 53.2444 85.5029C35.5756 82.0233 38.8024 75.5603 39.7885 70.5531C40.7746 65.5458 46.9834 62.5462 57.3628 64.5903C67.7423 66.6343 72.9787 71.8848 71.992 76.895Z" fill="#FC9BCE"/>
<path d="M68.3699 81.0466C67.2027 83.7694 65.1234 85.4894 63.7299 84.8876C62.3359 84.2887 62.9936 81.9552 64.1608 79.2325C65.328 76.5098 66.5646 74.4249 67.961 75.0273C69.3551 75.6262 69.5406 78.3215 68.3699 81.0466Z" fill="#F34FA5"/>
<path d="M41.3887 75.7392C41.4423 78.7024 42.7177 81.08 44.2388 81.0491C45.757 81.0176 46.0267 78.6108 45.9732 75.6477C45.9196 72.6845 45.5593 70.2882 44.0412 70.3197C42.523 70.3512 41.3352 72.7761 41.3887 75.7392Z" fill="#F34FA5"/>
<path d="M88.9844 18.5034C86.2905 20.5889 81.0642 21.9585 78.786 22.3818C79.0554 24.543 80.5268 28.4799 84.2491 26.9457C87.9744 25.4121 89.5555 22.8321 89.8845 21.7342C90.7068 19.7881 91.6783 16.4179 88.9844 18.5034Z" fill="#FFE5B9"/>
<path d="M43.2351 9.49385C44.9371 12.4451 49.2539 15.694 51.2014 16.9495C50.1327 18.8471 47.2785 21.9322 44.4158 19.1012C41.5502 16.2696 41.0654 13.2828 41.1801 12.1427C41.1572 10.0301 41.536 6.54323 43.238 9.49443L43.2351 9.49385Z" fill="#FFE5B9"/>
</g>
<defs>
<clipPath id="clip0_283_4303">
<rect width="105.869" height="78.9529" fill="white" transform="translate(15.2554) rotate(11.1409)"/>
</clipPath>
</defs>
</svg>
