<svg width="1340" height="800" viewBox="0 0 1340 800" fill="none" xmlns="http://www.w3.org/2000/svg">
<path d="M1344 564.32H-2.09V795.48H1344V564.32Z" fill="url(#paint0_radial_22_2)"/>
<path d="M1344 -5.67999H-4V595.32H1344V-5.67999Z" fill="#323440"/>
<path opacity="0.43" d="M708 79.32C716.84 79.55 943 707.7 943 707.7C943 707.7 859.95 726.7 634.57 728.24C413.5 729.76 371.36 708.19 367.42 707.7L638 80.18" fill="url(#paint1_linear_22_2)"/>
<path d="M37.67 600.84H1317.74C1317.74 600.84 1499.18 798.99 718.43 798.99C-217.61 798.99 37.67 600.84 37.67 600.84Z" fill="#AD6346"/>
<path d="M37.67 580.18H1317.74C1317.74 580.18 1499.18 778.33 718.43 778.33C-217.61 778.33 37.67 580.18 37.67 580.18Z" fill="url(#paint2_radial_22_2)"/>
<path d="M162.27 580.79L68.06 699.31" stroke="#C19678" stroke-miterlimit="10"/>
<path d="M230.35 580.79L131.27 727.27" stroke="#C19678" stroke-miterlimit="10"/>
<path d="M202.39 744.9L297.21 580.79" stroke="#C19678" stroke-miterlimit="10"/>
<path d="M333.68 761.92L392.03 580.79" stroke="#C19678" stroke-miterlimit="10"/>
<path d="M413.91 769.21L447.94 580.79" stroke="#C19678" stroke-miterlimit="10"/>
<path d="M494.14 772.86L511.16 580.79" stroke="#C19678" stroke-miterlimit="10"/>
<path d="M573.16 777.11L575.59 581.39" stroke="#C19678" stroke-miterlimit="10"/>
<path d="M652.17 777.72L644.88 580.79" stroke="#C19678" stroke-miterlimit="10"/>
<path d="M732.4 777.72L720.25 580.79" stroke="#C19678" stroke-miterlimit="10"/>
<path d="M810.2 777.72L784.68 577.14" stroke="#C19678" stroke-miterlimit="10"/>
<path d="M879.5 774.07L846.67 580.79" stroke="#C19678" stroke-miterlimit="10"/>
<path d="M968.24 767.99L905.02 580.79" stroke="#C19678" stroke-miterlimit="10"/>
<path d="M1036.31 764.35L962.16 579.57" stroke="#C19678" stroke-miterlimit="10"/>
<path d="M1121.41 752.19L1027.8 580.79" stroke="#C19678" stroke-miterlimit="10"/>
<path d="M1189.48 737.6L1101.96 580.79" stroke="#C19678" stroke-miterlimit="10"/>
<path d="M1262.42 713.29L1168.82 580.79" stroke="#C19678" stroke-miterlimit="10"/>
<path d="M1318.34 676.82L1229.6 580.79" stroke="#C19678" stroke-miterlimit="10"/>
<path d="M1032.95 -5.75C1032.95 -5.75 935.39 238.16 1135.65 355.79L1066.27 584.52C1059.83 603.3 1110.89 605.48 1133.1 606.59C1143.22 607.1 1154.56 605.87 1166.29 601.3C1166.29 601.3 1211.82 643.58 1276.86 594.8C1276.86 594.8 1300.71 629.85 1341.9 610.7L1339.52 -9" fill="#D64C5C"/>
<path d="M1057.05 64.7C1056.98 61.61 1026.31 241.29 1134.53 292.28C1149.92 299.53 1134.45 292.68 1134.45 292.68C1134.45 292.68 1060.74 230.11 1057.05 64.7Z" fill="#A03746"/>
<path d="M1166.13 594.65L1202.06 416.16C1202.06 416.16 1155.14 500.18 1166.13 594.65Z" fill="#A03746"/>
<path d="M1249.97 416.16C1246.44 409.04 1273.18 597.48 1273.18 597.48C1273.18 597.48 1273.49 463.54 1249.97 416.16Z" fill="#A03746"/>
<path d="M1169.1 22.05C1170.35 25.16 1120.47 248.77 1231.32 332.48C1231.32 332.48 1162.36 215.67 1170.35 25.17" fill="#A03746"/>
<path d="M1258.45 30.03C1256.75 33.9 1189.66 173.75 1288.78 290.2C1288.78 290.2 1227.79 183.52 1256.74 33.9" fill="#A03746"/>
<path d="M1181.62 375.9C1165.63 375.9 1149.33 374.58 1133.34 371.34C1129.23 370.51 1126.58 366.51 1127.41 362.4C1128.24 358.29 1132.25 355.64 1136.35 356.47C1229.19 375.24 1339.74 325.38 1340.81 324.88V340.06C1336.82 342.83 1315.25 352.76 1275.93 362.85C1250.61 369.35 1216.9 375.9 1181.62 375.9Z" fill="#FDE176"/>
<path d="M316.15 -1.32999C316.15 -1.32999 416.62 249.84 210.39 370.98L281.83 606.52C288.46 625.86 235.88 628.1 213.01 629.25C202.59 629.77 190.91 628.51 178.83 623.81C178.83 623.81 131.94 667.35 64.96 617.11C64.96 617.11 40.4 653.2 -2.01999 633.48L0.450011 -4.67999" fill="#D64C5C"/>
<path d="M291.33 71.22C291.4 68.04 322.99 253.07 211.54 305.58C195.69 313.05 211.63 305.99 211.63 305.99C211.63 305.99 287.54 241.56 291.33 71.22Z" fill="#A03746"/>
<path d="M179 616.95L142 433.14C142 433.14 190.32 519.66 179 616.95Z" fill="#A03746"/>
<path d="M35.73 411.93C39.37 404.6 11.83 598.65 11.83 598.65C11.83 598.65 11.51 460.72 35.73 411.93Z" fill="#A03746"/>
<path d="M175.94 27.29C174.65 30.5 226.02 260.77 111.86 346.96C111.86 346.96 182.87 226.67 174.65 30.49" fill="#A03746"/>
<path d="M83.94 35.5C85.69 39.48 154.78 183.5 52.7 303.42C52.7 303.42 115.51 193.56 85.69 39.49" fill="#A03746"/>
<path d="M163.05 391.68C126.71 391.68 91.98 385.04 65.93 378.24C25.11 367.58 -0.82 354.2 -2 353.66V338.03C-0.76 338.61 114.12 391 209.67 371.68C213.9 370.83 218.02 373.56 218.88 377.79C219.74 382.02 217 386.14 212.77 387C196.31 390.33 179.51 391.69 163.05 391.69V391.68Z" fill="#FDE176"/>
<path d="M680.43 21.32C680.43 21.32 667.1 21.32 665.99 22.43C664.88 23.54 662.66 46.86 662.66 46.86H684.51L680.42 21.32H680.43Z" fill="#474B5B"/>
<path d="M675.99 89.05C696.844 89.05 713.75 84.5773 713.75 79.06C713.75 73.5427 696.844 69.07 675.99 69.07C655.136 69.07 638.23 73.5427 638.23 79.06C638.23 84.5773 655.136 89.05 675.99 89.05Z" fill="#FFD7A1"/>
<path d="M660.63 46.86C660.63 46.86 638.23 53.52 638.23 65.74V80.29C638.23 80.29 653.78 76.84 674.88 76.84C695.98 76.84 713.97 80.29 713.97 80.29V67.07C713.97 67.07 708.51 47.97 686.14 46.86C663.77 45.75 660.63 46.86 660.63 46.86Z" fill="#515566"/>
<path opacity="0.66" d="M624 725.32C868.662 725.32 1067 706.068 1067 682.32C1067 658.572 868.662 639.32 624 639.32C379.338 639.32 181 658.572 181 682.32C181 706.068 379.338 725.32 624 725.32Z" fill="url(#paint3_radial_22_2)"/>
<path d="M772.1 66.86C763.35 63.07 262.92 535.06 262.92 535.06L826 795.39L836 96.31" fill="url(#paint4_linear_22_2)"/>
<path d="M833.12 14.32V-3.67999H827.85L828.75 13.59L833.12 14.32Z" fill="#2E323A"/>
<path d="M835.82 15.36L829.12 37.19L831.78 42.3L825.86 58.91L812.86 54.17L828.47 7.25L835.82 15.36Z" fill="#474B5B"/>
<path d="M828.75 7.29001L822.12 9.32001L806.33 52.05L815.1 54.51L828.75 7.29001Z" fill="#2E323A"/>
<path d="M836.21 96.51C836.21 96.51 821.61 101.17 794 87.89C766.39 74.61 772.05 67.31 772.05 67.31L812.12 70.31L831.12 83.31C833.12 84.31 837.58 95.07 836.2 96.51H836.21Z" fill="#F9E1B1"/>
<path d="M836.12 96.32C836.12 96.32 802.33 68.2 772.12 67.32C772.12 67.32 779.88 43.36 794.56 46.71C809.24 50.06 827.04 58.59 827.04 58.59C827.04 58.59 845.46 66.06 840.78 81.21L836.12 96.32Z" fill="#515566"/>
<path d="M790.16 71.11C785.16 69.05 305 702.32 305 702.32C305 702.32 329 714.32 495 718.32C661 722.32 710 709.32 710 709.32L815.71 83.48" fill="url(#paint5_linear_22_2)"/>
<path d="M520 17.32V-0.679993H525.28L524.38 16.59L520 17.32Z" fill="#2E323A"/>
<path d="M517.3 18.36L524.01 40.19L521.35 45.3L527.27 61.91L540.26 57.17L524.65 10.25L517.3 18.36Z" fill="#474B5B"/>
<path d="M524.38 10.29L531 12.32L546.8 55.05L538.03 57.51L524.38 10.29Z" fill="#2E323A"/>
<path d="M516.92 99.51C516.92 99.51 531.52 104.17 559.13 90.89C586.74 77.61 581.08 70.31 581.08 70.31L541.01 73.31L522.01 86.31C520.01 87.31 515.55 98.07 516.93 99.51H516.92Z" fill="#F9E1B1"/>
<path d="M517 99.32C517 99.32 550.79 71.2 581 70.32C581 70.32 573.24 46.36 558.56 49.71C543.88 53.06 526.08 61.59 526.08 61.59C526.08 61.59 507.66 69.06 512.34 84.21L517 99.32Z" fill="#515566"/>
<path d="M576 70.32C584.75 66.53 1076.08 548.07 1076.08 548.07L513 808.4L521.7 101.32" fill="url(#paint6_linear_22_2)"/>
<path d="M558.84 74.11C563.84 72.05 1044 705.32 1044 705.32C1044 705.32 1020 717.32 854 721.32C688 725.32 639 712.32 639 712.32L533.29 86.48" fill="url(#paint7_linear_22_2)"/>
<path d="M689.03 79.11C695.03 79.34 856.38 722.32 856.38 722.32C856.38 722.32 800.01 742.32 647.01 743.32C494.01 744.32 465.66 722.32 465.66 722.32L657.52 79.62" fill="url(#paint8_linear_22_2)"/>
<path d="M479.6 168.26C538.79 176.54 806.87 163.45 871.99 192.38C929.7 224.92 888.85 267.44 960.38 286.67C1031.9 305.9 1064.95 383.12 1064.95 490.81C1064.95 649.58 1041.27 689.53 994.91 711.22C948.54 732.92 356.36 750.29 248.33 684.71C140.3 619.13 142.79 519.09 197.05 319.88C251.31 120.67 405.61 157.91 479.6 168.27V168.26Z" fill="#7385D6" stroke="#7385D6" stroke-width="0.5" stroke-miterlimit="10"/>
<path opacity="0.09" d="M154.6 522.06C154.6 522.06 283.62 662.36 625 645.32C966.38 628.28 1066 514.32 1066 514.32C1066 514.32 1056.28 651.82 1020 689.32C983.72 726.82 792.5 731.61 792.5 731.61C792.5 731.61 428.76 729.72 363 716.32C297.24 702.92 157 680.32 154.6 522.06Z" fill="#1A1515"/>
<path opacity="0.09" d="M219 658.32C219 658.32 323.64 705.33 668.37 700.33C1013.11 695.34 1041 666.32 1041 666.32C1041 666.32 1024.12 699.34 987.48 710.32C950.84 721.3 837.52 725.61 837.52 725.61C837.52 725.61 451.78 725.17 385.38 721.25C318.98 717.33 257.38 692.32 219 658.32Z" fill="#1A1515"/>
<path opacity="0.2" d="M244.32 633.57L248.66 471.69C248.91 462.33 256.52 454.89 265.8 454.93L953.96 457.65C963.15 457.69 970.67 465.06 970.96 474.33L976 633.5C976.31 643.23 968.57 651.28 958.93 651.28H261.39C251.78 651.28 244.06 643.28 244.32 633.59V633.57Z" fill="black"/>
<path opacity="0.2" d="M906.6 217.32C898.3 200.55 857.29 194.51 840.12 192.22C811.81 188.45 781.71 184.65 753.03 185.05C672.35 186.57 590.2 188.38 509.23 183.4C490.82 182.05 471.6 180.2 453.23 175.68C428.97 170.15 404.11 166.77 379.21 167.11C351.17 167.54 323.64 175.92 299.29 190.35C274.38 204.84 241.2 224.7 230 251.32C231.73 244.16 235.2 245.22 238 238.32C246.63 217.3 270.42 197.81 289 184.32C326.7 157.19 379.87 153.21 424.92 157.53C439.73 158.79 457.42 160.57 472 163.32C500.43 167.65 527.19 167.48 556 168.32C621.64 169.89 687.17 171.33 753.22 174.19C793.7 176.39 836.07 172.35 873.55 189.82C880.26 193.21 886.76 202.27 891.91 207.8C894.43 210.55 896.75 202.7 897.6 206.33L906.6 217.33V217.32Z" fill="black"/>
<path d="M1083.75 131.1C1083.75 131.1 1017 120.32 951 161.32C922.94 178.75 919.49 251.45 919.49 251.45C919.49 251.45 888 97.32 1083.74 131.1H1083.75Z" fill="black"/>
<path opacity="0.09" d="M1022.5 355.39C1022.5 355.39 1100.21 332.94 1120.1 295.13C1120.1 295.13 1122.29 313.33 1129.15 312.82C1129.15 312.82 1103.7 365.88 1024.35 356.1" fill="#1A1515"/>
<path d="M1104.72 654.89L1110.14 698.22L1032.5 696.41L1039.23 654.28L1025.28 644.05L1009.03 768.63C1009.03 768.63 1007.22 777.16 1016.25 776.51C1025.28 775.85 1023.47 770.44 1023.47 770.44L1032.5 705.44L1111.94 709.05L1120.97 772.24C1120.97 772.24 1119.16 779.46 1128.19 779.46C1137.22 779.46 1133.61 770.43 1133.61 770.43L1121.33 650.9L1104.72 654.87V654.89Z" fill="#6D4930"/>
<path opacity="0.09" d="M1105.29 655.98C1104.95 656.48 1106.95 668.48 1106.95 668.48L1122.95 667.48L1120.78 654.38L1105.28 655.98H1105.29Z" fill="#1A1515"/>
<path opacity="0.09" d="M1022.29 664.88C1021.95 664.38 1023.95 652.38 1023.95 652.38L1039.95 653.38L1037.78 666.48L1022.28 664.88H1022.29Z" fill="#1A1515"/>
<path d="M1016.25 606.2V647.47C1016.25 647.47 1023.26 658.63 1075.83 659.26C1128.19 659.89 1135.41 650.15 1135.41 650.15L1134.66 606.2L1072.21 609.34L1016.24 606.2H1016.25Z" fill="#A488BF"/>
<path d="M1075.83 618.36C1108.74 618.36 1135.41 611.895 1135.41 603.92C1135.41 595.945 1108.74 589.48 1075.83 589.48C1042.92 589.48 1016.25 595.945 1016.25 603.92C1016.25 611.895 1042.92 618.36 1075.83 618.36Z" fill="#D5ACF6"/>
<path opacity="0.09" d="M1135.61 649.98C1135.61 649.98 1122.25 661.48 1066.35 658.98C1016.23 656.74 1065.62 658.98 1065.62 658.98C1065.62 658.98 1109.25 638.48 1094.25 619.48L1093.05 617.78C1093.05 617.78 1130.67 614.93 1134.96 606.21L1135.61 649.99V649.98Z" fill="#1A1515"/>
<path opacity="0.09" d="M1032.5 696.42L1031.11 698.54L1111.96 700.48L1110.13 698.23L1032.5 696.42Z" fill="#1A1515"/>
<path opacity="0.22" d="M1124.96 606.98C1124.96 611.12 1107.96 611.48 1075.96 609.48C1046.96 613.48 1022.96 611.12 1022.96 606.98C1022.96 602.84 1045.79 599.48 1073.96 599.48C1102.13 599.48 1124.96 602.84 1124.96 606.98Z" fill="#1A1515"/>
<path d="M916.38 233.72C915.5 141.17 1000.84 123.96 1043.62 126.93C1137.86 120.35 1160.96 205.09 1165.36 222.89C1169.76 240.69 1171.96 296.41 1181.13 326.2C1190.3 355.99 1208.63 351.35 1209 395.85C1209.37 440.35 1158.03 436.86 1165 432.61C1170.57 429.2 1171.72 413.65 1171.6 406.3C1166.91 423.94 1150.82 431.19 1143.37 432.61C1106.33 431.84 1025.81 430.75 1000 432.61C974.19 434.47 969.2 411.2 969.93 399.33C967.88 409.85 970.79 425.9 972.5 432.61C961.25 433 933.34 433.54 911.63 432.61C889.92 431.68 890.36 391.21 893.3 371.09C879.52 392.33 880.45 412.14 885.23 421C869.68 399.02 880.71 370.31 888.16 358.7C907.08 329.25 917.27 326.28 916.39 233.72H916.38Z" fill="#1A1515"/>
<path d="M1061.69 515.94L1124.14 530.15L1110.36 454.77L1011.72 478.89L1009.57 556.85L1061.69 515.93V515.94Z" fill="#181B21"/>
<path d="M921.28 330.69C940.9 325 940.25 287.04 940.37 284.03C947.74 286.48 960.76 295.87 953.84 313.88C946.92 331.88 929.25 332.59 921.28 330.69Z" fill="#1A1515"/>
<path d="M1043.17 357.44C1100.98 357.44 1147.84 310.578 1147.84 252.77C1147.84 194.962 1100.98 148.1 1043.17 148.1C985.362 148.1 938.5 194.962 938.5 252.77C938.5 310.578 985.362 357.44 1043.17 357.44Z" fill="#F2AD84"/>
<path d="M1147.62 257.09C1153.26 199.63 1108.66 164.71 1085.66 154.43C1065.24 145.31 1024.82 144.63 1006.48 152.57C953.79 175.39 936.62 228.43 938.95 252.2C940.77 252.24 949.97 260.55 990.12 253.29L996.39 232.12L1000.01 253.63C1063.87 237.45 1121.65 269.34 1147.62 257.09Z" fill="black"/>
<path d="M1149.55 252.98C1156.46 195.84 1110.48 160.11 1086.62 149.38C1065.45 139.86 1023.22 138.34 1003.91 145.87C948.44 167.5 929.56 220 931.57 243.73C933.48 243.81 942.94 252.28 985.03 245.89L1003.91 217.01L995.35 246.44C1062.37 231.66 1122.19 264.64 1149.54 252.98H1149.55Z" fill="#1A1515"/>
<path d="M987.61 298C999.981 298 1010.01 288.356 1010.01 276.46C1010.01 264.564 999.981 254.92 987.61 254.92C975.239 254.92 965.21 264.564 965.21 276.46C965.21 288.356 975.239 298 987.61 298Z" fill="#423737"/>
<path d="M1092.71 301.44C1105.08 301.44 1115.11 291.796 1115.11 279.9C1115.11 268.004 1105.08 258.36 1092.71 258.36C1080.34 258.36 1070.31 268.004 1070.31 279.9C1070.31 291.796 1080.34 301.44 1092.71 301.44Z" fill="#423737"/>
<path d="M1051.36 318.67C1049.05 321.92 1042.55 326.47 1034.99 318.67" stroke="#844B4B" stroke-width="5" stroke-linecap="round"/>
<path d="M975.55 275.59C978.88 275.59 981.58 272.89 981.58 269.56C981.58 266.23 978.88 263.53 975.55 263.53C972.22 263.53 969.52 266.23 969.52 269.56C969.52 272.89 972.22 275.59 975.55 275.59Z" fill="white"/>
<path d="M1080.65 279.04C1083.98 279.04 1086.68 276.34 1086.68 273.01C1086.68 269.68 1083.98 266.98 1080.65 266.98C1077.32 266.98 1074.62 269.68 1074.62 273.01C1074.62 276.34 1077.32 279.04 1080.65 279.04Z" fill="white"/>
<path d="M1048.35 365.689L1031.41 369.369C1008.17 374.42 993.421 397.358 998.472 420.602L1009.41 470.957C1014.47 494.201 1037.4 508.95 1060.65 503.899L1077.58 500.219C1100.83 495.168 1115.58 472.23 1110.52 448.985L1099.58 398.631C1094.53 375.386 1071.59 360.638 1048.35 365.689Z" fill="#EDF3FD"/>
<path d="M1083.71 387.58L1119.58 414.42C1123.39 417.27 1128.79 416.49 1131.64 412.68C1134.49 408.87 1133.71 403.47 1129.9 400.62L1094.03 373.78C1090.22 370.93 1084.82 371.71 1081.97 375.52C1079.12 379.33 1079.9 384.73 1083.71 387.58Z" fill="#363739"/>
<path d="M1118.94 412.94L1140.65 452.12C1142.96 456.28 1148.2 457.79 1152.36 455.48C1156.52 453.17 1158.03 447.93 1155.72 443.77L1134.01 404.59C1131.7 400.43 1126.46 398.92 1122.3 401.23C1118.14 403.54 1116.63 408.78 1118.94 412.94Z" fill="#363739"/>
<path d="M1042.21 493.3C1036.55 494.01 1032.53 499.18 1033.24 504.84L1044.36 593.74C1045.07 599.4 1050.24 603.42 1055.9 602.71C1061.56 602 1065.58 596.83 1064.87 591.17L1053.75 502.27C1053.04 496.61 1047.87 492.59 1042.21 493.3Z" fill="#363739"/>
<path d="M1080.47 487.71C1074.86 488.77 1071.17 494.18 1072.23 499.79L1089.06 588.77C1090.12 594.38 1095.53 598.07 1101.14 597.01C1106.75 595.95 1110.44 590.54 1109.38 584.93L1092.55 495.95C1091.49 490.34 1086.08 486.65 1080.47 487.71Z" fill="#363739"/>
<path d="M1111.52 458.5L1011.12 485.41C1015.25 495.2 1033.44 512.16 1073.12 501.62C1112.8 491.09 1115.26 468.48 1111.52 458.49V458.5Z" fill="#363739"/>
<path d="M1041.45 347.95C1035.5 347.95 1030.68 352.77 1030.68 358.72V367.33C1030.68 373.28 1035.5 378.1 1041.45 378.1C1047.4 378.1 1052.22 373.28 1052.22 367.33V358.72C1052.22 352.77 1047.4 347.95 1041.45 347.95Z" fill="#F2AD84"/>
<path d="M1053.08 356.57C1047.01 357.87 1034.99 357.43 1029.82 356.57C1033.19 363.07 1042.56 372.17 1053.08 356.57Z" fill="black"/>
<g opacity="0.2">
<path d="M983.73 333.31C989.203 333.31 993.64 328.873 993.64 323.4C993.64 317.927 989.203 313.49 983.73 313.49C978.257 313.49 973.82 317.927 973.82 323.4C973.82 328.873 978.257 333.31 983.73 333.31Z" fill="#FF837B"/>
</g>
<g opacity="0.2">
<path d="M1102.61 333.31C1108.08 333.31 1112.52 328.873 1112.52 323.4C1112.52 317.927 1108.08 313.49 1102.61 313.49C1097.14 313.49 1092.7 317.927 1092.7 323.4C1092.7 328.873 1097.14 333.31 1102.61 333.31Z" fill="#FF837B"/>
</g>
<path d="M1164.08 473.58C1169.86 469.59 1171.31 461.67 1167.32 455.89L1163.07 449.73C1159.08 443.95 1151.16 442.5 1145.38 446.49C1139.6 450.48 1138.15 458.4 1142.14 464.18L1146.39 470.34C1150.38 476.12 1158.3 477.57 1164.08 473.58Z" fill="#F2AD84"/>
<path d="M1141.41 470.28C1143.76 470.72 1146.01 469.17 1146.45 466.83L1147.58 460.81C1148.02 458.46 1146.47 456.21 1144.13 455.77C1141.78 455.33 1139.53 456.88 1139.09 459.22L1137.96 465.24C1137.52 467.59 1139.07 469.84 1141.41 470.28Z" fill="#F2AD84"/>
<path d="M1022.93 600.36C1022.93 607.5 1032.57 605.1 1044.47 605.1C1056.37 605.1 1066.01 607.5 1066.01 600.36C1066.01 593.22 1056.37 587.44 1044.47 587.44C1032.57 587.44 1022.93 593.23 1022.93 600.36Z" fill="#29292B"/>
<path d="M1080.78 602.03C1081.32 609.15 1090.75 606.03 1102.61 605.13C1114.47 604.23 1124.26 605.9 1123.73 598.78C1123.19 591.66 1113.14 586.62 1101.28 587.52C1089.42 588.42 1080.24 594.91 1080.78 602.03Z" fill="#29292B"/>
<path d="M936.78 285.07C942.016 285.07 946.26 278.901 946.26 271.29C946.26 263.68 942.016 257.51 936.78 257.51C931.544 257.51 927.3 263.68 927.3 271.29C927.3 278.901 931.544 285.07 936.78 285.07Z" fill="#F2AD84"/>
<path d="M1148.7 285.07C1153.94 285.07 1158.18 278.901 1158.18 271.29C1158.18 263.68 1153.94 257.51 1148.7 257.51C1143.46 257.51 1139.22 263.68 1139.22 271.29C1139.22 278.901 1143.46 285.07 1148.7 285.07Z" fill="#F2AD84"/>
<path d="M1143.52 293.25C1153.7 274.09 1151.33 251.55 1148.87 242.68C1148.64 225.84 1143.49 204.66 1124.78 254.6C1106.07 304.54 1136.91 328.51 1154.67 334.25L1153.31 333.5C1145.8 328.07 1133.34 312.41 1143.52 293.25Z" fill="#1A1515"/>
<path d="M933.25 277.39C929.6 256 938.92 235.35 944.04 227.69C949.54 211.78 961.08 193.28 963.17 246.57C965.26 299.86 928.46 312.94 909.79 312.82L911.32 312.53C920.15 309.73 936.9 298.77 933.25 277.39Z" fill="#1A1515"/>
<path d="M1005.85 383.46L964.2 366.96C959.78 365.21 954.77 367.37 953.02 371.8C951.27 376.22 953.43 381.23 957.86 382.98L999.51 399.48C1003.93 401.23 1008.94 399.07 1010.69 394.64C1012.44 390.22 1010.28 385.21 1005.85 383.46Z" fill="#363739"/>
<path d="M966.27 368.07L935.05 335.95C931.73 332.54 926.28 332.46 922.87 335.78C919.46 339.1 919.38 344.55 922.7 347.96L953.92 380.08C957.24 383.49 962.69 383.57 966.1 380.25C969.51 376.93 969.59 371.48 966.27 368.07Z" fill="#363739"/>
<path d="M906.7 319.11C901.9 324.24 902.17 332.29 907.3 337.08L912.76 342.19C917.89 346.99 925.94 346.72 930.73 341.59C935.53 336.46 935.26 328.41 930.13 323.62L924.67 318.51C919.54 313.71 911.49 313.98 906.7 319.11Z" fill="#F2AD84"/>
<path d="M916.54 324.27L860.12 210.56" stroke="#FFCB75" stroke-width="5" stroke-linecap="round"/>
<path d="M912.27 320.73C911.58 322.82 912.71 325.08 914.8 325.77L920.49 327.65C922.58 328.34 924.84 327.21 925.53 325.12C926.22 323.03 925.09 320.77 923 320.08L917.31 318.2C915.22 317.51 912.96 318.64 912.27 320.73Z" fill="black"/>
<path d="M912.98 319.03C911.85 321.13 912.65 323.75 914.75 324.88L920.15 327.77C922.25 328.9 924.87 328.1 926 326C927.13 323.9 926.33 321.28 924.23 320.15L918.83 317.26C916.73 316.13 914.11 316.93 912.98 319.03Z" fill="#F2AD84"/>
<path d="M1082.37 369.92C1076.17 363.03 1061.41 363.6 1054.8 364.75C1064.1 373.36 1065.28 413.42 1064.71 432.37L1082.37 462.52L1108.21 440.98L1100.89 402.65C1097.3 394.61 1088.57 376.81 1082.37 369.92Z" fill="#363739"/>
<path d="M998.38 391.89C1000.67 382.91 1021.11 372.16 1027.49 370.11C1023.25 382.06 1040.8 418.09 1050.1 434.61L1048.45 469.51L1007.42 464.25L998.37 425.49C997.82 416.7 996.08 400.88 998.37 391.89H998.38Z" fill="#363739"/>
<path d="M1063.42 432.38C1067.21 412.74 1061.84 385.72 1058.68 374.66L1069.02 380.69L1076.34 374.66C1078.06 382.24 1068.44 416.3 1063.42 432.38Z" fill="#686A6E"/>
<path d="M1051.25 434.01C1038.78 418.37 1030.99 391.95 1028.66 380.69L1022.3 390.83L1013.02 388.89C1015.01 396.4 1039.34 422.11 1051.25 434.02V434.01Z" fill="#686A6E"/>
<path d="M1056.09 482.77L1008.71 474.16H1043.17L1064.71 467.7L1086.25 464.25L1110.8 451.76L1078.93 478.46L1064.72 470.71L1056.11 482.77H1056.09Z" fill="#EDF3FD"/>
<path d="M1010.87 558.58L1018.19 465.98L1006.99 462.1L1010.87 558.58Z" fill="#363739"/>
<path d="M1124.58 532.3C1126.65 510.25 1114.53 463.1 1108.21 442.28C1101.32 440.41 1089.86 438.66 1099.16 446.59C1108.46 454.52 1119.98 507.03 1124.57 532.3H1124.58Z" fill="#363739"/>
<path d="M1064.28 469.42C1065.23 469.42 1066 468.65 1066 467.7C1066 466.75 1065.23 465.98 1064.28 465.98C1063.33 465.98 1062.56 466.75 1062.56 467.7C1062.56 468.65 1063.33 469.42 1064.28 469.42Z" fill="#D9D9D9"/>
<path d="M1063.42 464.25C1064.37 464.25 1065.14 463.48 1065.14 462.53C1065.14 461.58 1064.37 460.81 1063.42 460.81C1062.47 460.81 1061.7 461.58 1061.7 462.53C1061.7 463.48 1062.47 464.25 1063.42 464.25Z" fill="#D9D9D9"/>
<path d="M1062.95 362.57C1055.36 361.05 1049.46 369.79 1047.46 374.35L1048.89 382.84C1065.5 390.18 1070.68 384.27 1071.19 380.39C1071.61 375.08 1070.54 364.08 1062.95 362.56V362.57Z" fill="#D64C5C"/>
<path d="M1023.01 369.29C1029.69 365.37 1038.12 371.7 1041.5 375.35L1042.93 383.84C1029.64 396.21 1022.81 392.32 1021.06 388.83C1018.93 383.95 1016.33 373.2 1023.01 369.28V369.29Z" fill="#D64C5C"/>
<path d="M1047.94 377.17L1053.1 371.5L1047.94 377.17ZM1048.65 378.79L1059.62 376.51L1048.65 378.79ZM1049.01 380.92L1056.94 381.33L1049.01 380.92Z" fill="#A03746"/>
<path d="M1042.42 378.1L1035.69 374.43L1042.42 378.1ZM1042.28 379.87L1031.16 381.31L1042.28 379.87ZM1042.64 381.99L1035.28 384.98L1042.64 381.99Z" fill="#A03746"/>
<path d="M1046.1 384.82C1049.19 384.82 1051.7 382.313 1051.7 379.22C1051.7 376.127 1049.19 373.62 1046.1 373.62C1043.01 373.62 1040.5 376.127 1040.5 379.22C1040.5 382.313 1043.01 384.82 1046.1 384.82Z" fill="#D64C5C"/>
<path d="M1039.73 464.25C1041.87 464.25 1043.61 462.513 1043.61 460.37C1043.61 458.227 1041.87 456.49 1039.73 456.49C1037.59 456.49 1035.85 458.227 1035.85 460.37C1035.85 462.513 1037.59 464.25 1039.73 464.25Z" fill="#181B21"/>
<path d="M1031.11 456.5C1033.25 456.5 1034.99 454.763 1034.99 452.62C1034.99 450.477 1033.25 448.74 1031.11 448.74C1028.97 448.74 1027.23 450.477 1027.23 452.62C1027.23 454.763 1028.97 456.5 1031.11 456.5Z" fill="#181B21"/>
<path d="M1022.5 448.75C1024.64 448.75 1026.38 447.013 1026.38 444.87C1026.38 442.727 1024.64 440.99 1022.5 440.99C1020.36 440.99 1018.62 442.727 1018.62 444.87C1018.62 447.013 1020.36 448.75 1022.5 448.75Z" fill="#181B21"/>
<defs>
<radialGradient id="paint0_radial_22_2" cx="0" cy="0" r="1" gradientUnits="userSpaceOnUse" gradientTransform="translate(1958.68 881.19) scale(0.595 0.61)">
<stop stop-color="#4C3E47"/>
<stop offset="1" stop-color="#282B3A"/>
</radialGradient>
<linearGradient id="paint1_linear_22_2" x1="659.99" y1="191.92" x2="655.2" y2="708.71" gradientUnits="userSpaceOnUse">
<stop stop-color="#F9C761" stop-opacity="0.6"/>
<stop offset="0.03" stop-color="#F9BA61" stop-opacity="0.55"/>
<stop offset="0.1" stop-color="#FAA062" stop-opacity="0.44"/>
<stop offset="0.18" stop-color="#FA8B63" stop-opacity="0.35"/>
<stop offset="0.27" stop-color="#FB7A64" stop-opacity="0.28"/>
<stop offset="0.39" stop-color="#FB6F64" stop-opacity="0.23"/>
<stop offset="0.55" stop-color="#FB6864" stop-opacity="0.21"/>
<stop offset="1" stop-color="#FC6765" stop-opacity="0.2"/>
</linearGradient>
<radialGradient id="paint2_radial_22_2" cx="0" cy="0" r="1" gradientUnits="userSpaceOnUse" gradientTransform="translate(670.93 679.25) scale(475.46 475.46)">
<stop stop-color="#FDEDD3"/>
<stop offset="1" stop-color="#FCE7CA"/>
</radialGradient>
<radialGradient id="paint3_radial_22_2" cx="0" cy="0" r="1" gradientUnits="userSpaceOnUse" gradientTransform="translate(621.14 684.584) scale(312.96 359.904)">
<stop/>
<stop offset="0.85" stop-opacity="0.59"/>
<stop offset="1" stop-opacity="0.2"/>
</radialGradient>
<linearGradient id="paint4_linear_22_2" x1="755.72" y1="181.739" x2="544.455" y2="645.14" gradientUnits="userSpaceOnUse">
<stop stop-color="#F9E1B1" stop-opacity="0.2"/>
<stop offset="0.65" stop-color="#FCE7CA" stop-opacity="0"/>
</linearGradient>
<linearGradient id="paint5_linear_22_2" x1="737.826" y1="195.282" x2="484.487" y2="756.914" gradientUnits="userSpaceOnUse">
<stop stop-color="#F9C761" stop-opacity="0.6"/>
<stop offset="0.03" stop-color="#F9BA61" stop-opacity="0.55"/>
<stop offset="0.1" stop-color="#FAA062" stop-opacity="0.44"/>
<stop offset="0.18" stop-color="#FA8B63" stop-opacity="0.35"/>
<stop offset="0.27" stop-color="#FB7A64" stop-opacity="0.28"/>
<stop offset="0.39" stop-color="#FB6F64" stop-opacity="0.23"/>
<stop offset="0.55" stop-color="#FB6864" stop-opacity="0.21"/>
<stop offset="1" stop-color="#FC6765" stop-opacity="0.2"/>
</linearGradient>
<linearGradient id="paint6_linear_22_2" x1="580.113" y1="191.78" x2="792.994" y2="658.73" gradientUnits="userSpaceOnUse">
<stop stop-color="#F9E1B1" stop-opacity="0.2"/>
<stop offset="0.65" stop-color="#FCE7CA" stop-opacity="0"/>
</linearGradient>
<linearGradient id="paint7_linear_22_2" x1="611.18" y1="198.334" x2="864.515" y2="759.957" gradientUnits="userSpaceOnUse">
<stop stop-color="#F9C761" stop-opacity="0.6"/>
<stop offset="0.03" stop-color="#F9BA61" stop-opacity="0.55"/>
<stop offset="0.1" stop-color="#FAA062" stop-opacity="0.44"/>
<stop offset="0.18" stop-color="#FA8B63" stop-opacity="0.35"/>
<stop offset="0.27" stop-color="#FB7A64" stop-opacity="0.28"/>
<stop offset="0.39" stop-color="#FB6F64" stop-opacity="0.23"/>
<stop offset="0.55" stop-color="#FB6864" stop-opacity="0.21"/>
<stop offset="1" stop-color="#FC6765" stop-opacity="0.2"/>
</linearGradient>
<linearGradient id="paint8_linear_22_2" x1="665.9" y1="194.51" x2="661" y2="723.05" gradientUnits="userSpaceOnUse">
<stop stop-color="#F9C761" stop-opacity="0.6"/>
<stop offset="0.03" stop-color="#F9BA61" stop-opacity="0.55"/>
<stop offset="0.1" stop-color="#FAA062" stop-opacity="0.44"/>
<stop offset="0.18" stop-color="#FA8B63" stop-opacity="0.35"/>
<stop offset="0.27" stop-color="#FB7A64" stop-opacity="0.28"/>
<stop offset="0.39" stop-color="#FB6F64" stop-opacity="0.23"/>
<stop offset="0.55" stop-color="#FB6864" stop-opacity="0.21"/>
<stop offset="1" stop-color="#FC6765" stop-opacity="0.2"/>
</linearGradient>
</defs>
</svg>
