<svg width="1340" height="800" viewBox="0 0 1340 800" fill="none" xmlns="http://www.w3.org/2000/svg">
<g clip-path="url(#clip0_284_9936)">
<rect width="1340" height="800" fill="white"/>
<path d="M1336.46 -4H-3V797.93H1336.46V-4Z" fill="#CFEBF9"/>
<path d="M1337.62 696.2V574.51C1337.23 573.82 1337 573 1337 572.04V420.73C1307.34 415.84 1277.07 414.73 1247.15 417.55C1224.94 419.64 1202.66 423.86 1180.47 421.5C1162.2 419.56 1144.73 413.23 1127.15 407.87C1039.94 381.3 947.66 378.24 856.61 375.37C820.92 374.25 785.23 373.12 749.53 372C681.21 369.85 612.34 367.73 544.98 379.49C471.37 392.34 399.7 421.7 325.03 419.49C269.26 417.84 213.94 398.51 158.66 406.1C139.97 408.66 121.75 414.28 102.98 416.07C68.02 419.41 32.74 409.4 -2.15997 411.95V803.5H340.61C341.65 803.5 342.54 803.7 343.29 804.05H691.01C691.86 803.54 692.92 803.23 694.21 803.23H1226.23C1227.43 803.1 1228.63 802.95 1229.84 802.85C1241.9 801.8 1254 802.35 1266.09 803.23H1337.92V698.04C1337.72 697.5 1337.61 696.9 1337.61 696.23L1337.62 696.2Z" fill="#78AF61"/>
<path d="M1225.4 400.52C1229.53 400.27 1233.57 399.01 1236.98 396.89C1238.96 398.64 1241.93 399.13 1244.7 399.03C1251.85 398.77 1258.69 394.85 1262.01 389.13C1265.33 383.41 1265.01 376.13 1261.23 370.64C1260.91 370.18 1260.56 369.65 1260.75 369.13C1260.86 368.83 1261.14 368.61 1261.39 368.39C1265.35 365.06 1267 359.82 1266.16 355C1265.32 350.18 1262.2 345.81 1258.06 342.67C1257.23 342.04 1256.33 341.42 1255.87 340.53C1255.43 339.68 1255.46 338.71 1255.37 337.77C1255.01 333.75 1252.32 329.96 1248.42 327.99C1244.52 326.02 1239.52 325.94 1235.54 327.77C1232.47 322.43 1227.29 317.8 1220.8 316.39C1214.31 314.98 1206.63 317.5 1203.81 322.95C1203.29 323.95 1202.9 325.07 1201.95 325.77C1200.34 326.95 1197.99 326.4 1195.93 326.17C1190.37 325.53 1184.51 327.89 1181.34 332.05C1179.14 334.93 1178.24 338.44 1177.46 341.87C1177.26 342.74 1177.05 343.65 1176.39 344.3C1175.82 344.87 1174.99 345.16 1174.21 345.48C1167.43 348.3 1163.08 355.27 1163.92 361.96C1164.38 365.6 1166.2 368.99 1168.26 372.16C1170.7 375.91 1173.99 379.74 1178.72 380.61C1179.3 380.72 1179.95 380.8 1180.32 381.21C1180.62 381.54 1180.67 381.99 1180.71 382.41C1181.49 389.38 1186.06 396.02 1192.9 399.33C1199.75 402.64 1208.72 402.28 1214.92 398.06C1214.84 399.02 1215.73 399.87 1216.74 400.19C1217.75 400.51 1218.86 400.42 1219.92 400.32C1223.16 400.03 1226.39 399.74 1229.63 399.45" fill="#98AF58"/>
<mask id="mask0_284_9936" style="mask-type:luminance" maskUnits="userSpaceOnUse" x="1163" y="316" width="104" height="86">
<path d="M1225.4 400.52C1229.53 400.27 1233.57 399.01 1236.98 396.89C1238.96 398.64 1241.93 399.13 1244.7 399.03C1251.85 398.77 1258.69 394.85 1262.01 389.13C1265.33 383.41 1265.01 376.13 1261.23 370.64C1260.91 370.18 1260.56 369.65 1260.75 369.13C1260.86 368.83 1261.14 368.61 1261.39 368.39C1265.35 365.06 1267 359.82 1266.16 355C1265.32 350.18 1262.2 345.81 1258.06 342.67C1257.23 342.04 1256.33 341.42 1255.87 340.53C1255.43 339.68 1255.46 338.71 1255.37 337.77C1255.01 333.75 1252.32 329.96 1248.42 327.99C1244.52 326.02 1239.52 325.94 1235.54 327.77C1232.47 322.43 1227.29 317.8 1220.8 316.39C1214.31 314.98 1206.63 317.5 1203.81 322.95C1203.29 323.95 1202.9 325.07 1201.95 325.77C1200.34 326.95 1197.99 326.4 1195.93 326.17C1190.37 325.53 1184.51 327.89 1181.34 332.05C1179.14 334.93 1178.24 338.44 1177.46 341.87C1177.26 342.74 1177.05 343.65 1176.39 344.3C1175.82 344.87 1174.99 345.16 1174.21 345.48C1167.43 348.3 1163.08 355.27 1163.92 361.96C1164.38 365.6 1166.2 368.99 1168.26 372.16C1170.7 375.91 1173.99 379.74 1178.72 380.61C1179.3 380.72 1179.95 380.8 1180.32 381.21C1180.62 381.54 1180.67 381.99 1180.71 382.41C1181.49 389.38 1186.06 396.02 1192.9 399.33C1199.75 402.64 1208.72 402.28 1214.92 398.06C1214.84 399.02 1215.73 399.87 1216.74 400.19C1217.75 400.51 1218.86 400.42 1219.92 400.32C1223.16 400.03 1226.39 399.74 1229.63 399.45" fill="white"/>
</mask>
<g mask="url(#mask0_284_9936)">
<path d="M1210.83 319.85C1198.81 324.63 1192.04 338.12 1196 349.41C1190.93 348.78 1186.31 353.36 1186.38 357.97C1186.45 362.58 1190.18 366.66 1194.73 368.77C1190.94 370.84 1190.76 376.13 1193.41 379.32C1196.06 382.51 1200.58 383.96 1204.94 384.63C1201.84 386.9 1204.13 391.91 1207.91 393.06C1211.69 394.21 1215.78 392.83 1219.48 391.48C1217.55 396.04 1221.21 401.78 1226.55 402.58C1218.52 407.84 1210.37 413.16 1201.08 416.3C1191.79 419.44 1181.06 420.19 1172.12 416.3C1163.69 412.64 1157.91 405.4 1153.37 398.03C1148.61 390.29 1144.81 382.08 1142.07 373.58C1140.5 368.71 1139.27 363.67 1139.64 358.62C1139.98 354.03 1141.63 349.6 1143.76 345.42C1149.23 334.66 1158.2 325.08 1170 319.9C1181.8 314.72 1196.53 314.44 1207.75 320.57C1209.19 321.36 1210.76 322.67 1210.28 324.13" fill="#92A54E"/>
<path d="M1210.7 319.36C1201.63 323.01 1194.83 331.83 1194.39 341.71C1194.27 344.36 1194.65 347.03 1195.52 349.54L1196 348.91C1192.09 348.47 1188.26 350.94 1186.66 354.46C1185.06 357.98 1186.27 362.05 1188.76 364.95C1190.32 366.77 1192.32 368.19 1194.48 369.21V368.35C1191.7 369.92 1190.66 373.18 1191.34 376.2C1192.13 379.71 1195.15 382.04 1198.32 383.38C1200.4 384.26 1202.6 384.78 1204.82 385.13L1204.7 384.22C1202.53 385.87 1202.65 388.72 1204.11 390.82C1206.09 393.68 1209.55 394.31 1212.83 393.88C1215.17 393.57 1217.41 392.79 1219.62 391.99L1219 391.37C1216.88 396.56 1221.24 402.26 1226.42 403.08L1226.3 402.17C1220.02 406.29 1213.69 410.41 1206.83 413.51C1200.03 416.58 1192.67 418.55 1185.17 418.46C1177.67 418.37 1171.13 416.21 1165.49 411.74C1160.2 407.55 1156.25 401.96 1152.84 396.21C1148.88 389.53 1145.59 382.46 1143.09 375.1C1141.8 371.29 1140.62 367.38 1140.22 363.37C1139.82 359.36 1140.33 355.56 1141.58 351.8C1143.73 345.38 1147.44 339.34 1151.83 334.21C1156.22 329.08 1161.32 324.91 1167.18 321.83C1173.04 318.75 1180.06 316.82 1186.93 316.55C1193.8 316.28 1200.77 317.52 1206.87 320.7C1208.02 321.3 1210.23 322.41 1209.79 324.03C1209.62 324.65 1210.59 324.92 1210.75 324.3C1211.17 322.74 1210 321.51 1208.82 320.68C1207.41 319.7 1205.75 319.01 1204.16 318.37C1200.9 317.06 1197.46 316.24 1193.97 315.82C1186.92 314.98 1179.64 315.85 1172.96 318.21C1166.46 320.51 1160.51 324.26 1155.47 328.95C1150.57 333.51 1146.51 338.98 1143.45 344.93C1141.65 348.43 1140.14 352.14 1139.46 356.04C1138.78 359.94 1139.09 364.04 1139.97 367.96C1140.85 371.88 1142.21 375.86 1143.69 379.67C1145.17 383.48 1146.77 387.06 1148.6 390.61C1151.9 397.04 1155.72 403.44 1160.72 408.71C1165.62 413.87 1171.76 417.56 1178.81 418.85C1186.23 420.2 1193.99 419.22 1201.1 416.83C1208.56 414.32 1215.41 410.36 1222.01 406.13C1223.61 405.11 1225.2 404.06 1226.79 403.02C1227.11 402.81 1227.13 402.18 1226.67 402.11C1221.99 401.36 1218.02 396.35 1219.95 391.63C1220.09 391.28 1219.67 390.89 1219.33 391.01C1217.24 391.78 1215.11 392.53 1212.9 392.85C1210.9 393.14 1208.59 393.11 1206.81 392.04C1204.62 390.73 1202.6 387.04 1205.18 385.07C1205.47 384.85 1205.54 384.23 1205.06 384.16C1201.64 383.62 1198.02 382.69 1195.27 380.47C1193 378.64 1191.6 375.82 1192.27 372.87C1192.62 371.3 1193.57 370 1194.97 369.21C1195.28 369.04 1195.31 368.51 1194.97 368.35C1191.67 366.8 1188.52 364.16 1187.33 360.6C1186.79 358.98 1186.7 357.27 1187.25 355.64C1187.8 354.01 1188.92 352.52 1190.32 351.49C1191.96 350.27 1193.95 349.68 1195.99 349.91C1196.3 349.95 1196.57 349.56 1196.47 349.28C1193.41 340.42 1197.05 330.57 1203.97 324.59C1206.04 322.8 1208.42 321.35 1210.96 320.33C1211.55 320.09 1211.29 319.13 1210.69 319.37L1210.7 319.36Z" fill="#97B051"/>
</g>
<path d="M1212.07 433.17C1213.46 431.92 1228.69 431.92 1228.69 431.92L1224.53 396.96L1231.46 390.72C1231.46 390.72 1235.62 385.73 1230.07 389.47L1224.53 393.22L1222.51 379.18C1222.51 379.18 1219.24 376.38 1219.11 379.18C1218.99 381.98 1216.22 401.96 1216.22 401.96L1213.45 398.21C1213.45 398.21 1209.29 397.63 1212.06 401.04C1214.83 404.45 1215.52 405.55 1215.52 405.55L1212.06 433.17H1212.07Z" fill="#5C443B"/>
<path d="M1327.68 396.401C1331.41 396.181 1335.07 395.031 1338.15 393.121C1339.94 394.701 1342.63 395.151 1345.13 395.061C1351.6 394.831 1357.78 391.281 1360.78 386.111C1363.78 380.941 1363.49 374.351 1360.08 369.391C1359.79 368.971 1359.47 368.491 1359.64 368.031C1359.74 367.761 1359.99 367.561 1360.22 367.361C1363.8 364.351 1365.29 359.611 1364.54 355.251C1363.78 350.891 1360.96 346.941 1357.21 344.101C1356.46 343.531 1355.64 342.971 1355.23 342.171C1354.83 341.401 1354.86 340.521 1354.78 339.681C1354.46 336.051 1352.02 332.621 1348.49 330.841C1344.96 329.061 1340.45 328.981 1336.84 330.641C1334.06 325.811 1329.38 321.631 1323.51 320.351C1317.65 319.071 1310.7 321.351 1308.15 326.281C1307.68 327.191 1307.33 328.201 1306.47 328.831C1305.02 329.901 1302.89 329.401 1301.03 329.191C1296 328.611 1290.71 330.741 1287.84 334.501C1285.85 337.111 1285.04 340.281 1284.33 343.371C1284.15 344.151 1283.96 344.981 1283.36 345.571C1282.84 346.081 1282.09 346.351 1281.39 346.641C1275.26 349.191 1271.33 355.491 1272.09 361.541C1272.5 364.831 1274.15 367.901 1276.01 370.761C1278.22 374.151 1281.19 377.611 1285.47 378.401C1285.99 378.501 1286.58 378.571 1286.92 378.951C1287.19 379.251 1287.23 379.651 1287.27 380.041C1287.97 386.341 1292.1 392.351 1298.29 395.341C1304.48 398.331 1312.59 398.011 1318.2 394.201C1318.13 395.071 1318.94 395.841 1319.85 396.131C1320.76 396.421 1321.76 396.341 1322.73 396.251C1325.66 395.991 1328.58 395.731 1331.51 395.471" fill="#86AF4B"/>
<mask id="mask1_284_9936" style="mask-type:luminance" maskUnits="userSpaceOnUse" x="1272" y="320" width="93" height="78">
<path d="M1327.68 396.401C1331.41 396.181 1335.07 395.031 1338.15 393.121C1339.94 394.701 1342.63 395.151 1345.13 395.061C1351.6 394.831 1357.78 391.281 1360.78 386.111C1363.78 380.941 1363.49 374.351 1360.08 369.391C1359.79 368.971 1359.47 368.491 1359.64 368.031C1359.74 367.761 1359.99 367.561 1360.22 367.361C1363.8 364.351 1365.29 359.611 1364.54 355.251C1363.78 350.891 1360.96 346.941 1357.21 344.101C1356.46 343.531 1355.64 342.971 1355.23 342.171C1354.83 341.401 1354.86 340.521 1354.78 339.681C1354.46 336.051 1352.02 332.621 1348.49 330.841C1344.96 329.061 1340.45 328.981 1336.84 330.641C1334.06 325.811 1329.38 321.631 1323.51 320.351C1317.65 319.071 1310.7 321.351 1308.15 326.281C1307.68 327.191 1307.33 328.201 1306.47 328.831C1305.02 329.901 1302.89 329.401 1301.03 329.191C1296 328.611 1290.71 330.741 1287.84 334.501C1285.85 337.111 1285.04 340.281 1284.33 343.371C1284.15 344.151 1283.96 344.981 1283.36 345.571C1282.84 346.081 1282.09 346.351 1281.39 346.641C1275.26 349.191 1271.33 355.491 1272.09 361.541C1272.5 364.831 1274.15 367.901 1276.01 370.761C1278.22 374.151 1281.19 377.611 1285.47 378.401C1285.99 378.501 1286.58 378.571 1286.92 378.951C1287.19 379.251 1287.23 379.651 1287.27 380.041C1287.97 386.341 1292.1 392.351 1298.29 395.341C1304.48 398.331 1312.59 398.011 1318.2 394.201C1318.13 395.071 1318.94 395.841 1319.85 396.131C1320.76 396.421 1321.76 396.341 1322.73 396.251C1325.66 395.991 1328.58 395.731 1331.51 395.471" fill="white"/>
</mask>
<g mask="url(#mask1_284_9936)">
<path d="M1314.51 323.451C1303.64 327.771 1297.52 339.971 1301.1 350.181C1296.52 349.611 1292.34 353.751 1292.4 357.921C1292.46 362.091 1295.84 365.781 1299.95 367.691C1296.53 369.561 1296.36 374.341 1298.76 377.231C1301.16 380.121 1305.24 381.421 1309.19 382.041C1306.39 384.091 1308.45 388.621 1311.87 389.661C1315.29 390.701 1318.99 389.461 1322.33 388.231C1320.58 392.351 1323.89 397.551 1328.72 398.271C1321.46 403.021 1314.09 407.831 1305.69 410.681C1297.29 413.521 1287.59 414.201 1279.51 410.681C1271.89 407.371 1266.66 400.831 1262.55 394.161C1258.24 387.161 1254.81 379.731 1252.33 372.051C1250.91 367.651 1249.8 363.091 1250.14 358.521C1250.45 354.371 1251.94 350.361 1253.86 346.581C1258.8 336.851 1266.92 328.191 1277.59 323.511C1288.26 318.831 1301.58 318.571 1311.72 324.121C1313.03 324.831 1314.44 326.021 1314.01 327.341" fill="#92A54E"/>
<path d="M1314.38 322.971C1306.18 326.271 1300.03 334.221 1299.6 343.151C1299.48 345.581 1299.82 348.021 1300.62 350.311L1301.1 349.681C1297.54 349.281 1294.06 351.521 1292.61 354.741C1291.16 357.961 1292.27 361.661 1294.55 364.291C1295.96 365.931 1297.76 367.211 1299.71 368.121V367.261C1297.17 368.691 1296.22 371.671 1296.85 374.431C1297.58 377.611 1300.31 379.721 1303.18 380.931C1305.06 381.721 1307.05 382.201 1309.06 382.521L1308.94 381.611C1306.26 383.661 1307.48 387.351 1309.81 389.141C1313.43 391.931 1318.68 390.111 1322.47 388.721L1321.85 388.101C1319.92 392.821 1323.89 398.001 1328.59 398.751L1328.47 397.841C1317.24 405.201 1305.22 412.751 1291.29 412.561C1284.81 412.481 1278.57 410.511 1273.48 406.441C1268.72 402.641 1265.17 397.601 1262.09 392.411C1258.51 386.371 1255.54 379.971 1253.29 373.321C1252.13 369.891 1251.08 366.371 1250.72 362.761C1250.36 359.151 1250.84 355.631 1252 352.211C1253.96 346.421 1257.33 340.961 1261.31 336.331C1265.19 331.821 1269.87 327.991 1275.15 325.231C1285.97 319.571 1299.93 318.511 1310.95 324.261C1311.96 324.791 1313.92 325.771 1313.54 327.201C1313.37 327.821 1314.34 328.091 1314.5 327.471C1314.88 326.061 1313.86 324.951 1312.79 324.191C1311.54 323.301 1310.03 322.671 1308.61 322.101C1305.64 320.891 1302.51 320.141 1299.33 319.761C1292.94 319.001 1286.34 319.781 1280.27 321.921C1268.63 326.031 1259.22 335.131 1253.6 346.001C1251.97 349.161 1250.59 352.511 1249.96 356.031C1249.33 359.551 1249.59 363.311 1250.38 366.881C1251.17 370.451 1252.42 374.091 1253.76 377.571C1255.1 381.051 1256.51 384.161 1258.14 387.341C1261.12 393.161 1264.57 398.961 1269.08 403.741C1273.59 408.521 1279.08 411.821 1285.48 413.001C1292.25 414.251 1299.34 413.341 1305.82 411.151C1312.3 408.961 1318.72 405.301 1324.67 401.491C1326.11 400.571 1327.54 399.631 1328.97 398.701C1329.29 398.491 1329.31 397.861 1328.85 397.791C1324.64 397.111 1321.07 392.621 1322.81 388.371C1322.95 388.021 1322.53 387.631 1322.19 387.751C1320.31 388.441 1318.41 389.111 1316.42 389.411C1314.61 389.681 1312.53 389.661 1310.92 388.701C1308.97 387.541 1307.13 384.241 1309.43 382.471C1309.72 382.251 1309.79 381.631 1309.31 381.561C1305.59 380.971 1301.15 379.811 1298.85 376.541C1296.99 373.901 1297.19 369.821 1300.2 368.121C1300.51 367.951 1300.54 367.421 1300.2 367.261C1297.25 365.871 1294.43 363.531 1293.34 360.361C1292.25 357.191 1293.39 354.031 1296 352.091C1297.48 351.001 1299.26 350.471 1301.09 350.681C1301.4 350.721 1301.67 350.331 1301.57 350.051C1298.81 342.051 1302.1 333.171 1308.34 327.771C1310.21 326.161 1312.35 324.851 1314.63 323.931C1315.22 323.691 1314.96 322.731 1314.36 322.971H1314.38Z" fill="#97B051"/>
</g>
<path d="M1315.63 425.921C1316.88 424.791 1330.66 424.791 1330.66 424.791L1326.9 393.181L1333.16 387.531C1333.16 387.531 1336.92 383.011 1331.91 386.401L1326.9 389.791L1325.07 377.101C1325.07 377.101 1322.11 374.571 1322 377.101C1321.89 379.631 1319.38 397.701 1319.38 397.701L1316.87 394.311C1316.87 394.311 1313.11 393.791 1315.62 396.871C1318.13 399.951 1318.75 400.951 1318.75 400.951L1315.62 425.931L1315.63 425.921Z" fill="#5C443B"/>
<path d="M1267.71 414.13C1272.21 413.86 1276.61 412.47 1280.32 410.14C1282.48 412.06 1285.71 412.61 1288.73 412.5C1296.52 412.22 1303.97 407.9 1307.59 401.61C1311.2 395.32 1310.85 387.3 1306.74 381.27C1306.39 380.76 1306.01 380.18 1306.22 379.61C1306.34 379.28 1306.64 379.04 1306.92 378.8C1311.24 375.14 1313.03 369.37 1312.12 364.06C1311.21 358.75 1307.81 353.95 1303.29 350.49C1302.39 349.8 1301.4 349.11 1300.9 348.14C1300.42 347.21 1300.45 346.13 1300.36 345.1C1299.97 340.68 1297.04 336.51 1292.78 334.34C1288.53 332.18 1283.09 332.08 1278.75 334.09C1275.41 328.21 1269.76 323.12 1262.69 321.57C1255.62 320.02 1247.25 322.79 1244.18 328.79C1243.62 329.89 1243.19 331.13 1242.16 331.9C1240.41 333.2 1237.85 332.6 1235.61 332.34C1229.56 331.63 1223.18 334.23 1219.72 338.81C1217.33 341.98 1216.34 345.84 1215.5 349.61C1215.29 350.56 1215.05 351.57 1214.33 352.29C1213.7 352.92 1212.8 353.24 1211.96 353.59C1204.57 356.7 1199.84 364.36 1200.75 371.72C1201.25 375.73 1203.23 379.46 1205.47 382.94C1208.13 387.07 1211.71 391.28 1216.86 392.23C1217.49 392.35 1218.2 392.44 1218.61 392.89C1218.94 393.25 1218.99 393.75 1219.04 394.21C1219.89 401.88 1224.86 409.19 1232.32 412.83C1239.78 416.47 1249.55 416.08 1256.31 411.44C1256.23 412.5 1257.2 413.44 1258.3 413.79C1259.4 414.14 1260.6 414.04 1261.77 413.94C1265.29 413.62 1268.82 413.3 1272.34 412.99" fill="#97B051"/>
<mask id="mask2_284_9936" style="mask-type:luminance" maskUnits="userSpaceOnUse" x="1200" y="321" width="113" height="95">
<path d="M1267.71 414.13C1272.21 413.86 1276.61 412.47 1280.32 410.14C1282.48 412.06 1285.71 412.61 1288.73 412.5C1296.52 412.22 1303.97 407.9 1307.59 401.61C1311.2 395.32 1310.85 387.3 1306.74 381.27C1306.39 380.76 1306.01 380.18 1306.22 379.61C1306.34 379.28 1306.64 379.04 1306.92 378.8C1311.24 375.14 1313.03 369.37 1312.12 364.06C1311.21 358.75 1307.81 353.95 1303.29 350.49C1302.39 349.8 1301.4 349.11 1300.9 348.14C1300.42 347.21 1300.45 346.13 1300.36 345.1C1299.97 340.68 1297.04 336.51 1292.78 334.34C1288.53 332.18 1283.09 332.08 1278.75 334.09C1275.41 328.21 1269.76 323.12 1262.69 321.57C1255.62 320.02 1247.25 322.79 1244.18 328.79C1243.62 329.89 1243.19 331.13 1242.16 331.9C1240.41 333.2 1237.85 332.6 1235.61 332.34C1229.56 331.63 1223.18 334.23 1219.72 338.81C1217.33 341.98 1216.34 345.84 1215.5 349.61C1215.29 350.56 1215.05 351.57 1214.33 352.29C1213.7 352.92 1212.8 353.24 1211.96 353.59C1204.57 356.7 1199.84 364.36 1200.75 371.72C1201.25 375.73 1203.23 379.46 1205.47 382.94C1208.13 387.07 1211.71 391.28 1216.86 392.23C1217.49 392.35 1218.2 392.44 1218.61 392.89C1218.94 393.25 1218.99 393.75 1219.04 394.21C1219.89 401.88 1224.86 409.19 1232.32 412.83C1239.78 416.47 1249.55 416.08 1256.31 411.44C1256.23 412.5 1257.2 413.44 1258.3 413.79C1259.4 414.14 1260.6 414.04 1261.77 413.94C1265.29 413.62 1268.82 413.3 1272.34 412.99" fill="white"/>
</mask>
<g mask="url(#mask2_284_9936)">
<path d="M1251.83 325.37C1238.74 330.63 1231.37 345.47 1235.67 357.9C1230.15 357.2 1225.12 362.25 1225.19 367.32C1225.26 372.39 1229.33 376.88 1234.29 379.21C1230.17 381.48 1229.96 387.31 1232.85 390.82C1235.74 394.33 1240.66 395.92 1245.41 396.67C1242.04 399.16 1244.52 404.68 1248.64 405.94C1252.76 407.2 1257.22 405.69 1261.24 404.2C1259.14 409.22 1263.12 415.54 1268.94 416.41C1260.2 422.19 1251.32 428.05 1241.2 431.51C1231.08 434.97 1219.39 435.79 1209.66 431.51C1200.48 427.48 1194.18 419.52 1189.23 411.41C1184.04 402.9 1179.91 393.86 1176.92 384.51C1175.21 379.16 1173.87 373.61 1174.28 368.05C1174.65 363 1176.45 358.12 1178.77 353.53C1184.72 341.7 1194.5 331.15 1207.35 325.46C1220.2 319.76 1236.25 319.45 1248.47 326.2C1250.04 327.07 1251.75 328.51 1251.23 330.12" fill="#92A54E"/>
<path d="M1251.7 324.89C1241.8 328.91 1234.47 338.6 1233.97 349.37C1233.83 352.3 1234.24 355.25 1235.19 358.03L1235.67 357.4C1231.4 356.91 1227.23 359.66 1225.52 363.52C1223.81 367.38 1225.16 371.89 1227.91 375.08C1229.59 377.02 1231.73 378.55 1234.04 379.65V378.79C1231.01 380.51 1229.9 384.09 1230.64 387.38C1231.51 391.23 1234.8 393.79 1238.27 395.26C1240.51 396.21 1242.88 396.78 1245.28 397.16L1245.16 396.25C1242.78 398.07 1242.97 401.22 1244.59 403.51C1246.76 406.59 1250.5 407.25 1254.04 406.77C1256.57 406.43 1259 405.58 1261.38 404.69L1260.76 404.07C1258.47 409.71 1263.15 415.99 1268.81 416.9L1268.69 415.99C1261.81 420.54 1254.88 425.11 1247.35 428.53C1239.95 431.89 1231.94 434.04 1223.77 433.92C1219.79 433.86 1215.82 433.25 1212.06 431.93C1208.52 430.69 1205.23 428.79 1202.31 426.44C1196.57 421.81 1192.29 415.68 1188.59 409.37C1184.29 402.04 1180.72 394.28 1178.01 386.22C1176.59 382.02 1175.31 377.71 1174.87 373.28C1174.43 368.85 1174.97 364.75 1176.31 360.64C1178.63 353.56 1182.68 346.86 1187.48 341.18C1192.28 335.5 1197.79 330.94 1204.18 327.54C1210.57 324.14 1218.32 321.97 1225.88 321.68C1233.44 321.39 1241.02 322.8 1247.68 326.33C1248.93 327 1251.22 328.22 1250.74 329.97C1250.57 330.59 1251.53 330.86 1251.7 330.24C1252.17 328.52 1250.83 327.15 1249.52 326.25C1248 325.21 1246.22 324.45 1244.52 323.76C1240.98 322.32 1237.23 321.42 1233.44 320.97C1225.71 320.05 1217.72 321.03 1210.4 323.67C1203.08 326.31 1196.82 330.4 1191.36 335.59C1186.05 340.63 1181.67 346.64 1178.37 353.17C1176.42 357.04 1174.79 361.13 1174.09 365.43C1173.39 369.73 1173.77 374.27 1174.76 378.59C1175.75 382.91 1177.22 387.24 1178.83 391.42C1180.44 395.6 1182.16 399.42 1184.12 403.28C1187.7 410.29 1191.82 417.28 1197.23 423.05C1199.79 425.79 1202.69 428.23 1205.92 430.15C1209.34 432.18 1213.12 433.55 1217.03 434.26C1225.09 435.73 1233.52 434.64 1241.23 432.02C1249.35 429.26 1256.79 424.91 1263.96 420.28C1265.71 419.15 1267.45 418 1269.19 416.84C1269.51 416.63 1269.53 416 1269.07 415.93C1263.91 415.1 1259.62 409.51 1261.72 404.33C1261.86 403.99 1261.44 403.59 1261.1 403.71C1257.57 405.01 1253.67 406.45 1249.85 405.72C1247.22 405.22 1244.85 403.29 1244.38 400.54C1244.15 399.22 1244.57 397.91 1245.65 397.09C1245.94 396.86 1246.01 396.25 1245.53 396.18C1241.79 395.58 1237.83 394.55 1234.84 392.1C1232.34 390.05 1230.81 386.89 1231.58 383.63C1231.98 381.93 1233 380.5 1234.53 379.64C1234.84 379.47 1234.87 378.94 1234.53 378.78C1230.92 377.07 1227.52 374.17 1226.2 370.29C1225.6 368.5 1225.48 366.6 1226.08 364.79C1226.68 362.98 1227.91 361.31 1229.45 360.15C1231.24 358.81 1233.42 358.15 1235.65 358.41C1235.97 358.45 1236.23 358.06 1236.13 357.78C1232.79 348.03 1236.75 337.16 1244.33 330.55C1246.58 328.59 1249.17 327 1251.94 325.87C1252.53 325.63 1252.27 324.66 1251.67 324.91L1251.7 324.89Z" fill="#97B051"/>
</g>
<path d="M1253.18 450.06C1254.69 448.69 1271.29 448.69 1271.29 448.69L1266.76 410.22L1274.31 403.35C1274.31 403.35 1278.84 397.85 1272.8 401.98L1266.76 406.1L1264.56 390.65C1264.56 390.65 1261 387.57 1260.86 390.65C1260.72 393.73 1257.71 415.71 1257.71 415.71L1254.69 411.59C1254.69 411.59 1250.16 410.95 1253.18 414.71C1256.2 418.46 1256.94 419.67 1256.94 419.67L1253.18 450.06Z" fill="#5C443B"/>
<path d="M36.5835 383.515C40.7135 383.265 44.7535 382.005 48.1635 379.885C50.1435 381.635 53.1135 382.125 55.8835 382.025C63.0335 381.765 69.8735 377.845 73.1935 372.125C76.5135 366.405 76.1935 359.125 72.4135 353.635C72.0935 353.175 71.7435 352.645 71.9335 352.125C72.0435 351.825 72.3235 351.605 72.5735 351.385C76.5335 348.055 78.1835 342.815 77.3435 337.995C76.5035 333.175 73.3835 328.805 69.2435 325.665C68.4135 325.035 67.5135 324.415 67.0535 323.525C66.6135 322.675 66.6435 321.705 66.5535 320.765C66.1935 316.745 63.5035 312.955 59.6035 310.985C55.7035 309.015 50.7035 308.935 46.7235 310.765C43.6535 305.425 38.4735 300.795 31.9835 299.385C25.4935 297.975 17.8135 300.495 14.9935 305.945C14.4735 306.945 14.0835 308.065 13.1335 308.765C11.5235 309.945 9.17348 309.395 7.11348 309.165C1.55348 308.525 -4.30652 310.885 -7.47652 315.045C-9.67652 317.925 -10.5765 321.435 -11.3565 324.865C-11.5565 325.735 -11.7665 326.645 -12.4265 327.295C-12.9965 327.865 -13.8265 328.155 -14.6065 328.475C-21.3865 331.295 -25.7365 338.265 -24.8965 344.955C-24.4365 348.595 -22.6165 351.985 -20.5565 355.155C-18.1165 358.905 -14.8265 362.735 -10.0965 363.605C-9.51652 363.715 -8.86652 363.795 -8.49652 364.205C-8.19652 364.535 -8.14652 364.985 -8.10652 365.405C-7.32652 372.375 -2.75652 379.015 4.08348 382.325C10.9335 385.635 19.9035 385.275 26.1035 381.055C26.0235 382.015 26.9135 382.865 27.9235 383.185C28.9335 383.505 30.0435 383.415 31.1035 383.315C34.3435 383.025 37.5735 382.735 40.8135 382.445" fill="#98AF58"/>
<mask id="mask3_284_9936" style="mask-type:luminance" maskUnits="userSpaceOnUse" x="-25" y="299" width="103" height="86">
<path d="M36.5835 383.515C40.7135 383.265 44.7535 382.005 48.1635 379.885C50.1435 381.635 53.1135 382.125 55.8835 382.025C63.0335 381.765 69.8735 377.845 73.1935 372.125C76.5135 366.405 76.1935 359.125 72.4135 353.635C72.0935 353.175 71.7435 352.645 71.9335 352.125C72.0435 351.825 72.3235 351.605 72.5735 351.385C76.5335 348.055 78.1835 342.815 77.3435 337.995C76.5035 333.175 73.3835 328.805 69.2435 325.665C68.4135 325.035 67.5135 324.415 67.0535 323.525C66.6135 322.675 66.6435 321.705 66.5535 320.765C66.1935 316.745 63.5035 312.955 59.6035 310.985C55.7035 309.015 50.7035 308.935 46.7235 310.765C43.6535 305.425 38.4735 300.795 31.9835 299.385C25.4935 297.975 17.8135 300.495 14.9935 305.945C14.4735 306.945 14.0835 308.065 13.1335 308.765C11.5235 309.945 9.17348 309.395 7.11348 309.165C1.55348 308.525 -4.30652 310.885 -7.47652 315.045C-9.67652 317.925 -10.5765 321.435 -11.3565 324.865C-11.5565 325.735 -11.7665 326.645 -12.4265 327.295C-12.9965 327.865 -13.8265 328.155 -14.6065 328.475C-21.3865 331.295 -25.7365 338.265 -24.8965 344.955C-24.4365 348.595 -22.6165 351.985 -20.5565 355.155C-18.1165 358.905 -14.8265 362.735 -10.0965 363.605C-9.51652 363.715 -8.86652 363.795 -8.49652 364.205C-8.19652 364.535 -8.14652 364.985 -8.10652 365.405C-7.32652 372.375 -2.75652 379.015 4.08348 382.325C10.9335 385.635 19.9035 385.275 26.1035 381.055C26.0235 382.015 26.9135 382.865 27.9235 383.185C28.9335 383.505 30.0435 383.415 31.1035 383.315C34.3435 383.025 37.5735 382.735 40.8135 382.445" fill="white"/>
</mask>
<g mask="url(#mask3_284_9936)">
<path d="M22.0135 302.845C9.99347 307.625 3.22347 321.115 7.18347 332.405C2.11347 331.775 -2.50653 336.355 -2.43653 340.965C-2.36653 345.575 1.36347 349.655 5.91347 351.765C2.12347 353.835 1.94347 359.125 4.59347 362.315C7.24347 365.505 11.7635 366.955 16.1235 367.625C13.0235 369.895 15.3135 374.905 19.0935 376.055C22.8735 377.205 26.9635 375.825 30.6635 374.475C28.7335 379.035 32.3935 384.775 37.7335 385.575C29.7035 390.835 21.5535 396.155 12.2635 399.295C2.97346 402.435 -7.75653 403.185 -16.6965 399.295C-25.1265 395.635 -30.9065 388.395 -35.4465 381.025C-40.2065 373.285 -44.0065 365.075 -46.7465 356.575C-48.3165 351.705 -49.5465 346.665 -49.1765 341.615C-48.8365 337.025 -47.1865 332.595 -45.0565 328.415C-39.5865 317.655 -30.6165 308.075 -18.8165 302.895C-7.01653 297.715 7.71347 297.435 18.9335 303.565C20.3735 304.355 21.9435 305.665 21.4635 307.125" fill="#92A54E"/>
<path d="M21.8835 302.355C12.8135 306.005 6.01349 314.825 5.57349 324.705C5.45349 327.355 5.83349 330.025 6.70349 332.535L7.18349 331.905C3.27349 331.465 -0.556511 333.935 -2.15651 337.455C-3.75651 340.975 -2.54651 345.045 -0.0565109 347.945C1.50349 349.765 3.50349 351.185 5.66349 352.205V351.345C2.88349 352.915 1.84349 356.175 2.52349 359.195C3.31349 362.705 6.33349 365.035 9.50349 366.375C11.5835 367.255 13.7835 367.775 16.0035 368.125L15.8835 367.215C13.7135 368.865 13.8335 371.715 15.2935 373.815C17.2735 376.675 20.7335 377.305 24.0135 376.875C26.3535 376.565 28.5935 375.785 30.8035 374.985L30.1835 374.365C28.0635 379.555 32.4235 385.255 37.6035 386.075L37.4835 385.165C31.2035 389.285 24.8735 393.405 18.0135 396.505C11.1535 399.605 3.85349 401.545 -3.64651 401.455C-11.1465 401.365 -17.6865 399.205 -23.3265 394.735C-28.6165 390.545 -32.5665 384.955 -35.9765 379.205C-39.9365 372.525 -43.2265 365.455 -45.7265 358.095C-47.0165 354.285 -48.1965 350.375 -48.5965 346.365C-48.9965 342.355 -48.4865 338.555 -47.2365 334.795C-45.0865 328.375 -41.3765 322.335 -36.9865 317.205C-32.5965 312.075 -27.4965 307.905 -21.6365 304.825C-15.5465 301.625 -8.75651 299.815 -1.88651 299.545C4.98349 299.275 11.9535 300.515 18.0535 303.695C19.2035 304.295 21.4135 305.405 20.9735 307.025C20.8035 307.645 21.7735 307.915 21.9335 307.295C22.3535 305.735 21.1835 304.505 20.0035 303.675C18.5935 302.695 16.9335 302.005 15.3435 301.365C12.0835 300.055 8.64349 299.235 5.15349 298.815C-1.89651 297.975 -9.17651 298.845 -15.8565 301.205C-22.3565 303.505 -28.3065 307.255 -33.3465 311.945C-38.3865 316.635 -42.3065 321.975 -45.3665 327.925C-47.1665 331.425 -48.6765 335.135 -49.3565 339.035C-50.0365 342.935 -49.7265 347.035 -48.8465 350.955C-47.9665 354.875 -46.6065 358.855 -45.1265 362.665C-43.6465 366.475 -42.0465 370.055 -40.2165 373.605C-36.9165 380.035 -33.0965 386.435 -28.0965 391.705C-23.0965 396.975 -17.0565 400.555 -10.0065 401.845C-2.58651 403.195 5.17349 402.215 12.2835 399.825C19.7435 397.315 26.5935 393.355 33.1935 389.125C34.7935 388.105 36.3835 387.055 37.9735 386.015C38.2935 385.805 38.3135 385.175 37.8535 385.105C33.1735 384.355 29.2035 379.345 31.1335 374.625C31.2735 374.275 30.8535 373.885 30.5135 374.005C28.4235 374.775 26.2935 375.525 24.0835 375.845C22.0835 376.135 19.7735 376.105 17.9935 375.035C15.8035 373.725 13.7835 370.035 16.3635 368.065C16.6535 367.845 16.7235 367.225 16.2435 367.155C12.8235 366.615 9.20349 365.685 6.45349 363.465C4.18349 361.635 2.78349 358.815 3.45349 355.865C3.80349 354.295 4.75349 352.995 6.15349 352.205C6.46349 352.035 6.49349 351.505 6.15349 351.345C2.85349 349.795 -0.296513 347.155 -1.48651 343.595C-2.02651 341.975 -2.11651 340.265 -1.56651 338.635C-1.01651 337.005 0.103489 335.515 1.50349 334.485C3.14349 333.265 5.13349 332.675 7.17349 332.905C7.48349 332.945 7.75349 332.555 7.65349 332.275C4.59349 323.415 8.23349 313.565 15.1535 307.585C17.2235 305.795 19.6035 304.345 22.1435 303.325C22.7335 303.085 22.4735 302.125 21.8735 302.365L21.8835 302.355Z" fill="#97B051"/>
</g>
<path d="M23.2535 416.165C24.6435 414.915 39.8735 414.915 39.8735 414.915L35.7135 379.955L42.6435 373.715C42.6435 373.715 46.8035 368.725 41.2535 372.465L35.7135 376.215L33.6935 362.175C33.6935 362.175 30.4235 359.375 30.2935 362.175C30.1735 364.975 27.4035 384.955 27.4035 384.955L24.6335 381.205C24.6335 381.205 20.4735 380.625 23.2435 384.035C26.0135 387.445 26.7035 388.545 26.7035 388.545L23.2435 416.165H23.2535Z" fill="#5C443B"/>
<path d="M119.65 413.11C123.38 412.89 127.04 411.74 130.12 409.83C131.91 411.41 134.6 411.86 137.1 411.77C143.57 411.54 149.75 407.99 152.75 402.82C155.75 397.65 155.46 391.06 152.05 386.1C151.76 385.68 151.44 385.2 151.61 384.74C151.71 384.47 151.96 384.27 152.19 384.07C155.77 381.06 157.26 376.32 156.51 371.96C155.75 367.6 152.93 363.65 149.18 360.81C148.43 360.24 147.61 359.68 147.2 358.88C146.8 358.11 146.83 357.23 146.75 356.39C146.43 352.76 143.99 349.33 140.46 347.55C136.93 345.77 132.42 345.69 128.81 347.35C126.03 342.52 121.35 338.34 115.48 337.06C109.62 335.78 102.67 338.06 100.12 342.99C99.65 343.9 99.3 344.91 98.44 345.54C96.99 346.61 94.86 346.11 93 345.9C87.97 345.32 82.68 347.45 79.81 351.21C77.82 353.82 77.01 356.99 76.3 360.08C76.12 360.86 75.93 361.69 75.33 362.28C74.81 362.79 74.06 363.06 73.36 363.35C67.23 365.9 63.3 372.2 64.06 378.25C64.47 381.54 66.12 384.61 67.9801 387.47C70.1901 390.86 73.16 394.32 77.44 395.11C77.96 395.21 78.55 395.28 78.89 395.66C79.16 395.96 79.2 396.36 79.24 396.75C79.94 403.05 84.07 409.06 90.26 412.05C96.4501 415.04 104.56 414.72 110.17 410.91C110.1 411.78 110.91 412.55 111.82 412.84C112.73 413.13 113.73 413.05 114.7 412.96C117.63 412.7 120.55 412.44 123.48 412.18" fill="#86AF4B"/>
<mask id="mask4_284_9936" style="mask-type:luminance" maskUnits="userSpaceOnUse" x="63" y="336" width="94" height="79">
<path d="M119.65 413.11C123.38 412.89 127.04 411.74 130.12 409.83C131.91 411.41 134.6 411.86 137.1 411.77C143.57 411.54 149.75 407.99 152.75 402.82C155.75 397.65 155.46 391.06 152.05 386.1C151.76 385.68 151.44 385.2 151.61 384.74C151.71 384.47 151.96 384.27 152.19 384.07C155.77 381.06 157.26 376.32 156.51 371.96C155.75 367.6 152.93 363.65 149.18 360.81C148.43 360.24 147.61 359.68 147.2 358.88C146.8 358.11 146.83 357.23 146.75 356.39C146.43 352.76 143.99 349.33 140.46 347.55C136.93 345.77 132.42 345.69 128.81 347.35C126.03 342.52 121.35 338.34 115.48 337.06C109.62 335.78 102.67 338.06 100.12 342.99C99.65 343.9 99.3 344.91 98.44 345.54C96.99 346.61 94.86 346.11 93 345.9C87.97 345.32 82.68 347.45 79.81 351.21C77.82 353.82 77.01 356.99 76.3 360.08C76.12 360.86 75.93 361.69 75.33 362.28C74.81 362.79 74.06 363.06 73.36 363.35C67.23 365.9 63.3 372.2 64.06 378.25C64.47 381.54 66.12 384.61 67.9801 387.47C70.1901 390.86 73.16 394.32 77.44 395.11C77.96 395.21 78.55 395.28 78.89 395.66C79.16 395.96 79.2 396.36 79.24 396.75C79.94 403.05 84.07 409.06 90.26 412.05C96.4501 415.04 104.56 414.72 110.17 410.91C110.1 411.78 110.91 412.55 111.82 412.84C112.73 413.13 113.73 413.05 114.7 412.96C117.63 412.7 120.55 412.44 123.48 412.18" fill="white"/>
</mask>
<g mask="url(#mask4_284_9936)">
<path d="M106.48 340.17C95.6101 344.49 89.4901 356.69 93.07 366.9C88.4901 366.33 84.3101 370.47 84.3701 374.64C84.4301 378.81 87.81 382.5 91.92 384.41C88.5 386.28 88.3301 391.06 90.7301 393.95C93.1301 396.84 97.2101 398.14 101.16 398.76C98.3601 400.81 100.42 405.34 103.84 406.38C107.26 407.42 110.96 406.18 114.3 404.95C112.55 409.07 115.86 414.27 120.69 414.99C113.43 419.74 106.06 424.55 97.6601 427.4C89.2601 430.24 79.5601 430.92 71.4801 427.4C63.8601 424.09 58.63 417.55 54.52 410.88C50.21 403.88 46.78 396.45 44.3 388.77C42.88 384.37 41.77 379.81 42.11 375.24C42.42 371.09 43.9101 367.08 45.8301 363.3C50.7701 353.57 58.89 344.91 69.56 340.23C80.23 335.55 93.5501 335.29 103.69 340.84C105 341.55 106.41 342.74 105.98 344.06" fill="#92A54E"/>
<path d="M106.34 339.69C98.1401 342.99 91.9901 350.94 91.5601 359.87C91.4401 362.3 91.7801 364.74 92.5801 367.03L93.0601 366.4C89.5001 366 86.0201 368.24 84.5701 371.46C83.1201 374.68 84.2301 378.38 86.5101 381.01C87.9201 382.65 89.7201 383.93 91.6701 384.84V383.98C89.1301 385.41 88.1801 388.39 88.8101 391.15C89.5401 394.33 92.2701 396.44 95.1401 397.65C97.0201 398.44 99.0101 398.92 101.02 399.24L100.9 398.33C98.2201 400.38 99.4401 404.07 101.77 405.86C105.39 408.65 110.64 406.83 114.43 405.44L113.81 404.82C111.88 409.54 115.85 414.72 120.55 415.47L120.43 414.56C109.2 421.92 97.1801 429.47 83.2501 429.28C76.7701 429.2 70.5301 427.23 65.4401 423.16C60.6801 419.36 57.1301 414.32 54.0501 409.13C50.4701 403.09 47.5001 396.69 45.2501 390.04C44.0901 386.61 43.0401 383.09 42.6801 379.48C42.3201 375.87 42.8001 372.35 43.9601 368.93C45.9201 363.14 49.2901 357.68 53.2701 353.05C57.2501 348.42 61.8301 344.71 67.1101 341.95C77.9301 336.29 91.8901 335.23 102.91 340.98C103.92 341.51 105.88 342.49 105.5 343.92C105.33 344.54 106.3 344.81 106.46 344.19C106.84 342.78 105.82 341.67 104.75 340.91C103.5 340.02 101.99 339.39 100.57 338.82C97.6001 337.61 94.4701 336.86 91.2901 336.48C84.9001 335.72 78.3001 336.5 72.2301 338.64C60.5901 342.75 51.1801 351.85 45.5601 362.72C43.9301 365.88 42.5501 369.23 41.9201 372.75C41.2901 376.27 41.5501 380.03 42.3401 383.6C43.1301 387.17 44.3801 390.81 45.7201 394.29C47.0601 397.77 48.4701 400.88 50.1001 404.06C53.0801 409.88 56.5301 415.68 61.0401 420.46C65.5501 425.24 71.0401 428.54 77.4401 429.72C84.2101 430.97 91.3001 430.06 97.7801 427.87C104.26 425.68 110.68 422.02 116.63 418.21C118.07 417.29 119.5 416.35 120.93 415.42C121.25 415.21 121.27 414.58 120.81 414.51C116.6 413.83 113.03 409.34 114.77 405.09C114.91 404.74 114.49 404.35 114.15 404.47C112.27 405.16 110.37 405.83 108.38 406.13C106.57 406.4 104.49 406.38 102.88 405.42C100.93 404.26 99.0901 400.96 101.39 399.19C101.68 398.97 101.75 398.35 101.27 398.28C97.5501 397.69 93.1101 396.53 90.8101 393.26C88.9501 390.62 89.1501 386.54 92.1601 384.84C92.4701 384.67 92.5001 384.14 92.1601 383.98C89.2101 382.59 86.3901 380.25 85.3001 377.08C84.2101 373.91 85.3501 370.75 87.9601 368.81C89.4401 367.72 91.2201 367.19 93.0501 367.4C93.3601 367.44 93.6301 367.05 93.5301 366.77C90.7701 358.77 94.0601 349.89 100.3 344.49C102.17 342.88 104.31 341.57 106.59 340.65C107.18 340.41 106.92 339.45 106.32 339.69H106.34Z" fill="#97B051"/>
</g>
<path d="M107.59 442.64C108.84 441.51 122.62 441.51 122.62 441.51L118.86 409.9L125.12 404.25C125.12 404.25 128.88 399.73 123.87 403.12L118.86 406.51L117.03 393.82C117.03 393.82 114.07 391.29 113.96 393.82C113.85 396.35 111.34 414.42 111.34 414.42L108.83 411.03C108.83 411.03 105.07 410.51 107.58 413.59C110.09 416.67 110.71 417.67 110.71 417.67L107.58 442.65L107.59 442.64Z" fill="#5C443B"/>
<path d="M111.072 419.984C115.572 419.714 119.972 418.324 123.682 415.994C125.842 417.914 129.072 418.464 132.092 418.354C139.882 418.074 147.332 413.754 150.952 407.464C154.562 401.174 154.212 393.154 150.102 387.124C149.752 386.614 149.372 386.034 149.582 385.464C149.702 385.134 150.002 384.894 150.282 384.654C154.602 380.994 156.392 375.224 155.482 369.914C154.572 364.604 151.172 359.804 146.652 356.344C145.752 355.654 144.762 354.964 144.262 353.994C143.782 353.064 143.812 351.984 143.722 350.954C143.332 346.534 140.402 342.364 136.142 340.194C131.892 338.034 126.452 337.934 122.112 339.944C118.772 334.064 113.122 328.974 106.052 327.424C98.9817 325.874 90.6117 328.644 87.5417 334.644C86.9817 335.744 86.5517 336.984 85.5217 337.754C83.7717 339.054 81.2117 338.454 78.9717 338.194C72.9217 337.484 66.5417 340.084 63.0817 344.664C60.6917 347.834 59.7017 351.694 58.8617 355.464C58.6517 356.414 58.4117 357.424 57.6917 358.144C57.0617 358.774 56.1617 359.094 55.3217 359.444C47.9317 362.554 43.2017 370.214 44.1117 377.574C44.6117 381.584 46.5917 385.314 48.8317 388.794C51.4917 392.924 55.0717 397.134 60.2217 398.084C60.8517 398.204 61.5617 398.294 61.9717 398.744C62.3017 399.104 62.3517 399.604 62.4017 400.064C63.2517 407.734 68.2217 415.044 75.6817 418.684C83.1417 422.324 92.9117 421.934 99.6717 417.294C99.5917 418.354 100.562 419.294 101.662 419.644C102.762 419.994 103.962 419.894 105.132 419.794C108.652 419.474 112.182 419.154 115.702 418.844" fill="#97B051"/>
<mask id="mask5_284_9936" style="mask-type:luminance" maskUnits="userSpaceOnUse" x="44" y="327" width="112" height="95">
<path d="M111.072 419.984C115.572 419.714 119.972 418.324 123.682 415.994C125.842 417.914 129.072 418.464 132.092 418.354C139.882 418.074 147.332 413.754 150.952 407.464C154.562 401.174 154.212 393.154 150.102 387.124C149.752 386.614 149.372 386.034 149.582 385.464C149.702 385.134 150.002 384.894 150.282 384.654C154.602 380.994 156.392 375.224 155.482 369.914C154.572 364.604 151.172 359.804 146.652 356.344C145.752 355.654 144.762 354.964 144.262 353.994C143.782 353.064 143.812 351.984 143.722 350.954C143.332 346.534 140.402 342.364 136.142 340.194C131.892 338.034 126.452 337.934 122.112 339.944C118.772 334.064 113.122 328.974 106.052 327.424C98.9817 325.874 90.6117 328.644 87.5417 334.644C86.9817 335.744 86.5517 336.984 85.5217 337.754C83.7717 339.054 81.2117 338.454 78.9717 338.194C72.9217 337.484 66.5417 340.084 63.0817 344.664C60.6917 347.834 59.7017 351.694 58.8617 355.464C58.6517 356.414 58.4117 357.424 57.6917 358.144C57.0617 358.774 56.1617 359.094 55.3217 359.444C47.9317 362.554 43.2017 370.214 44.1117 377.574C44.6117 381.584 46.5917 385.314 48.8317 388.794C51.4917 392.924 55.0717 397.134 60.2217 398.084C60.8517 398.204 61.5617 398.294 61.9717 398.744C62.3017 399.104 62.3517 399.604 62.4017 400.064C63.2517 407.734 68.2217 415.044 75.6817 418.684C83.1417 422.324 92.9117 421.934 99.6717 417.294C99.5917 418.354 100.562 419.294 101.662 419.644C102.762 419.994 103.962 419.894 105.132 419.794C108.652 419.474 112.182 419.154 115.702 418.844" fill="white"/>
</mask>
<g mask="url(#mask5_284_9936)">
<path d="M95.1918 331.214C82.1018 336.474 74.7318 351.314 79.0318 363.744C73.5118 363.044 68.4818 368.094 68.5518 373.164C68.6217 378.234 72.6918 382.724 77.6518 385.054C73.5318 387.324 73.3218 393.154 76.2118 396.664C79.1018 400.174 84.0218 401.764 88.7718 402.514C85.4017 405.004 87.8818 410.524 92.0018 411.784C96.1218 413.044 100.582 411.534 104.602 410.044C102.502 415.064 106.482 421.384 112.302 422.254C103.562 428.034 94.6818 433.894 84.5618 437.354C74.4418 440.814 62.7518 441.634 53.0218 437.354C43.8418 433.324 37.5418 425.364 32.5918 417.254C27.4018 408.744 23.2718 399.704 20.2818 390.354C18.5718 385.004 17.2318 379.454 17.6418 373.894C18.0118 368.844 19.8118 363.964 22.1318 359.374C28.0818 347.544 37.8618 336.994 50.7118 331.304C63.5618 325.604 79.6118 325.294 91.8318 332.044C93.4018 332.914 95.1117 334.354 94.5918 335.964" fill="#92A54E"/>
<path d="M95.0618 330.734C85.1618 334.754 77.8318 344.444 77.3318 355.214C77.1918 358.144 77.6018 361.094 78.5518 363.874L79.0318 363.244C74.7618 362.754 70.5918 365.504 68.8818 369.364C67.1718 373.224 68.5218 377.734 71.2718 380.924C72.9518 382.864 75.0918 384.394 77.4018 385.494V384.634C74.3718 386.354 73.2618 389.934 74.0018 393.224C74.8718 397.074 78.1618 399.634 81.6318 401.104C83.8718 402.054 86.2418 402.624 88.6418 403.004L88.5218 402.094C86.1418 403.914 86.3318 407.064 87.9518 409.354C90.1218 412.434 93.8618 413.094 97.4018 412.614C99.9318 412.274 102.362 411.424 104.742 410.534L104.122 409.914C101.832 415.554 106.512 421.834 112.172 422.744L112.052 421.834C105.172 426.384 98.2418 430.954 90.7118 434.374C83.1818 437.794 75.3018 439.884 67.1318 439.764C63.1518 439.704 59.1818 439.094 55.4218 437.774C51.8818 436.534 48.5918 434.634 45.6718 432.284C39.9318 427.654 35.6518 421.524 31.9518 415.214C27.6518 407.884 24.0818 400.124 21.3718 392.064C19.9518 387.864 18.6718 383.554 18.2318 379.124C17.7918 374.694 18.3318 370.594 19.6718 366.484C21.9918 359.404 26.0418 352.704 30.8418 347.024C35.6418 341.344 41.1518 336.784 47.5418 333.384C54.2218 329.824 61.6818 327.814 69.2418 327.524C76.8018 327.234 84.3818 328.644 91.0418 332.174C92.2918 332.844 94.5818 334.064 94.1018 335.814C93.9318 336.434 94.8918 336.704 95.0618 336.084C95.5318 334.364 94.1918 332.994 92.8818 332.094C91.3618 331.054 89.5818 330.294 87.8818 329.604C84.3418 328.164 80.5918 327.264 76.8018 326.814C69.0718 325.894 61.0818 326.874 53.7618 329.514C46.4418 332.154 40.1818 336.244 34.7218 341.434C29.2618 346.624 25.0318 352.484 21.7318 359.014C19.7818 362.884 18.1518 366.974 17.4518 371.274C16.7518 375.574 17.1318 380.114 18.1218 384.434C19.1118 388.754 20.5818 393.084 22.1918 397.264C23.8018 401.444 25.5218 405.264 27.4818 409.124C31.0618 416.134 35.1818 423.124 40.5918 428.894C43.1518 431.634 46.0518 434.074 49.2818 435.994C52.7018 438.024 56.4818 439.394 60.3918 440.104C68.4518 441.574 76.8818 440.484 84.5918 437.864C92.7118 435.104 100.152 430.754 107.322 426.124C109.072 424.994 110.812 423.844 112.552 422.684C112.872 422.474 112.892 421.844 112.432 421.774C107.272 420.944 102.982 415.354 105.082 410.174C105.222 409.834 104.802 409.434 104.462 409.554C100.932 410.854 97.0318 412.294 93.2118 411.564C90.5818 411.064 88.2118 409.134 87.7418 406.384C87.5118 405.064 87.9318 403.754 89.0118 402.934C89.3018 402.704 89.3718 402.094 88.8918 402.024C85.1518 401.424 81.1918 400.394 78.2018 397.944C75.7018 395.894 74.1718 392.734 74.9418 389.474C75.3418 387.774 76.3618 386.344 77.8918 385.484C78.2018 385.314 78.2318 384.784 77.8918 384.624C74.2818 382.914 70.8818 380.014 69.5618 376.134C68.9618 374.344 68.8418 372.444 69.4418 370.634C70.0418 368.824 71.2718 367.154 72.8118 365.994C74.6018 364.654 76.7818 363.994 79.0118 364.254C79.3318 364.294 79.5918 363.904 79.4918 363.624C76.1518 353.874 80.1118 343.004 87.6918 336.394C89.9418 334.434 92.5318 332.844 95.3018 331.714C95.8918 331.474 95.6318 330.504 95.0318 330.754L95.0618 330.734Z" fill="#97B051"/>
</g>
<path d="M96.5417 455.904C98.0517 454.534 114.652 454.534 114.652 454.534L110.122 416.064L117.672 409.194C117.672 409.194 122.202 403.694 116.162 407.824L110.122 411.944L107.922 396.494C107.922 396.494 104.362 393.414 104.222 396.494C104.082 399.574 101.072 421.554 101.072 421.554L98.0517 417.434C98.0517 417.434 93.5217 416.794 96.5417 420.554C99.5617 424.304 100.302 425.514 100.302 425.514L96.5417 455.904Z" fill="#5C443B"/>
<path d="M108.973 484.515C104.843 484.265 100.803 483.005 97.3934 480.885C95.4134 482.635 92.4434 483.125 89.6734 483.025C82.5234 482.765 75.6834 478.845 72.3634 473.125C69.0434 467.405 69.3634 460.125 73.1434 454.635C73.4634 454.175 73.8134 453.645 73.6234 453.125C73.5134 452.825 73.2334 452.605 72.9834 452.385C69.0234 449.055 67.3734 443.815 68.2134 438.995C69.0534 434.175 72.1734 429.805 76.3134 426.665C77.1434 426.035 78.0434 425.415 78.5034 424.525C78.9434 423.675 78.9134 422.705 79.0034 421.765C79.3634 417.745 82.0534 413.955 85.9534 411.985C89.8534 410.015 94.8534 409.935 98.8334 411.765C101.903 406.425 107.083 401.795 113.573 400.385C120.063 398.975 127.743 401.495 130.563 406.945C131.083 407.945 131.473 409.065 132.423 409.765C134.033 410.945 136.383 410.395 138.443 410.165C144.003 409.525 149.863 411.885 153.033 416.045C155.233 418.925 156.133 422.435 156.913 425.865C157.113 426.735 157.323 427.645 157.983 428.295C158.553 428.865 159.383 429.155 160.163 429.475C166.943 432.295 171.293 439.265 170.453 445.955C169.993 449.595 168.173 452.985 166.113 456.155C163.673 459.905 160.383 463.735 155.653 464.605C155.073 464.715 154.423 464.795 154.053 465.205C153.753 465.535 153.703 465.985 153.663 466.405C152.883 473.375 148.313 480.015 141.473 483.325C134.623 486.635 125.653 486.275 119.453 482.055C119.533 483.015 118.643 483.865 117.633 484.185C116.623 484.505 115.513 484.415 114.453 484.315C111.213 484.025 107.983 483.735 104.743 483.445" fill="#98AF58"/>
<mask id="mask6_284_9936" style="mask-type:luminance" maskUnits="userSpaceOnUse" x="68" y="400" width="103" height="86">
<path d="M108.973 484.515C104.843 484.265 100.803 483.005 97.3934 480.885C95.4134 482.635 92.4434 483.125 89.6734 483.025C82.5234 482.765 75.6834 478.845 72.3634 473.125C69.0434 467.405 69.3634 460.125 73.1434 454.635C73.4634 454.175 73.8134 453.645 73.6234 453.125C73.5134 452.825 73.2334 452.605 72.9834 452.385C69.0234 449.055 67.3734 443.815 68.2134 438.995C69.0534 434.175 72.1734 429.805 76.3134 426.665C77.1434 426.035 78.0434 425.415 78.5034 424.525C78.9434 423.675 78.9134 422.705 79.0034 421.765C79.3634 417.745 82.0534 413.955 85.9534 411.985C89.8534 410.015 94.8534 409.935 98.8334 411.765C101.903 406.425 107.083 401.795 113.573 400.385C120.063 398.975 127.743 401.495 130.563 406.945C131.083 407.945 131.473 409.065 132.423 409.765C134.033 410.945 136.383 410.395 138.443 410.165C144.003 409.525 149.863 411.885 153.033 416.045C155.233 418.925 156.133 422.435 156.913 425.865C157.113 426.735 157.323 427.645 157.983 428.295C158.553 428.865 159.383 429.155 160.163 429.475C166.943 432.295 171.293 439.265 170.453 445.955C169.993 449.595 168.173 452.985 166.113 456.155C163.673 459.905 160.383 463.735 155.653 464.605C155.073 464.715 154.423 464.795 154.053 465.205C153.753 465.535 153.703 465.985 153.663 466.405C152.883 473.375 148.313 480.015 141.473 483.325C134.623 486.635 125.653 486.275 119.453 482.055C119.533 483.015 118.643 483.865 117.633 484.185C116.623 484.505 115.513 484.415 114.453 484.315C111.213 484.025 107.983 483.735 104.743 483.445" fill="white"/>
</mask>
<g mask="url(#mask6_284_9936)">
<path d="M123.543 403.835C135.563 408.615 142.333 422.105 138.373 433.395C143.443 432.765 148.063 437.345 147.993 441.955C147.923 446.565 144.193 450.645 139.643 452.755C143.433 454.825 143.613 460.115 140.963 463.305C138.313 466.495 133.793 467.945 129.433 468.615C132.533 470.885 130.243 475.895 126.463 477.045C122.683 478.195 118.593 476.815 114.893 475.465C116.823 480.025 113.163 485.765 107.823 486.565C115.853 491.825 124.003 497.145 133.293 500.285C142.583 503.425 153.313 504.175 162.253 500.285C170.683 496.625 176.463 489.385 181.003 482.015C185.763 474.275 189.563 466.065 192.303 457.565C193.873 452.695 195.103 447.655 194.733 442.605C194.393 438.015 192.743 433.585 190.613 429.405C185.143 418.645 176.173 409.065 164.373 403.885C152.573 398.705 137.843 398.425 126.623 404.555C125.183 405.345 123.613 406.655 124.093 408.115" fill="#92A54E"/>
<path d="M123.413 404.325C132.073 407.805 138.603 416.355 138.993 425.785C139.093 428.335 138.733 430.855 137.903 433.265C137.803 433.545 138.073 433.935 138.383 433.895C141.973 433.495 145.403 435.705 146.863 438.955C148.323 442.205 146.963 446.005 144.603 448.575C143.143 450.175 141.343 451.415 139.393 452.325C139.053 452.485 139.083 453.015 139.393 453.185C141.933 454.615 142.733 457.655 141.963 460.355C141.053 463.515 138.093 465.515 135.163 466.645C133.273 467.375 131.293 467.825 129.303 468.135C128.823 468.215 128.883 468.825 129.183 469.045C131.763 471.005 129.743 474.695 127.553 476.015C125.813 477.065 123.573 477.115 121.623 476.845C119.353 476.535 117.173 475.765 115.033 474.975C114.693 474.855 114.273 475.245 114.413 475.595C116.343 480.315 112.373 485.335 107.693 486.075C107.233 486.145 107.253 486.775 107.573 486.985C114.133 491.285 120.753 495.595 127.973 498.735C134.933 501.765 142.453 503.645 150.083 503.385C153.803 503.255 157.523 502.615 161.013 501.305C164.283 500.075 167.283 498.285 169.983 496.075C175.413 491.645 179.443 485.755 182.933 479.745C186.953 472.835 190.253 465.495 192.723 457.885C194.003 453.955 195.073 449.915 195.273 445.765C195.473 441.615 194.673 437.805 193.263 434.065C190.813 427.595 186.983 421.555 182.373 416.415C177.763 411.275 172.333 407.095 166.193 404.135C159.793 401.055 152.703 399.445 145.603 399.445C142.063 399.445 138.513 399.855 135.083 400.715C133.393 401.135 131.733 401.675 130.113 402.335C128.493 402.995 126.863 403.675 125.473 404.665C124.313 405.485 123.203 406.705 123.623 408.225C123.793 408.845 124.753 408.585 124.583 407.955C124.133 406.305 126.433 405.185 127.593 404.585C129.123 403.795 130.723 403.125 132.353 402.565C135.573 401.475 138.933 400.815 142.323 400.565C149.213 400.055 156.233 401.145 162.663 403.675C169.093 406.205 174.503 409.935 179.243 414.595C183.983 419.255 187.733 424.575 190.593 430.445C192.303 433.935 193.683 437.675 194.133 441.555C194.583 445.435 194.013 449.525 193.003 453.365C191.033 460.925 187.953 468.265 184.313 475.165C181.083 481.285 177.383 487.375 172.523 492.355C170.183 494.755 167.553 496.875 164.623 498.505C161.503 500.245 158.073 501.365 154.543 501.935C147.293 503.095 139.763 501.965 132.883 499.565C126.003 497.165 119.063 493.165 112.663 489.065C111.123 488.075 109.593 487.075 108.073 486.075L107.953 486.985C113.123 486.155 117.493 480.455 115.373 475.275L114.753 475.895C118.453 477.255 122.643 478.695 126.593 477.475C129.073 476.705 131.183 474.365 131.363 471.725C131.463 470.275 130.823 469.005 129.673 468.135L129.553 469.045C133.333 468.445 137.293 467.335 140.213 464.735C142.593 462.605 143.853 459.315 142.953 456.165C142.483 454.505 141.393 453.115 139.883 452.265V453.125C143.523 451.415 146.913 448.415 148.093 444.445C149.203 440.715 147.693 436.885 144.613 434.595C142.823 433.255 140.593 432.575 138.363 432.825L138.843 433.455C142.043 424.195 138.183 413.805 130.893 407.625C128.723 405.785 126.293 404.335 123.663 403.275C123.063 403.035 122.803 404.005 123.393 404.235L123.413 404.325Z" fill="#97B051"/>
</g>
<path d="M102.57 504.12C101.18 502.87 85.95 502.87 85.95 502.87L90.11 467.91L83.18 461.67C83.18 461.67 79.02 456.68 84.57 460.42L90.11 464.17L92.13 450.13C92.13 450.13 95.4 447.33 95.53 450.13C95.66 452.93 98.42 472.91 98.42 472.91L101.19 469.16C101.19 469.16 105.35 468.58 102.58 471.99C99.81 475.4 99.12 476.5 99.12 476.5L102.58 504.12H102.57Z" fill="#5C443B"/>
<path d="M41.45 472.24C37.72 472.02 34.06 470.87 30.98 468.96C29.19 470.54 26.5 470.99 24 470.9C17.53 470.67 11.35 467.12 8.35005 461.95C5.35005 456.78 5.64005 450.19 9.05005 445.23C9.34005 444.81 9.66005 444.33 9.49005 443.87C9.39005 443.6 9.14005 443.4 8.91005 443.2C5.33005 440.19 3.84005 435.45 4.59005 431.09C5.34005 426.73 8.17005 422.78 11.92 419.94C12.67 419.37 13.49 418.81 13.9 418.01C14.3 417.24 14.27 416.36 14.35 415.52C14.67 411.89 17.11 408.46 20.64 406.68C24.17 404.9 28.68 404.82 32.29 406.48C35.07 401.65 39.75 397.47 45.62 396.19C51.48 394.91 58.43 397.19 60.98 402.12C61.4501 403.03 61.8 404.04 62.66 404.67C64.1101 405.74 66.24 405.24 68.1 405.03C73.13 404.45 78.42 406.58 81.29 410.34C83.28 412.95 84.09 416.12 84.8 419.21C84.98 419.99 85.17 420.82 85.77 421.41C86.29 421.92 87.04 422.19 87.74 422.48C93.87 425.03 97.8 431.33 97.04 437.38C96.63 440.67 94.98 443.74 93.12 446.6C90.91 449.99 87.94 453.45 83.66 454.24C83.1401 454.34 82.55 454.41 82.21 454.79C81.94 455.09 81.9 455.49 81.86 455.88C81.16 462.18 77.03 468.19 70.84 471.18C64.65 474.17 56.54 473.85 50.93 470.04C51 470.91 50.19 471.68 49.28 471.97C48.37 472.26 47.37 472.18 46.4 472.09C43.47 471.83 40.55 471.57 37.62 471.31" fill="#86AF4B"/>
<mask id="mask7_284_9936" style="mask-type:luminance" maskUnits="userSpaceOnUse" x="4" y="395" width="94" height="79">
<path d="M41.45 472.24C37.72 472.02 34.06 470.87 30.98 468.96C29.19 470.54 26.5 470.99 24 470.9C17.53 470.67 11.35 467.12 8.35005 461.95C5.35005 456.78 5.64005 450.19 9.05005 445.23C9.34005 444.81 9.66005 444.33 9.49005 443.87C9.39005 443.6 9.14005 443.4 8.91005 443.2C5.33005 440.19 3.84005 435.45 4.59005 431.09C5.34005 426.73 8.17005 422.78 11.92 419.94C12.67 419.37 13.49 418.81 13.9 418.01C14.3 417.24 14.27 416.36 14.35 415.52C14.67 411.89 17.11 408.46 20.64 406.68C24.17 404.9 28.68 404.82 32.29 406.48C35.07 401.65 39.75 397.47 45.62 396.19C51.48 394.91 58.43 397.19 60.98 402.12C61.4501 403.03 61.8 404.04 62.66 404.67C64.1101 405.74 66.24 405.24 68.1 405.03C73.13 404.45 78.42 406.58 81.29 410.34C83.28 412.95 84.09 416.12 84.8 419.21C84.98 419.99 85.17 420.82 85.77 421.41C86.29 421.92 87.04 422.19 87.74 422.48C93.87 425.03 97.8 431.33 97.04 437.38C96.63 440.67 94.98 443.74 93.12 446.6C90.91 449.99 87.94 453.45 83.66 454.24C83.1401 454.34 82.55 454.41 82.21 454.79C81.94 455.09 81.9 455.49 81.86 455.88C81.16 462.18 77.03 468.19 70.84 471.18C64.65 474.17 56.54 473.85 50.93 470.04C51 470.91 50.19 471.68 49.28 471.97C48.37 472.26 47.37 472.18 46.4 472.09C43.47 471.83 40.55 471.57 37.62 471.31" fill="white"/>
</mask>
<g mask="url(#mask7_284_9936)">
<path d="M54.63 399.29C65.5 403.61 71.62 415.81 68.04 426.02C72.62 425.45 76.8 429.59 76.74 433.76C76.68 437.93 73.3 441.62 69.19 443.53C72.61 445.4 72.78 450.18 70.38 453.07C67.98 455.96 63.9 457.26 59.95 457.88C62.75 459.93 60.69 464.46 57.27 465.5C53.85 466.54 50.15 465.3 46.81 464.07C48.56 468.19 45.25 473.39 40.42 474.11C47.68 478.86 55.05 483.67 63.45 486.52C71.85 489.36 81.55 490.04 89.63 486.52C97.25 483.21 102.48 476.67 106.59 470C110.9 463 114.33 455.57 116.81 447.89C118.23 443.49 119.34 438.93 119 434.36C118.69 430.21 117.2 426.2 115.28 422.42C110.34 412.69 102.22 404.03 91.55 399.35C80.8801 394.67 67.56 394.41 57.42 399.96C56.11 400.67 54.7 401.86 55.13 403.18" fill="#92A54E"/>
<path d="M54.5 399.77C62.32 402.92 68.21 410.64 68.55 419.15C68.64 421.44 68.31 423.72 67.56 425.88C67.46 426.16 67.73 426.55 68.04 426.51C71.27 426.15 74.36 428.14 75.67 431.07C76.98 434 75.72 437.45 73.58 439.75C72.27 441.16 70.67 442.26 68.93 443.08C68.59 443.24 68.62 443.77 68.93 443.94C71.94 445.64 72.14 449.72 70.28 452.36C67.98 455.62 63.54 456.79 59.82 457.38C59.34 457.46 59.4 458.07 59.7 458.29C62.01 460.05 60.17 463.35 58.21 464.52C56.64 465.46 54.63 465.5 52.87 465.25C50.83 464.97 48.87 464.27 46.94 463.57C46.6 463.45 46.18 463.84 46.32 464.19C48.05 468.44 44.49 472.93 40.28 473.61C39.82 473.68 39.84 474.31 40.16 474.52C46.14 478.44 52.17 482.37 58.76 485.22C65.35 488.07 71.9 489.63 78.82 489.36C85.74 489.09 91.63 486.87 96.75 482.66C101.87 478.45 105.29 473.28 108.44 467.84C112.07 461.57 115.05 454.91 117.28 448.01C118.44 444.43 119.39 440.73 119.54 436.95C119.69 433.17 118.93 429.83 117.64 426.49C113.22 414.97 104.24 404.83 93.07 399.49C87.23 396.7 80.75 395.26 74.28 395.31C71.12 395.33 67.96 395.71 64.9 396.5C63.35 396.9 61.82 397.4 60.34 398.01C58.86 398.62 57.43 399.22 56.19 400.14C55.18 400.89 54.28 401.97 54.64 403.31C54.81 403.93 55.77 403.67 55.6 403.04C55.2 401.55 57.32 400.55 58.37 400.01C59.75 399.3 61.19 398.7 62.67 398.2C65.57 397.22 68.59 396.64 71.63 396.42C77.86 395.96 84.2 396.95 90.02 399.25C101.14 403.64 109.99 412.75 115.2 423.4C116.75 426.56 118 429.94 118.41 433.46C118.82 436.98 118.29 440.7 117.37 444.2C115.58 451.04 112.79 457.67 109.49 463.91C106.56 469.45 103.21 474.95 98.8 479.44C94.39 483.93 88.84 487.03 82.55 488.02C68.82 490.17 55.97 483.52 44.79 476.35C43.41 475.47 42.05 474.57 40.68 473.68L40.56 474.59C45.26 473.83 49.22 468.66 47.3 463.94L46.68 464.56C50.48 465.95 55.72 467.77 59.34 464.98C61.67 463.19 62.89 459.5 60.21 457.45L60.09 458.36C63.5 457.82 67.07 456.82 69.71 454.48C71.89 452.55 73.06 449.55 72.25 446.67C71.82 445.14 70.83 443.87 69.45 443.1V443.96C72.74 442.41 75.81 439.7 76.88 436.13C77.95 432.56 76.54 429.23 73.72 427.12C72.1 425.91 70.07 425.29 68.05 425.52L68.53 426.15C71.41 417.78 67.95 408.39 61.37 402.79C59.39 401.11 57.17 399.78 54.76 398.81C54.16 398.57 53.9 399.54 54.49 399.77H54.5Z" fill="#97B051"/>
</g>
<path d="M53.5101 501.76C52.2601 500.63 38.4801 500.63 38.4801 500.63L42.2401 469.02L35.9801 463.37C35.9801 463.37 32.2201 458.85 37.2301 462.24L42.2401 465.63L44.0701 452.94C44.0701 452.94 47.0301 450.41 47.1401 452.94C47.2501 455.47 49.7601 473.54 49.7601 473.54L52.2701 470.15C52.2701 470.15 56.0301 469.63 53.5201 472.71C51.01 475.79 50.3901 476.79 50.3901 476.79L53.5201 501.77L53.5101 501.76Z" fill="#5C443B"/>
<path d="M57.56 521.63C53.06 521.36 48.66 519.97 44.95 517.64C42.79 519.56 39.56 520.11 36.54 520C28.75 519.72 21.3 515.4 17.68 509.11C14.07 502.82 14.42 494.8 18.53 488.77C18.88 488.26 19.26 487.68 19.05 487.11C18.93 486.78 18.63 486.54 18.35 486.3C14.03 482.64 12.24 476.87 13.15 471.56C14.06 466.25 17.46 461.45 21.98 457.99C22.88 457.3 23.87 456.61 24.37 455.64C24.85 454.71 24.82 453.63 24.91 452.6C25.3 448.18 28.23 444.01 32.49 441.84C36.74 439.68 42.18 439.58 46.52 441.59C49.86 435.71 55.51 430.62 62.58 429.07C69.65 427.52 78.02 430.29 81.09 436.29C81.65 437.39 82.08 438.63 83.11 439.4C84.86 440.7 87.42 440.1 89.66 439.84C95.71 439.13 102.09 441.73 105.55 446.31C107.94 449.48 108.93 453.34 109.77 457.11C109.98 458.06 110.22 459.07 110.94 459.79C111.57 460.42 112.47 460.74 113.31 461.09C120.7 464.2 125.43 471.86 124.52 479.22C124.02 483.23 122.04 486.96 119.8 490.44C117.14 494.57 113.56 498.78 108.41 499.73C107.78 499.85 107.07 499.94 106.66 500.39C106.33 500.75 106.28 501.25 106.23 501.71C105.38 509.38 100.41 516.69 92.95 520.33C85.49 523.97 75.72 523.58 68.96 518.94C69.04 520 68.07 520.94 66.97 521.29C65.87 521.64 64.67 521.54 63.5 521.44C59.98 521.12 56.45 520.8 52.93 520.49" fill="#97B051"/>
<path d="M73.4301 432.87C86.5201 438.13 93.8901 452.97 89.5901 465.4C95.1101 464.7 100.14 469.75 100.07 474.82C100 479.89 95.9301 484.38 90.9701 486.71C95.0901 488.98 95.3001 494.81 92.4101 498.32C89.5201 501.83 84.6001 503.42 79.8501 504.17C83.2201 506.66 80.7401 512.18 76.6201 513.44C72.5001 514.7 68.0401 513.19 64.0201 511.7C66.1201 516.72 62.1401 523.04 56.3201 523.91C65.0601 529.69 73.9401 535.55 84.0601 539.01C94.1801 542.47 105.87 543.29 115.6 539.01C124.78 534.98 131.08 527.02 136.03 518.91C141.22 510.4 145.35 501.36 148.34 492.01C150.05 486.66 151.39 481.11 150.98 475.55C150.61 470.5 148.81 465.62 146.49 461.03C140.54 449.2 130.76 438.65 117.91 432.96C105.06 427.27 89.0101 426.95 76.7901 433.7C75.2201 434.57 73.5101 436.01 74.0301 437.62" fill="#92A54E"/>
<path d="M73.3 433.35C82.82 437.21 89.89 446.68 90.3 457.03C90.41 459.83 90.01 462.61 89.11 465.26C89.01 465.54 89.28 465.93 89.59 465.89C93.56 465.43 97.37 467.97 98.91 471.59C100.45 475.21 98.93 479.37 96.33 482.2C94.75 483.92 92.82 485.27 90.71 486.26C90.37 486.42 90.4 486.95 90.71 487.12C93.5 488.7 94.37 492.07 93.53 495.04C92.55 498.55 89.28 500.78 86.04 502.04C84 502.83 81.85 503.32 79.7 503.67C79.22 503.75 79.28 504.36 79.58 504.58C81.67 506.18 80.97 509.09 79.51 510.85C77.29 513.53 73.6 513.71 70.4 513.1C68.25 512.69 66.18 511.95 64.13 511.2C63.79 511.08 63.37 511.47 63.51 511.82C65.61 517 61.32 522.59 56.16 523.42C55.7 523.49 55.72 524.12 56.04 524.33C63.17 529.05 70.35 533.78 78.2 537.24C86.05 540.7 93.99 542.67 102.32 542.38C106.37 542.24 110.43 541.53 114.23 540.08C117.79 538.73 121.07 536.74 124 534.31C129.88 529.45 134.24 523.01 138.02 516.45C142.38 508.88 145.96 500.86 148.65 492.55C150.05 488.22 151.23 483.77 151.48 479.21C151.73 474.65 150.9 470.54 149.4 466.44C146.79 459.33 142.64 452.67 137.64 446.99C132.64 441.31 126.69 436.63 119.96 433.33C113.23 430.03 105.26 428.12 97.51 428.12C93.66 428.12 89.81 428.56 86.07 429.5C84.18 429.97 82.33 430.58 80.53 431.32C78.84 432.02 77.05 432.77 75.55 433.84C74.3 434.73 73.08 436.06 73.53 437.71C73.7 438.33 74.66 438.07 74.49 437.44C74 435.66 76.37 434.42 77.64 433.75C79.32 432.86 81.06 432.11 82.86 431.49C86.4 430.26 90.09 429.53 93.82 429.25C101.37 428.68 109.05 429.89 116.08 432.69C122.88 435.4 129.04 439.64 134.21 444.8C139.38 449.96 143.44 455.82 146.55 462.28C148.38 466.09 149.86 470.16 150.35 474.39C150.86 478.82 150.2 483.27 149.08 487.57C146.93 495.82 143.61 503.84 139.66 511.39C136.14 518.13 132.12 524.83 126.81 530.33C124.26 532.97 121.4 535.31 118.19 537.12C114.81 539.02 111.11 540.26 107.29 540.89C99.37 542.19 91.13 540.96 83.61 538.32C76.09 535.68 68.54 531.29 61.57 526.78C59.88 525.69 58.2 524.58 56.52 523.47L56.4 524.38C62.06 523.47 66.74 517.2 64.45 511.55L63.83 512.17C67.85 513.66 72.41 515.25 76.7 513.91C79.4 513.07 81.67 510.5 81.86 507.63C81.97 506.06 81.29 504.67 80.05 503.72L79.93 504.63C84.03 503.98 88.33 502.76 91.49 499.93C94.09 497.6 95.47 494 94.51 490.56C94 488.73 92.83 487.2 91.18 486.26V487.12C95.1 485.26 98.72 482.03 100.05 477.78C101.38 473.53 99.74 469.38 96.33 466.81C94.39 465.35 91.97 464.6 89.55 464.88L90.03 465.51C93.49 455.39 89.36 444.01 81.44 437.19C79.08 435.16 76.41 433.54 73.52 432.37C72.92 432.13 72.66 433.1 73.25 433.33L73.3 433.35Z" fill="#97B051"/>
<path d="M89.049 528.401C85.319 528.181 81.659 527.031 78.579 525.121C76.789 526.701 74.0991 527.151 71.5991 527.061C65.1291 526.831 58.949 523.281 55.949 518.111C52.949 512.941 53.239 506.351 56.649 501.391C56.939 500.971 57.259 500.491 57.089 500.031C56.989 499.761 56.739 499.561 56.509 499.361C52.929 496.351 51.439 491.611 52.189 487.251C52.939 482.891 55.769 478.941 59.519 476.101C60.269 475.531 61.089 474.971 61.499 474.171C61.899 473.401 61.869 472.521 61.949 471.681C62.269 468.051 64.7091 464.621 68.239 462.841C71.7691 461.061 76.279 460.981 79.889 462.641C82.669 457.811 87.349 453.631 93.219 452.351C99.079 451.071 106.029 453.351 108.579 458.281C109.049 459.191 109.399 460.201 110.259 460.831C111.709 461.901 113.839 461.401 115.699 461.191C120.729 460.611 126.019 462.741 128.889 466.501C130.879 469.111 131.689 472.281 132.399 475.371C132.579 476.151 132.769 476.981 133.369 477.571C133.889 478.081 134.639 478.351 135.339 478.641C141.469 481.191 145.399 487.491 144.639 493.541C144.229 496.831 142.579 499.901 140.719 502.761C138.509 506.151 135.539 509.611 131.259 510.401C130.739 510.501 130.149 510.571 129.809 510.951C129.539 511.251 129.499 511.651 129.459 512.041C128.759 518.341 124.629 524.351 118.439 527.341C112.249 530.331 104.139 530.011 98.529 526.201C98.599 527.071 97.789 527.841 96.879 528.131C95.969 528.421 94.969 528.341 93.999 528.251C91.069 527.991 88.149 527.731 85.219 527.471" fill="#86AF4B"/>
<mask id="mask8_284_9936" style="mask-type:luminance" maskUnits="userSpaceOnUse" x="52" y="452" width="93" height="78">
<path d="M89.049 528.401C85.319 528.181 81.659 527.031 78.579 525.121C76.789 526.701 74.0991 527.151 71.5991 527.061C65.1291 526.831 58.949 523.281 55.949 518.111C52.949 512.941 53.239 506.351 56.649 501.391C56.939 500.971 57.259 500.491 57.089 500.031C56.989 499.761 56.739 499.561 56.509 499.361C52.929 496.351 51.439 491.611 52.189 487.251C52.939 482.891 55.769 478.941 59.519 476.101C60.269 475.531 61.089 474.971 61.499 474.171C61.899 473.401 61.869 472.521 61.949 471.681C62.269 468.051 64.7091 464.621 68.239 462.841C71.7691 461.061 76.279 460.981 79.889 462.641C82.669 457.811 87.349 453.631 93.219 452.351C99.079 451.071 106.029 453.351 108.579 458.281C109.049 459.191 109.399 460.201 110.259 460.831C111.709 461.901 113.839 461.401 115.699 461.191C120.729 460.611 126.019 462.741 128.889 466.501C130.879 469.111 131.689 472.281 132.399 475.371C132.579 476.151 132.769 476.981 133.369 477.571C133.889 478.081 134.639 478.351 135.339 478.641C141.469 481.191 145.399 487.491 144.639 493.541C144.229 496.831 142.579 499.901 140.719 502.761C138.509 506.151 135.539 509.611 131.259 510.401C130.739 510.501 130.149 510.571 129.809 510.951C129.539 511.251 129.499 511.651 129.459 512.041C128.759 518.341 124.629 524.351 118.439 527.341C112.249 530.331 104.139 530.011 98.529 526.201C98.599 527.071 97.789 527.841 96.879 528.131C95.969 528.421 94.969 528.341 93.999 528.251C91.069 527.991 88.149 527.731 85.219 527.471" fill="white"/>
</mask>
<g mask="url(#mask8_284_9936)">
<path d="M102.229 455.461C113.099 459.781 119.219 471.981 115.639 482.191C120.219 481.621 124.399 485.761 124.339 489.931C124.279 494.101 120.899 497.791 116.789 499.701C120.209 501.571 120.379 506.351 117.979 509.241C115.579 512.131 111.499 513.431 107.549 514.051C110.349 516.101 108.289 520.631 104.869 521.671C101.449 522.711 97.749 521.471 94.409 520.241C96.159 524.361 92.849 529.561 88.019 530.281C95.279 535.031 102.649 539.841 111.049 542.691C119.449 545.531 129.149 546.211 137.229 542.691C144.849 539.381 150.079 532.841 154.189 526.171C158.499 519.171 161.929 511.741 164.409 504.061C165.829 499.661 166.939 495.101 166.599 490.531C166.289 486.381 164.799 482.371 162.879 478.591C157.939 468.861 149.819 460.201 139.149 455.521C128.479 450.841 115.159 450.581 105.019 456.131C103.709 456.841 102.299 458.031 102.729 459.351" fill="#92A54E"/>
<path d="M102.089 455.941C109.909 459.091 115.799 466.811 116.139 475.321C116.229 477.611 115.899 479.891 115.149 482.051C115.049 482.331 115.319 482.721 115.629 482.681C118.859 482.321 121.949 484.311 123.259 487.241C124.569 490.171 123.309 493.621 121.169 495.921C119.859 497.331 118.259 498.431 116.519 499.251C116.179 499.411 116.209 499.941 116.519 500.111C119.529 501.811 119.729 505.891 117.869 508.531C115.569 511.791 111.129 512.961 107.409 513.551C106.929 513.631 106.989 514.241 107.289 514.461C109.599 516.221 107.759 519.521 105.799 520.691C104.229 521.631 102.219 521.671 100.459 521.421C98.419 521.141 96.459 520.441 94.529 519.741C94.189 519.621 93.769 520.011 93.909 520.361C95.639 524.611 92.079 529.101 87.869 529.781C87.409 529.851 87.429 530.481 87.749 530.691C93.729 534.611 99.759 538.541 106.349 541.391C112.939 544.241 119.489 545.801 126.409 545.531C133.329 545.261 139.219 543.041 144.339 538.831C149.459 534.621 152.879 529.451 156.029 524.011C159.659 517.741 162.639 511.081 164.869 504.181C166.029 500.601 166.979 496.901 167.129 493.121C167.279 489.341 166.519 486.001 165.229 482.661C160.809 471.141 151.829 461.001 140.659 455.661C134.819 452.871 128.339 451.431 121.869 451.481C118.709 451.501 115.549 451.881 112.489 452.671C110.939 453.071 109.409 453.571 107.929 454.181C106.449 454.791 105.019 455.391 103.779 456.311C102.769 457.061 101.869 458.141 102.229 459.481C102.399 460.101 103.359 459.841 103.189 459.211C102.789 457.721 104.909 456.721 105.959 456.181C107.339 455.471 108.779 454.871 110.259 454.371C113.159 453.391 116.179 452.811 119.219 452.591C125.449 452.131 131.789 453.121 137.609 455.421C148.729 459.811 157.579 468.921 162.789 479.571C164.339 482.731 165.589 486.111 165.999 489.631C166.409 493.151 165.879 496.871 164.959 500.371C163.169 507.211 160.379 513.841 157.079 520.081C154.149 525.621 150.799 531.121 146.389 535.611C141.979 540.101 136.429 543.201 130.139 544.191C116.409 546.341 103.559 539.691 92.379 532.521C90.999 531.641 89.639 530.741 88.269 529.851L88.149 530.761C92.849 530.001 96.809 524.831 94.889 520.111L94.269 520.731C98.069 522.121 103.309 523.941 106.929 521.151C109.259 519.361 110.479 515.671 107.799 513.621L107.679 514.531C111.089 513.991 114.659 512.991 117.299 510.651C119.479 508.721 120.649 505.721 119.839 502.841C119.409 501.311 118.419 500.041 117.039 499.271V500.131C120.329 498.581 123.399 495.871 124.469 492.301C125.539 488.731 124.129 485.401 121.309 483.291C119.689 482.081 117.659 481.461 115.639 481.691L116.119 482.321C118.999 473.951 115.539 464.561 108.959 458.961C106.979 457.281 104.759 455.951 102.349 454.981C101.749 454.741 101.489 455.711 102.079 455.941H102.089Z" fill="#97B051"/>
</g>
<path d="M96.8843 553.944C95.6343 552.814 81.8543 552.814 81.8543 552.814L85.6143 521.204L79.3543 515.554C79.3543 515.554 75.5943 511.034 80.6043 514.424L85.6143 517.814L87.4443 505.124C87.4443 505.124 90.4043 502.594 90.5143 505.124C90.6243 507.654 93.1343 525.724 93.1343 525.724L95.6443 522.334C95.6443 522.334 99.4043 521.814 96.8943 524.894C94.3843 527.974 93.7643 528.974 93.7643 528.974L96.8943 553.954L96.8843 553.944Z" fill="#5C443B"/>
<path d="M1183.07 113.89C1176.9 99.9199 1158.1 93.7499 1144.26 99.0399C1141.97 99.9099 1139.81 101.11 1137.44 101.77C1134.63 102.54 1132.03 102.1 1129.55 100.62C1127.55 99.4299 1125.81 97.8699 1123.86 96.5999C1121.91 95.3299 1119.87 94.3499 1117.72 93.5799C1113.25 91.9799 1108.37 91.4099 1103.65 91.9499C1101.04 92.2499 1098.5 92.9599 1095.92 93.4499C1093.03 93.9899 1090.26 93.9699 1087.4 93.2999C1084.81 92.6999 1082.32 91.7599 1079.77 91.0499C1077.22 90.3399 1074.72 89.9699 1072.15 89.8099C1066.6 89.4699 1061.05 90.1599 1055.54 90.7299C1044.3 91.8899 1033.03 92.8699 1021.82 94.2899C1016.93 94.9099 1012.05 95.6999 1007.3 97.0099C1004.92 97.6699 1002.58 98.4499 1000.3 99.4099C999.27 99.8399 998.26 100.31 997.27 100.81C996.28 101.31 995.21 102.24 994.13 102.23C992.1 102.21 990.23 102.13 988.22 102.59C986.21 103.05 984.34 103.83 982.61 104.88C979.45 106.78 976.78 109.62 975.4 113.07C974.63 115 974.47 116.94 974.43 119C974.38 121.66 973.87 123.83 971.82 125.62C968.83 128.23 964.82 129.31 961.82 131.92C956.11 136.88 956.24 145.41 959.53 151.69C963.71 159.67 972.7 163.87 980.74 166.89C990.5 170.55 1000.66 173.97 1010.97 175.65C1016.07 176.48 1021.28 176.83 1026.43 176.27C1028.87 176 1031.29 175.54 1033.65 174.84C1036.15 174.09 1038.54 172.82 1041.13 172.35C1044.13 171.81 1046.37 173.2 1048.7 174.88C1050.55 176.22 1052.49 177.39 1054.57 178.33C1058.52 180.11 1062.79 181.14 1067.11 181.44C1071.43 181.74 1075.9 181.3 1080.09 180.05C1082.13 179.44 1084.12 178.64 1086.01 177.66C1088.34 176.44 1090.55 174.98 1092.99 173.98C1098.39 171.76 1104.09 172.99 1109.53 174.38C1113.71 175.45 1117.9 176.47 1122.15 177.24C1129.98 178.65 1138.66 179.53 1146.25 176.54C1149.87 175.11 1152.72 172.82 1155.19 169.85C1156.69 168.05 1158.28 166.24 1160.72 165.84C1163.47 165.39 1166.2 166.7 1168.59 167.88C1172.15 169.64 1175.53 171.11 1179.52 171.5C1183.15 171.86 1186.86 171.45 1190.37 170.44C1197.03 168.52 1203.34 164.36 1207.03 158.4C1208.73 155.66 1209.76 152.58 1210 149.36L1209.25 149.79C1216.56 154.58 1226.15 151.37 1231.83 145.51C1234.66 142.59 1236.66 138.9 1237.07 134.83C1237.6 129.56 1236.08 124.33 1233.58 119.72C1230.51 114.06 1226.08 109.21 1221.35 104.89L1221.25 105.68C1230.02 100.92 1228.35 89.1799 1222.5 82.7499C1218.61 78.4699 1212.77 76.5199 1207.18 75.7399C1200.5 74.8099 1193.7 75.4599 1187.05 76.3399C1178.45 77.4699 1169.86 78.7299 1161.26 79.9299C1160.63 80.0199 1160.9 80.9799 1161.53 80.8899C1168.63 79.8999 1175.73 78.9099 1182.82 77.9199C1189.18 77.0299 1195.58 76.1299 1202.02 76.3199C1207.87 76.4899 1214.31 77.5899 1219.16 81.0999C1222.85 83.7699 1225.46 87.9699 1226.22 92.4599C1227.07 97.4299 1225.3 102.35 1220.75 104.83C1220.48 104.98 1220.41 105.4 1220.65 105.62C1227.98 112.31 1235.57 121.07 1236.15 131.47C1236.39 135.83 1235.21 139.86 1232.49 143.29C1229.96 146.48 1226.45 148.97 1222.58 150.25C1218.28 151.67 1213.63 151.47 1209.77 148.95C1209.43 148.73 1209.04 149.03 1209.02 149.38C1207.92 164.24 1189.84 173.14 1176.47 170.02C1172.26 169.04 1168.78 166.35 1164.65 165.2C1162.7 164.66 1160.62 164.58 1158.74 165.43C1156.98 166.23 1155.71 167.71 1154.5 169.16C1151.9 172.28 1148.87 174.63 1145 175.96C1141.13 177.29 1137.27 177.59 1133.34 177.5C1124.69 177.3 1116.34 175 1107.98 172.98C1103.27 171.84 1098.24 171.05 1093.55 172.72C1088.86 174.39 1085.34 177.31 1080.83 178.8C1072.34 181.61 1062.62 181.07 1054.53 177.23C1052.58 176.31 1050.78 175.17 1049.04 173.91C1047.3 172.65 1045.56 171.48 1043.42 171.27C1040.97 171.03 1038.64 172.01 1036.4 172.86C1034.05 173.76 1031.65 174.45 1029.17 174.9C1018.76 176.77 1008.06 174.54 998.07 171.61C993.27 170.2 988.52 168.61 983.8 166.95C979.08 165.29 974.74 163.58 970.6 161.12C963.49 156.9 957.43 149.87 958.31 141.08C958.72 136.98 960.89 133.54 964.35 131.32C967.37 129.39 971.1 128.17 973.5 125.4C976.39 122.05 974.81 117.57 976.26 113.69C977.71 109.81 980.87 106.84 984.48 105.03C986.41 104.07 988.52 103.43 990.67 103.23C991.64 103.14 992.61 103.12 993.58 103.2C994.92 103.31 995 103.24 996.19 102.57C1000.53 100.13 1005.27 98.5099 1010.1 97.3599C1020.24 94.9499 1030.79 94.3199 1041.13 93.2499C1046.66 92.6799 1052.2 92.0999 1057.73 91.5299C1063.26 90.9599 1068.4 90.4299 1073.74 90.9499C1079.08 91.4699 1083.69 93.7699 1088.84 94.6199C1093.99 95.4699 1098.82 93.5099 1103.94 92.9499C1108.74 92.4299 1113.64 93.0799 1118.15 94.7999C1120.41 95.6599 1122.54 96.8199 1124.5 98.2199C1126.46 99.6199 1128.14 101.09 1130.23 102.11C1134.46 104.17 1138.44 102.69 1142.47 100.91C1146.25 99.2499 1150.14 98.2599 1154.28 98.1999C1162.03 98.0699 1170 100.77 1175.87 105.88C1178.59 108.25 1180.8 111.12 1182.26 114.42C1182.52 115.01 1183.38 114.5 1183.12 113.92L1183.07 113.89Z" fill="#CFEBF9"/>
<path d="M1115.01 269.72C1166.18 264.59 1217.85 263.53 1269.22 266.57C1273.51 266.82 1278.19 267.01 1281.71 264.75C1283.68 263.48 1285.03 261.59 1286.19 259.66C1291.57 250.72 1293.52 239.55 1288.91 230.26C1284.29 220.97 1272.04 214.68 1261.42 217.92C1258.47 205.29 1250.39 193.42 1238.31 186.65C1226.23 179.88 1210.11 178.83 1197.8 185.23C1185.49 191.63 1178.21 205.8 1182.12 218.21C1169.37 215.45 1155.09 224.25 1153.16 236.04C1145.64 231.17 1135.02 231.06 1126.93 235.09C1118.84 239.12 1113.35 246.87 1111.72 255.14C1110.28 262.46 1112.77 271.44 1120.38 274.14" fill="white"/>
<path d="M1115.01 270.22C1132.23 268.5 1149.5 267.23 1166.78 266.42C1184.06 265.61 1201.39 265.28 1218.71 265.4C1236.03 265.52 1252.98 266.2 1270.1 267.12C1273.55 267.31 1277.22 267.39 1280.46 265.98C1283.7 264.57 1285.71 261.62 1287.36 258.63C1290.79 252.41 1292.68 245.13 1291.75 238.02C1290.91 231.6 1287.69 225.92 1282.56 221.96C1277.79 218.28 1271.65 216.14 1265.6 216.63C1264.13 216.75 1262.68 217.02 1261.27 217.44L1261.89 217.79C1258.1 201.74 1246.37 187.86 1230.52 182.73C1214.67 177.6 1195.86 180.92 1185.97 194.93C1181.21 201.67 1179.15 210.34 1181.63 218.34L1182.25 217.72C1172.39 215.64 1161.34 220.05 1155.71 228.44C1154.2 230.69 1153.14 233.23 1152.68 235.91L1153.41 235.61C1144.11 229.66 1131.21 230.73 1122.49 237.24C1114.64 243.09 1109.24 253.57 1111.27 263.46C1112.3 268.45 1115.36 272.84 1120.25 274.63C1120.86 274.85 1121.12 273.89 1120.52 273.67C1116.32 272.13 1113.59 268.44 1112.48 264.2C1111.37 259.96 1111.86 255.26 1113.4 251.04C1116.96 241.32 1125.76 234.12 1136.08 232.91C1141.89 232.23 1147.95 233.3 1152.92 236.47C1153.17 236.63 1153.6 236.49 1153.65 236.17C1155.28 226.63 1164.39 219.95 1173.54 218.49C1176.34 218.04 1179.22 218.1 1182 218.69C1182.36 218.77 1182.73 218.46 1182.62 218.07C1180.46 211.1 1181.86 203.6 1185.56 197.42C1189.52 190.8 1195.84 185.95 1203.13 183.51C1219 178.2 1237.14 183.3 1248.61 195.23C1254.69 201.55 1258.93 209.51 1260.95 218.03C1261.01 218.29 1261.31 218.45 1261.57 218.38C1267.49 216.61 1273.89 217.78 1279.18 220.85C1284.47 223.92 1288.7 229.11 1290.26 235.3C1291.99 242.21 1290.64 249.62 1287.62 255.98C1286.14 259.09 1284.29 262.61 1281.24 264.45C1278.19 266.29 1274.34 266.29 1270.87 266.13C1262.61 265.75 1254.37 265.24 1246.11 264.95C1237.81 264.66 1229.5 264.47 1221.2 264.39C1204.47 264.23 1187.74 264.5 1171.02 265.21C1154.37 265.91 1137.74 267.04 1121.15 268.6C1119.11 268.79 1117.08 268.99 1115.04 269.19C1114.41 269.25 1114.4 270.25 1115.04 270.19L1115.01 270.22Z" fill="white"/>
<path d="M1125.72 269.61C1170.32 266.82 1215.35 266.25 1260.13 267.9C1263.87 268.04 1267.95 268.14 1271.01 266.91C1272.72 266.22 1273.91 265.19 1274.91 264.15C1279.6 259.29 1281.3 253.23 1277.28 248.19C1273.26 243.15 1262.57 239.73 1253.32 241.49C1250.75 234.63 1243.71 228.19 1233.18 224.51C1222.65 220.84 1208.6 220.26 1197.87 223.74C1187.14 227.22 1180.79 234.91 1184.21 241.65C1173.1 240.15 1160.65 244.93 1158.97 251.33C1152.42 248.68 1143.16 248.63 1136.11 250.81C1129.06 253 1124.27 257.21 1122.86 261.7C1121.61 265.68 1123.77 270.55 1130.4 272.02" fill="#F3F9FF"/>
<path d="M486.11 50.3099C513.04 47.6099 540.23 47.0499 567.26 48.6499C569.52 48.7799 571.98 48.8799 573.83 47.6899C574.87 47.0199 575.58 46.0299 576.19 45.0099C579.02 40.2999 580.05 34.4299 577.62 29.5399C575.19 24.6499 568.74 21.3399 563.15 23.0499C561.6 16.3999 557.35 10.1599 550.99 6.5999C544.63 3.0399 536.15 2.4799 529.67 5.8499C523.19 9.2199 519.36 16.6699 521.42 23.2099C514.71 21.7599 507.2 26.3899 506.18 32.5899C502.23 30.0299 496.63 29.9699 492.38 32.0899C488.12 34.2099 485.23 38.2899 484.38 42.6399C483.62 46.4899 484.93 51.2199 488.93 52.6399" fill="white"/>
<path d="M486.11 50.8099C495.23 49.8999 504.37 49.23 513.52 48.8C522.68 48.38 531.85 48.1999 541.01 48.2699C545.59 48.2999 550.18 48.3999 554.76 48.5599C559.34 48.7199 563.78 49.0199 568.29 49.1999C570.12 49.2699 572.08 49.22 573.73 48.32C575.38 47.4199 576.35 45.83 577.17 44.26C578.91 40.98 579.84 37.18 579.32 33.47C578.85 30.07 577.12 27.07 574.41 24.98C571.87 23.03 568.61 21.88 565.39 22.12C564.58 22.18 563.78 22.33 563 22.56L563.62 22.91C561.6 14.37 555.36 7.00995 546.92 4.28995C538.6 1.60995 528.5 3.37995 523.24 10.82C520.7 14.42 519.61 19.06 520.93 23.33L521.55 22.71C514.98 21.34 506.9 25.46 505.7 32.44L506.43 32.14C501.43 28.96 494.53 29.53 489.86 33.04C485.67 36.19 482.82 41.7699 483.91 47.0599C484.47 49.7799 486.15 52.1199 488.8 53.0999C489.4 53.32 489.67 52.36 489.07 52.1399C484.41 50.41 484.02 44.52 485.5 40.5C487.35 35.49 491.91 31.77 497.24 31.16C500.25 30.81 503.37 31.37 505.94 33.01C506.19 33.17 506.62 33.03 506.67 32.71C507.78 26.29 515.21 22.41 521.29 23.67C521.65 23.74 522.02 23.44 521.91 23.05C520.81 19.46 521.51 15.6199 523.4 12.4199C525.47 8.92995 528.79 6.38995 532.63 5.12995C540.87 2.41995 550.24 5.05995 556.21 11.24C559.4 14.54 561.62 18.71 562.67 23.17C562.73 23.43 563.03 23.59 563.29 23.52C569.62 21.65 576.59 26.06 578.12 32.34C579 35.94 578.26 39.7999 576.66 43.0999C575.89 44.6999 574.93 46.5 573.33 47.4C571.73 48.3 569.7 48.2599 567.89 48.1699C559.18 47.7299 550.49 47.3499 541.77 47.2699C533.05 47.1899 524.26 47.3399 515.51 47.6999C506.76 48.0599 498.03 48.66 489.32 49.48C488.25 49.58 487.18 49.68 486.12 49.79C485.49 49.85 485.48 50.85 486.12 50.79L486.11 50.8099Z" fill="white"/>
<path d="M491.75 50.2399C515.22 48.7699 538.92 48.4699 562.48 49.3399C564.45 49.4099 566.6 49.4699 568.21 48.82C569.11 48.4599 569.73 47.92 570.26 47.37C572.73 44.81 573.62 41.62 571.51 38.97C569.39 36.32 563.77 34.5199 558.9 35.4399C557.55 31.8299 553.84 28.4399 548.3 26.5099C542.76 24.5799 535.37 24.2699 529.72 26.0999C524.07 27.9299 520.73 31.98 522.53 35.52C516.68 34.73 510.13 37.24 509.25 40.62C505.8 39.23 500.93 39.1999 497.22 40.3499C493.51 41.4999 490.99 43.72 490.25 46.08C489.59 48.17 490.73 50.74 494.22 51.51" fill="#F3F9FF"/>
<path d="M566.82 48.69C582.9 47.08 599.14 46.74 615.28 47.7C616.63 47.78 618.1 47.84 619.2 47.13C619.82 46.73 620.24 46.14 620.61 45.53C622.3 42.72 622.92 39.21 621.46 36.29C620.01 33.37 616.16 31.39 612.82 32.41C611.89 28.44 609.35 24.71 605.56 22.58C601.76 20.45 596.7 20.12 592.83 22.13C588.96 24.14 586.67 28.59 587.9 32.49C583.89 31.62 579.41 34.39 578.8 38.09C576.44 36.56 573.1 36.52 570.56 37.79C568.02 39.06 566.29 41.49 565.78 44.09C565.33 46.39 566.11 49.21 568.5 50.06" fill="white"/>
<path d="M566.82 49.19C577.91 48.08 589.05 47.58 600.19 47.68C602.91 47.71 605.64 47.77 608.36 47.87C611.08 47.97 613.8 48.25 616.52 48.25C617.6 48.25 618.73 48.09 619.63 47.45C620.53 46.81 621.05 45.88 621.51 44.96C622.51 42.97 623.02 40.71 622.68 38.49C621.99 33.95 617.2 30.63 612.7 31.93L613.32 32.28C612.08 27.09 608.29 22.63 603.15 21C598.01 19.37 591.96 20.52 588.8 25.08C587.28 27.27 586.66 30.06 587.44 32.64L588.06 32.02C584.02 31.2 579.11 33.68 578.34 37.97L579.07 37.67C576.03 35.76 571.87 36.06 569.02 38.17C566.4 40.11 564.63 43.57 565.33 46.85C565.69 48.54 566.75 49.93 568.38 50.55C568.98 50.78 569.24 49.81 568.65 49.59C567.04 48.98 566.26 47.32 566.18 45.68C566.09 43.86 566.82 42.02 567.93 40.6C570.39 37.43 575.1 36.34 578.57 38.52C578.82 38.68 579.25 38.54 579.3 38.22C579.97 34.49 584.23 32.24 587.79 32.96C588.15 33.03 588.52 32.73 588.41 32.34C587.03 27.76 590.46 23.25 594.73 21.87C599.6 20.29 605.1 21.87 608.6 25.52C610.47 27.46 611.74 29.9 612.37 32.51C612.43 32.77 612.73 32.93 612.99 32.86C616.82 31.75 620.91 34.49 621.67 38.32C622.11 40.52 621.53 42.85 620.47 44.79C619.94 45.76 619.32 46.68 618.21 47.01C617.16 47.33 616.01 47.2 614.94 47.14C604.68 46.55 594.39 46.47 584.13 46.91C578.36 47.16 572.6 47.57 566.85 48.15C566.22 48.21 566.21 49.21 566.85 49.15L566.82 49.19Z" fill="white"/>
<path d="M570.19 48.6499C584.21 47.7699 598.36 47.5899 612.43 48.1099C613.61 48.1499 614.89 48.1899 615.85 47.7999C616.39 47.5799 616.76 47.2599 617.08 46.9299C618.55 45.3999 619.09 43.4999 617.82 41.9099C616.55 40.3199 613.2 39.2499 610.29 39.7999C609.48 37.6399 607.27 35.6199 603.96 34.4599C600.65 33.3099 596.24 33.1199 592.86 34.2199C589.48 35.3199 587.49 37.7299 588.57 39.8499C585.08 39.3799 581.17 40.8799 580.64 42.8899C578.58 42.0599 575.67 42.0399 573.45 42.7299C571.23 43.4199 569.73 44.7399 569.29 46.1499C568.9 47.3999 569.58 48.9299 571.66 49.3899" fill="#F3F9FF"/>
<path d="M321.098 29.018C305.838 27.658 290.438 27.378 275.118 28.188C273.838 28.258 272.438 28.3081 271.398 27.7081C270.808 27.3781 270.408 26.868 270.058 26.358C268.458 23.988 267.868 21.0281 269.248 18.5781C270.628 16.1281 274.278 14.4481 277.448 15.3081C278.328 11.9681 280.738 8.81805 284.338 7.02805C287.938 5.23805 292.748 4.95805 296.418 6.64805C300.088 8.34805 302.258 12.0981 301.088 15.378C304.888 14.6481 309.148 16.9781 309.728 20.0981C311.968 18.8081 315.138 18.7781 317.548 19.8481C319.958 20.9181 321.598 22.968 322.078 25.158C322.508 27.098 321.768 29.478 319.498 30.188" fill="white"/>
<path d="M321.098 28.518C311.608 27.678 302.088 27.248 292.558 27.238C287.818 27.238 283.068 27.328 278.328 27.528C277.158 27.578 275.978 27.638 274.808 27.698C273.818 27.748 272.728 27.798 271.808 27.358C270.888 26.918 270.338 25.968 269.898 25.118C269.428 24.218 269.088 23.218 268.998 22.198C268.808 20.088 269.698 18.138 271.428 16.928C273.158 15.718 275.288 15.258 277.308 15.778C277.568 15.848 277.848 15.698 277.928 15.428C279.078 11.188 282.498 7.87803 286.678 6.62803C290.858 5.37803 296.128 5.84802 299.168 9.27802C300.608 10.908 301.328 13.118 300.608 15.238C300.478 15.628 300.878 15.918 301.228 15.858C304.288 15.308 308.558 16.848 309.248 20.228C309.318 20.558 309.718 20.678 309.978 20.528C313.118 18.778 317.428 19.488 319.888 22.098C320.928 23.208 321.718 24.728 321.698 26.278C321.678 27.828 320.858 29.198 319.368 29.708C318.758 29.918 319.018 30.878 319.638 30.668C322.458 29.708 323.278 26.558 322.238 23.968C321.038 20.948 318.128 19.008 314.948 18.648C313.078 18.428 311.128 18.738 309.478 19.668L310.208 19.968C309.408 16.028 304.518 14.258 300.958 14.898L301.578 15.518C303.108 10.998 299.218 6.90802 295.178 5.63802C290.388 4.13802 284.788 5.33802 281.038 8.65802C279.088 10.378 277.658 12.658 276.978 15.168L277.598 14.818C274.078 13.918 269.798 15.678 268.438 19.168C267.698 21.048 267.958 23.158 268.748 24.968C269.158 25.898 269.698 26.868 270.438 27.578C271.178 28.288 272.038 28.558 272.988 28.668C274.148 28.798 275.338 28.668 276.498 28.608C277.778 28.548 279.048 28.488 280.328 28.448C282.928 28.358 285.528 28.288 288.128 28.258C293.288 28.198 298.448 28.258 303.598 28.428C309.448 28.628 315.288 28.998 321.118 29.508C321.758 29.568 321.758 28.568 321.118 28.508L321.098 28.518Z" fill="white"/>
<path d="M317.908 28.988C304.608 28.248 291.178 28.098 277.828 28.538C276.708 28.578 275.498 28.598 274.578 28.278C274.068 28.098 273.718 27.828 273.418 27.548C272.018 26.258 271.508 24.658 272.708 23.318C273.908 21.978 277.098 21.078 279.858 21.548C280.628 19.728 282.728 18.028 285.868 17.048C289.008 16.068 293.198 15.928 296.398 16.848C299.598 17.768 301.488 19.808 300.468 21.588C303.778 21.188 307.488 22.458 307.998 24.148C309.948 23.448 312.708 23.428 314.818 24.008C316.928 24.588 318.348 25.698 318.768 26.888C319.138 27.938 318.498 29.228 316.518 29.618" fill="#F3F9FF"/>
<path d="M1300.24 152.53C1259.99 152.86 1141.99 152.2 1142.58 151.7C1142.79 144.58 1145.7 137.17 1152.17 132.71C1158.63 128.26 1169.04 127.78 1174.83 132.87C1177.86 127.08 1182.08 121.57 1188.1 117.89C1194.12 114.21 1202.17 112.62 1209.09 114.84C1210.81 106.26 1221.17 101.06 1230.95 98.81C1239.28 96.89 1248.54 96.31 1256.2 99.71C1263.86 103.11 1268.92 111.52 1265.33 118.26C1270.26 117.76 1275.43 119.68 1278.38 123.11C1281.33 126.54 1281.95 131.36 1279.94 135.26C1283.36 135.59 1290.37 136.2 1294.65 139.31C1300.57 143.62 1302.21 150.42 1300.24 152.53Z" fill="white"/>
<path d="M1300.24 152.03C1294.71 152.07 1289.19 152.09 1283.66 152.11C1276.72 152.12 1269.77 152.13 1262.83 152.11C1255 152.11 1247.17 152.09 1239.34 152.06C1231.27 152.04 1223.19 152 1215.12 151.97C1207.33 151.93 1199.54 151.89 1191.75 151.84C1184.86 151.79 1177.97 151.74 1171.08 151.68C1165.7 151.63 1160.31 151.58 1154.93 151.51C1151.61 151.47 1148.28 151.43 1144.96 151.33C1144.25 151.31 1143.54 151.3 1142.83 151.24C1142.64 151.23 1142.77 151.23 1142.76 151.24C1142.73 151.28 1142.61 151 1142.84 151.28C1142.73 151.15 1142.83 152.39 1143.02 151.95C1143.06 151.86 1143.07 151.8 1143.09 151.7C1143.16 151.38 1143.12 151 1143.14 150.68C1143.3 148.19 1143.81 145.73 1144.67 143.38C1146.42 138.59 1149.8 134.35 1154.36 131.99C1158.63 129.78 1163.86 129.1 1168.54 130.25C1170.72 130.79 1172.78 131.75 1174.49 133.23C1174.72 133.43 1175.12 133.43 1175.28 133.13C1177.74 128.46 1180.88 124.12 1184.97 120.75C1189.06 117.38 1194.38 115.01 1199.82 114.46C1202.9 114.15 1206.01 114.4 1208.98 115.33C1209.23 115.41 1209.54 115.24 1209.6 114.98C1210.53 110.54 1213.76 107.16 1217.47 104.77C1221.6 102.1 1226.34 100.4 1231.11 99.3C1241.19 96.97 1254.41 96.21 1262.1 104.51C1265.44 108.11 1267.33 113.39 1264.93 118.01C1264.77 118.32 1264.96 118.8 1265.36 118.76C1269.68 118.35 1274.32 119.69 1277.44 122.8C1280.56 125.91 1281.58 130.94 1279.54 135.01C1279.36 135.37 1279.59 135.72 1279.97 135.76C1284.04 136.16 1288.26 136.62 1292.02 138.35C1295.78 140.08 1299.19 143.75 1300.27 147.9C1300.61 149.19 1300.89 151.07 1299.91 152.17C1299.48 152.65 1300.19 153.36 1300.62 152.88C1301.58 151.81 1301.66 150.27 1301.48 148.91C1301.22 146.92 1300.37 145.02 1299.26 143.36C1297.91 141.33 1296.1 139.53 1294.01 138.27C1291.92 137.01 1289.44 136.24 1287.02 135.73C1284.6 135.22 1282.33 134.98 1279.97 134.75L1280.4 135.5C1282.56 131.17 1281.75 125.94 1278.46 122.4C1275.17 118.86 1270.07 117.3 1265.36 117.74L1265.79 118.49C1267.93 114.38 1267.05 109.64 1264.51 105.91C1261.53 101.54 1256.86 98.89 1251.8 97.67C1245.87 96.24 1239.62 96.61 1233.67 97.72C1228.38 98.71 1223.12 100.31 1218.43 102.99C1213.74 105.67 1209.74 109.41 1208.64 114.69L1209.26 114.34C1203.9 112.66 1198.02 113.13 1192.79 115.08C1187.56 117.03 1182.99 120.56 1179.46 124.9C1177.52 127.29 1175.86 129.89 1174.43 132.61L1175.22 132.51C1167.87 126.17 1155.69 128.16 1149.11 134.61C1145.5 138.16 1143.29 142.94 1142.48 147.91C1142.39 148.48 1142.31 149.06 1142.25 149.64C1142.22 149.94 1142.19 150.25 1142.17 150.55C1142.16 150.7 1142.15 150.85 1142.14 151.01C1142.14 151.1 1142.2 151.6 1142.19 151.4L1142.26 151.34C1142.26 151.34 1142.2 151.4 1142.18 151.44C1142.21 151.13 1142.1 151.75 1142.12 151.63C1142.11 151.72 1142.12 151.81 1142.15 151.89C1142.22 152.05 1142.33 152.13 1142.48 152.19C1142.63 152.25 1142.84 152.24 1143 152.25C1145.31 152.42 1147.65 152.39 1149.97 152.43C1154.7 152.51 1159.43 152.56 1164.17 152.61C1170.72 152.68 1177.26 152.73 1183.81 152.78C1191.52 152.84 1199.24 152.88 1206.95 152.92C1215.17 152.96 1223.39 153 1231.61 153.03C1239.83 153.06 1247.93 153.08 1256.1 153.09C1263.54 153.1 1270.98 153.11 1278.43 153.09C1284.5 153.09 1290.57 153.07 1296.64 153.03C1297.85 153.03 1299.06 153.01 1300.27 153C1300.91 153 1300.91 151.99 1300.27 152L1300.24 152.03Z" fill="#CFEBF9"/>
<path d="M1283.59 152.53C1253.94 152.72 1166.99 152.34 1167.42 152.05C1167.58 147.91 1169.72 143.59 1174.48 141C1179.24 138.41 1186.91 138.13 1191.18 141.09C1193.41 137.72 1196.52 134.51 1200.96 132.37C1205.4 130.23 1211.33 129.3 1216.43 130.59C1217.7 125.6 1225.33 122.57 1232.54 121.26C1238.68 120.14 1245.5 119.8 1251.14 121.78C1256.78 123.76 1260.51 128.65 1257.87 132.58C1261.5 132.29 1265.31 133.4 1267.48 135.4C1269.65 137.4 1270.11 140.2 1268.63 142.47C1271.15 142.66 1276.31 143.02 1279.47 144.83C1283.83 147.34 1285.04 151.3 1283.59 152.52V152.53Z" fill="#F3F9FF"/>
<path d="M1231.53 31.5928C1210.35 31.7628 1148.25 31.4228 1148.56 31.1528C1148.67 27.4028 1150.2 23.5028 1153.61 21.1628C1157.01 18.8228 1162.49 18.5728 1165.54 21.2428C1167.13 18.1928 1169.35 15.2928 1172.52 13.3628C1175.69 11.4328 1179.93 10.5828 1183.57 11.7528C1184.48 7.23281 1189.93 4.50281 1195.07 3.31281C1199.45 2.30281 1204.33 1.99281 1208.36 3.78281C1212.39 5.57281 1215.06 9.99281 1213.17 13.5428C1215.76 13.2728 1218.48 14.2928 1220.04 16.0928C1221.59 17.9028 1221.92 20.4328 1220.86 22.4828C1222.66 22.6628 1226.35 22.9728 1228.6 24.6128C1231.71 26.8828 1232.58 30.4628 1231.54 31.5728L1231.53 31.5928Z" fill="white"/>
<path d="M1231.53 31.0928C1224.99 31.1428 1218.44 31.1428 1211.9 31.1328C1203.55 31.1328 1195.2 31.1028 1186.86 31.0628C1179.15 31.0228 1171.45 30.9828 1163.74 30.9128C1159.12 30.8728 1154.5 30.8528 1149.88 30.7228C1149.5 30.7128 1149.1 30.6628 1148.71 30.6728C1148.54 30.6728 1148.75 30.6528 1148.73 30.6728H1148.7L1148.81 30.7228C1148.72 31.4728 1148.76 31.7129 1148.95 31.4529C1149.05 31.2929 1149.05 31.1628 1149.06 30.9728C1149.15 29.6828 1149.34 28.4328 1149.75 27.2029C1150.6 24.6429 1152.33 22.3528 1154.72 21.0628C1156.89 19.8928 1159.58 19.5028 1161.98 20.0528C1163.15 20.3228 1164.26 20.8128 1165.17 21.6028C1165.4 21.8028 1165.79 21.8028 1165.96 21.5028C1167.61 18.3829 1169.86 15.5128 1172.94 13.6928C1176.02 11.8728 1179.94 11.1528 1183.43 12.2428C1183.68 12.3228 1183.99 12.1528 1184.05 11.8928C1185.09 7.02285 1190.91 4.80285 1195.2 3.80285C1200.34 2.61285 1207.08 2.18285 1211.1 6.30285C1212.89 8.13285 1213.97 10.8828 1212.73 13.3028C1212.57 13.6128 1212.76 14.0928 1213.16 14.0528C1215.36 13.8528 1217.7 14.4928 1219.3 16.0628C1220.9 17.6328 1221.43 20.1628 1220.41 22.2428C1220.23 22.6028 1220.45 22.9528 1220.84 22.9928C1223.49 23.2528 1226.48 23.5528 1228.62 25.2828C1229.72 26.1728 1230.64 27.3328 1231.12 28.6728C1231.37 29.3628 1231.73 30.5828 1231.16 31.2328C1230.74 31.7128 1231.44 32.4228 1231.87 31.9428C1232.6 31.1128 1232.51 29.8928 1232.24 28.8928C1231.83 27.3928 1230.9 26.0228 1229.77 24.9728C1227.35 22.7328 1223.99 22.3128 1220.84 22.0028L1221.27 22.7528C1222.44 20.3829 1222.03 17.5728 1220.25 15.6228C1218.47 13.6728 1215.7 12.8328 1213.15 13.0528L1213.58 13.8028C1214.74 11.5328 1214.29 8.94285 1212.87 6.89285C1211.27 4.58285 1208.79 3.15285 1206.09 2.50285C1202.99 1.75285 1199.73 1.92285 1196.61 2.48285C1193.73 3.00285 1190.85 3.86285 1188.31 5.33285C1185.77 6.80285 1183.67 8.79285 1183.07 11.6228L1183.69 11.2729C1180.02 10.1328 1175.91 10.8328 1172.6 12.7228C1169.29 14.6128 1166.85 17.6628 1165.09 20.9828L1165.88 20.8828C1163.4 18.7628 1159.84 18.4029 1156.76 19.2029C1153.44 20.0629 1150.75 22.4328 1149.33 25.5428C1148.52 27.3128 1148.12 29.2128 1148.05 31.1528L1148.2 30.8028C1147.36 31.7828 1149.42 31.7128 1149.83 31.7228C1151.28 31.7628 1152.73 31.7828 1154.18 31.8028C1159.42 31.8728 1164.66 31.9228 1169.9 31.9529C1176.9 32.0028 1183.89 32.0428 1190.89 32.0728C1197.89 32.1028 1205.31 32.1228 1212.52 32.1328C1218.32 32.1328 1224.12 32.1328 1229.93 32.1028C1230.46 32.1028 1231 32.1028 1231.53 32.0928C1232.17 32.0928 1232.17 31.0828 1231.53 31.0928Z" fill="#CFEBF9"/>
<path d="M1228.13 30.9267C1212.52 31.0267 1166.77 30.8267 1167 30.6667C1167.08 28.4867 1168.21 26.2167 1170.72 24.8567C1173.23 23.4967 1177.26 23.3467 1179.51 24.9067C1180.69 23.1367 1182.32 21.4467 1184.66 20.3167C1187 19.1867 1190.12 18.7067 1192.8 19.3867C1193.47 16.7567 1197.48 15.1667 1201.28 14.4767C1204.51 13.8867 1208.1 13.7067 1211.07 14.7467C1214.04 15.7867 1216 18.3667 1214.61 20.4267C1216.52 20.2767 1218.53 20.8567 1219.67 21.9167C1220.81 22.9667 1221.05 24.4467 1220.28 25.6367C1221.61 25.7367 1224.32 25.9267 1225.98 26.8767C1228.28 28.1967 1228.91 30.2767 1228.15 30.9267H1228.13Z" fill="#F3F9FF"/>
<path d="M12.25 155.78C63.42 150.65 115.09 149.59 166.46 152.63C170.75 152.88 175.43 153.07 178.95 150.81C180.92 149.54 182.27 147.65 183.43 145.72C188.81 136.78 190.76 125.61 186.15 116.32C181.53 107.03 169.28 100.74 158.66 103.98C155.71 91.3499 147.63 79.4799 135.55 72.7099C123.47 65.9399 107.35 64.8899 95.04 71.2899C82.73 77.6899 75.45 91.86 79.36 104.27C66.61 101.51 52.33 110.31 50.4 122.1C42.88 117.23 32.26 117.12 24.17 121.15C16.08 125.18 10.59 132.93 8.95999 141.2C7.51999 148.52 10.01 157.5 17.62 160.2" fill="white"/>
<path d="M12.25 156.28C29.47 154.56 46.74 153.29 64.02 152.48C81.3 151.67 98.63 151.34 115.95 151.46C133.27 151.58 150.22 152.26 167.34 153.18C170.79 153.37 174.46 153.45 177.7 152.04C180.94 150.63 182.95 147.68 184.6 144.69C188.03 138.47 189.92 131.19 188.99 124.08C188.15 117.66 184.93 111.98 179.8 108.02C175.03 104.34 168.89 102.2 162.84 102.69C161.37 102.81 159.92 103.08 158.51 103.5L159.13 103.85C155.34 87.8 143.61 73.92 127.76 68.79C111.91 63.66 93.1 66.98 83.21 80.99C78.45 87.73 76.39 96.4 78.87 104.4L79.49 103.78C69.63 101.7 58.58 106.11 52.95 114.5C51.44 116.75 50.38 119.29 49.92 121.97L50.65 121.67C41.35 115.72 28.45 116.79 19.73 123.3C11.88 129.15 6.48001 139.63 8.51001 149.52C9.54001 154.51 12.6 158.9 17.49 160.69C18.1 160.91 18.36 159.95 17.76 159.73C13.56 158.19 10.83 154.5 9.72001 150.26C8.61001 146.02 9.10001 141.32 10.64 137.1C14.2 127.38 23 120.18 33.32 118.97C39.13 118.29 45.19 119.36 50.16 122.53C50.41 122.69 50.84 122.55 50.89 122.23C52.52 112.69 61.63 106.01 70.78 104.55C73.58 104.1 76.46 104.16 79.24 104.75C79.6 104.83 79.97 104.52 79.86 104.13C77.7 97.16 79.1 89.66 82.8 83.48C86.76 76.86 93.08 72.01 100.37 69.57C116.24 64.26 134.38 69.36 145.85 81.29C151.93 87.61 156.17 95.57 158.19 104.09C158.25 104.35 158.55 104.51 158.81 104.44C164.73 102.67 171.13 103.84 176.42 106.91C181.71 109.98 185.94 115.17 187.5 121.36C189.23 128.27 187.88 135.68 184.86 142.04C183.38 145.15 181.53 148.67 178.48 150.51C175.43 152.35 171.58 152.35 168.11 152.19C159.85 151.81 151.61 151.3 143.35 151.01C135.05 150.72 126.74 150.53 118.44 150.45C101.71 150.29 84.98 150.56 68.26 151.27C51.61 151.97 34.98 153.1 18.39 154.66C16.35 154.85 14.32 155.05 12.28 155.25C11.65 155.31 11.64 156.31 12.28 156.25L12.25 156.28Z" fill="white"/>
<path d="M22.95 155.66C67.55 152.87 112.58 152.3 157.36 153.95C161.1 154.09 165.18 154.19 168.24 152.96C169.95 152.27 171.14 151.24 172.14 150.2C176.83 145.34 178.53 139.28 174.51 134.24C170.49 129.2 159.8 125.78 150.55 127.54C147.98 120.68 140.94 114.24 130.41 110.56C119.88 106.88 105.83 106.31 95.1 109.79C84.37 113.27 78.02 120.96 81.44 127.7C70.33 126.2 57.88 130.98 56.2 137.38C49.65 134.73 40.39 134.68 33.34 136.86C26.29 139.04 21.5 143.26 20.09 147.75C18.84 151.73 21 156.6 27.63 158.07" fill="#F3F9FF"/>
<path d="M218.73 175.1C178.48 175.43 60.48 174.77 61.07 174.27C61.28 167.15 64.19 159.74 70.66 155.28C77.12 150.83 87.53 150.35 93.32 155.44C96.35 149.65 100.57 144.14 106.59 140.46C112.61 136.78 120.66 135.19 127.58 137.41C129.3 128.83 139.66 123.63 149.44 121.38C157.77 119.46 167.03 118.88 174.69 122.28C182.35 125.68 187.41 134.09 183.82 140.83C188.75 140.33 193.92 142.25 196.87 145.68C199.82 149.11 200.44 153.93 198.43 157.83C201.85 158.16 208.86 158.77 213.14 161.88C219.06 166.19 220.7 172.99 218.73 175.1Z" fill="white"/>
<path d="M202.08 175.1C172.43 175.29 85.48 174.91 85.91 174.62C86.07 170.48 88.21 166.16 92.97 163.57C97.73 160.98 105.4 160.7 109.67 163.66C111.9 160.29 115.01 157.08 119.45 154.94C123.89 152.8 129.82 151.87 134.92 153.16C136.19 148.17 143.82 145.14 151.03 143.83C157.17 142.71 163.99 142.37 169.63 144.35C175.27 146.33 179 151.22 176.36 155.15C179.99 154.86 183.8 155.97 185.97 157.97C188.14 159.97 188.6 162.77 187.12 165.04C189.64 165.23 194.8 165.59 197.96 167.4C202.32 169.91 203.53 173.87 202.08 175.09V175.1Z" fill="#F3F9FF"/>
<path opacity="0.32" d="M353.02 680.23C353.02 680.23 346.27 685.9 314.75 685.9C314.75 685.9 332.73 686.94 341.76 685.09C356.08 682.15 353.01 680.23 353.01 680.23H353.02Z" fill="#AAA9D3"/>
<path opacity="0.32" d="M648.05 693.38C648.83 693.27 648.78 692.52 647.99 692.46C643.59 692.09 634.65 691.58 618.69 691.59C600.94 691.15 591.69 692.82 587.59 693.53C586.84 693.66 586.89 694.36 587.65 694.45C593.36 695.09 606.87 695.81 618.69 695.81C630.51 695.81 642.19 694.24 648.05 693.39V693.38Z" fill="#A1A1C6"/>
<path d="M62.09 240.16C62.73 240.16 62.73 239.16 62.09 239.16C61.45 239.16 61.45 240.16 62.09 240.16Z" fill="url(#paint0_radial_284_9936)"/>
<path d="M52.17 311.15C52.81 311.15 52.81 310.15 52.17 310.15C51.53 310.15 51.53 311.15 52.17 311.15Z" fill="url(#paint1_radial_284_9936)"/>
<path d="M55.22 392.06C55.86 392.06 55.86 391.06 55.22 391.06C54.58 391.06 54.58 392.06 55.22 392.06Z" fill="url(#paint2_radial_284_9936)"/>
</g>
<defs>
<radialGradient id="paint0_radial_284_9936" cx="0" cy="0" r="1" gradientUnits="userSpaceOnUse" gradientTransform="translate(62.09 239.66) scale(0.49)">
<stop/>
<stop offset="0.85" stop-opacity="0.59"/>
<stop offset="1" stop-opacity="0.2"/>
</radialGradient>
<radialGradient id="paint1_radial_284_9936" cx="0" cy="0" r="1" gradientUnits="userSpaceOnUse" gradientTransform="translate(52.17 310.65) scale(0.49)">
<stop/>
<stop offset="0.85" stop-opacity="0.59"/>
<stop offset="1" stop-opacity="0.2"/>
</radialGradient>
<radialGradient id="paint2_radial_284_9936" cx="0" cy="0" r="1" gradientUnits="userSpaceOnUse" gradientTransform="translate(55.22 391.56) scale(0.49)">
<stop/>
<stop offset="0.85" stop-opacity="0.59"/>
<stop offset="1" stop-opacity="0.2"/>
</radialGradient>
<clipPath id="clip0_284_9936">
<rect width="1340" height="800" fill="white"/>
</clipPath>
</defs>
</svg>