<svg width="389" height="239" viewBox="0 0 389 239" fill="none" xmlns="http://www.w3.org/2000/svg">
<path d="M147.72 238.7L145.65 236.46C145.14 236.61 144.58 236.68 143.97 236.68C142.87 236.68 141.86 236.42 140.94 235.91C140.02 235.4 139.29 234.67 138.75 233.75C138.21 232.83 137.94 231.79 137.94 230.63C137.94 229.47 138.21 228.44 138.75 227.52C139.29 226.6 140.02 225.89 140.94 225.37C141.86 224.85 142.88 224.6 143.97 224.6C145.06 224.6 146.1 224.86 147.02 225.37C147.94 225.88 148.67 226.6 149.2 227.52C149.73 228.44 150 229.48 150 230.63C150 231.72 149.76 232.7 149.29 233.58C148.82 234.46 148.17 235.16 147.34 235.7L150.18 238.71H147.71L147.72 238.7ZM140.44 232.93C140.79 233.59 141.26 234.1 141.88 234.46C142.49 234.82 143.19 235 143.97 235C144.75 235 145.45 234.82 146.06 234.46C146.67 234.1 147.15 233.59 147.5 232.93C147.85 232.27 148.02 231.5 148.02 230.63C148.02 229.76 147.85 228.99 147.5 228.34C147.15 227.69 146.68 227.18 146.06 226.83C145.45 226.48 144.75 226.3 143.97 226.3C143.19 226.3 142.49 226.48 141.88 226.83C141.27 227.18 140.79 227.69 140.44 228.34C140.09 229 139.92 229.76 139.92 230.63C139.92 231.5 140.09 232.27 140.44 232.93Z" fill="#A8A8A8"/>
<path d="M160.62 227.19V236.56H158.68V235.45C158.37 235.84 157.97 236.14 157.48 236.36C156.99 236.58 156.46 236.69 155.91 236.69C155.17 236.69 154.51 236.54 153.93 236.23C153.35 235.92 152.89 235.47 152.55 234.87C152.21 234.27 152.05 233.54 152.05 232.69V227.18H153.97V232.4C153.97 233.24 154.18 233.88 154.6 234.33C155.02 234.78 155.59 235 156.32 235C157.05 235 157.62 234.78 158.05 234.33C158.47 233.88 158.69 233.24 158.69 232.4V227.18H160.63L160.62 227.19Z" fill="#A8A8A8"/>
<path d="M163.3 229.34C163.69 228.61 164.22 228.05 164.9 227.65C165.58 227.25 166.32 227.05 167.14 227.05C167.88 227.05 168.52 227.19 169.07 227.48C169.62 227.77 170.06 228.13 170.39 228.56V227.2H172.35V236.57H170.39V235.18C170.06 235.62 169.61 235.99 169.05 236.28C168.48 236.57 167.84 236.72 167.11 236.72C166.3 236.72 165.57 236.51 164.9 236.1C164.23 235.69 163.7 235.11 163.31 234.37C162.92 233.63 162.72 232.79 162.72 231.85C162.72 230.91 162.92 230.08 163.31 229.35L163.3 229.34ZM169.98 230.19C169.71 229.71 169.37 229.35 168.93 229.1C168.5 228.85 168.03 228.73 167.54 228.73C167.05 228.73 166.58 228.85 166.15 229.1C165.72 229.34 165.37 229.7 165.1 230.17C164.83 230.64 164.7 231.2 164.7 231.84C164.7 232.48 164.83 233.05 165.1 233.54C165.37 234.03 165.72 234.4 166.15 234.65C166.59 234.9 167.05 235.03 167.54 235.03C168.03 235.03 168.5 234.91 168.93 234.66C169.36 234.41 169.71 234.05 169.98 233.56C170.25 233.08 170.38 232.52 170.38 231.87C170.38 231.22 170.25 230.66 169.98 230.19Z" fill="#A8A8A8"/>
<path d="M181.78 227.5C182.36 227.81 182.82 228.26 183.15 228.86C183.48 229.46 183.64 230.19 183.64 231.04V236.57H181.72V231.33C181.72 230.49 181.51 229.85 181.09 229.4C180.67 228.95 180.1 228.73 179.37 228.73C178.64 228.73 178.07 228.95 177.64 229.4C177.21 229.85 177 230.49 177 231.33V236.57H175.06V227.2H177V228.27C177.32 227.88 177.72 227.58 178.22 227.37C178.71 227.16 179.24 227.05 179.79 227.05C180.53 227.05 181.19 227.2 181.77 227.51L181.78 227.5Z" fill="#A8A8A8"/>
<path d="M188.55 228.77V233.96C188.55 234.31 188.63 234.56 188.8 234.72C188.96 234.87 189.24 234.95 189.64 234.95H190.83V236.57H189.3C188.43 236.57 187.76 236.37 187.29 235.96C186.83 235.55 186.59 234.89 186.59 233.97V228.78H185.49V227.2H186.59V224.87H188.55V227.2H190.83V228.78H188.55V228.77Z" fill="#A8A8A8"/>
<path d="M194.47 236.11C193.76 235.71 193.2 235.14 192.79 234.41C192.38 233.68 192.18 232.83 192.18 231.87C192.18 230.91 192.39 230.07 192.81 229.34C193.23 228.6 193.8 228.04 194.53 227.64C195.26 227.24 196.07 227.05 196.96 227.05C197.85 227.05 198.67 227.25 199.39 227.64C200.12 228.04 200.69 228.6 201.11 229.34C201.53 230.08 201.74 230.92 201.74 231.87C201.74 232.82 201.52 233.67 201.09 234.4C200.66 235.14 200.07 235.71 199.33 236.11C198.59 236.51 197.77 236.71 196.87 236.71C195.97 236.71 195.19 236.51 194.47 236.11ZM198.27 234.67C198.71 234.43 199.06 234.07 199.33 233.6C199.6 233.12 199.74 232.55 199.74 231.87C199.74 231.19 199.61 230.62 199.35 230.14C199.09 229.67 198.74 229.32 198.31 229.08C197.88 228.84 197.41 228.72 196.92 228.72C196.43 228.72 195.96 228.84 195.53 229.08C195.11 229.32 194.77 229.67 194.52 230.14C194.27 230.61 194.15 231.19 194.15 231.87C194.15 232.88 194.41 233.66 194.92 234.21C195.44 234.76 196.08 235.03 196.87 235.03C197.37 235.03 197.84 234.91 198.27 234.67Z" fill="#A8A8A8"/>
<path d="M205.26 236.32C204.68 236.05 204.21 235.69 203.87 235.23C203.53 234.77 203.35 234.26 203.33 233.69H205.34C205.37 234.09 205.56 234.42 205.91 234.68C206.26 234.95 206.69 235.08 207.21 235.08C207.73 235.08 208.18 234.97 208.48 234.76C208.78 234.55 208.93 234.28 208.93 233.95C208.93 233.6 208.76 233.34 208.43 233.17C208.1 233 207.57 232.81 206.84 232.61C206.14 232.42 205.57 232.23 205.12 232.05C204.68 231.87 204.3 231.59 203.97 231.22C203.65 230.85 203.49 230.35 203.49 229.74C203.49 229.24 203.64 228.79 203.93 228.37C204.22 227.96 204.65 227.63 205.2 227.39C205.75 227.15 206.38 227.03 207.1 227.03C208.16 227.03 209.02 227.3 209.68 227.84C210.33 228.38 210.68 229.11 210.73 230.04H208.79C208.76 229.62 208.59 229.29 208.28 229.04C207.97 228.79 207.56 228.67 207.04 228.67C206.52 228.67 206.14 228.77 205.87 228.96C205.6 229.15 205.46 229.41 205.46 229.72C205.46 229.97 205.55 230.18 205.73 230.35C205.91 230.52 206.13 230.65 206.39 230.75C206.65 230.85 207.04 230.97 207.55 231.12C208.23 231.3 208.79 231.49 209.22 231.67C209.66 231.86 210.03 232.13 210.35 232.49C210.67 232.85 210.83 233.33 210.84 233.94C210.84 234.47 210.69 234.95 210.4 235.37C210.11 235.79 209.69 236.12 209.15 236.36C208.61 236.6 207.98 236.72 207.25 236.72C206.52 236.72 205.85 236.59 205.27 236.32H205.26Z" fill="#A8A8A8"/>
<path d="M219.97 228.77V233.96C219.97 234.31 220.05 234.56 220.22 234.72C220.38 234.87 220.66 234.95 221.06 234.95H222.25V236.57H220.72C219.85 236.57 219.18 236.37 218.71 235.96C218.25 235.55 218.01 234.89 218.01 233.97V228.78H216.91V227.2H218.01V224.87H219.97V227.2H222.25V228.78H219.97V228.77Z" fill="#A8A8A8"/>
<path d="M232.74 232.6H225.58C225.64 233.35 225.91 233.95 226.41 234.4C226.91 234.85 227.52 235.08 228.25 235.08C229.29 235.08 230.03 234.64 230.46 233.77H232.55C232.27 234.63 231.75 235.34 231.01 235.89C230.27 236.44 229.35 236.72 228.25 236.72C227.35 236.72 226.55 236.52 225.84 236.12C225.13 235.72 224.58 235.15 224.17 234.42C223.77 233.69 223.57 232.84 223.57 231.88C223.57 230.92 223.77 230.07 224.16 229.34C224.55 228.61 225.1 228.05 225.81 227.65C226.52 227.25 227.33 227.06 228.25 227.06C229.17 227.06 229.92 227.25 230.61 227.64C231.3 228.03 231.84 228.57 232.23 229.26C232.61 229.96 232.81 230.76 232.81 231.67C232.81 232.02 232.79 232.34 232.74 232.62V232.6ZM230.78 231.04C230.77 230.33 230.51 229.75 230.01 229.32C229.51 228.89 228.89 228.67 228.16 228.67C227.49 228.67 226.92 228.88 226.44 229.31C225.96 229.74 225.68 230.31 225.59 231.04H230.78Z" fill="#A8A8A8"/>
<path d="M248.21 227.5C248.79 227.81 249.25 228.26 249.59 228.86C249.92 229.46 250.09 230.19 250.09 231.04V236.57H248.17V231.33C248.17 230.49 247.96 229.85 247.54 229.4C247.12 228.95 246.55 228.73 245.82 228.73C245.09 228.73 244.52 228.95 244.09 229.4C243.67 229.85 243.45 230.49 243.45 231.33V236.57H241.53V231.33C241.53 230.49 241.32 229.85 240.9 229.4C240.48 228.95 239.91 228.73 239.18 228.73C238.45 228.73 237.88 228.95 237.45 229.4C237.02 229.85 236.81 230.49 236.81 231.33V236.57H234.87V227.2H236.81V228.27C237.13 227.88 237.53 227.58 238.02 227.37C238.51 227.16 239.03 227.05 239.58 227.05C240.33 227.05 241 227.21 241.59 227.53C242.18 227.85 242.63 228.31 242.95 228.91C243.23 228.34 243.68 227.89 244.28 227.56C244.88 227.23 245.53 227.06 246.22 227.06C246.96 227.06 247.62 227.21 248.2 227.52L248.21 227.5Z" fill="#A8A8A8"/>
<path d="M351.74 0.75H36.8401C16.6541 0.75 0.290039 17.114 0.290039 37.3V167.2C0.290039 187.386 16.6541 203.75 36.8401 203.75H351.74C371.926 203.75 388.29 187.386 388.29 167.2V37.3C388.29 17.114 371.926 0.75 351.74 0.75Z" fill="#C0F2C3"/>
</svg>
