<svg width="389" height="242" viewBox="0 0 389 242" fill="none" xmlns="http://www.w3.org/2000/svg">
<path d="M131.32 235H135.32V236.56H129.39V224.74H131.33V234.99L131.32 235Z" fill="#A8A8A8"/>
<path d="M137.22 225.6C136.98 225.36 136.86 225.07 136.86 224.72C136.86 224.37 136.98 224.07 137.22 223.84C137.46 223.6 137.75 223.48 138.1 223.48C138.45 223.48 138.73 223.6 138.97 223.84C139.21 224.08 139.33 224.37 139.33 224.72C139.33 225.07 139.21 225.37 138.97 225.6C138.73 225.84 138.44 225.96 138.1 225.96C137.76 225.96 137.45 225.84 137.22 225.6ZM139.06 227.19V236.56H137.12V227.19H139.06Z" fill="#A8A8A8"/>
<path d="M147.5 227.47C148.06 227.76 148.5 228.12 148.82 228.55V227.19H150.78V236.71C150.78 237.57 150.6 238.34 150.24 239.01C149.88 239.68 149.35 240.21 148.67 240.6C147.98 240.99 147.17 241.18 146.21 241.18C144.94 241.18 143.89 240.88 143.05 240.29C142.21 239.7 141.74 238.89 141.62 237.87H143.54C143.69 238.36 144 238.75 144.48 239.05C144.96 239.35 145.54 239.5 146.21 239.5C146.99 239.5 147.62 239.26 148.11 238.79C148.59 238.31 148.83 237.62 148.83 236.72V235.16C148.5 235.6 148.06 235.97 147.5 236.27C146.94 236.57 146.3 236.72 145.59 236.72C144.77 236.72 144.03 236.51 143.35 236.1C142.68 235.69 142.14 235.11 141.75 234.37C141.36 233.63 141.16 232.79 141.16 231.85C141.16 230.91 141.36 230.08 141.75 229.35C142.14 228.62 142.67 228.06 143.35 227.66C144.03 227.26 144.77 227.06 145.59 227.06C146.32 227.06 146.96 227.2 147.52 227.49L147.5 227.47ZM148.42 230.19C148.15 229.71 147.81 229.35 147.37 229.1C146.94 228.85 146.47 228.73 145.98 228.73C145.49 228.73 145.02 228.85 144.59 229.1C144.16 229.34 143.81 229.7 143.54 230.17C143.27 230.64 143.14 231.2 143.14 231.84C143.14 232.48 143.27 233.05 143.54 233.54C143.81 234.03 144.16 234.4 144.59 234.65C145.03 234.9 145.49 235.03 145.98 235.03C146.47 235.03 146.94 234.91 147.37 234.66C147.8 234.41 148.15 234.05 148.42 233.56C148.69 233.08 148.82 232.52 148.82 231.87C148.82 231.22 148.69 230.66 148.42 230.19Z" fill="#A8A8A8"/>
<path d="M161.99 227.19V236.56H160.05V235.45C159.74 235.84 159.34 236.14 158.85 236.36C158.36 236.58 157.83 236.69 157.28 236.69C156.54 236.69 155.88 236.54 155.3 236.23C154.72 235.92 154.26 235.47 153.92 234.87C153.58 234.27 153.42 233.54 153.42 232.69V227.18H155.34V232.4C155.34 233.24 155.55 233.88 155.97 234.33C156.39 234.78 156.96 235 157.69 235C158.42 235 158.99 234.78 159.42 234.33C159.84 233.88 160.06 233.24 160.06 232.4V227.18H162L161.99 227.19Z" fill="#A8A8A8"/>
<path d="M173.25 232.6H166.09C166.15 233.35 166.42 233.95 166.92 234.4C167.42 234.85 168.03 235.08 168.76 235.08C169.8 235.08 170.54 234.64 170.97 233.77H173.06C172.78 234.63 172.26 235.34 171.52 235.89C170.78 236.44 169.86 236.72 168.76 236.72C167.86 236.72 167.06 236.52 166.35 236.12C165.64 235.72 165.09 235.15 164.68 234.42C164.28 233.69 164.08 232.84 164.08 231.88C164.08 230.92 164.28 230.07 164.67 229.34C165.06 228.61 165.61 228.05 166.32 227.65C167.03 227.25 167.84 227.06 168.76 227.06C169.68 227.06 170.43 227.25 171.12 227.64C171.81 228.03 172.35 228.57 172.74 229.26C173.12 229.96 173.32 230.76 173.32 231.67C173.32 232.02 173.3 232.34 173.25 232.62V232.6ZM171.29 231.04C171.28 230.33 171.02 229.75 170.52 229.32C170.02 228.89 169.4 228.67 168.67 228.67C168 228.67 167.43 228.88 166.95 229.31C166.47 229.74 166.19 230.31 166.1 231.04H171.29Z" fill="#A8A8A8"/>
<path d="M179.95 229.34C180.34 228.61 180.87 228.05 181.55 227.65C182.23 227.25 182.97 227.05 183.79 227.05C184.53 227.05 185.17 227.19 185.72 227.48C186.27 227.77 186.71 228.13 187.04 228.56V227.2H189V236.57H187.04V235.18C186.71 235.62 186.26 235.99 185.7 236.28C185.13 236.57 184.49 236.72 183.76 236.72C182.95 236.72 182.22 236.51 181.55 236.1C180.88 235.69 180.35 235.11 179.96 234.37C179.57 233.63 179.37 232.79 179.37 231.85C179.37 230.91 179.57 230.08 179.96 229.35L179.95 229.34ZM186.63 230.19C186.36 229.71 186.02 229.35 185.58 229.1C185.15 228.85 184.68 228.73 184.19 228.73C183.7 228.73 183.23 228.85 182.8 229.1C182.37 229.34 182.02 229.7 181.75 230.17C181.48 230.64 181.35 231.2 181.35 231.84C181.35 232.48 181.48 233.05 181.75 233.54C182.02 234.03 182.37 234.4 182.8 234.65C183.24 234.9 183.7 235.03 184.19 235.03C184.68 235.03 185.15 234.91 185.58 234.66C186.01 234.41 186.36 234.05 186.63 233.56C186.9 233.08 187.03 232.52 187.03 231.87C187.03 231.22 186.9 230.66 186.63 230.19Z" fill="#A8A8A8"/>
<path d="M193.14 236.32C192.56 236.05 192.09 235.69 191.75 235.23C191.41 234.77 191.23 234.26 191.21 233.69H193.22C193.25 234.09 193.44 234.42 193.79 234.68C194.14 234.95 194.57 235.08 195.09 235.08C195.61 235.08 196.06 234.97 196.36 234.76C196.66 234.55 196.81 234.28 196.81 233.95C196.81 233.6 196.64 233.34 196.31 233.17C195.98 233 195.45 232.81 194.72 232.61C194.02 232.42 193.45 232.23 193 232.05C192.56 231.87 192.18 231.59 191.85 231.22C191.53 230.85 191.37 230.35 191.37 229.74C191.37 229.24 191.52 228.79 191.81 228.37C192.1 227.96 192.53 227.63 193.08 227.39C193.63 227.15 194.26 227.03 194.98 227.03C196.04 227.03 196.9 227.3 197.56 227.84C198.21 228.38 198.56 229.11 198.61 230.04H196.67C196.64 229.62 196.47 229.29 196.16 229.04C195.85 228.79 195.44 228.67 194.92 228.67C194.4 228.67 194.02 228.77 193.75 228.96C193.48 229.15 193.34 229.41 193.34 229.72C193.34 229.97 193.43 230.18 193.61 230.35C193.79 230.52 194.01 230.65 194.27 230.75C194.53 230.85 194.92 230.97 195.43 231.12C196.11 231.3 196.67 231.49 197.1 231.67C197.54 231.86 197.91 232.13 198.23 232.49C198.55 232.85 198.71 233.33 198.72 233.94C198.72 234.47 198.57 234.95 198.28 235.37C197.99 235.79 197.57 236.12 197.03 236.36C196.49 236.6 195.86 236.72 195.13 236.72C194.4 236.72 193.73 236.59 193.15 236.32H193.14Z" fill="#A8A8A8"/>
<path d="M205.54 229.33C205.93 228.6 206.47 228.04 207.16 227.64C207.85 227.24 208.64 227.05 209.54 227.05C210.67 227.05 211.61 227.32 212.35 227.86C213.09 228.4 213.59 229.17 213.85 230.16H211.76C211.59 229.7 211.32 229.33 210.94 229.07C210.56 228.81 210.1 228.68 209.53 228.68C208.74 228.68 208.1 228.96 207.63 229.52C207.16 230.08 206.92 230.87 206.92 231.87C206.92 232.87 207.15 233.67 207.63 234.23C208.1 234.8 208.73 235.08 209.53 235.08C210.65 235.08 211.39 234.59 211.76 233.6H213.85C213.58 234.55 213.07 235.31 212.32 235.87C211.57 236.43 210.64 236.71 209.53 236.71C208.63 236.71 207.84 236.51 207.15 236.11C206.46 235.71 205.92 235.14 205.53 234.41C205.14 233.68 204.94 232.83 204.94 231.87C204.94 230.91 205.14 230.06 205.53 229.33H205.54Z" fill="#A8A8A8"/>
<path d="M217.65 236.11C216.94 235.71 216.38 235.14 215.97 234.41C215.56 233.68 215.36 232.83 215.36 231.87C215.36 230.91 215.57 230.07 215.99 229.34C216.41 228.6 216.98 228.04 217.71 227.64C218.44 227.24 219.25 227.05 220.14 227.05C221.03 227.05 221.85 227.25 222.57 227.64C223.3 228.04 223.87 228.6 224.29 229.34C224.71 230.08 224.92 230.92 224.92 231.87C224.92 232.82 224.7 233.67 224.27 234.4C223.84 235.14 223.25 235.71 222.51 236.11C221.77 236.51 220.95 236.71 220.05 236.71C219.15 236.71 218.37 236.51 217.65 236.11ZM221.45 234.67C221.89 234.43 222.24 234.07 222.51 233.6C222.78 233.12 222.92 232.55 222.92 231.87C222.92 231.19 222.79 230.62 222.53 230.14C222.27 229.67 221.92 229.32 221.49 229.08C221.06 228.84 220.59 228.72 220.1 228.72C219.61 228.72 219.14 228.84 218.71 229.08C218.29 229.32 217.95 229.67 217.7 230.14C217.45 230.61 217.33 231.19 217.33 231.87C217.33 232.88 217.59 233.66 218.1 234.21C218.62 234.76 219.26 235.03 220.05 235.03C220.55 235.03 221.02 234.91 221.45 234.67Z" fill="#A8A8A8"/>
<path d="M227.12 225.6C226.88 225.36 226.76 225.07 226.76 224.72C226.76 224.37 226.88 224.07 227.12 223.84C227.36 223.6 227.65 223.48 228 223.48C228.35 223.48 228.63 223.6 228.87 223.84C229.11 224.08 229.23 224.37 229.23 224.72C229.23 225.07 229.11 225.37 228.87 225.6C228.63 225.84 228.34 225.96 228 225.96C227.66 225.96 227.35 225.84 227.12 225.6ZM228.95 227.19V236.56H227.01V227.19H228.95Z" fill="#A8A8A8"/>
<path d="M233.11 236.32C232.53 236.05 232.06 235.69 231.72 235.23C231.38 234.77 231.2 234.26 231.18 233.69H233.19C233.22 234.09 233.41 234.42 233.76 234.68C234.11 234.95 234.54 235.08 235.06 235.08C235.58 235.08 236.03 234.97 236.33 234.76C236.63 234.55 236.78 234.28 236.78 233.95C236.78 233.6 236.61 233.34 236.28 233.17C235.95 233 235.42 232.81 234.69 232.61C233.99 232.42 233.42 232.23 232.97 232.05C232.53 231.87 232.15 231.59 231.82 231.22C231.5 230.85 231.34 230.35 231.34 229.74C231.34 229.24 231.49 228.79 231.78 228.37C232.07 227.96 232.5 227.63 233.05 227.39C233.6 227.15 234.23 227.03 234.95 227.03C236.01 227.03 236.87 227.3 237.53 227.84C238.18 228.38 238.53 229.11 238.58 230.04H236.64C236.61 229.62 236.44 229.29 236.13 229.04C235.82 228.79 235.41 228.67 234.89 228.67C234.37 228.67 233.99 228.77 233.72 228.96C233.45 229.15 233.31 229.41 233.31 229.72C233.31 229.97 233.4 230.18 233.58 230.35C233.76 230.52 233.98 230.65 234.24 230.75C234.5 230.85 234.89 230.97 235.4 231.12C236.08 231.3 236.64 231.49 237.07 231.67C237.51 231.86 237.88 232.13 238.2 232.49C238.52 232.85 238.68 233.33 238.69 233.94C238.69 234.47 238.54 234.95 238.25 235.37C237.96 235.79 237.54 236.12 237 236.36C236.46 236.6 235.83 236.72 235.1 236.72C234.37 236.72 233.7 236.59 233.12 236.32H233.11Z" fill="#A8A8A8"/>
<path d="M240.9 229.34C241.29 228.61 241.82 228.05 242.5 227.65C243.18 227.25 243.92 227.05 244.74 227.05C245.48 227.05 246.12 227.19 246.67 227.48C247.22 227.77 247.66 228.13 247.99 228.56V227.2H249.95V236.57H247.99V235.18C247.66 235.62 247.21 235.99 246.65 236.28C246.08 236.57 245.44 236.72 244.71 236.72C243.9 236.72 243.17 236.51 242.5 236.1C241.83 235.69 241.3 235.11 240.91 234.37C240.52 233.63 240.32 232.79 240.32 231.85C240.32 230.91 240.52 230.08 240.91 229.35L240.9 229.34ZM247.58 230.19C247.31 229.71 246.97 229.35 246.53 229.1C246.1 228.85 245.63 228.73 245.14 228.73C244.65 228.73 244.18 228.85 243.75 229.1C243.32 229.34 242.97 229.7 242.7 230.17C242.43 230.64 242.3 231.2 242.3 231.84C242.3 232.48 242.43 233.05 242.7 233.54C242.97 234.03 243.32 234.4 243.75 234.65C244.19 234.9 244.65 235.03 245.14 235.03C245.63 235.03 246.1 234.91 246.53 234.66C246.96 234.41 247.31 234.05 247.58 233.56C247.85 233.08 247.98 232.52 247.98 231.87C247.98 231.22 247.85 230.66 247.58 230.19Z" fill="#A8A8A8"/>
<path d="M254.09 236.32C253.51 236.05 253.04 235.69 252.7 235.23C252.36 234.77 252.18 234.26 252.16 233.69H254.17C254.2 234.09 254.39 234.42 254.74 234.68C255.09 234.95 255.52 235.08 256.04 235.08C256.56 235.08 257.01 234.97 257.31 234.76C257.61 234.55 257.76 234.28 257.76 233.95C257.76 233.6 257.59 233.34 257.26 233.17C256.93 233 256.4 232.81 255.67 232.61C254.97 232.42 254.4 232.23 253.95 232.05C253.51 231.87 253.13 231.59 252.8 231.22C252.48 230.85 252.32 230.35 252.32 229.74C252.32 229.24 252.47 228.79 252.76 228.37C253.05 227.96 253.48 227.63 254.03 227.39C254.58 227.15 255.21 227.03 255.93 227.03C256.99 227.03 257.85 227.3 258.51 227.84C259.16 228.38 259.51 229.11 259.56 230.04H257.62C257.59 229.62 257.42 229.29 257.11 229.04C256.8 228.79 256.39 228.67 255.87 228.67C255.35 228.67 254.97 228.77 254.7 228.96C254.43 229.15 254.29 229.41 254.29 229.72C254.29 229.97 254.38 230.18 254.56 230.35C254.74 230.52 254.96 230.65 255.22 230.75C255.48 230.85 255.87 230.97 256.38 231.12C257.06 231.3 257.62 231.49 258.05 231.67C258.49 231.86 258.86 232.13 259.18 232.49C259.5 232.85 259.66 233.33 259.67 233.94C259.67 234.47 259.52 234.95 259.23 235.37C258.94 235.79 258.52 236.12 257.98 236.36C257.44 236.6 256.81 236.72 256.08 236.72C255.35 236.72 254.68 236.59 254.1 236.32H254.09Z" fill="#A8A8A8"/>
<path d="M351.74 0.75H36.84C16.654 0.75 0.290039 17.114 0.290039 37.3V167.2C0.290039 187.386 16.654 203.75 36.84 203.75H351.74C371.926 203.75 388.29 187.386 388.29 167.2V37.3C388.29 17.114 371.926 0.75 351.74 0.75Z" fill="#FDC9A2"/>
</svg>
