<svg width="389" height="237" viewBox="0 0 389 237" fill="none" xmlns="http://www.w3.org/2000/svg">
<path d="M112.38 227.52C112.92 226.6 113.65 225.89 114.57 225.37C115.49 224.85 116.5 224.6 117.6 224.6C118.86 224.6 119.98 224.91 120.96 225.53C121.94 226.15 122.65 227.02 123.09 228.16H120.76C120.45 227.54 120.03 227.07 119.48 226.77C118.94 226.46 118.31 226.31 117.59 226.31C116.81 226.31 116.11 226.49 115.5 226.84C114.89 227.19 114.41 227.7 114.06 228.35C113.71 229 113.54 229.77 113.54 230.64C113.54 231.51 113.71 232.28 114.06 232.93C114.41 233.58 114.88 234.09 115.5 234.45C116.11 234.81 116.81 234.99 117.59 234.99C118.3 234.99 118.93 234.84 119.48 234.53C120.02 234.22 120.45 233.76 120.76 233.14H123.09C122.65 234.27 121.94 235.15 120.96 235.76C119.98 236.37 118.86 236.68 117.6 236.68C116.49 236.68 115.48 236.42 114.56 235.91C113.64 235.39 112.91 234.68 112.38 233.76C111.85 232.84 111.57 231.8 111.57 230.65C111.57 229.5 111.84 228.46 112.38 227.54V227.52Z" fill="#A8A8A8"/>
<path d="M127.21 236.11C126.5 235.71 125.93 235.14 125.53 234.41C125.12 233.68 124.92 232.83 124.92 231.87C124.92 230.91 125.13 230.07 125.55 229.34C125.97 228.6 126.54 228.04 127.27 227.64C128 227.24 128.81 227.05 129.7 227.05C130.59 227.05 131.41 227.25 132.13 227.64C132.85 228.04 133.43 228.6 133.85 229.34C134.27 230.08 134.48 230.92 134.48 231.87C134.48 232.82 134.26 233.67 133.83 234.4C133.4 235.14 132.81 235.71 132.07 236.11C131.33 236.51 130.51 236.71 129.61 236.71C128.71 236.71 127.93 236.51 127.21 236.11ZM131.01 234.67C131.45 234.43 131.8 234.07 132.07 233.6C132.34 233.12 132.48 232.55 132.48 231.87C132.48 231.19 132.35 230.62 132.09 230.14C131.83 229.67 131.48 229.32 131.05 229.08C130.62 228.84 130.15 228.72 129.66 228.72C129.17 228.72 128.7 228.84 128.27 229.08C127.85 229.32 127.51 229.67 127.26 230.14C127.01 230.61 126.89 231.19 126.89 231.87C126.89 232.88 127.15 233.66 127.66 234.21C128.17 234.76 128.83 235.03 129.61 235.03C130.11 235.03 130.58 234.91 131.01 234.67Z" fill="#A8A8A8"/>
<path d="M138.52 223.98V236.56H136.58V223.98H138.52Z" fill="#A8A8A8"/>
<path d="M142.92 236.11C142.21 235.71 141.65 235.14 141.24 234.41C140.83 233.68 140.63 232.83 140.63 231.87C140.63 230.91 140.84 230.07 141.26 229.34C141.68 228.6 142.25 228.04 142.98 227.64C143.7 227.24 144.52 227.05 145.41 227.05C146.3 227.05 147.12 227.25 147.84 227.64C148.56 228.03 149.14 228.6 149.56 229.34C149.98 230.08 150.19 230.92 150.19 231.87C150.19 232.82 149.97 233.67 149.54 234.4C149.11 235.14 148.52 235.71 147.78 236.11C147.04 236.51 146.22 236.71 145.32 236.71C144.42 236.71 143.64 236.51 142.92 236.11ZM146.72 234.67C147.16 234.43 147.51 234.07 147.78 233.6C148.05 233.13 148.19 232.55 148.19 231.87C148.19 231.19 148.06 230.62 147.8 230.14C147.54 229.67 147.19 229.32 146.76 229.08C146.33 228.84 145.86 228.72 145.37 228.72C144.88 228.72 144.41 228.84 143.98 229.08C143.56 229.32 143.22 229.67 142.97 230.14C142.72 230.61 142.6 231.19 142.6 231.87C142.6 232.88 142.86 233.66 143.37 234.21C143.89 234.76 144.53 235.03 145.32 235.03C145.82 235.03 146.29 234.91 146.72 234.67Z" fill="#A8A8A8"/>
<path d="M155.35 227.44C155.82 227.17 156.38 227.04 157.02 227.04V229.05H156.53C155.77 229.05 155.2 229.24 154.8 229.63C154.41 230.01 154.21 230.68 154.21 231.64V236.57H152.27V227.2H154.21V228.56C154.49 228.08 154.87 227.71 155.34 227.45L155.35 227.44Z" fill="#A8A8A8"/>
<path d="M159.1 225.6C158.86 225.36 158.74 225.07 158.74 224.72C158.74 224.37 158.86 224.07 159.1 223.84C159.34 223.6 159.63 223.48 159.98 223.48C160.33 223.48 160.61 223.6 160.85 223.84C161.09 224.08 161.21 224.37 161.21 224.72C161.21 225.07 161.09 225.37 160.85 225.6C160.61 225.84 160.32 225.96 159.98 225.96C159.64 225.96 159.33 225.84 159.1 225.6ZM160.94 227.19V236.56H159V227.19H160.94Z" fill="#A8A8A8"/>
<path d="M175.47 229.59V231.22H168.48V229.59H175.47Z" fill="#A8A8A8"/>
<path d="M189.97 224.75V226.33H184.95V229.82H188.86V231.4H184.95V236.57H183.01V224.75H189.96H189.97Z" fill="#A8A8A8"/>
<path d="M191.9 229.34C192.29 228.61 192.82 228.05 193.5 227.65C194.17 227.25 194.92 227.05 195.74 227.05C196.48 227.05 197.12 227.19 197.67 227.48C198.22 227.77 198.66 228.13 198.99 228.56V227.2H200.95V236.57H198.99V235.18C198.66 235.62 198.21 235.99 197.65 236.28C197.08 236.57 196.44 236.72 195.71 236.72C194.91 236.72 194.17 236.51 193.5 236.1C192.83 235.69 192.3 235.11 191.91 234.37C191.52 233.63 191.32 232.79 191.32 231.85C191.32 230.91 191.52 230.08 191.91 229.35L191.9 229.34ZM198.58 230.19C198.31 229.71 197.96 229.35 197.53 229.1C197.1 228.85 196.63 228.73 196.14 228.73C195.65 228.73 195.18 228.85 194.75 229.1C194.32 229.34 193.97 229.7 193.71 230.17C193.44 230.64 193.31 231.2 193.31 231.84C193.31 232.48 193.44 233.05 193.71 233.54C193.98 234.03 194.33 234.4 194.76 234.65C195.2 234.9 195.66 235.03 196.15 235.03C196.64 235.03 197.11 234.91 197.54 234.66C197.97 234.41 198.32 234.05 198.59 233.56C198.86 233.08 198.99 232.52 198.99 231.87C198.99 231.22 198.86 230.66 198.59 230.19H198.58Z" fill="#A8A8A8"/>
<path d="M205.39 234.98H209.64V236.56H203.15V234.98L207.42 228.77H203.15V227.19H209.64V228.77L205.39 234.98Z" fill="#A8A8A8"/>
<path d="M224.99 232.6H217.83C217.89 233.35 218.16 233.95 218.66 234.4C219.16 234.85 219.77 235.08 220.5 235.08C221.54 235.08 222.28 234.64 222.71 233.77H224.8C224.52 234.63 224 235.34 223.26 235.89C222.52 236.44 221.6 236.72 220.5 236.72C219.6 236.72 218.8 236.52 218.09 236.12C217.38 235.72 216.83 235.15 216.42 234.42C216.02 233.69 215.82 232.84 215.82 231.88C215.82 230.92 216.02 230.07 216.41 229.34C216.8 228.61 217.35 228.05 218.06 227.65C218.77 227.25 219.58 227.06 220.5 227.06C221.42 227.06 222.17 227.25 222.86 227.64C223.55 228.03 224.09 228.57 224.48 229.26C224.86 229.96 225.06 230.76 225.06 231.67C225.06 232.02 225.04 232.34 224.99 232.62V232.6ZM223.04 231.04C223.03 230.33 222.77 229.75 222.27 229.32C221.77 228.89 221.15 228.67 220.42 228.67C219.75 228.67 219.18 228.88 218.7 229.31C218.22 229.74 217.94 230.31 217.85 231.04H223.04Z" fill="#A8A8A8"/>
<path d="M237.9 236.56L235.18 231.83H233.7V236.56H231.76V224.74H235.84C236.75 224.74 237.51 224.9 238.14 225.22C238.77 225.54 239.24 225.96 239.55 226.49C239.86 227.02 240.02 227.62 240.02 228.28C240.02 229.05 239.8 229.75 239.35 230.38C238.9 231.01 238.21 231.44 237.28 231.66L240.2 236.56H237.89H237.9ZM233.7 230.29H235.84C236.56 230.29 237.11 230.11 237.48 229.75C237.85 229.39 238.03 228.9 238.03 228.29C238.03 227.68 237.85 227.2 237.49 226.85C237.13 226.5 236.58 226.33 235.84 226.33H233.7V230.29Z" fill="#A8A8A8"/>
<path d="M251.21 232.6H244.05C244.11 233.35 244.38 233.95 244.88 234.4C245.38 234.85 245.99 235.08 246.72 235.08C247.76 235.08 248.5 234.64 248.93 233.77H251.02C250.74 234.63 250.22 235.34 249.48 235.89C248.74 236.44 247.82 236.72 246.72 236.72C245.82 236.72 245.02 236.52 244.31 236.12C243.6 235.72 243.05 235.15 242.64 234.42C242.24 233.69 242.04 232.84 242.04 231.88C242.04 230.92 242.24 230.07 242.63 229.34C243.02 228.61 243.57 228.05 244.28 227.65C244.99 227.25 245.8 227.06 246.72 227.06C247.64 227.06 248.39 227.25 249.08 227.64C249.77 228.03 250.31 228.57 250.7 229.26C251.08 229.96 251.28 230.76 251.28 231.67C251.28 232.02 251.26 232.34 251.21 232.62V232.6ZM249.25 231.04C249.24 230.33 248.98 229.75 248.49 229.32C248 228.89 247.37 228.67 246.64 228.67C245.97 228.67 245.4 228.88 244.92 229.31C244.44 229.74 244.16 230.31 244.07 231.04H249.25Z" fill="#A8A8A8"/>
<path d="M257.29 228.77H255.56V236.56H253.61V228.77H252.5V227.19H253.61V226.53C253.61 225.45 253.9 224.67 254.47 224.18C255.04 223.69 255.94 223.44 257.16 223.44V225.06C256.57 225.06 256.16 225.17 255.92 225.39C255.68 225.61 255.56 225.99 255.56 226.54V227.2H257.29V228.78V228.77Z" fill="#A8A8A8"/>
<path d="M259.14 229.34C259.53 228.61 260.06 228.05 260.74 227.65C261.41 227.25 262.16 227.05 262.98 227.05C263.72 227.05 264.36 227.19 264.91 227.48C265.46 227.77 265.9 228.13 266.23 228.56V227.2H268.19V236.57H266.23V235.18C265.9 235.62 265.45 235.99 264.89 236.28C264.33 236.57 263.68 236.72 262.95 236.72C262.14 236.72 261.41 236.51 260.74 236.1C260.07 235.69 259.54 235.11 259.15 234.37C258.76 233.63 258.56 232.79 258.56 231.85C258.56 230.91 258.76 230.08 259.15 229.35L259.14 229.34ZM265.82 230.19C265.55 229.71 265.21 229.35 264.78 229.1C264.35 228.85 263.88 228.73 263.39 228.73C262.9 228.73 262.43 228.85 262 229.1C261.57 229.34 261.22 229.7 260.95 230.17C260.68 230.64 260.55 231.2 260.55 231.84C260.55 232.48 260.68 233.05 260.95 233.54C261.22 234.03 261.57 234.4 262 234.65C262.44 234.9 262.9 235.03 263.39 235.03C263.88 235.03 264.35 234.91 264.78 234.66C265.21 234.41 265.56 234.05 265.82 233.56C266.09 233.08 266.22 232.52 266.22 231.87C266.22 231.22 266.09 230.66 265.82 230.19Z" fill="#A8A8A8"/>
<path d="M272.63 234.98H276.88V236.56H270.39V234.98L274.66 228.77H270.39V227.19H276.88V228.77L272.63 234.98Z" fill="#A8A8A8"/>
<path d="M351.74 0.75H36.84C16.654 0.75 0.290039 17.114 0.290039 37.3V167.2C0.290039 187.386 16.654 203.75 36.84 203.75H351.74C371.926 203.75 388.29 187.386 388.29 167.2V37.3C388.29 17.114 371.926 0.75 351.74 0.75Z" fill="#FABBF3"/>
</svg>
