<svg width="389" height="242" viewBox="0 0 389 242" fill="none" xmlns="http://www.w3.org/2000/svg">
<path d="M134.94 238.7L132.87 236.46C132.36 236.61 131.8 236.68 131.19 236.68C130.09 236.68 129.08 236.42 128.16 235.91C127.24 235.4 126.51 234.67 125.97 233.75C125.43 232.83 125.16 231.79 125.16 230.63C125.16 229.47 125.43 228.44 125.97 227.52C126.51 226.6 127.24 225.89 128.16 225.37C129.08 224.85 130.1 224.6 131.19 224.6C132.28 224.6 133.32 224.86 134.24 225.37C135.16 225.88 135.89 226.6 136.42 227.52C136.95 228.44 137.22 229.48 137.22 230.63C137.22 231.72 136.98 232.7 136.51 233.58C136.04 234.46 135.39 235.16 134.56 235.7L137.4 238.71H134.93L134.94 238.7ZM127.65 232.93C128 233.59 128.47 234.1 129.09 234.46C129.7 234.82 130.4 235 131.18 235C131.96 235 132.66 234.82 133.27 234.46C133.88 234.1 134.36 233.59 134.71 232.93C135.06 232.27 135.23 231.5 135.23 230.63C135.23 229.76 135.06 228.99 134.71 228.34C134.36 227.69 133.89 227.18 133.27 226.83C132.66 226.48 131.96 226.3 131.18 226.3C130.4 226.3 129.7 226.48 129.09 226.83C128.48 227.18 128 227.69 127.65 228.34C127.3 229 127.13 229.76 127.13 230.63C127.13 231.5 127.3 232.27 127.65 232.93Z" fill="#A8A8A8"/>
<path d="M147.84 227.19V236.56H145.9V235.45C145.59 235.84 145.19 236.14 144.7 236.36C144.21 236.58 143.68 236.69 143.13 236.69C142.39 236.69 141.73 236.54 141.15 236.23C140.57 235.92 140.11 235.47 139.77 234.87C139.43 234.27 139.27 233.54 139.27 232.69V227.18H141.19V232.4C141.19 233.24 141.4 233.88 141.82 234.33C142.24 234.78 142.81 235 143.54 235C144.27 235 144.84 234.78 145.27 234.33C145.69 233.88 145.91 233.24 145.91 232.4V227.18H147.85L147.84 227.19Z" fill="#A8A8A8"/>
<path d="M159.09 232.6H151.93C151.99 233.35 152.26 233.95 152.76 234.4C153.26 234.85 153.87 235.08 154.6 235.08C155.64 235.08 156.38 234.64 156.81 233.77H158.9C158.62 234.63 158.1 235.34 157.36 235.89C156.62 236.44 155.7 236.72 154.6 236.72C153.7 236.72 152.9 236.52 152.19 236.12C151.48 235.72 150.93 235.15 150.52 234.42C150.12 233.69 149.92 232.84 149.92 231.88C149.92 230.92 150.12 230.07 150.51 229.34C150.9 228.61 151.45 228.05 152.16 227.65C152.87 227.25 153.68 227.06 154.6 227.06C155.52 227.06 156.27 227.25 156.96 227.64C157.65 228.03 158.19 228.57 158.58 229.26C158.96 229.96 159.16 230.76 159.16 231.67C159.16 232.02 159.14 232.34 159.09 232.62V232.6ZM157.14 231.04C157.13 230.33 156.87 229.75 156.37 229.32C155.87 228.89 155.25 228.67 154.52 228.67C153.85 228.67 153.28 228.88 152.8 229.31C152.32 229.74 152.04 230.31 151.95 231.04H157.14Z" fill="#A8A8A8"/>
<path d="M164.54 227.47C165.11 227.18 165.75 227.04 166.45 227.04C167.28 227.04 168.03 227.24 168.69 227.63C169.36 228.03 169.89 228.59 170.27 229.32C170.66 230.05 170.85 230.89 170.85 231.83C170.85 232.77 170.66 233.61 170.27 234.35C169.88 235.09 169.35 235.67 168.68 236.08C168.01 236.49 167.26 236.7 166.44 236.7C165.71 236.7 165.07 236.56 164.51 236.27C163.95 235.99 163.5 235.62 163.18 235.18V236.54H161.24V223.96H163.18V228.57C163.51 228.12 163.96 227.74 164.53 227.46L164.54 227.47ZM168.49 230.16C168.22 229.69 167.87 229.33 167.44 229.09C167 228.85 166.54 228.72 166.04 228.72C165.54 228.72 165.09 228.84 164.65 229.09C164.21 229.34 163.86 229.7 163.6 230.18C163.34 230.66 163.2 231.22 163.2 231.86C163.2 232.5 163.33 233.07 163.6 233.55C163.87 234.03 164.22 234.4 164.65 234.65C165.09 234.9 165.55 235.02 166.04 235.02C166.53 235.02 167.01 234.89 167.44 234.64C167.88 234.38 168.23 234.01 168.49 233.53C168.76 233.04 168.89 232.48 168.89 231.83C168.89 231.18 168.76 230.63 168.49 230.16Z" fill="#A8A8A8"/>
<path d="M176.03 227.44C176.5 227.17 177.06 227.04 177.7 227.04V229.05H177.21C176.45 229.05 175.88 229.24 175.48 229.63C175.09 230.01 174.89 230.68 174.89 231.64V236.57H172.95V227.2H174.89V228.56C175.17 228.08 175.55 227.71 176.02 227.45L176.03 227.44Z" fill="#A8A8A8"/>
<path d="M179.62 229.34C180.01 228.61 180.54 228.05 181.22 227.65C181.9 227.25 182.64 227.05 183.46 227.05C184.2 227.05 184.84 227.19 185.39 227.48C185.94 227.77 186.38 228.13 186.71 228.56V227.2H188.67V236.57H186.71V235.18C186.38 235.62 185.93 235.99 185.37 236.28C184.8 236.57 184.16 236.72 183.43 236.72C182.62 236.72 181.89 236.51 181.22 236.1C180.55 235.69 180.02 235.11 179.63 234.37C179.24 233.63 179.04 232.79 179.04 231.85C179.04 230.91 179.24 230.08 179.63 229.35L179.62 229.34ZM186.3 230.19C186.03 229.71 185.69 229.35 185.25 229.1C184.82 228.85 184.35 228.73 183.86 228.73C183.37 228.73 182.9 228.85 182.47 229.1C182.04 229.34 181.69 229.7 181.42 230.17C181.15 230.64 181.02 231.2 181.02 231.84C181.02 232.48 181.15 233.05 181.42 233.54C181.69 234.03 182.04 234.4 182.47 234.65C182.91 234.9 183.37 235.03 183.86 235.03C184.35 235.03 184.82 234.91 185.25 234.66C185.68 234.41 186.03 234.05 186.3 233.56C186.57 233.08 186.7 232.52 186.7 231.87C186.7 231.22 186.57 230.66 186.3 230.19Z" fill="#A8A8A8"/>
<path d="M196.16 227.52C196.7 226.6 197.43 225.89 198.35 225.37C199.27 224.85 200.29 224.6 201.38 224.6C202.64 224.6 203.76 224.91 204.74 225.53C205.72 226.15 206.43 227.02 206.87 228.16H204.54C204.23 227.54 203.81 227.07 203.26 226.77C202.72 226.46 202.09 226.31 201.37 226.31C200.59 226.31 199.89 226.49 199.28 226.84C198.67 227.19 198.19 227.7 197.84 228.35C197.49 229.01 197.32 229.77 197.32 230.64C197.32 231.51 197.49 232.28 197.84 232.93C198.19 233.59 198.66 234.09 199.28 234.45C199.89 234.81 200.59 234.99 201.37 234.99C202.08 234.99 202.71 234.84 203.26 234.53C203.8 234.22 204.23 233.76 204.54 233.14H206.87C206.43 234.27 205.72 235.15 204.74 235.76C203.76 236.37 202.64 236.68 201.38 236.68C200.27 236.68 199.26 236.42 198.34 235.91C197.42 235.39 196.69 234.68 196.16 233.76C195.62 232.84 195.35 231.8 195.35 230.65C195.35 229.5 195.62 228.46 196.16 227.54V227.52Z" fill="#A8A8A8"/>
<path d="M209.27 229.34C209.66 228.61 210.19 228.05 210.87 227.65C211.55 227.25 212.29 227.05 213.11 227.05C213.85 227.05 214.49 227.19 215.04 227.48C215.59 227.77 216.03 228.13 216.36 228.56V227.2H218.32V236.57H216.36V235.18C216.03 235.62 215.58 235.99 215.02 236.28C214.45 236.57 213.81 236.72 213.08 236.72C212.27 236.72 211.54 236.51 210.87 236.1C210.2 235.69 209.67 235.11 209.28 234.37C208.89 233.63 208.69 232.79 208.69 231.85C208.69 230.91 208.89 230.08 209.28 229.35L209.27 229.34ZM215.95 230.19C215.68 229.71 215.34 229.35 214.9 229.1C214.47 228.85 214 228.73 213.51 228.73C213.02 228.73 212.55 228.85 212.12 229.1C211.69 229.34 211.34 229.7 211.07 230.17C210.8 230.64 210.67 231.2 210.67 231.84C210.67 232.48 210.8 233.05 211.07 233.54C211.34 234.03 211.69 234.4 212.12 234.65C212.56 234.9 213.02 235.03 213.51 235.03C214 235.03 214.47 234.91 214.9 234.66C215.33 234.41 215.68 234.05 215.95 233.56C216.22 233.08 216.35 232.52 216.35 231.87C216.35 231.22 216.22 230.66 215.95 230.19Z" fill="#A8A8A8"/>
<path d="M224.33 227.47C224.9 227.18 225.54 227.04 226.24 227.04C227.07 227.04 227.82 227.24 228.48 227.63C229.15 228.03 229.68 228.59 230.06 229.32C230.45 230.05 230.64 230.89 230.64 231.83C230.64 232.77 230.45 233.61 230.06 234.35C229.67 235.09 229.14 235.67 228.47 236.08C227.8 236.49 227.05 236.7 226.23 236.7C225.5 236.7 224.86 236.56 224.3 236.27C223.74 235.99 223.29 235.62 222.97 235.18V236.54H221.03V223.96H222.97V228.57C223.3 228.12 223.75 227.74 224.32 227.46L224.33 227.47ZM228.27 230.16C228 229.69 227.65 229.33 227.22 229.09C226.78 228.85 226.32 228.72 225.82 228.72C225.32 228.72 224.87 228.84 224.43 229.09C223.99 229.34 223.64 229.7 223.38 230.18C223.12 230.66 222.98 231.22 222.98 231.86C222.98 232.5 223.11 233.07 223.38 233.55C223.65 234.03 224 234.4 224.43 234.65C224.87 234.9 225.33 235.02 225.82 235.02C226.31 235.02 226.79 234.89 227.22 234.64C227.66 234.38 228.01 234.01 228.27 233.53C228.54 233.04 228.67 232.48 228.67 231.83C228.67 231.18 228.54 230.63 228.27 230.16Z" fill="#A8A8A8"/>
<path d="M241.27 232.6H234.11C234.17 233.35 234.44 233.95 234.94 234.4C235.44 234.85 236.05 235.08 236.78 235.08C237.82 235.08 238.56 234.64 238.99 233.77H241.08C240.8 234.63 240.28 235.34 239.54 235.89C238.8 236.44 237.88 236.72 236.78 236.72C235.88 236.72 235.08 236.52 234.37 236.12C233.66 235.72 233.11 235.15 232.7 234.42C232.3 233.69 232.1 232.84 232.1 231.88C232.1 230.92 232.3 230.07 232.69 229.34C233.08 228.61 233.63 228.05 234.34 227.65C235.05 227.25 235.86 227.06 236.78 227.06C237.7 227.06 238.45 227.25 239.14 227.64C239.83 228.03 240.37 228.57 240.76 229.26C241.14 229.96 241.34 230.76 241.34 231.67C241.34 232.02 241.32 232.34 241.27 232.62V232.6ZM239.31 231.04C239.3 230.33 239.04 229.75 238.54 229.32C238.04 228.89 237.42 228.67 236.69 228.67C236.02 228.67 235.45 228.88 234.97 229.31C234.49 229.74 234.21 230.31 234.12 231.04H239.31Z" fill="#A8A8A8"/>
<path d="M249.6 233.6H251.69C251.44 234.46 251 235.17 250.36 235.72C249.72 236.27 248.92 236.59 247.95 236.68V237.38C248.61 237.38 249.14 237.54 249.55 237.85C249.96 238.16 250.16 238.6 250.16 239.17C250.16 239.74 249.96 240.19 249.55 240.52C249.14 240.85 248.63 241.02 248 241.02H245.76V239.8H247.61C247.93 239.8 248.17 239.75 248.32 239.66C248.47 239.57 248.56 239.41 248.56 239.17C248.56 238.93 248.48 238.77 248.32 238.68C248.16 238.59 247.92 238.54 247.61 238.54H246.67V236.67C245.9 236.58 245.22 236.32 244.63 235.9C244.04 235.48 243.58 234.92 243.26 234.23C242.94 233.54 242.78 232.76 242.78 231.88C242.78 230.92 242.98 230.07 243.37 229.34C243.76 228.61 244.3 228.05 244.99 227.65C245.68 227.25 246.47 227.06 247.37 227.06C248.5 227.06 249.44 227.33 250.18 227.87C250.92 228.41 251.42 229.18 251.68 230.17H249.59C249.42 229.71 249.15 229.34 248.77 229.08C248.39 228.82 247.93 228.69 247.36 228.69C246.57 228.69 245.93 228.97 245.46 229.53C244.99 230.09 244.75 230.88 244.75 231.88C244.75 232.88 244.98 233.68 245.46 234.24C245.93 234.81 246.56 235.09 247.36 235.09C248.48 235.09 249.22 234.6 249.59 233.61L249.6 233.6Z" fill="#A8A8A8"/>
<path d="M253.76 229.34C254.15 228.61 254.68 228.05 255.36 227.65C256.04 227.25 256.78 227.05 257.6 227.05C258.34 227.05 258.98 227.19 259.53 227.48C260.08 227.77 260.52 228.13 260.85 228.56V227.2H262.81V236.57H260.85V235.18C260.52 235.62 260.07 235.99 259.51 236.28C258.94 236.57 258.3 236.72 257.57 236.72C256.76 236.72 256.03 236.51 255.36 236.1C254.69 235.69 254.16 235.11 253.77 234.37C253.38 233.63 253.18 232.79 253.18 231.85C253.18 230.91 253.38 230.08 253.77 229.35L253.76 229.34ZM260.44 230.19C260.17 229.71 259.83 229.35 259.39 229.1C258.96 228.85 258.49 228.73 258 228.73C257.51 228.73 257.04 228.85 256.61 229.1C256.18 229.34 255.83 229.7 255.56 230.17C255.29 230.64 255.16 231.2 255.16 231.84C255.16 232.48 255.29 233.05 255.56 233.54C255.83 234.03 256.18 234.4 256.61 234.65C257.05 234.9 257.51 235.03 258 235.03C258.49 235.03 258.96 234.91 259.39 234.66C259.82 234.41 260.17 234.05 260.44 233.56C260.71 233.08 260.84 232.52 260.84 231.87C260.84 231.22 260.71 230.66 260.44 230.19Z" fill="#A8A8A8"/>
<path d="M351.74 0.75H36.84C16.654 0.75 0.290039 17.114 0.290039 37.3V167.2C0.290039 187.386 16.654 203.75 36.84 203.75H351.74C371.926 203.75 388.29 187.386 388.29 167.2V37.3C388.29 17.114 371.926 0.75 351.74 0.75Z" fill="#C8A9F2"/>
</svg>
