<svg width="471" height="95" viewBox="0 0 471 95" fill="none" xmlns="http://www.w3.org/2000/svg">
<path d="M77.8841 2.81818L86.1458 28.7884H86.4629L94.7413 2.81818H102.753L90.9693 37H81.6561L69.856 2.81818H77.8841ZM111.198 37.484C109.562 37.484 108.105 37.2003 106.825 36.6328C105.546 36.0542 104.533 35.203 103.788 34.0792C103.053 32.9442 102.686 31.5311 102.686 29.8398C102.686 28.4156 102.947 27.2195 103.47 26.2514C103.993 25.2834 104.705 24.5045 105.607 23.9148C106.508 23.325 107.532 22.88 108.678 22.5795C109.835 22.2791 111.048 22.0677 112.316 21.9453C113.807 21.7895 115.009 21.6449 115.921 21.5114C116.834 21.3667 117.496 21.1553 117.908 20.8771C118.319 20.599 118.525 20.1873 118.525 19.642V19.5419C118.525 18.4848 118.191 17.667 117.524 17.0884C116.867 16.5098 115.933 16.2205 114.72 16.2205C113.44 16.2205 112.422 16.5043 111.665 17.0717C110.909 17.6281 110.408 18.3291 110.163 19.1747L103.587 18.6406C103.921 17.0829 104.578 15.7365 105.557 14.6016C106.536 13.4555 107.799 12.5765 109.345 11.9645C110.903 11.3414 112.706 11.0298 114.753 11.0298C116.177 11.0298 117.54 11.1967 118.842 11.5305C120.155 11.8643 121.318 12.3817 122.33 13.0827C123.354 13.7837 124.161 14.685 124.751 15.7866C125.34 16.877 125.635 18.1844 125.635 19.7088V37H118.892V33.445H118.692C118.28 34.2461 117.73 34.9527 117.04 35.5646C116.35 36.1655 115.521 36.6384 114.553 36.9833C113.585 37.3171 112.466 37.484 111.198 37.484ZM113.234 32.5771C114.28 32.5771 115.204 32.3712 116.005 31.9595C116.806 31.5367 117.435 30.9692 117.891 30.2571C118.347 29.545 118.575 28.7383 118.575 27.837V25.1165C118.353 25.2611 118.047 25.3946 117.657 25.517C117.279 25.6283 116.85 25.734 116.372 25.8342C115.894 25.9232 115.415 26.0066 114.937 26.0845C114.458 26.1513 114.024 26.2125 113.635 26.2681C112.8 26.3905 112.071 26.5852 111.448 26.8523C110.825 27.1193 110.341 27.4809 109.996 27.9371C109.651 28.3822 109.479 28.9386 109.479 29.6062C109.479 30.5742 109.829 31.3142 110.53 31.826C111.243 32.3267 112.144 32.5771 113.234 32.5771ZM131.151 37V11.3636H137.928V15.8867H138.228C138.762 14.3846 139.652 13.1996 140.898 12.3317C142.145 11.4638 143.636 11.0298 145.371 11.0298C147.13 11.0298 148.626 11.4693 149.861 12.3484C151.096 13.2163 151.92 14.3957 152.331 15.8867H152.598C153.121 14.418 154.067 13.2441 155.436 12.3651C156.816 11.4749 158.446 11.0298 160.326 11.0298C162.718 11.0298 164.66 11.792 166.151 13.3164C167.653 14.8297 168.404 16.9772 168.404 19.7589V37H161.311V21.1609C161.311 19.7366 160.932 18.6684 160.176 17.9563C159.419 17.2442 158.473 16.8881 157.338 16.8881C156.048 16.8881 155.041 17.2998 154.318 18.1232C153.594 18.9355 153.233 20.0092 153.233 21.3445V37H146.34V21.0107C146.34 19.7533 145.978 18.7519 145.255 18.0064C144.543 17.2609 143.602 16.8881 142.434 16.8881C141.644 16.8881 140.932 17.0884 140.298 17.489C139.675 17.8784 139.179 18.4292 138.812 19.1413C138.445 19.8423 138.261 20.6657 138.261 21.6115V37H131.151ZM185.604 37.5007C183.011 37.5007 180.769 36.9499 178.877 35.8484C176.997 34.7357 175.545 33.189 174.521 31.2085C173.497 29.2167 172.986 26.9079 172.986 24.282C172.986 21.6338 173.497 19.3194 174.521 17.3388C175.545 15.3471 176.997 13.8004 178.877 12.6989C180.769 11.5862 183.011 11.0298 185.604 11.0298C188.196 11.0298 190.433 11.5862 192.313 12.6989C194.205 13.8004 195.662 15.3471 196.686 17.3388C197.71 19.3194 198.221 21.6338 198.221 24.282C198.221 26.9079 197.71 29.2167 196.686 31.2085C195.662 33.189 194.205 34.7357 192.313 35.8484C190.433 36.9499 188.196 37.5007 185.604 37.5007ZM185.637 31.9929C186.816 31.9929 187.801 31.6591 188.591 30.9915C189.381 30.3127 189.976 29.3892 190.377 28.2209C190.789 27.0526 190.995 25.7229 190.995 24.2319C190.995 22.7409 190.789 21.4112 190.377 20.2429C189.976 19.0746 189.381 18.151 188.591 17.4723C187.801 16.7936 186.816 16.4542 185.637 16.4542C184.446 16.4542 183.445 16.7936 182.633 17.4723C181.832 18.151 181.225 19.0746 180.813 20.2429C180.413 21.4112 180.213 22.7409 180.213 24.2319C180.213 25.7229 180.413 27.0526 180.813 28.2209C181.225 29.3892 181.832 30.3127 182.633 30.9915C183.445 31.6591 184.446 31.9929 185.637 31.9929ZM224.175 18.674L217.666 19.0746C217.554 18.5182 217.315 18.0175 216.948 17.5724C216.581 17.1162 216.097 16.7546 215.496 16.4876C214.906 16.2094 214.2 16.0703 213.376 16.0703C212.275 16.0703 211.346 16.304 210.589 16.7713C209.832 17.2275 209.454 17.8395 209.454 18.6072C209.454 19.2192 209.699 19.7366 210.188 20.1594C210.678 20.5823 211.518 20.9216 212.709 21.1776L217.349 22.1122C219.841 22.6241 221.699 23.4474 222.923 24.5824C224.147 25.7173 224.759 27.2083 224.759 29.0554C224.759 30.7356 224.264 32.2099 223.274 33.4783C222.294 34.7468 220.948 35.7371 219.235 36.4492C217.532 37.1502 215.568 37.5007 213.343 37.5007C209.949 37.5007 207.245 36.7942 205.231 35.381C203.229 33.9568 202.055 32.0207 201.71 29.5728L208.703 29.2056C208.914 30.2404 209.426 31.0304 210.239 31.5756C211.051 32.1097 212.091 32.3768 213.36 32.3768C214.606 32.3768 215.607 32.1375 216.364 31.6591C217.132 31.1695 217.521 30.5408 217.532 29.7731C217.521 29.1277 217.248 28.5992 216.714 28.1875C216.18 27.7647 215.357 27.442 214.244 27.2195L209.805 26.3349C207.301 25.8342 205.437 24.9663 204.213 23.7312C203 22.4961 202.394 20.9216 202.394 19.0078C202.394 17.361 202.839 15.9424 203.729 14.7518C204.631 13.5612 205.893 12.6432 207.518 11.9979C209.154 11.3525 211.067 11.0298 213.259 11.0298C216.497 11.0298 219.045 11.7141 220.904 13.0827C222.773 14.4513 223.863 16.3151 224.175 18.674ZM240.114 46.6136V11.3636H247.124V15.6697H247.441C247.753 14.9799 248.203 14.2789 248.793 13.5668C249.394 12.8435 250.173 12.2427 251.13 11.7642C252.098 11.2746 253.3 11.0298 254.735 11.0298C256.604 11.0298 258.329 11.5194 259.909 12.4986C261.489 13.4666 262.752 14.9298 263.698 16.8881C264.643 18.8353 265.116 21.2777 265.116 24.2152C265.116 27.0748 264.655 29.4893 263.731 31.4588C262.819 33.4171 261.572 34.9026 259.992 35.9151C258.424 36.9165 256.665 37.4173 254.718 37.4173C253.339 37.4173 252.165 37.1892 251.197 36.733C250.24 36.2768 249.455 35.7037 248.843 35.0138C248.231 34.3129 247.764 33.6063 247.441 32.8942H247.224V46.6136H240.114ZM247.074 24.1818C247.074 25.7062 247.285 27.0359 247.708 28.1708C248.131 29.3058 248.743 30.1903 249.544 30.8246C250.345 31.4477 251.319 31.7592 252.465 31.7592C253.622 31.7592 254.601 31.4421 255.403 30.8079C256.204 30.1625 256.81 29.2724 257.222 28.1374C257.645 26.9914 257.856 25.6728 257.856 24.1818C257.856 22.7019 257.65 21.4001 257.239 20.2763C256.827 19.1525 256.22 18.2734 255.419 17.6392C254.618 17.005 253.633 16.6879 252.465 16.6879C251.308 16.6879 250.329 16.9938 249.528 17.6058C248.738 18.2178 248.131 19.0857 247.708 20.2095C247.285 21.3333 247.074 22.6574 247.074 24.1818ZM269.856 37V11.3636H276.966V37H269.856ZM273.428 8.05895C272.371 8.05895 271.464 7.70845 270.708 7.00746C269.962 6.29533 269.589 5.44413 269.589 4.45383C269.589 3.47467 269.962 2.63459 270.708 1.93359C271.464 1.22147 272.371 0.86541 273.428 0.86541C274.485 0.86541 275.386 1.22147 276.132 1.93359C276.889 2.63459 277.267 3.47467 277.267 4.45383C277.267 5.44413 276.889 6.29533 276.132 7.00746C275.386 7.70845 274.485 8.05895 273.428 8.05895ZM289.772 22.179V37H282.662V11.3636H289.438V15.8867H289.739C290.306 14.3957 291.258 13.2163 292.593 12.3484C293.928 11.4693 295.547 11.0298 297.45 11.0298C299.23 11.0298 300.782 11.4193 302.106 12.1982C303.43 12.977 304.46 14.0897 305.194 15.5362C305.928 16.9716 306.296 18.6851 306.296 20.6768V37H299.186V21.9453C299.197 20.3764 298.796 19.1525 297.984 18.2734C297.172 17.3833 296.053 16.9382 294.629 16.9382C293.672 16.9382 292.826 17.1441 292.092 17.5558C291.369 17.9674 290.801 18.5683 290.39 19.3583C289.989 20.1372 289.783 21.0774 289.772 22.179ZM325.535 11.3636V16.7045H310.097V11.3636H325.535ZM313.602 5.22159H320.712V29.1222C320.712 29.7786 320.812 30.2905 321.012 30.6577C321.213 31.0137 321.491 31.2641 321.847 31.4087C322.214 31.5534 322.637 31.6257 323.115 31.6257C323.449 31.6257 323.783 31.5979 324.117 31.5423C324.451 31.4755 324.706 31.4254 324.884 31.392L326.003 36.6829C325.647 36.7942 325.146 36.9221 324.501 37.0668C323.855 37.2225 323.071 37.3171 322.147 37.3505C320.434 37.4173 318.932 37.1892 317.641 36.6662C316.361 36.1432 315.365 35.331 314.653 34.2294C313.941 33.1278 313.591 31.737 313.602 30.0568V5.22159ZM337.477 37.484C335.842 37.484 334.384 37.2003 333.104 36.6328C331.825 36.0542 330.812 35.203 330.067 34.0792C329.332 32.9442 328.965 31.5311 328.965 29.8398C328.965 28.4156 329.227 27.2195 329.75 26.2514C330.273 25.2834 330.985 24.5045 331.886 23.9148C332.787 23.325 333.811 22.88 334.957 22.5795C336.114 22.2791 337.327 22.0677 338.596 21.9453C340.087 21.7895 341.288 21.6449 342.201 21.5114C343.113 21.3667 343.775 21.1553 344.187 20.8771C344.599 20.599 344.804 20.1873 344.804 19.642V19.5419C344.804 18.4848 344.471 17.667 343.803 17.0884C343.146 16.5098 342.212 16.2205 340.999 16.2205C339.719 16.2205 338.701 16.5043 337.945 17.0717C337.188 17.6281 336.687 18.3291 336.443 19.1747L329.867 18.6406C330.2 17.0829 330.857 15.7365 331.836 14.6016C332.815 13.4555 334.078 12.5765 335.625 11.9645C337.182 11.3414 338.985 11.0298 341.032 11.0298C342.457 11.0298 343.82 11.1967 345.121 11.5305C346.434 11.8643 347.597 12.3817 348.61 13.0827C349.633 13.7837 350.44 14.685 351.03 15.7866C351.62 16.877 351.914 18.1844 351.914 19.7088V37H345.172V33.445H344.971C344.56 34.2461 344.009 34.9527 343.319 35.5646C342.629 36.1655 341.8 36.6384 340.832 36.9833C339.864 37.3171 338.746 37.484 337.477 37.484ZM339.514 32.5771C340.559 32.5771 341.483 32.3712 342.284 31.9595C343.085 31.5367 343.714 30.9692 344.17 30.2571C344.626 29.545 344.854 28.7383 344.854 27.837V25.1165C344.632 25.2611 344.326 25.3946 343.936 25.517C343.558 25.6283 343.13 25.734 342.651 25.8342C342.173 25.9232 341.694 26.0066 341.216 26.0845C340.737 26.1513 340.304 26.2125 339.914 26.2681C339.08 26.3905 338.351 26.5852 337.728 26.8523C337.105 27.1193 336.621 27.4809 336.276 27.9371C335.931 28.3822 335.758 28.9386 335.758 29.6062C335.758 30.5742 336.109 31.3142 336.81 31.826C337.522 32.3267 338.423 32.5771 339.514 32.5771ZM357.431 37V11.3636H364.324V15.8366H364.591C365.058 14.2455 365.843 13.0438 366.944 12.2315C368.046 11.4081 369.314 10.9964 370.75 10.9964C371.106 10.9964 371.489 11.0187 371.901 11.0632C372.313 11.1077 372.674 11.1689 372.986 11.2468V17.5558C372.652 17.4556 372.19 17.3666 371.601 17.2887C371.011 17.2108 370.471 17.1719 369.982 17.1719C368.936 17.1719 368.001 17.4 367.178 17.8562C366.366 18.3013 365.72 18.9244 365.242 19.7255C364.774 20.5266 364.541 21.4502 364.541 22.4961V37H357.431ZM382.771 26.7521V26.1847C382.782 24.2375 382.954 22.6853 383.288 21.5281C383.633 20.3709 384.134 19.4362 384.79 18.7241C385.447 18.012 386.237 17.3666 387.16 16.788C387.85 16.3429 388.468 15.8812 389.013 15.4027C389.558 14.9242 389.992 14.3957 390.315 13.8171C390.637 13.2274 390.799 12.5709 390.799 11.8477C390.799 11.0799 390.615 10.4067 390.248 9.82812C389.881 9.24953 389.386 8.80445 388.763 8.4929C388.151 8.18134 387.472 8.02557 386.726 8.02557C386.003 8.02557 385.319 8.18691 384.673 8.50959C384.028 8.82114 383.5 9.28847 383.088 9.91158C382.676 10.5236 382.454 11.2857 382.42 12.1982H375.611C375.666 9.97277 376.2 8.13684 377.213 6.69034C378.225 5.23272 379.566 4.14785 381.235 3.43572C382.904 2.71247 384.746 2.35085 386.76 2.35085C388.974 2.35085 390.932 2.71804 392.635 3.45241C394.337 4.17566 395.672 5.22715 396.64 6.60689C397.608 7.98662 398.092 9.65009 398.092 11.5973C398.092 12.8991 397.875 14.0563 397.442 15.0689C397.019 16.0703 396.423 16.9605 395.656 17.7393C394.888 18.5071 393.981 19.2025 392.935 19.8256C392.056 20.3486 391.333 20.8938 390.765 21.4613C390.209 22.0288 389.792 22.6853 389.514 23.4308C389.247 24.1763 389.107 25.0942 389.096 26.1847V26.7521H382.771ZM386.075 37.4339C384.963 37.4339 384.011 37.0445 383.221 36.2656C382.442 35.4756 382.059 34.5298 382.07 33.4283C382.059 32.3378 382.442 31.4032 383.221 30.6243C384.011 29.8454 384.963 29.456 386.075 29.456C387.132 29.456 388.062 29.8454 388.863 30.6243C389.664 31.4032 390.07 32.3378 390.081 33.4283C390.07 34.1626 389.875 34.8358 389.497 35.4478C389.13 36.0487 388.646 36.5327 388.045 36.8999C387.444 37.2559 386.788 37.4339 386.075 37.4339ZM0.13006 94V59.8182H23.1627V65.7766H7.35698V73.9215H21.9777V79.88H7.35698V88.0415H23.2295V94H0.13006ZM50.1051 75.674L43.5959 76.0746C43.4846 75.5182 43.2454 75.0175 42.8782 74.5724C42.511 74.1162 42.027 73.7546 41.4261 73.4876C40.8364 73.2094 40.1299 73.0703 39.3065 73.0703C38.2049 73.0703 37.2758 73.304 36.5192 73.7713C35.7625 74.2275 35.3842 74.8395 35.3842 75.6072C35.3842 76.2192 35.629 76.7366 36.1186 77.1594C36.6082 77.5823 37.4483 77.9216 38.6389 78.1776L43.2788 79.1122C45.7712 79.6241 47.6294 80.4474 48.8533 81.5824C50.0773 82.7173 50.6893 84.2083 50.6893 86.0554C50.6893 87.7356 50.1941 89.2099 49.2038 90.4783C48.2247 91.7468 46.8783 92.7371 45.1648 93.4492C43.4624 94.1502 41.4985 94.5007 39.2731 94.5007C35.8794 94.5007 33.1755 93.7942 31.1616 92.381C29.1587 90.9568 27.9848 89.0207 27.6399 86.5728L34.6332 86.2056C34.8446 87.2404 35.3564 88.0304 36.1687 88.5756C36.9809 89.1097 38.0213 89.3768 39.2898 89.3768C40.536 89.3768 41.5374 89.1375 42.294 88.6591C43.0618 88.1695 43.4512 87.5408 43.4624 86.7731C43.4512 86.1277 43.1786 85.5992 42.6445 85.1875C42.1104 84.7647 41.2871 84.442 40.1744 84.2195L35.7347 83.3349C33.2312 82.8342 31.3674 81.9663 30.1435 80.7312C28.9306 79.4961 28.3242 77.9216 28.3242 76.0078C28.3242 74.361 28.7693 72.9424 29.6594 71.7518C30.5607 70.5612 31.8236 69.6432 33.4482 68.9979C35.0838 68.3525 36.9976 68.0298 39.1896 68.0298C42.4276 68.0298 44.9756 68.7141 46.8338 70.0827C48.7031 71.4513 49.7936 73.3151 50.1051 75.674ZM66.7496 94.5007C64.1236 94.5007 61.8649 93.9444 59.9733 92.8317C58.0928 91.7079 56.6463 90.1501 55.6338 88.1584C54.6324 86.1667 54.1317 83.8745 54.1317 81.282C54.1317 78.656 54.6379 76.3527 55.6505 74.3722C56.6742 72.3804 58.1262 70.8282 60.0067 69.7156C61.8871 68.5917 64.1236 68.0298 66.7162 68.0298C68.9527 68.0298 70.911 68.436 72.5912 69.2482C74.2713 70.0605 75.601 71.201 76.5802 72.6697C77.5593 74.1385 78.099 75.8632 78.1991 77.8438H71.4896C71.3005 76.5642 70.7997 75.5349 69.9875 74.756C69.1863 73.966 68.1349 73.571 66.833 73.571C65.7314 73.571 64.769 73.8714 63.9456 74.4723C63.1333 75.062 62.4991 75.9244 62.0429 77.0593C61.5867 78.1942 61.3586 79.5684 61.3586 81.1818C61.3586 82.8175 61.5811 84.2083 62.0262 85.3544C62.4824 86.5005 63.1222 87.3739 63.9456 87.9748C64.769 88.5756 65.7314 88.8761 66.833 88.8761C67.6453 88.8761 68.3741 88.7092 69.0194 88.3754C69.6759 88.0415 70.2156 87.5575 70.6384 86.9233C71.0724 86.2779 71.3561 85.5046 71.4896 84.6033H78.1991C78.0879 86.5617 77.5538 88.2863 76.5969 89.7773C75.6511 91.2572 74.3437 92.4144 72.6746 93.2489C71.0056 94.0835 69.0306 94.5007 66.7496 94.5007ZM94.3345 94.5007C91.742 94.5007 89.4999 93.9499 87.6083 92.8484C85.7279 91.7357 84.2758 90.189 83.2521 88.2085C82.2285 86.2167 81.7166 83.9079 81.7166 81.282C81.7166 78.6338 82.2285 76.3194 83.2521 74.3388C84.2758 72.3471 85.7279 70.8004 87.6083 69.6989C89.4999 68.5862 91.742 68.0298 94.3345 68.0298C96.9271 68.0298 99.1636 68.5862 101.044 69.6989C102.936 70.8004 104.393 72.3471 105.417 74.3388C106.441 76.3194 106.952 78.6338 106.952 81.282C106.952 83.9079 106.441 86.2167 105.417 88.2085C104.393 90.189 102.936 91.7357 101.044 92.8484C99.1636 93.9499 96.9271 94.5007 94.3345 94.5007ZM94.3679 88.9929C95.5473 88.9929 96.5321 88.6591 97.3221 87.9915C98.1121 87.3127 98.7074 86.3892 99.108 85.2209C99.5197 84.0526 99.7255 82.7229 99.7255 81.2319C99.7255 79.7409 99.5197 78.4112 99.108 77.2429C98.7074 76.0746 98.1121 75.151 97.3221 74.4723C96.5321 73.7936 95.5473 73.4542 94.3679 73.4542C93.1773 73.4542 92.1759 73.7936 91.3636 74.4723C90.5625 75.151 89.9561 76.0746 89.5444 77.2429C89.1438 78.4112 88.9435 79.7409 88.9435 81.2319C88.9435 82.7229 89.1438 84.0526 89.5444 85.2209C89.9561 86.3892 90.5625 87.3127 91.3636 87.9915C92.1759 88.6591 93.1773 88.9929 94.3679 88.9929ZM118.686 59.8182V94H111.576V59.8182H118.686ZM131.491 79.179V94H124.381V59.8182H131.291V72.8867H131.592C132.17 71.3735 133.105 70.1884 134.396 69.3317C135.686 68.4638 137.305 68.0298 139.252 68.0298C141.033 68.0298 142.585 68.4193 143.909 69.1982C145.244 69.9659 146.279 71.073 147.013 72.5195C147.759 73.9549 148.126 75.674 148.115 77.6768V94H141.005V78.9453C141.016 77.3653 140.615 76.1358 139.803 75.2567C139.002 74.3777 137.878 73.9382 136.432 73.9382C135.464 73.9382 134.607 74.1441 133.861 74.5558C133.127 74.9674 132.548 75.5683 132.126 76.3583C131.714 77.1372 131.503 78.0774 131.491 79.179ZM161.021 94.484C159.385 94.484 157.927 94.2003 156.648 93.6328C155.368 93.0542 154.356 92.203 153.61 91.0792C152.876 89.9442 152.509 88.5311 152.509 86.8398C152.509 85.4156 152.77 84.2195 153.293 83.2514C153.816 82.2834 154.528 81.5045 155.43 80.9148C156.331 80.325 157.354 79.88 158.501 79.5795C159.658 79.2791 160.871 79.0677 162.139 78.9453C163.63 78.7895 164.832 78.6449 165.744 78.5114C166.657 78.3667 167.319 78.1553 167.73 77.8771C168.142 77.599 168.348 77.1873 168.348 76.642V76.5419C168.348 75.4848 168.014 74.667 167.346 74.0884C166.69 73.5098 165.755 73.2205 164.542 73.2205C163.263 73.2205 162.245 73.5043 161.488 74.0717C160.731 74.6281 160.231 75.3291 159.986 76.1747L153.41 75.6406C153.744 74.0829 154.4 72.7365 155.379 71.6016C156.359 70.4555 157.622 69.5765 159.168 68.9645C160.726 68.3414 162.528 68.0298 164.576 68.0298C166 68.0298 167.363 68.1967 168.665 68.5305C169.978 68.8643 171.141 69.3817 172.153 70.0827C173.177 70.7837 173.984 71.685 174.573 72.7866C175.163 73.877 175.458 75.1844 175.458 76.7088V94H168.715V90.445H168.515C168.103 91.2461 167.552 91.9527 166.862 92.5646C166.173 93.1655 165.344 93.6384 164.376 93.9833C163.407 94.3171 162.289 94.484 161.021 94.484ZM163.057 89.5771C164.103 89.5771 165.026 89.3712 165.828 88.9595C166.629 88.5367 167.257 87.9692 167.714 87.2571C168.17 86.545 168.398 85.7383 168.398 84.837V82.1165C168.175 82.2611 167.869 82.3946 167.48 82.517C167.102 82.6283 166.673 82.734 166.195 82.8342C165.716 82.9232 165.238 83.0066 164.759 83.0845C164.281 83.1513 163.847 83.2125 163.458 83.2681C162.623 83.3905 161.894 83.5852 161.271 83.8523C160.648 84.1193 160.164 84.4809 159.819 84.9371C159.474 85.3822 159.302 85.9386 159.302 86.6062C159.302 87.5742 159.652 88.3142 160.353 88.826C161.065 89.3267 161.967 89.5771 163.057 89.5771ZM208.292 83.0845V68.3636H215.402V94H208.576V89.3434H208.309C207.73 90.8455 206.768 92.0528 205.421 92.9652C204.086 93.8776 202.456 94.3338 200.531 94.3338C198.817 94.3338 197.31 93.9444 196.008 93.1655C194.706 92.3866 193.688 91.2795 192.954 89.8441C192.23 88.4087 191.863 86.6896 191.852 84.6868V68.3636H198.962V83.4183C198.973 84.9316 199.379 86.1277 200.18 87.0067C200.982 87.8858 202.055 88.3253 203.402 88.3253C204.258 88.3253 205.06 88.1306 205.805 87.7411C206.551 87.3406 207.151 86.7508 207.608 85.9719C208.075 85.1931 208.303 84.2306 208.292 83.0845ZM221.089 94V68.3636H227.866V72.8867H228.166C228.7 71.3846 229.59 70.1996 230.836 69.3317C232.083 68.4638 233.574 68.0298 235.309 68.0298C237.068 68.0298 238.564 68.4693 239.799 69.3484C241.034 70.2163 241.858 71.3957 242.269 72.8867H242.536C243.059 71.418 244.005 70.2441 245.374 69.3651C246.753 68.4749 248.384 68.0298 250.264 68.0298C252.656 68.0298 254.598 68.792 256.089 70.3164C257.591 71.8297 258.342 73.9772 258.342 76.7589V94H251.249V78.1609C251.249 76.7366 250.87 75.6684 250.114 74.9563C249.357 74.2442 248.411 73.8881 247.276 73.8881C245.986 73.8881 244.979 74.2998 244.256 75.1232C243.532 75.9355 243.171 77.0092 243.171 78.3445V94H236.278V78.0107C236.278 76.7533 235.916 75.7519 235.193 75.0064C234.481 74.2609 233.54 73.8881 232.372 73.8881C231.582 73.8881 230.87 74.0884 230.236 74.489C229.613 74.8784 229.117 75.4292 228.75 76.1413C228.383 76.8423 228.199 77.6657 228.199 78.6115V94H221.089ZM284.283 94.4173C282.336 94.4173 280.572 93.9165 278.992 92.9151C277.423 91.9026 276.177 90.4171 275.254 88.4588C274.341 86.4893 273.885 84.0748 273.885 81.2152C273.885 78.2777 274.358 75.8353 275.304 73.8881C276.249 71.9298 277.507 70.4666 279.076 69.4986C280.656 68.5194 282.386 68.0298 284.266 68.0298C285.702 68.0298 286.898 68.2746 287.855 68.7642C288.823 69.2427 289.602 69.8435 290.191 70.5668C290.792 71.2789 291.249 71.9799 291.56 72.6697H291.777V59.8182H298.87V94H291.861V89.8942H291.56C291.226 90.6063 290.753 91.3129 290.141 92.0138C289.541 92.7037 288.756 93.2768 287.788 93.733C286.831 94.1892 285.663 94.4173 284.283 94.4173ZM286.536 88.7592C287.682 88.7592 288.65 88.4477 289.44 87.8246C290.242 87.1903 290.854 86.3058 291.276 85.1708C291.71 84.0359 291.927 82.7062 291.927 81.1818C291.927 79.6574 291.716 78.3333 291.293 77.2095C290.87 76.0857 290.258 75.2178 289.457 74.6058C288.656 73.9938 287.682 73.6879 286.536 73.6879C285.368 73.6879 284.383 74.005 283.582 74.6392C282.781 75.2734 282.175 76.1525 281.763 77.2763C281.351 78.4001 281.145 79.7019 281.145 81.1818C281.145 82.6728 281.351 83.9914 281.763 85.1374C282.186 86.2724 282.792 87.1625 283.582 87.8079C284.383 88.4421 285.368 88.7592 286.536 88.7592ZM316.4 94.5007C313.762 94.5007 311.493 93.9666 309.59 92.8984C307.698 91.8191 306.241 90.2947 305.217 88.3253C304.193 86.3447 303.681 84.0025 303.681 81.2986C303.681 78.6616 304.193 76.3472 305.217 74.3555C306.241 72.3638 307.682 70.8116 309.54 69.6989C311.409 68.5862 313.601 68.0298 316.116 68.0298C317.807 68.0298 319.382 68.3024 320.839 68.8477C322.308 69.3817 323.587 70.1884 324.678 71.2678C325.779 72.3471 326.636 73.7045 327.248 75.3402C327.86 76.9647 328.166 78.8674 328.166 81.0483V83.0011H306.519V78.5948H321.473C321.473 77.5711 321.251 76.6643 320.806 75.8743C320.361 75.0843 319.743 74.4667 318.953 74.0217C318.174 73.5655 317.267 73.3374 316.233 73.3374C315.153 73.3374 314.196 73.5877 313.362 74.0884C312.538 74.578 311.893 75.2401 311.426 76.0746C310.958 76.898 310.719 77.8159 310.708 78.8285V83.0178C310.708 84.2862 310.942 85.3822 311.409 86.3058C311.888 87.2293 312.561 87.9414 313.429 88.4421C314.297 88.9428 315.326 89.1932 316.516 89.1932C317.306 89.1932 318.03 89.0819 318.686 88.8594C319.343 88.6368 319.904 88.303 320.372 87.858C320.839 87.4129 321.195 86.8677 321.44 86.2223L328.016 86.6562C327.682 88.2363 326.998 89.616 325.963 90.7955C324.939 91.9638 323.615 92.8762 321.991 93.5327C320.377 94.178 318.514 94.5007 316.4 94.5007ZM354.136 75.674L347.627 76.0746C347.516 75.5182 347.277 75.0175 346.909 74.5724C346.542 74.1162 346.058 73.7546 345.457 73.4876C344.868 73.2094 344.161 73.0703 343.338 73.0703C342.236 73.0703 341.307 73.304 340.55 73.7713C339.794 74.2275 339.415 74.8395 339.415 75.6072C339.415 76.2192 339.66 76.7366 340.15 77.1594C340.639 77.5823 341.48 77.9216 342.67 78.1776L347.31 79.1122C349.802 79.6241 351.661 80.4474 352.885 81.5824C354.109 82.7173 354.721 84.2083 354.721 86.0554C354.721 87.7356 354.225 89.2099 353.235 90.4783C352.256 91.7468 350.91 92.7371 349.196 93.4492C347.494 94.1502 345.53 94.5007 343.304 94.5007C339.911 94.5007 337.207 93.7942 335.193 92.381C333.19 90.9568 332.016 89.0207 331.671 86.5728L338.664 86.2056C338.876 87.2404 339.388 88.0304 340.2 88.5756C341.012 89.1097 342.053 89.3768 343.321 89.3768C344.567 89.3768 345.569 89.1375 346.325 88.6591C347.093 88.1695 347.482 87.5408 347.494 86.7731C347.482 86.1277 347.21 85.5992 346.676 85.1875C346.142 84.7647 345.318 84.442 344.206 84.2195L339.766 83.3349C337.262 82.8342 335.399 81.9663 334.175 80.7312C332.962 79.4961 332.355 77.9216 332.355 76.0078C332.355 74.361 332.801 72.9424 333.691 71.7518C334.592 70.5612 335.855 69.6432 337.479 68.9979C339.115 68.3525 341.029 68.0298 343.221 68.0298C346.459 68.0298 349.007 68.7141 350.865 70.0827C352.734 71.4513 353.825 73.3151 354.136 75.674ZM370.881 94.5007C368.244 94.5007 365.974 93.9666 364.071 92.8984C362.18 91.8191 360.722 90.2947 359.698 88.3253C358.675 86.3447 358.163 84.0025 358.163 81.2986C358.163 78.6616 358.675 76.3472 359.698 74.3555C360.722 72.3638 362.163 70.8116 364.021 69.6989C365.891 68.5862 368.083 68.0298 370.597 68.0298C372.289 68.0298 373.863 68.3024 375.321 68.8477C376.789 69.3817 378.069 70.1884 379.159 71.2678C380.261 72.3471 381.118 73.7045 381.73 75.3402C382.342 76.9647 382.648 78.8674 382.648 81.0483V83.0011H361V78.5948H375.955C375.955 77.5711 375.732 76.6643 375.287 75.8743C374.842 75.0843 374.225 74.4667 373.435 74.0217C372.656 73.5655 371.749 73.3374 370.714 73.3374C369.635 73.3374 368.678 73.5877 367.843 74.0884C367.02 74.578 366.375 75.2401 365.907 76.0746C365.44 76.898 365.201 77.8159 365.19 78.8285V83.0178C365.19 84.2862 365.423 85.3822 365.891 86.3058C366.369 87.2293 367.042 87.9414 367.91 88.4421C368.778 88.9428 369.807 89.1932 370.998 89.1932C371.788 89.1932 372.511 89.0819 373.168 88.8594C373.824 88.6368 374.386 88.303 374.853 87.858C375.321 87.4129 375.677 86.8677 375.921 86.2223L382.497 86.6562C382.164 88.2363 381.479 89.616 380.445 90.7955C379.421 91.9638 378.097 92.8762 376.472 93.5327C374.859 94.178 372.995 94.5007 370.881 94.5007ZM394.398 79.179V94H387.288V68.3636H394.064V72.8867H394.364C394.932 71.3957 395.883 70.2163 397.218 69.3484C398.554 68.4693 400.172 68.0298 402.075 68.0298C403.855 68.0298 405.408 68.4193 406.732 69.1982C408.056 69.977 409.085 71.0897 409.82 72.5362C410.554 73.9716 410.921 75.6851 410.921 77.6768V94H403.811V78.9453C403.822 77.3764 403.422 76.1525 402.609 75.2734C401.797 74.3833 400.679 73.9382 399.255 73.9382C398.298 73.9382 397.452 74.1441 396.718 74.5558C395.994 74.9674 395.427 75.5683 395.015 76.3583C394.615 77.1372 394.409 78.0774 394.398 79.179ZM423.635 79.179V94H416.525V59.8182H423.435V72.8867H423.735C424.314 71.3735 425.248 70.1884 426.539 69.3317C427.83 68.4638 429.449 68.0298 431.396 68.0298C433.176 68.0298 434.728 68.4193 436.053 69.1982C437.388 69.9659 438.423 71.073 439.157 72.5195C439.902 73.9549 440.27 75.674 440.259 77.6768V94H433.148V78.9453C433.16 77.3653 432.759 76.1358 431.947 75.2567C431.146 74.3777 430.022 73.9382 428.575 73.9382C427.607 73.9382 426.75 74.1441 426.005 74.5558C425.271 74.9674 424.692 75.5683 424.269 76.3583C423.857 77.1372 423.646 78.0774 423.635 79.179ZM457.437 94.5007C454.844 94.5007 452.602 93.9499 450.711 92.8484C448.83 91.7357 447.378 90.189 446.355 88.2085C445.331 86.2167 444.819 83.9079 444.819 81.282C444.819 78.6338 445.331 76.3194 446.355 74.3388C447.378 72.3471 448.83 70.8004 450.711 69.6989C452.602 68.5862 454.844 68.0298 457.437 68.0298C460.03 68.0298 462.266 68.5862 464.147 69.6989C466.038 70.8004 467.496 72.3471 468.519 74.3388C469.543 76.3194 470.055 78.6338 470.055 81.282C470.055 83.9079 469.543 86.2167 468.519 88.2085C467.496 90.189 466.038 91.7357 464.147 92.8484C462.266 93.9499 460.03 94.5007 457.437 94.5007ZM457.47 88.9929C458.65 88.9929 459.635 88.6591 460.425 87.9915C461.215 87.3127 461.81 86.3892 462.21 85.2209C462.622 84.0526 462.828 82.7229 462.828 81.2319C462.828 79.7409 462.622 78.4112 462.21 77.2429C461.81 76.0746 461.215 75.151 460.425 74.4723C459.635 73.7936 458.65 73.4542 457.47 73.4542C456.28 73.4542 455.278 73.7936 454.466 74.4723C453.665 75.151 453.059 76.0746 452.647 77.2429C452.246 78.4112 452.046 79.7409 452.046 81.2319C452.046 82.7229 452.246 84.0526 452.647 85.2209C453.059 86.3892 453.665 87.3127 454.466 87.9915C455.278 88.6591 456.28 88.9929 457.47 88.9929Z" fill="black"/>
</svg>
