<svg width="292" height="95" viewBox="0 0 292 95" fill="none" xmlns="http://www.w3.org/2000/svg">
<path d="M261.85 24.27H30.4199C13.9563 24.27 0.609863 37.6164 0.609863 54.08V64.46C0.609863 80.9236 13.9563 94.27 30.4199 94.27H261.85C278.313 94.27 291.66 80.9236 291.66 64.46V54.08C291.66 37.6164 278.313 24.27 261.85 24.27Z" fill="#CCA98B"/>
<path d="M100.48 1.57999C101.43 2.05999 102.15 2.74999 102.66 3.64999C103.16 4.53999 103.42 5.59999 103.42 6.80999C103.42 8.01999 103.17 9.06999 102.66 9.95999C102.16 10.85 101.43 11.53 100.48 12C99.5299 12.47 98.4099 12.71 97.1199 12.71H93.4299V0.859985H97.1199C98.4099 0.859985 99.5299 1.09999 100.48 1.57999ZM100.63 10.21C101.43 9.39999 101.84 8.25999 101.84 6.79999C101.84 5.33999 101.43 4.17999 100.62 3.34999C99.8099 2.51999 98.6499 2.10999 97.1299 2.10999H94.9899V11.43H97.1299C98.6599 11.43 99.8299 11.03 100.63 10.22V10.21Z" fill="#A8A8A8"/>
<path d="M107.15 12.26C106.44 11.86 105.89 11.3 105.48 10.57C105.08 9.83999 104.88 8.98999 104.88 8.02999C104.88 7.06999 105.09 6.23999 105.5 5.50999C105.91 4.77999 106.48 4.21999 107.19 3.82999C107.9 3.43999 108.7 3.23999 109.59 3.23999C110.48 3.23999 111.27 3.43999 111.99 3.82999C112.7 4.21999 113.27 4.77999 113.68 5.49999C114.09 6.21999 114.3 7.06999 114.3 8.02999C114.3 8.98999 114.09 9.83999 113.66 10.57C113.24 11.3 112.66 11.86 111.93 12.26C111.2 12.66 110.4 12.86 109.52 12.86C108.64 12.86 107.86 12.66 107.15 12.26ZM111.08 11.11C111.57 10.85 111.96 10.46 112.26 9.93999C112.56 9.41999 112.71 8.77999 112.71 8.03999C112.71 7.29999 112.56 6.65999 112.27 6.13999C111.98 5.61999 111.59 5.22999 111.11 4.97999C110.63 4.72999 110.12 4.59999 109.56 4.59999C109 4.59999 108.48 4.72999 108 4.97999C107.53 5.22999 107.15 5.61999 106.87 6.13999C106.59 6.65999 106.44 7.29999 106.44 8.03999C106.44 8.77999 106.58 9.43999 106.86 9.95999C107.14 10.48 107.51 10.87 107.97 11.12C108.43 11.37 108.94 11.5 109.5 11.5C110.06 11.5 110.58 11.37 111.06 11.11H111.08Z" fill="#A8A8A8"/>
<path d="M119.28 3.76C119.89 3.41 120.59 3.23 121.37 3.23C122.21 3.23 122.96 3.43 123.63 3.82C124.3 4.22 124.83 4.77999 125.21 5.49C125.6 6.21 125.79 7.05 125.79 8C125.79 8.95 125.6 9.78 125.21 10.52C124.83 11.26 124.29 11.83 123.62 12.24C122.95 12.65 122.19 12.85 121.37 12.85C120.55 12.85 119.86 12.67 119.25 12.32C118.64 11.97 118.19 11.52 117.88 10.98V12.7H116.33V0.119995H117.88V5.12C118.2 4.56999 118.66 4.11 119.27 3.76H119.28ZM123.78 6.18C123.5 5.66 123.11 5.25999 122.63 4.99C122.15 4.72 121.62 4.58 121.04 4.58C120.46 4.58 119.95 4.72 119.47 5C118.99 5.28 118.6 5.68 118.31 6.21C118.02 6.74 117.88 7.35 117.88 8.04C117.88 8.72999 118.02 9.35999 118.31 9.88C118.6 10.41 118.98 10.81 119.47 11.09C119.95 11.37 120.48 11.51 121.04 11.51C121.6 11.51 122.15 11.37 122.63 11.09C123.11 10.81 123.49 10.41 123.78 9.88C124.06 9.35 124.2 8.73 124.2 8.02C124.2 7.31 124.06 6.71 123.78 6.18Z" fill="#A8A8A8"/>
<path d="M130.54 3.66C131.04 3.37 131.66 3.22 132.38 3.22V4.82H131.97C130.24 4.82 129.37 5.76 129.37 7.64V12.71H127.82V3.39H129.37V4.9C129.64 4.37 130.03 3.95 130.53 3.66H130.54Z" fill="#A8A8A8"/>
<path d="M134.17 5.51C134.56 4.79 135.09 4.23 135.76 3.84C136.43 3.44 137.18 3.25 138.01 3.25C138.84 3.25 139.53 3.43 140.13 3.78C140.73 4.13 141.18 4.57 141.47 5.11V3.41H143.03V12.73H141.47V11C141.16 11.54 140.71 12 140.1 12.35C139.49 12.71 138.79 12.89 137.98 12.89C137.17 12.89 136.4 12.69 135.74 12.28C135.08 11.87 134.54 11.3 134.16 10.56C133.78 9.82 133.58 8.98 133.58 8.04C133.58 7.1 133.77 6.25 134.16 5.53L134.17 5.51ZM141.05 6.19C140.77 5.67 140.38 5.27 139.9 4.99C139.42 4.71 138.89 4.57 138.31 4.57C137.73 4.57 137.2 4.71 136.73 4.98C136.25 5.25 135.87 5.65 135.59 6.17C135.31 6.69 135.16 7.3 135.16 8.01C135.16 8.72 135.3 9.34 135.59 9.87C135.87 10.4 136.25 10.8 136.73 11.08C137.21 11.36 137.73 11.5 138.31 11.5C138.89 11.5 139.42 11.36 139.9 11.08C140.38 10.8 140.76 10.4 141.05 9.87C141.33 9.34 141.47 8.73 141.47 8.03C141.47 7.33 141.33 6.72 141.05 6.19Z" fill="#A8A8A8"/>
<path d="M145.66 5.50998C146.05 4.78998 146.58 4.22998 147.25 3.83998C147.92 3.43998 148.68 3.24998 149.52 3.24998C150.25 3.24998 150.92 3.41998 151.54 3.74998C152.16 4.07998 152.64 4.51998 152.97 5.06998V0.139984H154.53V12.72H152.97V10.97C152.66 11.53 152.21 11.98 151.61 12.34C151.01 12.7 150.31 12.88 149.5 12.88C148.69 12.88 147.92 12.68 147.25 12.27C146.58 11.86 146.05 11.29 145.66 10.55C145.28 9.80998 145.08 8.96998 145.08 8.02998C145.08 7.08998 145.27 6.23998 145.66 5.51998V5.50998ZM152.55 6.18998C152.27 5.66998 151.88 5.26998 151.4 4.98998C150.92 4.70998 150.39 4.56998 149.81 4.56998C149.23 4.56998 148.7 4.70998 148.23 4.97998C147.75 5.24998 147.37 5.64998 147.09 6.16998C146.81 6.68998 146.66 7.29998 146.66 8.00998C146.66 8.71998 146.8 9.33998 147.09 9.86998C147.37 10.4 147.75 10.8 148.23 11.08C148.71 11.36 149.23 11.5 149.81 11.5C150.39 11.5 150.92 11.36 151.4 11.08C151.88 10.8 152.26 10.4 152.55 9.86998C152.83 9.33998 152.97 8.72998 152.97 8.02998C152.97 7.32998 152.83 6.71998 152.55 6.18998Z" fill="#A8A8A8"/>
<path d="M165.42 3.38998V12.71H163.87V11.33C163.58 11.81 163.16 12.18 162.64 12.44C162.11 12.71 161.53 12.84 160.9 12.84C160.17 12.84 159.52 12.69 158.94 12.39C158.36 12.09 157.91 11.64 157.57 11.04C157.24 10.44 157.07 9.70998 157.07 8.84998V3.38998H158.6V8.63998C158.6 9.55998 158.83 10.26 159.3 10.76C159.77 11.26 160.4 11.5 161.2 11.5C162 11.5 162.68 11.25 163.15 10.74C163.63 10.23 163.86 9.48998 163.86 8.50998V3.38998H165.41H165.42Z" fill="#A8A8A8"/>
<path d="M170.75 3.66C171.25 3.37 171.87 3.22 172.59 3.22V4.82H172.18C170.45 4.82 169.58 5.76 169.58 7.64V12.71H168.03V3.39H169.58V4.9C169.85 4.37 170.24 3.95 170.74 3.66H170.75Z" fill="#A8A8A8"/>
<path d="M174.37 5.51C174.76 4.79 175.29 4.23 175.96 3.84C176.63 3.44 177.38 3.25 178.21 3.25C179.04 3.25 179.73 3.43 180.33 3.78C180.93 4.13 181.38 4.57 181.67 5.11V3.41H183.23V12.73H181.67V11C181.36 11.54 180.91 12 180.3 12.35C179.69 12.71 178.99 12.89 178.18 12.89C177.37 12.89 176.6 12.69 175.94 12.28C175.28 11.87 174.74 11.3 174.36 10.56C173.98 9.82 173.78 8.98 173.78 8.04C173.78 7.1 173.97 6.25 174.36 5.53L174.37 5.51ZM181.26 6.19C180.98 5.67 180.59 5.27 180.11 4.99C179.63 4.71 179.1 4.57 178.52 4.57C177.94 4.57 177.41 4.71 176.94 4.98C176.46 5.25 176.08 5.65 175.8 6.17C175.52 6.69 175.37 7.3 175.37 8.01C175.37 8.72 175.51 9.34 175.8 9.87C176.08 10.4 176.46 10.8 176.94 11.08C177.42 11.36 177.94 11.5 178.52 11.5C179.1 11.5 179.63 11.36 180.11 11.08C180.59 10.8 180.97 10.4 181.26 9.87C181.54 9.34 181.68 8.73 181.68 8.03C181.68 7.33 181.54 6.72 181.26 6.19Z" fill="#A8A8A8"/>
<path d="M187.24 12.49C186.67 12.25 186.23 11.91 185.9 11.47C185.57 11.03 185.39 10.53 185.36 9.96999H186.96C187 10.43 187.22 10.81 187.61 11.11C188 11.4 188.51 11.55 189.15 11.55C189.74 11.55 190.2 11.42 190.54 11.16C190.88 10.9 191.05 10.57 191.05 10.17C191.05 9.76999 190.87 9.45999 190.51 9.25999C190.15 9.05999 189.59 8.86999 188.83 8.66999C188.14 8.48999 187.58 8.29999 187.14 8.11999C186.7 7.92999 186.33 7.65999 186.02 7.28999C185.71 6.91999 185.55 6.43999 185.55 5.83999C185.55 5.35999 185.69 4.92999 185.97 4.52999C186.25 4.12999 186.66 3.81999 187.18 3.58999C187.7 3.35999 188.3 3.23999 188.97 3.23999C190 3.23999 190.83 3.49999 191.47 4.01999C192.1 4.53999 192.44 5.25999 192.49 6.15999H190.94C190.91 5.66999 190.71 5.27999 190.35 4.98999C189.99 4.69999 189.51 4.54999 188.91 4.54999C188.36 4.54999 187.91 4.66999 187.58 4.90999C187.25 5.14999 187.09 5.45999 187.09 5.83999C187.09 6.14999 187.19 6.39999 187.39 6.59999C187.59 6.79999 187.84 6.95999 188.14 7.07999C188.44 7.19999 188.86 7.32999 189.39 7.47999C190.06 7.65999 190.6 7.83999 191.02 8.01999C191.44 8.19999 191.8 8.45999 192.1 8.80999C192.4 9.15999 192.56 9.61999 192.57 10.19C192.57 10.7 192.43 11.16 192.15 11.57C191.87 11.98 191.47 12.3 190.95 12.53C190.43 12.76 189.84 12.88 189.17 12.88C188.46 12.88 187.82 12.76 187.25 12.51L187.24 12.49Z" fill="#A8A8A8"/>
<path d="M35.7301 52.4C36.9601 50.23 38.6301 48.53 40.7501 47.3C42.8701 46.07 45.2201 45.46 47.8101 45.46C50.8501 45.46 53.5001 46.19 55.7701 47.66C58.0401 49.13 59.6901 51.21 60.7301 53.9H56.3701C55.6001 52.22 54.4802 50.93 53.0302 50.02C51.5802 49.11 49.8401 48.66 47.8101 48.66C45.7801 48.66 44.1201 49.11 42.5701 50.02C41.0201 50.93 39.8101 52.21 38.9301 53.88C38.0501 55.55 37.6101 57.5 37.6101 59.74C37.6101 61.98 38.0501 63.89 38.9301 65.56C39.8101 67.23 41.0201 68.51 42.5701 69.42C44.1201 70.33 45.8601 70.78 47.8101 70.78C49.7601 70.78 51.5802 70.33 53.0302 69.44C54.4802 68.55 55.6001 67.26 56.3701 65.58H60.7301C59.6901 68.25 58.0401 70.31 55.7701 71.76C53.5001 73.21 50.8501 73.94 47.8101 73.94C45.2201 73.94 42.8701 73.33 40.7501 72.12C38.6301 70.91 36.9601 69.22 35.7301 67.06C34.5001 64.9 33.8901 62.46 33.8901 59.74C33.8901 57.02 34.5001 54.57 35.7301 52.4Z" fill="white"/>
<path d="M82.6101 67.5H70.4501L68.2101 73.7H64.3701L74.4501 45.98H78.6501L88.6901 73.7H84.8501L82.6101 67.5ZM81.5701 64.54L76.5302 50.46L71.4901 64.54H81.5701Z" fill="white"/>
<path d="M93.57 52.4C94.8 50.23 96.47 48.53 98.59 47.3C100.71 46.07 103.06 45.46 105.65 45.46C108.69 45.46 111.34 46.19 113.61 47.66C115.88 49.13 117.53 51.21 118.57 53.9H114.21C113.44 52.22 112.32 50.93 110.87 50.02C109.42 49.11 107.68 48.66 105.65 48.66C103.62 48.66 101.96 49.11 100.41 50.02C98.86 50.93 97.65 52.21 96.77 53.88C95.89 55.55 95.45 57.5 95.45 59.74C95.45 61.98 95.89 63.89 96.77 65.56C97.65 67.23 98.86 68.51 100.41 69.42C101.96 70.33 103.7 70.78 105.65 70.78C107.6 70.78 109.42 70.33 110.87 69.44C112.32 68.55 113.44 67.26 114.21 65.58H118.57C117.53 68.25 115.88 70.31 113.61 71.76C111.34 73.21 108.69 73.94 105.65 73.94C103.06 73.94 100.71 73.33 98.59 72.12C96.47 70.91 94.8 69.22 93.57 67.06C92.34 64.9 91.73 62.46 91.73 59.74C91.73 57.02 92.34 54.57 93.57 52.4Z" fill="white"/>
<path d="M145.45 45.82V73.7H141.81V61.06H127.61V73.7H123.97V45.82H127.61V58.06H141.81V45.82H145.45Z" fill="white"/>
<path d="M157.21 72.16C155.08 70.95 153.39 69.25 152.15 67.08C150.91 64.91 150.29 62.46 150.29 59.74C150.29 57.02 150.91 54.57 152.15 52.4C153.39 50.23 155.08 48.53 157.21 47.32C159.34 46.11 161.7 45.5 164.29 45.5C166.88 45.5 169.28 46.11 171.41 47.32C173.54 48.53 175.22 50.22 176.45 52.38C177.68 54.54 178.29 56.99 178.29 59.74C178.29 62.49 177.68 64.94 176.45 67.1C175.22 69.26 173.54 70.95 171.41 72.16C169.28 73.37 166.9 73.98 164.29 73.98C161.68 73.98 159.34 73.37 157.21 72.16ZM169.55 69.46C171.11 68.55 172.34 67.26 173.23 65.58C174.12 63.9 174.57 61.95 174.57 59.74C174.57 57.53 174.12 55.55 173.23 53.88C172.34 52.21 171.12 50.93 169.57 50.02C168.02 49.11 166.26 48.66 164.29 48.66C162.32 48.66 160.56 49.11 159.01 50.02C157.46 50.93 156.24 52.21 155.35 53.88C154.46 55.55 154.01 57.5 154.01 59.74C154.01 61.98 154.46 63.9 155.35 65.58C156.24 67.26 157.47 68.55 159.03 69.46C160.59 70.37 162.34 70.82 164.29 70.82C166.24 70.82 167.99 70.37 169.55 69.46Z" fill="white"/>
<path d="M197.77 73.7L191.13 62.3H186.73V73.7H183.09V45.82H192.09C194.2 45.82 195.98 46.18 197.43 46.9C198.88 47.62 199.97 48.59 200.69 49.82C201.41 51.05 201.77 52.45 201.77 54.02C201.77 55.94 201.22 57.63 200.11 59.1C199 60.57 197.34 61.54 195.13 62.02L202.13 73.7H197.77ZM186.73 59.38H192.09C194.06 59.38 195.54 58.89 196.53 57.92C197.52 56.95 198.01 55.65 198.01 54.02C198.01 52.39 197.52 51.09 196.55 50.18C195.58 49.27 194.09 48.82 192.09 48.82H186.73V59.38Z" fill="white"/>
<path d="M222.09 73.7L215.45 62.3H211.05V73.7H207.41V45.82H216.41C218.52 45.82 220.3 46.18 221.75 46.9C223.2 47.62 224.29 48.59 225.01 49.82C225.73 51.05 226.09 52.45 226.09 54.02C226.09 55.94 225.54 57.63 224.43 59.1C223.32 60.57 221.66 61.54 219.45 62.02L226.45 73.7H222.09ZM211.05 59.38H216.41C218.38 59.38 219.86 58.89 220.85 57.92C221.84 56.95 222.33 55.65 222.33 54.02C222.33 52.39 221.84 51.09 220.87 50.18C219.9 49.27 218.41 48.82 216.41 48.82H211.05V59.38Z" fill="white"/>
<path d="M237.29 72.16C235.16 70.95 233.47 69.25 232.23 67.08C230.99 64.91 230.37 62.46 230.37 59.74C230.37 57.02 230.99 54.57 232.23 52.4C233.47 50.23 235.16 48.53 237.29 47.32C239.42 46.11 241.78 45.5 244.37 45.5C246.96 45.5 249.36 46.11 251.49 47.32C253.62 48.53 255.3 50.22 256.53 52.38C257.76 54.54 258.37 56.99 258.37 59.74C258.37 62.49 257.76 64.94 256.53 67.1C255.3 69.26 253.62 70.95 251.49 72.16C249.36 73.37 246.98 73.98 244.37 73.98C241.76 73.98 239.42 73.37 237.29 72.16ZM249.63 69.46C251.19 68.55 252.42 67.26 253.31 65.58C254.2 63.9 254.65 61.95 254.65 59.74C254.65 57.53 254.2 55.55 253.31 53.88C252.42 52.21 251.2 50.93 249.65 50.02C248.1 49.11 246.34 48.66 244.37 48.66C242.4 48.66 240.64 49.11 239.09 50.02C237.54 50.93 236.32 52.21 235.43 53.88C234.54 55.55 234.09 57.5 234.09 59.74C234.09 61.98 234.54 63.9 235.43 65.58C236.32 67.26 237.55 68.55 239.11 69.46C240.67 70.37 242.42 70.82 244.37 70.82C246.32 70.82 248.07 70.37 249.63 69.46Z" fill="white"/>
</svg>
