<svg width="601" height="578" viewBox="0 0 601 578" fill="none" xmlns="http://www.w3.org/2000/svg">
<path d="M554.02 58.95H70.4401C44.9964 58.95 24.3701 79.5762 24.3701 105.02V531.2C24.3701 556.644 44.9964 577.27 70.4401 577.27H554.02C579.464 577.27 600.09 556.644 600.09 531.2V105.02C600.09 79.5762 579.464 58.95 554.02 58.95Z" fill="#D3D3D3"/>
<path d="M549.4 49.27H65.82C40.3762 49.27 19.75 69.8962 19.75 95.34V521.52C19.75 546.964 40.3762 567.59 65.82 567.59H549.4C574.844 567.59 595.47 546.964 595.47 521.52V95.34C595.47 69.8962 574.844 49.27 549.4 49.27Z" fill="#FCC8A1"/>
<path d="M43.73 89.27C66.7603 89.27 85.43 70.5689 85.43 47.5C85.43 24.4311 66.7603 5.73 43.73 5.73C20.6998 5.73 2.03003 24.4311 2.03003 47.5C2.03003 70.5689 20.6998 89.27 43.73 89.27Z" fill="#CCA98B" stroke="#F2F2F2"/>
<path d="M43.69 85.67C66.7203 85.67 85.39 66.9689 85.39 43.9C85.39 20.8311 66.7203 2.13 43.69 2.13C20.6597 2.13 1.98999 20.8311 1.98999 43.9C1.98999 66.9689 20.6597 85.67 43.69 85.67Z" fill="white" stroke="#F2F2F2" stroke-width="3"/>
<path d="M27.1399 29.86C28.9399 28.28 31.3799 27.49 34.4699 27.49C36.5199 27.49 38.2699 27.84 39.7299 28.55C41.1899 29.26 42.2899 30.23 43.0399 31.46C43.7899 32.69 44.1699 34.07 44.1699 35.59C44.1699 37.39 43.7199 38.86 42.8199 39.99C41.9199 41.12 40.8699 41.89 39.6699 42.3V42.46C41.2199 42.98 42.4499 43.84 43.3499 45.04C44.2499 46.24 44.6999 47.78 44.6999 49.66C44.6999 51.35 44.3099 52.85 43.5299 54.14C42.7499 55.43 41.6199 56.45 40.1299 57.19C38.6399 57.93 36.8799 58.29 34.8299 58.29C31.5599 58.29 28.9399 57.49 26.9899 55.88C25.0399 54.27 24.0099 51.84 23.8999 48.6H30.6899C30.7199 49.8 31.0599 50.75 31.7099 51.44C32.3699 52.14 33.3199 52.48 34.5799 52.48C35.6399 52.48 36.4699 52.17 37.0599 51.56C37.6499 50.95 37.9399 50.13 37.9399 49.12C37.9399 47.81 37.5199 46.86 36.6899 46.28C35.8599 45.69 34.5299 45.4 32.6999 45.4H31.3899V39.71H32.6999C34.0899 39.71 35.2199 39.47 36.0799 38.99C36.9399 38.51 37.3699 37.66 37.3699 36.43C37.3699 35.45 37.0999 34.68 36.5499 34.14C35.9999 33.6 35.2499 33.32 34.2999 33.32C33.2599 33.32 32.4899 33.63 31.9899 34.26C31.4799 34.89 31.1899 35.67 31.1099 36.59H24.2799C24.3899 33.67 25.3399 31.42 27.1499 29.84L27.1399 29.86Z" fill="#CCA98B"/>
<path d="M49.01 32.58C49.71 31.48 50.69 30.61 51.96 29.98C53.23 29.35 54.68 29.04 56.32 29.04C57.96 29.04 59.41 29.35 60.68 29.98C61.95 30.61 62.93 31.47 63.63 32.58C64.33 33.69 64.67 34.96 64.67 36.41C64.67 37.86 64.32 39.14 63.61 40.26C62.9 41.38 61.91 42.26 60.64 42.9C59.37 43.54 57.92 43.86 56.28 43.86C54.64 43.86 53.2 43.54 51.94 42.9C50.68 42.26 49.71 41.38 49.01 40.26C48.31 39.14 47.97 37.86 47.97 36.41C47.97 34.96 48.32 33.69 49.01 32.58ZM58.4 33.95C57.83 33.38 57.12 33.09 56.27 33.09C55.42 33.09 54.76 33.38 54.2 33.95C53.64 34.52 53.36 35.36 53.36 36.45C53.36 37.54 53.63 38.33 54.18 38.91C54.73 39.49 55.42 39.77 56.27 39.77C57.12 39.77 57.82 39.48 58.4 38.89C58.97 38.3 59.26 37.49 59.26 36.46C59.26 35.37 58.97 34.54 58.4 33.96V33.95Z" fill="#CCA98B"/>
<path d="M108.29 206.27L305.83 417.66L505 206.27H108.29Z" fill="#CCCCCC"/>
<path d="M110.29 199.27L307.83 410.66L507 199.27H110.29Z" fill="white" stroke="#E0E0E0" stroke-miterlimit="10"/>
<path d="M437.95 219.03C437.95 219.03 414.07 264.03 364.02 250.49" stroke="#7A6154" stroke-width="2"/>
<path d="M352.6 246.54C358.66 246.35 366.48 245.19 371.83 242.97L365.54 250.89L365.77 261C362.84 256 357.31 250.34 352.6 246.54Z" fill="#7A6154"/>
<path d="M147.51 219.03C147.51 219.03 171.39 264.03 221.44 250.49" stroke="#7A6154" stroke-width="2"/>
<path d="M232.85 246.54C228.14 250.35 222.6 256 219.68 261L219.91 250.89L213.62 242.97C218.97 245.19 226.8 246.35 232.85 246.54Z" fill="#7A6154"/>
<path d="M357.45 199.27L448.04 271.62" stroke="#A3826F" stroke-width="2"/>
<path d="M253.01 199.27L162.41 271.62" stroke="#A3826F" stroke-width="2"/>
<path d="M105.38 35.45C104.59 36.22 103.38 36.6 101.75 36.6H99.07V42.42H97.25V28.48H101.75C103.32 28.48 104.52 28.86 105.34 29.62C106.16 30.38 106.57 31.36 106.57 32.56C106.57 33.76 106.17 34.68 105.38 35.45ZM103.99 34.44C104.47 34 104.71 33.37 104.71 32.56C104.71 30.84 103.72 29.98 101.75 29.98H99.07V35.1H101.75C102.76 35.1 103.51 34.88 103.99 34.44Z" fill="#CCA98B"/>
<path d="M108.83 33.95C109.28 33.1 109.91 32.45 110.7 31.98C111.49 31.51 112.38 31.28 113.35 31.28C114.32 31.28 115.14 31.49 115.85 31.9C116.56 32.31 117.08 32.83 117.43 33.46V31.46H119.27V42.42H117.43V40.38C117.07 41.02 116.53 41.55 115.82 41.97C115.11 42.39 114.28 42.6 113.33 42.6C112.38 42.6 111.48 42.36 110.69 41.88C109.9 41.4 109.28 40.73 108.83 39.86C108.38 38.99 108.15 38.01 108.15 36.9C108.15 35.79 108.38 34.8 108.83 33.95ZM116.93 34.76C116.6 34.15 116.15 33.68 115.58 33.35C115.01 33.02 114.39 32.86 113.71 32.86C113.03 32.86 112.41 33.02 111.85 33.34C111.29 33.66 110.84 34.13 110.51 34.74C110.18 35.35 110.01 36.07 110.01 36.9C110.01 37.73 110.18 38.47 110.51 39.09C110.84 39.71 111.29 40.18 111.85 40.51C112.41 40.84 113.03 41 113.71 41C114.39 41 115.01 40.84 115.58 40.51C116.15 40.18 116.6 39.71 116.93 39.09C117.26 38.47 117.43 37.75 117.43 36.92C117.43 36.09 117.26 35.37 116.93 34.76Z" fill="#CCA98B"/>
<path d="M123.97 42.17C123.3 41.88 122.78 41.48 122.39 40.97C122 40.46 121.79 39.87 121.75 39.2H123.63C123.68 39.75 123.94 40.19 124.4 40.54C124.86 40.89 125.46 41.06 126.21 41.06C126.9 41.06 127.45 40.91 127.85 40.6C128.25 40.29 128.45 39.91 128.45 39.44C128.45 38.97 128.24 38.6 127.81 38.37C127.38 38.14 126.72 37.91 125.83 37.68C125.02 37.47 124.35 37.25 123.84 37.03C123.33 36.81 122.89 36.48 122.52 36.05C122.15 35.62 121.97 35.05 121.97 34.34C121.97 33.78 122.14 33.27 122.47 32.8C122.8 32.33 123.28 31.96 123.89 31.69C124.5 31.42 125.2 31.28 125.99 31.28C127.2 31.28 128.18 31.59 128.93 32.2C129.68 32.81 130.08 33.65 130.13 34.72H128.31C128.27 34.15 128.04 33.69 127.62 33.34C127.2 32.99 126.64 32.82 125.93 32.82C125.28 32.82 124.76 32.96 124.37 33.24C123.98 33.52 123.79 33.89 123.79 34.34C123.79 34.7 123.91 35 124.14 35.23C124.37 35.46 124.67 35.65 125.02 35.79C125.37 35.93 125.86 36.09 126.49 36.26C127.28 36.47 127.92 36.68 128.41 36.89C128.9 37.1 129.33 37.41 129.68 37.82C130.03 38.23 130.22 38.77 130.23 39.44C130.23 40.04 130.06 40.58 129.73 41.06C129.4 41.54 128.93 41.92 128.32 42.19C127.71 42.46 127.02 42.6 126.23 42.6C125.39 42.6 124.64 42.46 123.97 42.17Z" fill="#CCA98B"/>
<path d="M134.41 42.17C133.74 41.88 133.22 41.48 132.83 40.97C132.44 40.46 132.23 39.87 132.19 39.2H134.07C134.12 39.75 134.38 40.19 134.84 40.54C135.3 40.89 135.9 41.06 136.65 41.06C137.34 41.06 137.89 40.91 138.29 40.6C138.69 40.29 138.89 39.91 138.89 39.44C138.89 38.97 138.68 38.6 138.25 38.37C137.82 38.14 137.16 37.91 136.27 37.68C135.46 37.47 134.79 37.25 134.28 37.03C133.77 36.81 133.33 36.48 132.96 36.05C132.59 35.62 132.41 35.05 132.41 34.34C132.41 33.78 132.58 33.27 132.91 32.8C133.24 32.33 133.72 31.96 134.33 31.69C134.94 31.42 135.64 31.28 136.43 31.28C137.64 31.28 138.62 31.59 139.37 32.2C140.12 32.81 140.52 33.65 140.57 34.72H138.75C138.71 34.15 138.48 33.69 138.06 33.34C137.64 32.99 137.08 32.82 136.37 32.82C135.72 32.82 135.2 32.96 134.81 33.24C134.42 33.52 134.23 33.89 134.23 34.34C134.23 34.7 134.35 35 134.58 35.23C134.81 35.46 135.11 35.65 135.46 35.79C135.81 35.93 136.3 36.09 136.93 36.26C137.72 36.47 138.36 36.68 138.85 36.89C139.34 37.1 139.77 37.41 140.12 37.82C140.47 38.23 140.66 38.77 140.67 39.44C140.67 40.04 140.5 40.58 140.17 41.06C139.84 41.54 139.37 41.92 138.76 42.19C138.15 42.46 137.46 42.6 136.67 42.6C135.83 42.6 135.08 42.46 134.41 42.17Z" fill="#CCA98B"/>
<path d="M145.22 41.9C144.39 41.43 143.73 40.77 143.26 39.91C142.79 39.05 142.55 38.05 142.55 36.92C142.55 35.79 142.79 34.81 143.28 33.95C143.77 33.09 144.43 32.43 145.27 31.97C146.11 31.51 147.05 31.28 148.09 31.28C149.13 31.28 150.07 31.51 150.91 31.97C151.75 32.43 152.41 33.09 152.9 33.94C153.39 34.79 153.63 35.79 153.63 36.92C153.63 38.05 153.38 39.05 152.88 39.91C152.38 40.77 151.7 41.43 150.85 41.9C150 42.37 149.05 42.6 148.01 42.6C146.97 42.6 146.05 42.37 145.22 41.9ZM149.85 40.54C150.42 40.23 150.89 39.77 151.24 39.16C151.59 38.55 151.77 37.8 151.77 36.92C151.77 36.04 151.6 35.29 151.25 34.68C150.9 34.07 150.45 33.61 149.89 33.31C149.33 33.01 148.72 32.86 148.07 32.86C147.42 32.86 146.79 33.01 146.24 33.31C145.69 33.61 145.24 34.07 144.91 34.68C144.58 35.29 144.41 36.04 144.41 36.92C144.41 37.8 144.57 38.57 144.9 39.18C145.23 39.79 145.66 40.25 146.21 40.55C146.76 40.85 147.36 41 148.01 41C148.66 41 149.28 40.85 149.85 40.54Z" fill="#CCA98B"/>
<path d="M170.79 498.12C171.85 498.66 172.66 499.43 173.22 500.43C173.78 501.43 174.07 502.61 174.07 503.96C174.07 505.31 173.79 506.49 173.22 507.48C172.66 508.47 171.84 509.23 170.79 509.76C169.73 510.29 168.48 510.55 167.04 510.55H162.92V497.31H167.04C168.49 497.31 169.74 497.58 170.79 498.12ZM170.95 507.78C171.85 506.87 172.3 505.6 172.3 503.97C172.3 502.34 171.85 501.04 170.94 500.11C170.04 499.19 168.73 498.72 167.04 498.72H164.65V509.13H167.04C168.75 509.13 170.06 508.68 170.95 507.77V507.78Z" fill="#424242"/>
<path d="M178.24 510.07C177.45 509.63 176.83 509 176.38 508.18C175.93 507.36 175.71 506.42 175.71 505.34C175.71 504.26 175.94 503.34 176.4 502.52C176.86 501.7 177.49 501.08 178.29 500.64C179.09 500.2 179.98 499.98 180.97 499.98C181.96 499.98 182.85 500.2 183.65 500.64C184.45 501.08 185.08 501.7 185.54 502.51C186 503.32 186.23 504.26 186.23 505.34C186.23 506.42 185.99 507.36 185.52 508.18C185.04 509 184.4 509.63 183.59 510.07C182.78 510.51 181.88 510.74 180.89 510.74C179.9 510.74 179.03 510.52 178.24 510.07ZM182.63 508.77C183.17 508.48 183.61 508.04 183.95 507.46C184.29 506.88 184.45 506.17 184.45 505.33C184.45 504.49 184.28 503.78 183.96 503.2C183.63 502.62 183.2 502.18 182.67 501.9C182.14 501.61 181.56 501.47 180.94 501.47C180.32 501.47 179.73 501.61 179.2 501.9C178.67 502.19 178.25 502.62 177.94 503.2C177.62 503.78 177.47 504.49 177.47 505.33C177.47 506.17 177.62 506.89 177.93 507.48C178.24 508.06 178.65 508.5 179.17 508.78C179.69 509.06 180.26 509.21 180.88 509.21C181.5 509.21 182.08 509.06 182.63 508.77Z" fill="#424242"/>
<path d="M191.79 500.57C192.47 500.18 193.25 499.98 194.13 499.98C195.07 499.98 195.91 500.2 196.66 500.65C197.41 501.1 198 501.72 198.43 502.52C198.86 503.32 199.08 504.26 199.08 505.32C199.08 506.38 198.86 507.31 198.43 508.13C198 508.95 197.41 509.59 196.65 510.05C195.89 510.51 195.06 510.73 194.13 510.73C193.2 510.73 192.44 510.53 191.76 510.14C191.08 509.75 190.57 509.25 190.23 508.64V510.56H188.5V496.5H190.23V502.09C190.59 501.47 191.11 500.96 191.79 500.57ZM196.83 503.26C196.51 502.68 196.09 502.23 195.55 501.93C195.01 501.63 194.42 501.47 193.77 501.47C193.12 501.47 192.55 501.63 192.01 501.94C191.47 502.25 191.04 502.7 190.72 503.29C190.4 503.88 190.24 504.56 190.24 505.33C190.24 506.1 190.4 506.8 190.72 507.39C191.04 507.98 191.47 508.43 192.01 508.74C192.55 509.05 193.13 509.21 193.77 509.21C194.41 509.21 195.01 509.05 195.55 508.74C196.09 508.43 196.51 507.98 196.83 507.39C197.15 506.8 197.3 506.11 197.3 505.31C197.3 504.51 197.14 503.84 196.83 503.26Z" fill="#424242"/>
<path d="M204.38 500.45C204.94 500.12 205.63 499.96 206.44 499.96V501.75H205.98C204.04 501.75 203.07 502.8 203.07 504.9V510.56H201.34V500.15H203.07V501.84C203.37 501.24 203.81 500.78 204.37 500.45H204.38Z" fill="#424242"/>
<path d="M217.88 506H209.56C209.62 507.03 209.98 507.83 210.61 508.4C211.25 508.98 212.03 509.26 212.94 509.26C213.69 509.26 214.31 509.09 214.81 508.74C215.31 508.39 215.66 507.93 215.86 507.34H217.72C217.44 508.34 216.88 509.15 216.05 509.78C215.22 510.41 214.17 510.72 212.93 510.72C211.94 510.72 211.06 510.5 210.28 510.05C209.5 509.6 208.89 508.98 208.45 508.16C208.01 507.34 207.79 506.4 207.79 505.32C207.79 504.24 208 503.3 208.43 502.49C208.86 501.68 209.47 501.06 210.24 500.62C211.02 500.18 211.92 499.96 212.93 499.96C213.94 499.96 214.79 500.18 215.55 500.61C216.31 501.04 216.9 501.63 217.31 502.39C217.72 503.15 217.93 504 217.93 504.94C217.93 505.27 217.91 505.62 217.87 505.99L217.88 506ZM215.71 502.89C215.42 502.41 215.02 502.05 214.52 501.81C214.02 501.56 213.47 501.44 212.86 501.44C211.98 501.44 211.24 501.72 210.63 502.28C210.01 502.84 209.66 503.61 209.58 504.6H216.15C216.15 503.94 216 503.37 215.71 502.9V502.89Z" fill="#424242"/>
<path d="M225.29 502.51C225.72 501.71 226.31 501.08 227.07 500.64C227.83 500.2 228.66 499.97 229.59 499.97C230.52 499.97 231.3 500.17 231.97 500.56C232.64 500.95 233.14 501.45 233.47 502.04V500.14H235.22V510.55H233.47V508.61C233.13 509.22 232.62 509.72 231.94 510.12C231.26 510.52 230.47 510.72 229.57 510.72C228.67 510.72 227.81 510.49 227.06 510.04C226.31 509.58 225.72 508.94 225.29 508.12C224.86 507.3 224.64 506.36 224.64 505.31C224.64 504.26 224.85 503.31 225.29 502.51ZM232.98 503.28C232.66 502.7 232.24 502.25 231.7 501.94C231.16 501.63 230.57 501.47 229.92 501.47C229.27 501.47 228.69 501.62 228.15 501.93C227.62 502.23 227.19 502.68 226.88 503.26C226.57 503.84 226.41 504.53 226.41 505.31C226.41 506.09 226.57 506.8 226.88 507.39C227.2 507.98 227.62 508.43 228.15 508.74C228.68 509.05 229.27 509.21 229.92 509.21C230.57 509.21 231.16 509.05 231.7 508.74C232.24 508.43 232.66 507.98 232.98 507.39C233.3 506.8 233.45 506.11 233.45 505.33C233.45 504.55 233.29 503.86 232.98 503.28Z" fill="#424242"/>
<path d="M239.67 510.32C239.04 510.05 238.54 509.67 238.17 509.18C237.8 508.69 237.6 508.13 237.56 507.5H239.35C239.4 508.02 239.64 508.44 240.08 508.77C240.52 509.1 241.09 509.26 241.8 509.26C242.46 509.26 242.98 509.11 243.36 508.82C243.74 508.53 243.93 508.16 243.93 507.72C243.93 507.28 243.73 506.93 243.32 506.7C242.91 506.48 242.29 506.26 241.44 506.04C240.67 505.84 240.04 505.63 239.55 505.42C239.06 505.21 238.64 504.9 238.29 504.49C237.94 504.08 237.77 503.54 237.77 502.87C237.77 502.34 237.93 501.85 238.24 501.41C238.55 500.97 239.01 500.62 239.59 500.36C240.17 500.1 240.84 499.97 241.58 499.97C242.73 499.97 243.66 500.26 244.37 500.84C245.08 501.42 245.46 502.22 245.51 503.23H243.78C243.74 502.69 243.52 502.25 243.12 501.92C242.72 501.59 242.19 501.43 241.51 501.43C240.89 501.43 240.39 501.56 240.03 501.83C239.66 502.1 239.48 502.44 239.48 502.87C239.48 503.21 239.59 503.49 239.81 503.72C240.03 503.94 240.31 504.12 240.65 504.25C240.99 504.38 241.45 504.53 242.05 504.7C242.8 504.9 243.4 505.1 243.87 505.3C244.34 505.5 244.74 505.79 245.08 506.18C245.42 506.57 245.59 507.09 245.6 507.72C245.6 508.29 245.44 508.8 245.12 509.26C244.8 509.72 244.36 510.07 243.78 510.33C243.2 510.59 242.54 510.72 241.79 510.72C240.99 510.72 240.28 510.58 239.64 510.31L239.67 510.32Z" fill="#424242"/>
<path d="M256.38 500.58C257.06 500.18 257.84 499.98 258.75 499.98C259.66 499.98 260.51 500.2 261.27 500.65C262.03 501.1 262.62 501.72 263.05 502.52C263.48 503.32 263.7 504.26 263.7 505.32C263.7 506.38 263.49 507.31 263.05 508.13C262.62 508.95 262.03 509.59 261.27 510.05C260.51 510.51 259.68 510.73 258.75 510.73C257.82 510.73 257.08 510.53 256.4 510.13C255.72 509.73 255.21 509.23 254.85 508.64V515.5H253.12V500.15H254.85V502.07C255.19 501.48 255.7 500.98 256.38 500.58ZM261.45 503.26C261.13 502.68 260.71 502.23 260.17 501.93C259.63 501.63 259.04 501.47 258.39 501.47C257.74 501.47 257.17 501.63 256.63 501.94C256.09 502.25 255.66 502.7 255.34 503.29C255.02 503.88 254.86 504.56 254.86 505.33C254.86 506.1 255.02 506.8 255.34 507.39C255.66 507.98 256.09 508.43 256.63 508.74C257.17 509.05 257.75 509.21 258.39 509.21C259.03 509.21 259.63 509.05 260.17 508.74C260.71 508.43 261.13 507.98 261.45 507.39C261.77 506.8 261.92 506.11 261.92 505.31C261.92 504.51 261.76 503.84 261.45 503.26Z" fill="#424242"/>
<path d="M267.86 510.07C267.07 509.63 266.45 509 266 508.18C265.55 507.36 265.33 506.42 265.33 505.34C265.33 504.26 265.56 503.34 266.02 502.52C266.48 501.7 267.11 501.08 267.91 500.64C268.71 500.2 269.6 499.98 270.59 499.98C271.58 499.98 272.47 500.2 273.27 500.64C274.07 501.08 274.7 501.7 275.16 502.51C275.62 503.32 275.85 504.26 275.85 505.34C275.85 506.42 275.61 507.36 275.14 508.18C274.67 509 274.02 509.63 273.21 510.07C272.4 510.51 271.5 510.74 270.51 510.74C269.52 510.74 268.65 510.52 267.86 510.07ZM272.26 508.77C272.8 508.48 273.24 508.04 273.58 507.46C273.92 506.88 274.08 506.17 274.08 505.33C274.08 504.49 273.92 503.78 273.59 503.2C273.26 502.62 272.83 502.18 272.3 501.9C271.77 501.61 271.19 501.47 270.57 501.47C269.95 501.47 269.36 501.61 268.83 501.9C268.3 502.19 267.88 502.62 267.57 503.2C267.25 503.78 267.1 504.49 267.1 505.33C267.1 506.17 267.26 506.89 267.57 507.48C267.88 508.06 268.29 508.5 268.81 508.78C269.33 509.06 269.9 509.21 270.52 509.21C271.14 509.21 271.72 509.06 272.27 508.77H272.26Z" fill="#424242"/>
<path d="M286.28 501.11C287.07 501.88 287.46 502.98 287.46 504.43V510.57H285.75V504.68C285.75 503.64 285.49 502.85 284.97 502.3C284.45 501.75 283.74 501.47 282.84 501.47C281.94 501.47 281.2 501.75 280.66 502.32C280.12 502.89 279.85 503.72 279.85 504.81V510.57H278.12V500.16H279.85V501.64C280.19 501.11 280.66 500.7 281.25 500.4C281.84 500.11 282.49 499.96 283.2 499.96C284.47 499.96 285.49 500.34 286.28 501.11Z" fill="#424242"/>
<path d="M292.4 501.57V507.71C292.4 508.22 292.51 508.57 292.72 508.78C292.94 508.99 293.31 509.09 293.84 509.09H295.11V510.55H293.55C292.59 510.55 291.86 510.33 291.38 509.88C290.9 509.44 290.66 508.71 290.66 507.7V501.56H289.31V500.14H290.66V497.52H292.39V500.14H295.11V501.56H292.39L292.4 501.57Z" fill="#424242"/>
<path d="M297.2 502.51C297.63 501.71 298.22 501.08 298.98 500.64C299.74 500.2 300.57 499.97 301.5 499.97C302.43 499.97 303.2 500.17 303.88 500.56C304.56 500.95 305.05 501.45 305.38 502.04V500.14H307.13V510.55H305.38V508.61C305.04 509.22 304.53 509.72 303.85 510.12C303.17 510.52 302.39 510.72 301.48 510.72C300.57 510.72 299.72 510.49 298.97 510.04C298.22 509.59 297.63 508.94 297.2 508.12C296.77 507.3 296.56 506.36 296.56 505.31C296.56 504.26 296.77 503.31 297.2 502.51ZM304.9 503.28C304.58 502.7 304.16 502.25 303.62 501.94C303.08 501.63 302.49 501.47 301.84 501.47C301.19 501.47 300.61 501.62 300.07 501.93C299.54 502.23 299.11 502.68 298.8 503.26C298.49 503.84 298.33 504.53 298.33 505.31C298.33 506.09 298.49 506.8 298.8 507.39C299.12 507.98 299.54 508.43 300.07 508.74C300.6 509.05 301.19 509.21 301.84 509.21C302.49 509.21 303.08 509.05 303.62 508.74C304.16 508.43 304.58 507.98 304.9 507.39C305.22 506.8 305.37 506.11 305.37 505.33C305.37 504.55 305.21 503.86 304.9 503.28Z" fill="#424242"/>
<path d="M311.59 510.32C310.96 510.05 310.46 509.67 310.09 509.18C309.72 508.69 309.52 508.13 309.48 507.5H311.27C311.32 508.02 311.56 508.44 312 508.77C312.44 509.1 313.01 509.26 313.72 509.26C314.38 509.26 314.9 509.11 315.28 508.82C315.66 508.53 315.85 508.16 315.85 507.72C315.85 507.28 315.65 506.93 315.24 506.7C314.83 506.47 314.21 506.26 313.36 506.04C312.59 505.84 311.96 505.63 311.47 505.42C310.98 505.21 310.56 504.9 310.22 504.49C309.87 504.08 309.7 503.54 309.7 502.87C309.7 502.34 309.86 501.85 310.18 501.41C310.5 500.97 310.95 500.62 311.53 500.36C312.11 500.1 312.78 499.97 313.53 499.97C314.68 499.97 315.61 500.26 316.32 500.84C317.03 501.42 317.41 502.22 317.46 503.23H315.73C315.69 502.69 315.47 502.25 315.08 501.92C314.68 501.59 314.14 501.43 313.47 501.43C312.85 501.43 312.35 501.56 311.99 501.83C311.62 502.1 311.44 502.44 311.44 502.87C311.44 503.21 311.55 503.49 311.77 503.72C311.99 503.94 312.27 504.12 312.61 504.25C312.95 504.38 313.41 504.53 314.01 504.7C314.76 504.9 315.37 505.1 315.83 505.3C316.3 505.5 316.7 505.79 317.04 506.18C317.37 506.57 317.55 507.09 317.56 507.72C317.56 508.29 317.4 508.8 317.09 509.26C316.78 509.72 316.33 510.07 315.75 510.33C315.17 510.59 314.51 510.72 313.77 510.72C312.97 510.72 312.25 510.58 311.62 510.31L311.59 510.32Z" fill="#424242"/>
<path d="M328.3 500.58C328.98 500.18 329.76 499.98 330.67 499.98C331.58 499.98 332.43 500.2 333.19 500.65C333.95 501.1 334.54 501.72 334.97 502.52C335.4 503.32 335.62 504.26 335.62 505.32C335.62 506.38 335.41 507.31 334.97 508.13C334.54 508.95 333.95 509.59 333.19 510.05C332.43 510.51 331.6 510.73 330.67 510.73C329.74 510.73 329 510.53 328.32 510.13C327.64 509.73 327.13 509.23 326.77 508.64V515.5H325.04V500.15H326.77V502.07C327.11 501.48 327.62 500.98 328.3 500.58ZM333.36 503.26C333.04 502.68 332.62 502.23 332.08 501.93C331.54 501.63 330.95 501.47 330.3 501.47C329.65 501.47 329.08 501.63 328.54 501.94C328 502.25 327.57 502.7 327.25 503.29C326.93 503.88 326.77 504.56 326.77 505.33C326.77 506.1 326.93 506.8 327.25 507.39C327.57 507.98 328 508.43 328.54 508.74C329.08 509.05 329.66 509.21 330.3 509.21C330.94 509.21 331.54 509.05 332.08 508.74C332.62 508.43 333.04 507.98 333.36 507.39C333.68 506.8 333.83 506.11 333.83 505.31C333.83 504.51 333.67 503.84 333.36 503.26Z" fill="#424242"/>
<path d="M337.88 502.51C338.31 501.71 338.9 501.08 339.66 500.64C340.42 500.2 341.25 499.97 342.18 499.97C343.11 499.97 343.89 500.17 344.56 500.56C345.23 500.95 345.73 501.45 346.06 502.04V500.14H347.81V510.55H346.06V508.61C345.72 509.22 345.21 509.72 344.53 510.12C343.85 510.52 343.06 510.72 342.16 510.72C341.26 510.72 340.4 510.49 339.65 510.04C338.9 509.58 338.31 508.94 337.88 508.12C337.45 507.3 337.23 506.36 337.23 505.31C337.23 504.26 337.44 503.31 337.88 502.51ZM345.58 503.28C345.26 502.7 344.84 502.25 344.3 501.94C343.76 501.63 343.17 501.47 342.52 501.47C341.87 501.47 341.29 501.62 340.75 501.93C340.22 502.23 339.79 502.68 339.48 503.26C339.17 503.84 339.01 504.53 339.01 505.31C339.01 506.09 339.17 506.8 339.48 507.39C339.8 507.98 340.22 508.43 340.75 508.74C341.28 509.05 341.87 509.21 342.52 509.21C343.17 509.21 343.76 509.05 344.3 508.74C344.84 508.43 345.26 507.98 345.58 507.39C345.9 506.8 346.05 506.11 346.05 505.33C346.05 504.55 345.89 503.86 345.58 503.28Z" fill="#424242"/>
<path d="M353.76 500.45C354.32 500.12 355.01 499.96 355.82 499.96V501.75H355.36C353.42 501.75 352.45 502.8 352.45 504.9V510.56H350.72V500.15H352.45V501.84C352.75 501.24 353.19 500.78 353.75 500.45H353.76Z" fill="#424242"/>
<path d="M357.81 502.51C358.24 501.71 358.83 501.08 359.59 500.64C360.35 500.2 361.18 499.97 362.11 499.97C363.04 499.97 363.82 500.17 364.49 500.56C365.16 500.95 365.66 501.45 365.99 502.04V500.14H367.74V510.55H365.99V508.61C365.65 509.22 365.14 509.72 364.46 510.12C363.78 510.52 362.99 510.72 362.09 510.72C361.19 510.72 360.33 510.49 359.58 510.04C358.83 509.58 358.24 508.94 357.81 508.12C357.38 507.3 357.16 506.36 357.16 505.31C357.16 504.26 357.37 503.31 357.81 502.51ZM365.51 503.28C365.19 502.7 364.77 502.25 364.23 501.94C363.69 501.63 363.1 501.47 362.45 501.47C361.8 501.47 361.22 501.62 360.68 501.93C360.15 502.23 359.72 502.68 359.41 503.26C359.1 503.84 358.94 504.53 358.94 505.31C358.94 506.09 359.1 506.8 359.41 507.39C359.73 507.98 360.15 508.43 360.68 508.74C361.21 509.05 361.8 509.21 362.45 509.21C363.1 509.21 363.69 509.05 364.23 508.74C364.77 508.43 365.19 507.98 365.51 507.39C365.83 506.8 365.98 506.11 365.98 505.33C365.98 504.55 365.82 503.86 365.51 503.28Z" fill="#424242"/>
<path d="M379.97 501.57H377.78V510.56H376.05V501.57H374.7V500.15H376.05V499.41C376.05 498.24 376.35 497.39 376.95 496.85C377.55 496.31 378.52 496.04 379.85 496.04V497.48C379.09 497.48 378.56 497.63 378.24 497.93C377.93 498.23 377.78 498.72 377.78 499.4V500.14H379.97V501.56V501.57Z" fill="#424242"/>
<path d="M381.98 502.51C382.41 501.71 383 501.08 383.76 500.64C384.52 500.2 385.35 499.97 386.28 499.97C387.21 499.97 387.99 500.17 388.66 500.56C389.33 500.95 389.83 501.45 390.16 502.04V500.14H391.91V510.55H390.16V508.61C389.82 509.22 389.31 509.72 388.63 510.12C387.95 510.52 387.16 510.72 386.26 510.72C385.36 510.72 384.5 510.49 383.75 510.04C383 509.58 382.41 508.94 381.98 508.12C381.55 507.3 381.33 506.36 381.33 505.31C381.33 504.26 381.54 503.31 381.98 502.51ZM389.68 503.28C389.36 502.7 388.94 502.25 388.4 501.94C387.86 501.63 387.27 501.47 386.62 501.47C385.97 501.47 385.39 501.62 384.85 501.93C384.32 502.23 383.89 502.68 383.58 503.26C383.27 503.84 383.11 504.53 383.11 505.31C383.11 506.09 383.27 506.8 383.58 507.39C383.9 507.98 384.32 508.43 384.85 508.74C385.38 509.05 385.97 509.21 386.62 509.21C387.27 509.21 387.86 509.05 388.4 508.74C388.94 508.43 389.36 507.98 389.68 507.39C390 506.8 390.15 506.11 390.15 505.33C390.15 504.55 389.99 503.86 389.68 503.28Z" fill="#424242"/>
<path d="M396.12 509.13H401.23V510.55H394.14V509.13L399.19 501.55H394.17V500.14H401.18V501.55L396.11 509.13H396.12Z" fill="#424242"/>
<path d="M412.91 506H404.59C404.65 507.03 405.01 507.83 405.64 508.4C406.28 508.98 407.06 509.26 407.97 509.26C408.72 509.26 409.34 509.09 409.84 508.74C410.34 508.39 410.69 507.93 410.89 507.34H412.75C412.47 508.34 411.91 509.15 411.08 509.78C410.25 510.41 409.2 510.72 407.96 510.72C406.97 510.72 406.09 510.5 405.31 510.05C404.53 509.6 403.92 508.98 403.48 508.16C403.04 507.34 402.82 506.4 402.82 505.32C402.82 504.24 403.03 503.3 403.46 502.49C403.89 501.68 404.5 501.06 405.27 500.62C406.05 500.18 406.95 499.96 407.96 499.96C408.97 499.96 409.82 500.18 410.58 500.61C411.34 501.04 411.93 501.63 412.34 502.39C412.75 503.15 412.96 504 412.96 504.94C412.96 505.27 412.94 505.62 412.9 505.99L412.91 506ZM410.75 502.89C410.46 502.41 410.06 502.05 409.56 501.81C409.06 501.56 408.51 501.44 407.9 501.44C407.02 501.44 406.28 501.72 405.67 502.28C405.05 502.84 404.7 503.61 404.62 504.6H411.19C411.19 503.94 411.04 503.37 410.75 502.9V502.89Z" fill="#424242"/>
<path d="M418.28 500.45C418.84 500.12 419.53 499.96 420.34 499.96V501.75H419.88C417.94 501.75 416.97 502.8 416.97 504.9V510.56H415.24V500.15H416.97V501.84C417.27 501.24 417.71 500.78 418.27 500.45H418.28Z" fill="#424242"/>
<path d="M427.41 502.51C427.84 501.71 428.43 501.08 429.19 500.64C429.95 500.2 430.78 499.97 431.71 499.97C432.64 499.97 433.41 500.17 434.09 500.56C434.77 500.95 435.26 501.45 435.59 502.04V500.14H437.34V510.55H435.59V508.61C435.25 509.22 434.74 509.72 434.06 510.12C433.38 510.52 432.6 510.72 431.69 510.72C430.78 510.72 429.93 510.49 429.18 510.04C428.43 509.59 427.84 508.94 427.41 508.12C426.98 507.3 426.77 506.36 426.77 505.31C426.77 504.26 426.98 503.31 427.41 502.51ZM435.1 503.28C434.78 502.7 434.36 502.25 433.82 501.94C433.28 501.63 432.69 501.47 432.04 501.47C431.39 501.47 430.81 501.62 430.27 501.93C429.74 502.23 429.31 502.68 429 503.26C428.69 503.84 428.53 504.53 428.53 505.31C428.53 506.09 428.69 506.8 429 507.39C429.32 507.98 429.74 508.43 430.27 508.74C430.8 509.05 431.39 509.21 432.04 509.21C432.69 509.21 433.28 509.05 433.82 508.74C434.36 508.43 434.78 507.98 435.1 507.39C435.42 506.8 435.57 506.11 435.57 505.33C435.57 504.55 435.41 503.86 435.1 503.28Z" fill="#424242"/>
<path d="M441.79 510.32C441.16 510.05 440.66 509.67 440.29 509.18C439.92 508.69 439.72 508.13 439.68 507.5H441.47C441.52 508.02 441.76 508.44 442.2 508.77C442.64 509.1 443.21 509.26 443.92 509.26C444.58 509.26 445.1 509.11 445.48 508.82C445.86 508.53 446.05 508.16 446.05 507.72C446.05 507.28 445.85 506.93 445.44 506.7C445.03 506.47 444.41 506.26 443.56 506.04C442.79 505.84 442.16 505.63 441.67 505.42C441.18 505.21 440.76 504.9 440.42 504.49C440.07 504.08 439.9 503.54 439.9 502.87C439.9 502.34 440.06 501.85 440.38 501.41C440.7 500.97 441.15 500.62 441.73 500.36C442.31 500.1 442.98 499.97 443.73 499.97C444.88 499.97 445.81 500.26 446.52 500.84C447.23 501.42 447.61 502.22 447.66 503.23H445.93C445.89 502.69 445.67 502.25 445.28 501.92C444.88 501.59 444.34 501.43 443.67 501.43C443.05 501.43 442.55 501.56 442.19 501.83C441.82 502.1 441.64 502.44 441.64 502.87C441.64 503.21 441.75 503.49 441.97 503.72C442.19 503.94 442.47 504.12 442.81 504.25C443.15 504.38 443.61 504.53 444.21 504.7C444.96 504.9 445.57 505.1 446.03 505.3C446.5 505.5 446.9 505.79 447.24 506.18C447.57 506.57 447.75 507.09 447.76 507.72C447.76 508.29 447.6 508.8 447.29 509.26C446.98 509.72 446.53 510.07 445.95 510.33C445.37 510.59 444.71 510.72 443.97 510.72C443.17 510.72 442.45 510.58 441.82 510.31L441.79 510.32Z" fill="#424242"/>
<path d="M206.38 532.87C205.59 532.43 204.97 531.8 204.52 530.98C204.07 530.16 203.85 529.22 203.85 528.14C203.85 527.06 204.08 526.14 204.54 525.32C205 524.5 205.63 523.88 206.43 523.44C207.23 523 208.12 522.78 209.11 522.78C210.1 522.78 210.99 523 211.79 523.44C212.59 523.88 213.22 524.5 213.68 525.31C214.14 526.12 214.37 527.06 214.37 528.14C214.37 529.22 214.13 530.16 213.66 530.98C213.18 531.8 212.54 532.43 211.73 532.87C210.92 533.31 210.02 533.54 209.03 533.54C208.04 533.54 207.17 533.32 206.38 532.87ZM210.78 531.57C211.32 531.28 211.76 530.84 212.1 530.26C212.44 529.68 212.6 528.97 212.6 528.13C212.6 527.29 212.43 526.58 212.11 526C211.78 525.42 211.35 524.98 210.82 524.7C210.29 524.41 209.71 524.27 209.09 524.27C208.47 524.27 207.88 524.41 207.35 524.7C206.82 524.99 206.4 525.42 206.09 526C205.77 526.58 205.62 527.29 205.62 528.13C205.62 528.97 205.77 529.69 206.08 530.28C206.39 530.86 206.8 531.3 207.32 531.58C207.84 531.86 208.41 532.01 209.03 532.01C209.65 532.01 210.23 531.86 210.78 531.57Z" fill="#424242"/>
<path d="M219.68 523.25C220.24 522.92 220.93 522.76 221.74 522.76V524.55H221.28C219.34 524.55 218.37 525.6 218.37 527.7V533.36H216.64V522.95H218.37V524.64C218.67 524.04 219.11 523.58 219.67 523.25H219.68Z" fill="#424242"/>
<path d="M233.18 528.8H224.86C224.92 529.83 225.28 530.63 225.91 531.2C226.55 531.78 227.33 532.06 228.24 532.06C228.99 532.06 229.61 531.89 230.11 531.54C230.61 531.19 230.96 530.73 231.16 530.14H233.02C232.74 531.14 232.18 531.95 231.35 532.58C230.52 533.21 229.47 533.52 228.23 533.52C227.24 533.52 226.36 533.3 225.58 532.85C224.8 532.4 224.19 531.78 223.75 530.96C223.31 530.14 223.09 529.2 223.09 528.12C223.09 527.04 223.3 526.1 223.73 525.29C224.16 524.48 224.77 523.86 225.54 523.42C226.32 522.98 227.22 522.76 228.23 522.76C229.24 522.76 230.09 522.98 230.85 523.41C231.61 523.84 232.2 524.43 232.61 525.19C233.02 525.95 233.23 526.8 233.23 527.74C233.23 528.07 233.21 528.42 233.17 528.79L233.18 528.8ZM231.02 525.69C230.73 525.21 230.33 524.85 229.83 524.61C229.33 524.36 228.78 524.24 228.17 524.24C227.29 524.24 226.55 524.52 225.94 525.08C225.32 525.64 224.97 526.41 224.89 527.4H231.46C231.46 526.74 231.31 526.17 231.02 525.7V525.69Z" fill="#424242"/>
<path d="M237.25 519.3V533.36H235.52V519.3H237.25Z" fill="#424242"/>
<path d="M240.25 520.91C240.02 520.68 239.91 520.4 239.91 520.07C239.91 519.74 240.03 519.46 240.25 519.23C240.48 519 240.76 518.89 241.09 518.89C241.42 518.89 241.67 519 241.9 519.23C242.12 519.46 242.23 519.74 242.23 520.07C242.23 520.4 242.12 520.68 241.9 520.91C241.68 521.14 241.41 521.25 241.09 521.25C240.77 521.25 240.48 521.14 240.25 520.91ZM241.92 522.95V533.36H240.19V522.95H241.92Z" fill="#424242"/>
<path d="M253.02 523.91C253.81 524.68 254.2 525.78 254.2 527.23V533.37H252.49V527.48C252.49 526.44 252.23 525.65 251.71 525.1C251.19 524.55 250.48 524.27 249.58 524.27C248.68 524.27 247.94 524.55 247.4 525.12C246.86 525.69 246.59 526.52 246.59 527.61V533.37H244.86V522.96H246.59V524.44C246.93 523.91 247.4 523.5 247.99 523.2C248.58 522.91 249.23 522.76 249.94 522.76C251.21 522.76 252.23 523.14 253.02 523.91Z" fill="#424242"/>
<path d="M264.32 523.26C264.95 523.6 265.45 524.1 265.81 524.77C266.17 525.44 266.35 526.26 266.35 527.22V533.36H264.64V527.47C264.64 526.43 264.38 525.64 263.86 525.09C263.34 524.54 262.63 524.26 261.73 524.26C260.83 524.26 260.09 524.54 259.55 525.11C259.01 525.68 258.74 526.51 258.74 527.6V533.36H257.01V519.3H258.74V524.43C259.08 523.9 259.55 523.49 260.15 523.19C260.75 522.9 261.43 522.75 262.17 522.75C262.96 522.75 263.66 522.92 264.3 523.25L264.32 523.26Z" fill="#424242"/>
<path d="M269.19 525.31C269.62 524.51 270.21 523.88 270.97 523.44C271.73 523 272.56 522.77 273.49 522.77C274.42 522.77 275.19 522.97 275.87 523.36C276.55 523.75 277.04 524.25 277.37 524.84V522.94H279.12V533.35H277.37V531.41C277.03 532.02 276.52 532.52 275.84 532.92C275.16 533.32 274.38 533.52 273.47 533.52C272.56 533.52 271.71 533.29 270.96 532.84C270.21 532.39 269.62 531.74 269.19 530.92C268.76 530.1 268.55 529.16 268.55 528.11C268.55 527.06 268.76 526.11 269.19 525.31ZM276.88 526.08C276.56 525.5 276.14 525.05 275.6 524.74C275.06 524.43 274.47 524.27 273.82 524.27C273.17 524.27 272.59 524.42 272.05 524.73C271.52 525.03 271.09 525.48 270.78 526.06C270.47 526.64 270.31 527.33 270.31 528.11C270.31 528.89 270.47 529.6 270.78 530.19C271.1 530.78 271.52 531.23 272.05 531.54C272.58 531.85 273.17 532.01 273.82 532.01C274.47 532.01 275.06 531.85 275.6 531.54C276.14 531.23 276.56 530.78 276.88 530.19C277.2 529.6 277.35 528.91 277.35 528.13C277.35 527.35 277.19 526.66 276.88 526.08Z" fill="#424242"/>
<path d="M283.57 533.12C282.94 532.85 282.44 532.47 282.07 531.98C281.7 531.49 281.5 530.93 281.46 530.3H283.25C283.3 530.82 283.54 531.24 283.98 531.57C284.42 531.9 284.99 532.06 285.7 532.06C286.36 532.06 286.88 531.91 287.26 531.62C287.64 531.33 287.83 530.96 287.83 530.52C287.83 530.08 287.63 529.73 287.22 529.5C286.81 529.27 286.19 529.06 285.34 528.84C284.57 528.64 283.94 528.43 283.45 528.22C282.96 528.01 282.54 527.7 282.2 527.29C281.85 526.88 281.68 526.34 281.68 525.67C281.68 525.14 281.84 524.65 282.16 524.21C282.48 523.77 282.93 523.42 283.51 523.16C284.09 522.9 284.76 522.77 285.51 522.77C286.66 522.77 287.59 523.06 288.3 523.64C289.01 524.22 289.39 525.02 289.44 526.03H287.71C287.67 525.49 287.45 525.05 287.06 524.72C286.66 524.39 286.12 524.23 285.45 524.23C284.83 524.23 284.33 524.36 283.97 524.63C283.6 524.9 283.42 525.24 283.42 525.67C283.42 526.01 283.53 526.29 283.75 526.52C283.97 526.74 284.25 526.92 284.59 527.05C284.93 527.18 285.39 527.33 285.99 527.5C286.74 527.7 287.35 527.9 287.81 528.1C288.28 528.3 288.68 528.59 289.02 528.98C289.35 529.37 289.53 529.89 289.54 530.52C289.54 531.09 289.38 531.6 289.07 532.06C288.76 532.52 288.31 532.87 287.73 533.13C287.15 533.39 286.49 533.52 285.75 533.52C284.95 533.52 284.23 533.38 283.6 533.11L283.57 533.12Z" fill="#424242"/>
<path d="M297.02 525.31C297.45 524.51 298.04 523.88 298.8 523.44C299.56 523 300.4 522.77 301.34 522.77C302.15 522.77 302.9 522.96 303.6 523.33C304.3 523.7 304.83 524.19 305.2 524.8V519.29H306.95V533.35H305.2V531.39C304.86 532.01 304.35 532.52 303.68 532.92C303.01 533.32 302.22 533.52 301.32 533.52C300.42 533.52 299.56 533.29 298.8 532.84C298.04 532.39 297.45 531.74 297.02 530.92C296.59 530.1 296.38 529.16 296.38 528.11C296.38 527.06 296.59 526.11 297.02 525.31ZM304.72 526.08C304.4 525.5 303.98 525.05 303.44 524.74C302.9 524.43 302.31 524.27 301.66 524.27C301.01 524.27 300.43 524.42 299.89 524.73C299.36 525.03 298.93 525.48 298.62 526.06C298.31 526.64 298.15 527.33 298.15 528.11C298.15 528.89 298.31 529.6 298.62 530.19C298.94 530.78 299.36 531.23 299.89 531.54C300.42 531.85 301.01 532.01 301.66 532.01C302.31 532.01 302.9 531.85 303.44 531.54C303.98 531.23 304.4 530.78 304.72 530.19C305.04 529.6 305.19 528.91 305.19 528.13C305.19 527.35 305.03 526.66 304.72 526.08Z" fill="#424242"/>
<path d="M311.76 532.87C310.97 532.43 310.35 531.8 309.9 530.98C309.45 530.16 309.23 529.22 309.23 528.14C309.23 527.06 309.46 526.14 309.92 525.32C310.38 524.5 311.01 523.88 311.81 523.44C312.61 523 313.5 522.78 314.49 522.78C315.48 522.78 316.37 523 317.17 523.44C317.97 523.88 318.6 524.5 319.06 525.31C319.52 526.12 319.75 527.06 319.75 528.14C319.75 529.22 319.51 530.16 319.04 530.98C318.56 531.8 317.92 532.43 317.11 532.87C316.3 533.31 315.4 533.54 314.41 533.54C313.42 533.54 312.55 533.32 311.76 532.87ZM316.16 531.57C316.7 531.28 317.14 530.84 317.48 530.26C317.82 529.68 317.98 528.97 317.98 528.13C317.98 527.29 317.81 526.58 317.49 526C317.16 525.42 316.73 524.98 316.2 524.7C315.67 524.41 315.09 524.27 314.47 524.27C313.85 524.27 313.26 524.41 312.73 524.7C312.2 524.99 311.78 525.42 311.47 526C311.15 526.58 311 527.29 311 528.13C311 528.97 311.15 529.69 311.46 530.28C311.77 530.86 312.18 531.3 312.7 531.58C313.22 531.86 313.79 532.01 314.41 532.01C315.03 532.01 315.61 531.86 316.16 531.57Z" fill="#424242"/>
<path d="M327.1 525.31C327.53 524.51 328.13 523.88 328.89 523.44C329.65 523 330.53 522.77 331.52 522.77C332.8 522.77 333.85 523.08 334.68 523.7C335.51 524.32 336.06 525.18 336.32 526.28H334.46C334.28 525.65 333.94 525.15 333.42 524.78C332.91 524.41 332.27 524.23 331.51 524.23C330.52 524.23 329.72 524.57 329.12 525.25C328.51 525.93 328.21 526.89 328.21 528.13C328.21 529.37 328.51 530.35 329.12 531.04C329.73 531.72 330.53 532.07 331.51 532.07C332.27 532.07 332.9 531.89 333.41 531.54C333.92 531.19 334.27 530.68 334.45 530.02H336.31C336.03 531.08 335.47 531.94 334.64 532.58C333.81 533.22 332.76 533.54 331.5 533.54C330.51 533.54 329.63 533.32 328.87 532.87C328.11 532.42 327.5 531.8 327.08 530.99C326.65 530.18 326.43 529.23 326.43 528.14C326.43 527.05 326.64 526.12 327.08 525.32L327.1 525.31Z" fill="#424242"/>
<path d="M338.63 525.31C339.06 524.51 339.65 523.88 340.41 523.44C341.17 523 342 522.77 342.93 522.77C343.86 522.77 344.64 522.97 345.31 523.36C345.98 523.75 346.48 524.25 346.81 524.84V522.94H348.56V533.35H346.81V531.41C346.47 532.02 345.96 532.52 345.28 532.92C344.6 533.32 343.81 533.52 342.91 533.52C342.01 533.52 341.15 533.29 340.4 532.84C339.65 532.38 339.06 531.74 338.63 530.92C338.2 530.1 337.98 529.16 337.98 528.11C337.98 527.06 338.19 526.11 338.63 525.31ZM346.33 526.08C346.01 525.5 345.59 525.05 345.05 524.74C344.51 524.43 343.92 524.27 343.27 524.27C342.62 524.27 342.04 524.42 341.5 524.73C340.97 525.03 340.54 525.48 340.23 526.06C339.92 526.64 339.76 527.33 339.76 528.11C339.76 528.89 339.92 529.6 340.23 530.19C340.55 530.78 340.97 531.23 341.5 531.54C342.03 531.85 342.62 532.01 343.27 532.01C343.92 532.01 344.51 531.85 345.05 531.54C345.59 531.23 346.01 530.78 346.33 530.19C346.65 529.6 346.8 528.91 346.8 528.13C346.8 527.35 346.64 526.66 346.33 526.08Z" fill="#424242"/>
<path d="M351.48 525.31C351.91 524.51 352.51 523.88 353.27 523.44C354.03 523 354.91 522.77 355.9 522.77C357.18 522.77 358.23 523.08 359.06 523.7C359.89 524.32 360.44 525.18 360.7 526.28H358.84C358.66 525.65 358.32 525.15 357.8 524.78C357.29 524.41 356.65 524.23 355.89 524.23C354.9 524.23 354.1 524.57 353.5 525.25C352.89 525.93 352.59 526.89 352.59 528.13C352.59 529.37 352.89 530.35 353.5 531.04C354.11 531.72 354.91 532.07 355.89 532.07C356.65 532.07 357.28 531.89 357.79 531.54C358.3 531.19 358.65 530.68 358.83 530.02H360.69C360.41 531.08 359.85 531.94 359.02 532.58C358.19 533.22 357.14 533.54 355.88 533.54C354.89 533.54 354.01 533.32 353.25 532.87C352.49 532.42 351.88 531.8 351.46 530.99C351.03 530.18 350.81 529.23 350.81 528.14C350.81 527.05 351.02 526.12 351.46 525.32L351.48 525.31Z" fill="#424242"/>
<path d="M370.3 523.26C370.93 523.6 371.43 524.1 371.79 524.77C372.15 525.44 372.33 526.26 372.33 527.22V533.36H370.62V527.47C370.62 526.43 370.36 525.64 369.84 525.09C369.32 524.54 368.61 524.26 367.71 524.26C366.81 524.26 366.07 524.54 365.53 525.11C364.99 525.68 364.72 526.51 364.72 527.6V533.36H362.99V519.3H364.72V524.43C365.06 523.9 365.53 523.49 366.14 523.19C366.74 522.9 367.42 522.75 368.16 522.75C368.95 522.75 369.65 522.92 370.29 523.25L370.3 523.26Z" fill="#424242"/>
<path d="M377.06 532.87C376.27 532.43 375.65 531.8 375.2 530.98C374.75 530.16 374.53 529.22 374.53 528.14C374.53 527.06 374.76 526.14 375.22 525.32C375.68 524.5 376.31 523.88 377.11 523.44C377.91 523 378.8 522.78 379.79 522.78C380.78 522.78 381.67 523 382.47 523.44C383.27 523.88 383.9 524.5 384.36 525.31C384.82 526.12 385.05 527.06 385.05 528.14C385.05 529.22 384.81 530.16 384.34 530.98C383.86 531.8 383.22 532.43 382.41 532.87C381.6 533.31 380.7 533.54 379.71 533.54C378.72 533.54 377.85 533.32 377.06 532.87ZM381.46 531.57C382 531.28 382.44 530.84 382.78 530.26C383.12 529.68 383.28 528.97 383.28 528.13C383.28 527.29 383.11 526.58 382.79 526C382.46 525.42 382.03 524.98 381.5 524.7C380.97 524.41 380.39 524.27 379.77 524.27C379.15 524.27 378.56 524.41 378.03 524.7C377.5 524.99 377.08 525.42 376.77 526C376.45 526.58 376.3 527.29 376.3 528.13C376.3 528.97 376.45 529.69 376.76 530.28C377.07 530.86 377.48 531.3 378 531.58C378.52 531.86 379.09 532.01 379.71 532.01C380.33 532.01 380.91 531.86 381.46 531.57Z" fill="#424242"/>
<path d="M390.36 523.25C390.92 522.92 391.61 522.76 392.42 522.76V524.55H391.96C390.02 524.55 389.05 525.6 389.05 527.7V533.36H387.32V522.95H389.05V524.64C389.35 524.04 389.79 523.58 390.35 523.25H390.36Z" fill="#424242"/>
<path d="M397.45 523.25C398.01 522.92 398.7 522.76 399.51 522.76V524.55H399.05C397.11 524.55 396.14 525.6 396.14 527.7V533.36H394.41V522.95H396.14V524.64C396.44 524.04 396.88 523.58 397.44 523.25H397.45Z" fill="#424242"/>
<path d="M403.39 532.87C402.6 532.43 401.98 531.8 401.53 530.98C401.08 530.16 400.86 529.22 400.86 528.14C400.86 527.06 401.09 526.14 401.55 525.32C402.01 524.5 402.64 523.88 403.44 523.44C404.24 523 405.13 522.78 406.12 522.78C407.11 522.78 408 523 408.8 523.44C409.6 523.88 410.23 524.5 410.69 525.31C411.15 526.12 411.38 527.06 411.38 528.14C411.38 529.22 411.14 530.16 410.67 530.98C410.2 531.8 409.55 532.43 408.74 532.87C407.93 533.31 407.03 533.54 406.04 533.54C405.05 533.54 404.18 533.32 403.39 532.87ZM407.79 531.57C408.33 531.28 408.77 530.84 409.11 530.26C409.45 529.68 409.61 528.97 409.61 528.13C409.61 527.29 409.45 526.58 409.12 526C408.79 525.42 408.36 524.98 407.83 524.7C407.3 524.41 406.72 524.27 406.1 524.27C405.48 524.27 404.89 524.41 404.36 524.7C403.83 524.99 403.41 525.42 403.1 526C402.78 526.58 402.63 527.29 402.63 528.13C402.63 528.97 402.79 529.69 403.1 530.28C403.41 530.86 403.82 531.3 404.34 531.58C404.86 531.86 405.43 532.01 406.05 532.01C406.67 532.01 407.25 531.86 407.8 531.57H407.79Z" fill="#424242"/>
</svg>
