<svg width="597" height="578" viewBox="0 0 597 578" fill="none" xmlns="http://www.w3.org/2000/svg">
<path d="M550.02 58.95H66.4401C40.9964 58.95 20.3701 79.5762 20.3701 105.02V531.2C20.3701 556.644 40.9964 577.27 66.4401 577.27H550.02C575.464 577.27 596.09 556.644 596.09 531.2V105.02C596.09 79.5762 575.464 58.95 550.02 58.95Z" fill="#D3D3D3"/>
<path d="M545.6 49.27H62.02C36.5762 49.27 15.95 69.8962 15.95 95.34V521.52C15.95 546.964 36.5762 567.59 62.02 567.59H545.6C571.044 567.59 591.67 546.964 591.67 521.52V95.34C591.67 69.8962 571.044 49.27 545.6 49.27Z" fill="#FCC8A1"/>
<path d="M43.73 89.27C66.7603 89.27 85.43 70.5689 85.43 47.5C85.43 24.4311 66.7603 5.73 43.73 5.73C20.6997 5.73 2.03003 24.4311 2.03003 47.5C2.03003 70.5689 20.6997 89.27 43.73 89.27Z" fill="#CCA98B" stroke="#F2F2F2"/>
<path d="M43.69 85.67C66.7203 85.67 85.39 66.9689 85.39 43.9C85.39 20.8311 66.7203 2.13 43.69 2.13C20.6597 2.13 1.98999 20.8311 1.98999 43.9C1.98999 66.9689 20.6597 85.67 43.69 85.67Z" fill="white" stroke="#F2F2F2" stroke-width="3"/>
<path d="M25.7399 51.43C28.4099 49.22 30.5199 47.41 32.0599 45.99C33.5999 44.57 34.8998 43.08 35.9698 41.53C37.0298 39.97 37.5699 38.46 37.5699 36.99C37.5699 35.87 37.3099 35 36.7899 34.37C36.2699 33.74 35.4899 33.43 34.4599 33.43C33.4299 33.43 32.6099 33.82 32.0299 34.6C31.4399 35.38 31.1499 36.48 31.1499 37.89H24.3999C24.4499 35.57 24.9499 33.63 25.8899 32.08C26.8299 30.52 28.0699 29.38 29.6099 28.64C31.1499 27.9 32.8599 27.54 34.7499 27.54C37.9999 27.54 40.4399 28.37 42.0999 30.04C43.7499 31.71 44.5799 33.87 44.5799 36.55C44.5799 39.47 43.5799 42.18 41.5899 44.67C39.5999 47.17 37.0599 49.6 33.9799 51.97H45.0299V57.66H24.4899V52.46C25.4199 51.72 25.8399 51.38 25.7599 51.44L25.7399 51.43Z" fill="#CCA98B"/>
<path d="M48.31 32.58C49.01 31.48 49.99 30.61 51.26 29.98C52.53 29.35 53.98 29.04 55.62 29.04C57.26 29.04 58.71 29.35 59.98 29.98C61.25 30.61 62.23 31.47 62.93 32.58C63.63 33.69 63.97 34.96 63.97 36.41C63.97 37.86 63.62 39.14 62.91 40.26C62.2 41.38 61.21 42.26 59.94 42.9C58.67 43.54 57.22 43.86 55.58 43.86C53.94 43.86 52.5 43.54 51.24 42.9C49.98 42.26 49.01 41.38 48.31 40.26C47.61 39.14 47.27 37.86 47.27 36.41C47.27 34.96 47.62 33.69 48.31 32.58ZM57.71 33.95C57.14 33.38 56.43 33.09 55.58 33.09C54.73 33.09 54.07 33.38 53.51 33.95C52.95 34.52 52.67 35.36 52.67 36.45C52.67 37.54 52.94 38.33 53.49 38.91C54.04 39.49 54.73 39.77 55.58 39.77C56.43 39.77 57.13 39.48 57.71 38.89C58.28 38.3 58.57 37.49 58.57 36.46C58.57 35.37 58.28 34.54 57.71 33.96V33.95Z" fill="#CCA98B"/>
<path d="M105.38 35.45C104.59 36.22 103.38 36.6 101.75 36.6H99.07V42.42H97.25V28.48H101.75C103.32 28.48 104.52 28.86 105.34 29.62C106.16 30.38 106.57 31.36 106.57 32.56C106.57 33.76 106.17 34.68 105.38 35.45ZM103.99 34.44C104.47 34 104.71 33.37 104.71 32.56C104.71 30.84 103.72 29.98 101.75 29.98H99.07V35.1H101.75C102.76 35.1 103.51 34.88 103.99 34.44Z" fill="#CCA98B"/>
<path d="M108.83 33.95C109.28 33.1 109.91 32.45 110.7 31.98C111.49 31.51 112.38 31.28 113.35 31.28C114.32 31.28 115.14 31.49 115.85 31.9C116.56 32.31 117.08 32.83 117.43 33.46V31.46H119.27V42.42H117.43V40.38C117.07 41.02 116.53 41.55 115.82 41.97C115.11 42.39 114.28 42.6 113.33 42.6C112.38 42.6 111.48 42.36 110.69 41.88C109.9 41.4 109.28 40.73 108.83 39.86C108.38 38.99 108.15 38.01 108.15 36.9C108.15 35.79 108.38 34.8 108.83 33.95ZM116.93 34.76C116.6 34.15 116.15 33.68 115.58 33.35C115.01 33.02 114.39 32.86 113.71 32.86C113.03 32.86 112.41 33.02 111.85 33.34C111.29 33.66 110.84 34.13 110.51 34.74C110.18 35.35 110.01 36.07 110.01 36.9C110.01 37.73 110.18 38.47 110.51 39.09C110.84 39.71 111.29 40.18 111.85 40.51C112.41 40.84 113.03 41 113.71 41C114.39 41 115.01 40.84 115.58 40.51C116.15 40.18 116.6 39.71 116.93 39.09C117.26 38.47 117.43 37.75 117.43 36.92C117.43 36.09 117.26 35.37 116.93 34.76Z" fill="#CCA98B"/>
<path d="M123.97 42.17C123.3 41.88 122.78 41.48 122.39 40.97C122 40.46 121.79 39.87 121.75 39.2H123.63C123.68 39.75 123.94 40.19 124.4 40.54C124.86 40.89 125.46 41.06 126.21 41.06C126.9 41.06 127.45 40.91 127.85 40.6C128.25 40.29 128.45 39.91 128.45 39.44C128.45 38.97 128.24 38.6 127.81 38.37C127.38 38.14 126.72 37.91 125.83 37.68C125.02 37.47 124.35 37.25 123.84 37.03C123.33 36.81 122.89 36.48 122.52 36.05C122.15 35.62 121.97 35.05 121.97 34.34C121.97 33.78 122.14 33.27 122.47 32.8C122.8 32.33 123.28 31.96 123.89 31.69C124.5 31.42 125.2 31.28 125.99 31.28C127.2 31.28 128.18 31.59 128.93 32.2C129.68 32.81 130.08 33.65 130.13 34.72H128.31C128.27 34.15 128.04 33.69 127.62 33.34C127.2 32.99 126.64 32.82 125.93 32.82C125.28 32.82 124.76 32.96 124.37 33.24C123.98 33.52 123.79 33.89 123.79 34.34C123.79 34.7 123.91 35 124.14 35.23C124.37 35.46 124.67 35.65 125.02 35.79C125.37 35.93 125.86 36.09 126.49 36.26C127.28 36.47 127.92 36.68 128.41 36.89C128.9 37.1 129.33 37.41 129.68 37.82C130.03 38.23 130.22 38.77 130.23 39.44C130.23 40.04 130.06 40.58 129.73 41.06C129.4 41.54 128.93 41.92 128.32 42.19C127.71 42.46 127.02 42.6 126.23 42.6C125.39 42.6 124.64 42.46 123.97 42.17Z" fill="#CCA98B"/>
<path d="M134.41 42.17C133.74 41.88 133.22 41.48 132.83 40.97C132.44 40.46 132.23 39.87 132.19 39.2H134.07C134.12 39.75 134.38 40.19 134.84 40.54C135.3 40.89 135.9 41.06 136.65 41.06C137.34 41.06 137.89 40.91 138.29 40.6C138.69 40.29 138.89 39.91 138.89 39.44C138.89 38.97 138.68 38.6 138.25 38.37C137.82 38.14 137.16 37.91 136.27 37.68C135.46 37.47 134.79 37.25 134.28 37.03C133.77 36.81 133.33 36.48 132.96 36.05C132.59 35.62 132.41 35.05 132.41 34.34C132.41 33.78 132.58 33.27 132.91 32.8C133.24 32.33 133.72 31.96 134.33 31.69C134.94 31.42 135.64 31.28 136.43 31.28C137.64 31.28 138.62 31.59 139.37 32.2C140.12 32.81 140.52 33.65 140.57 34.72H138.75C138.71 34.15 138.48 33.69 138.06 33.34C137.64 32.99 137.08 32.82 136.37 32.82C135.72 32.82 135.2 32.96 134.81 33.24C134.42 33.52 134.23 33.89 134.23 34.34C134.23 34.7 134.35 35 134.58 35.23C134.81 35.46 135.11 35.65 135.46 35.79C135.81 35.93 136.3 36.09 136.93 36.26C137.72 36.47 138.36 36.68 138.85 36.89C139.34 37.1 139.77 37.41 140.12 37.82C140.47 38.23 140.66 38.77 140.67 39.44C140.67 40.04 140.5 40.58 140.17 41.06C139.84 41.54 139.37 41.92 138.76 42.19C138.15 42.46 137.46 42.6 136.67 42.6C135.83 42.6 135.08 42.46 134.41 42.17Z" fill="#CCA98B"/>
<path d="M145.22 41.9C144.39 41.43 143.73 40.77 143.26 39.91C142.79 39.05 142.55 38.05 142.55 36.92C142.55 35.79 142.79 34.81 143.28 33.95C143.77 33.09 144.43 32.43 145.27 31.97C146.11 31.51 147.05 31.28 148.09 31.28C149.13 31.28 150.07 31.51 150.91 31.97C151.75 32.43 152.41 33.09 152.9 33.94C153.39 34.79 153.63 35.79 153.63 36.92C153.63 38.05 153.38 39.05 152.88 39.91C152.38 40.77 151.7 41.43 150.85 41.9C150 42.37 149.05 42.6 148.01 42.6C146.97 42.6 146.05 42.37 145.22 41.9ZM149.85 40.54C150.42 40.23 150.89 39.77 151.24 39.16C151.59 38.55 151.77 37.8 151.77 36.92C151.77 36.04 151.6 35.29 151.25 34.68C150.9 34.07 150.45 33.61 149.89 33.31C149.33 33.01 148.72 32.86 148.07 32.86C147.42 32.86 146.79 33.01 146.24 33.31C145.69 33.61 145.24 34.07 144.91 34.68C144.58 35.29 144.41 36.04 144.41 36.92C144.41 37.8 144.57 38.57 144.9 39.18C145.23 39.79 145.66 40.25 146.21 40.55C146.76 40.85 147.36 41 148.01 41C148.66 41 149.28 40.85 149.85 40.54Z" fill="#CCA98B"/>
<path d="M125.3 203.27L301.09 391.38L478.32 203.27H125.3Z" fill="#CCCCCC"/>
<path d="M95.44 498.72V503.15H100.27V504.57H95.44V509.13H100.84V510.55H93.72V497.29H100.84V498.71H95.44V498.72Z" fill="#424242"/>
<path d="M111.61 501.11C112.4 501.88 112.79 502.98 112.79 504.43V510.57H111.08V504.68C111.08 503.64 110.82 502.85 110.3 502.3C109.78 501.75 109.07 501.47 108.17 501.47C107.27 501.47 106.53 501.75 105.99 502.32C105.45 502.89 105.18 503.72 105.18 504.81V510.57H103.45V500.16H105.18V501.64C105.52 501.11 105.99 500.7 106.58 500.4C107.17 500.11 107.82 499.96 108.53 499.96C109.8 499.96 110.82 500.34 111.61 501.11Z" fill="#424242"/>
<path d="M117.72 501.57V507.71C117.72 508.22 117.83 508.57 118.04 508.78C118.26 508.99 118.63 509.09 119.16 509.09H120.43V510.55H118.87C117.91 510.55 117.18 510.33 116.7 509.88C116.22 509.44 115.98 508.71 115.98 507.7V501.56H114.63V500.14H115.98V497.52H117.71V500.14H120.43V501.56H117.71L117.72 501.57Z" fill="#424242"/>
<path d="M122.53 502.51C122.96 501.71 123.55 501.08 124.31 500.64C125.07 500.2 125.9 499.97 126.83 499.97C127.76 499.97 128.53 500.17 129.21 500.56C129.88 500.95 130.38 501.45 130.71 502.04V500.14H132.46V510.55H130.71V508.61C130.37 509.22 129.86 509.72 129.18 510.12C128.5 510.52 127.71 510.72 126.81 510.72C125.91 510.72 125.05 510.49 124.3 510.04C123.55 509.58 122.96 508.94 122.53 508.12C122.1 507.3 121.88 506.36 121.88 505.31C121.88 504.26 122.09 503.31 122.53 502.51ZM130.22 503.28C129.9 502.7 129.48 502.25 128.94 501.94C128.4 501.63 127.81 501.47 127.16 501.47C126.51 501.47 125.93 501.62 125.39 501.93C124.85 502.24 124.43 502.68 124.12 503.26C123.81 503.84 123.65 504.53 123.65 505.31C123.65 506.09 123.81 506.8 124.12 507.39C124.44 507.98 124.86 508.43 125.39 508.74C125.92 509.05 126.51 509.21 127.16 509.21C127.81 509.21 128.4 509.05 128.94 508.74C129.48 508.43 129.9 507.98 130.22 507.39C130.54 506.8 130.69 506.11 130.69 505.33C130.69 504.55 130.53 503.86 130.22 503.28ZM125.35 497.55C125.69 497.21 126.11 497.04 126.61 497.04C126.85 497.04 127.06 497.08 127.23 497.16C127.4 497.24 127.61 497.36 127.85 497.51C128.03 497.64 128.18 497.73 128.32 497.8C128.46 497.87 128.61 497.9 128.78 497.9C129 497.9 129.18 497.83 129.33 497.69C129.48 497.55 129.58 497.35 129.62 497.08H130.61C130.53 497.71 130.32 498.2 129.98 498.54C129.64 498.88 129.21 499.05 128.71 499.05C128.47 499.05 128.26 499.01 128.07 498.93C127.89 498.85 127.68 498.72 127.45 498.56C127.25 498.43 127.09 498.34 126.97 498.27C126.85 498.21 126.71 498.18 126.54 498.18C126.33 498.18 126.14 498.25 126 498.39C125.85 498.53 125.76 498.74 125.72 499.02H124.71C124.8 498.37 125.01 497.88 125.35 497.54V497.55Z" fill="#424242"/>
<path d="M137.26 510.07C136.47 509.63 135.85 509 135.4 508.18C134.95 507.36 134.73 506.42 134.73 505.34C134.73 504.26 134.96 503.34 135.42 502.52C135.88 501.7 136.51 501.08 137.31 500.64C138.11 500.2 139 499.98 139.99 499.98C140.98 499.98 141.87 500.2 142.67 500.64C143.47 501.08 144.1 501.7 144.56 502.51C145.02 503.32 145.25 504.26 145.25 505.34C145.25 506.42 145.01 507.36 144.54 508.18C144.06 509 143.42 509.63 142.61 510.07C141.8 510.51 140.9 510.74 139.91 510.74C138.92 510.74 138.05 510.52 137.26 510.07ZM141.66 508.77C142.2 508.48 142.64 508.04 142.98 507.46C143.32 506.88 143.48 506.17 143.48 505.33C143.48 504.49 143.31 503.78 142.99 503.2C142.66 502.62 142.23 502.18 141.7 501.9C141.17 501.62 140.59 501.47 139.97 501.47C139.35 501.47 138.76 501.61 138.23 501.9C137.7 502.19 137.28 502.62 136.97 503.2C136.65 503.78 136.5 504.49 136.5 505.33C136.5 506.17 136.66 506.89 136.97 507.48C137.28 508.06 137.69 508.5 138.21 508.78C138.73 509.06 139.3 509.21 139.92 509.21C140.54 509.21 141.12 509.06 141.67 508.77H141.66Z" fill="#424242"/>
<path d="M152.61 502.51C153.04 501.71 153.63 501.08 154.39 500.64C155.15 500.2 155.99 499.97 156.93 499.97C157.74 499.97 158.49 500.16 159.19 500.53C159.89 500.9 160.42 501.39 160.79 502V496.49H162.54V510.55H160.79V508.59C160.45 509.21 159.94 509.72 159.27 510.12C158.6 510.52 157.81 510.72 156.91 510.72C156.01 510.72 155.15 510.49 154.39 510.04C153.63 509.59 153.04 508.94 152.61 508.12C152.18 507.3 151.96 506.36 151.96 505.31C151.96 504.26 152.17 503.31 152.61 502.51ZM160.3 503.28C159.98 502.7 159.56 502.25 159.02 501.94C158.48 501.63 157.89 501.47 157.24 501.47C156.59 501.47 156.01 501.62 155.47 501.93C154.93 502.24 154.51 502.68 154.2 503.26C153.89 503.84 153.73 504.53 153.73 505.31C153.73 506.09 153.89 506.8 154.2 507.39C154.52 507.98 154.94 508.43 155.47 508.74C156 509.05 156.59 509.21 157.24 509.21C157.89 509.21 158.48 509.05 159.02 508.74C159.56 508.43 159.98 507.98 160.3 507.39C160.62 506.8 160.77 506.11 160.77 505.33C160.77 504.55 160.61 503.86 160.3 503.28Z" fill="#424242"/>
<path d="M167.34 510.07C166.55 509.63 165.93 509 165.48 508.18C165.03 507.36 164.81 506.42 164.81 505.34C164.81 504.26 165.04 503.34 165.5 502.52C165.96 501.7 166.59 501.08 167.39 500.64C168.19 500.2 169.08 499.98 170.07 499.98C171.06 499.98 171.95 500.2 172.75 500.64C173.55 501.08 174.18 501.7 174.64 502.51C175.1 503.32 175.33 504.26 175.33 505.34C175.33 506.42 175.09 507.36 174.62 508.18C174.14 509 173.5 509.63 172.69 510.07C171.88 510.51 170.98 510.74 169.99 510.74C169 510.74 168.13 510.52 167.34 510.07ZM171.74 508.77C172.28 508.48 172.72 508.04 173.06 507.46C173.4 506.88 173.56 506.17 173.56 505.33C173.56 504.49 173.39 503.78 173.07 503.2C172.74 502.62 172.31 502.18 171.78 501.9C171.25 501.62 170.67 501.47 170.05 501.47C169.43 501.47 168.84 501.61 168.31 501.9C167.78 502.19 167.36 502.62 167.05 503.2C166.73 503.78 166.58 504.49 166.58 505.33C166.58 506.17 166.74 506.89 167.05 507.48C167.36 508.06 167.77 508.5 168.29 508.78C168.81 509.06 169.38 509.21 170 509.21C170.62 509.21 171.2 509.06 171.75 508.77H171.74Z" fill="#424242"/>
<path d="M180.9 500.57C181.58 500.18 182.36 499.98 183.24 499.98C184.18 499.98 185.02 500.2 185.77 500.65C186.52 501.09 187.11 501.72 187.54 502.52C187.97 503.32 188.19 504.26 188.19 505.32C188.19 506.38 187.97 507.31 187.54 508.13C187.11 508.95 186.52 509.59 185.76 510.05C185 510.51 184.17 510.73 183.24 510.73C182.31 510.73 181.55 510.53 180.87 510.14C180.19 509.75 179.68 509.25 179.34 508.64V510.56H177.61V496.5H179.34V502.09C179.69 501.47 180.21 500.96 180.9 500.57ZM185.93 503.26C185.61 502.68 185.19 502.23 184.65 501.93C184.11 501.63 183.52 501.47 182.87 501.47C182.22 501.47 181.65 501.63 181.11 501.94C180.57 502.25 180.14 502.7 179.82 503.29C179.5 503.88 179.34 504.56 179.34 505.33C179.34 506.1 179.5 506.8 179.82 507.39C180.14 507.98 180.57 508.43 181.11 508.74C181.65 509.05 182.23 509.21 182.87 509.21C183.51 509.21 184.11 509.05 184.65 508.74C185.19 508.43 185.61 507.98 185.93 507.39C186.25 506.8 186.4 506.11 186.4 505.31C186.4 504.51 186.24 503.84 185.93 503.26Z" fill="#424242"/>
<path d="M193.48 500.45C194.04 500.12 194.73 499.96 195.54 499.96V501.75H195.08C193.14 501.75 192.17 502.8 192.17 504.9V510.56H190.44V500.15H192.17V501.84C192.47 501.24 192.91 500.78 193.47 500.45H193.48Z" fill="#424242"/>
<path d="M206.98 506H198.66C198.72 507.03 199.08 507.83 199.71 508.4C200.34 508.97 201.13 509.26 202.04 509.26C202.79 509.26 203.41 509.09 203.91 508.74C204.41 508.39 204.76 507.93 204.96 507.34H206.82C206.54 508.34 205.98 509.15 205.15 509.78C204.32 510.41 203.27 510.72 202.03 510.72C201.04 510.72 200.16 510.5 199.38 510.05C198.6 509.6 197.99 508.98 197.55 508.16C197.11 507.34 196.88 506.4 196.88 505.32C196.88 504.24 197.09 503.3 197.53 502.49C197.97 501.68 198.57 501.06 199.34 500.62C200.12 500.18 201.01 499.96 202.03 499.96C203.05 499.96 203.89 500.18 204.65 500.61C205.41 501.04 206 501.63 206.41 502.39C206.82 503.14 207.03 504 207.03 504.94C207.03 505.27 207.01 505.62 206.97 505.99L206.98 506ZM204.82 502.89C204.53 502.41 204.13 502.05 203.63 501.81C203.13 501.56 202.58 501.44 201.97 501.44C201.1 501.44 200.35 501.72 199.74 502.28C199.13 502.84 198.77 503.61 198.69 504.6H205.26C205.26 503.94 205.11 503.37 204.82 502.9V502.89Z" fill="#424242"/>
<path d="M229.08 500.46C229.71 500.8 230.21 501.3 230.58 501.97C230.95 502.64 231.13 503.46 231.13 504.42V510.56H229.42V504.67C229.42 503.63 229.16 502.84 228.65 502.29C228.14 501.74 227.44 501.46 226.57 501.46C225.7 501.46 224.96 501.75 224.42 502.32C223.88 502.89 223.62 503.73 223.62 504.82V510.56H221.91V504.67C221.91 503.63 221.65 502.84 221.14 502.29C220.63 501.74 219.93 501.46 219.06 501.46C218.19 501.46 217.45 501.75 216.91 502.32C216.37 502.89 216.11 503.73 216.11 504.82V510.56H214.38V500.15H216.11V501.65C216.45 501.11 216.91 500.69 217.49 500.4C218.07 500.11 218.7 499.96 219.4 499.96C220.27 499.96 221.05 500.16 221.72 500.55C222.39 500.94 222.89 501.52 223.22 502.28C223.51 501.55 223.99 500.98 224.66 500.57C225.33 500.16 226.08 499.96 226.9 499.96C227.72 499.96 228.43 500.13 229.07 500.46H229.08Z" fill="#424242"/>
<path d="M233.96 502.51C234.39 501.71 234.98 501.08 235.74 500.64C236.5 500.2 237.33 499.97 238.26 499.97C239.19 499.97 239.96 500.17 240.64 500.56C241.31 500.95 241.81 501.45 242.14 502.04V500.14H243.89V510.55H242.14V508.61C241.8 509.22 241.29 509.72 240.61 510.12C239.93 510.52 239.14 510.72 238.24 510.72C237.34 510.72 236.48 510.49 235.73 510.04C234.98 509.58 234.39 508.94 233.96 508.12C233.53 507.3 233.31 506.36 233.31 505.31C233.31 504.26 233.52 503.31 233.96 502.51ZM241.66 503.28C241.34 502.7 240.92 502.25 240.38 501.94C239.84 501.63 239.25 501.47 238.6 501.47C237.95 501.47 237.37 501.62 236.83 501.93C236.29 502.24 235.87 502.68 235.56 503.26C235.25 503.84 235.09 504.53 235.09 505.31C235.09 506.09 235.25 506.8 235.56 507.39C235.88 507.98 236.3 508.43 236.83 508.74C237.36 509.05 237.95 509.21 238.6 509.21C239.25 509.21 239.84 509.05 240.38 508.74C240.92 508.43 241.34 507.98 241.66 507.39C241.98 506.8 242.13 506.11 242.13 505.33C242.13 504.55 241.97 503.86 241.66 503.28Z" fill="#424242"/>
<path d="M246.86 498.11C246.63 497.88 246.52 497.6 246.52 497.27C246.52 496.94 246.63 496.66 246.86 496.43C247.09 496.2 247.37 496.09 247.7 496.09C248.03 496.09 248.28 496.2 248.51 496.43C248.73 496.66 248.84 496.94 248.84 497.27C248.84 497.6 248.73 497.88 248.51 498.11C248.29 498.34 248.02 498.45 247.7 498.45C247.38 498.45 247.09 498.34 246.86 498.11ZM248.54 500.15V510.56H246.81V500.15H248.54Z" fill="#424242"/>
<path d="M253.02 510.32C252.39 510.05 251.89 509.67 251.52 509.18C251.15 508.69 250.95 508.13 250.91 507.5H252.7C252.75 508.02 252.99 508.44 253.43 508.77C253.87 509.1 254.44 509.26 255.15 509.26C255.81 509.26 256.33 509.11 256.71 508.82C257.09 508.53 257.28 508.16 257.28 507.72C257.28 507.28 257.08 506.93 256.67 506.7C256.26 506.48 255.64 506.26 254.79 506.04C254.02 505.84 253.39 505.63 252.9 505.42C252.41 505.21 251.99 504.9 251.65 504.49C251.3 504.08 251.13 503.54 251.13 502.87C251.13 502.34 251.29 501.85 251.61 501.41C251.93 500.97 252.38 500.62 252.96 500.36C253.54 500.1 254.21 499.97 254.96 499.97C256.11 499.97 257.04 500.26 257.75 500.84C258.46 501.42 258.84 502.22 258.89 503.23H257.16C257.12 502.69 256.9 502.25 256.5 501.92C256.1 501.59 255.57 501.43 254.89 501.43C254.27 501.43 253.77 501.56 253.41 501.83C253.04 502.1 252.86 502.44 252.86 502.87C252.86 503.21 252.97 503.49 253.19 503.72C253.41 503.95 253.69 504.12 254.03 504.25C254.37 504.38 254.83 504.53 255.43 504.7C256.18 504.9 256.78 505.1 257.25 505.3C257.72 505.5 258.12 505.79 258.46 506.18C258.79 506.57 258.97 507.09 258.98 507.72C258.98 508.29 258.82 508.8 258.5 509.26C258.18 509.72 257.74 510.07 257.16 510.33C256.58 510.59 255.92 510.72 255.17 510.72C254.37 510.72 253.66 510.58 253.02 510.31V510.32Z" fill="#424242"/>
<path d="M275.71 500.15V510.56H273.98V509.02C273.65 509.55 273.19 509.97 272.6 510.26C272.01 510.56 271.36 510.71 270.65 510.71C269.84 510.71 269.11 510.54 268.47 510.21C267.82 509.88 267.31 509.37 266.94 508.7C266.57 508.03 266.38 507.21 266.38 506.25V500.15H268.09V506.02C268.09 507.05 268.35 507.83 268.87 508.39C269.39 508.94 270.1 509.22 271 509.22C271.9 509.22 272.65 508.93 273.18 508.36C273.71 507.79 273.98 506.96 273.98 505.87V500.15H275.71Z" fill="#424242"/>
<path d="M293.32 500.46C293.95 500.8 294.45 501.3 294.82 501.97C295.19 502.64 295.37 503.46 295.37 504.42V510.56H293.66V504.67C293.66 503.63 293.4 502.84 292.89 502.29C292.38 501.74 291.68 501.46 290.81 501.46C289.94 501.46 289.2 501.75 288.66 502.32C288.12 502.89 287.86 503.73 287.86 504.82V510.56H286.15V504.67C286.15 503.63 285.89 502.84 285.38 502.29C284.87 501.74 284.17 501.46 283.3 501.46C282.43 501.46 281.69 501.75 281.15 502.32C280.61 502.89 280.35 503.73 280.35 504.82V510.56H278.62V500.15H280.35V501.65C280.69 501.11 281.15 500.69 281.73 500.4C282.31 500.11 282.94 499.96 283.64 499.96C284.51 499.96 285.29 500.16 285.96 500.55C286.63 500.94 287.13 501.52 287.46 502.28C287.75 501.55 288.23 500.98 288.9 500.57C289.57 500.16 290.32 499.96 291.14 499.96C291.96 499.96 292.67 500.13 293.31 500.46H293.32Z" fill="#424242"/>
<path d="M298.2 502.51C298.63 501.71 299.22 501.08 299.98 500.64C300.74 500.2 301.57 499.97 302.5 499.97C303.43 499.97 304.2 500.17 304.88 500.56C305.55 500.95 306.05 501.45 306.38 502.04V500.14H308.13V510.55H306.38V508.61C306.04 509.22 305.53 509.72 304.85 510.12C304.17 510.52 303.38 510.72 302.48 510.72C301.58 510.72 300.72 510.49 299.97 510.04C299.22 509.58 298.63 508.94 298.2 508.12C297.77 507.3 297.55 506.36 297.55 505.31C297.55 504.26 297.76 503.31 298.2 502.51ZM305.9 503.28C305.58 502.7 305.16 502.25 304.62 501.94C304.08 501.63 303.49 501.47 302.84 501.47C302.19 501.47 301.61 501.62 301.07 501.93C300.53 502.24 300.11 502.68 299.8 503.26C299.49 503.84 299.33 504.53 299.33 505.31C299.33 506.09 299.49 506.8 299.8 507.39C300.12 507.98 300.54 508.43 301.07 508.74C301.6 509.05 302.19 509.21 302.84 509.21C303.49 509.21 304.08 509.05 304.62 508.74C305.16 508.43 305.58 507.98 305.9 507.39C306.22 506.8 306.37 506.11 306.37 505.33C306.37 504.55 306.21 503.86 305.9 503.28Z" fill="#424242"/>
<path d="M320 508.96L323.23 500.14H325.07L320.99 510.55H318.98L314.89 500.14H316.75L320 508.96Z" fill="#424242"/>
<path d="M336.22 506H327.9C327.96 507.03 328.32 507.83 328.95 508.4C329.58 508.97 330.37 509.26 331.28 509.26C332.03 509.26 332.65 509.09 333.15 508.74C333.65 508.39 334 507.93 334.2 507.34H336.06C335.78 508.34 335.22 509.15 334.39 509.78C333.56 510.41 332.51 510.72 331.27 510.72C330.28 510.72 329.4 510.5 328.62 510.05C327.84 509.6 327.23 508.98 326.79 508.16C326.35 507.34 326.12 506.4 326.12 505.32C326.12 504.24 326.33 503.3 326.77 502.49C327.21 501.68 327.81 501.06 328.58 500.62C329.36 500.18 330.25 499.96 331.27 499.96C332.29 499.96 333.13 500.18 333.89 500.61C334.65 501.04 335.24 501.63 335.65 502.39C336.06 503.14 336.27 504 336.27 504.94C336.27 505.27 336.25 505.62 336.21 505.99L336.22 506ZM334.06 502.89C333.77 502.41 333.37 502.05 332.87 501.81C332.37 501.56 331.82 501.44 331.21 501.44C330.34 501.44 329.59 501.72 328.98 502.28C328.37 502.84 328.01 503.61 327.93 504.6H334.5C334.5 503.94 334.35 503.37 334.06 502.9V502.89Z" fill="#424242"/>
<path d="M339.85 509.13H344.96V510.55H337.87V509.13L342.92 501.55H337.9V500.14H344.91V501.55L339.84 509.13H339.85Z" fill="#424242"/>
<path d="M352.28 502.51C352.71 501.71 353.3 501.08 354.06 500.64C354.82 500.2 355.65 499.97 356.58 499.97C357.51 499.97 358.28 500.17 358.96 500.56C359.63 500.95 360.13 501.45 360.46 502.04V500.14H362.21V510.55H360.46V508.61C360.12 509.22 359.61 509.72 358.93 510.12C358.25 510.52 357.46 510.72 356.56 510.72C355.66 510.72 354.8 510.49 354.05 510.04C353.3 509.58 352.71 508.94 352.28 508.12C351.85 507.3 351.63 506.36 351.63 505.31C351.63 504.26 351.84 503.31 352.28 502.51ZM359.97 503.28C359.65 502.7 359.23 502.25 358.69 501.94C358.15 501.63 357.56 501.47 356.91 501.47C356.26 501.47 355.68 501.62 355.14 501.93C354.6 502.24 354.18 502.68 353.87 503.26C353.56 503.84 353.4 504.53 353.4 505.31C353.4 506.09 353.56 506.8 353.87 507.39C354.19 507.98 354.61 508.43 355.14 508.74C355.67 509.05 356.26 509.21 356.91 509.21C357.56 509.21 358.15 509.05 358.69 508.74C359.23 508.43 359.65 507.98 359.97 507.39C360.29 506.8 360.44 506.11 360.44 505.33C360.44 504.55 360.28 503.86 359.97 503.28Z" fill="#424242"/>
<path d="M367.01 510.07C366.22 509.63 365.6 509 365.15 508.18C364.7 507.36 364.48 506.42 364.48 505.34C364.48 504.26 364.71 503.34 365.17 502.52C365.63 501.7 366.26 501.08 367.06 500.64C367.86 500.2 368.75 499.98 369.74 499.98C370.73 499.98 371.62 500.2 372.42 500.64C373.22 501.08 373.85 501.7 374.31 502.51C374.77 503.32 375 504.26 375 505.34C375 506.42 374.76 507.36 374.29 508.18C373.81 509 373.17 509.63 372.36 510.07C371.55 510.51 370.65 510.74 369.66 510.74C368.67 510.74 367.8 510.52 367.01 510.07ZM371.41 508.77C371.95 508.48 372.39 508.04 372.73 507.46C373.07 506.88 373.23 506.17 373.23 505.33C373.23 504.49 373.06 503.78 372.74 503.2C372.41 502.62 371.98 502.18 371.45 501.9C370.92 501.62 370.34 501.47 369.72 501.47C369.1 501.47 368.51 501.61 367.98 501.9C367.45 502.19 367.03 502.62 366.72 503.2C366.4 503.78 366.25 504.49 366.25 505.33C366.25 506.17 366.41 506.89 366.72 507.48C367.03 508.06 367.44 508.5 367.96 508.78C368.48 509.06 369.05 509.21 369.67 509.21C370.29 509.21 370.87 509.06 371.42 508.77H371.41Z" fill="#424242"/>
<path d="M397.04 500.46C397.67 500.8 398.17 501.3 398.54 501.97C398.91 502.64 399.09 503.46 399.09 504.42V510.56H397.38V504.67C397.38 503.63 397.12 502.84 396.61 502.29C396.1 501.74 395.4 501.46 394.53 501.46C393.66 501.46 392.92 501.75 392.38 502.32C391.84 502.89 391.58 503.73 391.58 504.82V510.56H389.87V504.67C389.87 503.63 389.61 502.84 389.1 502.29C388.59 501.74 387.89 501.46 387.02 501.46C386.15 501.46 385.41 501.75 384.87 502.32C384.33 502.89 384.07 503.73 384.07 504.82V510.56H382.34V500.15H384.07V501.65C384.41 501.11 384.87 500.69 385.45 500.4C386.03 500.11 386.66 499.96 387.36 499.96C388.23 499.96 389.01 500.16 389.68 500.55C390.35 500.94 390.85 501.52 391.18 502.28C391.47 501.55 391.95 500.98 392.62 500.57C393.29 500.16 394.04 499.96 394.86 499.96C395.68 499.96 396.39 500.13 397.03 500.46H397.04Z" fill="#424242"/>
<path d="M411.37 506H403.05C403.11 507.03 403.47 507.83 404.1 508.4C404.73 508.97 405.52 509.26 406.43 509.26C407.18 509.26 407.8 509.09 408.3 508.74C408.8 508.39 409.15 507.93 409.35 507.34H411.21C410.93 508.34 410.37 509.15 409.54 509.78C408.71 510.41 407.66 510.72 406.42 510.72C405.43 510.72 404.55 510.5 403.77 510.05C402.99 509.6 402.38 508.98 401.94 508.16C401.5 507.34 401.27 506.4 401.27 505.32C401.27 504.24 401.48 503.3 401.92 502.49C402.36 501.68 402.96 501.06 403.73 500.62C404.51 500.18 405.4 499.96 406.42 499.96C407.44 499.96 408.28 500.18 409.04 500.61C409.8 501.04 410.39 501.63 410.8 502.39C411.21 503.14 411.42 504 411.42 504.94C411.42 505.27 411.4 505.62 411.36 505.99L411.37 506ZM409.2 502.89C408.91 502.41 408.51 502.05 408.01 501.81C407.51 501.56 406.96 501.44 406.35 501.44C405.48 501.44 404.73 501.72 404.12 502.28C403.51 502.84 403.15 503.61 403.07 504.6H409.64C409.64 503.94 409.49 503.37 409.2 502.9V502.89Z" fill="#424242"/>
<path d="M413.76 498.11C413.53 497.88 413.42 497.6 413.42 497.27C413.42 496.94 413.53 496.66 413.76 496.43C413.99 496.2 414.27 496.09 414.6 496.09C414.93 496.09 415.18 496.2 415.41 496.43C415.63 496.66 415.74 496.94 415.74 497.27C415.74 497.6 415.63 497.88 415.41 498.11C415.19 498.34 414.92 498.45 414.6 498.45C414.28 498.45 413.99 498.34 413.76 498.11ZM415.43 500.15V510.56H413.7V500.15H415.43Z" fill="#424242"/>
<path d="M420.27 510.07C419.48 509.63 418.86 509 418.41 508.18C417.96 507.36 417.74 506.42 417.74 505.34C417.74 504.26 417.97 503.34 418.43 502.52C418.89 501.7 419.52 501.08 420.32 500.64C421.12 500.2 422.01 499.98 423 499.98C423.99 499.98 424.88 500.2 425.68 500.64C426.48 501.08 427.11 501.7 427.57 502.51C428.03 503.32 428.26 504.26 428.26 505.34C428.26 506.42 428.02 507.36 427.55 508.18C427.07 509 426.43 509.63 425.62 510.07C424.81 510.51 423.91 510.74 422.92 510.74C421.93 510.74 421.06 510.52 420.27 510.07ZM424.67 508.77C425.21 508.48 425.65 508.04 425.99 507.46C426.33 506.88 426.49 506.17 426.49 505.33C426.49 504.49 426.32 503.78 426 503.2C425.67 502.62 425.24 502.18 424.71 501.9C424.18 501.62 423.6 501.47 422.98 501.47C422.36 501.47 421.77 501.61 421.24 501.9C420.71 502.19 420.29 502.62 419.98 503.2C419.66 503.78 419.51 504.49 419.51 505.33C419.51 506.17 419.67 506.89 419.98 507.48C420.29 508.06 420.7 508.5 421.22 508.78C421.74 509.06 422.31 509.21 422.93 509.21C423.55 509.21 424.13 509.06 424.68 508.77H424.67Z" fill="#424242"/>
<path d="M432.32 508.17L430.19 513.28H429.03L430.42 508.17H432.32Z" fill="#424242"/>
<path d="M439.37 502.51C439.8 501.71 440.39 501.08 441.15 500.64C441.91 500.2 442.74 499.97 443.67 499.97C444.6 499.97 445.37 500.17 446.05 500.56C446.72 500.95 447.22 501.45 447.55 502.04V500.14H449.3V510.55H447.55V508.61C447.21 509.22 446.7 509.72 446.02 510.12C445.34 510.52 444.55 510.72 443.65 510.72C442.75 510.72 441.89 510.49 441.14 510.04C440.39 509.58 439.8 508.94 439.37 508.12C438.94 507.3 438.72 506.36 438.72 505.31C438.72 504.26 438.93 503.31 439.37 502.51ZM447.07 503.28C446.75 502.7 446.33 502.25 445.79 501.94C445.25 501.63 444.66 501.47 444.01 501.47C443.36 501.47 442.78 501.62 442.24 501.93C441.7 502.24 441.28 502.68 440.97 503.26C440.66 503.84 440.5 504.53 440.5 505.31C440.5 506.09 440.66 506.8 440.97 507.39C441.29 507.98 441.71 508.43 442.24 508.74C442.77 509.05 443.36 509.21 444.01 509.21C444.66 509.21 445.25 509.05 445.79 508.74C446.33 508.43 446.75 507.98 447.07 507.39C447.39 506.8 447.54 506.11 447.54 505.33C447.54 504.55 447.38 503.86 447.07 503.28Z" fill="#424242"/>
<path d="M455.47 500.58C456.15 500.18 456.94 499.98 457.84 499.98C458.74 499.98 459.6 500.2 460.36 500.65C461.12 501.1 461.71 501.72 462.14 502.52C462.57 503.32 462.79 504.26 462.79 505.32C462.79 506.38 462.57 507.31 462.14 508.13C461.71 508.95 461.12 509.59 460.36 510.05C459.6 510.51 458.77 510.73 457.84 510.73C456.91 510.73 456.17 510.53 455.49 510.13C454.81 509.73 454.3 509.23 453.94 508.64V515.5H452.21V500.15H453.94V502.07C454.28 501.48 454.79 500.98 455.47 500.58ZM460.54 503.26C460.22 502.68 459.8 502.23 459.26 501.93C458.72 501.63 458.13 501.47 457.48 501.47C456.83 501.47 456.26 501.63 455.72 501.94C455.18 502.25 454.75 502.7 454.43 503.29C454.11 503.88 453.95 504.56 453.95 505.33C453.95 506.1 454.11 506.8 454.43 507.39C454.75 507.98 455.18 508.43 455.72 508.74C456.26 509.05 456.84 509.21 457.48 509.21C458.12 509.21 458.72 509.05 459.26 508.74C459.8 508.43 460.22 507.98 460.54 507.39C460.86 506.8 461.01 506.11 461.01 505.31C461.01 504.51 460.85 503.84 460.54 503.26Z" fill="#424242"/>
<path d="M474.5 506H466.18C466.24 507.03 466.6 507.83 467.23 508.4C467.86 508.97 468.65 509.26 469.56 509.26C470.31 509.26 470.93 509.09 471.43 508.74C471.93 508.39 472.28 507.93 472.48 507.34H474.34C474.06 508.34 473.5 509.15 472.67 509.78C471.84 510.41 470.79 510.72 469.55 510.72C468.56 510.72 467.68 510.5 466.9 510.05C466.12 509.6 465.51 508.98 465.07 508.16C464.63 507.34 464.4 506.4 464.4 505.32C464.4 504.24 464.61 503.3 465.05 502.49C465.49 501.68 466.09 501.06 466.86 500.62C467.64 500.18 468.53 499.96 469.55 499.96C470.57 499.96 471.41 500.18 472.17 500.61C472.93 501.04 473.52 501.63 473.93 502.39C474.34 503.14 474.55 504 474.55 504.94C474.55 505.27 474.53 505.62 474.49 505.99L474.5 506ZM472.34 502.89C472.05 502.41 471.65 502.05 471.15 501.81C470.65 501.56 470.1 501.44 469.49 501.44C468.62 501.44 467.87 501.72 467.26 502.28C466.65 502.84 466.29 503.61 466.21 504.6H472.78C472.78 503.94 472.63 503.37 472.34 502.9V502.89Z" fill="#424242"/>
<path d="M484.99 501.11C485.78 501.88 486.17 502.98 486.17 504.43V510.57H484.46V504.68C484.46 503.64 484.2 502.85 483.68 502.3C483.16 501.75 482.45 501.47 481.55 501.47C480.65 501.47 479.91 501.75 479.37 502.32C478.83 502.89 478.56 503.72 478.56 504.81V510.57H476.83V500.16H478.56V501.64C478.9 501.11 479.37 500.7 479.96 500.4C480.55 500.11 481.2 499.96 481.91 499.96C483.18 499.96 484.2 500.34 484.99 501.11Z" fill="#424242"/>
<path d="M489 502.51C489.43 501.71 490.02 501.08 490.78 500.64C491.54 500.2 492.37 499.97 493.3 499.97C494.23 499.97 495 500.17 495.68 500.56C496.35 500.95 496.85 501.45 497.18 502.04V500.14H498.93V510.55H497.18V508.61C496.84 509.22 496.33 509.72 495.65 510.12C494.97 510.52 494.18 510.72 493.28 510.72C492.38 510.72 491.52 510.49 490.77 510.04C490.02 509.58 489.43 508.94 489 508.12C488.57 507.3 488.35 506.36 488.35 505.31C488.35 504.26 488.56 503.31 489 502.51ZM496.69 503.28C496.37 502.7 495.95 502.25 495.41 501.94C494.87 501.63 494.28 501.47 493.63 501.47C492.98 501.47 492.4 501.62 491.86 501.93C491.32 502.24 490.9 502.68 490.59 503.26C490.28 503.84 490.12 504.53 490.12 505.31C490.12 506.09 490.28 506.8 490.59 507.39C490.91 507.98 491.33 508.43 491.86 508.74C492.39 509.05 492.98 509.21 493.63 509.21C494.28 509.21 494.87 509.05 495.41 508.74C495.95 508.43 496.37 507.98 496.69 507.39C497.01 506.8 497.16 506.11 497.16 505.33C497.16 504.55 497 503.86 496.69 503.28Z" fill="#424242"/>
<path d="M503.38 510.32C502.75 510.05 502.25 509.67 501.88 509.18C501.51 508.69 501.31 508.13 501.27 507.5H503.06C503.11 508.02 503.35 508.44 503.79 508.77C504.23 509.1 504.8 509.26 505.51 509.26C506.17 509.26 506.69 509.11 507.07 508.82C507.45 508.53 507.64 508.16 507.64 507.72C507.64 507.28 507.44 506.93 507.03 506.7C506.62 506.48 506 506.26 505.15 506.04C504.38 505.84 503.75 505.63 503.26 505.42C502.77 505.21 502.35 504.9 502.01 504.49C501.66 504.08 501.49 503.54 501.49 502.87C501.49 502.34 501.65 501.85 501.97 501.41C502.29 500.97 502.74 500.62 503.32 500.36C503.9 500.1 504.57 499.97 505.32 499.97C506.47 499.97 507.4 500.26 508.11 500.84C508.82 501.42 509.2 502.22 509.25 503.23H507.52C507.48 502.69 507.26 502.25 506.86 501.92C506.46 501.59 505.93 501.43 505.25 501.43C504.63 501.43 504.13 501.56 503.77 501.83C503.4 502.1 503.22 502.44 503.22 502.87C503.22 503.21 503.33 503.49 503.55 503.72C503.77 503.95 504.05 504.12 504.39 504.25C504.73 504.38 505.19 504.53 505.79 504.7C506.54 504.9 507.14 505.1 507.61 505.3C508.08 505.5 508.48 505.79 508.82 506.18C509.15 506.57 509.33 507.09 509.34 507.72C509.34 508.29 509.18 508.8 508.86 509.26C508.54 509.72 508.1 510.07 507.52 510.33C506.94 510.59 506.28 510.72 505.53 510.72C504.73 510.72 504.02 510.58 503.38 510.31V510.32Z" fill="#424242"/>
<path d="M203.74 523.38C204.42 522.98 205.21 522.78 206.11 522.78C207.01 522.78 207.87 523 208.63 523.45C209.39 523.9 209.98 524.52 210.41 525.32C210.84 526.12 211.06 527.06 211.06 528.12C211.06 529.18 210.84 530.11 210.41 530.93C209.98 531.75 209.39 532.39 208.63 532.85C207.87 533.31 207.04 533.53 206.11 533.53C205.18 533.53 204.44 533.33 203.76 532.93C203.08 532.53 202.57 532.03 202.21 531.44V538.3H200.48V522.95H202.21V524.87C202.55 524.28 203.06 523.78 203.74 523.38ZM208.8 526.06C208.48 525.48 208.06 525.03 207.52 524.73C206.98 524.43 206.39 524.27 205.74 524.27C205.09 524.27 204.52 524.43 203.98 524.74C203.44 525.05 203.01 525.5 202.69 526.09C202.37 526.68 202.21 527.36 202.21 528.13C202.21 528.9 202.37 529.6 202.69 530.19C203.01 530.78 203.44 531.23 203.98 531.54C204.52 531.85 205.1 532.01 205.74 532.01C206.38 532.01 206.98 531.85 207.52 531.54C208.06 531.23 208.48 530.78 208.8 530.19C209.12 529.6 209.27 528.91 209.27 528.11C209.27 527.31 209.11 526.64 208.8 526.06Z" fill="#424242"/>
<path d="M213.32 525.31C213.75 524.51 214.34 523.88 215.1 523.44C215.86 523 216.69 522.77 217.62 522.77C218.55 522.77 219.32 522.97 220 523.36C220.67 523.75 221.17 524.25 221.5 524.84V522.94H223.25V533.35H221.5V531.41C221.16 532.02 220.65 532.52 219.97 532.92C219.29 533.32 218.5 533.52 217.6 533.52C216.7 533.52 215.84 533.29 215.09 532.84C214.34 532.38 213.75 531.74 213.32 530.92C212.89 530.1 212.67 529.16 212.67 528.11C212.67 527.06 212.88 526.11 213.32 525.31ZM221.02 526.08C220.7 525.5 220.28 525.05 219.74 524.74C219.2 524.43 218.61 524.27 217.96 524.27C217.31 524.27 216.73 524.42 216.19 524.73C215.65 525.04 215.23 525.48 214.92 526.06C214.61 526.64 214.45 527.33 214.45 528.11C214.45 528.89 214.61 529.6 214.92 530.19C215.24 530.78 215.66 531.23 216.19 531.54C216.72 531.85 217.31 532.01 217.96 532.01C218.61 532.01 219.2 531.85 219.74 531.54C220.28 531.23 220.7 530.78 221.02 530.19C221.34 529.6 221.49 528.91 221.49 528.13C221.49 527.35 221.33 526.66 221.02 526.08Z" fill="#424242"/>
<path d="M229.2 523.25C229.76 522.92 230.45 522.76 231.26 522.76V524.55H230.8C228.86 524.55 227.89 525.6 227.89 527.7V533.36H226.16V522.95H227.89V524.64C228.19 524.04 228.63 523.58 229.19 523.25H229.2Z" fill="#424242"/>
<path d="M233.25 525.31C233.68 524.51 234.27 523.88 235.03 523.44C235.79 523 236.62 522.77 237.55 522.77C238.48 522.77 239.25 522.97 239.93 523.36C240.6 523.75 241.1 524.25 241.43 524.84V522.94H243.18V533.35H241.43V531.41C241.09 532.02 240.58 532.52 239.9 532.92C239.22 533.32 238.43 533.52 237.53 533.52C236.63 533.52 235.77 533.29 235.02 532.84C234.27 532.38 233.68 531.74 233.25 530.92C232.82 530.1 232.6 529.16 232.6 528.11C232.6 527.06 232.81 526.11 233.25 525.31ZM240.95 526.08C240.63 525.5 240.21 525.05 239.67 524.74C239.13 524.43 238.54 524.27 237.89 524.27C237.24 524.27 236.66 524.42 236.12 524.73C235.58 525.04 235.16 525.48 234.85 526.06C234.54 526.64 234.38 527.33 234.38 528.11C234.38 528.89 234.54 529.6 234.85 530.19C235.17 530.78 235.59 531.23 236.12 531.54C236.65 531.85 237.24 532.01 237.89 532.01C238.54 532.01 239.13 531.85 239.67 531.54C240.21 531.23 240.63 530.78 240.95 530.19C241.27 529.6 241.42 528.91 241.42 528.13C241.42 527.35 241.26 526.66 240.95 526.08Z" fill="#424242"/>
<path d="M265.86 523.26C266.49 523.6 266.99 524.1 267.36 524.77C267.73 525.44 267.91 526.26 267.91 527.22V533.36H266.2V527.47C266.2 526.43 265.94 525.64 265.43 525.09C264.92 524.54 264.22 524.26 263.35 524.26C262.48 524.26 261.74 524.55 261.2 525.12C260.66 525.69 260.4 526.53 260.4 527.62V533.36H258.69V527.47C258.69 526.43 258.43 525.64 257.92 525.09C257.41 524.54 256.71 524.26 255.84 524.26C254.97 524.26 254.23 524.55 253.69 525.12C253.15 525.69 252.89 526.53 252.89 527.62V533.36H251.16V522.95H252.89V524.45C253.23 523.91 253.69 523.49 254.27 523.2C254.85 522.91 255.48 522.76 256.18 522.76C257.05 522.76 257.83 522.96 258.5 523.35C259.17 523.74 259.67 524.32 260 525.08C260.29 524.35 260.77 523.78 261.44 523.37C262.11 522.96 262.86 522.76 263.68 522.76C264.5 522.76 265.21 522.93 265.85 523.26H265.86Z" fill="#424242"/>
<path d="M270.74 525.31C271.17 524.51 271.76 523.88 272.52 523.44C273.28 523 274.11 522.77 275.04 522.77C275.97 522.77 276.74 522.97 277.42 523.36C278.09 523.75 278.59 524.25 278.92 524.84V522.94H280.67V533.35H278.92V531.41C278.58 532.02 278.07 532.52 277.39 532.92C276.71 533.32 275.92 533.52 275.02 533.52C274.12 533.52 273.26 533.29 272.51 532.84C271.76 532.38 271.17 531.74 270.74 530.92C270.31 530.1 270.09 529.16 270.09 528.11C270.09 527.06 270.3 526.11 270.74 525.31ZM278.43 526.08C278.11 525.5 277.69 525.05 277.15 524.74C276.61 524.43 276.02 524.27 275.37 524.27C274.72 524.27 274.14 524.42 273.6 524.73C273.06 525.04 272.64 525.48 272.33 526.06C272.02 526.64 271.86 527.33 271.86 528.11C271.86 528.89 272.02 529.6 272.33 530.19C272.65 530.78 273.07 531.23 273.6 531.54C274.13 531.85 274.72 532.01 275.37 532.01C276.02 532.01 276.61 531.85 277.15 531.54C277.69 531.23 278.11 530.78 278.43 530.19C278.75 529.6 278.9 528.91 278.9 528.13C278.9 527.35 278.74 526.66 278.43 526.08Z" fill="#424242"/>
<path d="M286.61 523.25C287.17 522.92 287.86 522.76 288.67 522.76V524.55H288.21C286.27 524.55 285.3 525.6 285.3 527.7V533.36H283.57V522.95H285.3V524.64C285.6 524.04 286.04 523.58 286.6 523.25H286.61Z" fill="#424242"/>
<path d="M290.67 525.31C291.1 524.51 291.7 523.88 292.47 523.44C293.24 523 294.11 522.77 295.1 522.77C296.38 522.77 297.43 523.08 298.26 523.7C299.09 524.32 299.64 525.18 299.9 526.28H298.04C297.86 525.65 297.52 525.15 297 524.78C296.49 524.41 295.85 524.23 295.09 524.23C294.1 524.23 293.3 524.57 292.7 525.25C292.09 525.93 291.79 526.89 291.79 528.13C291.79 529.37 292.09 530.35 292.7 531.04C293.31 531.72 294.11 532.07 295.09 532.07C295.85 532.07 296.48 531.89 296.99 531.54C297.5 531.19 297.84 530.68 298.03 530.02H299.89C299.61 531.08 299.05 531.94 298.22 532.58C297.39 533.22 296.34 533.54 295.08 533.54C294.09 533.54 293.21 533.32 292.45 532.87C291.68 532.43 291.08 531.8 290.65 530.99C290.22 530.18 290 529.23 290 528.14C290 527.05 290.21 526.12 290.65 525.32L290.67 525.31Z" fill="#424242"/>
<path d="M302.2 525.31C302.63 524.51 303.22 523.88 303.98 523.44C304.74 523 305.57 522.77 306.5 522.77C307.43 522.77 308.2 522.97 308.88 523.36C309.55 523.75 310.05 524.25 310.38 524.84V522.94H312.13V533.35H310.38V531.41C310.04 532.02 309.53 532.52 308.85 532.92C308.17 533.32 307.38 533.52 306.48 533.52C305.58 533.52 304.72 533.29 303.97 532.84C303.22 532.38 302.63 531.74 302.2 530.92C301.77 530.1 301.55 529.16 301.55 528.11C301.55 527.06 301.76 526.11 302.2 525.31ZM309.9 526.08C309.58 525.5 309.16 525.05 308.62 524.74C308.08 524.43 307.49 524.27 306.84 524.27C306.19 524.27 305.61 524.42 305.07 524.73C304.53 525.04 304.11 525.48 303.8 526.06C303.49 526.64 303.33 527.33 303.33 528.11C303.33 528.89 303.49 529.6 303.8 530.19C304.12 530.78 304.54 531.23 305.07 531.54C305.6 531.85 306.19 532.01 306.84 532.01C307.49 532.01 308.08 531.85 308.62 531.54C309.16 531.23 309.58 530.78 309.9 530.19C310.22 529.6 310.37 528.91 310.37 528.13C310.37 527.35 310.21 526.66 309.9 526.08Z" fill="#424242"/>
<path d="M318.08 523.25C318.64 522.92 319.33 522.76 320.14 522.76V524.55H319.68C317.74 524.55 316.77 525.6 316.77 527.7V533.36H315.04V522.95H316.77V524.64C317.07 524.04 317.51 523.58 318.07 523.25H318.08Z" fill="#424242"/>
<path d="M329.1 532.87C328.31 532.43 327.69 531.8 327.24 530.98C326.79 530.16 326.57 529.22 326.57 528.14C326.57 527.06 326.8 526.14 327.26 525.32C327.72 524.5 328.35 523.88 329.15 523.44C329.95 523 330.84 522.78 331.83 522.78C332.82 522.78 333.71 523 334.51 523.44C335.31 523.88 335.94 524.5 336.4 525.31C336.86 526.12 337.09 527.06 337.09 528.14C337.09 529.22 336.85 530.16 336.38 530.98C335.9 531.8 335.26 532.43 334.45 532.87C333.64 533.31 332.74 533.54 331.75 533.54C330.76 533.54 329.89 533.32 329.1 532.87ZM333.5 531.57C334.04 531.28 334.48 530.84 334.82 530.26C335.16 529.68 335.32 528.97 335.32 528.13C335.32 527.29 335.15 526.58 334.83 526C334.5 525.42 334.07 524.98 333.54 524.7C333.01 524.42 332.43 524.27 331.81 524.27C331.19 524.27 330.6 524.41 330.07 524.7C329.54 524.99 329.12 525.42 328.81 526C328.49 526.58 328.34 527.29 328.34 528.13C328.34 528.97 328.5 529.69 328.81 530.28C329.12 530.86 329.53 531.3 330.05 531.58C330.57 531.86 331.14 532.01 331.76 532.01C332.38 532.01 332.96 531.86 333.51 531.57H333.5Z" fill="#424242"/>
<path d="M344.44 525.31C344.87 524.51 345.47 523.88 346.24 523.44C347.01 523 347.88 522.77 348.87 522.77C350.15 522.77 351.2 523.08 352.03 523.7C352.86 524.32 353.41 525.18 353.67 526.28H351.81C351.63 525.65 351.29 525.15 350.77 524.78C350.26 524.41 349.62 524.23 348.86 524.23C347.87 524.23 347.07 524.57 346.47 525.25C345.86 525.93 345.56 526.89 345.56 528.13C345.56 529.37 345.86 530.35 346.47 531.04C347.08 531.72 347.88 532.07 348.86 532.07C349.62 532.07 350.25 531.89 350.76 531.54C351.27 531.19 351.61 530.68 351.8 530.02H353.66C353.38 531.08 352.82 531.94 351.99 532.58C351.16 533.22 350.11 533.54 348.85 533.54C347.86 533.54 346.98 533.32 346.22 532.87C345.45 532.43 344.85 531.8 344.42 530.99C343.99 530.18 343.77 529.23 343.77 528.14C343.77 527.05 343.98 526.12 344.42 525.32L344.44 525.31Z" fill="#424242"/>
<path d="M365.42 528.8H357.1C357.16 529.83 357.52 530.63 358.15 531.2C358.78 531.77 359.57 532.06 360.48 532.06C361.23 532.06 361.85 531.89 362.35 531.54C362.85 531.19 363.2 530.73 363.4 530.14H365.26C364.98 531.14 364.42 531.95 363.59 532.58C362.76 533.21 361.71 533.52 360.47 533.52C359.48 533.52 358.6 533.3 357.82 532.85C357.04 532.4 356.43 531.78 355.99 530.96C355.55 530.14 355.32 529.2 355.32 528.12C355.32 527.04 355.53 526.1 355.97 525.29C356.41 524.48 357.01 523.86 357.78 523.42C358.56 522.98 359.45 522.76 360.47 522.76C361.49 522.76 362.33 522.98 363.09 523.41C363.85 523.84 364.44 524.43 364.85 525.19C365.26 525.94 365.47 526.8 365.47 527.74C365.47 528.07 365.45 528.42 365.41 528.79L365.42 528.8ZM363.25 525.69C362.96 525.21 362.56 524.85 362.06 524.61C361.56 524.36 361.01 524.24 360.4 524.24C359.53 524.24 358.78 524.52 358.17 525.08C357.56 525.64 357.2 526.41 357.12 527.4H363.69C363.69 526.74 363.54 526.17 363.25 525.7V525.69Z" fill="#424242"/>
<path d="M375.9 523.91C376.69 524.68 377.08 525.78 377.08 527.23V533.37H375.37V527.48C375.37 526.44 375.11 525.65 374.59 525.1C374.07 524.55 373.36 524.27 372.46 524.27C371.56 524.27 370.82 524.55 370.28 525.12C369.74 525.69 369.47 526.52 369.47 527.61V533.37H367.74V522.96H369.47V524.44C369.81 523.91 370.28 523.5 370.87 523.2C371.46 522.91 372.11 522.76 372.82 522.76C374.09 522.76 375.11 523.14 375.9 523.91Z" fill="#424242"/>
<path d="M382.02 524.37V530.51C382.02 531.02 382.13 531.37 382.34 531.58C382.56 531.79 382.93 531.89 383.46 531.89H384.73V533.35H383.17C382.21 533.35 381.48 533.13 381 532.68C380.52 532.24 380.28 531.51 380.28 530.5V524.36H378.93V522.94H380.28V520.32H382.01V522.94H384.73V524.36H382.01L382.02 524.37Z" fill="#424242"/>
<path d="M389.86 523.25C390.42 522.92 391.11 522.76 391.92 522.76V524.55H391.46C389.52 524.55 388.55 525.6 388.55 527.7V533.36H386.82V522.95H388.55V524.64C388.85 524.04 389.29 523.58 389.85 523.25H389.86Z" fill="#424242"/>
<path d="M395.8 532.87C395.01 532.43 394.39 531.8 393.94 530.98C393.49 530.16 393.27 529.22 393.27 528.14C393.27 527.06 393.5 526.14 393.96 525.32C394.42 524.5 395.05 523.88 395.85 523.44C396.65 523 397.54 522.78 398.53 522.78C399.52 522.78 400.41 523 401.21 523.44C402.01 523.88 402.64 524.5 403.1 525.31C403.56 526.12 403.79 527.06 403.79 528.14C403.79 529.22 403.55 530.16 403.08 530.98C402.6 531.8 401.96 532.43 401.15 532.87C400.34 533.31 399.44 533.54 398.45 533.54C397.46 533.54 396.59 533.32 395.8 532.87ZM400.2 531.57C400.74 531.28 401.18 530.84 401.52 530.26C401.86 529.68 402.02 528.97 402.02 528.13C402.02 527.29 401.85 526.58 401.53 526C401.2 525.42 400.77 524.98 400.24 524.7C399.71 524.42 399.13 524.27 398.51 524.27C397.89 524.27 397.3 524.41 396.77 524.7C396.24 524.99 395.82 525.42 395.51 526C395.19 526.58 395.04 527.29 395.04 528.13C395.04 528.97 395.2 529.69 395.51 530.28C395.82 530.86 396.23 531.3 396.75 531.58C397.27 531.86 397.84 532.01 398.46 532.01C399.08 532.01 399.66 531.86 400.21 531.57H400.2Z" fill="#424242"/>
<path d="M405.79 533.13C405.56 532.9 405.45 532.62 405.45 532.29C405.45 531.96 405.56 531.68 405.79 531.45C406.02 531.22 406.3 531.11 406.63 531.11C406.96 531.11 407.22 531.22 407.44 531.45C407.66 531.68 407.77 531.96 407.77 532.29C407.77 532.62 407.66 532.9 407.44 533.13C407.22 533.36 406.95 533.47 406.63 533.47C406.31 533.47 406.02 533.36 405.79 533.13Z" fill="#424242"/>
<path d="M127.3 196.37L303.09 384.47L480.32 196.37H127.3Z" fill="white" stroke="#E0E0E0" stroke-miterlimit="10"/>
<path d="M303.81 198.13V384.47" stroke="#A3826F" stroke-width="2"/>
<path d="M393.44 239.31C393.44 239.31 320.05 321.2 224.06 258.62" stroke="#7A6154" stroke-width="2"/>
<path d="M214.17 251.7C220.04 253.19 227.88 254.23 233.64 253.57L225.41 259.45L222.84 269.23C221.41 263.61 217.65 256.65 214.16 251.7H214.17Z" fill="#7A6154"/>
</svg>
