<svg width="597" height="578" viewBox="0 0 597 578" fill="none" xmlns="http://www.w3.org/2000/svg">
<path d="M550.02 58.95H66.4401C40.9964 58.95 20.3701 79.5762 20.3701 105.02V531.2C20.3701 556.644 40.9964 577.27 66.4401 577.27H550.02C575.464 577.27 596.09 556.644 596.09 531.2V105.02C596.09 79.5762 575.464 58.95 550.02 58.95Z" fill="#D3D3D3"/>
<path d="M545.6 49.27H62.0202C36.5764 49.27 15.9502 69.8962 15.9502 95.34V521.52C15.9502 546.964 36.5764 567.59 62.0202 567.59H545.6C571.044 567.59 591.67 546.964 591.67 521.52V95.34C591.67 69.8962 571.044 49.27 545.6 49.27Z" fill="#FCC8A1"/>
<path d="M43.7302 89.27C66.7605 89.27 85.4302 70.5689 85.4302 47.5C85.4302 24.4311 66.7605 5.73 43.7302 5.73C20.7 5.73 2.03027 24.4311 2.03027 47.5C2.03027 70.5689 20.7 89.27 43.7302 89.27Z" fill="#CCA98B" stroke="#F2F2F2"/>
<path d="M43.6902 85.67C66.7205 85.67 85.3903 66.9689 85.3903 43.9C85.3903 20.8311 66.7205 2.13 43.6902 2.13C20.66 2.13 1.99023 20.8311 1.99023 43.9C1.99023 66.9689 20.66 85.67 43.6902 85.67Z" fill="white" stroke="#F2F2F2" stroke-width="3"/>
<path d="M22.7202 52.74V47.09L35.6503 28.59H43.4702V46.68H46.8303V52.74H43.4702V58.06H36.4702V52.74H22.7202ZM36.9603 36.29L30.0803 46.68H36.9603V36.29Z" fill="#CCA98B"/>
<path d="M50.4804 32.58C51.1804 31.48 52.1604 30.61 53.4304 29.98C54.7004 29.35 56.1504 29.04 57.7904 29.04C59.4304 29.04 60.8805 29.35 62.1505 29.98C63.4205 30.61 64.4004 31.47 65.1004 32.58C65.8004 33.69 66.1404 34.96 66.1404 36.41C66.1404 37.86 65.7904 39.14 65.0804 40.26C64.3704 41.38 63.3804 42.26 62.1104 42.9C60.8404 43.54 59.3904 43.86 57.7504 43.86C56.1104 43.86 54.6704 43.54 53.4104 42.9C52.1504 42.26 51.1804 41.38 50.4804 40.26C49.7804 39.14 49.4404 37.86 49.4404 36.41C49.4404 34.96 49.7904 33.69 50.4804 32.58ZM59.8804 33.95C59.3104 33.38 58.6004 33.09 57.7504 33.09C56.9004 33.09 56.2404 33.38 55.6804 33.95C55.1204 34.52 54.8405 35.36 54.8405 36.45C54.8405 37.54 55.1104 38.33 55.6604 38.91C56.2104 39.49 56.9004 39.77 57.7504 39.77C58.6004 39.77 59.3004 39.48 59.8804 38.89C60.4504 38.3 60.7404 37.49 60.7404 36.46C60.7404 35.37 60.4504 34.54 59.8804 33.96V33.95Z" fill="#CCA98B"/>
<path d="M105.38 35.45C104.59 36.22 103.38 36.6 101.75 36.6H99.07V42.42H97.25V28.48H101.75C103.32 28.48 104.52 28.86 105.34 29.62C106.16 30.38 106.57 31.36 106.57 32.56C106.57 33.76 106.17 34.68 105.38 35.45ZM103.99 34.44C104.47 34 104.71 33.37 104.71 32.56C104.71 30.84 103.72 29.98 101.75 29.98H99.07V35.1H101.75C102.76 35.1 103.51 34.88 103.99 34.44Z" fill="#CCA98B"/>
<path d="M108.83 33.95C109.28 33.1 109.91 32.45 110.7 31.98C111.49 31.51 112.38 31.28 113.35 31.28C114.32 31.28 115.14 31.49 115.85 31.9C116.56 32.31 117.08 32.83 117.43 33.46V31.46H119.27V42.42H117.43V40.38C117.07 41.02 116.53 41.55 115.82 41.97C115.11 42.39 114.28 42.6 113.33 42.6C112.38 42.6 111.48 42.36 110.69 41.88C109.9 41.4 109.28 40.73 108.83 39.86C108.38 38.99 108.15 38.01 108.15 36.9C108.15 35.79 108.38 34.8 108.83 33.95ZM116.93 34.76C116.6 34.15 116.15 33.68 115.58 33.35C115.01 33.02 114.39 32.86 113.71 32.86C113.03 32.86 112.41 33.02 111.85 33.34C111.29 33.66 110.84 34.13 110.51 34.74C110.18 35.35 110.01 36.07 110.01 36.9C110.01 37.73 110.18 38.47 110.51 39.09C110.84 39.71 111.29 40.18 111.85 40.51C112.41 40.84 113.03 41 113.71 41C114.39 41 115.01 40.84 115.58 40.51C116.15 40.18 116.6 39.71 116.93 39.09C117.26 38.47 117.43 37.75 117.43 36.92C117.43 36.09 117.26 35.37 116.93 34.76Z" fill="#CCA98B"/>
<path d="M123.97 42.17C123.3 41.88 122.78 41.48 122.39 40.97C122 40.46 121.79 39.87 121.75 39.2H123.63C123.68 39.75 123.94 40.19 124.4 40.54C124.86 40.89 125.46 41.06 126.21 41.06C126.9 41.06 127.45 40.91 127.85 40.6C128.25 40.29 128.45 39.91 128.45 39.44C128.45 38.97 128.24 38.6 127.81 38.37C127.38 38.14 126.72 37.91 125.83 37.68C125.02 37.47 124.35 37.25 123.84 37.03C123.33 36.81 122.89 36.48 122.52 36.05C122.15 35.62 121.97 35.05 121.97 34.34C121.97 33.78 122.14 33.27 122.47 32.8C122.8 32.33 123.28 31.96 123.89 31.69C124.5 31.42 125.2 31.28 125.99 31.28C127.2 31.28 128.18 31.59 128.93 32.2C129.68 32.81 130.08 33.65 130.13 34.72H128.31C128.27 34.15 128.04 33.69 127.62 33.34C127.2 32.99 126.64 32.82 125.93 32.82C125.28 32.82 124.76 32.96 124.37 33.24C123.98 33.52 123.79 33.89 123.79 34.34C123.79 34.7 123.91 35 124.14 35.23C124.37 35.46 124.67 35.65 125.02 35.79C125.37 35.93 125.86 36.09 126.49 36.26C127.28 36.47 127.92 36.68 128.41 36.89C128.9 37.1 129.33 37.41 129.68 37.82C130.03 38.23 130.22 38.77 130.23 39.44C130.23 40.04 130.06 40.58 129.73 41.06C129.4 41.54 128.93 41.92 128.32 42.19C127.71 42.46 127.02 42.6 126.23 42.6C125.39 42.6 124.64 42.46 123.97 42.17Z" fill="#CCA98B"/>
<path d="M134.41 42.17C133.74 41.88 133.22 41.48 132.83 40.97C132.44 40.46 132.23 39.87 132.19 39.2H134.07C134.12 39.75 134.38 40.19 134.84 40.54C135.3 40.89 135.9 41.06 136.65 41.06C137.34 41.06 137.89 40.91 138.29 40.6C138.69 40.29 138.89 39.91 138.89 39.44C138.89 38.97 138.68 38.6 138.25 38.37C137.82 38.14 137.16 37.91 136.27 37.68C135.46 37.47 134.79 37.25 134.28 37.03C133.77 36.81 133.33 36.48 132.96 36.05C132.59 35.62 132.41 35.05 132.41 34.34C132.41 33.78 132.58 33.27 132.91 32.8C133.24 32.33 133.72 31.96 134.33 31.69C134.94 31.42 135.64 31.28 136.43 31.28C137.64 31.28 138.62 31.59 139.37 32.2C140.12 32.81 140.52 33.65 140.57 34.72H138.75C138.71 34.15 138.48 33.69 138.06 33.34C137.64 32.99 137.08 32.82 136.37 32.82C135.72 32.82 135.2 32.96 134.81 33.24C134.42 33.52 134.23 33.89 134.23 34.34C134.23 34.7 134.35 35 134.58 35.23C134.81 35.46 135.11 35.65 135.46 35.79C135.81 35.93 136.3 36.09 136.93 36.26C137.72 36.47 138.36 36.68 138.85 36.89C139.34 37.1 139.77 37.41 140.12 37.82C140.47 38.23 140.66 38.77 140.67 39.44C140.67 40.04 140.5 40.58 140.17 41.06C139.84 41.54 139.37 41.92 138.76 42.19C138.15 42.46 137.46 42.6 136.67 42.6C135.83 42.6 135.08 42.46 134.41 42.17Z" fill="#CCA98B"/>
<path d="M145.22 41.9C144.39 41.43 143.73 40.77 143.26 39.91C142.79 39.05 142.55 38.05 142.55 36.92C142.55 35.79 142.79 34.81 143.28 33.95C143.77 33.09 144.43 32.43 145.27 31.97C146.11 31.51 147.05 31.28 148.09 31.28C149.13 31.28 150.07 31.51 150.91 31.97C151.75 32.43 152.41 33.09 152.9 33.94C153.39 34.79 153.63 35.79 153.63 36.92C153.63 38.05 153.38 39.05 152.88 39.91C152.38 40.77 151.7 41.43 150.85 41.9C150 42.37 149.05 42.6 148.01 42.6C146.97 42.6 146.05 42.37 145.22 41.9ZM149.85 40.54C150.42 40.23 150.89 39.77 151.24 39.16C151.59 38.55 151.77 37.8 151.77 36.92C151.77 36.04 151.6 35.29 151.25 34.68C150.9 34.07 150.45 33.61 149.89 33.31C149.33 33.01 148.72 32.86 148.07 32.86C147.42 32.86 146.79 33.01 146.24 33.31C145.69 33.61 145.24 34.07 144.91 34.68C144.58 35.29 144.41 36.04 144.41 36.92C144.41 37.8 144.57 38.57 144.9 39.18C145.23 39.79 145.66 40.25 146.21 40.55C146.76 40.85 147.36 41 148.01 41C148.66 41 149.28 40.85 149.85 40.54Z" fill="#CCA98B"/>
<path d="M206.53 498.12C207.59 498.66 208.4 499.43 208.96 500.43C209.52 501.43 209.81 502.61 209.81 503.96C209.81 505.31 209.53 506.49 208.96 507.48C208.39 508.47 207.58 509.23 206.53 509.76C205.47 510.29 204.22 510.55 202.78 510.55H198.66V497.31H202.78C204.22 497.31 205.47 497.58 206.53 498.12ZM206.69 507.78C207.59 506.87 208.04 505.6 208.04 503.97C208.04 502.34 207.59 501.04 206.68 500.11C205.77 499.19 204.47 498.72 202.78 498.72H200.39V509.13H202.78C204.49 509.13 205.79 508.68 206.69 507.77V507.78Z" fill="#424242"/>
<path d="M213.98 510.07C213.19 509.63 212.57 509 212.12 508.18C211.67 507.36 211.45 506.42 211.45 505.34C211.45 504.26 211.68 503.34 212.14 502.52C212.6 501.7 213.23 501.08 214.03 500.64C214.83 500.2 215.72 499.98 216.71 499.98C217.7 499.98 218.59 500.2 219.39 500.64C220.19 501.08 220.82 501.7 221.28 502.51C221.74 503.32 221.97 504.26 221.97 505.34C221.97 506.42 221.73 507.36 221.26 508.18C220.78 509 220.14 509.63 219.33 510.07C218.52 510.51 217.62 510.74 216.63 510.74C215.64 510.74 214.77 510.52 213.98 510.07ZM218.38 508.77C218.92 508.48 219.36 508.04 219.7 507.46C220.04 506.88 220.2 506.17 220.2 505.33C220.2 504.49 220.03 503.78 219.71 503.2C219.38 502.62 218.95 502.18 218.42 501.9C217.89 501.62 217.31 501.47 216.69 501.47C216.07 501.47 215.48 501.61 214.95 501.9C214.42 502.19 214 502.62 213.69 503.2C213.37 503.78 213.22 504.49 213.22 505.33C213.22 506.17 213.38 506.89 213.69 507.48C214 508.06 214.41 508.5 214.93 508.78C215.45 509.06 216.02 509.21 216.64 509.21C217.26 509.21 217.84 509.06 218.39 508.77H218.38Z" fill="#424242"/>
<path d="M227.53 500.57C228.21 500.18 228.99 499.98 229.87 499.98C230.81 499.98 231.65 500.2 232.4 500.65C233.15 501.09 233.74 501.72 234.17 502.52C234.6 503.32 234.82 504.26 234.82 505.32C234.82 506.38 234.6 507.31 234.17 508.13C233.74 508.95 233.15 509.59 232.39 510.05C231.63 510.51 230.8 510.73 229.87 510.73C228.94 510.73 228.18 510.53 227.5 510.14C226.82 509.75 226.31 509.25 225.97 508.64V510.56H224.24V496.5H225.97V502.09C226.32 501.47 226.84 500.96 227.53 500.57ZM232.57 503.26C232.25 502.68 231.83 502.23 231.29 501.93C230.75 501.63 230.16 501.47 229.51 501.47C228.86 501.47 228.29 501.63 227.75 501.94C227.21 502.25 226.78 502.7 226.46 503.29C226.14 503.88 225.98 504.56 225.98 505.33C225.98 506.1 226.14 506.8 226.46 507.39C226.78 507.98 227.21 508.43 227.75 508.74C228.29 509.05 228.87 509.21 229.51 509.21C230.15 509.21 230.75 509.05 231.29 508.74C231.83 508.43 232.25 507.98 232.57 507.39C232.89 506.8 233.04 506.11 233.04 505.31C233.04 504.51 232.88 503.84 232.57 503.26Z" fill="#424242"/>
<path d="M240.12 500.45C240.68 500.12 241.37 499.96 242.18 499.96V501.75H241.72C239.78 501.75 238.81 502.8 238.81 504.9V510.56H237.08V500.15H238.81V501.84C239.11 501.24 239.55 500.78 240.11 500.45H240.12Z" fill="#424242"/>
<path d="M253.62 506H245.3C245.36 507.03 245.72 507.83 246.35 508.4C246.98 508.97 247.77 509.26 248.68 509.26C249.43 509.26 250.05 509.09 250.55 508.74C251.05 508.39 251.4 507.93 251.6 507.34H253.46C253.18 508.34 252.62 509.15 251.79 509.78C250.96 510.41 249.91 510.72 248.67 510.72C247.68 510.72 246.8 510.5 246.02 510.05C245.24 509.6 244.63 508.98 244.19 508.16C243.75 507.34 243.52 506.4 243.52 505.32C243.52 504.24 243.73 503.3 244.17 502.49C244.61 501.68 245.21 501.06 245.98 500.62C246.76 500.18 247.65 499.96 248.67 499.96C249.69 499.96 250.53 500.18 251.29 500.61C252.05 501.04 252.64 501.63 253.05 502.39C253.46 503.14 253.67 504 253.67 504.94C253.67 505.27 253.65 505.62 253.61 505.99L253.62 506ZM251.45 502.89C251.16 502.41 250.76 502.05 250.26 501.81C249.76 501.56 249.21 501.44 248.6 501.44C247.73 501.44 246.98 501.72 246.37 502.28C245.76 502.84 245.4 503.61 245.32 504.6H251.89C251.89 503.94 251.74 503.37 251.45 502.9V502.89Z" fill="#424242"/>
<path d="M261.03 502.51C261.46 501.71 262.05 501.08 262.81 500.64C263.57 500.2 264.4 499.97 265.33 499.97C266.26 499.97 267.03 500.17 267.71 500.56C268.38 500.95 268.88 501.45 269.21 502.04V500.14H270.96V510.55H269.21V508.61C268.87 509.22 268.36 509.72 267.68 510.12C267 510.52 266.21 510.72 265.31 510.72C264.41 510.72 263.55 510.49 262.8 510.04C262.05 509.58 261.46 508.94 261.03 508.12C260.6 507.3 260.38 506.36 260.38 505.31C260.38 504.26 260.59 503.31 261.03 502.51ZM268.72 503.28C268.4 502.7 267.98 502.25 267.44 501.94C266.9 501.63 266.31 501.47 265.66 501.47C265.01 501.47 264.43 501.62 263.89 501.93C263.35 502.24 262.93 502.68 262.62 503.26C262.31 503.84 262.15 504.53 262.15 505.31C262.15 506.09 262.31 506.8 262.62 507.39C262.94 507.98 263.36 508.43 263.89 508.74C264.42 509.05 265.01 509.21 265.66 509.21C266.31 509.21 266.9 509.05 267.44 508.74C267.98 508.43 268.4 507.98 268.72 507.39C269.04 506.8 269.19 506.11 269.19 505.33C269.19 504.55 269.03 503.86 268.72 503.28Z" fill="#424242"/>
<path d="M282.21 500.58C282.89 500.18 283.68 499.98 284.58 499.98C285.48 499.98 286.34 500.2 287.1 500.65C287.86 501.1 288.45 501.72 288.88 502.52C289.31 503.32 289.53 504.26 289.53 505.32C289.53 506.38 289.31 507.31 288.88 508.13C288.45 508.95 287.86 509.59 287.1 510.05C286.34 510.51 285.51 510.73 284.58 510.73C283.65 510.73 282.91 510.53 282.23 510.13C281.55 509.73 281.04 509.23 280.68 508.64V515.5H278.95V500.15H280.68V502.07C281.02 501.48 281.53 500.98 282.21 500.58ZM287.27 503.26C286.95 502.68 286.53 502.23 285.99 501.93C285.45 501.63 284.86 501.47 284.21 501.47C283.56 501.47 282.99 501.63 282.45 501.94C281.91 502.25 281.48 502.7 281.16 503.29C280.84 503.88 280.68 504.56 280.68 505.33C280.68 506.1 280.84 506.8 281.16 507.39C281.48 507.98 281.91 508.43 282.45 508.74C282.99 509.05 283.57 509.21 284.21 509.21C284.85 509.21 285.45 509.05 285.99 508.74C286.53 508.43 286.95 507.98 287.27 507.39C287.59 506.8 287.74 506.11 287.74 505.31C287.74 504.51 287.58 503.84 287.27 503.26Z" fill="#424242"/>
<path d="M293.68 510.07C292.89 509.63 292.27 509 291.82 508.18C291.37 507.36 291.15 506.42 291.15 505.34C291.15 504.26 291.38 503.34 291.84 502.52C292.3 501.7 292.93 501.08 293.73 500.64C294.53 500.2 295.42 499.98 296.41 499.98C297.4 499.98 298.29 500.2 299.09 500.64C299.89 501.08 300.52 501.7 300.98 502.51C301.44 503.32 301.67 504.26 301.67 505.34C301.67 506.42 301.43 507.36 300.96 508.18C300.48 509 299.84 509.63 299.03 510.07C298.22 510.51 297.32 510.74 296.33 510.74C295.34 510.74 294.47 510.52 293.68 510.07ZM298.08 508.77C298.62 508.48 299.06 508.04 299.4 507.46C299.74 506.88 299.9 506.17 299.9 505.33C299.9 504.49 299.73 503.78 299.41 503.2C299.08 502.62 298.65 502.18 298.12 501.9C297.59 501.62 297.01 501.47 296.39 501.47C295.77 501.47 295.18 501.61 294.65 501.9C294.12 502.19 293.7 502.62 293.39 503.2C293.07 503.78 292.92 504.49 292.92 505.33C292.92 506.17 293.08 506.89 293.39 507.48C293.7 508.06 294.11 508.5 294.63 508.78C295.15 509.06 295.72 509.21 296.34 509.21C296.96 509.21 297.54 509.06 298.09 508.77H298.08Z" fill="#424242"/>
<path d="M312.1 501.11C312.89 501.88 313.28 502.98 313.28 504.43V510.57H311.57V504.68C311.57 503.64 311.31 502.85 310.79 502.3C310.27 501.75 309.56 501.47 308.66 501.47C307.76 501.47 307.02 501.75 306.48 502.32C305.94 502.89 305.67 503.72 305.67 504.81V510.57H303.94V500.16H305.67V501.64C306.01 501.11 306.48 500.7 307.07 500.4C307.66 500.11 308.31 499.96 309.02 499.96C310.29 499.96 311.31 500.34 312.1 501.11Z" fill="#424242"/>
<path d="M318.22 501.57V507.71C318.22 508.22 318.33 508.57 318.54 508.78C318.76 508.99 319.13 509.09 319.66 509.09H320.93V510.55H319.37C318.41 510.55 317.68 510.33 317.2 509.88C316.72 509.44 316.48 508.71 316.48 507.7V501.56H315.13V500.14H316.48V497.52H318.21V500.14H320.93V501.56H318.21L318.22 501.57Z" fill="#424242"/>
<path d="M323.03 502.51C323.46 501.71 324.05 501.08 324.81 500.64C325.57 500.2 326.4 499.97 327.33 499.97C328.26 499.97 329.03 500.17 329.71 500.56C330.38 500.95 330.88 501.45 331.21 502.04V500.14H332.96V510.55H331.21V508.61C330.87 509.22 330.36 509.72 329.68 510.12C329 510.52 328.21 510.72 327.31 510.72C326.41 510.72 325.55 510.49 324.8 510.04C324.05 509.58 323.46 508.94 323.03 508.12C322.6 507.3 322.38 506.36 322.38 505.31C322.38 504.26 322.59 503.31 323.03 502.51ZM330.72 503.28C330.4 502.7 329.98 502.25 329.44 501.94C328.9 501.63 328.31 501.47 327.66 501.47C327.01 501.47 326.43 501.62 325.89 501.93C325.35 502.24 324.93 502.68 324.62 503.26C324.31 503.84 324.15 504.53 324.15 505.31C324.15 506.09 324.31 506.8 324.62 507.39C324.94 507.98 325.36 508.43 325.89 508.74C326.42 509.05 327.01 509.21 327.66 509.21C328.31 509.21 328.9 509.05 329.44 508.74C329.98 508.43 330.4 507.98 330.72 507.39C331.04 506.8 331.19 506.11 331.19 505.33C331.19 504.55 331.03 503.86 330.72 503.28Z" fill="#424242"/>
<path d="M341 498.11C340.77 497.88 340.66 497.6 340.66 497.27C340.66 496.94 340.77 496.66 341 496.43C341.23 496.2 341.51 496.09 341.84 496.09C342.17 496.09 342.42 496.2 342.65 496.43C342.87 496.66 342.98 496.94 342.98 497.27C342.98 497.6 342.87 497.88 342.65 498.11C342.43 498.34 342.16 498.45 341.84 498.45C341.52 498.45 341.23 498.34 341 498.11ZM342.67 500.15V510.56H340.94V500.15H342.67Z" fill="#424242"/>
<path d="M353.77 501.11C354.56 501.88 354.95 502.98 354.95 504.43V510.57H353.24V504.68C353.24 503.64 352.98 502.85 352.46 502.3C351.94 501.75 351.23 501.47 350.33 501.47C349.43 501.47 348.69 501.75 348.15 502.32C347.61 502.89 347.34 503.72 347.34 504.81V510.57H345.61V500.16H347.34V501.64C347.68 501.11 348.15 500.7 348.74 500.4C349.33 500.11 349.98 499.96 350.69 499.96C351.96 499.96 352.98 500.34 353.77 501.11Z" fill="#424242"/>
<path d="M362.01 501.57H359.82V510.56H358.09V501.57H356.74V500.15H358.09V499.41C358.09 498.24 358.39 497.39 358.99 496.85C359.59 496.31 360.56 496.04 361.89 496.04V497.48C361.13 497.48 360.6 497.63 360.28 497.93C359.97 498.23 359.81 498.72 359.81 499.4V500.14H362V501.56L362.01 501.57Z" fill="#424242"/>
<path d="M373.47 506H365.15C365.21 507.03 365.57 507.83 366.2 508.4C366.83 508.97 367.62 509.26 368.53 509.26C369.28 509.26 369.9 509.09 370.4 508.74C370.9 508.39 371.25 507.93 371.45 507.34H373.31C373.03 508.34 372.47 509.15 371.64 509.78C370.81 510.41 369.76 510.72 368.52 510.72C367.53 510.72 366.65 510.5 365.87 510.05C365.09 509.6 364.48 508.98 364.04 508.16C363.6 507.34 363.37 506.4 363.37 505.32C363.37 504.24 363.58 503.3 364.02 502.49C364.46 501.68 365.06 501.06 365.83 500.62C366.61 500.18 367.5 499.96 368.52 499.96C369.54 499.96 370.38 500.18 371.14 500.61C371.9 501.04 372.49 501.63 372.9 502.39C373.31 503.14 373.52 504 373.52 504.94C373.52 505.27 373.5 505.62 373.46 505.99L373.47 506ZM371.3 502.89C371.01 502.41 370.61 502.05 370.11 501.81C369.61 501.56 369.06 501.44 368.45 501.44C367.58 501.44 366.83 501.72 366.22 502.28C365.61 502.84 365.25 503.61 365.17 504.6H371.74C371.74 503.94 371.59 503.37 371.3 502.9V502.89Z" fill="#424242"/>
<path d="M378.84 500.45C379.4 500.12 380.09 499.96 380.9 499.96V501.75H380.44C378.5 501.75 377.53 502.8 377.53 504.9V510.56H375.8V500.15H377.53V501.84C377.83 501.24 378.27 500.78 378.83 500.45H378.84Z" fill="#424242"/>
<path d="M382.95 498.11C382.72 497.88 382.61 497.6 382.61 497.27C382.61 496.94 382.72 496.66 382.95 496.43C383.18 496.2 383.46 496.09 383.79 496.09C384.12 496.09 384.37 496.2 384.6 496.43C384.82 496.66 384.93 496.94 384.93 497.27C384.93 497.6 384.82 497.88 384.6 498.11C384.38 498.34 384.11 498.45 383.79 498.45C383.47 498.45 383.18 498.34 382.95 498.11ZM384.62 500.15V510.56H382.89V500.15H384.62Z" fill="#424242"/>
<path d="M389.46 510.07C388.67 509.63 388.05 509 387.6 508.18C387.15 507.36 386.93 506.42 386.93 505.34C386.93 504.26 387.16 503.34 387.62 502.52C388.08 501.7 388.71 501.08 389.51 500.64C390.31 500.2 391.2 499.98 392.19 499.98C393.18 499.98 394.07 500.2 394.87 500.64C395.67 501.08 396.3 501.7 396.76 502.51C397.22 503.32 397.45 504.26 397.45 505.34C397.45 506.42 397.21 507.36 396.74 508.18C396.26 509 395.62 509.63 394.81 510.07C394 510.51 393.1 510.74 392.11 510.74C391.12 510.74 390.25 510.52 389.46 510.07ZM393.86 508.77C394.4 508.48 394.84 508.04 395.18 507.46C395.52 506.88 395.68 506.17 395.68 505.33C395.68 504.49 395.51 503.78 395.19 503.2C394.86 502.62 394.43 502.18 393.9 501.9C393.37 501.62 392.79 501.47 392.17 501.47C391.55 501.47 390.96 501.61 390.43 501.9C389.9 502.19 389.48 502.62 389.17 503.2C388.85 503.78 388.7 504.49 388.7 505.33C388.7 506.17 388.86 506.89 389.17 507.48C389.48 508.06 389.89 508.5 390.41 508.78C390.93 509.06 391.5 509.21 392.12 509.21C392.74 509.21 393.32 509.06 393.87 508.77H393.86Z" fill="#424242"/>
<path d="M402.76 500.45C403.32 500.12 404.01 499.96 404.82 499.96V501.75H404.36C402.42 501.75 401.45 502.8 401.45 504.9V510.56H399.72V500.15H401.45V501.84C401.75 501.24 402.19 500.78 402.75 500.45H402.76Z" fill="#424242"/>
<path d="M152.32 523.38C153 522.98 153.79 522.78 154.69 522.78C155.59 522.78 156.45 523 157.21 523.45C157.97 523.9 158.56 524.52 158.99 525.32C159.42 526.12 159.64 527.06 159.64 528.12C159.64 529.18 159.42 530.11 158.99 530.93C158.56 531.75 157.97 532.39 157.21 532.85C156.45 533.31 155.62 533.53 154.69 533.53C153.76 533.53 153.02 533.33 152.34 532.93C151.66 532.53 151.15 532.03 150.79 531.44V538.3H149.06V522.95H150.79V524.87C151.13 524.28 151.64 523.78 152.32 523.38ZM157.39 526.06C157.07 525.48 156.65 525.03 156.11 524.73C155.57 524.43 154.98 524.27 154.33 524.27C153.68 524.27 153.11 524.43 152.57 524.74C152.03 525.05 151.6 525.5 151.28 526.09C150.96 526.68 150.8 527.36 150.8 528.13C150.8 528.9 150.96 529.6 151.28 530.19C151.6 530.78 152.03 531.23 152.57 531.54C153.11 531.85 153.69 532.01 154.33 532.01C154.97 532.01 155.57 531.85 156.11 531.54C156.65 531.23 157.07 530.78 157.39 530.19C157.71 529.6 157.86 528.91 157.86 528.11C157.86 527.31 157.7 526.64 157.39 526.06Z" fill="#424242"/>
<path d="M161.91 525.31C162.34 524.51 162.93 523.88 163.69 523.44C164.45 523 165.28 522.77 166.21 522.77C167.14 522.77 167.91 522.97 168.59 523.36C169.26 523.75 169.76 524.25 170.09 524.84V522.94H171.84V533.35H170.09V531.41C169.75 532.02 169.24 532.52 168.56 532.92C167.88 533.32 167.09 533.52 166.19 533.52C165.29 533.52 164.43 533.29 163.68 532.84C162.93 532.38 162.34 531.74 161.91 530.92C161.48 530.1 161.26 529.16 161.26 528.11C161.26 527.06 161.47 526.11 161.91 525.31ZM169.6 526.08C169.28 525.5 168.86 525.05 168.32 524.74C167.78 524.43 167.19 524.27 166.54 524.27C165.89 524.27 165.31 524.42 164.77 524.73C164.23 525.04 163.81 525.48 163.5 526.06C163.19 526.64 163.03 527.33 163.03 528.11C163.03 528.89 163.19 529.6 163.5 530.19C163.82 530.78 164.24 531.23 164.77 531.54C165.3 531.85 165.89 532.01 166.54 532.01C167.19 532.01 167.78 531.85 168.32 531.54C168.86 531.23 169.28 530.78 169.6 530.19C169.92 529.6 170.07 528.91 170.07 528.13C170.07 527.35 169.91 526.66 169.6 526.08Z" fill="#424242"/>
<path d="M177.78 523.25C178.34 522.92 179.03 522.76 179.84 522.76V524.55H179.38C177.44 524.55 176.47 525.6 176.47 527.7V533.36H174.74V522.95H176.47V524.64C176.77 524.04 177.21 523.58 177.77 523.25H177.78Z" fill="#424242"/>
<path d="M181.84 525.31C182.27 524.51 182.86 523.88 183.62 523.44C184.38 523 185.21 522.77 186.14 522.77C187.07 522.77 187.84 522.97 188.52 523.36C189.19 523.75 189.69 524.25 190.02 524.84V522.94H191.77V533.35H190.02V531.41C189.68 532.02 189.17 532.52 188.49 532.92C187.81 533.32 187.02 533.52 186.12 533.52C185.22 533.52 184.36 533.29 183.61 532.84C182.86 532.38 182.27 531.74 181.84 530.92C181.41 530.1 181.19 529.16 181.19 528.11C181.19 527.06 181.4 526.11 181.84 525.31ZM189.53 526.08C189.21 525.5 188.79 525.05 188.25 524.74C187.71 524.43 187.12 524.27 186.47 524.27C185.82 524.27 185.24 524.42 184.7 524.73C184.16 525.04 183.74 525.48 183.43 526.06C183.12 526.64 182.96 527.33 182.96 528.11C182.96 528.89 183.12 529.6 183.43 530.19C183.75 530.78 184.17 531.23 184.7 531.54C185.23 531.85 185.82 532.01 186.47 532.01C187.12 532.01 187.71 531.85 188.25 531.54C188.79 531.23 189.21 530.78 189.53 530.19C189.85 529.6 190 528.91 190 528.13C190 527.35 189.84 526.66 189.53 526.08Z" fill="#424242"/>
<path d="M203.99 524.37H201.8V533.36H200.07V524.37H198.72V522.95H200.07V522.21C200.07 521.04 200.37 520.19 200.97 519.65C201.57 519.11 202.54 518.84 203.87 518.84V520.28C203.11 520.28 202.58 520.43 202.26 520.73C201.95 521.03 201.79 521.52 201.79 522.2V522.94H203.98V524.36L203.99 524.37Z" fill="#424242"/>
<path d="M206.01 525.31C206.44 524.51 207.03 523.88 207.79 523.44C208.55 523 209.38 522.77 210.31 522.77C211.24 522.77 212.01 522.97 212.69 523.36C213.36 523.75 213.86 524.25 214.19 524.84V522.94H215.94V533.35H214.19V531.41C213.85 532.02 213.34 532.52 212.66 532.92C211.98 533.32 211.19 533.52 210.29 533.52C209.39 533.52 208.53 533.29 207.78 532.84C207.03 532.38 206.44 531.74 206.01 530.92C205.58 530.1 205.36 529.16 205.36 528.11C205.36 527.06 205.57 526.11 206.01 525.31ZM213.7 526.08C213.38 525.5 212.96 525.05 212.42 524.74C211.88 524.43 211.29 524.27 210.64 524.27C209.99 524.27 209.41 524.42 208.87 524.73C208.33 525.04 207.91 525.48 207.6 526.06C207.29 526.64 207.13 527.33 207.13 528.11C207.13 528.89 207.29 529.6 207.6 530.19C207.92 530.78 208.34 531.23 208.87 531.54C209.4 531.85 209.99 532.01 210.64 532.01C211.29 532.01 211.88 531.85 212.42 531.54C212.96 531.23 213.38 530.78 213.7 530.19C214.02 529.6 214.17 528.91 214.17 528.13C214.17 527.35 214.01 526.66 213.7 526.08Z" fill="#424242"/>
<path d="M220.14 531.93H225.25V533.35H218.16V531.93L223.21 524.35H218.19V522.94H225.2V524.35L220.13 531.93H220.14Z" fill="#424242"/>
<path d="M236.94 528.8H228.62C228.68 529.83 229.04 530.63 229.67 531.2C230.3 531.77 231.09 532.06 232 532.06C232.75 532.06 233.37 531.89 233.87 531.54C234.37 531.19 234.72 530.73 234.92 530.14H236.78C236.5 531.14 235.94 531.95 235.11 532.58C234.28 533.21 233.23 533.52 231.99 533.52C231 533.52 230.12 533.3 229.34 532.85C228.56 532.4 227.95 531.78 227.51 530.96C227.07 530.14 226.84 529.2 226.84 528.12C226.84 527.04 227.05 526.1 227.49 525.29C227.93 524.48 228.53 523.86 229.3 523.42C230.08 522.98 230.97 522.76 231.99 522.76C233.01 522.76 233.85 522.98 234.61 523.41C235.37 523.84 235.96 524.43 236.37 525.19C236.78 525.94 236.99 526.8 236.99 527.74C236.99 528.07 236.97 528.42 236.93 528.79L236.94 528.8ZM234.77 525.69C234.48 525.21 234.08 524.85 233.58 524.61C233.08 524.36 232.53 524.24 231.92 524.24C231.05 524.24 230.3 524.52 229.69 525.08C229.08 525.64 228.72 526.41 228.64 527.4H235.21C235.21 526.74 235.06 526.17 234.77 525.7V525.69Z" fill="#424242"/>
<path d="M242.3 523.25C242.86 522.92 243.55 522.76 244.36 522.76V524.55H243.9C241.96 524.55 240.99 525.6 240.99 527.7V533.36H239.26V522.95H240.99V524.64C241.29 524.04 241.73 523.58 242.29 523.25H242.3Z" fill="#424242"/>
<path d="M253.32 532.87C252.53 532.43 251.91 531.8 251.46 530.98C251.01 530.16 250.79 529.22 250.79 528.14C250.79 527.06 251.02 526.14 251.48 525.32C251.94 524.5 252.57 523.88 253.37 523.44C254.17 523 255.06 522.78 256.05 522.78C257.04 522.78 257.93 523 258.73 523.44C259.53 523.88 260.16 524.5 260.62 525.31C261.08 526.12 261.31 527.06 261.31 528.14C261.31 529.22 261.07 530.16 260.6 530.98C260.12 531.8 259.48 532.43 258.67 532.87C257.86 533.31 256.96 533.54 255.97 533.54C254.98 533.54 254.11 533.32 253.32 532.87ZM257.72 531.57C258.26 531.28 258.7 530.84 259.04 530.26C259.38 529.68 259.54 528.97 259.54 528.13C259.54 527.29 259.37 526.58 259.05 526C258.72 525.42 258.29 524.98 257.76 524.7C257.23 524.42 256.65 524.27 256.03 524.27C255.41 524.27 254.82 524.41 254.29 524.7C253.76 524.99 253.34 525.42 253.03 526C252.71 526.58 252.56 527.29 252.56 528.13C252.56 528.97 252.72 529.69 253.03 530.28C253.34 530.86 253.75 531.3 254.27 531.58C254.79 531.86 255.36 532.01 255.98 532.01C256.6 532.01 257.18 531.86 257.73 531.57H257.72Z" fill="#424242"/>
<path d="M272.9 524.37H270.71V533.36H268.98V524.37H267.63V522.95H268.98V522.21C268.98 521.04 269.28 520.19 269.88 519.65C270.48 519.11 271.45 518.84 272.78 518.84V520.28C272.02 520.28 271.49 520.43 271.17 520.73C270.86 521.03 270.7 521.52 270.7 522.2V522.94H272.89V524.36L272.9 524.37Z" fill="#424242"/>
<path d="M276.81 532.87C276.02 532.43 275.4 531.8 274.95 530.98C274.5 530.16 274.28 529.22 274.28 528.14C274.28 527.06 274.51 526.14 274.97 525.32C275.43 524.5 276.06 523.88 276.86 523.44C277.66 523 278.55 522.78 279.54 522.78C280.53 522.78 281.42 523 282.22 523.44C283.02 523.88 283.65 524.5 284.11 525.31C284.57 526.12 284.8 527.06 284.8 528.14C284.8 529.22 284.56 530.16 284.09 530.98C283.61 531.8 282.97 532.43 282.16 532.87C281.35 533.31 280.45 533.54 279.46 533.54C278.47 533.54 277.6 533.32 276.81 532.87ZM281.21 531.57C281.75 531.28 282.19 530.84 282.53 530.26C282.87 529.68 283.03 528.97 283.03 528.13C283.03 527.29 282.86 526.58 282.54 526C282.21 525.42 281.78 524.98 281.25 524.7C280.72 524.42 280.14 524.27 279.52 524.27C278.9 524.27 278.31 524.41 277.78 524.7C277.25 524.99 276.83 525.42 276.52 526C276.2 526.58 276.05 527.29 276.05 528.13C276.05 528.97 276.21 529.69 276.52 530.28C276.83 530.86 277.24 531.3 277.76 531.58C278.28 531.86 278.85 532.01 279.47 532.01C280.09 532.01 280.67 531.86 281.22 531.57H281.21Z" fill="#424242"/>
<path d="M287.08 525.31C287.51 524.51 288.11 523.88 288.88 523.44C289.65 523 290.52 522.77 291.51 522.77C292.79 522.77 293.84 523.08 294.67 523.7C295.5 524.32 296.05 525.18 296.31 526.28H294.45C294.27 525.65 293.93 525.15 293.41 524.78C292.9 524.41 292.26 524.23 291.5 524.23C290.51 524.23 289.71 524.57 289.11 525.25C288.5 525.93 288.2 526.89 288.2 528.13C288.2 529.37 288.5 530.35 289.11 531.04C289.72 531.72 290.52 532.07 291.5 532.07C292.26 532.07 292.89 531.89 293.4 531.54C293.91 531.19 294.25 530.68 294.44 530.02H296.3C296.02 531.08 295.46 531.94 294.63 532.58C293.8 533.22 292.75 533.54 291.49 533.54C290.5 533.54 289.62 533.32 288.86 532.87C288.09 532.43 287.49 531.8 287.06 530.99C286.63 530.18 286.41 529.23 286.41 528.14C286.41 527.05 286.62 526.12 287.06 525.32L287.08 525.31Z" fill="#424242"/>
<path d="M298.67 520.91C298.44 520.68 298.33 520.4 298.33 520.07C298.33 519.74 298.44 519.46 298.67 519.23C298.9 519 299.18 518.89 299.51 518.89C299.84 518.89 300.09 519 300.32 519.23C300.54 519.46 300.65 519.74 300.65 520.07C300.65 520.4 300.54 520.68 300.32 520.91C300.1 521.14 299.83 521.25 299.51 521.25C299.19 521.25 298.9 521.14 298.67 520.91ZM300.34 522.95V533.36H298.61V522.95H300.34Z" fill="#424242"/>
<path d="M311.44 523.91C312.23 524.68 312.62 525.78 312.62 527.23V533.37H310.91V527.48C310.91 526.44 310.65 525.65 310.13 525.1C309.61 524.55 308.9 524.27 308 524.27C307.1 524.27 306.36 524.55 305.82 525.12C305.28 525.69 305.01 526.52 305.01 527.61V533.37H303.28V522.96H305.01V524.44C305.35 523.91 305.82 523.5 306.41 523.2C307 522.91 307.65 522.76 308.36 522.76C309.63 522.76 310.65 523.14 311.44 523.91Z" fill="#424242"/>
<path d="M322.74 523.26C323.37 523.6 323.87 524.1 324.23 524.77C324.59 525.44 324.77 526.26 324.77 527.22V533.36H323.06V527.47C323.06 526.43 322.8 525.64 322.28 525.09C321.76 524.54 321.05 524.26 320.15 524.26C319.25 524.26 318.51 524.54 317.97 525.11C317.43 525.68 317.16 526.51 317.16 527.6V533.36H315.43V519.3H317.16V524.43C317.5 523.9 317.97 523.49 318.58 523.19C319.18 522.9 319.86 522.75 320.6 522.75C321.39 522.75 322.09 522.92 322.73 523.25L322.74 523.26Z" fill="#424242"/>
<path d="M329.5 532.87C328.71 532.43 328.09 531.8 327.64 530.98C327.19 530.16 326.97 529.22 326.97 528.14C326.97 527.06 327.2 526.14 327.66 525.32C328.12 524.5 328.75 523.88 329.55 523.44C330.35 523 331.24 522.78 332.23 522.78C333.22 522.78 334.11 523 334.91 523.44C335.71 523.88 336.34 524.5 336.8 525.31C337.26 526.12 337.49 527.06 337.49 528.14C337.49 529.22 337.25 530.16 336.78 530.98C336.3 531.8 335.66 532.43 334.85 532.87C334.04 533.31 333.14 533.54 332.15 533.54C331.16 533.54 330.29 533.32 329.5 532.87ZM333.89 531.57C334.43 531.28 334.87 530.84 335.21 530.26C335.55 529.68 335.71 528.97 335.71 528.13C335.71 527.29 335.54 526.58 335.22 526C334.89 525.42 334.46 524.98 333.93 524.7C333.4 524.42 332.82 524.27 332.2 524.27C331.58 524.27 330.99 524.41 330.46 524.7C329.93 524.99 329.51 525.42 329.2 526C328.88 526.58 328.73 527.29 328.73 528.13C328.73 528.97 328.89 529.69 329.2 530.28C329.51 530.86 329.92 531.3 330.44 531.58C330.96 531.86 331.53 532.01 332.15 532.01C332.77 532.01 333.35 531.86 333.9 531.57H333.89Z" fill="#424242"/>
<path d="M344.84 525.31C345.27 524.51 345.86 523.88 346.62 523.44C347.38 523 348.22 522.77 349.16 522.77C349.97 522.77 350.72 522.96 351.42 523.33C352.12 523.7 352.65 524.19 353.02 524.8V519.29H354.77V533.35H353.02V531.39C352.68 532.01 352.17 532.52 351.5 532.92C350.83 533.32 350.04 533.52 349.14 533.52C348.24 533.52 347.38 533.29 346.62 532.84C345.86 532.39 345.27 531.74 344.84 530.92C344.41 530.1 344.19 529.16 344.19 528.11C344.19 527.06 344.4 526.11 344.84 525.31ZM352.53 526.08C352.21 525.5 351.79 525.05 351.25 524.74C350.71 524.43 350.12 524.27 349.47 524.27C348.82 524.27 348.24 524.42 347.7 524.73C347.16 525.04 346.74 525.48 346.43 526.06C346.12 526.64 345.96 527.33 345.96 528.11C345.96 528.89 346.12 529.6 346.43 530.19C346.75 530.78 347.17 531.23 347.7 531.54C348.23 531.85 348.82 532.01 349.47 532.01C350.12 532.01 350.71 531.85 351.25 531.54C351.79 531.23 352.21 530.78 352.53 530.19C352.85 529.6 353 528.91 353 528.13C353 527.35 352.84 526.66 352.53 526.08Z" fill="#424242"/>
<path d="M359.57 532.87C358.78 532.43 358.16 531.8 357.71 530.98C357.26 530.16 357.04 529.22 357.04 528.14C357.04 527.06 357.27 526.14 357.73 525.32C358.19 524.5 358.82 523.88 359.62 523.44C360.42 523 361.31 522.78 362.3 522.78C363.29 522.78 364.18 523 364.98 523.44C365.78 523.88 366.41 524.5 366.87 525.31C367.33 526.12 367.56 527.06 367.56 528.14C367.56 529.22 367.32 530.16 366.85 530.98C366.37 531.8 365.73 532.43 364.92 532.87C364.11 533.31 363.21 533.54 362.22 533.54C361.23 533.54 360.36 533.32 359.57 532.87ZM363.97 531.57C364.51 531.28 364.95 530.84 365.29 530.26C365.63 529.68 365.79 528.97 365.79 528.13C365.79 527.29 365.62 526.58 365.3 526C364.97 525.42 364.54 524.98 364.01 524.7C363.48 524.42 362.9 524.27 362.28 524.27C361.66 524.27 361.07 524.41 360.54 524.7C360.01 524.99 359.59 525.42 359.28 526C358.96 526.58 358.81 527.29 358.81 528.13C358.81 528.97 358.97 529.69 359.28 530.28C359.59 530.86 360 531.3 360.52 531.58C361.04 531.86 361.61 532.01 362.23 532.01C362.85 532.01 363.43 531.86 363.98 531.57H363.97Z" fill="#424242"/>
<path d="M374.91 525.31C375.34 524.51 375.94 523.88 376.71 523.44C377.48 523 378.35 522.77 379.34 522.77C380.62 522.77 381.67 523.08 382.5 523.7C383.33 524.32 383.88 525.18 384.14 526.28H382.28C382.1 525.65 381.76 525.15 381.24 524.78C380.73 524.41 380.09 524.23 379.33 524.23C378.34 524.23 377.54 524.57 376.94 525.25C376.33 525.93 376.03 526.89 376.03 528.13C376.03 529.37 376.33 530.35 376.94 531.04C377.55 531.72 378.35 532.07 379.33 532.07C380.09 532.07 380.72 531.89 381.23 531.54C381.74 531.19 382.08 530.68 382.27 530.02H384.13C383.85 531.08 383.29 531.94 382.46 532.58C381.63 533.22 380.58 533.54 379.32 533.54C378.33 533.54 377.45 533.32 376.69 532.87C375.92 532.43 375.32 531.8 374.89 530.99C374.46 530.18 374.24 529.23 374.24 528.14C374.24 527.05 374.45 526.12 374.89 525.32L374.91 525.31Z" fill="#424242"/>
<path d="M386.45 525.31C386.88 524.51 387.47 523.88 388.23 523.44C388.99 523 389.82 522.77 390.75 522.77C391.68 522.77 392.45 522.97 393.13 523.36C393.8 523.75 394.3 524.25 394.63 524.84V522.94H396.38V533.35H394.63V531.41C394.29 532.02 393.78 532.52 393.1 532.92C392.42 533.32 391.63 533.52 390.73 533.52C389.83 533.52 388.97 533.29 388.22 532.84C387.47 532.38 386.88 531.74 386.45 530.92C386.02 530.1 385.8 529.16 385.8 528.11C385.8 527.06 386.01 526.11 386.45 525.31ZM394.14 526.08C393.82 525.5 393.4 525.05 392.86 524.74C392.32 524.43 391.73 524.27 391.08 524.27C390.43 524.27 389.85 524.42 389.31 524.73C388.77 525.04 388.35 525.48 388.04 526.06C387.73 526.64 387.57 527.33 387.57 528.11C387.57 528.89 387.73 529.6 388.04 530.19C388.36 530.78 388.78 531.23 389.31 531.54C389.84 531.85 390.43 532.01 391.08 532.01C391.73 532.01 392.32 531.85 392.86 531.54C393.4 531.23 393.82 530.78 394.14 530.19C394.46 529.6 394.61 528.91 394.61 528.13C394.61 527.35 394.45 526.66 394.14 526.08Z" fill="#424242"/>
<path d="M399.29 525.31C399.72 524.51 400.32 523.88 401.09 523.44C401.86 523 402.73 522.77 403.72 522.77C405 522.77 406.05 523.08 406.88 523.7C407.71 524.32 408.26 525.18 408.52 526.28H406.66C406.48 525.65 406.14 525.15 405.62 524.78C405.11 524.41 404.47 524.23 403.71 524.23C402.72 524.23 401.92 524.57 401.32 525.25C400.71 525.93 400.41 526.89 400.41 528.13C400.41 529.37 400.71 530.35 401.32 531.04C401.93 531.72 402.73 532.07 403.71 532.07C404.47 532.07 405.1 531.89 405.61 531.54C406.12 531.19 406.46 530.68 406.65 530.02H408.51C408.23 531.08 407.67 531.94 406.84 532.58C406.01 533.22 404.96 533.54 403.7 533.54C402.71 533.54 401.83 533.32 401.07 532.87C400.3 532.43 399.7 531.8 399.27 530.99C398.84 530.18 398.62 529.23 398.62 528.14C398.62 527.05 398.83 526.12 399.27 525.32L399.29 525.31Z" fill="#424242"/>
<path d="M418.12 523.26C418.75 523.6 419.25 524.1 419.61 524.77C419.97 525.44 420.15 526.26 420.15 527.22V533.36H418.44V527.47C418.44 526.43 418.18 525.64 417.66 525.09C417.14 524.54 416.43 524.26 415.53 524.26C414.63 524.26 413.89 524.54 413.35 525.11C412.81 525.68 412.54 526.51 412.54 527.6V533.36H410.81V519.3H412.54V524.43C412.88 523.9 413.35 523.49 413.96 523.19C414.56 522.9 415.24 522.75 415.98 522.75C416.77 522.75 417.47 522.92 418.11 523.25L418.12 523.26Z" fill="#424242"/>
<path d="M424.88 532.87C424.09 532.43 423.47 531.8 423.02 530.98C422.57 530.16 422.35 529.22 422.35 528.14C422.35 527.06 422.58 526.14 423.04 525.32C423.5 524.5 424.13 523.88 424.93 523.44C425.73 523 426.62 522.78 427.61 522.78C428.6 522.78 429.49 523 430.29 523.44C431.09 523.88 431.72 524.5 432.18 525.31C432.64 526.12 432.87 527.06 432.87 528.14C432.87 529.22 432.63 530.16 432.16 530.98C431.68 531.8 431.04 532.43 430.23 532.87C429.42 533.31 428.52 533.54 427.53 533.54C426.54 533.54 425.67 533.32 424.88 532.87ZM429.27 531.57C429.81 531.28 430.25 530.84 430.59 530.26C430.93 529.68 431.09 528.97 431.09 528.13C431.09 527.29 430.92 526.58 430.6 526C430.27 525.42 429.84 524.98 429.31 524.7C428.78 524.42 428.2 524.27 427.58 524.27C426.96 524.27 426.37 524.41 425.84 524.7C425.31 524.99 424.89 525.42 424.58 526C424.26 526.58 424.11 527.29 424.11 528.13C424.11 528.97 424.27 529.69 424.58 530.28C424.89 530.86 425.3 531.3 425.82 531.58C426.34 531.86 426.91 532.01 427.53 532.01C428.15 532.01 428.73 531.86 429.28 531.57H429.27Z" fill="#424242"/>
<path d="M438.17 523.25C438.73 522.92 439.42 522.76 440.23 522.76V524.55H439.77C437.83 524.55 436.86 525.6 436.86 527.7V533.36H435.13V522.95H436.86V524.64C437.16 524.04 437.6 523.58 438.16 523.25H438.17Z" fill="#424242"/>
<path d="M445.26 523.25C445.82 522.92 446.51 522.76 447.32 522.76V524.55H446.86C444.92 524.55 443.95 525.6 443.95 527.7V533.36H442.22V522.95H443.95V524.64C444.25 524.04 444.69 523.58 445.25 523.25H445.26Z" fill="#424242"/>
<path d="M451.21 532.87C450.42 532.43 449.8 531.8 449.35 530.98C448.9 530.16 448.68 529.22 448.68 528.14C448.68 527.06 448.91 526.14 449.37 525.32C449.83 524.5 450.46 523.88 451.26 523.44C452.06 523 452.95 522.78 453.94 522.78C454.93 522.78 455.82 523 456.62 523.44C457.42 523.88 458.05 524.5 458.51 525.31C458.97 526.12 459.2 527.06 459.2 528.14C459.2 529.22 458.96 530.16 458.49 530.98C458.01 531.8 457.37 532.43 456.56 532.87C455.75 533.31 454.85 533.54 453.86 533.54C452.87 533.54 452 533.32 451.21 532.87ZM455.61 531.57C456.15 531.28 456.59 530.84 456.93 530.26C457.27 529.68 457.43 528.97 457.43 528.13C457.43 527.29 457.26 526.58 456.94 526C456.61 525.42 456.18 524.98 455.65 524.7C455.12 524.42 454.54 524.27 453.92 524.27C453.3 524.27 452.71 524.41 452.18 524.7C451.65 524.99 451.23 525.42 450.92 526C450.6 526.58 450.45 527.29 450.45 528.13C450.45 528.97 450.61 529.69 450.92 530.28C451.23 530.86 451.64 531.3 452.16 531.58C452.68 531.86 453.25 532.01 453.87 532.01C454.49 532.01 455.07 531.86 455.62 531.57H455.61Z" fill="#424242"/>
<path d="M371 189.77H260.25H232.76L147.15 253L303.85 420.69L461.59 253.27" fill="#CCCCCC"/>
<path d="M229.62 189.77L129.28 262.24L159.94 349.57L229.62 189.77Z" fill="#CCCCCC"/>
<path d="M373.95 189.77L474.28 262.24L443.62 349.57L373.95 189.77Z" fill="#CCCCCC"/>
<path d="M372.72 181.82H261.97H234.48L148.87 245.04L305.56 412.73L463.3 245.31" fill="white"/>
<path d="M372.72 181.82H261.97H234.48L148.87 245.04L305.56 412.73L463.3 245.31" stroke="#E0E0E0" stroke-miterlimit="10"/>
<path d="M330.07 402.79C330.07 402.79 276.61 384.87 283.06 327.63" stroke="#7A6154" stroke-width="2"/>
<path d="M285.16 315.75C286.29 321.7 288.67 329.25 291.69 334.19L282.88 329.21L272.93 331.02C277.41 327.35 282.13 321 285.15 315.75H285.16Z" fill="#7A6154"/>
<path d="M255.42 359.08H359.76" stroke="#A3826F" stroke-width="2"/>
<path d="M231.34 181.82L131 254.28L161.66 341.61L231.34 181.82Z" fill="white" stroke="#E0E0E0" stroke-miterlimit="10"/>
<path d="M375.66 181.82L476 254.28L445.34 341.61L375.66 181.82Z" fill="white" stroke="#E0E0E0" stroke-miterlimit="10"/>
</svg>
