<svg width="601" height="578" viewBox="0 0 601 578" fill="none" xmlns="http://www.w3.org/2000/svg">
<path d="M554.02 58.95H70.4401C44.9964 58.95 24.3701 79.5762 24.3701 105.02V531.2C24.3701 556.644 44.9964 577.27 70.4401 577.27H554.02C579.464 577.27 600.09 556.644 600.09 531.2V105.02C600.09 79.5762 579.464 58.95 554.02 58.95Z" fill="#D3D3D3"/>
<path d="M549.4 49.27H65.82C40.3762 49.27 19.75 69.8962 19.75 95.34V521.52C19.75 546.964 40.3762 567.59 65.82 567.59H549.4C574.844 567.59 595.47 546.964 595.47 521.52V95.34C595.47 69.8962 574.844 49.27 549.4 49.27Z" fill="#FCC8A1"/>
<path d="M43.7303 89.27C66.7606 89.27 85.4303 70.5689 85.4303 47.5C85.4303 24.4311 66.7606 5.73 43.7303 5.73C20.7 5.73 2.03027 24.4311 2.03027 47.5C2.03027 70.5689 20.7 89.27 43.7303 89.27Z" fill="#CCA98B" stroke="#F2F2F2"/>
<path d="M43.6902 85.67C66.7205 85.67 85.3902 66.9689 85.3902 43.9C85.3902 20.8311 66.7205 2.13 43.6902 2.13C20.66 2.13 1.99023 20.8311 1.99023 43.9C1.99023 66.9689 20.66 85.67 43.6902 85.67Z" fill="white" stroke="#F2F2F2" stroke-width="3"/>
<path d="M44.1404 34.28H31.3704V39.93C31.9104 39.33 32.6804 38.84 33.6604 38.46C34.6404 38.08 35.7104 37.89 36.8504 37.89C38.9004 37.89 40.6004 38.35 41.9504 39.28C43.3004 40.21 44.2904 41.41 44.9204 42.88C45.5504 44.35 45.8605 45.95 45.8605 47.67C45.8605 50.86 44.9605 53.39 43.1605 55.26C41.3605 57.13 38.8204 58.06 35.5504 58.06C33.3704 58.06 31.4705 57.68 29.8605 56.94C28.2505 56.2 27.0104 55.15 26.1404 53.81C25.2704 52.47 24.7904 50.93 24.7104 49.19H31.5405C31.7005 50.04 32.1004 50.74 32.7304 51.3C33.3604 51.86 34.2205 52.14 35.3105 52.14C36.5905 52.14 37.5504 51.73 38.1704 50.91C38.8004 50.09 39.1105 49 39.1105 47.64C39.1105 46.28 38.7805 45.28 38.1305 44.57C37.4805 43.86 36.5205 43.51 35.2705 43.51C34.3405 43.51 33.5805 43.74 32.9804 44.19C32.3804 44.64 31.9805 45.23 31.7905 45.97H25.0405V28.17H44.1505V34.31L44.1404 34.28Z" fill="#CCA98B"/>
<path d="M49.9306 32.58C50.6306 31.48 51.6106 30.61 52.8806 29.98C54.1506 29.35 55.6006 29.04 57.2406 29.04C58.8806 29.04 60.3306 29.35 61.6006 29.98C62.8706 30.61 63.8506 31.47 64.5506 32.58C65.2506 33.69 65.5906 34.96 65.5906 36.41C65.5906 37.86 65.2406 39.14 64.5306 40.26C63.8206 41.38 62.8306 42.26 61.5606 42.9C60.2906 43.54 58.8406 43.86 57.2006 43.86C55.5606 43.86 54.1206 43.54 52.8606 42.9C51.6006 42.26 50.6306 41.38 49.9306 40.26C49.2306 39.14 48.8906 37.86 48.8906 36.41C48.8906 34.96 49.2406 33.69 49.9306 32.58ZM59.3206 33.95C58.7506 33.38 58.0406 33.09 57.1906 33.09C56.3406 33.09 55.6806 33.38 55.1206 33.95C54.5606 34.52 54.2806 35.36 54.2806 36.45C54.2806 37.54 54.5506 38.33 55.1006 38.91C55.6506 39.49 56.3406 39.77 57.1906 39.77C58.0406 39.77 58.7406 39.48 59.3206 38.89C59.8906 38.3 60.1806 37.49 60.1806 36.46C60.1806 35.37 59.8906 34.54 59.3206 33.96V33.95Z" fill="#CCA98B"/>
<path d="M399.41 189.98H268.36H235.83L134.52 264.8L268.45 409.23H369.8L506.6 265.12" fill="#CCCCCC"/>
<path d="M233.73 189.98L115 275.74L151.28 379.08L233.73 189.98Z" fill="#CCCCCC"/>
<path d="M401.27 189.98L520 275.74L483.72 379.08L401.27 189.98Z" fill="#CCCCCC"/>
<path d="M267.19 409.56L316.12 348.65L373.61 409.56H267.19Z" fill="#CCCCCC"/>
<path d="M400.41 179.98H269.36H236.83L135.52 254.8L269.45 399.23H370.8L507.6 255.12" fill="white"/>
<path d="M400.41 179.98H269.36H236.83L135.52 254.8L269.45 399.23H370.8L507.6 255.12" stroke="#E0E0E0" stroke-miterlimit="10"/>
<path d="M234.73 179.98L116 265.74L152.28 369.08L234.73 179.98Z" fill="white" stroke="#E0E0E0" stroke-miterlimit="10"/>
<path d="M402.27 179.98L521 265.74L484.72 369.08L402.27 179.98Z" fill="white" stroke="#E0E0E0" stroke-miterlimit="10"/>
<path d="M268.19 399.56L317.12 338.65L374.61 399.56H268.19Z" fill="white" stroke="#E0E0E0" stroke-miterlimit="10"/>
<path d="M105.38 35.45C104.59 36.22 103.38 36.6 101.75 36.6H99.07V42.42H97.25V28.48H101.75C103.32 28.48 104.52 28.86 105.34 29.62C106.16 30.38 106.57 31.36 106.57 32.56C106.57 33.76 106.17 34.68 105.38 35.45ZM103.99 34.44C104.47 34 104.71 33.37 104.71 32.56C104.71 30.84 103.72 29.98 101.75 29.98H99.07V35.1H101.75C102.76 35.1 103.51 34.88 103.99 34.44Z" fill="#CCA98B"/>
<path d="M108.83 33.95C109.28 33.1 109.91 32.45 110.7 31.98C111.49 31.51 112.38 31.28 113.35 31.28C114.32 31.28 115.14 31.49 115.85 31.9C116.56 32.31 117.08 32.83 117.43 33.46V31.46H119.27V42.42H117.43V40.38C117.07 41.02 116.53 41.55 115.82 41.97C115.11 42.39 114.28 42.6 113.33 42.6C112.38 42.6 111.48 42.36 110.69 41.88C109.9 41.4 109.28 40.73 108.83 39.86C108.38 38.99 108.15 38.01 108.15 36.9C108.15 35.79 108.38 34.8 108.83 33.95ZM116.93 34.76C116.6 34.15 116.15 33.68 115.58 33.35C115.01 33.02 114.39 32.86 113.71 32.86C113.03 32.86 112.41 33.02 111.85 33.34C111.29 33.66 110.84 34.13 110.51 34.74C110.18 35.35 110.01 36.07 110.01 36.9C110.01 37.73 110.18 38.47 110.51 39.09C110.84 39.71 111.29 40.18 111.85 40.51C112.41 40.84 113.03 41 113.71 41C114.39 41 115.01 40.84 115.58 40.51C116.15 40.18 116.6 39.71 116.93 39.09C117.26 38.47 117.43 37.75 117.43 36.92C117.43 36.09 117.26 35.37 116.93 34.76Z" fill="#CCA98B"/>
<path d="M123.97 42.17C123.3 41.88 122.78 41.48 122.39 40.97C122 40.46 121.79 39.87 121.75 39.2H123.63C123.68 39.75 123.94 40.19 124.4 40.54C124.86 40.89 125.46 41.06 126.21 41.06C126.9 41.06 127.45 40.91 127.85 40.6C128.25 40.29 128.45 39.91 128.45 39.44C128.45 38.97 128.24 38.6 127.81 38.37C127.38 38.14 126.72 37.91 125.83 37.68C125.02 37.47 124.35 37.25 123.84 37.03C123.33 36.81 122.89 36.48 122.52 36.05C122.15 35.62 121.97 35.05 121.97 34.34C121.97 33.78 122.14 33.27 122.47 32.8C122.8 32.33 123.28 31.96 123.89 31.69C124.5 31.42 125.2 31.28 125.99 31.28C127.2 31.28 128.18 31.59 128.93 32.2C129.68 32.81 130.08 33.65 130.13 34.72H128.31C128.27 34.15 128.04 33.69 127.62 33.34C127.2 32.99 126.64 32.82 125.93 32.82C125.28 32.82 124.76 32.96 124.37 33.24C123.98 33.52 123.79 33.89 123.79 34.34C123.79 34.7 123.91 35 124.14 35.23C124.37 35.46 124.67 35.65 125.02 35.79C125.37 35.93 125.86 36.09 126.49 36.26C127.28 36.47 127.92 36.68 128.41 36.89C128.9 37.1 129.33 37.41 129.68 37.82C130.03 38.23 130.22 38.77 130.23 39.44C130.23 40.04 130.06 40.58 129.73 41.06C129.4 41.54 128.93 41.92 128.32 42.19C127.71 42.46 127.02 42.6 126.23 42.6C125.39 42.6 124.64 42.46 123.97 42.17Z" fill="#CCA98B"/>
<path d="M134.41 42.17C133.74 41.88 133.22 41.48 132.83 40.97C132.44 40.46 132.23 39.87 132.19 39.2H134.07C134.12 39.75 134.38 40.19 134.84 40.54C135.3 40.89 135.9 41.06 136.65 41.06C137.34 41.06 137.89 40.91 138.29 40.6C138.69 40.29 138.89 39.91 138.89 39.44C138.89 38.97 138.68 38.6 138.25 38.37C137.82 38.14 137.16 37.91 136.27 37.68C135.46 37.47 134.79 37.25 134.28 37.03C133.77 36.81 133.33 36.48 132.96 36.05C132.59 35.62 132.41 35.05 132.41 34.34C132.41 33.78 132.58 33.27 132.91 32.8C133.24 32.33 133.72 31.96 134.33 31.69C134.94 31.42 135.64 31.28 136.43 31.28C137.64 31.28 138.62 31.59 139.37 32.2C140.12 32.81 140.52 33.65 140.57 34.72H138.75C138.71 34.15 138.48 33.69 138.06 33.34C137.64 32.99 137.08 32.82 136.37 32.82C135.72 32.82 135.2 32.96 134.81 33.24C134.42 33.52 134.23 33.89 134.23 34.34C134.23 34.7 134.35 35 134.58 35.23C134.81 35.46 135.11 35.65 135.46 35.79C135.81 35.93 136.3 36.09 136.93 36.26C137.72 36.47 138.36 36.68 138.85 36.89C139.34 37.1 139.77 37.41 140.12 37.82C140.47 38.23 140.66 38.77 140.67 39.44C140.67 40.04 140.5 40.58 140.17 41.06C139.84 41.54 139.37 41.92 138.76 42.19C138.15 42.46 137.46 42.6 136.67 42.6C135.83 42.6 135.08 42.46 134.41 42.17Z" fill="#CCA98B"/>
<path d="M145.22 41.9C144.39 41.43 143.73 40.77 143.26 39.91C142.79 39.05 142.55 38.05 142.55 36.92C142.55 35.79 142.79 34.81 143.28 33.95C143.77 33.09 144.43 32.43 145.27 31.97C146.11 31.51 147.05 31.28 148.09 31.28C149.13 31.28 150.07 31.51 150.91 31.97C151.75 32.43 152.41 33.09 152.9 33.94C153.39 34.79 153.63 35.79 153.63 36.92C153.63 38.05 153.38 39.05 152.88 39.91C152.38 40.77 151.7 41.43 150.85 41.9C150 42.37 149.05 42.6 148.01 42.6C146.97 42.6 146.05 42.37 145.22 41.9ZM149.85 40.54C150.42 40.23 150.89 39.77 151.24 39.16C151.59 38.55 151.77 37.8 151.77 36.92C151.77 36.04 151.6 35.29 151.25 34.68C150.9 34.07 150.45 33.61 149.89 33.31C149.33 33.01 148.72 32.86 148.07 32.86C147.42 32.86 146.79 33.01 146.24 33.31C145.69 33.61 145.24 34.07 144.91 34.68C144.58 35.29 144.41 36.04 144.41 36.92C144.41 37.8 144.57 38.57 144.9 39.18C145.23 39.79 145.66 40.25 146.21 40.55C146.76 40.85 147.36 41 148.01 41C148.66 41 149.28 40.85 149.85 40.54Z" fill="#CCA98B"/>
<path d="M187.33 507.61H181.55L180.49 510.56H178.67L183.46 497.39H185.45L190.22 510.56H188.4L187.34 507.61H187.33ZM186.83 506.21L184.44 499.52L182.05 506.21H186.84H186.83Z" fill="#424242"/>
<path d="M198.96 500.57C199.64 500.96 200.14 501.46 200.47 502.05V500.15H202.22V510.79C202.22 511.74 202.02 512.59 201.61 513.33C201.2 514.07 200.62 514.65 199.87 515.07C199.12 515.49 198.24 515.7 197.24 515.7C195.87 515.7 194.73 515.38 193.82 514.73C192.91 514.08 192.37 513.2 192.2 512.09H193.91C194.1 512.72 194.49 513.23 195.09 513.62C195.69 514.01 196.4 514.2 197.24 514.2C198.19 514.2 198.97 513.9 199.57 513.31C200.17 512.71 200.47 511.88 200.47 510.8V508.62C200.13 509.23 199.62 509.74 198.95 510.14C198.28 510.55 197.49 510.75 196.59 510.75C195.69 510.75 194.83 510.52 194.07 510.07C193.31 509.62 192.72 508.97 192.29 508.15C191.86 507.33 191.64 506.39 191.64 505.34C191.64 504.29 191.85 503.34 192.29 502.54C192.72 501.74 193.31 501.11 194.07 500.67C194.83 500.23 195.66 500 196.59 500C197.52 500 198.28 500.2 198.96 500.59V500.57ZM200 503.28C199.68 502.7 199.26 502.25 198.72 501.94C198.18 501.63 197.59 501.47 196.94 501.47C196.29 501.47 195.71 501.62 195.17 501.93C194.64 502.23 194.21 502.68 193.9 503.26C193.59 503.84 193.43 504.53 193.43 505.31C193.43 506.09 193.59 506.8 193.9 507.39C194.22 507.98 194.64 508.43 195.17 508.74C195.7 509.05 196.29 509.21 196.94 509.21C197.59 509.21 198.18 509.05 198.72 508.74C199.26 508.43 199.68 507.98 200 507.39C200.32 506.8 200.47 506.11 200.47 505.33C200.47 504.55 200.31 503.86 200 503.28Z" fill="#424242"/>
<path d="M207.04 510.07C206.25 509.63 205.63 509 205.18 508.18C204.73 507.36 204.51 506.42 204.51 505.34C204.51 504.26 204.74 503.34 205.2 502.52C205.66 501.7 206.29 501.08 207.09 500.64C207.89 500.2 208.78 499.98 209.77 499.98C210.76 499.98 211.65 500.2 212.45 500.64C213.25 501.08 213.88 501.7 214.34 502.51C214.8 503.32 215.03 504.26 215.03 505.34C215.03 506.42 214.79 507.36 214.32 508.18C213.84 509 213.2 509.63 212.39 510.07C211.58 510.51 210.68 510.74 209.69 510.74C208.7 510.74 207.83 510.52 207.04 510.07ZM211.44 508.77C211.98 508.48 212.42 508.04 212.76 507.46C213.1 506.88 213.26 506.17 213.26 505.33C213.26 504.49 213.09 503.78 212.77 503.2C212.44 502.62 212.01 502.18 211.48 501.9C210.95 501.61 210.37 501.47 209.75 501.47C209.13 501.47 208.54 501.61 208.01 501.9C207.48 502.19 207.06 502.62 206.75 503.2C206.43 503.78 206.28 504.49 206.28 505.33C206.28 506.17 206.43 506.89 206.74 507.48C207.05 508.06 207.46 508.5 207.98 508.78C208.5 509.06 209.07 509.21 209.69 509.21C210.31 509.21 210.89 509.06 211.44 508.77Z" fill="#424242"/>
<path d="M220.34 500.45C220.9 500.12 221.59 499.96 222.4 499.96V501.75H221.94C220 501.75 219.03 502.8 219.03 504.9V510.56H217.3V500.15H219.03V501.84C219.33 501.24 219.77 500.78 220.33 500.45H220.34Z" fill="#424242"/>
<path d="M224.39 502.51C224.82 501.71 225.41 501.08 226.17 500.64C226.93 500.2 227.76 499.97 228.69 499.97C229.62 499.97 230.39 500.17 231.07 500.56C231.75 500.95 232.24 501.45 232.57 502.04V500.14H234.32V510.55H232.57V508.61C232.23 509.22 231.72 509.72 231.04 510.12C230.36 510.52 229.58 510.72 228.67 510.72C227.76 510.72 226.91 510.49 226.16 510.04C225.41 509.59 224.82 508.94 224.39 508.12C223.96 507.3 223.75 506.36 223.75 505.31C223.75 504.26 223.96 503.31 224.39 502.51ZM232.09 503.28C231.77 502.7 231.35 502.25 230.81 501.94C230.27 501.63 229.68 501.47 229.03 501.47C228.38 501.47 227.8 501.62 227.26 501.93C226.73 502.23 226.3 502.68 225.99 503.26C225.68 503.84 225.52 504.53 225.52 505.31C225.52 506.09 225.68 506.8 225.99 507.39C226.31 507.98 226.73 508.43 227.26 508.74C227.79 509.05 228.38 509.21 229.03 509.21C229.68 509.21 230.27 509.05 230.81 508.74C231.35 508.43 231.77 507.98 232.09 507.39C232.41 506.8 232.56 506.11 232.56 505.33C232.56 504.55 232.4 503.86 232.09 503.28Z" fill="#424242"/>
<path d="M242.31 502.51C242.74 501.71 243.33 501.08 244.09 500.64C244.85 500.2 245.69 499.97 246.63 499.97C247.57 499.97 248.32 500.17 249 500.57C249.68 500.97 250.18 501.46 250.49 502.04V500.14H252.24V515.49H250.49V508.63C250.16 509.21 249.65 509.71 248.97 510.11C248.28 510.52 247.49 510.72 246.58 510.72C245.67 510.72 244.84 510.49 244.09 510.04C243.34 509.58 242.75 508.94 242.32 508.12C241.89 507.3 241.67 506.36 241.67 505.31C241.67 504.26 241.88 503.31 242.32 502.51H242.31ZM250.01 503.28C249.69 502.7 249.27 502.25 248.73 501.94C248.19 501.63 247.6 501.47 246.95 501.47C246.3 501.47 245.72 501.62 245.18 501.93C244.65 502.23 244.22 502.68 243.91 503.26C243.6 503.84 243.44 504.53 243.44 505.31C243.44 506.09 243.6 506.8 243.91 507.39C244.23 507.98 244.65 508.43 245.18 508.74C245.71 509.05 246.3 509.21 246.95 509.21C247.6 509.21 248.19 509.05 248.73 508.74C249.27 508.43 249.69 507.98 250.01 507.39C250.33 506.8 250.48 506.11 250.48 505.33C250.48 504.55 250.32 503.86 250.01 503.28Z" fill="#424242"/>
<path d="M264.39 500.15V510.56H262.66V509.02C262.33 509.55 261.87 509.97 261.28 510.26C260.69 510.56 260.04 510.71 259.33 510.71C258.52 510.71 257.79 510.54 257.14 510.21C256.49 509.88 255.98 509.37 255.61 508.7C255.24 508.03 255.05 507.21 255.05 506.25V500.15H256.76V506.02C256.76 507.05 257.02 507.83 257.54 508.39C258.06 508.94 258.77 509.22 259.67 509.22C260.57 509.22 261.32 508.93 261.86 508.36C262.39 507.79 262.66 506.96 262.66 505.87V500.15H264.39Z" fill="#424242"/>
<path d="M276.76 506H268.44C268.5 507.03 268.85 507.83 269.49 508.4C270.13 508.98 270.9 509.26 271.82 509.26C272.57 509.26 273.19 509.09 273.69 508.74C274.19 508.39 274.54 507.93 274.74 507.34H276.6C276.32 508.34 275.76 509.15 274.93 509.78C274.1 510.41 273.05 510.72 271.81 510.72C270.82 510.72 269.94 510.5 269.16 510.05C268.38 509.6 267.77 508.98 267.33 508.16C266.88 507.34 266.66 506.4 266.66 505.32C266.66 504.24 266.87 503.3 267.31 502.49C267.74 501.68 268.35 501.06 269.12 500.62C269.9 500.18 270.79 499.96 271.81 499.96C272.83 499.96 273.67 500.18 274.43 500.61C275.19 501.04 275.78 501.63 276.19 502.39C276.6 503.14 276.81 504 276.81 504.94C276.81 505.27 276.79 505.62 276.75 505.99L276.76 506ZM274.59 502.89C274.3 502.41 273.9 502.05 273.4 501.81C272.9 501.56 272.35 501.44 271.74 501.44C270.87 501.44 270.12 501.72 269.51 502.28C268.9 502.84 268.55 503.61 268.46 504.6H275.03C275.03 503.94 274.89 503.37 274.59 502.9V502.89Z" fill="#424242"/>
<path d="M285.71 510.32C285.08 510.05 284.58 509.67 284.21 509.18C283.84 508.69 283.64 508.13 283.6 507.5H285.39C285.44 508.02 285.68 508.44 286.12 508.77C286.56 509.1 287.13 509.26 287.84 509.26C288.5 509.26 289.02 509.11 289.4 508.82C289.78 508.53 289.97 508.16 289.97 507.72C289.97 507.28 289.77 506.93 289.36 506.7C288.95 506.47 288.33 506.26 287.48 506.04C286.71 505.84 286.08 505.63 285.59 505.42C285.1 505.21 284.68 504.9 284.34 504.49C283.99 504.08 283.82 503.54 283.82 502.87C283.82 502.34 283.98 501.85 284.3 501.41C284.62 500.97 285.07 500.62 285.65 500.36C286.23 500.1 286.9 499.97 287.65 499.97C288.8 499.97 289.73 500.26 290.44 500.84C291.15 501.42 291.53 502.22 291.58 503.23H289.85C289.81 502.69 289.59 502.25 289.2 501.92C288.8 501.59 288.26 501.43 287.59 501.43C286.97 501.43 286.47 501.56 286.11 501.83C285.74 502.1 285.56 502.44 285.56 502.87C285.56 503.21 285.67 503.49 285.89 503.72C286.11 503.94 286.39 504.12 286.73 504.25C287.07 504.38 287.53 504.53 288.13 504.7C288.88 504.9 289.49 505.1 289.95 505.3C290.42 505.5 290.82 505.79 291.16 506.18C291.49 506.57 291.67 507.09 291.68 507.72C291.68 508.29 291.52 508.8 291.21 509.26C290.9 509.72 290.45 510.07 289.87 510.33C289.29 510.59 288.63 510.72 287.89 510.72C287.09 510.72 286.37 510.58 285.74 510.31L285.71 510.32Z" fill="#424242"/>
<path d="M303.53 506H295.21C295.27 507.03 295.63 507.83 296.26 508.4C296.9 508.98 297.68 509.26 298.59 509.26C299.34 509.26 299.96 509.09 300.46 508.74C300.96 508.39 301.31 507.93 301.51 507.34H303.37C303.09 508.34 302.53 509.15 301.7 509.78C300.87 510.41 299.82 510.72 298.58 510.72C297.59 510.72 296.71 510.5 295.93 510.05C295.15 509.6 294.54 508.98 294.1 508.16C293.66 507.34 293.44 506.4 293.44 505.32C293.44 504.24 293.65 503.3 294.08 502.49C294.51 501.68 295.12 501.06 295.89 500.62C296.67 500.18 297.57 499.96 298.58 499.96C299.59 499.96 300.44 500.18 301.2 500.61C301.96 501.04 302.55 501.63 302.96 502.39C303.37 503.15 303.58 504 303.58 504.94C303.58 505.27 303.56 505.62 303.52 505.99L303.53 506ZM301.36 502.89C301.07 502.41 300.67 502.05 300.17 501.81C299.67 501.56 299.12 501.44 298.51 501.44C297.63 501.44 296.89 501.72 296.28 502.28C295.66 502.84 295.31 503.61 295.23 504.6H301.8C301.8 503.94 301.65 503.37 301.36 502.9V502.89Z" fill="#424242"/>
<path d="M315.1 500.15V510.56H313.37V509.02C313.04 509.55 312.58 509.97 311.99 510.26C311.4 510.56 310.75 510.71 310.04 510.71C309.23 510.71 308.5 510.54 307.85 510.21C307.2 509.88 306.69 509.37 306.32 508.7C305.95 508.03 305.76 507.21 305.76 506.25V500.15H307.47V506.02C307.47 507.05 307.73 507.83 308.25 508.39C308.77 508.94 309.48 509.22 310.38 509.22C311.28 509.22 312.03 508.93 312.57 508.36C313.1 507.79 313.37 506.96 313.37 505.87V500.15H315.1Z" fill="#424242"/>
<path d="M323.1 502.51C323.53 501.71 324.13 501.08 324.89 500.64C325.65 500.2 326.53 499.97 327.52 499.97C328.8 499.97 329.85 500.28 330.68 500.9C331.51 501.52 332.06 502.38 332.32 503.48H330.46C330.28 502.85 329.94 502.35 329.42 501.98C328.91 501.61 328.27 501.43 327.51 501.43C326.52 501.43 325.72 501.77 325.12 502.45C324.51 503.13 324.21 504.09 324.21 505.33C324.21 506.57 324.51 507.55 325.12 508.24C325.73 508.92 326.53 509.27 327.51 509.27C328.27 509.27 328.9 509.09 329.41 508.74C329.92 508.39 330.27 507.88 330.45 507.22H332.31C332.03 508.28 331.47 509.14 330.64 509.78C329.81 510.42 328.76 510.74 327.5 510.74C326.51 510.74 325.63 510.52 324.87 510.07C324.11 509.62 323.5 509 323.08 508.19C322.65 507.38 322.43 506.43 322.43 505.34C322.43 504.25 322.64 503.32 323.08 502.52L323.1 502.51Z" fill="#424242"/>
<path d="M334.63 502.51C335.06 501.71 335.65 501.08 336.41 500.64C337.17 500.2 338 499.97 338.93 499.97C339.86 499.97 340.64 500.17 341.31 500.56C341.98 500.95 342.48 501.45 342.81 502.04V500.14H344.56V510.55H342.81V508.61C342.47 509.22 341.96 509.72 341.28 510.12C340.6 510.52 339.81 510.72 338.91 510.72C338.01 510.72 337.15 510.49 336.4 510.04C335.65 509.58 335.06 508.94 334.63 508.12C334.2 507.3 333.98 506.36 333.98 505.31C333.98 504.26 334.19 503.31 334.63 502.51ZM342.33 503.28C342.01 502.7 341.59 502.25 341.05 501.94C340.51 501.63 339.92 501.47 339.27 501.47C338.62 501.47 338.04 501.62 337.5 501.93C336.97 502.23 336.54 502.68 336.23 503.26C335.92 503.84 335.76 504.53 335.76 505.31C335.76 506.09 335.92 506.8 336.23 507.39C336.55 507.98 336.97 508.43 337.5 508.74C338.03 509.05 338.62 509.21 339.27 509.21C339.92 509.21 340.51 509.05 341.05 508.74C341.59 508.43 342.01 507.98 342.33 507.39C342.65 506.8 342.8 506.11 342.8 505.33C342.8 504.55 342.64 503.86 342.33 503.28Z" fill="#424242"/>
<path d="M347.48 502.51C347.91 501.71 348.51 501.08 349.27 500.64C350.03 500.2 350.91 499.97 351.9 499.97C353.18 499.97 354.23 500.28 355.06 500.9C355.89 501.52 356.44 502.38 356.7 503.48H354.84C354.66 502.85 354.32 502.35 353.8 501.98C353.29 501.61 352.65 501.43 351.89 501.43C350.9 501.43 350.1 501.77 349.5 502.45C348.89 503.13 348.59 504.09 348.59 505.33C348.59 506.57 348.89 507.55 349.5 508.24C350.11 508.92 350.91 509.27 351.89 509.27C352.65 509.27 353.28 509.09 353.79 508.74C354.3 508.39 354.65 507.88 354.83 507.22H356.69C356.41 508.28 355.85 509.14 355.02 509.78C354.19 510.42 353.14 510.74 351.88 510.74C350.89 510.74 350.01 510.52 349.25 510.07C348.49 509.62 347.88 509 347.46 508.19C347.03 507.38 346.81 506.43 346.81 505.34C346.81 504.25 347.02 503.32 347.46 502.52L347.48 502.51Z" fill="#424242"/>
<path d="M366.3 500.46C366.93 500.8 367.43 501.3 367.79 501.97C368.15 502.64 368.33 503.46 368.33 504.42V510.56H366.62V504.67C366.62 503.63 366.36 502.84 365.84 502.29C365.32 501.74 364.61 501.46 363.71 501.46C362.81 501.46 362.07 501.74 361.53 502.31C360.99 502.88 360.72 503.71 360.72 504.8V510.56H358.99V496.5H360.72V501.63C361.06 501.1 361.53 500.69 362.14 500.39C362.74 500.1 363.42 499.95 364.16 499.95C364.95 499.95 365.65 500.12 366.29 500.45L366.3 500.46Z" fill="#424242"/>
<path d="M373.06 510.07C372.27 509.63 371.65 509 371.2 508.18C370.75 507.36 370.53 506.42 370.53 505.34C370.53 504.26 370.76 503.34 371.22 502.52C371.68 501.7 372.31 501.08 373.11 500.64C373.91 500.2 374.8 499.98 375.79 499.98C376.78 499.98 377.67 500.2 378.47 500.64C379.27 501.08 379.9 501.7 380.36 502.51C380.82 503.32 381.05 504.26 381.05 505.34C381.05 506.42 380.81 507.36 380.34 508.18C379.86 509 379.22 509.63 378.41 510.07C377.6 510.51 376.7 510.74 375.71 510.74C374.72 510.74 373.85 510.52 373.06 510.07ZM377.46 508.77C378 508.48 378.44 508.04 378.78 507.46C379.12 506.88 379.28 506.17 379.28 505.33C379.28 504.49 379.11 503.78 378.79 503.2C378.46 502.62 378.03 502.18 377.5 501.9C376.97 501.61 376.39 501.47 375.77 501.47C375.15 501.47 374.56 501.61 374.03 501.9C373.5 502.19 373.08 502.62 372.77 503.2C372.45 503.78 372.3 504.49 372.3 505.33C372.3 506.17 372.45 506.89 372.76 507.48C373.07 508.06 373.48 508.5 374 508.78C374.52 509.06 375.09 509.21 375.71 509.21C376.33 509.21 376.91 509.06 377.46 508.77Z" fill="#424242"/>
<path d="M386.36 500.45C386.92 500.12 387.61 499.96 388.42 499.96V501.75H387.96C386.02 501.75 385.05 502.8 385.05 504.9V510.56H383.32V500.15H385.05V501.84C385.35 501.24 385.79 500.78 386.35 500.45H386.36Z" fill="#424242"/>
<path d="M393.45 500.45C394.01 500.12 394.7 499.96 395.51 499.96V501.75H395.05C393.11 501.75 392.14 502.8 392.14 504.9V510.56H390.41V500.15H392.14V501.84C392.44 501.24 392.88 500.78 393.44 500.45H393.45Z" fill="#424242"/>
<path d="M397.56 498.11C397.33 497.88 397.22 497.6 397.22 497.27C397.22 496.94 397.34 496.66 397.56 496.43C397.79 496.2 398.07 496.09 398.4 496.09C398.73 496.09 398.98 496.2 399.21 496.43C399.43 496.66 399.54 496.94 399.54 497.27C399.54 497.6 399.43 497.88 399.21 498.11C398.99 498.34 398.72 498.45 398.4 498.45C398.08 498.45 397.79 498.34 397.56 498.11ZM399.23 500.15V510.56H397.5V500.15H399.23Z" fill="#424242"/>
<path d="M410.33 501.11C411.12 501.88 411.51 502.98 411.51 504.43V510.57H409.8V504.68C409.8 503.64 409.54 502.85 409.02 502.3C408.5 501.75 407.79 501.47 406.89 501.47C405.99 501.47 405.25 501.75 404.71 502.32C404.17 502.89 403.9 503.72 403.9 504.81V510.57H402.17V500.16H403.9V501.64C404.24 501.11 404.71 500.7 405.3 500.4C405.89 500.11 406.54 499.96 407.25 499.96C408.52 499.96 409.54 500.34 410.33 501.11Z" fill="#424242"/>
<path d="M421.63 500.46C422.26 500.8 422.76 501.3 423.12 501.97C423.48 502.64 423.66 503.46 423.66 504.42V510.56H421.95V504.67C421.95 503.63 421.69 502.84 421.17 502.29C420.65 501.74 419.94 501.46 419.04 501.46C418.14 501.46 417.4 501.74 416.86 502.31C416.32 502.88 416.05 503.71 416.05 504.8V510.56H414.32V496.5H416.05V501.63C416.39 501.1 416.86 500.69 417.46 500.39C418.06 500.1 418.74 499.95 419.48 499.95C420.27 499.95 420.97 500.12 421.61 500.45L421.63 500.46Z" fill="#424242"/>
<path d="M428.39 510.07C427.6 509.63 426.98 509 426.53 508.18C426.08 507.36 425.86 506.42 425.86 505.34C425.86 504.26 426.09 503.34 426.55 502.52C427.01 501.7 427.64 501.08 428.44 500.64C429.24 500.2 430.13 499.98 431.12 499.98C432.11 499.98 433 500.2 433.8 500.64C434.6 501.08 435.23 501.7 435.69 502.51C436.15 503.32 436.38 504.26 436.38 505.34C436.38 506.42 436.14 507.36 435.67 508.18C435.2 509 434.55 509.63 433.74 510.07C432.93 510.51 432.03 510.74 431.04 510.74C430.05 510.74 429.18 510.52 428.39 510.07ZM432.79 508.77C433.33 508.48 433.77 508.04 434.11 507.46C434.45 506.88 434.61 506.17 434.61 505.33C434.61 504.49 434.45 503.78 434.12 503.2C433.79 502.62 433.36 502.18 432.83 501.9C432.3 501.61 431.72 501.47 431.1 501.47C430.48 501.47 429.89 501.61 429.36 501.9C428.83 502.19 428.41 502.62 428.1 503.2C427.78 503.78 427.63 504.49 427.63 505.33C427.63 506.17 427.79 506.89 428.1 507.48C428.41 508.06 428.82 508.5 429.34 508.78C429.86 509.06 430.43 509.21 431.05 509.21C431.67 509.21 432.25 509.06 432.8 508.77H432.79Z" fill="#424242"/>
<path d="M125.6 528.8H117.28C117.34 529.83 117.7 530.63 118.33 531.2C118.97 531.78 119.75 532.06 120.66 532.06C121.41 532.06 122.03 531.89 122.53 531.54C123.03 531.19 123.38 530.73 123.58 530.14H125.44C125.16 531.14 124.6 531.95 123.77 532.58C122.94 533.21 121.89 533.52 120.65 533.52C119.66 533.52 118.78 533.3 118 532.85C117.22 532.4 116.61 531.78 116.17 530.96C115.73 530.14 115.51 529.2 115.51 528.12C115.51 527.04 115.72 526.1 116.15 525.29C116.58 524.48 117.19 523.86 117.96 523.42C118.74 522.98 119.64 522.76 120.65 522.76C121.66 522.76 122.51 522.98 123.27 523.41C124.03 523.84 124.62 524.43 125.03 525.19C125.44 525.95 125.65 526.8 125.65 527.74C125.65 528.07 125.63 528.42 125.59 528.79L125.6 528.8ZM123.43 525.69C123.14 525.21 122.74 524.85 122.24 524.61C121.74 524.36 121.19 524.24 120.58 524.24C119.7 524.24 118.96 524.52 118.35 525.08C117.73 525.64 117.38 526.41 117.3 527.4H123.87C123.87 526.74 123.72 526.17 123.43 525.7V525.69Z" fill="#424242"/>
<path d="M129.47 533.12C128.84 532.85 128.34 532.47 127.97 531.98C127.6 531.49 127.4 530.93 127.36 530.3H129.15C129.2 530.82 129.44 531.24 129.88 531.57C130.32 531.9 130.89 532.06 131.6 532.06C132.26 532.06 132.78 531.91 133.16 531.62C133.54 531.33 133.73 530.96 133.73 530.52C133.73 530.08 133.53 529.73 133.12 529.5C132.71 529.28 132.09 529.06 131.24 528.84C130.47 528.64 129.84 528.43 129.35 528.22C128.86 528.01 128.44 527.7 128.09 527.29C127.74 526.88 127.57 526.34 127.57 525.67C127.57 525.14 127.73 524.65 128.04 524.21C128.35 523.77 128.81 523.42 129.39 523.16C129.97 522.9 130.64 522.77 131.38 522.77C132.53 522.77 133.46 523.06 134.17 523.64C134.88 524.22 135.26 525.02 135.31 526.03H133.58C133.54 525.49 133.32 525.05 132.92 524.72C132.52 524.39 131.99 524.23 131.31 524.23C130.69 524.23 130.19 524.36 129.83 524.63C129.46 524.9 129.28 525.24 129.28 525.67C129.28 526.01 129.39 526.29 129.61 526.52C129.83 526.74 130.11 526.92 130.45 527.05C130.79 527.18 131.25 527.33 131.85 527.5C132.6 527.7 133.2 527.9 133.67 528.1C134.14 528.3 134.54 528.59 134.88 528.98C135.22 529.37 135.39 529.89 135.4 530.52C135.4 531.09 135.24 531.6 134.92 532.06C134.6 532.52 134.16 532.87 133.58 533.13C133 533.39 132.34 533.52 131.59 533.52C130.79 533.52 130.08 533.38 129.44 533.11L129.47 533.12Z" fill="#424242"/>
<path d="M139.96 524.37V530.51C139.96 531.02 140.07 531.37 140.28 531.58C140.5 531.79 140.87 531.89 141.4 531.89H142.67V533.35H141.11C140.15 533.35 139.42 533.13 138.94 532.68C138.46 532.24 138.22 531.51 138.22 530.5V524.36H136.87V522.94H138.22V520.32H139.95V522.94H142.67V524.36H139.95L139.96 524.37Z" fill="#424242"/>
<path d="M144.77 525.31C145.2 524.51 145.79 523.88 146.55 523.44C147.31 523 148.14 522.77 149.07 522.77C150 522.77 150.77 522.97 151.45 523.36C152.13 523.75 152.62 524.25 152.95 524.84V522.94H154.7V533.35H152.95V531.41C152.61 532.02 152.1 532.52 151.42 532.92C150.74 533.32 149.96 533.52 149.05 533.52C148.14 533.52 147.29 533.29 146.54 532.84C145.79 532.39 145.2 531.74 144.77 530.92C144.34 530.1 144.13 529.16 144.13 528.11C144.13 527.06 144.34 526.11 144.77 525.31ZM152.46 526.08C152.14 525.5 151.72 525.05 151.18 524.74C150.64 524.43 150.05 524.27 149.4 524.27C148.75 524.27 148.17 524.42 147.63 524.73C147.1 525.03 146.67 525.48 146.36 526.06C146.05 526.64 145.89 527.33 145.89 528.11C145.89 528.89 146.05 529.6 146.36 530.19C146.68 530.78 147.1 531.23 147.63 531.54C148.16 531.85 148.75 532.01 149.4 532.01C150.05 532.01 150.64 531.85 151.18 531.54C151.72 531.23 152.14 530.78 152.46 530.19C152.78 529.6 152.93 528.91 152.93 528.13C152.93 527.35 152.77 526.66 152.46 526.08ZM151.59 520L147.54 522.17V520.88L151.59 518.5V520Z" fill="#424242"/>
<path d="M165.94 523.38C166.62 522.98 167.41 522.78 168.31 522.78C169.21 522.78 170.07 523 170.83 523.45C171.59 523.9 172.18 524.52 172.61 525.32C173.04 526.12 173.26 527.06 173.26 528.12C173.26 529.18 173.04 530.11 172.61 530.93C172.18 531.75 171.59 532.39 170.83 532.85C170.07 533.31 169.24 533.53 168.31 533.53C167.38 533.53 166.64 533.33 165.96 532.93C165.28 532.53 164.77 532.03 164.41 531.44V538.3H162.68V522.95H164.41V524.87C164.75 524.28 165.26 523.78 165.94 523.38ZM171.01 526.06C170.69 525.48 170.27 525.03 169.73 524.73C169.19 524.43 168.6 524.27 167.95 524.27C167.3 524.27 166.73 524.43 166.19 524.74C165.65 525.05 165.22 525.5 164.9 526.09C164.58 526.68 164.42 527.36 164.42 528.13C164.42 528.9 164.58 529.6 164.9 530.19C165.22 530.78 165.65 531.23 166.19 531.54C166.73 531.85 167.31 532.01 167.95 532.01C168.59 532.01 169.19 531.85 169.73 531.54C170.27 531.23 170.69 530.78 171.01 530.19C171.33 529.6 171.48 528.91 171.48 528.11C171.48 527.31 171.32 526.64 171.01 526.06Z" fill="#424242"/>
<path d="M178.56 523.25C179.12 522.92 179.81 522.76 180.62 522.76V524.55H180.16C178.22 524.55 177.25 525.6 177.25 527.7V533.36H175.52V522.95H177.25V524.64C177.55 524.04 177.99 523.58 178.55 523.25H178.56Z" fill="#424242"/>
<path d="M184.5 532.87C183.71 532.43 183.09 531.8 182.64 530.98C182.19 530.16 181.97 529.22 181.97 528.14C181.97 527.06 182.2 526.14 182.66 525.32C183.12 524.5 183.75 523.88 184.55 523.44C185.35 523 186.24 522.78 187.23 522.78C188.22 522.78 189.11 523 189.91 523.44C190.71 523.88 191.34 524.5 191.8 525.31C192.26 526.12 192.49 527.06 192.49 528.14C192.49 529.22 192.25 530.16 191.78 530.98C191.31 531.8 190.66 532.43 189.85 532.87C189.04 533.31 188.14 533.54 187.15 533.54C186.16 533.54 185.29 533.32 184.5 532.87ZM188.9 531.57C189.44 531.28 189.88 530.84 190.22 530.26C190.56 529.68 190.72 528.97 190.72 528.13C190.72 527.29 190.56 526.58 190.23 526C189.9 525.42 189.47 524.98 188.94 524.7C188.41 524.41 187.83 524.27 187.21 524.27C186.59 524.27 186 524.41 185.47 524.7C184.94 524.99 184.52 525.42 184.21 526C183.89 526.58 183.74 527.29 183.74 528.13C183.74 528.97 183.9 529.69 184.21 530.28C184.52 530.86 184.93 531.3 185.45 531.58C185.97 531.86 186.54 532.01 187.16 532.01C187.78 532.01 188.36 531.86 188.91 531.57H188.9Z" fill="#424242"/>
<path d="M202.93 523.91C203.72 524.68 204.11 525.78 204.11 527.23V533.37H202.4V527.48C202.4 526.44 202.14 525.65 201.62 525.1C201.1 524.55 200.39 524.27 199.49 524.27C198.59 524.27 197.85 524.55 197.31 525.12C196.77 525.69 196.5 526.52 196.5 527.61V533.37H194.77V522.96H196.5V524.44C196.84 523.91 197.31 523.5 197.9 523.2C198.49 522.91 199.14 522.76 199.85 522.76C201.12 522.76 202.14 523.14 202.93 523.91Z" fill="#424242"/>
<path d="M209.04 524.37V530.51C209.04 531.02 209.15 531.37 209.36 531.58C209.58 531.79 209.95 531.89 210.48 531.89H211.75V533.35H210.19C209.23 533.35 208.5 533.13 208.02 532.68C207.54 532.24 207.3 531.51 207.3 530.5V524.36H205.95V522.94H207.3V520.32H209.03V522.94H211.75V524.36H209.03L209.04 524.37Z" fill="#424242"/>
<path d="M215.74 532.87C214.95 532.43 214.33 531.8 213.88 530.98C213.43 530.16 213.21 529.22 213.21 528.14C213.21 527.06 213.44 526.14 213.9 525.32C214.36 524.5 214.99 523.88 215.79 523.44C216.59 523 217.48 522.78 218.47 522.78C219.46 522.78 220.35 523 221.15 523.44C221.95 523.88 222.58 524.5 223.04 525.31C223.5 526.12 223.73 527.06 223.73 528.14C223.73 529.22 223.49 530.16 223.02 530.98C222.55 531.8 221.9 532.43 221.09 532.87C220.28 533.31 219.38 533.54 218.39 533.54C217.4 533.54 216.53 533.32 215.74 532.87ZM220.14 531.57C220.68 531.28 221.12 530.84 221.46 530.26C221.8 529.68 221.96 528.97 221.96 528.13C221.96 527.29 221.8 526.58 221.47 526C221.14 525.42 220.71 524.98 220.18 524.7C219.65 524.41 219.07 524.27 218.45 524.27C217.83 524.27 217.24 524.41 216.71 524.7C216.18 524.99 215.76 525.42 215.45 526C215.13 526.58 214.98 527.29 214.98 528.13C214.98 528.97 215.14 529.69 215.45 530.28C215.76 530.86 216.17 531.3 216.69 531.58C217.21 531.86 217.78 532.01 218.4 532.01C219.02 532.01 219.6 531.86 220.15 531.57H220.14Z" fill="#424242"/>
<path d="M234.34 523.38C235.02 522.98 235.8 522.78 236.71 522.78C237.62 522.78 238.47 523 239.23 523.45C239.99 523.9 240.58 524.52 241.01 525.32C241.44 526.12 241.66 527.06 241.66 528.12C241.66 529.18 241.45 530.11 241.01 530.93C240.58 531.75 239.99 532.39 239.23 532.85C238.47 533.31 237.64 533.53 236.71 533.53C235.78 533.53 235.04 533.33 234.36 532.93C233.68 532.53 233.17 532.03 232.81 531.44V538.3H231.08V522.95H232.81V524.87C233.15 524.28 233.66 523.78 234.34 523.38ZM239.4 526.06C239.08 525.48 238.66 525.03 238.12 524.73C237.58 524.43 236.99 524.27 236.34 524.27C235.69 524.27 235.12 524.43 234.58 524.74C234.04 525.05 233.61 525.5 233.29 526.09C232.97 526.68 232.81 527.36 232.81 528.13C232.81 528.9 232.97 529.6 233.29 530.19C233.61 530.78 234.04 531.23 234.58 531.54C235.12 531.85 235.7 532.01 236.34 532.01C236.98 532.01 237.58 531.85 238.12 531.54C238.66 531.23 239.08 530.78 239.4 530.19C239.72 529.6 239.87 528.91 239.87 528.11C239.87 527.31 239.71 526.64 239.4 526.06Z" fill="#424242"/>
<path d="M243.98 520.91C243.75 520.68 243.64 520.4 243.64 520.07C243.64 519.74 243.75 519.46 243.98 519.23C244.21 519 244.49 518.89 244.82 518.89C245.15 518.89 245.41 519 245.63 519.23C245.85 519.46 245.96 519.74 245.96 520.07C245.96 520.4 245.85 520.68 245.63 520.91C245.41 521.14 245.14 521.25 244.82 521.25C244.5 521.25 244.21 521.14 243.98 520.91ZM245.66 522.95V533.36H243.93V522.95H245.66Z" fill="#424242"/>
<path d="M256.75 523.91C257.54 524.68 257.93 525.78 257.93 527.23V533.37H256.22V527.48C256.22 526.44 255.96 525.65 255.44 525.1C254.92 524.55 254.21 524.27 253.31 524.27C252.41 524.27 251.67 524.55 251.13 525.12C250.59 525.69 250.32 526.52 250.32 527.61V533.37H248.59V522.96H250.32V524.44C250.66 523.91 251.13 523.5 251.72 523.2C252.31 522.91 252.96 522.76 253.67 522.76C254.94 522.76 255.96 523.14 256.75 523.91Z" fill="#424242"/>
<path d="M262.87 524.37V530.51C262.87 531.02 262.98 531.37 263.19 531.58C263.41 531.79 263.78 531.89 264.31 531.89H265.58V533.35H264.02C263.06 533.35 262.33 533.13 261.85 532.68C261.37 532.24 261.13 531.51 261.13 530.5V524.36H259.78V522.94H261.13V520.32H262.86V522.94H265.58V524.36H262.86L262.87 524.37Z" fill="#424242"/>
<path d="M277.12 528.8H268.8C268.86 529.83 269.22 530.63 269.85 531.2C270.49 531.78 271.27 532.06 272.18 532.06C272.93 532.06 273.55 531.89 274.05 531.54C274.55 531.19 274.9 530.73 275.1 530.14H276.96C276.68 531.14 276.12 531.95 275.29 532.58C274.46 533.21 273.41 533.52 272.17 533.52C271.18 533.52 270.3 533.3 269.52 532.85C268.74 532.4 268.13 531.78 267.69 530.96C267.25 530.14 267.03 529.2 267.03 528.12C267.03 527.04 267.24 526.1 267.67 525.29C268.1 524.48 268.71 523.86 269.48 523.42C270.26 522.98 271.16 522.76 272.17 522.76C273.18 522.76 274.03 522.98 274.79 523.41C275.55 523.84 276.14 524.43 276.55 525.19C276.96 525.95 277.17 526.8 277.17 527.74C277.17 528.07 277.15 528.42 277.11 528.79L277.12 528.8ZM274.95 525.69C274.66 525.21 274.26 524.85 273.76 524.61C273.26 524.36 272.71 524.24 272.1 524.24C271.22 524.24 270.48 524.52 269.87 525.08C269.25 525.64 268.9 526.41 268.82 527.4H275.39C275.39 526.74 275.24 526.17 274.95 525.7V525.69Z" fill="#424242"/>
<path d="M286.42 532.87C285.63 532.43 285.01 531.8 284.56 530.98C284.11 530.16 283.89 529.22 283.89 528.14C283.89 527.06 284.12 526.14 284.58 525.32C285.04 524.5 285.67 523.88 286.47 523.44C287.27 523 288.16 522.78 289.15 522.78C290.14 522.78 291.03 523 291.83 523.44C292.63 523.88 293.26 524.5 293.72 525.31C294.18 526.12 294.41 527.06 294.41 528.14C294.41 529.22 294.17 530.16 293.7 530.98C293.23 531.8 292.58 532.43 291.77 532.87C290.96 533.31 290.06 533.54 289.07 533.54C288.08 533.54 287.21 533.32 286.42 532.87ZM290.82 531.57C291.36 531.28 291.8 530.84 292.14 530.26C292.48 529.68 292.64 528.97 292.64 528.13C292.64 527.29 292.48 526.58 292.15 526C291.82 525.42 291.39 524.98 290.86 524.7C290.33 524.41 289.75 524.27 289.13 524.27C288.51 524.27 287.92 524.41 287.39 524.7C286.86 524.99 286.44 525.42 286.13 526C285.81 526.58 285.66 527.29 285.66 528.13C285.66 528.97 285.82 529.69 286.13 530.28C286.44 530.86 286.85 531.3 287.37 531.58C287.89 531.86 288.46 532.01 289.08 532.01C289.7 532.01 290.28 531.86 290.83 531.57H290.82Z" fill="#424242"/>
<path d="M298.23 533.12C297.6 532.85 297.1 532.47 296.73 531.98C296.36 531.49 296.16 530.93 296.12 530.3H297.91C297.96 530.82 298.2 531.24 298.64 531.57C299.08 531.9 299.65 532.06 300.36 532.06C301.02 532.06 301.54 531.91 301.92 531.62C302.3 531.33 302.49 530.96 302.49 530.52C302.49 530.08 302.29 529.73 301.88 529.5C301.47 529.28 300.85 529.06 300 528.84C299.23 528.64 298.6 528.43 298.11 528.22C297.62 528.01 297.2 527.7 296.85 527.29C296.5 526.88 296.33 526.34 296.33 525.67C296.33 525.14 296.49 524.65 296.8 524.21C297.11 523.77 297.57 523.42 298.15 523.16C298.73 522.9 299.4 522.77 300.14 522.77C301.29 522.77 302.22 523.06 302.93 523.64C303.64 524.22 304.02 525.02 304.07 526.03H302.34C302.3 525.49 302.08 525.05 301.68 524.72C301.28 524.39 300.75 524.23 300.07 524.23C299.45 524.23 298.95 524.36 298.59 524.63C298.22 524.9 298.04 525.24 298.04 525.67C298.04 526.01 298.15 526.29 298.37 526.52C298.59 526.74 298.87 526.92 299.21 527.05C299.55 527.18 300.01 527.33 300.61 527.5C301.36 527.7 301.96 527.9 302.43 528.1C302.9 528.3 303.3 528.59 303.64 528.98C303.98 529.37 304.15 529.89 304.16 530.52C304.16 531.09 304 531.6 303.68 532.06C303.36 532.52 302.92 532.87 302.34 533.13C301.76 533.39 301.1 533.52 300.35 533.52C299.55 533.52 298.84 533.38 298.2 533.11L298.23 533.12Z" fill="#424242"/>
<path d="M313.57 532.87C312.78 532.43 312.16 531.8 311.71 530.98C311.26 530.16 311.04 529.22 311.04 528.14C311.04 527.06 311.27 526.14 311.73 525.32C312.19 524.5 312.82 523.88 313.62 523.44C314.42 523 315.31 522.78 316.3 522.78C317.29 522.78 318.18 523 318.98 523.44C319.78 523.88 320.41 524.5 320.87 525.31C321.33 526.12 321.56 527.06 321.56 528.14C321.56 529.22 321.32 530.16 320.85 530.98C320.38 531.8 319.73 532.43 318.92 532.87C318.11 533.31 317.21 533.54 316.22 533.54C315.23 533.54 314.36 533.32 313.57 532.87ZM317.97 531.57C318.51 531.28 318.95 530.84 319.29 530.26C319.63 529.68 319.79 528.97 319.79 528.13C319.79 527.29 319.63 526.58 319.3 526C318.97 525.42 318.54 524.98 318.01 524.7C317.48 524.41 316.9 524.27 316.28 524.27C315.66 524.27 315.07 524.41 314.54 524.7C314.01 524.99 313.59 525.42 313.28 526C312.96 526.58 312.81 527.29 312.81 528.13C312.81 528.97 312.97 529.69 313.28 530.28C313.59 530.86 314 531.3 314.52 531.58C315.04 531.86 315.61 532.01 316.23 532.01C316.85 532.01 317.43 531.86 317.98 531.57H317.97Z" fill="#424242"/>
<path d="M325.57 519.3V533.36H323.84V519.3H325.57Z" fill="#424242"/>
<path d="M335.81 523.26C336.44 523.6 336.94 524.1 337.3 524.77C337.66 525.44 337.84 526.26 337.84 527.22V533.36H336.13V527.47C336.13 526.43 335.87 525.64 335.35 525.09C334.83 524.54 334.12 524.26 333.22 524.26C332.32 524.26 331.58 524.54 331.04 525.11C330.5 525.68 330.23 526.51 330.23 527.6V533.36H328.5V519.3H330.23V524.43C330.57 523.9 331.04 523.49 331.64 523.19C332.24 522.9 332.92 522.75 333.66 522.75C334.45 522.75 335.15 522.92 335.79 523.25L335.81 523.26Z" fill="#424242"/>
<path d="M340.73 520.91C340.5 520.68 340.39 520.4 340.39 520.07C340.39 519.74 340.5 519.46 340.73 519.23C340.96 519 341.24 518.89 341.57 518.89C341.9 518.89 342.16 519 342.38 519.23C342.6 519.46 342.71 519.74 342.71 520.07C342.71 520.4 342.6 520.68 342.38 520.91C342.16 521.14 341.89 521.25 341.57 521.25C341.25 521.25 340.96 521.14 340.73 520.91ZM342.4 522.95V533.36H340.67V522.95H342.4Z" fill="#424242"/>
<path d="M353.5 523.91C354.29 524.68 354.68 525.78 354.68 527.23V533.37H352.97V527.48C352.97 526.44 352.71 525.65 352.19 525.1C351.67 524.55 350.96 524.27 350.06 524.27C349.16 524.27 348.42 524.55 347.88 525.12C347.34 525.69 347.07 526.52 347.07 527.61V533.37H345.34V522.96H347.07V524.44C347.41 523.91 347.88 523.5 348.47 523.2C349.06 522.91 349.71 522.76 350.42 522.76C351.69 522.76 352.71 523.14 353.5 523.91Z" fill="#424242"/>
<path d="M364.8 523.26C365.43 523.6 365.93 524.1 366.29 524.77C366.65 525.44 366.83 526.26 366.83 527.22V533.36H365.12V527.47C365.12 526.43 364.86 525.64 364.34 525.09C363.82 524.54 363.11 524.26 362.21 524.26C361.31 524.26 360.57 524.54 360.03 525.11C359.49 525.68 359.22 526.51 359.22 527.6V533.36H357.49V519.3H359.22V524.43C359.56 523.9 360.03 523.49 360.64 523.19C361.24 522.9 361.92 522.75 362.66 522.75C363.45 522.75 364.15 522.92 364.79 523.25L364.8 523.26Z" fill="#424242"/>
<path d="M371.56 532.87C370.77 532.43 370.15 531.8 369.7 530.98C369.25 530.16 369.03 529.22 369.03 528.14C369.03 527.06 369.26 526.14 369.72 525.32C370.18 524.5 370.81 523.88 371.61 523.44C372.41 523 373.3 522.78 374.29 522.78C375.28 522.78 376.17 523 376.97 523.44C377.77 523.88 378.4 524.5 378.86 525.31C379.32 526.12 379.55 527.06 379.55 528.14C379.55 529.22 379.31 530.16 378.84 530.98C378.36 531.8 377.72 532.43 376.91 532.87C376.1 533.31 375.2 533.54 374.21 533.54C373.22 533.54 372.35 533.32 371.56 532.87ZM375.96 531.57C376.5 531.28 376.94 530.84 377.28 530.26C377.62 529.68 377.78 528.97 377.78 528.13C377.78 527.29 377.61 526.58 377.29 526C376.96 525.42 376.53 524.98 376 524.7C375.47 524.41 374.89 524.27 374.27 524.27C373.65 524.27 373.06 524.41 372.53 524.7C372 524.99 371.58 525.42 371.27 526C370.95 526.58 370.8 527.29 370.8 528.13C370.8 528.97 370.95 529.69 371.26 530.28C371.57 530.86 371.98 531.3 372.5 531.58C373.02 531.86 373.59 532.01 374.21 532.01C374.83 532.01 375.41 531.86 375.96 531.57Z" fill="#424242"/>
<path d="M383.37 533.12C382.74 532.85 382.24 532.47 381.87 531.98C381.5 531.49 381.3 530.93 381.26 530.3H383.05C383.1 530.82 383.34 531.24 383.78 531.57C384.22 531.9 384.79 532.06 385.5 532.06C386.16 532.06 386.68 531.91 387.06 531.62C387.44 531.33 387.63 530.96 387.63 530.52C387.63 530.08 387.43 529.73 387.02 529.5C386.61 529.28 385.99 529.06 385.14 528.84C384.37 528.64 383.74 528.43 383.25 528.22C382.76 528.01 382.34 527.7 381.99 527.29C381.64 526.88 381.47 526.34 381.47 525.67C381.47 525.14 381.63 524.65 381.94 524.21C382.25 523.77 382.71 523.42 383.29 523.16C383.87 522.9 384.54 522.77 385.28 522.77C386.43 522.77 387.36 523.06 388.07 523.64C388.78 524.22 389.16 525.02 389.21 526.03H387.48C387.44 525.49 387.22 525.05 386.82 524.72C386.42 524.39 385.89 524.23 385.21 524.23C384.59 524.23 384.09 524.36 383.73 524.63C383.36 524.9 383.18 525.24 383.18 525.67C383.18 526.01 383.29 526.29 383.51 526.52C383.73 526.74 384.01 526.92 384.35 527.05C384.69 527.18 385.15 527.33 385.75 527.5C386.5 527.7 387.1 527.9 387.57 528.1C388.04 528.3 388.44 528.59 388.78 528.98C389.12 529.37 389.29 529.89 389.3 530.52C389.3 531.09 389.14 531.6 388.82 532.06C388.5 532.52 388.06 532.87 387.48 533.13C386.9 533.39 386.24 533.52 385.49 533.52C384.69 533.52 383.98 533.38 383.34 533.11L383.37 533.12Z" fill="#424242"/>
<path d="M406.26 528.8H397.94C398 529.83 398.35 530.63 398.99 531.2C399.63 531.78 400.4 532.06 401.32 532.06C402.07 532.06 402.69 531.89 403.19 531.54C403.69 531.19 404.04 530.73 404.24 530.14H406.1C405.82 531.14 405.26 531.95 404.43 532.58C403.6 533.21 402.55 533.52 401.31 533.52C400.32 533.52 399.44 533.3 398.66 532.85C397.88 532.4 397.27 531.78 396.83 530.96C396.38 530.14 396.16 529.2 396.16 528.12C396.16 527.04 396.37 526.1 396.81 525.29C397.24 524.48 397.85 523.86 398.62 523.42C399.4 522.98 400.29 522.76 401.31 522.76C402.33 522.76 403.17 522.98 403.93 523.41C404.69 523.84 405.28 524.43 405.69 525.19C406.1 525.94 406.31 526.8 406.31 527.74C406.31 528.07 406.29 528.42 406.25 528.79L406.26 528.8ZM404.1 525.69C403.81 525.21 403.41 524.85 402.91 524.61C402.41 524.36 401.86 524.24 401.25 524.24C400.38 524.24 399.63 524.52 399.02 525.08C398.41 525.64 398.06 526.41 397.97 527.4H404.54C404.54 526.74 404.4 526.17 404.1 525.7V525.69Z" fill="#424242"/>
<path d="M415.56 532.87C414.77 532.43 414.15 531.8 413.7 530.98C413.25 530.16 413.03 529.22 413.03 528.14C413.03 527.06 413.26 526.14 413.72 525.32C414.18 524.5 414.81 523.88 415.61 523.44C416.41 523 417.3 522.78 418.29 522.78C419.28 522.78 420.17 523 420.97 523.44C421.77 523.88 422.4 524.5 422.86 525.31C423.32 526.12 423.55 527.06 423.55 528.14C423.55 529.22 423.31 530.16 422.84 530.98C422.36 531.8 421.72 532.43 420.91 532.87C420.1 533.31 419.2 533.54 418.21 533.54C417.22 533.54 416.35 533.32 415.56 532.87ZM419.96 531.57C420.5 531.28 420.94 530.84 421.28 530.26C421.62 529.68 421.78 528.97 421.78 528.13C421.78 527.29 421.61 526.58 421.29 526C420.96 525.42 420.53 524.98 420 524.7C419.47 524.41 418.89 524.27 418.27 524.27C417.65 524.27 417.06 524.41 416.53 524.7C416 524.99 415.58 525.42 415.27 526C414.95 526.58 414.8 527.29 414.8 528.13C414.8 528.97 414.95 529.69 415.26 530.28C415.57 530.86 415.98 531.3 416.5 531.58C417.02 531.86 417.59 532.01 418.21 532.01C418.83 532.01 419.41 531.86 419.96 531.57Z" fill="#424242"/>
<path d="M435.14 524.37H432.95V533.36H431.22V524.37H429.87V522.95H431.22V522.21C431.22 521.04 431.52 520.19 432.12 519.65C432.72 519.11 433.69 518.84 435.02 518.84V520.28C434.26 520.28 433.73 520.43 433.41 520.73C433.1 521.03 432.94 521.52 432.94 522.2V522.94H435.13V524.36L435.14 524.37Z" fill="#424242"/>
<path d="M439.04 532.87C438.25 532.43 437.63 531.8 437.18 530.98C436.73 530.16 436.51 529.22 436.51 528.14C436.51 527.06 436.74 526.14 437.2 525.32C437.66 524.5 438.29 523.88 439.09 523.44C439.89 523 440.78 522.78 441.77 522.78C442.76 522.78 443.65 523 444.45 523.44C445.25 523.88 445.88 524.5 446.34 525.31C446.8 526.12 447.03 527.06 447.03 528.14C447.03 529.22 446.79 530.16 446.32 530.98C445.85 531.8 445.2 532.43 444.39 532.87C443.58 533.31 442.68 533.54 441.69 533.54C440.7 533.54 439.83 533.32 439.04 532.87ZM443.44 531.57C443.98 531.28 444.42 530.84 444.76 530.26C445.1 529.68 445.26 528.97 445.26 528.13C445.26 527.29 445.1 526.58 444.77 526C444.44 525.42 444.01 524.98 443.48 524.7C442.95 524.41 442.37 524.27 441.75 524.27C441.13 524.27 440.54 524.41 440.01 524.7C439.48 524.99 439.06 525.42 438.75 526C438.43 526.58 438.28 527.29 438.28 528.13C438.28 528.97 438.44 529.69 438.75 530.28C439.06 530.86 439.47 531.3 439.99 531.58C440.51 531.86 441.08 532.01 441.7 532.01C442.32 532.01 442.9 531.86 443.45 531.57H443.44Z" fill="#424242"/>
<path d="M449.31 525.31C449.74 524.51 450.34 523.88 451.11 523.44C451.88 523 452.75 522.77 453.74 522.77C455.02 522.77 456.07 523.08 456.9 523.7C457.73 524.32 458.28 525.18 458.54 526.28H456.68C456.5 525.65 456.16 525.15 455.64 524.78C455.13 524.41 454.49 524.23 453.73 524.23C452.74 524.23 451.94 524.57 451.34 525.25C450.74 525.93 450.43 526.89 450.43 528.13C450.43 529.37 450.73 530.35 451.34 531.04C451.95 531.72 452.75 532.07 453.73 532.07C454.49 532.07 455.12 531.89 455.63 531.54C456.14 531.19 456.48 530.68 456.67 530.02H458.53C458.25 531.08 457.69 531.94 456.86 532.58C456.03 533.22 454.98 533.54 453.73 533.54C452.74 533.54 451.86 533.32 451.1 532.87C450.33 532.43 449.73 531.8 449.3 530.99C448.87 530.18 448.66 529.23 448.66 528.14C448.66 527.05 448.87 526.12 449.3 525.32L449.31 525.31Z" fill="#424242"/>
<path d="M460.9 520.91C460.67 520.68 460.56 520.4 460.56 520.07C460.56 519.74 460.68 519.46 460.9 519.23C461.13 519 461.41 518.89 461.74 518.89C462.07 518.89 462.32 519 462.55 519.23C462.77 519.46 462.88 519.74 462.88 520.07C462.88 520.4 462.77 520.68 462.55 520.91C462.33 521.14 462.06 521.25 461.74 521.25C461.42 521.25 461.13 521.14 460.9 520.91ZM462.58 522.95V533.36H460.85V522.95H462.58Z" fill="#424242"/>
<path d="M473.67 523.91C474.46 524.68 474.85 525.78 474.85 527.23V533.37H473.14V527.48C473.14 526.44 472.88 525.65 472.36 525.1C471.84 524.55 471.13 524.27 470.23 524.27C469.33 524.27 468.59 524.55 468.05 525.12C467.51 525.69 467.24 526.52 467.24 527.61V533.37H465.51V522.96H467.24V524.44C467.58 523.91 468.05 523.5 468.64 523.2C469.23 522.91 469.88 522.76 470.59 522.76C471.86 522.76 472.88 523.14 473.67 523.91Z" fill="#424242"/>
<path d="M484.98 523.26C485.61 523.6 486.11 524.1 486.47 524.77C486.83 525.44 487.01 526.26 487.01 527.22V533.36H485.3V527.47C485.3 526.43 485.04 525.64 484.52 525.09C484 524.54 483.29 524.26 482.39 524.26C481.49 524.26 480.75 524.54 480.21 525.11C479.67 525.68 479.4 526.51 479.4 527.6V533.36H477.67V519.3H479.4V524.43C479.74 523.9 480.21 523.49 480.82 523.19C481.42 522.9 482.1 522.75 482.84 522.75C483.63 522.75 484.33 522.92 484.97 523.25L484.98 523.26Z" fill="#424242"/>
<path d="M491.73 532.87C490.94 532.43 490.32 531.8 489.87 530.98C489.42 530.16 489.2 529.22 489.2 528.14C489.2 527.06 489.43 526.14 489.89 525.32C490.35 524.5 490.98 523.88 491.78 523.44C492.58 523 493.47 522.78 494.46 522.78C495.45 522.78 496.34 523 497.14 523.44C497.94 523.88 498.57 524.5 499.03 525.31C499.49 526.12 499.72 527.06 499.72 528.14C499.72 529.22 499.48 530.16 499.01 530.98C498.53 531.8 497.89 532.43 497.08 532.87C496.27 533.31 495.37 533.54 494.38 533.54C493.39 533.54 492.52 533.32 491.73 532.87ZM496.13 531.57C496.67 531.28 497.11 530.84 497.45 530.26C497.79 529.68 497.95 528.97 497.95 528.13C497.95 527.29 497.78 526.58 497.46 526C497.13 525.42 496.7 524.98 496.17 524.7C495.64 524.41 495.06 524.27 494.44 524.27C493.82 524.27 493.23 524.41 492.7 524.7C492.17 524.99 491.75 525.42 491.44 526C491.12 526.58 490.97 527.29 490.97 528.13C490.97 528.97 491.12 529.69 491.43 530.28C491.74 530.86 492.15 531.3 492.67 531.58C493.19 531.86 493.76 532.01 494.38 532.01C495 532.01 495.58 531.86 496.13 531.57Z" fill="#424242"/>
</svg>
