<svg width="428" height="103" viewBox="0 0 428 103" fill="none" xmlns="http://www.w3.org/2000/svg">
<path d="M397.22 32.75H29.84C13.3764 32.75 0.0300293 46.0964 0.0300293 62.56V72.94C0.0300293 89.4036 13.3764 102.75 29.84 102.75H397.22C413.684 102.75 427.03 89.4036 427.03 72.94V62.56C427.03 46.0964 413.684 32.75 397.22 32.75Z" fill="#EDBF83"/>
<path d="M46.9401 81.5401C45.6101 80.9301 44.5601 80.0801 43.8101 79.0001C43.0601 77.9201 42.6401 76.7001 42.5901 75.3501H45.4001C45.5301 76.6401 46.1001 77.7801 47.1101 78.7501C48.1201 79.7301 49.6101 80.2101 51.5601 80.2101C53.3601 80.2101 54.7801 79.7501 55.8401 78.8201C56.8901 77.9001 57.4201 76.7201 57.4201 75.3101C57.4201 74.1701 57.1301 73.2501 56.5501 72.5501C55.9701 71.8501 55.2401 71.3401 54.3801 70.9901C53.5201 70.6501 52.3301 70.2801 50.8101 69.8701C49.0401 69.3901 47.6301 68.9201 46.5901 68.4601C45.5501 68.0001 44.6601 67.2901 43.9301 66.3301C43.1901 65.3701 42.8301 64.0601 42.8301 62.4201C42.8301 61.0501 43.1801 59.8301 43.8901 58.7501C44.6001 57.6701 45.6001 56.8301 46.8901 56.2201C48.1801 55.6101 49.6601 55.3101 51.3401 55.3101C53.8001 55.3101 55.7801 55.9101 57.2901 57.1101C58.8001 58.3101 59.6701 59.8701 59.8901 61.7601H57.0001C56.8201 60.6701 56.2301 59.7001 55.2101 58.8501C54.2001 58.0001 52.8301 57.5801 51.1101 57.5801C49.5101 57.5801 48.1801 58.0101 47.1201 58.8501C46.0601 59.7001 45.5201 60.8601 45.5201 62.3301C45.5201 63.4501 45.8101 64.3401 46.3901 65.0301C46.9701 65.7101 47.7001 66.2301 48.5701 66.5901C49.4401 66.9501 50.6301 67.3301 52.1201 67.7301C53.8401 68.2101 55.2401 68.6901 56.3001 69.1601C57.3601 69.6301 58.2601 70.3401 59.0001 71.3101C59.7301 72.2701 60.1001 73.5601 60.1001 75.1901C60.1001 76.4301 59.7701 77.6101 59.1101 78.7301C58.4501 79.8501 57.4801 80.7401 56.1801 81.4301C54.8801 82.1201 53.3401 82.4601 51.5401 82.4601C49.7401 82.4601 48.2501 82.1601 46.9201 81.5501L46.9401 81.5401Z" fill="white"/>
<path d="M67.7501 57.7901V67.7101H77.8201V69.9101H67.7501V79.9801H78.9601V82.1801H65.0901V55.5801H78.9601V57.7801H67.7501V57.7901Z" fill="white"/>
<path d="M86.7101 80.02H96.2501V82.19H84.05V55.63H86.7101V80.02Z" fill="white"/>
<path d="M102.55 57.7901V67.7101H112.62V69.9101H102.55V79.9801H113.76V82.1801H99.8901V55.5801H113.76V57.7801H102.55V57.7901Z" fill="white"/>
<path d="M119.35 61.8801C120.49 59.8201 122.05 58.2101 124.02 57.0501C126 55.9001 128.2 55.3201 130.63 55.3201C133.59 55.3201 136.13 56.0201 138.25 57.4301C140.37 58.8401 141.9 60.8201 142.87 63.3801H139.75C138.99 61.5801 137.83 60.1701 136.27 59.1601C134.71 58.1501 132.83 57.6401 130.63 57.6401C128.68 57.6401 126.93 58.1001 125.37 59.0101C123.81 59.9201 122.59 61.2301 121.7 62.9401C120.81 64.6501 120.37 66.6301 120.37 68.8901C120.37 71.1501 120.81 73.1201 121.7 74.8201C122.59 76.5201 123.81 77.8201 125.37 78.7301C126.93 79.6401 128.68 80.1001 130.63 80.1001C132.83 80.1001 134.71 79.6001 136.27 78.6001C137.83 77.6001 138.99 76.2101 139.75 74.4401H142.87C141.91 76.9701 140.36 78.9401 138.23 80.3301C136.1 81.7201 133.57 82.4201 130.63 82.4201C128.2 82.4201 125.99 81.8401 124.02 80.6901C122.04 79.5401 120.49 77.9301 119.35 75.8801C118.21 73.8301 117.64 71.5001 117.64 68.8901C117.64 66.2801 118.21 63.9401 119.35 61.8801Z" fill="white"/>
<path d="M150.66 55.63V82.19H148V55.63H150.66Z" fill="white"/>
<path d="M161.8 80.7201C159.8 79.5701 158.22 77.9601 157.07 75.8901C155.92 73.8301 155.34 71.4901 155.34 68.8801C155.34 66.2701 155.92 63.9301 157.07 61.8701C158.22 59.8101 159.8 58.2001 161.8 57.0401C163.8 55.8901 166.03 55.3101 168.49 55.3101C170.95 55.3101 173.21 55.8901 175.22 57.0401C177.22 58.1901 178.79 59.8001 179.93 61.8701C181.07 63.9301 181.64 66.2701 181.64 68.8801C181.64 71.4901 181.07 73.8301 179.93 75.8901C178.79 77.9601 177.22 79.5601 175.22 80.7201C173.22 81.8701 170.98 82.4501 168.49 82.4501C166 82.4501 163.8 81.8801 161.8 80.7201ZM173.8 78.7701C175.37 77.8601 176.61 76.5501 177.52 74.8401C178.43 73.1301 178.89 71.1501 178.89 68.8901C178.89 66.6301 178.43 64.6601 177.52 62.9601C176.61 61.2601 175.37 59.9601 173.8 59.0501C172.23 58.1401 170.46 57.6801 168.48 57.6801C166.5 57.6801 164.73 58.1401 163.16 59.0501C161.59 59.9601 160.35 61.2701 159.44 62.9601C158.53 64.6501 158.07 66.6301 158.07 68.8901C158.07 71.1501 158.53 73.1301 159.44 74.8401C160.35 76.5501 161.59 77.8601 163.16 78.7701C164.73 79.6801 166.5 80.1401 168.48 80.1401C170.46 80.1401 172.23 79.6801 173.8 78.7701Z" fill="white"/>
<path d="M206.37 82.19H203.71L189 59.85V82.19H186.34V55.63H189L203.71 77.93V55.63H206.37V82.19Z" fill="white"/>
<path d="M214.92 57.7901V67.7101H224.99V69.9101H214.92V79.9801H226.13V82.1801H212.26V55.5801H226.13V57.7801H214.92V57.7901Z" fill="white"/>
<path d="M246.72 80.7201C244.72 79.5701 243.14 77.9601 241.99 75.8901C240.84 73.8301 240.26 71.4901 240.26 68.8801C240.26 66.2701 240.84 63.9301 241.99 61.8701C243.14 59.8101 244.72 58.2001 246.72 57.0401C248.72 55.8901 250.95 55.3101 253.41 55.3101C255.87 55.3101 258.13 55.8901 260.14 57.0401C262.14 58.1901 263.71 59.8001 264.85 61.8701C265.99 63.9301 266.56 66.2701 266.56 68.8801C266.56 71.4901 265.99 73.8301 264.85 75.8901C263.71 77.9601 262.14 79.5601 260.14 80.7201C258.14 81.8701 255.9 82.4501 253.41 82.4501C250.92 82.4501 248.72 81.8801 246.72 80.7201ZM258.73 78.7701C260.3 77.8601 261.54 76.5501 262.45 74.8401C263.36 73.1301 263.82 71.1501 263.82 68.8901C263.82 66.6301 263.36 64.6601 262.45 62.9601C261.54 61.2601 260.3 59.9601 258.73 59.0501C257.16 58.1401 255.39 57.6801 253.41 57.6801C251.43 57.6801 249.66 58.1401 248.09 59.0501C246.52 59.9601 245.28 61.2701 244.37 62.9601C243.46 64.6501 243 66.6301 243 68.8901C243 71.1501 243.46 73.1301 244.37 74.8401C245.28 76.5501 246.52 77.8601 248.09 78.7701C249.66 79.6801 251.43 80.1401 253.41 80.1401C255.39 80.1401 257.16 79.6801 258.73 78.7701Z" fill="white"/>
<path d="M293.81 55.63V75.73C293.81 77.76 293.19 79.38 291.95 80.61C290.71 81.84 289.05 82.45 286.97 82.45C284.89 82.45 283.1 81.8 281.82 80.49C280.54 79.19 279.9 77.42 279.9 75.19H282.6C282.62 76.64 282.99 77.81 283.68 78.73C284.38 79.64 285.47 80.1 286.97 80.1C288.39 80.1 289.44 79.68 290.12 78.85C290.8 78.01 291.15 76.97 291.15 75.73V55.63H293.81Z" fill="white"/>
<path d="M305.58 80.7201C303.58 79.5701 302 77.9601 300.85 75.8901C299.7 73.8301 299.12 71.4901 299.12 68.8801C299.12 66.2701 299.7 63.9301 300.85 61.8701C302 59.8101 303.58 58.2001 305.58 57.0401C307.58 55.8901 309.81 55.3101 312.27 55.3101C314.73 55.3101 316.99 55.8901 319 57.0401C321 58.1901 322.57 59.8001 323.71 61.8701C324.85 63.9401 325.42 66.2701 325.42 68.8801C325.42 71.4901 324.85 73.8301 323.71 75.8901C322.57 77.9601 321 79.5601 319 80.7201C317 81.8701 314.76 82.4501 312.27 82.4501C309.78 82.4501 307.58 81.8801 305.58 80.7201ZM317.59 78.7701C319.16 77.8601 320.4 76.5501 321.31 74.8401C322.22 73.1301 322.68 71.1501 322.68 68.8901C322.68 66.6301 322.22 64.6601 321.31 62.9601C320.4 61.2601 319.16 59.9601 317.59 59.0501C316.02 58.1401 314.25 57.6801 312.27 57.6801C310.29 57.6801 308.52 58.1401 306.95 59.0501C305.38 59.9601 304.14 61.2701 303.23 62.9601C302.32 64.6601 301.86 66.6301 301.86 68.8901C301.86 71.1501 302.32 73.1301 303.23 74.8401C304.14 76.5501 305.38 77.8601 306.95 78.7701C308.52 79.6801 310.29 80.1401 312.27 80.1401C314.25 80.1401 316.02 79.6801 317.59 78.7701Z" fill="white"/>
<path d="M351.03 63.3801C350.27 61.6301 349.11 60.2601 347.55 59.2601C345.99 58.2601 344.16 57.7601 342.06 57.7601C340.08 57.7601 338.31 58.2201 336.74 59.1301C335.17 60.0401 333.93 61.3401 333.02 63.0301C332.11 64.7101 331.65 66.6701 331.65 68.9001C331.65 71.1301 332.11 73.0901 333.02 74.7901C333.93 76.4901 335.17 77.7901 336.74 78.7001C338.31 79.6101 340.08 80.0701 342.06 80.0701C343.91 80.0701 345.57 79.6701 347.06 78.8701C348.54 78.0701 349.73 76.9301 350.63 75.4501C351.53 73.9701 352.04 72.2401 352.17 70.2601H341V68.0901H354.98V70.0301C354.85 72.3601 354.22 74.4701 353.08 76.3601C351.94 78.2501 350.41 79.7401 348.5 80.8201C346.59 81.9001 344.44 82.4501 342.06 82.4501C339.68 82.4501 337.37 81.8801 335.37 80.7201C333.37 79.5701 331.79 77.9601 330.64 75.8901C329.49 73.8301 328.91 71.4901 328.91 68.8801C328.91 66.2701 329.49 63.9301 330.64 61.8701C331.79 59.8101 333.37 58.2001 335.37 57.0401C337.37 55.8901 339.6 55.3101 342.06 55.3101C344.9 55.3101 347.38 56.0201 349.51 57.4401C351.64 58.8601 353.18 60.8401 354.15 63.3701H351.03V63.3801Z" fill="white"/>
<path d="M364.94 80.7201C362.94 79.5701 361.36 77.9601 360.21 75.8901C359.06 73.8301 358.48 71.4901 358.48 68.8801C358.48 66.2701 359.06 63.9301 360.21 61.8701C361.36 59.8101 362.94 58.2001 364.94 57.0401C366.94 55.8901 369.17 55.3101 371.63 55.3101C374.09 55.3101 376.35 55.8901 378.36 57.0401C380.36 58.1901 381.93 59.8001 383.07 61.8701C384.21 63.9301 384.78 66.2701 384.78 68.8801C384.78 71.4901 384.21 73.8301 383.07 75.8901C381.93 77.9601 380.36 79.5601 378.36 80.7201C376.36 81.8701 374.12 82.4501 371.63 82.4501C369.14 82.4501 366.94 81.8801 364.94 80.7201ZM376.95 78.7701C378.52 77.8601 379.76 76.5501 380.67 74.8401C381.58 73.1301 382.04 71.1501 382.04 68.8901C382.04 66.6301 381.58 64.6601 380.67 62.9601C379.76 61.2601 378.52 59.9601 376.95 59.0501C375.38 58.1401 373.61 57.6801 371.63 57.6801C369.65 57.6801 367.88 58.1401 366.31 59.0501C364.74 59.9601 363.5 61.2701 362.59 62.9601C361.68 64.6501 361.22 66.6301 361.22 68.8901C361.22 71.1501 361.68 73.1301 362.59 74.8401C363.5 76.5501 364.74 77.8601 366.31 78.7701C367.88 79.6801 369.65 80.1401 371.63 80.1401C373.61 80.1401 375.38 79.6801 376.95 78.7701Z" fill="white"/>
<path d="M129.15 4.51998C129.69 3.59998 130.42 2.88998 131.34 2.36998C132.26 1.84998 133.28 1.59998 134.37 1.59998C135.63 1.59998 136.75 1.90998 137.73 2.52998C138.71 3.14998 139.42 4.01998 139.86 5.15998H137.53C137.22 4.53998 136.8 4.06998 136.25 3.76998C135.71 3.45998 135.08 3.30998 134.36 3.30998C133.58 3.30998 132.88 3.48998 132.27 3.83998C131.66 4.18998 131.18 4.69998 130.83 5.34998C130.48 6.00998 130.31 6.76998 130.31 7.63998C130.31 8.50998 130.48 9.27998 130.83 9.92998C131.18 10.59 131.65 11.09 132.27 11.45C132.88 11.81 133.58 11.99 134.36 11.99C135.07 11.99 135.7 11.84 136.25 11.53C136.79 11.22 137.22 10.76 137.53 10.14H139.86C139.42 11.27 138.71 12.15 137.73 12.76C136.75 13.37 135.63 13.68 134.37 13.68C133.26 13.68 132.25 13.42 131.33 12.91C130.41 12.39 129.68 11.68 129.15 10.76C128.61 9.83998 128.34 8.79998 128.34 7.64998C128.34 6.49998 128.61 5.45998 129.15 4.53998V4.51998Z" fill="#A8A8A8"/>
<path d="M145.39 4.44004C145.86 4.17004 146.42 4.04004 147.06 4.04004V6.05004H146.57C145.81 6.05004 145.24 6.24004 144.84 6.63004C144.45 7.01004 144.25 7.68004 144.25 8.64004V13.57H142.31V4.20004H144.25V5.56004C144.53 5.08004 144.91 4.71004 145.38 4.45004L145.39 4.44004Z" fill="#A8A8A8"/>
<path d="M149.14 2.59998C148.9 2.35998 148.78 2.06998 148.78 1.71998C148.78 1.36998 148.9 1.06998 149.14 0.839981C149.38 0.599981 149.67 0.47998 150.02 0.47998C150.37 0.47998 150.65 0.599981 150.89 0.839981C151.13 1.07998 151.25 1.36998 151.25 1.71998C151.25 2.06998 151.13 2.36998 150.89 2.59998C150.65 2.83998 150.36 2.95998 150.02 2.95998C149.68 2.95998 149.37 2.83998 149.14 2.59998ZM150.97 4.18998V13.56H149.03V4.18998H150.97Z" fill="#A8A8A8"/>
<path d="M153.65 6.33993C154.04 5.60993 154.57 5.04993 155.25 4.64993C155.93 4.24993 156.67 4.04993 157.49 4.04993C158.23 4.04993 158.87 4.18993 159.42 4.47993C159.97 4.76993 160.41 5.12993 160.74 5.55993V4.19993H162.7V13.5699H160.74V12.1799C160.41 12.6199 159.96 12.9899 159.4 13.2799C158.83 13.5699 158.19 13.7199 157.46 13.7199C156.65 13.7199 155.92 13.5099 155.25 13.0999C154.58 12.6899 154.05 12.1099 153.66 11.3699C153.27 10.6299 153.07 9.78993 153.07 8.84993C153.07 7.90993 153.27 7.07993 153.66 6.34993L153.65 6.33993ZM160.33 7.18993C160.06 6.70993 159.72 6.34993 159.28 6.09993C158.85 5.84993 158.38 5.72993 157.89 5.72993C157.4 5.72993 156.93 5.84993 156.5 6.09993C156.07 6.33993 155.72 6.69993 155.45 7.16993C155.18 7.63993 155.05 8.19993 155.05 8.83993C155.05 9.47993 155.18 10.0499 155.45 10.5399C155.72 11.0299 156.07 11.3999 156.5 11.6499C156.94 11.8999 157.4 12.0299 157.89 12.0299C158.38 12.0299 158.85 11.9099 159.28 11.6599C159.71 11.4099 160.06 11.0499 160.33 10.5599C160.6 10.0799 160.73 9.51993 160.73 8.86993C160.73 8.21993 160.6 7.65993 160.33 7.18993Z" fill="#A8A8A8"/>
<path d="M172.13 4.49993C172.71 4.80993 173.17 5.25993 173.5 5.85993C173.83 6.45993 173.99 7.18993 173.99 8.03993V13.5699H172.07V8.32993C172.07 7.48993 171.86 6.84993 171.44 6.39993C171.02 5.94993 170.45 5.72993 169.72 5.72993C168.99 5.72993 168.42 5.94993 167.99 6.39993C167.56 6.84993 167.35 7.48993 167.35 8.32993V13.5699H165.41V4.19993H167.35V5.26993C167.67 4.87993 168.07 4.57993 168.57 4.36993C169.06 4.15993 169.59 4.04993 170.14 4.04993C170.88 4.04993 171.54 4.19993 172.12 4.50993L172.13 4.49993Z" fill="#A8A8A8"/>
<path d="M182.81 10.5999H184.9C184.65 11.4599 184.21 12.1699 183.57 12.7199C182.93 13.2699 182.13 13.5899 181.16 13.6799V14.3799C181.82 14.3799 182.35 14.5399 182.76 14.8499C183.17 15.1599 183.37 15.5999 183.37 16.1699C183.37 16.7399 183.17 17.1899 182.76 17.5199C182.35 17.8499 181.84 18.0199 181.21 18.0199H178.97V16.7999H180.82C181.14 16.7999 181.38 16.7499 181.53 16.6599C181.68 16.5699 181.77 16.4099 181.77 16.1699C181.77 15.9299 181.69 15.7699 181.53 15.6799C181.37 15.5899 181.13 15.5399 180.82 15.5399H179.88V13.6699C179.11 13.5799 178.43 13.3199 177.84 12.8999C177.25 12.4799 176.79 11.9199 176.47 11.2299C176.15 10.5399 175.99 9.75994 175.99 8.87994C175.99 7.91994 176.19 7.06994 176.58 6.33994C176.97 5.60994 177.51 5.04994 178.2 4.64994C178.89 4.24994 179.68 4.05994 180.58 4.05994C181.71 4.05994 182.65 4.32993 183.39 4.86993C184.13 5.40993 184.63 6.17993 184.89 7.16993H182.8C182.63 6.70993 182.36 6.33994 181.98 6.07994C181.6 5.81994 181.14 5.68993 180.57 5.68993C179.78 5.68993 179.14 5.96993 178.67 6.52993C178.2 7.08993 177.96 7.87994 177.96 8.87994C177.96 9.87994 178.19 10.6799 178.67 11.2399C179.14 11.8099 179.77 12.0899 180.57 12.0899C181.69 12.0899 182.43 11.5999 182.8 10.6099L182.81 10.5999Z" fill="#A8A8A8"/>
<path d="M186.97 6.33993C187.36 5.60993 187.89 5.04993 188.57 4.64993C189.25 4.24993 189.99 4.04993 190.81 4.04993C191.55 4.04993 192.19 4.18993 192.74 4.47993C193.29 4.76993 193.73 5.12993 194.06 5.55993V4.19993H196.02V13.5699H194.06V12.1799C193.73 12.6199 193.28 12.9899 192.72 13.2799C192.15 13.5699 191.51 13.7199 190.78 13.7199C189.97 13.7199 189.24 13.5099 188.57 13.0999C187.9 12.6899 187.37 12.1099 186.98 11.3699C186.59 10.6299 186.39 9.78993 186.39 8.84993C186.39 7.90993 186.59 7.07993 186.98 6.34993L186.97 6.33993ZM193.65 7.18993C193.38 6.70993 193.04 6.34993 192.6 6.09993C192.17 5.84993 191.7 5.72993 191.21 5.72993C190.72 5.72993 190.25 5.84993 189.82 6.09993C189.39 6.33993 189.04 6.69993 188.77 7.16993C188.5 7.63993 188.37 8.19993 188.37 8.83993C188.37 9.47993 188.5 10.0499 188.77 10.5399C189.04 11.0299 189.39 11.3999 189.82 11.6499C190.26 11.8999 190.72 12.0299 191.21 12.0299C191.7 12.0299 192.17 11.9099 192.6 11.6599C193.03 11.4099 193.38 11.0499 193.65 10.5599C193.92 10.0799 194.05 9.51993 194.05 8.86993C194.05 8.21993 193.92 7.65993 193.65 7.18993Z" fill="#A8A8A8"/>
<path d="M200.16 13.32C199.58 13.05 199.11 12.69 198.77 12.23C198.43 11.77 198.25 11.26 198.23 10.69H200.24C200.27 11.09 200.46 11.42 200.81 11.68C201.16 11.95 201.59 12.08 202.11 12.08C202.63 12.08 203.08 11.97 203.38 11.76C203.68 11.55 203.83 11.28 203.83 10.95C203.83 10.6 203.66 10.34 203.33 10.17C203 10 202.47 9.81003 201.74 9.61003C201.04 9.42003 200.47 9.23003 200.02 9.05003C199.58 8.87003 199.2 8.59003 198.87 8.22003C198.55 7.85003 198.39 7.35003 198.39 6.74003C198.39 6.24003 198.54 5.79003 198.83 5.37003C199.12 4.96003 199.55 4.63003 200.1 4.39003C200.65 4.15003 201.28 4.03003 202 4.03003C203.06 4.03003 203.92 4.30003 204.58 4.84003C205.23 5.38003 205.58 6.11003 205.63 7.04003H203.69C203.66 6.62003 203.49 6.29003 203.18 6.04003C202.87 5.79003 202.46 5.67003 201.94 5.67003C201.42 5.67003 201.04 5.77003 200.77 5.96003C200.5 6.15003 200.36 6.41003 200.36 6.72003C200.36 6.97003 200.45 7.18003 200.63 7.35003C200.81 7.52003 201.03 7.65003 201.29 7.75003C201.55 7.85003 201.94 7.97003 202.45 8.12003C203.13 8.30003 203.69 8.49003 204.12 8.67003C204.56 8.86003 204.93 9.13003 205.25 9.49003C205.57 9.85003 205.73 10.33 205.74 10.94C205.74 11.47 205.59 11.95 205.3 12.37C205.01 12.79 204.59 13.12 204.05 13.36C203.51 13.6 202.88 13.72 202.15 13.72C201.42 13.72 200.75 13.59 200.17 13.32H200.16Z" fill="#A8A8A8"/>
<path d="M215.9 4.48004C216.47 4.19004 217.11 4.04004 217.82 4.04004C218.64 4.04004 219.38 4.24004 220.06 4.64004C220.74 5.04004 221.26 5.61004 221.65 6.33004C222.04 7.05004 222.23 7.89004 222.23 8.83004C222.23 9.77004 222.04 10.61 221.65 11.35C221.26 12.09 220.73 12.67 220.06 13.08C219.39 13.49 218.64 13.7 217.82 13.7C217.11 13.7 216.47 13.56 215.92 13.27C215.36 12.98 214.91 12.62 214.56 12.19V18H212.62V4.18004H214.56V5.56004C214.89 5.13004 215.34 4.77004 215.9 4.47004V4.48004ZM219.85 7.16004C219.58 6.69004 219.23 6.33004 218.8 6.09004C218.36 5.85004 217.9 5.72004 217.4 5.72004C216.9 5.72004 216.45 5.84004 216.01 6.09004C215.57 6.34004 215.22 6.70004 214.96 7.18004C214.7 7.66004 214.56 8.22004 214.56 8.86004C214.56 9.50004 214.69 10.07 214.96 10.55C215.23 11.03 215.58 11.4 216.01 11.65C216.45 11.9 216.91 12.02 217.4 12.02C217.89 12.02 218.37 11.89 218.8 11.64C219.24 11.38 219.59 11.01 219.85 10.53C220.12 10.04 220.25 9.48004 220.25 8.83004C220.25 8.18004 220.12 7.63004 219.85 7.16004Z" fill="#A8A8A8"/>
<path d="M232.84 9.59993H225.68C225.74 10.3499 226.01 10.9499 226.51 11.3999C227.01 11.8499 227.62 12.0799 228.35 12.0799C229.39 12.0799 230.13 11.6399 230.56 10.7699H232.65C232.37 11.6299 231.85 12.3399 231.11 12.8899C230.37 13.4399 229.45 13.7199 228.35 13.7199C227.45 13.7199 226.65 13.5199 225.94 13.1199C225.23 12.7199 224.68 12.1499 224.27 11.4199C223.87 10.6899 223.67 9.83994 223.67 8.87994C223.67 7.91994 223.87 7.06994 224.26 6.33994C224.65 5.60994 225.2 5.04994 225.91 4.64994C226.62 4.24994 227.43 4.05994 228.35 4.05994C229.27 4.05994 230.02 4.24993 230.71 4.63993C231.4 5.02993 231.94 5.56993 232.33 6.25993C232.71 6.95993 232.91 7.75993 232.91 8.66993C232.91 9.01993 232.89 9.33993 232.84 9.61993V9.59993ZM230.89 8.03994C230.88 7.32994 230.62 6.74993 230.12 6.31993C229.62 5.88993 229 5.66993 228.27 5.66993C227.6 5.66993 227.03 5.87994 226.55 6.30994C226.07 6.73994 225.79 7.30994 225.7 8.03994H230.89Z" fill="#A8A8A8"/>
<path d="M234.94 6.33993C235.33 5.60993 235.86 5.04993 236.54 4.64993C237.22 4.24993 237.97 4.04993 238.79 4.04993C239.52 4.04993 240.16 4.19993 240.72 4.48993C241.28 4.77993 241.71 5.13993 242.02 5.55993V4.19993H243.98V18.0199H242.02V12.2099C241.71 12.6299 241.27 12.9899 240.69 13.2799C240.11 13.5699 239.45 13.7199 238.72 13.7199C237.92 13.7199 237.18 13.5099 236.52 13.0999C235.86 12.6899 235.33 12.1099 234.94 11.3699C234.55 10.6299 234.35 9.78993 234.35 8.84993C234.35 7.90993 234.55 7.07993 234.94 6.34993V6.33993ZM241.62 7.18993C241.35 6.70993 241.01 6.34993 240.57 6.09993C240.14 5.84993 239.67 5.72993 239.18 5.72993C238.69 5.72993 238.22 5.84993 237.79 6.09993C237.36 6.33993 237.01 6.69993 236.74 7.16993C236.47 7.63993 236.34 8.19993 236.34 8.83993C236.34 9.47993 236.47 10.0499 236.74 10.5399C237.01 11.0299 237.36 11.3999 237.79 11.6499C238.23 11.8999 238.69 12.0299 239.18 12.0299C239.67 12.0299 240.14 11.9099 240.57 11.6599C241 11.4099 241.35 11.0499 241.62 10.5599C241.89 10.0799 242.02 9.51993 242.02 8.86993C242.02 8.21993 241.89 7.65993 241.62 7.18993Z" fill="#A8A8A8"/>
<path d="M255.2 4.18993V13.5599H253.26V12.4499C252.95 12.8399 252.55 13.1399 252.06 13.3599C251.57 13.5799 251.04 13.6899 250.49 13.6899C249.75 13.6899 249.09 13.5399 248.51 13.2299C247.93 12.9199 247.47 12.4699 247.13 11.8699C246.79 11.2699 246.63 10.5399 246.63 9.68993V4.17993H248.55V9.39993C248.55 10.2399 248.76 10.8799 249.18 11.3299C249.6 11.7799 250.17 11.9999 250.9 11.9999C251.63 11.9999 252.2 11.7799 252.63 11.3299C253.05 10.8799 253.27 10.2399 253.27 9.39993V4.17993H255.21L255.2 4.18993Z" fill="#A8A8A8"/>
<path d="M266.45 9.59993H259.29C259.35 10.3499 259.62 10.9499 260.12 11.3999C260.62 11.8499 261.23 12.0799 261.96 12.0799C263 12.0799 263.74 11.6399 264.17 10.7699H266.26C265.98 11.6299 265.46 12.3399 264.72 12.8899C263.98 13.4399 263.06 13.7199 261.96 13.7199C261.06 13.7199 260.26 13.5199 259.55 13.1199C258.84 12.7199 258.29 12.1499 257.88 11.4199C257.48 10.6899 257.28 9.83994 257.28 8.87994C257.28 7.91994 257.48 7.06994 257.87 6.33994C258.26 5.60994 258.81 5.04994 259.52 4.64994C260.23 4.24994 261.04 4.05994 261.96 4.05994C262.88 4.05994 263.63 4.24993 264.32 4.63993C265.01 5.02993 265.55 5.56993 265.94 6.25993C266.32 6.95993 266.52 7.75993 266.52 8.66993C266.52 9.01993 266.5 9.33993 266.45 9.61993V9.59993ZM264.5 8.03994C264.49 7.32994 264.23 6.74993 263.73 6.31993C263.23 5.88993 262.61 5.66993 261.88 5.66993C261.21 5.66993 260.64 5.87994 260.16 6.30994C259.68 6.73994 259.4 7.30994 259.31 8.03994H264.5Z" fill="#A8A8A8"/>
<path d="M275.32 4.49993C275.9 4.80993 276.36 5.25993 276.69 5.85993C277.02 6.45993 277.18 7.18993 277.18 8.03993V13.5699H275.26V8.32993C275.26 7.48993 275.05 6.84993 274.63 6.39993C274.21 5.94993 273.64 5.72993 272.91 5.72993C272.18 5.72993 271.61 5.94993 271.18 6.39993C270.75 6.84993 270.54 7.48993 270.54 8.32993V13.5699H268.6V4.19993H270.54V5.26993C270.86 4.87993 271.26 4.57993 271.76 4.36993C272.25 4.15993 272.78 4.04993 273.33 4.04993C274.07 4.04993 274.73 4.19993 275.31 4.50993L275.32 4.49993Z" fill="#A8A8A8"/>
<path d="M279.77 6.33993C280.16 5.60993 280.69 5.04993 281.37 4.64993C282.05 4.24993 282.79 4.04993 283.61 4.04993C284.35 4.04993 284.99 4.18993 285.54 4.47993C286.09 4.76993 286.53 5.12993 286.86 5.55993V4.19993H288.82V13.5699H286.86V12.1799C286.53 12.6199 286.08 12.9899 285.52 13.2799C284.95 13.5699 284.31 13.7199 283.58 13.7199C282.77 13.7199 282.04 13.5099 281.37 13.0999C280.7 12.6899 280.17 12.1099 279.78 11.3699C279.39 10.6299 279.19 9.78993 279.19 8.84993C279.19 7.90993 279.39 7.07993 279.78 6.34993L279.77 6.33993ZM286.45 7.18993C286.18 6.70993 285.84 6.34993 285.4 6.09993C284.97 5.84993 284.5 5.72993 284.01 5.72993C283.52 5.72993 283.05 5.84993 282.62 6.09993C282.19 6.33993 281.84 6.69993 281.57 7.16993C281.3 7.63993 281.17 8.19993 281.17 8.83993C281.17 9.47993 281.3 10.0499 281.57 10.5399C281.84 11.0299 282.19 11.3999 282.62 11.6499C283.06 11.8999 283.52 12.0299 284.01 12.0299C284.5 12.0299 284.97 11.9099 285.4 11.6599C285.83 11.4099 286.18 11.0499 286.45 10.5599C286.72 10.0799 286.85 9.51993 286.85 8.86993C286.85 8.21993 286.72 7.65993 286.45 7.18993Z" fill="#A8A8A8"/>
<path d="M292.96 13.32C292.38 13.05 291.91 12.69 291.57 12.23C291.23 11.77 291.05 11.26 291.03 10.69H293.04C293.07 11.09 293.26 11.42 293.61 11.68C293.96 11.95 294.39 12.08 294.91 12.08C295.43 12.08 295.88 11.97 296.18 11.76C296.48 11.55 296.63 11.28 296.63 10.95C296.63 10.6 296.46 10.34 296.13 10.17C295.8 10 295.27 9.81003 294.54 9.61003C293.84 9.42003 293.27 9.23003 292.82 9.05003C292.38 8.87003 292 8.59003 291.67 8.22003C291.35 7.85003 291.19 7.35003 291.19 6.74003C291.19 6.24003 291.34 5.79003 291.63 5.37003C291.92 4.96003 292.35 4.63003 292.9 4.39003C293.45 4.15003 294.08 4.03003 294.8 4.03003C295.86 4.03003 296.72 4.30003 297.38 4.84003C298.03 5.38003 298.38 6.11003 298.43 7.04003H296.49C296.46 6.62003 296.29 6.29003 295.98 6.04003C295.67 5.79003 295.26 5.67003 294.74 5.67003C294.22 5.67003 293.84 5.77003 293.57 5.96003C293.3 6.15003 293.16 6.41003 293.16 6.72003C293.16 6.97003 293.25 7.18003 293.43 7.35003C293.61 7.52003 293.83 7.65003 294.09 7.75003C294.35 7.85003 294.74 7.97003 295.25 8.12003C295.93 8.30003 296.49 8.49003 296.92 8.67003C297.36 8.86003 297.73 9.13003 298.05 9.49003C298.37 9.85003 298.53 10.33 298.54 10.94C298.54 11.47 298.39 11.95 298.1 12.37C297.81 12.79 297.39 13.12 296.85 13.36C296.31 13.6 295.68 13.72 294.95 13.72C294.22 13.72 293.55 13.59 292.97 13.32H292.96Z" fill="#A8A8A8"/>
</svg>
