<svg width="100" height="148" viewBox="0 0 100 148" fill="none" xmlns="http://www.w3.org/2000/svg">
<path d="M10.3 114.09C9.98 114.68 9.48 115.15 8.81 115.51C8.13 115.87 7.27999 116.05 6.25 116.05H4.14V120.87H1.62V108.31H6.25C7.22 108.31 8.04999 108.48 8.72999 108.81C9.40999 109.15 9.93 109.61 10.27 110.2C10.61 110.79 10.78 111.45 10.78 112.2C10.78 112.87 10.62 113.5 10.3 114.09ZM7.69 113.54C8.03 113.22 8.18999 112.77 8.18999 112.2C8.18999 110.98 7.50999 110.36 6.14 110.36H4.14V114.01H6.14C6.83999 114.01 7.35 113.85 7.69 113.53V113.54Z" fill="#A8A8A8"/>
<path d="M16.3499 111.21C16.8699 110.91 17.4699 110.76 18.1399 110.76V113.41H17.4699C16.6799 113.41 16.0799 113.6 15.6799 113.97C15.2799 114.34 15.0799 114.99 15.0799 115.91V120.88H12.5599V110.91H15.0799V112.46C15.3999 111.93 15.8299 111.52 16.3499 111.22V111.21Z" fill="#A8A8A8"/>
<path d="M29.0299 116.64H21.7399C21.7999 117.36 22.0499 117.92 22.4999 118.33C22.9399 118.74 23.4899 118.94 24.1399 118.94C25.0799 118.94 25.7399 118.54 26.1399 117.73H28.8599C28.5699 118.69 28.0199 119.48 27.1999 120.1C26.3799 120.72 25.3799 121.03 24.1899 121.03C23.2299 121.03 22.3699 120.82 21.6099 120.39C20.8499 119.96 20.2499 119.36 19.8299 118.58C19.3999 117.8 19.1899 116.9 19.1899 115.88C19.1899 114.86 19.3999 113.94 19.8199 113.16C20.2399 112.38 20.8299 111.78 21.5799 111.36C22.3399 110.94 23.2099 110.73 24.1899 110.73C25.1699 110.73 25.9899 110.93 26.7399 111.34C27.4899 111.75 28.0699 112.33 28.4899 113.08C28.8999 113.83 29.1099 114.69 29.1099 115.66C29.1099 116.02 29.0899 116.34 29.0399 116.63L29.0299 116.64ZM26.4899 114.95C26.4799 114.3 26.2399 113.78 25.7899 113.39C25.3299 113 24.7799 112.81 24.1199 112.81C23.4999 112.81 22.9699 113 22.5499 113.38C22.1199 113.76 21.8599 114.28 21.7699 114.95H26.4999H26.4899Z" fill="#A8A8A8"/>
<path d="M35.1 118.55L37.62 110.9H40.3L36.61 120.87H33.55L29.88 110.9H32.58L35.1 118.55Z" fill="#A8A8A8"/>
<path d="M50.92 116.64H43.63C43.69 117.36 43.94 117.92 44.39 118.33C44.83 118.74 45.38 118.94 46.03 118.94C46.97 118.94 47.63 118.54 48.03 117.73H50.75C50.46 118.69 49.91 119.48 49.09 120.1C48.27 120.72 47.27 121.03 46.08 121.03C45.12 121.03 44.26 120.82 43.5 120.39C42.74 119.96 42.14 119.36 41.72 118.58C41.29 117.8 41.08 116.9 41.08 115.88C41.08 114.86 41.29 113.94 41.71 113.16C42.13 112.38 42.72 111.78 43.47 111.36C44.23 110.94 45.1 110.73 46.08 110.73C47.06 110.73 47.88 110.93 48.63 111.34C49.38 111.75 49.96 112.33 50.38 113.08C50.79 113.83 51 114.69 51 115.66C51 116.02 50.98 116.34 50.93 116.63L50.92 116.64ZM48.38 114.95C48.37 114.3 48.13 113.78 47.68 113.39C47.22 113 46.67 112.81 46.01 112.81C45.39 112.81 44.86 113 44.44 113.38C44.01 113.76 43.75 114.28 43.66 114.95H48.39H48.38Z" fill="#A8A8A8"/>
<path d="M61.23 111.88C61.96 112.63 62.33 113.68 62.33 115.02V120.87H59.81V115.36C59.81 114.57 59.61 113.96 59.22 113.53C58.82 113.1 58.28 112.89 57.6 112.89C56.92 112.89 56.35 113.1 55.95 113.53C55.55 113.96 55.35 114.56 55.35 115.36V120.87H52.83V110.9H55.35V112.14C55.69 111.71 56.12 111.37 56.64 111.12C57.16 110.87 57.73 110.75 58.36 110.75C59.55 110.75 60.51 111.13 61.24 111.87L61.23 111.88Z" fill="#A8A8A8"/>
<path d="M70.9899 117.51H73.7099C73.4599 118.48 72.9899 119.27 72.3099 119.89C71.6299 120.5 70.7799 120.87 69.7599 120.99V121.69C70.4199 121.69 70.9699 121.86 71.4299 122.19C71.8799 122.53 72.0999 123.01 72.0999 123.65C72.0999 124.29 71.87 124.8 71.41 125.14C70.95 125.49 70.3799 125.66 69.7099 125.66H67.1499V124.18H69.2899C69.5799 124.18 69.7999 124.14 69.9499 124.05C70.0999 123.97 70.1799 123.82 70.1799 123.6C70.1799 123.38 70.0999 123.24 69.9499 123.16C69.7999 123.08 69.5799 123.04 69.2899 123.04H68.1699V120.97C67.3499 120.85 66.6399 120.56 66.0199 120.12C65.3999 119.67 64.9199 119.08 64.5799 118.36C64.2399 117.63 64.0699 116.81 64.0699 115.89C64.0699 114.86 64.2799 113.95 64.6999 113.18C65.1199 112.41 65.6999 111.81 66.4499 111.38C67.1899 110.95 68.0499 110.74 69.0099 110.74C70.2499 110.74 71.2699 111.05 72.0799 111.67C72.8899 112.29 73.4299 113.15 73.7099 114.27H70.9899C70.8499 113.84 70.5999 113.5 70.2599 113.25C69.9199 113 69.4899 112.88 68.9899 112.88C68.2699 112.88 67.6999 113.14 67.2799 113.66C66.8599 114.18 66.6499 114.92 66.6499 115.88C66.6499 116.84 66.8599 117.56 67.2799 118.08C67.6999 118.6 68.2699 118.86 68.9899 118.86C70.0099 118.86 70.6799 118.4 70.9899 117.49V117.51Z" fill="#A8A8A8"/>
<path d="M75.52 113.17C75.92 112.39 76.47 111.79 77.16 111.37C77.85 110.95 78.62 110.74 79.47 110.74C80.21 110.74 80.87 110.89 81.42 111.19C81.98 111.49 82.43 111.87 82.76 112.32V110.9H85.3V120.87H82.76V119.41C82.44 119.88 81.99 120.26 81.42 120.57C80.85 120.88 80.19 121.03 79.45 121.03C78.61 121.03 77.84 120.81 77.15 120.38C76.46 119.95 75.91 119.34 75.51 118.55C75.11 117.76 74.91 116.86 74.91 115.84C74.91 114.82 75.11 113.94 75.51 113.16L75.52 113.17ZM77.97 108.17C78.36 107.78 78.85 107.58 79.45 107.58C79.7 107.58 79.92 107.62 80.12 107.7C80.31 107.78 80.53 107.89 80.77 108.03C81.13 108.26 81.43 108.37 81.67 108.37C82.11 108.37 82.37 108.11 82.44 107.6H83.79C83.68 108.39 83.43 108.98 83.04 109.37C82.65 109.76 82.15 109.96 81.56 109.96C81.31 109.96 81.09 109.92 80.89 109.84C80.7 109.76 80.48 109.65 80.24 109.51C79.89 109.27 79.59 109.15 79.34 109.15C78.9 109.15 78.63 109.41 78.55 109.94H77.22C77.33 109.15 77.58 108.56 77.97 108.17ZM82.4 114.31C82.16 113.87 81.84 113.54 81.43 113.3C81.02 113.07 80.58 112.95 80.12 112.95C79.66 112.95 79.22 113.06 78.82 113.29C78.42 113.52 78.1 113.85 77.86 114.29C77.61 114.73 77.49 115.25 77.49 115.85C77.49 116.45 77.61 116.97 77.86 117.42C78.11 117.87 78.43 118.22 78.83 118.46C79.23 118.7 79.66 118.82 80.12 118.82C80.58 118.82 81.03 118.7 81.43 118.47C81.84 118.24 82.16 117.9 82.4 117.46C82.64 117.02 82.76 116.5 82.76 115.89C82.76 115.28 82.64 114.75 82.4 114.31Z" fill="#A8A8A8"/>
<path d="M89.6 120.39C88.83 119.96 88.23 119.36 87.79 118.58C87.35 117.8 87.13 116.9 87.13 115.88C87.13 114.86 87.35 113.96 87.8 113.18C88.25 112.4 88.86 111.8 89.64 111.37C90.42 110.94 91.29 110.73 92.25 110.73C93.21 110.73 94.08 110.94 94.86 111.37C95.64 111.8 96.25 112.4 96.7 113.18C97.15 113.96 97.37 114.86 97.37 115.88C97.37 116.9 97.14 117.8 96.68 118.58C96.22 119.36 95.59 119.96 94.81 120.39C94.02 120.82 93.14 121.03 92.17 121.03C91.2 121.03 90.35 120.82 89.58 120.39H89.6ZM93.48 118.5C93.88 118.28 94.2 117.95 94.44 117.5C94.68 117.06 94.8 116.52 94.8 115.88C94.8 114.93 94.55 114.2 94.05 113.69C93.55 113.18 92.94 112.92 92.22 112.92C91.5 112.92 90.9 113.18 90.41 113.69C89.92 114.2 89.68 114.93 89.68 115.88C89.68 116.83 89.92 117.56 90.39 118.07C90.86 118.58 91.46 118.83 92.18 118.83C92.64 118.83 93.06 118.72 93.47 118.5H93.48Z" fill="#A8A8A8"/>
<path d="M6.79005 134.77C7.19005 133.99 7.74005 133.39 8.43005 132.97C9.12005 132.55 9.89005 132.34 10.7401 132.34C11.4801 132.34 12.1401 132.49 12.6901 132.79C13.2501 133.09 13.7001 133.47 14.0301 133.92V132.5H16.5701V142.47H14.0301V141.01C13.7101 141.48 13.2601 141.86 12.6901 142.17C12.1201 142.48 11.4601 142.63 10.7201 142.63C9.88005 142.63 9.11005 142.41 8.42005 141.98C7.73005 141.55 7.18005 140.94 6.78005 140.15C6.38005 139.36 6.18005 138.46 6.18005 137.44C6.18005 136.42 6.38005 135.54 6.78005 134.76L6.79005 134.77ZM13.6801 135.91C13.4401 135.47 13.1201 135.14 12.7101 134.9C12.3001 134.67 11.8601 134.55 11.4001 134.55C10.9401 134.55 10.5001 134.66 10.1001 134.89C9.70005 135.12 9.38005 135.45 9.14005 135.89C8.89005 136.33 8.77005 136.85 8.77005 137.45C8.77005 138.05 8.89005 138.57 9.14005 139.02C9.39005 139.47 9.71005 139.82 10.1101 140.06C10.5101 140.3 10.9401 140.42 11.4001 140.42C11.8601 140.42 12.3101 140.3 12.7101 140.07C13.1201 139.84 13.4401 139.5 13.6801 139.06C13.9201 138.62 14.0401 138.1 14.0401 137.49C14.0401 136.88 13.9201 136.35 13.6801 135.91ZM13.7001 130V131.8L9.56005 129.91V127.86L13.7001 130Z" fill="#A8A8A8"/>
<path d="M20.66 142.19C20.01 141.9 19.5 141.5 19.12 140.99C18.74 140.49 18.54 139.93 18.5 139.32H21.04C21.09 139.7 21.28 140.02 21.61 140.27C21.94 140.52 22.35 140.65 22.84 140.65C23.33 140.65 23.69 140.55 23.96 140.36C24.23 140.17 24.36 139.92 24.36 139.62C24.36 139.3 24.19 139.05 23.87 138.89C23.54 138.73 23.02 138.55 22.3 138.36C21.56 138.18 20.95 137.99 20.47 137.8C20 137.61 19.59 137.31 19.25 136.92C18.91 136.52 18.74 135.99 18.74 135.32C18.74 134.77 18.9 134.26 19.22 133.81C19.54 133.35 19.99 132.99 20.59 132.73C21.18 132.47 21.88 132.33 22.69 132.33C23.88 132.33 24.83 132.63 25.53 133.22C26.24 133.81 26.63 134.62 26.7 135.62H24.29C24.25 135.22 24.09 134.91 23.8 134.67C23.51 134.44 23.11 134.32 22.62 134.32C22.16 134.32 21.81 134.4 21.57 134.57C21.32 134.74 21.2 134.97 21.2 135.27C21.2 135.61 21.37 135.86 21.7 136.04C22.04 136.21 22.56 136.39 23.27 136.57C23.99 136.75 24.58 136.94 25.05 137.13C25.52 137.32 25.92 137.62 26.27 138.02C26.61 138.42 26.79 138.95 26.8 139.61C26.8 140.19 26.64 140.7 26.32 141.16C26 141.62 25.55 141.97 24.95 142.23C24.35 142.49 23.66 142.62 22.87 142.62C22.08 142.62 21.32 142.47 20.67 142.18L20.66 142.19Z" fill="#A8A8A8"/>
<path d="M33.09 134.77C33.49 133.99 34.04 133.39 34.74 132.97C35.44 132.55 36.21 132.34 37.06 132.34C37.71 132.34 38.33 132.48 38.91 132.76C39.5 133.04 39.97 133.42 40.31 133.88V129.15H42.87V142.47H40.31V140.99C40 141.48 39.56 141.88 39 142.18C38.44 142.48 37.78 142.63 37.04 142.63C36.2 142.63 35.43 142.41 34.74 141.98C34.04 141.55 33.49 140.94 33.09 140.15C32.69 139.36 32.49 138.46 32.49 137.44C32.49 136.42 32.69 135.54 33.09 134.76V134.77ZM39.98 135.91C39.74 135.47 39.42 135.14 39.01 134.9C38.6 134.67 38.16 134.55 37.7 134.55C37.24 134.55 36.8 134.66 36.4 134.89C36 135.12 35.68 135.45 35.44 135.89C35.19 136.33 35.07 136.85 35.07 137.45C35.07 138.05 35.19 138.57 35.44 139.02C35.69 139.47 36.01 139.82 36.41 140.06C36.81 140.3 37.24 140.42 37.7 140.42C38.16 140.42 38.61 140.3 39.01 140.07C39.42 139.84 39.74 139.5 39.98 139.06C40.22 138.62 40.34 138.1 40.34 137.49C40.34 136.88 40.22 136.35 39.98 135.91Z" fill="#A8A8A8"/>
<path d="M49.13 132.81C49.65 132.51 50.25 132.36 50.92 132.36V135.01H50.25C49.46 135.01 48.86 135.2 48.46 135.57C48.06 135.94 47.86 136.59 47.86 137.51V142.48H45.34V132.51H47.86V134.06C48.18 133.53 48.61 133.12 49.13 132.82V132.81Z" fill="#A8A8A8"/>
<path d="M54.45 141.99C53.68 141.56 53.08 140.96 52.64 140.18C52.2 139.4 51.98 138.5 51.98 137.48C51.98 136.46 52.2 135.56 52.65 134.78C53.1 134 53.71 133.4 54.49 132.97C55.27 132.54 56.14 132.33 57.1 132.33C58.06 132.33 58.93 132.54 59.71 132.97C60.49 133.4 61.1 134 61.55 134.78C62 135.56 62.22 136.46 62.22 137.48C62.22 138.5 61.99 139.4 61.53 140.18C61.07 140.96 60.44 141.56 59.66 141.99C58.87 142.42 57.99 142.63 57.02 142.63C56.05 142.63 55.2 142.42 54.43 141.99H54.45ZM58.33 140.1C58.73 139.88 59.05 139.55 59.29 139.1C59.53 138.66 59.65 138.12 59.65 137.48C59.65 136.53 59.4 135.8 58.9 135.29C58.4 134.78 57.79 134.52 57.07 134.52C56.35 134.52 55.75 134.78 55.26 135.29C54.77 135.8 54.53 136.53 54.53 137.48C54.53 138.43 54.77 139.16 55.24 139.67C55.71 140.18 56.31 140.43 57.03 140.43C57.49 140.43 57.91 140.32 58.32 140.1H58.33Z" fill="#A8A8A8"/>
<path d="M69.9599 132.78C70.5199 133.07 70.97 133.46 71.29 133.92V132.5H73.83V142.54C73.83 143.46 73.6399 144.29 73.2699 145.01C72.8999 145.74 72.3399 146.31 71.5999 146.74C70.8599 147.17 69.96 147.38 68.9 147.38C67.48 147.38 66.3199 147.05 65.4199 146.39C64.5099 145.73 64 144.83 63.88 143.69H66.3799C66.5099 144.15 66.7999 144.51 67.2399 144.78C67.6799 145.05 68.21 145.19 68.83 145.19C69.56 145.19 70.16 144.97 70.61 144.53C71.07 144.09 71.29 143.43 71.29 142.54V140.99C70.97 141.46 70.5199 141.85 69.9499 142.16C69.3799 142.47 68.73 142.63 68 142.63C67.16 142.63 66.3899 142.41 65.6999 141.98C64.9999 141.55 64.45 140.94 64.05 140.15C63.65 139.36 63.45 138.46 63.45 137.44C63.45 136.42 63.65 135.54 64.05 134.76C64.45 133.98 65 133.38 65.69 132.96C66.38 132.54 67.15 132.33 68 132.33C68.74 132.33 69.3999 132.48 69.9599 132.77V132.78ZM70.94 135.91C70.7 135.47 70.38 135.14 69.97 134.9C69.56 134.67 69.12 134.55 68.66 134.55C68.2 134.55 67.76 134.66 67.36 134.89C66.96 135.12 66.64 135.45 66.4 135.89C66.15 136.33 66.0299 136.85 66.0299 137.45C66.0299 138.05 66.15 138.57 66.4 139.02C66.65 139.47 66.97 139.82 67.37 140.06C67.77 140.3 68.2 140.42 68.66 140.42C69.12 140.42 69.57 140.3 69.97 140.07C70.38 139.84 70.7 139.5 70.94 139.06C71.18 138.62 71.3 138.1 71.3 137.49C71.3 136.88 71.18 136.35 70.94 135.91Z" fill="#A8A8A8"/>
<path d="M76.26 134.77C76.66 133.99 77.21 133.39 77.9 132.97C78.59 132.55 79.36 132.34 80.21 132.34C80.95 132.34 81.61 132.49 82.16 132.79C82.72 133.09 83.17 133.47 83.5 133.92V132.5H86.04V142.47H83.5V141.01C83.18 141.48 82.73 141.86 82.16 142.17C81.59 142.48 80.93 142.63 80.19 142.63C79.35 142.63 78.58 142.41 77.89 141.98C77.2 141.55 76.65 140.94 76.25 140.15C75.85 139.36 75.65 138.46 75.65 137.44C75.65 136.42 75.85 135.54 76.25 134.76L76.26 134.77ZM83.14 135.91C82.9 135.47 82.58 135.14 82.17 134.9C81.76 134.67 81.32 134.55 80.86 134.55C80.4 134.55 79.96 134.66 79.56 134.89C79.16 135.12 78.84 135.45 78.6 135.89C78.35 136.33 78.23 136.85 78.23 137.45C78.23 138.05 78.35 138.57 78.6 139.02C78.85 139.47 79.17 139.82 79.57 140.06C79.97 140.3 80.4 140.42 80.86 140.42C81.32 140.42 81.77 140.3 82.17 140.07C82.58 139.84 82.9 139.5 83.14 139.06C83.38 138.62 83.5 138.1 83.5 137.49C83.5 136.88 83.38 136.35 83.14 135.91Z" fill="#A8A8A8"/>
<path d="M90.12 142.19C89.47 141.9 88.96 141.5 88.58 140.99C88.2 140.49 88 139.93 87.96 139.32H90.5C90.55 139.7 90.74 140.02 91.07 140.27C91.4 140.52 91.81 140.65 92.3 140.65C92.79 140.65 93.15 140.55 93.42 140.36C93.69 140.17 93.82 139.92 93.82 139.62C93.82 139.3 93.65 139.05 93.33 138.89C93 138.73 92.48 138.55 91.76 138.36C91.02 138.18 90.41 137.99 89.93 137.8C89.46 137.61 89.05 137.31 88.71 136.92C88.37 136.52 88.2 135.99 88.2 135.32C88.2 134.77 88.36 134.26 88.68 133.81C89 133.35 89.45 132.99 90.05 132.73C90.64 132.47 91.34 132.33 92.15 132.33C93.34 132.33 94.29 132.63 94.99 133.22C95.7 133.81 96.09 134.62 96.16 135.62H93.75C93.71 135.22 93.55 134.91 93.26 134.67C92.97 134.44 92.57 134.32 92.08 134.32C91.62 134.32 91.27 134.4 91.03 134.57C90.78 134.74 90.66 134.97 90.66 135.27C90.66 135.61 90.83 135.86 91.16 136.04C91.5 136.21 92.02 136.39 92.73 136.57C93.45 136.75 94.04 136.94 94.51 137.13C94.98 137.32 95.38 137.62 95.73 138.02C96.07 138.42 96.25 138.95 96.26 139.61C96.26 140.19 96.1 140.7 95.78 141.16C95.46 141.62 95.01 141.97 94.41 142.23C93.81 142.49 93.12 142.62 92.33 142.62C91.54 142.62 90.78 142.47 90.13 142.18L90.12 142.19Z" fill="#A8A8A8"/>
<path d="M50 100C77.6142 100 100 77.6142 100 50C100 22.3858 77.6142 0 50 0C22.3858 0 0 22.3858 0 50C0 77.6142 22.3858 100 50 100Z" fill="#E3817A"/>
<path d="M46.1899 81.88C46.1899 81.88 41.84 82.71 39.49 81.88C37.14 81.05 31.1199 78.5 31.7899 66.69C32.4599 54.88 30.7899 48.67 30.7899 48.67L26.5999 36.51C26.5999 36.51 25.0399 33.16 26.5999 32.1C29.5599 30.08 30.7299 36.27 30.7299 36.27C30.7299 36.27 34.65 46.77 36.15 46.33C37.64 45.89 36.8199 27.12 36.8199 27.12C36.8199 27.12 35.8699 23 38.6599 22.72C41.4499 22.44 41.5099 27.12 41.5099 27.12L42.3499 42.54C42.3499 42.54 41.9599 45.65 45.1999 45.04C46.5899 44.78 46.9299 35.73 46.9299 35.73L47.2999 21.42C47.2999 21.42 46.9299 17.76 49.6599 17.76C52.3899 17.76 52.4 22.84 52.4 22.84V42.89C52.4 42.89 52.0099 44.98 53.5699 45.05C55.1299 45.12 58.7599 27.13 58.7599 27.13C58.7599 27.13 60.13 23.12 62.56 23.63C64.75 24.08 63.7299 28.77 63.7299 28.77L59.43 45.06L59.7599 50.02C59.7599 50.02 43.0099 58.8 46.1899 81.9V81.88Z" fill="white"/>
<path d="M48.1 81.88C48.1 81.88 46.55 75.61 48.52 69.53C50.49 63.45 53.94 55.6 60.13 52.51C64 53.28 66.08 47.05 66.08 47.05C66.08 47.05 68.76 41.34 72.78 42.87C78.59 45.09 63.35 65.85 63.35 65.85C63.35 65.85 59.83 81.53 48.11 81.87L48.1 81.88Z" fill="white"/>
</svg>
