<svg width="427" height="103" viewBox="0 0 427 103" fill="none" xmlns="http://www.w3.org/2000/svg">
<g clip-path="url(#clip0_297_561)">
<path d="M397.19 32.28H29.81C13.3464 32.28 0 45.6264 0 62.09V72.47C0 88.9336 13.3464 102.28 29.81 102.28H397.19C413.654 102.28 427 88.9336 427 72.47V62.09C427 45.6264 413.654 32.28 397.19 32.28Z" fill="#C8A9F2"/>
<path d="M45.8501 68.3C44.3501 69.69 42.1101 70.39 39.1201 70.39H33.7601V81.71H31.1001V55.15H39.1201C42.0801 55.15 44.3201 55.85 45.8301 57.24C47.3401 58.63 48.0901 60.48 48.0901 62.79C48.0901 65.1 47.3401 66.91 45.8501 68.3ZM45.3501 62.79C45.3501 61.02 44.8601 59.67 43.8701 58.76C42.8801 57.85 41.3001 57.39 39.1201 57.39H33.7601V68.11H39.1201C43.2701 68.11 45.3501 66.34 45.3501 62.79Z" fill="white"/>
<path d="M67.7701 75.41H55.6901L53.3701 81.72H50.5601L60.2501 55.5H63.2501L72.9001 81.72H70.0901L67.7701 75.41ZM66.9701 73.2L61.7301 58.84L56.4901 73.2H66.9801H66.9701Z" fill="white"/>
<path d="M91.14 81.72L84.57 70.62H79.67V81.72H77.01V55.16H84.99C87.95 55.16 90.2 55.87 91.74 57.29C93.27 58.71 94.04 60.57 94.04 62.88C94.04 64.8 93.49 66.45 92.39 67.8C91.29 69.16 89.66 70.04 87.51 70.44L94.35 81.73H91.16L91.14 81.72ZM79.67 68.45H85.03C87.11 68.45 88.67 67.94 89.72 66.93C90.77 65.92 91.3 64.56 91.3 62.86C91.3 61.16 90.79 59.76 89.78 58.81C88.77 57.86 87.17 57.38 84.99 57.38H79.67V68.44V68.45Z" fill="white"/>
<path d="M114.55 75.41H102.47L100.15 81.72H97.3401L107.03 55.5H110.03L119.68 81.72H116.87L114.55 75.41ZM113.75 73.2L108.51 58.84L103.27 73.2H113.76H113.75Z" fill="white"/>
<path d="M139.29 80.25C137.29 79.1 135.71 77.49 134.56 75.42C133.41 73.36 132.83 71.02 132.83 68.41C132.83 65.8 133.41 63.46 134.56 61.4C135.71 59.34 137.29 57.73 139.29 56.57C141.29 55.42 143.52 54.84 145.98 54.84C148.44 54.84 150.7 55.42 152.71 56.57C154.71 57.72 156.28 59.33 157.42 61.4C158.56 63.47 159.13 65.8 159.13 68.41C159.13 71.02 158.56 73.36 157.42 75.42C156.28 77.49 154.71 79.09 152.71 80.25C150.71 81.4 148.47 81.98 145.98 81.98C143.49 81.98 141.29 81.4 139.29 80.25ZM151.29 78.3C152.86 77.39 154.1 76.08 155.01 74.37C155.92 72.66 156.38 70.68 156.38 68.42C156.38 66.16 155.92 64.19 155.01 62.49C154.1 60.79 152.86 59.49 151.29 58.58C149.72 57.67 147.95 57.21 145.97 57.21C143.99 57.21 142.22 57.67 140.65 58.58C139.08 59.49 137.84 60.8 136.93 62.49C136.02 64.19 135.56 66.16 135.56 68.42C135.56 70.68 136.02 72.66 136.93 74.37C137.84 76.08 139.08 77.39 140.65 78.3C142.22 79.21 143.99 79.67 145.97 79.67C147.95 79.67 149.72 79.21 151.29 78.3Z" fill="white"/>
<path d="M183.86 81.72H181.2L166.49 59.38V81.72H163.83V55.16H166.49L181.2 77.47V55.16H183.86V81.72Z" fill="white"/>
<path d="M205.18 56.75C207.28 57.81 208.89 59.35 210.01 61.35C211.12 63.35 211.68 65.73 211.68 68.49C211.68 71.25 211.12 73.59 210.01 75.58C208.89 77.57 207.29 79.09 205.18 80.14C203.08 81.19 200.56 81.72 197.62 81.72H189.75V55.16H197.62C200.56 55.16 203.08 55.69 205.18 56.76V56.75ZM206.07 76.6C208.01 74.66 208.98 71.96 208.98 68.49C208.98 65.02 208.01 62.26 206.07 60.3C204.13 58.34 201.31 57.35 197.61 57.35H192.4V79.5H197.61C201.31 79.5 204.13 78.53 206.07 76.59V76.6Z" fill="white"/>
<path d="M219.09 57.32V67.24H229.16V69.44H219.09V79.51H230.3V81.71H216.43V55.11H230.3V57.31H219.09V57.32Z" fill="white"/>
<path d="M267.57 86.92L261.64 81.41C260.35 81.79 258.99 81.98 257.57 81.98C255.11 81.98 252.88 81.4 250.88 80.25C248.88 79.1 247.3 77.49 246.15 75.42C245 73.36 244.42 71.02 244.42 68.41C244.42 65.8 245 63.46 246.15 61.4C247.3 59.34 248.88 57.73 250.88 56.57C252.88 55.42 255.11 54.84 257.57 54.84C260.03 54.84 262.29 55.42 264.3 56.57C266.3 57.72 267.87 59.33 269.01 61.4C270.15 63.47 270.72 65.8 270.72 68.41C270.72 71.02 270.12 73.48 268.93 75.57C267.74 77.66 266.1 79.26 264.03 80.38L271.14 86.92H267.57ZM248.54 74.36C249.45 76.07 250.69 77.38 252.26 78.29C253.83 79.2 255.6 79.66 257.58 79.66C259.56 79.66 261.33 79.2 262.9 78.29C264.47 77.38 265.71 76.07 266.62 74.36C267.53 72.65 267.99 70.67 267.99 68.41C267.99 66.15 267.53 64.18 266.62 62.48C265.71 60.78 264.47 59.48 262.9 58.57C261.33 57.66 259.56 57.2 257.58 57.2C255.6 57.2 253.83 57.66 252.26 58.57C250.69 59.48 249.45 60.79 248.54 62.48C247.63 64.18 247.17 66.15 247.17 68.41C247.17 70.67 247.63 72.65 248.54 74.36Z" fill="white"/>
<path d="M278.02 55.15V71.87C278.02 74.5 278.65 76.45 279.9 77.72C281.15 78.99 282.87 79.62 285.05 79.62C287.23 79.62 288.93 78.99 290.16 77.74C291.39 76.49 292 74.53 292 71.87V55.15H294.66V71.83C294.66 75.2 293.77 77.73 291.98 79.43C290.19 81.13 287.87 81.98 285.01 81.98C282.15 81.98 279.82 81.13 278.04 79.43C276.25 77.73 275.36 75.2 275.36 71.83V55.15H278.02Z" fill="white"/>
<path d="M303.1 57.32V67.24H313.17V69.44H303.1V79.51H314.31V81.71H300.44V55.11H314.31V57.31H303.1V57.32Z" fill="white"/>
<path d="M333.54 81.72L326.97 70.62H322.07V81.72H319.41V55.16H327.39C330.35 55.16 332.6 55.87 334.14 57.29C335.67 58.71 336.44 60.57 336.44 62.88C336.44 64.8 335.89 66.45 334.79 67.8C333.69 69.16 332.06 70.04 329.91 70.44L336.75 81.73H333.56L333.54 81.72ZM322.06 68.45H327.42C329.5 68.45 331.06 67.94 332.11 66.93C333.16 65.92 333.69 64.56 333.69 62.86C333.69 61.16 333.18 59.76 332.17 58.81C331.16 57.86 329.56 57.38 327.38 57.38H322.06V68.44V68.45Z" fill="white"/>
<path d="M354.48 55.15V81.71H351.82V55.15H354.48Z" fill="white"/>
<path d="M374.5 81.72L367.93 70.62H363.03V81.72H360.37V55.16H368.35C371.31 55.16 373.56 55.87 375.1 57.29C376.63 58.71 377.4 60.57 377.4 62.88C377.4 64.8 376.85 66.45 375.75 67.8C374.65 69.16 373.02 70.04 370.87 70.44L377.71 81.73H374.52L374.5 81.72ZM363.03 68.45H368.39C370.47 68.45 372.03 67.94 373.08 66.93C374.13 65.92 374.66 64.56 374.66 62.86C374.66 61.16 374.15 59.76 373.14 58.81C372.13 57.86 370.53 57.38 368.35 57.38H363.03V68.44V68.45Z" fill="white"/>
<path d="M393.26 55.76C394.51 56.39 395.49 57.3 396.19 58.48C396.89 59.66 397.23 61.02 397.23 62.56C397.23 65.3 396.39 67.3 394.7 68.58C393.01 69.86 390.72 70.5 387.8 70.5L387.69 74.68H385.41L385.26 68.6H386.25C388.86 68.6 390.92 68.19 392.42 67.37C393.93 66.55 394.68 64.94 394.68 62.56C394.68 60.89 394.15 59.56 393.1 58.57C392.05 57.58 390.66 57.09 388.94 57.09C387.22 57.09 385.85 57.56 384.84 58.5C383.83 59.44 383.32 60.72 383.32 62.34H380.77C380.77 60.82 381.12 59.5 381.81 58.37C382.51 57.24 383.47 56.37 384.7 55.75C385.93 55.13 387.34 54.82 388.94 54.82C390.54 54.82 392 55.14 393.25 55.77L393.26 55.76ZM385.16 81.34C384.79 80.96 384.61 80.49 384.61 79.93C384.61 79.37 384.79 78.91 385.16 78.54C385.53 78.17 385.99 77.99 386.55 77.99C387.11 77.99 387.53 78.17 387.9 78.54C388.27 78.91 388.45 79.37 388.45 79.93C388.45 80.49 388.27 80.96 387.9 81.34C387.53 81.72 387.08 81.91 386.55 81.91C386.02 81.91 385.53 81.72 385.16 81.34Z" fill="white"/>
<path d="M134.17 4.05C134.71 3.13 135.44 2.42 136.36 1.9C137.28 1.38 138.3 1.13 139.39 1.13C140.65 1.13 141.77 1.44 142.75 2.06C143.73 2.68 144.44 3.55 144.88 4.69H142.55C142.24 4.07 141.82 3.6 141.27 3.3C140.73 2.99 140.1 2.84 139.38 2.84C138.6 2.84 137.9 3.02 137.29 3.37C136.68 3.72 136.2 4.23 135.85 4.88C135.5 5.54 135.33 6.3 135.33 7.17C135.33 8.04 135.5 8.81 135.85 9.46C136.2 10.12 136.67 10.62 137.29 10.98C137.9 11.34 138.6 11.52 139.38 11.52C140.09 11.52 140.72 11.37 141.27 11.06C141.81 10.75 142.24 10.29 142.55 9.67H144.88C144.44 10.8 143.73 11.68 142.75 12.29C141.77 12.9 140.65 13.21 139.39 13.21C138.28 13.21 137.27 12.95 136.35 12.44C135.43 11.92 134.7 11.21 134.17 10.29C133.63 9.37 133.36 8.33 133.36 7.18C133.36 6.03 133.63 4.99 134.17 4.07V4.05Z" fill="#A8A8A8"/>
<path d="M150.41 3.97C150.88 3.7 151.44 3.57 152.08 3.57V5.58H151.59C150.83 5.58 150.26 5.77 149.86 6.16C149.47 6.54 149.27 7.21 149.27 8.17V13.1H147.33V3.72H149.27V5.08C149.55 4.6 149.93 4.23 150.4 3.97H150.41Z" fill="#A8A8A8"/>
<path d="M154.16 2.12C153.92 1.88 153.8 1.59 153.8 1.24C153.8 0.89 153.92 0.59 154.16 0.36C154.4 0.12 154.69 0 155.04 0C155.39 0 155.67 0.12 155.91 0.36C156.15 0.6 156.27 0.89 156.27 1.24C156.27 1.59 156.15 1.89 155.91 2.12C155.67 2.36 155.38 2.48 155.04 2.48C154.7 2.48 154.39 2.36 154.16 2.12ZM155.99 3.72V13.09H154.05V3.72H155.99Z" fill="#A8A8A8"/>
<path d="M158.67 5.87C159.06 5.14 159.59 4.58 160.27 4.18C160.95 3.78 161.69 3.58 162.51 3.58C163.25 3.58 163.89 3.72 164.44 4.01C164.99 4.3 165.43 4.66 165.76 5.09V3.73H167.72V13.1H165.76V11.71C165.43 12.15 164.98 12.52 164.42 12.81C163.85 13.1 163.21 13.25 162.48 13.25C161.67 13.25 160.94 13.04 160.27 12.63C159.6 12.22 159.07 11.64 158.68 10.9C158.29 10.16 158.09 9.32 158.09 8.38C158.09 7.44 158.29 6.61 158.68 5.88L158.67 5.87ZM165.35 6.71C165.08 6.23 164.74 5.87 164.3 5.62C163.87 5.37 163.4 5.25 162.91 5.25C162.42 5.25 161.95 5.37 161.52 5.62C161.09 5.86 160.74 6.22 160.47 6.69C160.2 7.16 160.07 7.72 160.07 8.36C160.07 9 160.2 9.57 160.47 10.06C160.74 10.55 161.09 10.92 161.52 11.17C161.96 11.42 162.42 11.55 162.91 11.55C163.4 11.55 163.87 11.43 164.3 11.18C164.73 10.93 165.08 10.57 165.35 10.08C165.62 9.6 165.75 9.04 165.75 8.39C165.75 7.74 165.62 7.18 165.35 6.71Z" fill="#A8A8A8"/>
<path d="M177.15 4.03C177.73 4.34 178.19 4.79 178.52 5.39C178.85 5.99 179.01 6.72 179.01 7.57V13.1H177.09V7.86C177.09 7.02 176.88 6.38 176.46 5.93C176.04 5.48 175.47 5.26 174.74 5.26C174.01 5.26 173.44 5.48 173.01 5.93C172.58 6.38 172.37 7.02 172.37 7.86V13.1H170.43V3.72H172.37V4.79C172.69 4.4 173.09 4.1 173.59 3.89C174.08 3.68 174.61 3.57 175.16 3.57C175.9 3.57 176.56 3.72 177.14 4.03H177.15Z" fill="#A8A8A8"/>
<path d="M187.83 10.13H189.92C189.67 10.99 189.23 11.7 188.59 12.25C187.95 12.8 187.15 13.12 186.18 13.21V13.91C186.84 13.91 187.37 14.07 187.78 14.38C188.19 14.69 188.39 15.13 188.39 15.7C188.39 16.27 188.19 16.72 187.78 17.05C187.37 17.38 186.86 17.55 186.23 17.55H183.99V16.33H185.84C186.16 16.33 186.4 16.28 186.55 16.19C186.7 16.1 186.79 15.94 186.79 15.7C186.79 15.46 186.71 15.3 186.55 15.21C186.39 15.12 186.15 15.07 185.84 15.07H184.9V13.2C184.13 13.11 183.45 12.85 182.86 12.43C182.27 12.01 181.81 11.45 181.49 10.76C181.17 10.07 181.01 9.29 181.01 8.41C181.01 7.45 181.21 6.6 181.6 5.87C181.99 5.14 182.53 4.58 183.22 4.18C183.91 3.78 184.7 3.59 185.6 3.59C186.73 3.59 187.67 3.86 188.41 4.4C189.15 4.94 189.65 5.71 189.91 6.7H187.82C187.65 6.24 187.38 5.87 187 5.61C186.62 5.35 186.16 5.22 185.59 5.22C184.8 5.22 184.16 5.5 183.69 6.06C183.22 6.62 182.98 7.41 182.98 8.41C182.98 9.41 183.21 10.21 183.69 10.77C184.16 11.34 184.79 11.62 185.59 11.62C186.71 11.62 187.45 11.13 187.82 10.14L187.83 10.13Z" fill="#A8A8A8"/>
<path d="M191.99 5.87C192.38 5.14 192.91 4.58 193.59 4.18C194.27 3.78 195.01 3.58 195.83 3.58C196.57 3.58 197.21 3.72 197.76 4.01C198.31 4.3 198.75 4.66 199.08 5.09V3.73H201.04V13.1H199.08V11.71C198.75 12.15 198.3 12.52 197.74 12.81C197.17 13.1 196.53 13.25 195.8 13.25C194.99 13.25 194.26 13.04 193.59 12.63C192.92 12.22 192.39 11.64 192 10.9C191.61 10.16 191.41 9.32 191.41 8.38C191.41 7.44 191.61 6.61 192 5.88L191.99 5.87ZM198.67 6.71C198.4 6.23 198.06 5.87 197.62 5.62C197.19 5.37 196.72 5.25 196.23 5.25C195.74 5.25 195.27 5.37 194.84 5.62C194.41 5.86 194.06 6.22 193.79 6.69C193.52 7.16 193.39 7.72 193.39 8.36C193.39 9 193.52 9.57 193.79 10.06C194.06 10.55 194.41 10.92 194.84 11.17C195.28 11.42 195.74 11.55 196.23 11.55C196.72 11.55 197.19 11.43 197.62 11.18C198.05 10.93 198.4 10.57 198.67 10.08C198.94 9.6 199.07 9.04 199.07 8.39C199.07 7.74 198.94 7.18 198.67 6.71Z" fill="#A8A8A8"/>
<path d="M205.18 12.84C204.6 12.57 204.13 12.21 203.79 11.75C203.45 11.29 203.27 10.78 203.25 10.21H205.26C205.29 10.61 205.48 10.94 205.83 11.2C206.18 11.47 206.61 11.6 207.13 11.6C207.65 11.6 208.1 11.49 208.4 11.28C208.7 11.07 208.85 10.8 208.85 10.47C208.85 10.12 208.68 9.86 208.35 9.69C208.02 9.52 207.49 9.33 206.76 9.13C206.06 8.94 205.49 8.75 205.04 8.57C204.6 8.39 204.22 8.11 203.89 7.74C203.57 7.37 203.41 6.87 203.41 6.26C203.41 5.76 203.56 5.31 203.85 4.89C204.14 4.48 204.57 4.15 205.12 3.91C205.67 3.67 206.3 3.55 207.02 3.55C208.08 3.55 208.94 3.82 209.6 4.36C210.25 4.9 210.6 5.63 210.65 6.56H208.71C208.68 6.14 208.51 5.81 208.2 5.56C207.89 5.31 207.48 5.19 206.96 5.19C206.44 5.19 206.06 5.29 205.79 5.48C205.52 5.67 205.38 5.93 205.38 6.24C205.38 6.49 205.47 6.7 205.65 6.87C205.83 7.04 206.05 7.17 206.31 7.27C206.57 7.37 206.96 7.49 207.47 7.64C208.15 7.82 208.71 8.01 209.14 8.19C209.58 8.38 209.95 8.65 210.27 9.01C210.59 9.37 210.75 9.85 210.76 10.46C210.76 10.99 210.61 11.47 210.32 11.89C210.03 12.31 209.61 12.64 209.07 12.88C208.53 13.12 207.9 13.24 207.17 13.24C206.44 13.24 205.77 13.11 205.19 12.84H205.18Z" fill="#A8A8A8"/>
<path d="M220.92 4.01C221.49 3.72 222.13 3.57 222.84 3.57C223.66 3.57 224.4 3.77 225.08 4.17C225.76 4.57 226.28 5.14 226.67 5.86C227.06 6.58 227.25 7.42 227.25 8.36C227.25 9.3 227.06 10.14 226.67 10.88C226.28 11.62 225.75 12.2 225.08 12.61C224.41 13.02 223.66 13.23 222.84 13.23C222.13 13.23 221.49 13.09 220.94 12.8C220.38 12.51 219.93 12.15 219.58 11.72V17.53H217.64V3.72H219.58V5.1C219.91 4.67 220.36 4.31 220.92 4.01ZM224.87 6.69C224.6 6.22 224.25 5.86 223.82 5.62C223.38 5.38 222.92 5.25 222.42 5.25C221.92 5.25 221.47 5.37 221.03 5.62C220.59 5.87 220.24 6.23 219.98 6.71C219.72 7.19 219.58 7.75 219.58 8.39C219.58 9.03 219.71 9.6 219.98 10.08C220.25 10.56 220.6 10.93 221.03 11.18C221.47 11.43 221.93 11.55 222.42 11.55C222.91 11.55 223.39 11.42 223.82 11.17C224.26 10.91 224.61 10.54 224.87 10.06C225.14 9.57 225.27 9.01 225.27 8.36C225.27 7.71 225.14 7.16 224.87 6.69Z" fill="#A8A8A8"/>
<path d="M237.87 9.13H230.71C230.77 9.88 231.04 10.48 231.54 10.93C232.04 11.38 232.65 11.61 233.38 11.61C234.42 11.61 235.16 11.17 235.59 10.3H237.68C237.4 11.16 236.88 11.87 236.14 12.42C235.4 12.97 234.48 13.25 233.38 13.25C232.48 13.25 231.68 13.05 230.97 12.65C230.26 12.25 229.71 11.68 229.3 10.95C228.9 10.22 228.7 9.37 228.7 8.41C228.7 7.45 228.9 6.6 229.29 5.87C229.68 5.14 230.23 4.58 230.94 4.18C231.65 3.78 232.46 3.59 233.38 3.59C234.3 3.59 235.05 3.78 235.74 4.17C236.43 4.56 236.97 5.1 237.36 5.79C237.74 6.49 237.94 7.29 237.94 8.2C237.94 8.55 237.92 8.87 237.87 9.15V9.13ZM235.91 7.56C235.9 6.85 235.64 6.27 235.14 5.84C234.64 5.41 234.02 5.19 233.29 5.19C232.62 5.19 232.05 5.4 231.57 5.83C231.09 6.26 230.81 6.83 230.72 7.56H235.91Z" fill="#A8A8A8"/>
<path d="M239.96 5.87C240.35 5.14 240.88 4.58 241.56 4.18C242.24 3.78 242.99 3.58 243.81 3.58C244.54 3.58 245.18 3.73 245.74 4.02C246.3 4.31 246.73 4.67 247.04 5.09V3.73H249V17.55H247.04V11.74C246.73 12.16 246.29 12.52 245.71 12.81C245.13 13.1 244.47 13.25 243.74 13.25C242.94 13.25 242.2 13.04 241.54 12.63C240.88 12.22 240.35 11.64 239.96 10.9C239.57 10.16 239.37 9.32 239.37 8.38C239.37 7.44 239.57 6.61 239.96 5.88V5.87ZM246.65 6.71C246.38 6.23 246.04 5.87 245.6 5.62C245.17 5.37 244.7 5.25 244.21 5.25C243.72 5.25 243.25 5.37 242.82 5.62C242.39 5.86 242.04 6.22 241.77 6.69C241.5 7.16 241.37 7.72 241.37 8.36C241.37 9 241.5 9.57 241.77 10.06C242.04 10.55 242.39 10.92 242.82 11.17C243.26 11.42 243.72 11.55 244.21 11.55C244.7 11.55 245.17 11.43 245.6 11.18C246.03 10.93 246.38 10.57 246.65 10.08C246.92 9.6 247.05 9.04 247.05 8.39C247.05 7.74 246.92 7.18 246.65 6.71Z" fill="#A8A8A8"/>
<path d="M260.22 3.72V13.09H258.28V11.98C257.97 12.37 257.57 12.67 257.08 12.89C256.59 13.11 256.06 13.22 255.51 13.22C254.77 13.22 254.11 13.07 253.53 12.76C252.95 12.45 252.49 12 252.15 11.4C251.81 10.8 251.65 10.07 251.65 9.22V3.72H253.57V8.94C253.57 9.78 253.78 10.42 254.2 10.87C254.62 11.32 255.19 11.54 255.92 11.54C256.65 11.54 257.22 11.32 257.65 10.87C258.07 10.42 258.29 9.78 258.29 8.94V3.72H260.23H260.22Z" fill="#A8A8A8"/>
<path d="M271.47 9.13H264.31C264.37 9.88 264.64 10.48 265.14 10.93C265.64 11.38 266.25 11.61 266.98 11.61C268.02 11.61 268.76 11.17 269.19 10.3H271.28C271 11.16 270.48 11.87 269.74 12.42C269 12.97 268.08 13.25 266.98 13.25C266.08 13.25 265.28 13.05 264.57 12.65C263.86 12.25 263.31 11.68 262.9 10.95C262.5 10.22 262.3 9.37 262.3 8.41C262.3 7.45 262.5 6.6 262.89 5.87C263.28 5.14 263.83 4.58 264.54 4.18C265.25 3.78 266.06 3.59 266.98 3.59C267.9 3.59 268.65 3.78 269.34 4.17C270.03 4.56 270.57 5.1 270.96 5.79C271.34 6.49 271.54 7.29 271.54 8.2C271.54 8.55 271.52 8.87 271.47 9.15V9.13ZM269.52 7.56C269.51 6.85 269.25 6.27 268.75 5.84C268.25 5.41 267.63 5.19 266.9 5.19C266.23 5.19 265.66 5.4 265.18 5.83C264.7 6.26 264.42 6.83 264.33 7.56H269.52Z" fill="#A8A8A8"/>
<path d="M280.34 4.03C280.92 4.34 281.38 4.79 281.71 5.39C282.04 5.99 282.2 6.72 282.2 7.57V13.1H280.28V7.86C280.28 7.02 280.07 6.38 279.65 5.93C279.23 5.48 278.66 5.26 277.93 5.26C277.2 5.26 276.63 5.48 276.2 5.93C275.77 6.38 275.56 7.02 275.56 7.86V13.1H273.62V3.72H275.56V4.79C275.88 4.4 276.28 4.1 276.78 3.89C277.27 3.68 277.8 3.57 278.35 3.57C279.09 3.57 279.75 3.72 280.33 4.03H280.34Z" fill="#A8A8A8"/>
<path d="M284.79 5.87C285.18 5.14 285.71 4.58 286.39 4.18C287.07 3.78 287.81 3.58 288.63 3.58C289.37 3.58 290.01 3.72 290.56 4.01C291.11 4.3 291.55 4.66 291.88 5.09V3.73H293.84V13.1H291.88V11.71C291.55 12.15 291.1 12.52 290.54 12.81C289.97 13.1 289.33 13.25 288.6 13.25C287.79 13.25 287.06 13.04 286.39 12.63C285.72 12.22 285.19 11.64 284.8 10.9C284.41 10.16 284.21 9.32 284.21 8.38C284.21 7.44 284.41 6.61 284.8 5.88L284.79 5.87ZM291.47 6.71C291.2 6.23 290.86 5.87 290.42 5.62C289.99 5.37 289.52 5.25 289.03 5.25C288.54 5.25 288.07 5.37 287.64 5.62C287.21 5.86 286.86 6.22 286.59 6.69C286.32 7.16 286.19 7.72 286.19 8.36C286.19 9 286.32 9.57 286.59 10.06C286.86 10.55 287.21 10.92 287.64 11.17C288.08 11.42 288.54 11.55 289.03 11.55C289.52 11.55 289.99 11.43 290.42 11.18C290.85 10.93 291.2 10.57 291.47 10.08C291.74 9.6 291.87 9.04 291.87 8.39C291.87 7.74 291.74 7.18 291.47 6.71Z" fill="#A8A8A8"/>
<path d="M297.98 12.84C297.4 12.57 296.93 12.21 296.59 11.75C296.25 11.29 296.07 10.78 296.05 10.21H298.06C298.09 10.61 298.28 10.94 298.63 11.2C298.98 11.47 299.41 11.6 299.93 11.6C300.45 11.6 300.9 11.49 301.2 11.28C301.5 11.07 301.65 10.8 301.65 10.47C301.65 10.12 301.48 9.86 301.15 9.69C300.82 9.52 300.29 9.33 299.56 9.13C298.86 8.94 298.29 8.75 297.84 8.57C297.4 8.39 297.02 8.11 296.69 7.74C296.37 7.37 296.21 6.87 296.21 6.26C296.21 5.76 296.36 5.31 296.65 4.89C296.94 4.48 297.37 4.15 297.92 3.91C298.47 3.67 299.1 3.55 299.82 3.55C300.88 3.55 301.74 3.82 302.4 4.36C303.05 4.9 303.4 5.63 303.45 6.56H301.51C301.48 6.14 301.31 5.81 301 5.56C300.69 5.31 300.28 5.19 299.76 5.19C299.24 5.19 298.86 5.29 298.59 5.48C298.32 5.67 298.18 5.93 298.18 6.24C298.18 6.49 298.27 6.7 298.45 6.87C298.63 7.04 298.85 7.17 299.11 7.27C299.37 7.37 299.76 7.49 300.27 7.64C300.95 7.82 301.51 8.01 301.94 8.19C302.38 8.38 302.75 8.65 303.07 9.01C303.39 9.37 303.55 9.85 303.56 10.46C303.56 10.99 303.41 11.47 303.12 11.89C302.83 12.31 302.41 12.64 301.87 12.88C301.33 13.12 300.7 13.24 299.97 13.24C299.24 13.24 298.57 13.11 297.99 12.84H297.98Z" fill="#A8A8A8"/>
</g>
<defs>
<clipPath id="clip0_297_561">
<rect width="427" height="102.28" fill="white"/>
</clipPath>
</defs>
</svg>
