<svg width="69" height="69" viewBox="0 0 69 69" fill="none" xmlns="http://www.w3.org/2000/svg">
<path d="M34.485 69C53.5305 69 68.97 54.1933 68.97 35.9283C68.97 17.6633 53.5305 2.85663 34.485 2.85663C15.4395 2.85663 0 17.6633 0 35.9283C0 54.1933 15.4395 69 34.485 69Z" fill="#A68FC9"/>
<path d="M34.515 66.1434C53.5605 66.1434 69 51.3367 69 33.0717C69 14.8067 53.5605 0 34.515 0C15.4695 0 0.030014 14.8067 0.030014 33.0717C0.030014 51.3367 15.4695 66.1434 34.515 66.1434Z" fill="#C8A9F2"/>
<path d="M18.5419 28.4991L32.5358 15.0788C34.8948 12.8165 38.9431 14.4173 38.9431 17.619V46.5687C38.9431 49.7321 34.9848 51.3617 32.5958 49.1665L18.5419 36.283V28.4896V28.4991Z" fill="#FFF8FC"/>
<path d="M15.8331 28.4704H15.8231C14.9895 28.4704 14.3138 29.1184 14.3138 29.9179V34.2795C14.3138 35.0789 14.9895 35.727 15.8231 35.727H15.8331C16.6667 35.727 17.3424 35.0789 17.3424 34.2795V29.9179C17.3424 29.1184 16.6667 28.4704 15.8331 28.4704Z" fill="#FFF8FC"/>
<path d="M43.751 40.8843C47.8892 36.5706 47.9891 27.5597 43.751 23.3227C42.4116 21.9807 40.2925 24.0225 41.6319 25.3549C44.6806 28.4033 44.6406 35.7078 41.6319 38.8424C40.3225 40.2036 42.4415 42.2359 43.751 40.8747V40.8843Z" fill="#FFF8FC"/>
<path d="M48.319 43.3958C53.6167 37.8742 53.7367 26.2273 48.319 20.8112C46.9796 19.4691 44.8605 21.5109 46.1999 22.8434C50.4281 27.0708 50.3781 37.0211 46.1999 41.3635C44.8905 42.7248 47.0096 44.757 48.319 43.3958Z" fill="#FFF8FC"/>
</svg>
