<svg width="69" height="69" viewBox="0 0 69 69" fill="none" xmlns="http://www.w3.org/2000/svg">
<path d="M34.485 69C53.5305 69 68.97 54.1933 68.97 35.9283C68.97 17.6633 53.5305 2.85663 34.485 2.85663C15.4395 2.85663 0 17.6633 0 35.9283C0 54.1933 15.4395 69 34.485 69Z" fill="#E8E3E6"/>
<path d="M34.515 66.1434C53.5605 66.1434 69 51.3367 69 33.0717C69 14.8067 53.5605 0 34.515 0C15.4694 0 0.0299835 14.8067 0.0299835 33.0717C0.0299835 51.3367 15.4694 66.1434 34.515 66.1434Z" fill="#FFF8FC"/>
<path d="M19.5415 29.8173L33.5354 16.3969C35.8944 14.1346 39.9426 15.7354 39.9426 18.9372V47.8869C39.9426 51.0502 35.9844 52.6799 33.5954 50.4847L19.5415 37.6011V29.8077V29.8173Z" fill="#C8A9F2"/>
<path d="M16.8327 29.7885H16.8227C15.9891 29.7885 15.3133 30.4366 15.3133 31.236V35.5976C15.3133 36.397 15.9891 37.0451 16.8227 37.0451H16.8327C17.6663 37.0451 18.342 36.397 18.342 35.5976V31.236C18.342 30.4366 17.6663 29.7885 16.8327 29.7885Z" fill="#C8A9F2"/>
<path d="M44.7506 42.2023C48.8888 37.8886 48.9887 28.8778 44.7506 24.6408C43.4111 23.2987 41.2921 25.3406 42.6315 26.673C45.6802 29.7214 45.6402 37.0259 42.6315 40.1605C41.3221 41.5217 43.4411 43.554 44.7506 42.1927V42.2023Z" fill="#C8A9F2"/>
<path d="M49.3186 44.7139C54.6163 39.1924 54.7362 27.5454 49.3186 22.1293C47.9792 20.7872 45.8601 22.8291 47.1995 24.1615C51.4277 28.3889 51.3777 38.3392 47.1995 42.6817C45.8901 44.0429 48.0092 46.0751 49.3186 44.7139Z" fill="#C8A9F2"/>
</svg>
