<svg width="39" height="33" viewBox="0 0 39 33" fill="none" xmlns="http://www.w3.org/2000/svg">
<path d="M37.8401 29.59C32.3401 25.37 26.8301 21.15 21.3301 16.92C24.0901 12.21 22.9701 6.06996 18.5401 2.65996C13.7301 -1.03004 6.82009 -0.120035 3.14009 4.68996C-0.539913 9.49996 0.360055 16.41 5.17006 20.09C9.33006 23.28 15.0601 23.03 18.9201 19.78L35.5701 32.55C37.4801 34.02 39.76 31.05 37.85 29.58L37.8401 29.59ZM6.98005 17.72C3.48005 15.04 2.82007 10.01 5.50007 6.51996C8.18007 3.02996 13.2101 2.35997 16.7001 5.03997C20.1901 7.71996 20.8601 12.75 18.1801 16.24C15.5001 19.73 10.4701 20.4 6.98005 17.72Z" fill="#B5B5B5"/>
</svg>
