<svg width="389" height="242" viewBox="0 0 389 242" fill="none" xmlns="http://www.w3.org/2000/svg">
<path d="M351.74 0.75H36.84C16.654 0.75 0.290039 17.114 0.290039 37.3V167.2C0.290039 187.386 16.654 203.75 36.84 203.75H351.74C371.926 203.75 388.29 187.386 388.29 167.2V37.3C388.29 17.114 371.926 0.75 351.74 0.75Z" fill="#FDFCC2"/>
<path d="M141.42 238.7L139.35 236.46C138.84 236.61 138.28 236.68 137.67 236.68C136.57 236.68 135.56 236.42 134.64 235.91C133.72 235.4 132.99 234.67 132.45 233.75C131.91 232.83 131.64 231.79 131.64 230.63C131.64 229.47 131.91 228.44 132.45 227.52C132.99 226.6 133.72 225.89 134.64 225.37C135.56 224.85 136.58 224.6 137.67 224.6C138.76 224.6 139.8 224.86 140.72 225.37C141.64 225.88 142.37 226.6 142.9 227.52C143.43 228.44 143.7 229.48 143.7 230.63C143.7 231.72 143.46 232.7 142.99 233.58C142.52 234.46 141.87 235.16 141.04 235.7L143.88 238.71H141.41L141.42 238.7ZM134.14 232.93C134.49 233.59 134.96 234.1 135.58 234.46C136.19 234.82 136.89 235 137.67 235C138.45 235 139.15 234.82 139.76 234.46C140.37 234.1 140.85 233.59 141.2 232.93C141.55 232.27 141.72 231.5 141.72 230.63C141.72 229.76 141.55 228.99 141.2 228.34C140.85 227.69 140.38 227.18 139.76 226.83C139.15 226.48 138.45 226.3 137.67 226.3C136.89 226.3 136.19 226.48 135.58 226.83C134.97 227.18 134.49 227.69 134.14 228.34C133.79 229 133.62 229.76 133.62 230.63C133.62 231.5 133.79 232.27 134.14 232.93Z" fill="#A8A8A8"/>
<path d="M154.32 227.19V236.56H152.38V235.45C152.07 235.84 151.67 236.14 151.18 236.36C150.69 236.58 150.16 236.69 149.61 236.69C148.87 236.69 148.21 236.54 147.63 236.23C147.05 235.92 146.59 235.47 146.25 234.87C145.91 234.27 145.75 233.54 145.75 232.69V227.18H147.67V232.4C147.67 233.24 147.88 233.88 148.3 234.33C148.72 234.78 149.29 235 150.02 235C150.75 235 151.32 234.78 151.75 234.33C152.17 233.88 152.39 233.24 152.39 232.4V227.18H154.33L154.32 227.19Z" fill="#A8A8A8"/>
<path d="M157 229.34C157.39 228.61 157.92 228.05 158.6 227.65C159.28 227.25 160.02 227.05 160.84 227.05C161.58 227.05 162.22 227.19 162.77 227.48C163.32 227.77 163.76 228.13 164.09 228.56V227.2H166.05V236.57H164.09V235.18C163.76 235.62 163.31 235.99 162.75 236.28C162.18 236.57 161.54 236.72 160.81 236.72C160 236.72 159.27 236.51 158.6 236.1C157.93 235.69 157.4 235.11 157.01 234.37C156.62 233.63 156.42 232.79 156.42 231.85C156.42 230.91 156.62 230.08 157.01 229.35L157 229.34ZM163.68 230.19C163.41 229.71 163.07 229.35 162.63 229.1C162.2 228.85 161.73 228.73 161.24 228.73C160.75 228.73 160.28 228.85 159.85 229.1C159.42 229.34 159.07 229.7 158.8 230.17C158.53 230.64 158.4 231.2 158.4 231.84C158.4 232.48 158.53 233.05 158.8 233.54C159.07 234.03 159.42 234.4 159.85 234.65C160.29 234.9 160.75 235.03 161.24 235.03C161.73 235.03 162.2 234.91 162.63 234.66C163.06 234.41 163.41 234.05 163.68 233.56C163.95 233.08 164.08 232.52 164.08 231.87C164.08 231.22 163.95 230.66 163.68 230.19Z" fill="#A8A8A8"/>
<path d="M168.71 229.34C169.1 228.61 169.63 228.05 170.31 227.65C170.99 227.25 171.74 227.05 172.56 227.05C173.17 227.05 173.78 227.18 174.37 227.45C174.97 227.72 175.44 228.07 175.79 228.51V223.99H177.75V236.57H175.79V235.16C175.47 235.61 175.03 235.99 174.47 236.28C173.91 236.57 173.27 236.72 172.54 236.72C171.72 236.72 170.98 236.51 170.3 236.1C169.63 235.69 169.09 235.11 168.7 234.37C168.31 233.63 168.11 232.79 168.11 231.85C168.11 230.91 168.31 230.08 168.7 229.35L168.71 229.34ZM175.4 230.19C175.13 229.71 174.79 229.35 174.35 229.1C173.92 228.85 173.45 228.73 172.96 228.73C172.47 228.73 172 228.85 171.57 229.1C171.14 229.34 170.79 229.7 170.52 230.17C170.25 230.64 170.12 231.2 170.12 231.84C170.12 232.48 170.25 233.05 170.52 233.54C170.79 234.03 171.14 234.4 171.57 234.65C172.01 234.9 172.47 235.03 172.96 235.03C173.45 235.03 173.92 234.91 174.35 234.66C174.78 234.41 175.13 234.05 175.4 233.56C175.67 233.08 175.8 232.52 175.8 231.87C175.8 231.22 175.67 230.66 175.4 230.19Z" fill="#A8A8A8"/>
<path d="M183.56 227.44C184.03 227.17 184.59 227.04 185.23 227.04V229.05H184.74C183.98 229.05 183.41 229.24 183.01 229.63C182.62 230.01 182.42 230.68 182.42 231.64V236.57H180.48V227.2H182.42V228.56C182.7 228.08 183.08 227.71 183.55 227.45L183.56 227.44Z" fill="#A8A8A8"/>
<path d="M188.87 236.11C188.16 235.71 187.6 235.14 187.19 234.41C186.78 233.68 186.58 232.83 186.58 231.87C186.58 230.91 186.79 230.07 187.21 229.34C187.63 228.6 188.2 228.04 188.93 227.64C189.66 227.24 190.47 227.05 191.36 227.05C192.25 227.05 193.07 227.25 193.79 227.64C194.52 228.04 195.09 228.6 195.51 229.34C195.93 230.08 196.14 230.92 196.14 231.87C196.14 232.82 195.92 233.67 195.49 234.4C195.06 235.14 194.47 235.71 193.73 236.11C192.99 236.51 192.17 236.71 191.27 236.71C190.37 236.71 189.59 236.51 188.87 236.11ZM192.67 234.67C193.11 234.43 193.46 234.07 193.73 233.6C194 233.12 194.14 232.55 194.14 231.87C194.14 231.19 194.01 230.62 193.75 230.14C193.49 229.67 193.14 229.32 192.71 229.08C192.28 228.84 191.81 228.72 191.32 228.72C190.83 228.72 190.36 228.84 189.93 229.08C189.51 229.32 189.17 229.67 188.92 230.14C188.67 230.61 188.55 231.19 188.55 231.87C188.55 232.88 188.81 233.66 189.32 234.21C189.84 234.76 190.48 235.03 191.27 235.03C191.77 235.03 192.24 234.91 192.67 234.67Z" fill="#A8A8A8"/>
<path d="M210.01 225.47C210.96 225.95 211.69 226.64 212.2 227.54C212.71 228.44 212.97 229.49 212.97 230.69C212.97 231.89 212.71 232.93 212.2 233.82C211.68 234.7 210.95 235.38 210.01 235.85C209.06 236.32 207.96 236.56 206.7 236.56H202.84V224.74H206.7C207.96 224.74 209.06 224.98 210.01 225.46V225.47ZM209.88 233.86C210.62 233.11 210.98 232.06 210.98 230.7C210.98 229.34 210.61 228.26 209.88 227.49C209.15 226.72 208.08 226.33 206.7 226.33H204.78V234.98H206.7C208.08 234.98 209.14 234.61 209.88 233.86Z" fill="#A8A8A8"/>
<path d="M215.18 225.6C214.94 225.36 214.82 225.07 214.82 224.72C214.82 224.37 214.94 224.07 215.18 223.84C215.42 223.6 215.71 223.48 216.06 223.48C216.41 223.48 216.69 223.6 216.93 223.84C217.17 224.08 217.29 224.37 217.29 224.72C217.29 225.07 217.17 225.37 216.93 225.6C216.69 225.84 216.4 225.96 216.06 225.96C215.72 225.96 215.41 225.84 215.18 225.6ZM217.02 227.19V236.56H215.08V227.19H217.02Z" fill="#A8A8A8"/>
<path d="M225.46 227.47C226.02 227.76 226.46 228.12 226.78 228.55V227.19H228.74V236.71C228.74 237.57 228.56 238.34 228.2 239.01C227.84 239.68 227.31 240.21 226.63 240.6C225.94 240.99 225.13 241.18 224.17 241.18C222.9 241.18 221.85 240.88 221.01 240.29C220.17 239.7 219.7 238.89 219.58 237.87H221.5C221.65 238.36 221.96 238.75 222.44 239.05C222.92 239.35 223.5 239.5 224.17 239.5C224.95 239.5 225.58 239.26 226.07 238.79C226.55 238.31 226.79 237.62 226.79 236.72V235.16C226.46 235.6 226.02 235.97 225.46 236.27C224.9 236.57 224.26 236.72 223.55 236.72C222.73 236.72 221.99 236.51 221.31 236.1C220.64 235.69 220.1 235.11 219.71 234.37C219.32 233.63 219.12 232.79 219.12 231.85C219.12 230.91 219.32 230.08 219.71 229.35C220.1 228.62 220.63 228.06 221.31 227.66C221.99 227.26 222.73 227.06 223.55 227.06C224.28 227.06 224.92 227.2 225.48 227.49L225.46 227.47ZM226.38 230.19C226.11 229.71 225.77 229.35 225.33 229.1C224.9 228.85 224.43 228.73 223.94 228.73C223.45 228.73 222.98 228.85 222.55 229.1C222.12 229.34 221.77 229.7 221.5 230.17C221.23 230.64 221.1 231.2 221.1 231.84C221.1 232.48 221.23 233.05 221.5 233.54C221.77 234.03 222.12 234.4 222.55 234.65C222.99 234.9 223.45 235.03 223.94 235.03C224.43 235.03 224.9 234.91 225.33 234.66C225.76 234.41 226.11 234.05 226.38 233.56C226.65 233.08 226.78 232.52 226.78 231.87C226.78 231.22 226.65 230.66 226.38 230.19Z" fill="#A8A8A8"/>
<path d="M231.57 225.6C231.33 225.36 231.21 225.07 231.21 224.72C231.21 224.37 231.33 224.07 231.57 223.84C231.81 223.6 232.1 223.48 232.45 223.48C232.8 223.48 233.08 223.6 233.32 223.84C233.56 224.08 233.68 224.37 233.68 224.72C233.68 225.07 233.56 225.37 233.32 225.6C233.08 225.84 232.79 225.96 232.45 225.96C232.11 225.96 231.8 225.84 231.57 225.6ZM233.41 227.19V236.56H231.47V227.19H233.41Z" fill="#A8A8A8"/>
<path d="M238.41 228.77V233.96C238.41 234.31 238.49 234.56 238.66 234.72C238.82 234.87 239.1 234.95 239.5 234.95H240.69V236.57H239.16C238.29 236.57 237.62 236.37 237.15 235.96C236.69 235.55 236.45 234.89 236.45 233.97V228.78H235.35V227.2H236.45V224.87H238.41V227.2H240.69V228.78H238.41V228.77Z" fill="#A8A8A8"/>
<path d="M242.6 229.34C242.99 228.61 243.52 228.05 244.2 227.65C244.88 227.25 245.62 227.05 246.44 227.05C247.18 227.05 247.82 227.19 248.37 227.48C248.92 227.77 249.36 228.13 249.69 228.56V227.2H251.65V236.57H249.69V235.18C249.36 235.62 248.91 235.99 248.35 236.28C247.78 236.57 247.14 236.72 246.41 236.72C245.6 236.72 244.87 236.51 244.2 236.1C243.53 235.69 243 235.11 242.61 234.37C242.22 233.63 242.02 232.79 242.02 231.85C242.02 230.91 242.22 230.08 242.61 229.35L242.6 229.34ZM249.28 230.19C249.01 229.71 248.67 229.35 248.23 229.1C247.8 228.85 247.33 228.73 246.84 228.73C246.35 228.73 245.88 228.85 245.45 229.1C245.02 229.34 244.67 229.7 244.4 230.17C244.13 230.64 244 231.2 244 231.84C244 232.48 244.13 233.05 244.4 233.54C244.67 234.03 245.02 234.4 245.45 234.65C245.89 234.9 246.35 235.03 246.84 235.03C247.33 235.03 247.8 234.91 248.23 234.66C248.66 234.41 249.01 234.05 249.28 233.56C249.55 233.08 249.68 232.52 249.68 231.87C249.68 231.22 249.55 230.66 249.28 230.19Z" fill="#A8A8A8"/>
<path d="M256.31 223.98V236.56H254.37V223.98H256.31Z" fill="#A8A8A8"/>
<path d="M242.41 180.47L224.31 175.54L195.44 110.54L211.09 104.13L242.41 180.47Z" fill="#C1A97E"/>
<path d="M113.37 180.83L131.48 175.85L160.48 110.54L144.83 104.13L113.37 180.83Z" fill="#C1A97E"/>
<path d="M252.33 25.25H99.0801V124.83H252.33V25.25Z" fill="white"/>
<path d="M98.9102 124.8L101.61 126.59H249.87L252.16 124.8H98.9102Z" fill="#EDEDED"/>
<path d="M254.36 119.65H99.25V130.14H254.36V119.65Z" fill="#C1A97E"/>
<path d="M259.44 131.15H94.3501L99.4201 125.57H254.36L259.44 131.15Z" fill="#DDC38E"/>
<path d="M259.44 131.15H94.3501V134.7H259.44V131.15Z" fill="#B29C74"/>
<path d="M256.73 25.26H96.8801V30.5H256.73V25.26Z" fill="#9E8A69"/>
<path d="M256.73 24.42H96.8801V29.66H256.73V24.42Z" fill="#C1A97E"/>
<path d="M107.13 115.87C107.26 116.01 107.19 116 107.25 116.17C107.36 116.44 107.46 116.67 107.63 116.91C107.85 117.22 108.01 117.46 108.02 117.85C108.05 119.46 110.55 119.46 110.52 117.85C110.51 117.11 110.31 116.36 109.88 115.75C109.84 115.7 109.55 115.28 109.67 115.51C109.6 115.37 109.57 115.2 109.51 115.06C109.36 114.69 109.16 114.41 108.9 114.11C108.45 113.6 107.59 113.65 107.13 114.11C106.63 114.61 106.68 115.37 107.13 115.88V115.87Z" fill="white"/>
<path d="M108.29 123.28C108.34 124 108.36 124.72 108.36 125.44C108.36 126.12 108.94 126.69 109.61 126.69C110.28 126.69 110.86 126.12 110.86 125.44C110.86 124.72 110.84 124 110.79 123.28C110.74 122.61 110.25 122.03 109.54 122.03C108.9 122.03 108.24 122.6 108.29 123.28Z" fill="white"/>
<path d="M105.54 114.83C105.54 114.83 105.83 115.31 105.9 115.97C105.97 116.63 105.83 116.1 105.9 116.07C105.97 116.04 107.28 116.55 107.22 117.85C107.16 119.15 107.42 126.31 107.42 126.31C107.42 126.31 109.79 126.18 110.4 125.86C111.01 125.54 110.72 117.29 110.72 117.29C110.72 117.29 110.72 115.89 109.46 115.67C109.46 115.67 109.42 114.76 108.96 114.58C108.5 114.4 107.49 115.1 105.55 114.83H105.54Z" fill="black"/>
<path d="M97.7602 128.7C97.7602 128.7 95.2002 130.78 104.42 130.57C113.63 130.36 111.61 128.7 111.61 128.7C111.61 128.7 104.3 127.23 97.9102 128.7" fill="#B29C74"/>
<path opacity="0.32" d="M98.9503 116.64C98.8803 116.66 98.8102 116.69 98.7502 116.74C98.4602 116.96 97.7603 117.63 97.7603 119.12V128.9C97.7603 129.15 97.9202 129.36 98.1702 129.43C98.9902 129.66 101.09 130.13 104.72 130.13C108.35 130.13 110.2 129.7 110.97 129.48C111.21 129.41 111.37 129.19 111.37 128.95V118.57C111.37 118.57 111.37 116.91 110.06 116.52C109.86 116.46 109.71 116.29 109.67 116.09C109.61 115.77 109.88 114.56 109.56 114.65C108.78 114.86 106.69 115.02 104.54 115.09C102.39 115.16 100.26 115.09 99.4402 114.92C99.1602 114.86 99.4602 116.01 99.3702 116.28C99.3202 116.44 99.2003 116.58 98.9603 116.64H98.9503Z" fill="#AAA9D3"/>
<path d="M98.5903 119.68V128.19C98.5903 128.51 98.7903 128.79 99.0903 128.89C99.9203 129.17 101.78 129.66 104.74 129.66C107.7 129.66 109.31 129.31 110.13 129.09C110.46 129 110.68 128.7 110.68 128.36L110.47 119.63C110.46 119.19 110.62 118.91 110.19 118.96C108.41 119.18 102.9 119.57 98.8902 118.96C98.7302 118.94 98.6402 118.96 98.6002 119.03C98.5302 119.15 98.6002 119.39 98.6002 119.68H98.5903Z" fill="#E4827A"/>
<path opacity="0.2" d="M106.3 115.41C106.18 115.41 106.24 116.53 106.5 116.78C106.76 117.03 107.61 117.49 107.63 118.52C107.65 119.55 107.82 130 107.82 130C107.82 130 110.12 129.75 110.67 129.55C111.22 129.35 111.36 129.55 111.36 128.19C111.36 126.83 111.36 118.79 111.36 118.79C111.36 118.79 111.26 116.75 110.05 116.51C110.05 116.51 109.6 116.42 109.67 115.67C109.74 114.92 109.63 114.69 109.63 114.69C109.63 114.69 109.56 115.42 106.3 115.4V115.41Z" fill="white"/>
<path d="M99.2301 120.54C101.16 120.95 105.41 121.5 109.9 120.51C110.46 120.39 110.99 120.84 110.99 121.45V124.66C110.99 125.14 110.65 125.55 110.2 125.61C108.12 125.9 102.39 126.56 98.8301 125.61C98.4301 125.5 98.1401 125.12 98.1401 124.68V121.48C98.1401 120.87 98.6601 120.42 99.2301 120.54Z" fill="#C1B4A3"/>
<mask id="mask0_0_1" style="mask-type:luminance" maskUnits="userSpaceOnUse" x="98" y="120" width="13" height="7">
<path d="M99.2301 120.54C101.16 120.95 105.41 121.5 109.9 120.51C110.46 120.39 110.99 120.84 110.99 121.45V124.66C110.99 125.14 110.65 125.55 110.2 125.61C108.12 125.9 102.39 126.56 98.8301 125.61C98.4301 125.5 98.1401 125.12 98.1401 124.68V121.48C98.1401 120.87 98.6601 120.42 99.2301 120.54Z" fill="white"/>
</mask>
<g mask="url(#mask0_0_1)">
<path d="M106.88 120.53C106.84 120.81 108.03 125.68 106.7 126.83C106.7 126.83 112.91 127.7 112.93 127.51C112.95 127.32 113.97 122.05 112.98 120.61C111.99 119.17 106.88 120.5 106.88 120.52V120.53Z" fill="#CEC0B2"/>
<path opacity="0.09" d="M111.07 123.12C111.07 123.12 103.34 126.09 97.9902 125.05L98.8802 126.24C98.8802 126.24 106.16 127.58 108.54 126.69C110.92 125.8 111.07 125.65 111.07 125.65L110.99 123.04L111.07 123.12Z" fill="#262320"/>
</g>
<path d="M98.7302 118.96C98.7302 118.96 100.43 118.54 104.71 118.53C108.99 118.52 110.33 118.96 110.33 118.96C110.33 118.96 102.75 120 98.7402 118.96H98.7302Z" fill="#FFA39C"/>
<path opacity="0.32" d="M109.64 114.92C109.77 114.89 109.76 114.72 109.63 114.7C108.89 114.61 107.38 114.49 104.68 114.49C101.68 114.39 100.12 114.78 99.4202 114.95C99.2902 114.98 99.3002 115.15 99.4202 115.17C100.38 115.32 102.67 115.49 104.67 115.49C106.67 115.49 108.64 115.12 109.63 114.92H109.64Z" fill="#A1A1C6"/>
<path opacity="0.32" d="M99.3303 115.69C99.3303 115.69 100.22 116.73 104.38 116.73C104.38 116.73 102 116.92 100.81 116.58C98.9203 116.04 99.3203 115.69 99.3203 115.69H99.3303Z" fill="#AAA9D3"/>
<path opacity="0.32" d="M109.7 114.94C109.7 114.94 108.81 115.98 104.65 115.98C104.65 115.98 107.03 116.17 108.22 115.83C110.11 115.29 109.71 114.94 109.71 114.94H109.7Z" fill="#AAA9D3"/>
<path d="M113.11 126.53C113.11 126.53 110.55 128.61 119.77 128.4C128.98 128.19 126.96 126.53 126.96 126.53C126.96 126.53 119.65 125.06 113.26 126.53" fill="#B29C74"/>
<path opacity="0.32" d="M113.75 114.18C113.68 114.2 113.61 114.23 113.55 114.28C113.26 114.5 112.56 115.17 112.56 116.66V126.44C112.56 126.69 112.72 126.9 112.97 126.97C113.79 127.2 115.89 127.67 119.52 127.67C123.15 127.67 125 127.24 125.77 127.02C126.01 126.95 126.17 126.73 126.17 126.49V116.11C126.17 116.11 126.17 114.45 124.86 114.06C124.66 114 124.51 113.83 124.47 113.63C124.41 113.31 124.68 112.1 124.36 112.19C123.58 112.4 121.49 112.56 119.34 112.63C117.19 112.7 115.06 112.63 114.24 112.46C113.96 112.4 114.26 113.55 114.17 113.82C114.12 113.98 114 114.12 113.76 114.18H113.75Z" fill="#AAA9D3"/>
<path d="M113.39 117.22V125.73C113.39 126.05 113.59 126.33 113.89 126.43C114.72 126.71 116.58 127.2 119.54 127.2C122.5 127.2 124.11 126.85 124.93 126.63C125.26 126.54 125.48 126.24 125.48 125.9L125.27 117.17C125.26 116.73 125.42 116.45 124.99 116.5C123.21 116.72 117.7 117.11 113.69 116.5C113.53 116.48 113.44 116.5 113.4 116.57C113.33 116.69 113.4 116.93 113.4 117.22H113.39Z" fill="#9EE6B3"/>
<path opacity="0.2" d="M121.1 112.95C120.98 112.95 121.04 114.07 121.3 114.32C121.56 114.57 122.41 115.03 122.43 116.06C122.45 117.09 122.62 127.54 122.62 127.54C122.62 127.54 124.92 127.29 125.47 127.09C126.02 126.89 126.16 127.09 126.16 125.73C126.16 124.37 126.16 116.33 126.16 116.33C126.16 116.33 126.06 114.29 124.85 114.05C124.85 114.05 124.4 113.96 124.47 113.21C124.54 112.46 124.43 112.23 124.43 112.23C124.43 112.23 124.36 112.96 121.1 112.94V112.95Z" fill="white"/>
<path d="M114.03 118.08C115.96 118.49 120.21 119.04 124.7 118.05C125.26 117.93 125.79 118.38 125.79 118.99V122.2C125.79 122.68 125.45 123.09 125 123.15C122.92 123.44 117.19 124.1 113.63 123.15C113.23 123.04 112.94 122.66 112.94 122.22V119.02C112.94 118.41 113.46 117.96 114.03 118.08Z" fill="#C1B4A3"/>
<mask id="mask1_0_1" style="mask-type:luminance" maskUnits="userSpaceOnUse" x="112" y="118" width="14" height="6">
<path d="M114.03 118.08C115.96 118.49 120.21 119.04 124.7 118.05C125.26 117.93 125.79 118.38 125.79 118.99V122.2C125.79 122.68 125.45 123.09 125 123.15C122.92 123.44 117.19 124.1 113.63 123.15C113.23 123.04 112.94 122.66 112.94 122.22V119.02C112.94 118.41 113.46 117.96 114.03 118.08Z" fill="white"/>
</mask>
<g mask="url(#mask1_0_1)">
<path d="M121.68 118.07C121.64 118.35 122.83 123.22 121.5 124.37C121.5 124.37 127.71 125.24 127.73 125.05C127.75 124.86 128.77 119.59 127.78 118.15C126.79 116.71 121.68 118.04 121.68 118.06V118.07Z" fill="#CEC0B2"/>
<path opacity="0.09" d="M125.87 120.66C125.87 120.66 118.14 123.63 112.79 122.59L113.68 123.78C113.68 123.78 120.96 125.12 123.34 124.23C125.72 123.34 125.87 123.19 125.87 123.19L125.79 120.58L125.87 120.66Z" fill="#262320"/>
</g>
<path d="M113.54 116.5C113.54 116.5 115.24 116.08 119.52 116.07C123.8 116.06 125.14 116.5 125.14 116.5C125.14 116.5 117.56 117.54 113.55 116.5H113.54Z" fill="#B3FFC7"/>
<path opacity="0.32" d="M124.44 112.46C124.57 112.43 124.56 112.26 124.43 112.24C123.69 112.15 122.18 112.03 119.48 112.03C116.48 111.93 114.92 112.32 114.22 112.49C114.09 112.52 114.1 112.69 114.22 112.71C115.18 112.86 117.47 113.03 119.47 113.03C121.47 113.03 123.44 112.66 124.43 112.46H124.44Z" fill="#A1A1C6"/>
<path opacity="0.32" d="M114.13 113.23C114.13 113.23 115.02 114.27 119.18 114.27C119.18 114.27 116.8 114.46 115.61 114.12C113.72 113.58 114.12 113.23 114.12 113.23H114.13Z" fill="#AAA9D3"/>
<path opacity="0.32" d="M124.5 112.48C124.5 112.48 123.61 113.52 119.45 113.52C119.45 113.52 121.83 113.71 123.02 113.37C124.91 112.83 124.51 112.48 124.51 112.48H124.5Z" fill="#AAA9D3"/>
<path d="M127.83 128.68C127.83 128.68 125.27 130.76 134.49 130.55C143.7 130.34 141.68 128.68 141.68 128.68C141.68 128.68 134.37 127.21 127.98 128.68" fill="#B29C74"/>
<path opacity="0.32" d="M128.58 116.62C128.51 116.64 128.44 116.67 128.38 116.72C128.09 116.94 127.39 117.61 127.39 119.1V128.88C127.39 129.13 127.55 129.34 127.8 129.41C128.62 129.64 130.72 130.11 134.35 130.11C137.98 130.11 139.83 129.68 140.6 129.46C140.84 129.39 141 129.17 141 128.93V118.55C141 118.55 141 116.89 139.69 116.5C139.49 116.44 139.34 116.27 139.3 116.07C139.24 115.75 139.51 114.54 139.19 114.63C138.41 114.84 136.32 115 134.17 115.07C132.05 115.13 129.89 115.07 129.07 114.9C128.79 114.84 129.09 115.99 129 116.26C128.95 116.42 128.83 116.56 128.59 116.62H128.58Z" fill="#AAA9D3"/>
<path d="M128.21 119.66V128.17C128.21 128.49 128.41 128.77 128.71 128.87C129.54 129.15 131.4 129.64 134.36 129.64C137.32 129.64 138.93 129.29 139.75 129.07C140.08 128.98 140.3 128.68 140.3 128.34L140.09 119.61C140.08 119.17 140.24 118.89 139.81 118.94C138.03 119.16 132.52 119.55 128.51 118.94C128.35 118.92 128.26 118.94 128.22 119.01C128.15 119.13 128.22 119.37 128.22 119.66H128.21Z" fill="#F9E96D"/>
<path opacity="0.2" d="M135.92 115.39C135.8 115.39 135.86 116.51 136.12 116.76C136.38 117.01 137.23 117.47 137.25 118.5C137.27 119.53 137.44 129.98 137.44 129.98C137.44 129.98 139.74 129.73 140.29 129.53C140.84 129.33 140.98 129.53 140.98 128.17C140.98 126.81 140.98 118.77 140.98 118.77C140.98 118.77 140.88 116.73 139.67 116.49C139.67 116.49 139.22 116.4 139.29 115.65C139.36 114.9 139.25 114.67 139.25 114.67C139.25 114.67 139.18 115.4 135.92 115.38V115.39Z" fill="white"/>
<path d="M128.85 120.52C130.78 120.93 135.03 121.48 139.52 120.49C140.08 120.37 140.61 120.82 140.61 121.43V124.64C140.61 125.12 140.27 125.53 139.82 125.59C137.74 125.88 132.01 126.54 128.45 125.59C128.05 125.48 127.76 125.1 127.76 124.66V121.46C127.76 120.85 128.28 120.4 128.85 120.52Z" fill="#C1B4A3"/>
<mask id="mask2_0_1" style="mask-type:luminance" maskUnits="userSpaceOnUse" x="127" y="120" width="14" height="7">
<path d="M128.85 120.52C130.78 120.93 135.03 121.48 139.52 120.49C140.08 120.37 140.61 120.82 140.61 121.43V124.64C140.61 125.12 140.27 125.53 139.82 125.59C137.74 125.88 132.01 126.54 128.45 125.59C128.05 125.48 127.76 125.1 127.76 124.66V121.46C127.76 120.85 128.28 120.4 128.85 120.52Z" fill="white"/>
</mask>
<g mask="url(#mask2_0_1)">
<path d="M136.51 120.51C136.47 120.79 137.66 125.66 136.33 126.81C136.33 126.81 142.54 127.68 142.56 127.49C142.58 127.3 143.6 122.03 142.61 120.59C141.62 119.15 136.51 120.48 136.51 120.5V120.51Z" fill="#CEC0B2"/>
<path opacity="0.09" d="M140.69 123.1C140.69 123.1 132.96 126.07 127.61 125.03L128.5 126.22C128.5 126.22 135.78 127.56 138.16 126.67C140.54 125.78 140.69 125.63 140.69 125.63L140.61 123.02L140.69 123.1Z" fill="#262320"/>
</g>
<path d="M128.36 118.94C128.36 118.94 130.06 118.52 134.34 118.51C138.77 118.5 139.96 118.94 139.96 118.94C139.96 118.94 132.38 119.98 128.37 118.94H128.36Z" fill="#FFF097"/>
<path opacity="0.32" d="M139.26 114.9C139.39 114.87 139.38 114.7 139.25 114.68C138.51 114.59 137 114.47 134.3 114.47C131.3 114.37 129.74 114.76 129.04 114.93C128.91 114.96 128.92 115.13 129.04 115.15C130 115.3 132.29 115.47 134.29 115.47C136.29 115.47 138.26 115.1 139.25 114.9H139.26Z" fill="#A1A1C6"/>
<path opacity="0.32" d="M128.95 115.67C128.95 115.67 129.84 116.71 134 116.71C134 116.71 131.62 116.9 130.43 116.56C128.54 116.02 128.94 115.67 128.94 115.67H128.95Z" fill="#AAA9D3"/>
<path opacity="0.32" d="M139.32 114.92C139.32 114.92 138.43 115.96 134.27 115.96C134.27 115.96 136.65 116.15 137.84 115.81C139.73 115.27 139.33 114.92 139.33 114.92H139.32Z" fill="#AAA9D3"/>
<path d="M157.75 128.49C157.75 128.49 155.19 130.57 164.41 130.36C173.63 130.15 171.6 128.49 171.6 128.49C171.6 128.49 164.29 127.02 157.9 128.49" fill="#B29C74"/>
<path opacity="0.32" d="M158.5 116.43C158.43 116.45 158.36 116.48 158.3 116.53C158.01 116.75 157.31 117.42 157.31 118.91V128.69C157.31 128.94 157.47 129.15 157.72 129.22C158.54 129.45 160.64 129.92 164.27 129.92C167.9 129.92 169.75 129.49 170.52 129.27C170.76 129.2 170.92 128.98 170.92 128.74V118.36C170.92 118.36 170.92 116.7 169.61 116.31C169.41 116.25 169.26 116.08 169.22 115.88C169.16 115.56 169.43 114.35 169.11 114.44C168.33 114.65 166.24 114.81 164.09 114.88C161.94 114.95 159.81 114.88 158.99 114.71C158.71 114.65 159.01 115.8 158.92 116.07C158.87 116.23 158.75 116.37 158.51 116.43H158.5Z" fill="#AAA9D3"/>
<path d="M158.13 119.47V127.98C158.13 128.3 158.33 128.58 158.63 128.68C159.46 128.96 161.32 129.45 164.28 129.45C167.24 129.45 168.85 129.1 169.67 128.88C170 128.79 170.22 128.49 170.22 128.15L170.01 119.42C170 118.98 170.16 118.7 169.73 118.75C167.95 118.97 162.44 119.36 158.43 118.75C158.27 118.73 158.18 118.75 158.14 118.82C158.07 118.94 158.14 119.18 158.14 119.47H158.13Z" fill="#ABE0FE"/>
<path opacity="0.2" d="M165.84 115.2C165.72 115.2 165.78 116.32 166.04 116.57C166.3 116.82 167.15 117.28 167.17 118.31C167.19 119.34 167.36 129.79 167.36 129.79C167.36 129.79 169.66 129.54 170.21 129.34C170.76 129.14 170.9 129.34 170.9 127.98C170.9 126.62 170.9 118.58 170.9 118.58C170.9 118.58 170.8 116.54 169.59 116.3C169.59 116.3 169.14 116.21 169.21 115.46C169.28 114.71 169.17 114.48 169.17 114.48C169.17 114.48 169.1 115.21 165.84 115.19V115.2Z" fill="white"/>
<path d="M158.77 120.33C160.7 120.74 164.95 121.29 169.44 120.3C170 120.18 170.53 120.63 170.53 121.24V124.45C170.53 124.93 170.19 125.34 169.74 125.4C167.66 125.69 161.93 126.35 158.37 125.4C157.97 125.29 157.68 124.91 157.68 124.47V121.27C157.68 120.66 158.2 120.21 158.77 120.33Z" fill="#C1B4A3"/>
<mask id="mask3_0_1" style="mask-type:luminance" maskUnits="userSpaceOnUse" x="157" y="120" width="14" height="6">
<path d="M158.77 120.33C160.7 120.74 164.95 121.29 169.44 120.3C170 120.18 170.53 120.63 170.53 121.24V124.45C170.53 124.93 170.19 125.34 169.74 125.4C167.66 125.69 161.93 126.35 158.37 125.4C157.97 125.29 157.68 124.91 157.68 124.47V121.27C157.68 120.66 158.2 120.21 158.77 120.33Z" fill="white"/>
</mask>
<g mask="url(#mask3_0_1)">
<path d="M166.43 120.32C166.39 120.6 167.58 125.47 166.25 126.62C166.25 126.62 172.46 127.49 172.48 127.3C172.5 127.11 173.52 121.84 172.53 120.4C171.54 118.96 166.43 120.29 166.43 120.31V120.32Z" fill="#CEC0B2"/>
<path opacity="0.09" d="M170.61 122.91C170.61 122.91 162.88 125.88 157.53 124.84L158.42 126.03C158.42 126.03 165.7 127.37 168.08 126.48C170.46 125.59 170.61 125.44 170.61 125.44L170.53 122.83L170.61 122.91Z" fill="#262320"/>
</g>
<path d="M158.28 118.75C158.28 118.75 159.98 118.33 164.26 118.32C168.54 118.31 169.88 118.75 169.88 118.75C169.88 118.75 162.3 119.79 158.29 118.75H158.28Z" fill="#D0EAFC"/>
<path opacity="0.32" d="M169.18 114.71C169.31 114.68 169.3 114.51 169.17 114.49C168.43 114.4 166.92 114.28 164.22 114.28C161.22 114.18 159.66 114.57 158.96 114.74C158.83 114.77 158.84 114.94 158.96 114.96C159.92 115.11 162.21 115.28 164.21 115.28C166.21 115.28 168.18 114.91 169.17 114.71H169.18Z" fill="#A1A1C6"/>
<path opacity="0.32" d="M158.87 115.48C158.87 115.48 159.76 116.52 163.92 116.52C163.92 116.52 161.54 116.71 160.35 116.37C158.46 115.83 158.86 115.48 158.86 115.48H158.87Z" fill="#AAA9D3"/>
<path opacity="0.32" d="M169.24 114.73C169.24 114.73 168.35 115.77 164.19 115.77C164.19 115.77 166.57 115.96 167.76 115.62C169.65 115.08 169.25 114.73 169.25 114.73H169.24Z" fill="#AAA9D3"/>
<path d="M202.28 126.56C202.28 126.56 199.72 128.64 208.94 128.43C218.15 128.22 216.13 126.56 216.13 126.56C216.13 126.56 208.82 125.09 202.43 126.56" fill="#B29C74"/>
<path opacity="0.32" d="M203.03 114.51C202.96 114.53 202.89 114.56 202.83 114.61C202.54 114.83 201.84 115.5 201.84 116.99V126.77C201.84 127.02 202 127.23 202.25 127.3C203.07 127.53 205.17 128 208.8 128C212.43 128 214.28 127.57 215.05 127.35C215.29 127.28 215.45 127.06 215.45 126.82V116.44C215.45 116.44 215.45 114.78 214.14 114.39C213.94 114.33 213.79 114.16 213.75 113.96C213.69 113.64 213.96 112.43 213.64 112.52C212.86 112.73 210.77 112.89 208.62 112.96C206.47 113.03 204.34 112.96 203.52 112.79C203.24 112.73 203.54 113.88 203.45 114.15C203.4 114.31 203.28 114.45 203.04 114.51H203.03Z" fill="#AAA9D3"/>
<path d="M202.66 117.54V126.05C202.66 126.37 202.86 126.65 203.16 126.75C203.99 127.03 205.85 127.52 208.81 127.52C211.77 127.52 213.38 127.17 214.2 126.95C214.53 126.86 214.75 126.56 214.75 126.22L214.54 117.49C214.53 117.05 214.69 116.77 214.26 116.82C212.48 117.04 206.97 117.43 202.96 116.82C202.8 116.8 202.71 116.82 202.67 116.89C202.6 117.01 202.67 117.25 202.67 117.54H202.66Z" fill="#F4F4F4"/>
<path opacity="0.2" d="M210.37 113.28C210.25 113.28 210.31 114.4 210.57 114.65C210.83 114.9 211.68 115.36 211.7 116.39C211.72 117.42 211.89 127.87 211.89 127.87C211.89 127.87 214.19 127.62 214.74 127.42C215.29 127.22 215.43 127.42 215.43 126.06C215.43 124.7 215.43 116.66 215.43 116.66C215.43 116.66 215.33 114.62 214.12 114.38C214.12 114.38 213.67 114.29 213.74 113.54C213.81 112.79 213.7 112.56 213.7 112.56C213.7 112.56 213.63 113.29 210.37 113.27V113.28Z" fill="white"/>
<path d="M203.3 118.41C205.23 118.82 209.48 119.37 213.97 118.38C214.53 118.26 215.06 118.71 215.06 119.32V122.53C215.06 123.01 214.72 123.42 214.27 123.48C212.19 123.77 206.46 124.43 202.9 123.48C202.5 123.37 202.21 122.99 202.21 122.55V119.35C202.21 118.74 202.73 118.29 203.3 118.41Z" fill="#C1B4A3"/>
<mask id="mask4_0_1" style="mask-type:luminance" maskUnits="userSpaceOnUse" x="202" y="118" width="14" height="6">
<path d="M203.3 118.41C205.23 118.82 209.48 119.37 213.97 118.38C214.53 118.26 215.06 118.71 215.06 119.32V122.53C215.06 123.01 214.72 123.42 214.27 123.48C212.19 123.77 206.46 124.43 202.9 123.48C202.5 123.37 202.21 122.99 202.21 122.55V119.35C202.21 118.74 202.73 118.29 203.3 118.41Z" fill="white"/>
</mask>
<g mask="url(#mask4_0_1)">
<path d="M210.96 118.39C210.92 118.67 212.11 123.54 210.78 124.69C210.78 124.69 216.99 125.56 217.01 125.37C217.03 125.18 218.05 119.91 217.06 118.47C216.07 117.03 210.96 118.36 210.96 118.38V118.39Z" fill="#CEC0B2"/>
<path opacity="0.09" d="M215.14 120.99C215.14 120.99 207.41 123.96 202.06 122.92L202.95 124.11C202.95 124.11 210.23 125.45 212.61 124.56C214.99 123.67 215.14 123.52 215.14 123.52L215.06 120.91L215.14 120.99Z" fill="#262320"/>
</g>
<path d="M202.81 116.82C202.81 116.82 204.51 116.4 208.79 116.39C213.22 116.38 214.41 116.82 214.41 116.82C214.41 116.82 206.83 117.86 202.82 116.82H202.81Z" fill="white"/>
<path opacity="0.32" d="M213.71 112.79C213.84 112.76 213.83 112.59 213.7 112.57C212.96 112.48 211.45 112.36 208.75 112.36C205.75 112.26 204.19 112.65 203.49 112.82C203.36 112.85 203.37 113.02 203.49 113.04C204.45 113.19 206.74 113.36 208.74 113.36C210.74 113.36 212.71 112.99 213.7 112.79H213.71Z" fill="#A1A1C6"/>
<path opacity="0.32" d="M203.4 113.55C203.4 113.55 204.29 114.59 208.45 114.59C208.45 114.59 206.07 114.78 204.88 114.44C202.99 113.9 203.39 113.55 203.39 113.55H203.4Z" fill="#AAA9D3"/>
<path opacity="0.32" d="M213.77 112.81C213.77 112.81 212.88 113.85 208.72 113.85C208.72 113.85 211.1 114.04 212.29 113.7C214.18 113.16 213.78 112.81 213.78 112.81H213.77Z" fill="#AAA9D3"/>
<path d="M217.27 128.69C217.27 128.69 214.71 130.77 223.93 130.56C233.14 130.35 231.12 128.69 231.12 128.69C231.12 128.69 223.81 127.22 217.42 128.69" fill="#B29C74"/>
<path opacity="0.32" d="M218.02 116.63C217.95 116.65 217.88 116.68 217.82 116.73C217.53 116.95 216.83 117.62 216.83 119.11V128.89C216.83 129.14 216.99 129.35 217.24 129.42C218.06 129.65 220.16 130.12 223.79 130.12C227.42 130.12 229.27 129.69 230.04 129.47C230.28 129.4 230.44 129.18 230.44 128.94V118.56C230.44 118.56 230.44 116.9 229.13 116.51C228.93 116.45 228.78 116.28 228.74 116.08C228.68 115.76 228.95 114.55 228.63 114.64C227.85 114.85 225.76 115.01 223.61 115.08C221.49 115.14 219.33 115.08 218.51 114.91C218.23 114.85 218.53 116 218.44 116.27C218.39 116.43 218.27 116.57 218.03 116.63H218.02Z" fill="#AAA9D3"/>
<path d="M217.65 119.67V128.18C217.65 128.5 217.85 128.78 218.15 128.88C218.98 129.16 220.84 129.65 223.8 129.65C226.76 129.65 228.37 129.3 229.19 129.08C229.52 128.99 229.74 128.69 229.74 128.35L229.53 119.62C229.52 119.18 229.68 118.9 229.25 118.95C227.47 119.17 221.96 119.56 217.95 118.95C217.79 118.93 217.7 118.95 217.66 119.02C217.59 119.14 217.66 119.38 217.66 119.67H217.65Z" fill="#595959"/>
<path opacity="0.2" d="M225.36 115.41C225.24 115.41 225.3 116.53 225.56 116.78C225.82 117.03 226.67 117.49 226.69 118.52C226.71 119.55 226.88 130 226.88 130C226.88 130 229.18 129.75 229.73 129.55C230.28 129.35 230.42 129.55 230.42 128.19C230.42 126.83 230.42 118.79 230.42 118.79C230.42 118.79 230.32 116.75 229.11 116.51C229.11 116.51 228.66 116.42 228.73 115.67C228.8 114.92 228.69 114.69 228.69 114.69C228.69 114.69 228.62 115.42 225.36 115.4V115.41Z" fill="white"/>
<path d="M218.29 120.54C220.22 120.95 224.47 121.5 228.96 120.51C229.52 120.39 230.05 120.84 230.05 121.45V124.66C230.05 125.14 229.71 125.55 229.26 125.61C227.18 125.9 221.45 126.56 217.89 125.61C217.49 125.5 217.2 125.12 217.2 124.68V121.48C217.2 120.87 217.72 120.42 218.29 120.54Z" fill="#C1B4A3"/>
<mask id="mask5_0_1" style="mask-type:luminance" maskUnits="userSpaceOnUse" x="217" y="120" width="14" height="7">
<path d="M218.29 120.54C220.22 120.95 224.47 121.5 228.96 120.51C229.52 120.39 230.05 120.84 230.05 121.45V124.66C230.05 125.14 229.71 125.55 229.26 125.61C227.18 125.9 221.45 126.56 217.89 125.61C217.49 125.5 217.2 125.12 217.2 124.68V121.48C217.2 120.87 217.72 120.42 218.29 120.54Z" fill="white"/>
</mask>
<g mask="url(#mask5_0_1)">
<path d="M225.95 120.52C225.91 120.8 227.1 125.67 225.77 126.82C225.77 126.82 231.98 127.69 232 127.5C232.02 127.31 233.04 122.04 232.05 120.6C231.06 119.16 225.95 120.49 225.95 120.51V120.52Z" fill="#CEC0B2"/>
<path opacity="0.09" d="M230.13 123.11C230.13 123.11 222.4 126.08 217.05 125.04L217.94 126.23C217.94 126.23 225.22 127.57 227.6 126.68C229.98 125.79 230.13 125.64 230.13 125.64L230.05 123.03L230.13 123.11Z" fill="#262320"/>
</g>
<path d="M217.8 118.95C217.8 118.95 219.5 118.53 223.78 118.52C228.21 118.51 229.4 118.95 229.4 118.95C229.4 118.95 221.82 119.99 217.81 118.95H217.8Z" fill="#686868"/>
<path opacity="0.32" d="M228.7 114.92C228.83 114.89 228.82 114.72 228.69 114.7C227.95 114.61 226.44 114.49 223.74 114.49C220.74 114.39 219.18 114.78 218.48 114.95C218.35 114.98 218.36 115.15 218.48 115.17C219.44 115.32 221.73 115.49 223.73 115.49C225.73 115.49 227.7 115.12 228.69 114.92H228.7Z" fill="#A1A1C6"/>
<path opacity="0.32" d="M218.39 115.68C218.39 115.68 219.28 116.72 223.44 116.72C223.44 116.72 221.06 116.91 219.87 116.57C217.98 116.03 218.38 115.68 218.38 115.68H218.39Z" fill="#AAA9D3"/>
<path opacity="0.32" d="M228.76 114.94C228.76 114.94 227.87 115.98 223.71 115.98C223.71 115.98 226.09 116.17 227.28 115.83C229.17 115.29 228.77 114.94 228.77 114.94H228.76Z" fill="#AAA9D3"/>
<path d="M143.04 126.37C143.04 126.37 140.48 128.45 149.7 128.24C158.91 128.03 156.89 126.37 156.89 126.37C156.89 126.37 149.58 124.9 143.19 126.37" fill="#B29C74"/>
<path opacity="0.32" d="M143.78 114.31C143.71 114.33 143.64 114.36 143.58 114.41C143.29 114.63 142.59 115.3 142.59 116.79V126.57C142.59 126.82 142.75 127.03 143 127.1C143.82 127.33 145.92 127.8 149.55 127.8C153.18 127.8 155.03 127.37 155.8 127.15C156.04 127.08 156.2 126.86 156.2 126.62V116.24C156.2 116.24 156.2 114.58 154.89 114.19C154.69 114.13 154.54 113.96 154.5 113.76C154.44 113.44 154.71 112.23 154.39 112.32C153.61 112.53 151.52 112.69 149.37 112.76C147.22 112.83 145.09 112.76 144.27 112.59C143.99 112.53 144.29 113.68 144.2 113.95C144.15 114.11 144.03 114.25 143.79 114.31H143.78Z" fill="#AAA9D3"/>
<path d="M143.42 117.34V125.85C143.42 126.17 143.62 126.45 143.92 126.55C144.75 126.83 146.61 127.32 149.57 127.32C152.53 127.32 154.14 126.97 154.96 126.75C155.29 126.66 155.51 126.36 155.51 126.02L155.3 117.29C155.29 116.85 155.45 116.57 155.02 116.62C153.24 116.84 147.73 117.23 143.72 116.62C143.56 116.6 143.47 116.62 143.43 116.69C143.36 116.81 143.43 117.05 143.43 117.34H143.42Z" fill="#DFA6F4"/>
<path opacity="0.2" d="M151.13 113.08C151.01 113.08 151.07 114.2 151.33 114.45C151.59 114.7 152.44 115.16 152.46 116.19C152.48 117.22 152.65 127.67 152.65 127.67C152.65 127.67 154.95 127.42 155.5 127.22C156.05 127.02 156.19 127.22 156.19 125.86C156.19 124.5 156.19 116.46 156.19 116.46C156.19 116.46 156.09 114.42 154.88 114.18C154.88 114.18 154.43 114.09 154.5 113.34C154.57 112.59 154.46 112.36 154.46 112.36C154.46 112.36 154.39 113.09 151.13 113.07V113.08Z" fill="white"/>
<path d="M144.06 118.21C145.99 118.62 150.24 119.17 154.73 118.18C155.29 118.06 155.82 118.51 155.82 119.12V122.33C155.82 122.81 155.48 123.22 155.03 123.28C152.95 123.57 147.22 124.23 143.66 123.28C143.26 123.17 142.97 122.79 142.97 122.35V119.15C142.97 118.54 143.49 118.09 144.06 118.21Z" fill="#C1B4A3"/>
<mask id="mask6_0_1" style="mask-type:luminance" maskUnits="userSpaceOnUse" x="142" y="118" width="14" height="6">
<path d="M144.06 118.21C145.99 118.62 150.24 119.17 154.73 118.18C155.29 118.06 155.82 118.51 155.82 119.12V122.33C155.82 122.81 155.48 123.22 155.03 123.28C152.95 123.57 147.22 124.23 143.66 123.28C143.26 123.17 142.97 122.79 142.97 122.35V119.15C142.97 118.54 143.49 118.09 144.06 118.21Z" fill="white"/>
</mask>
<g mask="url(#mask6_0_1)">
<path d="M151.71 118.19C151.67 118.47 152.86 123.34 151.53 124.49C151.53 124.49 157.74 125.36 157.76 125.17C157.78 124.98 158.8 119.71 157.81 118.27C156.82 116.83 151.71 118.16 151.71 118.18V118.19Z" fill="#CEC0B2"/>
<path opacity="0.09" d="M155.9 120.79C155.9 120.79 148.17 123.76 142.82 122.72L143.71 123.91C143.71 123.91 150.99 125.25 153.37 124.36C155.75 123.47 155.9 123.32 155.9 123.32L155.82 120.71L155.9 120.79Z" fill="#262320"/>
</g>
<path d="M143.56 116.62C143.56 116.62 145.26 116.2 149.54 116.19C153.97 116.18 155.16 116.62 155.16 116.62C155.16 116.62 147.58 117.66 143.57 116.62H143.56Z" fill="#EEC5FF"/>
<path opacity="0.32" d="M154.47 112.59C154.6 112.56 154.59 112.39 154.46 112.37C153.72 112.28 152.21 112.16 149.51 112.16C146.51 112.06 144.95 112.45 144.25 112.62C144.12 112.65 144.13 112.82 144.25 112.84C145.21 112.99 147.5 113.16 149.5 113.16C151.5 113.16 153.47 112.79 154.46 112.59H154.47Z" fill="#A1A1C6"/>
<path opacity="0.32" d="M144.16 113.35C144.16 113.35 145.05 114.39 149.21 114.39C149.21 114.39 146.83 114.58 145.64 114.24C143.75 113.7 144.15 113.35 144.15 113.35H144.16Z" fill="#AAA9D3"/>
<path opacity="0.32" d="M154.53 112.61C154.53 112.61 153.64 113.65 149.48 113.65C149.48 113.65 151.86 113.84 153.05 113.5C154.94 112.96 154.54 112.61 154.54 112.61H154.53Z" fill="#AAA9D3"/>
<path d="M187.27 128.67C187.27 128.67 184.71 130.75 193.93 130.54C203.14 130.33 201.12 128.67 201.12 128.67C201.12 128.67 193.81 127.2 187.42 128.67" fill="#B29C74"/>
<path opacity="0.32" d="M188.01 116.61C187.94 116.63 187.87 116.66 187.81 116.71C187.52 116.93 186.82 117.6 186.82 119.09V128.87C186.82 129.12 186.98 129.33 187.23 129.4C188.05 129.63 190.15 130.1 193.78 130.1C197.41 130.1 199.26 129.67 200.03 129.45C200.27 129.38 200.43 129.16 200.43 128.92V118.54C200.43 118.54 200.43 116.88 199.12 116.49C198.92 116.43 198.77 116.26 198.73 116.06C198.67 115.74 198.94 114.53 198.62 114.62C197.84 114.83 195.75 114.99 193.6 115.06C191.45 115.13 189.32 115.06 188.5 114.89C188.22 114.83 188.52 115.98 188.43 116.25C188.38 116.41 188.26 116.55 188.02 116.61H188.01Z" fill="#AAA9D3"/>
<path d="M187.65 119.65V128.16C187.65 128.48 187.85 128.76 188.15 128.86C188.98 129.14 190.84 129.63 193.8 129.63C196.76 129.63 198.37 129.28 199.19 129.06C199.52 128.97 199.74 128.67 199.74 128.33L199.53 119.6C199.52 119.16 199.68 118.88 199.25 118.93C197.47 119.15 191.96 119.54 187.95 118.93C187.79 118.91 187.7 118.93 187.66 119C187.59 119.12 187.66 119.36 187.66 119.65H187.65Z" fill="#C68D67"/>
<path opacity="0.2" d="M195.36 115.39C195.24 115.39 195.3 116.51 195.56 116.76C195.82 117.01 196.67 117.47 196.69 118.5C196.71 119.53 196.88 129.98 196.88 129.98C196.88 129.98 199.18 129.73 199.73 129.53C200.28 129.33 200.42 129.53 200.42 128.17C200.42 126.81 200.42 118.77 200.42 118.77C200.42 118.77 200.32 116.73 199.11 116.49C199.11 116.49 198.66 116.4 198.73 115.65C198.8 114.9 198.69 114.67 198.69 114.67C198.69 114.67 198.62 115.4 195.36 115.38V115.39Z" fill="white"/>
<path d="M188.29 120.52C190.22 120.93 194.47 121.48 198.96 120.49C199.52 120.37 200.05 120.82 200.05 121.43V124.64C200.05 125.12 199.71 125.53 199.26 125.59C197.18 125.88 191.45 126.54 187.89 125.59C187.49 125.48 187.2 125.1 187.2 124.66V121.46C187.2 120.85 187.72 120.4 188.29 120.52Z" fill="#C1B4A3"/>
<mask id="mask7_0_1" style="mask-type:luminance" maskUnits="userSpaceOnUse" x="187" y="120" width="14" height="7">
<path d="M188.29 120.52C190.22 120.93 194.47 121.48 198.96 120.49C199.52 120.37 200.05 120.82 200.05 121.43V124.64C200.05 125.12 199.71 125.53 199.26 125.59C197.18 125.88 191.45 126.54 187.89 125.59C187.49 125.48 187.2 125.1 187.2 124.66V121.46C187.2 120.85 187.72 120.4 188.29 120.52Z" fill="white"/>
</mask>
<g mask="url(#mask7_0_1)">
<path d="M195.94 120.5C195.9 120.78 197.09 125.65 195.76 126.8C195.76 126.8 201.97 127.67 201.99 127.48C202.01 127.29 203.03 122.02 202.04 120.58C201.05 119.14 195.94 120.47 195.94 120.49V120.5Z" fill="#CEC0B2"/>
<path opacity="0.09" d="M200.13 123.09C200.13 123.09 192.4 126.06 187.05 125.02L187.94 126.21C187.94 126.21 195.22 127.55 197.6 126.66C199.98 125.77 200.13 125.62 200.13 125.62L200.05 123.01L200.13 123.09Z" fill="#262320"/>
</g>
<path d="M187.8 118.93C187.8 118.93 189.5 118.51 193.78 118.5C198.06 118.49 199.4 118.93 199.4 118.93C199.4 118.93 191.82 119.97 187.81 118.93H187.8Z" fill="#DD9F76"/>
<path opacity="0.32" d="M198.7 114.9C198.83 114.87 198.82 114.7 198.69 114.68C197.95 114.59 196.44 114.47 193.74 114.47C190.74 114.37 189.18 114.76 188.48 114.93C188.35 114.96 188.36 115.13 188.48 115.15C189.44 115.3 191.73 115.47 193.73 115.47C195.73 115.47 197.7 115.1 198.69 114.9H198.7Z" fill="#A1A1C6"/>
<path opacity="0.32" d="M188.39 115.66C188.39 115.66 189.28 116.7 193.44 116.7C193.44 116.7 191.06 116.89 189.87 116.55C187.98 116.01 188.38 115.66 188.38 115.66H188.39Z" fill="#AAA9D3"/>
<path opacity="0.32" d="M198.76 114.92C198.76 114.92 197.87 115.96 193.71 115.96C193.71 115.96 196.09 116.15 197.28 115.81C199.17 115.27 198.77 114.92 198.77 114.92H198.76Z" fill="#AAA9D3"/>
<path d="M173.06 126.3C173.06 126.3 170.5 128.38 179.72 128.17C188.93 127.96 186.91 126.3 186.91 126.3C186.91 126.3 179.6 124.83 173.21 126.3" fill="#B29C74"/>
<path opacity="0.32" d="M173.81 114.24C173.74 114.26 173.67 114.29 173.61 114.34C173.32 114.56 172.62 115.23 172.62 116.72V126.5C172.62 126.75 172.78 126.96 173.03 127.03C173.85 127.26 175.95 127.73 179.58 127.73C183.21 127.73 185.06 127.3 185.83 127.08C186.07 127.01 186.23 126.79 186.23 126.55V116.17C186.23 116.17 186.23 114.51 184.92 114.12C184.72 114.06 184.57 113.89 184.53 113.69C184.47 113.37 184.74 112.16 184.42 112.25C183.64 112.46 181.55 112.62 179.4 112.69C177.28 112.75 175.12 112.69 174.3 112.52C174.02 112.46 174.32 113.61 174.23 113.88C174.18 114.04 174.06 114.18 173.82 114.24H173.81Z" fill="#AAA9D3"/>
<path d="M173.44 117.28V125.79C173.44 126.11 173.64 126.39 173.94 126.49C174.77 126.77 176.63 127.26 179.59 127.26C182.55 127.26 184.16 126.91 184.98 126.69C185.31 126.6 185.53 126.3 185.53 125.96L185.32 117.23C185.31 116.79 185.47 116.51 185.04 116.56C183.26 116.78 177.75 117.17 173.74 116.56C173.58 116.54 173.49 116.56 173.45 116.63C173.38 116.75 173.45 116.99 173.45 117.28H173.44Z" fill="#EDC066"/>
<path opacity="0.2" d="M181.15 113.02C181.03 113.02 181.09 114.14 181.35 114.39C181.61 114.64 182.46 115.1 182.48 116.13C182.5 117.16 182.67 127.61 182.67 127.61C182.67 127.61 184.97 127.36 185.52 127.16C186.07 126.96 186.21 127.16 186.21 125.8C186.21 124.44 186.21 116.4 186.21 116.4C186.21 116.4 186.11 114.36 184.9 114.12C184.9 114.12 184.45 114.03 184.52 113.28C184.59 112.53 184.48 112.3 184.48 112.3C184.48 112.3 184.41 113.03 181.15 113.01V113.02Z" fill="white"/>
<path d="M174.08 118.15C176.01 118.56 180.26 119.11 184.75 118.12C185.31 118 185.84 118.45 185.84 119.06V122.27C185.84 122.75 185.5 123.16 185.05 123.22C182.97 123.51 177.24 124.17 173.68 123.22C173.28 123.11 172.99 122.73 172.99 122.29V119.09C172.99 118.48 173.51 118.03 174.08 118.15Z" fill="#C1B4A3"/>
<mask id="mask8_0_1" style="mask-type:luminance" maskUnits="userSpaceOnUse" x="172" y="118" width="14" height="6">
<path d="M174.08 118.15C176.01 118.56 180.26 119.11 184.75 118.12C185.31 118 185.84 118.45 185.84 119.06V122.27C185.84 122.75 185.5 123.16 185.05 123.22C182.97 123.51 177.24 124.17 173.68 123.22C173.28 123.11 172.99 122.73 172.99 122.29V119.09C172.99 118.48 173.51 118.03 174.08 118.15Z" fill="white"/>
</mask>
<g mask="url(#mask8_0_1)">
<path d="M181.73 118.13C181.69 118.41 182.88 123.28 181.55 124.43C181.55 124.43 187.76 125.3 187.78 125.11C187.8 124.92 188.82 119.65 187.83 118.21C186.84 116.77 181.73 118.1 181.73 118.12V118.13Z" fill="#CEC0B2"/>
<path opacity="0.09" d="M185.92 120.72C185.92 120.72 178.19 123.69 172.84 122.65L173.73 123.84C173.73 123.84 181.01 125.18 183.39 124.29C185.77 123.4 185.92 123.25 185.92 123.25L185.84 120.64L185.92 120.72Z" fill="#262320"/>
</g>
<path d="M173.59 116.56C173.59 116.56 175.29 116.14 179.57 116.13C184 116.12 185.19 116.56 185.19 116.56C185.19 116.56 177.61 117.6 173.6 116.56H173.59Z" fill="#FFDA88"/>
<path opacity="0.32" d="M184.49 112.53C184.62 112.5 184.61 112.33 184.48 112.31C183.74 112.22 182.23 112.1 179.53 112.1C176.53 112 174.97 112.39 174.27 112.56C174.14 112.59 174.15 112.76 174.27 112.78C175.23 112.93 177.52 113.1 179.52 113.1C181.52 113.1 183.49 112.73 184.48 112.53H184.49Z" fill="#A1A1C6"/>
<path opacity="0.32" d="M174.18 113.29C174.18 113.29 175.07 114.33 179.23 114.33C179.23 114.33 176.85 114.52 175.66 114.18C173.77 113.64 174.17 113.29 174.17 113.29H174.18Z" fill="#AAA9D3"/>
<path opacity="0.32" d="M184.55 112.55C184.55 112.55 183.66 113.59 179.5 113.59C179.5 113.59 181.88 113.78 183.07 113.44C184.96 112.9 184.56 112.55 184.56 112.55H184.55Z" fill="#AAA9D3"/>
<path d="M285.65 33.6507C285.759 31.1899 283.74 29.1022 281.141 28.9879C278.542 28.8735 276.348 30.7757 276.24 33.2365C276.131 35.6973 278.15 37.7849 280.749 37.8992C283.348 38.0136 285.542 36.1115 285.65 33.6507Z" fill="#E5D79C"/>
<path d="M324.105 74.9783C324.903 56.8312 310.017 41.4364 290.854 40.5931C271.692 39.7497 255.51 53.7772 254.712 71.9243C253.913 90.0713 268.8 105.466 287.962 106.309C307.124 107.153 323.306 93.1254 324.105 74.9783Z" fill="#F5DCBE"/>
<path d="M279.554 80.5612C279.708 76.8254 276.508 73.6605 272.408 73.4922C268.308 73.3239 264.86 76.216 264.707 79.9519C264.553 83.6877 267.753 86.8526 271.853 87.0208C275.953 87.1891 279.401 84.297 279.554 80.5612Z" fill="#413A3A"/>
<path d="M310.419 81.9021C310.572 78.1662 307.372 75.0013 303.272 74.8331C299.172 74.6648 295.724 77.5569 295.571 81.2927C295.418 85.0286 298.617 88.1934 302.717 88.3617C306.817 88.5299 310.265 85.6379 310.419 81.9021Z" fill="#413A3A"/>
<path d="M270.22 78.0362C270.266 76.9879 269.409 76.0987 268.306 76.0502C267.202 76.0016 266.27 76.812 266.224 77.8604C266.178 78.9087 267.035 79.7979 268.139 79.8465C269.242 79.895 270.174 79.0846 270.22 78.0362Z" fill="white"/>
<path d="M302.092 78.4555C302.138 77.4072 301.281 76.518 300.177 76.4695C299.074 76.4209 298.142 77.2313 298.096 78.2797C298.049 79.328 298.907 80.2172 300.01 80.2658C301.114 80.3144 302.045 79.5039 302.092 78.4555Z" fill="white"/>
<path d="M304.94 122.95L304.35 139.13C304.08 146.6 297.46 152.42 289.57 152.12L283.83 151.91C275.94 151.62 269.77 145.32 270.04 137.85L270.63 121.67C270.9 114.2 277.52 108.38 285.41 108.68L291.15 108.89C299.07 109.19 305.12 117.98 304.94 122.95Z" fill="#E4827A"/>
<path d="M301.93 115.8C302.92 114.64 304.72 114.46 305.95 115.4L317.53 124.27C318.76 125.21 318.96 126.92 317.97 128.08C316.98 129.24 315.18 129.42 313.95 128.48L302.37 119.61C301.14 118.67 300.94 116.96 301.93 115.8Z" fill="#E4827A"/>
<path d="M274.95 115L262.37 107.45C261.03 106.65 259.27 107.02 258.43 108.28C257.59 109.54 257.99 111.22 259.33 112.02L271.91 119.57C273.25 120.37 275.01 120 275.85 118.74C276.69 117.48 276.29 115.8 274.95 115Z" fill="#E4827A"/>
<path d="M315 124.37C316.41 123.7 318.13 124.23 318.84 125.57L325.59 138.14C326.31 139.48 325.75 141.1 324.34 141.78C322.93 142.45 321.21 141.92 320.5 140.58L313.75 128.01C313.03 126.67 313.59 125.05 315 124.37Z" fill="#E4827A"/>
<path d="M262.61 107.89L254.38 96.1299C253.51 94.8799 251.73 94.5399 250.42 95.3599C249.11 96.1799 248.75 97.8599 249.62 99.1099L257.85 110.87C258.72 112.12 260.5 112.46 261.81 111.64C263.12 110.82 263.48 109.14 262.61 107.89Z" fill="#E4827A"/>
<path d="M284.13 151.16L283.34 164.06C283.25 165.51 281.66 166.66 279.79 166.63C277.92 166.6 276.47 165.4 276.56 163.95L277.35 151.05C277.44 149.6 279.03 148.45 280.9 148.48C282.77 148.51 284.22 149.71 284.13 151.16Z" fill="#2D679B"/>
<path d="M299.47 152.55L299.13 166.61C299.09 168.19 297.56 169.35 295.7 169.21C293.84 169.07 292.37 167.67 292.41 166.09L292.75 152.03C292.79 150.45 294.32 149.29 296.18 149.43C298.04 149.57 299.51 150.97 299.47 152.55Z" fill="#2D679B"/>
<path d="M282.21 169L281.63 184.96C281.56 186.75 279.98 188.15 278.08 188.08C276.19 188.01 274.71 186.5 274.77 184.71L275.35 168.75C275.42 166.96 277 165.56 278.9 165.63C280.79 165.7 282.27 167.21 282.21 169Z" fill="#2D679B"/>
<path d="M299.62 170.43L298.92 186.39C298.84 188.18 297.24 189.57 295.35 189.48C293.46 189.4 291.99 187.87 292.07 186.08L292.77 170.12C292.85 168.33 294.45 166.94 296.34 167.03C298.23 167.11 299.7 168.64 299.62 170.43Z" fill="#2D679B"/>
<path d="M291.8 106.89L291.7 109.6C291.63 111.47 289.98 112.92 288.01 112.85C286.04 112.78 284.5 111.2 284.56 109.33L284.66 106.62C284.73 104.75 286.38 103.3 288.35 103.37C290.32 103.44 291.86 105.02 291.8 106.89Z" fill="#F5DCBE"/>
<path d="M284.4 105.93C286.1 106.26 290.09 106.55 292.11 106.22C288.44 110.99 285.44 108.01 284.4 105.93Z" fill="#CFBFA0"/>
<g opacity="0.2">
<path d="M270.749 94.9953C270.825 93.2794 269.414 91.8236 267.599 91.7437C265.784 91.6638 264.251 92.9901 264.176 94.706C264.1 96.422 265.51 97.8778 267.326 97.9576C269.141 98.0375 270.674 96.7113 270.749 94.9953Z" fill="#E3817A"/>
</g>
<g opacity="0.2">
<path d="M313.016 96.5756C313.092 94.8596 311.681 93.4038 309.866 93.3239C308.051 93.2441 306.518 94.5703 306.443 96.2863C306.367 98.0022 307.777 99.4581 309.593 99.538C311.408 99.6179 312.941 98.2915 313.016 96.5756Z" fill="#E3817A"/>
</g>
<path d="M322.19 146.37L320.85 144.38C319.59 142.52 320.17 140.05 322.13 138.87C324.09 137.69 326.7 138.24 327.96 140.11L329.3 142.1C330.56 143.96 329.98 146.43 328.02 147.61C326.06 148.79 323.45 148.24 322.19 146.37Z" fill="#F5DCBE"/>
<path d="M319.28 144.6L319.72 142.72C319.89 141.99 320.66 141.53 321.43 141.7C322.2 141.87 322.69 142.6 322.52 143.33L322.08 145.21C321.91 145.94 321.14 146.4 320.37 146.23C319.6 146.06 319.11 145.33 319.28 144.6Z" fill="#F5DCBE"/>
<path d="M245.95 88.31C244.04 89.57 243.58 92.06 244.91 93.87L246.33 95.8C247.67 97.61 250.3 98.07 252.21 96.81C254.12 95.55 254.58 93.06 253.25 91.25L251.83 89.32C250.49 87.51 247.86 87.05 245.95 88.31Z" fill="#F5DCBE"/>
<path d="M277.73 185.27C281.59 185.4 284.76 187.36 284.81 189.65C284.86 191.94 281.72 191.48 277.86 191.36C274 191.23 270.87 191.48 270.83 189.19C270.78 186.9 273.88 185.14 277.74 185.27H277.73Z" fill="#E4827A"/>
<path d="M300.85 185.76C304.76 185.85 307.81 187.76 307.67 190.01C307.53 192.26 304.67 191.71 300.76 191.62C296.85 191.53 293.36 191.93 293.51 189.67C293.66 187.41 296.95 185.66 300.86 185.76H300.85Z" fill="#E4827A"/>
<path d="M256.616 84.0785C258.873 83.3228 259.847 80.1544 258.792 77.0016C257.736 73.8489 255.051 71.9057 252.793 72.6614C250.536 73.4171 249.562 76.5855 250.617 79.7382C251.673 82.891 254.358 84.8342 256.616 84.0785Z" fill="#F5DCBE"/>
<path d="M327.575 82.6771C328.852 79.6136 328.103 76.3857 325.901 75.4672C323.699 74.5488 320.878 76.2877 319.6 79.3512C318.323 82.4146 319.072 85.6426 321.274 86.561C323.476 87.4794 326.297 85.7405 327.575 82.6771Z" fill="#F5DCBE"/>
<path d="M258.46 83.97L256.56 84.98L254.43 72.85C250.76 61.06 260.2 36.22 292.3 38.51C320.16 40.49 328.72 61.9099 323.41 75.4299L321.26 87.3999L318.4 87.29C319.44 83.54 320.54 75.02 316.57 70.97C311.61 65.91 305.95 64.0699 303.23 60.3099C300.62 61.1599 293.82 61.83 287.45 57.69C283.89 58.64 275.9 59.0999 272.45 53.3399C269.66 58.0199 263.25 67.9 259.97 69.94C256.69 71.98 257.59 80.15 258.46 83.97Z" fill="#A55D5B"/>
<path d="M251.82 64.74C250.11 61.92 248.23 55.83 254.36 54C254.26 50.34 256.34 43.62 265.52 46.02C266.22 42.48 269.42 36.39 276.6 40.34C278.63 36.94 284.4 31.85 291.25 38.72C294.16 35.98 300.89 32.44 304.5 40.16C307.54 39.24 314 39.19 315.57 46.4C318.3 46.19 323.49 47.37 322.45 53.84C325.15 54.35 329.82 57.23 326.91 64.71C329.07 66.96 331.87 72.29 325.79 75.64L324.41 78.16L319.84 77.99C319.25 78.51 317.75 78.02 316.49 71.9C315.24 72.3 312.33 72.12 310.76 68.16C308.7 68.31 304.69 67.45 305.09 62.8C302.95 63.85 298.07 65.46 295.62 63.53C293.28 63.71 288.51 63.29 288.16 60.14C286.06 61.55 281.37 63.68 279.41 60.9C277.54 61.33 273.83 60.96 274.01 56.09C273.58 58.83 271.61 64.51 267.24 65.32C266.71 68.01 264.57 73.35 260.23 73.19C255.89 73.03 258.39 74.02 260.18 74.54C260.47 76.99 260.55 81.7299 258.51 81.11C255.96 80.34 255.49 85.6 254.46 82.31C252.89 81.03 250.08 77.62 251.47 74.21C249.68 72.2 247.25 67.5 251.82 64.74Z" fill="#A55D5B"/>
<path d="M291.04 108.47C290.7 110.11 289.92 111 288.1 110.96C286.28 110.92 286.08 109.52 285.53 108.06C284.86 106.27 281.96 107.04 282.64 108.86C283.69 111.68 284.67 113.97 288.1 113.96C291.18 113.96 293.31 112.29 293.93 109.27C294.32 107.39 291.43 106.58 291.04 108.47Z" fill="#F9E96D"/>
<path d="M293.7 109.23C293.7 109.23 298.65 109.84 298.6 111.71C298.55 113.58 298.66 125.23 298.75 125.34C302.6 130.01 304.07 130.65 304.5 133.49C304.5 133.49 304.89 137.73 304.32 140.53L270.15 138.18C270.15 138.18 270.42 127.38 276.95 124.27L278.8 110.22C278.8 110.22 278.82 109.28 280.32 108.85C282.27 108.29 283.29 108.93 283.29 108.93L282.91 123.96L293.32 124.24L293.7 109.21V109.23Z" fill="#2D679B"/>
<path d="M298.089 127.788C298.139 126.652 297.205 125.687 296.002 125.634C294.799 125.581 293.784 126.46 293.734 127.597C293.684 128.733 294.618 129.697 295.821 129.75C297.024 129.803 298.039 128.925 298.089 127.788Z" fill="#F9E96D"/>
<path d="M281.28 127.645C281.33 126.508 280.396 125.544 279.193 125.491C277.99 125.438 276.975 126.317 276.925 127.453C276.875 128.59 277.809 129.554 279.012 129.607C280.215 129.66 281.23 128.782 281.28 127.645Z" fill="#F9E96D"/>
<path d="M304.44 139.33C304.17 146.8 297.55 152.62 289.66 152.32L283.92 152.11C276.03 151.82 269.86 145.52 270.13 138.05" fill="#2D679B"/>
<path d="M277.75 131.54C278.77 131.63 297.33 132.08 297.33 132.08C297.33 132.08 297.24 135.68 297.23 135.86C297.22 136.04 297.71 143.88 287.4 143.59C277.09 143.31 277.65 134.95 277.65 134.95L277.74 131.54H277.75Z" fill="#3A87C1"/>
<path d="M322.27 53.69C322.27 53.69 326.2 39.77 312.1 32.09C298.01 24.41 265.04 31.31 249.47 53.51C246.5 57.81 247.24 63.32 251.48 64.84C255.49 66.28 265.91 31.4 322.27 53.69Z" fill="#FFEFAB"/>
<mask id="mask9_0_1" style="mask-type:luminance" maskUnits="userSpaceOnUse" x="247" y="29" width="76" height="36">
<path d="M322.27 53.69C322.27 53.69 326.2 39.77 312.1 32.09C298.01 24.41 265.04 31.31 249.47 53.51C246.5 57.81 247.24 63.32 251.48 64.84C255.49 66.28 265.91 31.4 322.27 53.69Z" fill="white"/>
</mask>
<g mask="url(#mask9_0_1)">
<path d="M265.62 30.22C264.93 30.91 249.63 47.41 265.46 52.07C265.54 52.07 276.88 55.43 265.46 52.07C265.38 52.07 253.48 64.55 252.28 66.57C251.07 68.59 246.43 66.23 246.43 66.23L242.36 59.9C242.36 59.9 243.52 53.35 243.55 51.94C243.58 50.53 246.95 45.75 246.95 45.75L265.62 30.22Z" fill="#E5D79C"/>
<path d="M323.1 57.57L324.26 54.23C324.26 54.23 273.49 25.97 249.48 68.23C249.48 68.23 275.81 36.71 323.09 57.57H323.1Z" fill="#E5D79C"/>
</g>
<path d="M282.06 92.26C285.82 96.14 290.2 95.66 291.92 94.94" stroke="#764C4C" stroke-width="3" stroke-linecap="round"/>
<path d="M234.3 61.2C234.28 61.89 238.33 74.4 243.2 82.8C248.08 91.2 253.63 101.69 253.63 101.69C253.63 101.69 255.76 103.81 255.1 101.04C254.44 98.27 242.08 69.68 240.68 67.58C239.28 65.47 236.86 60.53 236.86 60.53L234.3 61.21V61.2Z" fill="#BA7842"/>
<path d="M232.26 46.46C232.26 46.46 227.78 51.16 229.11 56.02C230.44 60.88 232.57 63 234.77 62.37C236.97 61.74 237.34 61.25 237.34 61.25C237.34 61.25 240.67 59.09 237.83 56.26C234.99 53.43 229.25 50.51 232.26 46.46Z" fill="#8D2321"/>
<path d="M254.04 92.77C254.05 92.02 253.42 91.4 252.63 91.39L250.6 91.35C249.81 91.34 249.16 91.93 249.15 92.68C249.14 93.43 249.77 94.05 250.56 94.06L252.59 94.1C253.38 94.11 254.03 93.52 254.04 92.77Z" fill="#F5DCBE"/>
</svg>
