<svg width="69" height="69" viewBox="0 0 69 69" fill="none" xmlns="http://www.w3.org/2000/svg">
<path d="M34.485 69C53.5305 69 68.97 54.1912 68.97 35.9237C68.97 17.6562 53.5305 2.84741 34.485 2.84741C15.4395 2.84741 0 17.6562 0 35.9237C0 54.1912 15.4395 69 34.485 69Z" fill="#E8E3E6"/>
<path d="M34.515 66.1526C53.5606 66.1526 69 51.3438 69 33.0763C69 14.8087 53.5606 0 34.515 0C15.4695 0 0.0300293 14.8087 0.0300293 33.0763C0.0300293 51.3438 15.4695 66.1526 34.515 66.1526Z" fill="#FFF8FC"/>
<path d="M47.4993 34.8692V48.2914C48.329 47.4957 49.1686 46.6904 49.9982 45.8946H19.0117C19.8414 46.6904 20.681 47.4957 21.5106 48.2914V34.8692C21.5106 31.7821 16.5128 31.7821 16.5128 34.8692V48.2914C16.5128 49.5857 17.6623 50.6883 19.0117 50.6883H49.9982C51.3477 50.6883 52.4972 49.5857 52.4972 48.2914V34.8692C52.4972 31.7821 47.4993 31.7821 47.4993 34.8692Z" fill="#C0F2C3"/>
<path d="M41.322 25.3489C40.0526 26.5665 38.7831 27.7841 37.5137 29.0017V16.4711C37.5137 12.895 31.7162 12.8854 31.7162 16.4711V29.2318C30.3668 27.9375 29.0174 26.6432 27.6779 25.3585C25.0391 22.8274 20.9309 26.7583 23.5797 29.2893C26.3985 31.9929 29.1873 34.7445 32.046 37.4098C33.4654 38.7328 35.1047 39.193 36.9639 37.4098C39.7827 34.7062 42.6114 31.9929 45.4302 29.2893C48.0691 26.7583 43.9708 22.8179 41.332 25.3585L41.322 25.3489Z" fill="#C0F2C3"/>
</svg>
