<svg width="292" height="95" viewBox="0 0 292 95" fill="none" xmlns="http://www.w3.org/2000/svg">
<path d="M261.58 24.27H30.1501C13.6865 24.27 0.340088 37.6164 0.340088 54.08V64.46C0.340088 80.9236 13.6865 94.27 30.1501 94.27H261.58C278.044 94.27 291.39 80.9236 291.39 64.46V54.08C291.39 37.6164 278.044 24.27 261.58 24.27Z" fill="#C8A9F2"/>
<path d="M95.4799 1.58011C96.4299 2.06011 97.1499 2.75011 97.6599 3.65011C98.1599 4.54011 98.4199 5.60011 98.4199 6.81011C98.4199 8.02011 98.1699 9.07011 97.6599 9.96011C97.1599 10.8501 96.4299 11.5301 95.4799 12.0001C94.5299 12.4701 93.4099 12.7101 92.1199 12.7101H88.4299V0.860107H92.1199C93.4099 0.860107 94.5299 1.10011 95.4799 1.58011ZM95.6299 10.2101C96.4299 9.40011 96.84 8.26011 96.84 6.80011C96.84 5.34011 96.4299 4.18011 95.6199 3.35011C94.8099 2.52011 93.6499 2.11011 92.1299 2.11011H89.9899V11.4301H92.1299C93.6599 11.4301 94.8299 11.0301 95.6299 10.2201V10.2101Z" fill="#A8A8A8"/>
<path d="M102.15 12.2602C101.44 11.8602 100.89 11.3002 100.48 10.5702C100.08 9.84023 99.8799 8.99023 99.8799 8.03023C99.8799 7.07023 100.09 6.24023 100.5 5.51023C100.91 4.78023 101.48 4.22023 102.19 3.83023C102.9 3.44023 103.7 3.24023 104.59 3.24023C105.48 3.24023 106.27 3.44023 106.99 3.83023C107.7 4.22023 108.27 4.78023 108.68 5.50023C109.09 6.22023 109.3 7.07023 109.3 8.03023C109.3 8.99023 109.09 9.84023 108.66 10.5702C108.24 11.3002 107.66 11.8602 106.93 12.2602C106.2 12.6602 105.4 12.8602 104.52 12.8602C103.64 12.8602 102.86 12.6602 102.15 12.2602ZM106.08 11.1102C106.57 10.8502 106.96 10.4602 107.26 9.94023C107.56 9.42023 107.71 8.78023 107.71 8.04023C107.71 7.30023 107.56 6.66023 107.27 6.14023C106.98 5.62023 106.59 5.23023 106.11 4.98023C105.63 4.73023 105.12 4.60023 104.56 4.60023C104 4.60023 103.48 4.73023 103 4.98023C102.53 5.23023 102.15 5.62023 101.87 6.14023C101.59 6.66023 101.44 7.30023 101.44 8.04023C101.44 8.78023 101.58 9.44023 101.86 9.96023C102.14 10.4802 102.51 10.8702 102.97 11.1202C103.43 11.3702 103.94 11.5002 104.5 11.5002C105.06 11.5002 105.58 11.3702 106.06 11.1102H106.08Z" fill="#A8A8A8"/>
<path d="M114.28 3.76012C114.89 3.41012 115.59 3.23012 116.37 3.23012C117.21 3.23012 117.96 3.43012 118.63 3.82012C119.3 4.22012 119.83 4.78012 120.21 5.49012C120.6 6.21012 120.79 7.05012 120.79 8.00012C120.79 8.95012 120.6 9.78012 120.21 10.5201C119.83 11.2601 119.29 11.8301 118.62 12.2401C117.95 12.6501 117.19 12.8501 116.37 12.8501C115.55 12.8501 114.86 12.6701 114.25 12.3201C113.64 11.9701 113.19 11.5201 112.88 10.9801V12.7001H111.33V0.120117H112.88V5.12012C113.2 4.57012 113.66 4.11012 114.27 3.76012H114.28ZM118.78 6.18012C118.5 5.66012 118.11 5.26012 117.63 4.99012C117.15 4.72012 116.62 4.58012 116.04 4.58012C115.46 4.58012 114.95 4.72012 114.47 5.00012C113.99 5.28012 113.6 5.68012 113.31 6.21012C113.02 6.74012 112.88 7.35012 112.88 8.04012C112.88 8.73012 113.02 9.36012 113.31 9.88012C113.6 10.4101 113.98 10.8101 114.47 11.0901C114.95 11.3701 115.48 11.5101 116.04 11.5101C116.6 11.5101 117.15 11.3701 117.63 11.0901C118.11 10.8101 118.49 10.4101 118.78 9.88012C119.06 9.35012 119.2 8.73012 119.2 8.02012C119.2 7.31012 119.06 6.71012 118.78 6.18012Z" fill="#A8A8A8"/>
<path d="M125.54 3.66021C126.04 3.37021 126.66 3.22021 127.38 3.22021V4.82021H126.97C125.24 4.82021 124.37 5.76022 124.37 7.64022V12.7102H122.82V3.39021H124.37V4.90021C124.64 4.37021 125.03 3.95021 125.53 3.66021H125.54Z" fill="#A8A8A8"/>
<path d="M129.17 5.51C129.56 4.79 130.09 4.23 130.76 3.84C131.43 3.44 132.18 3.25 133.01 3.25C133.84 3.25 134.53 3.43 135.13 3.78C135.73 4.13 136.18 4.57 136.47 5.11V3.41H138.03V12.73H136.47V11C136.16 11.54 135.71 12 135.1 12.35C134.49 12.71 133.79 12.89 132.98 12.89C132.17 12.89 131.4 12.69 130.74 12.28C130.08 11.87 129.54 11.3 129.16 10.56C128.78 9.82 128.58 8.98 128.58 8.04C128.58 7.1 128.77 6.25 129.16 5.53L129.17 5.51ZM136.05 6.19C135.77 5.67 135.38 5.27 134.9 4.99C134.42 4.71 133.89 4.57 133.31 4.57C132.73 4.57 132.2 4.71 131.73 4.98C131.25 5.25 130.87 5.65 130.59 6.17C130.31 6.69 130.16 7.3 130.16 8.01C130.16 8.72 130.3 9.34 130.59 9.87C130.87 10.4 131.25 10.8 131.73 11.08C132.21 11.36 132.73 11.5 133.31 11.5C133.89 11.5 134.42 11.36 134.9 11.08C135.38 10.8 135.76 10.4 136.05 9.87C136.33 9.34 136.47 8.73 136.47 8.03C136.47 7.33 136.33 6.72 136.05 6.19Z" fill="#A8A8A8"/>
<path d="M140.66 5.51014C141.05 4.79014 141.58 4.23014 142.25 3.84014C142.92 3.44014 143.68 3.25014 144.52 3.25014C145.25 3.25014 145.92 3.42014 146.54 3.75014C147.16 4.08014 147.64 4.52014 147.97 5.07014V0.140137H149.53V12.7201H147.97V10.9701C147.66 11.5301 147.21 11.9801 146.61 12.3401C146.01 12.7001 145.31 12.8801 144.5 12.8801C143.69 12.8801 142.92 12.6801 142.25 12.2701C141.58 11.8601 141.05 11.2901 140.66 10.5501C140.28 9.81014 140.08 8.97014 140.08 8.03014C140.08 7.09014 140.27 6.24014 140.66 5.52014V5.51014ZM147.55 6.19014C147.27 5.67014 146.88 5.27014 146.4 4.99014C145.92 4.71014 145.39 4.57014 144.81 4.57014C144.23 4.57014 143.7 4.71014 143.23 4.98014C142.75 5.25014 142.37 5.65014 142.09 6.17014C141.81 6.69014 141.66 7.30014 141.66 8.01014C141.66 8.72014 141.8 9.34014 142.09 9.87014C142.37 10.4001 142.75 10.8001 143.23 11.0801C143.71 11.3601 144.23 11.5001 144.81 11.5001C145.39 11.5001 145.92 11.3601 146.4 11.0801C146.88 10.8001 147.26 10.4001 147.55 9.87014C147.83 9.34014 147.97 8.73014 147.97 8.03014C147.97 7.33014 147.83 6.72014 147.55 6.19014Z" fill="#A8A8A8"/>
<path d="M160.42 3.39014V12.7101H158.87V11.3301C158.58 11.8101 158.16 12.1801 157.64 12.4401C157.11 12.7101 156.53 12.8401 155.9 12.8401C155.17 12.8401 154.52 12.6901 153.94 12.3901C153.36 12.0901 152.91 11.6401 152.57 11.0401C152.24 10.4401 152.07 9.71014 152.07 8.85014V3.39014H153.6V8.64014C153.6 9.56014 153.83 10.2601 154.3 10.7601C154.77 11.2601 155.4 11.5001 156.2 11.5001C157 11.5001 157.68 11.2501 158.15 10.7401C158.63 10.2301 158.86 9.49014 158.86 8.51014V3.39014H160.41H160.42Z" fill="#A8A8A8"/>
<path d="M165.75 3.66021C166.25 3.37021 166.87 3.22021 167.59 3.22021V4.82021H167.18C165.45 4.82021 164.58 5.76022 164.58 7.64022V12.7102H163.03V3.39021H164.58V4.90021C164.85 4.37021 165.24 3.95021 165.74 3.66021H165.75Z" fill="#A8A8A8"/>
<path d="M169.37 5.51C169.76 4.79 170.29 4.23 170.96 3.84C171.63 3.44 172.38 3.25 173.21 3.25C174.04 3.25 174.73 3.43 175.33 3.78C175.93 4.13 176.38 4.57 176.67 5.11V3.41H178.23V12.73H176.67V11C176.36 11.54 175.91 12 175.3 12.35C174.69 12.71 173.99 12.89 173.18 12.89C172.37 12.89 171.6 12.69 170.94 12.28C170.28 11.87 169.74 11.3 169.36 10.56C168.98 9.82 168.78 8.98 168.78 8.04C168.78 7.1 168.97 6.25 169.36 5.53L169.37 5.51ZM176.26 6.19C175.98 5.67 175.59 5.27 175.11 4.99C174.63 4.71 174.1 4.57 173.52 4.57C172.94 4.57 172.41 4.71 171.94 4.98C171.46 5.25 171.08 5.65 170.8 6.17C170.52 6.69 170.37 7.3 170.37 8.01C170.37 8.72 170.51 9.34 170.8 9.87C171.08 10.4 171.46 10.8 171.94 11.08C172.42 11.36 172.94 11.5 173.52 11.5C174.1 11.5 174.63 11.36 175.11 11.08C175.59 10.8 175.97 10.4 176.26 9.87C176.54 9.34 176.68 8.73 176.68 8.03C176.68 7.33 176.54 6.72 176.26 6.19Z" fill="#A8A8A8"/>
<path d="M182.24 12.4902C181.67 12.2502 181.23 11.9102 180.9 11.4702C180.57 11.0302 180.39 10.5302 180.36 9.97023H181.96C182 10.4302 182.22 10.8102 182.61 11.1102C183 11.4002 183.51 11.5502 184.15 11.5502C184.74 11.5502 185.2 11.4202 185.54 11.1602C185.88 10.9002 186.05 10.5702 186.05 10.1702C186.05 9.77023 185.87 9.46023 185.51 9.26023C185.15 9.06024 184.59 8.87023 183.83 8.67023C183.14 8.49023 182.58 8.30023 182.14 8.12023C181.7 7.93023 181.33 7.66023 181.02 7.29023C180.71 6.92023 180.55 6.44023 180.55 5.84023C180.55 5.36023 180.69 4.93023 180.97 4.53023C181.25 4.13023 181.66 3.82023 182.18 3.59023C182.7 3.36023 183.3 3.24023 183.97 3.24023C185 3.24023 185.83 3.50024 186.47 4.02024C187.1 4.54024 187.44 5.26023 187.49 6.16023H185.94C185.91 5.67023 185.71 5.28023 185.35 4.99023C184.99 4.70023 184.51 4.55023 183.91 4.55023C183.36 4.55023 182.91 4.67023 182.58 4.91023C182.25 5.15023 182.09 5.46023 182.09 5.84023C182.09 6.15023 182.19 6.40023 182.39 6.60023C182.59 6.80024 182.84 6.96023 183.14 7.08023C183.44 7.20023 183.86 7.33023 184.39 7.48023C185.06 7.66023 185.6 7.84024 186.02 8.02024C186.44 8.20023 186.8 8.46024 187.1 8.81024C187.4 9.16023 187.56 9.62023 187.57 10.1902C187.57 10.7002 187.43 11.1602 187.15 11.5702C186.87 11.9802 186.47 12.3002 185.95 12.5302C185.43 12.7602 184.84 12.8802 184.17 12.8802C183.46 12.8802 182.82 12.7602 182.25 12.5102L182.24 12.4902Z" fill="#A8A8A8"/>
<path d="M96.6199 60.5801C97.4599 61.2501 98.1299 62.0701 98.6199 63.0601C99.1099 64.0501 99.3599 65.1001 99.3599 66.2201C99.3599 67.6301 98.9999 68.9101 98.2799 70.0401C97.5599 71.1701 96.5099 72.0701 95.1399 72.7201C93.7699 73.3701 92.1499 73.7001 90.2799 73.7001H79.8799V45.8201H89.8799C91.7699 45.8201 93.3898 46.1301 94.7198 46.7601C96.0498 47.3901 97.0498 48.2301 97.7198 49.3001C98.3898 50.3701 98.7198 51.5701 98.7198 52.9001C98.7198 54.5501 98.2699 55.9201 97.3799 57.0001C96.4899 58.0801 95.3099 58.8601 93.8399 59.3401C94.8499 59.5001 95.7799 59.9101 96.6199 60.5801ZM83.5299 57.8601H89.6499C91.3599 57.8601 92.6799 57.4601 93.6099 56.6601C94.5399 55.8601 95.0099 54.7501 95.0099 53.3401C95.0099 51.9301 94.5399 50.8201 93.6099 50.0201C92.6799 49.2201 91.3299 48.8201 89.5699 48.8201H83.5299V57.8601ZM94.2099 69.4201C95.2199 68.5701 95.7299 67.3801 95.7299 65.8601C95.7299 64.3401 95.1999 63.0901 94.1299 62.2001C93.0599 61.3101 91.6399 60.8601 89.8499 60.8601H83.5299V70.7001H89.9698C91.7798 70.7001 93.1999 70.2701 94.2099 69.4201Z" fill="white"/>
<path d="M120.88 67.5H108.72L106.48 73.7H102.64L112.72 45.98H116.92L126.96 73.7H123.12L120.88 67.5ZM119.84 64.54L114.8 50.46L109.76 64.54H119.84Z" fill="white"/>
<path d="M146.04 73.7001L139.4 62.3001H135V73.7001H131.36V45.8201H140.36C142.47 45.8201 144.24 46.1801 145.7 46.9001C147.15 47.6201 148.24 48.5901 148.96 49.8201C149.68 51.0501 150.04 52.4501 150.04 54.0201C150.04 55.9401 149.49 57.6301 148.38 59.1001C147.27 60.5701 145.61 61.5401 143.4 62.0201L150.4 73.7001H146.04ZM135 59.3801H140.36C142.33 59.3801 143.81 58.8901 144.8 57.9201C145.79 56.9501 146.28 55.6501 146.28 54.0201C146.28 52.3901 145.79 51.0901 144.82 50.1801C143.85 49.2701 142.36 48.8201 140.36 48.8201H135V59.3801Z" fill="white"/>
<path d="M156.16 52.4C157.39 50.23 159.06 48.53 161.18 47.3C163.3 46.07 165.65 45.46 168.24 45.46C171.28 45.46 173.93 46.19 176.2 47.66C178.47 49.13 180.12 51.21 181.16 53.9H176.8C176.02 52.22 174.91 50.93 173.46 50.02C172 49.11 170.26 48.66 168.24 48.66C166.22 48.66 164.55 49.11 163 50.02C161.45 50.93 160.24 52.21 159.36 53.88C158.48 55.55 158.04 57.5 158.04 59.74C158.04 61.98 158.48 63.89 159.36 65.56C160.24 67.23 161.45 68.51 163 69.42C164.55 70.33 166.29 70.78 168.24 70.78C170.19 70.78 172.01 70.33 173.46 69.44C174.91 68.55 176.02 67.26 176.8 65.58H181.16C180.12 68.25 178.47 70.31 176.2 71.76C173.93 73.21 171.28 73.94 168.24 73.94C165.65 73.94 163.3 73.33 161.18 72.12C159.06 70.91 157.39 69.22 156.16 67.06C154.93 64.9 154.32 62.46 154.32 59.74C154.32 57.02 154.93 54.57 156.16 52.4Z" fill="white"/>
<path d="M192.12 72.16C189.99 70.95 188.3 69.25 187.06 67.08C185.82 64.91 185.2 62.46 185.2 59.74C185.2 57.02 185.82 54.57 187.06 52.4C188.3 50.23 189.99 48.53 192.12 47.32C194.25 46.11 196.61 45.5 199.2 45.5C201.79 45.5 204.19 46.11 206.32 47.32C208.45 48.53 210.13 50.22 211.36 52.38C212.59 54.54 213.2 56.99 213.2 59.74C213.2 62.49 212.59 64.94 211.36 67.1C210.13 69.26 208.45 70.95 206.32 72.16C204.19 73.37 201.81 73.98 199.2 73.98C196.59 73.98 194.25 73.37 192.12 72.16ZM204.46 69.46C206.02 68.55 207.25 67.26 208.14 65.58C209.03 63.9 209.48 61.95 209.48 59.74C209.48 57.53 209.03 55.55 208.14 53.88C207.25 52.21 206.02 50.93 204.48 50.02C202.93 49.11 201.17 48.66 199.2 48.66C197.23 48.66 195.47 49.11 193.92 50.02C192.37 50.93 191.15 52.21 190.26 53.88C189.37 55.55 188.92 57.5 188.92 59.74C188.92 61.98 189.37 63.9 190.26 65.58C191.15 67.26 192.38 68.55 193.94 69.46C195.5 70.37 197.25 70.82 199.2 70.82C201.15 70.82 202.9 70.37 204.46 69.46Z" fill="white"/>
</svg>
