<svg width="597" height="578" viewBox="0 0 597 578" fill="none" xmlns="http://www.w3.org/2000/svg">
<path d="M550.02 58.95H66.4401C40.9964 58.95 20.3701 79.5762 20.3701 105.02V531.2C20.3701 556.644 40.9964 577.27 66.4401 577.27H550.02C575.464 577.27 596.09 556.644 596.09 531.2V105.02C596.09 79.5762 575.464 58.95 550.02 58.95Z" fill="#D3D3D3"/>
<path d="M545.6 49.27H62.02C36.5762 49.27 15.95 69.8963 15.95 95.34V521.52C15.95 546.964 36.5762 567.59 62.02 567.59H545.6C571.044 567.59 591.67 546.964 591.67 521.52V95.34C591.67 69.8963 571.044 49.27 545.6 49.27Z" fill="#C8A9F2"/>
<path d="M43.73 89.27C66.7603 89.27 85.43 70.5689 85.43 47.5C85.43 24.4311 66.7603 5.72998 43.73 5.72998C20.6997 5.72998 2.03003 24.4311 2.03003 47.5C2.03003 70.5689 20.6997 89.27 43.73 89.27Z" fill="#CCA98B" stroke="#F2F2F2"/>
<path d="M43.69 85.6699C66.7203 85.6699 85.39 66.9688 85.39 43.8999C85.39 20.8309 66.7203 2.12988 43.69 2.12988C20.6597 2.12988 1.98999 20.8309 1.98999 43.8999C1.98999 66.9688 20.6597 85.6699 43.69 85.6699Z" fill="white" stroke="#F2F2F2" stroke-width="3"/>
<path d="M25.7399 51.4298C28.4099 49.2198 30.5199 47.4098 32.0599 45.9898C33.5999 44.5698 34.8998 43.0798 35.9698 41.5298C37.0298 39.9698 37.5699 38.4598 37.5699 36.9898C37.5699 35.8698 37.3099 34.9998 36.7899 34.3698C36.2699 33.7398 35.4899 33.4298 34.4599 33.4298C33.4299 33.4298 32.6099 33.8198 32.0299 34.5998C31.4399 35.3798 31.1499 36.4798 31.1499 37.8898H24.3999C24.4499 35.5698 24.9499 33.6298 25.8899 32.0798C26.8299 30.5198 28.0699 29.3798 29.6099 28.6398C31.1499 27.8998 32.8599 27.5398 34.7499 27.5398C37.9999 27.5398 40.4399 28.3698 42.0999 30.0398C43.7499 31.7098 44.5799 33.8698 44.5799 36.5498C44.5799 39.4698 43.5799 42.1798 41.5899 44.6698C39.5999 47.1698 37.0599 49.5998 33.9799 51.9698H45.0299V57.6598H24.4899V52.4598C25.4199 51.7198 25.8399 51.3798 25.7599 51.4398L25.7399 51.4298Z" fill="#C8A9F2"/>
<path d="M48.31 32.5798C49.01 31.4798 49.99 30.6098 51.26 29.9798C52.53 29.3498 53.98 29.0398 55.62 29.0398C57.26 29.0398 58.71 29.3498 59.98 29.9798C61.25 30.6098 62.23 31.4698 62.93 32.5798C63.63 33.6898 63.97 34.9598 63.97 36.4098C63.97 37.8598 63.62 39.1398 62.91 40.2598C62.2 41.3798 61.21 42.2598 59.94 42.8998C58.67 43.5398 57.22 43.8598 55.58 43.8598C53.94 43.8598 52.5 43.5398 51.24 42.8998C49.98 42.2598 49.01 41.3798 48.31 40.2598C47.61 39.1398 47.27 37.8598 47.27 36.4098C47.27 34.9598 47.62 33.6898 48.31 32.5798ZM57.71 33.9498C57.14 33.3798 56.43 33.0898 55.58 33.0898C54.73 33.0898 54.07 33.3798 53.51 33.9498C52.95 34.5198 52.67 35.3598 52.67 36.4498C52.67 37.5398 52.94 38.3298 53.49 38.9098C54.04 39.4898 54.73 39.7698 55.58 39.7698C56.43 39.7698 57.13 39.4798 57.71 38.8898C58.28 38.2998 58.57 37.4898 58.57 36.4598C58.57 35.3698 58.28 34.5398 57.71 33.9598V33.9498Z" fill="#C8A9F2"/>
<path d="M105.38 35.45C104.59 36.22 103.38 36.6 101.75 36.6H99.07V42.42H97.25V28.48H101.75C103.32 28.48 104.52 28.86 105.34 29.62C106.16 30.38 106.57 31.36 106.57 32.56C106.57 33.76 106.17 34.68 105.38 35.45ZM103.99 34.44C104.47 34 104.71 33.37 104.71 32.56C104.71 30.84 103.72 29.98 101.75 29.98H99.07V35.1H101.75C102.76 35.1 103.51 34.88 103.99 34.44Z" fill="#C8A9F2"/>
<path d="M108.83 33.95C109.28 33.1 109.91 32.45 110.7 31.98C111.49 31.51 112.38 31.28 113.35 31.28C114.32 31.28 115.14 31.49 115.85 31.9C116.56 32.31 117.08 32.83 117.43 33.46V31.46H119.27V42.42H117.43V40.38C117.07 41.02 116.53 41.55 115.82 41.97C115.11 42.39 114.28 42.6 113.33 42.6C112.38 42.6 111.48 42.36 110.69 41.88C109.9 41.4 109.28 40.73 108.83 39.86C108.38 38.99 108.15 38.01 108.15 36.9C108.15 35.79 108.38 34.8 108.83 33.95ZM116.93 34.76C116.6 34.15 116.15 33.68 115.58 33.35C115.01 33.02 114.39 32.86 113.71 32.86C113.03 32.86 112.41 33.02 111.85 33.34C111.29 33.66 110.84 34.13 110.51 34.74C110.18 35.35 110.01 36.07 110.01 36.9C110.01 37.73 110.18 38.47 110.51 39.09C110.84 39.71 111.29 40.18 111.85 40.51C112.41 40.84 113.03 41 113.71 41C114.39 41 115.01 40.84 115.58 40.51C116.15 40.18 116.6 39.71 116.93 39.09C117.26 38.47 117.43 37.75 117.43 36.92C117.43 36.09 117.26 35.37 116.93 34.76Z" fill="#C8A9F2"/>
<path d="M123.97 42.17C123.3 41.88 122.78 41.48 122.39 40.97C122 40.46 121.79 39.87 121.75 39.2H123.63C123.68 39.75 123.94 40.19 124.4 40.54C124.86 40.89 125.46 41.06 126.21 41.06C126.9 41.06 127.45 40.91 127.85 40.6C128.25 40.29 128.45 39.91 128.45 39.44C128.45 38.97 128.24 38.6 127.81 38.37C127.38 38.14 126.72 37.91 125.83 37.68C125.02 37.47 124.35 37.25 123.84 37.03C123.33 36.81 122.89 36.48 122.52 36.05C122.15 35.62 121.97 35.05 121.97 34.34C121.97 33.78 122.14 33.27 122.47 32.8C122.8 32.33 123.28 31.96 123.89 31.69C124.5 31.42 125.2 31.28 125.99 31.28C127.2 31.28 128.18 31.59 128.93 32.2C129.68 32.81 130.08 33.65 130.13 34.72H128.31C128.27 34.15 128.04 33.69 127.62 33.34C127.2 32.99 126.64 32.82 125.93 32.82C125.28 32.82 124.76 32.96 124.37 33.24C123.98 33.52 123.79 33.89 123.79 34.34C123.79 34.7 123.91 35 124.14 35.23C124.37 35.46 124.67 35.65 125.02 35.79C125.37 35.93 125.86 36.09 126.49 36.26C127.28 36.47 127.92 36.68 128.41 36.89C128.9 37.1 129.33 37.41 129.68 37.82C130.03 38.23 130.22 38.77 130.23 39.44C130.23 40.04 130.06 40.58 129.73 41.06C129.4 41.54 128.93 41.92 128.32 42.19C127.71 42.46 127.02 42.6 126.23 42.6C125.39 42.6 124.64 42.46 123.97 42.17Z" fill="#C8A9F2"/>
<path d="M134.41 42.17C133.74 41.88 133.22 41.48 132.83 40.97C132.44 40.46 132.23 39.87 132.19 39.2H134.07C134.12 39.75 134.38 40.19 134.84 40.54C135.3 40.89 135.9 41.06 136.65 41.06C137.34 41.06 137.89 40.91 138.29 40.6C138.69 40.29 138.89 39.91 138.89 39.44C138.89 38.97 138.68 38.6 138.25 38.37C137.82 38.14 137.16 37.91 136.27 37.68C135.46 37.47 134.79 37.25 134.28 37.03C133.77 36.81 133.33 36.48 132.96 36.05C132.59 35.62 132.41 35.05 132.41 34.34C132.41 33.78 132.58 33.27 132.91 32.8C133.24 32.33 133.72 31.96 134.33 31.69C134.94 31.42 135.64 31.28 136.43 31.28C137.64 31.28 138.62 31.59 139.37 32.2C140.12 32.81 140.52 33.65 140.57 34.72H138.75C138.71 34.15 138.48 33.69 138.06 33.34C137.64 32.99 137.08 32.82 136.37 32.82C135.72 32.82 135.2 32.96 134.81 33.24C134.42 33.52 134.23 33.89 134.23 34.34C134.23 34.7 134.35 35 134.58 35.23C134.81 35.46 135.11 35.65 135.46 35.79C135.81 35.93 136.3 36.09 136.93 36.26C137.72 36.47 138.36 36.68 138.85 36.89C139.34 37.1 139.77 37.41 140.12 37.82C140.47 38.23 140.66 38.77 140.67 39.44C140.67 40.04 140.5 40.58 140.17 41.06C139.84 41.54 139.37 41.92 138.76 42.19C138.15 42.46 137.46 42.6 136.67 42.6C135.83 42.6 135.08 42.46 134.41 42.17Z" fill="#C8A9F2"/>
<path d="M145.22 41.9C144.39 41.43 143.73 40.77 143.26 39.91C142.79 39.05 142.55 38.05 142.55 36.92C142.55 35.79 142.79 34.81 143.28 33.95C143.77 33.09 144.43 32.43 145.27 31.97C146.11 31.51 147.05 31.28 148.09 31.28C149.13 31.28 150.07 31.51 150.91 31.97C151.75 32.43 152.41 33.09 152.9 33.94C153.39 34.79 153.63 35.79 153.63 36.92C153.63 38.05 153.38 39.05 152.88 39.91C152.38 40.77 151.7 41.43 150.85 41.9C150 42.37 149.05 42.6 148.01 42.6C146.97 42.6 146.05 42.37 145.22 41.9ZM149.85 40.54C150.42 40.23 150.89 39.77 151.24 39.16C151.59 38.55 151.77 37.8 151.77 36.92C151.77 36.04 151.6 35.29 151.25 34.68C150.9 34.07 150.45 33.61 149.89 33.31C149.33 33.01 148.72 32.86 148.07 32.86C147.42 32.86 146.79 33.01 146.24 33.31C145.69 33.61 145.24 34.07 144.91 34.68C144.58 35.29 144.41 36.04 144.41 36.92C144.41 37.8 144.57 38.57 144.9 39.18C145.23 39.79 145.66 40.25 146.21 40.55C146.76 40.85 147.36 41 148.01 41C148.66 41 149.28 40.85 149.85 40.54Z" fill="#C8A9F2"/>
<path d="M121.91 498.12C122.97 498.66 123.78 499.43 124.34 500.43C124.9 501.43 125.19 502.61 125.19 503.96C125.19 505.31 124.91 506.49 124.34 507.48C123.77 508.47 122.96 509.23 121.91 509.76C120.85 510.29 119.6 510.55 118.16 510.55H114.04V497.31H118.16C119.6 497.31 120.85 497.58 121.91 498.12ZM122.07 507.78C122.97 506.87 123.42 505.6 123.42 503.97C123.42 502.34 122.97 501.04 122.06 500.11C121.15 499.19 119.85 498.72 118.16 498.72H115.77V509.13H118.16C119.87 509.13 121.17 508.68 122.07 507.77V507.78Z" fill="#424242"/>
<path d="M129.36 510.07C128.57 509.63 127.95 509 127.5 508.18C127.05 507.36 126.83 506.42 126.83 505.34C126.83 504.26 127.06 503.34 127.52 502.52C127.98 501.7 128.61 501.08 129.41 500.64C130.21 500.2 131.1 499.98 132.09 499.98C133.08 499.98 133.97 500.2 134.77 500.64C135.57 501.08 136.2 501.7 136.66 502.51C137.12 503.32 137.35 504.26 137.35 505.34C137.35 506.42 137.11 507.36 136.64 508.18C136.16 509 135.52 509.63 134.71 510.07C133.9 510.51 133 510.74 132.01 510.74C131.02 510.74 130.15 510.52 129.36 510.07ZM133.76 508.77C134.3 508.48 134.74 508.04 135.08 507.46C135.42 506.88 135.58 506.17 135.58 505.33C135.58 504.49 135.41 503.78 135.09 503.2C134.76 502.62 134.33 502.18 133.8 501.9C133.27 501.62 132.69 501.47 132.07 501.47C131.45 501.47 130.86 501.61 130.33 501.9C129.8 502.19 129.38 502.62 129.07 503.2C128.75 503.78 128.6 504.49 128.6 505.33C128.6 506.17 128.76 506.89 129.07 507.48C129.38 508.06 129.79 508.5 130.31 508.78C130.83 509.06 131.4 509.21 132.02 509.21C132.64 509.21 133.22 509.06 133.77 508.77H133.76Z" fill="#424242"/>
<path d="M142.92 500.57C143.6 500.18 144.38 499.98 145.26 499.98C146.2 499.98 147.04 500.2 147.79 500.65C148.54 501.09 149.13 501.72 149.56 502.52C149.99 503.32 150.21 504.26 150.21 505.32C150.21 506.38 149.99 507.31 149.56 508.13C149.13 508.95 148.54 509.59 147.78 510.05C147.02 510.51 146.19 510.73 145.26 510.73C144.33 510.73 143.57 510.53 142.89 510.14C142.21 509.75 141.7 509.25 141.36 508.64V510.56H139.63V496.5H141.36V502.09C141.71 501.47 142.23 500.96 142.92 500.57ZM147.95 503.26C147.63 502.68 147.21 502.23 146.67 501.93C146.13 501.63 145.54 501.47 144.89 501.47C144.24 501.47 143.67 501.63 143.13 501.94C142.59 502.25 142.16 502.7 141.84 503.29C141.52 503.88 141.36 504.56 141.36 505.33C141.36 506.1 141.52 506.8 141.84 507.39C142.16 507.98 142.59 508.43 143.13 508.74C143.67 509.05 144.25 509.21 144.89 509.21C145.53 509.21 146.13 509.05 146.67 508.74C147.21 508.43 147.63 507.98 147.95 507.39C148.27 506.8 148.42 506.11 148.42 505.31C148.42 504.51 148.26 503.84 147.95 503.26Z" fill="#424242"/>
<path d="M155.5 500.45C156.06 500.12 156.75 499.96 157.56 499.96V501.75H157.1C155.16 501.75 154.19 502.8 154.19 504.9V510.56H152.46V500.15H154.19V501.84C154.49 501.24 154.93 500.78 155.49 500.45H155.5Z" fill="#424242"/>
<path d="M169 506H160.68C160.74 507.03 161.1 507.83 161.73 508.4C162.36 508.97 163.15 509.26 164.06 509.26C164.81 509.26 165.43 509.09 165.93 508.74C166.43 508.39 166.78 507.93 166.98 507.34H168.84C168.56 508.34 168 509.15 167.17 509.78C166.34 510.41 165.29 510.72 164.05 510.72C163.06 510.72 162.18 510.5 161.4 510.05C160.62 509.6 160.01 508.98 159.57 508.16C159.13 507.34 158.9 506.4 158.9 505.32C158.9 504.24 159.11 503.3 159.55 502.49C159.99 501.68 160.59 501.06 161.36 500.62C162.14 500.18 163.03 499.96 164.05 499.96C165.07 499.96 165.91 500.18 166.67 500.61C167.43 501.04 168.02 501.63 168.43 502.39C168.84 503.14 169.05 504 169.05 504.94C169.05 505.27 169.03 505.62 168.99 505.99L169 506ZM166.84 502.89C166.55 502.41 166.15 502.05 165.65 501.81C165.15 501.56 164.6 501.44 163.99 501.44C163.12 501.44 162.37 501.72 161.76 502.28C161.15 502.84 160.79 503.61 160.71 504.6H167.28C167.28 503.94 167.13 503.37 166.84 502.9V502.89Z" fill="#424242"/>
<path d="M184.56 501.11C185.35 501.88 185.74 502.98 185.74 504.43V510.57H184.03V504.68C184.03 503.64 183.77 502.85 183.25 502.3C182.73 501.75 182.02 501.47 181.12 501.47C180.22 501.47 179.48 501.75 178.94 502.32C178.4 502.89 178.13 503.72 178.13 504.81V510.57H176.4V500.16H178.13V501.64C178.47 501.11 178.94 500.7 179.53 500.4C180.12 500.11 180.77 499.96 181.48 499.96C182.75 499.96 183.77 500.34 184.56 501.11Z" fill="#424242"/>
<path d="M190.46 510.07C189.67 509.63 189.05 509 188.6 508.18C188.15 507.36 187.93 506.42 187.93 505.34C187.93 504.26 188.16 503.34 188.62 502.52C189.08 501.7 189.71 501.08 190.51 500.64C191.31 500.2 192.2 499.98 193.19 499.98C194.18 499.98 195.07 500.2 195.87 500.64C196.67 501.08 197.3 501.7 197.76 502.51C198.22 503.32 198.45 504.26 198.45 505.34C198.45 506.42 198.21 507.36 197.74 508.18C197.26 509 196.62 509.63 195.81 510.07C195 510.51 194.1 510.74 193.11 510.74C192.12 510.74 191.25 510.52 190.46 510.07ZM194.86 508.77C195.4 508.48 195.84 508.04 196.18 507.46C196.52 506.88 196.68 506.17 196.68 505.33C196.68 504.49 196.51 503.78 196.19 503.2C195.86 502.62 195.43 502.18 194.9 501.9C194.37 501.62 193.79 501.47 193.17 501.47C192.55 501.47 191.96 501.61 191.43 501.9C190.9 502.19 190.48 502.62 190.17 503.2C189.85 503.78 189.7 504.49 189.7 505.33C189.7 506.17 189.86 506.89 190.17 507.48C190.48 508.06 190.89 508.5 191.41 508.78C191.93 509.06 192.5 509.21 193.12 509.21C193.74 509.21 194.32 509.06 194.87 508.77H194.86Z" fill="#424242"/>
<path d="M204.61 508.96L207.84 500.14H209.68L205.6 510.55H203.59L199.5 500.14H201.36L204.61 508.96Z" fill="#424242"/>
<path d="M211.39 502.51C211.82 501.71 212.41 501.08 213.17 500.64C213.93 500.2 214.76 499.97 215.69 499.97C216.62 499.97 217.39 500.17 218.07 500.56C218.74 500.95 219.24 501.45 219.57 502.04V500.14H221.32V510.55H219.57V508.61C219.23 509.22 218.72 509.72 218.04 510.12C217.36 510.52 216.57 510.72 215.67 510.72C214.77 510.72 213.91 510.49 213.16 510.04C212.41 509.58 211.82 508.94 211.39 508.12C210.96 507.3 210.74 506.36 210.74 505.31C210.74 504.26 210.95 503.31 211.39 502.51ZM219.09 503.28C218.77 502.7 218.35 502.25 217.81 501.94C217.27 501.63 216.68 501.47 216.03 501.47C215.38 501.47 214.8 501.62 214.26 501.93C213.72 502.24 213.3 502.68 212.99 503.26C212.68 503.84 212.52 504.53 212.52 505.31C212.52 506.09 212.68 506.8 212.99 507.39C213.31 507.98 213.73 508.43 214.26 508.74C214.79 509.05 215.38 509.21 216.03 509.21C216.68 509.21 217.27 509.05 217.81 508.74C218.35 508.43 218.77 507.98 219.09 507.39C219.41 506.8 219.56 506.11 219.56 505.33C219.56 504.55 219.4 503.86 219.09 503.28Z" fill="#424242"/>
<path d="M238.92 500.46C239.55 500.8 240.05 501.3 240.42 501.97C240.79 502.64 240.97 503.46 240.97 504.42V510.56H239.26V504.67C239.26 503.63 239 502.84 238.49 502.29C237.98 501.74 237.28 501.46 236.41 501.46C235.54 501.46 234.8 501.75 234.26 502.32C233.72 502.89 233.46 503.73 233.46 504.82V510.56H231.75V504.67C231.75 503.63 231.49 502.84 230.98 502.29C230.47 501.74 229.77 501.46 228.9 501.46C228.03 501.46 227.29 501.75 226.75 502.32C226.21 502.89 225.95 503.73 225.95 504.82V510.56H224.22V500.15H225.95V501.65C226.29 501.11 226.75 500.69 227.33 500.4C227.91 500.11 228.54 499.96 229.24 499.96C230.11 499.96 230.89 500.16 231.56 500.55C232.23 500.94 232.73 501.52 233.06 502.28C233.35 501.55 233.83 500.98 234.5 500.57C235.17 500.16 235.92 499.96 236.74 499.96C237.56 499.96 238.27 500.13 238.91 500.46H238.92Z" fill="#424242"/>
<path d="M253.25 506H244.93C244.99 507.03 245.35 507.83 245.98 508.4C246.61 508.97 247.4 509.26 248.31 509.26C249.06 509.26 249.68 509.09 250.18 508.74C250.68 508.39 251.03 507.93 251.23 507.34H253.09C252.81 508.34 252.25 509.15 251.42 509.78C250.59 510.41 249.54 510.72 248.3 510.72C247.31 510.72 246.43 510.5 245.65 510.05C244.87 509.6 244.26 508.98 243.82 508.16C243.38 507.34 243.15 506.4 243.15 505.32C243.15 504.24 243.36 503.3 243.8 502.49C244.24 501.68 244.84 501.06 245.61 500.62C246.39 500.18 247.28 499.96 248.3 499.96C249.32 499.96 250.16 500.18 250.92 500.61C251.68 501.04 252.27 501.63 252.68 502.39C253.09 503.14 253.3 504 253.3 504.94C253.3 505.27 253.28 505.62 253.24 505.99L253.25 506ZM251.08 502.89C250.79 502.41 250.39 502.05 249.89 501.81C249.39 501.56 248.84 501.44 248.23 501.44C247.36 501.44 246.61 501.72 246 502.28C245.39 502.84 245.03 503.61 244.95 504.6H251.52C251.52 503.94 251.37 503.37 251.08 502.9V502.89Z" fill="#424242"/>
<path d="M263.74 501.11C264.53 501.88 264.92 502.98 264.92 504.43V510.57H263.21V504.68C263.21 503.64 262.95 502.85 262.43 502.3C261.91 501.75 261.2 501.47 260.3 501.47C259.4 501.47 258.66 501.75 258.12 502.32C257.58 502.89 257.31 503.72 257.31 504.81V510.57H255.58V500.16H257.31V501.64C257.65 501.11 258.12 500.7 258.71 500.4C259.3 500.11 259.95 499.96 260.66 499.96C261.93 499.96 262.95 500.34 263.74 501.11Z" fill="#424242"/>
<path d="M269.86 501.57V507.71C269.86 508.22 269.97 508.57 270.18 508.78C270.4 508.99 270.77 509.09 271.3 509.09H272.57V510.55H271.01C270.05 510.55 269.32 510.33 268.84 509.88C268.36 509.44 268.12 508.71 268.12 507.7V501.56H266.77V500.14H268.12V497.52H269.85V500.14H272.57V501.56H269.85L269.86 501.57Z" fill="#424242"/>
<path d="M284.11 506H275.79C275.85 507.03 276.21 507.83 276.84 508.4C277.47 508.97 278.26 509.26 279.17 509.26C279.92 509.26 280.54 509.09 281.04 508.74C281.54 508.39 281.89 507.93 282.09 507.34H283.95C283.67 508.34 283.11 509.15 282.28 509.78C281.45 510.41 280.4 510.72 279.16 510.72C278.17 510.72 277.29 510.5 276.51 510.05C275.73 509.6 275.12 508.98 274.68 508.16C274.24 507.34 274.01 506.4 274.01 505.32C274.01 504.24 274.22 503.3 274.66 502.49C275.1 501.68 275.7 501.06 276.47 500.62C277.25 500.18 278.14 499.96 279.16 499.96C280.18 499.96 281.02 500.18 281.78 500.61C282.54 501.04 283.13 501.63 283.54 502.39C283.95 503.14 284.16 504 284.16 504.94C284.16 505.27 284.14 505.62 284.1 505.99L284.11 506ZM281.94 502.89C281.65 502.41 281.25 502.05 280.75 501.81C280.25 501.56 279.7 501.44 279.09 501.44C278.22 501.44 277.47 501.72 276.86 502.28C276.25 502.84 275.89 503.61 275.81 504.6H282.38C282.38 503.94 282.23 503.37 281.94 502.9V502.89Z" fill="#424242"/>
<path d="M291.51 502.51C291.94 501.71 292.53 501.08 293.29 500.64C294.05 500.2 294.88 499.97 295.81 499.97C296.74 499.97 297.51 500.17 298.19 500.56C298.86 500.95 299.36 501.45 299.69 502.04V500.14H301.44V510.55H299.69V508.61C299.35 509.22 298.84 509.72 298.16 510.12C297.48 510.52 296.69 510.72 295.79 510.72C294.89 510.72 294.03 510.49 293.28 510.04C292.53 509.58 291.94 508.94 291.51 508.12C291.08 507.3 290.86 506.36 290.86 505.31C290.86 504.26 291.07 503.31 291.51 502.51ZM299.21 503.28C298.89 502.7 298.47 502.25 297.93 501.94C297.39 501.63 296.8 501.47 296.15 501.47C295.5 501.47 294.92 501.62 294.38 501.93C293.84 502.24 293.42 502.68 293.11 503.26C292.8 503.84 292.64 504.53 292.64 505.31C292.64 506.09 292.8 506.8 293.11 507.39C293.43 507.98 293.85 508.43 294.38 508.74C294.91 509.05 295.5 509.21 296.15 509.21C296.8 509.21 297.39 509.05 297.93 508.74C298.47 508.43 298.89 507.98 299.21 507.39C299.53 506.8 299.68 506.11 299.68 505.33C299.68 504.55 299.52 503.86 299.21 503.28Z" fill="#424242"/>
<path d="M306.25 510.07C305.46 509.63 304.84 509 304.39 508.18C303.94 507.36 303.72 506.42 303.72 505.34C303.72 504.26 303.95 503.34 304.41 502.52C304.87 501.7 305.5 501.08 306.3 500.64C307.1 500.2 307.99 499.98 308.98 499.98C309.97 499.98 310.86 500.2 311.66 500.64C312.46 501.08 313.09 501.7 313.55 502.51C314.01 503.32 314.24 504.26 314.24 505.34C314.24 506.42 314 507.36 313.53 508.18C313.05 509 312.41 509.63 311.6 510.07C310.79 510.51 309.89 510.74 308.9 510.74C307.91 510.74 307.04 510.52 306.25 510.07ZM310.65 508.77C311.19 508.48 311.63 508.04 311.97 507.46C312.31 506.88 312.47 506.17 312.47 505.33C312.47 504.49 312.3 503.78 311.98 503.2C311.65 502.62 311.22 502.18 310.69 501.9C310.16 501.62 309.58 501.47 308.96 501.47C308.34 501.47 307.75 501.61 307.22 501.9C306.69 502.19 306.27 502.62 305.96 503.2C305.64 503.78 305.49 504.49 305.49 505.33C305.49 506.17 305.65 506.89 305.96 507.48C306.27 508.06 306.68 508.5 307.2 508.78C307.72 509.06 308.29 509.21 308.91 509.21C309.53 509.21 310.11 509.06 310.66 508.77H310.65Z" fill="#424242"/>
<path d="M336.28 500.46C336.91 500.8 337.41 501.3 337.78 501.97C338.15 502.64 338.33 503.46 338.33 504.42V510.56H336.62V504.67C336.62 503.63 336.36 502.84 335.85 502.29C335.34 501.74 334.64 501.46 333.77 501.46C332.9 501.46 332.16 501.75 331.62 502.32C331.08 502.89 330.82 503.73 330.82 504.82V510.56H329.11V504.67C329.11 503.63 328.85 502.84 328.34 502.29C327.83 501.74 327.13 501.46 326.26 501.46C325.39 501.46 324.65 501.75 324.11 502.32C323.57 502.89 323.31 503.73 323.31 504.82V510.56H321.58V500.15H323.31V501.65C323.65 501.11 324.11 500.69 324.69 500.4C325.27 500.11 325.9 499.96 326.6 499.96C327.47 499.96 328.25 500.16 328.92 500.55C329.59 500.94 330.09 501.52 330.42 502.28C330.71 501.55 331.19 500.98 331.86 500.57C332.53 500.16 333.28 499.96 334.1 499.96C334.92 499.96 335.63 500.13 336.27 500.46H336.28Z" fill="#424242"/>
<path d="M350.6 506H342.28C342.34 507.03 342.7 507.83 343.33 508.4C343.96 508.97 344.75 509.26 345.66 509.26C346.41 509.26 347.03 509.09 347.53 508.74C348.03 508.39 348.38 507.93 348.58 507.34H350.44C350.16 508.34 349.6 509.15 348.77 509.78C347.94 510.41 346.89 510.72 345.65 510.72C344.66 510.72 343.78 510.5 343 510.05C342.22 509.6 341.61 508.98 341.17 508.16C340.73 507.34 340.5 506.4 340.5 505.32C340.5 504.24 340.71 503.3 341.15 502.49C341.59 501.68 342.19 501.06 342.96 500.62C343.74 500.18 344.63 499.96 345.65 499.96C346.67 499.96 347.51 500.18 348.27 500.61C349.03 501.04 349.62 501.63 350.03 502.39C350.44 503.14 350.65 504 350.65 504.94C350.65 505.27 350.63 505.62 350.59 505.99L350.6 506ZM348.44 502.89C348.15 502.41 347.75 502.05 347.25 501.81C346.75 501.56 346.2 501.44 345.59 501.44C344.72 501.44 343.97 501.72 343.36 502.28C342.75 502.84 342.39 503.61 342.31 504.6H348.88C348.88 503.94 348.73 503.37 348.44 502.9V502.89Z" fill="#424242"/>
<path d="M353 498.11C352.77 497.88 352.66 497.6 352.66 497.27C352.66 496.94 352.77 496.66 353 496.43C353.23 496.2 353.51 496.09 353.84 496.09C354.17 496.09 354.42 496.2 354.65 496.43C354.87 496.66 354.98 496.94 354.98 497.27C354.98 497.6 354.87 497.88 354.65 498.11C354.43 498.34 354.16 498.45 353.84 498.45C353.52 498.45 353.23 498.34 353 498.11ZM354.67 500.15V510.56H352.94V500.15H354.67Z" fill="#424242"/>
<path d="M359.51 510.07C358.72 509.63 358.1 509 357.65 508.18C357.2 507.36 356.98 506.42 356.98 505.34C356.98 504.26 357.21 503.34 357.67 502.52C358.13 501.7 358.76 501.08 359.56 500.64C360.36 500.2 361.25 499.98 362.24 499.98C363.23 499.98 364.12 500.2 364.92 500.64C365.72 501.08 366.35 501.7 366.81 502.51C367.27 503.32 367.5 504.26 367.5 505.34C367.5 506.42 367.26 507.36 366.79 508.18C366.31 509 365.67 509.63 364.86 510.07C364.05 510.51 363.15 510.74 362.16 510.74C361.17 510.74 360.3 510.52 359.51 510.07ZM363.9 508.77C364.44 508.48 364.88 508.04 365.22 507.46C365.56 506.88 365.72 506.17 365.72 505.33C365.72 504.49 365.55 503.78 365.23 503.2C364.9 502.62 364.47 502.18 363.94 501.9C363.41 501.62 362.83 501.47 362.21 501.47C361.59 501.47 361 501.61 360.47 501.9C359.94 502.19 359.52 502.62 359.21 503.2C358.89 503.78 358.74 504.49 358.74 505.33C358.74 506.17 358.9 506.89 359.21 507.48C359.52 508.06 359.93 508.5 360.45 508.78C360.97 509.06 361.54 509.21 362.16 509.21C362.78 509.21 363.36 509.06 363.91 508.77H363.9Z" fill="#424242"/>
<path d="M378.11 500.58C378.79 500.18 379.58 499.98 380.48 499.98C381.38 499.98 382.24 500.2 383 500.65C383.76 501.1 384.35 501.72 384.78 502.52C385.21 503.32 385.43 504.26 385.43 505.32C385.43 506.38 385.21 507.31 384.78 508.13C384.35 508.95 383.76 509.59 383 510.05C382.24 510.51 381.41 510.73 380.48 510.73C379.55 510.73 378.81 510.53 378.13 510.13C377.45 509.73 376.94 509.23 376.58 508.64V515.5H374.85V500.15H376.58V502.07C376.92 501.48 377.43 500.98 378.11 500.58ZM383.17 503.26C382.85 502.68 382.43 502.23 381.89 501.93C381.35 501.63 380.76 501.47 380.11 501.47C379.46 501.47 378.89 501.63 378.35 501.94C377.81 502.25 377.38 502.7 377.06 503.29C376.74 503.88 376.58 504.56 376.58 505.33C376.58 506.1 376.74 506.8 377.06 507.39C377.38 507.98 377.81 508.43 378.35 508.74C378.89 509.05 379.47 509.21 380.11 509.21C380.75 509.21 381.35 509.05 381.89 508.74C382.43 508.43 382.85 507.98 383.17 507.39C383.49 506.8 383.64 506.11 383.64 505.31C383.64 504.51 383.48 503.84 383.17 503.26Z" fill="#424242"/>
<path d="M387.69 502.51C388.12 501.71 388.71 501.08 389.47 500.64C390.23 500.2 391.06 499.97 391.99 499.97C392.92 499.97 393.69 500.17 394.37 500.56C395.04 500.95 395.54 501.45 395.87 502.04V500.14H397.62V510.55H395.87V508.61C395.53 509.22 395.02 509.72 394.34 510.12C393.66 510.52 392.87 510.72 391.97 510.72C391.07 510.72 390.21 510.49 389.46 510.04C388.71 509.58 388.12 508.94 387.69 508.12C387.26 507.3 387.04 506.36 387.04 505.31C387.04 504.26 387.25 503.31 387.69 502.51ZM395.39 503.28C395.07 502.7 394.65 502.25 394.11 501.94C393.57 501.63 392.98 501.47 392.33 501.47C391.68 501.47 391.1 501.62 390.56 501.93C390.02 502.24 389.6 502.68 389.29 503.26C388.98 503.84 388.82 504.53 388.82 505.31C388.82 506.09 388.98 506.8 389.29 507.39C389.61 507.98 390.03 508.43 390.56 508.74C391.09 509.05 391.68 509.21 392.33 509.21C392.98 509.21 393.57 509.05 394.11 508.74C394.65 508.43 395.07 507.98 395.39 507.39C395.71 506.8 395.86 506.11 395.86 505.33C395.86 504.55 395.7 503.86 395.39 503.28Z" fill="#424242"/>
<path d="M403.57 500.45C404.13 500.12 404.82 499.96 405.63 499.96V501.75H405.17C403.23 501.75 402.26 502.8 402.26 504.9V510.56H400.53V500.15H402.26V501.84C402.56 501.24 403 500.78 403.56 500.45H403.57Z" fill="#424242"/>
<path d="M407.62 502.51C408.05 501.71 408.64 501.08 409.4 500.64C410.16 500.2 410.99 499.97 411.92 499.97C412.85 499.97 413.62 500.17 414.3 500.56C414.97 500.95 415.47 501.45 415.8 502.04V500.14H417.55V510.55H415.8V508.61C415.46 509.22 414.95 509.72 414.27 510.12C413.59 510.52 412.8 510.72 411.9 510.72C411 510.72 410.14 510.49 409.39 510.04C408.64 509.58 408.05 508.94 407.62 508.12C407.19 507.3 406.97 506.36 406.97 505.31C406.97 504.26 407.18 503.31 407.62 502.51ZM415.32 503.28C415 502.7 414.58 502.25 414.04 501.94C413.5 501.63 412.91 501.47 412.26 501.47C411.61 501.47 411.03 501.62 410.49 501.93C409.95 502.24 409.53 502.68 409.22 503.26C408.91 503.84 408.75 504.53 408.75 505.31C408.75 506.09 408.91 506.8 409.22 507.39C409.54 507.98 409.96 508.43 410.49 508.74C411.02 509.05 411.61 509.21 412.26 509.21C412.91 509.21 413.5 509.05 414.04 508.74C414.58 508.43 415 507.98 415.32 507.39C415.64 506.8 415.79 506.11 415.79 505.33C415.79 504.55 415.63 503.86 415.32 503.28Z" fill="#424242"/>
<path d="M440.23 500.46C440.86 500.8 441.36 501.3 441.73 501.97C442.1 502.64 442.28 503.46 442.28 504.42V510.56H440.57V504.67C440.57 503.63 440.31 502.84 439.8 502.29C439.29 501.74 438.59 501.46 437.72 501.46C436.85 501.46 436.11 501.75 435.57 502.32C435.03 502.89 434.77 503.73 434.77 504.82V510.56H433.06V504.67C433.06 503.63 432.8 502.84 432.29 502.29C431.78 501.74 431.08 501.46 430.21 501.46C429.34 501.46 428.6 501.75 428.06 502.32C427.52 502.89 427.26 503.73 427.26 504.82V510.56H425.53V500.15H427.26V501.65C427.6 501.11 428.06 500.69 428.64 500.4C429.22 500.11 429.85 499.96 430.55 499.96C431.42 499.96 432.2 500.16 432.87 500.55C433.54 500.94 434.04 501.52 434.37 502.28C434.66 501.55 435.14 500.98 435.81 500.57C436.48 500.16 437.23 499.96 438.05 499.96C438.87 499.96 439.58 500.13 440.22 500.46H440.23Z" fill="#424242"/>
<path d="M445.11 502.51C445.54 501.71 446.13 501.08 446.89 500.64C447.65 500.2 448.48 499.97 449.41 499.97C450.34 499.97 451.11 500.17 451.79 500.56C452.46 500.95 452.96 501.45 453.29 502.04V500.14H455.04V510.55H453.29V508.61C452.95 509.22 452.44 509.72 451.76 510.12C451.08 510.52 450.29 510.72 449.39 510.72C448.49 510.72 447.63 510.49 446.88 510.04C446.13 509.58 445.54 508.94 445.11 508.12C444.68 507.3 444.46 506.36 444.46 505.31C444.46 504.26 444.67 503.31 445.11 502.51ZM452.8 503.28C452.48 502.7 452.06 502.25 451.52 501.94C450.98 501.63 450.39 501.47 449.74 501.47C449.09 501.47 448.51 501.62 447.97 501.93C447.43 502.24 447.01 502.68 446.7 503.26C446.39 503.84 446.23 504.53 446.23 505.31C446.23 506.09 446.39 506.8 446.7 507.39C447.02 507.98 447.44 508.43 447.97 508.74C448.5 509.05 449.09 509.21 449.74 509.21C450.39 509.21 450.98 509.05 451.52 508.74C452.06 508.43 452.48 507.98 452.8 507.39C453.12 506.8 453.27 506.11 453.27 505.33C453.27 504.55 453.11 503.86 452.8 503.28Z" fill="#424242"/>
<path d="M460.98 500.45C461.54 500.12 462.23 499.96 463.04 499.96V501.75H462.58C460.64 501.75 459.67 502.8 459.67 504.9V510.56H457.94V500.15H459.67V501.84C459.97 501.24 460.41 500.78 460.97 500.45H460.98Z" fill="#424242"/>
<path d="M465.04 502.51C465.47 501.71 466.07 501.08 466.84 500.64C467.61 500.2 468.48 499.97 469.47 499.97C470.75 499.97 471.8 500.28 472.63 500.9C473.46 501.52 474.01 502.38 474.27 503.48H472.41C472.23 502.85 471.89 502.35 471.37 501.98C470.86 501.61 470.22 501.43 469.46 501.43C468.47 501.43 467.67 501.77 467.07 502.45C466.46 503.13 466.16 504.09 466.16 505.33C466.16 506.57 466.46 507.55 467.07 508.24C467.68 508.92 468.48 509.27 469.46 509.27C470.22 509.27 470.85 509.09 471.36 508.74C471.87 508.39 472.21 507.88 472.4 507.22H474.26C473.98 508.28 473.42 509.14 472.59 509.78C471.76 510.42 470.71 510.74 469.45 510.74C468.46 510.74 467.58 510.52 466.82 510.07C466.05 509.63 465.45 509 465.02 508.19C464.59 507.38 464.37 506.43 464.37 505.34C464.37 504.25 464.58 503.32 465.02 502.52L465.04 502.51Z" fill="#424242"/>
<path d="M476.57 502.51C477 501.71 477.59 501.08 478.35 500.64C479.11 500.2 479.94 499.97 480.87 499.97C481.8 499.97 482.57 500.17 483.25 500.56C483.92 500.95 484.42 501.45 484.75 502.04V500.14H486.5V510.55H484.75V508.61C484.41 509.22 483.9 509.72 483.22 510.12C482.54 510.52 481.75 510.72 480.85 510.72C479.95 510.72 479.09 510.49 478.34 510.04C477.59 509.58 477 508.94 476.57 508.12C476.14 507.3 475.92 506.36 475.92 505.31C475.92 504.26 476.13 503.31 476.57 502.51ZM484.27 503.28C483.95 502.7 483.53 502.25 482.99 501.94C482.45 501.63 481.86 501.47 481.21 501.47C480.56 501.47 479.98 501.62 479.44 501.93C478.9 502.24 478.48 502.68 478.17 503.26C477.86 503.84 477.7 504.53 477.7 505.31C477.7 506.09 477.86 506.8 478.17 507.39C478.49 507.98 478.91 508.43 479.44 508.74C479.97 509.05 480.56 509.21 481.21 509.21C481.86 509.21 482.45 509.05 482.99 508.74C483.53 508.43 483.95 507.98 484.27 507.39C484.59 506.8 484.74 506.11 484.74 505.33C484.74 504.55 484.58 503.86 484.27 503.28Z" fill="#424242"/>
<path d="M492.45 500.45C493.01 500.12 493.7 499.96 494.51 499.96V501.75H494.05C492.11 501.75 491.14 502.8 491.14 504.9V510.56H489.41V500.15H491.14V501.84C491.44 501.24 491.88 500.78 492.44 500.45H492.45Z" fill="#424242"/>
<path d="M65.7 532.87C64.91 532.43 64.29 531.8 63.84 530.98C63.39 530.16 63.1699 529.22 63.1699 528.14C63.1699 527.06 63.3999 526.14 63.8599 525.32C64.3199 524.5 64.9499 523.88 65.7499 523.44C66.5499 523 67.4399 522.78 68.4299 522.78C69.4199 522.78 70.3099 523 71.1099 523.44C71.9099 523.88 72.5399 524.5 72.9999 525.31C73.4599 526.12 73.6899 527.06 73.6899 528.14C73.6899 529.22 73.4499 530.16 72.9799 530.98C72.4999 531.8 71.8599 532.43 71.0499 532.87C70.2399 533.31 69.3399 533.54 68.3499 533.54C67.3599 533.54 66.49 533.32 65.7 532.87ZM70.0999 531.57C70.6399 531.28 71.0799 530.84 71.4199 530.26C71.7599 529.68 71.9199 528.97 71.9199 528.13C71.9199 527.29 71.7499 526.58 71.4299 526C71.0999 525.42 70.67 524.98 70.14 524.7C69.61 524.42 69.0299 524.27 68.4099 524.27C67.7899 524.27 67.1999 524.41 66.6699 524.7C66.1399 524.99 65.7199 525.42 65.4099 526C65.0899 526.58 64.9399 527.29 64.9399 528.13C64.9399 528.97 65.0999 529.69 65.4099 530.28C65.7199 530.86 66.13 531.3 66.65 531.58C67.17 531.86 67.7399 532.01 68.3599 532.01C68.9799 532.01 69.5599 531.86 70.1099 531.57H70.0999Z" fill="#424242"/>
<path d="M81.0399 525.31C81.4699 524.51 82.0699 523.88 82.8399 523.44C83.6099 523 84.4798 522.77 85.4698 522.77C86.7498 522.77 87.7999 523.08 88.6299 523.7C89.4599 524.32 90.0099 525.18 90.2699 526.28H88.4099C88.2299 525.65 87.8899 525.15 87.3699 524.78C86.8599 524.41 86.2199 524.23 85.4599 524.23C84.4699 524.23 83.6699 524.57 83.0699 525.25C82.4599 525.93 82.1599 526.89 82.1599 528.13C82.1599 529.37 82.4599 530.35 83.0699 531.04C83.6799 531.72 84.4799 532.07 85.4599 532.07C86.2199 532.07 86.8499 531.89 87.3599 531.54C87.8699 531.19 88.2099 530.68 88.3999 530.02H90.2599C89.9799 531.08 89.4199 531.94 88.5899 532.58C87.7599 533.22 86.7099 533.54 85.4499 533.54C84.4599 533.54 83.5799 533.32 82.8199 532.87C82.0499 532.43 81.4499 531.8 81.0199 530.99C80.5899 530.18 80.3699 529.23 80.3699 528.14C80.3699 527.05 80.5799 526.12 81.0199 525.32L81.0399 525.31Z" fill="#424242"/>
<path d="M102.02 528.8H93.7C93.76 529.83 94.1199 530.63 94.7499 531.2C95.3799 531.77 96.17 532.06 97.08 532.06C97.83 532.06 98.45 531.89 98.95 531.54C99.45 531.19 99.7999 530.73 99.9999 530.14H101.86C101.58 531.14 101.02 531.95 100.19 532.58C99.3599 533.21 98.3099 533.52 97.0699 533.52C96.0799 533.52 95.1999 533.3 94.4199 532.85C93.6399 532.4 93.03 531.78 92.59 530.96C92.15 530.14 91.9199 529.2 91.9199 528.12C91.9199 527.04 92.1299 526.1 92.5699 525.29C93.0099 524.48 93.6099 523.86 94.3799 523.42C95.1599 522.98 96.0499 522.76 97.0699 522.76C98.0899 522.76 98.9299 522.98 99.6899 523.41C100.45 523.84 101.04 524.43 101.45 525.19C101.86 525.94 102.07 526.8 102.07 527.74C102.07 528.07 102.05 528.42 102.01 528.79L102.02 528.8ZM99.8499 525.69C99.5599 525.21 99.1599 524.85 98.6599 524.61C98.1599 524.36 97.6099 524.24 96.9999 524.24C96.1299 524.24 95.38 524.52 94.77 525.08C94.16 525.64 93.7999 526.41 93.7199 527.4H100.29C100.29 526.74 100.14 526.17 99.8499 525.7V525.69Z" fill="#424242"/>
<path d="M112.51 523.91C113.3 524.68 113.69 525.78 113.69 527.23V533.37H111.98V527.48C111.98 526.44 111.72 525.65 111.2 525.1C110.68 524.55 109.97 524.27 109.07 524.27C108.17 524.27 107.43 524.55 106.89 525.12C106.35 525.69 106.08 526.52 106.08 527.61V533.37H104.35V522.96H106.08V524.44C106.42 523.91 106.89 523.5 107.48 523.2C108.07 522.91 108.72 522.76 109.43 522.76C110.7 522.76 111.72 523.14 112.51 523.91Z" fill="#424242"/>
<path d="M118.63 524.37V530.51C118.63 531.02 118.74 531.37 118.95 531.58C119.17 531.79 119.54 531.89 120.07 531.89H121.34V533.35H119.78C118.82 533.35 118.09 533.13 117.61 532.68C117.13 532.24 116.89 531.51 116.89 530.5V524.36H115.54V522.94H116.89V520.32H118.62V522.94H121.34V524.36H118.62L118.63 524.37Z" fill="#424242"/>
<path d="M126.46 523.25C127.02 522.92 127.71 522.76 128.52 522.76V524.55H128.06C126.12 524.55 125.15 525.6 125.15 527.7V533.36H123.42V522.95H125.15V524.64C125.45 524.04 125.89 523.58 126.45 523.25H126.46Z" fill="#424242"/>
<path d="M132.41 532.87C131.62 532.43 131 531.8 130.55 530.98C130.1 530.16 129.88 529.22 129.88 528.14C129.88 527.06 130.11 526.14 130.57 525.32C131.03 524.5 131.66 523.88 132.46 523.44C133.26 523 134.15 522.78 135.14 522.78C136.13 522.78 137.02 523 137.82 523.44C138.62 523.88 139.25 524.5 139.71 525.31C140.17 526.12 140.4 527.06 140.4 528.14C140.4 529.22 140.16 530.16 139.69 530.98C139.21 531.8 138.57 532.43 137.76 532.87C136.95 533.31 136.05 533.54 135.06 533.54C134.07 533.54 133.2 533.32 132.41 532.87ZM136.81 531.57C137.35 531.28 137.79 530.84 138.13 530.26C138.47 529.68 138.63 528.97 138.63 528.13C138.63 527.29 138.46 526.58 138.14 526C137.81 525.42 137.38 524.98 136.85 524.7C136.32 524.42 135.74 524.27 135.12 524.27C134.5 524.27 133.91 524.41 133.38 524.7C132.85 524.99 132.43 525.42 132.12 526C131.8 526.58 131.65 527.29 131.65 528.13C131.65 528.97 131.81 529.69 132.12 530.28C132.43 530.86 132.84 531.3 133.36 531.58C133.88 531.86 134.45 532.01 135.07 532.01C135.69 532.01 136.27 531.86 136.82 531.57H136.81Z" fill="#424242"/>
<path d="M144.47 530.97L142.34 536.08H141.18L142.57 530.97H144.47Z" fill="#424242"/>
<path d="M160.96 528.8H152.64C152.7 529.83 153.06 530.63 153.69 531.2C154.32 531.77 155.11 532.06 156.02 532.06C156.77 532.06 157.39 531.89 157.89 531.54C158.39 531.19 158.74 530.73 158.94 530.14H160.8C160.52 531.14 159.96 531.95 159.13 532.58C158.3 533.21 157.25 533.52 156.01 533.52C155.02 533.52 154.14 533.3 153.36 532.85C152.58 532.4 151.97 531.78 151.53 530.96C151.09 530.14 150.86 529.2 150.86 528.12C150.86 527.04 151.07 526.1 151.51 525.29C151.95 524.48 152.55 523.86 153.32 523.42C154.1 522.98 154.99 522.76 156.01 522.76C157.03 522.76 157.87 522.98 158.63 523.41C159.39 523.84 159.98 524.43 160.39 525.19C160.8 525.94 161.01 526.8 161.01 527.74C161.01 528.07 160.99 528.42 160.95 528.79L160.96 528.8ZM158.79 525.69C158.5 525.21 158.1 524.85 157.6 524.61C157.1 524.36 156.55 524.24 155.94 524.24C155.07 524.24 154.32 524.52 153.71 525.08C153.1 525.64 152.74 526.41 152.66 527.4H159.23C159.23 526.74 159.08 526.17 158.79 525.7V525.69Z" fill="#424242"/>
<path d="M177.98 523.26C178.61 523.6 179.11 524.1 179.48 524.77C179.85 525.44 180.03 526.26 180.03 527.22V533.36H178.32V527.47C178.32 526.43 178.06 525.64 177.55 525.09C177.04 524.54 176.34 524.26 175.47 524.26C174.6 524.26 173.86 524.55 173.32 525.12C172.78 525.69 172.52 526.53 172.52 527.62V533.36H170.81V527.47C170.81 526.43 170.55 525.64 170.04 525.09C169.53 524.54 168.83 524.26 167.96 524.26C167.09 524.26 166.35 524.55 165.81 525.12C165.27 525.69 165.01 526.53 165.01 527.62V533.36H163.28V522.95H165.01V524.45C165.35 523.91 165.81 523.49 166.39 523.2C166.97 522.91 167.6 522.76 168.3 522.76C169.17 522.76 169.95 522.96 170.62 523.35C171.29 523.74 171.79 524.32 172.12 525.08C172.41 524.35 172.89 523.78 173.56 523.37C174.23 522.96 174.98 522.76 175.8 522.76C176.62 522.76 177.33 522.93 177.97 523.26H177.98Z" fill="#424242"/>
<path d="M189.48 533.12C188.85 532.85 188.35 532.47 187.98 531.98C187.61 531.49 187.41 530.93 187.37 530.3H189.16C189.21 530.82 189.45 531.24 189.89 531.57C190.33 531.9 190.9 532.06 191.61 532.06C192.27 532.06 192.79 531.91 193.17 531.62C193.55 531.33 193.74 530.96 193.74 530.52C193.74 530.08 193.54 529.73 193.13 529.5C192.72 529.28 192.1 529.06 191.25 528.84C190.48 528.64 189.85 528.43 189.36 528.22C188.87 528.01 188.45 527.7 188.11 527.29C187.76 526.88 187.59 526.34 187.59 525.67C187.59 525.14 187.75 524.65 188.07 524.21C188.39 523.77 188.84 523.42 189.42 523.16C190 522.9 190.67 522.77 191.42 522.77C192.57 522.77 193.5 523.06 194.21 523.64C194.92 524.22 195.3 525.02 195.35 526.03H193.62C193.58 525.49 193.36 525.05 192.96 524.72C192.56 524.39 192.03 524.23 191.35 524.23C190.73 524.23 190.23 524.36 189.87 524.63C189.5 524.9 189.32 525.24 189.32 525.67C189.32 526.01 189.43 526.29 189.65 526.52C189.87 526.75 190.15 526.92 190.49 527.05C190.83 527.18 191.29 527.33 191.89 527.5C192.64 527.7 193.24 527.9 193.71 528.1C194.18 528.3 194.58 528.59 194.92 528.98C195.25 529.37 195.43 529.89 195.44 530.52C195.44 531.09 195.28 531.6 194.96 532.06C194.64 532.52 194.2 532.87 193.62 533.13C193.04 533.39 192.38 533.52 191.63 533.52C190.83 533.52 190.12 533.38 189.48 533.11V533.12Z" fill="#424242"/>
<path d="M207.3 528.8H198.98C199.04 529.83 199.4 530.63 200.03 531.2C200.66 531.77 201.45 532.06 202.36 532.06C203.11 532.06 203.73 531.89 204.23 531.54C204.73 531.19 205.08 530.73 205.28 530.14H207.14C206.86 531.14 206.3 531.95 205.47 532.58C204.64 533.21 203.59 533.52 202.35 533.52C201.36 533.52 200.48 533.3 199.7 532.85C198.92 532.4 198.31 531.78 197.87 530.96C197.43 530.14 197.2 529.2 197.2 528.12C197.2 527.04 197.41 526.1 197.85 525.29C198.29 524.48 198.89 523.86 199.66 523.42C200.44 522.98 201.33 522.76 202.35 522.76C203.37 522.76 204.21 522.98 204.97 523.41C205.73 523.84 206.32 524.43 206.73 525.19C207.14 525.94 207.35 526.8 207.35 527.74C207.35 528.07 207.33 528.42 207.29 528.79L207.3 528.8ZM205.13 525.69C204.84 525.21 204.44 524.85 203.94 524.61C203.44 524.36 202.89 524.24 202.28 524.24C201.41 524.24 200.66 524.52 200.05 525.08C199.44 525.64 199.08 526.41 199 527.4H205.57C205.57 526.74 205.42 526.17 205.13 525.7V525.69Z" fill="#424242"/>
<path d="M216.29 523.37C216.97 523.76 217.47 524.26 217.8 524.85V522.95H219.55V533.59C219.55 534.54 219.35 535.39 218.94 536.13C218.53 536.87 217.95 537.45 217.2 537.87C216.45 538.29 215.57 538.5 214.57 538.5C213.2 538.5 212.06 538.18 211.15 537.53C210.24 536.88 209.7 536 209.53 534.89H211.24C211.43 535.52 211.82 536.03 212.42 536.42C213.02 536.81 213.73 537 214.57 537C215.52 537 216.3 536.7 216.9 536.11C217.5 535.51 217.8 534.68 217.8 533.6V531.42C217.46 532.03 216.95 532.54 216.28 532.94C215.61 533.35 214.82 533.55 213.92 533.55C213.02 533.55 212.16 533.32 211.4 532.87C210.64 532.42 210.05 531.77 209.62 530.95C209.19 530.13 208.97 529.19 208.97 528.14C208.97 527.09 209.18 526.14 209.62 525.34C210.05 524.54 210.64 523.91 211.4 523.47C212.16 523.03 212.99 522.8 213.92 522.8C214.85 522.8 215.61 523 216.29 523.39V523.37ZM217.33 526.08C217.01 525.5 216.59 525.05 216.05 524.74C215.51 524.43 214.92 524.27 214.27 524.27C213.62 524.27 213.04 524.42 212.5 524.73C211.96 525.04 211.54 525.48 211.23 526.06C210.92 526.64 210.76 527.33 210.76 528.11C210.76 528.89 210.92 529.6 211.23 530.19C211.55 530.78 211.97 531.23 212.5 531.54C213.03 531.85 213.62 532.01 214.27 532.01C214.92 532.01 215.51 531.85 216.05 531.54C216.59 531.23 217.01 530.78 217.33 530.19C217.65 529.6 217.8 528.91 217.8 528.13C217.8 527.35 217.64 526.66 217.33 526.08Z" fill="#424242"/>
<path d="M231.71 522.95V533.36H229.98V531.82C229.65 532.35 229.19 532.77 228.6 533.06C228.01 533.36 227.36 533.51 226.65 533.51C225.84 533.51 225.11 533.34 224.47 533.01C223.82 532.68 223.31 532.17 222.94 531.5C222.57 530.83 222.38 530.01 222.38 529.05V522.95H224.09V528.82C224.09 529.85 224.35 530.63 224.87 531.19C225.39 531.74 226.1 532.02 227 532.02C227.9 532.02 228.65 531.73 229.18 531.16C229.71 530.59 229.98 529.76 229.98 528.67V522.95H231.71Z" fill="#424242"/>
<path d="M234.7 520.91C234.47 520.68 234.36 520.4 234.36 520.07C234.36 519.74 234.47 519.46 234.7 519.23C234.93 519 235.21 518.89 235.54 518.89C235.87 518.89 236.12 519 236.35 519.23C236.57 519.46 236.68 519.74 236.68 520.07C236.68 520.4 236.57 520.68 236.35 520.91C236.13 521.14 235.86 521.25 235.54 521.25C235.22 521.25 234.93 521.14 234.7 520.91ZM236.37 522.95V533.36H234.64V522.95H236.37Z" fill="#424242"/>
<path d="M239.31 525.31C239.74 524.51 240.33 523.88 241.09 523.44C241.85 523 242.69 522.77 243.63 522.77C244.44 522.77 245.19 522.96 245.89 523.33C246.59 523.7 247.12 524.19 247.49 524.8V519.29H249.24V533.35H247.49V531.39C247.15 532.01 246.64 532.52 245.97 532.92C245.3 533.32 244.51 533.52 243.61 533.52C242.71 533.52 241.85 533.29 241.09 532.84C240.33 532.39 239.74 531.74 239.31 530.92C238.88 530.1 238.66 529.16 238.66 528.11C238.66 527.06 238.87 526.11 239.31 525.31ZM247.01 526.08C246.69 525.5 246.27 525.05 245.73 524.74C245.19 524.43 244.6 524.27 243.95 524.27C243.3 524.27 242.72 524.42 242.18 524.73C241.64 525.04 241.22 525.48 240.91 526.06C240.6 526.64 240.44 527.33 240.44 528.11C240.44 528.89 240.6 529.6 240.91 530.19C241.23 530.78 241.65 531.23 242.18 531.54C242.71 531.85 243.3 532.01 243.95 532.01C244.6 532.01 245.19 531.85 245.73 531.54C246.27 531.23 246.69 530.78 247.01 530.19C247.33 529.6 247.48 528.91 247.48 528.13C247.48 527.35 247.32 526.66 247.01 526.08Z" fill="#424242"/>
<path d="M252.16 525.31C252.59 524.51 253.18 523.88 253.94 523.44C254.7 523 255.53 522.77 256.46 522.77C257.39 522.77 258.16 522.97 258.84 523.36C259.51 523.75 260.01 524.25 260.34 524.84V522.94H262.09V533.35H260.34V531.41C260 532.02 259.49 532.52 258.81 532.92C258.13 533.32 257.34 533.52 256.44 533.52C255.54 533.52 254.68 533.29 253.93 532.84C253.18 532.38 252.59 531.74 252.16 530.92C251.73 530.1 251.51 529.16 251.51 528.11C251.51 527.06 251.72 526.11 252.16 525.31ZM259.85 526.08C259.53 525.5 259.11 525.05 258.57 524.74C258.03 524.43 257.44 524.27 256.79 524.27C256.14 524.27 255.56 524.42 255.02 524.73C254.48 525.04 254.06 525.48 253.75 526.06C253.44 526.64 253.28 527.33 253.28 528.11C253.28 528.89 253.44 529.6 253.75 530.19C254.07 530.78 254.49 531.23 255.02 531.54C255.55 531.85 256.14 532.01 256.79 532.01C257.44 532.01 258.03 531.85 258.57 531.54C259.11 531.23 259.53 530.78 259.85 530.19C260.17 529.6 260.32 528.91 260.32 528.13C260.32 527.35 260.16 526.66 259.85 526.08Z" fill="#424242"/>
<path d="M270.07 525.31C270.5 524.51 271.09 523.88 271.85 523.44C272.61 523 273.45 522.77 274.39 522.77C275.2 522.77 275.95 522.96 276.65 523.33C277.35 523.7 277.88 524.19 278.25 524.8V519.29H280V533.35H278.25V531.39C277.91 532.01 277.4 532.52 276.73 532.92C276.06 533.32 275.27 533.52 274.37 533.52C273.47 533.52 272.61 533.29 271.85 532.84C271.09 532.39 270.5 531.74 270.07 530.92C269.64 530.1 269.42 529.16 269.42 528.11C269.42 527.06 269.63 526.11 270.07 525.31ZM277.77 526.08C277.45 525.5 277.03 525.05 276.49 524.74C275.95 524.43 275.36 524.27 274.71 524.27C274.06 524.27 273.48 524.42 272.94 524.73C272.4 525.04 271.98 525.48 271.67 526.06C271.36 526.64 271.2 527.33 271.2 528.11C271.2 528.89 271.36 529.6 271.67 530.19C271.99 530.78 272.41 531.23 272.94 531.54C273.47 531.85 274.06 532.01 274.71 532.01C275.36 532.01 275.95 531.85 276.49 531.54C277.03 531.23 277.45 530.78 277.77 530.19C278.09 529.6 278.24 528.91 278.24 528.13C278.24 527.35 278.08 526.66 277.77 526.08Z" fill="#424242"/>
<path d="M284.81 532.87C284.02 532.43 283.4 531.8 282.95 530.98C282.5 530.16 282.28 529.22 282.28 528.14C282.28 527.06 282.51 526.14 282.97 525.32C283.43 524.5 284.06 523.88 284.86 523.44C285.66 523 286.55 522.78 287.54 522.78C288.53 522.78 289.42 523 290.22 523.44C291.02 523.88 291.65 524.5 292.11 525.31C292.57 526.12 292.8 527.06 292.8 528.14C292.8 529.22 292.56 530.16 292.09 530.98C291.61 531.8 290.97 532.43 290.16 532.87C289.35 533.31 288.45 533.54 287.46 533.54C286.47 533.54 285.6 533.32 284.81 532.87ZM289.21 531.57C289.75 531.28 290.19 530.84 290.53 530.26C290.87 529.68 291.03 528.97 291.03 528.13C291.03 527.29 290.86 526.58 290.54 526C290.21 525.42 289.78 524.98 289.25 524.7C288.72 524.42 288.14 524.27 287.52 524.27C286.9 524.27 286.31 524.41 285.78 524.7C285.25 524.99 284.83 525.42 284.52 526C284.2 526.58 284.05 527.29 284.05 528.13C284.05 528.97 284.21 529.69 284.52 530.28C284.83 530.86 285.24 531.3 285.76 531.58C286.28 531.86 286.85 532.01 287.47 532.01C288.09 532.01 288.67 531.86 289.22 531.57H289.21Z" fill="#424242"/>
<path d="M298.37 523.37C299.05 522.98 299.83 522.78 300.71 522.78C301.65 522.78 302.49 523 303.24 523.45C303.99 523.89 304.58 524.52 305.01 525.32C305.44 526.12 305.66 527.06 305.66 528.12C305.66 529.18 305.44 530.11 305.01 530.93C304.58 531.75 303.99 532.39 303.23 532.85C302.47 533.31 301.64 533.53 300.71 533.53C299.78 533.53 299.02 533.33 298.34 532.94C297.66 532.55 297.15 532.05 296.81 531.44V533.36H295.08V519.3H296.81V524.89C297.16 524.27 297.68 523.76 298.37 523.37ZM303.4 526.06C303.08 525.48 302.66 525.03 302.12 524.73C301.58 524.43 300.99 524.27 300.34 524.27C299.69 524.27 299.12 524.43 298.58 524.74C298.04 525.05 297.61 525.5 297.29 526.09C296.97 526.68 296.81 527.36 296.81 528.13C296.81 528.9 296.97 529.6 297.29 530.19C297.61 530.78 298.04 531.23 298.58 531.54C299.12 531.85 299.7 532.01 300.34 532.01C300.98 532.01 301.58 531.85 302.12 531.54C302.66 531.23 303.08 530.78 303.4 530.19C303.72 529.6 303.87 528.91 303.87 528.11C303.87 527.31 303.71 526.64 303.4 526.06Z" fill="#424242"/>
<path d="M310.95 523.25C311.51 522.92 312.2 522.76 313.01 522.76V524.55H312.55C310.61 524.55 309.64 525.6 309.64 527.7V533.36H307.91V522.95H309.64V524.64C309.94 524.04 310.38 523.58 310.94 523.25H310.95Z" fill="#424242"/>
<path d="M324.45 528.8H316.13C316.19 529.83 316.55 530.63 317.18 531.2C317.81 531.77 318.6 532.06 319.51 532.06C320.26 532.06 320.88 531.89 321.38 531.54C321.88 531.19 322.23 530.73 322.43 530.14H324.29C324.01 531.14 323.45 531.95 322.62 532.58C321.79 533.21 320.74 533.52 319.5 533.52C318.51 533.52 317.63 533.3 316.85 532.85C316.07 532.4 315.46 531.78 315.02 530.96C314.58 530.14 314.35 529.2 314.35 528.12C314.35 527.04 314.56 526.1 315 525.29C315.44 524.48 316.04 523.86 316.81 523.42C317.59 522.98 318.48 522.76 319.5 522.76C320.52 522.76 321.36 522.98 322.12 523.41C322.88 523.84 323.47 524.43 323.88 525.19C324.29 525.94 324.5 526.8 324.5 527.74C324.5 528.07 324.48 528.42 324.44 528.79L324.45 528.8ZM322.29 525.69C322 525.21 321.6 524.85 321.1 524.61C320.6 524.36 320.05 524.24 319.44 524.24C318.57 524.24 317.82 524.52 317.21 525.08C316.6 525.64 316.24 526.41 316.16 527.4H322.73C322.73 526.74 322.58 526.17 322.29 525.7V525.69Z" fill="#424242"/>
<path d="M331.86 525.31C332.29 524.51 332.88 523.88 333.64 523.44C334.4 523 335.23 522.77 336.16 522.77C337.09 522.77 337.86 522.97 338.54 523.36C339.21 523.75 339.71 524.25 340.04 524.84V522.94H341.79V533.35H340.04V531.41C339.7 532.02 339.19 532.52 338.51 532.92C337.83 533.32 337.04 533.52 336.14 533.52C335.24 533.52 334.38 533.29 333.63 532.84C332.88 532.38 332.29 531.74 331.86 530.92C331.43 530.1 331.21 529.16 331.21 528.11C331.21 527.06 331.42 526.11 331.86 525.31ZM339.56 526.08C339.24 525.5 338.82 525.05 338.28 524.74C337.74 524.43 337.15 524.27 336.5 524.27C335.85 524.27 335.27 524.42 334.73 524.73C334.19 525.04 333.77 525.48 333.46 526.06C333.15 526.64 332.99 527.33 332.99 528.11C332.99 528.89 333.15 529.6 333.46 530.19C333.78 530.78 334.2 531.23 334.73 531.54C335.26 531.85 335.85 532.01 336.5 532.01C337.15 532.01 337.74 531.85 338.28 531.54C338.82 531.23 339.24 530.78 339.56 530.19C339.88 529.6 340.03 528.91 340.03 528.13C340.03 527.35 339.87 526.66 339.56 526.08Z" fill="#424242"/>
<path d="M346.24 533.12C345.61 532.85 345.11 532.47 344.74 531.98C344.37 531.49 344.17 530.93 344.13 530.3H345.92C345.97 530.82 346.21 531.24 346.65 531.57C347.09 531.9 347.66 532.06 348.37 532.06C349.03 532.06 349.55 531.91 349.93 531.62C350.31 531.33 350.5 530.96 350.5 530.52C350.5 530.08 350.3 529.73 349.89 529.5C349.48 529.28 348.86 529.06 348.01 528.84C347.24 528.64 346.61 528.43 346.12 528.22C345.63 528.01 345.21 527.7 344.87 527.29C344.52 526.88 344.35 526.34 344.35 525.67C344.35 525.14 344.51 524.65 344.83 524.21C345.15 523.77 345.6 523.42 346.18 523.16C346.76 522.9 347.43 522.77 348.18 522.77C349.33 522.77 350.26 523.06 350.97 523.64C351.68 524.22 352.06 525.02 352.11 526.03H350.38C350.34 525.49 350.12 525.05 349.72 524.72C349.32 524.39 348.79 524.23 348.11 524.23C347.49 524.23 346.99 524.36 346.63 524.63C346.26 524.9 346.08 525.24 346.08 525.67C346.08 526.01 346.19 526.29 346.41 526.52C346.63 526.75 346.91 526.92 347.25 527.05C347.59 527.18 348.05 527.33 348.65 527.5C349.4 527.7 350 527.9 350.47 528.1C350.94 528.3 351.34 528.59 351.68 528.98C352.01 529.37 352.19 529.89 352.2 530.52C352.2 531.09 352.04 531.6 351.72 532.06C351.4 532.52 350.96 532.87 350.38 533.13C349.8 533.39 349.14 533.52 348.39 533.52C347.59 533.52 346.88 533.38 346.24 533.11V533.12Z" fill="#424242"/>
<path d="M362.96 523.38C363.64 522.98 364.43 522.78 365.33 522.78C366.23 522.78 367.09 523 367.85 523.45C368.61 523.9 369.2 524.52 369.63 525.32C370.06 526.12 370.28 527.06 370.28 528.12C370.28 529.18 370.06 530.11 369.63 530.93C369.2 531.75 368.61 532.39 367.85 532.85C367.09 533.31 366.26 533.53 365.33 533.53C364.4 533.53 363.66 533.33 362.98 532.93C362.3 532.53 361.79 532.03 361.43 531.44V538.3H359.7V522.95H361.43V524.87C361.77 524.28 362.28 523.78 362.96 523.38ZM368.02 526.06C367.7 525.48 367.28 525.03 366.74 524.73C366.2 524.43 365.61 524.27 364.96 524.27C364.31 524.27 363.74 524.43 363.2 524.74C362.66 525.05 362.23 525.5 361.91 526.09C361.59 526.68 361.43 527.36 361.43 528.13C361.43 528.9 361.59 529.6 361.91 530.19C362.23 530.78 362.66 531.23 363.2 531.54C363.74 531.85 364.32 532.01 364.96 532.01C365.6 532.01 366.2 531.85 366.74 531.54C367.28 531.23 367.7 530.78 368.02 530.19C368.34 529.6 368.49 528.91 368.49 528.11C368.49 527.31 368.33 526.64 368.02 526.06Z" fill="#424242"/>
<path d="M374.43 532.87C373.64 532.43 373.02 531.8 372.57 530.98C372.12 530.16 371.9 529.22 371.9 528.14C371.9 527.06 372.13 526.14 372.59 525.32C373.05 524.5 373.68 523.88 374.48 523.44C375.28 523 376.17 522.78 377.16 522.78C378.15 522.78 379.04 523 379.84 523.44C380.64 523.88 381.27 524.5 381.73 525.31C382.19 526.12 382.42 527.06 382.42 528.14C382.42 529.22 382.18 530.16 381.71 530.98C381.23 531.8 380.59 532.43 379.78 532.87C378.97 533.31 378.07 533.54 377.08 533.54C376.09 533.54 375.22 533.32 374.43 532.87ZM378.83 531.57C379.37 531.28 379.81 530.84 380.15 530.26C380.49 529.68 380.65 528.97 380.65 528.13C380.65 527.29 380.48 526.58 380.16 526C379.83 525.42 379.4 524.98 378.87 524.7C378.34 524.42 377.76 524.27 377.14 524.27C376.52 524.27 375.93 524.41 375.4 524.7C374.87 524.99 374.45 525.42 374.14 526C373.82 526.58 373.67 527.29 373.67 528.13C373.67 528.97 373.83 529.69 374.14 530.28C374.45 530.86 374.86 531.3 375.38 531.58C375.9 531.86 376.47 532.01 377.09 532.01C377.71 532.01 378.29 531.86 378.84 531.57H378.83Z" fill="#424242"/>
<path d="M392.85 523.91C393.64 524.68 394.03 525.78 394.03 527.23V533.37H392.32V527.48C392.32 526.44 392.06 525.65 391.54 525.1C391.02 524.55 390.31 524.27 389.41 524.27C388.51 524.27 387.77 524.55 387.23 525.12C386.69 525.69 386.42 526.52 386.42 527.61V533.37H384.69V522.96H386.42V524.44C386.76 523.91 387.23 523.5 387.82 523.2C388.41 522.91 389.06 522.76 389.77 522.76C391.04 522.76 392.06 523.14 392.85 523.91Z" fill="#424242"/>
<path d="M398.97 524.37V530.51C398.97 531.02 399.08 531.37 399.29 531.58C399.51 531.79 399.88 531.89 400.41 531.89H401.68V533.35H400.12C399.16 533.35 398.43 533.13 397.95 532.68C397.47 532.24 397.23 531.51 397.23 530.5V524.36H395.88V522.94H397.23V520.32H398.96V522.94H401.68V524.36H398.96L398.97 524.37Z" fill="#424242"/>
<path d="M403.78 525.31C404.21 524.51 404.8 523.88 405.56 523.44C406.32 523 407.15 522.77 408.08 522.77C409.01 522.77 409.78 522.97 410.46 523.36C411.13 523.75 411.63 524.25 411.96 524.84V522.94H413.71V533.35H411.96V531.41C411.62 532.02 411.11 532.52 410.43 532.92C409.75 533.32 408.96 533.52 408.06 533.52C407.16 533.52 406.3 533.29 405.55 532.84C404.8 532.38 404.21 531.74 403.78 530.92C403.35 530.1 403.13 529.16 403.13 528.11C403.13 527.06 403.34 526.11 403.78 525.31ZM411.47 526.08C411.15 525.5 410.73 525.05 410.19 524.74C409.65 524.43 409.06 524.27 408.41 524.27C407.76 524.27 407.18 524.42 406.64 524.73C406.1 525.04 405.68 525.48 405.37 526.06C405.06 526.64 404.9 527.33 404.9 528.11C404.9 528.89 405.06 529.6 405.37 530.19C405.69 530.78 406.11 531.23 406.64 531.54C407.17 531.85 407.76 532.01 408.41 532.01C409.06 532.01 409.65 531.85 410.19 531.54C410.73 531.23 411.15 530.78 411.47 530.19C411.79 529.6 411.94 528.91 411.94 528.13C411.94 527.35 411.78 526.66 411.47 526.08Z" fill="#424242"/>
<path d="M418.16 533.12C417.53 532.85 417.03 532.47 416.66 531.98C416.29 531.49 416.09 530.93 416.05 530.3H417.84C417.89 530.82 418.13 531.24 418.57 531.57C419.01 531.9 419.58 532.06 420.29 532.06C420.95 532.06 421.47 531.91 421.85 531.62C422.23 531.33 422.42 530.96 422.42 530.52C422.42 530.08 422.22 529.73 421.81 529.5C421.4 529.28 420.78 529.06 419.93 528.84C419.16 528.64 418.53 528.43 418.04 528.22C417.55 528.01 417.13 527.7 416.79 527.29C416.44 526.88 416.27 526.34 416.27 525.67C416.27 525.14 416.43 524.65 416.75 524.21C417.07 523.77 417.52 523.42 418.1 523.16C418.68 522.9 419.35 522.77 420.1 522.77C421.25 522.77 422.18 523.06 422.89 523.64C423.6 524.22 423.98 525.02 424.03 526.03H422.3C422.26 525.49 422.04 525.05 421.64 524.72C421.24 524.39 420.71 524.23 420.03 524.23C419.41 524.23 418.91 524.36 418.55 524.63C418.18 524.9 418 525.24 418 525.67C418 526.01 418.11 526.29 418.33 526.52C418.55 526.75 418.83 526.92 419.17 527.05C419.51 527.18 419.97 527.33 420.57 527.5C421.32 527.7 421.92 527.9 422.39 528.1C422.86 528.3 423.26 528.59 423.6 528.98C423.93 529.37 424.11 529.89 424.12 530.52C424.12 531.09 423.96 531.6 423.64 532.06C423.32 532.52 422.88 532.87 422.3 533.13C421.72 533.39 421.06 533.52 420.31 533.52C419.51 533.52 418.8 533.38 418.16 533.11V533.12Z" fill="#424242"/>
<path d="M439.76 523.91C440.55 524.68 440.94 525.78 440.94 527.23V533.37H439.23V527.48C439.23 526.44 438.97 525.65 438.45 525.1C437.93 524.55 437.22 524.27 436.32 524.27C435.42 524.27 434.68 524.55 434.14 525.12C433.6 525.69 433.33 526.52 433.33 527.61V533.37H431.6V522.96H433.33V524.44C433.67 523.91 434.14 523.5 434.73 523.2C435.32 522.91 435.97 522.76 436.68 522.76C437.95 522.76 438.97 523.14 439.76 523.91Z" fill="#424242"/>
<path d="M443.77 525.31C444.2 524.51 444.79 523.88 445.55 523.44C446.31 523 447.14 522.77 448.07 522.77C449 522.77 449.77 522.97 450.45 523.36C451.12 523.75 451.62 524.25 451.95 524.84V522.94H453.7V533.35H451.95V531.41C451.61 532.02 451.1 532.52 450.42 532.92C449.74 533.32 448.95 533.52 448.05 533.52C447.15 533.52 446.29 533.29 445.54 532.84C444.79 532.38 444.2 531.74 443.77 530.92C443.34 530.1 443.12 529.16 443.12 528.11C443.12 527.06 443.33 526.11 443.77 525.31ZM451.47 526.08C451.15 525.5 450.73 525.05 450.19 524.74C449.65 524.43 449.06 524.27 448.41 524.27C447.76 524.27 447.18 524.42 446.64 524.73C446.1 525.04 445.68 525.48 445.37 526.06C445.06 526.64 444.9 527.33 444.9 528.11C444.9 528.89 445.06 529.6 445.37 530.19C445.69 530.78 446.11 531.23 446.64 531.54C447.17 531.85 447.76 532.01 448.41 532.01C449.06 532.01 449.65 531.85 450.19 531.54C450.73 531.23 451.15 530.78 451.47 530.19C451.79 529.6 451.94 528.91 451.94 528.13C451.94 527.35 451.78 526.66 451.47 526.08Z" fill="#424242"/>
<path d="M461.69 525.31C462.12 524.51 462.71 523.88 463.47 523.44C464.23 523 465.07 522.77 466.01 522.77C466.82 522.77 467.57 522.96 468.27 523.33C468.97 523.7 469.5 524.19 469.87 524.8V519.29H471.62V533.35H469.87V531.39C469.53 532.01 469.02 532.52 468.35 532.92C467.68 533.32 466.89 533.52 465.99 533.52C465.09 533.52 464.23 533.29 463.47 532.84C462.71 532.39 462.12 531.74 461.69 530.92C461.26 530.1 461.04 529.16 461.04 528.11C461.04 527.06 461.25 526.11 461.69 525.31ZM469.38 526.08C469.06 525.5 468.64 525.05 468.1 524.74C467.56 524.43 466.97 524.27 466.32 524.27C465.67 524.27 465.09 524.42 464.55 524.73C464.01 525.04 463.59 525.48 463.28 526.06C462.97 526.64 462.81 527.33 462.81 528.11C462.81 528.89 462.97 529.6 463.28 530.19C463.6 530.78 464.02 531.23 464.55 531.54C465.08 531.85 465.67 532.01 466.32 532.01C466.97 532.01 467.56 531.85 468.1 531.54C468.64 531.23 469.06 530.78 469.38 530.19C469.7 529.6 469.85 528.91 469.85 528.13C469.85 527.35 469.69 526.66 469.38 526.08Z" fill="#424242"/>
<path d="M474.59 520.91C474.36 520.68 474.25 520.4 474.25 520.07C474.25 519.74 474.36 519.46 474.59 519.23C474.82 519 475.1 518.89 475.43 518.89C475.76 518.89 476.01 519 476.24 519.23C476.46 519.46 476.57 519.74 476.57 520.07C476.57 520.4 476.46 520.68 476.24 520.91C476.02 521.14 475.75 521.25 475.43 521.25C475.11 521.25 474.82 521.14 474.59 520.91ZM476.26 522.95V533.36H474.53V522.95H476.26Z" fill="#424242"/>
<path d="M479.21 525.31C479.64 524.51 480.23 523.88 480.99 523.44C481.75 523 482.58 522.77 483.51 522.77C484.44 522.77 485.21 522.97 485.89 523.36C486.56 523.75 487.06 524.25 487.39 524.84V522.94H489.14V533.35H487.39V531.41C487.05 532.02 486.54 532.52 485.86 532.92C485.18 533.32 484.39 533.52 483.49 533.52C482.59 533.52 481.73 533.29 480.98 532.84C480.23 532.38 479.64 531.74 479.21 530.92C478.78 530.1 478.56 529.16 478.56 528.11C478.56 527.06 478.77 526.11 479.21 525.31ZM486.9 526.08C486.58 525.5 486.16 525.05 485.62 524.74C485.08 524.43 484.49 524.27 483.84 524.27C483.19 524.27 482.61 524.42 482.07 524.73C481.53 525.04 481.11 525.48 480.8 526.06C480.49 526.64 480.33 527.33 480.33 528.11C480.33 528.89 480.49 529.6 480.8 530.19C481.12 530.78 481.54 531.23 482.07 531.54C482.6 531.85 483.19 532.01 483.84 532.01C484.49 532.01 485.08 531.85 485.62 531.54C486.16 531.23 486.58 530.78 486.9 530.19C487.22 529.6 487.37 528.91 487.37 528.13C487.37 527.35 487.21 526.66 486.9 526.08Z" fill="#424242"/>
<path d="M498.71 523.37C499.39 523.76 499.89 524.26 500.22 524.85V522.95H501.97V533.59C501.97 534.54 501.77 535.39 501.36 536.13C500.95 536.87 500.37 537.45 499.62 537.87C498.87 538.29 497.99 538.5 496.99 538.5C495.62 538.5 494.48 538.18 493.57 537.53C492.66 536.88 492.12 536 491.95 534.89H493.66C493.85 535.52 494.24 536.03 494.84 536.42C495.44 536.81 496.15 537 496.99 537C497.94 537 498.72 536.7 499.32 536.11C499.92 535.51 500.22 534.68 500.22 533.6V531.42C499.88 532.03 499.37 532.54 498.7 532.94C498.03 533.35 497.24 533.55 496.34 533.55C495.44 533.55 494.58 533.32 493.82 532.87C493.06 532.42 492.47 531.77 492.04 530.95C491.61 530.13 491.39 529.19 491.39 528.14C491.39 527.09 491.6 526.14 492.04 525.34C492.47 524.54 493.06 523.91 493.82 523.47C494.58 523.03 495.41 522.8 496.34 522.8C497.27 522.8 498.03 523 498.71 523.39V523.37ZM499.74 526.08C499.42 525.5 499 525.05 498.46 524.74C497.92 524.43 497.33 524.27 496.68 524.27C496.03 524.27 495.45 524.42 494.91 524.73C494.37 525.04 493.95 525.48 493.64 526.06C493.33 526.64 493.17 527.33 493.17 528.11C493.17 528.89 493.33 529.6 493.64 530.19C493.96 530.78 494.38 531.23 494.91 531.54C495.44 531.85 496.03 532.01 496.68 532.01C497.33 532.01 497.92 531.85 498.46 531.54C499 531.23 499.42 530.78 499.74 530.19C500.06 529.6 500.21 528.91 500.21 528.13C500.21 527.35 500.05 526.66 499.74 526.08Z" fill="#424242"/>
<path d="M506.78 532.87C505.99 532.43 505.37 531.8 504.92 530.98C504.47 530.16 504.25 529.22 504.25 528.14C504.25 527.06 504.48 526.14 504.94 525.32C505.4 524.5 506.03 523.88 506.83 523.44C507.63 523 508.52 522.78 509.51 522.78C510.5 522.78 511.39 523 512.19 523.44C512.99 523.88 513.62 524.5 514.08 525.31C514.54 526.12 514.77 527.06 514.77 528.14C514.77 529.22 514.53 530.16 514.06 530.98C513.58 531.8 512.94 532.43 512.13 532.87C511.32 533.31 510.42 533.54 509.43 533.54C508.44 533.54 507.57 533.32 506.78 532.87ZM511.18 531.57C511.72 531.28 512.16 530.84 512.5 530.26C512.84 529.68 513 528.97 513 528.13C513 527.29 512.83 526.58 512.51 526C512.18 525.42 511.75 524.98 511.22 524.7C510.69 524.42 510.11 524.27 509.49 524.27C508.87 524.27 508.28 524.41 507.75 524.7C507.22 524.99 506.8 525.42 506.49 526C506.17 526.58 506.02 527.29 506.02 528.13C506.02 528.97 506.18 529.69 506.49 530.28C506.8 530.86 507.21 531.3 507.73 531.58C508.25 531.86 508.82 532.01 509.44 532.01C510.06 532.01 510.64 531.86 511.19 531.57H511.18Z" fill="#424242"/>
<path d="M525.2 523.91C525.99 524.68 526.38 525.78 526.38 527.23V533.37H524.67V527.48C524.67 526.44 524.41 525.65 523.89 525.1C523.37 524.55 522.66 524.27 521.76 524.27C520.86 524.27 520.12 524.55 519.58 525.12C519.04 525.69 518.77 526.52 518.77 527.61V533.37H517.04V522.96H518.77V524.44C519.11 523.91 519.58 523.5 520.17 523.2C520.76 522.91 521.41 522.76 522.12 522.76C523.39 522.76 524.41 523.14 525.2 523.91Z" fill="#424242"/>
<path d="M529.21 525.31C529.64 524.51 530.23 523.88 530.99 523.44C531.75 523 532.58 522.77 533.51 522.77C534.44 522.77 535.21 522.97 535.89 523.36C536.56 523.75 537.06 524.25 537.39 524.84V522.94H539.14V533.35H537.39V531.41C537.05 532.02 536.54 532.52 535.86 532.92C535.18 533.32 534.39 533.52 533.49 533.52C532.59 533.52 531.73 533.29 530.98 532.84C530.23 532.38 529.64 531.74 529.21 530.92C528.78 530.1 528.56 529.16 528.56 528.11C528.56 527.06 528.77 526.11 529.21 525.31ZM536.91 526.08C536.59 525.5 536.17 525.05 535.63 524.74C535.09 524.43 534.5 524.27 533.85 524.27C533.2 524.27 532.62 524.42 532.08 524.73C531.54 525.04 531.12 525.48 530.81 526.06C530.5 526.64 530.34 527.33 530.34 528.11C530.34 528.89 530.5 529.6 530.81 530.19C531.13 530.78 531.55 531.23 532.08 531.54C532.61 531.85 533.2 532.01 533.85 532.01C534.5 532.01 535.09 531.85 535.63 531.54C536.17 531.23 536.59 530.78 536.91 530.19C537.23 529.6 537.38 528.91 537.38 528.13C537.38 527.35 537.22 526.66 536.91 526.08Z" fill="#424242"/>
<path d="M543.79 519.3V533.36H542.06V519.3H543.79Z" fill="#424242"/>
<path d="M453.55 360.92L446.22 168.27L389.56 360.92H453.55Z" fill="#EDEDED"/>
<path d="M425.31 375.27H132.58L153.49 168.27H446.22L425.31 375.27Z" fill="white"/>
<path d="M304 168.27L429 336.27" stroke="#C8A9F2" stroke-width="2"/>
<path d="M304 168.27L137 336.27" stroke="#C8A9F2" stroke-width="2"/>
<path d="M275.43 375.27C276 371.27 303.81 167.92 303.81 167.92" stroke="#C8A9F2" stroke-width="2"/>
<path d="M403.1 238.57C403.1 238.57 356.27 209.64 343.55 254.35" stroke="#C8A9F2" stroke-width="2"/>
<path d="M341.24 266.21C340.33 260.22 338.23 252.59 335.39 247.54L344.01 252.83L354.02 251.39C349.41 254.9 344.46 261.07 341.25 266.21H341.24Z" fill="#C8A9F2"/>
<path d="M183.24 238.57C183.24 238.57 230.07 209.64 242.79 254.35" stroke="#C8A9F2" stroke-width="2"/>
<path d="M245.1 266.21C241.89 261.07 236.94 254.9 232.33 251.39L242.34 252.83L250.96 247.54C248.11 252.59 246.02 260.22 245.11 266.21H245.1Z" fill="#C8A9F2"/>
</svg>
