<svg width="978" height="580" viewBox="0 0 978 580" fill="none" xmlns="http://www.w3.org/2000/svg">
<path d="M346.01 12.22C405.2 20.5 673.28 7.40998 738.4 36.34C796.11 68.88 755.26 111.4 826.79 130.63C898.31 149.86 931.36 227.08 931.36 334.77C931.36 493.54 907.68 533.49 861.32 555.18C814.95 576.88 222.77 594.25 114.74 528.67C6.71002 463.08 9.19003 363.04 63.45 163.83C117.71 -35.37 272.01 1.86998 346.01 12.22Z" fill="#7385D6" stroke="#7385D6" stroke-width="0.5" stroke-miterlimit="10"/>
<path opacity="0.2" d="M107.14 482.13L111.48 320.25C111.73 310.89 119.34 303.45 128.62 303.49L816.78 306.21C825.97 306.25 833.49 313.62 833.78 322.89L838.82 482.06C839.13 491.79 831.39 499.84 821.75 499.84H124.21C114.6 499.84 106.88 491.84 107.14 482.15V482.13Z" fill="black"/>
<path opacity="0.09" d="M26 364.5C26 364.5 150.02 506.32 491.4 489.28C832.78 472.24 932.4 358.28 932.4 358.28C932.4 358.28 932.297 486.612 891 535C850.034 583 509.5 574.5 509.5 574.5C509.5 574.5 309 568 229.4 560.28C163.65 546.88 31 540.5 26 364.5Z" fill="#1A1515"/>
<path opacity="0.09" d="M85.4 506.63C85.4 506.63 190.04 553.64 534.77 548.64C879.51 543.65 907.4 514.63 907.4 514.63C907.4 514.63 890.52 547.65 853.88 558.63C817.24 569.61 709.5 569 709.5 569C709.5 569 342.5 574.5 249 560C150 544.647 123.78 540.63 85.4 506.63Z" fill="#1A1515"/>
<path d="M754 50.5C745.7 33.73 723.69 38.46 706.52 36.17C678.21 32.4 648.11 28.6 619.43 29C538.75 30.52 456.6 32.33 375.63 27.35C357.22 26 338 24.15 319.63 19.63C295.37 14.1 270.51 10.72 245.61 11.06C217.57 11.49 190.04 19.87 165.69 34.3C140.78 48.79 107.6 68.65 96.4 95.27C98.13 88.11 101.6 89.17 104.4 82.27C113.03 61.25 136.82 41.76 155.4 28.27C193.11 1.15002 246.27 -2.82998 291.32 1.49002C306.13 2.75002 323.82 4.53002 338.4 7.28002C366.83 11.61 393.59 11.44 422.4 12.28C488.04 13.85 553.57 15.29 619.62 18.15C660.1 20.35 702.47 16.31 739.95 33.78C746.66 37.17 754.35 46.47 759.5 52C762.02 54.75 764.65 57.87 765.5 61.5L758.31 55.5L754 50.5Z" fill="#98A4DA"/>
</svg>
