<svg width="1340" height="600" viewBox="0 0 1340 600" fill="none" xmlns="http://www.w3.org/2000/svg">
<path d="M1344 -5.67993H-4V595.32H1344V-5.67993Z" fill="#323440"/>
<path opacity="0.43" d="M707.829 79C716.675 79.1701 943 543.752 943 543.752C943 543.752 859.889 557.804 634.345 558.943C413.114 560.067 370.943 544.114 367 543.752L637.777 79.6361" fill="url(#paint0_linear_22_2)"/>
<path d="M162.27 440.79L68.06 559.31" stroke="#C19678" stroke-miterlimit="10"/>
<path d="M230.35 440.79L131.27 587.27" stroke="#C19678" stroke-miterlimit="10"/>
<path d="M37.67 410.84H1317.74C1317.74 410.84 1499.18 608.99 718.43 608.99C-217.61 608.99 37.67 410.84 37.67 410.84Z" fill="#AD6346"/>
<path d="M37.67 390.18H1317.74C1317.74 390.18 1499.18 588.33 718.43 588.33C-217.61 588.33 37.67 390.18 37.67 390.18Z" fill="url(#paint1_radial_22_2)"/>
<path d="M202.39 554.9L297.21 390.79" stroke="#C19678" stroke-miterlimit="10"/>
<path d="M333.68 571.92L392.03 390.79" stroke="#C19678" stroke-miterlimit="10"/>
<path d="M413.91 579.21L447.94 390.79" stroke="#C19678" stroke-miterlimit="10"/>
<path d="M494.14 582.86L511.16 390.79" stroke="#C19678" stroke-miterlimit="10"/>
<path d="M573.16 587.11L575.59 391.39" stroke="#C19678" stroke-miterlimit="10"/>
<path d="M652.17 587.72L644.88 390.79" stroke="#C19678" stroke-miterlimit="10"/>
<path d="M732.4 587.72L720.25 390.79" stroke="#C19678" stroke-miterlimit="10"/>
<path d="M810.2 587.72L784.68 387.14" stroke="#C19678" stroke-miterlimit="10"/>
<path d="M879.5 584.07L846.67 390.79" stroke="#C19678" stroke-miterlimit="10"/>
<path d="M968.24 577.99L905.02 390.79" stroke="#C19678" stroke-miterlimit="10"/>
<path d="M1036.31 574.35L962.16 389.57" stroke="#C19678" stroke-miterlimit="10"/>
<path d="M1121.41 562.19L1027.8 390.79" stroke="#C19678" stroke-miterlimit="10"/>
<path d="M1189.48 597.6L1101.96 440.79" stroke="#C19678" stroke-miterlimit="10"/>
<path d="M1262.42 573.29L1168.82 440.79" stroke="#C19678" stroke-miterlimit="10"/>
<path d="M1318.34 536.82L1229.6 440.79" stroke="#C19678" stroke-miterlimit="10"/>
<path d="M680.892 -4C680.892 -4 667.47 -4 666.353 -1.78348C665.235 0.433047 663 47 663 47H685L680.882 -4H680.892Z" fill="#474B5B"/>
<path d="M675.99 89.0501C696.844 89.0501 713.75 84.5774 713.75 79.0601C713.75 73.5427 696.844 69.0701 675.99 69.0701C655.136 69.0701 638.23 73.5427 638.23 79.0601C638.23 84.5774 655.136 89.0501 675.99 89.0501Z" fill="#FFD7A1"/>
<path d="M660.63 46.86C660.63 46.86 638.23 53.52 638.23 65.74V80.29C638.23 80.29 653.78 76.84 674.88 76.84C695.98 76.84 713.97 80.29 713.97 80.29V67.07C713.97 67.07 708.51 47.97 686.14 46.86C663.77 45.75 660.63 46.86 660.63 46.86Z" fill="#515566"/>
<path opacity="0.66" d="M624 577C868.662 577 1067 557.748 1067 534C1067 510.252 868.662 491 624 491C379.338 491 181 510.252 181 534C181 557.748 379.338 577 624 577Z" fill="url(#paint2_radial_22_2)"/>
<path d="M772.1 49.5232C763.35 46.6647 262.92 402.652 262.92 402.652L826 599L836 71.7352" fill="url(#paint3_linear_22_2)"/>
<path d="M833.12 9.89615V-3.67993H827.85L828.75 9.34556L833.12 9.89615Z" fill="#2E323A"/>
<path d="M835.82 10.6805L829.12 27.1453L831.78 30.9994L825.86 43.5271L812.86 39.952L828.47 4.56372L835.82 10.6805Z" fill="#474B5B"/>
<path d="M828.75 4.59399L822.12 6.12507L806.33 38.3532L815.1 40.2086L828.75 4.59399Z" fill="#2E323A"/>
<path d="M836.21 71.886C836.21 71.886 821.61 75.4007 794 65.3845C766.39 55.3684 772.05 49.8625 772.05 49.8625L812.12 52.1252L831.12 61.9302C833.12 62.6844 837.58 70.7999 836.2 71.886H836.21Z" fill="#F9E1B1"/>
<path d="M836.12 71.7427C836.12 71.7427 802.33 50.5338 772.12 49.8701C772.12 49.8701 779.88 31.7988 794.56 34.3255C809.24 36.8522 827.04 43.2857 827.04 43.2857C827.04 43.2857 845.46 48.9198 840.78 60.3463L836.12 71.7427Z" fill="#515566"/>
<path d="M790.16 52.7286C785.16 51.1749 305 528.804 305 528.804C305 528.804 329 537.855 495 540.872C661 543.889 710 534.084 710 534.084L815.71 62.0584" fill="url(#paint4_linear_22_2)"/>
<path d="M520 12.9507V-0.679932H525.28L524.38 12.3979L520 12.9507Z" fill="#2E323A"/>
<path d="M517.3 13.7383L524.01 30.2691L521.35 34.1387L527.27 46.7167L540.26 43.1273L524.65 7.59692L517.3 13.7383Z" fill="#474B5B"/>
<path d="M524.38 7.6272L531 9.16442L546.8 41.5219L538.03 43.3848L524.38 7.6272Z" fill="#2E323A"/>
<path d="M516.92 75.1895C516.92 75.1895 531.52 78.7183 559.13 68.6619C586.74 58.6056 581.08 53.0776 581.08 53.0776L541.01 55.3494L522.01 65.1937C520.01 65.951 515.55 74.099 516.93 75.1895H516.92Z" fill="#F9E1B1"/>
<path d="M517 75.0455C517 75.0455 550.79 53.7515 581 53.0851C581 53.0851 573.24 34.9413 558.56 37.4781C543.88 40.0149 526.08 46.4743 526.08 46.4743C526.08 46.4743 507.66 52.131 512.34 63.6034L517 75.0455Z" fill="#515566"/>
<path d="M576 53.0852C584.75 50.2152 1076.08 414.864 1076.08 414.864L513 612L521.7 76.5601" fill="url(#paint5_linear_22_2)"/>
<path d="M558.84 55.9552C563.84 54.3953 1044 533.942 1044 533.942C1044 533.942 1020 543.029 854 546.058C688 549.087 639 539.243 639 539.243L533.29 65.3225" fill="url(#paint6_linear_22_2)"/>
<path d="M688.958 79C694.947 79.1586 856 522.498 856 522.498C856 522.498 799.734 536.288 647.016 536.977C494.298 537.667 466 522.498 466 522.498L657.506 79.3516" fill="url(#paint7_linear_22_2)"/>
<path opacity="0.09" d="M305 510C305 510 395.637 556.807 694.235 551.829C992.842 546.86 1017 517.966 1017 517.966C1017 517.966 1002.38 550.843 970.642 561.776C938.905 572.709 840.75 577 840.75 577C840.75 577 506.629 576.562 449.115 572.659C391.601 568.756 338.244 543.853 305 510Z" fill="#1A1515"/>
<path d="M316.15 -1.32993C316.15 -1.32993 416.62 249.84 210.39 370.98L281.83 606.52C288.46 625.86 235.88 628.1 213.01 629.25C202.59 629.77 190.91 628.51 178.83 623.81C178.83 623.81 131.94 667.35 64.96 617.11C64.96 617.11 40.4 653.2 -2.01999 633.48L0.450011 -4.67993" fill="#D64C5C"/>
<path d="M291.33 71.2202C291.4 68.0402 322.99 253.07 211.54 305.58C195.69 313.05 211.63 305.99 211.63 305.99C211.63 305.99 287.54 241.56 291.33 71.2202Z" fill="#A03746"/>
<path d="M179 616.95L142 433.14C142 433.14 190.32 519.66 179 616.95Z" fill="#A03746"/>
<path d="M35.73 411.93C39.37 404.6 11.83 598.65 11.83 598.65C11.83 598.65 11.51 460.72 35.73 411.93Z" fill="#A03746"/>
<path d="M175.94 27.29C174.65 30.5 226.02 260.77 111.86 346.96C111.86 346.96 182.87 226.67 174.65 30.49" fill="#A03746"/>
<path d="M83.94 35.5C85.69 39.48 154.78 183.5 52.7 303.42C52.7 303.42 115.51 193.56 85.69 39.49" fill="#A03746"/>
<path d="M163.05 391.68C126.71 391.68 91.98 385.04 65.93 378.24C25.11 367.58 -0.82 354.2 -2 353.66V338.03C-0.76 338.61 114.12 391 209.67 371.68C213.9 370.83 218.02 373.56 218.88 377.79C219.74 382.02 217 386.14 212.77 387C196.31 390.33 179.51 391.69 163.05 391.69V391.68Z" fill="#FDE176"/>
<path d="M1032.95 -5.75C1032.95 -5.75 935.39 238.16 1135.65 355.79L1066.27 584.52C1059.83 603.3 1110.89 605.48 1133.1 606.59C1143.22 607.1 1154.56 605.87 1166.29 601.3C1166.29 601.3 1211.82 643.58 1276.86 594.8C1276.86 594.8 1300.71 629.85 1341.9 610.7L1339.52 -9" fill="#D64C5C"/>
<path d="M1057.05 64.7C1056.98 61.61 1026.31 241.29 1134.53 292.28C1149.92 299.53 1134.45 292.68 1134.45 292.68C1134.45 292.68 1060.74 230.11 1057.05 64.7Z" fill="#A03746"/>
<path d="M1166.13 594.65L1202.06 416.16C1202.06 416.16 1155.14 500.18 1166.13 594.65Z" fill="#A03746"/>
<path d="M1249.97 416.16C1246.44 409.04 1273.18 597.48 1273.18 597.48C1273.18 597.48 1273.49 463.54 1249.97 416.16Z" fill="#A03746"/>
<path d="M1169.1 22.05C1170.35 25.16 1120.47 248.77 1231.32 332.48C1231.32 332.48 1162.36 215.67 1170.35 25.17" fill="#A03746"/>
<path d="M1258.45 30.03C1256.75 33.9 1189.66 173.75 1288.78 290.2C1288.78 290.2 1227.79 183.52 1256.74 33.9" fill="#A03746"/>
<path d="M1181.62 375.9C1165.63 375.9 1149.33 374.58 1133.34 371.34C1129.23 370.51 1126.58 366.51 1127.41 362.4C1128.24 358.29 1132.25 355.64 1136.35 356.47C1229.19 375.24 1339.74 325.38 1340.81 324.88V340.06C1336.82 342.83 1315.25 352.76 1275.93 362.85C1250.61 369.35 1216.9 375.9 1181.62 375.9Z" fill="#FDE176"/>
<defs>
<linearGradient id="paint0_linear_22_2" x1="659.783" y1="162.279" x2="657.165" y2="544.514" gradientUnits="userSpaceOnUse">
<stop stop-color="#F9C761" stop-opacity="0.6"/>
<stop offset="0.03" stop-color="#F9BA61" stop-opacity="0.55"/>
<stop offset="0.1" stop-color="#FAA062" stop-opacity="0.44"/>
<stop offset="0.18" stop-color="#FA8B63" stop-opacity="0.35"/>
<stop offset="0.27" stop-color="#FB7A64" stop-opacity="0.28"/>
<stop offset="0.39" stop-color="#FB6F64" stop-opacity="0.23"/>
<stop offset="0.55" stop-color="#FB6864" stop-opacity="0.21"/>
<stop offset="1" stop-color="#FC6765" stop-opacity="0.2"/>
</linearGradient>
<radialGradient id="paint1_radial_22_2" cx="0" cy="0" r="1" gradientUnits="userSpaceOnUse" gradientTransform="translate(670.93 489.25) scale(475.46 475.46)">
<stop stop-color="#FDEDD3"/>
<stop offset="1" stop-color="#FCE7CA"/>
</radialGradient>
<radialGradient id="paint2_radial_22_2" cx="0" cy="0" r="1" gradientUnits="userSpaceOnUse" gradientTransform="translate(621.14 536.264) scale(312.96 359.904)">
<stop/>
<stop offset="0.85" stop-opacity="0.59"/>
<stop offset="1" stop-opacity="0.2"/>
</radialGradient>
<linearGradient id="paint3_linear_22_2" x1="755.72" y1="136.168" x2="625.91" y2="513.686" gradientUnits="userSpaceOnUse">
<stop stop-color="#F9E1B1" stop-opacity="0.2"/>
<stop offset="0.65" stop-color="#FCE7CA" stop-opacity="0"/>
</linearGradient>
<linearGradient id="paint4_linear_22_2" x1="737.826" y1="146.382" x2="582.381" y2="603.286" gradientUnits="userSpaceOnUse">
<stop stop-color="#F9C761" stop-opacity="0.6"/>
<stop offset="0.03" stop-color="#F9BA61" stop-opacity="0.55"/>
<stop offset="0.1" stop-color="#FAA062" stop-opacity="0.44"/>
<stop offset="0.18" stop-color="#FA8B63" stop-opacity="0.35"/>
<stop offset="0.27" stop-color="#FB7A64" stop-opacity="0.28"/>
<stop offset="0.39" stop-color="#FB6F64" stop-opacity="0.23"/>
<stop offset="0.55" stop-color="#FB6864" stop-opacity="0.21"/>
<stop offset="1" stop-color="#FC6765" stop-opacity="0.2"/>
</linearGradient>
<linearGradient id="paint5_linear_22_2" x1="580.113" y1="145.061" x2="711.857" y2="526.673" gradientUnits="userSpaceOnUse">
<stop stop-color="#F9E1B1" stop-opacity="0.2"/>
<stop offset="0.65" stop-color="#FCE7CA" stop-opacity="0"/>
</linearGradient>
<linearGradient id="paint6_linear_22_2" x1="611.18" y1="150.024" x2="767.742" y2="608.372" gradientUnits="userSpaceOnUse">
<stop stop-color="#F9C761" stop-opacity="0.6"/>
<stop offset="0.03" stop-color="#F9BA61" stop-opacity="0.55"/>
<stop offset="0.1" stop-color="#FAA062" stop-opacity="0.44"/>
<stop offset="0.18" stop-color="#FA8B63" stop-opacity="0.35"/>
<stop offset="0.27" stop-color="#FB7A64" stop-opacity="0.28"/>
<stop offset="0.39" stop-color="#FB6F64" stop-opacity="0.23"/>
<stop offset="0.55" stop-color="#FB6864" stop-opacity="0.21"/>
<stop offset="1" stop-color="#FC6765" stop-opacity="0.2"/>
</linearGradient>
<linearGradient id="paint7_linear_22_2" x1="665.871" y1="158.569" x2="663.537" y2="523.017" gradientUnits="userSpaceOnUse">
<stop stop-color="#F9C761" stop-opacity="0.6"/>
<stop offset="0.03" stop-color="#F9BA61" stop-opacity="0.55"/>
<stop offset="0.1" stop-color="#FAA062" stop-opacity="0.44"/>
<stop offset="0.18" stop-color="#FA8B63" stop-opacity="0.35"/>
<stop offset="0.27" stop-color="#FB7A64" stop-opacity="0.28"/>
<stop offset="0.39" stop-color="#FB6F64" stop-opacity="0.23"/>
<stop offset="0.55" stop-color="#FB6864" stop-opacity="0.21"/>
<stop offset="1" stop-color="#FC6765" stop-opacity="0.2"/>
</linearGradient>
</defs>
</svg>
