<svg width="1340" height="749" viewBox="0 0 1340 749" fill="none" xmlns="http://www.w3.org/2000/svg">
<path d="M1344 -5.67993H-4V595.32H1344V-5.67993Z" fill="#323440"/>
<path opacity="0.43" d="M708 79.3201C716.84 79.5501 943 707.7 943 707.7C943 707.7 859.95 726.7 634.57 728.24C413.5 729.76 371.36 708.19 367.42 707.7L638 80.1801" fill="url(#paint0_linear_22_2)"/>
<path d="M37.67 550.84H1317.74C1317.74 550.84 1499.18 748.99 718.43 748.99C-217.61 748.99 37.67 550.84 37.67 550.84Z" fill="#AD6346"/>
<path d="M37.67 530.18H1317.74C1317.74 530.18 1499.18 728.33 718.43 728.33C-217.61 728.33 37.67 530.18 37.67 530.18Z" fill="url(#paint1_radial_22_2)"/>
<path d="M162.27 530.79L68.06 649.31" stroke="#C19678" stroke-miterlimit="10"/>
<path d="M230.35 530.79L131.27 677.27" stroke="#C19678" stroke-miterlimit="10"/>
<path d="M202.39 694.9L297.21 530.79" stroke="#C19678" stroke-miterlimit="10"/>
<path d="M333.68 711.92L392.03 530.79" stroke="#C19678" stroke-miterlimit="10"/>
<path d="M413.91 719.21L447.94 530.79" stroke="#C19678" stroke-miterlimit="10"/>
<path d="M494.14 722.86L511.16 530.79" stroke="#C19678" stroke-miterlimit="10"/>
<path d="M573.16 727.11L575.59 531.39" stroke="#C19678" stroke-miterlimit="10"/>
<path d="M652.17 727.72L644.88 530.79" stroke="#C19678" stroke-miterlimit="10"/>
<path d="M732.4 727.72L720.25 530.79" stroke="#C19678" stroke-miterlimit="10"/>
<path d="M810.2 727.72L784.68 527.14" stroke="#C19678" stroke-miterlimit="10"/>
<path d="M879.5 724.07L846.67 530.79" stroke="#C19678" stroke-miterlimit="10"/>
<path d="M968.24 717.99L905.02 530.79" stroke="#C19678" stroke-miterlimit="10"/>
<path d="M1036.31 714.35L962.16 529.57" stroke="#C19678" stroke-miterlimit="10"/>
<path d="M1121.41 702.19L1027.8 530.79" stroke="#C19678" stroke-miterlimit="10"/>
<path d="M1189.48 687.6L1101.96 530.79" stroke="#C19678" stroke-miterlimit="10"/>
<path d="M1262.42 663.29L1168.82 530.79" stroke="#C19678" stroke-miterlimit="10"/>
<path d="M1318.34 626.82L1229.6 530.79" stroke="#C19678" stroke-miterlimit="10"/>
<path d="M1032.95 -5.75C1032.95 -5.75 935.39 238.16 1135.65 355.79L1066.27 584.52C1059.83 603.3 1110.89 605.48 1133.1 606.59C1143.22 607.1 1154.56 605.87 1166.29 601.3C1166.29 601.3 1211.82 643.58 1276.86 594.8C1276.86 594.8 1300.71 629.85 1341.9 610.7L1339.52 -9" fill="#D64C5C"/>
<path d="M1057.05 64.7C1056.98 61.61 1026.31 241.29 1134.53 292.28C1149.92 299.53 1134.45 292.68 1134.45 292.68C1134.45 292.68 1060.74 230.11 1057.05 64.7Z" fill="#A03746"/>
<path d="M1166.13 594.65L1202.06 416.16C1202.06 416.16 1155.14 500.18 1166.13 594.65Z" fill="#A03746"/>
<path d="M1249.97 416.16C1246.44 409.04 1273.18 597.48 1273.18 597.48C1273.18 597.48 1273.49 463.54 1249.97 416.16Z" fill="#A03746"/>
<path d="M1169.1 22.05C1170.35 25.16 1120.47 248.77 1231.32 332.48C1231.32 332.48 1162.36 215.67 1170.35 25.17" fill="#A03746"/>
<path d="M1258.45 30.03C1256.75 33.9 1189.66 173.75 1288.78 290.2C1288.78 290.2 1227.79 183.52 1256.74 33.9" fill="#A03746"/>
<path d="M1181.62 375.9C1165.63 375.9 1149.33 374.58 1133.34 371.34C1129.23 370.51 1126.58 366.51 1127.41 362.4C1128.24 358.29 1132.25 355.64 1136.35 356.47C1229.19 375.24 1339.74 325.38 1340.81 324.88V340.06C1336.82 342.83 1315.25 352.76 1275.93 362.85C1250.61 369.35 1216.9 375.9 1181.62 375.9Z" fill="#FDE176"/>
<path d="M316.15 -1.32993C316.15 -1.32993 416.62 249.84 210.39 370.98L281.83 606.52C288.46 625.86 235.88 628.1 213.01 629.25C202.59 629.77 190.91 628.51 178.83 623.81C178.83 623.81 131.94 667.35 64.96 617.11C64.96 617.11 40.4 653.2 -2.01999 633.48L0.450011 -4.67993" fill="#D64C5C"/>
<path d="M291.33 71.2202C291.4 68.0402 322.99 253.07 211.54 305.58C195.69 313.05 211.63 305.99 211.63 305.99C211.63 305.99 287.54 241.56 291.33 71.2202Z" fill="#A03746"/>
<path d="M179 616.95L142 433.14C142 433.14 190.32 519.66 179 616.95Z" fill="#A03746"/>
<path d="M35.73 411.93C39.37 404.6 11.83 598.65 11.83 598.65C11.83 598.65 11.51 460.72 35.73 411.93Z" fill="#A03746"/>
<path d="M175.94 27.29C174.65 30.5 226.02 260.77 111.86 346.96C111.86 346.96 182.87 226.67 174.65 30.49" fill="#A03746"/>
<path d="M83.94 35.5C85.69 39.48 154.78 183.5 52.7 303.42C52.7 303.42 115.51 193.56 85.69 39.49" fill="#A03746"/>
<path d="M163.05 391.68C126.71 391.68 91.98 385.04 65.93 378.24C25.11 367.58 -0.82 354.2 -2 353.66V338.03C-0.76 338.61 114.12 391 209.67 371.68C213.9 370.83 218.02 373.56 218.88 377.79C219.74 382.02 217 386.14 212.77 387C196.31 390.33 179.51 391.69 163.05 391.69V391.68Z" fill="#FDE176"/>
<path d="M680.892 -4C680.892 -4 667.47 -4 666.353 -1.78348C665.235 0.433047 663 47 663 47H685L680.882 -4H680.892Z" fill="#474B5B"/>
<path d="M675.99 89.0501C696.844 89.0501 713.75 84.5774 713.75 79.0601C713.75 73.5427 696.844 69.0701 675.99 69.0701C655.136 69.0701 638.23 73.5427 638.23 79.0601C638.23 84.5774 655.136 89.0501 675.99 89.0501Z" fill="#FFD7A1"/>
<path d="M660.63 46.86C660.63 46.86 638.23 53.52 638.23 65.74V80.29C638.23 80.29 653.78 76.84 674.88 76.84C695.98 76.84 713.97 80.29 713.97 80.29V67.07C713.97 67.07 708.51 47.97 686.14 46.86C663.77 45.75 660.63 46.86 660.63 46.86Z" fill="#515566"/>
<path opacity="0.66" d="M645 685.32C889.662 685.32 1088 666.068 1088 642.32C1088 618.572 889.662 599.32 645 599.32C400.338 599.32 202 618.572 202 642.32C202 666.068 400.338 685.32 645 685.32Z" fill="url(#paint2_radial_22_2)"/>
<path d="M772.1 58.4866C763.35 55.1465 262.92 471.108 262.92 471.108L826 700.535L836 84.4406" fill="url(#paint3_linear_22_2)"/>
<path d="M833.12 12.1833V-3.67993H827.85L828.75 11.54L833.12 12.1833Z" fill="#2E323A"/>
<path d="M835.82 13.0999L829.12 32.3385L831.78 36.8419L825.86 51.4802L812.86 47.3029L828.47 5.95264L835.82 13.0999Z" fill="#474B5B"/>
<path d="M828.75 5.98779L822.12 7.77682L806.33 45.4344L815.1 47.6024L828.75 5.98779Z" fill="#2E323A"/>
<path d="M836.21 84.6168C836.21 84.6168 821.61 88.7236 794 77.0201C766.39 65.3165 772.05 58.8831 772.05 58.8831L812.12 61.5269L831.12 72.9837C833.12 73.865 837.58 83.3477 836.2 84.6168H836.21Z" fill="#F9E1B1"/>
<path d="M836.12 84.4493C836.12 84.4493 802.33 59.6673 772.12 58.8918C772.12 58.8918 779.88 37.776 794.56 40.7284C809.24 43.6807 827.04 51.1981 827.04 51.1981C827.04 51.1981 845.46 57.7814 840.78 71.133L836.12 84.4493Z" fill="#515566"/>
<path d="M790.16 62.232C785.16 60.4165 305 618.513 305 618.513C305 618.513 329 629.088 495 632.613C661 636.138 710 624.682 710 624.682L815.71 73.1335" fill="url(#paint4_linear_22_2)"/>
<path d="M520 14.8271V-1.03613H525.28L524.38 14.1838L520 14.8271Z" fill="#2E323A"/>
<path d="M517.3 15.7437L524.01 34.9823L521.35 39.4857L527.27 54.124L540.26 49.9467L524.65 8.59644L517.3 15.7437Z" fill="#474B5B"/>
<path d="M524.38 8.63159L531 10.4206L546.8 48.0782L538.03 50.2462L524.38 8.63159Z" fill="#2E323A"/>
<path d="M516.92 87.2606C516.92 87.2606 531.52 91.3674 559.13 79.6639C586.74 67.9603 581.08 61.5269 581.08 61.5269L541.01 64.1707L522.01 75.6275C520.01 76.5088 515.55 85.9915 516.93 87.2606H516.92Z" fill="#F9E1B1"/>
<path d="M517 87.0933C517 87.0933 550.79 62.3114 581 61.5359C581 61.5359 573.24 40.4201 558.56 43.3724C543.88 46.3247 526.08 53.8422 526.08 53.8422C526.08 53.8422 507.66 60.4254 512.34 73.777L517 87.0933Z" fill="#515566"/>
<path d="M576 61.5357C584.75 58.1956 1076.08 482.573 1076.08 482.573L513 712L521.7 88.8558" fill="url(#paint5_linear_22_2)"/>
<path d="M558.84 64.8758C563.84 63.0603 1044 621.156 1044 621.156C1044 621.156 1020 631.732 854 635.257C688 638.782 639 627.325 639 627.325L533.29 75.7773" fill="url(#paint6_linear_22_2)"/>
<path d="M688.958 79C694.947 79.2022 856 644.508 856 644.508C856 644.508 799.734 662.092 647.016 662.971C494.298 663.85 466 644.508 466 644.508L657.506 79.4484" fill="url(#paint7_linear_22_2)"/>
<path opacity="0.09" d="M240 618.32C240 618.32 344.64 665.33 689.37 660.33C1034.11 655.34 1062 626.32 1062 626.32C1062 626.32 1045.12 659.34 1008.48 670.32C971.84 681.3 858.52 685.61 858.52 685.61C858.52 685.61 472.78 685.17 406.38 681.25C339.98 677.33 278.38 652.32 240 618.32Z" fill="#1A1515"/>
<defs>
<linearGradient id="paint0_linear_22_2" x1="659.99" y1="191.92" x2="655.2" y2="708.71" gradientUnits="userSpaceOnUse">
<stop stop-color="#F9C761" stop-opacity="0.6"/>
<stop offset="0.03" stop-color="#F9BA61" stop-opacity="0.55"/>
<stop offset="0.1" stop-color="#FAA062" stop-opacity="0.44"/>
<stop offset="0.18" stop-color="#FA8B63" stop-opacity="0.35"/>
<stop offset="0.27" stop-color="#FB7A64" stop-opacity="0.28"/>
<stop offset="0.39" stop-color="#FB6F64" stop-opacity="0.23"/>
<stop offset="0.55" stop-color="#FB6864" stop-opacity="0.21"/>
<stop offset="1" stop-color="#FC6765" stop-opacity="0.2"/>
</linearGradient>
<radialGradient id="paint1_radial_22_2" cx="0" cy="0" r="1" gradientUnits="userSpaceOnUse" gradientTransform="translate(670.93 629.25) scale(475.46 475.46)">
<stop stop-color="#FDEDD3"/>
<stop offset="1" stop-color="#FCE7CA"/>
</radialGradient>
<radialGradient id="paint2_radial_22_2" cx="0" cy="0" r="1" gradientUnits="userSpaceOnUse" gradientTransform="translate(642.14 644.584) scale(312.96 359.904)">
<stop/>
<stop offset="0.85" stop-opacity="0.59"/>
<stop offset="1" stop-opacity="0.2"/>
</radialGradient>
<linearGradient id="paint3_linear_22_2" x1="755.72" y1="159.729" x2="585.078" y2="584.442" gradientUnits="userSpaceOnUse">
<stop stop-color="#F9E1B1" stop-opacity="0.2"/>
<stop offset="0.65" stop-color="#FCE7CA" stop-opacity="0"/>
</linearGradient>
<linearGradient id="paint4_linear_22_2" x1="737.826" y1="171.664" x2="533.343" y2="686.048" gradientUnits="userSpaceOnUse">
<stop stop-color="#F9C761" stop-opacity="0.6"/>
<stop offset="0.03" stop-color="#F9BA61" stop-opacity="0.55"/>
<stop offset="0.1" stop-color="#FAA062" stop-opacity="0.44"/>
<stop offset="0.18" stop-color="#FA8B63" stop-opacity="0.35"/>
<stop offset="0.27" stop-color="#FB7A64" stop-opacity="0.28"/>
<stop offset="0.39" stop-color="#FB6F64" stop-opacity="0.23"/>
<stop offset="0.55" stop-color="#FB6864" stop-opacity="0.21"/>
<stop offset="1" stop-color="#FC6765" stop-opacity="0.2"/>
</linearGradient>
<linearGradient id="paint5_linear_22_2" x1="580.113" y1="168.577" x2="752.06" y2="596.543" gradientUnits="userSpaceOnUse">
<stop stop-color="#F9E1B1" stop-opacity="0.2"/>
<stop offset="0.65" stop-color="#FCE7CA" stop-opacity="0"/>
</linearGradient>
<linearGradient id="paint6_linear_22_2" x1="611.18" y1="174.353" x2="815.66" y2="688.729" gradientUnits="userSpaceOnUse">
<stop stop-color="#F9C761" stop-opacity="0.6"/>
<stop offset="0.03" stop-color="#F9BA61" stop-opacity="0.55"/>
<stop offset="0.1" stop-color="#FAA062" stop-opacity="0.44"/>
<stop offset="0.18" stop-color="#FA8B63" stop-opacity="0.35"/>
<stop offset="0.27" stop-color="#FB7A64" stop-opacity="0.28"/>
<stop offset="0.39" stop-color="#FB6F64" stop-opacity="0.23"/>
<stop offset="0.55" stop-color="#FB6864" stop-opacity="0.21"/>
<stop offset="1" stop-color="#FC6765" stop-opacity="0.2"/>
</linearGradient>
<linearGradient id="paint7_linear_22_2" x1="665.871" y1="180.459" x2="662.076" y2="645.159" gradientUnits="userSpaceOnUse">
<stop stop-color="#F9C761" stop-opacity="0.6"/>
<stop offset="0.03" stop-color="#F9BA61" stop-opacity="0.55"/>
<stop offset="0.1" stop-color="#FAA062" stop-opacity="0.44"/>
<stop offset="0.18" stop-color="#FA8B63" stop-opacity="0.35"/>
<stop offset="0.27" stop-color="#FB7A64" stop-opacity="0.28"/>
<stop offset="0.39" stop-color="#FB6F64" stop-opacity="0.23"/>
<stop offset="0.55" stop-color="#FB6864" stop-opacity="0.21"/>
<stop offset="1" stop-color="#FC6765" stop-opacity="0.2"/>
</linearGradient>
</defs>
</svg>
