<svg width="1340" height="800" viewBox="0 0 1340 800" fill="none" xmlns="http://www.w3.org/2000/svg">
<path d="M1344 564.32H-2.09V795.48H1344V564.32Z" fill="url(#paint0_radial_22_2)"/>
<path d="M1344 -5.67993H-4V595.32H1344V-5.67993Z" fill="#323440"/>
<path opacity="0.43" d="M708 79.3201C716.84 79.5501 943 707.7 943 707.7C943 707.7 859.95 726.7 634.57 728.24C413.5 729.76 371.36 708.19 367.42 707.7L638 80.1801" fill="url(#paint1_linear_22_2)"/>
<path d="M37.67 600.84H1317.74C1317.74 600.84 1499.18 798.99 718.43 798.99C-217.61 798.99 37.67 600.84 37.67 600.84Z" fill="#AD6346"/>
<path d="M37.67 580.18H1317.74C1317.74 580.18 1499.18 778.33 718.43 778.33C-217.61 778.33 37.67 580.18 37.67 580.18Z" fill="url(#paint2_radial_22_2)"/>
<path d="M162.27 580.79L68.06 699.31" stroke="#C19678" stroke-miterlimit="10"/>
<path d="M230.35 580.79L131.27 727.27" stroke="#C19678" stroke-miterlimit="10"/>
<path d="M202.39 744.9L297.21 580.79" stroke="#C19678" stroke-miterlimit="10"/>
<path d="M333.68 761.92L392.03 580.79" stroke="#C19678" stroke-miterlimit="10"/>
<path d="M413.91 769.21L447.94 580.79" stroke="#C19678" stroke-miterlimit="10"/>
<path d="M494.14 772.86L511.16 580.79" stroke="#C19678" stroke-miterlimit="10"/>
<path d="M573.16 777.11L575.59 581.39" stroke="#C19678" stroke-miterlimit="10"/>
<path d="M652.17 777.72L644.88 580.79" stroke="#C19678" stroke-miterlimit="10"/>
<path d="M732.4 777.72L720.25 580.79" stroke="#C19678" stroke-miterlimit="10"/>
<path d="M810.2 777.72L784.68 577.14" stroke="#C19678" stroke-miterlimit="10"/>
<path d="M879.5 774.07L846.67 580.79" stroke="#C19678" stroke-miterlimit="10"/>
<path d="M968.24 767.99L905.02 580.79" stroke="#C19678" stroke-miterlimit="10"/>
<path d="M1036.31 764.35L962.16 579.57" stroke="#C19678" stroke-miterlimit="10"/>
<path d="M1121.41 752.19L1027.8 580.79" stroke="#C19678" stroke-miterlimit="10"/>
<path d="M1189.48 737.6L1101.96 580.79" stroke="#C19678" stroke-miterlimit="10"/>
<path d="M1262.42 713.29L1168.82 580.79" stroke="#C19678" stroke-miterlimit="10"/>
<path d="M1318.34 676.82L1229.6 580.79" stroke="#C19678" stroke-miterlimit="10"/>
<path d="M1032.95 -5.75C1032.95 -5.75 935.39 238.16 1135.65 355.79L1066.27 584.52C1059.83 603.3 1110.89 605.48 1133.1 606.59C1143.22 607.1 1154.56 605.87 1166.29 601.3C1166.29 601.3 1211.82 643.58 1276.86 594.8C1276.86 594.8 1300.71 629.85 1341.9 610.7L1339.52 -9" fill="#D64C5C"/>
<path d="M1057.05 64.7C1056.98 61.61 1026.31 241.29 1134.53 292.28C1149.92 299.53 1134.45 292.68 1134.45 292.68C1134.45 292.68 1060.74 230.11 1057.05 64.7Z" fill="#A03746"/>
<path d="M1166.13 594.65L1202.06 416.16C1202.06 416.16 1155.14 500.18 1166.13 594.65Z" fill="#A03746"/>
<path d="M1249.97 416.16C1246.44 409.04 1273.18 597.48 1273.18 597.48C1273.18 597.48 1273.49 463.54 1249.97 416.16Z" fill="#A03746"/>
<path d="M1169.1 22.05C1170.35 25.16 1120.47 248.77 1231.32 332.48C1231.32 332.48 1162.36 215.67 1170.35 25.17" fill="#A03746"/>
<path d="M1258.45 30.03C1256.75 33.9 1189.66 173.75 1288.78 290.2C1288.78 290.2 1227.79 183.52 1256.74 33.9" fill="#A03746"/>
<path d="M1181.62 375.9C1165.63 375.9 1149.33 374.58 1133.34 371.34C1129.23 370.51 1126.58 366.51 1127.41 362.4C1128.24 358.29 1132.25 355.64 1136.35 356.47C1229.19 375.24 1339.74 325.38 1340.81 324.88V340.06C1336.82 342.83 1315.25 352.76 1275.93 362.85C1250.61 369.35 1216.9 375.9 1181.62 375.9Z" fill="#FDE176"/>
<path d="M316.15 -1.32993C316.15 -1.32993 416.62 249.84 210.39 370.98L281.83 606.52C288.46 625.86 235.88 628.1 213.01 629.25C202.59 629.77 190.91 628.51 178.83 623.81C178.83 623.81 131.94 667.35 64.96 617.11C64.96 617.11 40.4 653.2 -2.01999 633.48L0.450011 -4.67993" fill="#D64C5C"/>
<path d="M291.33 71.2202C291.4 68.0402 322.99 253.07 211.54 305.58C195.69 313.05 211.63 305.99 211.63 305.99C211.63 305.99 287.54 241.56 291.33 71.2202Z" fill="#A03746"/>
<path d="M179 616.95L142 433.14C142 433.14 190.32 519.66 179 616.95Z" fill="#A03746"/>
<path d="M35.73 411.93C39.37 404.6 11.83 598.65 11.83 598.65C11.83 598.65 11.51 460.72 35.73 411.93Z" fill="#A03746"/>
<path d="M175.94 27.29C174.65 30.5 226.02 260.77 111.86 346.96C111.86 346.96 182.87 226.67 174.65 30.49" fill="#A03746"/>
<path d="M83.94 35.5C85.69 39.48 154.78 183.5 52.7 303.42C52.7 303.42 115.51 193.56 85.69 39.49" fill="#A03746"/>
<path d="M163.05 391.68C126.71 391.68 91.98 385.04 65.93 378.24C25.11 367.58 -0.82 354.2 -2 353.66V338.03C-0.76 338.61 114.12 391 209.67 371.68C213.9 370.83 218.02 373.56 218.88 377.79C219.74 382.02 217 386.14 212.77 387C196.31 390.33 179.51 391.69 163.05 391.69V391.68Z" fill="#FDE176"/>
<path d="M680.892 -4C680.892 -4 667.47 -4 666.353 -1.78348C665.235 0.433047 663 47 663 47H685L680.882 -4H680.892Z" fill="#474B5B"/>
<path d="M675.99 89.0501C696.844 89.0501 713.75 84.5774 713.75 79.0601C713.75 73.5427 696.844 69.0701 675.99 69.0701C655.136 69.0701 638.23 73.5427 638.23 79.0601C638.23 84.5774 655.136 89.0501 675.99 89.0501Z" fill="#FFD7A1"/>
<path d="M660.63 46.86C660.63 46.86 638.23 53.52 638.23 65.74V80.29C638.23 80.29 653.78 76.84 674.88 76.84C695.98 76.84 713.97 80.29 713.97 80.29V67.07C713.97 67.07 708.51 47.97 686.14 46.86C663.77 45.75 660.63 46.86 660.63 46.86Z" fill="#515566"/>
<path opacity="0.66" d="M624 725.32C868.662 725.32 1067 706.068 1067 682.32C1067 658.572 868.662 639.32 624 639.32C379.338 639.32 181 658.572 181 682.32C181 706.068 379.338 725.32 624 725.32Z" fill="url(#paint3_radial_22_2)"/>
<path d="M772.1 66.8601C763.35 63.0701 262.92 535.06 262.92 535.06L826 795.39L836 96.3101" fill="url(#paint4_linear_22_2)"/>
<path d="M833.12 14.3201V-3.67993H827.85L828.75 13.5901L833.12 14.3201Z" fill="#2E323A"/>
<path d="M835.82 15.36L829.12 37.19L831.78 42.3L825.86 58.91L812.86 54.17L828.47 7.25L835.82 15.36Z" fill="#474B5B"/>
<path d="M828.75 7.29004L822.12 9.32004L806.33 52.05L815.1 54.51L828.75 7.29004Z" fill="#2E323A"/>
<path d="M836.21 96.5101C836.21 96.5101 821.61 101.17 794 87.8901C766.39 74.6101 772.05 67.3101 772.05 67.3101L812.12 70.3101L831.12 83.3101C833.12 84.3101 837.58 95.0701 836.2 96.5101H836.21Z" fill="#F9E1B1"/>
<path d="M836.12 96.3201C836.12 96.3201 802.33 68.2001 772.12 67.3201C772.12 67.3201 779.88 43.3601 794.56 46.7101C809.24 50.0601 827.04 58.5901 827.04 58.5901C827.04 58.5901 845.46 66.0601 840.78 81.2101L836.12 96.3201Z" fill="#515566"/>
<path d="M790.16 71.11C785.16 69.05 305 702.32 305 702.32C305 702.32 329 714.32 495 718.32C661 722.32 710 709.32 710 709.32L815.71 83.48" fill="url(#paint5_linear_22_2)"/>
<path d="M520 17.3201V-0.679932H525.28L524.38 16.5901L520 17.3201Z" fill="#2E323A"/>
<path d="M517.3 18.36L524.01 40.19L521.35 45.3L527.27 61.91L540.26 57.17L524.65 10.25L517.3 18.36Z" fill="#474B5B"/>
<path d="M524.38 10.29L531 12.32L546.8 55.05L538.03 57.51L524.38 10.29Z" fill="#2E323A"/>
<path d="M516.92 99.5101C516.92 99.5101 531.52 104.17 559.13 90.8901C586.74 77.6101 581.08 70.3101 581.08 70.3101L541.01 73.3101L522.01 86.3101C520.01 87.3101 515.55 98.0701 516.93 99.5101H516.92Z" fill="#F9E1B1"/>
<path d="M517 99.3201C517 99.3201 550.79 71.2001 581 70.3201C581 70.3201 573.24 46.3601 558.56 49.7101C543.88 53.0601 526.08 61.5901 526.08 61.5901C526.08 61.5901 507.66 69.0601 512.34 84.2101L517 99.3201Z" fill="#515566"/>
<path d="M576 70.3201C584.75 66.5301 1076.08 548.07 1076.08 548.07L513 808.4L521.7 101.32" fill="url(#paint6_linear_22_2)"/>
<path d="M558.84 74.11C563.84 72.05 1044 705.32 1044 705.32C1044 705.32 1020 717.32 854 721.32C688 725.32 639 712.32 639 712.32L533.29 86.48" fill="url(#paint7_linear_22_2)"/>
<path d="M689.03 79.1101C695.03 79.3401 856.38 722.32 856.38 722.32C856.38 722.32 800.01 742.32 647.01 743.32C494.01 744.32 465.66 722.32 465.66 722.32L657.52 79.6201" fill="url(#paint8_linear_22_2)"/>
<path opacity="0.09" d="M219 658.32C219 658.32 323.64 705.33 668.37 700.33C1013.11 695.34 1041 666.32 1041 666.32C1041 666.32 1024.12 699.34 987.48 710.32C950.84 721.3 837.52 725.61 837.52 725.61C837.52 725.61 451.78 725.17 385.38 721.25C318.98 717.33 257.38 692.32 219 658.32Z" fill="#1A1515"/>
<defs>
<radialGradient id="paint0_radial_22_2" cx="0" cy="0" r="1" gradientUnits="userSpaceOnUse" gradientTransform="translate(1958.68 881.19) scale(0.595 0.61)">
<stop stop-color="#4C3E47"/>
<stop offset="1" stop-color="#282B3A"/>
</radialGradient>
<linearGradient id="paint1_linear_22_2" x1="659.99" y1="191.92" x2="655.2" y2="708.71" gradientUnits="userSpaceOnUse">
<stop stop-color="#F9C761" stop-opacity="0.6"/>
<stop offset="0.03" stop-color="#F9BA61" stop-opacity="0.55"/>
<stop offset="0.1" stop-color="#FAA062" stop-opacity="0.44"/>
<stop offset="0.18" stop-color="#FA8B63" stop-opacity="0.35"/>
<stop offset="0.27" stop-color="#FB7A64" stop-opacity="0.28"/>
<stop offset="0.39" stop-color="#FB6F64" stop-opacity="0.23"/>
<stop offset="0.55" stop-color="#FB6864" stop-opacity="0.21"/>
<stop offset="1" stop-color="#FC6765" stop-opacity="0.2"/>
</linearGradient>
<radialGradient id="paint2_radial_22_2" cx="0" cy="0" r="1" gradientUnits="userSpaceOnUse" gradientTransform="translate(670.93 679.25) scale(475.46 475.46)">
<stop stop-color="#FDEDD3"/>
<stop offset="1" stop-color="#FCE7CA"/>
</radialGradient>
<radialGradient id="paint3_radial_22_2" cx="0" cy="0" r="1" gradientUnits="userSpaceOnUse" gradientTransform="translate(621.14 684.584) scale(312.96 359.904)">
<stop/>
<stop offset="0.85" stop-opacity="0.59"/>
<stop offset="1" stop-opacity="0.2"/>
</radialGradient>
<linearGradient id="paint4_linear_22_2" x1="755.72" y1="181.74" x2="544.455" y2="645.14" gradientUnits="userSpaceOnUse">
<stop stop-color="#F9E1B1" stop-opacity="0.2"/>
<stop offset="0.65" stop-color="#FCE7CA" stop-opacity="0"/>
</linearGradient>
<linearGradient id="paint5_linear_22_2" x1="737.826" y1="195.282" x2="484.487" y2="756.914" gradientUnits="userSpaceOnUse">
<stop stop-color="#F9C761" stop-opacity="0.6"/>
<stop offset="0.03" stop-color="#F9BA61" stop-opacity="0.55"/>
<stop offset="0.1" stop-color="#FAA062" stop-opacity="0.44"/>
<stop offset="0.18" stop-color="#FA8B63" stop-opacity="0.35"/>
<stop offset="0.27" stop-color="#FB7A64" stop-opacity="0.28"/>
<stop offset="0.39" stop-color="#FB6F64" stop-opacity="0.23"/>
<stop offset="0.55" stop-color="#FB6864" stop-opacity="0.21"/>
<stop offset="1" stop-color="#FC6765" stop-opacity="0.2"/>
</linearGradient>
<linearGradient id="paint6_linear_22_2" x1="580.113" y1="191.78" x2="792.994" y2="658.73" gradientUnits="userSpaceOnUse">
<stop stop-color="#F9E1B1" stop-opacity="0.2"/>
<stop offset="0.65" stop-color="#FCE7CA" stop-opacity="0"/>
</linearGradient>
<linearGradient id="paint7_linear_22_2" x1="611.18" y1="198.334" x2="864.515" y2="759.957" gradientUnits="userSpaceOnUse">
<stop stop-color="#F9C761" stop-opacity="0.6"/>
<stop offset="0.03" stop-color="#F9BA61" stop-opacity="0.55"/>
<stop offset="0.1" stop-color="#FAA062" stop-opacity="0.44"/>
<stop offset="0.18" stop-color="#FA8B63" stop-opacity="0.35"/>
<stop offset="0.27" stop-color="#FB7A64" stop-opacity="0.28"/>
<stop offset="0.39" stop-color="#FB6F64" stop-opacity="0.23"/>
<stop offset="0.55" stop-color="#FB6864" stop-opacity="0.21"/>
<stop offset="1" stop-color="#FC6765" stop-opacity="0.2"/>
</linearGradient>
<linearGradient id="paint8_linear_22_2" x1="665.9" y1="194.51" x2="661" y2="723.05" gradientUnits="userSpaceOnUse">
<stop stop-color="#F9C761" stop-opacity="0.6"/>
<stop offset="0.03" stop-color="#F9BA61" stop-opacity="0.55"/>
<stop offset="0.1" stop-color="#FAA062" stop-opacity="0.44"/>
<stop offset="0.18" stop-color="#FA8B63" stop-opacity="0.35"/>
<stop offset="0.27" stop-color="#FB7A64" stop-opacity="0.28"/>
<stop offset="0.39" stop-color="#FB6F64" stop-opacity="0.23"/>
<stop offset="0.55" stop-color="#FB6864" stop-opacity="0.21"/>
<stop offset="1" stop-color="#FC6765" stop-opacity="0.2"/>
</linearGradient>
</defs>
</svg>
