<svg width="473" height="668" viewBox="0 0 473 668" fill="none" xmlns="http://www.w3.org/2000/svg">
<g clip-path="url(#clip0_96_1524)">
<path d="M299.14 530.59L304.56 573.92L226.92 572.11L233.65 529.98L219.7 519.75L203.45 644.33C203.45 644.33 201.64 652.86 210.67 652.21C219.7 651.55 217.89 646.14 217.89 646.14L226.92 581.14L306.36 584.75L315.39 647.94C315.39 647.94 313.58 655.16 322.61 655.16C331.64 655.16 328.03 646.13 328.03 646.13L315.75 526.6L299.14 530.57V530.59Z" fill="#6D4930"/>
<path opacity="0.09" d="M299.71 531.67C299.37 532.17 301.37 544.17 301.37 544.17L317.37 543.17L315.2 530.07L299.7 531.67H299.71Z" fill="#1A1515"/>
<path opacity="0.09" d="M216.71 540.58C216.37 540.08 218.37 528.08 218.37 528.08L234.37 529.08L232.2 542.18L216.7 540.58H216.71Z" fill="#1A1515"/>
<path d="M210.67 481.9V523.17C210.67 523.17 217.68 534.33 270.25 534.96C322.61 535.59 329.83 525.85 329.83 525.85L329.08 481.9L266.63 485.04L210.66 481.9H210.67Z" fill="#A488BF"/>
<path d="M270.25 494.06C303.155 494.06 329.83 487.595 329.83 479.62C329.83 471.645 303.155 465.18 270.25 465.18C237.345 465.18 210.67 471.645 210.67 479.62C210.67 487.595 237.345 494.06 270.25 494.06Z" fill="#D5ACF6"/>
<path opacity="0.09" d="M330.03 525.68C330.03 525.68 316.67 537.18 260.77 534.68C210.65 532.44 260.04 534.68 260.04 534.68C260.04 534.68 303.67 514.18 288.67 495.18L287.47 493.48C287.47 493.48 325.09 490.63 329.38 481.91L330.03 525.69V525.68Z" fill="#1A1515"/>
<path opacity="0.09" d="M226.92 572.12L225.53 574.24L306.38 576.17L304.56 573.92L226.92 572.12Z" fill="#1A1515"/>
<path opacity="0.22" d="M319.38 482.67C319.38 486.81 302.38 487.17 270.38 485.17C241.38 489.17 217.38 486.81 217.38 482.67C217.38 478.53 240.21 475.17 268.38 475.17C296.55 475.17 319.38 478.53 319.38 482.67Z" fill="#1A1515"/>
<path d="M112.76 110.58C111.88 18.03 197.22 0.819994 240 3.78999C334.24 -2.79001 357.34 81.95 361.74 99.75C366.14 117.55 368.34 173.27 377.51 203.06C386.68 232.85 405.01 228.21 405.38 272.71C405.75 317.21 354.41 313.72 361.38 309.47C366.95 306.06 368.1 290.51 367.98 283.16C363.29 300.8 347.2 308.05 339.75 309.47C302.71 308.7 222.19 307.61 196.38 309.47C170.57 311.33 165.58 288.06 166.31 276.19C164.26 286.71 167.17 302.76 168.88 309.47C157.63 309.86 129.72 310.4 108.01 309.47C86.3 308.54 86.74 268.07 89.68 247.95C75.9 269.19 76.83 289 81.61 297.86C66.06 275.88 77.09 247.17 84.54 235.56C103.46 206.11 113.65 203.14 112.77 110.58H112.76Z" fill="#1A1515"/>
<path d="M258.07 392.79L320.52 407L306.74 331.62L208.1 355.74L205.95 433.7L258.07 392.78V392.79Z" fill="#181B21"/>
<path d="M117.66 207.55C137.28 201.86 136.63 163.9 136.75 160.89C144.12 163.34 157.14 172.73 150.22 190.74C143.3 208.74 125.63 209.45 117.66 207.55Z" fill="#1A1515"/>
<path d="M239.55 234.29C297.358 234.29 344.22 187.428 344.22 129.62C344.22 71.8123 297.358 24.95 239.55 24.95C181.742 24.95 134.88 71.8123 134.88 129.62C134.88 187.428 181.742 234.29 239.55 234.29Z" fill="#F2AD84"/>
<path d="M344 133.95C349.64 76.4899 305.04 41.5699 282.04 31.2899C261.62 22.1699 221.2 21.4899 202.86 29.4299C150.17 52.2499 133 105.29 135.33 129.06C137.15 129.1 146.35 137.41 186.5 130.15L192.77 108.98L196.39 130.49C260.25 114.31 318.03 146.2 344 133.95Z" fill="black"/>
<path d="M345.93 129.84C352.84 72.7 306.86 36.97 283 26.24C261.83 16.72 219.6 15.2 200.29 22.73C144.82 44.36 125.94 96.86 127.95 120.59C129.86 120.67 139.32 129.14 181.41 122.75L200.29 93.87L191.73 123.3C258.75 108.52 318.57 141.5 345.92 129.84H345.93Z" fill="#1A1515"/>
<path d="M183.99 174.85C196.361 174.85 206.39 165.206 206.39 153.31C206.39 141.414 196.361 131.77 183.99 131.77C171.619 131.77 161.59 141.414 161.59 153.31C161.59 165.206 171.619 174.85 183.99 174.85Z" fill="#423737"/>
<path d="M289.09 178.3C301.461 178.3 311.49 168.656 311.49 156.76C311.49 144.864 301.461 135.22 289.09 135.22C276.719 135.22 266.69 144.864 266.69 156.76C266.69 168.656 276.719 178.3 289.09 178.3Z" fill="#423737"/>
<path d="M247.74 195.52C245.43 198.77 238.93 203.32 231.37 195.52" stroke="#844B4B" stroke-width="5" stroke-linecap="round"/>
<path d="M171.93 152.45C175.26 152.45 177.96 149.75 177.96 146.42C177.96 143.09 175.26 140.39 171.93 140.39C168.6 140.39 165.9 143.09 165.9 146.42C165.9 149.75 168.6 152.45 171.93 152.45Z" fill="white"/>
<path d="M277.02 155.9C280.35 155.9 283.05 153.2 283.05 149.87C283.05 146.54 280.35 143.84 277.02 143.84C273.69 143.84 270.99 146.54 270.99 149.87C270.99 153.2 273.69 155.9 277.02 155.9Z" fill="white"/>
<path d="M244.729 242.566L227.794 246.246C204.55 251.297 189.801 274.235 194.852 297.48L205.794 347.835C210.845 371.079 233.784 385.828 257.028 380.777L273.963 377.097C297.207 372.045 311.956 349.107 306.905 325.863L295.962 275.508C290.911 252.264 267.973 237.515 244.729 242.566Z" fill="#EDF3FD"/>
<path d="M280.09 264.44L315.96 291.28C319.77 294.13 325.17 293.35 328.02 289.54C330.87 285.73 330.09 280.33 326.28 277.48L290.41 250.64C286.6 247.79 281.2 248.57 278.35 252.38C275.5 256.19 276.28 261.59 280.09 264.44Z" fill="#363739"/>
<path d="M315.32 289.8L337.03 328.98C339.34 333.14 344.58 334.65 348.74 332.34C352.9 330.03 354.41 324.79 352.1 320.63L330.39 281.45C328.08 277.29 322.84 275.78 318.68 278.09C314.52 280.4 313.01 285.64 315.32 289.8Z" fill="#363739"/>
<path d="M238.59 370.16C232.93 370.87 228.91 376.04 229.62 381.7L240.74 470.6C241.45 476.26 246.62 480.28 252.28 479.57C257.94 478.86 261.96 473.69 261.25 468.03L250.13 379.13C249.42 373.47 244.25 369.45 238.59 370.16Z" fill="#363739"/>
<path d="M276.84 364.56C271.23 365.62 267.54 371.03 268.6 376.64L285.43 465.62C286.49 471.23 291.9 474.92 297.51 473.86C303.12 472.8 306.81 467.39 305.75 461.78L288.92 372.8C287.86 367.19 282.45 363.5 276.84 364.56Z" fill="#363739"/>
<path d="M307.9 335.36L207.5 362.27C211.63 372.06 229.82 389.02 269.5 378.48C309.18 367.95 311.64 345.34 307.9 335.35V335.36Z" fill="#363739"/>
<path d="M237.83 224.81C231.88 224.81 227.06 229.63 227.06 235.58V244.19C227.06 250.14 231.88 254.96 237.83 254.96C243.78 254.96 248.6 250.14 248.6 244.19V235.58C248.6 229.63 243.78 224.81 237.83 224.81Z" fill="#F2AD84"/>
<path d="M249.46 233.43C243.39 234.73 231.37 234.29 226.2 233.43C229.57 239.93 238.94 249.03 249.46 233.43Z" fill="black"/>
<g opacity="0.2">
<path d="M180.11 210.17C185.583 210.17 190.02 205.733 190.02 200.26C190.02 194.787 185.583 190.35 180.11 190.35C174.637 190.35 170.2 194.787 170.2 200.26C170.2 205.733 174.637 210.17 180.11 210.17Z" fill="#FF837B"/>
</g>
<g opacity="0.2">
<path d="M298.99 210.17C304.463 210.17 308.9 205.733 308.9 200.26C308.9 194.787 304.463 190.35 298.99 190.35C293.517 190.35 289.08 194.787 289.08 200.26C289.08 205.733 293.517 210.17 298.99 210.17Z" fill="#FF837B"/>
</g>
<path d="M360.46 350.44C366.24 346.45 367.69 338.53 363.7 332.75L359.45 326.59C355.46 320.81 347.54 319.36 341.76 323.35C335.98 327.34 334.53 335.26 338.52 341.04L342.77 347.2C346.76 352.98 354.68 354.43 360.46 350.44Z" fill="#F2AD84"/>
<path d="M337.79 347.14C340.14 347.58 342.39 346.03 342.83 343.69L343.96 337.67C344.4 335.32 342.85 333.07 340.51 332.63C338.16 332.19 335.91 333.74 335.47 336.08L334.34 342.1C333.9 344.45 335.45 346.7 337.79 347.14Z" fill="#F2AD84"/>
<path d="M219.31 477.22C219.31 484.36 228.95 481.96 240.85 481.96C252.75 481.96 262.39 484.36 262.39 477.22C262.39 470.08 252.75 464.3 240.85 464.3C228.95 464.3 219.31 470.09 219.31 477.22Z" fill="#29292B"/>
<path d="M277.16 478.89C277.7 486.01 287.13 482.89 298.99 481.99C310.85 481.09 320.64 482.76 320.11 475.64C319.57 468.52 309.52 463.48 297.66 464.38C285.8 465.28 276.62 471.77 277.16 478.89Z" fill="#29292B"/>
<path d="M133.16 161.92C138.396 161.92 142.64 155.75 142.64 148.14C142.64 140.53 138.396 134.36 133.16 134.36C127.924 134.36 123.68 140.53 123.68 148.14C123.68 155.75 127.924 161.92 133.16 161.92Z" fill="#F2AD84"/>
<path d="M345.08 161.92C350.316 161.92 354.56 155.75 354.56 148.14C354.56 140.53 350.316 134.36 345.08 134.36C339.844 134.36 335.6 140.53 335.6 148.14C335.6 155.75 339.844 161.92 345.08 161.92Z" fill="#F2AD84"/>
<path d="M339.9 170.11C350.08 150.95 347.71 128.41 345.25 119.54C345.02 102.7 339.87 81.52 321.16 131.46C302.45 181.4 333.29 205.37 351.05 211.11L349.69 210.36C342.18 204.93 329.72 189.27 339.9 170.11Z" fill="#1A1515"/>
<path d="M129.63 154.25C125.98 132.86 135.3 112.21 140.42 104.55C145.92 88.64 157.46 70.14 159.55 123.43C161.64 176.72 124.84 189.8 106.17 189.68L107.7 189.39C116.53 186.59 133.28 175.63 129.63 154.25Z" fill="#1A1515"/>
<path d="M202.22 260.31L160.57 243.81C156.15 242.06 151.14 244.22 149.39 248.65C147.64 253.07 149.8 258.08 154.23 259.83L195.88 276.33C200.3 278.08 205.31 275.92 207.06 271.49C208.81 267.07 206.65 262.06 202.22 260.31Z" fill="#363739"/>
<path d="M162.65 244.93L131.43 212.81C128.11 209.4 122.66 209.32 119.25 212.64C115.84 215.96 115.76 221.41 119.08 224.82L150.3 256.94C153.62 260.35 159.07 260.43 162.48 257.11C165.89 253.79 165.97 248.34 162.65 244.93Z" fill="#363739"/>
<path d="M103.08 195.97C98.28 201.1 98.55 209.15 103.68 213.94L109.14 219.05C114.27 223.85 122.32 223.58 127.11 218.45C131.91 213.32 131.64 205.27 126.51 200.48L121.05 195.37C115.92 190.57 107.87 190.84 103.08 195.97Z" fill="#F2AD84"/>
<path d="M112.92 201.12L56.5 87.41" stroke="#FFCB75" stroke-width="5" stroke-linecap="round"/>
<path d="M108.65 197.59C107.96 199.68 109.09 201.94 111.18 202.63L116.87 204.51C118.96 205.2 121.22 204.07 121.91 201.98C122.6 199.89 121.47 197.63 119.38 196.94L113.69 195.06C111.6 194.37 109.34 195.5 108.65 197.59Z" fill="black"/>
<path d="M109.36 195.89C108.23 197.99 109.03 200.61 111.13 201.74L116.53 204.63C118.63 205.76 121.25 204.96 122.38 202.86C123.51 200.76 122.71 198.14 120.61 197.01L115.21 194.12C113.11 192.99 110.49 193.79 109.36 195.89Z" fill="#F2AD84"/>
<path d="M278.75 246.78C272.55 239.89 257.79 240.46 251.18 241.61C260.48 250.22 261.66 290.28 261.09 309.23L278.75 339.38L304.59 317.84L297.27 279.51C293.68 271.47 284.95 253.67 278.75 246.78Z" fill="#363739"/>
<path d="M194.76 268.75C197.05 259.77 217.49 249.02 223.87 246.97C219.63 258.92 237.18 294.95 246.48 311.47L244.83 346.37L203.8 341.11L194.75 302.35C194.2 293.56 192.46 277.74 194.75 268.75H194.76Z" fill="#363739"/>
<path d="M259.8 309.23C263.59 289.59 258.22 262.57 255.06 251.51L265.4 257.54L272.72 251.51C274.44 259.09 264.82 293.15 259.8 309.23Z" fill="#686A6E"/>
<path d="M247.63 310.87C235.16 295.23 227.37 268.81 225.04 257.55L218.68 267.69L209.4 265.75C211.39 273.26 235.72 298.97 247.63 310.88V310.87Z" fill="#686A6E"/>
<path d="M252.47 359.63L205.09 351.02H239.55L261.09 344.56L282.63 341.11L307.18 328.62L275.31 355.32L261.1 347.57L252.49 359.63H252.47Z" fill="#EDF3FD"/>
<path d="M207.25 435.44L214.57 342.84L203.37 338.96L207.25 435.44Z" fill="#363739"/>
<path d="M320.96 409.16C323.03 387.11 310.91 339.96 304.59 319.14C297.7 317.27 286.24 315.52 295.54 323.45C304.84 331.38 316.36 383.89 320.95 409.16H320.96Z" fill="#363739"/>
<path d="M260.66 346.27C261.61 346.27 262.38 345.5 262.38 344.55C262.38 343.6 261.61 342.83 260.66 342.83C259.71 342.83 258.94 343.6 258.94 344.55C258.94 345.5 259.71 346.27 260.66 346.27Z" fill="#D9D9D9"/>
<path d="M259.8 341.1C260.75 341.1 261.52 340.33 261.52 339.38C261.52 338.43 260.75 337.66 259.8 337.66C258.85 337.66 258.08 338.43 258.08 339.38C258.08 340.33 258.85 341.1 259.8 341.1Z" fill="#D9D9D9"/>
<path d="M259.33 239.42C251.74 237.9 245.84 246.64 243.84 251.2L245.27 259.69C261.88 267.03 267.06 261.12 267.57 257.24C267.99 251.93 266.92 240.93 259.33 239.41V239.42Z" fill="#D64C5C"/>
<path d="M219.39 246.15C226.07 242.23 234.5 248.56 237.88 252.21L239.31 260.7C226.02 273.07 219.19 269.18 217.44 265.69C215.31 260.81 212.71 250.06 219.39 246.14V246.15Z" fill="#D64C5C"/>
<path d="M244.32 254.02L249.48 248.35L244.32 254.02ZM245.03 255.65L256 253.37L245.03 255.65ZM245.39 257.78L253.32 258.19L245.39 257.78Z" fill="#A03746"/>
<path d="M238.8 254.95L232.07 251.28L238.8 254.95ZM238.66 256.72L227.54 258.16L238.66 256.72ZM239.01 258.85L231.65 261.84L239.01 258.85Z" fill="#A03746"/>
<path d="M242.48 261.68C245.573 261.68 248.08 259.173 248.08 256.08C248.08 252.987 245.573 250.48 242.48 250.48C239.387 250.48 236.88 252.987 236.88 256.08C236.88 259.173 239.387 261.68 242.48 261.68Z" fill="#D64C5C"/>
<path d="M236.11 341.11C238.253 341.11 239.99 339.373 239.99 337.23C239.99 335.087 238.253 333.35 236.11 333.35C233.967 333.35 232.23 335.087 232.23 337.23C232.23 339.373 233.967 341.11 236.11 341.11Z" fill="#181B21"/>
<path d="M227.49 333.36C229.633 333.36 231.37 331.623 231.37 329.48C231.37 327.337 229.633 325.6 227.49 325.6C225.347 325.6 223.61 327.337 223.61 329.48C223.61 331.623 225.347 333.36 227.49 333.36Z" fill="#181B21"/>
<path d="M218.88 325.61C221.023 325.61 222.76 323.873 222.76 321.73C222.76 319.587 221.023 317.85 218.88 317.85C216.737 317.85 215 319.587 215 321.73C215 323.873 216.737 325.61 218.88 325.61Z" fill="#181B21"/>
<path d="M280.13 7.96005C280.13 7.96005 213.38 -2.81994 147.38 38.1801C119.32 55.6101 115.87 128.31 115.87 128.31C115.87 128.31 84.38 -25.8199 280.12 7.96005H280.13Z" fill="black"/>
<path opacity="0.09" d="M218.88 232.24C218.88 232.24 296.59 209.79 316.48 171.98C316.48 171.98 318.67 190.18 325.53 189.67C325.53 189.67 300.08 242.73 220.73 232.95" fill="#1A1515"/>
</g>
<defs>
<clipPath id="clip0_96_1524">
<rect width="472.72" height="667.17" fill="white"/>
</clipPath>
</defs>
</svg>
