<svg width="109" height="114" viewBox="0 0 109 114" fill="none" xmlns="http://www.w3.org/2000/svg">
<path d="M54.74 113.14C84.5689 113.14 108.75 88.9186 108.75 59.04C108.75 29.1614 84.5689 4.94 54.74 4.94C24.9111 4.94 0.72998 29.1614 0.72998 59.04C0.72998 88.9186 24.9111 113.14 54.74 113.14Z" fill="#75AF78"/>
<path d="M54.6901 108.47C84.519 108.47 108.7 84.2486 108.7 54.37C108.7 24.4914 84.519 0.269989 54.6901 0.269989C24.8612 0.269989 0.680176 24.4914 0.680176 54.37C0.680176 84.2486 24.8612 108.47 54.6901 108.47Z" fill="#87CC8C"/>
<path d="M27.2903 48.69C41.3203 48.69 55.3403 48.69 69.3703 48.69C67.5803 46.9 65.7903 45.1 64.0003 43.31C58.8503 38.15 66.8403 30.14 71.9903 35.3C76.8103 40.13 81.6202 44.95 86.4402 49.78C86.7902 50.05 87.0802 50.37 87.3402 50.72C88.3302 51.87 88.7203 53.14 88.6603 54.36C88.7203 55.62 88.3203 56.92 87.2703 58.11C87.1503 58.26 87.0103 58.4 86.8703 58.54C81.9103 63.51 76.9503 68.48 71.9903 73.44C66.8403 78.6 58.8403 70.59 64.0003 65.43C65.8003 63.63 67.6003 61.82 69.4003 60.02C55.3703 60.02 41.3303 60.02 27.3003 60.02C20.0303 60.02 20.0103 48.7 27.3003 48.7L27.2903 48.69Z" fill="white"/>
</svg>
