<svg width="197" height="236" viewBox="0 0 197 236" fill="none" xmlns="http://www.w3.org/2000/svg">
<path d="M82.1399 229.42C82.4999 229.7 82.78 230.05 82.99 230.47C83.2 230.89 83.2999 231.34 83.2999 231.81C83.2999 232.41 83.15 232.95 82.84 233.43C82.53 233.91 82.0899 234.29 81.5099 234.57C80.9299 234.85 80.2399 234.99 79.4399 234.99H75.0199V223.14H79.2699C80.0699 223.14 80.76 223.27 81.33 223.54C81.9 223.81 82.32 224.17 82.6 224.62C82.88 225.07 83.0299 225.58 83.0299 226.15C83.0299 226.85 82.84 227.43 82.46 227.89C82.08 228.35 81.58 228.68 80.96 228.89C81.39 228.96 81.7799 229.13 82.1399 229.42ZM76.5699 228.26H79.1699C79.8999 228.26 80.46 228.09 80.85 227.75C81.24 227.41 81.45 226.94 81.45 226.34C81.45 225.74 81.25 225.27 80.85 224.93C80.45 224.59 79.8799 224.42 79.1299 224.42H76.5599V228.26H76.5699ZM81.11 233.17C81.54 232.81 81.7599 232.3 81.7599 231.66C81.7599 231.02 81.53 230.48 81.08 230.1C80.63 229.72 80.0199 229.53 79.2599 229.53H76.5699V233.71H79.3099C80.0799 233.71 80.68 233.53 81.11 233.17Z" fill="#A8A8A8"/>
<path d="M85.4399 227.79C85.8299 227.07 86.3599 226.51 87.0299 226.12C87.6999 225.72 88.4499 225.53 89.2799 225.53C90.1099 225.53 90.7999 225.71 91.3999 226.06C91.9999 226.41 92.45 226.85 92.74 227.39V225.69H94.2999V235.01H92.74V233.28C92.43 233.82 91.98 234.28 91.37 234.63C90.76 234.99 90.06 235.17 89.25 235.17C88.44 235.17 87.6699 234.97 87.0099 234.56C86.3499 234.15 85.8099 233.58 85.4299 232.84C85.0499 232.1 84.85 231.26 84.85 230.32C84.85 229.38 85.0399 228.53 85.4299 227.81L85.4399 227.79ZM92.33 228.48C92.05 227.96 91.6599 227.56 91.1799 227.28C90.6999 227 90.17 226.86 89.59 226.86C89.01 226.86 88.4799 227 88.0099 227.27C87.5299 227.54 87.15 227.94 86.87 228.46C86.59 228.98 86.4399 229.59 86.4399 230.3C86.4399 231.01 86.58 231.63 86.87 232.16C87.15 232.69 87.5299 233.09 88.0099 233.37C88.4899 233.65 89.01 233.79 89.59 233.79C90.17 233.79 90.6999 233.65 91.1799 233.37C91.6599 233.09 92.04 232.69 92.33 232.16C92.61 231.63 92.75 231.02 92.75 230.32C92.75 229.62 92.61 229.01 92.33 228.48Z" fill="#A8A8A8"/>
<path d="M99.6499 225.95C100.15 225.66 100.77 225.51 101.49 225.51V227.11H101.08C99.35 227.11 98.48 228.05 98.48 229.93V235H96.9299V225.68H98.48V227.19C98.75 226.66 99.1399 226.24 99.6399 225.95H99.6499Z" fill="#A8A8A8"/>
<path d="M103.28 227.79C103.67 227.07 104.2 226.51 104.89 226.12C105.58 225.72 106.36 225.53 107.24 225.53C108.39 225.53 109.33 225.81 110.07 226.36C110.81 226.91 111.3 227.69 111.54 228.67H109.87C109.71 228.1 109.4 227.66 108.94 227.33C108.48 227 107.91 226.84 107.23 226.84C106.35 226.84 105.63 227.14 105.09 227.75C104.55 228.36 104.27 229.22 104.27 230.33C104.27 231.44 104.54 232.32 105.09 232.93C105.63 233.54 106.35 233.85 107.23 233.85C107.91 233.85 108.48 233.69 108.93 233.37C109.38 233.05 109.7 232.6 109.87 232.01H111.54C111.29 232.96 110.79 233.72 110.04 234.3C109.29 234.88 108.36 235.16 107.23 235.16C106.35 235.16 105.56 234.96 104.88 234.56C104.19 234.16 103.66 233.6 103.27 232.88C102.89 232.15 102.69 231.3 102.69 230.33C102.69 229.36 102.88 228.53 103.27 227.81L103.28 227.79Z" fill="#A8A8A8"/>
<path d="M115.29 234.55C114.58 234.15 114.03 233.59 113.62 232.86C113.22 232.13 113.02 231.28 113.02 230.32C113.02 229.36 113.23 228.53 113.64 227.8C114.05 227.07 114.62 226.51 115.33 226.12C116.04 225.73 116.84 225.53 117.73 225.53C118.62 225.53 119.41 225.73 120.13 226.12C120.84 226.51 121.41 227.07 121.82 227.79C122.23 228.51 122.44 229.36 122.44 230.32C122.44 231.28 122.23 232.13 121.8 232.86C121.38 233.59 120.8 234.15 120.07 234.55C119.34 234.95 118.54 235.15 117.66 235.15C116.78 235.15 116 234.95 115.29 234.55ZM119.22 233.4C119.71 233.14 120.1 232.75 120.4 232.23C120.7 231.71 120.85 231.07 120.85 230.33C120.85 229.59 120.7 228.95 120.41 228.43C120.12 227.91 119.73 227.52 119.25 227.27C118.77 227.02 118.26 226.89 117.7 226.89C117.14 226.89 116.62 227.02 116.14 227.27C115.67 227.52 115.29 227.91 115.01 228.43C114.73 228.95 114.58 229.59 114.58 230.33C114.58 231.07 114.72 231.73 115 232.25C115.28 232.77 115.65 233.16 116.11 233.41C116.57 233.66 117.08 233.79 117.64 233.79C118.2 233.79 118.72 233.66 119.2 233.4H119.22Z" fill="#A8A8A8"/>
<path d="M98.44 196.88C152.807 196.88 196.88 152.807 196.88 98.44C196.88 44.0731 152.807 0 98.44 0C44.0731 0 0 44.0731 0 98.44C0 152.807 44.0731 196.88 98.44 196.88Z" fill="#B2CCA2"/>
<path d="M40.6899 43.77L130.51 120.31L151.85 128.56L40.6899 43.77Z" fill="#F4F4F4"/>
<path d="M130.51 120.31L122.9 148.44L40.6899 43.77L130.51 120.31Z" fill="#E0E0E0"/>
<path d="M122.9 148.44L92.7599 161.56L40.6899 43.77L122.9 148.44Z" fill="white"/>
<path d="M39.98 43.58L180.45 115.92L151.85 128.56L39.98 43.58Z" fill="white"/>
</svg>
