<svg width="197" height="236" viewBox="0 0 197 236" fill="none" xmlns="http://www.w3.org/2000/svg">
<path d="M82.14 229.42C82.5 229.7 82.7801 230.05 82.9901 230.47C83.2001 230.89 83.3 231.34 83.3 231.81C83.3 232.41 83.15 232.95 82.84 233.43C82.54 233.91 82.09 234.29 81.51 234.57C80.93 234.85 80.24 234.99 79.44 234.99H75.02V223.14H79.27C80.07 223.14 80.76 223.27 81.33 223.54C81.9 223.81 82.32 224.17 82.6 224.62C82.88 225.07 83.03 225.58 83.03 226.15C83.03 226.85 82.84 227.43 82.46 227.89C82.08 228.35 81.58 228.68 80.96 228.89C81.39 228.96 81.78 229.13 82.14 229.42ZM76.57 228.26H79.17C79.9 228.26 80.46 228.09 80.85 227.75C81.24 227.41 81.45 226.94 81.45 226.34C81.45 225.74 81.25 225.27 80.85 224.93C80.45 224.59 79.88 224.42 79.13 224.42H76.5601V228.26H76.57ZM81.11 233.17C81.54 232.81 81.76 232.3 81.76 231.66C81.76 231.02 81.53 230.48 81.08 230.1C80.63 229.72 80.02 229.53 79.26 229.53H76.57V233.71H79.3101C80.0801 233.71 80.68 233.53 81.11 233.17Z" fill="#A8A8A8"/>
<path d="M85.4501 227.79C85.8301 227.07 86.3601 226.51 87.0401 226.12C87.7101 225.72 88.4601 225.53 89.2901 225.53C90.1201 225.53 90.8101 225.71 91.4101 226.06C92.0101 226.41 92.4601 226.85 92.7501 227.39V225.69H94.3101V235.01H92.7501V233.28C92.4401 233.82 91.9901 234.28 91.3801 234.63C90.7701 234.99 90.0701 235.17 89.2601 235.17C88.4501 235.17 87.6901 234.97 87.0201 234.56C86.3501 234.15 85.8201 233.58 85.4401 232.84C85.0601 232.1 84.8601 231.26 84.8601 230.32C84.8601 229.38 85.0501 228.53 85.4401 227.81L85.4501 227.79ZM92.3301 228.48C92.0501 227.96 91.6601 227.56 91.1801 227.28C90.7001 227 90.1701 226.86 89.5901 226.86C89.0101 226.86 88.4801 227 88.0101 227.27C87.5401 227.54 87.1501 227.94 86.8701 228.46C86.5901 228.98 86.4401 229.59 86.4401 230.3C86.4401 231.01 86.5801 231.63 86.8701 232.16C87.1501 232.69 87.5301 233.09 88.0101 233.37C88.4901 233.65 89.0101 233.79 89.5901 233.79C90.1701 233.79 90.7001 233.65 91.1801 233.37C91.6601 233.09 92.0401 232.69 92.3301 232.16C92.6101 231.63 92.7601 231.02 92.7601 230.32C92.7601 229.62 92.6201 229.01 92.3301 228.48Z" fill="#A8A8A8"/>
<path d="M99.65 225.95C100.15 225.66 100.77 225.51 101.5 225.51V227.11H101.09C99.36 227.11 98.49 228.05 98.49 229.93V235H96.9399V225.68H98.49V227.19C98.76 226.66 99.15 226.24 99.65 225.95Z" fill="#A8A8A8"/>
<path d="M103.28 227.79C103.67 227.07 104.2 226.51 104.89 226.12C105.58 225.73 106.36 225.53 107.24 225.53C108.39 225.53 109.33 225.81 110.07 226.36C110.81 226.91 111.3 227.69 111.54 228.67H109.87C109.71 228.1 109.4 227.66 108.94 227.33C108.48 227 107.91 226.84 107.23 226.84C106.35 226.84 105.63 227.14 105.09 227.75C104.55 228.36 104.27 229.22 104.27 230.33C104.27 231.44 104.54 232.32 105.09 232.93C105.63 233.54 106.35 233.85 107.23 233.85C107.91 233.85 108.48 233.69 108.93 233.37C109.38 233.05 109.7 232.6 109.87 232.01H111.54C111.29 232.96 110.79 233.72 110.04 234.3C109.29 234.88 108.36 235.16 107.23 235.16C106.35 235.16 105.56 234.96 104.88 234.56C104.19 234.16 103.66 233.6 103.27 232.88C102.89 232.15 102.69 231.3 102.69 230.33C102.69 229.36 102.88 228.53 103.27 227.81L103.28 227.79Z" fill="#A8A8A8"/>
<path d="M115.29 234.55C114.58 234.15 114.02 233.59 113.62 232.86C113.22 232.13 113.02 231.28 113.02 230.32C113.02 229.36 113.23 228.53 113.64 227.8C114.05 227.07 114.62 226.51 115.33 226.12C116.04 225.73 116.84 225.53 117.73 225.53C118.62 225.53 119.41 225.73 120.13 226.12C120.84 226.51 121.41 227.07 121.82 227.79C122.23 228.51 122.44 229.36 122.44 230.32C122.44 231.28 122.23 232.13 121.8 232.86C121.38 233.59 120.8 234.15 120.08 234.55C119.35 234.95 118.55 235.15 117.67 235.15C116.79 235.15 116.01 234.95 115.3 234.55H115.29ZM119.22 233.4C119.71 233.14 120.1 232.75 120.4 232.23C120.7 231.71 120.85 231.07 120.85 230.33C120.85 229.59 120.7 228.95 120.41 228.43C120.12 227.91 119.73 227.52 119.25 227.27C118.77 227.02 118.26 226.89 117.7 226.89C117.14 226.89 116.61 227.02 116.14 227.27C115.67 227.52 115.29 227.91 115.01 228.43C114.72 228.95 114.58 229.59 114.58 230.33C114.58 231.07 114.72 231.73 115 232.25C115.28 232.77 115.65 233.16 116.11 233.41C116.57 233.66 117.08 233.79 117.64 233.79C118.2 233.79 118.72 233.66 119.2 233.4H119.22Z" fill="#A8A8A8"/>
<path d="M98.44 196.88C152.807 196.88 196.88 152.807 196.88 98.44C196.88 44.0731 152.807 0 98.44 0C44.0731 0 0 44.0731 0 98.44C0 152.807 44.0731 196.88 98.44 196.88Z" fill="#C8A9F2"/>
<path d="M134.7 81.05L87.3101 47.93L50.7101 101.59L52.3501 110.31L137.21 94.4L134.7 81.05Z" fill="#9D88BF"/>
<path d="M87.2801 47.8L44.6101 111.35L97.6901 103.31L87.2801 47.8Z" fill="#9D88BF"/>
<path d="M87.28 47.8L148.99 90.82L100.82 104.64L87.28 47.8Z" fill="#9D88BF"/>
<path d="M30.3301 133.19L19.8601 105.46L169.83 77.33L178.12 105.47L30.3301 133.19Z" fill="#9D88BF"/>
<path d="M177.24 104.7L177.93 77.75L169.91 79.25L177.24 104.7Z" fill="#9D88BF"/>
<path d="M136.7 76.05L89.31 42.93L52.71 96.59L54.35 105.31L139.21 89.4L136.7 76.05Z" fill="#E0E0E0"/>
<path d="M89.2801 42.8L46.6101 106.35L99.6901 98.31L89.2801 42.8Z" fill="#EDEDED"/>
<path d="M89.28 42.8L150.99 85.82L102.82 99.64L89.28 42.8Z" fill="#EDEDED"/>
<path d="M32.8701 128.08L22.63 100.31L166.16 73.4L174.32 101.56L32.8701 128.08Z" fill="white"/>
<path d="M174.24 100.7L174.93 73.75L166.91 75.25L174.24 100.7Z" fill="#E0E0E0"/>
</svg>
