<svg width="224" height="267" viewBox="0 0 224 267" fill="none" xmlns="http://www.w3.org/2000/svg">
<path d="M73.02 252.86C73.54 251.94 74.25 251.21 75.15 250.69C76.05 250.17 77.05 249.91 78.15 249.91C79.44 249.91 80.57 250.22 81.53 250.84C82.49 251.46 83.2 252.35 83.64 253.49H81.79C81.46 252.78 80.99 252.23 80.37 251.84C79.75 251.46 79.01 251.26 78.15 251.26C77.29 251.26 76.58 251.45 75.92 251.84C75.26 252.23 74.75 252.77 74.37 253.48C74 254.19 73.81 255.02 73.81 255.97C73.81 256.92 74 257.73 74.37 258.44C74.74 259.15 75.26 259.7 75.92 260.08C76.58 260.47 77.32 260.66 78.15 260.66C78.98 260.66 79.75 260.47 80.37 260.09C80.99 259.71 81.46 259.16 81.79 258.45H83.64C83.2 259.58 82.5 260.46 81.53 261.08C80.57 261.7 79.44 262.01 78.15 262.01C77.05 262.01 76.05 261.75 75.15 261.24C74.25 260.72 73.54 260.01 73.02 259.09C72.5 258.17 72.24 257.13 72.24 255.98C72.24 254.83 72.5 253.78 73.02 252.86Z" fill="#A8A8A8"/>
<path d="M87.64 261.47C86.93 261.07 86.38 260.51 85.97 259.78C85.57 259.05 85.37 258.2 85.37 257.24C85.37 256.28 85.58 255.45 85.99 254.72C86.4 253.99 86.97 253.43 87.68 253.04C88.39 252.65 89.19 252.45 90.08 252.45C90.97 252.45 91.76 252.65 92.48 253.04C93.19 253.43 93.76 253.99 94.17 254.71C94.58 255.43 94.79 256.28 94.79 257.24C94.79 258.2 94.58 259.05 94.15 259.78C93.73 260.51 93.15 261.07 92.42 261.47C91.69 261.87 90.89 262.07 90.01 262.07C89.13 262.07 88.35 261.87 87.64 261.47ZM91.57 260.32C92.06 260.06 92.45 259.67 92.75 259.15C93.05 258.63 93.2 257.99 93.2 257.25C93.2 256.51 93.05 255.87 92.76 255.35C92.47 254.83 92.08 254.44 91.6 254.19C91.12 253.94 90.61 253.81 90.05 253.81C89.49 253.81 88.97 253.94 88.49 254.19C88.02 254.44 87.64 254.83 87.36 255.35C87.08 255.87 86.93 256.51 86.93 257.25C86.93 257.99 87.07 258.65 87.35 259.17C87.63 259.69 88 260.08 88.46 260.33C88.92 260.58 89.43 260.71 89.99 260.71C90.55 260.71 91.07 260.58 91.55 260.32H91.57Z" fill="#A8A8A8"/>
<path d="M98.3701 249.33V261.91H96.8201V249.33H98.3701Z" fill="#A8A8A8"/>
<path d="M101 254.72C101.39 254 101.92 253.44 102.59 253.05C103.26 252.65 104.01 252.46 104.84 252.46C105.67 252.46 106.36 252.64 106.96 252.99C107.56 253.34 108.01 253.78 108.3 254.32V252.62H109.86V261.94H108.3V260.21C107.99 260.75 107.54 261.21 106.93 261.56C106.32 261.92 105.62 262.1 104.81 262.1C104 262.1 103.23 261.9 102.57 261.49C101.91 261.08 101.37 260.51 100.99 259.77C100.61 259.03 100.41 258.19 100.41 257.25C100.41 256.31 100.6 255.46 100.99 254.74L101 254.72ZM107.89 255.4C107.61 254.88 107.22 254.48 106.74 254.2C106.26 253.92 105.73 253.78 105.15 253.78C104.57 253.78 104.04 253.92 103.57 254.19C103.09 254.46 102.71 254.86 102.43 255.38C102.15 255.9 102 256.51 102 257.22C102 257.93 102.14 258.55 102.43 259.08C102.71 259.61 103.09 260.01 103.57 260.29C104.05 260.57 104.57 260.71 105.15 260.71C105.73 260.71 106.26 260.57 106.74 260.29C107.22 260.01 107.6 259.61 107.89 259.08C108.17 258.55 108.31 257.94 108.31 257.24C108.31 256.54 108.17 255.93 107.89 255.4Z" fill="#A8A8A8"/>
<path d="M118.46 252.97C119.07 253.32 119.52 253.76 119.81 254.3V252.6H121.37V262.12C121.37 262.97 121.19 263.73 120.83 264.39C120.47 265.05 119.95 265.57 119.28 265.95C118.61 266.32 117.82 266.51 116.92 266.51C115.7 266.51 114.68 266.22 113.86 265.64C113.04 265.06 112.56 264.27 112.41 263.28H113.94C114.11 263.85 114.46 264.3 114.99 264.65C115.52 265 116.16 265.17 116.91 265.17C117.76 265.17 118.45 264.9 118.99 264.37C119.53 263.84 119.8 263.09 119.8 262.13V260.17C119.49 260.71 119.04 261.17 118.44 261.53C117.84 261.89 117.14 262.07 116.33 262.07C115.52 262.07 114.75 261.87 114.08 261.46C113.41 261.05 112.88 260.48 112.49 259.74C112.11 259 111.91 258.16 111.91 257.22C111.91 256.28 112.1 255.43 112.49 254.71C112.88 253.99 113.41 253.43 114.08 253.04C114.75 252.64 115.5 252.45 116.33 252.45C117.16 252.45 117.84 252.63 118.45 252.98L118.46 252.97ZM119.38 255.4C119.1 254.88 118.71 254.48 118.23 254.2C117.75 253.92 117.22 253.78 116.64 253.78C116.06 253.78 115.53 253.92 115.06 254.19C114.58 254.46 114.2 254.86 113.92 255.38C113.64 255.9 113.49 256.51 113.49 257.22C113.49 257.93 113.63 258.55 113.92 259.08C114.2 259.61 114.58 260.01 115.06 260.29C115.54 260.57 116.06 260.71 116.64 260.71C117.22 260.71 117.75 260.57 118.23 260.29C118.71 260.01 119.09 259.61 119.38 259.08C119.66 258.55 119.8 257.94 119.8 257.24C119.8 256.54 119.66 255.93 119.38 255.4Z" fill="#A8A8A8"/>
<path d="M132.44 257.83H124.99C125.05 258.75 125.36 259.46 125.93 259.98C126.5 260.5 127.2 260.75 128.01 260.75C128.68 260.75 129.24 260.59 129.68 260.28C130.13 259.97 130.44 259.55 130.62 259.03H132.29C132.04 259.93 131.54 260.65 130.79 261.21C130.04 261.77 129.11 262.05 128 262.05C127.12 262.05 126.33 261.85 125.63 261.45C124.93 261.05 124.39 260.49 123.99 259.76C123.59 259.03 123.4 258.18 123.4 257.22C123.4 256.26 123.59 255.41 123.98 254.69C124.37 253.96 124.91 253.41 125.6 253.02C126.3 252.63 127.1 252.43 128.01 252.43C128.92 252.43 129.68 252.62 130.36 253.01C131.04 253.39 131.56 253.93 131.93 254.6C132.3 255.27 132.48 256.04 132.48 256.89C132.48 257.18 132.46 257.5 132.43 257.82L132.44 257.83ZM130.5 255.06C130.24 254.64 129.88 254.31 129.44 254.09C128.99 253.87 128.5 253.76 127.95 253.76C127.17 253.76 126.5 254.01 125.95 254.51C125.4 255.01 125.09 255.7 125.01 256.58H130.89C130.89 255.99 130.76 255.48 130.5 255.06Z" fill="#A8A8A8"/>
<path d="M141.82 253.46C142.52 254.15 142.87 255.13 142.87 256.43V261.92H141.34V256.65C141.34 255.72 141.11 255.01 140.64 254.52C140.17 254.03 139.54 253.78 138.74 253.78C137.94 253.78 137.28 254.03 136.79 254.54C136.31 255.05 136.07 255.79 136.07 256.77V261.92H134.52V252.6H136.07V253.93C136.38 253.45 136.79 253.09 137.32 252.83C137.85 252.57 138.43 252.44 139.06 252.44C140.19 252.44 141.11 252.78 141.81 253.47L141.82 253.46Z" fill="#A8A8A8"/>
<path d="M146.78 261.7C146.21 261.46 145.77 261.12 145.44 260.68C145.11 260.24 144.93 259.74 144.9 259.18H146.5C146.54 259.64 146.76 260.02 147.15 260.32C147.54 260.61 148.05 260.76 148.69 260.76C149.28 260.76 149.74 260.63 150.08 260.37C150.42 260.11 150.59 259.78 150.59 259.38C150.59 258.98 150.41 258.67 150.05 258.47C149.69 258.27 149.13 258.08 148.37 257.88C147.68 257.7 147.12 257.51 146.68 257.33C146.24 257.14 145.87 256.87 145.56 256.5C145.25 256.13 145.09 255.65 145.09 255.05C145.09 254.57 145.23 254.14 145.51 253.74C145.79 253.34 146.2 253.03 146.72 252.8C147.24 252.57 147.84 252.45 148.51 252.45C149.54 252.45 150.37 252.71 151.01 253.23C151.64 253.75 151.98 254.47 152.03 255.37H150.48C150.45 254.88 150.25 254.49 149.89 254.2C149.53 253.91 149.05 253.76 148.45 253.76C147.9 253.76 147.45 253.88 147.12 254.12C146.79 254.36 146.63 254.67 146.63 255.05C146.63 255.36 146.73 255.61 146.93 255.81C147.13 256.01 147.38 256.17 147.68 256.29C147.98 256.41 148.4 256.54 148.93 256.69C149.6 256.87 150.14 257.05 150.56 257.23C150.98 257.41 151.34 257.67 151.64 258.02C151.94 258.37 152.1 258.83 152.11 259.4C152.11 259.91 151.97 260.37 151.69 260.78C151.41 261.19 151.01 261.51 150.49 261.74C149.97 261.97 149.38 262.09 148.71 262.09C148 262.09 147.36 261.97 146.79 261.72L146.78 261.7Z" fill="#A8A8A8"/>
<path d="M112.24 222.84C173.776 222.84 223.66 172.956 223.66 111.42C223.66 49.8844 173.776 0 112.24 0C50.7045 0 0.820068 49.8844 0.820068 111.42C0.820068 172.956 50.7045 222.84 112.24 222.84Z" fill="#C0F2C3"/>
<path d="M97.6801 78.0901L96.7701 78.44L93.9601 71.17L69.3101 80.7L72.1201 87.97L71.2101 88.32C58.1001 93.39 51.5801 108.12 56.6501 121.23L75.5701 179.57C80.6401 192.68 95.3701 199.2 108.48 194.13L141.27 181.45C154.38 176.38 160.9 161.65 155.83 148.54L130.59 92.64C125.52 79.53 110.79 73.01 97.6801 78.08V78.0901Z" fill="#9AC19B"/>
<mask id="mask0_466_3173" style="mask-type:luminance" maskUnits="userSpaceOnUse" x="54" y="71" width="104" height="125">
<path d="M97.6801 78.0901L96.7701 78.44L93.9601 71.17L69.3101 80.7L72.1201 87.97L71.2101 88.32C58.1001 93.39 51.5801 108.12 56.6501 121.23L75.5701 179.57C80.6401 192.68 95.3701 199.2 108.48 194.13L141.27 181.45C154.38 176.38 160.9 161.65 155.83 148.54L130.59 92.64C125.52 79.53 110.79 73.01 97.6801 78.08V78.0901Z" fill="white"/>
</mask>
<g mask="url(#mask0_466_3173)">
<path d="M65.9601 143.59C66.3801 144.53 68.47 176.55 94.35 184.93C120.58 193.42 143.09 180.82 145.56 179.03C148.04 177.25 87.5701 213.27 76.8901 186.19C66.2101 159.12 65.9501 143.59 65.9501 143.59H65.9601Z" fill="#9AC19B"/>
</g>
<path d="M102.92 106.155L86.2526 112.6C74.3637 117.197 68.4525 130.562 73.0496 142.45L75.5849 149.007C80.182 160.896 93.5466 166.807 105.435 162.21L122.103 155.766C133.992 151.169 139.903 137.804 135.306 125.915L132.771 119.358C128.173 107.469 114.809 101.558 102.92 106.155Z" fill="#9AC19B"/>
<path d="M67.24 70.9701L65.16 65.6001C65.16 65.6001 65.81 63.5301 67.52 63.2401C69.22 62.9501 62 34.8701 62 34.8701C62 34.8701 62.62 28.0901 68.31 32.4301L83.2 56.8201C83.2 56.8201 86.74 57.0801 88.02 58.9501C89.3 60.8201 89.71 61.9301 89.71 61.9301L67.25 70.9801L67.24 70.9701Z" fill="#9AC19B"/>
<path d="M84.0501 60.0606L69.2108 65.7985C65.0486 67.4079 62.9792 72.0866 64.5886 76.2487L65.4794 78.5525C67.0888 82.7147 71.7675 84.7841 75.9296 83.1747L90.7689 77.4368C94.9311 75.8274 97.0005 71.1487 95.3912 66.9865L94.5004 64.6828C92.891 60.5206 88.2122 58.4512 84.0501 60.0606Z" fill="#9AC19B"/>
<path d="M66.326 69.4567L64.4326 70.1888L69.3194 82.8269L71.2128 82.0948L66.326 69.4567Z" fill="#9AC19B"/>
<path d="M69.3658 68.2797L67.4724 69.0118L72.3592 81.65L74.2526 80.9179L69.3658 68.2797Z" fill="#9AC19B"/>
<path d="M72.3956 67.1029L70.5022 67.835L75.389 80.4731L77.2823 79.741L72.3956 67.1029Z" fill="#9AC19B"/>
<path d="M75.4391 65.9252L73.5457 66.6573L78.4324 79.2954L80.3258 78.5633L75.4391 65.9252Z" fill="#9AC19B"/>
<path d="M78.4789 64.7482L76.5856 65.4803L81.4724 78.1185L83.3657 77.3864L78.4789 64.7482Z" fill="#9AC19B"/>
<path d="M81.5224 63.5806L79.629 64.3127L84.5158 76.9508L86.4092 76.2187L81.5224 63.5806Z" fill="#9AC19B"/>
<path d="M84.5624 62.4036L82.6689 63.1357L87.5557 75.7738L89.4491 75.0417L84.5624 62.4036Z" fill="#9AC19B"/>
<path d="M87.615 61.2224L85.7217 61.9545L90.6085 74.5926L92.5018 73.8605L87.615 61.2224Z" fill="#9AC19B"/>
<path d="M90.6448 60.0455L88.7515 60.7776L93.6382 73.4157L95.5316 72.6836L90.6448 60.0455Z" fill="#9AC19B"/>
<path d="M95.5659 75.5856L71.2317 84.9949L71.9638 86.8883L96.298 77.4789L95.5659 75.5856Z" fill="#9AC19B"/>
<path d="M102.26 86.8801C111.25 86.5101 118.17 91.4101 123.61 98.1401C126.14 101.28 130.55 96.8201 128.04 93.7101C121.62 85.7701 112.75 80.1801 102.26 80.6101C98.2401 80.7801 98.2201 87.0401 102.26 86.8701V86.8801Z" fill="#9AC19B"/>
<path d="M96.59 134.37L93.39 135.61L92.56 133.47C92.32 132.85 92.13 132.47 92.01 132.34C91.88 132.21 91.6999 132.19 91.4699 132.28C91.2099 132.38 91.07 132.54 91.08 132.75C91.08 132.96 91.2 133.38 91.44 134.01L93.65 139.73C93.88 140.33 94.07 140.7 94.21 140.86C94.35 141.02 94.5499 141.04 94.7899 140.95C95.0299 140.86 95.15 140.71 95.15 140.5C95.15 140.29 95.02 139.84 94.76 139.17L94.1599 137.62L97.36 136.38L97.55 136.86C98.04 138.13 98.3 139.07 98.33 139.68C98.36 140.28 98.14 140.9 97.68 141.54C97.22 142.18 96.54 142.67 95.63 143.02C94.69 143.38 93.85 143.51 93.11 143.41C92.37 143.31 91.79 142.99 91.36 142.47C90.93 141.95 90.48 141.08 90.02 139.87L88.63 136.27C88.29 135.38 88.06 134.71 87.95 134.24C87.84 133.77 87.86 133.28 88 132.75C88.14 132.22 88.44 131.74 88.88 131.3C89.32 130.86 89.89 130.5 90.59 130.23C91.53 129.87 92.38 129.74 93.14 129.87C93.89 130 94.47 130.29 94.88 130.76C95.28 131.23 95.71 132.04 96.15 133.19L96.5999 134.36L96.59 134.37Z" fill="#9AC19B"/>
<path d="M105.77 132.95C106.25 134.19 106.56 135.07 106.7 135.61C106.84 136.15 106.84 136.69 106.7 137.23C106.56 137.77 106.27 138.26 105.84 138.69C105.41 139.12 104.84 139.47 104.15 139.74C103.49 140 102.86 140.12 102.25 140.1C101.64 140.09 101.09 139.93 100.61 139.62C100.12 139.31 99.75 138.92 99.49 138.43C99.23 137.95 98.86 137.07 98.37 135.8L97.56 133.69C97.08 132.45 96.77 131.57 96.63 131.03C96.49 130.49 96.49 129.95 96.63 129.41C96.77 128.87 97.06 128.38 97.49 127.95C97.92 127.52 98.49 127.17 99.18 126.9C99.84 126.65 100.47 126.52 101.08 126.54C101.69 126.55 102.24 126.71 102.72 127.02C103.2 127.33 103.58 127.72 103.83 128.21C104.08 128.7 104.46 129.57 104.95 130.84L105.76 132.95H105.77ZM101 130.14C100.78 129.57 100.61 129.21 100.48 129.08C100.36 128.94 100.19 128.91 100 128.99C99.83 129.06 99.73 129.17 99.69 129.33C99.65 129.49 99.75 129.89 100 130.53L102.22 136.28C102.5 136.99 102.7 137.43 102.82 137.57C102.94 137.71 103.11 137.75 103.32 137.66C103.54 137.58 103.64 137.42 103.63 137.21C103.62 136.99 103.47 136.52 103.19 135.8L101 130.14Z" fill="#9AC19B"/>
<path d="M107.38 124.04L111.19 133.89L113.14 133.14L114.09 135.6L108.94 137.59L104.18 125.28L107.38 124.04Z" fill="#9AC19B"/>
<path d="M116.02 120.69L122.61 132.29L119.34 133.55L118.31 131.4L117.16 131.84L117.82 134.13L114.51 135.41L111.38 122.47L116.01 120.68L116.02 120.69ZM117.39 129.27C116.69 127.94 115.86 126.28 114.9 124.29C115.49 126.77 115.95 128.58 116.28 129.7L117.38 129.27H117.39Z" fill="#9AC19B"/>
<path d="M101.68 69.0901L100.77 69.44L97.9601 62.17L73.3101 71.7L76.1201 78.97L75.2101 79.32C62.1001 84.39 55.5801 99.12 60.6501 112.23L79.5701 170.57C84.6401 183.68 99.3701 190.2 112.48 185.13L145.27 172.45C158.38 167.38 164.9 152.65 159.83 139.54L134.59 83.64C129.52 70.53 114.79 64.01 101.68 69.08V69.0901Z" fill="#F2F2F2"/>
<mask id="mask1_466_3173" style="mask-type:luminance" maskUnits="userSpaceOnUse" x="58" y="62" width="104" height="125">
<path d="M101.68 69.0901L100.77 69.44L97.9601 62.17L73.3101 71.7L76.1201 78.97L75.2101 79.32C62.1001 84.39 55.5801 99.12 60.6501 112.23L79.5701 170.57C84.6401 183.68 99.3701 190.2 112.48 185.13L145.27 172.45C158.38 167.38 164.9 152.65 159.83 139.54L134.59 83.64C129.52 70.53 114.79 64.01 101.68 69.08V69.0901Z" fill="white"/>
</mask>
<g mask="url(#mask1_466_3173)">
<path d="M69.9601 134.59C70.3801 135.53 72.47 167.55 98.35 175.93C124.58 184.42 147.09 171.82 149.56 170.03C152.04 168.25 91.5701 204.27 80.8901 177.19C70.2101 150.12 69.9501 134.59 69.9501 134.59H69.9601Z" fill="#CECECE"/>
</g>
<path d="M106.925 97.1482L90.2575 103.593C78.3686 108.19 72.4574 121.555 77.0545 133.443L79.5898 140C84.1869 151.889 97.5515 157.8 109.44 153.203L126.108 146.759C137.997 142.162 143.908 128.797 139.311 116.908L136.775 110.351C132.178 98.4623 118.814 92.5511 106.925 97.1482Z" fill="#C8A9F2"/>
<path d="M71.24 61.9701L69.16 56.6001C69.16 56.6001 69.81 54.5301 71.52 54.2401C73.22 53.9501 66 25.8701 66 25.8701C66 25.8701 66.62 19.0901 72.31 23.4301L87.2 47.8201C87.2 47.8201 90.74 48.0801 92.02 49.9501C93.3 51.8201 93.71 52.9301 93.71 52.9301L71.25 61.9801L71.24 61.9701Z" fill="#E1A9AF"/>
<path d="M88.0451 51.0536L73.2057 56.7915C69.0436 58.4009 66.9742 63.0796 68.5836 67.2418L69.4744 69.5456C71.0838 73.7077 75.7625 75.7772 79.9246 74.1678L94.7639 68.4299C98.9261 66.8205 100.996 62.1417 99.3861 57.9796L98.4953 55.6758C96.886 51.5137 92.2072 49.4442 88.0451 51.0536Z" fill="#F1F0F1"/>
<path d="M70.3209 60.4598L68.4275 61.1919L73.3143 73.83L75.2077 73.0979L70.3209 60.4598Z" fill="#D8D8D8"/>
<path d="M73.3608 59.2728L71.4674 60.0049L76.3542 72.643L78.2476 71.9109L73.3608 59.2728Z" fill="#D8D8D8"/>
<path d="M76.4007 58.0959L74.5073 58.828L79.3941 71.4661L81.2875 70.734L76.4007 58.0959Z" fill="#D8D8D8"/>
<path d="M79.4442 56.9283L77.5508 57.6604L82.4376 70.2985L84.331 69.5664L79.4442 56.9283Z" fill="#D8D8D8"/>
<path d="M82.4839 55.7513L80.5906 56.4834L85.4774 69.1215L87.3707 68.3894L82.4839 55.7513Z" fill="#D8D8D8"/>
<path d="M85.5174 54.5837L83.624 55.3158L88.5108 67.9539L90.4042 67.2218L85.5174 54.5837Z" fill="#D8D8D8"/>
<path d="M88.5572 53.3968L86.6638 54.1289L91.5506 66.767L93.444 66.0349L88.5572 53.3968Z" fill="#D8D8D8"/>
<path d="M91.61 52.2254L89.7167 52.9575L94.6035 65.5956L96.4968 64.8635L91.61 52.2254Z" fill="#D8D8D8"/>
<path d="M94.6498 51.0485L92.7565 51.7806L97.6432 64.4187L99.5366 63.6866L94.6498 51.0485Z" fill="#D8D8D8"/>
<path d="M99.571 66.5787L75.2368 75.988L75.9689 77.8814L100.303 68.4721L99.571 66.5787Z" fill="#D8D8D8"/>
<path d="M106.26 77.8801C115.25 77.5101 122.17 82.4101 127.61 89.1401C130.14 92.2801 134.55 87.8201 132.04 84.7101C125.62 76.7701 116.75 71.1801 106.26 71.6101C102.24 71.7801 102.22 78.0401 106.26 77.8701V77.8801Z" fill="white"/>
<path d="M100.59 125.37L97.39 126.61L96.56 124.47C96.32 123.85 96.13 123.47 96.01 123.34C95.88 123.21 95.6999 123.19 95.4699 123.28C95.2099 123.38 95.07 123.54 95.08 123.75C95.08 123.96 95.2 124.38 95.44 125.01L97.65 130.73C97.88 131.33 98.07 131.7 98.21 131.86C98.35 132.02 98.5499 132.04 98.7899 131.95C99.0299 131.86 99.15 131.71 99.15 131.5C99.15 131.29 99.02 130.84 98.76 130.17L98.1599 128.62L101.36 127.38L101.55 127.86C102.04 129.13 102.3 130.07 102.33 130.68C102.36 131.28 102.14 131.9 101.68 132.54C101.22 133.18 100.54 133.67 99.63 134.02C98.69 134.38 97.85 134.51 97.11 134.41C96.37 134.31 95.79 133.99 95.36 133.47C94.93 132.95 94.48 132.08 94.02 130.87L92.63 127.27C92.29 126.38 92.06 125.71 91.95 125.24C91.84 124.77 91.86 124.28 92 123.75C92.14 123.22 92.44 122.74 92.88 122.3C93.32 121.86 93.89 121.5 94.59 121.23C95.53 120.87 96.38 120.74 97.14 120.87C97.89 121 98.47 121.29 98.88 121.76C99.28 122.23 99.71 123.04 100.15 124.19L100.6 125.36L100.59 125.37Z" fill="white"/>
<path d="M109.77 123.95C110.25 125.19 110.56 126.07 110.7 126.61C110.84 127.15 110.84 127.69 110.7 128.23C110.56 128.77 110.27 129.26 109.84 129.69C109.41 130.12 108.84 130.47 108.15 130.74C107.49 131 106.86 131.12 106.25 131.1C105.64 131.09 105.09 130.93 104.61 130.62C104.12 130.31 103.75 129.92 103.49 129.43C103.23 128.95 102.86 128.07 102.37 126.8L101.56 124.69C101.08 123.45 100.77 122.57 100.63 122.03C100.49 121.49 100.49 120.95 100.63 120.41C100.77 119.87 101.06 119.38 101.49 118.95C101.92 118.52 102.49 118.17 103.18 117.9C103.84 117.65 104.47 117.52 105.08 117.54C105.69 117.55 106.24 117.71 106.72 118.02C107.2 118.33 107.58 118.72 107.83 119.21C108.08 119.7 108.46 120.57 108.95 121.84L109.76 123.95H109.77ZM105 121.14C104.78 120.57 104.61 120.21 104.48 120.08C104.36 119.94 104.19 119.91 104 119.99C103.83 120.06 103.73 120.17 103.69 120.33C103.65 120.49 103.75 120.89 104 121.53L106.22 127.28C106.5 127.99 106.7 128.43 106.82 128.57C106.94 128.71 107.11 128.75 107.32 128.66C107.54 128.58 107.64 128.42 107.63 128.21C107.62 127.99 107.47 127.52 107.19 126.8L105 121.14Z" fill="white"/>
<path d="M111.38 115.04L115.19 124.89L117.14 124.14L118.09 126.6L112.94 128.59L108.18 116.28L111.38 115.04Z" fill="white"/>
<path d="M120.02 111.69L126.61 123.29L123.34 124.55L122.31 122.4L121.16 122.84L121.82 125.13L118.51 126.41L115.38 113.47L120.01 111.68L120.02 111.69ZM121.39 120.27C120.69 118.94 119.86 117.28 118.9 115.29C119.49 117.77 119.95 119.58 120.28 120.7L121.38 120.27H121.39Z" fill="white"/>
</svg>
