<svg width="175" height="183" viewBox="0 0 175 183" fill="none" xmlns="http://www.w3.org/2000/svg">
<path d="M87.26 182.78C135.441 182.78 174.5 143.721 174.5 95.5398C174.5 47.3585 135.441 8.2998 87.26 8.2998C39.0787 8.2998 0.0200195 47.3585 0.0200195 95.5398C0.0200195 143.721 39.0787 182.78 87.26 182.78Z" fill="#A7D1A8"/>
<path d="M87.3401 175.25C135.521 175.25 174.58 136.191 174.58 88.01C174.58 39.8287 135.521 0.77002 87.3401 0.77002C39.1588 0.77002 0.100098 39.8287 0.100098 88.01C0.100098 136.191 39.1588 175.25 87.3401 175.25Z" fill="#C0F2C3"/>
<path d="M120.17 92.7601V128.16C122.28 126.05 124.38 123.95 126.49 121.84H48.1C50.21 123.95 52.31 126.05 54.42 128.16V92.7601C54.42 84.6201 41.78 84.6101 41.78 92.7601V128.16C41.78 131.58 44.68 134.48 48.1 134.48H126.49C129.91 134.48 132.81 131.58 132.81 128.16V92.7601C132.81 84.6201 120.17 84.6101 120.17 92.7601Z" fill="white"/>
<path d="M104.56 67.6501C101.35 70.8601 98.1399 74.0701 94.9399 77.2701V44.2101C94.9399 34.7701 80.2599 34.7501 80.2599 44.2101V77.86C76.8499 74.45 73.4499 71.0501 70.0399 67.6401C63.3499 60.9501 52.9699 71.3301 59.6599 78.0201C66.7999 85.1601 73.8299 92.4 81.0799 99.44C84.6699 102.92 88.8199 104.14 93.5299 99.44C100.67 92.3 107.81 85.1601 114.95 78.0201C121.64 71.3301 111.26 60.9501 104.57 67.6401L104.56 67.6501Z" fill="white"/>
</svg>
