<svg width="197" height="236" viewBox="0 0 197 236" fill="none" xmlns="http://www.w3.org/2000/svg">
<path d="M98.44 196.88C152.807 196.88 196.88 152.807 196.88 98.44C196.88 44.0731 152.807 0 98.44 0C44.0731 0 0 44.0731 0 98.44C0 152.807 44.0731 196.88 98.44 196.88Z" fill="#E1A9AF"/>
<path d="M91.47 223.15V224.41H86.32V228.41H90.5V229.67H86.32V235.01H84.77V223.16H91.47V223.15Z" fill="#A8A8A8"/>
<path d="M94.8801 222.41V234.99H93.3301V222.41H94.8801Z" fill="#A8A8A8"/>
<path d="M99.21 234.55C98.5 234.15 97.95 233.59 97.54 232.86C97.14 232.13 96.9399 231.28 96.9399 230.32C96.9399 229.36 97.1499 228.53 97.5599 227.8C97.9699 227.07 98.5399 226.51 99.2499 226.12C99.9599 225.73 100.76 225.53 101.65 225.53C102.54 225.53 103.33 225.73 104.05 226.12C104.76 226.51 105.33 227.07 105.74 227.79C106.15 228.51 106.36 229.36 106.36 230.32C106.36 231.28 106.15 232.13 105.72 232.86C105.3 233.59 104.72 234.15 103.99 234.55C103.26 234.95 102.46 235.15 101.58 235.15C100.7 235.15 99.92 234.95 99.21 234.55ZM103.14 233.4C103.63 233.14 104.02 232.75 104.32 232.23C104.62 231.71 104.77 231.07 104.77 230.33C104.77 229.59 104.62 228.95 104.33 228.43C104.04 227.91 103.65 227.52 103.17 227.27C102.69 227.02 102.18 226.89 101.62 226.89C101.06 226.89 100.54 227.02 100.06 227.27C99.5899 227.52 99.2099 227.91 98.9299 228.43C98.6499 228.95 98.4999 229.59 98.4999 230.33C98.4999 231.07 98.64 231.73 98.92 232.25C99.2 232.77 99.57 233.16 100.03 233.41C100.49 233.66 101 233.79 101.56 233.79C102.12 233.79 102.64 233.66 103.12 233.4H103.14Z" fill="#A8A8A8"/>
<path d="M111.11 225.95C111.61 225.66 112.23 225.51 112.95 225.51V227.11H112.54C110.81 227.11 109.94 228.05 109.94 229.93V235H108.39V225.68H109.94V227.19C110.21 226.66 110.6 226.24 111.1 225.95H111.11Z" fill="#A8A8A8"/>
<path d="M84.32 45.05L59.3 94.29L114.54 154.76L122.57 151.35L131.27 71.19L84.32 45.05Z" fill="#BF9198"/>
<path d="M39.33 59.49L40.2 130.65L119.76 155.94L39.33 59.49Z" fill="#BF9198"/>
<path d="M129.27 28.97L169.99 87.34L120.02 154.21L129.27 28.97Z" fill="#BF9198"/>
<path d="M109.83 133.99L120.02 194.49C120.02 194.49 133.75 193.74 144.83 184.99L109.83 133.99Z" fill="#94C46E"/>
<path d="M80.82 39.05L55.8 88.29L111.04 148.76L119.07 145.35L127.77 65.19L80.82 39.05Z" fill="#EFEFEF"/>
<path d="M35.83 53.49L36.7 124.65L116.26 149.94L35.83 53.49Z" fill="white"/>
<path d="M125.77 22.97L166.49 81.34L116.52 148.21L125.77 22.97Z" fill="white"/>
</svg>
