<svg width="224" height="265" viewBox="0 0 224 265" fill="none" xmlns="http://www.w3.org/2000/svg">
<path d="M82.78 263.91L79.96 259.07H78.09V263.91H76.54V252.06H80.3701C81.2701 252.06 82.0201 252.21 82.6401 252.52C83.2601 252.83 83.72 253.24 84.03 253.76C84.34 254.28 84.4901 254.88 84.4901 255.55C84.4901 256.37 84.25 257.09 83.78 257.71C83.31 258.33 82.6 258.75 81.66 258.95L84.6401 263.91H82.79H82.78ZM78.09 257.83H80.3701C81.2101 257.83 81.8401 257.62 82.2601 257.21C82.6801 256.8 82.8901 256.24 82.8901 255.55C82.8901 254.86 82.68 254.3 82.27 253.92C81.86 253.54 81.2301 253.34 80.3701 253.34H78.09V257.83Z" fill="#A8A8A8"/>
<path d="M95.3301 259.83H87.8801C87.9401 260.75 88.2501 261.46 88.8201 261.98C89.3901 262.5 90.09 262.75 90.9 262.75C91.57 262.75 92.1301 262.59 92.5701 262.28C93.0201 261.97 93.3301 261.55 93.5101 261.03H95.1801C94.9301 261.93 94.4301 262.65 93.6801 263.21C92.9301 263.77 92.0001 264.05 90.8901 264.05C90.0101 264.05 89.22 263.85 88.52 263.45C87.82 263.05 87.2801 262.49 86.8801 261.76C86.4801 261.03 86.29 260.18 86.29 259.22C86.29 258.26 86.4801 257.41 86.8701 256.69C87.2601 255.96 87.8001 255.41 88.4901 255.02C89.1901 254.63 89.99 254.43 90.9 254.43C91.81 254.43 92.5701 254.62 93.2501 255.01C93.9301 255.39 94.4501 255.93 94.8201 256.6C95.1901 257.27 95.3701 258.04 95.3701 258.89C95.3701 259.18 95.3501 259.5 95.3201 259.82L95.3301 259.83ZM93.3901 257.05C93.1301 256.63 92.7701 256.3 92.3301 256.08C91.8801 255.86 91.39 255.75 90.84 255.75C90.06 255.75 89.39 256 88.84 256.5C88.29 257 87.98 257.69 87.9 258.57H93.78C93.78 257.98 93.6501 257.47 93.3901 257.05Z" fill="#A8A8A8"/>
<path d="M97.42 256.71C97.81 255.99 98.34 255.43 99.03 255.04C99.72 254.64 100.5 254.45 101.38 254.45C102.53 254.45 103.47 254.73 104.21 255.28C104.95 255.83 105.44 256.61 105.68 257.59H104.01C103.85 257.02 103.54 256.58 103.08 256.25C102.62 255.92 102.05 255.76 101.37 255.76C100.49 255.76 99.77 256.06 99.23 256.67C98.69 257.28 98.41 258.14 98.41 259.25C98.41 260.36 98.68 261.24 99.23 261.85C99.77 262.46 100.49 262.77 101.37 262.77C102.05 262.77 102.62 262.61 103.07 262.29C103.52 261.97 103.84 261.52 104.01 260.93H105.68C105.43 261.88 104.93 262.64 104.18 263.22C103.43 263.8 102.5 264.08 101.37 264.08C100.49 264.08 99.7 263.88 99.02 263.48C98.33 263.08 97.8 262.52 97.41 261.8C97.03 261.07 96.8301 260.22 96.8301 259.25C96.8301 258.28 97.02 257.45 97.41 256.73L97.42 256.71Z" fill="#A8A8A8"/>
<path d="M109.43 263.47C108.72 263.07 108.17 262.51 107.76 261.78C107.36 261.05 107.16 260.2 107.16 259.24C107.16 258.28 107.37 257.45 107.78 256.72C108.19 255.99 108.76 255.43 109.47 255.04C110.18 254.65 110.98 254.45 111.87 254.45C112.76 254.45 113.55 254.65 114.27 255.04C114.98 255.43 115.55 255.99 115.96 256.71C116.37 257.43 116.58 258.28 116.58 259.24C116.58 260.2 116.37 261.05 115.94 261.78C115.52 262.51 114.94 263.07 114.21 263.47C113.48 263.87 112.68 264.07 111.8 264.07C110.92 264.07 110.14 263.87 109.43 263.47ZM113.37 262.32C113.86 262.06 114.25 261.67 114.55 261.15C114.85 260.63 115 259.99 115 259.25C115 258.51 114.85 257.87 114.56 257.35C114.27 256.83 113.88 256.44 113.4 256.19C112.92 255.94 112.41 255.81 111.85 255.81C111.29 255.81 110.77 255.94 110.29 256.19C109.82 256.44 109.44 256.83 109.16 257.35C108.88 257.87 108.73 258.51 108.73 259.25C108.73 259.99 108.87 260.65 109.15 261.17C109.43 261.69 109.8 262.08 110.26 262.33C110.72 262.58 111.23 262.71 111.79 262.71C112.35 262.71 112.87 262.58 113.35 262.32H113.37Z" fill="#A8A8A8"/>
<path d="M121.33 254.87C121.83 254.58 122.45 254.43 123.17 254.43V256.03H122.76C121.03 256.03 120.16 256.97 120.16 258.85V263.92H118.61V254.6H120.16V256.11C120.43 255.58 120.82 255.16 121.32 254.87H121.33Z" fill="#A8A8A8"/>
<path d="M126.85 255.87V261.36C126.85 261.81 126.95 262.13 127.14 262.32C127.33 262.51 127.67 262.6 128.14 262.6H129.28V263.91H127.89C127.03 263.91 126.38 263.71 125.95 263.32C125.52 262.93 125.3 262.27 125.3 261.36V255.87H124.09V254.59H125.3V252.24H126.85V254.59H129.28V255.87H126.85Z" fill="#A8A8A8"/>
<path d="M139.6 259.83H132.15C132.21 260.75 132.52 261.46 133.09 261.98C133.66 262.5 134.36 262.75 135.17 262.75C135.84 262.75 136.4 262.59 136.84 262.28C137.29 261.97 137.6 261.55 137.78 261.03H139.45C139.2 261.93 138.7 262.65 137.95 263.21C137.2 263.77 136.27 264.05 135.16 264.05C134.28 264.05 133.49 263.85 132.79 263.45C132.09 263.05 131.55 262.49 131.15 261.76C130.75 261.03 130.56 260.18 130.56 259.22C130.56 258.26 130.75 257.41 131.14 256.69C131.53 255.96 132.07 255.41 132.76 255.02C133.46 254.63 134.26 254.43 135.17 254.43C136.08 254.43 136.84 254.62 137.52 255.01C138.2 255.39 138.72 255.93 139.09 256.6C139.46 257.27 139.64 258.04 139.64 258.89C139.64 259.18 139.62 259.5 139.59 259.82L139.6 259.83ZM137.66 257.05C137.4 256.63 137.04 256.3 136.6 256.08C136.15 255.86 135.66 255.75 135.11 255.75C134.33 255.75 133.66 256 133.11 256.5C132.56 257 132.25 257.69 132.17 258.57H138.05C138.05 257.98 137.92 257.47 137.66 257.05Z" fill="#A8A8A8"/>
<path d="M143.07 263.7C142.5 263.46 142.06 263.12 141.73 262.68C141.4 262.24 141.22 261.74 141.19 261.18H142.79C142.83 261.64 143.05 262.02 143.44 262.32C143.83 262.61 144.34 262.76 144.98 262.76C145.57 262.76 146.03 262.63 146.37 262.37C146.71 262.11 146.88 261.78 146.88 261.38C146.88 260.98 146.7 260.67 146.34 260.47C145.98 260.27 145.42 260.08 144.66 259.88C143.97 259.7 143.41 259.51 142.97 259.33C142.53 259.14 142.16 258.87 141.85 258.5C141.54 258.13 141.38 257.65 141.38 257.05C141.38 256.57 141.52 256.14 141.8 255.74C142.08 255.34 142.49 255.03 143.01 254.8C143.53 254.57 144.13 254.45 144.8 254.45C145.83 254.45 146.66 254.71 147.3 255.23C147.93 255.75 148.27 256.47 148.32 257.37H146.77C146.74 256.88 146.54 256.49 146.18 256.2C145.82 255.91 145.34 255.76 144.74 255.76C144.19 255.76 143.74 255.88 143.41 256.12C143.08 256.36 142.92 256.67 142.92 257.05C142.92 257.36 143.02 257.61 143.22 257.81C143.42 258.01 143.67 258.17 143.97 258.29C144.27 258.41 144.69 258.54 145.22 258.69C145.89 258.87 146.43 259.05 146.85 259.23C147.27 259.41 147.63 259.67 147.93 260.02C148.23 260.37 148.39 260.83 148.4 261.4C148.4 261.91 148.26 262.37 147.98 262.78C147.7 263.19 147.3 263.51 146.78 263.74C146.26 263.97 145.67 264.09 145 264.09C144.29 264.09 143.65 263.97 143.08 263.72L143.07 263.7Z" fill="#A8A8A8"/>
<path d="M112.24 222.84C173.776 222.84 223.66 172.956 223.66 111.42C223.66 49.8844 173.776 0 112.24 0C50.7045 0 0.820068 49.8844 0.820068 111.42C0.820068 172.956 50.7045 222.84 112.24 222.84Z" fill="#C8A9F2"/>
<path d="M145.07 169.12C144.27 165.72 142.12 162.83 140.15 159.96C137.02 155.41 134.2 150.64 131.73 145.69C129.92 142.06 128.25 138.14 128.58 134.1L128.37 133.97C124.75 134.47 122.19 133.95 118.56 134.45C117.64 134.58 116.69 134.72 115.95 135.27C115.11 135.9 114.7 136.94 114.35 137.93C110.63 148.32 107.96 159.09 106.41 170.02C105.72 174.89 105.27 180.03 107.13 184.58C108.39 187.67 110.63 190.27 113.16 192.45C114.31 193.44 115.54 194.36 116.92 194.99C120.83 196.79 125.4 196.09 129.58 195.06C132.93 194.23 136.39 193.1 138.76 190.6C140.52 188.74 141.51 186.29 142.45 183.91C144.33 179.18 146.24 174.08 145.08 169.12H145.07ZM125.74 188.47C118.78 189.17 112.37 182.15 111.43 172.79C110.49 163.43 115.37 155.28 122.34 154.58C129.3 153.88 135.71 160.9 136.65 170.26C137.59 179.62 132.71 187.77 125.74 188.47Z" fill="#9985BA"/>
<path d="M132.23 33.68L108.21 127.16L119.42 139.25L128.13 136.02L134.5 33.92C134.5 33.92 135.06 26.88 132.23 33.67V33.68Z" fill="#9985BA"/>
<path d="M57.4501 148.1C56.4001 150.44 55.33 152.85 55.22 155.41C55.07 158.86 56.68 162.12 58.41 165.1C60.58 168.82 63.27 172.58 67.28 174.13C68.7 174.68 70.21 174.92 71.72 175.06C75.04 175.36 78.4701 175.16 81.5701 173.91C86.1301 172.07 89.51 168.17 92.52 164.28C99.27 155.55 105.14 146.14 110 136.23C110.46 135.29 110.93 134.27 110.79 133.23C110.67 132.31 110.11 131.53 109.56 130.78C107.4 127.83 105.24 126.36 103.07 123.41L102.83 123.35C100.16 126.4 96.1901 127.94 92.3201 129.17C87.0501 130.84 81.67 132.15 76.22 133.07C72.78 133.65 69.21 134.12 66.22 135.92C61.86 138.54 59.5301 143.47 57.4401 148.11L57.4501 148.1ZM71.28 142.73C78.65 136.88 88.1501 136.59 92.5001 142.07C96.8501 147.55 94.4001 156.73 87.0401 162.58C79.6701 168.43 70.1701 168.72 65.8201 163.24C61.4701 157.76 63.92 148.58 71.28 142.73Z" fill="#9985BA"/>
<path d="M172.32 50.7399L122 133.11L105.51 133.49L101.75 124.99L170.55 49.2799C170.55 49.2799 175.21 43.9699 172.31 50.7399H172.32Z" fill="#9985BA"/>
<path d="M119.21 128.96C121.96 128.96 124.19 126.73 124.19 123.98C124.19 121.23 121.96 119 119.21 119C116.46 119 114.23 121.23 114.23 123.98C114.23 126.73 116.46 128.96 119.21 128.96Z" fill="#9985BA"/>
<path d="M142.07 161.12C141.27 157.72 139.12 154.83 137.15 151.96C134.02 147.41 131.2 142.64 128.73 137.69C126.92 134.06 125.25 130.14 125.58 126.1L125.37 125.97C121.75 126.47 119.19 125.95 115.56 126.45C114.64 126.58 113.69 126.72 112.95 127.27C112.11 127.9 111.7 128.94 111.35 129.93C107.63 140.32 104.96 151.09 103.41 162.02C102.72 166.89 102.27 172.03 104.13 176.58C105.39 179.67 107.63 182.27 110.16 184.45C111.31 185.44 112.54 186.36 113.92 186.99C117.83 188.79 122.4 188.09 126.58 187.06C129.93 186.23 133.39 185.1 135.76 182.6C137.52 180.74 138.51 178.29 139.45 175.91C141.33 171.18 143.24 166.08 142.08 161.12H142.07ZM122.74 180.47C115.78 181.17 109.37 174.15 108.43 164.79C107.49 155.43 112.37 147.28 119.34 146.58C126.3 145.88 132.71 152.9 133.65 162.26C134.59 171.62 129.71 179.77 122.74 180.47Z" fill="#F4DF7C"/>
<path d="M129.23 25.68L105.21 119.16L116.42 131.25L125.13 128.02L131.5 25.92C131.5 25.92 132.06 18.88 129.23 25.67V25.68Z" fill="#EDEDED"/>
<path d="M54.4501 140.1C53.4001 142.44 52.33 144.85 52.22 147.41C52.07 150.86 53.68 154.12 55.41 157.1C57.58 160.82 60.27 164.58 64.28 166.13C65.7 166.68 67.21 166.92 68.72 167.06C72.04 167.36 75.4701 167.16 78.5701 165.91C83.1301 164.07 86.51 160.17 89.52 156.28C96.27 147.55 102.14 138.14 107 128.23C107.46 127.29 107.93 126.27 107.79 125.23C107.67 124.31 107.11 123.53 106.56 122.78C104.4 119.83 102.24 118.36 100.07 115.41L99.8301 115.35C97.1601 118.4 93.1901 119.94 89.3201 121.17C84.0501 122.84 78.67 124.15 73.22 125.07C69.78 125.65 66.21 126.12 63.22 127.92C58.86 130.54 56.5301 135.47 54.4401 140.11L54.4501 140.1ZM68.28 134.73C75.65 128.88 85.1501 128.59 89.5001 134.07C93.8501 139.55 91.4001 148.73 84.0401 154.58C76.6701 160.43 67.1701 160.72 62.8201 155.24C58.4701 149.76 60.92 140.58 68.28 134.73Z" fill="#F4DF7C"/>
<path d="M169.32 42.7399L119 125.11L102.51 125.49L98.75 116.99L167.55 41.2799C167.55 41.2799 172.21 35.9699 169.31 42.7399H169.32Z" fill="#EDEDED"/>
<path d="M116.21 120.96C118.96 120.96 121.19 118.73 121.19 115.98C121.19 113.23 118.96 111 116.21 111C113.46 111 111.23 113.23 111.23 115.98C111.23 118.73 113.46 120.96 116.21 120.96Z" fill="#5BA2DD"/>
</svg>
