<svg width="253" height="29" viewBox="0 0 253 29" fill="none" xmlns="http://www.w3.org/2000/svg">
<path d="M20.3698 7.15002L12.5397 28H8.57977L0.719727 7.15002H4.37976L10.5598 24.49L16.7698 7.15002H20.3698Z" fill="#666666"/>
<path d="M27.3701 26.84C25.7401 25.93 24.4501 24.66 23.5001 23.03C22.5501 21.4 22.0801 19.57 22.0801 17.53C22.0801 15.49 22.5501 13.66 23.5001 12.04C24.4501 10.42 25.7401 9.16 27.3701 8.25C29.0001 7.34 30.79 6.88 32.72 6.88C34.65 6.88 36.47 7.34 38.1 8.25C39.73 9.16 41.0201 10.42 41.9601 12.04C42.9001 13.66 43.3701 15.49 43.3701 17.53C43.3701 19.57 42.9001 21.41 41.9601 23.03C41.0201 24.66 39.73 25.93 38.1 26.84C36.47 27.75 34.68 28.21 32.72 28.21C30.76 28.21 29.0001 27.75 27.3701 26.84ZM36.42 24.29C37.5 23.66 38.3401 22.76 38.9601 21.59C39.5701 20.42 39.8801 19.07 39.8801 17.53C39.8801 15.99 39.5701 14.64 38.9601 13.48C38.3501 12.32 37.5 11.43 36.42 10.81C35.34 10.19 34.11 9.88 32.73 9.88C31.35 9.88 30.12 10.19 29.04 10.81C27.96 11.43 27.1101 12.32 26.5001 13.48C25.8901 14.64 25.5801 15.99 25.5801 17.53C25.5801 19.07 25.8801 20.42 26.5001 21.59C27.1101 22.76 27.96 23.66 29.04 24.29C30.12 24.92 31.35 25.24 32.73 25.24C34.11 25.24 35.34 24.92 36.42 24.29Z" fill="#666666"/>
<path d="M47.0197 12.04C47.9697 10.42 49.2596 9.16 50.8896 8.25C52.5196 7.34 54.3096 6.88 56.2396 6.88C58.4596 6.88 60.4396 7.42001 62.1596 8.51001C63.8896 9.60001 65.1496 11.15 65.9296 13.15H61.8196C61.2796 12.05 60.5296 11.23 59.5696 10.69C58.6096 10.15 57.4996 9.88 56.2396 9.88C54.8596 9.88 53.6296 10.19 52.5496 10.81C51.4696 11.43 50.6196 12.32 50.0096 13.48C49.3996 14.64 49.0897 15.99 49.0897 17.53C49.0897 19.07 49.3896 20.42 50.0096 21.58C50.6196 22.74 51.4696 23.63 52.5496 24.26C53.6296 24.89 54.8596 25.21 56.2396 25.21C57.4996 25.21 58.6096 24.94 59.5696 24.4C60.5296 23.86 61.2796 23.04 61.8196 21.94H65.9296C65.1496 23.94 63.8896 25.48 62.1596 26.56C60.4296 27.64 58.4596 28.18 56.2396 28.18C54.2796 28.18 52.4896 27.73 50.8696 26.82C49.2496 25.91 47.9597 24.64 47.0197 23.02C46.0697 21.4 45.5996 19.57 45.5996 17.53C45.5996 15.49 46.0697 13.66 47.0197 12.04Z" fill="#666666"/>
<path d="M73.3497 9.91003V16.03H80.5497V18.82H73.3497V25.21H81.4497V28H69.9297V7.12003H81.4497V9.91003H73.3497ZM75.5397 3.37003L71.2497 5.95004V3.28003L75.5397 0.790039L79.8297 3.28003V5.95004L75.5397 3.37003Z" fill="#666666"/>
<path d="M93.7296 12.04C94.6796 10.42 95.9695 9.16 97.5995 8.25C99.2295 7.34 101.02 6.88 102.95 6.88C105.17 6.88 107.15 7.42001 108.87 8.51001C110.6 9.60001 111.86 11.15 112.64 13.15H108.53C107.99 12.05 107.24 11.23 106.28 10.69C105.32 10.15 104.21 9.88 102.95 9.88C101.57 9.88 100.34 10.19 99.2596 10.81C98.1796 11.43 97.3295 12.32 96.7195 13.48C96.1095 14.64 95.7996 15.99 95.7996 17.53C95.7996 19.07 96.0995 20.42 96.7195 21.58C97.3295 22.74 98.1796 23.63 99.2596 24.26C100.34 24.89 101.57 25.21 102.95 25.21C104.21 25.21 105.32 24.94 106.28 24.4C107.24 23.86 107.99 23.04 108.53 21.94H112.64C111.86 23.94 110.6 25.48 108.87 26.56C107.14 27.64 105.17 28.18 102.95 28.18C100.99 28.18 99.1996 27.73 97.5796 26.82C95.9596 25.91 94.6696 24.64 93.7296 23.02C92.7796 21.4 92.3096 19.57 92.3096 17.53C92.3096 15.49 92.7796 13.66 93.7296 12.04Z" fill="#666666"/>
<path d="M120.79 26.84C119.16 25.93 117.87 24.66 116.92 23.03C115.97 21.4 115.5 19.57 115.5 17.53C115.5 15.49 115.97 13.66 116.92 12.04C117.87 10.42 119.16 9.16 120.79 8.25C122.42 7.34 124.21 6.88 126.14 6.88C128.07 6.88 129.89 7.34 131.52 8.25C133.15 9.16 134.44 10.42 135.38 12.04C136.32 13.66 136.79 15.49 136.79 17.53C136.79 19.57 136.32 21.41 135.38 23.03C134.44 24.66 133.15 25.93 131.52 26.84C129.89 27.75 128.1 28.21 126.14 28.21C124.18 28.21 122.42 27.75 120.79 26.84ZM129.84 24.29C130.92 23.66 131.76 22.76 132.38 21.59C132.99 20.42 133.3 19.07 133.3 17.53C133.3 15.99 132.99 14.64 132.38 13.48C131.77 12.32 130.92 11.43 129.84 10.81C128.76 10.19 127.53 9.88 126.15 9.88C124.77 9.88 123.54 10.19 122.46 10.81C121.38 11.43 120.53 12.32 119.92 13.48C119.31 14.64 119 15.99 119 17.53C119 19.07 119.3 20.42 119.92 21.59C120.53 22.76 121.38 23.66 122.46 24.29C123.54 24.92 124.77 25.24 126.15 25.24C127.53 25.24 128.76 24.92 129.84 24.29Z" fill="#666666"/>
<path d="M157.29 28H153.87L143.58 12.43V28H140.16V7.12H143.58L153.87 22.66V7.12H157.29V28Z" fill="#666666"/>
<path d="M162.069 12.04C163.019 10.42 164.309 9.16 165.939 8.25C167.569 7.34 169.359 6.88 171.289 6.88C173.509 6.88 175.489 7.42001 177.209 8.51001C178.939 9.60001 180.199 11.15 180.979 13.15H176.869C176.329 12.05 175.579 11.23 174.619 10.69C173.659 10.15 172.549 9.88 171.289 9.88C169.909 9.88 168.679 10.19 167.599 10.81C166.519 11.43 165.669 12.32 165.059 13.48C164.449 14.64 164.139 15.99 164.139 17.53C164.139 19.07 164.439 20.42 165.059 21.58C165.669 22.74 166.519 23.63 167.599 24.26C168.679 24.89 169.909 25.21 171.289 25.21C172.549 25.21 173.659 24.94 174.619 24.4C175.579 23.86 176.329 23.04 176.869 21.94H180.979C180.199 23.94 178.939 25.48 177.209 26.56C175.479 27.64 173.509 28.18 171.289 28.18C169.329 28.18 167.539 27.73 165.919 26.82C164.299 25.91 163.009 24.64 162.069 23.02C161.119 21.4 160.649 19.57 160.649 17.53C160.649 15.49 161.119 13.66 162.069 12.04Z" fill="#666666"/>
<path d="M188.4 25.24H195.45V28H184.979V7.15002H188.4V25.24Z" fill="#666666"/>
<path d="M201.689 7.15002V20.44C201.689 22.02 202.109 23.21 202.939 24.01C203.769 24.81 204.929 25.21 206.399 25.21C207.869 25.21 209.069 24.81 209.899 24.01C210.729 23.21 211.149 22.02 211.149 20.44V7.15002H214.569V20.38C214.569 22.08 214.199 23.52 213.459 24.7C212.719 25.88 211.729 26.76 210.489 27.34C209.249 27.92 207.879 28.21 206.379 28.21C204.879 28.21 203.509 27.92 202.279 27.34C201.049 26.76 200.069 25.88 199.359 24.7C198.649 23.52 198.279 22.08 198.279 20.38V7.15002H201.699H201.689Z" fill="#666666"/>
<path d="M222.42 7.15002V28H219V7.15002H222.42Z" fill="#666666"/>
<path d="M230.3 7.15002V20.44C230.3 22.02 230.72 23.21 231.55 24.01C232.38 24.81 233.54 25.21 235.01 25.21C236.48 25.21 237.68 24.81 238.51 24.01C239.34 23.21 239.76 22.02 239.76 20.44V7.15002H243.18V20.38C243.18 22.08 242.81 23.52 242.07 24.7C241.33 25.88 240.34 26.76 239.1 27.34C237.86 27.92 236.49 28.21 234.99 28.21C233.49 28.21 232.12 27.92 230.89 27.34C229.66 26.76 228.68 25.88 227.97 24.7C227.26 23.52 226.89 22.08 226.89 20.38V7.15002H230.31H230.3Z" fill="#666666"/>
<path d="M248.63 27.58C248.21 27.16 248 26.64 248 26.02C248 25.4 248.21 24.88 248.63 24.46C249.05 24.04 249.57 23.83 250.19 23.83C250.81 23.83 251.3 24.04 251.72 24.46C252.14 24.88 252.35 25.4 252.35 26.02C252.35 26.64 252.14 27.16 251.72 27.58C251.3 28 250.79 28.21 250.19 28.21C249.59 28.21 249.05 28 248.63 27.58ZM251.91 7.15002L251.52 21.7H248.67L248.28 7.15002H251.91Z" fill="#666666"/>
</svg>
