<svg width="543" height="95" viewBox="0 0 543 95" fill="none" xmlns="http://www.w3.org/2000/svg">
<path d="M512.36 24.84H29.81C13.3464 24.84 0 38.1864 0 54.65V65.03C0 81.4936 13.3464 94.84 29.81 94.84H512.36C528.824 94.84 542.17 81.4936 542.17 65.03V54.65C542.17 38.1864 528.824 24.84 512.36 24.84Z" fill="#EEC7A1"/>
<path d="M229.05 2.14999C230 2.62999 230.72 3.31999 231.23 4.21999C231.73 5.10999 231.99 6.16999 231.99 7.37999C231.99 8.58999 231.74 9.63999 231.23 10.53C230.73 11.42 230 12.1 229.05 12.57C228.1 13.04 226.98 13.28 225.69 13.28H222V1.42999H225.69C226.98 1.42999 228.1 1.66999 229.05 2.14999ZM229.19 10.78C229.99 9.96999 230.4 8.82999 230.4 7.36999C230.4 5.90999 229.99 4.74999 229.18 3.91999C228.37 3.08999 227.21 2.67999 225.69 2.67999H223.55V12H225.69C227.22 12 228.39 11.6 229.19 10.79V10.78Z" fill="#A8A8A8"/>
<path d="M235.71 12.83C235 12.43 234.45 11.87 234.04 11.14C233.64 10.41 233.44 9.55999 233.44 8.59999C233.44 7.63999 233.65 6.81 234.06 6.08C234.47 5.35 235.04 4.79 235.75 4.4C236.46 4.01 237.26 3.81 238.15 3.81C239.04 3.81 239.83 4.01 240.55 4.4C241.26 4.79 241.83 5.35 242.24 6.07C242.65 6.79 242.86 7.63999 242.86 8.59999C242.86 9.55999 242.65 10.41 242.22 11.14C241.8 11.87 241.22 12.43 240.49 12.83C239.76 13.23 238.96 13.43 238.08 13.43C237.2 13.43 236.42 13.23 235.71 12.83ZM239.65 11.68C240.14 11.42 240.53 11.03 240.83 10.51C241.13 9.98999 241.28 9.35 241.28 8.61C241.28 7.87 241.13 7.23 240.84 6.71C240.55 6.19 240.16 5.8 239.68 5.55C239.2 5.3 238.69 5.16999 238.13 5.16999C237.57 5.16999 237.05 5.3 236.57 5.55C236.1 5.8 235.72 6.19 235.44 6.71C235.16 7.23 235.01 7.87 235.01 8.61C235.01 9.35 235.15 10.01 235.43 10.53C235.71 11.05 236.08 11.44 236.54 11.69C237 11.94 237.51 12.07 238.07 12.07C238.63 12.07 239.15 11.94 239.63 11.68H239.65Z" fill="#A8A8A8"/>
<path d="M247.84 4.33001C248.45 3.98001 249.15 3.8 249.93 3.8C250.77 3.8 251.52 4 252.19 4.39C252.86 4.79 253.39 5.35001 253.77 6.06001C254.16 6.78001 254.35 7.62 254.35 8.57C254.35 9.52 254.16 10.35 253.77 11.09C253.39 11.83 252.85 12.4 252.18 12.81C251.51 13.22 250.75 13.42 249.93 13.42C249.11 13.42 248.42 13.24 247.81 12.89C247.2 12.54 246.75 12.09 246.44 11.55V13.27H244.89V0.690002H246.44V5.69C246.76 5.14 247.22 4.68001 247.83 4.33001H247.84ZM252.35 6.75C252.07 6.23 251.68 5.83001 251.2 5.56001C250.72 5.29001 250.19 5.15001 249.61 5.15001C249.03 5.15001 248.52 5.29 248.04 5.57C247.56 5.85 247.17 6.25 246.88 6.78C246.59 7.31 246.45 7.92 246.45 8.61C246.45 9.3 246.59 9.93 246.88 10.45C247.17 10.98 247.55 11.38 248.04 11.66C248.52 11.94 249.05 12.08 249.61 12.08C250.17 12.08 250.72 11.94 251.2 11.66C251.68 11.38 252.06 10.98 252.35 10.45C252.63 9.92 252.77 9.3 252.77 8.59C252.77 7.88 252.63 7.28 252.35 6.75Z" fill="#A8A8A8"/>
<path d="M259.1 4.23001C259.6 3.94001 260.22 3.79001 260.94 3.79001V5.39001H260.53C258.8 5.39001 257.93 6.33001 257.93 8.21001V13.28H256.38V3.96001H257.93V5.47001C258.2 4.94001 258.59 4.52001 259.09 4.23001H259.1Z" fill="#A8A8A8"/>
<path d="M262.73 6.07C263.12 5.35 263.65 4.79 264.32 4.4C264.99 4 265.74 3.81 266.57 3.81C267.4 3.81 268.09 3.99 268.69 4.34C269.29 4.69 269.74 5.12999 270.03 5.66999V3.97H271.59V13.29H270.03V11.56C269.72 12.1 269.27 12.56 268.66 12.91C268.05 13.27 267.35 13.45 266.54 13.45C265.73 13.45 264.96 13.25 264.3 12.84C263.64 12.43 263.1 11.86 262.72 11.12C262.34 10.38 262.14 9.53999 262.14 8.59999C262.14 7.65999 262.33 6.81 262.72 6.09L262.73 6.07ZM269.62 6.75999C269.34 6.23999 268.95 5.84 268.47 5.56C267.99 5.28 267.46 5.14 266.88 5.14C266.3 5.14 265.77 5.28 265.3 5.55C264.82 5.82 264.44 6.22 264.16 6.74C263.88 7.26 263.73 7.87 263.73 8.58C263.73 9.29 263.87 9.91 264.16 10.44C264.44 10.97 264.82 11.37 265.3 11.65C265.78 11.93 266.3 12.07 266.88 12.07C267.46 12.07 267.99 11.93 268.47 11.65C268.95 11.37 269.33 10.97 269.62 10.44C269.9 9.91 270.04 9.29999 270.04 8.59999C270.04 7.89999 269.9 7.28999 269.62 6.75999Z" fill="#A8A8A8"/>
<path d="M274.22 6.07001C274.61 5.35001 275.14 4.79001 275.81 4.40001C276.48 4.00001 277.24 3.81001 278.08 3.81001C278.81 3.81001 279.48 3.98001 280.1 4.31001C280.72 4.64001 281.2 5.08001 281.53 5.63001V0.700012H283.09V13.28H281.53V11.53C281.22 12.09 280.77 12.54 280.17 12.9C279.57 13.26 278.87 13.44 278.06 13.44C277.25 13.44 276.48 13.24 275.81 12.83C275.14 12.42 274.61 11.85 274.22 11.11C273.84 10.37 273.64 9.53001 273.64 8.59001C273.64 7.65001 273.83 6.80001 274.22 6.08001V6.07001ZM281.11 6.76001C280.83 6.24001 280.44 5.84001 279.96 5.56001C279.48 5.28001 278.95 5.14001 278.37 5.14001C277.79 5.14001 277.26 5.28001 276.79 5.55001C276.31 5.82001 275.93 6.22001 275.65 6.74001C275.37 7.26001 275.22 7.87001 275.22 8.58001C275.22 9.29001 275.36 9.91001 275.65 10.44C275.93 10.97 276.31 11.37 276.79 11.65C277.27 11.93 277.79 12.07 278.37 12.07C278.95 12.07 279.48 11.93 279.96 11.65C280.44 11.37 280.82 10.97 281.11 10.44C281.39 9.91001 281.53 9.30001 281.53 8.60001C281.53 7.90001 281.39 7.29001 281.11 6.76001Z" fill="#A8A8A8"/>
<path d="M293.98 3.95999V13.28H292.43V11.9C292.14 12.38 291.72 12.75 291.2 13.01C290.67 13.28 290.09 13.41 289.46 13.41C288.73 13.41 288.08 13.26 287.5 12.96C286.92 12.66 286.47 12.21 286.13 11.61C285.8 11.01 285.63 10.28 285.63 9.41999V3.95999H287.16V9.20999C287.16 10.13 287.39 10.83 287.86 11.33C288.33 11.83 288.96 12.07 289.76 12.07C290.56 12.07 291.24 11.82 291.71 11.31C292.19 10.8 292.42 10.06 292.42 9.07999V3.95999H293.97H293.98Z" fill="#A8A8A8"/>
<path d="M299.31 4.23001C299.81 3.94001 300.43 3.79001 301.15 3.79001V5.39001H300.74C299.01 5.39001 298.14 6.33001 298.14 8.21001V13.28H296.59V3.96001H298.14V5.47001C298.41 4.94001 298.8 4.52001 299.3 4.23001H299.31Z" fill="#A8A8A8"/>
<path d="M302.94 6.07C303.33 5.35 303.86 4.79 304.53 4.4C305.2 4 305.95 3.81 306.78 3.81C307.61 3.81 308.3 3.99 308.9 4.34C309.5 4.69 309.95 5.12999 310.24 5.66999V3.97H311.8V13.29H310.24V11.56C309.93 12.1 309.48 12.56 308.87 12.91C308.26 13.27 307.56 13.45 306.75 13.45C305.94 13.45 305.17 13.25 304.51 12.84C303.85 12.43 303.31 11.86 302.93 11.12C302.55 10.38 302.35 9.53999 302.35 8.59999C302.35 7.65999 302.54 6.81 302.93 6.09L302.94 6.07ZM309.82 6.75999C309.54 6.23999 309.15 5.84 308.67 5.56C308.19 5.28 307.66 5.14 307.08 5.14C306.5 5.14 305.97 5.28 305.5 5.55C305.02 5.82 304.64 6.22 304.36 6.74C304.08 7.26 303.93 7.87 303.93 8.58C303.93 9.29 304.07 9.91 304.36 10.44C304.64 10.97 305.02 11.37 305.5 11.65C305.98 11.93 306.5 12.07 307.08 12.07C307.66 12.07 308.19 11.93 308.67 11.65C309.15 11.37 309.53 10.97 309.82 10.44C310.1 9.91 310.24 9.29999 310.24 8.59999C310.24 7.89999 310.1 7.28999 309.82 6.75999Z" fill="#A8A8A8"/>
<path d="M315.81 13.06C315.24 12.82 314.8 12.48 314.47 12.04C314.14 11.6 313.96 11.1 313.93 10.54H315.53C315.57 11 315.79 11.38 316.18 11.68C316.57 11.97 317.08 12.12 317.72 12.12C318.31 12.12 318.77 11.99 319.11 11.73C319.45 11.47 319.62 11.14 319.62 10.74C319.62 10.34 319.44 10.03 319.08 9.83C318.72 9.63 318.16 9.44 317.4 9.24C316.71 9.06 316.15 8.86999 315.71 8.68999C315.27 8.49999 314.9 8.23 314.59 7.86C314.28 7.49 314.12 7.01 314.12 6.41C314.12 5.93 314.26 5.49999 314.54 5.09999C314.82 4.69999 315.23 4.39 315.75 4.16C316.27 3.93 316.87 3.81 317.54 3.81C318.57 3.81 319.4 4.07 320.04 4.59C320.67 5.11 321.01 5.83 321.06 6.73H319.51C319.48 6.24 319.28 5.85 318.92 5.56C318.56 5.27 318.08 5.12 317.48 5.12C316.93 5.12 316.48 5.24 316.15 5.48C315.82 5.72 315.66 6.03 315.66 6.41C315.66 6.72 315.76 6.96999 315.96 7.16999C316.16 7.36999 316.41 7.53 316.71 7.65C317.01 7.77 317.43 7.9 317.96 8.05C318.63 8.23 319.17 8.41 319.59 8.59C320.01 8.77 320.37 9.03 320.67 9.38C320.97 9.73 321.13 10.19 321.14 10.76C321.14 11.27 321 11.73 320.72 12.14C320.44 12.55 320.04 12.87 319.52 13.1C319 13.33 318.41 13.45 317.74 13.45C317.03 13.45 316.39 13.33 315.82 13.08L315.81 13.06Z" fill="#A8A8A8"/>
<path d="M42.64 49.35V58.67H52.8V61.67H42.64V71.27H54V74.27H39V46.35H54V49.35H42.64Z" fill="white"/>
<path d="M63.42 73.57C61.97 72.92 60.83 72.01 60 70.85C59.17 69.69 58.75 68.35 58.72 66.83H62.6C62.73 68.14 63.27 69.24 64.22 70.13C65.17 71.02 66.55 71.47 68.36 71.47C70.17 71.47 71.46 71.04 72.46 70.17C73.46 69.3 73.96 68.19 73.96 66.83C73.96 65.76 73.67 64.9 73.08 64.23C72.49 63.56 71.76 63.06 70.88 62.71C70 62.36 68.81 61.99 67.32 61.59C65.48 61.11 64.01 60.63 62.9 60.15C61.79 59.67 60.85 58.92 60.06 57.89C59.27 56.86 58.88 55.48 58.88 53.75C58.88 52.23 59.27 50.88 60.04 49.71C60.81 48.54 61.9 47.63 63.3 46.99C64.7 46.35 66.31 46.03 68.12 46.03C70.73 46.03 72.87 46.68 74.54 47.99C76.21 49.3 77.15 51.03 77.36 53.19H73.36C73.23 52.12 72.67 51.18 71.68 50.37C70.69 49.56 69.39 49.15 67.76 49.15C66.24 49.15 65 49.54 64.04 50.33C63.08 51.12 62.6 52.22 62.6 53.63C62.6 54.64 62.89 55.47 63.46 56.11C64.03 56.75 64.74 57.24 65.58 57.57C66.42 57.9 67.6 58.28 69.12 58.71C70.96 59.22 72.44 59.72 73.56 60.21C74.68 60.7 75.64 61.46 76.44 62.49C77.24 63.52 77.64 64.91 77.64 66.67C77.64 68.03 77.28 69.31 76.56 70.51C75.84 71.71 74.77 72.68 73.36 73.43C71.95 74.18 70.28 74.55 68.36 74.55C66.44 74.55 64.87 74.22 63.42 73.57Z" fill="white"/>
<path d="M83.47 52.97C84.7 50.8 86.37 49.1 88.49 47.87C90.61 46.64 92.96 46.03 95.55 46.03C98.59 46.03 101.24 46.76 103.51 48.23C105.78 49.7 107.43 51.78 108.47 54.47H104.11C103.34 52.79 102.22 51.5 100.77 50.59C99.32 49.68 97.58 49.23 95.55 49.23C93.52 49.23 91.86 49.68 90.31 50.59C88.76 51.5 87.55 52.78 86.67 54.45C85.79 56.12 85.35 58.07 85.35 60.31C85.35 62.55 85.79 64.46 86.67 66.13C87.55 67.8 88.76 69.08 90.31 69.99C91.86 70.9 93.6 71.35 95.55 71.35C97.5 71.35 99.32 70.9 100.77 70.01C102.22 69.12 103.34 67.83 104.11 66.15H108.47C107.43 68.82 105.78 70.88 103.51 72.33C101.24 73.78 98.59 74.51 95.55 74.51C92.96 74.51 90.61 73.9 88.49 72.69C86.37 71.48 84.7 69.79 83.47 67.63C82.24 65.47 81.63 63.03 81.63 60.31C81.63 57.59 82.24 55.14 83.47 52.97Z" fill="white"/>
<path d="M119.43 72.73C117.3 71.52 115.61 69.82 114.37 67.65C113.13 65.48 112.51 63.03 112.51 60.31C112.51 57.59 113.13 55.14 114.37 52.97C115.61 50.8 117.3 49.1 119.43 47.89C121.56 46.68 123.92 46.07 126.51 46.07C129.1 46.07 131.5 46.68 133.63 47.89C135.76 49.1 137.44 50.79 138.67 52.95C139.9 55.11 140.51 57.56 140.51 60.31C140.51 63.06 139.9 65.51 138.67 67.67C137.44 69.83 135.76 71.52 133.63 72.73C131.5 73.94 129.12 74.55 126.51 74.55C123.9 74.55 121.56 73.94 119.43 72.73ZM131.78 70.03C133.34 69.12 134.57 67.83 135.46 66.15C136.35 64.47 136.8 62.52 136.8 60.31C136.8 58.1 136.35 56.12 135.46 54.45C134.57 52.78 133.35 51.5 131.8 50.59C130.25 49.68 128.49 49.23 126.52 49.23C124.55 49.23 122.79 49.68 121.24 50.59C119.69 51.5 118.47 52.78 117.58 54.45C116.69 56.12 116.24 58.07 116.24 60.31C116.24 62.55 116.69 64.47 117.58 66.15C118.47 67.83 119.7 69.12 121.26 70.03C122.82 70.94 124.57 71.39 126.52 71.39C128.47 71.39 130.22 70.94 131.78 70.03Z" fill="white"/>
<path d="M148.95 71.31H158.71V74.27H145.31V46.39H148.95V71.31Z" fill="white"/>
<path d="M184.07 46.39V74.27H180.43V61.63H166.23V74.27H162.59V46.39H166.23V58.63H180.43V46.39H184.07Z" fill="white"/>
<path d="M206.75 68.07H194.59L192.35 74.27H188.51L198.59 46.55H202.79L212.83 74.27H208.99L206.75 68.07ZM205.71 65.11L200.67 51.03L195.63 65.11H205.71Z" fill="white"/>
<path d="M244.39 68.07H232.23L229.99 74.27H226.15L236.23 46.55H240.43L250.47 74.27H246.63L244.39 68.07ZM243.35 65.11L238.31 51.03L233.27 65.11H243.35Z" fill="white"/>
<path d="M282.13 48.09C284.36 49.22 286.06 50.84 287.25 52.95C288.44 55.06 289.03 57.54 289.03 60.39C289.03 63.24 288.44 65.72 287.25 67.81C286.06 69.9 284.36 71.5 282.13 72.61C279.9 73.72 277.27 74.27 274.23 74.27H265.55V46.39H274.23C277.27 46.39 279.9 46.96 282.13 48.09ZM282.47 68.41C284.36 66.5 285.31 63.83 285.31 60.39C285.31 56.95 284.36 54.22 282.45 52.27C280.54 50.32 277.8 49.35 274.23 49.35H269.19V71.27H274.23C277.83 71.27 280.58 70.32 282.47 68.41Z" fill="white"/>
<path d="M299.39 72.73C297.26 71.52 295.57 69.82 294.33 67.65C293.09 65.48 292.47 63.03 292.47 60.31C292.47 57.59 293.09 55.14 294.33 52.97C295.57 50.8 297.26 49.1 299.39 47.89C301.52 46.68 303.88 46.07 306.47 46.07C309.06 46.07 311.46 46.68 313.59 47.89C315.72 49.1 317.4 50.79 318.63 52.95C319.86 55.11 320.47 57.56 320.47 60.31C320.47 63.06 319.86 65.51 318.63 67.67C317.4 69.83 315.72 71.52 313.59 72.73C311.46 73.94 309.08 74.55 306.47 74.55C303.86 74.55 301.52 73.94 299.39 72.73ZM311.73 70.03C313.29 69.12 314.52 67.83 315.41 66.15C316.3 64.47 316.75 62.52 316.75 60.31C316.75 58.1 316.3 56.12 315.41 54.45C314.52 52.78 313.3 51.5 311.75 50.59C310.2 49.68 308.44 49.23 306.47 49.23C304.5 49.23 302.74 49.68 301.19 50.59C299.64 51.5 298.42 52.78 297.53 54.45C296.64 56.12 296.19 58.07 296.19 60.31C296.19 62.55 296.64 64.47 297.53 66.15C298.42 67.83 299.65 69.12 301.21 70.03C302.77 70.94 304.52 71.39 306.47 71.39C308.42 71.39 310.17 70.94 311.73 70.03Z" fill="white"/>
<path d="M342.01 61.15C342.85 61.82 343.52 62.64 344.01 63.63C344.5 64.62 344.75 65.67 344.75 66.79C344.75 68.2 344.39 69.48 343.67 70.61C342.95 71.74 341.9 72.64 340.53 73.29C339.16 73.94 337.54 74.27 335.67 74.27H325.27V46.39H335.27C337.16 46.39 338.78 46.7 340.11 47.33C341.44 47.96 342.44 48.8 343.11 49.87C343.78 50.94 344.11 52.14 344.11 53.47C344.11 55.12 343.66 56.49 342.77 57.57C341.88 58.65 340.7 59.43 339.23 59.91C340.24 60.07 341.17 60.48 342.01 61.15ZM328.91 58.43H335.03C336.74 58.43 338.06 58.03 338.99 57.23C339.92 56.43 340.39 55.32 340.39 53.91C340.39 52.5 339.92 51.39 338.99 50.59C338.06 49.79 336.71 49.39 334.95 49.39H328.91V58.43ZM339.59 69.99C340.6 69.14 341.11 67.95 341.11 66.43C341.11 64.91 340.58 63.66 339.51 62.77C338.44 61.88 337.02 61.43 335.23 61.43H328.91V71.27H335.35C337.16 71.27 338.58 70.84 339.59 69.99Z" fill="white"/>
<path d="M364.47 74.27L357.83 62.87H353.43V74.27H349.79V46.39H358.79C360.9 46.39 362.68 46.75 364.13 47.47C365.58 48.19 366.67 49.16 367.39 50.39C368.11 51.62 368.47 53.02 368.47 54.59C368.47 56.51 367.92 58.2 366.81 59.67C365.7 61.14 364.04 62.11 361.83 62.59L368.83 74.27H364.47ZM353.43 59.95H358.79C360.76 59.95 362.24 59.46 363.23 58.49C364.22 57.52 364.71 56.22 364.71 54.59C364.71 52.96 364.22 51.66 363.25 50.75C362.28 49.84 360.79 49.39 358.79 49.39H353.43V59.95Z" fill="white"/>
<path d="M390.59 68.07H378.43L376.19 74.27H372.35L382.43 46.55H386.63L396.67 74.27H392.83L390.59 68.07ZM389.55 65.11L384.51 51.03L379.47 65.11H389.55Z" fill="white"/>
<path d="M417.65 48.09C419.88 49.22 421.58 50.84 422.77 52.95C423.96 55.06 424.55 57.54 424.55 60.39C424.55 63.24 423.96 65.72 422.77 67.81C421.58 69.9 419.88 71.5 417.65 72.61C415.42 73.72 412.79 74.27 409.75 74.27H401.07V46.39H409.75C412.79 46.39 415.42 46.96 417.65 48.09ZM417.99 68.41C419.88 66.5 420.83 63.83 420.83 60.39C420.83 56.95 419.88 54.22 417.97 52.27C416.06 50.32 413.32 49.35 409.75 49.35H404.71V71.27H409.75C413.35 71.27 416.1 70.32 417.99 68.41Z" fill="white"/>
<path d="M432.91 46.39V64.03C432.91 66.51 433.52 68.35 434.73 69.55C435.94 70.75 437.63 71.35 439.79 71.35C441.95 71.35 443.6 70.75 444.81 69.55C446.02 68.35 446.63 66.51 446.63 64.03V46.39H450.27V63.99C450.27 66.31 449.8 68.26 448.87 69.85C447.94 71.44 446.68 72.62 445.09 73.39C443.5 74.16 441.72 74.55 439.75 74.55C437.78 74.55 436 74.16 434.41 73.39C432.82 72.62 431.57 71.44 430.65 69.85C429.73 68.26 429.27 66.31 429.27 63.99V46.39H432.91Z" fill="white"/>
<path d="M471.03 74.27L464.39 62.87H459.99V74.27H456.35V46.39H465.35C467.46 46.39 469.24 46.75 470.69 47.47C472.14 48.19 473.23 49.16 473.95 50.39C474.67 51.62 475.03 53.02 475.03 54.59C475.03 56.51 474.48 58.2 473.37 59.67C472.26 61.14 470.6 62.11 468.39 62.59L475.39 74.27H471.03ZM459.99 59.95H465.35C467.32 59.95 468.8 59.46 469.79 58.49C470.78 57.52 471.27 56.22 471.27 54.59C471.27 52.96 470.78 51.66 469.81 50.75C468.84 49.84 467.35 49.39 465.35 49.39H459.99V59.95Z" fill="white"/>
<path d="M497.15 68.07H484.99L482.75 74.27H478.91L488.99 46.55H493.19L503.23 74.27H499.39L497.15 68.07ZM496.11 65.11L491.07 51.03L486.03 65.11H496.11Z" fill="white"/>
</svg>
