<svg width="543" height="95" viewBox="0 0 543 95" fill="none" xmlns="http://www.w3.org/2000/svg">
<path d="M513.16 24.3701H30.61C14.1464 24.3701 0.800049 37.7165 0.800049 54.1801V64.5601C0.800049 81.0237 14.1464 94.3701 30.61 94.3701H513.16C529.624 94.3701 542.97 81.0237 542.97 64.5601V54.1801C542.97 37.7165 529.624 24.3701 513.16 24.3701Z" fill="#C6A7F0"/>
<path d="M226.24 1.67019C227.19 2.15019 227.91 2.8402 228.42 3.7402C228.92 4.6302 229.18 5.6902 229.18 6.9002C229.18 8.1102 228.93 9.16019 228.42 10.0502C227.92 10.9402 227.19 11.6202 226.24 12.0902C225.29 12.5602 224.17 12.8002 222.88 12.8002H219.19V0.950195H222.88C224.17 0.950195 225.29 1.19019 226.24 1.67019ZM226.39 10.3102C227.19 9.5002 227.6 8.3602 227.6 6.9002C227.6 5.4402 227.19 4.2802 226.38 3.4502C225.57 2.6202 224.41 2.21019 222.89 2.21019H220.75V11.5302H222.89C224.42 11.5302 225.59 11.1302 226.39 10.3202V10.3102Z" fill="#A6A6A6"/>
<path d="M232.91 12.3603C232.2 11.9603 231.65 11.4003 231.24 10.6703C230.84 9.94033 230.64 9.09033 230.64 8.13033C230.64 7.17033 230.85 6.34033 231.26 5.61033C231.67 4.88033 232.24 4.32033 232.95 3.93033C233.66 3.54033 234.46 3.34033 235.35 3.34033C236.24 3.34033 237.03 3.54033 237.75 3.93033C238.46 4.32033 239.03 4.88033 239.44 5.60033C239.85 6.32033 240.06 7.17033 240.06 8.13033C240.06 9.09033 239.85 9.94033 239.42 10.6703C239 11.4003 238.42 11.9603 237.69 12.3603C236.96 12.7603 236.16 12.9603 235.28 12.9603C234.4 12.9603 233.62 12.7603 232.91 12.3603ZM236.84 11.2003C237.33 10.9403 237.72 10.5503 238.02 10.0303C238.32 9.51033 238.47 8.87033 238.47 8.13033C238.47 7.39033 238.32 6.75033 238.03 6.23033C237.74 5.71033 237.35 5.32033 236.87 5.07033C236.39 4.82033 235.88 4.69033 235.32 4.69033C234.76 4.69033 234.24 4.82033 233.76 5.07033C233.29 5.32033 232.91 5.71033 232.63 6.23033C232.35 6.75033 232.2 7.39033 232.2 8.13033C232.2 8.87033 232.34 9.53033 232.62 10.0503C232.9 10.5703 233.27 10.9603 233.73 11.2103C234.19 11.4603 234.7 11.5903 235.26 11.5903C235.82 11.5903 236.34 11.4603 236.82 11.2003H236.84Z" fill="#A6A6A6"/>
<path d="M245.04 3.86021C245.65 3.51021 246.35 3.33022 247.13 3.33022C247.97 3.33022 248.72 3.53021 249.39 3.92021C250.06 4.32021 250.59 4.88021 250.97 5.59021C251.36 6.31021 251.55 7.15021 251.55 8.10021C251.55 9.05021 251.36 9.88021 250.97 10.6202C250.59 11.3602 250.05 11.9302 249.38 12.3402C248.71 12.7502 247.95 12.9502 247.13 12.9502C246.31 12.9502 245.62 12.7702 245.01 12.4202C244.4 12.0702 243.95 11.6202 243.64 11.0802V12.8002H242.09V0.220215H243.64V5.22021C243.96 4.67021 244.42 4.21021 245.03 3.86021H245.04ZM249.54 6.27021C249.26 5.75021 248.87 5.35022 248.39 5.08022C247.91 4.81022 247.38 4.67021 246.8 4.67021C246.22 4.67021 245.71 4.81021 245.23 5.09021C244.75 5.37021 244.36 5.77021 244.07 6.30021C243.78 6.83021 243.64 7.44021 243.64 8.13021C243.64 8.82021 243.78 9.45021 244.07 9.97021C244.36 10.5002 244.74 10.9002 245.23 11.1802C245.71 11.4602 246.24 11.6002 246.8 11.6002C247.36 11.6002 247.91 11.4602 248.39 11.1802C248.87 10.9002 249.25 10.5002 249.54 9.97021C249.82 9.44022 249.96 8.82021 249.96 8.11021C249.96 7.40021 249.82 6.80021 249.54 6.27021Z" fill="#A6A6A6"/>
<path d="M256.3 3.76031C256.8 3.47031 257.42 3.32031 258.14 3.32031V4.92031H257.73C256 4.92031 255.13 5.86031 255.13 7.74031V12.8103H253.58V3.49031H255.13V5.00031C255.4 4.47031 255.79 4.05031 256.29 3.76031H256.3Z" fill="#A6A6A6"/>
<path d="M259.93 5.60033C260.32 4.88033 260.85 4.32033 261.52 3.93033C262.19 3.53033 262.94 3.34033 263.77 3.34033C264.6 3.34033 265.29 3.52033 265.89 3.87033C266.49 4.22033 266.94 4.66033 267.23 5.20033V3.50033H268.79V12.8203H267.23V11.0903C266.92 11.6303 266.47 12.0903 265.86 12.4403C265.25 12.8003 264.55 12.9803 263.74 12.9803C262.93 12.9803 262.16 12.7803 261.5 12.3703C260.84 11.9603 260.3 11.3903 259.92 10.6503C259.54 9.91033 259.34 9.07033 259.34 8.13033C259.34 7.19033 259.53 6.34033 259.92 5.62033L259.93 5.60033ZM266.81 6.29033C266.53 5.77033 266.14 5.37033 265.66 5.09033C265.18 4.81033 264.65 4.67033 264.07 4.67033C263.49 4.67033 262.96 4.81033 262.49 5.08033C262.01 5.35033 261.63 5.75033 261.35 6.27033C261.07 6.79033 260.92 7.40033 260.92 8.11033C260.92 8.82033 261.06 9.44033 261.35 9.97033C261.63 10.5003 262.01 10.9003 262.49 11.1803C262.97 11.4603 263.49 11.6003 264.07 11.6003C264.65 11.6003 265.18 11.4603 265.66 11.1803C266.14 10.9003 266.52 10.5003 266.81 9.97033C267.09 9.44033 267.23 8.83033 267.23 8.13033C267.23 7.43033 267.09 6.82033 266.81 6.29033Z" fill="#A6A6A6"/>
<path d="M271.42 5.59998C271.81 4.87998 272.34 4.31998 273.01 3.92998C273.68 3.52998 274.44 3.33998 275.28 3.33998C276.01 3.33998 276.68 3.50998 277.3 3.83998C277.92 4.16998 278.4 4.60998 278.73 5.15998V0.22998H280.29V12.81H278.73V11.06C278.42 11.62 277.97 12.07 277.37 12.43C276.77 12.79 276.07 12.97 275.26 12.97C274.45 12.97 273.68 12.77 273.01 12.36C272.34 11.95 271.81 11.38 271.42 10.64C271.04 9.89998 270.84 9.05998 270.84 8.11998C270.84 7.17998 271.03 6.32998 271.42 5.60998V5.59998ZM278.31 6.28998C278.03 5.76998 277.64 5.36998 277.16 5.08998C276.68 4.80998 276.15 4.66998 275.57 4.66998C274.99 4.66998 274.46 4.80998 273.99 5.07998C273.51 5.34998 273.13 5.74998 272.85 6.26998C272.57 6.78998 272.42 7.39998 272.42 8.10998C272.42 8.81998 272.56 9.43998 272.85 9.96998C273.13 10.5 273.51 10.9 273.99 11.18C274.47 11.46 274.99 11.6 275.57 11.6C276.15 11.6 276.68 11.46 277.16 11.18C277.64 10.9 278.02 10.5 278.31 9.96998C278.59 9.43998 278.73 8.82998 278.73 8.12998C278.73 7.42998 278.59 6.81998 278.31 6.28998Z" fill="#A6A6A6"/>
<path d="M291.18 3.47998V12.8H289.63V11.42C289.34 11.9 288.92 12.27 288.4 12.53C287.87 12.8 287.29 12.93 286.66 12.93C285.93 12.93 285.28 12.78 284.7 12.48C284.12 12.18 283.67 11.73 283.33 11.13C283 10.53 282.83 9.79998 282.83 8.93998V3.47998H284.36V8.72998C284.36 9.64998 284.59 10.35 285.06 10.85C285.53 11.35 286.16 11.59 286.96 11.59C287.76 11.59 288.44 11.34 288.91 10.83C289.39 10.32 289.62 9.57998 289.62 8.59998V3.47998H291.17H291.18Z" fill="#A6A6A6"/>
<path d="M296.5 3.76031C297 3.47031 297.62 3.32031 298.34 3.32031V4.92031H297.93C296.2 4.92031 295.33 5.86031 295.33 7.74031V12.8103H293.78V3.49031H295.33V5.00031C295.6 4.47031 295.99 4.05031 296.49 3.76031H296.5Z" fill="#A6A6A6"/>
<path d="M300.13 5.60033C300.52 4.88033 301.05 4.32033 301.72 3.93033C302.39 3.53033 303.14 3.34033 303.97 3.34033C304.8 3.34033 305.49 3.52033 306.09 3.87033C306.69 4.22033 307.14 4.66033 307.43 5.20033V3.50033H308.99V12.8203H307.43V11.0903C307.12 11.6303 306.67 12.0903 306.06 12.4403C305.45 12.8003 304.75 12.9803 303.94 12.9803C303.13 12.9803 302.36 12.7803 301.7 12.3703C301.04 11.9603 300.5 11.3903 300.12 10.6503C299.74 9.91033 299.54 9.07033 299.54 8.13033C299.54 7.19033 299.73 6.34033 300.12 5.62033L300.13 5.60033ZM307.02 6.29033C306.74 5.77033 306.35 5.37033 305.87 5.09033C305.39 4.81033 304.86 4.67033 304.28 4.67033C303.7 4.67033 303.17 4.81033 302.7 5.08033C302.22 5.35033 301.84 5.75033 301.56 6.27033C301.28 6.79033 301.13 7.40033 301.13 8.11033C301.13 8.82033 301.27 9.44033 301.56 9.97033C301.84 10.5003 302.22 10.9003 302.7 11.1803C303.18 11.4603 303.7 11.6003 304.28 11.6003C304.86 11.6003 305.39 11.4603 305.87 11.1803C306.35 10.9003 306.73 10.5003 307.02 9.97033C307.3 9.44033 307.44 8.83033 307.44 8.13033C307.44 7.43033 307.3 6.82033 307.02 6.29033Z" fill="#A6A6A6"/>
<path d="M313 12.5903C312.43 12.3503 311.99 12.0103 311.66 11.5703C311.33 11.1303 311.15 10.6303 311.12 10.0703H312.72C312.76 10.5303 312.98 10.9103 313.37 11.2103C313.76 11.5003 314.27 11.6503 314.91 11.6503C315.5 11.6503 315.96 11.5203 316.3 11.2603C316.64 11.0003 316.81 10.6703 316.81 10.2703C316.81 9.87033 316.63 9.56033 316.27 9.36033C315.91 9.16033 315.35 8.97033 314.59 8.77033C313.9 8.59033 313.34 8.40033 312.9 8.22033C312.46 8.03033 312.09 7.76033 311.78 7.39033C311.47 7.02033 311.31 6.54033 311.31 5.94033C311.31 5.46033 311.45 5.03033 311.73 4.63033C312.01 4.23033 312.42 3.92033 312.94 3.69033C313.46 3.46033 314.06 3.34033 314.73 3.34033C315.76 3.34033 316.59 3.60033 317.23 4.12033C317.86 4.64033 318.2 5.36033 318.25 6.26033H316.7C316.67 5.77033 316.47 5.38033 316.11 5.09033C315.75 4.80033 315.27 4.65033 314.67 4.65033C314.12 4.65033 313.67 4.77033 313.34 5.01033C313.01 5.25033 312.85 5.56033 312.85 5.94033C312.85 6.25033 312.95 6.50033 313.15 6.70033C313.35 6.90033 313.6 7.06033 313.9 7.18033C314.2 7.30033 314.62 7.43033 315.15 7.58033C315.82 7.76033 316.36 7.94033 316.78 8.12033C317.2 8.30033 317.56 8.56033 317.86 8.91033C318.16 9.26033 318.32 9.72033 318.33 10.2903C318.33 10.8003 318.19 11.2603 317.91 11.6703C317.63 12.0803 317.23 12.4003 316.71 12.6303C316.19 12.8603 315.6 12.9803 314.93 12.9803C314.22 12.9803 313.58 12.8603 313.01 12.6103L313 12.5903Z" fill="#A6A6A6"/>
<path d="M78.29 48.8799V58.1999H88.45V61.1999H78.29V70.7999H89.65V73.7999H74.65V45.8799H89.65V48.8799H78.29Z" fill="white"/>
<path d="M99.07 73.1001C97.62 72.4501 96.48 71.5401 95.65 70.3801C94.82 69.2201 94.4 67.8801 94.37 66.3601H98.25C98.38 67.6701 98.92 68.7701 99.87 69.6601C100.82 70.5501 102.2 71.0001 104.01 71.0001C105.82 71.0001 107.11 70.5701 108.11 69.7001C109.11 68.8301 109.61 67.7201 109.61 66.3601C109.61 65.2901 109.32 64.4301 108.73 63.7601C108.14 63.0901 107.41 62.5901 106.53 62.2401C105.65 61.8901 104.46 61.5201 102.97 61.1201C101.13 60.6401 99.66 60.1601 98.55 59.6801C97.44 59.2001 96.5 58.4501 95.71 57.4201C94.92 56.3901 94.53 55.0101 94.53 53.2801C94.53 51.7601 94.92 50.4101 95.69 49.2401C96.46 48.0701 97.55 47.1601 98.95 46.5201C100.35 45.8801 101.96 45.5601 103.77 45.5601C106.38 45.5601 108.52 46.2101 110.19 47.5201C111.86 48.8301 112.8 50.5601 113.01 52.7201H109.01C108.88 51.6501 108.32 50.7101 107.33 49.9001C106.34 49.0901 105.04 48.6801 103.41 48.6801C101.89 48.6801 100.65 49.0701 99.69 49.8601C98.73 50.6501 98.25 51.7501 98.25 53.1601C98.25 54.1701 98.54 55.0001 99.11 55.6401C99.68 56.2801 100.39 56.7701 101.23 57.1001C102.07 57.4301 103.25 57.8101 104.77 58.2401C106.61 58.7501 108.09 59.2501 109.21 59.7401C110.33 60.2301 111.29 60.9901 112.09 62.0201C112.89 63.0501 113.29 64.4401 113.29 66.2001C113.29 67.5601 112.93 68.8401 112.21 70.0401C111.49 71.2401 110.42 72.2101 109.01 72.9601C107.6 73.7101 105.93 74.0801 104.01 74.0801C102.09 74.0801 100.52 73.7501 99.07 73.1001Z" fill="white"/>
<path d="M119.13 52.5001C120.36 50.3301 122.03 48.6301 124.15 47.4001C126.27 46.1701 128.62 45.5601 131.21 45.5601C134.25 45.5601 136.9 46.2901 139.17 47.7601C141.44 49.2301 143.09 51.3101 144.13 54.0001H139.77C139 52.3201 137.88 51.0301 136.43 50.1201C134.98 49.2101 133.24 48.7601 131.21 48.7601C129.18 48.7601 127.52 49.2101 125.97 50.1201C124.42 51.0301 123.21 52.3101 122.33 53.9801C121.45 55.6501 121.01 57.6001 121.01 59.8401C121.01 62.0801 121.45 63.9901 122.33 65.6601C123.21 67.3301 124.42 68.6101 125.97 69.5201C127.52 70.4301 129.26 70.8801 131.21 70.8801C133.16 70.8801 134.98 70.4301 136.43 69.5401C137.88 68.6501 139 67.3601 139.77 65.6801H144.13C143.09 68.3501 141.44 70.4101 139.17 71.8601C136.9 73.3101 134.25 74.0401 131.21 74.0401C128.62 74.0401 126.27 73.4301 124.15 72.2201C122.03 71.0101 120.36 69.3201 119.13 67.1601C117.9 65.0001 117.29 62.5601 117.29 59.8401C117.29 57.1201 117.9 54.6701 119.13 52.5001Z" fill="white"/>
<path d="M155.09 72.2601C152.96 71.0501 151.27 69.3501 150.03 67.1801C148.79 65.0101 148.17 62.5601 148.17 59.8401C148.17 57.1201 148.79 54.6701 150.03 52.5001C151.27 50.3301 152.96 48.6301 155.09 47.4201C157.22 46.2101 159.58 45.6001 162.17 45.6001C164.76 45.6001 167.16 46.2101 169.29 47.4201C171.42 48.6301 173.1 50.3201 174.33 52.4801C175.56 54.6401 176.17 57.0901 176.17 59.8401C176.17 62.5901 175.56 65.0401 174.33 67.2001C173.1 69.3601 171.42 71.0501 169.29 72.2601C167.16 73.4701 164.78 74.0801 162.17 74.0801C159.56 74.0801 157.22 73.4701 155.09 72.2601ZM167.43 69.5601C168.99 68.6501 170.22 67.3601 171.11 65.6801C172 64.0001 172.45 62.0501 172.45 59.8401C172.45 57.6301 172 55.6501 171.11 53.9801C170.22 52.3101 169 51.0301 167.45 50.1201C165.9 49.2101 164.14 48.7601 162.17 48.7601C160.2 48.7601 158.44 49.2101 156.89 50.1201C155.34 51.0301 154.12 52.3101 153.23 53.9801C152.34 55.6501 151.89 57.6001 151.89 59.8401C151.89 62.0801 152.34 64.0001 153.23 65.6801C154.12 67.3601 155.35 68.6501 156.91 69.5601C158.47 70.4701 160.22 70.9201 162.17 70.9201C164.12 70.9201 165.87 70.4701 167.43 69.5601Z" fill="white"/>
<path d="M184.61 70.8399H194.37V73.7999H180.97V45.9199H184.61V70.8399Z" fill="white"/>
<path d="M219.73 45.9199V73.7999H216.09V61.1599H201.89V73.7999H198.25V45.9199H201.89V58.1599H216.09V45.9199H219.73Z" fill="white"/>
<path d="M242.41 67.6001H230.25L228.01 73.8001H224.17L234.25 46.0801H238.45L248.49 73.8001H244.65L242.41 67.6001ZM241.37 64.6401L236.33 50.5601L231.29 64.6401H241.37Z" fill="white"/>
<path d="M269.13 72.2601C267 71.0501 265.31 69.3501 264.07 67.1801C262.83 65.0101 262.21 62.5601 262.21 59.8401C262.21 57.1201 262.83 54.6701 264.07 52.5001C265.31 50.3301 267 48.6301 269.13 47.4201C271.26 46.2101 273.62 45.6001 276.21 45.6001C278.8 45.6001 281.2 46.2101 283.33 47.4201C285.46 48.6301 287.14 50.3201 288.37 52.4801C289.6 54.6401 290.21 57.0901 290.21 59.8401C290.21 62.5901 289.6 65.0401 288.37 67.2001C287.14 69.3601 285.46 71.0501 283.33 72.2601C281.2 73.4701 278.82 74.0801 276.21 74.0801C273.6 74.0801 271.26 73.4701 269.13 72.2601ZM281.47 69.5601C283.03 68.6501 284.26 67.3601 285.15 65.6801C286.04 64.0001 286.49 62.0501 286.49 59.8401C286.49 57.6301 286.04 55.6501 285.15 53.9801C284.26 52.3101 283.04 51.0301 281.49 50.1201C279.94 49.2101 278.18 48.7601 276.21 48.7601C274.24 48.7601 272.48 49.2101 270.93 50.1201C269.38 51.0301 268.16 52.3101 267.27 53.9801C266.38 55.6501 265.93 57.6001 265.93 59.8401C265.93 62.0801 266.38 64.0001 267.27 65.6801C268.16 67.3601 269.39 68.6501 270.95 69.5601C272.51 70.4701 274.26 70.9201 276.21 70.9201C278.16 70.9201 279.91 70.4701 281.47 69.5601Z" fill="white"/>
<path d="M320.37 73.7999L313.73 62.3999H309.33V73.7999H305.69V45.9199H314.69C316.8 45.9199 318.58 46.2799 320.03 46.9999C321.48 47.7199 322.57 48.6899 323.29 49.9199C324.01 51.1499 324.37 52.5499 324.37 54.1199C324.37 56.0399 323.82 57.7299 322.71 59.1999C321.6 60.6699 319.94 61.6399 317.73 62.1199L324.73 73.7999H320.37ZM309.33 59.4799H314.69C316.66 59.4799 318.14 58.9899 319.13 58.0199C320.12 57.0499 320.61 55.7499 320.61 54.1199C320.61 52.4899 320.12 51.1899 319.15 50.2799C318.18 49.3699 316.69 48.9199 314.69 48.9199H309.33V59.4799Z" fill="white"/>
<path d="M333.65 48.8799V58.1999H343.81V61.1999H333.65V70.7999H345.01V73.7999H330.01V45.8799H345.01V48.8799H333.65Z" fill="white"/>
<path d="M351.01 52.5001C352.24 50.3301 353.91 48.6301 356.03 47.4001C358.15 46.1701 360.5 45.5601 363.09 45.5601C366.13 45.5601 368.78 46.2901 371.05 47.7601C373.32 49.2301 374.97 51.3101 376.01 54.0001H371.65C370.88 52.3201 369.76 51.0301 368.31 50.1201C366.86 49.2101 365.12 48.7601 363.09 48.7601C361.06 48.7601 359.4 49.2101 357.85 50.1201C356.3 51.0301 355.09 52.3101 354.21 53.9801C353.33 55.6501 352.89 57.6001 352.89 59.8401C352.89 62.0801 353.33 63.9901 354.21 65.6601C355.09 67.3301 356.3 68.6101 357.85 69.5201C359.4 70.4301 361.14 70.8801 363.09 70.8801C365.04 70.8801 366.86 70.4301 368.31 69.5401C369.76 68.6501 370.88 67.3601 371.65 65.6801H376.01C374.97 68.3501 373.32 70.4101 371.05 71.8601C368.78 73.3101 366.13 74.0401 363.09 74.0401C360.5 74.0401 358.15 73.4301 356.03 72.2201C353.91 71.0101 352.24 69.3201 351.01 67.1601C349.78 65.0001 349.17 62.5601 349.17 59.8401C349.17 57.1201 349.78 54.6701 351.01 52.5001Z" fill="white"/>
<path d="M386.97 72.2601C384.84 71.0501 383.15 69.3501 381.91 67.1801C380.67 65.0101 380.05 62.5601 380.05 59.8401C380.05 57.1201 380.67 54.6701 381.91 52.5001C383.15 50.3301 384.84 48.6301 386.97 47.4201C389.1 46.2101 391.46 45.6001 394.05 45.6001C396.64 45.6001 399.04 46.2101 401.17 47.4201C403.3 48.6301 404.98 50.3201 406.21 52.4801C407.44 54.6401 408.05 57.0901 408.05 59.8401C408.05 62.5901 407.44 65.0401 406.21 67.2001C404.98 69.3601 403.3 71.0501 401.17 72.2601C399.04 73.4701 396.66 74.0801 394.05 74.0801C391.44 74.0801 389.1 73.4701 386.97 72.2601ZM399.31 69.5601C400.87 68.6501 402.1 67.3601 402.99 65.6801C403.88 64.0001 404.33 62.0501 404.33 59.8401C404.33 57.6301 403.88 55.6501 402.99 53.9801C402.1 52.3101 400.88 51.0301 399.33 50.1201C397.78 49.2101 396.02 48.7601 394.05 48.7601C392.08 48.7601 390.32 49.2101 388.77 50.1201C387.22 51.0301 386 52.3101 385.11 53.9801C384.22 55.6501 383.77 57.6001 383.77 59.8401C383.77 62.0801 384.22 64.0001 385.11 65.6801C386 67.3601 387.23 68.6501 388.79 69.5601C390.35 70.4701 392.1 70.9201 394.05 70.9201C396 70.9201 397.75 70.4701 399.31 69.5601Z" fill="white"/>
<path d="M427.53 73.7999L420.89 62.3999H416.49V73.7999H412.85V45.9199H421.85C423.96 45.9199 425.74 46.2799 427.19 46.9999C428.64 47.7199 429.73 48.6899 430.45 49.9199C431.17 51.1499 431.53 52.5499 431.53 54.1199C431.53 56.0399 430.98 57.7299 429.87 59.1999C428.76 60.6699 427.1 61.6399 424.89 62.1199L431.89 73.7999H427.53ZM416.49 59.4799H421.85C423.82 59.4799 425.3 58.9899 426.29 58.0199C427.28 57.0499 427.77 55.7499 427.77 54.1199C427.77 52.4899 427.28 51.1899 426.31 50.2799C425.34 49.3699 423.85 48.9199 421.85 48.9199H416.49V59.4799Z" fill="white"/>
<path d="M454.33 45.9199V48.8799H446.73V73.7999H443.09V48.8799H435.45V45.9199H454.33Z" fill="white"/>
<path d="M462.45 48.8799V58.1999H472.61V61.1999H462.45V70.7999H473.81V73.7999H458.81V45.8799H473.81V48.8799H462.45Z" fill="white"/>
</svg>
