<svg width="543" height="97" viewBox="0 0 543 97" fill="none" xmlns="http://www.w3.org/2000/svg">
<path d="M513.16 26.3701H30.61C14.1464 26.3701 0.800049 39.7165 0.800049 56.1801V66.5601C0.800049 83.0237 14.1464 96.3701 30.61 96.3701H513.16C529.624 96.3701 542.97 83.0237 542.97 66.5601V56.1801C542.97 39.7165 529.624 26.3701 513.16 26.3701Z" fill="#C0F2C3"/>
<path d="M34.43 53.72V61.88H44.03V65.6H34.43V74.12H45.23V77.84H29.87V50H45.23V53.72H34.43Z" fill="white"/>
<path d="M54.94 77.1402C53.45 76.4902 52.27 75.5602 51.42 74.3602C50.57 73.1602 50.14 71.7602 50.14 70.1602H55.02C55.13 71.3602 55.6 72.3502 56.44 73.1202C57.28 73.8902 58.46 74.2802 59.98 74.2802C61.5 74.2802 62.78 73.9002 63.66 73.1402C64.54 72.3802 64.98 71.4002 64.98 70.2002C64.98 69.2702 64.71 68.5102 64.16 67.9202C63.61 67.3302 62.93 66.8802 62.12 66.5602C61.31 66.2402 60.18 65.8902 58.74 65.5202C56.93 65.0402 55.45 64.5502 54.32 64.0602C53.19 63.5702 52.22 62.8002 51.42 61.7602C50.62 60.7202 50.22 59.3302 50.22 57.6002C50.22 56.0002 50.62 54.6002 51.42 53.4002C52.22 52.2002 53.34 51.2802 54.78 50.6402C56.22 50.0002 57.89 49.6802 59.78 49.6802C62.47 49.6802 64.68 50.3502 66.4 51.7002C68.12 53.0502 69.07 54.8902 69.26 57.2402H64.22C64.14 56.2302 63.66 55.3602 62.78 54.6402C61.9 53.9202 60.74 53.5602 59.3 53.5602C57.99 53.5602 56.93 53.8902 56.1 54.5602C55.27 55.2302 54.86 56.1902 54.86 57.4402C54.86 58.2902 55.12 58.9902 55.64 59.5402C56.16 60.0902 56.82 60.5202 57.62 60.8402C58.42 61.1602 59.51 61.5102 60.9 61.8802C62.74 62.3902 64.24 62.8902 65.4 63.4002C66.56 63.9102 67.55 64.6902 68.36 65.7402C69.17 66.7902 69.58 68.2002 69.58 69.9602C69.58 71.3702 69.2 72.7102 68.44 73.9602C67.68 75.2102 66.57 76.2202 65.12 76.9802C63.67 77.7402 61.95 78.1202 59.98 78.1202C58.11 78.1202 56.43 77.7902 54.94 77.1402Z" fill="white"/>
<path d="M75.36 56.5602C76.63 54.4002 78.35 52.7102 80.52 51.5002C82.69 50.2902 85.07 49.6802 87.66 49.6802C90.62 49.6802 93.25 50.4102 95.56 51.8602C97.87 53.3102 99.54 55.3702 100.58 58.0402H95.1C94.38 56.5702 93.38 55.4802 92.1 54.7602C90.82 54.0402 89.34 53.6802 87.66 53.6802C85.82 53.6802 84.18 54.0902 82.74 54.9202C81.3 55.7502 80.17 56.9302 79.36 58.4802C78.55 60.0302 78.14 61.8302 78.14 63.8802C78.14 65.9302 78.55 67.7302 79.36 69.2802C80.17 70.8302 81.3 72.0202 82.74 72.8602C84.18 73.7002 85.82 74.1202 87.66 74.1202C89.34 74.1202 90.82 73.7602 92.1 73.0402C93.38 72.3202 94.38 71.2302 95.1 69.7602H100.58C99.54 72.4302 97.87 74.4802 95.56 75.9202C93.25 77.3602 90.62 78.0802 87.66 78.0802C85.05 78.0802 82.66 77.4702 80.5 76.2602C78.34 75.0502 76.63 73.3602 75.36 71.2002C74.09 69.0402 73.46 66.6002 73.46 63.8802C73.46 61.1602 74.09 58.7202 75.36 56.5602Z" fill="white"/>
<path d="M111.44 76.3002C109.27 75.0902 107.55 73.3902 106.28 71.2202C105.01 69.0502 104.38 66.6002 104.38 63.8802C104.38 61.1602 105.01 58.7202 106.28 56.5602C107.55 54.4002 109.27 52.7102 111.44 51.5002C113.61 50.2902 115.99 49.6802 118.58 49.6802C121.17 49.6802 123.59 50.2902 125.76 51.5002C127.93 52.7102 129.65 54.4002 130.9 56.5602C132.15 58.7202 132.78 61.1602 132.78 63.8802C132.78 66.6002 132.15 69.0502 130.9 71.2202C129.65 73.3902 127.93 75.0902 125.76 76.3002C123.59 77.5102 121.19 78.1202 118.58 78.1202C115.97 78.1202 113.61 77.5102 111.44 76.3002ZM123.5 72.9002C124.94 72.0602 126.07 70.8602 126.88 69.3002C127.69 67.7402 128.1 65.9302 128.1 63.8802C128.1 61.8302 127.69 60.0302 126.88 58.4802C126.07 56.9302 124.94 55.7502 123.5 54.9202C122.06 54.0902 120.42 53.6802 118.58 53.6802C116.74 53.6802 115.1 54.0902 113.66 54.9202C112.22 55.7502 111.09 56.9302 110.28 58.4802C109.47 60.0302 109.06 61.8302 109.06 63.8802C109.06 65.9302 109.47 67.7402 110.28 69.3002C111.09 70.8602 112.22 72.0602 113.66 72.9002C115.1 73.7402 116.74 74.1602 118.58 74.1602C120.42 74.1602 122.06 73.7402 123.5 72.9002Z" fill="white"/>
<path d="M141.82 74.1703H151.22V77.8503H137.26V50.0503H141.82V74.1703Z" fill="white"/>
<path d="M177.22 50.0503V77.8503H172.66V65.6903H159.58V77.8503H155.02V50.0503H159.58V61.9703H172.66V50.0503H177.22Z" fill="white"/>
<path d="M199.98 72.1702H188.34L186.34 77.8503H181.58L191.54 50.0103H196.82L206.78 77.8503H201.98L199.98 72.1702ZM198.7 68.4403L194.18 55.5202L189.62 68.4403H198.7Z" fill="white"/>
<path d="M226.02 50.0503V67.7703C226.02 69.8803 226.57 71.4603 227.68 72.5303C228.79 73.6003 230.33 74.1303 232.3 74.1303C234.27 74.1303 235.85 73.6003 236.96 72.5303C238.07 71.4603 238.62 69.8803 238.62 67.7703V50.0503H243.18V67.6903C243.18 69.9603 242.69 71.8803 241.7 73.4503C240.71 75.0203 239.39 76.2003 237.74 76.9703C236.09 77.7403 234.26 78.1303 232.26 78.1303C230.26 78.1303 228.44 77.7403 226.8 76.9703C225.16 76.2003 223.86 75.0203 222.9 73.4503C221.94 71.8803 221.46 69.9603 221.46 67.6903V50.0503H226.02Z" fill="white"/>
<path d="M278.38 50.0503V77.8503H273.82V58.8103L265.34 77.8503H262.18L253.66 58.8103V77.8503H249.1V50.0503H254.02L263.78 71.8503L273.5 50.0503H278.38Z" fill="white"/>
<path d="M301.14 72.1702H289.5L287.5 77.8503H282.74L292.7 50.0103H297.98L307.94 77.8503H303.14L301.14 72.1702ZM299.86 68.4403L295.34 55.5202L290.78 68.4403H299.86Z" fill="white"/>
<path d="M323.04 56.5602C324.31 54.4002 326.03 52.7102 328.2 51.5002C330.37 50.2902 332.75 49.6802 335.34 49.6802C338.3 49.6802 340.93 50.4102 343.24 51.8602C345.55 53.3102 347.22 55.3702 348.26 58.0402H342.78C342.06 56.5702 341.06 55.4802 339.78 54.7602C338.5 54.0402 337.02 53.6802 335.34 53.6802C333.5 53.6802 331.86 54.0902 330.42 54.9202C328.98 55.7502 327.85 56.9302 327.04 58.4802C326.23 60.0302 325.82 61.8302 325.82 63.8802C325.82 65.9302 326.23 67.7302 327.04 69.2802C327.85 70.8302 328.98 72.0202 330.42 72.8602C331.86 73.7002 333.5 74.1202 335.34 74.1202C337.02 74.1202 338.5 73.7602 339.78 73.0402C341.06 72.3202 342.06 71.2302 342.78 69.7602H348.26C347.22 72.4302 345.55 74.4802 343.24 75.9202C340.93 77.3602 338.3 78.0802 335.34 78.0802C332.73 78.0802 330.34 77.4702 328.18 76.2602C326.02 75.0502 324.31 73.3602 323.04 71.2002C321.77 69.0402 321.14 66.6002 321.14 63.8802C321.14 61.1602 321.77 58.7202 323.04 56.5602Z" fill="white"/>
<path d="M359.12 76.3002C356.95 75.0902 355.23 73.3902 353.96 71.2202C352.69 69.0502 352.06 66.6002 352.06 63.8802C352.06 61.1602 352.69 58.7202 353.96 56.5602C355.23 54.4002 356.95 52.7102 359.12 51.5002C361.29 50.2902 363.67 49.6802 366.26 49.6802C368.85 49.6802 371.27 50.2902 373.44 51.5002C375.61 52.7102 377.33 54.4002 378.58 56.5602C379.83 58.7202 380.46 61.1602 380.46 63.8802C380.46 66.6002 379.83 69.0502 378.58 71.2202C377.33 73.3902 375.61 75.0902 373.44 76.3002C371.27 77.5102 368.87 78.1202 366.26 78.1202C363.65 78.1202 361.29 77.5102 359.12 76.3002ZM371.18 72.9002C372.62 72.0602 373.75 70.8602 374.56 69.3002C375.37 67.7402 375.78 65.9302 375.78 63.8802C375.78 61.8302 375.37 60.0302 374.56 58.4802C373.75 56.9302 372.62 55.7502 371.18 54.9202C369.74 54.0902 368.1 53.6802 366.26 53.6802C364.42 53.6802 362.78 54.0902 361.34 54.9202C359.9 55.7502 358.77 56.9302 357.96 58.4802C357.15 60.0302 356.74 61.8302 356.74 63.8802C356.74 65.9302 357.15 67.7402 357.96 69.3002C358.77 70.8602 359.9 72.0602 361.34 72.9002C362.78 73.7402 364.42 74.1602 366.26 74.1602C368.1 74.1602 369.74 73.7402 371.18 72.9002Z" fill="white"/>
<path d="M389.5 74.1703H398.9V77.8503H384.94V50.0503H389.5V74.1703Z" fill="white"/>
<path d="M419.46 72.1702H407.82L405.82 77.8503H401.06L411.02 50.0103H416.3L426.26 77.8503H421.46L419.46 72.1702ZM418.18 68.4403L413.66 55.5202L409.1 68.4403H418.18Z" fill="white"/>
<path d="M450.7 58.0499C449.98 56.6599 448.98 55.6199 447.7 54.9099C446.42 54.1999 444.94 53.8499 443.26 53.8499C441.42 53.8499 439.78 54.2599 438.34 55.0899C436.9 55.9199 435.77 57.0899 434.96 58.6099C434.15 60.1299 433.74 61.8899 433.74 63.8899C433.74 65.8899 434.15 67.6599 434.96 69.1899C435.77 70.7199 436.9 71.8999 438.34 72.7299C439.78 73.5599 441.42 73.9699 443.26 73.9699C445.74 73.9699 447.75 73.2799 449.3 71.8899C450.85 70.4999 451.79 68.6199 452.14 66.2499H441.7V62.6099H457.02V66.1699C456.73 68.3299 455.96 70.3199 454.72 72.1299C453.48 73.9399 451.87 75.3899 449.88 76.4699C447.89 77.5499 445.69 78.0899 443.26 78.0899C440.65 78.0899 438.26 77.4799 436.1 76.2699C433.94 75.0599 432.23 73.3699 430.96 71.2099C429.69 69.0499 429.06 66.6099 429.06 63.8899C429.06 61.1699 429.69 58.7299 430.96 56.5699C432.23 54.4099 433.95 52.7199 436.12 51.5099C438.29 50.2999 440.67 49.6899 443.26 49.6899C446.22 49.6899 448.85 50.4199 451.16 51.8699C453.47 53.3199 455.14 55.3799 456.18 58.0499H450.7Z" fill="white"/>
<path d="M466.06 53.72V61.88H475.66V65.6H466.06V74.12H476.86V77.84H461.5V50H476.86V53.72H466.06Z" fill="white"/>
<path d="M511.74 50.0503V77.8503H507.18V58.8103L498.7 77.8503H495.54L487.02 58.8103V77.8503H482.46V50.0503H487.38L497.14 71.8503L506.86 50.0503H511.74Z" fill="white"/>
<path d="M224.32 4.23006C224.86 3.31006 225.59 2.60006 226.51 2.08006C227.43 1.56006 228.45 1.31006 229.54 1.31006C230.8 1.31006 231.92 1.62006 232.9 2.24006C233.88 2.86006 234.59 3.73006 235.03 4.87006H232.7C232.39 4.25006 231.97 3.78006 231.43 3.48006C230.89 3.17006 230.26 3.02006 229.54 3.02006C228.76 3.02006 228.06 3.20006 227.45 3.55006C226.84 3.90006 226.36 4.41006 226.01 5.06006C225.66 5.71006 225.49 6.48006 225.49 7.35006C225.49 8.22006 225.66 8.99006 226.01 9.64006C226.36 10.2901 226.83 10.8001 227.45 11.1601C228.06 11.5201 228.76 11.7001 229.54 11.7001C230.25 11.7001 230.88 11.5501 231.43 11.2401C231.98 10.9301 232.4 10.4701 232.7 9.85006H235.03C234.59 10.9801 233.88 11.8601 232.9 12.4701C231.92 13.0801 230.8 13.3901 229.54 13.3901C228.43 13.3901 227.42 13.1301 226.5 12.6201C225.58 12.1001 224.85 11.3901 224.32 10.4701C223.78 9.55006 223.51 8.51006 223.51 7.36006C223.51 6.21006 223.78 5.17006 224.32 4.25006V4.23006Z" fill="#A6A6A6"/>
<path d="M238.96 12.8198C238.25 12.4198 237.69 11.8498 237.28 11.1198C236.87 10.3898 236.67 9.53977 236.67 8.57977C236.67 7.61977 236.88 6.77977 237.3 6.04977C237.72 5.30977 238.29 4.74977 239.02 4.34977C239.75 3.94977 240.56 3.75977 241.45 3.75977C242.34 3.75977 243.16 3.95977 243.88 4.34977C244.61 4.74977 245.18 5.30977 245.6 6.04977C246.02 6.78977 246.23 7.62977 246.23 8.57977C246.23 9.52977 246.01 10.3798 245.58 11.1098C245.15 11.8498 244.56 12.4198 243.82 12.8198C243.08 13.2198 242.26 13.4198 241.36 13.4198C240.46 13.4198 239.68 13.2198 238.96 12.8198ZM242.76 11.3898C243.2 11.1498 243.55 10.7898 243.82 10.3198C244.09 9.84977 244.23 9.26977 244.23 8.58977C244.23 7.90977 244.1 7.33977 243.84 6.85977C243.58 6.38977 243.23 6.03977 242.8 5.79977C242.37 5.55977 241.9 5.43977 241.41 5.43977C240.92 5.43977 240.45 5.55977 240.02 5.79977C239.6 6.03977 239.26 6.38977 239.01 6.85977C238.76 7.32977 238.64 7.90977 238.64 8.58977C238.64 9.59977 238.9 10.3798 239.41 10.9298C239.93 11.4798 240.57 11.7498 241.36 11.7498C241.86 11.7498 242.33 11.6298 242.76 11.3898Z" fill="#A6A6A6"/>
<path d="M250.08 0.689941V13.2699H248.14V0.689941H250.08Z" fill="#A6A6A6"/>
<path d="M252.57 6.04977C252.96 5.31977 253.49 4.75977 254.17 4.35977C254.84 3.95977 255.59 3.75977 256.41 3.75977C257.15 3.75977 257.79 3.89977 258.34 4.18977C258.89 4.47977 259.33 4.83977 259.66 5.26977V3.90977H261.62V13.2798H259.66V11.8898C259.33 12.3298 258.88 12.6998 258.32 12.9898C257.76 13.2798 257.11 13.4298 256.38 13.4298C255.58 13.4298 254.84 13.2198 254.17 12.8098C253.5 12.3998 252.97 11.8198 252.58 11.0798C252.19 10.3398 251.99 9.49977 251.99 8.55977C251.99 7.61977 252.19 6.78977 252.58 6.05977L252.57 6.04977ZM259.25 6.89977C258.98 6.41977 258.64 6.05977 258.2 5.80977C257.77 5.55977 257.3 5.43977 256.81 5.43977C256.32 5.43977 255.85 5.55977 255.42 5.80977C254.99 6.04977 254.64 6.40977 254.37 6.87977C254.1 7.34977 253.97 7.90977 253.97 8.54977C253.97 9.18977 254.1 9.75977 254.37 10.2498C254.64 10.7398 254.99 11.1098 255.42 11.3598C255.86 11.6098 256.32 11.7398 256.81 11.7398C257.3 11.7398 257.77 11.6198 258.2 11.3698C258.63 11.1198 258.98 10.7598 259.25 10.2698C259.52 9.78977 259.65 9.22977 259.65 8.57977C259.65 7.92977 259.52 7.36977 259.25 6.89977Z" fill="#A6A6A6"/>
<path d="M269.86 4.18979C270.42 4.47978 270.86 4.83979 271.18 5.26979V3.90979H273.14V13.4298C273.14 14.2898 272.96 15.0598 272.6 15.7298C272.24 16.3998 271.71 16.9298 271.03 17.3198C270.34 17.7098 269.53 17.8998 268.57 17.8998C267.3 17.8998 266.25 17.5998 265.41 17.0098C264.57 16.4198 264.1 15.6098 263.98 14.5898H265.9C266.05 15.0798 266.36 15.4698 266.84 15.7698C267.32 16.0698 267.9 16.2198 268.57 16.2198C269.35 16.2198 269.98 15.9798 270.47 15.5098C270.95 15.0298 271.19 14.3398 271.19 13.4398V11.8798C270.86 12.3198 270.42 12.6898 269.86 12.9898C269.3 13.2898 268.66 13.4398 267.95 13.4398C267.13 13.4398 266.39 13.2298 265.71 12.8198C265.04 12.4098 264.5 11.8298 264.11 11.0898C263.72 10.3498 263.52 9.50979 263.52 8.56979C263.52 7.62979 263.72 6.79979 264.11 6.06979C264.5 5.33979 265.03 4.77979 265.71 4.37979C266.38 3.97979 267.13 3.77979 267.95 3.77979C268.68 3.77979 269.32 3.91979 269.88 4.20979L269.86 4.18979ZM270.78 6.89979C270.51 6.41979 270.17 6.05979 269.73 5.80979C269.3 5.55979 268.83 5.43979 268.34 5.43979C267.85 5.43979 267.38 5.55979 266.95 5.80979C266.52 6.04979 266.17 6.40979 265.9 6.87979C265.63 7.34979 265.5 7.90979 265.5 8.54979C265.5 9.18979 265.63 9.75979 265.9 10.2498C266.17 10.7398 266.52 11.1098 266.95 11.3598C267.39 11.6098 267.85 11.7398 268.34 11.7398C268.83 11.7398 269.3 11.6198 269.73 11.3698C270.16 11.1198 270.51 10.7598 270.78 10.2698C271.05 9.78979 271.18 9.22979 271.18 8.57979C271.18 7.92979 271.05 7.36979 270.78 6.89979Z" fill="#A6A6A6"/>
<path d="M284.2 9.31002H277.04C277.1 10.06 277.37 10.66 277.87 11.11C278.37 11.56 278.98 11.79 279.71 11.79C280.75 11.79 281.49 11.35 281.92 10.48H284.01C283.73 11.34 283.21 12.05 282.47 12.6C281.73 13.15 280.81 13.43 279.71 13.43C278.81 13.43 278.01 13.23 277.3 12.83C276.59 12.43 276.04 11.86 275.63 11.13C275.23 10.4 275.03 9.55002 275.03 8.59002C275.03 7.63002 275.23 6.78002 275.62 6.05002C276.01 5.32002 276.56 4.76002 277.27 4.36002C277.98 3.96002 278.79 3.77002 279.71 3.77002C280.63 3.77002 281.38 3.96002 282.07 4.35002C282.76 4.74002 283.3 5.28002 283.68 5.97002C284.07 6.67002 284.26 7.47002 284.26 8.38002C284.26 8.73002 284.24 9.05002 284.19 9.33002L284.2 9.31002ZM282.24 7.75002C282.23 7.04002 281.97 6.46002 281.48 6.03002C280.98 5.60002 280.36 5.38002 279.63 5.38002C278.96 5.38002 278.39 5.59002 277.91 6.02002C277.43 6.45002 277.15 7.02002 277.06 7.75002H282.24Z" fill="#A6A6A6"/>
<path d="M292.88 4.20977C293.46 4.51977 293.92 4.96977 294.25 5.56977C294.58 6.16977 294.74 6.89977 294.74 7.74977V13.2798H292.82V8.03977C292.82 7.19977 292.61 6.55977 292.19 6.10977C291.77 5.65977 291.2 5.43977 290.47 5.43977C289.74 5.43977 289.17 5.65977 288.74 6.10977C288.31 6.55977 288.1 7.19977 288.1 8.03977V13.2798H286.16V3.90977H288.1V4.97977C288.42 4.58977 288.82 4.28977 289.32 4.07977C289.81 3.86977 290.34 3.75977 290.89 3.75977C291.63 3.75977 292.29 3.90977 292.87 4.21977L292.88 4.20977Z" fill="#A6A6A6"/>
<path d="M298.62 13.0297C298.04 12.7597 297.57 12.3997 297.23 11.9397C296.89 11.4797 296.71 10.9697 296.69 10.3997H298.7C298.73 10.7997 298.92 11.1297 299.27 11.3897C299.62 11.6597 300.05 11.7897 300.57 11.7897C301.09 11.7897 301.54 11.6797 301.84 11.4697C302.14 11.2597 302.29 10.9897 302.29 10.6597C302.29 10.3097 302.12 10.0497 301.79 9.87975C301.46 9.70975 300.93 9.51974 300.2 9.31974C299.5 9.12974 298.92 8.93974 298.48 8.75974C298.04 8.57974 297.66 8.29974 297.33 7.92974C297 7.55974 296.85 7.05975 296.85 6.44975C296.85 5.94975 297 5.49975 297.29 5.07975C297.58 4.66975 298.01 4.33974 298.56 4.09974C299.11 3.85974 299.74 3.73975 300.46 3.73975C301.53 3.73975 302.38 4.00974 303.04 4.54974C303.69 5.08974 304.04 5.81974 304.09 6.74974H302.15C302.12 6.32974 301.95 5.99974 301.64 5.74974C301.33 5.49974 300.92 5.37975 300.4 5.37975C299.88 5.37975 299.5 5.47974 299.23 5.66974C298.96 5.85974 298.82 6.11974 298.82 6.42974C298.82 6.67974 298.91 6.88975 299.09 7.05975C299.27 7.22975 299.49 7.35974 299.75 7.45974C300.01 7.55974 300.4 7.67975 300.91 7.82975C301.59 8.00975 302.15 8.19975 302.58 8.37975C303.02 8.56975 303.39 8.83975 303.71 9.19975C304.03 9.55975 304.19 10.0397 304.2 10.6497C304.2 11.1797 304.05 11.6597 303.76 12.0797C303.47 12.4997 303.05 12.8297 302.51 13.0697C301.97 13.3097 301.34 13.4297 300.61 13.4297C299.88 13.4297 299.21 13.2997 298.63 13.0297H298.62Z" fill="#A6A6A6"/>
</svg>
