<svg width="276" height="35" viewBox="0 0 276 35" fill="none" xmlns="http://www.w3.org/2000/svg">
<path d="M7.55009 1.77002V3.35004H2.54008V6.84003H6.45009V8.42004H2.54008V13.59H0.600098V1.77002H7.55009Z" fill="#A6A6A6"/>
<path d="M9.29019 6.3598C9.68019 5.6298 10.2102 5.06983 10.8902 4.66983C11.5602 4.26983 12.3102 4.06982 13.1302 4.06982C13.8702 4.06982 14.5102 4.20982 15.0602 4.49982C15.6102 4.78982 16.0502 5.1498 16.3802 5.5798V4.21982H18.3402V13.5898H16.3802V12.1998C16.0502 12.6398 15.6002 13.0098 15.0402 13.2998C14.4702 13.5898 13.8302 13.7398 13.1002 13.7398C12.3002 13.7398 11.5602 13.5298 10.8902 13.1198C10.2202 12.7098 9.6902 12.1298 9.3002 11.3898C8.9102 10.6498 8.71021 9.80981 8.71021 8.86981C8.71021 7.92981 8.9102 7.09981 9.3002 6.36981L9.29019 6.3598ZM15.9702 7.20981C15.7002 6.72981 15.3502 6.36981 14.9202 6.11981C14.4902 5.86981 14.0302 5.74982 13.5302 5.74982C13.0302 5.74982 12.5702 5.86981 12.1402 6.11981C11.7102 6.35981 11.3602 6.71982 11.0902 7.18982C10.8202 7.65982 10.6902 8.2198 10.6902 8.8598C10.6902 9.4998 10.8202 10.0698 11.0902 10.5598C11.3602 11.0498 11.7102 11.4198 12.1402 11.6698C12.5802 11.9198 13.0402 12.0498 13.5302 12.0498C14.0202 12.0498 14.4902 11.9298 14.9202 11.6798C15.3502 11.4298 15.7002 11.0698 15.9702 10.5798C16.2402 10.0998 16.3702 9.53983 16.3702 8.88983C16.3702 8.23983 16.2402 7.67981 15.9702 7.20981Z" fill="#A6A6A6"/>
<path d="M27.05 10.6299H29.14C28.89 11.4899 28.45 12.1998 27.81 12.7498C27.17 13.2998 26.37 13.6198 25.4 13.7098V14.4099C26.06 14.4099 26.59 14.5699 27 14.8799C27.41 15.1899 27.61 15.6299 27.61 16.1999C27.61 16.7699 27.41 17.2198 27 17.5498C26.59 17.8798 26.08 18.0498 25.45 18.0498H23.21V16.8298H25.06C25.38 16.8298 25.61 16.7799 25.77 16.6898C25.93 16.5998 26.01 16.4399 26.01 16.1999C26.01 15.9599 25.93 15.7998 25.77 15.7098C25.61 15.6198 25.37 15.5699 25.06 15.5699H24.13V13.6999C23.36 13.6099 22.68 13.3498 22.09 12.9298C21.5 12.5098 21.04 11.9499 20.72 11.2599C20.4 10.5699 20.24 9.78985 20.24 8.90985C20.24 7.94985 20.44 7.09984 20.83 6.36984C21.22 5.63984 21.76 5.07984 22.45 4.67984C23.14 4.27984 23.93 4.08984 24.83 4.08984C25.96 4.08984 26.9 4.35984 27.64 4.89984C28.38 5.43984 28.88 6.20986 29.14 7.19986H27.05C26.88 6.73986 26.61 6.36983 26.23 6.10983C25.85 5.84983 25.39 5.71985 24.82 5.71985C24.03 5.71985 23.4 5.99985 22.92 6.55984C22.45 7.11984 22.21 7.90985 22.21 8.90985C22.21 9.90985 22.45 10.7098 22.92 11.2698C23.39 11.8398 24.02 12.1198 24.82 12.1198C25.94 12.1198 26.68 11.6299 27.05 10.6399V10.6299Z" fill="#A6A6A6"/>
<path d="M31.0202 6.3598C31.4102 5.6298 31.9402 5.06983 32.6202 4.66983C33.2902 4.26983 34.0402 4.06982 34.8602 4.06982C35.6002 4.06982 36.2402 4.20982 36.7902 4.49982C37.3402 4.78982 37.7802 5.1498 38.1102 5.5798V4.21982H40.0702V13.5898H38.1102V12.1998C37.7802 12.6398 37.3302 13.0098 36.7702 13.2998C36.2002 13.5898 35.5602 13.7398 34.8302 13.7398C34.0302 13.7398 33.2902 13.5298 32.6202 13.1198C31.9502 12.7098 31.4202 12.1298 31.0302 11.3898C30.6402 10.6498 30.4402 9.80981 30.4402 8.86981C30.4402 7.92981 30.6402 7.09981 31.0302 6.36981L31.0202 6.3598ZM37.7002 7.20981C37.4302 6.72981 37.0802 6.36981 36.6502 6.11981C36.2202 5.86981 35.7602 5.74982 35.2602 5.74982C34.7602 5.74982 34.3002 5.86981 33.8702 6.11981C33.4402 6.35981 33.0902 6.71982 32.8202 7.18982C32.5502 7.65982 32.4202 8.2198 32.4202 8.8598C32.4202 9.4998 32.5502 10.0698 32.8202 10.5598C33.0902 11.0498 33.4402 11.4198 33.8702 11.6698C34.3102 11.9198 34.7702 12.0498 35.2602 12.0498C35.7502 12.0498 36.2202 11.9298 36.6502 11.6798C37.0802 11.4298 37.4302 11.0698 37.7002 10.5798C37.9702 10.0998 38.1002 9.53983 38.1002 8.88983C38.1002 8.23983 37.9702 7.67981 37.7002 7.20981Z" fill="#A6A6A6"/>
<path d="M48.6902 13.1401C47.9802 12.7401 47.4101 12.1701 47.0101 11.4401C46.6001 10.7101 46.4001 9.86009 46.4001 8.90009C46.4001 7.94009 46.6102 7.10009 47.0302 6.37009C47.4502 5.63009 48.0202 5.0701 48.7502 4.6701C49.4702 4.2701 50.2901 4.08008 51.1801 4.08008C52.0701 4.08008 52.8902 4.2801 53.6102 4.6701C54.3402 5.0701 54.9102 5.63009 55.3302 6.37009C55.7502 7.11009 55.9602 7.95009 55.9602 8.90009C55.9602 9.85009 55.7402 10.7001 55.3102 11.4301C54.8801 12.1701 54.2902 12.7401 53.5502 13.1401C52.8102 13.5401 51.9901 13.7401 51.0901 13.7401C50.1901 13.7401 49.4102 13.5401 48.6902 13.1401ZM52.4902 11.7001C52.9302 11.4601 53.2802 11.1001 53.5502 10.6301C53.8202 10.1501 53.9602 9.58009 53.9602 8.90009C53.9602 8.22009 53.8302 7.6501 53.5702 7.1701C53.3102 6.7001 52.9602 6.35008 52.5302 6.11008C52.1002 5.87008 51.6302 5.75009 51.1402 5.75009C50.6502 5.75009 50.1801 5.87008 49.7601 6.11008C49.3301 6.35008 49.0002 6.7001 48.7502 7.1701C48.5002 7.64011 48.3802 8.22009 48.3802 8.90009C48.3802 9.91009 48.6401 10.6901 49.1501 11.2401C49.6601 11.7901 50.3102 12.0601 51.1002 12.0601C51.6002 12.0601 52.0702 11.9401 52.5002 11.7001H52.4902Z" fill="#A6A6A6"/>
<path d="M62.2301 6.35974C62.6201 5.62974 63.1501 5.06977 63.8301 4.66977C64.5001 4.26977 65.2501 4.06976 66.0801 4.06976C66.6901 4.06976 67.2901 4.19976 67.8901 4.46976C68.4801 4.73976 68.9601 5.08975 69.3101 5.52975V1.00977H71.2701V13.5898H69.3101V12.1797C68.9901 12.6297 68.5501 13.0097 67.9901 13.2997C67.4301 13.5897 66.7901 13.7397 66.0601 13.7397C65.2401 13.7397 64.5001 13.5298 63.8201 13.1198C63.1501 12.7098 62.6101 12.1298 62.2201 11.3898C61.8301 10.6498 61.6301 9.80975 61.6301 8.86975C61.6301 7.92975 61.8301 7.09975 62.2201 6.36975L62.2301 6.35974ZM68.9101 7.20975C68.6401 6.72975 68.2901 6.36975 67.8601 6.11975C67.4301 5.86975 66.9701 5.74976 66.4701 5.74976C65.9701 5.74976 65.5101 5.86975 65.0801 6.11975C64.6501 6.35975 64.3001 6.71976 64.0301 7.18976C63.7601 7.65976 63.6301 8.21974 63.6301 8.85974C63.6301 9.49974 63.7601 10.0698 64.0301 10.5598C64.3001 11.0498 64.6501 11.4198 65.0801 11.6698C65.5201 11.9198 65.9801 12.0497 66.4701 12.0497C66.9601 12.0497 67.4301 11.9297 67.8601 11.6797C68.2901 11.4297 68.6401 11.0697 68.9101 10.5797C69.1801 10.0997 69.3101 9.53977 69.3101 8.88977C69.3101 8.23977 69.1801 7.67975 68.9101 7.20975Z" fill="#A6A6A6"/>
<path d="M75.4802 13.1401C74.7702 12.7401 74.2002 12.1701 73.8002 11.4401C73.3902 10.7101 73.1902 9.86009 73.1902 8.90009C73.1902 7.94009 73.4002 7.10009 73.8202 6.37009C74.2402 5.63009 74.8102 5.0701 75.5402 4.6701C76.2602 4.2701 77.0802 4.08008 77.9702 4.08008C78.8602 4.08008 79.6802 4.2801 80.4002 4.6701C81.1302 5.0701 81.7002 5.63009 82.1202 6.37009C82.5402 7.11009 82.7502 7.95009 82.7502 8.90009C82.7502 9.85009 82.5302 10.7001 82.1002 11.4301C81.6702 12.1701 81.0802 12.7401 80.3402 13.1401C79.6002 13.5401 78.7802 13.7401 77.8802 13.7401C76.9802 13.7401 76.2002 13.5401 75.4802 13.1401ZM79.2802 11.7001C79.7202 11.4601 80.0702 11.1001 80.3402 10.6301C80.6102 10.1501 80.7502 9.58009 80.7502 8.90009C80.7502 8.22009 80.6202 7.6501 80.3602 7.1701C80.1002 6.7001 79.7502 6.35008 79.3202 6.11008C78.8902 5.87008 78.4202 5.75009 77.9302 5.75009C77.4402 5.75009 76.9702 5.87008 76.5502 6.11008C76.1202 6.35008 75.7902 6.7001 75.5402 7.1701C75.2902 7.64011 75.1702 8.22009 75.1702 8.90009C75.1702 9.91009 75.4302 10.6901 75.9402 11.2401C76.4502 11.7901 77.1002 12.0601 77.8902 12.0601C78.3902 12.0601 78.8602 11.9401 79.2902 11.7001H79.2802Z" fill="#A6A6A6"/>
<path d="M97.2401 4.22021L94.33 13.5902H92.29L90.4 6.67023L88.51 13.5902H86.47L83.55 4.22021H85.5201L87.48 11.7502L89.47 4.22021H91.4901L93.39 11.7202L95.33 4.22021H97.23H97.2401Z" fill="#A6A6A6"/>
<path d="M105.39 4.53009C105.97 4.84009 106.43 5.29011 106.76 5.89011C107.09 6.49011 107.25 7.2201 107.25 8.0701V13.6001H105.33V8.36008C105.33 7.52008 105.12 6.88008 104.7 6.43008C104.28 5.98008 103.71 5.7601 102.98 5.7601C102.25 5.7601 101.68 5.98008 101.25 6.43008C100.83 6.88008 100.61 7.52008 100.61 8.36008V13.6001H98.6702V4.2301H100.61V5.30008C100.93 4.91008 101.33 4.61009 101.83 4.40009C102.32 4.19009 102.85 4.08008 103.4 4.08008C104.14 4.08008 104.8 4.2301 105.38 4.5401L105.39 4.53009Z" fill="#A6A6A6"/>
<path d="M111.66 1.00977V13.5898H109.72V1.00977H111.66Z" fill="#A6A6A6"/>
<path d="M115.87 13.1401C115.16 12.7401 114.59 12.1701 114.19 11.4401C113.78 10.7101 113.58 9.86009 113.58 8.90009C113.58 7.94009 113.79 7.10009 114.21 6.37009C114.63 5.63009 115.2 5.0701 115.93 4.6701C116.65 4.2701 117.47 4.08008 118.36 4.08008C119.25 4.08008 120.07 4.2801 120.79 4.6701C121.52 5.0701 122.09 5.63009 122.51 6.37009C122.93 7.11009 123.14 7.95009 123.14 8.90009C123.14 9.85009 122.92 10.7001 122.49 11.4301C122.06 12.1701 121.47 12.7401 120.73 13.1401C119.99 13.5401 119.17 13.7401 118.27 13.7401C117.37 13.7401 116.59 13.5401 115.87 13.1401ZM119.67 11.7001C120.11 11.4601 120.46 11.1001 120.73 10.6301C121 10.1501 121.14 9.58009 121.14 8.90009C121.14 8.22009 121.01 7.6501 120.75 7.1701C120.49 6.7001 120.14 6.35008 119.71 6.11008C119.28 5.87008 118.81 5.75009 118.32 5.75009C117.83 5.75009 117.36 5.87008 116.94 6.11008C116.51 6.35008 116.18 6.7001 115.93 7.1701C115.68 7.64011 115.56 8.22009 115.56 8.90009C115.56 9.91009 115.82 10.6901 116.33 11.2401C116.84 11.7901 117.49 12.0601 118.28 12.0601C118.78 12.0601 119.25 11.9401 119.68 11.7001H119.67Z" fill="#A6A6A6"/>
<path d="M124.99 6.3598C125.38 5.6298 125.91 5.06983 126.59 4.66983C127.26 4.26983 128.01 4.06982 128.83 4.06982C129.57 4.06982 130.21 4.20982 130.76 4.49982C131.31 4.78982 131.75 5.1498 132.08 5.5798V4.21982H134.04V13.5898H132.08V12.1998C131.75 12.6398 131.3 13.0098 130.74 13.2998C130.17 13.5898 129.53 13.7398 128.8 13.7398C128 13.7398 127.26 13.5298 126.59 13.1198C125.92 12.7098 125.39 12.1298 125 11.3898C124.61 10.6498 124.41 9.80981 124.41 8.86981C124.41 7.92981 124.61 7.09981 125 6.36981L124.99 6.3598ZM131.67 7.20981C131.4 6.72981 131.05 6.36981 130.62 6.11981C130.19 5.86981 129.73 5.74982 129.23 5.74982C128.73 5.74982 128.27 5.86981 127.84 6.11981C127.41 6.35981 127.06 6.71982 126.79 7.18982C126.52 7.65982 126.39 8.2198 126.39 8.8598C126.39 9.4998 126.52 10.0698 126.79 10.5598C127.06 11.0498 127.41 11.4198 127.84 11.6698C128.28 11.9198 128.74 12.0498 129.23 12.0498C129.72 12.0498 130.19 11.9298 130.62 11.6798C131.05 11.4298 131.4 11.0698 131.67 10.5798C131.94 10.0998 132.07 9.53983 132.07 8.88983C132.07 8.23983 131.94 7.67981 131.67 7.20981Z" fill="#A6A6A6"/>
<path d="M136.52 6.35974C136.91 5.62974 137.44 5.06977 138.12 4.66977C138.79 4.26977 139.54 4.06976 140.37 4.06976C140.98 4.06976 141.58 4.19976 142.18 4.46976C142.77 4.73976 143.25 5.08975 143.6 5.52975V1.00977H145.56V13.5898H143.6V12.1797C143.28 12.6297 142.84 13.0097 142.28 13.2997C141.72 13.5897 141.08 13.7397 140.35 13.7397C139.53 13.7397 138.79 13.5298 138.11 13.1198C137.44 12.7098 136.9 12.1298 136.51 11.3898C136.12 10.6498 135.92 9.80975 135.92 8.86975C135.92 7.92975 136.12 7.09975 136.51 6.36975L136.52 6.35974ZM143.2 7.20975C142.93 6.72975 142.58 6.36975 142.15 6.11975C141.72 5.86975 141.26 5.74976 140.76 5.74976C140.26 5.74976 139.8 5.86975 139.37 6.11975C138.94 6.35975 138.59 6.71976 138.32 7.18976C138.05 7.65976 137.92 8.21974 137.92 8.85974C137.92 9.49974 138.05 10.0698 138.32 10.5598C138.59 11.0498 138.94 11.4198 139.37 11.6698C139.81 11.9198 140.27 12.0497 140.76 12.0497C141.25 12.0497 141.72 11.9297 142.15 11.6797C142.58 11.4297 142.93 11.0697 143.2 10.5797C143.47 10.0997 143.6 9.53977 143.6 8.88977C143.6 8.23977 143.47 7.67975 143.2 7.20975Z" fill="#A6A6A6"/>
<path d="M152.47 6.35974C152.86 5.62974 153.39 5.06977 154.07 4.66977C154.74 4.26977 155.49 4.06976 156.32 4.06976C156.93 4.06976 157.53 4.19976 158.13 4.46976C158.72 4.73976 159.2 5.08975 159.55 5.52975V1.00977H161.51V13.5898H159.55V12.1797C159.23 12.6297 158.79 13.0097 158.23 13.2997C157.67 13.5897 157.03 13.7397 156.3 13.7397C155.48 13.7397 154.74 13.5298 154.06 13.1198C153.39 12.7098 152.85 12.1298 152.46 11.3898C152.07 10.6498 151.87 9.80975 151.87 8.86975C151.87 7.92975 152.07 7.09975 152.46 6.36975L152.47 6.35974ZM159.15 7.20975C158.88 6.72975 158.53 6.36975 158.1 6.11975C157.67 5.86975 157.21 5.74976 156.71 5.74976C156.21 5.74976 155.75 5.86975 155.32 6.11975C154.89 6.35975 154.54 6.71976 154.27 7.18976C154 7.65976 153.87 8.21974 153.87 8.85974C153.87 9.49974 154 10.0698 154.27 10.5598C154.54 11.0498 154.89 11.4198 155.32 11.6698C155.76 11.9198 156.22 12.0497 156.71 12.0497C157.2 12.0497 157.67 11.9297 158.1 11.6797C158.53 11.4297 158.88 11.0697 159.15 10.5797C159.42 10.0997 159.55 9.53977 159.55 8.88977C159.55 8.23977 159.42 7.67975 159.15 7.20975Z" fill="#A6A6A6"/>
<path d="M172.57 9.62985H165.41C165.47 10.3799 165.74 10.9798 166.24 11.4298C166.74 11.8798 167.35 12.1098 168.08 12.1098C169.12 12.1098 169.86 11.6698 170.29 10.7998H172.38C172.1 11.6598 171.58 12.3699 170.84 12.9199C170.1 13.4699 169.18 13.7498 168.08 13.7498C167.18 13.7498 166.38 13.5498 165.67 13.1498C164.96 12.7498 164.41 12.1799 164 11.4499C163.6 10.7199 163.4 9.86985 163.4 8.90985C163.4 7.94985 163.6 7.09984 163.99 6.36984C164.38 5.63984 164.93 5.07984 165.64 4.67984C166.35 4.27984 167.16 4.08984 168.08 4.08984C169 4.08984 169.75 4.27986 170.44 4.66986C171.13 5.05986 171.67 5.59986 172.06 6.28986C172.44 6.98986 172.64 7.78986 172.64 8.69986C172.64 9.04986 172.62 9.36984 172.57 9.64984V9.62985ZM170.61 8.05984C170.6 7.34984 170.34 6.76984 169.85 6.33984C169.35 5.90984 168.73 5.68985 168 5.68985C167.33 5.68985 166.76 5.89983 166.28 6.32983C165.8 6.75983 165.52 7.32984 165.43 8.05984H170.61Z" fill="#A6A6A6"/>
<path d="M175.96 13.3398C175.38 13.0698 174.92 12.7098 174.57 12.2498C174.23 11.7898 174.05 11.2798 174.03 10.7098H176.04C176.07 11.1098 176.26 11.4398 176.61 11.6998C176.96 11.9698 177.39 12.0998 177.91 12.0998C178.43 12.0998 178.88 11.9898 179.18 11.7798C179.48 11.5698 179.63 11.2998 179.63 10.9698C179.63 10.6198 179.46 10.3598 179.13 10.1898C178.8 10.0198 178.27 9.82982 177.54 9.62982C176.84 9.43982 176.27 9.24982 175.82 9.06982C175.38 8.88982 175 8.60981 174.67 8.23981C174.34 7.86981 174.19 7.36983 174.19 6.75983C174.19 6.25983 174.34 5.80983 174.63 5.38983C174.92 4.97983 175.35 4.64982 175.9 4.40982C176.45 4.16982 177.08 4.0498 177.8 4.0498C178.86 4.0498 179.72 4.3198 180.38 4.8598C181.03 5.3998 181.38 6.12981 181.42 7.05981H179.48C179.45 6.63981 179.28 6.30981 178.97 6.05981C178.66 5.80981 178.25 5.68982 177.73 5.68982C177.21 5.68982 176.83 5.78983 176.56 5.97983C176.29 6.16983 176.15 6.42981 176.15 6.73981C176.15 6.98981 176.24 7.19981 176.42 7.36981C176.6 7.53981 176.82 7.66981 177.08 7.76981C177.34 7.86981 177.73 7.98983 178.24 8.13983C178.92 8.31983 179.48 8.50982 179.91 8.68982C180.35 8.87982 180.72 9.14983 181.04 9.50983C181.36 9.86983 181.52 10.3498 181.53 10.9598C181.53 11.4898 181.38 11.9698 181.09 12.3898C180.8 12.8098 180.38 13.1398 179.84 13.3798C179.3 13.6198 178.67 13.7398 177.94 13.7398C177.21 13.7398 176.54 13.6098 175.96 13.3398Z" fill="#A6A6A6"/>
<path d="M185.88 5.7999V10.9899C185.88 11.3399 185.96 11.5899 186.13 11.7499C186.29 11.8999 186.58 11.9799 186.97 11.9799H188.16V13.5999H186.63C185.76 13.5999 185.09 13.3999 184.62 12.9899C184.16 12.5799 183.92 11.9199 183.92 10.9999V5.80991H182.81V4.22992H183.92V1.8999H185.88V4.22992H188.16V5.80991H185.88V5.7999Z" fill="#A6A6A6"/>
<path d="M198.46 9.62985H191.3C191.36 10.3799 191.63 10.9798 192.13 11.4298C192.63 11.8798 193.24 12.1098 193.97 12.1098C195.01 12.1098 195.75 11.6698 196.18 10.7998H198.27C197.99 11.6598 197.47 12.3699 196.73 12.9199C195.99 13.4699 195.07 13.7498 193.97 13.7498C193.07 13.7498 192.27 13.5498 191.56 13.1498C190.85 12.7498 190.3 12.1799 189.89 11.4499C189.49 10.7199 189.29 9.86985 189.29 8.90985C189.29 7.94985 189.49 7.09984 189.88 6.36984C190.27 5.63984 190.82 5.07984 191.53 4.67984C192.24 4.27984 193.05 4.08984 193.97 4.08984C194.89 4.08984 195.64 4.27986 196.33 4.66986C197.02 5.05986 197.56 5.59986 197.95 6.28986C198.33 6.98986 198.53 7.78986 198.53 8.69986C198.53 9.04986 198.51 9.36984 198.46 9.64984V9.62985ZM196.5 8.05984C196.49 7.34984 196.23 6.76984 195.74 6.33984C195.24 5.90984 194.62 5.68985 193.89 5.68985C193.22 5.68985 192.65 5.89983 192.17 6.32983C191.69 6.75983 191.41 7.32984 191.32 8.05984H196.5Z" fill="#A6A6A6"/>
<path d="M218.17 4.53009C218.75 4.84009 219.21 5.29011 219.55 5.89011C219.88 6.49011 220.05 7.2201 220.05 8.0701V13.6001H218.13V8.36008C218.13 7.52008 217.92 6.88008 217.5 6.43008C217.08 5.98008 216.51 5.7601 215.78 5.7601C215.05 5.7601 214.48 5.98008 214.05 6.43008C213.63 6.88008 213.41 7.52008 213.41 8.36008V13.6001H211.49V8.36008C211.49 7.52008 211.28 6.88008 210.86 6.43008C210.44 5.98008 209.87 5.7601 209.14 5.7601C208.41 5.7601 207.84 5.98008 207.41 6.43008C206.99 6.88008 206.77 7.52008 206.77 8.36008V13.6001H204.83V4.2301H206.77V5.30008C207.09 4.91008 207.49 4.61009 207.98 4.40009C208.47 4.19009 208.99 4.08008 209.54 4.08008C210.29 4.08008 210.96 4.24009 211.55 4.56009C212.14 4.88009 212.59 5.34009 212.91 5.94009C213.19 5.37009 213.64 4.92009 214.24 4.59009C214.84 4.26009 215.49 4.09009 216.18 4.09009C216.92 4.09009 217.58 4.24008 218.16 4.55008L218.17 4.53009Z" fill="#A6A6A6"/>
<path d="M222.45 6.3598C222.84 5.6298 223.37 5.06983 224.05 4.66983C224.72 4.26983 225.47 4.06982 226.29 4.06982C227.03 4.06982 227.67 4.20982 228.22 4.49982C228.77 4.78982 229.21 5.1498 229.54 5.5798V4.21982H231.5V13.5898H229.54V12.1998C229.21 12.6398 228.76 13.0098 228.2 13.2998C227.63 13.5898 226.99 13.7398 226.26 13.7398C225.46 13.7398 224.72 13.5298 224.05 13.1198C223.38 12.7098 222.85 12.1298 222.46 11.3898C222.07 10.6498 221.87 9.80981 221.87 8.86981C221.87 7.92981 222.07 7.09981 222.46 6.36981L222.45 6.3598ZM229.13 7.20981C228.86 6.72981 228.51 6.36981 228.08 6.11981C227.65 5.86981 227.19 5.74982 226.69 5.74982C226.19 5.74982 225.73 5.86981 225.3 6.11981C224.87 6.35981 224.52 6.71982 224.25 7.18982C223.98 7.65982 223.85 8.2198 223.85 8.8598C223.85 9.4998 223.98 10.0698 224.25 10.5598C224.52 11.0498 224.87 11.4198 225.3 11.6698C225.74 11.9198 226.2 12.0498 226.69 12.0498C227.18 12.0498 227.65 11.9298 228.08 11.6798C228.51 11.4298 228.86 11.0698 229.13 10.5798C229.4 10.0998 229.53 9.53983 229.53 8.88983C229.53 8.23983 229.4 7.67981 229.13 7.20981Z" fill="#A6A6A6"/>
<path d="M236.3 5.7999V10.9899C236.3 11.3399 236.38 11.5899 236.55 11.7499C236.71 11.8999 237 11.9799 237.39 11.9799H238.58V13.5999H237.05C236.18 13.5999 235.51 13.3999 235.04 12.9899C234.58 12.5799 234.34 11.9199 234.34 10.9999V5.80991H233.23V4.22992H234.34V1.8999H236.3V4.22992H238.58V5.80991H236.3V5.7999Z" fill="#A6A6A6"/>
<path d="M248.88 9.62985H241.72C241.78 10.3799 242.05 10.9798 242.55 11.4298C243.05 11.8798 243.66 12.1098 244.39 12.1098C245.43 12.1098 246.17 11.6698 246.6 10.7998H248.69C248.41 11.6598 247.89 12.3699 247.15 12.9199C246.41 13.4699 245.49 13.7498 244.39 13.7498C243.49 13.7498 242.69 13.5498 241.98 13.1498C241.27 12.7498 240.72 12.1799 240.31 11.4499C239.91 10.7199 239.71 9.86985 239.71 8.90985C239.71 7.94985 239.91 7.09984 240.3 6.36984C240.69 5.63984 241.24 5.07984 241.95 4.67984C242.66 4.27984 243.47 4.08984 244.39 4.08984C245.31 4.08984 246.06 4.27986 246.75 4.66986C247.44 5.05986 247.98 5.59986 248.37 6.28986C248.75 6.98986 248.95 7.78986 248.95 8.69986C248.95 9.04986 248.93 9.36984 248.88 9.64984V9.62985ZM246.92 8.05984C246.91 7.34984 246.65 6.76984 246.16 6.33984C245.66 5.90984 245.04 5.68985 244.31 5.68985C243.64 5.68985 243.07 5.89983 242.59 6.32983C242.11 6.75983 241.83 7.32984 241.74 8.05984H246.92Z" fill="#A6A6A6"/>
<path d="M253.92 4.46982C254.39 4.19982 254.95 4.06982 255.59 4.06982V6.0798H255.1C254.34 6.0798 253.77 6.26982 253.37 6.65982C252.98 7.03982 252.78 7.70983 252.78 8.66983V13.5998H250.84V4.22983H252.78V5.58981C253.06 5.10981 253.44 4.73983 253.91 4.47983L253.92 4.46982Z" fill="#A6A6A6"/>
<path d="M257.48 2.62C257.24 2.38 257.12 2.08999 257.12 1.73999C257.12 1.38999 257.24 1.08999 257.48 0.859985C257.72 0.619985 258.01 0.5 258.36 0.5C258.71 0.5 258.99 0.619985 259.23 0.859985C259.47 1.09999 259.59 1.38999 259.59 1.73999C259.59 2.08999 259.47 2.39 259.23 2.62C258.99 2.85 258.7 2.98001 258.36 2.98001C258.02 2.98001 257.71 2.86 257.48 2.62ZM259.32 4.22V13.59H257.38V4.22H259.32Z" fill="#A6A6A6"/>
<path d="M261.81 6.3598C262.2 5.6298 262.73 5.06983 263.41 4.66983C264.08 4.26983 264.83 4.06982 265.65 4.06982C266.39 4.06982 267.03 4.20982 267.58 4.49982C268.13 4.78982 268.57 5.1498 268.9 5.5798V4.21982H270.86V13.5898H268.9V12.1998C268.57 12.6398 268.12 13.0098 267.56 13.2998C266.99 13.5898 266.35 13.7398 265.62 13.7398C264.82 13.7398 264.08 13.5298 263.41 13.1198C262.74 12.7098 262.21 12.1298 261.82 11.3898C261.43 10.6498 261.23 9.80981 261.23 8.86981C261.23 7.92981 261.43 7.09981 261.82 6.36981L261.81 6.3598ZM268.49 7.20981C268.22 6.72981 267.87 6.36981 267.44 6.11981C267.01 5.86981 266.55 5.74982 266.05 5.74982C265.55 5.74982 265.09 5.86981 264.66 6.11981C264.23 6.35981 263.88 6.71982 263.61 7.18982C263.34 7.65982 263.21 8.2198 263.21 8.8598C263.21 9.4998 263.34 10.0698 263.61 10.5598C263.88 11.0498 264.23 11.4198 264.66 11.6698C265.1 11.9198 265.56 12.0498 266.05 12.0498C266.54 12.0498 267.01 11.9298 267.44 11.6798C267.87 11.4298 268.22 11.0698 268.49 10.5798C268.76 10.0998 268.89 9.53983 268.89 8.88983C268.89 8.23983 268.76 7.67981 268.49 7.20981Z" fill="#A6A6A6"/>
<path d="M275.33 1.00977V13.5898H273.39V1.00977H275.33Z" fill="#A6A6A6"/>
<path d="M77.9301 26.76C78.3201 26.03 78.8601 25.47 79.5501 25.07C80.2401 24.67 81.0301 24.48 81.9301 24.48C83.0601 24.48 84.0001 24.75 84.7401 25.29C85.4801 25.83 85.9801 26.6 86.2401 27.59H84.1501C83.9801 27.13 83.7101 26.76 83.3301 26.5C82.9501 26.24 82.4901 26.11 81.9201 26.11C81.1301 26.11 80.5001 26.39 80.0201 26.95C79.5501 27.51 79.3101 28.3 79.3101 29.3C79.3101 30.3 79.5501 31.1 80.0201 31.66C80.4901 32.23 81.1201 32.51 81.9201 32.51C83.0401 32.51 83.7801 32.02 84.1501 31.03H86.2401C85.9701 31.98 85.4601 32.74 84.7101 33.3C83.9601 33.86 83.0301 34.14 81.9201 34.14C81.0201 34.14 80.2301 33.94 79.5401 33.54C78.8501 33.14 78.3101 32.57 77.9201 31.84C77.5301 31.11 77.3301 30.26 77.3301 29.3C77.3301 28.34 77.5301 27.49 77.9201 26.76H77.9301Z" fill="#A6A6A6"/>
<path d="M90.1302 21.4102V33.9901H88.1902V21.4102H90.1302Z" fill="#A6A6A6"/>
<path d="M92.7802 23.0199C92.5402 22.7799 92.4202 22.4899 92.4202 22.1399C92.4202 21.7899 92.5402 21.4899 92.7802 21.2599C93.0202 21.0199 93.3102 20.8999 93.6602 20.8999C94.0102 20.8999 94.2902 21.0199 94.5302 21.2599C94.7702 21.4999 94.8902 21.7899 94.8902 22.1399C94.8902 22.4899 94.7702 22.7899 94.5302 23.0199C94.2902 23.2499 94.0002 23.3799 93.6602 23.3799C93.3202 23.3799 93.0102 23.2599 92.7802 23.0199ZM94.6202 24.6199V33.9899H92.6802V24.6199H94.6202Z" fill="#A6A6A6"/>
<path d="M97.11 26.7602C97.5 26.0302 98.03 25.4702 98.71 25.0702C99.38 24.6702 100.13 24.4702 100.95 24.4702C101.69 24.4702 102.33 24.6102 102.88 24.9002C103.43 25.1902 103.87 25.5502 104.2 25.9802V24.6202H106.16V33.9902H104.2V32.6002C103.87 33.0402 103.42 33.4102 102.86 33.7002C102.29 33.9902 101.65 34.1402 100.92 34.1402C100.12 34.1402 99.38 33.9302 98.71 33.5202C98.04 33.1102 97.51 32.5302 97.12 31.7902C96.73 31.0502 96.53 30.2102 96.53 29.2702C96.53 28.3302 96.73 27.5002 97.12 26.7702L97.11 26.7602ZM103.79 27.6102C103.52 27.1302 103.17 26.7702 102.74 26.5202C102.31 26.2702 101.85 26.1502 101.35 26.1502C100.85 26.1502 100.39 26.2702 99.96 26.5202C99.53 26.7602 99.18 27.1202 98.91 27.5902C98.64 28.0602 98.51 28.6202 98.51 29.2602C98.51 29.9002 98.64 30.4702 98.91 30.9602C99.18 31.4502 99.53 31.8202 99.96 32.0702C100.4 32.3202 100.86 32.4502 101.35 32.4502C101.84 32.4502 102.31 32.3302 102.74 32.0802C103.17 31.8302 103.52 31.4702 103.79 30.9802C104.06 30.5002 104.19 29.9402 104.19 29.2902C104.19 28.6402 104.06 28.0802 103.79 27.6102Z" fill="#A6A6A6"/>
<path d="M115.4 24.93C115.98 25.24 116.44 25.69 116.77 26.29C117.1 26.89 117.26 27.62 117.26 28.47V34H115.34V28.76C115.34 27.92 115.13 27.28 114.71 26.83C114.29 26.38 113.72 26.16 112.99 26.16C112.26 26.16 111.69 26.38 111.26 26.83C110.84 27.28 110.62 27.92 110.62 28.76V34H108.68V24.63H110.62V25.7C110.94 25.31 111.34 25.01 111.84 24.8C112.33 24.59 112.86 24.48 113.41 24.48C114.15 24.48 114.81 24.63 115.39 24.94L115.4 24.93Z" fill="#A6A6A6"/>
<path d="M119.67 26.7602C120.06 26.0302 120.59 25.4702 121.27 25.0702C121.94 24.6702 122.69 24.4702 123.52 24.4702C124.13 24.4702 124.73 24.6001 125.33 24.8701C125.92 25.1401 126.4 25.4901 126.75 25.9301V21.4102H128.71V33.9901H126.75V32.5801C126.43 33.0301 125.99 33.4102 125.43 33.7002C124.87 33.9902 124.23 34.1402 123.5 34.1402C122.68 34.1402 121.94 33.9301 121.26 33.5201C120.59 33.1101 120.05 32.5302 119.66 31.7902C119.27 31.0502 119.07 30.2101 119.07 29.2701C119.07 28.3301 119.27 27.5001 119.66 26.7701L119.67 26.7602ZM126.35 27.6101C126.08 27.1301 125.73 26.7701 125.3 26.5201C124.87 26.2701 124.41 26.1501 123.91 26.1501C123.41 26.1501 122.95 26.2701 122.52 26.5201C122.09 26.7601 121.74 27.1201 121.47 27.5901C121.2 28.0601 121.07 28.6202 121.07 29.2602C121.07 29.9002 121.2 30.4701 121.47 30.9601C121.74 31.4501 122.09 31.8202 122.52 32.0702C122.96 32.3202 123.42 32.4502 123.91 32.4502C124.4 32.4502 124.87 32.3301 125.3 32.0801C125.73 31.8301 126.08 31.4702 126.35 30.9802C126.62 30.5002 126.75 29.9402 126.75 29.2902C126.75 28.6402 126.62 28.0801 126.35 27.6101Z" fill="#A6A6A6"/>
<path d="M132.92 33.54C132.21 33.14 131.64 32.57 131.24 31.84C130.83 31.11 130.63 30.26 130.63 29.3C130.63 28.34 130.84 27.5 131.26 26.77C131.68 26.03 132.25 25.47 132.98 25.07C133.7 24.67 134.52 24.48 135.41 24.48C136.3 24.48 137.12 24.68 137.84 25.07C138.57 25.47 139.14 26.03 139.56 26.77C139.98 27.51 140.19 28.35 140.19 29.3C140.19 30.25 139.97 31.1 139.54 31.83C139.11 32.57 138.52 33.14 137.78 33.54C137.04 33.94 136.22 34.14 135.32 34.14C134.42 34.14 133.64 33.94 132.92 33.54ZM136.71 32.1C137.15 31.86 137.5 31.5 137.77 31.03C138.04 30.55 138.18 29.98 138.18 29.3C138.18 28.62 138.05 28.05 137.79 27.57C137.53 27.1 137.18 26.75 136.75 26.51C136.32 26.27 135.85 26.15 135.36 26.15C134.87 26.15 134.4 26.27 133.98 26.51C133.55 26.75 133.22 27.1 132.97 27.57C132.72 28.04 132.6 28.62 132.6 29.3C132.6 30.31 132.86 31.09 133.37 31.64C133.88 32.19 134.53 32.46 135.32 32.46C135.82 32.46 136.29 32.34 136.72 32.1H136.71Z" fill="#A6A6A6"/>
<path d="M146.46 26.7602C146.85 26.0302 147.38 25.4702 148.06 25.0702C148.73 24.6702 149.48 24.4702 150.3 24.4702C151.04 24.4702 151.68 24.6102 152.23 24.9002C152.78 25.1902 153.22 25.5502 153.55 25.9802V24.6202H155.51V33.9902H153.55V32.6002C153.22 33.0402 152.77 33.4102 152.21 33.7002C151.64 33.9902 151 34.1402 150.27 34.1402C149.47 34.1402 148.73 33.9302 148.06 33.5202C147.39 33.1102 146.86 32.5302 146.47 31.7902C146.08 31.0502 145.88 30.2102 145.88 29.2702C145.88 28.3302 146.08 27.5002 146.47 26.7702L146.46 26.7602ZM153.14 27.6102C152.87 27.1302 152.52 26.7702 152.09 26.5202C151.66 26.2702 151.2 26.1502 150.7 26.1502C150.2 26.1502 149.74 26.2702 149.31 26.5202C148.88 26.7602 148.53 27.1202 148.26 27.5902C147.99 28.0602 147.86 28.6202 147.86 29.2602C147.86 29.9002 147.99 30.4702 148.26 30.9602C148.53 31.4502 148.88 31.8202 149.31 32.0702C149.75 32.3202 150.21 32.4502 150.7 32.4502C151.19 32.4502 151.66 32.3302 152.09 32.0802C152.52 31.8302 152.87 31.4702 153.14 30.9802C153.41 30.5002 153.54 29.9402 153.54 29.2902C153.54 28.6402 153.41 28.0802 153.14 27.6102Z" fill="#A6A6A6"/>
<path d="M161.33 24.9001C161.9 24.6101 162.54 24.4701 163.24 24.4701C164.07 24.4701 164.82 24.6701 165.48 25.0601C166.14 25.4501 166.68 26.0201 167.06 26.7501C167.45 27.4801 167.64 28.3201 167.64 29.2601C167.64 30.2001 167.45 31.0401 167.06 31.7801C166.68 32.5201 166.14 33.1001 165.47 33.5101C164.8 33.9201 164.05 34.1301 163.23 34.1301C162.51 34.1301 161.86 33.9901 161.3 33.7001C160.74 33.4201 160.29 33.0501 159.97 32.6101V33.9701H158.03V21.3901H159.97V26.0001C160.3 25.5501 160.75 25.1701 161.32 24.8901L161.33 24.9001ZM165.28 27.5901C165.01 27.1201 164.66 26.7601 164.23 26.5201C163.79 26.2801 163.33 26.1501 162.83 26.1501C162.33 26.1501 161.88 26.2701 161.44 26.5201C161 26.7701 160.65 27.1301 160.39 27.6101C160.13 28.0901 159.99 28.6501 159.99 29.2901C159.99 29.9301 160.12 30.5001 160.39 30.9801C160.66 31.4601 161.01 31.8301 161.44 32.0801C161.88 32.3301 162.34 32.4501 162.83 32.4501C163.32 32.4501 163.8 32.3201 164.23 32.0701C164.67 31.8101 165.02 31.4401 165.28 30.9601C165.55 30.4701 165.68 29.9101 165.68 29.2601C165.68 28.6101 165.55 28.0601 165.28 27.5901Z" fill="#A6A6A6"/>
<path d="M169.51 26.7602C169.9 26.0302 170.43 25.4702 171.11 25.0702C171.78 24.6702 172.53 24.4702 173.35 24.4702C174.09 24.4702 174.73 24.6102 175.28 24.9002C175.83 25.1902 176.27 25.5502 176.6 25.9802V24.6202H178.56V33.9902H176.6V32.6002C176.27 33.0402 175.82 33.4102 175.26 33.7002C174.69 33.9902 174.05 34.1402 173.32 34.1402C172.52 34.1402 171.78 33.9302 171.11 33.5202C170.44 33.1102 169.91 32.5302 169.52 31.7902C169.13 31.0502 168.93 30.2102 168.93 29.2702C168.93 28.3302 169.13 27.5002 169.52 26.7702L169.51 26.7602ZM176.19 27.6102C175.92 27.1302 175.57 26.7702 175.14 26.5202C174.71 26.2702 174.25 26.1502 173.75 26.1502C173.25 26.1502 172.79 26.2702 172.36 26.5202C171.93 26.7602 171.58 27.1202 171.31 27.5902C171.04 28.0602 170.91 28.6202 170.91 29.2602C170.91 29.9002 171.04 30.4702 171.31 30.9602C171.58 31.4502 171.93 31.8202 172.36 32.0702C172.8 32.3202 173.26 32.4502 173.75 32.4502C174.24 32.4502 174.71 32.3302 175.14 32.0802C175.57 31.8302 175.92 31.4702 176.19 30.9802C176.46 30.5002 176.59 29.9402 176.59 29.2902C176.59 28.6402 176.46 28.0802 176.19 27.6102Z" fill="#A6A6A6"/>
<path d="M181.2 23.0199C180.96 22.7799 180.84 22.4899 180.84 22.1399C180.84 21.7899 180.96 21.4899 181.2 21.2599C181.44 21.0199 181.73 20.8999 182.08 20.8999C182.43 20.8999 182.71 21.0199 182.95 21.2599C183.19 21.4999 183.31 21.7899 183.31 22.1399C183.31 22.4899 183.19 22.7899 182.95 23.0199C182.71 23.2499 182.42 23.3799 182.08 23.3799C181.74 23.3799 181.43 23.2599 181.2 23.0199ZM183.03 24.6199V33.9899H181.09V24.6199H183.03Z" fill="#A6A6A6"/>
<path d="M189.59 29.2501L192.62 33.9901H190.43L188.41 30.8101L186.51 33.9901H184.49L187.52 29.3801L184.49 24.6201H186.68L188.7 27.8001L190.6 24.6201H192.62L189.59 29.2401V29.2501Z" fill="#A6A6A6"/>
<path d="M195.73 33.54C195.02 33.14 194.45 32.57 194.05 31.84C193.64 31.11 193.44 30.26 193.44 29.3C193.44 28.34 193.65 27.5 194.07 26.77C194.49 26.03 195.06 25.47 195.79 25.07C196.51 24.67 197.33 24.48 198.22 24.48C199.11 24.48 199.93 24.68 200.65 25.07C201.38 25.47 201.95 26.03 202.37 26.77C202.79 27.51 203 28.35 203 29.3C203 30.25 202.78 31.1 202.35 31.83C201.92 32.57 201.33 33.14 200.59 33.54C199.85 33.94 199.03 34.14 198.13 34.14C197.23 34.14 196.45 33.94 195.73 33.54ZM199.53 32.1C199.97 31.86 200.32 31.5 200.59 31.03C200.86 30.55 201 29.98 201 29.3C201 28.62 200.87 28.05 200.61 27.57C200.35 27.1 200 26.75 199.57 26.51C199.14 26.27 198.67 26.15 198.18 26.15C197.69 26.15 197.22 26.27 196.8 26.51C196.37 26.75 196.04 27.1 195.79 27.57C195.54 28.04 195.42 28.62 195.42 29.3C195.42 30.31 195.68 31.09 196.19 31.64C196.7 32.19 197.35 32.46 198.14 32.46C198.64 32.46 199.11 32.34 199.54 32.1H199.53Z" fill="#A6A6A6"/>
</svg>
