<svg width="427" height="95" viewBox="0 0 427 95" fill="none" xmlns="http://www.w3.org/2000/svg">
<path d="M397.18 24.84H29.8C13.3364 24.84 -0.0100098 38.1864 -0.0100098 54.65V65.03C-0.0100098 81.4936 13.3364 94.84 29.8 94.84H397.18C413.644 94.84 426.99 81.4936 426.99 65.03V54.65C426.99 38.1864 413.644 24.84 397.18 24.84Z" fill="#FDC9A2"/>
<path d="M46.75 73.63C45.42 73.02 44.37 72.17 43.62 71.09C42.87 70.01 42.45 68.79 42.4 67.44H45.21C45.34 68.73 45.91 69.87 46.92 70.84C47.93 71.82 49.42 72.3 51.37 72.3C53.17 72.3 54.59 71.84 55.65 70.91C56.7 69.99 57.23 68.81 57.23 67.4C57.23 66.26 56.94 65.34 56.36 64.64C55.78 63.94 55.05 63.43 54.19 63.08C53.33 62.74 52.14 62.37 50.62 61.96C48.85 61.48 47.44 61.01 46.4 60.55C45.36 60.09 44.47 59.38 43.74 58.42C43 57.46 42.64 56.15 42.64 54.51C42.64 53.14 42.99 51.92 43.7 50.84C44.41 49.76 45.41 48.92 46.7 48.31C47.99 47.7 49.47 47.4 51.15 47.4C53.61 47.4 55.59 48 57.1 49.2C58.61 50.4 59.48 51.96 59.7 53.85H56.81C56.63 52.76 56.04 51.79 55.02 50.94C54.01 50.09 52.64 49.67 50.92 49.67C49.32 49.67 47.99 50.1 46.93 50.94C45.87 51.79 45.33 52.95 45.33 54.42C45.33 55.54 45.62 56.43 46.2 57.12C46.78 57.8 47.51 58.32 48.38 58.68C49.25 59.04 50.44 59.42 51.93 59.82C53.65 60.3 55.05 60.78 56.11 61.25C57.17 61.72 58.07 62.43 58.81 63.4C59.54 64.36 59.91 65.65 59.91 67.28C59.91 68.52 59.58 69.7 58.92 70.82C58.26 71.94 57.29 72.83 55.99 73.52C54.69 74.21 53.15 74.55 51.35 74.55C49.55 74.55 48.06 74.25 46.73 73.64L46.75 73.63Z" fill="white"/>
<path d="M67.55 49.88V59.8H77.62V62H67.55V72.07H78.76V74.27H64.89V47.67H78.76V49.87H67.55V49.88Z" fill="white"/>
<path d="M86.51 72.11H96.05V74.28H83.85V47.72H86.51V72.11Z" fill="white"/>
<path d="M102.36 49.88V59.8H112.43V62H102.36V72.07H113.57V74.27H99.7V47.67H113.57V49.87H102.36V49.88Z" fill="white"/>
<path d="M119.15 53.97C120.29 51.91 121.85 50.3 123.82 49.14C125.8 47.99 128 47.41 130.43 47.41C133.39 47.41 135.93 48.11 138.05 49.52C140.17 50.93 141.7 52.91 142.67 55.47H139.55C138.79 53.67 137.63 52.26 136.07 51.25C134.51 50.24 132.63 49.73 130.43 49.73C128.48 49.73 126.73 50.19 125.17 51.1C123.61 52.01 122.39 53.32 121.5 55.03C120.61 56.74 120.17 58.72 120.17 60.98C120.17 63.24 120.61 65.21 121.5 66.91C122.39 68.61 123.61 69.91 125.17 70.82C126.73 71.73 128.48 72.19 130.43 72.19C132.63 72.19 134.51 71.69 136.07 70.69C137.63 69.69 138.79 68.3 139.55 66.53H142.67C141.71 69.06 140.16 71.03 138.03 72.42C135.9 73.81 133.37 74.51 130.43 74.51C128 74.51 125.79 73.93 123.82 72.78C121.84 71.63 120.29 70.02 119.15 67.97C118.01 65.92 117.44 63.59 117.44 60.98C117.44 58.37 118.01 56.03 119.15 53.97Z" fill="white"/>
<path d="M150.47 47.72V74.28H147.81V47.72H150.47Z" fill="white"/>
<path d="M161.6 72.81C159.6 71.66 158.02 70.05 156.87 67.98C155.72 65.92 155.14 63.58 155.14 60.97C155.14 58.36 155.72 56.02 156.87 53.96C158.02 51.9 159.6 50.29 161.6 49.13C163.6 47.98 165.83 47.4 168.29 47.4C170.75 47.4 173.01 47.98 175.02 49.13C177.02 50.28 178.59 51.89 179.73 53.96C180.87 56.02 181.44 58.36 181.44 60.97C181.44 63.58 180.87 65.92 179.73 67.98C178.59 70.05 177.02 71.65 175.02 72.81C173.02 73.96 170.78 74.54 168.29 74.54C165.8 74.54 163.6 73.97 161.6 72.81ZM173.61 70.86C175.18 69.95 176.42 68.64 177.33 66.93C178.24 65.22 178.7 63.24 178.7 60.98C178.7 58.72 178.24 56.75 177.33 55.05C176.42 53.35 175.18 52.05 173.61 51.14C172.04 50.23 170.27 49.77 168.29 49.77C166.31 49.77 164.54 50.23 162.97 51.14C161.4 52.05 160.16 53.36 159.25 55.05C158.34 56.74 157.88 58.72 157.88 60.98C157.88 63.24 158.34 65.22 159.25 66.93C160.16 68.64 161.4 69.95 162.97 70.86C164.54 71.77 166.31 72.23 168.29 72.23C170.27 72.23 172.04 71.77 173.61 70.86Z" fill="white"/>
<path d="M206.17 74.28H203.51L188.8 51.94V74.28H186.14V47.72H188.8L203.51 70.02V47.72H206.17V74.28Z" fill="white"/>
<path d="M214.72 49.88V59.8H224.79V62H214.72V72.07H225.93V74.27H212.06V47.67H225.93V49.87H214.72V49.88Z" fill="white"/>
<path d="M246.53 72.81C244.53 71.66 242.95 70.05 241.8 67.98C240.65 65.92 240.07 63.58 240.07 60.97C240.07 58.36 240.65 56.02 241.8 53.96C242.95 51.9 244.53 50.29 246.53 49.13C248.53 47.98 250.76 47.4 253.22 47.4C255.68 47.4 257.94 47.98 259.95 49.13C261.95 50.28 263.52 51.89 264.66 53.96C265.8 56.02 266.37 58.36 266.37 60.97C266.37 63.58 265.8 65.92 264.66 67.98C263.52 70.05 261.95 71.65 259.95 72.81C257.95 73.96 255.71 74.54 253.22 74.54C250.73 74.54 248.53 73.97 246.53 72.81ZM258.54 70.86C260.11 69.95 261.35 68.64 262.26 66.93C263.17 65.22 263.63 63.24 263.63 60.98C263.63 58.72 263.17 56.75 262.26 55.05C261.35 53.35 260.11 52.05 258.54 51.14C256.97 50.23 255.2 49.77 253.22 49.77C251.24 49.77 249.47 50.23 247.9 51.14C246.33 52.05 245.09 53.36 244.18 55.05C243.27 56.74 242.81 58.72 242.81 60.98C242.81 63.24 243.27 65.22 244.18 66.93C245.09 68.64 246.33 69.95 247.9 70.86C249.47 71.77 251.24 72.23 253.22 72.23C255.2 72.23 256.97 71.77 258.54 70.86Z" fill="white"/>
<path d="M293.61 47.72V67.82C293.61 69.85 292.99 71.47 291.75 72.7C290.51 73.93 288.85 74.54 286.77 74.54C284.69 74.54 282.9 73.89 281.62 72.58C280.34 71.28 279.7 69.51 279.7 67.28H282.4C282.42 68.73 282.79 69.9 283.48 70.82C284.18 71.73 285.27 72.19 286.77 72.19C288.19 72.19 289.24 71.77 289.92 70.94C290.6 70.1 290.95 69.06 290.95 67.82V47.72H293.61Z" fill="white"/>
<path d="M305.39 72.81C303.39 71.66 301.81 70.05 300.66 67.98C299.51 65.92 298.93 63.58 298.93 60.97C298.93 58.36 299.51 56.02 300.66 53.96C301.81 51.9 303.39 50.29 305.39 49.13C307.39 47.98 309.62 47.4 312.08 47.4C314.54 47.4 316.8 47.98 318.81 49.13C320.81 50.28 322.38 51.89 323.52 53.96C324.66 56.03 325.23 58.36 325.23 60.97C325.23 63.58 324.66 65.92 323.52 67.98C322.38 70.05 320.81 71.65 318.81 72.81C316.81 73.96 314.57 74.54 312.08 74.54C309.59 74.54 307.39 73.97 305.39 72.81ZM317.4 70.86C318.97 69.95 320.21 68.64 321.12 66.93C322.03 65.22 322.49 63.24 322.49 60.98C322.49 58.72 322.03 56.75 321.12 55.05C320.21 53.35 318.97 52.05 317.4 51.14C315.83 50.23 314.06 49.77 312.08 49.77C310.1 49.77 308.33 50.23 306.76 51.14C305.19 52.05 303.95 53.36 303.04 55.05C302.13 56.75 301.67 58.72 301.67 60.98C301.67 63.24 302.13 65.22 303.04 66.93C303.95 68.64 305.19 69.95 306.76 70.86C308.33 71.77 310.1 72.23 312.08 72.23C314.06 72.23 315.83 71.77 317.4 70.86Z" fill="white"/>
<path d="M350.84 55.47C350.08 53.72 348.92 52.35 347.36 51.35C345.8 50.35 343.97 49.85 341.87 49.85C339.89 49.85 338.12 50.31 336.55 51.22C334.98 52.13 333.74 53.43 332.83 55.12C331.92 56.8 331.46 58.76 331.46 60.99C331.46 63.22 331.92 65.18 332.83 66.88C333.74 68.58 334.98 69.88 336.55 70.79C338.12 71.7 339.89 72.16 341.87 72.16C343.72 72.16 345.38 71.76 346.87 70.96C348.35 70.16 349.54 69.02 350.44 67.54C351.34 66.06 351.85 64.33 351.98 62.35H340.81V60.18H354.79V62.12C354.66 64.45 354.03 66.56 352.89 68.45C351.75 70.34 350.22 71.83 348.31 72.91C346.4 73.99 344.25 74.54 341.87 74.54C339.49 74.54 337.18 73.97 335.18 72.81C333.18 71.66 331.6 70.05 330.45 67.98C329.3 65.92 328.72 63.58 328.72 60.97C328.72 58.36 329.3 56.02 330.45 53.96C331.6 51.9 333.18 50.29 335.18 49.13C337.18 47.98 339.41 47.4 341.87 47.4C344.71 47.4 347.19 48.11 349.32 49.53C351.45 50.95 352.99 52.93 353.96 55.46H350.84V55.47Z" fill="white"/>
<path d="M364.74 72.81C362.74 71.66 361.16 70.05 360.01 67.98C358.86 65.92 358.28 63.58 358.28 60.97C358.28 58.36 358.86 56.02 360.01 53.96C361.16 51.9 362.74 50.29 364.74 49.13C366.74 47.98 368.97 47.4 371.43 47.4C373.89 47.4 376.15 47.98 378.16 49.13C380.16 50.28 381.73 51.89 382.87 53.96C384.01 56.02 384.58 58.36 384.58 60.97C384.58 63.58 384.01 65.92 382.87 67.98C381.73 70.05 380.16 71.65 378.16 72.81C376.16 73.96 373.92 74.54 371.43 74.54C368.94 74.54 366.74 73.97 364.74 72.81ZM376.75 70.86C378.32 69.95 379.56 68.64 380.47 66.93C381.38 65.22 381.84 63.24 381.84 60.98C381.84 58.72 381.38 56.75 380.47 55.05C379.56 53.35 378.32 52.05 376.75 51.14C375.18 50.23 373.41 49.77 371.43 49.77C369.45 49.77 367.68 50.23 366.11 51.14C364.54 52.05 363.3 53.36 362.39 55.05C361.48 56.74 361.02 58.72 361.02 60.98C361.02 63.24 361.48 65.22 362.39 66.93C363.3 68.64 364.54 69.95 366.11 70.86C367.68 71.77 369.45 72.23 371.43 72.23C373.41 72.23 375.18 71.77 376.75 70.86Z" fill="white"/>
<path d="M151.6 11.5701H155.6V13.1301H149.67V1.31006H151.61V11.5601L151.6 11.5701Z" fill="#A8A8A8"/>
<path d="M157.31 2.17005C157.07 1.93005 156.95 1.64005 156.95 1.29005C156.95 0.94005 157.07 0.640049 157.31 0.410049C157.55 0.170049 157.84 0.0500488 158.19 0.0500488C158.54 0.0500488 158.82 0.170049 159.06 0.410049C159.3 0.650049 159.42 0.94005 159.42 1.29005C159.42 1.64005 159.3 1.94005 159.06 2.17005C158.82 2.40005 158.53 2.53005 158.19 2.53005C157.85 2.53005 157.54 2.41005 157.31 2.17005ZM159.15 3.76005V13.13H157.21V3.76005H159.15Z" fill="#A8A8A8"/>
<path d="M167.4 4.04C167.96 4.33 168.4 4.69 168.72 5.12V3.76H170.68V13.28C170.68 14.14 170.5 14.91 170.14 15.58C169.78 16.25 169.25 16.78 168.57 17.17C167.88 17.56 167.07 17.75 166.11 17.75C164.84 17.75 163.79 17.45 162.95 16.86C162.11 16.27 161.64 15.46 161.52 14.44H163.44C163.59 14.93 163.9 15.32 164.38 15.62C164.86 15.92 165.44 16.07 166.11 16.07C166.89 16.07 167.52 15.83 168.01 15.36C168.49 14.88 168.73 14.19 168.73 13.29V11.73C168.4 12.17 167.96 12.54 167.4 12.84C166.84 13.14 166.2 13.29 165.49 13.29C164.67 13.29 163.93 13.08 163.25 12.67C162.58 12.26 162.04 11.68 161.65 10.94C161.26 10.2 161.06 9.36 161.06 8.42C161.06 7.48 161.26 6.65 161.65 5.92C162.04 5.19 162.57 4.63 163.25 4.23C163.92 3.83 164.67 3.63 165.49 3.63C166.22 3.63 166.86 3.77001 167.42 4.06001L167.4 4.04ZM168.32 6.76C168.05 6.28 167.71 5.92 167.27 5.67C166.84 5.42 166.37 5.3 165.88 5.3C165.39 5.3 164.92 5.42 164.49 5.67C164.06 5.91 163.71 6.27001 163.44 6.74001C163.17 7.21001 163.04 7.77 163.04 8.41C163.04 9.05 163.17 9.62 163.44 10.11C163.71 10.6 164.06 10.97 164.49 11.22C164.93 11.47 165.39 11.6 165.88 11.6C166.37 11.6 166.84 11.48 167.27 11.23C167.7 10.98 168.05 10.62 168.32 10.13C168.59 9.65 168.72 9.09 168.72 8.44C168.72 7.79 168.59 7.23 168.32 6.76Z" fill="#A8A8A8"/>
<path d="M181.71 3.76V13.13H179.77V12.02C179.46 12.41 179.06 12.71 178.57 12.93C178.08 13.15 177.55 13.26 177 13.26C176.26 13.26 175.6 13.11 175.02 12.8C174.44 12.49 173.98 12.04 173.64 11.44C173.3 10.84 173.14 10.11 173.14 9.26V3.75H175.06V8.97C175.06 9.81 175.27 10.45 175.69 10.9C176.11 11.35 176.68 11.57 177.41 11.57C178.14 11.57 178.71 11.35 179.14 10.9C179.56 10.45 179.78 9.81 179.78 8.97V3.75H181.72L181.71 3.76Z" fill="#A8A8A8"/>
<path d="M192.77 9.17H185.61C185.67 9.92 185.94 10.52 186.44 10.97C186.94 11.42 187.55 11.65 188.28 11.65C189.32 11.65 190.06 11.21 190.49 10.34H192.58C192.3 11.2 191.78 11.91 191.04 12.46C190.3 13.01 189.38 13.29 188.28 13.29C187.38 13.29 186.58 13.09 185.87 12.69C185.16 12.29 184.61 11.72 184.2 10.99C183.8 10.26 183.6 9.41 183.6 8.45C183.6 7.49 183.8 6.64 184.19 5.91C184.58 5.18 185.13 4.62001 185.84 4.22001C186.55 3.82001 187.36 3.63 188.28 3.63C189.2 3.63 189.95 3.82 190.64 4.21C191.33 4.6 191.87 5.14001 192.25 5.83001C192.64 6.53001 192.83 7.33001 192.83 8.24001C192.83 8.59001 192.81 8.91 192.76 9.19L192.77 9.17ZM190.82 7.61C190.81 6.9 190.55 6.32 190.06 5.89C189.56 5.46 188.94 5.24001 188.21 5.24001C187.54 5.24001 186.97 5.45 186.49 5.88C186.01 6.31 185.73 6.88 185.64 7.61H190.82Z" fill="#A8A8A8"/>
<path d="M199.11 5.91C199.5 5.18 200.03 4.62 200.71 4.22C201.38 3.82 202.13 3.62 202.95 3.62C203.69 3.62 204.33 3.76 204.88 4.05C205.43 4.34 205.87 4.7 206.2 5.13V3.77H208.16V13.14H206.2V11.75C205.87 12.19 205.42 12.56 204.86 12.85C204.3 13.14 203.65 13.29 202.92 13.29C202.12 13.29 201.38 13.08 200.71 12.67C200.04 12.26 199.51 11.68 199.12 10.94C198.73 10.2 198.53 9.35999 198.53 8.41999C198.53 7.47999 198.73 6.64999 199.12 5.91999L199.11 5.91ZM205.79 6.75999C205.52 6.27999 205.18 5.91999 204.74 5.66999C204.31 5.41999 203.84 5.3 203.35 5.3C202.86 5.3 202.39 5.41999 201.96 5.66999C201.53 5.90999 201.18 6.27 200.91 6.74C200.64 7.21 200.51 7.77 200.51 8.41C200.51 9.05 200.64 9.62 200.91 10.11C201.18 10.6 201.53 10.97 201.96 11.22C202.4 11.47 202.86 11.6 203.35 11.6C203.84 11.6 204.31 11.48 204.74 11.23C205.17 10.98 205.52 10.62 205.79 10.13C206.06 9.65 206.19 9.08999 206.19 8.43999C206.19 7.78999 206.06 7.22999 205.79 6.75999Z" fill="#A8A8A8"/>
<path d="M212.11 12.8801C211.53 12.6101 211.06 12.2501 210.72 11.7901C210.38 11.3301 210.2 10.8201 210.18 10.2501H212.19C212.22 10.6501 212.41 10.9801 212.76 11.2401C213.11 11.5101 213.54 11.6401 214.06 11.6401C214.58 11.6401 215.03 11.5301 215.33 11.3201C215.63 11.1101 215.78 10.8401 215.78 10.5101C215.78 10.1601 215.61 9.90009 215.28 9.73009C214.95 9.56009 214.42 9.37009 213.69 9.17009C212.99 8.98009 212.41 8.79009 211.97 8.61009C211.53 8.43009 211.15 8.15009 210.82 7.78009C210.49 7.41009 210.34 6.91009 210.34 6.30009C210.34 5.80009 210.49 5.35009 210.78 4.93009C211.07 4.52009 211.5 4.19009 212.05 3.95009C212.6 3.71009 213.23 3.59009 213.95 3.59009C215.02 3.59009 215.87 3.86009 216.53 4.40009C217.18 4.94009 217.53 5.67009 217.58 6.60009H215.64C215.61 6.18009 215.44 5.85009 215.13 5.60009C214.82 5.35009 214.41 5.23009 213.89 5.23009C213.37 5.23009 212.99 5.33009 212.72 5.52009C212.45 5.71009 212.31 5.97009 212.31 6.28009C212.31 6.53009 212.4 6.74009 212.58 6.91009C212.76 7.08009 212.98 7.21009 213.24 7.31009C213.5 7.41009 213.89 7.53009 214.4 7.68009C215.08 7.86009 215.64 8.05009 216.07 8.23009C216.51 8.42009 216.88 8.69009 217.2 9.05009C217.52 9.41009 217.68 9.89009 217.69 10.5001C217.69 11.0301 217.54 11.5101 217.25 11.9301C216.96 12.3501 216.54 12.6801 216 12.9201C215.46 13.1601 214.83 13.2801 214.1 13.2801C213.37 13.2801 212.7 13.1501 212.12 12.8801H212.11Z" fill="#A8A8A8"/>
<path d="M224.13 5.9C224.52 5.17 225.06 4.61 225.75 4.21C226.44 3.81 227.23 3.62 228.13 3.62C229.26 3.62 230.2 3.89 230.94 4.43C231.68 4.97 232.18 5.74 232.44 6.73H230.35C230.18 6.27 229.91 5.9 229.53 5.64C229.16 5.38 228.69 5.25 228.12 5.25C227.33 5.25 226.69 5.53 226.22 6.09C225.75 6.65 225.51 7.43999 225.51 8.43999C225.51 9.43999 225.75 10.24 226.22 10.8C226.69 11.37 227.32 11.65 228.12 11.65C229.24 11.65 229.98 11.16 230.35 10.17H232.44C232.17 11.12 231.66 11.88 230.91 12.44C230.16 13 229.23 13.28 228.12 13.28C227.22 13.28 226.43 13.08 225.74 12.68C225.05 12.28 224.51 11.71 224.12 10.98C223.73 10.25 223.53 9.39999 223.53 8.43999C223.53 7.47999 223.73 6.63 224.12 5.9H224.13Z" fill="#A8A8A8"/>
<path d="M236.05 12.68C235.34 12.28 234.78 11.71 234.37 10.98C233.96 10.25 233.76 9.39999 233.76 8.43999C233.76 7.47999 233.97 6.64 234.39 5.91C234.81 5.17 235.38 4.61 236.11 4.21C236.84 3.81 237.65 3.62 238.54 3.62C239.43 3.62 240.25 3.82 240.97 4.21C241.7 4.61 242.27 5.17 242.69 5.91C243.11 6.65 243.32 7.48999 243.32 8.43999C243.32 9.38999 243.1 10.24 242.67 10.97C242.24 11.71 241.65 12.28 240.91 12.68C240.17 13.08 239.35 13.28 238.45 13.28C237.55 13.28 236.77 13.08 236.05 12.68ZM239.85 11.24C240.29 11 240.64 10.64 240.91 10.17C241.18 9.69999 241.32 9.11999 241.32 8.43999C241.32 7.75999 241.19 7.19 240.93 6.71C240.67 6.24 240.32 5.89 239.89 5.65C239.46 5.41 238.99 5.29 238.5 5.29C238.01 5.29 237.54 5.41 237.11 5.65C236.69 5.89 236.35 6.24 236.1 6.71C235.85 7.18 235.73 7.75999 235.73 8.43999C235.73 9.45 235.99 10.23 236.5 10.78C237.02 11.33 237.66 11.6 238.45 11.6C238.95 11.6 239.42 11.48 239.85 11.24Z" fill="#A8A8A8"/>
<path d="M245.34 2.17005C245.1 1.93005 244.98 1.64005 244.98 1.29005C244.98 0.94005 245.1 0.640049 245.34 0.410049C245.58 0.170049 245.87 0.0500488 246.22 0.0500488C246.57 0.0500488 246.85 0.170049 247.09 0.410049C247.33 0.650049 247.45 0.94005 247.45 1.29005C247.45 1.64005 247.33 1.94005 247.09 2.17005C246.85 2.40005 246.56 2.53005 246.22 2.53005C245.88 2.53005 245.57 2.41005 245.34 2.17005ZM247.17 3.76005V13.13H245.23V3.76005H247.17Z" fill="#A8A8A8"/>
<path d="M251.14 12.8801C250.56 12.6101 250.09 12.2501 249.75 11.7901C249.41 11.3301 249.23 10.8201 249.21 10.2501H251.22C251.25 10.6501 251.44 10.9801 251.79 11.2401C252.14 11.5101 252.57 11.6401 253.09 11.6401C253.61 11.6401 254.06 11.5301 254.36 11.3201C254.66 11.1101 254.81 10.8401 254.81 10.5101C254.81 10.1601 254.64 9.90009 254.31 9.73009C253.98 9.56009 253.45 9.37009 252.72 9.17009C252.02 8.98009 251.44 8.79009 251 8.61009C250.56 8.43009 250.18 8.15009 249.85 7.78009C249.52 7.41009 249.37 6.91009 249.37 6.30009C249.37 5.80009 249.52 5.35009 249.81 4.93009C250.1 4.52009 250.53 4.19009 251.08 3.95009C251.63 3.71009 252.26 3.59009 252.98 3.59009C254.05 3.59009 254.9 3.86009 255.56 4.40009C256.21 4.94009 256.56 5.67009 256.61 6.60009H254.67C254.64 6.18009 254.47 5.85009 254.16 5.60009C253.85 5.35009 253.44 5.23009 252.92 5.23009C252.4 5.23009 252.02 5.33009 251.75 5.52009C251.48 5.71009 251.34 5.97009 251.34 6.28009C251.34 6.53009 251.43 6.74009 251.61 6.91009C251.79 7.08009 252.01 7.21009 252.27 7.31009C252.53 7.41009 252.92 7.53009 253.43 7.68009C254.11 7.86009 254.67 8.05009 255.1 8.23009C255.54 8.42009 255.91 8.69009 256.23 9.05009C256.55 9.41009 256.71 9.89009 256.72 10.5001C256.72 11.0301 256.57 11.5101 256.28 11.9301C255.99 12.3501 255.57 12.6801 255.03 12.9201C254.49 13.1601 253.86 13.2801 253.13 13.2801C252.4 13.2801 251.73 13.1501 251.15 12.8801H251.14Z" fill="#A8A8A8"/>
<path d="M258.74 5.91C259.13 5.18 259.66 4.62 260.34 4.22C261.01 3.82 261.76 3.62 262.58 3.62C263.32 3.62 263.96 3.76 264.51 4.05C265.06 4.34 265.5 4.7 265.83 5.13V3.77H267.79V13.14H265.83V11.75C265.5 12.19 265.05 12.56 264.49 12.85C263.93 13.14 263.28 13.29 262.55 13.29C261.75 13.29 261.01 13.08 260.34 12.67C259.67 12.26 259.14 11.68 258.75 10.94C258.36 10.2 258.16 9.35999 258.16 8.41999C258.16 7.47999 258.36 6.64999 258.75 5.91999L258.74 5.91ZM265.42 6.75999C265.15 6.27999 264.81 5.91999 264.37 5.66999C263.94 5.41999 263.47 5.3 262.98 5.3C262.49 5.3 262.02 5.41999 261.59 5.66999C261.16 5.90999 260.81 6.27 260.54 6.74C260.27 7.21 260.14 7.77 260.14 8.41C260.14 9.05 260.27 9.62 260.54 10.11C260.81 10.6 261.16 10.97 261.59 11.22C262.03 11.47 262.49 11.6 262.98 11.6C263.47 11.6 263.94 11.48 264.37 11.23C264.8 10.98 265.15 10.62 265.42 10.13C265.69 9.65 265.82 9.08999 265.82 8.43999C265.82 7.78999 265.69 7.22999 265.42 6.75999Z" fill="#A8A8A8"/>
<path d="M271.75 12.8801C271.17 12.6101 270.7 12.2501 270.36 11.7901C270.02 11.3301 269.84 10.8201 269.82 10.2501H271.83C271.86 10.6501 272.05 10.9801 272.4 11.2401C272.75 11.5101 273.18 11.6401 273.7 11.6401C274.22 11.6401 274.67 11.5301 274.97 11.3201C275.27 11.1101 275.42 10.8401 275.42 10.5101C275.42 10.1601 275.25 9.90009 274.92 9.73009C274.59 9.56009 274.06 9.37009 273.33 9.17009C272.63 8.98009 272.05 8.79009 271.61 8.61009C271.17 8.43009 270.79 8.15009 270.46 7.78009C270.13 7.41009 269.98 6.91009 269.98 6.30009C269.98 5.80009 270.13 5.35009 270.42 4.93009C270.71 4.52009 271.14 4.19009 271.69 3.95009C272.24 3.71009 272.87 3.59009 273.59 3.59009C274.66 3.59009 275.51 3.86009 276.17 4.40009C276.82 4.94009 277.17 5.67009 277.22 6.60009H275.28C275.25 6.18009 275.08 5.85009 274.77 5.60009C274.46 5.35009 274.05 5.23009 273.53 5.23009C273.01 5.23009 272.63 5.33009 272.36 5.52009C272.09 5.71009 271.95 5.97009 271.95 6.28009C271.95 6.53009 272.04 6.74009 272.22 6.91009C272.4 7.08009 272.62 7.21009 272.88 7.31009C273.14 7.41009 273.53 7.53009 274.04 7.68009C274.72 7.86009 275.28 8.05009 275.71 8.23009C276.15 8.42009 276.52 8.69009 276.84 9.05009C277.16 9.41009 277.32 9.89009 277.33 10.5001C277.33 11.0301 277.18 11.5101 276.89 11.9301C276.6 12.3501 276.18 12.6801 275.64 12.9201C275.1 13.1601 274.47 13.2801 273.74 13.2801C273.01 13.2801 272.34 13.1501 271.76 12.8801H271.75Z" fill="#A8A8A8"/>
</svg>
