<svg width="224" height="258" viewBox="0 0 224 258" fill="none" xmlns="http://www.w3.org/2000/svg">
<path d="M111.6 223.14C173.136 223.14 223.02 173.256 223.02 111.72C223.02 50.1845 173.136 0.300049 111.6 0.300049C50.0644 0.300049 0.179993 50.1845 0.179993 111.72C0.179993 173.256 50.0644 223.14 111.6 223.14Z" fill="#C8A9F2"/>
<path d="M84.57 254.86H79.04L78.09 257.56H75.83L80.56 244.34H83.07L87.8 257.56H85.52L84.57 254.86ZM83.96 253.09L81.81 246.95L79.64 253.09H83.95H83.96Z" fill="#A8A8A8"/>
<path d="M97.35 247.43C98 247.77 98.51 248.28 98.88 248.95C99.25 249.62 99.43 250.43 99.43 251.38V257.55H97.28V251.7C97.28 250.76 97.05 250.04 96.58 249.54C96.11 249.04 95.47 248.79 94.66 248.79C93.85 248.79 93.21 249.04 92.73 249.54C92.26 250.04 92.02 250.76 92.02 251.7V257.55H89.85V247.08H92.02V248.28C92.37 247.85 92.83 247.51 93.38 247.27C93.93 247.03 94.52 246.91 95.14 246.91C95.96 246.91 96.7 247.08 97.35 247.42V247.43Z" fill="#A8A8A8"/>
<path d="M102.3 245.3C102.03 245.03 101.9 244.7 101.9 244.31C101.9 243.92 102.03 243.59 102.3 243.32C102.57 243.05 102.9 242.92 103.29 242.92C103.68 242.92 103.99 243.05 104.26 243.32C104.53 243.59 104.66 243.92 104.66 244.31C104.66 244.7 104.53 245.03 104.26 245.3C103.99 245.57 103.67 245.7 103.29 245.7C102.91 245.7 102.57 245.57 102.3 245.3ZM104.35 247.09V257.56H102.18V247.09H104.35Z" fill="#A8A8A8"/>
<path d="M122.09 247.43C122.74 247.77 123.26 248.28 123.63 248.95C124 249.62 124.19 250.43 124.19 251.38V257.55H122.04V251.7C122.04 250.76 121.81 250.04 121.34 249.54C120.87 249.04 120.23 248.79 119.42 248.79C118.61 248.79 117.97 249.04 117.49 249.54C117.02 250.04 116.78 250.76 116.78 251.7V257.55H114.63V251.7C114.63 250.76 114.4 250.04 113.93 249.54C113.46 249.04 112.82 248.79 112.01 248.79C111.2 248.79 110.56 249.04 110.08 249.54C109.61 250.04 109.37 250.76 109.37 251.7V257.55H107.2V247.08H109.37V248.28C109.72 247.85 110.17 247.51 110.72 247.27C111.26 247.03 111.85 246.91 112.47 246.91C113.31 246.91 114.05 247.09 114.71 247.44C115.37 247.8 115.88 248.31 116.23 248.98C116.55 248.35 117.04 247.84 117.71 247.47C118.38 247.1 119.1 246.91 119.88 246.91C120.7 246.91 121.44 247.08 122.09 247.42V247.43Z" fill="#A8A8A8"/>
<path d="M126.87 249.48C127.31 248.67 127.9 248.04 128.66 247.59C129.41 247.14 130.25 246.92 131.16 246.92C131.98 246.92 132.7 247.08 133.32 247.4C133.93 247.72 134.42 248.12 134.79 248.61V247.09H136.98V257.56H134.79V256C134.42 256.49 133.92 256.91 133.29 257.23C132.66 257.56 131.93 257.72 131.12 257.72C130.22 257.72 129.4 257.49 128.65 257.03C127.9 256.57 127.31 255.92 126.87 255.09C126.43 254.26 126.21 253.32 126.21 252.27C126.21 251.22 126.43 250.29 126.87 249.48ZM134.34 250.43C134.04 249.9 133.65 249.49 133.17 249.21C132.69 248.93 132.17 248.79 131.61 248.79C131.05 248.79 130.53 248.93 130.05 249.2C129.57 249.47 129.18 249.87 128.88 250.4C128.58 250.93 128.43 251.55 128.43 252.27C128.43 252.99 128.58 253.63 128.88 254.17C129.18 254.71 129.57 255.13 130.06 255.41C130.55 255.7 131.06 255.84 131.61 255.84C132.16 255.84 132.69 255.7 133.17 255.42C133.65 255.14 134.04 254.73 134.34 254.19C134.64 253.65 134.79 253.02 134.79 252.3C134.79 251.58 134.64 250.95 134.34 250.42V250.43Z" fill="#A8A8A8"/>
<path d="M139.94 245.3C139.67 245.03 139.54 244.7 139.54 244.31C139.54 243.92 139.67 243.59 139.94 243.32C140.21 243.05 140.54 242.92 140.93 242.92C141.32 242.92 141.63 243.05 141.9 243.32C142.17 243.59 142.3 243.92 142.3 244.31C142.3 244.7 142.17 245.03 141.9 245.3C141.63 245.57 141.31 245.7 140.93 245.7C140.55 245.7 140.21 245.57 139.94 245.3ZM141.99 247.09V257.56H139.82V247.09H141.99Z" fill="#A8A8A8"/>
<path d="M146.43 257.28C145.78 256.98 145.26 256.58 144.88 256.06C144.5 255.55 144.3 254.97 144.27 254.34H146.51C146.55 254.78 146.76 255.15 147.15 255.45C147.54 255.75 148.02 255.9 148.6 255.9C149.18 255.9 149.68 255.78 150.02 255.55C150.36 255.32 150.52 255.02 150.52 254.65C150.52 254.26 150.33 253.97 149.96 253.78C149.59 253.59 148.99 253.38 148.18 253.15C147.39 252.94 146.75 252.73 146.26 252.52C145.77 252.32 145.34 252.01 144.98 251.59C144.62 251.17 144.44 250.62 144.44 249.94C144.44 249.38 144.6 248.87 144.93 248.41C145.26 247.95 145.73 247.58 146.35 247.32C146.96 247.05 147.67 246.92 148.47 246.92C149.66 246.92 150.62 247.22 151.35 247.82C152.08 248.42 152.47 249.24 152.52 250.28H150.35C150.31 249.81 150.12 249.44 149.78 249.16C149.44 248.88 148.98 248.74 148.39 248.74C147.8 248.74 147.38 248.85 147.08 249.06C146.78 249.28 146.62 249.56 146.62 249.92C146.62 250.2 146.72 250.43 146.92 250.62C147.12 250.81 147.37 250.96 147.66 251.07C147.95 251.18 148.38 251.31 148.95 251.48C149.71 251.68 150.33 251.89 150.82 252.1C151.31 252.31 151.73 252.62 152.08 253.02C152.43 253.43 152.62 253.96 152.63 254.64C152.63 255.24 152.47 255.77 152.14 256.24C151.81 256.71 151.35 257.08 150.74 257.34C150.14 257.61 149.43 257.74 148.62 257.74C147.81 257.74 147.06 257.59 146.41 257.29L146.43 257.28Z" fill="#A8A8A8"/>
<path d="M180.08 108.9C173.85 122.98 157.38 129.34 143.3 123.11C129.22 116.88 122.86 100.41 129.09 86.33C135.32 72.25 145.68 46.5001 181.88 42.5601C186.02 52.7301 186.31 94.8201 180.08 108.9Z" fill="#EFC878"/>
<path d="M44.78 108.9C51.01 122.98 67.48 129.34 81.56 123.11C95.64 116.88 102 100.41 95.77 86.33C89.54 72.25 79.18 46.5001 42.98 42.5601C38.84 52.7301 38.55 94.8201 44.78 108.9Z" fill="#EFC878"/>
<path d="M177.42 103.32C172.52 114.38 159.58 119.38 148.52 114.48C137.46 109.58 136.63 99.3801 141.53 88.3201C146.43 77.2601 158.14 58.9601 178.84 51.1801C182.1 59.1801 182.32 92.2501 177.42 103.32Z" fill="#D350A0"/>
<path d="M47.44 103.32C52.34 114.38 65.28 119.38 76.34 114.48C87.4 109.58 88.23 99.3801 83.33 88.3201C78.43 77.2601 66.72 58.9601 46.02 51.1801C42.77 59.1801 42.54 92.2501 47.44 103.32Z" fill="#D350A0"/>
<path d="M182.46 121.84C182.46 161.64 150.19 188.28 110.39 188.28C70.59 188.28 38.32 161.65 38.32 121.84C38.32 82.03 70.59 49.77 110.39 49.77C150.19 49.77 182.46 82.04 182.46 121.84Z" fill="#EFC878"/>
<path d="M149.24 155.35C157.756 155.35 164.66 148.71 164.66 140.52C164.66 132.33 157.756 125.69 149.24 125.69C140.724 125.69 133.82 132.33 133.82 140.52C133.82 148.71 140.724 155.35 149.24 155.35Z" fill="black"/>
<path d="M73.31 155.35C81.8262 155.35 88.73 148.71 88.73 140.52C88.73 132.33 81.8262 125.69 73.31 125.69C64.7938 125.69 57.89 132.33 57.89 140.52C57.89 148.71 64.7938 155.35 73.31 155.35Z" fill="black"/>
<path d="M73.31 150.01C78.877 150.01 83.39 145.761 83.39 140.52C83.39 135.279 78.877 131.03 73.31 131.03C67.743 131.03 63.23 135.279 63.23 140.52C63.23 145.761 67.743 150.01 73.31 150.01Z" fill="black"/>
<path d="M75.98 137.56C77.4546 137.56 78.65 136.365 78.65 134.89C78.65 133.416 77.4546 132.22 75.98 132.22C74.5054 132.22 73.31 133.416 73.31 134.89C73.31 136.365 74.5054 137.56 75.98 137.56Z" fill="white"/>
<path d="M151.91 137.56C153.385 137.56 154.58 136.365 154.58 134.89C154.58 133.416 153.385 132.22 151.91 132.22C150.435 132.22 149.24 133.416 149.24 134.89C149.24 136.365 150.435 137.56 151.91 137.56Z" fill="white"/>
<path d="M110.69 182.05C101.2 182.05 100.8 170.19 98.83 164.25C102.86 169.71 108.42 166.52 110.69 164.25C116.15 170.18 121.07 166.72 122.85 164.25C120.77 170.18 120.18 182.05 110.69 182.05Z" fill="black"/>
<path d="M110.31 180.27C106.8 180.27 104.36 177.12 103.57 175.54C109.23 169.06 115.82 172.84 118.4 175.54C117.16 177.12 113.82 180.27 110.31 180.27Z" fill="#D350A0"/>
<path d="M93.48 74.9801L81.02 56.0001C83.99 54.8101 89.92 52.7401 93.48 51.8501V74.9801Z" fill="#F7E3B9"/>
<path d="M82.67 170.77L80.35 182.9C78.74 182.24 75.64 180.8 73.91 179.8L82.67 170.77Z" fill="#F7E3B9"/>
<path d="M138.09 170.77L140.41 182.9C142.02 182.24 145.12 180.8 146.85 179.8L138.09 170.77Z" fill="#F7E3B9"/>
<path d="M73.93 166.03L69.67 177.62C68.19 176.71 65.36 174.79 63.82 173.52L73.93 166.02V166.03Z" fill="#F7E3B9"/>
<path d="M146.83 166.03L151.08 177.62C152.56 176.71 155.39 174.79 156.93 173.52L146.82 166.02L146.83 166.03Z" fill="#F7E3B9"/>
<path d="M130.26 75.2701L142.72 56.2901C139.75 55.1001 133.82 53.0301 130.26 52.1401V75.2701Z" fill="#F7E3B9"/>
<path d="M113.45 80.02L105.86 50.17C109.05 49.94 115.33 49.76 118.99 49.99L113.45 80.02Z" fill="#F7E3B9"/>
<path d="M117.51 168.4C121.602 168.4 124.92 165.347 124.92 161.58C124.92 157.813 121.602 154.76 117.51 154.76C113.418 154.76 110.1 157.813 110.1 161.58C110.1 165.347 113.418 168.4 117.51 168.4Z" fill="#F7E3B9"/>
<path d="M103.27 168.4C107.362 168.4 110.68 165.347 110.68 161.58C110.68 157.813 107.362 154.76 103.27 154.76C99.1776 154.76 95.86 157.813 95.86 161.58C95.86 165.347 99.1776 168.4 103.27 168.4Z" fill="#F7E3B9"/>
<path d="M119.58 152.68C119.58 156.12 115.6 163.06 110.68 163.06C105.76 163.06 101.78 156.12 101.78 152.68C101.78 149.24 105.76 146.45 110.68 146.45C115.6 146.45 119.58 149.24 119.58 152.68Z" fill="black"/>
<path d="M116.12 171.07C115.93 171.07 115.74 171.07 115.55 171.05C112.79 170.84 110.6 169.07 109.48 167.48C109.01 166.81 109.16 165.89 109.83 165.41C110.5 164.93 111.42 165.09 111.9 165.76C112.6 166.75 114.04 167.96 115.78 168.09C117.45 168.21 119.17 167.38 120.9 165.59C121.47 165 122.41 164.99 123 165.56C123.59 166.13 123.6 167.07 123.03 167.66C120.83 169.93 118.51 171.08 116.13 171.08L116.12 171.07Z" fill="black"/>
<path d="M104.85 171.07C104.66 171.07 104.47 171.07 104.28 171.05C101.52 170.84 99.33 169.07 98.21 167.48C97.74 166.81 97.89 165.89 98.56 165.41C99.23 164.93 100.15 165.09 100.63 165.76C101.33 166.75 102.77 167.96 104.51 168.09C106.18 168.21 107.9 167.38 109.63 165.59C110.2 165 111.14 164.99 111.73 165.56C112.32 166.13 112.33 167.07 111.76 167.66C109.56 169.93 107.24 171.08 104.86 171.08L104.85 171.07Z" fill="black"/>
<path d="M116.57 171.96L116.02 169.59H117.21L116.57 171.96Z" fill="white"/>
<path d="M105.89 171.96L105.34 169.59H106.53L105.89 171.96Z" fill="white"/>
<path d="M43.37 149.79C43.43 149.03 43.66 148.29 43.67 147.53C44.07 148.12 44.63 148.68 45.12 149.14C46.01 149.97 46.83 150.96 47.84 151.65C51.27 154.01 54.38 157.64 56.3 161.3C56.7 162.06 57.38 163.16 57.43 164.04C57.47 164.8 57.31 165.93 57.61 166.63C57.69 166.83 57.94 167.92 57.9 167.89C57.34 167.46 56.85 166.98 56.24 166.59C55.74 166.27 55.14 165.32 54.86 166.05C54.67 166.55 54.68 167.54 54.68 168.07C54.68 168.31 54.68 169.33 54.46 169.5C54.09 169.79 53.72 169.23 53.43 168.99C51.62 167.47 50.54 165.77 49.69 163.6C49.4 162.85 49.37 163.98 49.25 164.32C48.95 165.14 48.87 166.01 48.53 166.82C48.43 167.07 48.05 165.66 48.02 165.4C47.81 164.01 47.21 162.63 46.8 161.3C46.43 160.1 46.14 158.89 46.14 157.63C46.14 157.46 46.41 155.76 46 156.49C45.75 156.92 43.7 159.54 43.27 159.19C43.03 158.99 43.25 157.25 43.25 156.91C43.25 155.9 42.99 154.9 43.11 153.89C43.27 152.53 43.27 151.16 43.38 149.79H43.37Z" fill="#EFC878"/>
<path d="M179.19 146.23C179.13 145.47 178.9 144.73 178.89 143.97C178.49 144.56 177.93 145.12 177.44 145.58C176.55 146.41 175.73 147.4 174.72 148.09C171.29 150.45 168.18 154.08 166.26 157.74C165.86 158.5 165.18 159.6 165.13 160.48C165.09 161.24 165.25 162.37 164.95 163.07C164.87 163.27 164.62 164.36 164.66 164.33C165.22 163.9 165.71 163.42 166.32 163.03C166.82 162.71 167.42 161.76 167.7 162.49C167.89 162.99 167.88 163.98 167.88 164.51C167.88 164.75 167.88 165.77 168.1 165.94C168.47 166.23 168.84 165.67 169.13 165.43C170.94 163.91 172.02 162.21 172.87 160.04C173.16 159.29 173.19 160.42 173.31 160.76C173.61 161.58 173.69 162.45 174.03 163.26C174.13 163.51 174.51 162.1 174.54 161.84C174.75 160.45 175.35 159.07 175.76 157.74C176.13 156.54 176.42 155.33 176.42 154.07C176.42 153.9 176.15 152.2 176.56 152.93C176.81 153.36 178.86 155.98 179.29 155.63C179.53 155.43 179.31 153.69 179.31 153.35C179.31 152.34 179.57 151.34 179.45 150.33C179.29 148.97 179.29 147.6 179.18 146.23H179.19Z" fill="#EFC878"/>
</svg>
