<svg width="224" height="258" viewBox="0 0 224 258" fill="none" xmlns="http://www.w3.org/2000/svg">
<path d="M112.19 223.14C173.726 223.14 223.61 173.256 223.61 111.72C223.61 50.1845 173.726 0.300049 112.19 0.300049C50.6544 0.300049 0.769989 50.1845 0.769989 111.72C0.769989 173.256 50.6544 223.14 112.19 223.14Z" fill="#8BA1CC"/>
<path d="M83.58 244.35V246.12H77.98V250.02H82.35V251.79H77.98V257.57H75.81V244.36H83.58V244.35Z" fill="#A8A8A8"/>
<path d="M87.46 257.06C86.66 256.61 86.03 255.98 85.58 255.16C85.12 254.34 84.9 253.4 84.9 252.32C84.9 251.24 85.13 250.31 85.6 249.49C86.07 248.67 86.71 248.03 87.52 247.59C88.33 247.15 89.24 246.92 90.24 246.92C91.24 246.92 92.15 247.14 92.96 247.59C93.77 248.03 94.41 248.67 94.88 249.49C95.35 250.31 95.58 251.26 95.58 252.32C95.58 253.38 95.34 254.33 94.86 255.15C94.38 255.97 93.72 256.61 92.89 257.06C92.06 257.51 91.15 257.73 90.14 257.73C89.13 257.73 88.26 257.51 87.46 257.06ZM91.71 255.45C92.2 255.18 92.59 254.78 92.9 254.25C93.2 253.72 93.36 253.07 93.36 252.31C93.36 251.55 93.21 250.91 92.92 250.38C92.63 249.85 92.24 249.46 91.76 249.19C91.28 248.92 90.76 248.79 90.2 248.79C89.64 248.79 89.13 248.92 88.65 249.19C88.17 249.46 87.8 249.85 87.52 250.38C87.24 250.91 87.1 251.55 87.1 252.31C87.1 253.44 87.39 254.31 87.96 254.92C88.54 255.54 89.26 255.84 90.14 255.84C90.7 255.84 91.22 255.71 91.71 255.44V255.45Z" fill="#A8A8A8"/>
<path d="M101.15 247.37C101.68 247.07 102.3 246.92 103.02 246.92V249.16H102.47C101.62 249.16 100.98 249.38 100.54 249.81C100.1 250.24 99.88 250.99 99.88 252.05V257.56H97.71V247.09H99.88V248.61C100.2 248.08 100.62 247.66 101.14 247.37H101.15Z" fill="#A8A8A8"/>
<path d="M119.9 247.43C120.55 247.77 121.07 248.28 121.44 248.95C121.81 249.62 122 250.43 122 251.38V257.55H119.85V251.7C119.85 250.76 119.62 250.04 119.15 249.54C118.68 249.04 118.04 248.79 117.23 248.79C116.42 248.79 115.78 249.04 115.3 249.54C114.83 250.04 114.59 250.76 114.59 251.7V257.55H112.44V251.7C112.44 250.76 112.21 250.04 111.74 249.54C111.27 249.04 110.63 248.79 109.82 248.79C109.01 248.79 108.37 249.04 107.89 249.54C107.42 250.04 107.18 250.76 107.18 251.7V257.55H105.01V247.08H107.18V248.28C107.53 247.85 107.98 247.51 108.53 247.27C109.07 247.03 109.66 246.91 110.28 246.91C111.12 246.91 111.86 247.09 112.52 247.44C113.18 247.8 113.69 248.31 114.04 248.98C114.36 248.35 114.85 247.84 115.52 247.47C116.19 247.1 116.91 246.91 117.69 246.91C118.51 246.91 119.25 247.08 119.9 247.42V247.43Z" fill="#A8A8A8"/>
<path d="M124.69 249.48C125.13 248.67 125.72 248.04 126.48 247.59C127.23 247.14 128.07 246.92 128.98 246.92C129.8 246.92 130.52 247.08 131.14 247.4C131.75 247.72 132.24 248.12 132.61 248.61V247.09H134.8V257.56H132.61V256C132.24 256.49 131.74 256.91 131.11 257.23C130.48 257.56 129.75 257.72 128.94 257.72C128.04 257.72 127.22 257.49 126.47 257.03C125.72 256.57 125.13 255.92 124.69 255.09C124.25 254.26 124.03 253.32 124.03 252.27C124.03 251.22 124.25 250.29 124.69 249.48ZM132.16 250.43C131.86 249.9 131.47 249.49 130.99 249.21C130.51 248.93 129.99 248.79 129.43 248.79C128.87 248.79 128.35 248.93 127.87 249.2C127.39 249.47 127 249.87 126.7 250.4C126.4 250.93 126.25 251.55 126.25 252.27C126.25 252.99 126.4 253.63 126.7 254.17C127 254.71 127.39 255.13 127.88 255.41C128.37 255.7 128.88 255.84 129.43 255.84C129.98 255.84 130.51 255.7 130.99 255.42C131.47 255.14 131.86 254.73 132.16 254.19C132.46 253.65 132.61 253.02 132.61 252.3C132.61 251.58 132.46 250.95 132.16 250.42V250.43Z" fill="#A8A8A8"/>
<path d="M139.22 257.28C138.57 256.98 138.05 256.58 137.67 256.06C137.29 255.55 137.09 254.97 137.06 254.34H139.3C139.34 254.78 139.55 255.15 139.94 255.45C140.33 255.75 140.81 255.9 141.39 255.9C141.97 255.9 142.47 255.78 142.81 255.55C143.15 255.32 143.31 255.02 143.31 254.65C143.31 254.26 143.12 253.97 142.75 253.78C142.38 253.59 141.78 253.38 140.97 253.15C140.18 252.94 139.54 252.73 139.05 252.52C138.56 252.32 138.13 252.01 137.77 251.59C137.41 251.17 137.23 250.62 137.23 249.94C137.23 249.38 137.39 248.87 137.72 248.41C138.05 247.95 138.52 247.58 139.14 247.32C139.75 247.05 140.46 246.92 141.26 246.92C142.45 246.92 143.41 247.22 144.14 247.82C144.87 248.42 145.26 249.24 145.31 250.28H143.14C143.1 249.81 142.91 249.44 142.57 249.16C142.23 248.88 141.77 248.74 141.18 248.74C140.59 248.74 140.17 248.85 139.87 249.06C139.57 249.28 139.41 249.56 139.41 249.92C139.41 250.2 139.51 250.43 139.71 250.62C139.91 250.81 140.16 250.96 140.45 251.07C140.74 251.18 141.17 251.31 141.74 251.48C142.5 251.68 143.12 251.89 143.61 252.1C144.1 252.31 144.52 252.62 144.87 253.02C145.22 253.43 145.41 253.96 145.42 254.64C145.42 255.24 145.26 255.77 144.93 256.24C144.6 256.71 144.14 257.08 143.53 257.34C142.93 257.61 142.22 257.74 141.41 257.74C140.6 257.74 139.85 257.59 139.2 257.29L139.22 257.28Z" fill="#A8A8A8"/>
<path d="M71.43 140.17C96.5313 140.17 116.88 119.821 116.88 94.72C116.88 69.6187 96.5313 49.27 71.43 49.27C46.3287 49.27 25.98 69.6187 25.98 94.72C25.98 119.821 46.3287 140.17 71.43 140.17Z" fill="#7285A5"/>
<path d="M71.43 137.17C96.5313 137.17 116.88 116.821 116.88 91.72C116.88 66.6187 96.5313 46.27 71.43 46.27C46.3287 46.27 25.98 66.6187 25.98 91.72C25.98 116.821 46.3287 137.17 71.43 137.17Z" fill="#EBACB2"/>
<path d="M195.891 89.4245L142.932 67.2604L120.768 120.219L173.727 142.384L195.891 89.4245Z" fill="#7285A5"/>
<path d="M198.891 87.4278L145.932 65.2637L123.768 118.223L176.727 140.387L198.891 87.4278Z" fill="#FFE3AC"/>
<path d="M69 170.11L111.95 132.03L150.04 174.99L69 170.11Z" fill="#7285A5"/>
<path d="M75 167.11L117.95 129.03L156.04 171.99L75 167.11Z" fill="#C0F2C3"/>
</svg>
