<svg width="224" height="262" viewBox="0 0 224 262" fill="none" xmlns="http://www.w3.org/2000/svg">
<path d="M111.6 223.14C173.136 223.14 223.02 173.256 223.02 111.72C223.02 50.1844 173.136 0.299988 111.6 0.299988C50.0644 0.299988 0.179993 50.1844 0.179993 111.72C0.179993 173.256 50.0644 223.14 111.6 223.14Z" fill="#EEC7A1"/>
<path d="M77.19 259.81H81.65V261.56H75.02V248.35H77.19V259.81Z" fill="#A8A8A8"/>
<path d="M92.98 257.13H84.98C85.04 257.97 85.35 258.64 85.91 259.14C86.47 259.65 87.15 259.9 87.96 259.9C89.13 259.9 89.95 259.41 90.43 258.44H92.77C92.45 259.4 91.88 260.19 91.05 260.81C90.22 261.43 89.19 261.73 87.96 261.73C86.96 261.73 86.06 261.51 85.27 261.06C84.48 260.61 83.86 259.98 83.41 259.16C82.96 258.34 82.74 257.4 82.74 256.32C82.74 255.24 82.96 254.3 83.4 253.48C83.84 252.66 84.45 252.03 85.24 251.59C86.03 251.15 86.94 250.92 87.97 250.92C89 250.92 89.84 251.13 90.61 251.57C91.38 252 91.98 252.61 92.41 253.38C92.84 254.16 93.06 255.06 93.06 256.07C93.06 256.46 93.03 256.82 92.98 257.13ZM90.79 255.38C90.78 254.58 90.49 253.94 89.94 253.46C89.38 252.98 88.69 252.74 87.87 252.74C87.12 252.74 86.48 252.98 85.95 253.45C85.42 253.92 85.1 254.57 85 255.38H90.79Z" fill="#A8A8A8"/>
<path d="M97.71 252.86V258.65C97.71 259.04 97.8 259.32 97.99 259.5C98.17 259.67 98.49 259.76 98.93 259.76H100.26V261.56H98.55C97.57 261.56 96.83 261.33 96.31 260.88C95.79 260.42 95.53 259.68 95.53 258.66V252.87H94.29V251.1H95.53V248.5H97.71V251.1H100.26V252.87H97.71V252.86Z" fill="#A8A8A8"/>
<path d="M105.68 251.37C106.21 251.07 106.83 250.92 107.55 250.92V253.16H107C106.15 253.16 105.51 253.38 105.07 253.81C104.63 254.24 104.41 254.99 104.41 256.05V261.56H102.24V251.09H104.41V252.61C104.73 252.08 105.15 251.66 105.67 251.37H105.68Z" fill="#A8A8A8"/>
<path d="M109.48 253.48C109.92 252.67 110.51 252.04 111.27 251.59C112.02 251.14 112.86 250.92 113.77 250.92C114.59 250.92 115.31 251.08 115.93 251.4C116.54 251.72 117.03 252.12 117.4 252.61V251.09H119.59V261.56H117.4V260C117.03 260.49 116.53 260.91 115.9 261.23C115.27 261.56 114.54 261.72 113.73 261.72C112.83 261.72 112.01 261.49 111.26 261.03C110.51 260.57 109.92 259.92 109.48 259.09C109.04 258.26 108.82 257.32 108.82 256.27C108.82 255.22 109.04 254.29 109.48 253.48ZM116.95 254.43C116.65 253.9 116.26 253.49 115.78 253.21C115.3 252.93 114.78 252.79 114.22 252.79C113.66 252.79 113.14 252.93 112.66 253.2C112.18 253.47 111.79 253.87 111.49 254.4C111.19 254.93 111.04 255.55 111.04 256.27C111.04 256.99 111.19 257.63 111.49 258.17C111.79 258.71 112.18 259.13 112.67 259.41C113.16 259.7 113.67 259.84 114.22 259.84C114.77 259.84 115.3 259.7 115.78 259.42C116.26 259.14 116.65 258.73 116.95 258.19C117.25 257.65 117.4 257.02 117.4 256.3C117.4 255.58 117.25 254.95 116.95 254.42V254.43Z" fill="#A8A8A8"/>
<path d="M124.01 261.28C123.36 260.98 122.84 260.58 122.46 260.06C122.08 259.55 121.88 258.97 121.85 258.34H124.09C124.13 258.78 124.34 259.15 124.73 259.45C125.12 259.75 125.6 259.9 126.18 259.9C126.76 259.9 127.26 259.78 127.6 259.55C127.94 259.32 128.1 259.02 128.1 258.65C128.1 258.26 127.91 257.97 127.54 257.78C127.17 257.59 126.57 257.38 125.76 257.15C124.97 256.94 124.33 256.73 123.84 256.52C123.35 256.32 122.92 256.01 122.56 255.59C122.2 255.17 122.02 254.62 122.02 253.94C122.02 253.38 122.18 252.87 122.51 252.41C122.84 251.95 123.31 251.58 123.93 251.32C124.54 251.05 125.25 250.92 126.05 250.92C127.24 250.92 128.2 251.22 128.93 251.82C129.66 252.42 130.05 253.24 130.1 254.28H127.93C127.89 253.81 127.7 253.44 127.36 253.16C127.02 252.88 126.56 252.74 125.97 252.74C125.38 252.74 124.96 252.85 124.66 253.06C124.36 253.28 124.2 253.56 124.2 253.92C124.2 254.2 124.3 254.43 124.5 254.62C124.7 254.81 124.95 254.96 125.24 255.07C125.53 255.18 125.96 255.31 126.53 255.48C127.29 255.68 127.91 255.89 128.4 256.1C128.89 256.31 129.31 256.62 129.66 257.02C130.01 257.43 130.2 257.96 130.21 258.64C130.21 259.24 130.05 259.77 129.72 260.24C129.39 260.71 128.93 261.08 128.32 261.34C127.72 261.61 127.01 261.74 126.2 261.74C125.39 261.74 124.64 261.59 123.99 261.29L124.01 261.28Z" fill="#A8A8A8"/>
<path d="M98.67 84.86H74.57L70.71 96.27H54.24L77.61 31.69H95.83L119.2 96.27H102.55L98.69 84.86H98.67ZM94.63 72.71L86.63 49.07L78.72 72.71H94.64H94.63Z" fill="#C9A689"/>
<path d="M95.67 81.86H71.57L67.71 93.27H51.24L74.61 28.69H92.83L116.2 93.27H99.55L95.69 81.86H95.67ZM91.63 69.71L83.63 46.07L75.72 69.71H91.64H91.63Z" fill="#8BA1CC"/>
<path d="M102.38 145.86C105.44 147.93 107.55 150.74 108.71 154.3C110.38 159.43 109.92 164.08 107.31 168.25C104.7 172.42 100.19 175.55 93.78 177.64L65.18 186.96L45.17 125.55L72.81 116.54C79.05 114.51 84.4 114.34 88.86 116.05C93.32 117.76 96.35 121.06 97.94 125.96C99.12 129.58 99.15 132.89 98.03 135.9C96.91 138.91 94.93 141.39 92.09 143.35C95.89 142.95 99.33 143.78 102.39 145.85L102.38 145.86ZM68.21 145.53L78.01 142.34C80.46 141.54 82.16 140.39 83.13 138.88C84.09 137.37 84.23 135.57 83.54 133.47C82.86 131.37 81.68 129.98 80.01 129.3C78.34 128.62 76.27 128.68 73.83 129.48L64.03 132.67L68.22 145.53H68.21ZM92.47 162.83C93.47 161.25 93.62 159.38 92.92 157.22C92.22 155.06 90.95 153.6 89.12 152.85C87.29 152.09 85.12 152.12 82.62 152.94L71.77 156.47L76.19 170.03L87.21 166.44C89.72 165.62 91.47 164.42 92.47 162.84V162.83Z" fill="#C9A689"/>
<path d="M100.38 142.86C103.44 144.93 105.55 147.74 106.71 151.3C108.38 156.43 107.92 161.08 105.31 165.25C102.7 169.42 98.19 172.55 91.78 174.64L63.18 183.96L43.17 122.55L70.81 113.54C77.05 111.51 82.4 111.34 86.86 113.05C91.32 114.76 94.35 118.06 95.94 122.96C97.12 126.58 97.15 129.89 96.03 132.9C94.91 135.91 92.93 138.39 90.09 140.35C93.89 139.95 97.33 140.78 100.39 142.85L100.38 142.86ZM66.21 142.53L76.01 139.34C78.46 138.54 80.16 137.39 81.13 135.88C82.09 134.37 82.23 132.57 81.54 130.47C80.86 128.37 79.68 126.98 78.01 126.3C76.34 125.62 74.27 125.68 71.83 126.48L62.03 129.67L66.22 142.53H66.21ZM90.47 159.83C91.47 158.25 91.62 156.38 90.92 154.22C90.22 152.06 88.95 150.6 87.12 149.85C85.29 149.09 83.12 149.12 80.62 149.94L69.77 153.47L74.19 167.03L85.21 163.44C87.72 162.62 89.47 161.42 90.47 159.84V159.83Z" fill="#C0F2C3"/>
<path d="M133.03 102.62C137 98.52 141.74 95.77 147.24 94.37C152.74 92.97 158.5 93.09 164.54 94.73C171.94 96.74 177.74 100.41 181.95 105.75C186.16 111.09 188.23 117.37 188.17 124.6L171.48 120.07C170.94 117.13 169.72 114.67 167.81 112.69C165.9 110.71 163.5 109.32 160.6 108.54C155.92 107.27 151.69 107.87 147.91 110.34C144.12 112.81 141.49 116.76 140.01 122.21C138.53 127.66 138.8 132.4 140.81 136.44C142.82 140.48 146.17 143.14 150.85 144.41C153.75 145.2 156.52 145.22 159.17 144.48C161.82 143.74 164.12 142.23 166.07 139.97L182.76 144.5C179.15 150.76 174.18 155.12 167.86 157.57C161.54 160.02 154.68 160.23 147.28 158.22C141.24 156.58 136.21 153.77 132.17 149.78C128.14 145.79 125.44 141.04 124.08 135.52C122.72 130 122.88 124.17 124.55 118.01C126.22 111.85 129.05 106.73 133.02 102.63L133.03 102.62Z" fill="#C9A689"/>
<path d="M136.03 101.62C140 97.52 144.74 94.77 150.24 93.37C155.74 91.97 161.5 92.09 167.54 93.73C174.94 95.74 180.74 99.41 184.95 104.75C189.16 110.09 191.23 116.37 191.17 123.6L174.48 119.07C173.94 116.13 172.72 113.67 170.81 111.69C168.9 109.71 166.5 108.32 163.6 107.54C158.92 106.27 154.69 106.87 150.91 109.34C147.12 111.81 144.49 115.76 143.01 121.21C141.53 126.66 141.8 131.4 143.81 135.44C145.82 139.48 149.17 142.14 153.85 143.41C156.75 144.2 159.52 144.22 162.17 143.48C164.82 142.74 167.12 141.23 169.07 138.97L185.76 143.5C182.15 149.76 177.18 154.12 170.86 156.57C164.54 159.02 157.68 159.23 150.28 157.22C144.24 155.58 139.21 152.77 135.17 148.78C131.14 144.79 128.44 140.04 127.08 134.52C125.72 129 125.88 123.17 127.55 117.01C129.22 110.85 132.05 105.73 136.02 101.63L136.03 101.62Z" fill="#C8A9F2"/>
</svg>
