<svg width="224" height="262" viewBox="0 0 224 262" fill="none" xmlns="http://www.w3.org/2000/svg">
<path d="M112.19 223.14C173.726 223.14 223.61 173.256 223.61 111.72C223.61 50.1844 173.726 0.299988 112.19 0.299988C50.6544 0.299988 0.77002 50.1844 0.77002 111.72C0.77002 173.256 50.6544 223.14 112.19 223.14Z" fill="#E1A9AF"/>
<path d="M80.12 261.56H77.95L71.43 251.7V261.56H69.26V248.34H71.43L77.95 258.18V248.34H80.12V261.56Z" fill="#A8A8A8"/>
<path d="M92.45 251.09V261.56H90.28V260.32C89.94 260.75 89.49 261.09 88.94 261.34C88.39 261.59 87.8 261.71 87.18 261.71C86.36 261.71 85.62 261.54 84.97 261.2C84.32 260.86 83.8 260.35 83.43 259.68C83.06 259.01 82.87 258.2 82.87 257.25V251.09H85.02V256.92C85.02 257.86 85.25 258.58 85.72 259.08C86.19 259.58 86.83 259.83 87.64 259.83C88.45 259.83 89.09 259.58 89.57 259.08C90.04 258.58 90.28 257.86 90.28 256.92V251.09H92.45ZM89.68 248.28L85.48 250.35V248.75L89.68 246.43V248.27V248.28Z" fill="#A8A8A8"/>
<path d="M110.19 251.43C110.84 251.77 111.36 252.28 111.73 252.95C112.1 253.62 112.29 254.43 112.29 255.38V261.55H110.14V255.7C110.14 254.76 109.91 254.04 109.44 253.54C108.97 253.04 108.33 252.79 107.52 252.79C106.71 252.79 106.07 253.04 105.59 253.54C105.12 254.04 104.88 254.76 104.88 255.7V261.55H102.73V255.7C102.73 254.76 102.5 254.04 102.03 253.54C101.56 253.04 100.92 252.79 100.11 252.79C99.3 252.79 98.66 253.04 98.18 253.54C97.71 254.04 97.47 254.76 97.47 255.7V261.55H95.3V251.08H97.47V252.28C97.82 251.85 98.27 251.51 98.82 251.27C99.36 251.03 99.95 250.91 100.57 250.91C101.41 250.91 102.15 251.09 102.81 251.44C103.47 251.8 103.98 252.31 104.33 252.98C104.65 252.35 105.14 251.84 105.81 251.47C106.48 251.1 107.2 250.91 107.98 250.91C108.8 250.91 109.54 251.08 110.19 251.42V251.43Z" fill="#A8A8A8"/>
<path d="M124.56 257.13H116.56C116.62 257.97 116.93 258.64 117.49 259.14C118.05 259.65 118.73 259.9 119.54 259.9C120.71 259.9 121.53 259.41 122.01 258.44H124.35C124.03 259.4 123.46 260.19 122.63 260.81C121.8 261.43 120.77 261.73 119.54 261.73C118.54 261.73 117.64 261.51 116.85 261.06C116.06 260.61 115.44 259.98 114.99 259.16C114.54 258.34 114.32 257.4 114.32 256.32C114.32 255.24 114.54 254.3 114.98 253.48C115.42 252.66 116.03 252.03 116.82 251.59C117.61 251.15 118.52 250.92 119.55 250.92C120.58 250.92 121.42 251.13 122.19 251.57C122.96 252 123.56 252.61 123.99 253.38C124.42 254.16 124.64 255.06 124.64 256.07C124.64 256.46 124.61 256.82 124.56 257.13ZM122.37 255.38C122.36 254.58 122.07 253.94 121.52 253.46C120.96 252.98 120.27 252.74 119.45 252.74C118.7 252.74 118.06 252.98 117.53 253.45C117 253.92 116.68 254.57 116.58 255.38H122.37Z" fill="#A8A8A8"/>
<path d="M130.19 251.37C130.72 251.07 131.34 250.92 132.06 250.92V253.16H131.51C130.66 253.16 130.02 253.38 129.58 253.81C129.14 254.24 128.92 254.99 128.92 256.05V261.56H126.75V251.09H128.92V252.61C129.24 252.08 129.66 251.66 130.18 251.37H130.19Z" fill="#A8A8A8"/>
<path d="M135.92 261.06C135.12 260.61 134.49 259.98 134.04 259.16C133.58 258.34 133.36 257.4 133.36 256.32C133.36 255.24 133.59 254.31 134.06 253.49C134.53 252.67 135.17 252.03 135.98 251.59C136.79 251.15 137.7 250.92 138.7 250.92C139.7 250.92 140.61 251.14 141.42 251.59C142.23 252.03 142.87 252.67 143.34 253.49C143.81 254.31 144.04 255.26 144.04 256.32C144.04 257.38 143.8 258.33 143.32 259.15C142.84 259.97 142.18 260.61 141.35 261.06C140.52 261.51 139.61 261.73 138.6 261.73C137.59 261.73 136.72 261.51 135.92 261.06ZM140.17 259.45C140.66 259.18 141.05 258.78 141.36 258.25C141.66 257.72 141.82 257.07 141.82 256.31C141.82 255.55 141.67 254.91 141.38 254.38C141.09 253.85 140.7 253.46 140.22 253.19C139.74 252.92 139.22 252.79 138.66 252.79C138.1 252.79 137.59 252.92 137.11 253.19C136.63 253.46 136.26 253.85 135.98 254.38C135.7 254.91 135.56 255.55 135.56 256.31C135.56 257.44 135.85 258.31 136.42 258.92C137 259.54 137.72 259.84 138.6 259.84C139.16 259.84 139.68 259.71 140.17 259.44V259.45Z" fill="#A8A8A8"/>
<path d="M147.77 261.28C147.12 260.98 146.6 260.58 146.22 260.06C145.84 259.55 145.64 258.97 145.61 258.34H147.85C147.89 258.78 148.1 259.15 148.49 259.45C148.88 259.75 149.36 259.9 149.94 259.9C150.52 259.9 151.02 259.78 151.36 259.55C151.7 259.32 151.86 259.02 151.86 258.65C151.86 258.26 151.67 257.97 151.3 257.78C150.93 257.59 150.33 257.38 149.52 257.15C148.73 256.94 148.09 256.73 147.6 256.52C147.11 256.32 146.68 256.01 146.32 255.59C145.96 255.17 145.78 254.62 145.78 253.94C145.78 253.38 145.94 252.87 146.27 252.41C146.6 251.95 147.07 251.58 147.69 251.32C148.3 251.05 149.01 250.92 149.81 250.92C151 250.92 151.96 251.22 152.69 251.82C153.42 252.42 153.81 253.24 153.86 254.28H151.69C151.65 253.81 151.46 253.44 151.12 253.16C150.78 252.88 150.32 252.74 149.73 252.74C149.14 252.74 148.72 252.85 148.42 253.06C148.12 253.28 147.96 253.56 147.96 253.92C147.96 254.2 148.06 254.43 148.26 254.62C148.46 254.81 148.71 254.96 149 255.07C149.29 255.18 149.72 255.31 150.29 255.48C151.05 255.68 151.67 255.89 152.16 256.1C152.65 256.31 153.07 256.62 153.42 257.02C153.77 257.43 153.96 257.96 153.97 258.64C153.97 259.24 153.81 259.77 153.48 260.24C153.15 260.71 152.69 261.08 152.08 261.34C151.48 261.61 150.77 261.74 149.96 261.74C149.15 261.74 148.4 261.59 147.75 261.29L147.77 261.28Z" fill="#A8A8A8"/>
<path d="M46.04 73.36L49.92 57.99L76.7 64.75L58.88 135.34L41.67 130.99L55.61 75.78L46.04 73.36Z" fill="#B58A90"/>
<path d="M45.04 70.36L48.92 54.99L75.7 61.75L57.88 132.34L40.67 127.99L54.61 72.78L45.04 70.36Z" fill="#F1C9A2"/>
<path d="M86.15 168.11C92.66 162.73 97.8 158.3 101.56 154.85C105.31 151.39 108.49 147.77 111.08 143.98C113.67 140.19 114.97 136.5 114.97 132.91C114.97 130.18 114.34 128.06 113.08 126.53C111.82 125 109.92 124.24 107.4 124.24C104.88 124.24 102.9 125.19 101.47 127.08C100.04 128.97 99.33 131.65 99.33 135.11H82.88C83.01 129.46 84.23 124.74 86.52 120.95C88.81 117.16 91.84 114.37 95.6 112.57C99.36 110.77 103.53 109.88 108.12 109.88C116.03 109.88 122 111.91 126.02 115.96C130.04 120.02 132.05 125.3 132.05 131.82C132.05 138.94 129.62 145.53 124.77 151.62C119.92 157.7 113.73 163.64 106.22 169.42H133.15V183.28H83.09V170.61C85.35 168.82 86.38 167.98 86.18 168.12L86.15 168.11Z" fill="#B58A90"/>
<path d="M87.15 171.11C93.66 165.73 98.8 161.3 102.56 157.85C106.31 154.39 109.49 150.77 112.08 146.98C114.67 143.19 115.97 139.5 115.97 135.91C115.97 133.18 115.34 131.06 114.08 129.53C112.82 128 110.92 127.24 108.4 127.24C105.88 127.24 103.9 128.19 102.47 130.08C101.04 131.97 100.33 134.65 100.33 138.11H83.88C84.01 132.46 85.23 127.74 87.52 123.95C89.81 120.16 92.84 117.37 96.6 115.57C100.36 113.77 104.53 112.88 109.12 112.88C117.03 112.88 123 114.91 127.02 118.96C131.04 123.02 133.05 128.3 133.05 134.82C133.05 141.94 130.62 148.53 125.77 154.62C120.92 160.7 114.73 166.64 107.22 172.42H134.15V186.28H84.09V173.61C86.35 171.82 87.38 170.98 87.18 171.12L87.15 171.11Z" fill="#8BA1CC"/>
<path d="M127.51 60.96C130.43 55.9 135.45 52.17 142.57 49.76C147.29 48.16 151.62 47.61 155.54 48.11C159.46 48.61 162.77 49.98 165.46 52.23C168.15 54.48 170.09 57.37 171.28 60.89C172.69 65.05 172.79 68.78 171.6 72.1C170.41 75.42 168.58 78.02 166.13 79.9L166.26 80.28C170.25 80.26 173.76 81.29 176.77 83.36C179.79 85.43 182.03 88.64 183.5 92.98C184.82 96.89 185.09 100.64 184.31 104.23C183.53 107.82 181.71 111.06 178.85 113.92C175.99 116.78 172.2 119.01 167.48 120.61C159.92 123.17 153.26 123.35 147.5 121.16C141.74 118.97 137.47 114.17 134.68 106.76L150.36 101.46C151.36 104.21 152.89 106.13 154.94 107.23C156.99 108.33 159.47 108.38 162.37 107.4C164.83 106.57 166.49 105.22 167.37 103.34C168.24 101.46 168.29 99.36 167.5 97.03C166.48 94.01 164.78 92.14 162.4 91.44C160.02 90.74 156.72 91.1 152.5 92.52L149.48 93.54L145.04 80.41L148.06 79.39C151.27 78.3 153.68 76.87 155.3 75.1C156.91 73.33 157.24 71.02 156.28 68.19C155.51 65.92 154.29 64.37 152.6 63.54C150.91 62.71 148.97 62.66 146.76 63.41C144.37 64.22 142.83 65.55 142.16 67.39C141.48 69.23 141.41 71.26 141.95 73.46L126.17 78.8C124.14 71.98 124.59 66.03 127.51 60.98V60.96Z" fill="#B58A90"/>
<path d="M128.51 57.96C131.43 52.9 136.45 49.17 143.57 46.76C148.29 45.16 152.62 44.61 156.54 45.11C160.46 45.61 163.77 46.98 166.46 49.23C169.15 51.48 171.09 54.37 172.28 57.89C173.69 62.05 173.79 65.78 172.6 69.1C171.41 72.42 169.58 75.02 167.13 76.9L167.26 77.28C171.25 77.26 174.76 78.29 177.77 80.36C180.79 82.43 183.03 85.64 184.5 89.98C185.82 93.89 186.09 97.64 185.31 101.23C184.53 104.82 182.71 108.06 179.85 110.92C176.99 113.78 173.2 116.01 168.48 117.61C160.92 120.17 154.26 120.35 148.5 118.16C142.74 115.97 138.47 111.17 135.68 103.76L151.36 98.46C152.36 101.21 153.89 103.13 155.94 104.23C157.99 105.33 160.47 105.38 163.37 104.4C165.83 103.57 167.49 102.22 168.37 100.34C169.24 98.46 169.29 96.36 168.5 94.03C167.48 91.01 165.78 89.14 163.4 88.44C161.02 87.74 157.72 88.1 153.5 89.52L150.48 90.54L146.04 77.41L149.06 76.39C152.27 75.3 154.68 73.87 156.3 72.1C157.91 70.33 158.24 68.02 157.28 65.19C156.51 62.92 155.29 61.37 153.6 60.54C151.91 59.71 149.97 59.66 147.76 60.41C145.37 61.22 143.83 62.55 143.16 64.39C142.48 66.23 142.41 68.26 142.95 70.46L127.17 75.8C125.14 68.98 125.59 63.03 128.51 57.98V57.96Z" fill="#C0F2C3"/>
</svg>
