<svg width="224" height="263" viewBox="0 0 224 263" fill="none" xmlns="http://www.w3.org/2000/svg">
<path d="M111.68 223.14C173.216 223.14 223.1 173.256 223.1 111.72C223.1 50.1845 173.216 0.300049 111.68 0.300049C50.1444 0.300049 0.26001 50.1845 0.26001 111.72C0.26001 173.256 50.1444 223.14 111.68 223.14Z" fill="#C0F2C3"/>
<path d="M70.21 108.42L69.57 108.67L67.58 103.53L50.1501 110.27L52.14 115.41L51.5 115.66C42.23 119.24 37.62 129.66 41.21 138.93L54.5901 180.18C58.1701 189.45 68.59 194.06 77.86 190.47L101.04 181.51C110.31 177.93 114.92 167.51 111.33 158.24L93.48 118.72C89.9 109.45 79.48 104.84 70.21 108.43V108.42Z" fill="#9AC19B"/>
<mask id="mask0_156_2" style="mask-type:luminance" maskUnits="userSpaceOnUse" x="39" y="103" width="74" height="89">
<path d="M70.21 108.42L69.57 108.67L67.58 103.53L50.1501 110.27L52.14 115.41L51.5 115.66C42.23 119.24 37.62 129.66 41.21 138.93L54.5901 180.18C58.1701 189.45 68.59 194.06 77.86 190.47L101.04 181.51C110.31 177.93 114.92 167.51 111.33 158.24L93.48 118.72C89.9 109.45 79.48 104.84 70.21 108.43V108.42Z" fill="white"/>
</mask>
<g mask="url(#mask0_156_2)">
<path d="M47.79 154.73C48.09 155.39 49.57 178.03 67.86 183.96C86.4 189.96 102.32 181.05 104.07 179.79C105.82 178.53 63.07 204 55.52 184.86C47.97 165.72 47.79 154.74 47.79 154.74V154.73Z" fill="#9AC19B"/>
</g>
<path d="M71.604 129.137L64.4501 131.903C54.7659 135.648 49.9509 146.534 53.6955 156.218C57.4401 165.902 68.3263 170.717 78.0105 166.973L85.1644 164.206C94.8486 160.462 99.6636 149.576 95.919 139.891C92.1744 130.207 81.2882 125.392 71.604 129.137Z" fill="#9AC19B"/>
<path d="M48.7 103.39L47.23 99.5899C47.23 99.5899 47.69 98.13 48.9 97.92C50.1 97.71 45 77.8599 45 77.8599C45 77.8599 45.44 73.07 49.46 76.14L59.99 93.38C59.99 93.38 62.5 93.57 63.4 94.89C64.3 96.21 64.59 97 64.59 97L48.71 103.4L48.7 103.39Z" fill="#9AC19B"/>
<path d="M59.7556 95.9705L50.9042 99.3931C47.5096 100.706 45.821 104.52 47.1326 107.912C48.4442 111.304 52.2593 112.989 55.654 111.677L64.5053 108.254C67.8999 106.942 69.5885 103.128 68.2769 99.7358C66.9653 96.3437 63.1502 94.6579 59.7556 95.9705Z" fill="#9AC19B"/>
<path d="M48.0488 102.299L46.7057 102.818L50.1607 111.754L51.5038 111.234L48.0488 102.299Z" fill="#9AC19B"/>
<path d="M50.1911 101.46L48.8481 101.979L52.3031 110.915L53.6461 110.395L50.1911 101.46Z" fill="#9AC19B"/>
<path d="M52.3471 100.631L51.004 101.15L54.459 110.085L55.8021 109.566L52.3471 100.631Z" fill="#9AC19B"/>
<path d="M54.4931 99.801L53.15 100.32L56.605 109.256L57.9481 108.736L54.4931 99.801Z" fill="#9AC19B"/>
<path d="M56.6391 98.9715L55.296 99.4908L58.751 108.426L60.0941 107.907L56.6391 98.9715Z" fill="#9AC19B"/>
<path d="M58.7951 98.142L57.452 98.6614L60.907 107.597L62.2501 107.077L58.7951 98.142Z" fill="#9AC19B"/>
<path d="M60.9409 97.3125L59.5979 97.8318L63.0529 106.767L64.396 106.248L60.9409 97.3125Z" fill="#9AC19B"/>
<path d="M63.0969 96.4829L61.7538 97.0022L65.2088 105.937L66.5519 105.418L63.0969 96.4829Z" fill="#9AC19B"/>
<path d="M65.2429 95.6534L63.8998 96.1727L67.3549 105.108L68.6979 104.589L65.2429 95.6534Z" fill="#9AC19B"/>
<path d="M68.7237 106.629L51.5247 113.28L52.0441 114.623L69.2431 107.972L68.7237 106.629Z" fill="#9AC19B"/>
<path d="M73.45 114.63C79.81 114.37 84.7 117.83 88.55 122.59C90.34 124.81 93.46 121.66 91.68 119.46C87.14 113.84 80.87 109.89 73.45 110.2C70.61 110.32 70.6 114.75 73.45 114.63Z" fill="#9AC19B"/>
<path d="M69.44 148.21L67.18 149.09L66.6 147.58C66.43 147.14 66.3 146.88 66.21 146.78C66.12 146.69 65.99 146.68 65.83 146.74C65.64 146.81 65.55 146.92 65.55 147.08C65.55 147.23 65.64 147.53 65.81 147.97L67.37 152.01C67.53 152.43 67.67 152.7 67.77 152.81C67.87 152.92 68.01 152.94 68.18 152.87C68.35 152.8 68.43 152.7 68.44 152.55C68.44 152.4 68.35 152.09 68.17 151.61L67.75 150.52L70.01 149.64L70.14 149.98C70.49 150.88 70.67 151.54 70.69 151.97C70.71 152.4 70.56 152.83 70.23 153.29C69.9 153.74 69.42 154.09 68.78 154.34C68.12 154.6 67.52 154.69 67 154.61C66.48 154.54 66.06 154.31 65.76 153.94C65.46 153.57 65.14 152.96 64.81 152.1L63.83 149.56C63.59 148.93 63.43 148.45 63.35 148.12C63.27 147.79 63.28 147.44 63.38 147.06C63.48 146.69 63.69 146.34 64 146.03C64.31 145.72 64.72 145.47 65.21 145.28C65.88 145.02 66.48 144.94 67.01 145.03C67.54 145.12 67.95 145.33 68.24 145.66C68.53 145.99 68.82 146.57 69.14 147.38L69.46 148.21H69.44Z" fill="#9AC19B"/>
<path d="M75.93 147.21C76.27 148.09 76.49 148.71 76.59 149.09C76.69 149.47 76.69 149.85 76.59 150.24C76.49 150.63 76.29 150.97 75.98 151.27C75.67 151.58 75.27 151.82 74.78 152.01C74.31 152.19 73.87 152.28 73.44 152.27C73.01 152.27 72.62 152.15 72.28 151.93C71.94 151.71 71.67 151.43 71.49 151.09C71.31 150.75 71.05 150.13 70.7 149.23L70.12 147.74C69.78 146.86 69.56 146.24 69.46 145.86C69.36 145.48 69.36 145.1 69.46 144.71C69.56 144.32 69.76 143.98 70.07 143.68C70.38 143.37 70.78 143.13 71.27 142.94C71.74 142.76 72.18 142.67 72.61 142.68C73.04 142.68 73.43 142.8 73.77 143.02C74.11 143.24 74.38 143.52 74.56 143.86C74.74 144.2 75.01 144.82 75.35 145.72L75.93 147.21ZM72.56 145.22C72.4 144.82 72.28 144.57 72.19 144.47C72.1 144.37 71.99 144.35 71.85 144.41C71.73 144.46 71.66 144.54 71.63 144.65C71.6 144.77 71.67 145.05 71.85 145.5L73.42 149.57C73.62 150.08 73.76 150.38 73.84 150.48C73.93 150.58 74.05 150.6 74.2 150.55C74.35 150.49 74.43 150.38 74.42 150.23C74.42 150.08 74.31 149.74 74.11 149.23L72.56 145.23V145.22Z" fill="#9AC19B"/>
<path d="M77.07 140.91L79.76 147.87L81.14 147.34L81.81 149.08L78.17 150.49L74.8 141.78L77.06 140.9L77.07 140.91Z" fill="#9AC19B"/>
<path d="M83.18 138.54L87.84 146.74L85.53 147.63L84.8 146.11L83.99 146.42L84.46 148.04L82.12 148.94L79.91 139.79L83.18 138.52V138.54ZM84.15 144.61C83.65 143.67 83.07 142.49 82.39 141.09C82.8 142.85 83.13 144.12 83.37 144.91L84.15 144.61Z" fill="#9AC19B"/>
<path d="M73.04 102.06L72.4 102.31L70.41 97.1699L52.98 103.91L54.97 109.05L54.33 109.3C45.06 112.88 40.45 123.3 44.04 132.57L57.42 173.82C61 183.09 71.42 187.7 80.69 184.11L103.87 175.15C113.14 171.57 117.75 161.15 114.16 151.88L96.31 112.36C92.73 103.09 82.31 98.4799 73.04 102.07V102.06Z" fill="#F2F2F2"/>
<mask id="mask1_156_2" style="mask-type:luminance" maskUnits="userSpaceOnUse" x="42" y="97" width="74" height="89">
<path d="M73.04 102.06L72.4 102.31L70.41 97.1699L52.98 103.91L54.97 109.05L54.33 109.3C45.06 112.88 40.45 123.3 44.04 132.57L57.42 173.82C61 183.09 71.42 187.7 80.69 184.11L103.87 175.15C113.14 171.57 117.75 161.15 114.16 151.88L96.31 112.36C92.73 103.09 82.31 98.4799 73.04 102.07V102.06Z" fill="white"/>
</mask>
<g mask="url(#mask1_156_2)">
<path d="M50.62 148.37C50.92 149.03 52.4 171.67 70.69 177.6C89.23 183.6 105.15 174.69 106.9 173.43C108.65 172.17 65.9 197.64 58.35 178.5C50.8 159.36 50.62 148.38 50.62 148.38V148.37Z" fill="#CECECE"/>
</g>
<path d="M74.4297 122.784L67.2759 125.55C57.5917 129.295 52.7767 140.181 56.5213 149.865C60.2659 159.549 71.1521 164.364 80.8363 160.62L87.9901 157.854C97.6743 154.109 102.489 143.223 98.7448 133.539C95.0002 123.855 84.1139 119.04 74.4297 122.784Z" fill="#C8A9F2"/>
<path d="M51.52 97.03L50.05 93.23C50.05 93.23 50.51 91.77 51.72 91.56C52.92 91.35 47.82 71.5 47.82 71.5C47.82 71.5 48.26 66.71 52.28 69.78L62.81 87.02C62.81 87.02 65.32 87.21 66.22 88.53C67.12 89.85 67.41 90.64 67.41 90.64L51.53 97.04L51.52 97.03Z" fill="#E1A9AF"/>
<path d="M62.5814 89.6079L53.73 93.0304C50.3354 94.343 48.6468 98.1569 49.9584 101.549C51.27 104.941 55.0851 106.627 58.4798 105.314L67.3311 101.892C70.7258 100.579 72.4144 96.7651 71.1028 93.3731C69.7912 89.981 65.976 88.2953 62.5814 89.6079Z" fill="#F1F0F1"/>
<path d="M50.871 95.9271L49.5279 96.4464L52.9829 105.382L54.326 104.862L50.871 95.9271Z" fill="#D8D8D8"/>
<path d="M53.0269 95.0976L51.6838 95.6169L55.1388 104.552L56.4819 104.033L53.0269 95.0976Z" fill="#D8D8D8"/>
<path d="M55.1729 94.268L53.8298 94.7874L57.2848 103.723L58.6279 103.203L55.1729 94.268Z" fill="#D8D8D8"/>
<path d="M57.3189 93.4384L55.9758 93.9578L59.4308 102.893L60.7739 102.374L57.3189 93.4384Z" fill="#D8D8D8"/>
<path d="M59.4749 92.609L58.1318 93.1283L61.5868 102.064L62.9299 101.544L59.4749 92.609Z" fill="#D8D8D8"/>
<path d="M61.6209 91.7794L60.2778 92.2987L63.7328 101.234L65.0759 100.715L61.6209 91.7794Z" fill="#D8D8D8"/>
<path d="M63.7732 90.9405L62.4301 91.4598L65.8851 100.395L67.2282 99.8758L63.7732 90.9405Z" fill="#D8D8D8"/>
<path d="M65.9192 90.111L64.5761 90.6304L68.0311 99.5657L69.3742 99.0463L65.9192 90.111Z" fill="#D8D8D8"/>
<path d="M68.0751 89.2814L66.7321 89.8008L70.1871 98.7361L71.5302 98.2167L68.0751 89.2814Z" fill="#D8D8D8"/>
<path d="M71.5367 100.261L54.3376 106.911L54.857 108.254L72.056 101.604L71.5367 100.261Z" fill="#D8D8D8"/>
<path d="M76.2801 108.27C82.6401 108.01 87.53 111.47 91.38 116.23C93.17 118.45 96.29 115.3 94.51 113.1C89.97 107.48 83.7001 103.53 76.2801 103.84C73.4401 103.96 73.4301 108.39 76.2801 108.27Z" fill="white"/>
<path d="M72.27 141.85L70.01 142.73L69.43 141.22C69.26 140.78 69.13 140.52 69.04 140.42C68.95 140.33 68.8199 140.32 68.6599 140.38C68.4699 140.45 68.38 140.56 68.38 140.72C68.38 140.87 68.47 141.17 68.64 141.61L70.2 145.65C70.36 146.07 70.5 146.34 70.6 146.45C70.7 146.56 70.84 146.58 71.01 146.51C71.18 146.44 71.26 146.34 71.27 146.19C71.27 146.04 71.18 145.73 71 145.25L70.58 144.16L72.84 143.28L72.9699 143.62C73.3199 144.52 73.5 145.18 73.52 145.61C73.54 146.04 73.39 146.47 73.06 146.93C72.73 147.38 72.25 147.73 71.61 147.98C70.95 148.24 70.35 148.33 69.83 148.25C69.31 148.18 68.89 147.95 68.59 147.58C68.29 147.21 67.97 146.6 67.64 145.74L66.6599 143.2C66.4199 142.57 66.26 142.09 66.18 141.76C66.1 141.43 66.11 141.08 66.21 140.7C66.31 140.33 66.52 139.98 66.83 139.67C67.14 139.36 67.55 139.11 68.04 138.92C68.71 138.66 69.31 138.58 69.84 138.67C70.37 138.76 70.78 138.97 71.07 139.3C71.36 139.63 71.6499 140.21 71.9699 141.02L72.29 141.85H72.27Z" fill="white"/>
<path d="M78.76 140.84C79.1 141.72 79.32 142.34 79.42 142.72C79.52 143.1 79.52 143.48 79.42 143.87C79.32 144.26 79.12 144.6 78.81 144.9C78.5 145.21 78.1 145.45 77.61 145.64C77.14 145.82 76.7 145.91 76.27 145.9C75.84 145.9 75.45 145.78 75.11 145.56C74.77 145.34 74.5 145.06 74.32 144.72C74.14 144.38 73.88 143.76 73.53 142.86L72.95 141.37C72.61 140.49 72.39 139.87 72.29 139.49C72.19 139.11 72.19 138.73 72.29 138.34C72.39 137.95 72.59 137.61 72.9 137.31C73.21 137 73.61 136.76 74.1 136.57C74.57 136.39 75.01 136.3 75.44 136.31C75.87 136.31 76.26 136.43 76.6 136.65C76.94 136.87 77.21 137.15 77.39 137.49C77.57 137.83 77.84 138.45 78.18 139.35L78.76 140.84ZM75.39 138.86C75.23 138.46 75.11 138.21 75.02 138.11C74.93 138.01 74.82 137.99 74.68 138.05C74.56 138.1 74.49 138.18 74.46 138.29C74.43 138.41 74.5 138.69 74.68 139.14L76.25 143.21C76.45 143.72 76.59 144.02 76.67 144.12C76.76 144.22 76.88 144.24 77.03 144.19C77.18 144.13 77.26 144.02 77.25 143.87C77.25 143.72 77.14 143.38 76.94 142.87L75.39 138.87V138.86Z" fill="white"/>
<path d="M79.9 134.54L82.59 141.5L83.97 140.97L84.64 142.71L81 144.12L77.63 135.41L79.89 134.53L79.9 134.54Z" fill="white"/>
<path d="M86.01 132.18L90.67 140.38L88.36 141.27L87.63 139.75L86.82 140.06L87.29 141.68L84.95 142.58L82.74 133.43L86.01 132.16V132.18ZM86.98 138.24C86.48 137.3 85.9 136.12 85.22 134.72C85.63 136.48 85.96 137.75 86.2 138.54L86.98 138.24Z" fill="white"/>
<path d="M142.42 30.6501C140.73 31.4901 139.48 32.9801 138.22 34.3801C136.22 36.5901 134.06 38.6601 131.77 40.5801C130.09 41.9801 128.24 43.3501 126.07 43.6801L126.03 43.8101C126.74 45.6501 126.79 47.0601 127.5 48.9001C127.68 49.3701 127.87 49.8501 128.26 50.1701C128.7 50.5301 129.29 50.6201 129.86 50.6801C135.78 51.3401 141.77 51.4101 147.7 50.8701C150.35 50.6301 153.1 50.2201 155.26 48.6801C156.73 47.6401 157.82 46.1301 158.64 44.5301C159.02 43.8001 159.35 43.0401 159.51 42.2401C159.97 39.9601 159.04 37.6501 157.97 35.5801C157.12 33.9201 156.1 32.2501 154.49 31.3101C153.29 30.6201 151.89 30.4001 150.52 30.2001C147.8 29.8001 144.88 29.4301 142.42 30.6601V30.6501ZM154.98 38.3901C156.21 41.9601 153.32 46.2001 148.52 47.8601C143.72 49.5201 138.83 47.9601 137.6 44.3901C136.37 40.8201 139.26 36.5801 144.06 34.9201C148.86 33.2601 153.75 34.8201 154.98 38.3901Z" fill="#96BC97"/>
<path d="M72.86 54.22L124.96 55.22L129.92 47.83L127.14 43.65L72.71 52.99C72.71 52.99 68.94 53.57 72.86 54.21V54.22Z" fill="#96BC97"/>
<path d="M142.26 79.29C143.62 79.55 145.02 79.81 146.38 79.55C148.21 79.2 149.72 77.95 151.07 76.67C152.75 75.07 154.4 73.19 154.71 70.89C154.82 70.08 154.76 69.25 154.64 68.44C154.39 66.66 153.85 64.88 152.81 63.41C151.27 61.24 148.81 59.95 146.39 58.86C140.96 56.4 135.29 54.49 129.48 53.16C128.93 53.03 128.34 52.92 127.8 53.12C127.33 53.3 126.99 53.69 126.67 54.07C125.39 55.57 124.88 56.89 123.6 58.39V58.53C125.54 59.55 126.84 61.45 127.96 63.33C129.49 65.89 130.85 68.56 132.01 71.3C132.74 73.03 133.44 74.85 134.75 76.2C136.67 78.17 139.55 78.78 142.25 79.3L142.26 79.29ZM137.73 72.69C133.74 69.55 132.41 64.59 134.74 61.63C137.08 58.66 142.21 58.81 146.2 61.95C150.19 65.09 151.52 70.05 149.19 73.01C146.85 75.98 141.72 75.83 137.73 72.69Z" fill="#96BC97"/>
<path d="M76.84 31.0401L126.37 47.2401L128.62 55.8501L124.62 58.8801L76.29 32.1401C76.29 32.1401 72.92 30.3501 76.84 31.0301V31.0401Z" fill="#96BC97"/>
<path d="M121.92 52.53C123.406 52.53 124.61 51.3257 124.61 49.84C124.61 48.3544 123.406 47.15 121.92 47.15C120.434 47.15 119.23 48.3544 119.23 49.84C119.23 51.3257 120.434 52.53 121.92 52.53Z" fill="#96BC97"/>
<path d="M142.59 28.22C140.9 29.06 139.65 30.55 138.39 31.95C136.39 34.16 134.23 36.23 131.94 38.15C130.26 39.55 128.41 40.92 126.24 41.25L126.2 41.38C126.91 43.22 126.96 44.63 127.67 46.47C127.85 46.94 128.04 47.42 128.43 47.74C128.87 48.1 129.46 48.19 130.03 48.25C135.95 48.91 141.94 48.98 147.87 48.44C150.52 48.2 153.27 47.79 155.43 46.25C156.9 45.21 157.99 43.7 158.81 42.1C159.19 41.37 159.52 40.61 159.68 39.81C160.14 37.53 159.21 35.22 158.14 33.15C157.29 31.49 156.27 29.82 154.66 28.88C153.46 28.19 152.06 27.97 150.69 27.77C147.97 27.37 145.05 27 142.59 28.23V28.22ZM155.15 35.96C156.38 39.53 153.49 43.77 148.69 45.43C143.89 47.09 139 45.53 137.77 41.96C136.54 38.39 139.43 34.15 144.23 32.49C149.03 30.83 153.92 32.39 155.15 35.96Z" fill="#F4DF7C"/>
<path d="M73.03 51.79L125.13 52.79L130.09 45.4L127.31 41.22L72.88 50.56C72.88 50.56 69.11 51.14 73.03 51.78V51.79Z" fill="#EDEDED"/>
<path d="M142.43 76.8601C143.79 77.1201 145.19 77.3801 146.55 77.1201C148.38 76.7701 149.89 75.5201 151.24 74.2401C152.92 72.6401 154.57 70.7601 154.88 68.4601C154.99 67.6501 154.93 66.8201 154.81 66.0101C154.56 64.2301 154.02 62.4501 152.98 60.9801C151.44 58.8101 148.98 57.5201 146.56 56.4301C141.13 53.9701 135.46 52.0601 129.65 50.7301C129.1 50.6001 128.51 50.4901 127.97 50.6901C127.5 50.8701 127.16 51.2601 126.84 51.6401C125.56 53.1401 125.05 54.4601 123.77 55.9601V56.1001C125.71 57.1201 127.01 59.0201 128.13 60.9001C129.66 63.4601 131.02 66.1301 132.18 68.8701C132.91 70.6001 133.61 72.4201 134.92 73.7701C136.84 75.7401 139.72 76.3501 142.42 76.8701L142.43 76.8601ZM137.9 70.2601C133.91 67.1201 132.58 62.1601 134.91 59.2001C137.25 56.2301 142.38 56.3801 146.37 59.5201C150.36 62.6601 151.69 67.6201 149.36 70.5801C147.02 73.5501 141.89 73.4001 137.9 70.2601Z" fill="#F4DF7C"/>
<path d="M77.01 28.6101L126.54 44.8101L128.79 53.4201L124.79 56.4501L76.46 29.7101C76.46 29.7101 73.09 27.9201 77.01 28.6001V28.6101Z" fill="#EDEDED"/>
<path d="M122.09 50.1C123.576 50.1 124.78 48.8956 124.78 47.41C124.78 45.9243 123.576 44.72 122.09 44.72C120.604 44.72 119.4 45.9243 119.4 47.41C119.4 48.8956 120.604 50.1 122.09 50.1Z" fill="#5BA2DD"/>
<path d="M88.5 256.83C87.47 256.25 86.65 255.45 86.05 254.42C85.45 253.39 85.15 252.23 85.15 250.93C85.15 249.63 85.45 248.48 86.05 247.45C86.65 246.42 87.47 245.62 88.5 245.05C89.53 244.47 90.66 244.19 91.89 244.19C93.12 244.19 94.27 244.48 95.3 245.05C96.33 245.63 97.15 246.43 97.74 247.45C98.34 248.48 98.63 249.64 98.63 250.93C98.63 252.22 98.33 253.38 97.74 254.42C97.14 255.45 96.33 256.26 95.3 256.83C94.27 257.41 93.13 257.69 91.89 257.69C90.65 257.69 89.53 257.4 88.5 256.83ZM94.23 255.21C94.91 254.81 95.45 254.24 95.84 253.5C96.23 252.76 96.42 251.9 96.42 250.93C96.42 249.96 96.23 249.1 95.84 248.36C95.45 247.63 94.92 247.06 94.23 246.67C93.55 246.28 92.77 246.08 91.89 246.08C91.01 246.08 90.24 246.28 89.55 246.67C88.87 247.06 88.33 247.63 87.94 248.36C87.55 249.1 87.36 249.95 87.36 250.93C87.36 251.91 87.55 252.76 87.94 253.5C88.33 254.24 88.86 254.81 89.55 255.21C90.23 255.61 91.01 255.81 91.89 255.81C92.77 255.81 93.54 255.61 94.23 255.21Z" fill="#A8A8A8"/>
<path d="M104.44 247.4C105.08 247.08 105.79 246.92 106.58 246.92C107.5 246.92 108.34 247.14 109.09 247.59C109.84 248.03 110.43 248.66 110.86 249.48C111.29 250.3 111.51 251.23 111.51 252.28C111.51 253.33 111.29 254.27 110.86 255.1C110.43 255.93 109.84 256.58 109.08 257.04C108.33 257.5 107.49 257.73 106.58 257.73C105.77 257.73 105.05 257.57 104.42 257.26C103.79 256.95 103.3 256.54 102.93 256.04V257.56H100.76V243.5H102.93V248.65C103.3 248.14 103.8 247.73 104.44 247.41V247.4ZM108.85 250.41C108.55 249.88 108.16 249.49 107.67 249.21C107.18 248.94 106.66 248.8 106.1 248.8C105.54 248.8 105.04 248.94 104.55 249.22C104.06 249.5 103.67 249.9 103.37 250.44C103.07 250.97 102.92 251.6 102.92 252.32C102.92 253.04 103.07 253.67 103.37 254.21C103.67 254.75 104.06 255.16 104.55 255.44C105.04 255.72 105.55 255.86 106.1 255.86C106.65 255.86 107.18 255.72 107.67 255.43C108.16 255.14 108.55 254.73 108.85 254.19C109.15 253.65 109.3 253.01 109.3 252.29C109.3 251.57 109.15 250.94 108.85 250.42V250.41Z" fill="#A8A8A8"/>
<path d="M115.82 259.61C115.82 260.64 115.56 261.38 115.05 261.84C114.54 262.3 113.79 262.53 112.82 262.53H111.7V260.71H112.44C112.88 260.71 113.2 260.62 113.38 260.45C113.56 260.28 113.66 260 113.66 259.6V247.08H115.83V259.6L115.82 259.61ZM113.76 245.3C113.49 245.03 113.36 244.7 113.36 244.31C113.36 243.92 113.49 243.59 113.76 243.32C114.03 243.05 114.36 242.92 114.75 242.92C115.14 242.92 115.45 243.05 115.72 243.32C115.99 243.59 116.12 243.92 116.12 244.31C116.12 244.7 115.99 245.03 115.72 245.3C115.45 245.57 115.13 245.7 114.75 245.7C114.37 245.7 114.03 245.57 113.76 245.3Z" fill="#A8A8A8"/>
<path d="M128.18 253.13H120.18C120.24 253.97 120.55 254.64 121.11 255.14C121.67 255.65 122.35 255.9 123.16 255.9C124.33 255.9 125.15 255.41 125.63 254.44H127.97C127.65 255.4 127.08 256.19 126.25 256.81C125.42 257.43 124.39 257.73 123.16 257.73C122.16 257.73 121.26 257.51 120.47 257.06C119.68 256.61 119.06 255.98 118.61 255.16C118.16 254.34 117.94 253.4 117.94 252.32C117.94 251.24 118.16 250.3 118.6 249.48C119.04 248.66 119.65 248.03 120.44 247.59C121.23 247.15 122.14 246.92 123.17 246.92C124.2 246.92 125.04 247.13 125.81 247.57C126.58 248 127.18 248.61 127.61 249.38C128.04 250.16 128.26 251.06 128.26 252.07C128.26 252.46 128.23 252.82 128.18 253.13ZM126 251.38C125.99 250.58 125.7 249.94 125.15 249.46C124.59 248.98 123.9 248.74 123.08 248.74C122.33 248.74 121.69 248.98 121.16 249.45C120.63 249.92 120.31 250.57 120.21 251.38H126Z" fill="#A8A8A8"/>
<path d="M132.92 248.86V254.65C132.92 255.04 133.01 255.32 133.2 255.5C133.38 255.67 133.7 255.76 134.14 255.76H135.47V257.56H133.76C132.78 257.56 132.04 257.33 131.52 256.88C131 256.42 130.74 255.68 130.74 254.66V248.87H129.5V247.1H130.74V244.5H132.92V247.1H135.47V248.87H132.92V248.86Z" fill="#A8A8A8"/>
<path d="M139.32 257.06C138.52 256.61 137.89 255.98 137.44 255.16C136.98 254.34 136.76 253.4 136.76 252.32C136.76 251.24 136.99 250.31 137.46 249.49C137.93 248.67 138.57 248.03 139.38 247.59C140.19 247.15 141.1 246.92 142.1 246.92C143.1 246.92 144.01 247.14 144.82 247.59C145.63 248.03 146.27 248.67 146.74 249.49C147.21 250.31 147.44 251.26 147.44 252.32C147.44 253.38 147.2 254.33 146.72 255.15C146.24 255.97 145.58 256.61 144.75 257.06C143.92 257.51 143.01 257.73 142 257.73C140.99 257.73 140.12 257.51 139.32 257.06ZM143.56 255.45C144.05 255.18 144.44 254.78 144.75 254.25C145.05 253.72 145.21 253.07 145.21 252.31C145.21 251.55 145.06 250.91 144.77 250.38C144.48 249.85 144.09 249.46 143.61 249.19C143.13 248.92 142.61 248.79 142.05 248.79C141.49 248.79 140.98 248.92 140.5 249.19C140.02 249.46 139.65 249.85 139.37 250.38C139.09 250.91 138.95 251.55 138.95 252.31C138.95 253.44 139.24 254.31 139.81 254.92C140.39 255.54 141.11 255.84 141.99 255.84C142.55 255.84 143.07 255.71 143.56 255.44V255.45Z" fill="#A8A8A8"/>
<path d="M151.16 257.28C150.51 256.98 149.99 256.58 149.61 256.06C149.23 255.55 149.03 254.97 149 254.34H151.24C151.28 254.78 151.49 255.15 151.88 255.45C152.27 255.75 152.75 255.9 153.33 255.9C153.91 255.9 154.41 255.78 154.75 255.55C155.09 255.32 155.25 255.02 155.25 254.65C155.25 254.26 155.06 253.97 154.69 253.78C154.32 253.59 153.72 253.38 152.91 253.15C152.12 252.94 151.48 252.73 150.99 252.52C150.5 252.32 150.07 252.01 149.71 251.59C149.35 251.17 149.17 250.62 149.17 249.94C149.17 249.38 149.33 248.87 149.66 248.41C149.99 247.95 150.46 247.58 151.08 247.32C151.69 247.05 152.4 246.92 153.2 246.92C154.39 246.92 155.35 247.22 156.08 247.82C156.81 248.42 157.2 249.24 157.25 250.28H155.08C155.04 249.81 154.85 249.44 154.51 249.16C154.17 248.88 153.71 248.74 153.12 248.74C152.53 248.74 152.11 248.85 151.81 249.06C151.51 249.28 151.35 249.56 151.35 249.92C151.35 250.2 151.45 250.43 151.65 250.62C151.85 250.81 152.1 250.96 152.39 251.07C152.68 251.18 153.11 251.31 153.68 251.48C154.44 251.68 155.06 251.89 155.55 252.1C156.04 252.31 156.46 252.62 156.81 253.02C157.16 253.43 157.35 253.96 157.36 254.64C157.36 255.24 157.2 255.77 156.87 256.24C156.54 256.71 156.08 257.08 155.47 257.34C154.87 257.61 154.16 257.74 153.35 257.74C152.54 257.74 151.79 257.59 151.14 257.29L151.16 257.28Z" fill="#A8A8A8"/>
<path d="M175.734 107.214L151.753 101.012C147.379 99.881 142.917 102.51 141.786 106.883L129.302 155.155C128.17 159.529 130.799 163.992 135.173 165.123L159.154 171.325C163.528 172.456 167.99 169.827 169.122 165.453L181.605 117.182C182.737 112.808 180.108 108.345 175.734 107.214Z" fill="#96BC97"/>
<path d="M180.477 131.797L135.68 120.212L123.953 165.56L168.749 177.145L180.477 131.797Z" fill="#96BC97"/>
<path d="M171.732 105.216L147.751 99.0143C143.377 97.8832 138.915 100.512 137.784 104.886L125.3 153.157C124.169 157.531 126.797 161.994 131.171 163.125L155.152 169.327C159.526 170.458 163.989 167.829 165.12 163.456L177.604 115.184C178.735 110.81 176.106 106.347 171.732 105.216Z" fill="#E2DDD9"/>
<path d="M176.475 129.789L131.679 118.204L119.951 163.552L164.747 175.137L176.475 129.789Z" fill="#7FAFE2"/>
</svg>
