<svg width="16" height="37" viewBox="0 0 16 37" fill="none" xmlns="http://www.w3.org/2000/svg">
<path d="M15.97 36.29L1.91001 22.23C0.300015 20.62 0.300015 16.02 1.91001 14.41L15.97 2.35001" fill="#C19759"/>
<path d="M15.97 34.29L1.91001 20.23C0.300015 18.62 0.300015 16.02 1.91001 14.41L15.97 0.350006" fill="#FECA74"/>
<g opacity="0.48">
<path d="M2.97 13.82C7.03 9.05001 11.44 4.59001 15.97 0.26001C15.96 2.36001 15.88 4.48999 15.8 6.57999C15.75 8.32999 15.63 10.07 15.5 11.82C15.23 8.33001 15.11 4.84001 15.04 1.35001L15.82 1.67999C11.71 5.90999 7.48 10.02 2.97 13.83V13.82Z" fill="white"/>
</g>
</svg>
