<svg width="16" height="37" viewBox="0 0 16 37" fill="none" xmlns="http://www.w3.org/2000/svg">
<path d="M0.0300293 36.29L14.09 22.23C15.7 20.62 15.7 16.02 14.09 14.41L0.0300293 2.35001" fill="#C19759"/>
<path d="M0.0300293 34.29L14.09 20.23C15.7 18.62 15.7 16.02 14.09 14.41L0.0300293 0.350006" fill="#FECA74"/>
<g opacity="0.48">
<path d="M13.03 13.82C8.52003 10.02 4.28999 5.9 0.179993 1.67L0.960022 1.34C0.890022 4.83 0.77 8.32 0.5 11.81C0.37 10.06 0.250012 8.32001 0.200012 6.57001C0.120012 4.47001 0.0400293 2.35 0.0300293 0.25C4.55003 4.58 8.96003 9.04 13.03 13.81V13.82Z" fill="white"/>
</g>
</svg>
