<svg width="292" height="95" viewBox="0 0 292 95" fill="none" xmlns="http://www.w3.org/2000/svg">
<path d="M261.84 24.27H30.4101C13.9465 24.27 0.600098 37.6164 0.600098 54.08V64.46C0.600098 80.9236 13.9465 94.27 30.4101 94.27H261.84C278.304 94.27 291.65 80.9236 291.65 64.46V54.08C291.65 37.6164 278.304 24.27 261.84 24.27Z" fill="#E1A9AF"/>
<path d="M107.48 1.57999C108.43 2.05999 109.15 2.74999 109.66 3.64999C110.16 4.53999 110.42 5.59999 110.42 6.80999C110.42 8.01999 110.17 9.06999 109.66 9.95999C109.16 10.85 108.43 11.53 107.48 12C106.53 12.47 105.41 12.71 104.12 12.71H100.43V0.859985H104.12C105.41 0.859985 106.53 1.09999 107.48 1.57999ZM107.63 10.21C108.43 9.39999 108.84 8.25999 108.84 6.79999C108.84 5.33999 108.43 4.17999 107.62 3.34999C106.81 2.51999 105.65 2.10999 104.13 2.10999H101.99V11.43H104.13C105.66 11.43 106.83 11.03 107.63 10.22V10.21Z" fill="#A8A8A8"/>
<path d="M114.15 12.26C113.44 11.86 112.89 11.3 112.48 10.57C112.08 9.83999 111.88 8.98999 111.88 8.02999C111.88 7.06999 112.09 6.23999 112.5 5.50999C112.91 4.77999 113.48 4.21999 114.19 3.82999C114.9 3.43999 115.7 3.23999 116.59 3.23999C117.48 3.23999 118.27 3.43999 118.99 3.82999C119.7 4.21999 120.27 4.77999 120.68 5.49999C121.09 6.21999 121.3 7.06999 121.3 8.02999C121.3 8.98999 121.09 9.83999 120.66 10.57C120.24 11.3 119.66 11.86 118.93 12.26C118.2 12.66 117.4 12.86 116.52 12.86C115.64 12.86 114.86 12.66 114.15 12.26ZM118.08 11.11C118.57 10.85 118.96 10.46 119.26 9.93999C119.56 9.41999 119.71 8.77999 119.71 8.03999C119.71 7.29999 119.56 6.65999 119.27 6.13999C118.98 5.61999 118.59 5.22999 118.11 4.97999C117.63 4.72999 117.12 4.59999 116.56 4.59999C116 4.59999 115.48 4.72999 115 4.97999C114.53 5.22999 114.15 5.61999 113.87 6.13999C113.59 6.65999 113.44 7.29999 113.44 8.03999C113.44 8.77999 113.58 9.43999 113.86 9.95999C114.14 10.48 114.51 10.87 114.97 11.12C115.43 11.37 115.94 11.5 116.5 11.5C117.06 11.5 117.58 11.37 118.06 11.11H118.08Z" fill="#A8A8A8"/>
<path d="M126.28 3.76C126.89 3.41 127.59 3.23 128.37 3.23C129.21 3.23 129.96 3.43 130.63 3.82C131.3 4.22 131.83 4.77999 132.21 5.49C132.6 6.21 132.79 7.05 132.79 8C132.79 8.95 132.6 9.78 132.21 10.52C131.83 11.26 131.29 11.83 130.62 12.24C129.95 12.65 129.19 12.85 128.37 12.85C127.55 12.85 126.86 12.67 126.25 12.32C125.64 11.97 125.19 11.52 124.88 10.98V12.7H123.33V0.119995H124.88V5.12C125.2 4.56999 125.66 4.11 126.27 3.76H126.28ZM130.78 6.18C130.5 5.66 130.11 5.25999 129.63 4.99C129.15 4.72 128.62 4.58 128.04 4.58C127.46 4.58 126.95 4.72 126.47 5C125.99 5.28 125.6 5.68 125.31 6.21C125.02 6.74 124.88 7.35 124.88 8.04C124.88 8.72999 125.02 9.35999 125.31 9.88C125.6 10.41 125.98 10.81 126.47 11.09C126.95 11.37 127.48 11.51 128.04 11.51C128.6 11.51 129.15 11.37 129.63 11.09C130.11 10.81 130.49 10.41 130.78 9.88C131.06 9.35 131.2 8.73 131.2 8.02C131.2 7.31 131.06 6.71 130.78 6.18Z" fill="#A8A8A8"/>
<path d="M137.54 3.65997C138.04 3.36997 138.66 3.21997 139.38 3.21997V4.81997H138.97C137.24 4.81997 136.37 5.75997 136.37 7.63997V12.71H134.82V3.38997H136.37V4.89997C136.64 4.36997 137.03 3.94997 137.53 3.65997H137.54Z" fill="#A8A8A8"/>
<path d="M141.17 5.51C141.56 4.79 142.09 4.23 142.76 3.84C143.43 3.44 144.18 3.25 145.01 3.25C145.84 3.25 146.53 3.43 147.13 3.78C147.73 4.13 148.18 4.57 148.47 5.11V3.41H150.03V12.73H148.47V11C148.16 11.54 147.71 12 147.1 12.35C146.49 12.71 145.79 12.89 144.98 12.89C144.17 12.89 143.4 12.69 142.74 12.28C142.08 11.87 141.54 11.3 141.16 10.56C140.78 9.82 140.58 8.98 140.58 8.04C140.58 7.1 140.77 6.25 141.16 5.53L141.17 5.51ZM148.05 6.19C147.77 5.67 147.38 5.27 146.9 4.99C146.42 4.71 145.89 4.57 145.31 4.57C144.73 4.57 144.2 4.71 143.73 4.98C143.25 5.25 142.87 5.65 142.59 6.17C142.31 6.69 142.16 7.3 142.16 8.01C142.16 8.72 142.3 9.34 142.59 9.87C142.87 10.4 143.25 10.8 143.73 11.08C144.21 11.36 144.73 11.5 145.31 11.5C145.89 11.5 146.42 11.36 146.9 11.08C147.38 10.8 147.76 10.4 148.05 9.87C148.33 9.34 148.47 8.73 148.47 8.03C148.47 7.33 148.33 6.72 148.05 6.19Z" fill="#A8A8A8"/>
<path d="M152.66 5.51002C153.05 4.79002 153.58 4.23001 154.25 3.84001C154.92 3.44001 155.68 3.25001 156.52 3.25001C157.25 3.25001 157.92 3.42001 158.54 3.75001C159.16 4.08001 159.64 4.52001 159.97 5.07001V0.140015H161.53V12.72H159.97V10.97C159.66 11.53 159.21 11.98 158.61 12.34C158.01 12.7 157.31 12.88 156.5 12.88C155.69 12.88 154.92 12.68 154.25 12.27C153.58 11.86 153.05 11.29 152.66 10.55C152.28 9.81001 152.08 8.97001 152.08 8.03001C152.08 7.09001 152.27 6.24002 152.66 5.52002V5.51002ZM159.55 6.19001C159.27 5.67001 158.88 5.27001 158.4 4.99001C157.92 4.71001 157.39 4.57001 156.81 4.57001C156.23 4.57001 155.7 4.71001 155.23 4.98001C154.75 5.25001 154.37 5.65001 154.09 6.17001C153.81 6.69001 153.66 7.30001 153.66 8.01002C153.66 8.72001 153.8 9.34001 154.09 9.87001C154.37 10.4 154.75 10.8 155.23 11.08C155.71 11.36 156.23 11.5 156.81 11.5C157.39 11.5 157.92 11.36 158.4 11.08C158.88 10.8 159.26 10.4 159.55 9.87001C159.83 9.34001 159.97 8.73001 159.97 8.03001C159.97 7.33001 159.83 6.72001 159.55 6.19001Z" fill="#A8A8A8"/>
<path d="M172.42 3.39001V12.71H170.87V11.33C170.58 11.81 170.16 12.18 169.64 12.44C169.11 12.71 168.53 12.84 167.9 12.84C167.17 12.84 166.52 12.69 165.94 12.39C165.36 12.09 164.91 11.64 164.57 11.04C164.24 10.44 164.07 9.71002 164.07 8.85002V3.39001H165.6V8.64002C165.6 9.56002 165.83 10.26 166.3 10.76C166.77 11.26 167.4 11.5 168.2 11.5C169 11.5 169.68 11.25 170.15 10.74C170.63 10.23 170.86 9.49002 170.86 8.51002V3.39001H172.41H172.42Z" fill="#A8A8A8"/>
<path d="M177.75 3.65997C178.25 3.36997 178.87 3.21997 179.59 3.21997V4.81997H179.18C177.45 4.81997 176.58 5.75997 176.58 7.63997V12.71H175.03V3.38997H176.58V4.89997C176.85 4.36997 177.24 3.94997 177.74 3.65997H177.75Z" fill="#A8A8A8"/>
<path d="M181.37 5.51C181.76 4.79 182.29 4.23 182.96 3.84C183.63 3.44 184.38 3.25 185.21 3.25C186.04 3.25 186.73 3.43 187.33 3.78C187.93 4.13 188.38 4.57 188.67 5.11V3.41H190.23V12.73H188.67V11C188.36 11.54 187.91 12 187.3 12.35C186.69 12.71 185.99 12.89 185.18 12.89C184.37 12.89 183.6 12.69 182.94 12.28C182.28 11.87 181.74 11.3 181.36 10.56C180.98 9.82 180.78 8.98 180.78 8.04C180.78 7.1 180.97 6.25 181.36 5.53L181.37 5.51ZM188.26 6.19C187.98 5.67 187.59 5.27 187.11 4.99C186.63 4.71 186.1 4.57 185.52 4.57C184.94 4.57 184.41 4.71 183.94 4.98C183.46 5.25 183.08 5.65 182.8 6.17C182.52 6.69 182.37 7.3 182.37 8.01C182.37 8.72 182.51 9.34 182.8 9.87C183.08 10.4 183.46 10.8 183.94 11.08C184.42 11.36 184.94 11.5 185.52 11.5C186.1 11.5 186.63 11.36 187.11 11.08C187.59 10.8 187.97 10.4 188.26 9.87C188.54 9.34 188.68 8.73 188.68 8.03C188.68 7.33 188.54 6.72 188.26 6.19Z" fill="#A8A8A8"/>
<path d="M194.24 12.49C193.67 12.25 193.23 11.91 192.9 11.47C192.57 11.03 192.39 10.53 192.36 9.96999H193.96C194 10.43 194.22 10.81 194.61 11.11C195 11.4 195.51 11.55 196.15 11.55C196.74 11.55 197.2 11.42 197.54 11.16C197.88 10.9 198.05 10.57 198.05 10.17C198.05 9.76999 197.87 9.45999 197.51 9.25999C197.15 9.05999 196.59 8.86999 195.83 8.66999C195.14 8.48999 194.58 8.29999 194.14 8.11999C193.7 7.92999 193.33 7.65999 193.02 7.28999C192.71 6.91999 192.55 6.43999 192.55 5.83999C192.55 5.35999 192.69 4.92999 192.97 4.52999C193.25 4.12999 193.66 3.81999 194.18 3.58999C194.7 3.35999 195.3 3.23999 195.97 3.23999C197 3.23999 197.83 3.49999 198.47 4.01999C199.1 4.53999 199.44 5.25999 199.49 6.15999H197.94C197.91 5.66999 197.71 5.27999 197.35 4.98999C196.99 4.69999 196.51 4.54999 195.91 4.54999C195.36 4.54999 194.91 4.66999 194.58 4.90999C194.25 5.14999 194.09 5.45999 194.09 5.83999C194.09 6.14999 194.19 6.39999 194.39 6.59999C194.59 6.79999 194.84 6.95999 195.14 7.07999C195.44 7.19999 195.86 7.32999 196.39 7.47999C197.06 7.65999 197.6 7.83999 198.02 8.01999C198.44 8.19999 198.8 8.45999 199.1 8.80999C199.4 9.15999 199.56 9.61999 199.57 10.19C199.57 10.7 199.43 11.16 199.15 11.57C198.87 11.98 198.47 12.3 197.95 12.53C197.43 12.76 196.84 12.88 196.17 12.88C195.46 12.88 194.82 12.76 194.25 12.51L194.24 12.49Z" fill="#A8A8A8"/>
<path d="M119.38 45.8199V48.7799H107.26V58.1799H117.1V61.1399H107.26V73.6999H103.62V45.8199H119.38Z" fill="white"/>
<path d="M127.42 70.7399H137.18V73.6999H123.78V45.8199H127.42V70.7399Z" fill="white"/>
<path d="M146.62 72.16C144.49 70.95 142.8 69.25 141.56 67.08C140.32 64.91 139.7 62.46 139.7 59.74C139.7 57.02 140.32 54.57 141.56 52.4C142.8 50.23 144.49 48.53 146.62 47.32C148.75 46.11 151.11 45.5 153.7 45.5C156.29 45.5 158.69 46.11 160.82 47.32C162.95 48.53 164.63 50.22 165.86 52.38C167.09 54.54 167.7 56.99 167.7 59.74C167.7 62.49 167.09 64.94 165.86 67.1C164.63 69.26 162.95 70.95 160.82 72.16C158.69 73.37 156.31 73.98 153.7 73.98C151.09 73.98 148.75 73.37 146.62 72.16ZM158.96 69.46C160.52 68.55 161.75 67.26 162.64 65.58C163.53 63.9 163.98 61.95 163.98 59.74C163.98 57.53 163.53 55.55 162.64 53.88C161.75 52.21 160.53 50.93 158.98 50.02C157.43 49.11 155.67 48.66 153.7 48.66C151.73 48.66 149.97 49.11 148.42 50.02C146.87 50.93 145.65 52.21 144.76 53.88C143.87 55.55 143.42 57.5 143.42 59.74C143.42 61.98 143.87 63.9 144.76 65.58C145.65 67.26 146.88 68.55 148.44 69.46C150 70.37 151.75 70.82 153.7 70.82C155.65 70.82 157.4 70.37 158.96 69.46Z" fill="white"/>
<path d="M187.18 73.6999L180.54 62.2999H176.14V73.6999H172.5V45.8199H181.5C183.61 45.8199 185.39 46.1799 186.84 46.8999C188.29 47.6199 189.38 48.5899 190.1 49.8199C190.82 51.0499 191.18 52.4499 191.18 54.0199C191.18 55.9399 190.63 57.6299 189.52 59.0999C188.41 60.5699 186.75 61.5399 184.54 62.0199L191.54 73.6999H187.18ZM176.14 59.3799H181.5C183.47 59.3799 184.95 58.8899 185.94 57.9199C186.93 56.9499 187.42 55.6499 187.42 54.0199C187.42 52.3899 186.93 51.0899 185.96 50.1799C184.99 49.2699 183.5 48.8199 181.5 48.8199H176.14V59.3799Z" fill="white"/>
</svg>
