<svg width="601" height="578" viewBox="0 0 601 578" fill="none" xmlns="http://www.w3.org/2000/svg">
<path d="M554.02 58.95H70.4401C44.9964 58.95 24.3701 79.5762 24.3701 105.02V531.2C24.3701 556.644 44.9964 577.27 70.4401 577.27H554.02C579.464 577.27 600.09 556.644 600.09 531.2V105.02C600.09 79.5762 579.464 58.95 554.02 58.95Z" fill="#D3D3D3"/>
<path d="M549.4 49.27H65.82C40.3762 49.27 19.75 69.8963 19.75 95.34V521.52C19.75 546.964 40.3762 567.59 65.82 567.59H307.61H549.4C574.844 567.59 595.47 546.964 595.47 521.52V95.34C595.47 69.8963 574.844 49.27 549.4 49.27Z" fill="#E1A9AF"/>
<path d="M43.73 89.27C66.7603 89.27 85.43 70.5689 85.43 47.5C85.43 24.4311 66.7603 5.72998 43.73 5.72998C20.6998 5.72998 2.03003 24.4311 2.03003 47.5C2.03003 70.5689 20.6998 89.27 43.73 89.27Z" fill="#CCA98B" stroke="#F2F2F2"/>
<path d="M43.69 85.67C66.7203 85.67 85.39 66.9689 85.39 43.9C85.39 20.8311 66.7203 2.13 43.69 2.13C20.6597 2.13 1.98999 20.8311 1.98999 43.9C1.98999 66.9689 20.6597 85.67 43.69 85.67Z" fill="white" stroke="#F2F2F2" stroke-width="3"/>
<path d="M27.1399 29.86C28.9399 28.28 31.3799 27.49 34.4699 27.49C36.5199 27.49 38.2699 27.84 39.7299 28.55C41.1899 29.26 42.2899 30.23 43.0399 31.46C43.7899 32.69 44.1699 34.07 44.1699 35.59C44.1699 37.39 43.7199 38.86 42.8199 39.99C41.9199 41.12 40.8699 41.89 39.6699 42.3V42.46C41.2199 42.98 42.4499 43.84 43.3499 45.04C44.2499 46.24 44.6999 47.78 44.6999 49.66C44.6999 51.35 44.3099 52.85 43.5299 54.14C42.7499 55.43 41.6199 56.45 40.1299 57.19C38.6399 57.93 36.8799 58.29 34.8299 58.29C31.5599 58.29 28.9399 57.49 26.9899 55.88C25.0399 54.27 24.0099 51.84 23.8999 48.6H30.6899C30.7199 49.8 31.0599 50.75 31.7099 51.44C32.3699 52.14 33.3199 52.48 34.5799 52.48C35.6399 52.48 36.4699 52.17 37.0599 51.56C37.6499 50.95 37.9399 50.13 37.9399 49.12C37.9399 47.81 37.5199 46.86 36.6899 46.28C35.8599 45.69 34.5299 45.4 32.6999 45.4H31.3899V39.71H32.6999C34.0899 39.71 35.2199 39.47 36.0799 38.99C36.9399 38.51 37.3699 37.66 37.3699 36.43C37.3699 35.45 37.0999 34.68 36.5499 34.14C35.9999 33.6 35.2499 33.32 34.2999 33.32C33.2599 33.32 32.4899 33.63 31.9899 34.26C31.4799 34.89 31.1899 35.67 31.1099 36.59H24.2799C24.3899 33.67 25.3399 31.42 27.1499 29.84L27.1399 29.86Z" fill="#E1A9AF"/>
<path d="M49.01 32.58C49.71 31.48 50.69 30.61 51.96 29.98C53.23 29.35 54.68 29.04 56.32 29.04C57.96 29.04 59.41 29.35 60.68 29.98C61.95 30.61 62.93 31.47 63.63 32.58C64.33 33.69 64.67 34.96 64.67 36.41C64.67 37.86 64.32 39.14 63.61 40.26C62.9 41.38 61.91 42.26 60.64 42.9C59.37 43.54 57.92 43.86 56.28 43.86C54.64 43.86 53.2 43.54 51.94 42.9C50.68 42.26 49.71 41.38 49.01 40.26C48.31 39.14 47.97 37.86 47.97 36.41C47.97 34.96 48.32 33.69 49.01 32.58ZM58.4 33.95C57.83 33.38 57.12 33.09 56.27 33.09C55.42 33.09 54.76 33.38 54.2 33.95C53.64 34.52 53.36 35.36 53.36 36.45C53.36 37.54 53.63 38.33 54.18 38.91C54.73 39.49 55.42 39.7701 56.27 39.7701C57.12 39.7701 57.82 39.48 58.4 38.89C58.97 38.3 59.26 37.4901 59.26 36.4601C59.26 35.3701 58.97 34.5401 58.4 33.9601V33.95Z" fill="#E1A9AF"/>
<path d="M105.38 35.45C104.59 36.22 103.38 36.6 101.75 36.6H99.07V42.42H97.25V28.48H101.75C103.32 28.48 104.52 28.86 105.34 29.62C106.16 30.38 106.57 31.36 106.57 32.56C106.57 33.76 106.17 34.68 105.38 35.45ZM103.99 34.44C104.47 34 104.71 33.37 104.71 32.56C104.71 30.84 103.72 29.98 101.75 29.98H99.07V35.1H101.75C102.76 35.1 103.51 34.88 103.99 34.44Z" fill="#E1A9AF"/>
<path d="M108.83 33.95C109.28 33.1 109.91 32.45 110.7 31.98C111.49 31.51 112.38 31.28 113.35 31.28C114.32 31.28 115.14 31.49 115.85 31.9C116.56 32.31 117.08 32.83 117.43 33.46V31.46H119.27V42.42H117.43V40.38C117.07 41.02 116.53 41.55 115.82 41.97C115.11 42.39 114.28 42.6 113.33 42.6C112.38 42.6 111.48 42.36 110.69 41.88C109.9 41.4 109.28 40.73 108.83 39.86C108.38 38.99 108.15 38.01 108.15 36.9C108.15 35.79 108.38 34.8 108.83 33.95ZM116.93 34.76C116.6 34.15 116.15 33.68 115.58 33.35C115.01 33.02 114.39 32.86 113.71 32.86C113.03 32.86 112.41 33.02 111.85 33.34C111.29 33.66 110.84 34.13 110.51 34.74C110.18 35.35 110.01 36.07 110.01 36.9C110.01 37.73 110.18 38.47 110.51 39.09C110.84 39.71 111.29 40.18 111.85 40.51C112.41 40.84 113.03 41 113.71 41C114.39 41 115.01 40.84 115.58 40.51C116.15 40.18 116.6 39.71 116.93 39.09C117.26 38.47 117.43 37.75 117.43 36.92C117.43 36.09 117.26 35.37 116.93 34.76Z" fill="#E1A9AF"/>
<path d="M123.97 42.17C123.3 41.88 122.78 41.48 122.39 40.97C122 40.46 121.79 39.87 121.75 39.2H123.63C123.68 39.75 123.94 40.19 124.4 40.54C124.86 40.89 125.46 41.06 126.21 41.06C126.9 41.06 127.45 40.91 127.85 40.6C128.25 40.29 128.45 39.91 128.45 39.44C128.45 38.97 128.24 38.6 127.81 38.37C127.38 38.14 126.72 37.91 125.83 37.68C125.02 37.47 124.35 37.25 123.84 37.03C123.33 36.81 122.89 36.48 122.52 36.05C122.15 35.62 121.97 35.05 121.97 34.34C121.97 33.78 122.14 33.27 122.47 32.8C122.8 32.33 123.28 31.96 123.89 31.69C124.5 31.42 125.2 31.28 125.99 31.28C127.2 31.28 128.18 31.59 128.93 32.2C129.68 32.81 130.08 33.65 130.13 34.72H128.31C128.27 34.15 128.04 33.69 127.62 33.34C127.2 32.99 126.64 32.82 125.93 32.82C125.28 32.82 124.76 32.96 124.37 33.24C123.98 33.52 123.79 33.89 123.79 34.34C123.79 34.7 123.91 35 124.14 35.23C124.37 35.46 124.67 35.65 125.02 35.79C125.37 35.93 125.86 36.09 126.49 36.26C127.28 36.47 127.92 36.68 128.41 36.89C128.9 37.1 129.33 37.41 129.68 37.82C130.03 38.23 130.22 38.77 130.23 39.44C130.23 40.04 130.06 40.58 129.73 41.06C129.4 41.54 128.93 41.92 128.32 42.19C127.71 42.46 127.02 42.6 126.23 42.6C125.39 42.6 124.64 42.46 123.97 42.17Z" fill="#E1A9AF"/>
<path d="M134.41 42.17C133.74 41.88 133.22 41.48 132.83 40.97C132.44 40.46 132.23 39.87 132.19 39.2H134.07C134.12 39.75 134.38 40.19 134.84 40.54C135.3 40.89 135.9 41.06 136.65 41.06C137.34 41.06 137.89 40.91 138.29 40.6C138.69 40.29 138.89 39.91 138.89 39.44C138.89 38.97 138.68 38.6 138.25 38.37C137.82 38.14 137.16 37.91 136.27 37.68C135.46 37.47 134.79 37.25 134.28 37.03C133.77 36.81 133.33 36.48 132.96 36.05C132.59 35.62 132.41 35.05 132.41 34.34C132.41 33.78 132.58 33.27 132.91 32.8C133.24 32.33 133.72 31.96 134.33 31.69C134.94 31.42 135.64 31.28 136.43 31.28C137.64 31.28 138.62 31.59 139.37 32.2C140.12 32.81 140.52 33.65 140.57 34.72H138.75C138.71 34.15 138.48 33.69 138.06 33.34C137.64 32.99 137.08 32.82 136.37 32.82C135.72 32.82 135.2 32.96 134.81 33.24C134.42 33.52 134.23 33.89 134.23 34.34C134.23 34.7 134.35 35 134.58 35.23C134.81 35.46 135.11 35.65 135.46 35.79C135.81 35.93 136.3 36.09 136.93 36.26C137.72 36.47 138.36 36.68 138.85 36.89C139.34 37.1 139.77 37.41 140.12 37.82C140.47 38.23 140.66 38.77 140.67 39.44C140.67 40.04 140.5 40.58 140.17 41.06C139.84 41.54 139.37 41.92 138.76 42.19C138.15 42.46 137.46 42.6 136.67 42.6C135.83 42.6 135.08 42.46 134.41 42.17Z" fill="#E1A9AF"/>
<path d="M145.22 41.9C144.39 41.43 143.73 40.77 143.26 39.91C142.79 39.05 142.55 38.05 142.55 36.92C142.55 35.79 142.79 34.81 143.28 33.95C143.77 33.09 144.43 32.43 145.27 31.97C146.11 31.51 147.05 31.28 148.09 31.28C149.13 31.28 150.07 31.51 150.91 31.97C151.75 32.43 152.41 33.09 152.9 33.94C153.39 34.79 153.63 35.79 153.63 36.92C153.63 38.05 153.38 39.05 152.88 39.91C152.38 40.77 151.7 41.43 150.85 41.9C150 42.37 149.05 42.6 148.01 42.6C146.97 42.6 146.05 42.37 145.22 41.9ZM149.85 40.54C150.42 40.23 150.89 39.77 151.24 39.16C151.59 38.55 151.77 37.8 151.77 36.92C151.77 36.04 151.6 35.29 151.25 34.68C150.9 34.07 150.45 33.61 149.89 33.31C149.33 33.01 148.72 32.86 148.07 32.86C147.42 32.86 146.79 33.01 146.24 33.31C145.69 33.61 145.24 34.07 144.91 34.68C144.58 35.29 144.41 36.04 144.41 36.92C144.41 37.8 144.57 38.57 144.9 39.18C145.23 39.79 145.66 40.25 146.21 40.55C146.76 40.85 147.36 41 148.01 41C148.66 41 149.28 40.85 149.85 40.54Z" fill="#E1A9AF"/>
<path d="M232.24 507.61H226.46L225.4 510.56H223.58L228.37 497.39H230.36L235.13 510.56H233.31L232.25 507.61H232.24ZM231.75 506.21L229.36 499.52L226.97 506.21H231.76H231.75Z" fill="#424242"/>
<path d="M246.53 501.57H244.34V510.56H242.61V501.57H241.26V500.15H242.61V499.41C242.61 498.24 242.91 497.39 243.51 496.85C244.11 496.31 245.08 496.04 246.41 496.04V497.48C245.65 497.48 245.12 497.63 244.8 497.93C244.49 498.23 244.34 498.72 244.34 499.4V500.14H246.53V501.56V501.57Z" fill="#424242"/>
<path d="M250.27 496.5V510.56H248.54V496.5H250.27Z" fill="#424242"/>
<path d="M255.11 510.07C254.32 509.63 253.7 509 253.25 508.18C252.8 507.36 252.58 506.42 252.58 505.34C252.58 504.26 252.81 503.34 253.27 502.52C253.73 501.7 254.36 501.08 255.16 500.64C255.96 500.2 256.85 499.98 257.84 499.98C258.83 499.98 259.72 500.2 260.52 500.64C261.32 501.08 261.95 501.7 262.41 502.51C262.87 503.32 263.1 504.26 263.1 505.34C263.1 506.42 262.86 507.36 262.39 508.18C261.91 509 261.27 509.63 260.46 510.07C259.65 510.51 258.75 510.74 257.76 510.74C256.77 510.74 255.9 510.52 255.11 510.07ZM259.51 508.77C260.05 508.48 260.49 508.04 260.83 507.46C261.17 506.88 261.33 506.17 261.33 505.33C261.33 504.49 261.16 503.78 260.84 503.2C260.51 502.62 260.08 502.18 259.55 501.9C259.02 501.61 258.44 501.47 257.82 501.47C257.2 501.47 256.61 501.61 256.08 501.9C255.55 502.19 255.13 502.62 254.82 503.2C254.5 503.78 254.35 504.49 254.35 505.33C254.35 506.17 254.5 506.89 254.81 507.48C255.12 508.06 255.53 508.5 256.05 508.78C256.57 509.06 257.14 509.21 257.76 509.21C258.38 509.21 258.96 509.06 259.51 508.77Z" fill="#424242"/>
<path d="M268.41 500.45C268.97 500.12 269.66 499.96 270.47 499.96V501.75H270.01C268.07 501.75 267.1 502.8 267.1 504.9V510.56H265.37V500.15H267.1V501.84C267.4 501.24 267.84 500.78 268.4 500.45H268.41Z" fill="#424242"/>
<path d="M286.98 506H278.66C278.72 507.03 279.08 507.83 279.71 508.4C280.35 508.98 281.13 509.26 282.04 509.26C282.79 509.26 283.41 509.09 283.91 508.74C284.41 508.39 284.76 507.93 284.96 507.34H286.82C286.54 508.34 285.98 509.15 285.15 509.78C284.32 510.41 283.27 510.72 282.03 510.72C281.04 510.72 280.16 510.5 279.38 510.05C278.6 509.6 277.99 508.98 277.55 508.16C277.11 507.34 276.89 506.4 276.89 505.32C276.89 504.24 277.1 503.3 277.53 502.49C277.96 501.68 278.57 501.06 279.34 500.62C280.12 500.18 281.02 499.96 282.03 499.96C283.04 499.96 283.89 500.18 284.65 500.61C285.41 501.04 286 501.63 286.41 502.39C286.82 503.15 287.03 504 287.03 504.94C287.03 505.27 287.01 505.62 286.97 505.99L286.98 506ZM284.81 502.89C284.52 502.41 284.12 502.05 283.62 501.81C283.12 501.56 282.57 501.44 281.96 501.44C281.08 501.44 280.34 501.72 279.73 502.28C279.11 502.84 278.76 503.61 278.68 504.6H285.25C285.25 503.94 285.1 503.37 284.81 502.9V502.89Z" fill="#424242"/>
<path d="M290.86 510.32C290.23 510.05 289.73 509.67 289.36 509.18C288.99 508.69 288.79 508.13 288.75 507.5H290.54C290.59 508.02 290.83 508.44 291.27 508.77C291.71 509.1 292.28 509.26 292.99 509.26C293.65 509.26 294.17 509.11 294.55 508.82C294.93 508.53 295.12 508.16 295.12 507.72C295.12 507.28 294.92 506.93 294.51 506.7C294.1 506.48 293.48 506.26 292.63 506.04C291.86 505.84 291.23 505.63 290.74 505.42C290.25 505.21 289.83 504.9 289.48 504.49C289.13 504.08 288.96 503.54 288.96 502.87C288.96 502.34 289.12 501.85 289.43 501.41C289.74 500.97 290.2 500.62 290.78 500.36C291.36 500.1 292.03 499.97 292.77 499.97C293.92 499.97 294.85 500.26 295.56 500.84C296.27 501.42 296.65 502.22 296.7 503.23H294.97C294.93 502.69 294.71 502.25 294.31 501.92C293.91 501.59 293.38 501.43 292.7 501.43C292.08 501.43 291.58 501.56 291.22 501.83C290.85 502.1 290.67 502.44 290.67 502.87C290.67 503.21 290.78 503.49 291 503.72C291.22 503.94 291.5 504.12 291.84 504.25C292.18 504.38 292.64 504.53 293.24 504.7C293.99 504.9 294.59 505.1 295.06 505.3C295.53 505.5 295.93 505.79 296.27 506.18C296.61 506.57 296.78 507.09 296.79 507.72C296.79 508.29 296.63 508.8 296.31 509.26C295.99 509.72 295.55 510.07 294.97 510.33C294.39 510.59 293.73 510.72 292.98 510.72C292.18 510.72 291.47 510.58 290.83 510.31L290.86 510.32Z" fill="#424242"/>
<path d="M301.35 501.57V507.71C301.35 508.22 301.46 508.57 301.67 508.78C301.88 508.99 302.26 509.09 302.79 509.09H304.06V510.55H302.5C301.54 510.55 300.81 510.33 300.33 509.88C299.85 509.44 299.61 508.71 299.61 507.7V501.56H298.26V500.14H299.61V497.52H301.34V500.14H304.06V501.56H301.34L301.35 501.57Z" fill="#424242"/>
<path d="M306.15 502.51C306.58 501.71 307.17 501.08 307.93 500.64C308.69 500.2 309.52 499.97 310.45 499.97C311.38 499.97 312.16 500.17 312.83 500.56C313.5 500.95 314 501.45 314.33 502.04V500.14H316.08V510.55H314.33V508.61C313.99 509.22 313.48 509.72 312.8 510.12C312.12 510.52 311.33 510.72 310.43 510.72C309.53 510.72 308.67 510.49 307.92 510.04C307.17 509.58 306.58 508.94 306.15 508.12C305.72 507.3 305.5 506.36 305.5 505.31C305.5 504.26 305.71 503.31 306.15 502.51ZM313.85 503.28C313.53 502.7 313.11 502.25 312.57 501.94C312.03 501.63 311.44 501.47 310.79 501.47C310.14 501.47 309.56 501.62 309.02 501.93C308.49 502.23 308.06 502.68 307.75 503.26C307.44 503.84 307.28 504.53 307.28 505.31C307.28 506.09 307.44 506.8 307.75 507.39C308.07 507.98 308.49 508.43 309.02 508.74C309.55 509.05 310.14 509.21 310.79 509.21C311.44 509.21 312.03 509.05 312.57 508.74C313.11 508.43 313.53 507.98 313.85 507.39C314.17 506.8 314.32 506.11 314.32 505.33C314.32 504.55 314.16 503.86 313.85 503.28ZM312.97 497.2L308.92 499.37V498.08L312.97 495.7V497.2Z" fill="#424242"/>
<path d="M327.33 500.58C328.01 500.18 328.8 499.98 329.7 499.98C330.6 499.98 331.46 500.2 332.22 500.65C332.98 501.1 333.57 501.72 334 502.52C334.43 503.32 334.65 504.26 334.65 505.32C334.65 506.38 334.43 507.31 334 508.13C333.57 508.95 332.98 509.59 332.22 510.05C331.46 510.51 330.63 510.73 329.7 510.73C328.77 510.73 328.03 510.53 327.35 510.13C326.67 509.73 326.16 509.23 325.8 508.64V515.5H324.07V500.15H325.8V502.07C326.14 501.48 326.65 500.98 327.33 500.58ZM332.39 503.26C332.07 502.68 331.65 502.23 331.11 501.93C330.57 501.63 329.98 501.47 329.33 501.47C328.68 501.47 328.11 501.63 327.57 501.94C327.03 502.25 326.6 502.7 326.28 503.29C325.96 503.88 325.8 504.56 325.8 505.33C325.8 506.1 325.96 506.8 326.28 507.39C326.6 507.98 327.03 508.43 327.57 508.74C328.11 509.05 328.69 509.21 329.33 509.21C329.97 509.21 330.57 509.05 331.11 508.74C331.65 508.43 332.07 507.98 332.39 507.39C332.71 506.8 332.86 506.11 332.86 505.31C332.86 504.51 332.7 503.84 332.39 503.26Z" fill="#424242"/>
<path d="M339.94 500.45C340.5 500.12 341.19 499.96 342 499.96V501.75H341.54C339.6 501.75 338.63 502.8 338.63 504.9V510.56H336.9V500.15H338.63V501.84C338.93 501.24 339.37 500.78 339.93 500.45H339.94Z" fill="#424242"/>
<path d="M345.89 510.07C345.1 509.63 344.48 509 344.03 508.18C343.58 507.36 343.36 506.42 343.36 505.34C343.36 504.26 343.59 503.34 344.05 502.52C344.51 501.7 345.14 501.08 345.94 500.64C346.74 500.2 347.63 499.98 348.62 499.98C349.61 499.98 350.5 500.2 351.3 500.64C352.1 501.08 352.73 501.7 353.19 502.51C353.65 503.32 353.88 504.26 353.88 505.34C353.88 506.42 353.64 507.36 353.17 508.18C352.7 509 352.05 509.63 351.24 510.07C350.43 510.51 349.53 510.74 348.54 510.74C347.55 510.74 346.68 510.52 345.89 510.07ZM350.29 508.77C350.83 508.48 351.27 508.04 351.61 507.46C351.95 506.88 352.11 506.17 352.11 505.33C352.11 504.49 351.95 503.78 351.62 503.2C351.29 502.62 350.86 502.18 350.33 501.9C349.8 501.61 349.22 501.47 348.6 501.47C347.98 501.47 347.39 501.61 346.86 501.9C346.33 502.19 345.91 502.62 345.6 503.2C345.28 503.78 345.13 504.49 345.13 505.33C345.13 506.17 345.29 506.89 345.6 507.48C345.91 508.06 346.32 508.5 346.84 508.78C347.36 509.06 347.93 509.21 348.55 509.21C349.17 509.21 349.75 509.06 350.3 508.77H350.29Z" fill="#424242"/>
<path d="M364.31 501.11C365.1 501.88 365.49 502.98 365.49 504.43V510.57H363.78V504.68C363.78 503.64 363.52 502.85 363 502.3C362.48 501.75 361.77 501.47 360.87 501.47C359.97 501.47 359.23 501.75 358.69 502.32C358.15 502.89 357.88 503.72 357.88 504.81V510.57H356.15V500.16H357.88V501.64C358.22 501.11 358.69 500.7 359.28 500.4C359.87 500.11 360.52 499.96 361.23 499.96C362.5 499.96 363.52 500.34 364.31 501.11Z" fill="#424242"/>
<path d="M370.43 501.57V507.71C370.43 508.22 370.54 508.57 370.75 508.78C370.97 508.99 371.34 509.09 371.87 509.09H373.14V510.55H371.58C370.62 510.55 369.89 510.33 369.41 509.88C368.93 509.44 368.69 508.71 368.69 507.7V501.56H367.34V500.14H368.69V497.52H370.42V500.14H373.14V501.56H370.42L370.43 501.57Z" fill="#424242"/>
<path d="M375.23 502.51C375.66 501.71 376.25 501.08 377.01 500.64C377.77 500.2 378.6 499.97 379.53 499.97C380.46 499.97 381.23 500.17 381.91 500.56C382.59 500.95 383.08 501.45 383.41 502.04V500.14H385.16V510.55H383.41V508.61C383.07 509.22 382.56 509.72 381.88 510.12C381.2 510.52 380.42 510.72 379.51 510.72C378.6 510.72 377.75 510.49 377 510.04C376.25 509.59 375.66 508.94 375.23 508.12C374.8 507.3 374.59 506.36 374.59 505.31C374.59 504.26 374.8 503.31 375.23 502.51ZM382.93 503.28C382.61 502.7 382.19 502.25 381.65 501.94C381.11 501.63 380.52 501.47 379.87 501.47C379.22 501.47 378.64 501.62 378.1 501.93C377.57 502.23 377.14 502.68 376.83 503.26C376.52 503.84 376.36 504.53 376.36 505.31C376.36 506.09 376.52 506.8 376.83 507.39C377.15 507.98 377.57 508.43 378.1 508.74C378.63 509.05 379.22 509.21 379.87 509.21C380.52 509.21 381.11 509.05 381.65 508.74C382.19 508.43 382.61 507.98 382.93 507.39C383.25 506.8 383.4 506.11 383.4 505.33C383.4 504.55 383.24 503.86 382.93 503.28Z" fill="#424242"/>
<path d="M388.63 510.33C388.4 510.1 388.29 509.82 388.29 509.49C388.29 509.16 388.41 508.88 388.63 508.65C388.86 508.42 389.14 508.31 389.47 508.31C389.8 508.31 390.06 508.42 390.28 508.65C390.5 508.88 390.61 509.16 390.61 509.49C390.61 509.82 390.5 510.1 390.28 510.33C390.06 510.56 389.79 510.67 389.47 510.67C389.15 510.67 388.86 510.56 388.63 510.33ZM390.32 497.32L390.11 506.82H388.67L388.46 497.32H390.32Z" fill="#424242"/>
<path d="M298.53 170.35L199.06 270.78L299 454.27L297 453.27L392.49 270.78L298.53 170.35Z" fill="#CCCCCC"/>
<path d="M175.63 151.85L122.07 325.93L296.14 449.78L175.63 151.85Z" fill="#CCCCCC"/>
<path d="M418.65 151.85L472.21 325.93L298.14 449.78L418.65 151.85Z" fill="#CCCCCC"/>
<path d="M298.53 155.35L199.06 255.78L296.5 443.77H298.5L392.49 255.78L298.53 155.35Z" fill="white" stroke="#E0E0E0" stroke-miterlimit="10"/>
<path d="M175.63 145.35L122.07 319.43L296.14 443.28L175.63 145.35Z" fill="white" stroke="#E0E0E0" stroke-miterlimit="10"/>
<path d="M418.65 145.35L472.21 319.43L298.14 443.28L418.65 145.35Z" fill="white" stroke="#E0E0E0" stroke-miterlimit="10"/>
<path d="M376 238.27L380 242.27L298.14 443.28L376 238.27Z" fill="#DBDBDB"/>
<path d="M218.14 238.27L214.14 242.27L296 443.28L218.14 238.27Z" fill="#DBDBDB"/>
</svg>
