<svg width="597" height="578" viewBox="0 0 597 578" fill="none" xmlns="http://www.w3.org/2000/svg">
<path d="M550.02 58.95H66.4401C40.9964 58.95 20.3701 79.5762 20.3701 105.02V531.2C20.3701 556.644 40.9964 577.27 66.4401 577.27H550.02C575.464 577.27 596.09 556.644 596.09 531.2V105.02C596.09 79.5762 575.464 58.95 550.02 58.95Z" fill="#D3D3D3"/>
<path d="M545.6 49.27H62.02C36.5762 49.27 15.95 69.8963 15.95 95.34V521.52C15.95 546.964 36.5762 567.59 62.02 567.59H545.6C571.044 567.59 591.67 546.964 591.67 521.52V95.34C591.67 69.8963 571.044 49.27 545.6 49.27Z" fill="#E1A9AF"/>
<path d="M43.73 89.27C66.7603 89.27 85.43 70.5689 85.43 47.5C85.43 24.4311 66.7603 5.72998 43.73 5.72998C20.6997 5.72998 2.03003 24.4311 2.03003 47.5C2.03003 70.5689 20.6997 89.27 43.73 89.27Z" fill="#CCA98B" stroke="#F2F2F2"/>
<path d="M43.69 85.67C66.7203 85.67 85.39 66.9689 85.39 43.9C85.39 20.8311 66.7203 2.13 43.69 2.13C20.6597 2.13 1.98999 20.8311 1.98999 43.9C1.98999 66.9689 20.6597 85.67 43.69 85.67Z" fill="white" stroke="#F2F2F2" stroke-width="3"/>
<path d="M25.7399 51.43C28.4099 49.22 30.5199 47.4101 32.0599 45.9901C33.5999 44.5701 34.8998 43.08 35.9698 41.53C37.0298 39.97 37.5699 38.4601 37.5699 36.9901C37.5699 35.8701 37.3099 35 36.7899 34.37C36.2699 33.74 35.4899 33.43 34.4599 33.43C33.4299 33.43 32.6099 33.8201 32.0299 34.6001C31.4399 35.3801 31.1499 36.48 31.1499 37.89H24.3999C24.4499 35.57 24.9499 33.63 25.8899 32.08C26.8299 30.52 28.0699 29.38 29.6099 28.64C31.1499 27.9 32.8599 27.54 34.7499 27.54C37.9999 27.54 40.4399 28.37 42.0999 30.04C43.7499 31.71 44.5799 33.87 44.5799 36.55C44.5799 39.47 43.5799 42.18 41.5899 44.67C39.5999 47.17 37.0599 49.6 33.9799 51.97H45.0299V57.66H24.4899V52.4601C25.4199 51.7201 25.8399 51.38 25.7599 51.44L25.7399 51.43Z" fill="#E1A9AF"/>
<path d="M48.31 32.58C49.01 31.48 49.99 30.61 51.26 29.98C52.53 29.35 53.98 29.04 55.62 29.04C57.26 29.04 58.71 29.35 59.98 29.98C61.25 30.61 62.23 31.47 62.93 32.58C63.63 33.69 63.97 34.96 63.97 36.41C63.97 37.86 63.62 39.14 62.91 40.26C62.2 41.38 61.21 42.26 59.94 42.9C58.67 43.54 57.22 43.86 55.58 43.86C53.94 43.86 52.5 43.54 51.24 42.9C49.98 42.26 49.01 41.38 48.31 40.26C47.61 39.14 47.27 37.86 47.27 36.41C47.27 34.96 47.62 33.69 48.31 32.58ZM57.71 33.95C57.14 33.38 56.43 33.09 55.58 33.09C54.73 33.09 54.07 33.38 53.51 33.95C52.95 34.52 52.67 35.36 52.67 36.45C52.67 37.54 52.94 38.33 53.49 38.91C54.04 39.49 54.73 39.7701 55.58 39.7701C56.43 39.7701 57.13 39.48 57.71 38.89C58.28 38.3 58.57 37.4901 58.57 36.4601C58.57 35.3701 58.28 34.5401 57.71 33.9601V33.95Z" fill="#E1A9AF"/>
<path d="M105.38 35.45C104.59 36.22 103.38 36.6 101.75 36.6H99.07V42.42H97.25V28.48H101.75C103.32 28.48 104.52 28.86 105.34 29.62C106.16 30.38 106.57 31.36 106.57 32.56C106.57 33.76 106.17 34.68 105.38 35.45ZM103.99 34.44C104.47 34 104.71 33.37 104.71 32.56C104.71 30.84 103.72 29.98 101.75 29.98H99.07V35.1H101.75C102.76 35.1 103.51 34.88 103.99 34.44Z" fill="#E1A9AF"/>
<path d="M108.83 33.95C109.28 33.1 109.91 32.45 110.7 31.98C111.49 31.51 112.38 31.28 113.35 31.28C114.32 31.28 115.14 31.49 115.85 31.9C116.56 32.31 117.08 32.83 117.43 33.46V31.46H119.27V42.42H117.43V40.38C117.07 41.02 116.53 41.55 115.82 41.97C115.11 42.39 114.28 42.6 113.33 42.6C112.38 42.6 111.48 42.36 110.69 41.88C109.9 41.4 109.28 40.73 108.83 39.86C108.38 38.99 108.15 38.01 108.15 36.9C108.15 35.79 108.38 34.8 108.83 33.95ZM116.93 34.76C116.6 34.15 116.15 33.68 115.58 33.35C115.01 33.02 114.39 32.86 113.71 32.86C113.03 32.86 112.41 33.02 111.85 33.34C111.29 33.66 110.84 34.13 110.51 34.74C110.18 35.35 110.01 36.07 110.01 36.9C110.01 37.73 110.18 38.47 110.51 39.09C110.84 39.71 111.29 40.18 111.85 40.51C112.41 40.84 113.03 41 113.71 41C114.39 41 115.01 40.84 115.58 40.51C116.15 40.18 116.6 39.71 116.93 39.09C117.26 38.47 117.43 37.75 117.43 36.92C117.43 36.09 117.26 35.37 116.93 34.76Z" fill="#E1A9AF"/>
<path d="M123.97 42.17C123.3 41.88 122.78 41.48 122.39 40.97C122 40.46 121.79 39.87 121.75 39.2H123.63C123.68 39.75 123.94 40.19 124.4 40.54C124.86 40.89 125.46 41.06 126.21 41.06C126.9 41.06 127.45 40.91 127.85 40.6C128.25 40.29 128.45 39.91 128.45 39.44C128.45 38.97 128.24 38.6 127.81 38.37C127.38 38.14 126.72 37.91 125.83 37.68C125.02 37.47 124.35 37.25 123.84 37.03C123.33 36.81 122.89 36.48 122.52 36.05C122.15 35.62 121.97 35.05 121.97 34.34C121.97 33.78 122.14 33.27 122.47 32.8C122.8 32.33 123.28 31.96 123.89 31.69C124.5 31.42 125.2 31.28 125.99 31.28C127.2 31.28 128.18 31.59 128.93 32.2C129.68 32.81 130.08 33.65 130.13 34.72H128.31C128.27 34.15 128.04 33.69 127.62 33.34C127.2 32.99 126.64 32.82 125.93 32.82C125.28 32.82 124.76 32.96 124.37 33.24C123.98 33.52 123.79 33.89 123.79 34.34C123.79 34.7 123.91 35 124.14 35.23C124.37 35.46 124.67 35.65 125.02 35.79C125.37 35.93 125.86 36.09 126.49 36.26C127.28 36.47 127.92 36.68 128.41 36.89C128.9 37.1 129.33 37.41 129.68 37.82C130.03 38.23 130.22 38.77 130.23 39.44C130.23 40.04 130.06 40.58 129.73 41.06C129.4 41.54 128.93 41.92 128.32 42.19C127.71 42.46 127.02 42.6 126.23 42.6C125.39 42.6 124.64 42.46 123.97 42.17Z" fill="#E1A9AF"/>
<path d="M134.41 42.17C133.74 41.88 133.22 41.48 132.83 40.97C132.44 40.46 132.23 39.87 132.19 39.2H134.07C134.12 39.75 134.38 40.19 134.84 40.54C135.3 40.89 135.9 41.06 136.65 41.06C137.34 41.06 137.89 40.91 138.29 40.6C138.69 40.29 138.89 39.91 138.89 39.44C138.89 38.97 138.68 38.6 138.25 38.37C137.82 38.14 137.16 37.91 136.27 37.68C135.46 37.47 134.79 37.25 134.28 37.03C133.77 36.81 133.33 36.48 132.96 36.05C132.59 35.62 132.41 35.05 132.41 34.34C132.41 33.78 132.58 33.27 132.91 32.8C133.24 32.33 133.72 31.96 134.33 31.69C134.94 31.42 135.64 31.28 136.43 31.28C137.64 31.28 138.62 31.59 139.37 32.2C140.12 32.81 140.52 33.65 140.57 34.72H138.75C138.71 34.15 138.48 33.69 138.06 33.34C137.64 32.99 137.08 32.82 136.37 32.82C135.72 32.82 135.2 32.96 134.81 33.24C134.42 33.52 134.23 33.89 134.23 34.34C134.23 34.7 134.35 35 134.58 35.23C134.81 35.46 135.11 35.65 135.46 35.79C135.81 35.93 136.3 36.09 136.93 36.26C137.72 36.47 138.36 36.68 138.85 36.89C139.34 37.1 139.77 37.41 140.12 37.82C140.47 38.23 140.66 38.77 140.67 39.44C140.67 40.04 140.5 40.58 140.17 41.06C139.84 41.54 139.37 41.92 138.76 42.19C138.15 42.46 137.46 42.6 136.67 42.6C135.83 42.6 135.08 42.46 134.41 42.17Z" fill="#E1A9AF"/>
<path d="M145.22 41.9C144.39 41.43 143.73 40.77 143.26 39.91C142.79 39.05 142.55 38.05 142.55 36.92C142.55 35.79 142.79 34.81 143.28 33.95C143.77 33.09 144.43 32.43 145.27 31.97C146.11 31.51 147.05 31.28 148.09 31.28C149.13 31.28 150.07 31.51 150.91 31.97C151.75 32.43 152.41 33.09 152.9 33.94C153.39 34.79 153.63 35.79 153.63 36.92C153.63 38.05 153.38 39.05 152.88 39.91C152.38 40.77 151.7 41.43 150.85 41.9C150 42.37 149.05 42.6 148.01 42.6C146.97 42.6 146.05 42.37 145.22 41.9ZM149.85 40.54C150.42 40.23 150.89 39.77 151.24 39.16C151.59 38.55 151.77 37.8 151.77 36.92C151.77 36.04 151.6 35.29 151.25 34.68C150.9 34.07 150.45 33.61 149.89 33.31C149.33 33.01 148.72 32.86 148.07 32.86C147.42 32.86 146.79 33.01 146.24 33.31C145.69 33.61 145.24 34.07 144.91 34.68C144.58 35.29 144.41 36.04 144.41 36.92C144.41 37.8 144.57 38.57 144.9 39.18C145.23 39.79 145.66 40.25 146.21 40.55C146.76 40.85 147.36 41 148.01 41C148.66 41 149.28 40.85 149.85 40.54Z" fill="#E1A9AF"/>
<path d="M166.98 498.12C168.04 498.66 168.85 499.43 169.41 500.43C169.97 501.43 170.26 502.61 170.26 503.96C170.26 505.31 169.98 506.49 169.41 507.48C168.84 508.47 168.03 509.23 166.98 509.76C165.92 510.29 164.67 510.55 163.23 510.55H159.11V497.31H163.23C164.67 497.31 165.92 497.58 166.98 498.12ZM167.14 507.78C168.04 506.87 168.49 505.6 168.49 503.97C168.49 502.34 168.04 501.04 167.13 500.11C166.22 499.19 164.92 498.72 163.23 498.72H160.84V509.13H163.23C164.94 509.13 166.24 508.68 167.14 507.77V507.78Z" fill="#424242"/>
<path d="M174.43 510.07C173.64 509.63 173.02 509 172.57 508.18C172.12 507.36 171.9 506.42 171.9 505.34C171.9 504.26 172.13 503.34 172.59 502.52C173.05 501.7 173.68 501.08 174.48 500.64C175.28 500.2 176.17 499.98 177.16 499.98C178.15 499.98 179.04 500.2 179.84 500.64C180.64 501.08 181.27 501.7 181.73 502.51C182.19 503.32 182.42 504.26 182.42 505.34C182.42 506.42 182.18 507.36 181.71 508.18C181.23 509 180.59 509.63 179.78 510.07C178.97 510.51 178.07 510.74 177.08 510.74C176.09 510.74 175.22 510.52 174.43 510.07ZM178.83 508.77C179.37 508.48 179.81 508.04 180.15 507.46C180.49 506.88 180.65 506.17 180.65 505.33C180.65 504.49 180.48 503.78 180.16 503.2C179.83 502.62 179.4 502.18 178.87 501.9C178.34 501.62 177.76 501.47 177.14 501.47C176.52 501.47 175.93 501.61 175.4 501.9C174.87 502.19 174.45 502.62 174.14 503.2C173.82 503.78 173.67 504.49 173.67 505.33C173.67 506.17 173.83 506.89 174.14 507.48C174.45 508.06 174.86 508.5 175.38 508.78C175.9 509.06 176.47 509.21 177.09 509.21C177.71 509.21 178.29 509.06 178.84 508.77H178.83Z" fill="#424242"/>
<path d="M187.99 500.57C188.67 500.18 189.45 499.98 190.33 499.98C191.27 499.98 192.11 500.2 192.86 500.65C193.61 501.09 194.2 501.72 194.63 502.52C195.06 503.32 195.28 504.26 195.28 505.32C195.28 506.38 195.06 507.31 194.63 508.13C194.2 508.95 193.61 509.59 192.85 510.05C192.09 510.51 191.26 510.73 190.33 510.73C189.4 510.73 188.64 510.53 187.96 510.14C187.28 509.75 186.77 509.25 186.43 508.64V510.56H184.7V496.5H186.43V502.09C186.78 501.47 187.3 500.96 187.99 500.57ZM193.02 503.26C192.7 502.68 192.28 502.23 191.74 501.93C191.2 501.63 190.61 501.47 189.96 501.47C189.31 501.47 188.74 501.63 188.2 501.94C187.66 502.25 187.23 502.7 186.91 503.29C186.59 503.88 186.43 504.56 186.43 505.33C186.43 506.1 186.59 506.8 186.91 507.39C187.23 507.98 187.66 508.43 188.2 508.74C188.74 509.05 189.32 509.21 189.96 509.21C190.6 509.21 191.2 509.05 191.74 508.74C192.28 508.43 192.7 507.98 193.02 507.39C193.34 506.8 193.49 506.11 193.49 505.31C193.49 504.51 193.33 503.84 193.02 503.26Z" fill="#424242"/>
<path d="M200.57 500.45C201.13 500.12 201.82 499.96 202.63 499.96V501.75H202.17C200.23 501.75 199.26 502.8 199.26 504.9V510.56H197.53V500.15H199.26V501.84C199.56 501.24 200 500.78 200.56 500.45H200.57Z" fill="#424242"/>
<path d="M214.07 506H205.75C205.81 507.03 206.17 507.83 206.8 508.4C207.43 508.97 208.22 509.26 209.13 509.26C209.88 509.26 210.5 509.09 211 508.74C211.5 508.39 211.85 507.93 212.05 507.34H213.91C213.63 508.34 213.07 509.15 212.24 509.78C211.41 510.41 210.36 510.72 209.12 510.72C208.13 510.72 207.25 510.5 206.47 510.05C205.69 509.6 205.08 508.98 204.64 508.16C204.2 507.34 203.97 506.4 203.97 505.32C203.97 504.24 204.18 503.3 204.62 502.49C205.06 501.68 205.66 501.06 206.43 500.62C207.21 500.18 208.1 499.96 209.12 499.96C210.14 499.96 210.98 500.18 211.74 500.61C212.5 501.04 213.09 501.63 213.5 502.39C213.91 503.14 214.12 504 214.12 504.94C214.12 505.27 214.1 505.62 214.06 505.99L214.07 506ZM211.91 502.89C211.62 502.41 211.22 502.05 210.72 501.81C210.22 501.56 209.67 501.44 209.06 501.44C208.19 501.44 207.44 501.72 206.83 502.28C206.22 502.84 205.86 503.61 205.78 504.6H212.35C212.35 503.94 212.2 503.37 211.91 502.9V502.89Z" fill="#424242"/>
<path d="M221.48 502.51C221.91 501.71 222.5 501.08 223.26 500.64C224.02 500.2 224.85 499.97 225.78 499.97C226.71 499.97 227.48 500.17 228.16 500.56C228.83 500.95 229.33 501.45 229.66 502.04V500.14H231.41V510.55H229.66V508.61C229.32 509.22 228.81 509.72 228.13 510.12C227.45 510.52 226.66 510.72 225.76 510.72C224.86 510.72 224 510.49 223.25 510.04C222.5 509.58 221.91 508.94 221.48 508.12C221.05 507.3 220.83 506.36 220.83 505.31C220.83 504.26 221.04 503.31 221.48 502.51ZM229.18 503.28C228.86 502.7 228.44 502.25 227.9 501.94C227.36 501.63 226.77 501.47 226.12 501.47C225.47 501.47 224.89 501.62 224.35 501.93C223.81 502.24 223.39 502.68 223.08 503.26C222.77 503.84 222.61 504.53 222.61 505.31C222.61 506.09 222.77 506.8 223.08 507.39C223.4 507.98 223.82 508.43 224.35 508.74C224.88 509.05 225.47 509.21 226.12 509.21C226.77 509.21 227.36 509.05 227.9 508.74C228.44 508.43 228.86 507.98 229.18 507.39C229.5 506.8 229.65 506.11 229.65 505.33C229.65 504.55 229.49 503.86 229.18 503.28Z" fill="#424242"/>
<path d="M235.86 510.32C235.23 510.05 234.73 509.67 234.36 509.18C233.99 508.69 233.79 508.13 233.75 507.5H235.54C235.59 508.02 235.83 508.44 236.27 508.77C236.71 509.1 237.28 509.26 237.99 509.26C238.65 509.26 239.17 509.11 239.55 508.82C239.93 508.53 240.12 508.16 240.12 507.72C240.12 507.28 239.92 506.93 239.51 506.7C239.1 506.48 238.48 506.26 237.63 506.04C236.86 505.84 236.23 505.63 235.74 505.42C235.25 505.21 234.83 504.9 234.49 504.49C234.14 504.08 233.97 503.54 233.97 502.87C233.97 502.34 234.13 501.85 234.45 501.41C234.77 500.97 235.22 500.62 235.8 500.36C236.38 500.1 237.05 499.97 237.8 499.97C238.95 499.97 239.88 500.26 240.59 500.84C241.3 501.42 241.68 502.22 241.73 503.23H240C239.96 502.69 239.74 502.25 239.34 501.92C238.94 501.59 238.41 501.43 237.73 501.43C237.11 501.43 236.61 501.56 236.25 501.83C235.88 502.1 235.7 502.44 235.7 502.87C235.7 503.21 235.81 503.49 236.03 503.72C236.25 503.95 236.53 504.12 236.87 504.25C237.21 504.38 237.67 504.53 238.27 504.7C239.02 504.9 239.62 505.1 240.09 505.3C240.56 505.5 240.96 505.79 241.3 506.18C241.63 506.57 241.81 507.09 241.82 507.72C241.82 508.29 241.66 508.8 241.34 509.26C241.02 509.72 240.58 510.07 240 510.33C239.42 510.59 238.76 510.72 238.01 510.72C237.21 510.72 236.5 510.58 235.86 510.31V510.32Z" fill="#424242"/>
<path d="M252.58 500.58C253.26 500.18 254.05 499.98 254.95 499.98C255.85 499.98 256.71 500.2 257.47 500.65C258.23 501.1 258.82 501.72 259.25 502.52C259.68 503.32 259.9 504.26 259.9 505.32C259.9 506.38 259.68 507.31 259.25 508.13C258.82 508.95 258.23 509.59 257.47 510.05C256.71 510.51 255.88 510.73 254.95 510.73C254.02 510.73 253.28 510.53 252.6 510.13C251.92 509.73 251.41 509.23 251.05 508.64V515.5H249.32V500.15H251.05V502.07C251.39 501.48 251.9 500.98 252.58 500.58ZM257.64 503.26C257.32 502.68 256.9 502.23 256.36 501.93C255.82 501.63 255.23 501.47 254.58 501.47C253.93 501.47 253.36 501.63 252.82 501.94C252.28 502.25 251.85 502.7 251.53 503.29C251.21 503.88 251.05 504.56 251.05 505.33C251.05 506.1 251.21 506.8 251.53 507.39C251.85 507.98 252.28 508.43 252.82 508.74C253.36 509.05 253.94 509.21 254.58 509.21C255.22 509.21 255.82 509.05 256.36 508.74C256.9 508.43 257.32 507.98 257.64 507.39C257.96 506.8 258.11 506.11 258.11 505.31C258.11 504.51 257.95 503.84 257.64 503.26Z" fill="#424242"/>
<path d="M264.05 510.07C263.26 509.63 262.64 509 262.19 508.18C261.74 507.36 261.52 506.42 261.52 505.34C261.52 504.26 261.75 503.34 262.21 502.52C262.67 501.7 263.3 501.08 264.1 500.64C264.9 500.2 265.79 499.98 266.78 499.98C267.77 499.98 268.66 500.2 269.46 500.64C270.26 501.08 270.89 501.7 271.35 502.51C271.81 503.32 272.04 504.26 272.04 505.34C272.04 506.42 271.8 507.36 271.33 508.18C270.85 509 270.21 509.63 269.4 510.07C268.59 510.51 267.69 510.74 266.7 510.74C265.71 510.74 264.84 510.52 264.05 510.07ZM268.45 508.77C268.99 508.48 269.43 508.04 269.77 507.46C270.11 506.88 270.27 506.17 270.27 505.33C270.27 504.49 270.1 503.78 269.78 503.2C269.45 502.62 269.02 502.18 268.49 501.9C267.96 501.62 267.38 501.47 266.76 501.47C266.14 501.47 265.55 501.61 265.02 501.9C264.49 502.19 264.07 502.62 263.76 503.2C263.44 503.78 263.29 504.49 263.29 505.33C263.29 506.17 263.45 506.89 263.76 507.48C264.07 508.06 264.48 508.5 265 508.78C265.52 509.06 266.09 509.21 266.71 509.21C267.33 509.21 267.91 509.06 268.46 508.77H268.45Z" fill="#424242"/>
<path d="M282.47 501.11C283.26 501.88 283.65 502.98 283.65 504.43V510.57H281.94V504.68C281.94 503.64 281.68 502.85 281.16 502.3C280.64 501.75 279.93 501.47 279.03 501.47C278.13 501.47 277.39 501.75 276.85 502.32C276.31 502.89 276.04 503.72 276.04 504.81V510.57H274.31V500.16H276.04V501.64C276.38 501.11 276.85 500.7 277.44 500.4C278.03 500.11 278.68 499.96 279.39 499.96C280.66 499.96 281.68 500.34 282.47 501.11Z" fill="#424242"/>
<path d="M288.59 501.57V507.71C288.59 508.22 288.7 508.57 288.91 508.78C289.13 508.99 289.5 509.09 290.03 509.09H291.3V510.55H289.74C288.78 510.55 288.05 510.33 287.57 509.88C287.09 509.44 286.85 508.71 286.85 507.7V501.56H285.5V500.14H286.85V497.52H288.58V500.14H291.3V501.56H288.58L288.59 501.57Z" fill="#424242"/>
<path d="M293.4 502.51C293.83 501.71 294.42 501.08 295.18 500.64C295.94 500.2 296.77 499.97 297.7 499.97C298.63 499.97 299.4 500.17 300.08 500.56C300.75 500.95 301.25 501.45 301.58 502.04V500.14H303.33V510.55H301.58V508.61C301.24 509.22 300.73 509.72 300.05 510.12C299.37 510.52 298.58 510.72 297.68 510.72C296.78 510.72 295.92 510.49 295.17 510.04C294.42 509.58 293.83 508.94 293.4 508.12C292.97 507.3 292.75 506.36 292.75 505.31C292.75 504.26 292.96 503.31 293.4 502.51ZM301.09 503.28C300.77 502.7 300.35 502.25 299.81 501.94C299.27 501.63 298.68 501.47 298.03 501.47C297.38 501.47 296.8 501.62 296.26 501.93C295.72 502.24 295.3 502.68 294.99 503.26C294.68 503.84 294.52 504.53 294.52 505.31C294.52 506.09 294.68 506.8 294.99 507.39C295.31 507.98 295.73 508.43 296.26 508.74C296.79 509.05 297.38 509.21 298.03 509.21C298.68 509.21 299.27 509.05 299.81 508.74C300.35 508.43 300.77 507.98 301.09 507.39C301.41 506.8 301.56 506.11 301.56 505.33C301.56 504.55 301.4 503.86 301.09 503.28Z" fill="#424242"/>
<path d="M307.78 510.32C307.15 510.05 306.65 509.67 306.28 509.18C305.91 508.69 305.71 508.13 305.67 507.5H307.46C307.51 508.02 307.75 508.44 308.19 508.77C308.63 509.1 309.2 509.26 309.91 509.26C310.57 509.26 311.09 509.11 311.47 508.82C311.85 508.53 312.04 508.16 312.04 507.72C312.04 507.28 311.84 506.93 311.43 506.7C311.02 506.48 310.4 506.26 309.55 506.04C308.78 505.84 308.15 505.63 307.66 505.42C307.17 505.21 306.75 504.9 306.41 504.49C306.06 504.08 305.89 503.54 305.89 502.87C305.89 502.34 306.05 501.85 306.37 501.41C306.69 500.97 307.14 500.62 307.72 500.36C308.3 500.1 308.97 499.97 309.72 499.97C310.87 499.97 311.8 500.26 312.51 500.84C313.22 501.42 313.6 502.22 313.65 503.23H311.92C311.88 502.69 311.66 502.25 311.26 501.92C310.86 501.59 310.33 501.43 309.65 501.43C309.03 501.43 308.53 501.56 308.17 501.83C307.8 502.1 307.62 502.44 307.62 502.87C307.62 503.21 307.73 503.49 307.95 503.72C308.17 503.95 308.45 504.12 308.79 504.25C309.13 504.38 309.59 504.53 310.19 504.7C310.94 504.9 311.54 505.1 312.01 505.3C312.48 505.5 312.88 505.79 313.22 506.18C313.55 506.57 313.73 507.09 313.74 507.72C313.74 508.29 313.58 508.8 313.26 509.26C312.94 509.72 312.5 510.07 311.92 510.33C311.34 510.59 310.68 510.72 309.93 510.72C309.13 510.72 308.42 510.58 307.78 510.31V510.32Z" fill="#424242"/>
<path d="M324.49 500.58C325.17 500.18 325.96 499.98 326.86 499.98C327.76 499.98 328.62 500.2 329.38 500.65C330.14 501.1 330.73 501.72 331.16 502.52C331.59 503.32 331.81 504.26 331.81 505.32C331.81 506.38 331.59 507.31 331.16 508.13C330.73 508.95 330.14 509.59 329.38 510.05C328.62 510.51 327.79 510.73 326.86 510.73C325.93 510.73 325.19 510.53 324.51 510.13C323.83 509.73 323.32 509.23 322.96 508.64V515.5H321.23V500.15H322.96V502.07C323.3 501.48 323.81 500.98 324.49 500.58ZM329.55 503.26C329.23 502.68 328.81 502.23 328.27 501.93C327.73 501.63 327.14 501.47 326.49 501.47C325.84 501.47 325.27 501.63 324.73 501.94C324.19 502.25 323.76 502.7 323.44 503.29C323.12 503.88 322.96 504.56 322.96 505.33C322.96 506.1 323.12 506.8 323.44 507.39C323.76 507.98 324.19 508.43 324.73 508.74C325.27 509.05 325.85 509.21 326.49 509.21C327.13 509.21 327.73 509.05 328.27 508.74C328.81 508.43 329.23 507.98 329.55 507.39C329.87 506.8 330.02 506.11 330.02 505.31C330.02 504.51 329.86 503.84 329.55 503.26Z" fill="#424242"/>
<path d="M334.08 502.51C334.51 501.71 335.1 501.08 335.86 500.64C336.62 500.2 337.45 499.97 338.38 499.97C339.31 499.97 340.08 500.17 340.76 500.56C341.43 500.95 341.93 501.45 342.26 502.04V500.14H344.01V510.55H342.26V508.61C341.92 509.22 341.41 509.72 340.73 510.12C340.05 510.52 339.26 510.72 338.36 510.72C337.46 510.72 336.6 510.49 335.85 510.04C335.1 509.58 334.51 508.94 334.08 508.12C333.65 507.3 333.43 506.36 333.43 505.31C333.43 504.26 333.64 503.31 334.08 502.51ZM341.77 503.28C341.45 502.7 341.03 502.25 340.49 501.94C339.95 501.63 339.36 501.47 338.71 501.47C338.06 501.47 337.48 501.62 336.94 501.93C336.4 502.24 335.98 502.68 335.67 503.26C335.36 503.84 335.2 504.53 335.2 505.31C335.2 506.09 335.36 506.8 335.67 507.39C335.99 507.98 336.41 508.43 336.94 508.74C337.47 509.05 338.06 509.21 338.71 509.21C339.36 509.21 339.95 509.05 340.49 508.74C341.03 508.43 341.45 507.98 341.77 507.39C342.09 506.8 342.24 506.11 342.24 505.33C342.24 504.55 342.08 503.86 341.77 503.28Z" fill="#424242"/>
<path d="M349.95 500.45C350.51 500.12 351.2 499.96 352.01 499.96V501.75H351.55C349.61 501.75 348.64 502.8 348.64 504.9V510.56H346.91V500.15H348.64V501.84C348.94 501.24 349.38 500.78 349.94 500.45H349.95Z" fill="#424242"/>
<path d="M354 502.51C354.43 501.71 355.02 501.08 355.78 500.64C356.54 500.2 357.37 499.97 358.3 499.97C359.23 499.97 360 500.17 360.68 500.56C361.35 500.95 361.85 501.45 362.18 502.04V500.14H363.93V510.55H362.18V508.61C361.84 509.22 361.33 509.72 360.65 510.12C359.97 510.52 359.18 510.72 358.28 510.72C357.38 510.72 356.52 510.49 355.77 510.04C355.02 509.58 354.43 508.94 354 508.12C353.57 507.3 353.35 506.36 353.35 505.31C353.35 504.26 353.56 503.31 354 502.51ZM361.7 503.28C361.38 502.7 360.96 502.25 360.42 501.94C359.88 501.63 359.29 501.47 358.64 501.47C357.99 501.47 357.41 501.62 356.87 501.93C356.33 502.24 355.91 502.68 355.6 503.26C355.29 503.84 355.13 504.53 355.13 505.31C355.13 506.09 355.29 506.8 355.6 507.39C355.92 507.98 356.34 508.43 356.87 508.74C357.4 509.05 357.99 509.21 358.64 509.21C359.29 509.21 359.88 509.05 360.42 508.74C360.96 508.43 361.38 507.98 361.7 507.39C362.02 506.8 362.17 506.11 362.17 505.33C362.17 504.55 362.01 503.86 361.7 503.28Z" fill="#424242"/>
<path d="M376.16 501.57H373.97V510.56H372.24V501.57H370.89V500.15H372.24V499.41C372.24 498.24 372.54 497.39 373.14 496.85C373.74 496.31 374.71 496.04 376.04 496.04V497.48C375.28 497.48 374.75 497.63 374.43 497.93C374.12 498.23 373.96 498.72 373.96 499.4V500.14H376.15V501.56L376.16 501.57Z" fill="#424242"/>
<path d="M378.17 502.51C378.6 501.71 379.19 501.08 379.95 500.64C380.71 500.2 381.54 499.97 382.47 499.97C383.4 499.97 384.17 500.17 384.85 500.56C385.52 500.95 386.02 501.45 386.35 502.04V500.14H388.1V510.55H386.35V508.61C386.01 509.22 385.5 509.72 384.82 510.12C384.14 510.52 383.35 510.72 382.45 510.72C381.55 510.72 380.69 510.49 379.94 510.04C379.19 509.58 378.6 508.94 378.17 508.12C377.74 507.3 377.52 506.36 377.52 505.31C377.52 504.26 377.73 503.31 378.17 502.51ZM385.87 503.28C385.55 502.7 385.13 502.25 384.59 501.94C384.05 501.63 383.46 501.47 382.81 501.47C382.16 501.47 381.58 501.62 381.04 501.93C380.5 502.24 380.08 502.68 379.77 503.26C379.46 503.84 379.3 504.53 379.3 505.31C379.3 506.09 379.46 506.8 379.77 507.39C380.09 507.98 380.51 508.43 381.04 508.74C381.57 509.05 382.16 509.21 382.81 509.21C383.46 509.21 384.05 509.05 384.59 508.74C385.13 508.43 385.55 507.98 385.87 507.39C386.19 506.8 386.34 506.11 386.34 505.33C386.34 504.55 386.18 503.86 385.87 503.28Z" fill="#424242"/>
<path d="M392.31 509.13H397.42V510.55H390.33V509.13L395.38 501.55H390.36V500.14H397.37V501.55L392.3 509.13H392.31Z" fill="#424242"/>
<path d="M409.11 506H400.79C400.85 507.03 401.21 507.83 401.84 508.4C402.47 508.97 403.26 509.26 404.17 509.26C404.92 509.26 405.54 509.09 406.04 508.74C406.54 508.39 406.89 507.93 407.09 507.34H408.95C408.67 508.34 408.11 509.15 407.28 509.78C406.45 510.41 405.4 510.72 404.16 510.72C403.17 510.72 402.29 510.5 401.51 510.05C400.73 509.6 400.12 508.98 399.68 508.16C399.24 507.34 399.01 506.4 399.01 505.32C399.01 504.24 399.22 503.3 399.66 502.49C400.1 501.68 400.7 501.06 401.47 500.62C402.25 500.18 403.14 499.96 404.16 499.96C405.18 499.96 406.02 500.18 406.78 500.61C407.54 501.04 408.13 501.63 408.54 502.39C408.95 503.14 409.16 504 409.16 504.94C409.16 505.27 409.14 505.62 409.1 505.99L409.11 506ZM406.94 502.89C406.65 502.41 406.25 502.05 405.75 501.81C405.25 501.56 404.7 501.44 404.09 501.44C403.22 501.44 402.47 501.72 401.86 502.28C401.25 502.84 400.89 503.61 400.81 504.6H407.38C407.38 503.94 407.23 503.37 406.94 502.9V502.89Z" fill="#424242"/>
<path d="M414.47 500.45C415.03 500.12 415.72 499.96 416.53 499.96V501.75H416.07C414.13 501.75 413.16 502.8 413.16 504.9V510.56H411.43V500.15H413.16V501.84C413.46 501.24 413.9 500.78 414.46 500.45H414.47Z" fill="#424242"/>
<path d="M423.6 502.51C424.03 501.71 424.62 501.08 425.38 500.64C426.14 500.2 426.97 499.97 427.9 499.97C428.83 499.97 429.6 500.17 430.28 500.56C430.95 500.95 431.45 501.45 431.78 502.04V500.14H433.53V510.55H431.78V508.61C431.44 509.22 430.93 509.72 430.25 510.12C429.57 510.52 428.78 510.72 427.88 510.72C426.98 510.72 426.12 510.49 425.37 510.04C424.62 509.58 424.03 508.94 423.6 508.12C423.17 507.3 422.95 506.36 422.95 505.31C422.95 504.26 423.16 503.31 423.6 502.51ZM431.3 503.28C430.98 502.7 430.56 502.25 430.02 501.94C429.48 501.63 428.89 501.47 428.24 501.47C427.59 501.47 427.01 501.62 426.47 501.93C425.93 502.24 425.51 502.68 425.2 503.26C424.89 503.84 424.73 504.53 424.73 505.31C424.73 506.09 424.89 506.8 425.2 507.39C425.52 507.98 425.94 508.43 426.47 508.74C427 509.05 427.59 509.21 428.24 509.21C428.89 509.21 429.48 509.05 430.02 508.74C430.56 508.43 430.98 507.98 431.3 507.39C431.62 506.8 431.77 506.11 431.77 505.33C431.77 504.55 431.61 503.86 431.3 503.28Z" fill="#424242"/>
<path d="M437.98 510.32C437.35 510.05 436.85 509.67 436.48 509.18C436.11 508.69 435.91 508.13 435.87 507.5H437.66C437.71 508.02 437.95 508.44 438.39 508.77C438.83 509.1 439.4 509.26 440.11 509.26C440.77 509.26 441.29 509.11 441.67 508.82C442.05 508.53 442.24 508.16 442.24 507.72C442.24 507.28 442.04 506.93 441.63 506.7C441.22 506.48 440.6 506.26 439.75 506.04C438.98 505.84 438.35 505.63 437.86 505.42C437.37 505.21 436.95 504.9 436.61 504.49C436.26 504.08 436.09 503.54 436.09 502.87C436.09 502.34 436.25 501.85 436.57 501.41C436.89 500.97 437.34 500.62 437.92 500.36C438.5 500.1 439.17 499.97 439.92 499.97C441.07 499.97 442 500.26 442.71 500.84C443.42 501.42 443.8 502.22 443.85 503.23H442.12C442.08 502.69 441.86 502.25 441.46 501.92C441.06 501.59 440.53 501.43 439.85 501.43C439.23 501.43 438.73 501.56 438.37 501.83C438 502.1 437.82 502.44 437.82 502.87C437.82 503.21 437.93 503.49 438.15 503.72C438.37 503.95 438.65 504.12 438.99 504.25C439.33 504.38 439.79 504.53 440.39 504.7C441.14 504.9 441.74 505.1 442.21 505.3C442.68 505.5 443.08 505.79 443.42 506.18C443.75 506.57 443.93 507.09 443.94 507.72C443.94 508.29 443.78 508.8 443.46 509.26C443.14 509.72 442.7 510.07 442.12 510.33C441.54 510.59 440.88 510.72 440.13 510.72C439.33 510.72 438.62 510.58 437.98 510.31V510.32Z" fill="#424242"/>
<path d="M239.62 523.38C240.3 522.98 241.09 522.78 241.99 522.78C242.89 522.78 243.75 523 244.51 523.45C245.27 523.9 245.86 524.52 246.29 525.32C246.72 526.12 246.94 527.06 246.94 528.12C246.94 529.18 246.72 530.11 246.29 530.93C245.86 531.75 245.27 532.39 244.51 532.85C243.75 533.31 242.92 533.53 241.99 533.53C241.06 533.53 240.32 533.33 239.64 532.93C238.96 532.53 238.45 532.03 238.09 531.44V538.3H236.36V522.95H238.09V524.87C238.43 524.28 238.94 523.78 239.62 523.38ZM244.68 526.06C244.36 525.48 243.94 525.03 243.4 524.73C242.86 524.43 242.27 524.27 241.62 524.27C240.97 524.27 240.4 524.43 239.86 524.74C239.32 525.05 238.89 525.5 238.57 526.09C238.25 526.68 238.09 527.36 238.09 528.13C238.09 528.9 238.25 529.6 238.57 530.19C238.89 530.78 239.32 531.23 239.86 531.54C240.4 531.85 240.98 532.01 241.62 532.01C242.26 532.01 242.86 531.85 243.4 531.54C243.94 531.23 244.36 530.78 244.68 530.19C245 529.6 245.15 528.91 245.15 528.11C245.15 527.31 244.99 526.64 244.68 526.06Z" fill="#424242"/>
<path d="M258.65 528.8H250.33C250.39 529.83 250.75 530.63 251.38 531.2C252.01 531.77 252.8 532.06 253.71 532.06C254.46 532.06 255.08 531.89 255.58 531.54C256.08 531.19 256.43 530.73 256.63 530.14H258.49C258.21 531.14 257.65 531.95 256.82 532.58C255.99 533.21 254.94 533.52 253.7 533.52C252.71 533.52 251.83 533.3 251.05 532.85C250.27 532.4 249.66 531.78 249.22 530.96C248.78 530.14 248.55 529.2 248.55 528.12C248.55 527.04 248.76 526.1 249.2 525.29C249.64 524.48 250.24 523.86 251.01 523.42C251.79 522.98 252.68 522.76 253.7 522.76C254.72 522.76 255.56 522.98 256.32 523.41C257.08 523.84 257.67 524.43 258.08 525.19C258.49 525.94 258.7 526.8 258.7 527.74C258.7 528.07 258.68 528.42 258.64 528.79L258.65 528.8ZM256.48 525.69C256.19 525.21 255.79 524.85 255.29 524.61C254.79 524.36 254.24 524.24 253.63 524.24C252.76 524.24 252.01 524.52 251.4 525.08C250.79 525.64 250.43 526.41 250.35 527.4H256.92C256.92 526.74 256.77 526.17 256.48 525.7V525.69ZM255.49 520L251.44 522.17V520.88L255.49 518.5V520Z" fill="#424242"/>
<path d="M263.09 524.37V530.51C263.09 531.02 263.2 531.37 263.41 531.58C263.63 531.79 264 531.89 264.53 531.89H265.8V533.35H264.24C263.28 533.35 262.55 533.13 262.07 532.68C261.59 532.24 261.35 531.51 261.35 530.5V524.36H260V522.94H261.35V520.32H263.08V522.94H265.8V524.36H263.08L263.09 524.37Z" fill="#424242"/>
<path d="M267.9 525.31C268.33 524.51 268.92 523.88 269.68 523.44C270.44 523 271.27 522.77 272.2 522.77C273.13 522.77 273.9 522.97 274.58 523.36C275.25 523.75 275.75 524.25 276.08 524.84V522.94H277.83V533.35H276.08V531.41C275.74 532.02 275.23 532.52 274.55 532.92C273.87 533.32 273.08 533.52 272.18 533.52C271.28 533.52 270.42 533.29 269.67 532.84C268.92 532.38 268.33 531.74 267.9 530.92C267.47 530.1 267.25 529.16 267.25 528.11C267.25 527.06 267.46 526.11 267.9 525.31ZM275.59 526.08C275.27 525.5 274.85 525.05 274.31 524.74C273.77 524.43 273.18 524.27 272.53 524.27C271.88 524.27 271.3 524.42 270.76 524.73C270.22 525.04 269.8 525.48 269.49 526.06C269.18 526.64 269.02 527.33 269.02 528.11C269.02 528.89 269.18 529.6 269.49 530.19C269.81 530.78 270.23 531.23 270.76 531.54C271.29 531.85 271.88 532.01 272.53 532.01C273.18 532.01 273.77 531.85 274.31 531.54C274.85 531.23 275.27 530.78 275.59 530.19C275.91 529.6 276.06 528.91 276.06 528.13C276.06 527.35 275.9 526.66 275.59 526.08Z" fill="#424242"/>
<path d="M282.47 519.3V533.36H280.74V519.3H282.47Z" fill="#424242"/>
<path d="M285.42 525.31C285.85 524.51 286.44 523.88 287.2 523.44C287.96 523 288.79 522.77 289.72 522.77C290.65 522.77 291.42 522.97 292.1 523.36C292.77 523.75 293.27 524.25 293.6 524.84V522.94H295.35V533.35H293.6V531.41C293.26 532.02 292.75 532.52 292.07 532.92C291.39 533.32 290.6 533.52 289.7 533.52C288.8 533.52 287.94 533.29 287.19 532.84C286.44 532.38 285.85 531.74 285.42 530.92C284.99 530.1 284.77 529.16 284.77 528.11C284.77 527.06 284.98 526.11 285.42 525.31ZM293.11 526.08C292.79 525.5 292.37 525.05 291.83 524.74C291.29 524.43 290.7 524.27 290.05 524.27C289.4 524.27 288.82 524.42 288.28 524.73C287.74 525.04 287.32 525.48 287.01 526.06C286.7 526.64 286.54 527.33 286.54 528.11C286.54 528.89 286.7 529.6 287.01 530.19C287.33 530.78 287.75 531.23 288.28 531.54C288.81 531.85 289.4 532.01 290.05 532.01C290.7 532.01 291.29 531.85 291.83 531.54C292.37 531.23 292.79 530.78 293.11 530.19C293.43 529.6 293.58 528.91 293.58 528.13C293.58 527.35 293.42 526.66 293.11 526.08Z" fill="#424242"/>
<path d="M299.8 533.12C299.17 532.85 298.67 532.47 298.3 531.98C297.93 531.49 297.73 530.93 297.69 530.3H299.48C299.53 530.82 299.77 531.24 300.21 531.57C300.65 531.9 301.22 532.06 301.93 532.06C302.59 532.06 303.11 531.91 303.49 531.62C303.87 531.33 304.06 530.96 304.06 530.52C304.06 530.08 303.86 529.73 303.45 529.5C303.04 529.28 302.42 529.06 301.57 528.84C300.8 528.64 300.17 528.43 299.68 528.22C299.19 528.01 298.77 527.7 298.43 527.29C298.08 526.88 297.91 526.34 297.91 525.67C297.91 525.14 298.07 524.65 298.39 524.21C298.71 523.77 299.16 523.42 299.74 523.16C300.32 522.9 300.99 522.77 301.74 522.77C302.89 522.77 303.82 523.06 304.53 523.64C305.24 524.22 305.62 525.02 305.67 526.03H303.94C303.9 525.49 303.68 525.05 303.28 524.72C302.88 524.39 302.35 524.23 301.67 524.23C301.05 524.23 300.55 524.36 300.19 524.63C299.82 524.9 299.64 525.24 299.64 525.67C299.64 526.01 299.75 526.29 299.97 526.52C300.19 526.75 300.47 526.92 300.81 527.05C301.15 527.18 301.61 527.33 302.21 527.5C302.96 527.7 303.56 527.9 304.03 528.1C304.5 528.3 304.9 528.59 305.24 528.98C305.57 529.37 305.75 529.89 305.76 530.52C305.76 531.09 305.6 531.6 305.28 532.06C304.96 532.52 304.52 532.87 303.94 533.13C303.36 533.39 302.7 533.52 301.95 533.52C301.15 533.52 300.44 533.38 299.8 533.11V533.12Z" fill="#424242"/>
<path d="M313.25 525.31C313.68 524.51 314.27 523.88 315.03 523.44C315.79 523 316.63 522.77 317.57 522.77C318.38 522.77 319.13 522.96 319.83 523.33C320.53 523.7 321.06 524.19 321.43 524.8V519.29H323.18V533.35H321.43V531.39C321.09 532.01 320.58 532.52 319.91 532.92C319.24 533.32 318.45 533.52 317.55 533.52C316.65 533.52 315.79 533.29 315.03 532.84C314.27 532.39 313.68 531.74 313.25 530.92C312.82 530.1 312.6 529.16 312.6 528.11C312.6 527.06 312.81 526.11 313.25 525.31ZM320.95 526.08C320.63 525.5 320.21 525.05 319.67 524.74C319.13 524.43 318.54 524.27 317.89 524.27C317.24 524.27 316.66 524.42 316.12 524.73C315.58 525.04 315.16 525.48 314.85 526.06C314.54 526.64 314.38 527.33 314.38 528.11C314.38 528.89 314.54 529.6 314.85 530.19C315.17 530.78 315.59 531.23 316.12 531.54C316.65 531.85 317.24 532.01 317.89 532.01C318.54 532.01 319.13 531.85 319.67 531.54C320.21 531.23 320.63 530.78 320.95 530.19C321.27 529.6 321.42 528.91 321.42 528.13C321.42 527.35 321.26 526.66 320.95 526.08Z" fill="#424242"/>
<path d="M326.09 525.31C326.52 524.51 327.11 523.88 327.87 523.44C328.63 523 329.46 522.77 330.39 522.77C331.32 522.77 332.09 522.97 332.77 523.36C333.44 523.75 333.94 524.25 334.27 524.84V522.94H336.02V533.35H334.27V531.41C333.93 532.02 333.42 532.52 332.74 532.92C332.06 533.32 331.27 533.52 330.37 533.52C329.47 533.52 328.61 533.29 327.86 532.84C327.11 532.38 326.52 531.74 326.09 530.92C325.66 530.1 325.44 529.16 325.44 528.11C325.44 527.06 325.65 526.11 326.09 525.31ZM333.79 526.08C333.47 525.5 333.05 525.05 332.51 524.74C331.97 524.43 331.38 524.27 330.73 524.27C330.08 524.27 329.5 524.42 328.96 524.73C328.42 525.04 328 525.48 327.69 526.06C327.38 526.64 327.22 527.33 327.22 528.11C327.22 528.89 327.38 529.6 327.69 530.19C328.01 530.78 328.43 531.23 328.96 531.54C329.49 531.85 330.08 532.01 330.73 532.01C331.38 532.01 331.97 531.85 332.51 531.54C333.05 531.23 333.47 530.78 333.79 530.19C334.11 529.6 334.26 528.91 334.26 528.13C334.26 527.35 334.1 526.66 333.79 526.08Z" fill="#424242"/>
<path d="M348.25 524.37H346.06V533.36H344.33V524.37H342.98V522.95H344.33V522.21C344.33 521.04 344.63 520.19 345.23 519.65C345.83 519.11 346.8 518.84 348.13 518.84V520.28C347.37 520.28 346.84 520.43 346.52 520.73C346.21 521.03 346.05 521.52 346.05 522.2V522.94H348.24V524.36L348.25 524.37Z" fill="#424242"/>
<path d="M351.99 519.3V533.36H350.26V519.3H351.99Z" fill="#424242"/>
<path d="M356.83 532.87C356.04 532.43 355.42 531.8 354.97 530.98C354.52 530.16 354.3 529.22 354.3 528.14C354.3 527.06 354.53 526.14 354.99 525.32C355.45 524.5 356.08 523.88 356.88 523.44C357.68 523 358.57 522.78 359.56 522.78C360.55 522.78 361.44 523 362.24 523.44C363.04 523.88 363.67 524.5 364.13 525.31C364.59 526.12 364.82 527.06 364.82 528.14C364.82 529.22 364.58 530.16 364.11 530.98C363.63 531.8 362.99 532.43 362.18 532.87C361.37 533.31 360.47 533.54 359.48 533.54C358.49 533.54 357.62 533.32 356.83 532.87ZM361.22 531.57C361.76 531.28 362.2 530.84 362.54 530.26C362.88 529.68 363.04 528.97 363.04 528.13C363.04 527.29 362.87 526.58 362.55 526C362.22 525.42 361.79 524.98 361.26 524.7C360.73 524.42 360.15 524.27 359.53 524.27C358.91 524.27 358.32 524.41 357.79 524.7C357.26 524.99 356.84 525.42 356.53 526C356.21 526.58 356.06 527.29 356.06 528.13C356.06 528.97 356.22 529.69 356.53 530.28C356.84 530.86 357.25 531.3 357.77 531.58C358.29 531.86 358.86 532.01 359.48 532.01C360.1 532.01 360.68 531.86 361.23 531.57H361.22Z" fill="#424242"/>
<path d="M370.13 523.25C370.69 522.92 371.38 522.76 372.19 522.76V524.55H371.73C369.79 524.55 368.82 525.6 368.82 527.7V533.36H367.09V522.95H368.82V524.64C369.12 524.04 369.56 523.58 370.12 523.25H370.13Z" fill="#424242"/>
<path d="M92.9199 377.72L290.47 166.33L489.64 377.72H92.9199Z" fill="#CCCCCC"/>
<path d="M94.9199 370.72L292.47 159.33L491.64 370.72H94.9199Z" fill="white" stroke="#E0E0E0" stroke-miterlimit="10"/>
<path d="M394.83 341.16C394.83 341.16 400.14 290.49 351.05 273.79" stroke="#E1A9AF" stroke-width="2"/>
<path d="M339.38 270.69C345.41 270.16 353.16 268.56 358.38 266.04L352.54 274.3L353.34 284.38C350.14 279.55 344.29 274.22 339.37 270.68L339.38 270.69Z" fill="#E1A9AF"/>
<path d="M176.6 331.45C176.6 331.45 187.07 281.59 238.92 280.73" stroke="#E1A9AF" stroke-width="2"/>
<path d="M250.97 281.36C245.2 283.22 238.01 286.51 233.48 290.12L237.33 280.77L234.31 271.12C238.51 275.11 245.39 279.01 250.98 281.36H250.97Z" fill="#E1A9AF"/>
<path d="M293 375.27L192 265.27" stroke="#E1A9AF" stroke-width="2"/>
<path d="M395 265.27L294 375.27" stroke="#E1A9AF" stroke-width="2"/>
</svg>
