<svg width="601" height="578" viewBox="0 0 601 578" fill="none" xmlns="http://www.w3.org/2000/svg">
<path d="M554.02 58.95H70.4401C44.9964 58.95 24.3701 79.5762 24.3701 105.02V531.2C24.3701 556.644 44.9964 577.27 70.4401 577.27H554.02C579.464 577.27 600.09 556.644 600.09 531.2V105.02C600.09 79.5762 579.464 58.95 554.02 58.95Z" fill="#D3D3D3"/>
<path d="M549.4 49.27H65.82C40.3762 49.27 19.75 69.8963 19.75 95.34V521.52C19.75 546.964 40.3762 567.59 65.82 567.59H549.4C574.844 567.59 595.47 546.964 595.47 521.52V95.34C595.47 69.8963 574.844 49.27 549.4 49.27Z" fill="#E1A9AF"/>
<path d="M43.73 89.27C66.7603 89.27 85.43 70.5689 85.43 47.5C85.43 24.4311 66.7603 5.72998 43.73 5.72998C20.6998 5.72998 2.03003 24.4311 2.03003 47.5C2.03003 70.5689 20.6998 89.27 43.73 89.27Z" fill="#CCA98B" stroke="#F2F2F2"/>
<path d="M43.69 85.67C66.7203 85.67 85.39 66.9689 85.39 43.9C85.39 20.8311 66.7203 2.13 43.69 2.13C20.6597 2.13 1.98999 20.8311 1.98999 43.9C1.98999 66.9689 20.6597 85.67 43.69 85.67Z" fill="white" stroke="#F2F2F2" stroke-width="3"/>
<path d="M27.97 34.6899V28.1799H39.31V58.0599H32.03V34.6899H27.98H27.97Z" fill="#E1A9AF"/>
<path d="M44.32 32.5799C45.02 31.4799 46 30.6099 47.27 29.9799C48.54 29.3499 49.99 29.0399 51.63 29.0399C53.27 29.0399 54.72 29.3499 55.99 29.9799C57.26 30.6099 58.24 31.4699 58.94 32.5799C59.64 33.6899 59.98 34.9599 59.98 36.4099C59.98 37.8599 59.63 39.1399 58.92 40.2599C58.21 41.3799 57.22 42.2599 55.95 42.8999C54.68 43.5399 53.23 43.8599 51.59 43.8599C49.95 43.8599 48.51 43.5399 47.25 42.8999C45.99 42.2599 45.02 41.3799 44.32 40.2599C43.62 39.1399 43.28 37.8599 43.28 36.4099C43.28 34.9599 43.63 33.6899 44.32 32.5799ZM53.71 33.9499C53.14 33.3799 52.43 33.0899 51.58 33.0899C50.73 33.0899 50.07 33.3799 49.51 33.9499C48.95 34.5199 48.67 35.3599 48.67 36.4499C48.67 37.5399 48.94 38.3299 49.49 38.9099C50.04 39.4899 50.73 39.7699 51.58 39.7699C52.43 39.7699 53.13 39.4799 53.71 38.8899C54.28 38.2999 54.57 37.4899 54.57 36.4599C54.57 35.3699 54.28 34.5399 53.71 33.9599V33.9499Z" fill="#E1A9AF"/>
<path d="M294.571 120.243L150.06 264.754L294.571 409.265L439.083 264.754L294.571 120.243Z" fill="#CCCCCC"/>
<path d="M297.707 111.572L153.195 256.083L297.707 400.594L442.218 256.083L297.707 111.572Z" fill="white"/>
<path d="M153.3 256.07H159.3" stroke="#E1A9AF" stroke-width="2"/>
<path d="M171.3 256.07H429.28" stroke="#E1A9AF" stroke-width="2"/>
<path d="M435.28 256.07H441.28" stroke="#E1A9AF" stroke-width="2"/>
<path d="M296.87 348.13C296.87 348.13 380.71 272.99 316.46 174.76" stroke="#E1A9AF" stroke-width="2"/>
<path d="M309.53 164.87C314.49 168.34 321.46 172.1 327.08 173.52L317.3 176.1L311.43 184.34C312.08 178.58 311.03 170.74 309.53 164.87Z" fill="#E1A9AF"/>
<path d="M105.38 35.45C104.59 36.22 103.38 36.6 101.75 36.6H99.07V42.42H97.25V28.48H101.75C103.32 28.48 104.52 28.86 105.34 29.62C106.16 30.38 106.57 31.36 106.57 32.56C106.57 33.76 106.17 34.68 105.38 35.45ZM103.99 34.44C104.47 34 104.71 33.37 104.71 32.56C104.71 30.84 103.72 29.98 101.75 29.98H99.07V35.1H101.75C102.76 35.1 103.51 34.88 103.99 34.44Z" fill="#E1A9AF"/>
<path d="M108.83 33.95C109.28 33.1 109.91 32.45 110.7 31.98C111.49 31.51 112.38 31.28 113.35 31.28C114.32 31.28 115.14 31.49 115.85 31.9C116.56 32.31 117.08 32.83 117.43 33.46V31.46H119.27V42.42H117.43V40.38C117.07 41.02 116.53 41.55 115.82 41.97C115.11 42.39 114.28 42.6 113.33 42.6C112.38 42.6 111.48 42.36 110.69 41.88C109.9 41.4 109.28 40.73 108.83 39.86C108.38 38.99 108.15 38.01 108.15 36.9C108.15 35.79 108.38 34.8 108.83 33.95ZM116.93 34.76C116.6 34.15 116.15 33.68 115.58 33.35C115.01 33.02 114.39 32.86 113.71 32.86C113.03 32.86 112.41 33.02 111.85 33.34C111.29 33.66 110.84 34.13 110.51 34.74C110.18 35.35 110.01 36.07 110.01 36.9C110.01 37.73 110.18 38.47 110.51 39.09C110.84 39.71 111.29 40.18 111.85 40.51C112.41 40.84 113.03 41 113.71 41C114.39 41 115.01 40.84 115.58 40.51C116.15 40.18 116.6 39.71 116.93 39.09C117.26 38.47 117.43 37.75 117.43 36.92C117.43 36.09 117.26 35.37 116.93 34.76Z" fill="#E1A9AF"/>
<path d="M123.97 42.17C123.3 41.88 122.78 41.48 122.39 40.97C122 40.46 121.79 39.87 121.75 39.2H123.63C123.68 39.75 123.94 40.19 124.4 40.54C124.86 40.89 125.46 41.06 126.21 41.06C126.9 41.06 127.45 40.91 127.85 40.6C128.25 40.29 128.45 39.91 128.45 39.44C128.45 38.97 128.24 38.6 127.81 38.37C127.38 38.14 126.72 37.91 125.83 37.68C125.02 37.47 124.35 37.25 123.84 37.03C123.33 36.81 122.89 36.48 122.52 36.05C122.15 35.62 121.97 35.05 121.97 34.34C121.97 33.78 122.14 33.27 122.47 32.8C122.8 32.33 123.28 31.96 123.89 31.69C124.5 31.42 125.2 31.28 125.99 31.28C127.2 31.28 128.18 31.59 128.93 32.2C129.68 32.81 130.08 33.65 130.13 34.72H128.31C128.27 34.15 128.04 33.69 127.62 33.34C127.2 32.99 126.64 32.82 125.93 32.82C125.28 32.82 124.76 32.96 124.37 33.24C123.98 33.52 123.79 33.89 123.79 34.34C123.79 34.7 123.91 35 124.14 35.23C124.37 35.46 124.67 35.65 125.02 35.79C125.37 35.93 125.86 36.09 126.49 36.26C127.28 36.47 127.92 36.68 128.41 36.89C128.9 37.1 129.33 37.41 129.68 37.82C130.03 38.23 130.22 38.77 130.23 39.44C130.23 40.04 130.06 40.58 129.73 41.06C129.4 41.54 128.93 41.92 128.32 42.19C127.71 42.46 127.02 42.6 126.23 42.6C125.39 42.6 124.64 42.46 123.97 42.17Z" fill="#E1A9AF"/>
<path d="M134.41 42.17C133.74 41.88 133.22 41.48 132.83 40.97C132.44 40.46 132.23 39.87 132.19 39.2H134.07C134.12 39.75 134.38 40.19 134.84 40.54C135.3 40.89 135.9 41.06 136.65 41.06C137.34 41.06 137.89 40.91 138.29 40.6C138.69 40.29 138.89 39.91 138.89 39.44C138.89 38.97 138.68 38.6 138.25 38.37C137.82 38.14 137.16 37.91 136.27 37.68C135.46 37.47 134.79 37.25 134.28 37.03C133.77 36.81 133.33 36.48 132.96 36.05C132.59 35.62 132.41 35.05 132.41 34.34C132.41 33.78 132.58 33.27 132.91 32.8C133.24 32.33 133.72 31.96 134.33 31.69C134.94 31.42 135.64 31.28 136.43 31.28C137.64 31.28 138.62 31.59 139.37 32.2C140.12 32.81 140.52 33.65 140.57 34.72H138.75C138.71 34.15 138.48 33.69 138.06 33.34C137.64 32.99 137.08 32.82 136.37 32.82C135.72 32.82 135.2 32.96 134.81 33.24C134.42 33.52 134.23 33.89 134.23 34.34C134.23 34.7 134.35 35 134.58 35.23C134.81 35.46 135.11 35.65 135.46 35.79C135.81 35.93 136.3 36.09 136.93 36.26C137.72 36.47 138.36 36.68 138.85 36.89C139.34 37.1 139.77 37.41 140.12 37.82C140.47 38.23 140.66 38.77 140.67 39.44C140.67 40.04 140.5 40.58 140.17 41.06C139.84 41.54 139.37 41.92 138.76 42.19C138.15 42.46 137.46 42.6 136.67 42.6C135.83 42.6 135.08 42.46 134.41 42.17Z" fill="#E1A9AF"/>
<path d="M145.22 41.9C144.39 41.43 143.73 40.77 143.26 39.91C142.79 39.05 142.55 38.05 142.55 36.92C142.55 35.79 142.79 34.81 143.28 33.95C143.77 33.09 144.43 32.43 145.27 31.97C146.11 31.51 147.05 31.28 148.09 31.28C149.13 31.28 150.07 31.51 150.91 31.97C151.75 32.43 152.41 33.09 152.9 33.94C153.39 34.79 153.63 35.79 153.63 36.92C153.63 38.05 153.38 39.05 152.88 39.91C152.38 40.77 151.7 41.43 150.85 41.9C150 42.37 149.05 42.6 148.01 42.6C146.97 42.6 146.05 42.37 145.22 41.9ZM149.85 40.54C150.42 40.23 150.89 39.77 151.24 39.16C151.59 38.55 151.77 37.8 151.77 36.92C151.77 36.04 151.6 35.29 151.25 34.68C150.9 34.07 150.45 33.61 149.89 33.31C149.33 33.01 148.72 32.86 148.07 32.86C147.42 32.86 146.79 33.01 146.24 33.31C145.69 33.61 145.24 34.07 144.91 34.68C144.58 35.29 144.41 36.04 144.41 36.92C144.41 37.8 144.57 38.57 144.9 39.18C145.23 39.79 145.66 40.25 146.21 40.55C146.76 40.85 147.36 41 148.01 41C148.66 41 149.28 40.85 149.85 40.54Z" fill="#E1A9AF"/>
<path d="M96.28 503.94C95.53 504.67 94.38 505.03 92.83 505.03H90.28V510.56H88.55V497.32H92.83C94.32 497.32 95.46 497.68 96.24 498.4C97.02 499.12 97.41 500.05 97.41 501.19C97.41 502.33 97.03 503.21 96.28 503.94ZM94.96 502.98C95.42 502.56 95.64 501.97 95.64 501.19C95.64 499.56 94.7 498.74 92.83 498.74H90.28V503.6H92.83C93.79 503.6 94.5 503.39 94.96 502.97V502.98Z" fill="#424242"/>
<path d="M109 506H100.68C100.74 507.03 101.1 507.83 101.73 508.4C102.37 508.98 103.15 509.26 104.06 509.26C104.81 509.26 105.43 509.09 105.93 508.74C106.43 508.39 106.78 507.93 106.98 507.34H108.84C108.56 508.34 108 509.15 107.17 509.78C106.34 510.41 105.29 510.72 104.05 510.72C103.06 510.72 102.18 510.5 101.4 510.05C100.62 509.6 100.01 508.98 99.5702 508.16C99.1302 507.34 98.9102 506.4 98.9102 505.32C98.9102 504.24 99.1202 503.3 99.5502 502.49C99.9802 501.68 100.59 501.06 101.36 500.62C102.14 500.18 103.04 499.96 104.05 499.96C105.06 499.96 105.91 500.18 106.67 500.61C107.43 501.04 108.02 501.63 108.43 502.39C108.84 503.15 109.05 504 109.05 504.94C109.05 505.27 109.03 505.62 108.99 505.99L109 506ZM106.83 502.89C106.54 502.41 106.14 502.05 105.64 501.81C105.14 501.56 104.59 501.44 103.98 501.44C103.1 501.44 102.36 501.72 101.75 502.28C101.13 502.84 100.78 503.61 100.7 504.6H107.27C107.27 503.94 107.12 503.37 106.83 502.9V502.89Z" fill="#424242"/>
<path d="M118 500.57C118.68 500.96 119.18 501.46 119.51 502.05V500.15H121.26V510.79C121.26 511.74 121.06 512.59 120.65 513.33C120.24 514.07 119.66 514.65 118.91 515.07C118.16 515.49 117.28 515.7 116.28 515.7C114.91 515.7 113.77 515.38 112.86 514.73C111.95 514.08 111.41 513.2 111.24 512.09H112.95C113.14 512.72 113.53 513.23 114.13 513.62C114.73 514.01 115.44 514.2 116.28 514.2C117.23 514.2 118.01 513.9 118.61 513.31C119.21 512.71 119.51 511.88 119.51 510.8V508.62C119.17 509.23 118.66 509.74 117.99 510.14C117.32 510.55 116.53 510.75 115.63 510.75C114.73 510.75 113.87 510.52 113.11 510.07C112.35 509.62 111.76 508.97 111.33 508.15C110.9 507.33 110.68 506.39 110.68 505.34C110.68 504.29 110.89 503.34 111.33 502.54C111.76 501.74 112.35 501.11 113.11 500.67C113.87 500.23 114.7 500 115.63 500C116.56 500 117.32 500.2 118 500.59V500.57ZM119.03 503.28C118.71 502.7 118.29 502.25 117.75 501.94C117.21 501.63 116.62 501.47 115.97 501.47C115.32 501.47 114.74 501.62 114.2 501.93C113.67 502.23 113.24 502.68 112.93 503.26C112.62 503.84 112.46 504.53 112.46 505.31C112.46 506.09 112.62 506.8 112.93 507.39C113.25 507.98 113.67 508.43 114.2 508.74C114.73 509.05 115.32 509.21 115.97 509.21C116.62 509.21 117.21 509.05 117.75 508.74C118.29 508.43 118.71 507.98 119.03 507.39C119.35 506.8 119.5 506.11 119.5 505.33C119.5 504.55 119.34 503.86 119.03 503.28Z" fill="#424242"/>
<path d="M133.42 500.15V510.56H131.69V509.02C131.36 509.55 130.9 509.97 130.31 510.26C129.72 510.56 129.07 510.71 128.36 510.71C127.55 510.71 126.82 510.54 126.17 510.21C125.52 509.88 125.01 509.37 124.64 508.7C124.27 508.03 124.08 507.21 124.08 506.25V500.15H125.79V506.02C125.79 507.05 126.05 507.83 126.57 508.39C127.09 508.94 127.8 509.22 128.7 509.22C129.6 509.22 130.35 508.93 130.89 508.36C131.42 507.79 131.69 506.96 131.69 505.87V500.15H133.42Z" fill="#424242"/>
<path d="M145.79 506H137.47C137.53 507.03 137.88 507.83 138.52 508.4C139.16 508.98 139.93 509.26 140.85 509.26C141.6 509.26 142.22 509.09 142.72 508.74C143.22 508.39 143.57 507.93 143.77 507.34H145.63C145.35 508.34 144.79 509.15 143.96 509.78C143.13 510.41 142.08 510.72 140.84 510.72C139.85 510.72 138.97 510.5 138.19 510.05C137.41 509.6 136.8 508.98 136.36 508.16C135.91 507.34 135.69 506.4 135.69 505.32C135.69 504.24 135.9 503.3 136.34 502.49C136.77 501.68 137.38 501.06 138.15 500.62C138.93 500.18 139.82 499.96 140.84 499.96C141.86 499.96 142.7 500.18 143.46 500.61C144.22 501.04 144.81 501.63 145.22 502.39C145.63 503.14 145.84 504 145.84 504.94C145.84 505.27 145.82 505.62 145.78 505.99L145.79 506ZM143.62 502.89C143.33 502.41 142.93 502.05 142.43 501.81C141.93 501.56 141.38 501.44 140.77 501.44C139.9 501.44 139.15 501.72 138.54 502.28C137.93 502.84 137.58 503.61 137.49 504.6H144.06C144.06 503.94 143.92 503.37 143.62 502.9V502.89Z" fill="#424242"/>
<path d="M162.43 500.15V510.56H160.7V509.02C160.37 509.55 159.91 509.97 159.32 510.26C158.73 510.56 158.08 510.71 157.37 510.71C156.56 510.71 155.83 510.54 155.19 510.21C154.54 509.88 154.03 509.37 153.66 508.7C153.28 508.03 153.1 507.21 153.1 506.25V500.15H154.81V506.02C154.81 507.05 155.07 507.83 155.59 508.39C156.11 508.94 156.82 509.22 157.72 509.22C158.62 509.22 159.37 508.93 159.9 508.36C160.43 507.79 160.7 506.96 160.7 505.87V500.15H162.43Z" fill="#424242"/>
<path d="M180.04 500.46C180.67 500.8 181.17 501.3 181.54 501.97C181.91 502.64 182.09 503.46 182.09 504.42V510.56H180.38V504.67C180.38 503.63 180.12 502.84 179.61 502.29C179.1 501.74 178.4 501.46 177.53 501.46C176.66 501.46 175.91 501.75 175.38 502.32C174.85 502.9 174.58 503.73 174.58 504.82V510.56H172.87V504.67C172.87 503.63 172.61 502.84 172.1 502.29C171.59 501.74 170.89 501.46 170.02 501.46C169.15 501.46 168.41 501.75 167.87 502.32C167.34 502.9 167.07 503.73 167.07 504.82V510.56H165.34V500.15H167.07V501.65C167.41 501.11 167.87 500.69 168.45 500.4C169.03 500.11 169.66 499.96 170.36 499.96C171.24 499.96 172.01 500.16 172.68 500.55C173.35 500.94 173.85 501.52 174.18 502.28C174.47 501.55 174.95 500.98 175.62 500.57C176.29 500.16 177.04 499.96 177.86 499.96C178.68 499.96 179.39 500.13 180.03 500.46H180.04Z" fill="#424242"/>
<path d="M193.26 500.58C193.94 500.18 194.72 499.98 195.63 499.98C196.54 499.98 197.39 500.2 198.15 500.65C198.91 501.1 199.5 501.72 199.93 502.52C200.36 503.32 200.58 504.26 200.58 505.32C200.58 506.38 200.37 507.31 199.93 508.13C199.5 508.95 198.91 509.59 198.15 510.05C197.39 510.51 196.56 510.73 195.63 510.73C194.7 510.73 193.96 510.53 193.28 510.13C192.6 509.73 192.09 509.23 191.73 508.64V515.5H190V500.15H191.73V502.07C192.07 501.48 192.58 500.98 193.26 500.58ZM198.32 503.26C198 502.68 197.58 502.23 197.04 501.93C196.5 501.63 195.91 501.47 195.26 501.47C194.61 501.47 194.04 501.63 193.5 501.94C192.96 502.25 192.53 502.7 192.21 503.29C191.89 503.88 191.73 504.56 191.73 505.33C191.73 506.1 191.89 506.8 192.21 507.39C192.53 507.98 192.96 508.43 193.5 508.74C194.04 509.05 194.62 509.21 195.26 509.21C195.9 509.21 196.5 509.05 197.04 508.74C197.58 508.43 198 507.98 198.32 507.39C198.64 506.8 198.79 506.11 198.79 505.31C198.79 504.51 198.63 503.84 198.32 503.26Z" fill="#424242"/>
<path d="M202.84 502.51C203.27 501.71 203.86 501.08 204.62 500.64C205.38 500.2 206.21 499.97 207.14 499.97C208.07 499.97 208.84 500.17 209.52 500.56C210.2 500.95 210.69 501.45 211.02 502.04V500.14H212.77V510.55H211.02V508.61C210.68 509.22 210.17 509.72 209.49 510.12C208.81 510.52 208.03 510.72 207.12 510.72C206.21 510.72 205.36 510.49 204.61 510.04C203.86 509.59 203.27 508.94 202.84 508.12C202.41 507.3 202.2 506.36 202.2 505.31C202.2 504.26 202.41 503.31 202.84 502.51ZM210.54 503.28C210.22 502.7 209.8 502.25 209.26 501.94C208.72 501.63 208.13 501.47 207.48 501.47C206.83 501.47 206.25 501.62 205.71 501.93C205.18 502.23 204.75 502.68 204.44 503.26C204.13 503.84 203.97 504.53 203.97 505.31C203.97 506.09 204.13 506.8 204.44 507.39C204.76 507.98 205.18 508.43 205.71 508.74C206.24 509.05 206.83 509.21 207.48 509.21C208.13 509.21 208.72 509.05 209.26 508.74C209.8 508.43 210.22 507.98 210.54 507.39C210.86 506.8 211.01 506.11 211.01 505.33C211.01 504.55 210.85 503.86 210.54 503.28Z" fill="#424242"/>
<path d="M218.94 500.58C219.62 500.18 220.4 499.98 221.31 499.98C222.22 499.98 223.07 500.2 223.83 500.65C224.59 501.1 225.18 501.72 225.61 502.52C226.04 503.32 226.26 504.26 226.26 505.32C226.26 506.38 226.05 507.31 225.61 508.13C225.18 508.95 224.59 509.59 223.83 510.05C223.07 510.51 222.24 510.73 221.31 510.73C220.38 510.73 219.64 510.53 218.96 510.13C218.28 509.73 217.77 509.23 217.41 508.64V515.5H215.68V500.15H217.41V502.07C217.75 501.48 218.26 500.98 218.94 500.58ZM224.01 503.26C223.69 502.68 223.27 502.23 222.73 501.93C222.19 501.63 221.6 501.47 220.95 501.47C220.3 501.47 219.73 501.63 219.19 501.94C218.65 502.25 218.22 502.7 217.9 503.29C217.58 503.88 217.42 504.56 217.42 505.33C217.42 506.1 217.58 506.8 217.9 507.39C218.22 507.98 218.65 508.43 219.19 508.74C219.73 509.05 220.31 509.21 220.95 509.21C221.59 509.21 222.19 509.05 222.73 508.74C223.27 508.43 223.69 507.98 224.01 507.39C224.33 506.8 224.48 506.11 224.48 505.31C224.48 504.51 224.32 503.84 224.01 503.26Z" fill="#424242"/>
<path d="M237.97 506H229.65C229.71 507.03 230.06 507.83 230.7 508.4C231.34 508.98 232.11 509.26 233.03 509.26C233.78 509.26 234.4 509.09 234.9 508.74C235.4 508.39 235.75 507.93 235.95 507.34H237.81C237.53 508.34 236.97 509.15 236.14 509.78C235.31 510.41 234.26 510.72 233.02 510.72C232.03 510.72 231.15 510.5 230.37 510.05C229.59 509.6 228.98 508.98 228.54 508.16C228.09 507.34 227.87 506.4 227.87 505.32C227.87 504.24 228.08 503.3 228.52 502.49C228.95 501.68 229.56 501.06 230.33 500.62C231.11 500.18 232 499.96 233.02 499.96C234.04 499.96 234.88 500.18 235.64 500.61C236.4 501.04 236.99 501.63 237.4 502.39C237.81 503.14 238.02 504 238.02 504.94C238.02 505.27 238 505.62 237.96 505.99L237.97 506ZM235.81 502.89C235.52 502.41 235.12 502.05 234.62 501.81C234.12 501.56 233.57 501.44 232.96 501.44C232.09 501.44 231.34 501.72 230.73 502.28C230.12 502.84 229.77 503.61 229.68 504.6H236.25C236.25 503.94 236.11 503.37 235.81 502.9V502.89Z" fill="#424242"/>
<path d="M242.04 496.5V510.56H240.31V496.5H242.04Z" fill="#424242"/>
<path d="M250.05 502.51C250.48 501.71 251.07 501.08 251.83 500.64C252.59 500.2 253.43 499.97 254.37 499.97C255.31 499.97 256.06 500.17 256.74 500.57C257.42 500.97 257.91 501.46 258.23 502.04V500.14H259.98V515.49H258.23V508.63C257.9 509.21 257.39 509.71 256.71 510.11C256.03 510.51 255.23 510.72 254.32 510.72C253.41 510.72 252.58 510.49 251.83 510.04C251.08 509.59 250.49 508.94 250.06 508.12C249.63 507.3 249.42 506.36 249.42 505.31C249.42 504.26 249.63 503.31 250.06 502.51H250.05ZM257.75 503.28C257.43 502.7 257.01 502.25 256.47 501.94C255.93 501.63 255.34 501.47 254.69 501.47C254.04 501.47 253.46 501.62 252.92 501.93C252.39 502.23 251.96 502.68 251.65 503.26C251.34 503.84 251.18 504.53 251.18 505.31C251.18 506.09 251.34 506.8 251.65 507.39C251.97 507.98 252.39 508.43 252.92 508.74C253.45 509.05 254.04 509.21 254.69 509.21C255.34 509.21 255.93 509.05 256.47 508.74C257.01 508.43 257.43 507.98 257.75 507.39C258.07 506.8 258.22 506.11 258.22 505.33C258.22 504.55 258.06 503.86 257.75 503.28Z" fill="#424242"/>
<path d="M272.13 500.15V510.56H270.4V509.02C270.07 509.55 269.61 509.97 269.02 510.26C268.43 510.56 267.78 510.71 267.07 510.71C266.26 510.71 265.53 510.54 264.89 510.21C264.24 509.88 263.73 509.37 263.36 508.7C262.98 508.03 262.8 507.21 262.8 506.25V500.15H264.51V506.02C264.51 507.05 264.77 507.83 265.29 508.39C265.81 508.94 266.52 509.22 267.42 509.22C268.32 509.22 269.07 508.93 269.6 508.36C270.13 507.79 270.4 506.96 270.4 505.87V500.15H272.13Z" fill="#424242"/>
<path d="M275.06 502.51C275.49 501.71 276.08 501.08 276.84 500.64C277.6 500.2 278.43 499.97 279.36 499.97C280.29 499.97 281.06 500.17 281.74 500.56C282.42 500.95 282.91 501.45 283.24 502.04V500.14H284.99V510.55H283.24V508.61C282.9 509.22 282.39 509.72 281.71 510.12C281.03 510.52 280.25 510.72 279.34 510.72C278.43 510.72 277.58 510.49 276.83 510.04C276.08 509.59 275.49 508.94 275.06 508.12C274.63 507.3 274.42 506.36 274.42 505.31C274.42 504.26 274.63 503.31 275.06 502.51ZM282.75 503.28C282.43 502.7 282.01 502.25 281.47 501.94C280.93 501.63 280.34 501.47 279.69 501.47C279.04 501.47 278.46 501.62 277.92 501.93C277.39 502.23 276.96 502.68 276.65 503.26C276.34 503.84 276.18 504.53 276.18 505.31C276.18 506.09 276.34 506.8 276.65 507.39C276.97 507.98 277.39 508.43 277.92 508.74C278.45 509.05 279.04 509.21 279.69 509.21C280.34 509.21 280.93 509.05 281.47 508.74C282.01 508.43 282.43 507.98 282.75 507.39C283.07 506.8 283.22 506.11 283.22 505.33C283.22 504.55 283.06 503.86 282.75 503.28Z" fill="#424242"/>
<path d="M287.9 502.51C288.33 501.71 288.92 501.08 289.68 500.64C290.44 500.2 291.28 499.97 292.22 499.97C293.03 499.97 293.78 500.16 294.48 500.53C295.18 500.9 295.71 501.39 296.08 502V496.49H297.83V510.55H296.08V508.59C295.74 509.21 295.23 509.72 294.56 510.12C293.89 510.52 293.1 510.72 292.2 510.72C291.3 510.72 290.44 510.49 289.68 510.04C288.92 509.59 288.33 508.94 287.9 508.12C287.47 507.3 287.26 506.36 287.26 505.31C287.26 504.26 287.47 503.31 287.9 502.51ZM295.6 503.28C295.28 502.7 294.86 502.25 294.32 501.94C293.78 501.63 293.19 501.47 292.54 501.47C291.89 501.47 291.31 501.62 290.77 501.93C290.24 502.23 289.81 502.68 289.5 503.26C289.19 503.84 289.03 504.53 289.03 505.31C289.03 506.09 289.19 506.8 289.5 507.39C289.82 507.98 290.24 508.43 290.77 508.74C291.3 509.05 291.89 509.21 292.54 509.21C293.19 509.21 293.78 509.05 294.32 508.74C294.86 508.43 295.28 507.98 295.6 507.39C295.92 506.8 296.07 506.11 296.07 505.33C296.07 504.55 295.91 503.86 295.6 503.28Z" fill="#424242"/>
<path d="M303.78 500.45C304.34 500.12 305.03 499.96 305.84 499.96V501.75H305.38C303.44 501.75 302.47 502.8 302.47 504.9V510.56H300.74V500.15H302.47V501.84C302.77 501.24 303.21 500.78 303.77 500.45H303.78Z" fill="#424242"/>
<path d="M307.83 502.51C308.26 501.71 308.85 501.08 309.61 500.64C310.37 500.2 311.2 499.97 312.13 499.97C313.06 499.97 313.84 500.17 314.51 500.56C315.18 500.95 315.68 501.45 316.01 502.04V500.14H317.76V510.55H316.01V508.61C315.67 509.22 315.16 509.72 314.48 510.12C313.8 510.52 313.01 510.72 312.11 510.72C311.21 510.72 310.35 510.49 309.6 510.04C308.85 509.58 308.26 508.94 307.83 508.12C307.4 507.3 307.18 506.36 307.18 505.31C307.18 504.26 307.39 503.31 307.83 502.51ZM315.53 503.28C315.21 502.7 314.79 502.25 314.25 501.94C313.71 501.63 313.12 501.47 312.47 501.47C311.82 501.47 311.24 501.62 310.7 501.93C310.17 502.23 309.74 502.68 309.43 503.26C309.12 503.84 308.96 504.53 308.96 505.31C308.96 506.09 309.12 506.8 309.43 507.39C309.75 507.98 310.17 508.43 310.7 508.74C311.23 509.05 311.82 509.21 312.47 509.21C313.12 509.21 313.71 509.05 314.25 508.74C314.79 508.43 315.21 507.98 315.53 507.39C315.85 506.8 316 506.11 316 505.33C316 504.55 315.84 503.86 315.53 503.28Z" fill="#424242"/>
<path d="M320.68 502.51C321.11 501.71 321.7 501.08 322.46 500.64C323.22 500.2 324.06 499.97 325 499.97C325.81 499.97 326.56 500.16 327.26 500.53C327.96 500.9 328.49 501.39 328.86 502V496.49H330.61V510.55H328.86V508.59C328.52 509.21 328.01 509.72 327.34 510.12C326.67 510.52 325.88 510.72 324.98 510.72C324.08 510.72 323.22 510.49 322.46 510.04C321.7 509.59 321.11 508.94 320.68 508.12C320.25 507.3 320.03 506.36 320.03 505.31C320.03 504.26 320.24 503.31 320.68 502.51ZM328.37 503.28C328.05 502.7 327.63 502.25 327.09 501.94C326.55 501.63 325.96 501.47 325.31 501.47C324.66 501.47 324.08 501.62 323.54 501.93C323.01 502.23 322.58 502.68 322.27 503.26C321.96 503.84 321.8 504.53 321.8 505.31C321.8 506.09 321.96 506.8 322.27 507.39C322.59 507.98 323.01 508.43 323.54 508.74C324.07 509.05 324.66 509.21 325.31 509.21C325.96 509.21 326.55 509.05 327.09 508.74C327.63 508.43 328.05 507.98 328.37 507.39C328.69 506.8 328.84 506.11 328.84 505.33C328.84 504.55 328.68 503.86 328.37 503.28Z" fill="#424242"/>
<path d="M335.41 510.07C334.62 509.63 334 509 333.55 508.18C333.1 507.36 332.88 506.42 332.88 505.34C332.88 504.26 333.11 503.34 333.57 502.52C334.03 501.7 334.66 501.08 335.46 500.64C336.26 500.2 337.15 499.98 338.14 499.98C339.13 499.98 340.02 500.2 340.82 500.64C341.62 501.08 342.25 501.7 342.71 502.51C343.17 503.32 343.4 504.26 343.4 505.34C343.4 506.42 343.16 507.36 342.69 508.18C342.21 509 341.57 509.63 340.76 510.07C339.95 510.51 339.05 510.74 338.06 510.74C337.07 510.74 336.2 510.52 335.41 510.07ZM339.81 508.77C340.35 508.48 340.79 508.04 341.13 507.46C341.47 506.88 341.63 506.17 341.63 505.33C341.63 504.49 341.46 503.78 341.14 503.2C340.81 502.62 340.38 502.18 339.85 501.9C339.32 501.61 338.74 501.47 338.12 501.47C337.5 501.47 336.91 501.61 336.38 501.9C335.85 502.19 335.43 502.62 335.12 503.2C334.8 503.78 334.65 504.49 334.65 505.33C334.65 506.17 334.8 506.89 335.11 507.48C335.42 508.06 335.83 508.5 336.35 508.78C336.87 509.06 337.44 509.21 338.06 509.21C338.68 509.21 339.26 509.06 339.81 508.77Z" fill="#424242"/>
<path d="M360.2 506H351.88C351.94 507.03 352.3 507.83 352.93 508.4C353.57 508.98 354.35 509.26 355.26 509.26C356.01 509.26 356.63 509.09 357.13 508.74C357.63 508.39 357.98 507.93 358.18 507.34H360.04C359.76 508.34 359.2 509.15 358.37 509.78C357.54 510.41 356.49 510.72 355.25 510.72C354.26 510.72 353.38 510.5 352.6 510.05C351.82 509.6 351.21 508.98 350.77 508.16C350.33 507.34 350.11 506.4 350.11 505.32C350.11 504.24 350.32 503.3 350.75 502.49C351.18 501.68 351.79 501.06 352.56 500.62C353.34 500.18 354.24 499.96 355.25 499.96C356.26 499.96 357.11 500.18 357.87 500.61C358.63 501.04 359.22 501.63 359.63 502.39C360.04 503.15 360.25 504 360.25 504.94C360.25 505.27 360.23 505.62 360.19 505.99L360.2 506ZM358.03 502.89C357.74 502.41 357.34 502.05 356.84 501.81C356.34 501.56 355.79 501.44 355.18 501.44C354.3 501.44 353.56 501.72 352.95 502.28C352.33 502.84 351.98 503.61 351.9 504.6H358.47C358.47 503.94 358.32 503.37 358.03 502.9V502.89Z" fill="#424242"/>
<path d="M367.61 502.51C368.04 501.71 368.63 501.08 369.39 500.64C370.15 500.2 370.99 499.97 371.93 499.97C372.74 499.97 373.49 500.16 374.19 500.53C374.89 500.9 375.42 501.39 375.79 502V496.49H377.54V510.55H375.79V508.59C375.45 509.21 374.94 509.72 374.27 510.12C373.6 510.52 372.81 510.72 371.91 510.72C371.01 510.72 370.15 510.49 369.39 510.04C368.63 509.59 368.04 508.94 367.61 508.12C367.18 507.3 366.96 506.36 366.96 505.31C366.96 504.26 367.17 503.31 367.61 502.51ZM375.3 503.28C374.98 502.7 374.56 502.25 374.02 501.94C373.48 501.63 372.89 501.47 372.24 501.47C371.59 501.47 371.01 501.62 370.47 501.93C369.94 502.23 369.51 502.68 369.2 503.26C368.89 503.84 368.73 504.53 368.73 505.31C368.73 506.09 368.89 506.8 369.2 507.39C369.52 507.98 369.94 508.43 370.47 508.74C371 509.05 371.59 509.21 372.24 509.21C372.89 509.21 373.48 509.05 374.02 508.74C374.56 508.43 374.98 507.98 375.3 507.39C375.62 506.8 375.77 506.11 375.77 505.33C375.77 504.55 375.61 503.86 375.3 503.28Z" fill="#424242"/>
<path d="M382.34 510.07C381.55 509.63 380.93 509 380.48 508.18C380.03 507.36 379.81 506.42 379.81 505.34C379.81 504.26 380.04 503.34 380.5 502.52C380.96 501.7 381.59 501.08 382.39 500.64C383.19 500.2 384.08 499.98 385.07 499.98C386.06 499.98 386.95 500.2 387.75 500.64C388.55 501.08 389.18 501.7 389.64 502.51C390.1 503.32 390.33 504.26 390.33 505.34C390.33 506.42 390.09 507.36 389.62 508.18C389.14 509 388.5 509.63 387.69 510.07C386.88 510.51 385.98 510.74 384.99 510.74C384 510.74 383.13 510.52 382.34 510.07ZM386.74 508.77C387.28 508.48 387.72 508.04 388.06 507.46C388.4 506.88 388.56 506.17 388.56 505.33C388.56 504.49 388.39 503.78 388.07 503.2C387.74 502.62 387.31 502.18 386.78 501.9C386.25 501.61 385.67 501.47 385.05 501.47C384.43 501.47 383.84 501.61 383.31 501.9C382.78 502.19 382.36 502.62 382.05 503.2C381.73 503.78 381.58 504.49 381.58 505.33C381.58 506.17 381.73 506.89 382.04 507.48C382.35 508.06 382.76 508.5 383.28 508.78C383.8 509.06 384.37 509.21 384.99 509.21C385.61 509.21 386.19 509.06 386.74 508.77Z" fill="#424242"/>
<path d="M395.9 500.57C396.58 500.18 397.36 499.98 398.24 499.98C399.18 499.98 400.02 500.2 400.77 500.65C401.52 501.1 402.11 501.72 402.54 502.52C402.97 503.32 403.19 504.26 403.19 505.32C403.19 506.38 402.97 507.31 402.54 508.13C402.11 508.95 401.52 509.59 400.76 510.05C400 510.51 399.17 510.73 398.24 510.73C397.31 510.73 396.55 510.53 395.87 510.14C395.19 509.75 394.68 509.25 394.34 508.64V510.56H392.61V496.5H394.34V502.09C394.7 501.47 395.22 500.96 395.9 500.57ZM400.93 503.26C400.61 502.68 400.19 502.23 399.65 501.93C399.11 501.63 398.52 501.47 397.87 501.47C397.22 501.47 396.65 501.63 396.11 501.94C395.57 502.25 395.14 502.7 394.82 503.29C394.5 503.88 394.34 504.56 394.34 505.33C394.34 506.1 394.5 506.8 394.82 507.39C395.14 507.98 395.57 508.43 396.11 508.74C396.65 509.05 397.23 509.21 397.87 509.21C398.51 509.21 399.11 509.05 399.65 508.74C400.19 508.43 400.61 507.98 400.93 507.39C401.25 506.8 401.4 506.11 401.4 505.31C401.4 504.51 401.24 503.84 400.93 503.26Z" fill="#424242"/>
<path d="M408.48 500.45C409.04 500.12 409.73 499.96 410.54 499.96V501.75H410.08C408.14 501.75 407.17 502.8 407.17 504.9V510.56H405.44V500.15H407.17V501.84C407.47 501.24 407.91 500.78 408.47 500.45H408.48Z" fill="#424242"/>
<path d="M421.98 506H413.66C413.72 507.03 414.08 507.83 414.71 508.4C415.35 508.98 416.13 509.26 417.04 509.26C417.79 509.26 418.41 509.09 418.91 508.74C419.41 508.39 419.76 507.93 419.96 507.34H421.82C421.54 508.34 420.98 509.15 420.15 509.78C419.32 510.41 418.27 510.72 417.03 510.72C416.04 510.72 415.16 510.5 414.38 510.05C413.6 509.6 412.99 508.98 412.55 508.16C412.11 507.34 411.89 506.4 411.89 505.32C411.89 504.24 412.1 503.3 412.53 502.49C412.96 501.68 413.57 501.06 414.34 500.62C415.12 500.18 416.02 499.96 417.03 499.96C418.04 499.96 418.89 500.18 419.65 500.61C420.41 501.04 421 501.63 421.41 502.39C421.82 503.15 422.03 504 422.03 504.94C422.03 505.27 422.01 505.62 421.97 505.99L421.98 506ZM419.82 502.89C419.53 502.41 419.13 502.05 418.63 501.81C418.13 501.56 417.58 501.44 416.97 501.44C416.09 501.44 415.35 501.72 414.74 502.28C414.12 502.84 413.77 503.61 413.69 504.6H420.26C420.26 503.94 420.11 503.37 419.82 502.9V502.89Z" fill="#424242"/>
<path d="M431.54 502.86V504.32H423.96V502.86H431.54Z" fill="#424242"/>
<path d="M436.68 510.07C435.89 509.63 435.27 509 434.82 508.18C434.37 507.36 434.15 506.42 434.15 505.34C434.15 504.26 434.38 503.34 434.84 502.52C435.3 501.7 435.93 501.08 436.73 500.64C437.53 500.2 438.42 499.98 439.41 499.98C440.4 499.98 441.29 500.2 442.09 500.64C442.89 501.08 443.52 501.7 443.98 502.51C444.44 503.32 444.67 504.26 444.67 505.34C444.67 506.42 444.43 507.36 443.96 508.18C443.48 509 442.84 509.63 442.03 510.07C441.22 510.51 440.32 510.74 439.33 510.74C438.34 510.74 437.47 510.52 436.68 510.07ZM441.08 508.77C441.62 508.48 442.06 508.04 442.4 507.46C442.74 506.88 442.9 506.17 442.9 505.33C442.9 504.49 442.73 503.78 442.41 503.2C442.08 502.62 441.65 502.18 441.12 501.9C440.59 501.61 440.01 501.47 439.39 501.47C438.77 501.47 438.18 501.61 437.65 501.9C437.12 502.19 436.7 502.62 436.39 503.2C436.07 503.78 435.92 504.49 435.92 505.33C435.92 506.17 436.07 506.89 436.38 507.48C436.69 508.06 437.1 508.5 437.62 508.78C438.14 509.06 438.71 509.21 439.33 509.21C439.95 509.21 440.53 509.06 441.08 508.77Z" fill="#424242"/>
<path d="M460.17 501.11C460.96 501.88 461.35 502.98 461.35 504.43V510.57H459.64V504.68C459.64 503.64 459.38 502.85 458.86 502.3C458.34 501.75 457.63 501.47 456.73 501.47C455.83 501.47 455.09 501.75 454.55 502.32C454.01 502.89 453.74 503.72 453.74 504.81V510.57H452.01V500.16H453.74V501.64C454.08 501.11 454.55 500.7 455.14 500.4C455.73 500.11 456.38 499.96 457.09 499.96C458.36 499.96 459.38 500.34 460.17 501.11Z" fill="#424242"/>
<path d="M466.07 510.07C465.28 509.63 464.66 509 464.21 508.18C463.76 507.36 463.54 506.42 463.54 505.34C463.54 504.26 463.77 503.34 464.23 502.52C464.69 501.7 465.32 501.08 466.12 500.64C466.92 500.2 467.81 499.98 468.8 499.98C469.79 499.98 470.68 500.2 471.48 500.64C472.28 501.08 472.91 501.7 473.37 502.51C473.83 503.32 474.06 504.26 474.06 505.34C474.06 506.42 473.82 507.36 473.35 508.18C472.87 509 472.23 509.63 471.42 510.07C470.61 510.51 469.71 510.74 468.72 510.74C467.73 510.74 466.86 510.52 466.07 510.07ZM470.47 508.77C471.01 508.48 471.45 508.04 471.79 507.46C472.13 506.88 472.29 506.17 472.29 505.33C472.29 504.49 472.12 503.78 471.8 503.2C471.47 502.62 471.04 502.18 470.51 501.9C469.98 501.61 469.4 501.47 468.78 501.47C468.16 501.47 467.57 501.61 467.04 501.9C466.51 502.19 466.09 502.62 465.78 503.2C465.46 503.78 465.31 504.49 465.31 505.33C465.31 506.17 465.46 506.89 465.77 507.48C466.08 508.06 466.49 508.5 467.01 508.78C467.53 509.06 468.1 509.21 468.72 509.21C469.34 509.21 469.92 509.06 470.47 508.77Z" fill="#424242"/>
<path d="M496.1 500.46C496.73 500.8 497.23 501.3 497.6 501.97C497.97 502.64 498.15 503.46 498.15 504.42V510.56H496.44V504.67C496.44 503.63 496.18 502.84 495.67 502.29C495.16 501.74 494.46 501.46 493.59 501.46C492.72 501.46 491.97 501.75 491.44 502.32C490.91 502.9 490.64 503.73 490.64 504.82V510.56H488.93V504.67C488.93 503.63 488.67 502.84 488.16 502.29C487.65 501.74 486.95 501.46 486.08 501.46C485.21 501.46 484.47 501.75 483.93 502.32C483.4 502.9 483.13 503.73 483.13 504.82V510.56H481.4V500.15H483.13V501.65C483.47 501.11 483.93 500.69 484.51 500.4C485.09 500.11 485.72 499.96 486.42 499.96C487.3 499.96 488.07 500.16 488.74 500.55C489.41 500.94 489.91 501.52 490.24 502.28C490.53 501.55 491.01 500.98 491.68 500.57C492.35 500.16 493.1 499.96 493.92 499.96C494.74 499.96 495.45 500.13 496.09 500.46H496.1Z" fill="#424242"/>
<path d="M510.43 506H502.11C502.17 507.03 502.52 507.83 503.16 508.4C503.8 508.98 504.57 509.26 505.49 509.26C506.24 509.26 506.86 509.09 507.36 508.74C507.86 508.39 508.21 507.93 508.41 507.34H510.27C509.99 508.34 509.43 509.15 508.6 509.78C507.77 510.41 506.72 510.72 505.48 510.72C504.49 510.72 503.61 510.5 502.83 510.05C502.05 509.6 501.44 508.98 501 508.16C500.55 507.34 500.33 506.4 500.33 505.32C500.33 504.24 500.54 503.3 500.98 502.49C501.41 501.68 502.02 501.06 502.79 500.62C503.57 500.18 504.46 499.96 505.48 499.96C506.5 499.96 507.34 500.18 508.1 500.61C508.86 501.04 509.45 501.63 509.86 502.39C510.27 503.14 510.48 504 510.48 504.94C510.48 505.27 510.46 505.62 510.42 505.99L510.43 506ZM508.26 502.89C507.97 502.41 507.57 502.05 507.07 501.81C506.57 501.56 506.02 501.44 505.41 501.44C504.54 501.44 503.79 501.72 503.18 502.28C502.57 502.84 502.22 503.61 502.13 504.6H508.7C508.7 503.94 508.56 503.37 508.26 502.9V502.89Z" fill="#424242"/>
<path d="M512.82 498.11C512.59 497.88 512.48 497.6 512.48 497.27C512.48 496.94 512.6 496.66 512.82 496.43C513.05 496.2 513.33 496.09 513.66 496.09C513.99 496.09 514.24 496.2 514.47 496.43C514.69 496.66 514.8 496.94 514.8 497.27C514.8 497.6 514.69 497.88 514.47 498.11C514.25 498.34 513.98 498.45 513.66 498.45C513.34 498.45 513.05 498.34 512.82 498.11ZM514.5 500.15V510.56H512.77V500.15H514.5Z" fill="#424242"/>
<path d="M519.33 510.07C518.54 509.63 517.92 509 517.47 508.18C517.02 507.36 516.8 506.42 516.8 505.34C516.8 504.26 517.03 503.34 517.49 502.52C517.95 501.7 518.58 501.08 519.38 500.64C520.18 500.2 521.07 499.98 522.06 499.98C523.05 499.98 523.94 500.2 524.74 500.64C525.54 501.08 526.17 501.7 526.63 502.51C527.09 503.32 527.32 504.26 527.32 505.34C527.32 506.42 527.08 507.36 526.61 508.18C526.14 509 525.49 509.63 524.68 510.07C523.87 510.51 522.97 510.74 521.98 510.74C520.99 510.74 520.12 510.52 519.33 510.07ZM523.73 508.77C524.27 508.48 524.71 508.04 525.05 507.46C525.39 506.88 525.55 506.17 525.55 505.33C525.55 504.49 525.39 503.78 525.06 503.2C524.73 502.62 524.3 502.18 523.77 501.9C523.24 501.61 522.66 501.47 522.04 501.47C521.42 501.47 520.83 501.61 520.3 501.9C519.77 502.19 519.35 502.62 519.04 503.2C518.72 503.78 518.57 504.49 518.57 505.33C518.57 506.17 518.73 506.89 519.04 507.48C519.35 508.06 519.76 508.5 520.28 508.78C520.8 509.06 521.37 509.21 521.99 509.21C522.61 509.21 523.19 509.06 523.74 508.77H523.73Z" fill="#424242"/>
</svg>
