<svg width="392" height="619" viewBox="0 0 392 619" fill="none" xmlns="http://www.w3.org/2000/svg">
<path d="M189.408 301.589L176.917 297.986L85.459 615.06L97.9497 618.662L189.408 301.589Z" fill="#87CC8C"/>
<path d="M244.03 46.65L104.47 130.46L159.78 367.95L162.02 368.52L320.34 185.43L244.03 46.65Z" fill="#D19FA6"/>
<path d="M109.71 0.560059L0.459961 179.6L159.52 367.31L109.71 0.560059Z" fill="#E1A9AF"/>
<path d="M380.92 69.6301L391.23 279.12L161.76 367.87L380.92 69.6301Z" fill="#E1A9AF"/>
<path d="M306.81 158.67L310.22 164.22L164.8 367.52L306.81 158.67Z" fill="#B78D95"/>
<path d="M129.98 116.48L124.43 119.9L162.4 366.95L129.98 116.48Z" fill="#B78D95"/>
<path d="M135.5 460.99C135.5 460.99 138 411.28 84 415.28C30 419.28 24 402.28 24 402.28C24 402.28 42 505.71 135.5 460.99Z" fill="#87CC8C"/>
</svg>
