<svg width="597" height="578" viewBox="0 0 597 578" fill="none" xmlns="http://www.w3.org/2000/svg">
<path d="M550.02 58.95H66.4401C40.9964 58.95 20.3701 79.5763 20.3701 105.02V531.2C20.3701 556.644 40.9964 577.27 66.4401 577.27H550.02C575.464 577.27 596.09 556.644 596.09 531.2V105.02C596.09 79.5763 575.464 58.95 550.02 58.95Z" fill="#D3D3D3"/>
<path d="M545.6 49.27H62.02C36.5762 49.27 15.95 69.8963 15.95 95.34V521.52C15.95 546.964 36.5762 567.59 62.02 567.59H545.6C571.044 567.59 591.67 546.964 591.67 521.52V95.34C591.67 69.8963 571.044 49.27 545.6 49.27Z" fill="#8BA1CC"/>
<path d="M43.73 89.27C66.7603 89.27 85.43 70.5689 85.43 47.5C85.43 24.4311 66.7603 5.72998 43.73 5.72998C20.6997 5.72998 2.03003 24.4311 2.03003 47.5C2.03003 70.5689 20.6997 89.27 43.73 89.27Z" fill="#CCA98B" stroke="#F2F2F2"/>
<path d="M43.69 85.67C66.7203 85.67 85.39 66.9689 85.39 43.9C85.39 20.8311 66.7203 2.13 43.69 2.13C20.6597 2.13 1.98999 20.8311 1.98999 43.9C1.98999 66.9689 20.6597 85.67 43.69 85.67Z" fill="white" stroke="#F2F2F2" stroke-width="3"/>
<path d="M25.7399 51.43C28.4099 49.22 30.5199 47.41 32.0599 45.99C33.5999 44.57 34.8998 43.08 35.9698 41.53C37.0298 39.97 37.5699 38.46 37.5699 36.99C37.5699 35.87 37.3099 35 36.7899 34.37C36.2699 33.74 35.4899 33.43 34.4599 33.43C33.4299 33.43 32.6099 33.82 32.0299 34.6C31.4399 35.38 31.1499 36.48 31.1499 37.89H24.3999C24.4499 35.57 24.9499 33.63 25.8899 32.08C26.8299 30.52 28.0699 29.38 29.6099 28.64C31.1499 27.9 32.8599 27.54 34.7499 27.54C37.9999 27.54 40.4399 28.37 42.0999 30.04C43.7499 31.71 44.5799 33.87 44.5799 36.55C44.5799 39.47 43.5799 42.18 41.5899 44.67C39.5999 47.17 37.0599 49.6 33.9799 51.97H45.0299V57.66H24.4899V52.46C25.4199 51.72 25.8399 51.38 25.7599 51.44L25.7399 51.43Z" fill="#8BA1CC"/>
<path d="M48.31 32.58C49.01 31.48 49.99 30.61 51.26 29.98C52.53 29.35 53.98 29.04 55.62 29.04C57.26 29.04 58.71 29.35 59.98 29.98C61.25 30.61 62.23 31.47 62.93 32.58C63.63 33.69 63.97 34.96 63.97 36.41C63.97 37.86 63.62 39.14 62.91 40.26C62.2 41.38 61.21 42.26 59.94 42.9C58.67 43.54 57.22 43.86 55.58 43.86C53.94 43.86 52.5 43.54 51.24 42.9C49.98 42.26 49.01 41.38 48.31 40.26C47.61 39.14 47.27 37.86 47.27 36.41C47.27 34.96 47.62 33.69 48.31 32.58ZM57.71 33.95C57.14 33.38 56.43 33.09 55.58 33.09C54.73 33.09 54.07 33.38 53.51 33.95C52.95 34.52 52.67 35.36 52.67 36.45C52.67 37.54 52.94 38.33 53.49 38.91C54.04 39.49 54.73 39.77 55.58 39.77C56.43 39.77 57.13 39.48 57.71 38.89C58.28 38.3 58.57 37.49 58.57 36.46C58.57 35.37 58.28 34.54 57.71 33.96V33.95Z" fill="#8BA1CC"/>
<path d="M105.38 35.45C104.59 36.22 103.38 36.6 101.75 36.6H99.07V42.42H97.25V28.48H101.75C103.32 28.48 104.52 28.86 105.34 29.62C106.16 30.38 106.57 31.36 106.57 32.56C106.57 33.76 106.17 34.68 105.38 35.45ZM103.99 34.44C104.47 34 104.71 33.37 104.71 32.56C104.71 30.84 103.72 29.98 101.75 29.98H99.07V35.1H101.75C102.76 35.1 103.51 34.88 103.99 34.44Z" fill="#8BA1CC"/>
<path d="M108.83 33.95C109.28 33.1 109.91 32.45 110.7 31.98C111.49 31.51 112.38 31.28 113.35 31.28C114.32 31.28 115.14 31.49 115.85 31.9C116.56 32.31 117.08 32.83 117.43 33.46V31.46H119.27V42.42H117.43V40.38C117.07 41.02 116.53 41.55 115.82 41.97C115.11 42.39 114.28 42.6 113.33 42.6C112.38 42.6 111.48 42.36 110.69 41.88C109.9 41.4 109.28 40.73 108.83 39.86C108.38 38.99 108.15 38.01 108.15 36.9C108.15 35.79 108.38 34.8 108.83 33.95ZM116.93 34.76C116.6 34.15 116.15 33.68 115.58 33.35C115.01 33.02 114.39 32.86 113.71 32.86C113.03 32.86 112.41 33.02 111.85 33.34C111.29 33.66 110.84 34.13 110.51 34.74C110.18 35.35 110.01 36.07 110.01 36.9C110.01 37.73 110.18 38.47 110.51 39.09C110.84 39.71 111.29 40.18 111.85 40.51C112.41 40.84 113.03 41 113.71 41C114.39 41 115.01 40.84 115.58 40.51C116.15 40.18 116.6 39.71 116.93 39.09C117.26 38.47 117.43 37.75 117.43 36.92C117.43 36.09 117.26 35.37 116.93 34.76Z" fill="#8BA1CC"/>
<path d="M123.97 42.17C123.3 41.88 122.78 41.48 122.39 40.97C122 40.46 121.79 39.87 121.75 39.2H123.63C123.68 39.75 123.94 40.19 124.4 40.54C124.86 40.89 125.46 41.06 126.21 41.06C126.9 41.06 127.45 40.91 127.85 40.6C128.25 40.29 128.45 39.91 128.45 39.44C128.45 38.97 128.24 38.6 127.81 38.37C127.38 38.14 126.72 37.91 125.83 37.68C125.02 37.47 124.35 37.25 123.84 37.03C123.33 36.81 122.89 36.48 122.52 36.05C122.15 35.62 121.97 35.05 121.97 34.34C121.97 33.78 122.14 33.27 122.47 32.8C122.8 32.33 123.28 31.96 123.89 31.69C124.5 31.42 125.2 31.28 125.99 31.28C127.2 31.28 128.18 31.59 128.93 32.2C129.68 32.81 130.08 33.65 130.13 34.72H128.31C128.27 34.15 128.04 33.69 127.62 33.34C127.2 32.99 126.64 32.82 125.93 32.82C125.28 32.82 124.76 32.96 124.37 33.24C123.98 33.52 123.79 33.89 123.79 34.34C123.79 34.7 123.91 35 124.14 35.23C124.37 35.46 124.67 35.65 125.02 35.79C125.37 35.93 125.86 36.09 126.49 36.26C127.28 36.47 127.92 36.68 128.41 36.89C128.9 37.1 129.33 37.41 129.68 37.82C130.03 38.23 130.22 38.77 130.23 39.44C130.23 40.04 130.06 40.58 129.73 41.06C129.4 41.54 128.93 41.92 128.32 42.19C127.71 42.46 127.02 42.6 126.23 42.6C125.39 42.6 124.64 42.46 123.97 42.17Z" fill="#8BA1CC"/>
<path d="M134.41 42.17C133.74 41.88 133.22 41.48 132.83 40.97C132.44 40.46 132.23 39.87 132.19 39.2H134.07C134.12 39.75 134.38 40.19 134.84 40.54C135.3 40.89 135.9 41.06 136.65 41.06C137.34 41.06 137.89 40.91 138.29 40.6C138.69 40.29 138.89 39.91 138.89 39.44C138.89 38.97 138.68 38.6 138.25 38.37C137.82 38.14 137.16 37.91 136.27 37.68C135.46 37.47 134.79 37.25 134.28 37.03C133.77 36.81 133.33 36.48 132.96 36.05C132.59 35.62 132.41 35.05 132.41 34.34C132.41 33.78 132.58 33.27 132.91 32.8C133.24 32.33 133.72 31.96 134.33 31.69C134.94 31.42 135.64 31.28 136.43 31.28C137.64 31.28 138.62 31.59 139.37 32.2C140.12 32.81 140.52 33.65 140.57 34.72H138.75C138.71 34.15 138.48 33.69 138.06 33.34C137.64 32.99 137.08 32.82 136.37 32.82C135.72 32.82 135.2 32.96 134.81 33.24C134.42 33.52 134.23 33.89 134.23 34.34C134.23 34.7 134.35 35 134.58 35.23C134.81 35.46 135.11 35.65 135.46 35.79C135.81 35.93 136.3 36.09 136.93 36.26C137.72 36.47 138.36 36.68 138.85 36.89C139.34 37.1 139.77 37.41 140.12 37.82C140.47 38.23 140.66 38.77 140.67 39.44C140.67 40.04 140.5 40.58 140.17 41.06C139.84 41.54 139.37 41.92 138.76 42.19C138.15 42.46 137.46 42.6 136.67 42.6C135.83 42.6 135.08 42.46 134.41 42.17Z" fill="#8BA1CC"/>
<path d="M145.22 41.9C144.39 41.43 143.73 40.77 143.26 39.91C142.79 39.05 142.55 38.05 142.55 36.92C142.55 35.79 142.79 34.81 143.28 33.95C143.77 33.09 144.43 32.43 145.27 31.97C146.11 31.51 147.05 31.28 148.09 31.28C149.13 31.28 150.07 31.51 150.91 31.97C151.75 32.43 152.41 33.09 152.9 33.94C153.39 34.79 153.63 35.79 153.63 36.92C153.63 38.05 153.38 39.05 152.88 39.91C152.38 40.77 151.7 41.43 150.85 41.9C150 42.37 149.05 42.6 148.01 42.6C146.97 42.6 146.05 42.37 145.22 41.9ZM149.85 40.54C150.42 40.23 150.89 39.77 151.24 39.16C151.59 38.55 151.77 37.8 151.77 36.92C151.77 36.04 151.6 35.29 151.25 34.68C150.9 34.07 150.45 33.61 149.89 33.31C149.33 33.01 148.72 32.86 148.07 32.86C147.42 32.86 146.79 33.01 146.24 33.31C145.69 33.61 145.24 34.07 144.91 34.68C144.58 35.29 144.41 36.04 144.41 36.92C144.41 37.8 144.57 38.57 144.9 39.18C145.23 39.79 145.66 40.25 146.21 40.55C146.76 40.85 147.36 41 148.01 41C148.66 41 149.28 40.85 149.85 40.54Z" fill="#8BA1CC"/>
<path d="M166.98 498.12C168.04 498.66 168.85 499.43 169.41 500.43C169.97 501.43 170.26 502.61 170.26 503.96C170.26 505.31 169.98 506.49 169.41 507.48C168.84 508.47 168.03 509.23 166.98 509.76C165.92 510.29 164.67 510.55 163.23 510.55H159.11V497.31H163.23C164.67 497.31 165.92 497.58 166.98 498.12ZM167.14 507.78C168.04 506.87 168.49 505.6 168.49 503.97C168.49 502.34 168.04 501.04 167.13 500.11C166.22 499.19 164.92 498.72 163.23 498.72H160.84V509.13H163.23C164.94 509.13 166.24 508.68 167.14 507.77V507.78Z" fill="#424242"/>
<path d="M174.43 510.07C173.64 509.63 173.02 509 172.57 508.18C172.12 507.36 171.9 506.42 171.9 505.34C171.9 504.26 172.13 503.34 172.59 502.52C173.05 501.7 173.68 501.08 174.48 500.64C175.28 500.2 176.17 499.98 177.16 499.98C178.15 499.98 179.04 500.2 179.84 500.64C180.64 501.08 181.27 501.7 181.73 502.51C182.19 503.32 182.42 504.26 182.42 505.34C182.42 506.42 182.18 507.36 181.71 508.18C181.23 509 180.59 509.63 179.78 510.07C178.97 510.51 178.07 510.74 177.08 510.74C176.09 510.74 175.22 510.52 174.43 510.07ZM178.83 508.77C179.37 508.48 179.81 508.04 180.15 507.46C180.49 506.88 180.65 506.17 180.65 505.33C180.65 504.49 180.48 503.78 180.16 503.2C179.83 502.62 179.4 502.18 178.87 501.9C178.34 501.62 177.76 501.47 177.14 501.47C176.52 501.47 175.93 501.61 175.4 501.9C174.87 502.19 174.45 502.62 174.14 503.2C173.82 503.78 173.67 504.49 173.67 505.33C173.67 506.17 173.83 506.89 174.14 507.48C174.45 508.06 174.86 508.5 175.38 508.78C175.9 509.06 176.47 509.21 177.09 509.21C177.71 509.21 178.29 509.06 178.84 508.77H178.83Z" fill="#424242"/>
<path d="M187.99 500.57C188.67 500.18 189.45 499.98 190.33 499.98C191.27 499.98 192.11 500.2 192.86 500.65C193.61 501.09 194.2 501.72 194.63 502.52C195.06 503.32 195.28 504.26 195.28 505.32C195.28 506.38 195.06 507.31 194.63 508.13C194.2 508.95 193.61 509.59 192.85 510.05C192.09 510.51 191.26 510.73 190.33 510.73C189.4 510.73 188.64 510.53 187.96 510.14C187.28 509.75 186.77 509.25 186.43 508.64V510.56H184.7V496.5H186.43V502.09C186.78 501.47 187.3 500.96 187.99 500.57ZM193.02 503.26C192.7 502.68 192.28 502.23 191.74 501.93C191.2 501.63 190.61 501.47 189.96 501.47C189.31 501.47 188.74 501.63 188.2 501.94C187.66 502.25 187.23 502.7 186.91 503.29C186.59 503.88 186.43 504.56 186.43 505.33C186.43 506.1 186.59 506.8 186.91 507.39C187.23 507.98 187.66 508.43 188.2 508.74C188.74 509.05 189.32 509.21 189.96 509.21C190.6 509.21 191.2 509.05 191.74 508.74C192.28 508.43 192.7 507.98 193.02 507.39C193.34 506.8 193.49 506.11 193.49 505.31C193.49 504.51 193.33 503.84 193.02 503.26Z" fill="#424242"/>
<path d="M200.57 500.45C201.13 500.12 201.82 499.96 202.63 499.96V501.75H202.17C200.23 501.75 199.26 502.8 199.26 504.9V510.56H197.53V500.15H199.26V501.84C199.56 501.24 200 500.78 200.56 500.45H200.57Z" fill="#424242"/>
<path d="M214.07 506H205.75C205.81 507.03 206.17 507.83 206.8 508.4C207.43 508.97 208.22 509.26 209.13 509.26C209.88 509.26 210.5 509.09 211 508.74C211.5 508.39 211.85 507.93 212.05 507.34H213.91C213.63 508.34 213.07 509.15 212.24 509.78C211.41 510.41 210.36 510.72 209.12 510.72C208.13 510.72 207.25 510.5 206.47 510.05C205.69 509.6 205.08 508.98 204.64 508.16C204.2 507.34 203.97 506.4 203.97 505.32C203.97 504.24 204.18 503.3 204.62 502.49C205.06 501.68 205.66 501.06 206.43 500.62C207.21 500.18 208.1 499.96 209.12 499.96C210.14 499.96 210.98 500.18 211.74 500.61C212.5 501.04 213.09 501.63 213.5 502.39C213.91 503.14 214.12 504 214.12 504.94C214.12 505.27 214.1 505.62 214.06 505.99L214.07 506ZM211.91 502.89C211.62 502.41 211.22 502.05 210.72 501.81C210.22 501.56 209.67 501.44 209.06 501.44C208.19 501.44 207.44 501.72 206.83 502.28C206.22 502.84 205.86 503.61 205.78 504.6H212.35C212.35 503.94 212.2 503.37 211.91 502.9V502.89Z" fill="#424242"/>
<path d="M221.48 502.51C221.91 501.71 222.5 501.08 223.26 500.64C224.02 500.2 224.85 499.97 225.78 499.97C226.71 499.97 227.48 500.17 228.16 500.56C228.83 500.95 229.33 501.45 229.66 502.04V500.14H231.41V510.55H229.66V508.61C229.32 509.22 228.81 509.72 228.13 510.12C227.45 510.52 226.66 510.72 225.76 510.72C224.86 510.72 224 510.49 223.25 510.04C222.5 509.58 221.91 508.94 221.48 508.12C221.05 507.3 220.83 506.36 220.83 505.31C220.83 504.26 221.04 503.31 221.48 502.51ZM229.18 503.28C228.86 502.7 228.44 502.25 227.9 501.94C227.36 501.63 226.77 501.47 226.12 501.47C225.47 501.47 224.89 501.62 224.35 501.93C223.81 502.24 223.39 502.68 223.08 503.26C222.77 503.84 222.61 504.53 222.61 505.31C222.61 506.09 222.77 506.8 223.08 507.39C223.4 507.98 223.82 508.43 224.35 508.74C224.88 509.05 225.47 509.21 226.12 509.21C226.77 509.21 227.36 509.05 227.9 508.74C228.44 508.43 228.86 507.98 229.18 507.39C229.5 506.8 229.65 506.11 229.65 505.33C229.65 504.55 229.49 503.86 229.18 503.28Z" fill="#424242"/>
<path d="M235.86 510.32C235.23 510.05 234.73 509.67 234.36 509.18C233.99 508.69 233.79 508.13 233.75 507.5H235.54C235.59 508.02 235.83 508.44 236.27 508.77C236.71 509.1 237.28 509.26 237.99 509.26C238.65 509.26 239.17 509.11 239.55 508.82C239.93 508.53 240.12 508.16 240.12 507.72C240.12 507.28 239.92 506.93 239.51 506.7C239.1 506.48 238.48 506.26 237.63 506.04C236.86 505.84 236.23 505.63 235.74 505.42C235.25 505.21 234.83 504.9 234.49 504.49C234.14 504.08 233.97 503.54 233.97 502.87C233.97 502.34 234.13 501.85 234.45 501.41C234.77 500.97 235.22 500.62 235.8 500.36C236.38 500.1 237.05 499.97 237.8 499.97C238.95 499.97 239.88 500.26 240.59 500.84C241.3 501.42 241.68 502.22 241.73 503.23H240C239.96 502.69 239.74 502.25 239.34 501.92C238.94 501.59 238.41 501.43 237.73 501.43C237.11 501.43 236.61 501.56 236.25 501.83C235.88 502.1 235.7 502.44 235.7 502.87C235.7 503.21 235.81 503.49 236.03 503.72C236.25 503.95 236.53 504.12 236.87 504.25C237.21 504.38 237.67 504.53 238.27 504.7C239.02 504.9 239.62 505.1 240.09 505.3C240.56 505.5 240.96 505.79 241.3 506.18C241.63 506.57 241.81 507.09 241.82 507.72C241.82 508.29 241.66 508.8 241.34 509.26C241.02 509.72 240.58 510.07 240 510.33C239.42 510.59 238.76 510.72 238.01 510.72C237.21 510.72 236.5 510.58 235.86 510.31V510.32Z" fill="#424242"/>
<path d="M252.58 500.58C253.26 500.18 254.05 499.98 254.95 499.98C255.85 499.98 256.71 500.2 257.47 500.65C258.23 501.1 258.82 501.72 259.25 502.52C259.68 503.32 259.9 504.26 259.9 505.32C259.9 506.38 259.68 507.31 259.25 508.13C258.82 508.95 258.23 509.59 257.47 510.05C256.71 510.51 255.88 510.73 254.95 510.73C254.02 510.73 253.28 510.53 252.6 510.13C251.92 509.73 251.41 509.23 251.05 508.64V515.5H249.32V500.15H251.05V502.07C251.39 501.48 251.9 500.98 252.58 500.58ZM257.64 503.26C257.32 502.68 256.9 502.23 256.36 501.93C255.82 501.63 255.23 501.47 254.58 501.47C253.93 501.47 253.36 501.63 252.82 501.94C252.28 502.25 251.85 502.7 251.53 503.29C251.21 503.88 251.05 504.56 251.05 505.33C251.05 506.1 251.21 506.8 251.53 507.39C251.85 507.98 252.28 508.43 252.82 508.74C253.36 509.05 253.94 509.21 254.58 509.21C255.22 509.21 255.82 509.05 256.36 508.74C256.9 508.43 257.32 507.98 257.64 507.39C257.96 506.8 258.11 506.11 258.11 505.31C258.11 504.51 257.95 503.84 257.64 503.26Z" fill="#424242"/>
<path d="M264.05 510.07C263.26 509.63 262.64 509 262.19 508.18C261.74 507.36 261.52 506.42 261.52 505.34C261.52 504.26 261.75 503.34 262.21 502.52C262.67 501.7 263.3 501.08 264.1 500.64C264.9 500.2 265.79 499.98 266.78 499.98C267.77 499.98 268.66 500.2 269.46 500.64C270.26 501.08 270.89 501.7 271.35 502.51C271.81 503.32 272.04 504.26 272.04 505.34C272.04 506.42 271.8 507.36 271.33 508.18C270.85 509 270.21 509.63 269.4 510.07C268.59 510.51 267.69 510.74 266.7 510.74C265.71 510.74 264.84 510.52 264.05 510.07ZM268.45 508.77C268.99 508.48 269.43 508.04 269.77 507.46C270.11 506.88 270.27 506.17 270.27 505.33C270.27 504.49 270.1 503.78 269.78 503.2C269.45 502.62 269.02 502.18 268.49 501.9C267.96 501.62 267.38 501.47 266.76 501.47C266.14 501.47 265.55 501.61 265.02 501.9C264.49 502.19 264.07 502.62 263.76 503.2C263.44 503.78 263.29 504.49 263.29 505.33C263.29 506.17 263.45 506.89 263.76 507.48C264.07 508.06 264.48 508.5 265 508.78C265.52 509.06 266.09 509.21 266.71 509.21C267.33 509.21 267.91 509.06 268.46 508.77H268.45Z" fill="#424242"/>
<path d="M282.47 501.11C283.26 501.88 283.65 502.98 283.65 504.43V510.57H281.94V504.68C281.94 503.64 281.68 502.85 281.16 502.3C280.64 501.75 279.93 501.47 279.03 501.47C278.13 501.47 277.39 501.75 276.85 502.32C276.31 502.89 276.04 503.72 276.04 504.81V510.57H274.31V500.16H276.04V501.64C276.38 501.11 276.85 500.7 277.44 500.4C278.03 500.11 278.68 499.96 279.39 499.96C280.66 499.96 281.68 500.34 282.47 501.11Z" fill="#424242"/>
<path d="M288.59 501.57V507.71C288.59 508.22 288.7 508.57 288.91 508.78C289.13 508.99 289.5 509.09 290.03 509.09H291.3V510.55H289.74C288.78 510.55 288.05 510.33 287.57 509.88C287.09 509.44 286.85 508.71 286.85 507.7V501.56H285.5V500.14H286.85V497.52H288.58V500.14H291.3V501.56H288.58L288.59 501.57Z" fill="#424242"/>
<path d="M293.4 502.51C293.83 501.71 294.42 501.08 295.18 500.64C295.94 500.2 296.77 499.97 297.7 499.97C298.63 499.97 299.4 500.17 300.08 500.56C300.75 500.95 301.25 501.45 301.58 502.04V500.14H303.33V510.55H301.58V508.61C301.24 509.22 300.73 509.72 300.05 510.12C299.37 510.52 298.58 510.72 297.68 510.72C296.78 510.72 295.92 510.49 295.17 510.04C294.42 509.58 293.83 508.94 293.4 508.12C292.97 507.3 292.75 506.36 292.75 505.31C292.75 504.26 292.96 503.31 293.4 502.51ZM301.09 503.28C300.77 502.7 300.35 502.25 299.81 501.94C299.27 501.63 298.68 501.47 298.03 501.47C297.38 501.47 296.8 501.62 296.26 501.93C295.72 502.24 295.3 502.68 294.99 503.26C294.68 503.84 294.52 504.53 294.52 505.31C294.52 506.09 294.68 506.8 294.99 507.39C295.31 507.98 295.73 508.43 296.26 508.74C296.79 509.05 297.38 509.21 298.03 509.21C298.68 509.21 299.27 509.05 299.81 508.74C300.35 508.43 300.77 507.98 301.09 507.39C301.41 506.8 301.56 506.11 301.56 505.33C301.56 504.55 301.4 503.86 301.09 503.28Z" fill="#424242"/>
<path d="M307.78 510.32C307.15 510.05 306.65 509.67 306.28 509.18C305.91 508.69 305.71 508.13 305.67 507.5H307.46C307.51 508.02 307.75 508.44 308.19 508.77C308.63 509.1 309.2 509.26 309.91 509.26C310.57 509.26 311.09 509.11 311.47 508.82C311.85 508.53 312.04 508.16 312.04 507.72C312.04 507.28 311.84 506.93 311.43 506.7C311.02 506.48 310.4 506.26 309.55 506.04C308.78 505.84 308.15 505.63 307.66 505.42C307.17 505.21 306.75 504.9 306.41 504.49C306.06 504.08 305.89 503.54 305.89 502.87C305.89 502.34 306.05 501.85 306.37 501.41C306.69 500.97 307.14 500.62 307.72 500.36C308.3 500.1 308.97 499.97 309.72 499.97C310.87 499.97 311.8 500.26 312.51 500.84C313.22 501.42 313.6 502.22 313.65 503.23H311.92C311.88 502.69 311.66 502.25 311.26 501.92C310.86 501.59 310.33 501.43 309.65 501.43C309.03 501.43 308.53 501.56 308.17 501.83C307.8 502.1 307.62 502.44 307.62 502.87C307.62 503.21 307.73 503.49 307.95 503.72C308.17 503.95 308.45 504.12 308.79 504.25C309.13 504.38 309.59 504.53 310.19 504.7C310.94 504.9 311.54 505.1 312.01 505.3C312.48 505.5 312.88 505.79 313.22 506.18C313.55 506.57 313.73 507.09 313.74 507.72C313.74 508.29 313.58 508.8 313.26 509.26C312.94 509.72 312.5 510.07 311.92 510.33C311.34 510.59 310.68 510.72 309.93 510.72C309.13 510.72 308.42 510.58 307.78 510.31V510.32Z" fill="#424242"/>
<path d="M324.49 500.58C325.17 500.18 325.96 499.98 326.86 499.98C327.76 499.98 328.62 500.2 329.38 500.65C330.14 501.1 330.73 501.72 331.16 502.52C331.59 503.32 331.81 504.26 331.81 505.32C331.81 506.38 331.59 507.31 331.16 508.13C330.73 508.95 330.14 509.59 329.38 510.05C328.62 510.51 327.79 510.73 326.86 510.73C325.93 510.73 325.19 510.53 324.51 510.13C323.83 509.73 323.32 509.23 322.96 508.64V515.5H321.23V500.15H322.96V502.07C323.3 501.48 323.81 500.98 324.49 500.58ZM329.55 503.26C329.23 502.68 328.81 502.23 328.27 501.93C327.73 501.63 327.14 501.47 326.49 501.47C325.84 501.47 325.27 501.63 324.73 501.94C324.19 502.25 323.76 502.7 323.44 503.29C323.12 503.88 322.96 504.56 322.96 505.33C322.96 506.1 323.12 506.8 323.44 507.39C323.76 507.98 324.19 508.43 324.73 508.74C325.27 509.05 325.85 509.21 326.49 509.21C327.13 509.21 327.73 509.05 328.27 508.74C328.81 508.43 329.23 507.98 329.55 507.39C329.87 506.8 330.02 506.11 330.02 505.31C330.02 504.51 329.86 503.84 329.55 503.26Z" fill="#424242"/>
<path d="M334.08 502.51C334.51 501.71 335.1 501.08 335.86 500.64C336.62 500.2 337.45 499.97 338.38 499.97C339.31 499.97 340.08 500.17 340.76 500.56C341.43 500.95 341.93 501.45 342.26 502.04V500.14H344.01V510.55H342.26V508.61C341.92 509.22 341.41 509.72 340.73 510.12C340.05 510.52 339.26 510.72 338.36 510.72C337.46 510.72 336.6 510.49 335.85 510.04C335.1 509.58 334.51 508.94 334.08 508.12C333.65 507.3 333.43 506.36 333.43 505.31C333.43 504.26 333.64 503.31 334.08 502.51ZM341.77 503.28C341.45 502.7 341.03 502.25 340.49 501.94C339.95 501.63 339.36 501.47 338.71 501.47C338.06 501.47 337.48 501.62 336.94 501.93C336.4 502.24 335.98 502.68 335.67 503.26C335.36 503.84 335.2 504.53 335.2 505.31C335.2 506.09 335.36 506.8 335.67 507.39C335.99 507.98 336.41 508.43 336.94 508.74C337.47 509.05 338.06 509.21 338.71 509.21C339.36 509.21 339.95 509.05 340.49 508.74C341.03 508.43 341.45 507.98 341.77 507.39C342.09 506.8 342.24 506.11 342.24 505.33C342.24 504.55 342.08 503.86 341.77 503.28Z" fill="#424242"/>
<path d="M349.95 500.45C350.51 500.12 351.2 499.96 352.01 499.96V501.75H351.55C349.61 501.75 348.64 502.8 348.64 504.9V510.56H346.91V500.15H348.64V501.84C348.94 501.24 349.38 500.78 349.94 500.45H349.95Z" fill="#424242"/>
<path d="M354 502.51C354.43 501.71 355.02 501.08 355.78 500.64C356.54 500.2 357.37 499.97 358.3 499.97C359.23 499.97 360 500.17 360.68 500.56C361.35 500.95 361.85 501.45 362.18 502.04V500.14H363.93V510.55H362.18V508.61C361.84 509.22 361.33 509.72 360.65 510.12C359.97 510.52 359.18 510.72 358.28 510.72C357.38 510.72 356.52 510.49 355.77 510.04C355.02 509.58 354.43 508.94 354 508.12C353.57 507.3 353.35 506.36 353.35 505.31C353.35 504.26 353.56 503.31 354 502.51ZM361.7 503.28C361.38 502.7 360.96 502.25 360.42 501.94C359.88 501.63 359.29 501.47 358.64 501.47C357.99 501.47 357.41 501.62 356.87 501.93C356.33 502.24 355.91 502.68 355.6 503.26C355.29 503.84 355.13 504.53 355.13 505.31C355.13 506.09 355.29 506.8 355.6 507.39C355.92 507.98 356.34 508.43 356.87 508.74C357.4 509.05 357.99 509.21 358.64 509.21C359.29 509.21 359.88 509.05 360.42 508.74C360.96 508.43 361.38 507.98 361.7 507.39C362.02 506.8 362.17 506.11 362.17 505.33C362.17 504.55 362.01 503.86 361.7 503.28Z" fill="#424242"/>
<path d="M376.16 501.57H373.97V510.56H372.24V501.57H370.89V500.15H372.24V499.41C372.24 498.24 372.54 497.39 373.14 496.85C373.74 496.31 374.71 496.04 376.04 496.04V497.48C375.28 497.48 374.75 497.63 374.43 497.93C374.12 498.23 373.96 498.72 373.96 499.4V500.14H376.15V501.56L376.16 501.57Z" fill="#424242"/>
<path d="M378.17 502.51C378.6 501.71 379.19 501.08 379.95 500.64C380.71 500.2 381.54 499.97 382.47 499.97C383.4 499.97 384.17 500.17 384.85 500.56C385.52 500.95 386.02 501.45 386.35 502.04V500.14H388.1V510.55H386.35V508.61C386.01 509.22 385.5 509.72 384.82 510.12C384.14 510.52 383.35 510.72 382.45 510.72C381.55 510.72 380.69 510.49 379.94 510.04C379.19 509.58 378.6 508.94 378.17 508.12C377.74 507.3 377.52 506.36 377.52 505.31C377.52 504.26 377.73 503.31 378.17 502.51ZM385.87 503.28C385.55 502.7 385.13 502.25 384.59 501.94C384.05 501.63 383.46 501.47 382.81 501.47C382.16 501.47 381.58 501.62 381.04 501.93C380.5 502.24 380.08 502.68 379.77 503.26C379.46 503.84 379.3 504.53 379.3 505.31C379.3 506.09 379.46 506.8 379.77 507.39C380.09 507.98 380.51 508.43 381.04 508.74C381.57 509.05 382.16 509.21 382.81 509.21C383.46 509.21 384.05 509.05 384.59 508.74C385.13 508.43 385.55 507.98 385.87 507.39C386.19 506.8 386.34 506.11 386.34 505.33C386.34 504.55 386.18 503.86 385.87 503.28Z" fill="#424242"/>
<path d="M392.31 509.13H397.42V510.55H390.33V509.13L395.38 501.55H390.36V500.14H397.37V501.55L392.3 509.13H392.31Z" fill="#424242"/>
<path d="M409.11 506H400.79C400.85 507.03 401.21 507.83 401.84 508.4C402.47 508.97 403.26 509.26 404.17 509.26C404.92 509.26 405.54 509.09 406.04 508.74C406.54 508.39 406.89 507.93 407.09 507.34H408.95C408.67 508.34 408.11 509.15 407.28 509.78C406.45 510.41 405.4 510.72 404.16 510.72C403.17 510.72 402.29 510.5 401.51 510.05C400.73 509.6 400.12 508.98 399.68 508.16C399.24 507.34 399.01 506.4 399.01 505.32C399.01 504.24 399.22 503.3 399.66 502.49C400.1 501.68 400.7 501.06 401.47 500.62C402.25 500.18 403.14 499.96 404.16 499.96C405.18 499.96 406.02 500.18 406.78 500.61C407.54 501.04 408.13 501.63 408.54 502.39C408.95 503.14 409.16 504 409.16 504.94C409.16 505.27 409.14 505.62 409.1 505.99L409.11 506ZM406.94 502.89C406.65 502.41 406.25 502.05 405.75 501.81C405.25 501.56 404.7 501.44 404.09 501.44C403.22 501.44 402.47 501.72 401.86 502.28C401.25 502.84 400.89 503.61 400.81 504.6H407.38C407.38 503.94 407.23 503.37 406.94 502.9V502.89Z" fill="#424242"/>
<path d="M414.47 500.45C415.03 500.12 415.72 499.96 416.53 499.96V501.75H416.07C414.13 501.75 413.16 502.8 413.16 504.9V510.56H411.43V500.15H413.16V501.84C413.46 501.24 413.9 500.78 414.46 500.45H414.47Z" fill="#424242"/>
<path d="M423.6 502.51C424.03 501.71 424.62 501.08 425.38 500.64C426.14 500.2 426.97 499.97 427.9 499.97C428.83 499.97 429.6 500.17 430.28 500.56C430.95 500.95 431.45 501.45 431.78 502.04V500.14H433.53V510.55H431.78V508.61C431.44 509.22 430.93 509.72 430.25 510.12C429.57 510.52 428.78 510.72 427.88 510.72C426.98 510.72 426.12 510.49 425.37 510.04C424.62 509.58 424.03 508.94 423.6 508.12C423.17 507.3 422.95 506.36 422.95 505.31C422.95 504.26 423.16 503.31 423.6 502.51ZM431.3 503.28C430.98 502.7 430.56 502.25 430.02 501.94C429.48 501.63 428.89 501.47 428.24 501.47C427.59 501.47 427.01 501.62 426.47 501.93C425.93 502.24 425.51 502.68 425.2 503.26C424.89 503.84 424.73 504.53 424.73 505.31C424.73 506.09 424.89 506.8 425.2 507.39C425.52 507.98 425.94 508.43 426.47 508.74C427 509.05 427.59 509.21 428.24 509.21C428.89 509.21 429.48 509.05 430.02 508.74C430.56 508.43 430.98 507.98 431.3 507.39C431.62 506.8 431.77 506.11 431.77 505.33C431.77 504.55 431.61 503.86 431.3 503.28Z" fill="#424242"/>
<path d="M437.98 510.32C437.35 510.05 436.85 509.67 436.48 509.18C436.11 508.69 435.91 508.13 435.87 507.5H437.66C437.71 508.02 437.95 508.44 438.39 508.77C438.83 509.1 439.4 509.26 440.11 509.26C440.77 509.26 441.29 509.11 441.67 508.82C442.05 508.53 442.24 508.16 442.24 507.72C442.24 507.28 442.04 506.93 441.63 506.7C441.22 506.48 440.6 506.26 439.75 506.04C438.98 505.84 438.35 505.63 437.86 505.42C437.37 505.21 436.95 504.9 436.61 504.49C436.26 504.08 436.09 503.54 436.09 502.87C436.09 502.34 436.25 501.85 436.57 501.41C436.89 500.97 437.34 500.62 437.92 500.36C438.5 500.1 439.17 499.97 439.92 499.97C441.07 499.97 442 500.26 442.71 500.84C443.42 501.42 443.8 502.22 443.85 503.23H442.12C442.08 502.69 441.86 502.25 441.46 501.92C441.06 501.59 440.53 501.43 439.85 501.43C439.23 501.43 438.73 501.56 438.37 501.83C438 502.1 437.82 502.44 437.82 502.87C437.82 503.21 437.93 503.49 438.15 503.72C438.37 503.95 438.65 504.12 438.99 504.25C439.33 504.38 439.79 504.53 440.39 504.7C441.14 504.9 441.74 505.1 442.21 505.3C442.68 505.5 443.08 505.79 443.42 506.18C443.75 506.57 443.93 507.09 443.94 507.72C443.94 508.29 443.78 508.8 443.46 509.26C443.14 509.72 442.7 510.07 442.12 510.33C441.54 510.59 440.88 510.72 440.13 510.72C439.33 510.72 438.62 510.58 437.98 510.31V510.32Z" fill="#424242"/>
<path d="M202.58 532.87C201.79 532.43 201.17 531.8 200.72 530.98C200.27 530.16 200.05 529.22 200.05 528.14C200.05 527.06 200.28 526.14 200.74 525.32C201.2 524.5 201.83 523.88 202.63 523.44C203.43 523 204.32 522.78 205.31 522.78C206.3 522.78 207.19 523 207.99 523.44C208.79 523.88 209.42 524.5 209.88 525.31C210.34 526.12 210.57 527.06 210.57 528.14C210.57 529.22 210.33 530.16 209.86 530.98C209.38 531.8 208.74 532.43 207.93 532.87C207.12 533.31 206.22 533.54 205.23 533.54C204.24 533.54 203.37 533.32 202.58 532.87ZM206.98 531.57C207.52 531.28 207.96 530.84 208.3 530.26C208.64 529.68 208.8 528.97 208.8 528.13C208.8 527.29 208.63 526.58 208.31 526C207.98 525.42 207.55 524.98 207.02 524.7C206.49 524.42 205.91 524.27 205.29 524.27C204.67 524.27 204.08 524.41 203.55 524.7C203.02 524.99 202.6 525.42 202.29 526C201.97 526.58 201.82 527.29 201.82 528.13C201.82 528.97 201.98 529.69 202.29 530.28C202.6 530.86 203.01 531.3 203.53 531.58C204.05 531.86 204.62 532.01 205.24 532.01C205.86 532.01 206.44 531.86 206.99 531.57H206.98Z" fill="#424242"/>
<path d="M215.88 523.25C216.44 522.92 217.13 522.76 217.94 522.76V524.55H217.48C215.54 524.55 214.57 525.6 214.57 527.7V533.36H212.84V522.95H214.57V524.64C214.87 524.04 215.31 523.58 215.87 523.25H215.88Z" fill="#424242"/>
<path d="M229.38 528.8H221.06C221.12 529.83 221.48 530.63 222.11 531.2C222.74 531.77 223.53 532.06 224.44 532.06C225.19 532.06 225.81 531.89 226.31 531.54C226.81 531.19 227.16 530.73 227.36 530.14H229.22C228.94 531.14 228.38 531.95 227.55 532.58C226.72 533.21 225.67 533.52 224.43 533.52C223.44 533.52 222.56 533.3 221.78 532.85C221 532.4 220.39 531.78 219.95 530.96C219.51 530.14 219.28 529.2 219.28 528.12C219.28 527.04 219.49 526.1 219.93 525.29C220.37 524.48 220.97 523.86 221.74 523.42C222.52 522.98 223.41 522.76 224.43 522.76C225.45 522.76 226.29 522.98 227.05 523.41C227.81 523.84 228.4 524.43 228.81 525.19C229.22 525.94 229.43 526.8 229.43 527.74C229.43 528.07 229.41 528.42 229.37 528.79L229.38 528.8ZM227.21 525.69C226.92 525.21 226.52 524.85 226.02 524.61C225.52 524.36 224.97 524.24 224.36 524.24C223.49 524.24 222.74 524.52 222.13 525.08C221.52 525.64 221.16 526.41 221.08 527.4H227.65C227.65 526.74 227.5 526.17 227.21 525.7V525.69Z" fill="#424242"/>
<path d="M233.44 519.3V533.36H231.71V519.3H233.44Z" fill="#424242"/>
<path d="M236.44 520.91C236.21 520.68 236.1 520.4 236.1 520.07C236.1 519.74 236.21 519.46 236.44 519.23C236.67 519 236.95 518.89 237.28 518.89C237.61 518.89 237.86 519 238.09 519.23C238.31 519.46 238.42 519.74 238.42 520.07C238.42 520.4 238.31 520.68 238.09 520.91C237.87 521.14 237.6 521.25 237.28 521.25C236.96 521.25 236.67 521.14 236.44 520.91ZM238.12 522.95V533.36H236.39V522.95H238.12Z" fill="#424242"/>
<path d="M249.21 523.91C250 524.68 250.39 525.78 250.39 527.23V533.37H248.68V527.48C248.68 526.44 248.42 525.65 247.9 525.1C247.38 524.55 246.67 524.27 245.77 524.27C244.87 524.27 244.13 524.55 243.59 525.12C243.05 525.69 242.78 526.52 242.78 527.61V533.37H241.05V522.96H242.78V524.44C243.12 523.91 243.59 523.5 244.18 523.2C244.77 522.91 245.42 522.76 246.13 522.76C247.4 522.76 248.42 523.14 249.21 523.91Z" fill="#424242"/>
<path d="M260.52 523.26C261.15 523.6 261.65 524.1 262.01 524.77C262.37 525.44 262.55 526.26 262.55 527.22V533.36H260.84V527.47C260.84 526.43 260.58 525.64 260.06 525.09C259.54 524.54 258.83 524.26 257.93 524.26C257.03 524.26 256.29 524.54 255.75 525.11C255.21 525.68 254.94 526.51 254.94 527.6V533.36H253.21V519.3H254.94V524.43C255.28 523.9 255.75 523.49 256.36 523.19C256.96 522.9 257.64 522.75 258.38 522.75C259.17 522.75 259.87 522.92 260.51 523.25L260.52 523.26Z" fill="#424242"/>
<path d="M265.38 525.31C265.81 524.51 266.4 523.88 267.16 523.44C267.92 523 268.75 522.77 269.68 522.77C270.61 522.77 271.38 522.97 272.06 523.36C272.73 523.75 273.23 524.25 273.56 524.84V522.94H275.31V533.35H273.56V531.41C273.22 532.02 272.71 532.52 272.03 532.92C271.35 533.32 270.56 533.52 269.66 533.52C268.76 533.52 267.9 533.29 267.15 532.84C266.4 532.38 265.81 531.74 265.38 530.92C264.95 530.1 264.73 529.16 264.73 528.11C264.73 527.06 264.94 526.11 265.38 525.31ZM273.08 526.08C272.76 525.5 272.34 525.05 271.8 524.74C271.26 524.43 270.67 524.27 270.02 524.27C269.37 524.27 268.79 524.42 268.25 524.73C267.71 525.04 267.29 525.48 266.98 526.06C266.67 526.64 266.51 527.33 266.51 528.11C266.51 528.89 266.67 529.6 266.98 530.19C267.3 530.78 267.72 531.23 268.25 531.54C268.78 531.85 269.37 532.01 270.02 532.01C270.67 532.01 271.26 531.85 271.8 531.54C272.34 531.23 272.76 530.78 273.08 530.19C273.4 529.6 273.55 528.91 273.55 528.13C273.55 527.35 273.39 526.66 273.08 526.08Z" fill="#424242"/>
<path d="M279.76 533.12C279.13 532.85 278.63 532.47 278.26 531.98C277.89 531.49 277.69 530.93 277.65 530.3H279.44C279.49 530.82 279.73 531.24 280.17 531.57C280.61 531.9 281.18 532.06 281.89 532.06C282.55 532.06 283.07 531.91 283.45 531.62C283.83 531.33 284.02 530.96 284.02 530.52C284.02 530.08 283.82 529.73 283.41 529.5C283 529.28 282.38 529.06 281.53 528.84C280.76 528.64 280.13 528.43 279.64 528.22C279.15 528.01 278.73 527.7 278.39 527.29C278.04 526.88 277.87 526.34 277.87 525.67C277.87 525.14 278.03 524.65 278.35 524.21C278.67 523.77 279.12 523.42 279.7 523.16C280.28 522.9 280.95 522.77 281.7 522.77C282.85 522.77 283.78 523.06 284.49 523.64C285.2 524.22 285.58 525.02 285.63 526.03H283.9C283.86 525.49 283.64 525.05 283.24 524.72C282.84 524.39 282.31 524.23 281.63 524.23C281.01 524.23 280.51 524.36 280.15 524.63C279.78 524.9 279.6 525.24 279.6 525.67C279.6 526.01 279.71 526.29 279.93 526.52C280.15 526.75 280.43 526.92 280.77 527.05C281.11 527.18 281.57 527.33 282.17 527.5C282.92 527.7 283.52 527.9 283.99 528.1C284.46 528.3 284.86 528.59 285.2 528.98C285.53 529.37 285.71 529.89 285.72 530.52C285.72 531.09 285.56 531.6 285.24 532.06C284.92 532.52 284.48 532.87 283.9 533.13C283.32 533.39 282.66 533.52 281.91 533.52C281.11 533.52 280.4 533.38 279.76 533.11V533.12Z" fill="#424242"/>
<path d="M293.21 525.31C293.64 524.51 294.23 523.88 294.99 523.44C295.75 523 296.59 522.77 297.53 522.77C298.34 522.77 299.09 522.96 299.79 523.33C300.49 523.7 301.02 524.19 301.39 524.8V519.29H303.14V533.35H301.39V531.39C301.05 532.01 300.54 532.52 299.87 532.92C299.2 533.32 298.41 533.52 297.51 533.52C296.61 533.52 295.75 533.29 294.99 532.84C294.23 532.39 293.64 531.74 293.21 530.92C292.78 530.1 292.56 529.16 292.56 528.11C292.56 527.06 292.77 526.11 293.21 525.31ZM300.91 526.08C300.59 525.5 300.17 525.05 299.63 524.74C299.09 524.43 298.5 524.27 297.85 524.27C297.2 524.27 296.62 524.42 296.08 524.73C295.54 525.04 295.12 525.48 294.81 526.06C294.5 526.64 294.34 527.33 294.34 528.11C294.34 528.89 294.5 529.6 294.81 530.19C295.13 530.78 295.55 531.23 296.08 531.54C296.61 531.85 297.2 532.01 297.85 532.01C298.5 532.01 299.09 531.85 299.63 531.54C300.17 531.23 300.59 530.78 300.91 530.19C301.23 529.6 301.38 528.91 301.38 528.13C301.38 527.35 301.22 526.66 300.91 526.08Z" fill="#424242"/>
<path d="M307.95 532.87C307.16 532.43 306.54 531.8 306.09 530.98C305.64 530.16 305.42 529.22 305.42 528.14C305.42 527.06 305.65 526.14 306.11 525.32C306.57 524.5 307.2 523.88 308 523.44C308.8 523 309.69 522.78 310.68 522.78C311.67 522.78 312.56 523 313.36 523.44C314.16 523.88 314.79 524.5 315.25 525.31C315.71 526.12 315.94 527.06 315.94 528.14C315.94 529.22 315.7 530.16 315.23 530.98C314.75 531.8 314.11 532.43 313.3 532.87C312.49 533.31 311.59 533.54 310.6 533.54C309.61 533.54 308.74 533.32 307.95 532.87ZM312.35 531.57C312.89 531.28 313.33 530.84 313.67 530.26C314.01 529.68 314.17 528.97 314.17 528.13C314.17 527.29 314 526.58 313.68 526C313.35 525.42 312.92 524.98 312.39 524.7C311.86 524.42 311.28 524.27 310.66 524.27C310.04 524.27 309.45 524.41 308.92 524.7C308.39 524.99 307.97 525.42 307.66 526C307.34 526.58 307.19 527.29 307.19 528.13C307.19 528.97 307.35 529.69 307.66 530.28C307.97 530.86 308.38 531.3 308.9 531.58C309.42 531.86 309.99 532.01 310.61 532.01C311.23 532.01 311.81 531.86 312.36 531.57H312.35Z" fill="#424242"/>
<path d="M323.29 525.31C323.72 524.51 324.32 523.88 325.09 523.44C325.86 523 326.73 522.77 327.72 522.77C329 522.77 330.05 523.08 330.88 523.7C331.71 524.32 332.26 525.18 332.52 526.28H330.66C330.48 525.65 330.14 525.15 329.62 524.78C329.11 524.41 328.47 524.23 327.71 524.23C326.72 524.23 325.92 524.57 325.32 525.25C324.71 525.93 324.41 526.89 324.41 528.13C324.41 529.37 324.71 530.35 325.32 531.04C325.93 531.72 326.73 532.07 327.71 532.07C328.47 532.07 329.1 531.89 329.61 531.54C330.12 531.19 330.46 530.68 330.65 530.02H332.51C332.23 531.08 331.67 531.94 330.84 532.58C330.01 533.22 328.96 533.54 327.7 533.54C326.71 533.54 325.83 533.32 325.07 532.87C324.3 532.43 323.7 531.8 323.27 530.99C322.84 530.18 322.62 529.23 322.62 528.14C322.62 527.05 322.83 526.12 323.27 525.32L323.29 525.31Z" fill="#424242"/>
<path d="M334.83 525.31C335.26 524.51 335.85 523.88 336.61 523.44C337.37 523 338.2 522.77 339.13 522.77C340.06 522.77 340.83 522.97 341.51 523.36C342.18 523.75 342.68 524.25 343.01 524.84V522.94H344.76V533.35H343.01V531.41C342.67 532.02 342.16 532.52 341.48 532.92C340.8 533.32 340.01 533.52 339.11 533.52C338.21 533.52 337.35 533.29 336.6 532.84C335.85 532.38 335.26 531.74 334.83 530.92C334.4 530.1 334.18 529.16 334.18 528.11C334.18 527.06 334.39 526.11 334.83 525.31ZM342.52 526.08C342.2 525.5 341.78 525.05 341.24 524.74C340.7 524.43 340.11 524.27 339.46 524.27C338.81 524.27 338.23 524.42 337.69 524.73C337.15 525.04 336.73 525.48 336.42 526.06C336.11 526.64 335.95 527.33 335.95 528.11C335.95 528.89 336.11 529.6 336.42 530.19C336.74 530.78 337.16 531.23 337.69 531.54C338.22 531.85 338.81 532.01 339.46 532.01C340.11 532.01 340.7 531.85 341.24 531.54C341.78 531.23 342.2 530.78 342.52 530.19C342.84 529.6 342.99 528.91 342.99 528.13C342.99 527.35 342.83 526.66 342.52 526.08Z" fill="#424242"/>
<path d="M347.67 525.31C348.1 524.51 348.7 523.88 349.47 523.44C350.24 523 351.11 522.77 352.1 522.77C353.38 522.77 354.43 523.08 355.26 523.7C356.09 524.32 356.64 525.18 356.9 526.28H355.04C354.86 525.65 354.52 525.15 354 524.78C353.49 524.41 352.85 524.23 352.09 524.23C351.1 524.23 350.3 524.57 349.7 525.25C349.09 525.93 348.79 526.89 348.79 528.13C348.79 529.37 349.09 530.35 349.7 531.04C350.31 531.72 351.11 532.07 352.09 532.07C352.85 532.07 353.48 531.89 353.99 531.54C354.5 531.19 354.84 530.68 355.03 530.02H356.89C356.61 531.08 356.05 531.94 355.22 532.58C354.39 533.22 353.34 533.54 352.08 533.54C351.09 533.54 350.21 533.32 349.45 532.87C348.68 532.43 348.08 531.8 347.65 530.99C347.22 530.18 347 529.23 347 528.14C347 527.05 347.21 526.12 347.65 525.32L347.67 525.31Z" fill="#424242"/>
<path d="M366.5 523.26C367.13 523.6 367.63 524.1 367.99 524.77C368.35 525.44 368.53 526.26 368.53 527.22V533.36H366.82V527.47C366.82 526.43 366.56 525.64 366.04 525.09C365.52 524.54 364.81 524.26 363.91 524.26C363.01 524.26 362.27 524.54 361.73 525.11C361.19 525.68 360.92 526.51 360.92 527.6V533.36H359.19V519.3H360.92V524.43C361.26 523.9 361.73 523.49 362.34 523.19C362.94 522.9 363.62 522.75 364.36 522.75C365.15 522.75 365.85 522.92 366.49 523.25L366.5 523.26Z" fill="#424242"/>
<path d="M373.25 532.87C372.46 532.43 371.84 531.8 371.39 530.98C370.94 530.16 370.72 529.22 370.72 528.14C370.72 527.06 370.95 526.14 371.41 525.32C371.87 524.5 372.5 523.88 373.3 523.44C374.1 523 374.99 522.78 375.98 522.78C376.97 522.78 377.86 523 378.66 523.44C379.46 523.88 380.09 524.5 380.55 525.31C381.01 526.12 381.24 527.06 381.24 528.14C381.24 529.22 381 530.16 380.53 530.98C380.05 531.8 379.41 532.43 378.6 532.87C377.79 533.31 376.89 533.54 375.9 533.54C374.91 533.54 374.04 533.32 373.25 532.87ZM377.65 531.57C378.19 531.28 378.63 530.84 378.97 530.26C379.31 529.68 379.47 528.97 379.47 528.13C379.47 527.29 379.3 526.58 378.98 526C378.65 525.42 378.22 524.98 377.69 524.7C377.16 524.42 376.58 524.27 375.96 524.27C375.34 524.27 374.75 524.41 374.22 524.7C373.69 524.99 373.27 525.42 372.96 526C372.64 526.58 372.49 527.29 372.49 528.13C372.49 528.97 372.65 529.69 372.96 530.28C373.27 530.86 373.68 531.3 374.2 531.58C374.72 531.86 375.29 532.01 375.91 532.01C376.53 532.01 377.11 531.86 377.66 531.57H377.65Z" fill="#424242"/>
<path d="M386.55 523.25C387.11 522.92 387.8 522.76 388.61 522.76V524.55H388.15C386.21 524.55 385.24 525.6 385.24 527.7V533.36H383.51V522.95H385.24V524.64C385.54 524.04 385.98 523.58 386.54 523.25H386.55Z" fill="#424242"/>
<path d="M393.64 523.25C394.2 522.92 394.89 522.76 395.7 522.76V524.55H395.24C393.3 524.55 392.33 525.6 392.33 527.7V533.36H390.6V522.95H392.33V524.64C392.63 524.04 393.07 523.58 393.63 523.25H393.64Z" fill="#424242"/>
<path d="M399.59 532.87C398.8 532.43 398.18 531.8 397.73 530.98C397.28 530.16 397.06 529.22 397.06 528.14C397.06 527.06 397.29 526.14 397.75 525.32C398.21 524.5 398.84 523.88 399.64 523.44C400.44 523 401.33 522.78 402.32 522.78C403.31 522.78 404.2 523 405 523.44C405.8 523.88 406.43 524.5 406.89 525.31C407.35 526.12 407.58 527.06 407.58 528.14C407.58 529.22 407.34 530.16 406.87 530.98C406.39 531.8 405.75 532.43 404.94 532.87C404.13 533.31 403.23 533.54 402.24 533.54C401.25 533.54 400.38 533.32 399.59 532.87ZM403.98 531.57C404.52 531.28 404.96 530.84 405.3 530.26C405.64 529.68 405.8 528.97 405.8 528.13C405.8 527.29 405.63 526.58 405.31 526C404.98 525.42 404.55 524.98 404.02 524.7C403.49 524.42 402.91 524.27 402.29 524.27C401.67 524.27 401.08 524.41 400.55 524.7C400.02 524.99 399.6 525.42 399.29 526C398.97 526.58 398.82 527.29 398.82 528.13C398.82 528.97 398.98 529.69 399.29 530.28C399.6 530.86 400.01 531.3 400.53 531.58C401.05 531.86 401.62 532.01 402.24 532.01C402.86 532.01 403.44 531.86 403.99 531.57H403.98Z" fill="#424242"/>
<path d="M92.9199 377.72L290.47 166.33L489.64 377.72H92.9199Z" fill="#CCCCCC"/>
<path d="M94.9199 370.72L292.47 159.33L491.64 370.72H94.9199Z" fill="white" stroke="#E0E0E0" stroke-miterlimit="10"/>
<path d="M394.83 341.16C394.83 341.16 400.14 290.49 351.05 273.79" stroke="#8BA1CC" stroke-width="2"/>
<path d="M339.38 270.69C345.41 270.16 353.16 268.56 358.38 266.04L352.54 274.3L353.34 284.38C350.14 279.55 344.29 274.22 339.37 270.68L339.38 270.69Z" fill="#8BA1CC"/>
<path d="M176.6 331.45C176.6 331.45 187.07 281.59 238.92 280.73" stroke="#8BA1CC" stroke-width="2"/>
<path d="M250.97 281.36C245.2 283.22 238.01 286.5 233.48 290.12L237.33 280.77L234.31 271.12C238.51 275.11 245.39 279.01 250.98 281.36H250.97Z" fill="#8BA1CC"/>
<path d="M293 375.27L192 265.27" stroke="#8BA1CC" stroke-width="2"/>
<path d="M395 265.27L294 375.27" stroke="#8BA1CC" stroke-width="2"/>
</svg>
