<svg width="601" height="578" viewBox="0 0 601 578" fill="none" xmlns="http://www.w3.org/2000/svg">
<path d="M554.02 58.95H70.4401C44.9964 58.95 24.3701 79.5763 24.3701 105.02V531.2C24.3701 556.644 44.9964 577.27 70.4401 577.27H554.02C579.464 577.27 600.09 556.644 600.09 531.2V105.02C600.09 79.5763 579.464 58.95 554.02 58.95Z" fill="#D3D3D3"/>
<path d="M549.4 49.27H65.82C40.3762 49.27 19.75 69.8963 19.75 95.34V521.52C19.75 546.964 40.3762 567.59 65.82 567.59H549.4C574.844 567.59 595.47 546.964 595.47 521.52V95.34C595.47 69.8963 574.844 49.27 549.4 49.27Z" fill="#8BA1CC"/>
<path d="M43.7303 89.27C66.7606 89.27 85.4303 70.5689 85.4303 47.5C85.4303 24.4311 66.7606 5.72998 43.7303 5.72998C20.7 5.72998 2.03027 24.4311 2.03027 47.5C2.03027 70.5689 20.7 89.27 43.7303 89.27Z" fill="#CCA98B" stroke="#F2F2F2"/>
<path d="M43.6902 85.67C66.7205 85.67 85.3902 66.9689 85.3902 43.9C85.3902 20.8311 66.7205 2.13 43.6902 2.13C20.66 2.13 1.99023 20.8311 1.99023 43.9C1.99023 66.9689 20.66 85.67 43.6902 85.67Z" fill="white" stroke="#F2F2F2" stroke-width="3"/>
<path d="M44.5303 33.42L34.2603 58.06H27.1003L37.4903 34.2H24.7603V28.22H44.5303V33.42Z" fill="#8BA1CC"/>
<path d="M47.58 32.58C48.28 31.48 49.26 30.61 50.53 29.98C51.8 29.35 53.25 29.04 54.89 29.04C56.53 29.04 57.98 29.35 59.25 29.98C60.52 30.61 61.5 31.47 62.2 32.58C62.9 33.69 63.24 34.96 63.24 36.41C63.24 37.86 62.89 39.14 62.18 40.26C61.47 41.38 60.48 42.26 59.21 42.9C57.94 43.54 56.49 43.86 54.85 43.86C53.21 43.86 51.77 43.54 50.51 42.9C49.25 42.26 48.28 41.38 47.58 40.26C46.88 39.14 46.54 37.86 46.54 36.41C46.54 34.96 46.89 33.69 47.58 32.58ZM56.97 33.95C56.4 33.38 55.69 33.09 54.84 33.09C53.99 33.09 53.33 33.38 52.77 33.95C52.21 34.52 51.93 35.36 51.93 36.45C51.93 37.54 52.2 38.33 52.75 38.91C53.3 39.49 53.99 39.77 54.84 39.77C55.69 39.77 56.39 39.48 56.97 38.89C57.54 38.3 57.83 37.49 57.83 36.46C57.83 35.37 57.54 34.54 56.97 33.96V33.95Z" fill="#8BA1CC"/>
<path d="M105.38 35.45C104.59 36.22 103.38 36.6 101.75 36.6H99.07V42.42H97.25V28.48H101.75C103.32 28.48 104.52 28.86 105.34 29.62C106.16 30.38 106.57 31.36 106.57 32.56C106.57 33.76 106.17 34.68 105.38 35.45ZM103.99 34.44C104.47 34 104.71 33.37 104.71 32.56C104.71 30.84 103.72 29.98 101.75 29.98H99.07V35.1H101.75C102.76 35.1 103.51 34.88 103.99 34.44Z" fill="#8BA1CC"/>
<path d="M108.83 33.95C109.28 33.1 109.91 32.45 110.7 31.98C111.49 31.51 112.38 31.28 113.35 31.28C114.32 31.28 115.14 31.49 115.85 31.9C116.56 32.31 117.08 32.83 117.43 33.46V31.46H119.27V42.42H117.43V40.38C117.07 41.02 116.53 41.55 115.82 41.97C115.11 42.39 114.28 42.6 113.33 42.6C112.38 42.6 111.48 42.36 110.69 41.88C109.9 41.4 109.28 40.73 108.83 39.86C108.38 38.99 108.15 38.01 108.15 36.9C108.15 35.79 108.38 34.8 108.83 33.95ZM116.93 34.76C116.6 34.15 116.15 33.68 115.58 33.35C115.01 33.02 114.39 32.86 113.71 32.86C113.03 32.86 112.41 33.02 111.85 33.34C111.29 33.66 110.84 34.13 110.51 34.74C110.18 35.35 110.01 36.07 110.01 36.9C110.01 37.73 110.18 38.47 110.51 39.09C110.84 39.71 111.29 40.18 111.85 40.51C112.41 40.84 113.03 41 113.71 41C114.39 41 115.01 40.84 115.58 40.51C116.15 40.18 116.6 39.71 116.93 39.09C117.26 38.47 117.43 37.75 117.43 36.92C117.43 36.09 117.26 35.37 116.93 34.76Z" fill="#8BA1CC"/>
<path d="M123.97 42.17C123.3 41.88 122.78 41.48 122.39 40.97C122 40.46 121.79 39.87 121.75 39.2H123.63C123.68 39.75 123.94 40.19 124.4 40.54C124.86 40.89 125.46 41.06 126.21 41.06C126.9 41.06 127.45 40.91 127.85 40.6C128.25 40.29 128.45 39.91 128.45 39.44C128.45 38.97 128.24 38.6 127.81 38.37C127.38 38.14 126.72 37.91 125.83 37.68C125.02 37.47 124.35 37.25 123.84 37.03C123.33 36.81 122.89 36.48 122.52 36.05C122.15 35.62 121.97 35.05 121.97 34.34C121.97 33.78 122.14 33.27 122.47 32.8C122.8 32.33 123.28 31.96 123.89 31.69C124.5 31.42 125.2 31.28 125.99 31.28C127.2 31.28 128.18 31.59 128.93 32.2C129.68 32.81 130.08 33.65 130.13 34.72H128.31C128.27 34.15 128.04 33.69 127.62 33.34C127.2 32.99 126.64 32.82 125.93 32.82C125.28 32.82 124.76 32.96 124.37 33.24C123.98 33.52 123.79 33.89 123.79 34.34C123.79 34.7 123.91 35 124.14 35.23C124.37 35.46 124.67 35.65 125.02 35.79C125.37 35.93 125.86 36.09 126.49 36.26C127.28 36.47 127.92 36.68 128.41 36.89C128.9 37.1 129.33 37.41 129.68 37.82C130.03 38.23 130.22 38.77 130.23 39.44C130.23 40.04 130.06 40.58 129.73 41.06C129.4 41.54 128.93 41.92 128.32 42.19C127.71 42.46 127.02 42.6 126.23 42.6C125.39 42.6 124.64 42.46 123.97 42.17Z" fill="#8BA1CC"/>
<path d="M134.41 42.17C133.74 41.88 133.22 41.48 132.83 40.97C132.44 40.46 132.23 39.87 132.19 39.2H134.07C134.12 39.75 134.38 40.19 134.84 40.54C135.3 40.89 135.9 41.06 136.65 41.06C137.34 41.06 137.89 40.91 138.29 40.6C138.69 40.29 138.89 39.91 138.89 39.44C138.89 38.97 138.68 38.6 138.25 38.37C137.82 38.14 137.16 37.91 136.27 37.68C135.46 37.47 134.79 37.25 134.28 37.03C133.77 36.81 133.33 36.48 132.96 36.05C132.59 35.62 132.41 35.05 132.41 34.34C132.41 33.78 132.58 33.27 132.91 32.8C133.24 32.33 133.72 31.96 134.33 31.69C134.94 31.42 135.64 31.28 136.43 31.28C137.64 31.28 138.62 31.59 139.37 32.2C140.12 32.81 140.52 33.65 140.57 34.72H138.75C138.71 34.15 138.48 33.69 138.06 33.34C137.64 32.99 137.08 32.82 136.37 32.82C135.72 32.82 135.2 32.96 134.81 33.24C134.42 33.52 134.23 33.89 134.23 34.34C134.23 34.7 134.35 35 134.58 35.23C134.81 35.46 135.11 35.65 135.46 35.79C135.81 35.93 136.3 36.09 136.93 36.26C137.72 36.47 138.36 36.68 138.85 36.89C139.34 37.1 139.77 37.41 140.12 37.82C140.47 38.23 140.66 38.77 140.67 39.44C140.67 40.04 140.5 40.58 140.17 41.06C139.84 41.54 139.37 41.92 138.76 42.19C138.15 42.46 137.46 42.6 136.67 42.6C135.83 42.6 135.08 42.46 134.41 42.17Z" fill="#8BA1CC"/>
<path d="M145.22 41.9C144.39 41.43 143.73 40.77 143.26 39.91C142.79 39.05 142.55 38.05 142.55 36.92C142.55 35.79 142.79 34.81 143.28 33.95C143.77 33.09 144.43 32.43 145.27 31.97C146.11 31.51 147.05 31.28 148.09 31.28C149.13 31.28 150.07 31.51 150.91 31.97C151.75 32.43 152.41 33.09 152.9 33.94C153.39 34.79 153.63 35.79 153.63 36.92C153.63 38.05 153.38 39.05 152.88 39.91C152.38 40.77 151.7 41.43 150.85 41.9C150 42.37 149.05 42.6 148.01 42.6C146.97 42.6 146.05 42.37 145.22 41.9ZM149.85 40.54C150.42 40.23 150.89 39.77 151.24 39.16C151.59 38.55 151.77 37.8 151.77 36.92C151.77 36.04 151.6 35.29 151.25 34.68C150.9 34.07 150.45 33.61 149.89 33.31C149.33 33.01 148.72 32.86 148.07 32.86C147.42 32.86 146.79 33.01 146.24 33.31C145.69 33.61 145.24 34.07 144.91 34.68C144.58 35.29 144.41 36.04 144.41 36.92C144.41 37.8 144.57 38.57 144.9 39.18C145.23 39.79 145.66 40.25 146.21 40.55C146.76 40.85 147.36 41 148.01 41C148.66 41 149.28 40.85 149.85 40.54Z" fill="#8BA1CC"/>
<path d="M134.45 497.32L129.45 510.56H127.46L122.46 497.32H124.3L128.46 508.74L132.62 497.32H134.44H134.45Z" fill="#424242"/>
<path d="M136.41 498.11C136.18 497.88 136.07 497.6 136.07 497.27C136.07 496.94 136.19 496.66 136.41 496.43C136.64 496.2 136.92 496.09 137.25 496.09C137.58 496.09 137.83 496.2 138.06 496.43C138.28 496.66 138.39 496.94 138.39 497.27C138.39 497.6 138.28 497.88 138.06 498.11C137.84 498.34 137.57 498.45 137.25 498.45C136.93 498.45 136.64 498.34 136.41 498.11ZM138.08 500.15V510.56H136.35V500.15H138.08Z" fill="#424242"/>
<path d="M144.05 500.45C144.61 500.12 145.3 499.96 146.11 499.96V501.75H145.65C143.71 501.75 142.74 502.8 142.74 504.9V510.56H141.01V500.15H142.74V501.84C143.04 501.24 143.48 500.78 144.04 500.45H144.05Z" fill="#424242"/>
<path d="M157.55 506H149.23C149.29 507.03 149.64 507.83 150.28 508.4C150.92 508.98 151.69 509.26 152.61 509.26C153.36 509.26 153.98 509.09 154.48 508.74C154.98 508.39 155.33 507.93 155.53 507.34H157.39C157.11 508.34 156.55 509.15 155.72 509.78C154.89 510.41 153.84 510.72 152.6 510.72C151.61 510.72 150.73 510.5 149.95 510.05C149.17 509.6 148.56 508.98 148.12 508.16C147.67 507.34 147.45 506.4 147.45 505.32C147.45 504.24 147.66 503.3 148.1 502.49C148.53 501.68 149.14 501.06 149.91 500.62C150.69 500.18 151.58 499.96 152.6 499.96C153.62 499.96 154.46 500.18 155.22 500.61C155.98 501.04 156.57 501.63 156.98 502.39C157.39 503.14 157.6 504 157.6 504.94C157.6 505.27 157.58 505.62 157.54 505.99L157.55 506ZM155.39 502.89C155.1 502.41 154.7 502.05 154.2 501.81C153.7 501.56 153.15 501.44 152.54 501.44C151.67 501.44 150.92 501.72 150.31 502.28C149.7 502.84 149.35 503.61 149.26 504.6H155.83C155.83 503.94 155.69 503.37 155.39 502.9V502.89Z" fill="#424242"/>
<path d="M166.85 510.07C166.06 509.63 165.44 509 164.99 508.18C164.54 507.36 164.32 506.42 164.32 505.34C164.32 504.26 164.55 503.34 165.01 502.52C165.47 501.7 166.1 501.08 166.9 500.64C167.7 500.2 168.59 499.98 169.58 499.98C170.57 499.98 171.46 500.2 172.26 500.64C173.06 501.08 173.69 501.7 174.15 502.51C174.61 503.32 174.84 504.26 174.84 505.34C174.84 506.42 174.6 507.36 174.13 508.18C173.66 509 173.01 509.63 172.2 510.07C171.39 510.51 170.49 510.74 169.5 510.74C168.51 510.74 167.64 510.52 166.85 510.07ZM171.25 508.77C171.79 508.48 172.23 508.04 172.57 507.46C172.91 506.88 173.07 506.17 173.07 505.33C173.07 504.49 172.91 503.78 172.58 503.2C172.25 502.62 171.82 502.18 171.29 501.9C170.76 501.61 170.18 501.47 169.56 501.47C168.94 501.47 168.35 501.61 167.82 501.9C167.29 502.19 166.87 502.62 166.56 503.2C166.24 503.78 166.09 504.49 166.09 505.33C166.09 506.17 166.25 506.89 166.56 507.48C166.87 508.06 167.28 508.5 167.8 508.78C168.32 509.06 168.89 509.21 169.51 509.21C170.13 509.21 170.71 509.06 171.26 508.77H171.25Z" fill="#424242"/>
<path d="M185.46 500.58C186.14 500.18 186.93 499.98 187.83 499.98C188.73 499.98 189.59 500.2 190.35 500.65C191.11 501.1 191.7 501.72 192.13 502.52C192.56 503.32 192.78 504.26 192.78 505.32C192.78 506.38 192.56 507.31 192.13 508.13C191.7 508.95 191.11 509.59 190.35 510.05C189.59 510.51 188.76 510.73 187.83 510.73C186.9 510.73 186.16 510.53 185.48 510.13C184.8 509.73 184.29 509.23 183.93 508.64V515.5H182.2V500.15H183.93V502.07C184.27 501.48 184.78 500.98 185.46 500.58ZM190.52 503.26C190.2 502.68 189.78 502.23 189.24 501.93C188.7 501.63 188.11 501.47 187.46 501.47C186.81 501.47 186.24 501.63 185.7 501.94C185.16 502.25 184.73 502.7 184.41 503.29C184.09 503.88 183.93 504.56 183.93 505.33C183.93 506.1 184.09 506.8 184.41 507.39C184.73 507.98 185.16 508.43 185.7 508.74C186.24 509.05 186.82 509.21 187.46 509.21C188.1 509.21 188.7 509.05 189.24 508.74C189.78 508.43 190.2 507.98 190.52 507.39C190.84 506.8 190.99 506.11 190.99 505.31C190.99 504.51 190.83 503.84 190.52 503.26Z" fill="#424242"/>
<path d="M195.04 502.51C195.47 501.71 196.06 501.08 196.82 500.64C197.58 500.2 198.41 499.97 199.34 499.97C200.27 499.97 201.05 500.17 201.72 500.56C202.39 500.95 202.89 501.45 203.22 502.04V500.14H204.97V510.55H203.22V508.61C202.88 509.22 202.37 509.72 201.69 510.12C201.01 510.52 200.22 510.72 199.32 510.72C198.42 510.72 197.56 510.49 196.81 510.04C196.06 509.58 195.47 508.94 195.04 508.12C194.61 507.3 194.39 506.36 194.39 505.31C194.39 504.26 194.6 503.31 195.04 502.51ZM202.74 503.28C202.42 502.7 202 502.25 201.46 501.94C200.92 501.63 200.33 501.47 199.68 501.47C199.03 501.47 198.45 501.62 197.91 501.93C197.38 502.23 196.95 502.68 196.64 503.26C196.33 503.84 196.17 504.53 196.17 505.31C196.17 506.09 196.33 506.8 196.64 507.39C196.96 507.98 197.38 508.43 197.91 508.74C198.44 509.05 199.03 509.21 199.68 509.21C200.33 509.21 200.92 509.05 201.46 508.74C202 508.43 202.42 507.98 202.74 507.39C203.06 506.8 203.21 506.11 203.21 505.33C203.21 504.55 203.05 503.86 202.74 503.28Z" fill="#424242"/>
<path d="M211.14 500.58C211.82 500.18 212.61 499.98 213.51 499.98C214.41 499.98 215.27 500.2 216.03 500.65C216.79 501.1 217.38 501.72 217.81 502.52C218.24 503.32 218.46 504.26 218.46 505.32C218.46 506.38 218.24 507.31 217.81 508.13C217.38 508.95 216.79 509.59 216.03 510.05C215.27 510.51 214.44 510.73 213.51 510.73C212.58 510.73 211.84 510.53 211.16 510.13C210.48 509.73 209.97 509.23 209.61 508.64V515.5H207.88V500.15H209.61V502.07C209.95 501.48 210.46 500.98 211.14 500.58ZM216.21 503.26C215.89 502.68 215.47 502.23 214.93 501.93C214.39 501.63 213.8 501.47 213.15 501.47C212.5 501.47 211.93 501.63 211.39 501.94C210.85 502.25 210.42 502.7 210.1 503.29C209.78 503.88 209.62 504.56 209.62 505.33C209.62 506.1 209.78 506.8 210.1 507.39C210.42 507.98 210.85 508.43 211.39 508.74C211.93 509.05 212.51 509.21 213.15 509.21C213.79 509.21 214.39 509.05 214.93 508.74C215.47 508.43 215.89 507.98 216.21 507.39C216.53 506.8 216.68 506.11 216.68 505.31C216.68 504.51 216.52 503.84 216.21 503.26Z" fill="#424242"/>
<path d="M230.17 506H221.85C221.91 507.03 222.26 507.83 222.9 508.4C223.54 508.98 224.31 509.26 225.23 509.26C225.98 509.26 226.6 509.09 227.1 508.74C227.6 508.39 227.95 507.93 228.15 507.34H230.01C229.73 508.34 229.17 509.15 228.34 509.78C227.51 510.41 226.46 510.72 225.22 510.72C224.23 510.72 223.35 510.5 222.57 510.05C221.79 509.6 221.18 508.98 220.74 508.16C220.29 507.34 220.07 506.4 220.07 505.32C220.07 504.24 220.28 503.3 220.72 502.49C221.15 501.68 221.76 501.06 222.53 500.62C223.31 500.18 224.2 499.96 225.22 499.96C226.24 499.96 227.08 500.18 227.84 500.61C228.6 501.04 229.19 501.63 229.6 502.39C230.01 503.14 230.22 504 230.22 504.94C230.22 505.27 230.2 505.62 230.16 505.99L230.17 506ZM228.01 502.89C227.72 502.41 227.32 502.05 226.82 501.81C226.32 501.56 225.77 501.44 225.16 501.44C224.29 501.44 223.54 501.72 222.93 502.28C222.32 502.84 221.97 503.61 221.88 504.6H228.45C228.45 503.94 228.31 503.37 228.01 502.9V502.89Z" fill="#424242"/>
<path d="M234.24 496.5V510.56H232.51V496.5H234.24Z" fill="#424242"/>
<path d="M251.7 506H243.38C243.44 507.03 243.79 507.83 244.43 508.4C245.07 508.98 245.84 509.26 246.76 509.26C247.51 509.26 248.13 509.09 248.63 508.74C249.13 508.39 249.48 507.93 249.68 507.34H251.54C251.26 508.34 250.7 509.15 249.87 509.78C249.04 510.41 247.99 510.72 246.75 510.72C245.76 510.72 244.88 510.5 244.1 510.05C243.32 509.6 242.71 508.98 242.27 508.16C241.82 507.34 241.6 506.4 241.6 505.32C241.6 504.24 241.81 503.3 242.25 502.49C242.68 501.68 243.29 501.06 244.06 500.62C244.84 500.18 245.73 499.96 246.75 499.96C247.77 499.96 248.61 500.18 249.37 500.61C250.13 501.04 250.72 501.63 251.13 502.39C251.54 503.14 251.75 504 251.75 504.94C251.75 505.27 251.73 505.62 251.69 505.99L251.7 506ZM249.53 502.89C249.24 502.41 248.84 502.05 248.34 501.81C247.84 501.56 247.29 501.44 246.68 501.44C245.81 501.44 245.06 501.72 244.45 502.28C243.84 502.84 243.49 503.61 243.4 504.6H249.97C249.97 503.94 249.83 503.37 249.53 502.9V502.89Z" fill="#424242"/>
<path d="M262.37 500.58C263.05 500.18 263.83 499.98 264.74 499.98C265.65 499.98 266.5 500.2 267.26 500.65C268.02 501.1 268.61 501.72 269.04 502.52C269.47 503.32 269.69 504.26 269.69 505.32C269.69 506.38 269.48 507.31 269.04 508.13C268.61 508.95 268.02 509.59 267.26 510.05C266.5 510.51 265.67 510.73 264.74 510.73C263.81 510.73 263.07 510.53 262.39 510.13C261.71 509.73 261.2 509.23 260.84 508.64V515.5H259.11V500.15H260.84V502.07C261.18 501.48 261.69 500.98 262.37 500.58ZM267.43 503.26C267.11 502.68 266.69 502.23 266.15 501.93C265.61 501.63 265.02 501.47 264.37 501.47C263.72 501.47 263.15 501.63 262.61 501.94C262.07 502.25 261.64 502.7 261.32 503.29C261 503.88 260.84 504.56 260.84 505.33C260.84 506.1 261 506.8 261.32 507.39C261.64 507.98 262.07 508.43 262.61 508.74C263.15 509.05 263.73 509.21 264.37 509.21C265.01 509.21 265.61 509.05 266.15 508.74C266.69 508.43 267.11 507.98 267.43 507.39C267.75 506.8 267.9 506.11 267.9 505.31C267.9 504.51 267.74 503.84 267.43 503.26Z" fill="#424242"/>
<path d="M274.98 500.45C275.54 500.12 276.23 499.96 277.04 499.96V501.75H276.58C274.64 501.75 273.67 502.8 273.67 504.9V510.56H271.94V500.15H273.67V501.84C273.97 501.24 274.41 500.78 274.97 500.45H274.98Z" fill="#424242"/>
<path d="M280.93 510.07C280.14 509.63 279.52 509 279.07 508.18C278.62 507.36 278.4 506.42 278.4 505.34C278.4 504.26 278.63 503.34 279.09 502.52C279.55 501.7 280.18 501.08 280.98 500.64C281.78 500.2 282.67 499.98 283.66 499.98C284.65 499.98 285.54 500.2 286.34 500.64C287.14 501.08 287.77 501.7 288.23 502.51C288.69 503.32 288.92 504.26 288.92 505.34C288.92 506.42 288.68 507.36 288.21 508.18C287.73 509 287.09 509.63 286.28 510.07C285.47 510.51 284.57 510.74 283.58 510.74C282.59 510.74 281.72 510.52 280.93 510.07ZM285.33 508.77C285.87 508.48 286.31 508.04 286.65 507.46C286.99 506.88 287.15 506.17 287.15 505.33C287.15 504.49 286.98 503.78 286.66 503.2C286.33 502.62 285.9 502.18 285.37 501.9C284.84 501.61 284.26 501.47 283.64 501.47C283.02 501.47 282.43 501.61 281.9 501.9C281.37 502.19 280.95 502.62 280.64 503.2C280.32 503.78 280.17 504.49 280.17 505.33C280.17 506.17 280.32 506.89 280.63 507.48C280.94 508.06 281.35 508.5 281.87 508.78C282.39 509.06 282.96 509.21 283.58 509.21C284.2 509.21 284.78 509.06 285.33 508.77Z" fill="#424242"/>
<path d="M299.35 501.11C300.14 501.88 300.53 502.98 300.53 504.43V510.57H298.82V504.68C298.82 503.64 298.56 502.85 298.04 502.3C297.52 501.75 296.81 501.47 295.91 501.47C295.01 501.47 294.27 501.75 293.73 502.32C293.19 502.89 292.92 503.72 292.92 504.81V510.57H291.19V500.16H292.92V501.64C293.26 501.11 293.73 500.7 294.32 500.4C294.91 500.11 295.56 499.96 296.27 499.96C297.54 499.96 298.56 500.34 299.35 501.11Z" fill="#424242"/>
<path d="M305.47 501.57V507.71C305.47 508.22 305.58 508.57 305.79 508.78C306.01 508.99 306.38 509.09 306.91 509.09H308.18V510.55H306.62C305.66 510.55 304.93 510.33 304.45 509.88C303.97 509.44 303.73 508.71 303.73 507.7V501.56H302.38V500.14H303.73V497.52H305.46V500.14H308.18V501.56H305.46L305.47 501.57Z" fill="#424242"/>
<path d="M312.16 510.07C311.37 509.63 310.75 509 310.3 508.18C309.85 507.36 309.63 506.42 309.63 505.34C309.63 504.26 309.86 503.34 310.32 502.52C310.78 501.7 311.41 501.08 312.21 500.64C313.01 500.2 313.9 499.98 314.89 499.98C315.88 499.98 316.77 500.2 317.57 500.64C318.37 501.08 319 501.7 319.46 502.51C319.92 503.32 320.15 504.26 320.15 505.34C320.15 506.42 319.91 507.36 319.44 508.18C318.97 509 318.32 509.63 317.51 510.07C316.7 510.51 315.8 510.74 314.81 510.74C313.82 510.74 312.95 510.52 312.16 510.07ZM316.56 508.77C317.1 508.48 317.54 508.04 317.88 507.46C318.22 506.88 318.38 506.17 318.38 505.33C318.38 504.49 318.22 503.78 317.89 503.2C317.56 502.62 317.13 502.18 316.6 501.9C316.07 501.61 315.49 501.47 314.87 501.47C314.25 501.47 313.66 501.61 313.13 501.9C312.6 502.19 312.18 502.62 311.87 503.2C311.55 503.78 311.4 504.49 311.4 505.33C311.4 506.17 311.56 506.89 311.87 507.48C312.18 508.06 312.59 508.5 313.11 508.78C313.63 509.06 314.2 509.21 314.82 509.21C315.44 509.21 316.02 509.06 316.57 508.77H316.56Z" fill="#424242"/>
<path d="M324.22 508.17L322.09 513.28H320.93L322.32 508.17H324.22Z" fill="#424242"/>
<path d="M331.27 502.51C331.7 501.71 332.29 501.08 333.05 500.64C333.81 500.2 334.64 499.97 335.57 499.97C336.5 499.97 337.28 500.17 337.95 500.56C338.62 500.95 339.12 501.45 339.45 502.04V500.14H341.2V510.55H339.45V508.61C339.11 509.22 338.6 509.72 337.92 510.12C337.24 510.52 336.45 510.72 335.55 510.72C334.65 510.72 333.79 510.49 333.04 510.04C332.29 509.58 331.7 508.94 331.27 508.12C330.84 507.3 330.62 506.36 330.62 505.31C330.62 504.26 330.83 503.31 331.27 502.51ZM338.96 503.28C338.64 502.7 338.22 502.25 337.68 501.94C337.14 501.63 336.55 501.47 335.9 501.47C335.25 501.47 334.67 501.62 334.13 501.93C333.6 502.23 333.17 502.68 332.86 503.26C332.55 503.84 332.39 504.53 332.39 505.31C332.39 506.09 332.55 506.8 332.86 507.39C333.18 507.98 333.6 508.43 334.13 508.74C334.66 509.05 335.25 509.21 335.9 509.21C336.55 509.21 337.14 509.05 337.68 508.74C338.22 508.43 338.64 507.98 338.96 507.39C339.28 506.8 339.43 506.11 339.43 505.33C339.43 504.55 339.27 503.86 338.96 503.28Z" fill="#424242"/>
<path d="M350.77 500.57C351.45 500.96 351.95 501.46 352.28 502.05V500.15H354.03V510.79C354.03 511.74 353.83 512.59 353.42 513.33C353.01 514.07 352.43 514.65 351.68 515.07C350.93 515.49 350.05 515.7 349.05 515.7C347.68 515.7 346.54 515.38 345.63 514.73C344.72 514.08 344.18 513.2 344.01 512.09H345.72C345.91 512.72 346.3 513.23 346.9 513.62C347.5 514.01 348.21 514.2 349.05 514.2C350 514.2 350.78 513.9 351.38 513.31C351.98 512.71 352.28 511.88 352.28 510.8V508.62C351.94 509.23 351.43 509.74 350.76 510.14C350.09 510.55 349.3 510.75 348.4 510.75C347.5 510.75 346.64 510.52 345.88 510.07C345.12 509.62 344.53 508.97 344.1 508.15C343.67 507.33 343.45 506.39 343.45 505.34C343.45 504.29 343.66 503.34 344.1 502.54C344.53 501.74 345.12 501.11 345.88 500.67C346.64 500.23 347.47 500 348.4 500C349.33 500 350.09 500.2 350.77 500.59V500.57ZM351.81 503.28C351.49 502.7 351.07 502.25 350.53 501.94C349.99 501.63 349.4 501.47 348.75 501.47C348.1 501.47 347.52 501.62 346.98 501.93C346.45 502.23 346.02 502.68 345.71 503.26C345.4 503.84 345.24 504.53 345.24 505.31C345.24 506.09 345.4 506.8 345.71 507.39C346.03 507.98 346.45 508.43 346.98 508.74C347.51 509.05 348.1 509.21 348.75 509.21C349.4 509.21 349.99 509.05 350.53 508.74C351.07 508.43 351.49 507.98 351.81 507.39C352.13 506.8 352.28 506.11 352.28 505.33C352.28 504.55 352.12 503.86 351.81 503.28Z" fill="#424242"/>
<path d="M358.85 510.07C358.06 509.63 357.44 509 356.99 508.18C356.54 507.36 356.32 506.42 356.32 505.34C356.32 504.26 356.55 503.34 357.01 502.52C357.47 501.7 358.1 501.08 358.9 500.64C359.7 500.2 360.59 499.98 361.58 499.98C362.57 499.98 363.46 500.2 364.26 500.64C365.06 501.08 365.69 501.7 366.15 502.51C366.61 503.32 366.84 504.26 366.84 505.34C366.84 506.42 366.6 507.36 366.13 508.18C365.66 509 365.01 509.63 364.2 510.07C363.39 510.51 362.49 510.74 361.5 510.74C360.51 510.74 359.64 510.52 358.85 510.07ZM363.25 508.77C363.79 508.48 364.23 508.04 364.57 507.46C364.91 506.88 365.07 506.17 365.07 505.33C365.07 504.49 364.91 503.78 364.58 503.2C364.25 502.62 363.82 502.18 363.29 501.9C362.76 501.61 362.18 501.47 361.56 501.47C360.94 501.47 360.35 501.61 359.82 501.9C359.29 502.19 358.87 502.62 358.56 503.2C358.24 503.78 358.09 504.49 358.09 505.33C358.09 506.17 358.25 506.89 358.56 507.48C358.87 508.06 359.28 508.5 359.8 508.78C360.32 509.06 360.89 509.21 361.51 509.21C362.13 509.21 362.71 509.06 363.26 508.77H363.25Z" fill="#424242"/>
<path d="M372.15 500.45C372.71 500.12 373.4 499.96 374.21 499.96V501.75H373.75C371.81 501.75 370.84 502.8 370.84 504.9V510.56H369.11V500.15H370.84V501.84C371.14 501.24 371.58 500.78 372.14 500.45H372.15Z" fill="#424242"/>
<path d="M376.2 502.51C376.63 501.71 377.22 501.08 377.98 500.64C378.74 500.2 379.57 499.97 380.5 499.97C381.43 499.97 382.2 500.17 382.88 500.56C383.56 500.95 384.05 501.45 384.38 502.04V500.14H386.13V510.55H384.38V508.61C384.04 509.22 383.53 509.72 382.85 510.12C382.17 510.52 381.39 510.72 380.48 510.72C379.57 510.72 378.72 510.49 377.97 510.04C377.22 509.59 376.63 508.94 376.2 508.12C375.77 507.3 375.56 506.36 375.56 505.31C375.56 504.26 375.77 503.31 376.2 502.51ZM383.9 503.28C383.58 502.7 383.16 502.25 382.62 501.94C382.08 501.63 381.49 501.47 380.84 501.47C380.19 501.47 379.61 501.62 379.07 501.93C378.54 502.23 378.11 502.68 377.8 503.26C377.49 503.84 377.33 504.53 377.33 505.31C377.33 506.09 377.49 506.8 377.8 507.39C378.12 507.98 378.54 508.43 379.07 508.74C379.6 509.05 380.19 509.21 380.84 509.21C381.49 509.21 382.08 509.05 382.62 508.74C383.16 508.43 383.58 507.98 383.9 507.39C384.22 506.8 384.37 506.11 384.37 505.33C384.37 504.55 384.21 503.86 383.9 503.28Z" fill="#424242"/>
<path d="M403.56 506H395.24C395.3 507.03 395.65 507.83 396.29 508.4C396.93 508.98 397.7 509.26 398.62 509.26C399.37 509.26 399.99 509.09 400.49 508.74C400.99 508.39 401.34 507.93 401.54 507.34H403.4C403.12 508.34 402.56 509.15 401.73 509.78C400.9 510.41 399.85 510.72 398.61 510.72C397.62 510.72 396.74 510.5 395.96 510.05C395.18 509.6 394.57 508.98 394.13 508.16C393.68 507.34 393.46 506.4 393.46 505.32C393.46 504.24 393.67 503.3 394.11 502.49C394.54 501.68 395.15 501.06 395.92 500.62C396.7 500.18 397.59 499.96 398.61 499.96C399.63 499.96 400.47 500.18 401.23 500.61C401.99 501.04 402.58 501.63 402.99 502.39C403.4 503.14 403.61 504 403.61 504.94C403.61 505.27 403.59 505.62 403.55 505.99L403.56 506ZM401.4 502.89C401.11 502.41 400.71 502.05 400.21 501.81C399.71 501.56 399.16 501.44 398.55 501.44C397.68 501.44 396.93 501.72 396.32 502.28C395.71 502.84 395.36 503.61 395.27 504.6H401.84C401.84 503.94 401.7 503.37 401.4 502.9V502.89ZM400.41 497.2L396.36 499.37V498.08L400.41 495.7V497.2Z" fill="#424242"/>
<path d="M412.51 510.32C411.88 510.05 411.38 509.67 411.01 509.18C410.64 508.69 410.44 508.13 410.4 507.5H412.19C412.24 508.02 412.48 508.44 412.92 508.77C413.36 509.1 413.93 509.26 414.64 509.26C415.3 509.26 415.82 509.11 416.2 508.82C416.58 508.53 416.77 508.16 416.77 507.72C416.77 507.28 416.57 506.93 416.16 506.7C415.75 506.47 415.13 506.26 414.28 506.04C413.51 505.84 412.88 505.63 412.39 505.42C411.9 505.21 411.48 504.9 411.14 504.49C410.79 504.08 410.62 503.54 410.62 502.87C410.62 502.34 410.78 501.85 411.1 501.41C411.42 500.97 411.87 500.62 412.45 500.36C413.03 500.1 413.7 499.97 414.45 499.97C415.6 499.97 416.53 500.26 417.24 500.84C417.95 501.42 418.33 502.22 418.38 503.23H416.65C416.61 502.69 416.39 502.25 416 501.92C415.6 501.59 415.06 501.43 414.39 501.43C413.77 501.43 413.27 501.56 412.91 501.83C412.54 502.1 412.36 502.44 412.36 502.87C412.36 503.21 412.47 503.49 412.69 503.72C412.91 503.94 413.19 504.12 413.53 504.25C413.87 504.38 414.33 504.53 414.93 504.7C415.68 504.9 416.29 505.1 416.75 505.3C417.22 505.5 417.62 505.79 417.96 506.18C418.29 506.57 418.47 507.09 418.48 507.72C418.48 508.29 418.32 508.8 418.01 509.26C417.7 509.72 417.25 510.07 416.67 510.33C416.09 510.59 415.43 510.72 414.69 510.72C413.89 510.72 413.17 510.58 412.54 510.31L412.51 510.32Z" fill="#424242"/>
<path d="M422.78 510.07C421.99 509.63 421.37 509 420.92 508.18C420.47 507.36 420.25 506.42 420.25 505.34C420.25 504.26 420.48 503.34 420.94 502.52C421.4 501.7 422.03 501.08 422.83 500.64C423.63 500.2 424.52 499.98 425.51 499.98C426.5 499.98 427.39 500.2 428.19 500.64C428.99 501.08 429.62 501.7 430.08 502.51C430.54 503.32 430.77 504.26 430.77 505.34C430.77 506.42 430.53 507.36 430.06 508.18C429.59 509 428.94 509.63 428.13 510.07C427.32 510.51 426.42 510.74 425.43 510.74C424.44 510.74 423.57 510.52 422.78 510.07ZM427.18 508.77C427.72 508.48 428.16 508.04 428.5 507.46C428.84 506.88 429 506.17 429 505.33C429 504.49 428.84 503.78 428.51 503.2C428.18 502.62 427.75 502.18 427.22 501.9C426.69 501.61 426.11 501.47 425.49 501.47C424.87 501.47 424.28 501.61 423.75 501.9C423.22 502.19 422.8 502.62 422.49 503.2C422.17 503.78 422.02 504.49 422.02 505.33C422.02 506.17 422.18 506.89 422.49 507.48C422.8 508.06 423.21 508.5 423.73 508.78C424.25 509.06 424.82 509.21 425.44 509.21C426.06 509.21 426.64 509.06 427.19 508.77H427.18ZM427.37 497.07L423.32 499.24V497.95L427.37 495.57V497.07Z" fill="#424242"/>
<path d="M441.38 500.58C442.06 500.18 442.85 499.98 443.75 499.98C444.65 499.98 445.51 500.2 446.27 500.65C447.03 501.1 447.62 501.72 448.05 502.52C448.48 503.32 448.7 504.26 448.7 505.32C448.7 506.38 448.48 507.31 448.05 508.13C447.62 508.95 447.03 509.59 446.27 510.05C445.51 510.51 444.68 510.73 443.75 510.73C442.82 510.73 442.08 510.53 441.4 510.13C440.72 509.73 440.21 509.23 439.85 508.64V515.5H438.12V500.15H439.85V502.07C440.19 501.48 440.7 500.98 441.38 500.58ZM446.45 503.26C446.13 502.68 445.71 502.23 445.17 501.93C444.63 501.63 444.04 501.47 443.39 501.47C442.74 501.47 442.17 501.63 441.63 501.94C441.09 502.25 440.66 502.7 440.34 503.29C440.02 503.88 439.86 504.56 439.86 505.33C439.86 506.1 440.02 506.8 440.34 507.39C440.66 507.98 441.09 508.43 441.63 508.74C442.17 509.05 442.75 509.21 443.39 509.21C444.03 509.21 444.63 509.05 445.17 508.74C445.71 508.43 446.13 507.98 446.45 507.39C446.77 506.8 446.92 506.11 446.92 505.31C446.92 504.51 446.76 503.84 446.45 503.26Z" fill="#424242"/>
<path d="M451.03 498.11C450.8 497.88 450.69 497.6 450.69 497.27C450.69 496.94 450.8 496.66 451.03 496.43C451.26 496.2 451.54 496.09 451.87 496.09C452.2 496.09 452.46 496.2 452.68 496.43C452.9 496.66 453.01 496.94 453.01 497.27C453.01 497.6 452.9 497.88 452.68 498.11C452.46 498.34 452.19 498.45 451.87 498.45C451.55 498.45 451.26 498.34 451.03 498.11ZM452.7 500.15V510.56H450.97V500.15H452.7Z" fill="#424242"/>
<path d="M463.79 501.11C464.58 501.88 464.97 502.98 464.97 504.43V510.57H463.26V504.68C463.26 503.64 463 502.85 462.48 502.3C461.96 501.75 461.25 501.47 460.35 501.47C459.45 501.47 458.71 501.75 458.17 502.32C457.63 502.89 457.36 503.72 457.36 504.81V510.57H455.63V500.16H457.36V501.64C457.7 501.11 458.17 500.7 458.76 500.4C459.35 500.11 460 499.96 460.71 499.96C461.98 499.96 463 500.34 463.79 501.11Z" fill="#424242"/>
<path d="M469.91 501.57V507.71C469.91 508.22 470.02 508.57 470.23 508.78C470.44 508.99 470.82 509.09 471.35 509.09H472.62V510.55H471.06C470.1 510.55 469.37 510.33 468.89 509.88C468.41 509.44 468.17 508.71 468.17 507.7V501.56H466.82V500.14H468.17V497.52H469.9V500.14H472.62V501.56H469.9L469.91 501.57Z" fill="#424242"/>
<path d="M474.72 502.51C475.15 501.71 475.74 501.08 476.5 500.64C477.26 500.2 478.09 499.97 479.02 499.97C479.95 499.97 480.73 500.17 481.4 500.56C482.07 500.95 482.57 501.45 482.9 502.04V500.14H484.65V510.55H482.9V508.61C482.56 509.22 482.05 509.72 481.37 510.12C480.69 510.52 479.9 510.72 479 510.72C478.1 510.72 477.24 510.49 476.49 510.04C475.74 509.58 475.15 508.94 474.72 508.12C474.29 507.3 474.07 506.36 474.07 505.31C474.07 504.26 474.28 503.31 474.72 502.51ZM482.41 503.28C482.09 502.7 481.67 502.25 481.13 501.94C480.59 501.63 480 501.47 479.35 501.47C478.7 501.47 478.12 501.62 477.58 501.93C477.05 502.23 476.62 502.68 476.31 503.26C476 503.84 475.84 504.53 475.84 505.31C475.84 506.09 476 506.8 476.31 507.39C476.63 507.98 477.05 508.43 477.58 508.74C478.11 509.05 478.7 509.21 479.35 509.21C480 509.21 480.59 509.05 481.13 508.74C481.67 508.43 482.09 507.98 482.41 507.39C482.73 506.8 482.88 506.11 482.88 505.33C482.88 504.55 482.72 503.86 482.41 503.28Z" fill="#424242"/>
<path d="M490.59 500.45C491.15 500.12 491.84 499.96 492.65 499.96V501.75H492.19C490.25 501.75 489.28 502.8 489.28 504.9V510.56H487.55V500.15H489.28V501.84C489.58 501.24 490.02 500.78 490.58 500.45H490.59Z" fill="#424242"/>
<path d="M202.23 532.87C201.44 532.43 200.82 531.8 200.37 530.98C199.92 530.16 199.7 529.22 199.7 528.14C199.7 527.06 199.93 526.14 200.39 525.32C200.85 524.5 201.48 523.88 202.28 523.44C203.08 523 203.97 522.78 204.96 522.78C205.95 522.78 206.84 523 207.64 523.44C208.44 523.88 209.07 524.5 209.53 525.31C209.99 526.12 210.22 527.06 210.22 528.14C210.22 529.22 209.98 530.16 209.51 530.98C209.03 531.8 208.39 532.43 207.58 532.87C206.77 533.31 205.87 533.54 204.88 533.54C203.89 533.54 203.02 533.32 202.23 532.87ZM206.63 531.57C207.17 531.28 207.61 530.84 207.95 530.26C208.29 529.68 208.45 528.97 208.45 528.13C208.45 527.29 208.28 526.58 207.96 526C207.63 525.42 207.2 524.98 206.67 524.7C206.14 524.41 205.56 524.27 204.94 524.27C204.32 524.27 203.73 524.41 203.2 524.7C202.67 524.99 202.25 525.42 201.94 526C201.62 526.58 201.47 527.29 201.47 528.13C201.47 528.97 201.62 529.69 201.93 530.28C202.24 530.86 202.65 531.3 203.17 531.58C203.69 531.86 204.26 532.01 204.88 532.01C205.5 532.01 206.08 531.86 206.63 531.57Z" fill="#424242"/>
<path d="M214.04 533.12C213.41 532.85 212.91 532.47 212.54 531.98C212.17 531.49 211.97 530.93 211.93 530.3H213.72C213.77 530.82 214.01 531.24 214.45 531.57C214.89 531.9 215.46 532.06 216.17 532.06C216.83 532.06 217.35 531.91 217.73 531.62C218.11 531.33 218.3 530.96 218.3 530.52C218.3 530.08 218.1 529.73 217.69 529.5C217.28 529.28 216.66 529.06 215.81 528.84C215.04 528.64 214.41 528.43 213.92 528.22C213.43 528.01 213.01 527.7 212.66 527.29C212.31 526.88 212.14 526.34 212.14 525.67C212.14 525.14 212.3 524.65 212.61 524.21C212.92 523.77 213.38 523.42 213.96 523.16C214.54 522.9 215.21 522.77 215.95 522.77C217.1 522.77 218.03 523.06 218.74 523.64C219.45 524.22 219.83 525.02 219.88 526.03H218.15C218.11 525.49 217.89 525.05 217.49 524.72C217.09 524.39 216.56 524.23 215.88 524.23C215.26 524.23 214.76 524.36 214.4 524.63C214.03 524.9 213.85 525.24 213.85 525.67C213.85 526.01 213.96 526.29 214.18 526.52C214.4 526.74 214.68 526.92 215.02 527.05C215.36 527.18 215.82 527.33 216.42 527.5C217.17 527.7 217.77 527.9 218.24 528.1C218.71 528.3 219.11 528.59 219.45 528.98C219.79 529.37 219.96 529.89 219.97 530.52C219.97 531.09 219.81 531.6 219.49 532.06C219.17 532.52 218.73 532.87 218.15 533.13C217.57 533.39 216.91 533.52 216.16 533.52C215.36 533.52 214.65 533.38 214.01 533.11L214.04 533.12Z" fill="#424242"/>
<path d="M229.38 532.87C228.59 532.43 227.97 531.8 227.52 530.98C227.07 530.16 226.85 529.22 226.85 528.14C226.85 527.06 227.08 526.14 227.54 525.32C228 524.5 228.63 523.88 229.43 523.44C230.23 523 231.12 522.78 232.11 522.78C233.1 522.78 233.99 523 234.79 523.44C235.59 523.88 236.22 524.5 236.68 525.31C237.14 526.12 237.37 527.06 237.37 528.14C237.37 529.22 237.13 530.16 236.66 530.98C236.18 531.8 235.54 532.43 234.73 532.87C233.92 533.31 233.02 533.54 232.03 533.54C231.04 533.54 230.17 533.32 229.38 532.87ZM233.78 531.57C234.32 531.28 234.76 530.84 235.1 530.26C235.44 529.68 235.6 528.97 235.6 528.13C235.6 527.29 235.43 526.58 235.11 526C234.78 525.42 234.35 524.98 233.82 524.7C233.29 524.41 232.71 524.27 232.09 524.27C231.47 524.27 230.88 524.41 230.35 524.7C229.82 524.99 229.4 525.42 229.09 526C228.77 526.58 228.62 527.29 228.62 528.13C228.62 528.97 228.77 529.69 229.08 530.28C229.39 530.86 229.8 531.3 230.32 531.58C230.84 531.86 231.41 532.01 232.03 532.01C232.65 532.01 233.23 531.86 233.78 531.57Z" fill="#424242"/>
<path d="M241.38 519.3V533.36H239.65V519.3H241.38Z" fill="#424242"/>
<path d="M251.62 523.26C252.25 523.6 252.75 524.1 253.11 524.77C253.47 525.44 253.65 526.26 253.65 527.22V533.36H251.94V527.47C251.94 526.43 251.68 525.64 251.16 525.09C250.64 524.54 249.93 524.26 249.03 524.26C248.13 524.26 247.39 524.54 246.85 525.11C246.31 525.68 246.04 526.51 246.04 527.6V533.36H244.31V519.3H246.04V524.43C246.38 523.9 246.85 523.49 247.46 523.19C248.06 522.9 248.74 522.75 249.48 522.75C250.27 522.75 250.97 522.92 251.61 523.25L251.62 523.26Z" fill="#424242"/>
<path d="M256.54 520.91C256.31 520.68 256.2 520.4 256.2 520.07C256.2 519.74 256.31 519.46 256.54 519.23C256.77 519 257.05 518.89 257.38 518.89C257.71 518.89 257.97 519 258.19 519.23C258.41 519.46 258.52 519.74 258.52 520.07C258.52 520.4 258.41 520.68 258.19 520.91C257.97 521.14 257.7 521.25 257.38 521.25C257.06 521.25 256.77 521.14 256.54 520.91ZM258.21 522.95V533.36H256.48V522.95H258.21Z" fill="#424242"/>
<path d="M269.31 523.91C270.1 524.68 270.49 525.78 270.49 527.23V533.37H268.78V527.48C268.78 526.44 268.52 525.65 268 525.1C267.48 524.55 266.77 524.27 265.87 524.27C264.97 524.27 264.23 524.55 263.69 525.12C263.15 525.69 262.88 526.52 262.88 527.61V533.37H261.15V522.96H262.88V524.44C263.22 523.91 263.69 523.5 264.28 523.2C264.87 522.91 265.52 522.76 266.23 522.76C267.5 522.76 268.52 523.14 269.31 523.91Z" fill="#424242"/>
<path d="M280.62 523.26C281.25 523.6 281.75 524.1 282.11 524.77C282.47 525.44 282.65 526.26 282.65 527.22V533.36H280.94V527.47C280.94 526.43 280.68 525.64 280.16 525.09C279.64 524.54 278.93 524.26 278.03 524.26C277.13 524.26 276.39 524.54 275.85 525.11C275.31 525.68 275.04 526.51 275.04 527.6V533.36H273.31V519.3H275.04V524.43C275.38 523.9 275.85 523.49 276.46 523.19C277.06 522.9 277.74 522.75 278.48 522.75C279.27 522.75 279.97 522.92 280.61 523.25L280.62 523.26Z" fill="#424242"/>
<path d="M287.37 532.87C286.58 532.43 285.96 531.8 285.51 530.98C285.06 530.16 284.84 529.22 284.84 528.14C284.84 527.06 285.07 526.14 285.53 525.32C285.99 524.5 286.62 523.88 287.42 523.44C288.22 523 289.11 522.78 290.1 522.78C291.09 522.78 291.98 523 292.78 523.44C293.58 523.88 294.21 524.5 294.67 525.31C295.13 526.12 295.36 527.06 295.36 528.14C295.36 529.22 295.12 530.16 294.65 530.98C294.17 531.8 293.53 532.43 292.72 532.87C291.91 533.31 291.01 533.54 290.02 533.54C289.03 533.54 288.16 533.32 287.37 532.87ZM291.77 531.57C292.31 531.28 292.75 530.84 293.09 530.26C293.43 529.68 293.59 528.97 293.59 528.13C293.59 527.29 293.42 526.58 293.1 526C292.77 525.42 292.34 524.98 291.81 524.7C291.28 524.41 290.7 524.27 290.08 524.27C289.46 524.27 288.87 524.41 288.34 524.7C287.81 524.99 287.39 525.42 287.08 526C286.76 526.58 286.61 527.29 286.61 528.13C286.61 528.97 286.76 529.69 287.07 530.28C287.38 530.86 287.79 531.3 288.31 531.58C288.83 531.86 289.4 532.01 290.02 532.01C290.64 532.01 291.22 531.86 291.77 531.57Z" fill="#424242"/>
<path d="M299.18 533.12C298.55 532.85 298.05 532.47 297.68 531.98C297.31 531.49 297.11 530.93 297.07 530.3H298.86C298.91 530.82 299.15 531.24 299.59 531.57C300.03 531.9 300.6 532.06 301.31 532.06C301.97 532.06 302.49 531.91 302.87 531.62C303.25 531.33 303.44 530.96 303.44 530.52C303.44 530.08 303.24 529.73 302.83 529.5C302.42 529.27 301.8 529.06 300.95 528.84C300.18 528.64 299.55 528.43 299.06 528.22C298.57 528.01 298.15 527.7 297.81 527.29C297.46 526.88 297.29 526.34 297.29 525.67C297.29 525.14 297.45 524.65 297.77 524.21C298.09 523.77 298.54 523.42 299.12 523.16C299.7 522.9 300.37 522.77 301.12 522.77C302.27 522.77 303.2 523.06 303.91 523.64C304.62 524.22 305 525.02 305.05 526.03H303.32C303.28 525.49 303.06 525.05 302.67 524.72C302.27 524.39 301.73 524.23 301.06 524.23C300.44 524.23 299.94 524.36 299.58 524.63C299.21 524.9 299.03 525.24 299.03 525.67C299.03 526.01 299.14 526.29 299.36 526.52C299.58 526.74 299.86 526.92 300.2 527.05C300.54 527.18 301 527.33 301.6 527.5C302.35 527.7 302.96 527.9 303.42 528.1C303.89 528.3 304.29 528.59 304.63 528.98C304.96 529.37 305.14 529.89 305.15 530.52C305.15 531.09 304.99 531.6 304.68 532.06C304.37 532.52 303.92 532.87 303.34 533.13C302.76 533.39 302.1 533.52 301.36 533.52C300.56 533.52 299.84 533.38 299.21 533.11L299.18 533.12Z" fill="#424242"/>
<path d="M322.07 528.8H313.75C313.81 529.83 314.16 530.63 314.8 531.2C315.44 531.78 316.21 532.06 317.13 532.06C317.88 532.06 318.5 531.89 319 531.54C319.5 531.19 319.85 530.73 320.05 530.14H321.91C321.63 531.14 321.07 531.95 320.24 532.58C319.41 533.21 318.36 533.52 317.12 533.52C316.13 533.52 315.25 533.3 314.47 532.85C313.69 532.4 313.08 531.78 312.64 530.96C312.19 530.14 311.97 529.2 311.97 528.12C311.97 527.04 312.18 526.1 312.62 525.29C313.05 524.48 313.66 523.86 314.43 523.42C315.21 522.98 316.1 522.76 317.12 522.76C318.14 522.76 318.98 522.98 319.74 523.41C320.5 523.84 321.09 524.43 321.5 525.19C321.91 525.94 322.12 526.8 322.12 527.74C322.12 528.07 322.1 528.42 322.06 528.79L322.07 528.8ZM319.91 525.69C319.62 525.21 319.22 524.85 318.72 524.61C318.22 524.36 317.67 524.24 317.06 524.24C316.19 524.24 315.44 524.52 314.83 525.08C314.22 525.64 313.87 526.41 313.78 527.4H320.35C320.35 526.74 320.21 526.17 319.91 525.7V525.69Z" fill="#424242"/>
<path d="M331.37 532.87C330.58 532.43 329.96 531.8 329.51 530.98C329.06 530.16 328.84 529.22 328.84 528.14C328.84 527.06 329.07 526.14 329.53 525.32C329.99 524.5 330.62 523.88 331.42 523.44C332.22 523 333.11 522.78 334.1 522.78C335.09 522.78 335.98 523 336.78 523.44C337.58 523.88 338.21 524.5 338.67 525.31C339.13 526.12 339.36 527.06 339.36 528.14C339.36 529.22 339.12 530.16 338.65 530.98C338.18 531.8 337.53 532.43 336.72 532.87C335.91 533.31 335.01 533.54 334.02 533.54C333.03 533.54 332.16 533.32 331.37 532.87ZM335.77 531.57C336.31 531.28 336.75 530.84 337.09 530.26C337.43 529.68 337.59 528.97 337.59 528.13C337.59 527.29 337.43 526.58 337.1 526C336.77 525.42 336.34 524.98 335.81 524.7C335.28 524.41 334.7 524.27 334.08 524.27C333.46 524.27 332.87 524.41 332.34 524.7C331.81 524.99 331.39 525.42 331.08 526C330.76 526.58 330.61 527.29 330.61 528.13C330.61 528.97 330.77 529.69 331.08 530.28C331.39 530.86 331.8 531.3 332.32 531.58C332.84 531.86 333.41 532.01 334.03 532.01C334.65 532.01 335.23 531.86 335.78 531.57H335.77Z" fill="#424242"/>
<path d="M350.95 524.37H348.76V533.36H347.03V524.37H345.68V522.95H347.03V522.21C347.03 521.04 347.33 520.19 347.93 519.65C348.53 519.11 349.5 518.84 350.83 518.84V520.28C350.07 520.28 349.54 520.43 349.22 520.73C348.91 521.03 348.75 521.52 348.75 522.2V522.94H350.94V524.36L350.95 524.37Z" fill="#424242"/>
<path d="M354.86 532.87C354.07 532.43 353.45 531.8 353 530.98C352.55 530.16 352.33 529.22 352.33 528.14C352.33 527.06 352.56 526.14 353.02 525.32C353.48 524.5 354.11 523.88 354.91 523.44C355.71 523 356.6 522.78 357.59 522.78C358.58 522.78 359.47 523 360.27 523.44C361.07 523.88 361.7 524.5 362.16 525.31C362.62 526.12 362.85 527.06 362.85 528.14C362.85 529.22 362.61 530.16 362.14 530.98C361.67 531.8 361.02 532.43 360.21 532.87C359.4 533.31 358.5 533.54 357.51 533.54C356.52 533.54 355.65 533.32 354.86 532.87ZM359.26 531.57C359.8 531.28 360.24 530.84 360.58 530.26C360.92 529.68 361.08 528.97 361.08 528.13C361.08 527.29 360.92 526.58 360.59 526C360.26 525.42 359.83 524.98 359.3 524.7C358.77 524.41 358.19 524.27 357.57 524.27C356.95 524.27 356.36 524.41 355.83 524.7C355.3 524.99 354.88 525.42 354.57 526C354.25 526.58 354.1 527.29 354.1 528.13C354.1 528.97 354.26 529.69 354.57 530.28C354.88 530.86 355.29 531.3 355.81 531.58C356.33 531.86 356.9 532.01 357.52 532.01C358.14 532.01 358.72 531.86 359.27 531.57H359.26Z" fill="#424242"/>
<path d="M365.13 525.31C365.56 524.51 366.16 523.88 366.92 523.44C367.68 523 368.56 522.77 369.55 522.77C370.83 522.77 371.88 523.08 372.71 523.7C373.54 524.32 374.09 525.18 374.35 526.28H372.49C372.31 525.65 371.97 525.15 371.45 524.78C370.94 524.41 370.3 524.23 369.54 524.23C368.55 524.23 367.75 524.57 367.15 525.25C366.54 525.93 366.24 526.89 366.24 528.13C366.24 529.37 366.54 530.35 367.15 531.04C367.76 531.72 368.56 532.07 369.54 532.07C370.3 532.07 370.93 531.89 371.44 531.54C371.95 531.19 372.3 530.68 372.48 530.02H374.34C374.06 531.08 373.5 531.94 372.67 532.58C371.84 533.22 370.79 533.54 369.53 533.54C368.54 533.54 367.66 533.32 366.9 532.87C366.14 532.42 365.53 531.8 365.11 530.99C364.68 530.18 364.46 529.23 364.46 528.14C364.46 527.05 364.67 526.12 365.11 525.32L365.13 525.31Z" fill="#424242"/>
<path d="M376.72 520.91C376.49 520.68 376.38 520.4 376.38 520.07C376.38 519.74 376.49 519.46 376.72 519.23C376.95 519 377.23 518.89 377.56 518.89C377.89 518.89 378.15 519 378.37 519.23C378.59 519.46 378.7 519.74 378.7 520.07C378.7 520.4 378.59 520.68 378.37 520.91C378.15 521.14 377.88 521.25 377.56 521.25C377.24 521.25 376.95 521.14 376.72 520.91ZM378.39 522.95V533.36H376.66V522.95H378.39Z" fill="#424242"/>
<path d="M389.48 523.91C390.27 524.68 390.66 525.78 390.66 527.23V533.37H388.95V527.48C388.95 526.44 388.69 525.65 388.17 525.1C387.65 524.55 386.94 524.27 386.04 524.27C385.14 524.27 384.4 524.55 383.86 525.12C383.32 525.69 383.05 526.52 383.05 527.61V533.37H381.32V522.96H383.05V524.44C383.39 523.91 383.86 523.5 384.45 523.2C385.04 522.91 385.69 522.76 386.4 522.76C387.67 522.76 388.69 523.14 389.48 523.91Z" fill="#424242"/>
<path d="M400.79 523.26C401.42 523.6 401.92 524.1 402.28 524.77C402.64 525.44 402.82 526.26 402.82 527.22V533.36H401.11V527.47C401.11 526.43 400.85 525.64 400.33 525.09C399.81 524.54 399.1 524.26 398.2 524.26C397.3 524.26 396.56 524.54 396.02 525.11C395.48 525.68 395.21 526.51 395.21 527.6V533.36H393.48V519.3H395.21V524.43C395.55 523.9 396.02 523.49 396.63 523.19C397.23 522.9 397.91 522.75 398.65 522.75C399.44 522.75 400.14 522.92 400.78 523.25L400.79 523.26Z" fill="#424242"/>
<path d="M407.54 532.87C406.75 532.43 406.13 531.8 405.68 530.98C405.23 530.16 405.01 529.22 405.01 528.14C405.01 527.06 405.24 526.14 405.7 525.32C406.16 524.5 406.79 523.88 407.59 523.44C408.39 523 409.28 522.78 410.27 522.78C411.26 522.78 412.15 523 412.95 523.44C413.75 523.88 414.38 524.5 414.84 525.31C415.3 526.12 415.53 527.06 415.53 528.14C415.53 529.22 415.29 530.16 414.82 530.98C414.34 531.8 413.7 532.43 412.89 532.87C412.08 533.31 411.18 533.54 410.19 533.54C409.2 533.54 408.33 533.32 407.54 532.87ZM411.94 531.57C412.48 531.28 412.92 530.84 413.26 530.26C413.6 529.68 413.76 528.97 413.76 528.13C413.76 527.29 413.59 526.58 413.27 526C412.94 525.42 412.51 524.98 411.98 524.7C411.45 524.41 410.87 524.27 410.25 524.27C409.63 524.27 409.04 524.41 408.51 524.7C407.98 524.99 407.56 525.42 407.25 526C406.93 526.58 406.78 527.29 406.78 528.13C406.78 528.97 406.93 529.69 407.24 530.28C407.55 530.86 407.96 531.3 408.48 531.58C409 531.86 409.57 532.01 410.19 532.01C410.81 532.01 411.39 531.86 411.94 531.57Z" fill="#424242"/>
<path d="M137.62 306.82L226.48 215.81H385.02L474.01 306.82V353.65L385.02 436.7H226.48L137.62 364.5V306.82Z" fill="#CCCCCC"/>
<path d="M384.14 216.05L474.5 306.77L472.5 237.25L447.76 136.27L384.14 216.05Z" fill="white" stroke="#E0E0E0" stroke-miterlimit="10"/>
<path d="M226.5 215.77L138.5 306.77L134.09 235.25L158.83 134.27L226.5 215.77Z" fill="#CCCCCC"/>
<path d="M139.62 297.82L228.48 206.81H387.02L476.01 297.82V344.65L387.02 427.7H228.48L139.62 355.5V297.82Z" fill="white" stroke="#E0E0E0" stroke-miterlimit="10"/>
<path d="M386.14 207.05L476.5 297.77L474.5 228.25L449.76 127.27L386.14 207.05Z" fill="#EFEFEF" stroke="#E0E0E0" stroke-miterlimit="10"/>
<path d="M228.5 206.77L140.5 297.77L136.09 226.25L160.83 125.27L228.5 206.77Z" fill="#EFEFEF" stroke="#E0E0E0" stroke-miterlimit="10"/>
</svg>
