<svg width="597" height="578" viewBox="0 0 597 578" fill="none" xmlns="http://www.w3.org/2000/svg">
<path d="M550.02 58.95H66.4401C40.9964 58.95 20.3701 79.5763 20.3701 105.02V531.2C20.3701 556.644 40.9964 577.27 66.4401 577.27H550.02C575.464 577.27 596.09 556.644 596.09 531.2V105.02C596.09 79.5763 575.464 58.95 550.02 58.95Z" fill="#D3D3D3"/>
<path d="M545.6 49.27H62.0202C36.5764 49.27 15.9502 69.8963 15.9502 95.34V521.52C15.9502 546.964 36.5764 567.59 62.0202 567.59H545.6C571.044 567.59 591.67 546.964 591.67 521.52V95.34C591.67 69.8963 571.044 49.27 545.6 49.27Z" fill="#8BA1CC"/>
<path d="M43.7302 89.27C66.7605 89.27 85.4302 70.5689 85.4302 47.5C85.4302 24.4311 66.7605 5.72998 43.7302 5.72998C20.7 5.72998 2.03027 24.4311 2.03027 47.5C2.03027 70.5689 20.7 89.27 43.7302 89.27Z" fill="#CCA98B" stroke="#F2F2F2"/>
<path d="M43.6902 85.67C66.7205 85.67 85.3903 66.9689 85.3903 43.9C85.3903 20.8311 66.7205 2.13 43.6902 2.13C20.66 2.13 1.99023 20.8311 1.99023 43.9C1.99023 66.9689 20.66 85.67 43.6902 85.67Z" fill="white" stroke="#F2F2F2" stroke-width="3"/>
<path d="M37.0001 33.97C36.4501 33.47 35.68 33.21 34.67 33.21C33.11 33.21 32.0001 33.88 31.3101 35.24C30.6301 36.59 30.2701 38.73 30.2501 41.65C30.8501 40.69 31.72 39.94 32.85 39.4C33.98 38.85 35.2301 38.58 36.5901 38.58C39.2601 38.58 41.41 39.43 43.04 41.12C44.66 42.81 45.47 45.17 45.47 48.2C45.47 50.19 45.0701 51.94 44.2601 53.44C43.4601 54.94 42.2801 56.11 40.7401 56.96C39.2001 57.81 37.3801 58.23 35.2801 58.23C31.0801 58.23 28.1601 56.91 26.5201 54.28C24.8801 51.65 24.0601 47.86 24.0601 42.92C24.0601 37.74 24.93 33.88 26.66 31.36C28.39 28.84 31.1701 27.57 34.9901 27.57C37.0401 27.57 38.76 27.97 40.17 28.78C41.58 29.59 42.64 30.64 43.36 31.95C44.08 33.26 44.5101 34.69 44.6501 36.25H38.1401C37.9201 35.24 37.5401 34.48 36.9901 33.98L37.0001 33.97ZM31.9901 45.15C31.2101 45.85 30.8201 46.83 30.8201 48.12C30.8201 49.41 31.1801 50.45 31.9001 51.19C32.6201 51.93 33.6501 52.29 34.9901 52.29C36.1901 52.29 37.1401 51.93 37.8301 51.21C38.5301 50.49 38.8701 49.5 38.8701 48.24C38.8701 46.98 38.53 45.95 37.85 45.21C37.17 44.47 36.1801 44.11 34.9001 44.11C33.7301 44.11 32.75 44.46 31.97 45.15H31.9901Z" fill="#8BA1CC"/>
<path d="M49.6601 32.58C50.3601 31.48 51.3401 30.61 52.6101 29.98C53.8801 29.35 55.3301 29.04 56.9701 29.04C58.6101 29.04 60.0601 29.35 61.3301 29.98C62.6001 30.61 63.5802 31.47 64.2802 32.58C64.9802 33.69 65.3201 34.96 65.3201 36.41C65.3201 37.86 64.9701 39.14 64.2601 40.26C63.5501 41.38 62.5601 42.26 61.2901 42.9C60.0201 43.54 58.5701 43.86 56.9301 43.86C55.2901 43.86 53.8501 43.54 52.5901 42.9C51.3301 42.26 50.3601 41.38 49.6601 40.26C48.9601 39.14 48.6201 37.86 48.6201 36.41C48.6201 34.96 48.9701 33.69 49.6601 32.58ZM59.0601 33.95C58.4901 33.38 57.7801 33.09 56.9301 33.09C56.0801 33.09 55.4201 33.38 54.8601 33.95C54.3001 34.52 54.0201 35.36 54.0201 36.45C54.0201 37.54 54.2901 38.33 54.8401 38.91C55.3901 39.49 56.0801 39.77 56.9301 39.77C57.7801 39.77 58.4801 39.48 59.0601 38.89C59.6301 38.3 59.9201 37.49 59.9201 36.46C59.9201 35.37 59.6301 34.54 59.0601 33.96V33.95Z" fill="#8BA1CC"/>
<path d="M105.38 35.45C104.59 36.22 103.38 36.6 101.75 36.6H99.07V42.42H97.25V28.48H101.75C103.32 28.48 104.52 28.86 105.34 29.62C106.16 30.38 106.57 31.36 106.57 32.56C106.57 33.76 106.17 34.68 105.38 35.45ZM103.99 34.44C104.47 34 104.71 33.37 104.71 32.56C104.71 30.84 103.72 29.98 101.75 29.98H99.07V35.1H101.75C102.76 35.1 103.51 34.88 103.99 34.44Z" fill="#8BA1CC"/>
<path d="M108.83 33.95C109.28 33.1 109.91 32.45 110.7 31.98C111.49 31.51 112.38 31.28 113.35 31.28C114.32 31.28 115.14 31.49 115.85 31.9C116.56 32.31 117.08 32.83 117.43 33.46V31.46H119.27V42.42H117.43V40.38C117.07 41.02 116.53 41.55 115.82 41.97C115.11 42.39 114.28 42.6 113.33 42.6C112.38 42.6 111.48 42.36 110.69 41.88C109.9 41.4 109.28 40.73 108.83 39.86C108.38 38.99 108.15 38.01 108.15 36.9C108.15 35.79 108.38 34.8 108.83 33.95ZM116.93 34.76C116.6 34.15 116.15 33.68 115.58 33.35C115.01 33.02 114.39 32.86 113.71 32.86C113.03 32.86 112.41 33.02 111.85 33.34C111.29 33.66 110.84 34.13 110.51 34.74C110.18 35.35 110.01 36.07 110.01 36.9C110.01 37.73 110.18 38.47 110.51 39.09C110.84 39.71 111.29 40.18 111.85 40.51C112.41 40.84 113.03 41 113.71 41C114.39 41 115.01 40.84 115.58 40.51C116.15 40.18 116.6 39.71 116.93 39.09C117.26 38.47 117.43 37.75 117.43 36.92C117.43 36.09 117.26 35.37 116.93 34.76Z" fill="#8BA1CC"/>
<path d="M123.97 42.17C123.3 41.88 122.78 41.48 122.39 40.97C122 40.46 121.79 39.87 121.75 39.2H123.63C123.68 39.75 123.94 40.19 124.4 40.54C124.86 40.89 125.46 41.06 126.21 41.06C126.9 41.06 127.45 40.91 127.85 40.6C128.25 40.29 128.45 39.91 128.45 39.44C128.45 38.97 128.24 38.6 127.81 38.37C127.38 38.14 126.72 37.91 125.83 37.68C125.02 37.47 124.35 37.25 123.84 37.03C123.33 36.81 122.89 36.48 122.52 36.05C122.15 35.62 121.97 35.05 121.97 34.34C121.97 33.78 122.14 33.27 122.47 32.8C122.8 32.33 123.28 31.96 123.89 31.69C124.5 31.42 125.2 31.28 125.99 31.28C127.2 31.28 128.18 31.59 128.93 32.2C129.68 32.81 130.08 33.65 130.13 34.72H128.31C128.27 34.15 128.04 33.69 127.62 33.34C127.2 32.99 126.64 32.82 125.93 32.82C125.28 32.82 124.76 32.96 124.37 33.24C123.98 33.52 123.79 33.89 123.79 34.34C123.79 34.7 123.91 35 124.14 35.23C124.37 35.46 124.67 35.65 125.02 35.79C125.37 35.93 125.86 36.09 126.49 36.26C127.28 36.47 127.92 36.68 128.41 36.89C128.9 37.1 129.33 37.41 129.68 37.82C130.03 38.23 130.22 38.77 130.23 39.44C130.23 40.04 130.06 40.58 129.73 41.06C129.4 41.54 128.93 41.92 128.32 42.19C127.71 42.46 127.02 42.6 126.23 42.6C125.39 42.6 124.64 42.46 123.97 42.17Z" fill="#8BA1CC"/>
<path d="M134.41 42.17C133.74 41.88 133.22 41.48 132.83 40.97C132.44 40.46 132.23 39.87 132.19 39.2H134.07C134.12 39.75 134.38 40.19 134.84 40.54C135.3 40.89 135.9 41.06 136.65 41.06C137.34 41.06 137.89 40.91 138.29 40.6C138.69 40.29 138.89 39.91 138.89 39.44C138.89 38.97 138.68 38.6 138.25 38.37C137.82 38.14 137.16 37.91 136.27 37.68C135.46 37.47 134.79 37.25 134.28 37.03C133.77 36.81 133.33 36.48 132.96 36.05C132.59 35.62 132.41 35.05 132.41 34.34C132.41 33.78 132.58 33.27 132.91 32.8C133.24 32.33 133.72 31.96 134.33 31.69C134.94 31.42 135.64 31.28 136.43 31.28C137.64 31.28 138.62 31.59 139.37 32.2C140.12 32.81 140.52 33.65 140.57 34.72H138.75C138.71 34.15 138.48 33.69 138.06 33.34C137.64 32.99 137.08 32.82 136.37 32.82C135.72 32.82 135.2 32.96 134.81 33.24C134.42 33.52 134.23 33.89 134.23 34.34C134.23 34.7 134.35 35 134.58 35.23C134.81 35.46 135.11 35.65 135.46 35.79C135.81 35.93 136.3 36.09 136.93 36.26C137.72 36.47 138.36 36.68 138.85 36.89C139.34 37.1 139.77 37.41 140.12 37.82C140.47 38.23 140.66 38.77 140.67 39.44C140.67 40.04 140.5 40.58 140.17 41.06C139.84 41.54 139.37 41.92 138.76 42.19C138.15 42.46 137.46 42.6 136.67 42.6C135.83 42.6 135.08 42.46 134.41 42.17Z" fill="#8BA1CC"/>
<path d="M145.22 41.9C144.39 41.43 143.73 40.77 143.26 39.91C142.79 39.05 142.55 38.05 142.55 36.92C142.55 35.79 142.79 34.81 143.28 33.95C143.77 33.09 144.43 32.43 145.27 31.97C146.11 31.51 147.05 31.28 148.09 31.28C149.13 31.28 150.07 31.51 150.91 31.97C151.75 32.43 152.41 33.09 152.9 33.94C153.39 34.79 153.63 35.79 153.63 36.92C153.63 38.05 153.38 39.05 152.88 39.91C152.38 40.77 151.7 41.43 150.85 41.9C150 42.37 149.05 42.6 148.01 42.6C146.97 42.6 146.05 42.37 145.22 41.9ZM149.85 40.54C150.42 40.23 150.89 39.77 151.24 39.16C151.59 38.55 151.77 37.8 151.77 36.92C151.77 36.04 151.6 35.29 151.25 34.68C150.9 34.07 150.45 33.61 149.89 33.31C149.33 33.01 148.72 32.86 148.07 32.86C147.42 32.86 146.79 33.01 146.24 33.31C145.69 33.61 145.24 34.07 144.91 34.68C144.58 35.29 144.41 36.04 144.41 36.92C144.41 37.8 144.57 38.57 144.9 39.18C145.23 39.79 145.66 40.25 146.21 40.55C146.76 40.85 147.36 41 148.01 41C148.66 41 149.28 40.85 149.85 40.54Z" fill="#8BA1CC"/>
<path d="M173.47 498.12C174.53 498.66 175.34 499.43 175.9 500.43C176.46 501.43 176.75 502.61 176.75 503.96C176.75 505.31 176.47 506.49 175.9 507.48C175.33 508.47 174.52 509.23 173.47 509.76C172.41 510.29 171.16 510.55 169.72 510.55H165.6V497.31H169.72C171.16 497.31 172.41 497.58 173.47 498.12ZM173.63 507.78C174.53 506.87 174.98 505.6 174.98 503.97C174.98 502.34 174.53 501.04 173.62 500.11C172.71 499.19 171.41 498.72 169.72 498.72H167.33V509.13H169.72C171.43 509.13 172.73 508.68 173.63 507.77V507.78Z" fill="#424242"/>
<path d="M180.92 510.07C180.13 509.63 179.51 509 179.06 508.18C178.61 507.36 178.39 506.42 178.39 505.34C178.39 504.26 178.62 503.34 179.08 502.52C179.54 501.7 180.17 501.08 180.97 500.64C181.77 500.2 182.66 499.98 183.65 499.98C184.64 499.98 185.53 500.2 186.33 500.64C187.13 501.08 187.76 501.7 188.22 502.51C188.68 503.32 188.91 504.26 188.91 505.34C188.91 506.42 188.67 507.36 188.2 508.18C187.72 509 187.08 509.63 186.27 510.07C185.46 510.51 184.56 510.74 183.57 510.74C182.58 510.74 181.71 510.52 180.92 510.07ZM185.32 508.77C185.86 508.48 186.3 508.04 186.64 507.46C186.98 506.88 187.14 506.17 187.14 505.33C187.14 504.49 186.97 503.78 186.65 503.2C186.32 502.62 185.89 502.18 185.36 501.9C184.83 501.62 184.25 501.47 183.63 501.47C183.01 501.47 182.42 501.61 181.89 501.9C181.36 502.19 180.94 502.62 180.63 503.2C180.31 503.78 180.16 504.49 180.16 505.33C180.16 506.17 180.32 506.89 180.63 507.48C180.94 508.06 181.35 508.5 181.87 508.78C182.39 509.06 182.96 509.21 183.58 509.21C184.2 509.21 184.78 509.06 185.33 508.77H185.32Z" fill="#424242"/>
<path d="M194.47 500.57C195.15 500.18 195.93 499.98 196.81 499.98C197.75 499.98 198.59 500.2 199.34 500.65C200.09 501.09 200.68 501.72 201.11 502.52C201.54 503.32 201.76 504.26 201.76 505.32C201.76 506.38 201.54 507.31 201.11 508.13C200.68 508.95 200.09 509.59 199.33 510.05C198.57 510.51 197.74 510.73 196.81 510.73C195.88 510.73 195.12 510.53 194.44 510.14C193.76 509.75 193.25 509.25 192.91 508.64V510.56H191.18V496.5H192.91V502.09C193.26 501.47 193.78 500.96 194.47 500.57ZM199.51 503.26C199.19 502.68 198.77 502.23 198.23 501.93C197.69 501.63 197.1 501.47 196.45 501.47C195.8 501.47 195.23 501.63 194.69 501.94C194.15 502.25 193.72 502.7 193.4 503.29C193.08 503.88 192.92 504.56 192.92 505.33C192.92 506.1 193.08 506.8 193.4 507.39C193.72 507.98 194.15 508.43 194.69 508.74C195.23 509.05 195.81 509.21 196.45 509.21C197.09 509.21 197.69 509.05 198.23 508.74C198.77 508.43 199.19 507.98 199.51 507.39C199.83 506.8 199.98 506.11 199.98 505.31C199.98 504.51 199.82 503.84 199.51 503.26Z" fill="#424242"/>
<path d="M207.06 500.45C207.62 500.12 208.31 499.96 209.12 499.96V501.75H208.66C206.72 501.75 205.75 502.8 205.75 504.9V510.56H204.02V500.15H205.75V501.84C206.05 501.24 206.49 500.78 207.05 500.45H207.06Z" fill="#424242"/>
<path d="M220.56 506H212.24C212.3 507.03 212.66 507.83 213.29 508.4C213.92 508.97 214.71 509.26 215.62 509.26C216.37 509.26 216.99 509.09 217.49 508.74C217.99 508.39 218.34 507.93 218.54 507.34H220.4C220.12 508.34 219.56 509.15 218.73 509.78C217.9 510.41 216.85 510.72 215.61 510.72C214.62 510.72 213.74 510.5 212.96 510.05C212.18 509.6 211.57 508.98 211.13 508.16C210.69 507.34 210.46 506.4 210.46 505.32C210.46 504.24 210.67 503.3 211.11 502.49C211.55 501.68 212.15 501.06 212.92 500.62C213.7 500.18 214.59 499.96 215.61 499.96C216.63 499.96 217.47 500.18 218.23 500.61C218.99 501.04 219.58 501.63 219.99 502.39C220.4 503.14 220.61 504 220.61 504.94C220.61 505.27 220.59 505.62 220.55 505.99L220.56 506ZM218.39 502.89C218.1 502.41 217.7 502.05 217.2 501.81C216.7 501.56 216.15 501.44 215.54 501.44C214.67 501.44 213.92 501.72 213.31 502.28C212.7 502.84 212.34 503.61 212.26 504.6H218.83C218.83 503.94 218.68 503.37 218.39 502.9V502.89Z" fill="#424242"/>
<path d="M227.97 502.51C228.4 501.71 228.99 501.08 229.75 500.64C230.51 500.2 231.34 499.97 232.27 499.97C233.2 499.97 233.97 500.17 234.65 500.56C235.32 500.95 235.82 501.45 236.15 502.04V500.14H237.9V510.55H236.15V508.61C235.81 509.22 235.3 509.72 234.62 510.12C233.94 510.52 233.15 510.72 232.25 510.72C231.35 510.72 230.49 510.49 229.74 510.04C228.99 509.58 228.4 508.94 227.97 508.12C227.54 507.3 227.32 506.36 227.32 505.31C227.32 504.26 227.53 503.31 227.97 502.51ZM235.67 503.28C235.35 502.7 234.93 502.25 234.39 501.94C233.85 501.63 233.26 501.47 232.61 501.47C231.96 501.47 231.38 501.62 230.84 501.93C230.3 502.24 229.88 502.68 229.57 503.26C229.26 503.84 229.1 504.53 229.1 505.31C229.1 506.09 229.26 506.8 229.57 507.39C229.89 507.98 230.31 508.43 230.84 508.74C231.37 509.05 231.96 509.21 232.61 509.21C233.26 509.21 233.85 509.05 234.39 508.74C234.93 508.43 235.35 507.98 235.67 507.39C235.99 506.8 236.14 506.11 236.14 505.33C236.14 504.55 235.98 503.86 235.67 503.28Z" fill="#424242"/>
<path d="M242.35 510.32C241.72 510.05 241.22 509.67 240.85 509.18C240.48 508.69 240.28 508.13 240.24 507.5H242.03C242.08 508.02 242.32 508.44 242.76 508.77C243.2 509.1 243.77 509.26 244.48 509.26C245.14 509.26 245.66 509.11 246.04 508.82C246.42 508.53 246.61 508.16 246.61 507.72C246.61 507.28 246.41 506.93 246 506.7C245.59 506.48 244.97 506.26 244.12 506.04C243.35 505.84 242.72 505.63 242.23 505.42C241.74 505.21 241.32 504.9 240.98 504.49C240.63 504.08 240.46 503.54 240.46 502.87C240.46 502.34 240.62 501.85 240.94 501.41C241.26 500.97 241.71 500.62 242.29 500.36C242.87 500.1 243.54 499.97 244.29 499.97C245.44 499.97 246.37 500.26 247.08 500.84C247.79 501.42 248.17 502.22 248.22 503.23H246.49C246.45 502.69 246.23 502.25 245.83 501.92C245.43 501.59 244.9 501.43 244.22 501.43C243.6 501.43 243.1 501.56 242.74 501.83C242.37 502.1 242.19 502.44 242.19 502.87C242.19 503.21 242.3 503.49 242.52 503.72C242.74 503.95 243.02 504.12 243.36 504.25C243.7 504.38 244.16 504.53 244.76 504.7C245.51 504.9 246.11 505.1 246.58 505.3C247.05 505.5 247.45 505.79 247.79 506.18C248.12 506.57 248.3 507.09 248.31 507.72C248.31 508.29 248.15 508.8 247.83 509.26C247.51 509.72 247.07 510.07 246.49 510.33C245.91 510.59 245.25 510.72 244.5 510.72C243.7 510.72 242.99 510.58 242.35 510.31V510.32Z" fill="#424242"/>
<path d="M257.91 501.57V507.71C257.91 508.22 258.02 508.57 258.23 508.78C258.45 508.99 258.82 509.09 259.35 509.09H260.62V510.55H259.06C258.1 510.55 257.37 510.33 256.89 509.88C256.41 509.44 256.17 508.71 256.17 507.7V501.56H254.82V500.14H256.17V497.52H257.9V500.14H260.62V501.56H257.9L257.91 501.57Z" fill="#424242"/>
<path d="M265.75 500.45C266.31 500.12 267 499.96 267.81 499.96V501.75H267.35C265.41 501.75 264.44 502.8 264.44 504.9V510.56H262.71V500.15H264.44V501.84C264.74 501.24 265.18 500.78 265.74 500.45H265.75Z" fill="#424242"/>
<path d="M279.25 506H270.93C270.99 507.03 271.35 507.83 271.98 508.4C272.61 508.97 273.4 509.26 274.31 509.26C275.06 509.26 275.68 509.09 276.18 508.74C276.68 508.39 277.03 507.93 277.23 507.34H279.09C278.81 508.34 278.25 509.15 277.42 509.78C276.59 510.41 275.54 510.72 274.3 510.72C273.31 510.72 272.43 510.5 271.65 510.05C270.87 509.6 270.26 508.98 269.82 508.16C269.38 507.34 269.15 506.4 269.15 505.32C269.15 504.24 269.36 503.3 269.8 502.49C270.24 501.68 270.84 501.06 271.61 500.62C272.39 500.18 273.28 499.96 274.3 499.96C275.32 499.96 276.16 500.18 276.92 500.61C277.68 501.04 278.27 501.63 278.68 502.39C279.09 503.14 279.3 504 279.3 504.94C279.3 505.27 279.28 505.62 279.24 505.99L279.25 506ZM277.08 502.89C276.79 502.41 276.39 502.05 275.89 501.81C275.39 501.56 274.84 501.44 274.23 501.44C273.36 501.44 272.61 501.72 272 502.28C271.39 502.84 271.03 503.61 270.95 504.6H277.52C277.52 503.94 277.37 503.37 277.08 502.9V502.89ZM274.25 497.6L271.61 499.22V497.85L274.25 496.27L276.87 497.85V499.22L274.25 497.6Z" fill="#424242"/>
<path d="M283.13 510.32C282.5 510.05 282 509.67 281.63 509.18C281.26 508.69 281.06 508.13 281.02 507.5H282.81C282.86 508.02 283.1 508.44 283.54 508.77C283.98 509.1 284.55 509.26 285.26 509.26C285.92 509.26 286.44 509.11 286.82 508.82C287.2 508.53 287.39 508.16 287.39 507.72C287.39 507.28 287.19 506.93 286.78 506.7C286.37 506.48 285.75 506.26 284.9 506.04C284.13 505.84 283.5 505.63 283.01 505.42C282.52 505.21 282.1 504.9 281.76 504.49C281.41 504.08 281.24 503.54 281.24 502.87C281.24 502.34 281.4 501.85 281.72 501.41C282.04 500.97 282.49 500.62 283.07 500.36C283.65 500.1 284.32 499.97 285.07 499.97C286.22 499.97 287.15 500.26 287.86 500.84C288.57 501.42 288.95 502.22 289 503.23H287.27C287.23 502.69 287.01 502.25 286.61 501.92C286.21 501.59 285.68 501.43 285 501.43C284.38 501.43 283.88 501.56 283.52 501.83C283.15 502.1 282.97 502.44 282.97 502.87C282.97 503.21 283.08 503.49 283.3 503.72C283.52 503.95 283.8 504.12 284.14 504.25C284.48 504.38 284.94 504.53 285.54 504.7C286.29 504.9 286.89 505.1 287.36 505.3C287.83 505.5 288.23 505.79 288.57 506.18C288.9 506.57 289.08 507.09 289.09 507.72C289.09 508.29 288.93 508.8 288.61 509.26C288.29 509.72 287.85 510.07 287.27 510.33C286.69 510.59 286.03 510.72 285.28 510.72C284.48 510.72 283.77 510.58 283.13 510.31V510.32Z" fill="#424242"/>
<path d="M306.02 506H297.7C297.76 507.03 298.12 507.83 298.75 508.4C299.38 508.97 300.17 509.26 301.08 509.26C301.83 509.26 302.45 509.09 302.95 508.74C303.45 508.39 303.8 507.93 304 507.34H305.86C305.58 508.34 305.02 509.15 304.19 509.78C303.36 510.41 302.31 510.72 301.07 510.72C300.08 510.72 299.2 510.5 298.42 510.05C297.64 509.6 297.03 508.98 296.59 508.16C296.15 507.34 295.92 506.4 295.92 505.32C295.92 504.24 296.13 503.3 296.57 502.49C297.01 501.68 297.61 501.06 298.38 500.62C299.16 500.18 300.05 499.96 301.07 499.96C302.09 499.96 302.93 500.18 303.69 500.61C304.45 501.04 305.04 501.63 305.45 502.39C305.86 503.14 306.07 504 306.07 504.94C306.07 505.27 306.05 505.62 306.01 505.99L306.02 506ZM303.86 502.89C303.57 502.41 303.17 502.05 302.67 501.81C302.17 501.56 301.62 501.44 301.01 501.44C300.14 501.44 299.39 501.72 298.78 502.28C298.17 502.84 297.81 503.61 297.73 504.6H304.3C304.3 503.94 304.15 503.37 303.86 502.9V502.89Z" fill="#424242"/>
<path d="M313.79 510.56L311.32 506.68L308.94 510.56H307.14L310.5 505.39L307.14 500.15H309.1L311.57 504.01L313.93 500.15H315.73L312.39 505.3L315.75 510.56H313.79Z" fill="#424242"/>
<path d="M319.57 501.57V507.71C319.57 508.22 319.68 508.57 319.89 508.78C320.11 508.99 320.48 509.09 321.01 509.09H322.28V510.55H320.72C319.76 510.55 319.03 510.33 318.55 509.88C318.07 509.44 317.83 508.71 317.83 507.7V501.56H316.48V500.14H317.83V497.52H319.56V500.14H322.28V501.56H319.56L319.57 501.57Z" fill="#424242"/>
<path d="M327.41 500.45C327.97 500.12 328.66 499.96 329.47 499.96V501.75H329.01C327.07 501.75 326.1 502.8 326.1 504.9V510.56H324.37V500.15H326.1V501.84C326.4 501.24 326.84 500.78 327.4 500.45H327.41Z" fill="#424242"/>
<path d="M340.9 506H332.58C332.64 507.03 333 507.83 333.63 508.4C334.26 508.97 335.05 509.26 335.96 509.26C336.71 509.26 337.33 509.09 337.83 508.74C338.33 508.39 338.68 507.93 338.88 507.34H340.74C340.46 508.34 339.9 509.15 339.07 509.78C338.24 510.41 337.19 510.72 335.95 510.72C334.96 510.72 334.08 510.5 333.3 510.05C332.52 509.6 331.91 508.98 331.47 508.16C331.03 507.34 330.8 506.4 330.8 505.32C330.8 504.24 331.01 503.3 331.45 502.49C331.89 501.68 332.49 501.06 333.26 500.62C334.04 500.18 334.93 499.96 335.95 499.96C336.97 499.96 337.81 500.18 338.57 500.61C339.33 501.04 339.92 501.63 340.33 502.39C340.74 503.14 340.95 504 340.95 504.94C340.95 505.27 340.93 505.62 340.89 505.99L340.9 506ZM338.74 502.89C338.45 502.41 338.05 502.05 337.55 501.81C337.05 501.56 336.5 501.44 335.89 501.44C335.02 501.44 334.27 501.72 333.66 502.28C333.05 502.84 332.69 503.61 332.61 504.6H339.18C339.18 503.94 339.03 503.37 338.74 502.9V502.89Z" fill="#424242"/>
<path d="M357.93 500.46C358.56 500.8 359.06 501.3 359.43 501.97C359.8 502.64 359.98 503.46 359.98 504.42V510.56H358.27V504.67C358.27 503.63 358.01 502.84 357.5 502.29C356.99 501.74 356.29 501.46 355.42 501.46C354.55 501.46 353.81 501.75 353.27 502.32C352.73 502.89 352.47 503.73 352.47 504.82V510.56H350.76V504.67C350.76 503.63 350.5 502.84 349.99 502.29C349.48 501.74 348.78 501.46 347.91 501.46C347.04 501.46 346.3 501.75 345.76 502.32C345.22 502.89 344.96 503.73 344.96 504.82V510.56H343.23V500.15H344.96V501.65C345.3 501.11 345.76 500.69 346.34 500.4C346.92 500.11 347.55 499.96 348.25 499.96C349.12 499.96 349.9 500.16 350.57 500.55C351.24 500.94 351.74 501.52 352.07 502.28C352.36 501.55 352.84 500.98 353.51 500.57C354.18 500.16 354.93 499.96 355.75 499.96C356.57 499.96 357.28 500.13 357.92 500.46H357.93Z" fill="#424242"/>
<path d="M362.87 498.11C362.64 497.88 362.53 497.6 362.53 497.27C362.53 496.94 362.64 496.66 362.87 496.43C363.1 496.2 363.38 496.09 363.71 496.09C364.04 496.09 364.29 496.2 364.52 496.43C364.74 496.66 364.85 496.94 364.85 497.27C364.85 497.6 364.74 497.88 364.52 498.11C364.3 498.34 364.03 498.45 363.71 498.45C363.39 498.45 363.1 498.34 362.87 498.11ZM364.54 500.15V510.56H362.81V500.15H364.54Z" fill="#424242"/>
<path d="M375.64 501.11C376.43 501.88 376.82 502.98 376.82 504.43V510.57H375.11V504.68C375.11 503.64 374.85 502.85 374.33 502.3C373.81 501.75 373.1 501.47 372.2 501.47C371.3 501.47 370.56 501.75 370.02 502.32C369.48 502.89 369.21 503.72 369.21 504.81V510.57H367.48V500.16H369.21V501.64C369.55 501.11 370.02 500.7 370.61 500.4C371.2 500.11 371.85 499.96 372.56 499.96C373.83 499.96 374.85 500.34 375.64 501.11Z" fill="#424242"/>
<path d="M379.64 502.51C380.07 501.71 380.66 501.08 381.42 500.64C382.18 500.2 383.02 499.97 383.96 499.97C384.77 499.97 385.52 500.16 386.22 500.53C386.92 500.9 387.45 501.39 387.82 502V496.49H389.57V510.55H387.82V508.59C387.48 509.21 386.97 509.72 386.3 510.12C385.63 510.52 384.84 510.72 383.94 510.72C383.04 510.72 382.18 510.49 381.42 510.04C380.66 509.59 380.07 508.94 379.64 508.12C379.21 507.3 378.99 506.36 378.99 505.31C378.99 504.26 379.2 503.31 379.64 502.51ZM387.34 503.28C387.02 502.7 386.6 502.25 386.06 501.94C385.52 501.63 384.93 501.47 384.28 501.47C383.63 501.47 383.05 501.62 382.51 501.93C381.97 502.24 381.55 502.68 381.24 503.26C380.93 503.84 380.77 504.53 380.77 505.31C380.77 506.09 380.93 506.8 381.24 507.39C381.56 507.98 381.98 508.43 382.51 508.74C383.04 509.05 383.63 509.21 384.28 509.21C384.93 509.21 385.52 509.05 386.06 508.74C386.6 508.43 387.02 507.98 387.34 507.39C387.66 506.8 387.81 506.11 387.81 505.33C387.81 504.55 387.65 503.86 387.34 503.28Z" fill="#424242"/>
<path d="M392.49 502.51C392.92 501.71 393.51 501.08 394.27 500.64C395.03 500.2 395.86 499.97 396.79 499.97C397.72 499.97 398.49 500.17 399.17 500.56C399.84 500.95 400.34 501.45 400.67 502.04V500.14H402.42V510.55H400.67V508.61C400.33 509.22 399.82 509.72 399.14 510.12C398.46 510.52 397.67 510.72 396.77 510.72C395.87 510.72 395.01 510.49 394.26 510.04C393.51 509.58 392.92 508.94 392.49 508.12C392.06 507.3 391.84 506.36 391.84 505.31C391.84 504.26 392.05 503.31 392.49 502.51ZM400.18 503.28C399.86 502.7 399.44 502.25 398.9 501.94C398.36 501.63 397.77 501.47 397.12 501.47C396.47 501.47 395.89 501.62 395.35 501.93C394.81 502.24 394.39 502.68 394.08 503.26C393.77 503.84 393.61 504.53 393.61 505.31C393.61 506.09 393.77 506.8 394.08 507.39C394.4 507.98 394.82 508.43 395.35 508.74C395.88 509.05 396.47 509.21 397.12 509.21C397.77 509.21 398.36 509.05 398.9 508.74C399.44 508.43 399.86 507.98 400.18 507.39C400.5 506.8 400.65 506.11 400.65 505.33C400.65 504.55 400.49 503.86 400.18 503.28Z" fill="#424242"/>
<path d="M405.33 502.51C405.76 501.71 406.35 501.08 407.11 500.64C407.87 500.2 408.71 499.97 409.65 499.97C410.46 499.97 411.21 500.16 411.91 500.53C412.61 500.9 413.14 501.39 413.51 502V496.49H415.26V510.55H413.51V508.59C413.17 509.21 412.66 509.72 411.99 510.12C411.32 510.52 410.53 510.72 409.63 510.72C408.73 510.72 407.87 510.49 407.11 510.04C406.35 509.59 405.76 508.94 405.33 508.12C404.9 507.3 404.68 506.36 404.68 505.31C404.68 504.26 404.89 503.31 405.33 502.51ZM413.03 503.28C412.71 502.7 412.29 502.25 411.75 501.94C411.21 501.63 410.62 501.47 409.97 501.47C409.32 501.47 408.74 501.62 408.2 501.93C407.66 502.24 407.24 502.68 406.93 503.26C406.62 503.84 406.46 504.53 406.46 505.31C406.46 506.09 406.62 506.8 406.93 507.39C407.25 507.98 407.67 508.43 408.2 508.74C408.73 509.05 409.32 509.21 409.97 509.21C410.62 509.21 411.21 509.05 411.75 508.74C412.29 508.43 412.71 507.98 413.03 507.39C413.35 506.8 413.5 506.11 413.5 505.33C413.5 504.55 413.34 503.86 413.03 503.28Z" fill="#424242"/>
<path d="M427.62 506H419.3C419.36 507.03 419.72 507.83 420.35 508.4C420.98 508.97 421.77 509.26 422.68 509.26C423.43 509.26 424.05 509.09 424.55 508.74C425.05 508.39 425.4 507.93 425.6 507.34H427.46C427.18 508.34 426.62 509.15 425.79 509.78C424.96 510.41 423.91 510.72 422.67 510.72C421.68 510.72 420.8 510.5 420.02 510.05C419.24 509.6 418.63 508.98 418.19 508.16C417.75 507.34 417.52 506.4 417.52 505.32C417.52 504.24 417.73 503.3 418.17 502.49C418.61 501.68 419.21 501.06 419.98 500.62C420.76 500.18 421.65 499.96 422.67 499.96C423.69 499.96 424.53 500.18 425.29 500.61C426.05 501.04 426.64 501.63 427.05 502.39C427.46 503.14 427.67 504 427.67 504.94C427.67 505.27 427.65 505.62 427.61 505.99L427.62 506ZM425.45 502.89C425.16 502.41 424.76 502.05 424.26 501.81C423.76 501.56 423.21 501.44 422.6 501.44C421.73 501.44 420.98 501.72 420.37 502.28C419.76 502.84 419.4 503.61 419.32 504.6H425.89C425.89 503.94 425.74 503.37 425.45 502.9V502.89Z" fill="#424242"/>
<path d="M431.5 510.32C430.87 510.05 430.37 509.67 430 509.18C429.63 508.69 429.43 508.13 429.39 507.5H431.18C431.23 508.02 431.47 508.44 431.91 508.77C432.35 509.1 432.92 509.26 433.63 509.26C434.29 509.26 434.81 509.11 435.19 508.82C435.57 508.53 435.76 508.16 435.76 507.72C435.76 507.28 435.56 506.93 435.15 506.7C434.74 506.48 434.12 506.26 433.27 506.04C432.5 505.84 431.87 505.63 431.38 505.42C430.89 505.21 430.47 504.9 430.13 504.49C429.78 504.08 429.61 503.54 429.61 502.87C429.61 502.34 429.77 501.85 430.09 501.41C430.41 500.97 430.86 500.62 431.44 500.36C432.02 500.1 432.69 499.97 433.44 499.97C434.59 499.97 435.52 500.26 436.23 500.84C436.94 501.42 437.32 502.22 437.37 503.23H435.64C435.6 502.69 435.38 502.25 434.98 501.92C434.58 501.59 434.05 501.43 433.37 501.43C432.75 501.43 432.25 501.56 431.89 501.83C431.52 502.1 431.34 502.44 431.34 502.87C431.34 503.21 431.45 503.49 431.67 503.72C431.89 503.95 432.17 504.12 432.51 504.25C432.85 504.38 433.31 504.53 433.91 504.7C434.66 504.9 435.26 505.1 435.73 505.3C436.2 505.5 436.6 505.79 436.94 506.18C437.27 506.57 437.45 507.09 437.46 507.72C437.46 508.29 437.3 508.8 436.98 509.26C436.66 509.72 436.22 510.07 435.64 510.33C435.06 510.59 434.4 510.72 433.65 510.72C432.85 510.72 432.14 510.58 431.5 510.31V510.32Z" fill="#424242"/>
<path d="M251.71 523.38C252.39 522.98 253.18 522.78 254.08 522.78C254.98 522.78 255.84 523 256.6 523.45C257.36 523.9 257.95 524.52 258.38 525.32C258.81 526.12 259.03 527.06 259.03 528.12C259.03 529.18 258.81 530.11 258.38 530.93C257.95 531.75 257.36 532.39 256.6 532.85C255.84 533.31 255.01 533.53 254.08 533.53C253.15 533.53 252.41 533.33 251.73 532.93C251.05 532.53 250.54 532.03 250.18 531.44V538.3H248.45V522.95H250.18V524.87C250.52 524.28 251.03 523.78 251.71 523.38ZM256.77 526.06C256.45 525.48 256.03 525.03 255.49 524.73C254.95 524.43 254.36 524.27 253.71 524.27C253.06 524.27 252.49 524.43 251.95 524.74C251.41 525.05 250.98 525.5 250.66 526.09C250.34 526.68 250.18 527.36 250.18 528.13C250.18 528.9 250.34 529.6 250.66 530.19C250.98 530.78 251.41 531.23 251.95 531.54C252.49 531.85 253.07 532.01 253.71 532.01C254.35 532.01 254.95 531.85 255.49 531.54C256.03 531.23 256.45 530.78 256.77 530.19C257.09 529.6 257.24 528.91 257.24 528.11C257.24 527.31 257.08 526.64 256.77 526.06Z" fill="#424242"/>
<path d="M261.29 525.31C261.72 524.51 262.31 523.88 263.07 523.44C263.83 523 264.66 522.77 265.59 522.77C266.52 522.77 267.29 522.97 267.97 523.36C268.64 523.75 269.14 524.25 269.47 524.84V522.94H271.22V533.35H269.47V531.41C269.13 532.02 268.62 532.52 267.94 532.92C267.26 533.32 266.47 533.52 265.57 533.52C264.67 533.52 263.81 533.29 263.06 532.84C262.31 532.38 261.72 531.74 261.29 530.92C260.86 530.1 260.64 529.16 260.64 528.11C260.64 527.06 260.85 526.11 261.29 525.31ZM268.99 526.08C268.67 525.5 268.25 525.05 267.71 524.74C267.17 524.43 266.58 524.27 265.93 524.27C265.28 524.27 264.7 524.42 264.16 524.73C263.62 525.04 263.2 525.48 262.89 526.06C262.58 526.64 262.42 527.33 262.42 528.11C262.42 528.89 262.58 529.6 262.89 530.19C263.21 530.78 263.63 531.23 264.16 531.54C264.69 531.85 265.28 532.01 265.93 532.01C266.58 532.01 267.17 531.85 267.71 531.54C268.25 531.23 268.67 530.78 268.99 530.19C269.31 529.6 269.46 528.91 269.46 528.13C269.46 527.35 269.3 526.66 268.99 526.08Z" fill="#424242"/>
<path d="M277.17 523.25C277.73 522.92 278.42 522.76 279.23 522.76V524.55H278.77C276.83 524.55 275.86 525.6 275.86 527.7V533.36H274.13V522.95H275.86V524.64C276.16 524.04 276.6 523.58 277.16 523.25H277.17Z" fill="#424242"/>
<path d="M281.23 525.31C281.66 524.51 282.25 523.88 283.01 523.44C283.77 523 284.6 522.77 285.53 522.77C286.46 522.77 287.23 522.97 287.91 523.36C288.58 523.75 289.08 524.25 289.41 524.84V522.94H291.16V533.35H289.41V531.41C289.07 532.02 288.56 532.52 287.88 532.92C287.2 533.32 286.41 533.52 285.51 533.52C284.61 533.52 283.75 533.29 283 532.84C282.25 532.38 281.66 531.74 281.23 530.92C280.8 530.1 280.58 529.16 280.58 528.11C280.58 527.06 280.79 526.11 281.23 525.31ZM288.92 526.08C288.6 525.5 288.18 525.05 287.64 524.74C287.1 524.43 286.51 524.27 285.86 524.27C285.21 524.27 284.63 524.42 284.09 524.73C283.55 525.04 283.13 525.48 282.82 526.06C282.51 526.64 282.35 527.33 282.35 528.11C282.35 528.89 282.51 529.6 282.82 530.19C283.14 530.78 283.56 531.23 284.09 531.54C284.62 531.85 285.21 532.01 285.86 532.01C286.51 532.01 287.1 531.85 287.64 531.54C288.18 531.23 288.6 530.78 288.92 530.19C289.24 529.6 289.39 528.91 289.39 528.13C289.39 527.35 289.23 526.66 288.92 526.08Z" fill="#424242"/>
<path d="M299.14 525.31C299.57 524.51 300.16 523.88 300.92 523.44C301.68 523 302.52 522.77 303.46 522.77C304.27 522.77 305.02 522.96 305.72 523.33C306.42 523.7 306.95 524.19 307.32 524.8V519.29H309.07V533.35H307.32V531.39C306.98 532.01 306.47 532.52 305.8 532.92C305.13 533.32 304.34 533.52 303.44 533.52C302.54 533.52 301.68 533.29 300.92 532.84C300.16 532.39 299.57 531.74 299.14 530.92C298.71 530.1 298.49 529.16 298.49 528.11C298.49 527.06 298.7 526.11 299.14 525.31ZM306.84 526.08C306.52 525.5 306.1 525.05 305.56 524.74C305.02 524.43 304.43 524.27 303.78 524.27C303.13 524.27 302.55 524.42 302.01 524.73C301.47 525.04 301.05 525.48 300.74 526.06C300.43 526.64 300.27 527.33 300.27 528.11C300.27 528.89 300.43 529.6 300.74 530.19C301.06 530.78 301.48 531.23 302.01 531.54C302.54 531.85 303.13 532.01 303.78 532.01C304.43 532.01 305.02 531.85 305.56 531.54C306.1 531.23 306.52 530.78 306.84 530.19C307.16 529.6 307.31 528.91 307.31 528.13C307.31 527.35 307.15 526.66 306.84 526.08Z" fill="#424242"/>
<path d="M321.43 528.8H313.11C313.17 529.83 313.53 530.63 314.16 531.2C314.79 531.77 315.58 532.06 316.49 532.06C317.24 532.06 317.86 531.89 318.36 531.54C318.86 531.19 319.21 530.73 319.41 530.14H321.27C320.99 531.14 320.43 531.95 319.6 532.58C318.77 533.21 317.72 533.52 316.48 533.52C315.49 533.52 314.61 533.3 313.83 532.85C313.05 532.4 312.44 531.78 312 530.96C311.56 530.14 311.33 529.2 311.33 528.12C311.33 527.04 311.54 526.1 311.98 525.29C312.42 524.48 313.02 523.86 313.79 523.42C314.57 522.98 315.46 522.76 316.48 522.76C317.5 522.76 318.34 522.98 319.1 523.41C319.86 523.84 320.45 524.43 320.86 525.19C321.27 525.94 321.48 526.8 321.48 527.74C321.48 528.07 321.46 528.42 321.42 528.79L321.43 528.8ZM319.26 525.69C318.97 525.21 318.57 524.85 318.07 524.61C317.57 524.36 317.02 524.24 316.41 524.24C315.54 524.24 314.79 524.52 314.18 525.08C313.57 525.64 313.21 526.41 313.13 527.4H319.7C319.7 526.74 319.55 526.17 319.26 525.7V525.69Z" fill="#424242"/>
<path d="M331.92 523.91C332.71 524.68 333.1 525.78 333.1 527.23V533.37H331.39V527.48C331.39 526.44 331.13 525.65 330.61 525.1C330.09 524.55 329.38 524.27 328.48 524.27C327.58 524.27 326.84 524.55 326.3 525.12C325.76 525.69 325.49 526.52 325.49 527.61V533.37H323.76V522.96H325.49V524.44C325.83 523.91 326.3 523.5 326.89 523.2C327.48 522.91 328.13 522.76 328.84 522.76C330.11 522.76 331.13 523.14 331.92 523.91Z" fill="#424242"/>
<path d="M338.04 524.37V530.51C338.04 531.02 338.15 531.37 338.36 531.58C338.58 531.79 338.95 531.89 339.48 531.89H340.75V533.35H339.19C338.23 533.35 337.5 533.13 337.02 532.68C336.54 532.24 336.3 531.51 336.3 530.5V524.36H334.95V522.94H336.3V520.32H338.03V522.94H340.75V524.36H338.03L338.04 524.37Z" fill="#424242"/>
<path d="M345.87 523.25C346.43 522.92 347.12 522.76 347.93 522.76V524.55H347.47C345.53 524.55 344.56 525.6 344.56 527.7V533.36H342.83V522.95H344.56V524.64C344.86 524.04 345.3 523.58 345.86 523.25H345.87Z" fill="#424242"/>
<path d="M351.82 532.87C351.03 532.43 350.41 531.8 349.96 530.98C349.51 530.16 349.29 529.22 349.29 528.14C349.29 527.06 349.52 526.14 349.98 525.32C350.44 524.5 351.07 523.88 351.87 523.44C352.67 523 353.56 522.78 354.55 522.78C355.54 522.78 356.43 523 357.23 523.44C358.03 523.88 358.66 524.5 359.12 525.31C359.58 526.12 359.81 527.06 359.81 528.14C359.81 529.22 359.57 530.16 359.1 530.98C358.62 531.8 357.98 532.43 357.17 532.87C356.36 533.31 355.46 533.54 354.47 533.54C353.48 533.54 352.61 533.32 351.82 532.87ZM356.22 531.57C356.76 531.28 357.2 530.84 357.54 530.26C357.88 529.68 358.04 528.97 358.04 528.13C358.04 527.29 357.87 526.58 357.55 526C357.22 525.42 356.79 524.98 356.26 524.7C355.73 524.42 355.15 524.27 354.53 524.27C353.91 524.27 353.32 524.41 352.79 524.7C352.26 524.99 351.84 525.42 351.53 526C351.21 526.58 351.06 527.29 351.06 528.13C351.06 528.97 351.22 529.69 351.53 530.28C351.84 530.86 352.25 531.3 352.77 531.58C353.29 531.86 353.86 532.01 354.48 532.01C355.1 532.01 355.68 531.86 356.23 531.57H356.22Z" fill="#424242"/>
<path d="M405.96 213.75H211.14L304 446.8L405.96 213.75Z" fill="#CCCCCC"/>
<path d="M210.62 215.57L307.64 302.96L406.48 215.57H210.62Z" fill="#CCCCCC"/>
<path d="M175.91 118.25L303.36 445.98L114 300.32L175.91 118.25Z" fill="#CCCCCC"/>
<path d="M432.09 118.25L304.64 445.98L494 300.32L432.09 118.25Z" fill="#CCCCCC"/>
<path d="M405.96 203.75H211.14L304 436.8L405.96 203.75Z" fill="#EFEFEF" stroke="#E0E0E0" stroke-miterlimit="10"/>
<path d="M210.62 205.57L307.64 292.96L406.48 205.57H210.62Z" fill="#CCCCCC"/>
<path d="M210.62 199.77L307.64 287.17L406.48 199.77H210.62Z" fill="white" stroke="#E0E0E0" stroke-miterlimit="10"/>
<path d="M175.91 108.25L303.36 435.98L114 290.32L175.91 108.25Z" fill="white" stroke="#E0E0E0" stroke-miterlimit="10"/>
<path d="M432.09 108.25L304.64 435.98L494 290.32L432.09 108.25Z" fill="white" stroke="#E0E0E0" stroke-miterlimit="10"/>
<path d="M137 229.42V308.01" stroke="#8BA1CC" stroke-width="2"/>
<path d="M472 229.42V308.01" stroke="#8BA1CC" stroke-width="2"/>
<path d="M265.7 413.71H344.3" stroke="#8BA1CC" stroke-width="2"/>
<path d="M80.7803 279.72C80.7803 279.72 114.78 241.78 160.11 266.96" stroke="#8BA1CC" stroke-width="2"/>
<path d="M170.23 273.54C164.31 272.27 156.43 271.51 150.7 272.38L158.71 266.21L160.92 256.34C162.56 261.9 166.57 268.72 170.23 273.54Z" fill="#8BA1CC"/>
<path d="M516.23 279.72C516.23 279.72 482.23 241.78 436.9 266.96" stroke="#8BA1CC" stroke-width="2"/>
<path d="M426.78 273.54C430.44 268.71 434.45 261.89 436.09 256.33L438.3 266.2L446.31 272.37C440.58 271.5 432.7 272.26 426.78 273.53V273.54Z" fill="#8BA1CC"/>
<path d="M292.81 469.75C292.81 469.75 330.75 435.75 305.57 390.42" stroke="#8BA1CC" stroke-width="2"/>
<path d="M298.99 380.3C303.82 383.96 310.64 387.97 316.2 389.61L306.33 391.82L300.16 399.83C301.03 394.1 300.27 386.22 299 380.3H298.99Z" fill="#8BA1CC"/>
</svg>
