<svg width="601" height="578" viewBox="0 0 601 578" fill="none" xmlns="http://www.w3.org/2000/svg">
<path d="M554.02 58.95H70.4401C44.9964 58.95 24.3701 79.5763 24.3701 105.02V531.2C24.3701 556.644 44.9964 577.27 70.4401 577.27H554.02C579.464 577.27 600.09 556.644 600.09 531.2V105.02C600.09 79.5763 579.464 58.95 554.02 58.95Z" fill="#D3D3D3"/>
<path d="M549.4 49.27H65.82C40.3762 49.27 19.75 69.8963 19.75 95.34V521.52C19.75 546.964 40.3762 567.59 65.82 567.59H549.4C574.844 567.59 595.47 546.964 595.47 521.52V95.34C595.47 69.8963 574.844 49.27 549.4 49.27Z" fill="#8BA1CC"/>
<path d="M43.73 89.27C66.7603 89.27 85.43 70.5689 85.43 47.5C85.43 24.4311 66.7603 5.72998 43.73 5.72998C20.6998 5.72998 2.03003 24.4311 2.03003 47.5C2.03003 70.5689 20.6998 89.27 43.73 89.27Z" fill="#CCA98B" stroke="#F2F2F2"/>
<path d="M43.69 85.67C66.7203 85.67 85.39 66.9689 85.39 43.9C85.39 20.8311 66.7203 2.13 43.69 2.13C20.6597 2.13 1.98999 20.8311 1.98999 43.9C1.98999 66.9689 20.6597 85.67 43.69 85.67Z" fill="white" stroke="#F2F2F2" stroke-width="3"/>
<path d="M27.1399 29.86C28.9399 28.28 31.3799 27.49 34.4699 27.49C36.5199 27.49 38.2699 27.84 39.7299 28.55C41.1899 29.26 42.2899 30.23 43.0399 31.46C43.7899 32.69 44.1699 34.07 44.1699 35.59C44.1699 37.39 43.7199 38.86 42.8199 39.99C41.9199 41.12 40.8699 41.89 39.6699 42.3V42.46C41.2199 42.98 42.4499 43.84 43.3499 45.04C44.2499 46.24 44.6999 47.78 44.6999 49.66C44.6999 51.35 44.3099 52.85 43.5299 54.14C42.7499 55.43 41.6199 56.45 40.1299 57.19C38.6399 57.93 36.8799 58.29 34.8299 58.29C31.5599 58.29 28.9399 57.49 26.9899 55.88C25.0399 54.27 24.0099 51.84 23.8999 48.6H30.6899C30.7199 49.8 31.0599 50.75 31.7099 51.44C32.3699 52.14 33.3199 52.48 34.5799 52.48C35.6399 52.48 36.4699 52.17 37.0599 51.56C37.6499 50.95 37.9399 50.13 37.9399 49.12C37.9399 47.81 37.5199 46.86 36.6899 46.28C35.8599 45.69 34.5299 45.4 32.6999 45.4H31.3899V39.71H32.6999C34.0899 39.71 35.2199 39.47 36.0799 38.99C36.9399 38.51 37.3699 37.66 37.3699 36.43C37.3699 35.45 37.0999 34.68 36.5499 34.14C35.9999 33.6 35.2499 33.32 34.2999 33.32C33.2599 33.32 32.4899 33.63 31.9899 34.26C31.4799 34.89 31.1899 35.67 31.1099 36.59H24.2799C24.3899 33.67 25.3399 31.42 27.1499 29.84L27.1399 29.86Z" fill="#8BA1CC"/>
<path d="M49.01 32.58C49.71 31.48 50.69 30.61 51.96 29.98C53.23 29.35 54.68 29.04 56.32 29.04C57.96 29.04 59.41 29.35 60.68 29.98C61.95 30.61 62.93 31.47 63.63 32.58C64.33 33.69 64.67 34.96 64.67 36.41C64.67 37.86 64.32 39.14 63.61 40.26C62.9 41.38 61.91 42.26 60.64 42.9C59.37 43.54 57.92 43.86 56.28 43.86C54.64 43.86 53.2 43.54 51.94 42.9C50.68 42.26 49.71 41.38 49.01 40.26C48.31 39.14 47.97 37.86 47.97 36.41C47.97 34.96 48.32 33.69 49.01 32.58ZM58.4 33.95C57.83 33.38 57.12 33.09 56.27 33.09C55.42 33.09 54.76 33.38 54.2 33.95C53.64 34.52 53.36 35.36 53.36 36.45C53.36 37.54 53.63 38.33 54.18 38.91C54.73 39.49 55.42 39.77 56.27 39.77C57.12 39.77 57.82 39.48 58.4 38.89C58.97 38.3 59.26 37.49 59.26 36.46C59.26 35.37 58.97 34.54 58.4 33.96V33.95Z" fill="#8BA1CC"/>
<path d="M105.38 35.45C104.59 36.22 103.38 36.6 101.75 36.6H99.07V42.42H97.25V28.48H101.75C103.32 28.48 104.52 28.86 105.34 29.62C106.16 30.38 106.57 31.36 106.57 32.56C106.57 33.76 106.17 34.68 105.38 35.45ZM103.99 34.44C104.47 34 104.71 33.37 104.71 32.56C104.71 30.84 103.72 29.98 101.75 29.98H99.07V35.1H101.75C102.76 35.1 103.51 34.88 103.99 34.44Z" fill="#8BA1CC"/>
<path d="M108.83 33.95C109.28 33.1 109.91 32.45 110.7 31.98C111.49 31.51 112.38 31.28 113.35 31.28C114.32 31.28 115.14 31.49 115.85 31.9C116.56 32.31 117.08 32.83 117.43 33.46V31.46H119.27V42.42H117.43V40.38C117.07 41.02 116.53 41.55 115.82 41.97C115.11 42.39 114.28 42.6 113.33 42.6C112.38 42.6 111.48 42.36 110.69 41.88C109.9 41.4 109.28 40.73 108.83 39.86C108.38 38.99 108.15 38.01 108.15 36.9C108.15 35.79 108.38 34.8 108.83 33.95ZM116.93 34.76C116.6 34.15 116.15 33.68 115.58 33.35C115.01 33.02 114.39 32.86 113.71 32.86C113.03 32.86 112.41 33.02 111.85 33.34C111.29 33.66 110.84 34.13 110.51 34.74C110.18 35.35 110.01 36.07 110.01 36.9C110.01 37.73 110.18 38.47 110.51 39.09C110.84 39.71 111.29 40.18 111.85 40.51C112.41 40.84 113.03 41 113.71 41C114.39 41 115.01 40.84 115.58 40.51C116.15 40.18 116.6 39.71 116.93 39.09C117.26 38.47 117.43 37.75 117.43 36.92C117.43 36.09 117.26 35.37 116.93 34.76Z" fill="#8BA1CC"/>
<path d="M123.97 42.17C123.3 41.88 122.78 41.48 122.39 40.97C122 40.46 121.79 39.87 121.75 39.2H123.63C123.68 39.75 123.94 40.19 124.4 40.54C124.86 40.89 125.46 41.06 126.21 41.06C126.9 41.06 127.45 40.91 127.85 40.6C128.25 40.29 128.45 39.91 128.45 39.44C128.45 38.97 128.24 38.6 127.81 38.37C127.38 38.14 126.72 37.91 125.83 37.68C125.02 37.47 124.35 37.25 123.84 37.03C123.33 36.81 122.89 36.48 122.52 36.05C122.15 35.62 121.97 35.05 121.97 34.34C121.97 33.78 122.14 33.27 122.47 32.8C122.8 32.33 123.28 31.96 123.89 31.69C124.5 31.42 125.2 31.28 125.99 31.28C127.2 31.28 128.18 31.59 128.93 32.2C129.68 32.81 130.08 33.65 130.13 34.72H128.31C128.27 34.15 128.04 33.69 127.62 33.34C127.2 32.99 126.64 32.82 125.93 32.82C125.28 32.82 124.76 32.96 124.37 33.24C123.98 33.52 123.79 33.89 123.79 34.34C123.79 34.7 123.91 35 124.14 35.23C124.37 35.46 124.67 35.65 125.02 35.79C125.37 35.93 125.86 36.09 126.49 36.26C127.28 36.47 127.92 36.68 128.41 36.89C128.9 37.1 129.33 37.41 129.68 37.82C130.03 38.23 130.22 38.77 130.23 39.44C130.23 40.04 130.06 40.58 129.73 41.06C129.4 41.54 128.93 41.92 128.32 42.19C127.71 42.46 127.02 42.6 126.23 42.6C125.39 42.6 124.64 42.46 123.97 42.17Z" fill="#8BA1CC"/>
<path d="M134.41 42.17C133.74 41.88 133.22 41.48 132.83 40.97C132.44 40.46 132.23 39.87 132.19 39.2H134.07C134.12 39.75 134.38 40.19 134.84 40.54C135.3 40.89 135.9 41.06 136.65 41.06C137.34 41.06 137.89 40.91 138.29 40.6C138.69 40.29 138.89 39.91 138.89 39.44C138.89 38.97 138.68 38.6 138.25 38.37C137.82 38.14 137.16 37.91 136.27 37.68C135.46 37.47 134.79 37.25 134.28 37.03C133.77 36.81 133.33 36.48 132.96 36.05C132.59 35.62 132.41 35.05 132.41 34.34C132.41 33.78 132.58 33.27 132.91 32.8C133.24 32.33 133.72 31.96 134.33 31.69C134.94 31.42 135.64 31.28 136.43 31.28C137.64 31.28 138.62 31.59 139.37 32.2C140.12 32.81 140.52 33.65 140.57 34.72H138.75C138.71 34.15 138.48 33.69 138.06 33.34C137.64 32.99 137.08 32.82 136.37 32.82C135.72 32.82 135.2 32.96 134.81 33.24C134.42 33.52 134.23 33.89 134.23 34.34C134.23 34.7 134.35 35 134.58 35.23C134.81 35.46 135.11 35.65 135.46 35.79C135.81 35.93 136.3 36.09 136.93 36.26C137.72 36.47 138.36 36.68 138.85 36.89C139.34 37.1 139.77 37.41 140.12 37.82C140.47 38.23 140.66 38.77 140.67 39.44C140.67 40.04 140.5 40.58 140.17 41.06C139.84 41.54 139.37 41.92 138.76 42.19C138.15 42.46 137.46 42.6 136.67 42.6C135.83 42.6 135.08 42.46 134.41 42.17Z" fill="#8BA1CC"/>
<path d="M145.22 41.9C144.39 41.43 143.73 40.77 143.26 39.91C142.79 39.05 142.55 38.05 142.55 36.92C142.55 35.79 142.79 34.81 143.28 33.95C143.77 33.09 144.43 32.43 145.27 31.97C146.11 31.51 147.05 31.28 148.09 31.28C149.13 31.28 150.07 31.51 150.91 31.97C151.75 32.43 152.41 33.09 152.9 33.94C153.39 34.79 153.63 35.79 153.63 36.92C153.63 38.05 153.38 39.05 152.88 39.91C152.38 40.77 151.7 41.43 150.85 41.9C150 42.37 149.05 42.6 148.01 42.6C146.97 42.6 146.05 42.37 145.22 41.9ZM149.85 40.54C150.42 40.23 150.89 39.77 151.24 39.16C151.59 38.55 151.77 37.8 151.77 36.92C151.77 36.04 151.6 35.29 151.25 34.68C150.9 34.07 150.45 33.61 149.89 33.31C149.33 33.01 148.72 32.86 148.07 32.86C147.42 32.86 146.79 33.01 146.24 33.31C145.69 33.61 145.24 34.07 144.91 34.68C144.58 35.29 144.41 36.04 144.41 36.92C144.41 37.8 144.57 38.57 144.9 39.18C145.23 39.79 145.66 40.25 146.21 40.55C146.76 40.85 147.36 41 148.01 41C148.66 41 149.28 40.85 149.85 40.54Z" fill="#8BA1CC"/>
<path d="M150.72 498.12C151.78 498.66 152.59 499.43 153.15 500.43C153.71 501.43 154 502.61 154 503.96C154 505.31 153.72 506.49 153.15 507.48C152.59 508.47 151.77 509.23 150.72 509.76C149.66 510.29 148.41 510.55 146.97 510.55H142.85V497.31H146.97C148.42 497.31 149.67 497.58 150.72 498.12ZM150.88 507.78C151.78 506.87 152.23 505.6 152.23 503.97C152.23 502.34 151.78 501.04 150.87 500.11C149.97 499.19 148.66 498.72 146.97 498.72H144.58V509.13H146.97C148.68 509.13 149.99 508.68 150.88 507.77V507.78Z" fill="#424242"/>
<path d="M158.17 510.07C157.38 509.63 156.76 509 156.31 508.18C155.86 507.36 155.64 506.42 155.64 505.34C155.64 504.26 155.87 503.34 156.33 502.52C156.79 501.7 157.42 501.08 158.22 500.64C159.02 500.2 159.91 499.98 160.9 499.98C161.89 499.98 162.78 500.2 163.58 500.64C164.38 501.08 165.01 501.7 165.47 502.51C165.93 503.32 166.16 504.26 166.16 505.34C166.16 506.42 165.92 507.36 165.45 508.18C164.97 509 164.33 509.63 163.52 510.07C162.71 510.51 161.81 510.74 160.82 510.74C159.83 510.74 158.96 510.52 158.17 510.07ZM162.57 508.77C163.11 508.48 163.55 508.04 163.89 507.46C164.23 506.88 164.39 506.17 164.39 505.33C164.39 504.49 164.22 503.78 163.9 503.2C163.57 502.62 163.14 502.18 162.61 501.9C162.08 501.61 161.5 501.47 160.88 501.47C160.26 501.47 159.67 501.61 159.14 501.9C158.61 502.19 158.19 502.62 157.88 503.2C157.56 503.78 157.41 504.49 157.41 505.33C157.41 506.17 157.56 506.89 157.87 507.48C158.18 508.06 158.59 508.5 159.11 508.78C159.63 509.06 160.2 509.21 160.82 509.21C161.44 509.21 162.02 509.06 162.57 508.77Z" fill="#424242"/>
<path d="M171.73 500.57C172.41 500.18 173.19 499.98 174.07 499.98C175.01 499.98 175.85 500.2 176.6 500.65C177.35 501.1 177.94 501.72 178.37 502.52C178.8 503.32 179.02 504.26 179.02 505.32C179.02 506.38 178.8 507.31 178.37 508.13C177.94 508.95 177.35 509.59 176.59 510.05C175.83 510.51 175 510.73 174.07 510.73C173.14 510.73 172.38 510.53 171.7 510.14C171.02 509.75 170.51 509.25 170.17 508.64V510.56H168.44V496.5H170.17V502.09C170.53 501.47 171.05 500.96 171.73 500.57ZM176.76 503.26C176.44 502.68 176.02 502.23 175.48 501.93C174.94 501.63 174.35 501.47 173.7 501.47C173.05 501.47 172.48 501.63 171.94 501.94C171.4 502.25 170.97 502.7 170.65 503.29C170.33 503.88 170.17 504.56 170.17 505.33C170.17 506.1 170.33 506.8 170.65 507.39C170.97 507.98 171.4 508.43 171.94 508.74C172.48 509.05 173.06 509.21 173.7 509.21C174.34 509.21 174.94 509.05 175.48 508.74C176.02 508.43 176.44 507.98 176.76 507.39C177.08 506.8 177.23 506.11 177.23 505.31C177.23 504.51 177.07 503.84 176.76 503.26Z" fill="#424242"/>
<path d="M184.31 500.45C184.87 500.12 185.56 499.96 186.37 499.96V501.75H185.91C183.97 501.75 183 502.8 183 504.9V510.56H181.27V500.15H183V501.84C183.3 501.24 183.74 500.78 184.3 500.45H184.31Z" fill="#424242"/>
<path d="M197.81 506H189.49C189.55 507.03 189.91 507.83 190.54 508.4C191.18 508.98 191.96 509.26 192.87 509.26C193.62 509.26 194.24 509.09 194.74 508.74C195.24 508.39 195.59 507.93 195.79 507.34H197.65C197.37 508.34 196.81 509.15 195.98 509.78C195.15 510.41 194.1 510.72 192.86 510.72C191.87 510.72 190.99 510.5 190.21 510.05C189.43 509.6 188.82 508.98 188.38 508.16C187.94 507.34 187.72 506.4 187.72 505.32C187.72 504.24 187.93 503.3 188.36 502.49C188.79 501.68 189.4 501.06 190.17 500.62C190.95 500.18 191.85 499.96 192.86 499.96C193.87 499.96 194.72 500.18 195.48 500.61C196.24 501.04 196.83 501.63 197.24 502.39C197.65 503.15 197.86 504 197.86 504.94C197.86 505.27 197.84 505.62 197.8 505.99L197.81 506ZM195.65 502.89C195.36 502.41 194.96 502.05 194.46 501.81C193.96 501.56 193.41 501.44 192.8 501.44C191.92 501.44 191.18 501.72 190.57 502.28C189.95 502.84 189.6 503.61 189.52 504.6H196.09C196.09 503.94 195.94 503.37 195.65 502.9V502.89Z" fill="#424242"/>
<path d="M205.22 502.51C205.65 501.71 206.24 501.08 207 500.64C207.76 500.2 208.59 499.97 209.52 499.97C210.45 499.97 211.23 500.17 211.9 500.56C212.57 500.95 213.07 501.45 213.4 502.04V500.14H215.15V510.55H213.4V508.61C213.06 509.22 212.55 509.72 211.87 510.12C211.19 510.52 210.4 510.72 209.5 510.72C208.6 510.72 207.74 510.49 206.99 510.04C206.24 509.58 205.65 508.94 205.22 508.12C204.79 507.3 204.57 506.36 204.57 505.31C204.57 504.26 204.78 503.31 205.22 502.51ZM212.92 503.28C212.6 502.7 212.18 502.25 211.64 501.94C211.1 501.63 210.51 501.47 209.86 501.47C209.21 501.47 208.63 501.62 208.09 501.93C207.56 502.23 207.13 502.68 206.82 503.26C206.51 503.84 206.35 504.53 206.35 505.31C206.35 506.09 206.51 506.8 206.82 507.39C207.14 507.98 207.56 508.43 208.09 508.74C208.62 509.05 209.21 509.21 209.86 509.21C210.51 509.21 211.1 509.05 211.64 508.74C212.18 508.43 212.6 507.98 212.92 507.39C213.24 506.8 213.39 506.11 213.39 505.33C213.39 504.55 213.23 503.86 212.92 503.28Z" fill="#424242"/>
<path d="M226.4 500.58C227.08 500.18 227.86 499.98 228.77 499.98C229.68 499.98 230.53 500.2 231.29 500.65C232.05 501.1 232.64 501.72 233.07 502.52C233.5 503.32 233.72 504.26 233.72 505.32C233.72 506.38 233.51 507.31 233.07 508.13C232.64 508.95 232.05 509.59 231.29 510.05C230.53 510.51 229.7 510.73 228.77 510.73C227.84 510.73 227.1 510.53 226.42 510.13C225.74 509.73 225.23 509.23 224.87 508.64V515.5H223.14V500.15H224.87V502.07C225.21 501.48 225.72 500.98 226.4 500.58ZM231.46 503.26C231.14 502.68 230.72 502.23 230.18 501.93C229.64 501.63 229.05 501.47 228.4 501.47C227.75 501.47 227.18 501.63 226.64 501.94C226.1 502.25 225.67 502.7 225.35 503.29C225.03 503.88 224.87 504.56 224.87 505.33C224.87 506.1 225.03 506.8 225.35 507.39C225.67 507.98 226.1 508.43 226.64 508.74C227.18 509.05 227.76 509.21 228.4 509.21C229.04 509.21 229.64 509.05 230.18 508.74C230.72 508.43 231.14 507.98 231.46 507.39C231.78 506.8 231.93 506.11 231.93 505.31C231.93 504.51 231.77 503.84 231.46 503.26Z" fill="#424242"/>
<path d="M237.88 510.07C237.09 509.63 236.47 509 236.02 508.18C235.57 507.36 235.35 506.42 235.35 505.34C235.35 504.26 235.58 503.34 236.04 502.52C236.5 501.7 237.13 501.08 237.93 500.64C238.73 500.2 239.62 499.98 240.61 499.98C241.6 499.98 242.49 500.2 243.29 500.64C244.09 501.08 244.72 501.7 245.18 502.51C245.64 503.32 245.87 504.26 245.87 505.34C245.87 506.42 245.63 507.36 245.16 508.18C244.69 509 244.04 509.63 243.23 510.07C242.42 510.51 241.52 510.74 240.53 510.74C239.54 510.74 238.67 510.52 237.88 510.07ZM242.27 508.77C242.81 508.48 243.25 508.04 243.59 507.46C243.93 506.88 244.09 506.17 244.09 505.33C244.09 504.49 243.93 503.78 243.6 503.2C243.27 502.62 242.84 502.18 242.31 501.9C241.78 501.61 241.2 501.47 240.58 501.47C239.96 501.47 239.37 501.61 238.84 501.9C238.31 502.19 237.89 502.62 237.58 503.2C237.26 503.78 237.11 504.49 237.11 505.33C237.11 506.17 237.27 506.89 237.58 507.48C237.89 508.06 238.3 508.5 238.82 508.78C239.34 509.06 239.91 509.21 240.53 509.21C241.15 509.21 241.73 509.06 242.28 508.77H242.27Z" fill="#424242"/>
<path d="M256.3 501.11C257.09 501.88 257.48 502.98 257.48 504.43V510.57H255.77V504.68C255.77 503.64 255.51 502.85 254.99 502.3C254.47 501.75 253.76 501.47 252.86 501.47C251.96 501.47 251.22 501.75 250.68 502.32C250.14 502.89 249.87 503.72 249.87 504.81V510.57H248.14V500.16H249.87V501.64C250.21 501.11 250.68 500.7 251.27 500.4C251.86 500.11 252.51 499.96 253.22 499.96C254.49 499.96 255.51 500.34 256.3 501.11Z" fill="#424242"/>
<path d="M262.41 501.57V507.71C262.41 508.22 262.52 508.57 262.73 508.78C262.95 508.99 263.32 509.09 263.85 509.09H265.12V510.55H263.56C262.6 510.55 261.87 510.33 261.39 509.88C260.91 509.44 260.67 508.71 260.67 507.7V501.56H259.32V500.14H260.67V497.52H262.4V500.14H265.12V501.56H262.4L262.41 501.57Z" fill="#424242"/>
<path d="M267.22 502.51C267.65 501.71 268.24 501.08 269 500.64C269.76 500.2 270.59 499.97 271.52 499.97C272.45 499.97 273.22 500.17 273.9 500.56C274.58 500.95 275.07 501.45 275.4 502.04V500.14H277.15V510.55H275.4V508.61C275.06 509.22 274.55 509.72 273.87 510.12C273.19 510.52 272.41 510.72 271.5 510.72C270.59 510.72 269.74 510.49 268.99 510.04C268.24 509.59 267.65 508.94 267.22 508.12C266.79 507.3 266.58 506.36 266.58 505.31C266.58 504.26 266.79 503.31 267.22 502.51ZM274.92 503.28C274.6 502.7 274.18 502.25 273.64 501.94C273.1 501.63 272.51 501.47 271.86 501.47C271.21 501.47 270.63 501.62 270.09 501.93C269.56 502.23 269.13 502.68 268.82 503.26C268.51 503.84 268.35 504.53 268.35 505.31C268.35 506.09 268.51 506.8 268.82 507.39C269.14 507.98 269.56 508.43 270.09 508.74C270.62 509.05 271.21 509.21 271.86 509.21C272.51 509.21 273.1 509.05 273.64 508.74C274.18 508.43 274.6 507.98 274.92 507.39C275.24 506.8 275.39 506.11 275.39 505.33C275.39 504.55 275.23 503.86 274.92 503.28Z" fill="#424242"/>
<path d="M286.68 510.32C286.05 510.05 285.55 509.67 285.18 509.18C284.81 508.69 284.61 508.13 284.57 507.5H286.36C286.41 508.02 286.65 508.44 287.09 508.77C287.53 509.1 288.1 509.26 288.81 509.26C289.47 509.26 289.99 509.11 290.37 508.82C290.75 508.53 290.94 508.16 290.94 507.72C290.94 507.28 290.74 506.93 290.33 506.7C289.92 506.48 289.3 506.26 288.45 506.04C287.68 505.84 287.05 505.63 286.56 505.42C286.07 505.21 285.65 504.9 285.3 504.49C284.95 504.08 284.78 503.54 284.78 502.87C284.78 502.34 284.94 501.85 285.25 501.41C285.56 500.97 286.02 500.62 286.6 500.36C287.18 500.1 287.85 499.97 288.59 499.97C289.74 499.97 290.67 500.26 291.38 500.84C292.09 501.42 292.47 502.22 292.52 503.23H290.79C290.75 502.69 290.53 502.25 290.13 501.92C289.73 501.59 289.2 501.43 288.52 501.43C287.9 501.43 287.4 501.56 287.04 501.83C286.67 502.1 286.49 502.44 286.49 502.87C286.49 503.21 286.6 503.49 286.82 503.72C287.04 503.94 287.32 504.12 287.66 504.25C288 504.38 288.46 504.53 289.06 504.7C289.81 504.9 290.41 505.1 290.88 505.3C291.35 505.5 291.75 505.79 292.09 506.18C292.43 506.57 292.6 507.09 292.61 507.72C292.61 508.29 292.45 508.8 292.13 509.26C291.81 509.72 291.37 510.07 290.79 510.33C290.21 510.59 289.55 510.72 288.8 510.72C288 510.72 287.29 510.58 286.65 510.31L286.68 510.32Z" fill="#424242"/>
<path d="M304.29 500.15V510.56H302.56V509.02C302.23 509.55 301.77 509.97 301.18 510.26C300.59 510.56 299.94 510.71 299.23 510.71C298.42 510.71 297.69 510.54 297.04 510.21C296.39 509.88 295.88 509.37 295.51 508.7C295.14 508.03 294.95 507.21 294.95 506.25V500.15H296.66V506.02C296.66 507.05 296.92 507.83 297.44 508.39C297.96 508.94 298.67 509.22 299.57 509.22C300.47 509.22 301.22 508.93 301.76 508.36C302.29 507.79 302.56 506.96 302.56 505.87V500.15H304.29Z" fill="#424242"/>
<path d="M310.47 500.58C311.15 500.18 311.93 499.98 312.84 499.98C313.75 499.98 314.6 500.2 315.36 500.65C316.12 501.1 316.71 501.72 317.14 502.52C317.57 503.32 317.79 504.26 317.79 505.32C317.79 506.38 317.58 507.31 317.14 508.13C316.71 508.95 316.12 509.59 315.36 510.05C314.6 510.51 313.77 510.73 312.84 510.73C311.91 510.73 311.17 510.53 310.49 510.13C309.81 509.73 309.3 509.23 308.94 508.64V515.5H307.21V500.15H308.94V502.07C309.28 501.48 309.79 500.98 310.47 500.58ZM315.54 503.26C315.22 502.68 314.8 502.23 314.26 501.93C313.72 501.63 313.13 501.47 312.48 501.47C311.83 501.47 311.26 501.63 310.72 501.94C310.18 502.25 309.75 502.7 309.43 503.29C309.11 503.88 308.95 504.56 308.95 505.33C308.95 506.1 309.11 506.8 309.43 507.39C309.75 507.98 310.18 508.43 310.72 508.74C311.26 509.05 311.84 509.21 312.48 509.21C313.12 509.21 313.72 509.05 314.26 508.74C314.8 508.43 315.22 507.98 315.54 507.39C315.86 506.8 316.01 506.11 316.01 505.31C316.01 504.51 315.85 503.84 315.54 503.26Z" fill="#424242"/>
<path d="M329.5 506H321.18C321.24 507.03 321.59 507.83 322.23 508.4C322.87 508.98 323.64 509.26 324.56 509.26C325.31 509.26 325.93 509.09 326.43 508.74C326.93 508.39 327.28 507.93 327.48 507.34H329.34C329.06 508.34 328.5 509.15 327.67 509.78C326.84 510.41 325.79 510.72 324.55 510.72C323.56 510.72 322.68 510.5 321.9 510.05C321.12 509.6 320.51 508.98 320.07 508.16C319.62 507.34 319.4 506.4 319.4 505.32C319.4 504.24 319.61 503.3 320.05 502.49C320.48 501.68 321.09 501.06 321.86 500.62C322.64 500.18 323.53 499.96 324.55 499.96C325.57 499.96 326.41 500.18 327.17 500.61C327.93 501.04 328.52 501.63 328.93 502.39C329.34 503.14 329.55 504 329.55 504.94C329.55 505.27 329.53 505.62 329.49 505.99L329.5 506ZM327.34 502.89C327.05 502.41 326.65 502.05 326.15 501.81C325.65 501.56 325.1 501.44 324.49 501.44C323.62 501.44 322.87 501.72 322.26 502.28C321.65 502.84 321.3 503.61 321.21 504.6H327.78C327.78 503.94 327.64 503.37 327.34 502.9V502.89Z" fill="#424242"/>
<path d="M334.87 500.45C335.43 500.12 336.12 499.96 336.93 499.96V501.75H336.47C334.53 501.75 333.56 502.8 333.56 504.9V510.56H331.83V500.15H333.56V501.84C333.86 501.24 334.3 500.78 334.86 500.45H334.87Z" fill="#424242"/>
<path d="M338.98 498.11C338.75 497.88 338.64 497.6 338.64 497.27C338.64 496.94 338.76 496.66 338.98 496.43C339.21 496.2 339.49 496.09 339.82 496.09C340.15 496.09 340.4 496.2 340.63 496.43C340.85 496.66 340.96 496.94 340.96 497.27C340.96 497.6 340.85 497.88 340.63 498.11C340.41 498.34 340.14 498.45 339.82 498.45C339.5 498.45 339.21 498.34 338.98 498.11ZM340.66 500.15V510.56H338.93V500.15H340.66Z" fill="#424242"/>
<path d="M345.49 510.07C344.7 509.63 344.08 509 343.63 508.18C343.18 507.36 342.96 506.42 342.96 505.34C342.96 504.26 343.19 503.34 343.65 502.52C344.11 501.7 344.74 501.08 345.54 500.64C346.34 500.2 347.23 499.98 348.22 499.98C349.21 499.98 350.1 500.2 350.9 500.64C351.7 501.08 352.33 501.7 352.79 502.51C353.25 503.32 353.48 504.26 353.48 505.34C353.48 506.42 353.24 507.36 352.77 508.18C352.3 509 351.65 509.63 350.84 510.07C350.03 510.51 349.13 510.74 348.14 510.74C347.15 510.74 346.28 510.52 345.49 510.07ZM349.89 508.77C350.43 508.48 350.87 508.04 351.21 507.46C351.55 506.88 351.71 506.17 351.71 505.33C351.71 504.49 351.55 503.78 351.22 503.2C350.89 502.62 350.46 502.18 349.93 501.9C349.4 501.61 348.82 501.47 348.2 501.47C347.58 501.47 346.99 501.61 346.46 501.9C345.93 502.19 345.51 502.62 345.2 503.2C344.88 503.78 344.73 504.49 344.73 505.33C344.73 506.17 344.89 506.89 345.2 507.48C345.51 508.06 345.92 508.5 346.44 508.78C346.96 509.06 347.53 509.21 348.15 509.21C348.77 509.21 349.35 509.06 349.9 508.77H349.89Z" fill="#424242"/>
<path d="M358.79 500.45C359.35 500.12 360.04 499.96 360.85 499.96V501.75H360.39C358.45 501.75 357.48 502.8 357.48 504.9V510.56H355.75V500.15H357.48V501.84C357.78 501.24 358.22 500.78 358.78 500.45H358.79Z" fill="#424242"/>
<path d="M371.18 500.58C371.86 500.18 372.65 499.98 373.55 499.98C374.45 499.98 375.31 500.2 376.07 500.65C376.83 501.1 377.42 501.72 377.85 502.52C378.28 503.32 378.5 504.26 378.5 505.32C378.5 506.38 378.28 507.31 377.85 508.13C377.42 508.95 376.83 509.59 376.07 510.05C375.31 510.51 374.48 510.73 373.55 510.73C372.62 510.73 371.88 510.53 371.2 510.13C370.52 509.73 370.01 509.23 369.65 508.64V515.5H367.92V500.15H369.65V502.07C369.99 501.48 370.5 500.98 371.18 500.58ZM376.24 503.26C375.92 502.68 375.5 502.23 374.96 501.93C374.42 501.63 373.83 501.47 373.18 501.47C372.53 501.47 371.96 501.63 371.42 501.94C370.88 502.25 370.45 502.7 370.13 503.29C369.81 503.88 369.65 504.56 369.65 505.33C369.65 506.1 369.81 506.8 370.13 507.39C370.45 507.98 370.88 508.43 371.42 508.74C371.96 509.05 372.54 509.21 373.18 509.21C373.82 509.21 374.42 509.05 374.96 508.74C375.5 508.43 375.92 507.98 376.24 507.39C376.56 506.8 376.71 506.11 376.71 505.31C376.71 504.51 376.55 503.84 376.24 503.26Z" fill="#424242"/>
<path d="M380.76 502.51C381.19 501.71 381.78 501.08 382.54 500.64C383.3 500.2 384.13 499.97 385.06 499.97C385.99 499.97 386.77 500.17 387.44 500.56C388.11 500.95 388.61 501.45 388.94 502.04V500.14H390.69V510.55H388.94V508.61C388.6 509.22 388.09 509.72 387.41 510.12C386.73 510.52 385.94 510.72 385.04 510.72C384.14 510.72 383.28 510.49 382.53 510.04C381.78 509.58 381.19 508.94 380.76 508.12C380.33 507.3 380.11 506.36 380.11 505.31C380.11 504.26 380.32 503.31 380.76 502.51ZM388.46 503.28C388.14 502.7 387.72 502.25 387.18 501.94C386.64 501.63 386.05 501.47 385.4 501.47C384.75 501.47 384.17 501.62 383.63 501.93C383.1 502.23 382.67 502.68 382.36 503.26C382.05 503.84 381.89 504.53 381.89 505.31C381.89 506.09 382.05 506.8 382.36 507.39C382.68 507.98 383.1 508.43 383.63 508.74C384.16 509.05 384.75 509.21 385.4 509.21C386.05 509.21 386.64 509.05 387.18 508.74C387.72 508.43 388.14 507.98 388.46 507.39C388.78 506.8 388.93 506.11 388.93 505.33C388.93 504.55 388.77 503.86 388.46 503.28Z" fill="#424242"/>
<path d="M396.64 500.45C397.2 500.12 397.89 499.96 398.7 499.96V501.75H398.24C396.3 501.75 395.33 502.8 395.33 504.9V510.56H393.6V500.15H395.33V501.84C395.63 501.24 396.07 500.78 396.63 500.45H396.64Z" fill="#424242"/>
<path d="M400.69 502.51C401.12 501.71 401.71 501.08 402.47 500.64C403.23 500.2 404.06 499.97 404.99 499.97C405.92 499.97 406.69 500.17 407.37 500.56C408.05 500.95 408.54 501.45 408.87 502.04V500.14H410.62V510.55H408.87V508.61C408.53 509.22 408.02 509.72 407.34 510.12C406.66 510.52 405.88 510.72 404.97 510.72C404.06 510.72 403.21 510.49 402.46 510.04C401.71 509.59 401.12 508.94 400.69 508.12C400.26 507.3 400.05 506.36 400.05 505.31C400.05 504.26 400.26 503.31 400.69 502.51ZM408.39 503.28C408.07 502.7 407.65 502.25 407.11 501.94C406.57 501.63 405.98 501.47 405.33 501.47C404.68 501.47 404.1 501.62 403.56 501.93C403.03 502.23 402.6 502.68 402.29 503.26C401.98 503.84 401.82 504.53 401.82 505.31C401.82 506.09 401.98 506.8 402.29 507.39C402.61 507.98 403.03 508.43 403.56 508.74C404.09 509.05 404.68 509.21 405.33 509.21C405.98 509.21 406.57 509.05 407.11 508.74C407.65 508.43 408.07 507.98 408.39 507.39C408.71 506.8 408.86 506.11 408.86 505.33C408.86 504.55 408.7 503.86 408.39 503.28Z" fill="#424242"/>
<path d="M421.9 500.57C422.58 500.18 423.36 499.98 424.24 499.98C425.18 499.98 426.02 500.2 426.77 500.65C427.52 501.1 428.11 501.72 428.54 502.52C428.97 503.32 429.19 504.26 429.19 505.32C429.19 506.38 428.97 507.31 428.54 508.13C428.11 508.95 427.52 509.59 426.76 510.05C426 510.51 425.17 510.73 424.24 510.73C423.31 510.73 422.55 510.53 421.87 510.14C421.19 509.75 420.68 509.25 420.34 508.64V510.56H418.61V496.5H420.34V502.09C420.7 501.47 421.22 500.96 421.9 500.57ZM426.93 503.26C426.61 502.68 426.19 502.23 425.65 501.93C425.11 501.63 424.52 501.47 423.87 501.47C423.22 501.47 422.65 501.63 422.11 501.94C421.57 502.25 421.14 502.7 420.82 503.29C420.5 503.88 420.34 504.56 420.34 505.33C420.34 506.1 420.5 506.8 420.82 507.39C421.14 507.98 421.57 508.43 422.11 508.74C422.65 509.05 423.23 509.21 423.87 509.21C424.51 509.21 425.11 509.05 425.65 508.74C426.19 508.43 426.61 507.98 426.93 507.39C427.25 506.8 427.4 506.11 427.4 505.31C427.4 504.51 427.24 503.84 426.93 503.26Z" fill="#424242"/>
<path d="M431.46 502.51C431.89 501.71 432.48 501.08 433.24 500.64C434 500.2 434.83 499.97 435.76 499.97C436.69 499.97 437.47 500.17 438.14 500.56C438.81 500.95 439.31 501.45 439.64 502.04V500.14H441.39V510.55H439.64V508.61C439.3 509.22 438.79 509.72 438.11 510.12C437.43 510.52 436.64 510.72 435.74 510.72C434.84 510.72 433.98 510.49 433.23 510.04C432.48 509.58 431.89 508.94 431.46 508.12C431.03 507.3 430.81 506.36 430.81 505.31C430.81 504.26 431.02 503.31 431.46 502.51ZM439.15 503.28C438.83 502.7 438.41 502.25 437.87 501.94C437.33 501.63 436.74 501.47 436.09 501.47C435.44 501.47 434.86 501.62 434.32 501.93C433.79 502.23 433.36 502.68 433.05 503.26C432.74 503.84 432.58 504.53 432.58 505.31C432.58 506.09 432.74 506.8 433.05 507.39C433.37 507.98 433.79 508.43 434.32 508.74C434.85 509.05 435.44 509.21 436.09 509.21C436.74 509.21 437.33 509.05 437.87 508.74C438.41 508.43 438.83 507.98 439.15 507.39C439.47 506.8 439.62 506.11 439.62 505.33C439.62 504.55 439.46 503.86 439.15 503.28Z" fill="#424242"/>
<path d="M444.36 498.11C444.13 497.88 444.02 497.6 444.02 497.27C444.02 496.94 444.14 496.66 444.36 496.43C444.59 496.2 444.87 496.09 445.2 496.09C445.53 496.09 445.78 496.2 446.01 496.43C446.23 496.66 446.34 496.94 446.34 497.27C446.34 497.6 446.23 497.88 446.01 498.11C445.79 498.34 445.52 498.45 445.2 498.45C444.88 498.45 444.59 498.34 444.36 498.11ZM446.03 500.15V510.56H444.3V500.15H446.03Z" fill="#424242"/>
<path d="M454.41 510.56L451.94 506.68L449.56 510.56H447.76L451.12 505.39L447.76 500.15H449.72L452.19 504.01L454.55 500.15H456.35L453.01 505.3L456.37 510.56H454.41Z" fill="#424242"/>
<path d="M459.96 510.07C459.17 509.63 458.55 509 458.1 508.18C457.65 507.36 457.43 506.42 457.43 505.34C457.43 504.26 457.66 503.34 458.12 502.52C458.58 501.7 459.21 501.08 460.01 500.64C460.81 500.2 461.7 499.98 462.69 499.98C463.68 499.98 464.57 500.2 465.37 500.64C466.17 501.08 466.8 501.7 467.26 502.51C467.72 503.32 467.95 504.26 467.95 505.34C467.95 506.42 467.71 507.36 467.24 508.18C466.76 509 466.12 509.63 465.31 510.07C464.5 510.51 463.6 510.74 462.61 510.74C461.62 510.74 460.75 510.52 459.96 510.07ZM464.36 508.77C464.9 508.48 465.34 508.04 465.68 507.46C466.02 506.88 466.18 506.17 466.18 505.33C466.18 504.49 466.01 503.78 465.69 503.2C465.36 502.62 464.93 502.18 464.4 501.9C463.87 501.61 463.29 501.47 462.67 501.47C462.05 501.47 461.46 501.61 460.93 501.9C460.4 502.19 459.98 502.62 459.67 503.2C459.35 503.78 459.2 504.49 459.2 505.33C459.2 506.17 459.35 506.89 459.66 507.48C459.97 508.06 460.38 508.5 460.9 508.78C461.42 509.06 461.99 509.21 462.61 509.21C463.23 509.21 463.81 509.06 464.36 508.77Z" fill="#424242"/>
<path d="M296.32 134.52L196.85 234.95L284.15 425.49L306.36 423.47L390.28 234.95L296.32 134.52Z" fill="#CCCCCC"/>
<path d="M173.42 136.52L119.86 310.59L293.93 434.45L173.42 136.52Z" fill="#CCCCCC"/>
<path d="M412.44 136.52L466 310.59L291.93 434.45L412.44 136.52Z" fill="#CCCCCC"/>
<path d="M294.32 131.52L194.85 231.95L282.15 422.49L304.36 420.47L388.28 231.95L294.32 131.52Z" fill="white" stroke="#E0E0E0" stroke-miterlimit="10"/>
<path d="M173.42 131.52L119.86 305.59L293.93 429.45L173.42 131.52Z" fill="white" stroke="#E0E0E0" stroke-miterlimit="10"/>
<path d="M416.44 127.52L470 301.59L295.93 425.45L416.44 127.52Z" fill="white" stroke="#E0E0E0" stroke-miterlimit="10"/>
<path d="M210.17 220.15H373.85" stroke="#8BA1CC" stroke-width="2"/>
<path d="M297.58 169.66C297.58 169.66 258.6 202.47 282.36 248.55" stroke="#8BA1CC" stroke-width="2"/>
<path d="M288.63 258.87C283.92 255.06 277.23 250.84 271.72 249.03L281.65 247.13L288.07 239.31C287.03 245.01 287.54 252.91 288.63 258.86V258.87Z" fill="#8BA1CC"/>
</svg>
