<svg width="99" height="178" viewBox="0 0 99 178" fill="none" xmlns="http://www.w3.org/2000/svg">
<path d="M98.48 171.53H0.27002L2.56002 177.5H97.56L98.48 171.53Z" fill="#AF7B81"/>
<path d="M94.16 0.109985H4.58002C2.19967 0.109985 0.27002 2.03964 0.27002 4.41998V168.95C0.27002 171.33 2.19967 173.26 4.58002 173.26H94.16C96.5404 173.26 98.47 171.33 98.47 168.95V4.41998C98.47 2.03964 96.5404 0.109985 94.16 0.109985Z" fill="#F2C9CB"/>
<path opacity="0.09" d="M0.330017 30.69C0.330017 30.69 4.82001 12.62 51.32 13.46C97.82 14.3 97.9 30.55 97.9 30.55L98.41 0.749985L1.06002 0.509979L0.340017 30.69H0.330017Z" fill="#1A1515"/>
<path d="M49.37 159.51C60.4157 159.51 69.37 150.556 69.37 139.51C69.37 128.464 60.4157 119.51 49.37 119.51C38.3243 119.51 29.37 128.464 29.37 139.51C29.37 150.556 38.3243 159.51 49.37 159.51Z" fill="#F9F9F9"/>
<path d="M50.19 145.24V136.8C48.62 138.01 47.56 138.61 47.02 138.61C46.76 138.61 46.53 138.51 46.33 138.3C46.13 138.09 46.03 137.85 46.03 137.58C46.03 137.26 46.13 137.03 46.33 136.88C46.53 136.73 46.88 136.54 47.38 136.31C48.13 135.96 48.73 135.59 49.17 135.2C49.62 134.81 50.02 134.37 50.36 133.89C50.71 133.41 50.93 133.11 51.04 133C51.14 132.89 51.34 132.83 51.63 132.83C51.96 132.83 52.22 132.95 52.42 133.21C52.62 133.46 52.72 133.81 52.72 134.26V144.88C52.72 146.12 52.3 146.75 51.45 146.75C51.07 146.75 50.77 146.62 50.54 146.37C50.31 146.12 50.2 145.74 50.2 145.25L50.19 145.24Z" fill="#BC7455"/>
<path d="M35.94 16.28H40.77C42.03 16.28 43.1 16.4 44 16.63C44.9 16.86 45.71 17.3 46.45 17.94C48.36 19.57 49.31 22.05 49.31 25.38C49.31 26.48 49.21 27.48 49.02 28.39C48.83 29.3 48.53 30.11 48.13 30.84C47.73 31.57 47.22 32.22 46.59 32.79C46.1 33.23 45.56 33.58 44.98 33.85C44.4 34.12 43.77 34.3 43.1 34.41C42.43 34.52 41.67 34.57 40.83 34.57H36C35.33 34.57 34.82 34.47 34.48 34.26C34.14 34.05 33.92 33.77 33.81 33.4C33.71 33.03 33.65 32.55 33.65 31.96V18.54C33.65 17.74 33.83 17.16 34.19 16.81C34.55 16.45 35.13 16.27 35.92 16.27L35.94 16.28ZM37.37 19.22V31.64H40.18C40.8 31.64 41.28 31.62 41.63 31.59C41.98 31.56 42.34 31.47 42.72 31.34C43.09 31.21 43.42 31.02 43.69 30.78C44.93 29.73 45.55 27.93 45.55 25.36C45.55 23.55 45.28 22.2 44.73 21.3C44.18 20.4 43.51 19.83 42.71 19.58C41.91 19.33 40.95 19.21 39.81 19.21H37.36L37.37 19.22Z" fill="#BC7455"/>
<path d="M65.08 27.97C65.08 28.99 64.92 29.92 64.61 30.78C64.29 31.64 63.84 32.37 63.24 32.99C62.64 33.61 61.93 34.08 61.09 34.41C60.26 34.74 59.32 34.9 58.28 34.9C57.24 34.9 56.32 34.73 55.5 34.4C54.68 34.07 53.96 33.59 53.36 32.97C52.76 32.35 52.3 31.62 51.99 30.77C51.68 29.93 51.52 28.99 51.52 27.97C51.52 26.95 51.68 25.99 51.99 25.14C52.31 24.28 52.76 23.55 53.35 22.94C53.94 22.33 54.66 21.86 55.5 21.54C56.34 21.21 57.27 21.05 58.28 21.05C59.29 21.05 60.25 21.22 61.09 21.55C61.93 21.88 62.65 22.36 63.25 22.97C63.85 23.58 64.3 24.32 64.62 25.17C64.94 26.02 65.09 26.96 65.09 27.98L65.08 27.97ZM61.66 27.97C61.66 26.58 61.35 25.5 60.74 24.72C60.13 23.95 59.31 23.56 58.27 23.56C57.6 23.56 57.02 23.73 56.51 24.08C56 24.42 55.61 24.93 55.34 25.61C55.07 26.28 54.93 27.07 54.93 27.97C54.93 28.87 55.06 29.64 55.34 30.3C55.61 30.97 56 31.48 56.5 31.83C57 32.18 57.6 32.36 58.28 32.36C59.31 32.36 60.13 31.97 60.75 31.19C61.36 30.41 61.67 29.34 61.67 27.96L61.66 27.97ZM58.67 16.14H60.36C60.78 16.14 61 16.2 61 16.33C61 16.4 60.77 16.67 60.3 17.14C59.83 17.61 59.36 18.07 58.89 18.5C58.42 18.93 58.09 19.2 57.9 19.29C57.43 19.53 56.92 19.65 56.38 19.65C56.02 19.65 55.84 19.55 55.84 19.34C55.84 19.2 55.95 18.95 56.16 18.6L56.72 17.55C57.04 16.94 57.33 16.56 57.57 16.39C57.81 16.22 58.18 16.14 58.67 16.14Z" fill="#BC7455"/>
</svg>
