<svg width="99" height="178" viewBox="0 0 99 178" fill="none" xmlns="http://www.w3.org/2000/svg">
<path d="M98.33 171.53H0.130005L2.42001 177.5H97.42L98.34 171.53H98.33Z" fill="#A0CDA3"/>
<path d="M94.01 0.109985H4.42999C2.04965 0.109985 0.119995 2.03964 0.119995 4.41998V168.95C0.119995 171.33 2.04965 173.26 4.42999 173.26H94.01C96.3904 173.26 98.32 171.33 98.32 168.95V4.41998C98.32 2.03964 96.3904 0.109985 94.01 0.109985Z" fill="#D9FFD9"/>
<path opacity="0.09" d="M0.189941 30.69C0.189941 30.69 4.67993 12.62 51.1799 13.46C97.6799 14.3 97.7599 30.55 97.7599 30.55L98.2699 0.749985L0.919952 0.509979L0.199951 30.69H0.189941Z" fill="#1A1515"/>
<path d="M49.23 159.51C60.2757 159.51 69.23 150.556 69.23 139.51C69.23 128.464 60.2757 119.51 49.23 119.51C38.1843 119.51 29.23 128.464 29.23 139.51C29.23 150.556 38.1843 159.51 49.23 159.51Z" fill="#F9F9F9"/>
<path d="M50.29 144.42V142.69H45.63C45.04 142.69 44.6 142.56 44.31 142.29C44.02 142.02 43.87 141.66 43.87 141.2C43.87 141.08 43.89 140.96 43.93 140.84C43.97 140.72 44.04 140.59 44.13 140.46C44.22 140.33 44.31 140.2 44.4 140.08C44.49 139.96 44.61 139.8 44.74 139.63L49.66 133.05C49.98 132.62 50.25 132.3 50.45 132.11C50.66 131.91 50.91 131.82 51.2 131.82C52.14 131.82 52.61 132.36 52.61 133.44V140.62H53.01C53.49 140.62 53.87 140.69 54.16 140.82C54.45 140.95 54.59 141.23 54.59 141.67C54.59 142.03 54.47 142.29 54.24 142.45C54.01 142.61 53.65 142.7 53.18 142.7H52.61V144.43C52.61 144.91 52.5 145.26 52.29 145.49C52.08 145.72 51.8 145.84 51.45 145.84C51.1 145.84 50.82 145.72 50.61 145.48C50.4 145.24 50.29 144.89 50.29 144.43V144.42ZM46.3 140.62H50.29V135.23L46.3 140.62Z" fill="#71B571"/>
<path d="M46.42 20.45H39.12V25.13H45.22C45.79 25.13 46.21 25.26 46.49 25.51C46.77 25.76 46.91 26.1 46.91 26.53C46.91 26.96 46.77 27.29 46.49 27.54C46.21 27.79 45.79 27.91 45.23 27.91H39.13V33.94C39.13 34.71 38.96 35.27 38.61 35.64C38.26 36.01 37.82 36.2 37.28 36.2C36.74 36.2 36.28 36.01 35.94 35.64C35.59 35.27 35.42 34.7 35.42 33.94V19.86C35.42 19.33 35.5 18.89 35.66 18.56C35.82 18.23 36.07 17.98 36.4 17.82C36.74 17.67 37.17 17.59 37.69 17.59H46.43C47.02 17.59 47.46 17.72 47.75 17.98C48.04 18.24 48.18 18.59 48.18 19.01C48.18 19.43 48.04 19.79 47.75 20.05C47.46 20.31 47.02 20.44 46.43 20.44L46.42 20.45Z" fill="#71B571"/>
<path d="M59.3 34.28C58.48 34.92 57.6801 35.4 56.9101 35.72C56.1401 36.04 55.2801 36.2 54.3201 36.2C53.4501 36.2 52.6801 36.03 52.0201 35.68C51.36 35.34 50.8501 34.87 50.4901 34.28C50.1301 33.69 49.9501 33.05 49.9501 32.36C49.9501 31.43 50.2501 30.63 50.8401 29.98C51.4301 29.33 52.2401 28.88 53.2701 28.66C53.4901 28.61 54.0201 28.5 54.8801 28.32C55.7401 28.14 56.47 27.99 57.08 27.84C57.69 27.69 58.3501 27.52 59.0701 27.31C59.0301 26.41 58.8501 25.75 58.5301 25.33C58.2101 24.91 57.5501 24.7 56.5401 24.7C55.6701 24.7 55.0201 24.82 54.5901 25.06C54.1501 25.3 53.7801 25.66 53.4701 26.15C53.1601 26.64 52.9401 26.95 52.8101 27.11C52.6801 27.27 52.4001 27.34 51.9801 27.34C51.6001 27.34 51.2701 27.22 50.9901 26.97C50.7101 26.72 50.5701 26.41 50.5701 26.03C50.5701 25.43 50.7801 24.85 51.2101 24.28C51.6401 23.71 52.3001 23.25 53.1901 22.88C54.0901 22.51 55.21 22.33 56.55 22.33C58.05 22.33 59.22 22.51 60.08 22.86C60.94 23.21 61.5401 23.77 61.9001 24.54C62.2601 25.31 62.4301 26.32 62.4301 27.59C62.4301 28.39 62.4301 29.07 62.4301 29.62C62.4301 30.18 62.4201 30.8 62.4101 31.48C62.4101 32.12 62.5201 32.79 62.7301 33.48C62.9401 34.17 63.05 34.62 63.05 34.82C63.05 35.17 62.8901 35.49 62.5601 35.78C62.2301 36.07 61.8601 36.21 61.4401 36.21C61.0901 36.21 60.7401 36.04 60.4001 35.72C60.0601 35.39 59.7001 34.91 59.3101 34.29L59.3 34.28ZM59.08 29.35C58.58 29.53 57.8501 29.73 56.9001 29.93C55.9501 30.13 55.2901 30.28 54.9201 30.38C54.5501 30.48 54.2001 30.66 53.8701 30.94C53.5401 31.22 53.3701 31.61 53.3701 32.11C53.3701 32.61 53.5701 33.07 53.9601 33.43C54.3501 33.79 54.8601 33.97 55.5001 33.97C56.1701 33.97 56.8001 33.82 57.3701 33.53C57.9401 33.24 58.3601 32.85 58.6201 32.39C58.9301 31.87 59.08 31.02 59.08 29.84V29.35ZM57.0301 17.45H58.7201C59.1401 17.45 59.36 17.51 59.36 17.64C59.36 17.71 59.1301 17.98 58.6601 18.45C58.1901 18.92 57.7201 19.38 57.2501 19.81C56.7801 20.24 56.4501 20.51 56.2601 20.6C55.7901 20.84 55.2801 20.96 54.7401 20.96C54.3801 20.96 54.2001 20.86 54.2001 20.65C54.2001 20.51 54.3101 20.26 54.5201 19.91L55.08 18.86C55.4 18.25 55.6901 17.87 55.9301 17.7C56.1701 17.53 56.5401 17.45 57.0301 17.45Z" fill="#71B571"/>
</svg>
