<svg width="99" height="184" viewBox="0 0 99 184" fill="none" xmlns="http://www.w3.org/2000/svg">
<path d="M93.5799 0.26001H4.85992C2.47958 0.26001 0.549927 2.18966 0.549927 4.57001V169.1C0.549927 171.48 2.47958 173.41 4.85992 173.41H93.5799C95.9603 173.41 97.89 171.48 97.89 169.1V4.57001C97.89 2.18966 95.9603 0.26001 93.5799 0.26001Z" fill="#C0F2C3"/>
<path d="M97.8999 171.68H0.559937L3.72995 183.74H94.7399L97.9099 171.68H97.8999Z" fill="#A0CDA3"/>
<path opacity="0.09" d="M0.189941 30.83C0.189941 30.83 4.67993 12.76 51.1799 13.6C97.6799 14.44 97.7599 30.69 97.7599 30.69L98.2699 0.890024L0.919952 0.650024L0.199951 30.83H0.189941Z" fill="#1A1515"/>
<path d="M49.23 159.65C60.2757 159.65 69.23 150.696 69.23 139.65C69.23 128.604 60.2757 119.65 49.23 119.65C38.1843 119.65 29.23 128.604 29.23 139.65C29.23 150.696 38.1843 159.65 49.23 159.65Z" fill="#F9F9F9"/>
<path d="M49.8099 144.68V142.95H45.1499C44.5599 142.95 44.1199 142.82 43.8299 142.55C43.5399 142.28 43.3899 141.92 43.3899 141.46C43.3899 141.34 43.4099 141.22 43.4499 141.1C43.4899 140.98 43.5599 140.85 43.6499 140.72C43.7399 140.59 43.8299 140.46 43.9199 140.34C44.0099 140.22 44.1299 140.06 44.2599 139.89L49.1799 133.31C49.4999 132.88 49.7699 132.56 49.9699 132.37C50.1799 132.17 50.4299 132.08 50.7199 132.08C51.6599 132.08 52.1299 132.62 52.1299 133.7V140.88H52.5299C53.0099 140.88 53.3899 140.95 53.6799 141.08C53.9699 141.21 54.1099 141.49 54.1099 141.93C54.1099 142.29 53.9899 142.55 53.7599 142.71C53.5299 142.87 53.1699 142.96 52.6999 142.96H52.1299V144.69C52.1299 145.17 52.0199 145.52 51.8099 145.75C51.5999 145.98 51.3199 146.1 50.9699 146.1C50.6199 146.1 50.3399 145.98 50.1299 145.74C49.9199 145.5 49.8099 145.15 49.8099 144.69V144.68ZM45.8199 140.88H49.8099V135.49L45.8199 140.88Z" fill="#A7D1A8"/>
<path d="M46.4199 18.3H39.1199V22.98H45.2199C45.7899 22.98 46.2099 23.11 46.4899 23.36C46.7699 23.61 46.9099 23.95 46.9099 24.38C46.9099 24.81 46.7699 25.14 46.4899 25.39C46.2099 25.64 45.7899 25.76 45.2299 25.76H39.1299V31.79C39.1299 32.56 38.9599 33.12 38.6099 33.49C38.2599 33.86 37.8199 34.05 37.2799 34.05C36.7399 34.05 36.2799 33.86 35.9399 33.49C35.5899 33.12 35.4199 32.55 35.4199 31.79V17.71C35.4199 17.18 35.4999 16.74 35.6599 16.41C35.8199 16.08 36.0699 15.83 36.3999 15.67C36.7399 15.52 37.1699 15.44 37.6899 15.44H46.4299C47.0199 15.44 47.4599 15.57 47.7499 15.83C48.0399 16.09 48.1799 16.44 48.1799 16.86C48.1799 17.28 48.0399 17.64 47.7499 17.9C47.4599 18.16 47.0199 18.29 46.4299 18.29L46.4199 18.3Z" fill="#92B793"/>
<path d="M59.2999 32.13C58.4799 32.77 57.6799 33.25 56.9099 33.57C56.1399 33.89 55.2799 34.05 54.3199 34.05C53.4499 34.05 52.6799 33.88 52.0199 33.53C51.3599 33.19 50.8499 32.72 50.4899 32.13C50.1299 31.54 49.95 30.9 49.95 30.21C49.95 29.28 50.2499 28.48 50.8399 27.83C51.4299 27.18 52.2399 26.73 53.2699 26.51C53.4899 26.46 54.0199 26.35 54.8799 26.17C55.7399 25.99 56.4699 25.84 57.0799 25.69C57.6899 25.54 58.3499 25.37 59.0699 25.16C59.0299 24.26 58.8499 23.6 58.5299 23.18C58.2099 22.76 57.5499 22.55 56.5399 22.55C55.6699 22.55 55.0199 22.67 54.5899 22.91C54.1499 23.15 53.7799 23.51 53.4699 24C53.1599 24.49 52.9399 24.8 52.8099 24.96C52.6799 25.12 52.4 25.19 51.9799 25.19C51.5999 25.19 51.2699 25.07 50.9899 24.82C50.7099 24.57 50.5699 24.26 50.5699 23.88C50.5699 23.28 50.7799 22.7 51.2099 22.13C51.6399 21.56 52.2999 21.1 53.1899 20.73C54.0899 20.36 55.2099 20.18 56.5499 20.18C58.0499 20.18 59.2199 20.36 60.0799 20.71C60.9399 21.06 61.5399 21.62 61.8999 22.39C62.2599 23.16 62.4299 24.17 62.4299 25.44C62.4299 26.24 62.4299 26.92 62.4299 27.47C62.4299 28.03 62.4199 28.65 62.4099 29.33C62.4099 29.97 62.5199 30.64 62.7299 31.33C62.9399 32.02 63.0499 32.47 63.0499 32.67C63.0499 33.02 62.8899 33.34 62.5599 33.63C62.2299 33.92 61.8599 34.06 61.4399 34.06C61.0899 34.06 60.7399 33.89 60.3999 33.57C60.0599 33.24 59.6999 32.76 59.3099 32.14L59.2999 32.13ZM59.0799 27.2C58.5799 27.38 57.8499 27.58 56.8999 27.78C55.9499 27.98 55.29 28.13 54.92 28.23C54.55 28.33 54.1999 28.51 53.8699 28.79C53.5399 29.07 53.3699 29.46 53.3699 29.96C53.3699 30.46 53.5699 30.92 53.9599 31.28C54.3499 31.64 54.8599 31.82 55.4999 31.82C56.1699 31.82 56.7999 31.67 57.3699 31.38C57.9399 31.09 58.3599 30.7 58.6199 30.24C58.9299 29.72 59.0799 28.87 59.0799 27.69V27.2ZM57.0299 15.3H58.7199C59.1399 15.3 59.3599 15.36 59.3599 15.49C59.3599 15.56 59.1299 15.83 58.6599 16.3C58.1899 16.77 57.7199 17.23 57.2499 17.66C56.7799 18.09 56.4499 18.36 56.2599 18.45C55.7899 18.69 55.2799 18.81 54.7399 18.81C54.3799 18.81 54.2 18.71 54.2 18.5C54.2 18.36 54.3099 18.11 54.5199 17.76L55.0799 16.71C55.3999 16.1 55.6899 15.72 55.9299 15.55C56.1699 15.38 56.5399 15.3 57.0299 15.3Z" fill="#92B793"/>
</svg>
