<svg width="100" height="178" viewBox="0 0 100 178" fill="none" xmlns="http://www.w3.org/2000/svg">
<path d="M99.0799 171.53H0.879883L3.16989 177.5H98.1699L99.0899 171.53H99.0799Z" fill="#B792CD"/>
<path d="M94.34 0.109985H4.75995C2.3796 0.109985 0.449951 2.03964 0.449951 4.41998V168.95C0.449951 171.33 2.3796 173.26 4.75995 173.26H94.34C96.7203 173.26 98.65 171.33 98.65 168.95V4.41998C98.65 2.03964 96.7203 0.109985 94.34 0.109985Z" fill="#D5ACF6"/>
<path opacity="0.09" d="M0.939941 30.69C0.939941 30.69 5.42993 12.62 51.9299 13.46C98.4299 14.3 98.5099 30.55 98.5099 30.55L99.02 0.749985L1.66995 0.509979L0.949951 30.69H0.939941Z" fill="#1A1515"/>
<path d="M49.5599 159.51C60.6056 159.51 69.5599 150.556 69.5599 139.51C69.5599 128.464 60.6056 119.51 49.5599 119.51C38.5142 119.51 29.5599 128.464 29.5599 139.51C29.5599 150.556 38.5142 159.51 49.5599 159.51Z" fill="#F9F9F9"/>
<path d="M47.27 138.27C47.69 137.77 48.15 137.4 48.64 137.16C49.13 136.92 49.6899 136.8 50.2999 136.8C50.9099 136.8 51.4299 136.91 51.9299 137.13C52.4299 137.35 52.8599 137.66 53.2399 138.07C53.6199 138.48 53.8999 138.95 54.1099 139.5C54.3099 140.05 54.4199 140.63 54.4199 141.23C54.4199 142.1 54.2199 142.89 53.8199 143.61C53.4199 144.32 52.86 144.88 52.15 145.28C51.44 145.68 50.6299 145.88 49.7199 145.88C48.6799 145.88 47.78 145.63 47.03 145.12C46.28 144.61 45.6999 143.86 45.2999 142.87C44.8999 141.88 44.7 140.66 44.7 139.23C44.7 138.06 44.8199 137.02 45.0599 136.09C45.2999 135.16 45.6499 134.4 46.0999 133.8C46.5499 133.19 47.0999 132.74 47.7399 132.43C48.3799 132.12 49.1199 131.97 49.9399 131.97C50.7599 131.97 51.43 132.12 52.03 132.43C52.63 132.74 53.09 133.12 53.39 133.58C53.7 134.04 53.8499 134.48 53.8499 134.9C53.8499 135.15 53.7499 135.38 53.5599 135.59C53.3699 135.8 53.12 135.9 52.83 135.9C52.57 135.9 52.3299 135.82 52.1099 135.65C51.8899 135.48 51.7199 135.26 51.6199 134.97C51.4799 134.6 51.2499 134.3 50.9399 134.07C50.6299 133.84 50.2699 133.73 49.8599 133.73C49.5299 133.73 49.2099 133.82 48.8799 134.01C48.5599 134.2 48.2799 134.45 48.0599 134.78C47.6099 135.44 47.3399 136.6 47.2599 138.29L47.27 138.27ZM49.77 144.03C50.39 144.03 50.9099 143.78 51.3199 143.26C51.7299 142.75 51.9299 142.08 51.9299 141.25C51.9299 140.69 51.83 140.2 51.64 139.8C51.45 139.39 51.1799 139.09 50.8499 138.87C50.5199 138.66 50.1499 138.55 49.7499 138.55C49.3499 138.55 49 138.65 48.65 138.86C48.3 139.07 48.0199 139.36 47.8099 139.75C47.5999 140.14 47.4899 140.59 47.4899 141.11C47.4899 141.94 47.71 142.64 48.14 143.2C48.57 143.76 49.12 144.03 49.77 144.03Z" fill="#956ED3"/>
<path d="M39.45 17.15V30.47H46.96C47.56 30.47 48.02 30.62 48.34 30.91C48.66 31.2 48.82 31.57 48.82 32.01C48.82 32.45 48.66 32.82 48.35 33.1C48.03 33.38 47.57 33.52 46.96 33.52H38.01C37.2 33.52 36.62 33.34 36.27 32.98C35.92 32.62 35.74 32.04 35.74 31.25V17.16C35.74 16.41 35.91 15.85 36.25 15.48C36.59 15.1 37.03 14.92 37.58 14.92C38.13 14.92 38.59 15.1 38.93 15.47C39.28 15.84 39.45 16.4 39.45 17.16V17.15Z" fill="#956ED3"/>
<path d="M59.63 31.9C58.81 32.54 58.01 33.02 57.24 33.34C56.47 33.66 55.61 33.82 54.65 33.82C53.77 33.82 53.01 33.65 52.35 33.3C51.69 32.96 51.18 32.49 50.82 31.9C50.46 31.31 50.28 30.67 50.28 29.98C50.28 29.05 50.57 28.25 51.17 27.6C51.76 26.94 52.57 26.5 53.6 26.28C53.82 26.23 54.35 26.12 55.21 25.94C56.07 25.77 56.8 25.61 57.41 25.46C58.02 25.31 58.69 25.14 59.4 24.93C59.36 24.03 59.18 23.37 58.86 22.95C58.54 22.53 57.88 22.32 56.87 22.32C56 22.32 55.35 22.44 54.92 22.68C54.48 22.92 54.11 23.28 53.8 23.77C53.49 24.26 53.27 24.57 53.14 24.73C53.01 24.89 52.73 24.96 52.31 24.96C51.93 24.96 51.6 24.84 51.32 24.59C51.04 24.34 50.9 24.03 50.9 23.65C50.9 23.05 51.11 22.47 51.54 21.9C51.97 21.33 52.63 20.87 53.52 20.5C54.42 20.13 55.54 19.95 56.88 19.95C58.38 19.95 59.56 20.13 60.41 20.48C61.27 20.83 61.87 21.39 62.23 22.16C62.59 22.93 62.76 23.94 62.76 25.21C62.76 26.01 62.76 26.69 62.76 27.24C62.76 27.79 62.75 28.42 62.74 29.1C62.74 29.74 62.85 30.41 63.06 31.1C63.27 31.79 63.38 32.24 63.38 32.44C63.38 32.79 63.22 33.11 62.89 33.4C62.56 33.69 62.19 33.83 61.77 33.83C61.42 33.83 61.07 33.66 60.73 33.34C60.39 33.01 60.03 32.53 59.64 31.91L59.63 31.9ZM59.41 26.97C58.91 27.15 58.18 27.35 57.23 27.55C56.28 27.75 55.62 27.9 55.25 28C54.88 28.1 54.53 28.28 54.2 28.56C53.87 28.84 53.7 29.23 53.7 29.73C53.7 30.23 53.9 30.69 54.29 31.05C54.68 31.41 55.19 31.59 55.83 31.59C56.5 31.59 57.13 31.44 57.7 31.15C58.27 30.86 58.69 30.47 58.95 30.01C59.26 29.49 59.41 28.64 59.41 27.46V26.97ZM57.36 15.07H59.04C59.46 15.07 59.68 15.13 59.68 15.26C59.68 15.33 59.45 15.6 58.98 16.07C58.51 16.54 58.04 17 57.57 17.43C57.1 17.86 56.77 18.13 56.58 18.22C56.11 18.46 55.6 18.58 55.06 18.58C54.7 18.58 54.52 18.48 54.52 18.27C54.52 18.13 54.63 17.88 54.84 17.53L55.4 16.48C55.73 15.87 56.01 15.49 56.25 15.32C56.49 15.15 56.86 15.07 57.35 15.07H57.36Z" fill="#956ED3"/>
</svg>
