<svg width="99" height="178" viewBox="0 0 99 178" fill="none" xmlns="http://www.w3.org/2000/svg">
<path d="M98.33 171.53H0.130005L2.42 177.5H97.42L98.34 171.53H98.33Z" fill="#CBCA99"/>
<path d="M94.01 0.109985H4.42999C2.04965 0.109985 0.119995 2.03964 0.119995 4.41998V168.95C0.119995 171.33 2.04965 173.26 4.42999 173.26H94.01C96.3904 173.26 98.32 171.33 98.32 168.95V4.41998C98.32 2.03964 96.3904 0.109985 94.01 0.109985Z" fill="#F9F3CA"/>
<path opacity="0.09" d="M0.189941 30.69C0.189941 30.69 4.67993 12.62 51.1799 13.46C97.6799 14.3 97.7599 30.55 97.7599 30.55L98.2699 0.749985L0.919937 0.509979L0.199936 30.69H0.189941Z" fill="#1A1515"/>
<path d="M49.23 159.51C60.2757 159.51 69.23 150.556 69.23 139.51C69.23 128.464 60.2757 119.51 49.23 119.51C38.1843 119.51 29.23 128.464 29.23 139.51C29.23 150.556 38.1843 159.51 49.23 159.51Z" fill="#F9F9F9"/>
<path d="M44.09 28.53L41.16 16.87V29.5C41.16 30.2 41 30.72 40.69 31.07C40.38 31.42 39.96 31.59 39.45 31.59C38.94 31.59 38.54 31.42 38.23 31.07C37.91 30.73 37.76 30.2 37.76 29.49V15.01C37.76 14.21 37.97 13.67 38.38 13.39C38.8 13.11 39.36 12.97 40.07 12.97H41.22C41.91 12.97 42.41 13.03 42.72 13.16C43.03 13.28 43.26 13.51 43.41 13.83C43.56 14.15 43.73 14.68 43.92 15.41L46.58 25.43L49.24 15.41C49.43 14.68 49.6 14.15 49.75 13.83C49.9 13.51 50.13 13.28 50.44 13.16C50.75 13.04 51.25 12.97 51.94 12.97H53.09C53.8 12.97 54.36 13.11 54.78 13.39C55.2 13.67 55.4 14.21 55.4 15.01V29.49C55.4 30.19 55.24 30.71 54.93 31.06C54.62 31.41 54.2 31.58 53.68 31.58C53.19 31.58 52.79 31.41 52.47 31.06C52.15 30.71 52 30.19 52 29.49V16.86L49.07 28.52C48.88 29.28 48.72 29.83 48.6 30.19C48.48 30.55 48.26 30.87 47.93 31.16C47.61 31.45 47.16 31.6 46.58 31.6C46.15 31.6 45.78 31.51 45.48 31.32C45.18 31.13 44.95 30.89 44.78 30.6C44.61 30.31 44.48 29.99 44.39 29.63C44.29 29.28 44.2 28.91 44.1 28.52L44.09 28.53Z" fill="#EFDE7D"/>
<path d="M60.69 16.16C60.22 16.16 59.81 16.01 59.47 15.72C59.13 15.43 58.96 15.02 58.96 14.48C58.96 14 59.13 13.6 59.48 13.29C59.83 12.98 60.23 12.82 60.68 12.82C61.13 12.82 61.51 12.96 61.85 13.24C62.19 13.52 62.36 13.94 62.36 14.48C62.36 15.02 62.19 15.41 61.86 15.71C61.53 16 61.13 16.15 60.67 16.15L60.69 16.16ZM62.38 19.68V29.53C62.38 30.21 62.22 30.73 61.89 31.08C61.57 31.43 61.15 31.6 60.65 31.6C60.15 31.6 59.75 31.42 59.43 31.06C59.11 30.7 58.96 30.19 58.96 29.52V19.77C58.96 19.1 59.12 18.59 59.43 18.25C59.74 17.91 60.15 17.74 60.65 17.74C61.15 17.74 61.56 17.91 61.89 18.25C62.21 18.59 62.38 19.07 62.38 19.67V19.68Z" fill="#EFDE7D"/>
<path d="M48.49 138.04C49.06 138.04 49.55 137.87 49.96 137.54C50.37 137.21 50.58 136.73 50.58 136.1C50.58 135.62 50.42 135.21 50.09 134.87C49.76 134.53 49.32 134.36 48.76 134.36C48.38 134.36 48.07 134.41 47.83 134.52C47.59 134.63 47.39 134.77 47.25 134.94C47.11 135.11 46.97 135.34 46.85 135.61C46.72 135.88 46.61 136.14 46.5 136.38C46.44 136.51 46.33 136.61 46.17 136.69C46.01 136.77 45.82 136.8 45.61 136.8C45.36 136.8 45.14 136.7 44.93 136.5C44.72 136.3 44.62 136.03 44.62 135.7C44.62 135.37 44.72 135.04 44.91 134.68C45.1 134.32 45.39 133.99 45.76 133.66C46.13 133.33 46.6 133.08 47.16 132.89C47.72 132.69 48.34 132.6 49.02 132.6C49.62 132.6 50.17 132.68 50.66 132.85C51.15 133.01 51.58 133.25 51.95 133.56C52.32 133.87 52.59 134.23 52.78 134.64C52.97 135.05 53.06 135.49 53.06 135.96C53.06 136.58 52.93 137.11 52.66 137.55C52.39 137.99 52.01 138.42 51.51 138.84C51.99 139.1 52.4 139.4 52.73 139.73C53.06 140.06 53.31 140.43 53.48 140.84C53.65 141.25 53.73 141.68 53.73 142.15C53.73 142.71 53.62 143.26 53.39 143.78C53.16 144.31 52.83 144.77 52.39 145.19C51.95 145.6 51.43 145.92 50.83 146.15C50.23 146.38 49.56 146.5 48.83 146.5C48.1 146.5 47.42 146.37 46.84 146.1C46.25 145.83 45.77 145.5 45.39 145.1C45.01 144.7 44.72 144.29 44.53 143.86C44.34 143.43 44.24 143.08 44.24 142.8C44.24 142.44 44.36 142.15 44.59 141.93C44.82 141.71 45.11 141.6 45.46 141.6C45.63 141.6 45.8 141.65 45.96 141.75C46.12 141.85 46.23 141.97 46.28 142.12C46.6 142.98 46.95 143.62 47.31 144.04C47.68 144.46 48.2 144.67 48.86 144.67C49.24 144.67 49.61 144.58 49.97 144.39C50.33 144.2 50.62 143.92 50.85 143.55C51.08 143.18 51.2 142.75 51.2 142.26C51.2 141.54 51 140.97 50.61 140.56C50.22 140.15 49.66 139.94 48.96 139.94C48.84 139.94 48.64 139.95 48.38 139.98C48.12 140.01 47.95 140.02 47.88 140.02C47.54 140.02 47.28 139.94 47.09 139.77C46.9 139.6 46.81 139.36 46.81 139.06C46.81 138.76 46.92 138.52 47.14 138.34C47.36 138.16 47.69 138.07 48.13 138.07H48.51L48.49 138.04Z" fill="#EFDE7D"/>
</svg>
