<svg width="99" height="178" viewBox="0 0 99 178" fill="none" xmlns="http://www.w3.org/2000/svg">
<path d="M98.33 171.53H0.130005L2.42001 177.5H97.42L98.34 171.53H98.33Z" fill="#CDA07E"/>
<path d="M94.01 0.109985H4.42999C2.04965 0.109985 0.119995 2.03964 0.119995 4.41998V168.95C0.119995 171.33 2.04965 173.26 4.42999 173.26H94.01C96.3903 173.26 98.32 171.33 98.32 168.95V4.41998C98.32 2.03964 96.3903 0.109985 94.01 0.109985Z" fill="#FCD5BB"/>
<path opacity="0.09" d="M0.189941 30.69C0.189941 30.69 4.67993 12.62 51.1799 13.46C97.6799 14.3 97.7599 30.55 97.7599 30.55L98.2699 0.749985L0.919937 0.509979L0.199936 30.69H0.189941Z" fill="#1A1515"/>
<path d="M49.23 159.51C60.2757 159.51 69.23 150.556 69.23 139.51C69.23 128.464 60.2757 119.51 49.23 119.51C38.1843 119.51 29.23 128.464 29.23 139.51C29.23 150.556 38.1843 159.51 49.23 159.51Z" fill="#F9F9F9"/>
<path d="M47.3799 145.34H52.2199C52.6999 145.34 53.0699 145.44 53.3199 145.64C53.5699 145.84 53.6999 146.11 53.6999 146.45C53.6999 146.75 53.5999 147.01 53.3999 147.22C53.1999 147.43 52.8899 147.54 52.4899 147.54H45.6599C45.1999 147.54 44.8299 147.41 44.5699 147.16C44.3099 146.91 44.1799 146.6 44.1799 146.26C44.1799 146.04 44.2599 145.74 44.4299 145.37C44.5999 145 44.7799 144.71 44.9799 144.5C45.7999 143.65 46.5399 142.92 47.2099 142.31C47.8699 141.7 48.3399 141.3 48.6299 141.11C49.1399 140.75 49.5599 140.39 49.8999 140.03C50.2399 139.67 50.4899 139.3 50.6699 138.92C50.8499 138.54 50.9299 138.17 50.9299 137.8C50.9299 137.4 50.8399 137.05 50.6499 136.74C50.4599 136.43 50.1999 136.18 49.8799 136.01C49.5499 135.84 49.1999 135.75 48.8199 135.75C48.0099 135.75 47.3699 136.11 46.9099 136.82C46.8499 136.91 46.7399 137.17 46.5999 137.58C46.4499 137.99 46.2899 138.31 46.1099 138.54C45.9299 138.76 45.6599 138.87 45.3099 138.87C44.9999 138.87 44.7399 138.77 44.5399 138.56C44.3399 138.36 44.2299 138.08 44.2299 137.73C44.2299 137.3 44.3299 136.86 44.5199 136.39C44.7099 135.93 44.9999 135.51 45.3799 135.13C45.7599 134.75 46.2399 134.45 46.8299 134.22C47.4099 133.99 48.0999 133.87 48.8799 133.87C49.8299 133.87 50.6299 134.02 51.2999 134.32C51.7299 134.52 52.1099 134.79 52.4399 135.14C52.7699 135.49 53.0199 135.89 53.2099 136.34C53.3899 136.79 53.4799 137.27 53.4799 137.75C53.4799 138.52 53.2899 139.21 52.9099 139.84C52.5299 140.47 52.1399 140.96 51.7499 141.31C51.3499 141.67 50.6899 142.22 49.7599 142.98C48.8299 143.74 48.1899 144.33 47.8399 144.75C47.6899 144.92 47.5399 145.12 47.3899 145.35L47.3799 145.34Z" fill="#DDAF90"/>
<path d="M38.97 23.59H37.67V29.47C37.67 30.24 37.5 30.81 37.16 31.18C36.82 31.55 36.37 31.73 35.82 31.73C35.23 31.73 34.77 31.54 34.45 31.16C34.13 30.78 33.96 30.22 33.96 29.47V15.39C33.96 14.59 34.14 14.01 34.5 13.66C34.86 13.3 35.4399 13.12 36.2299 13.12H42.2599C43.0899 13.12 43.8 13.16 44.39 13.23C44.98 13.3 45.51 13.44 45.99 13.66C46.56 13.9 47.0699 14.25 47.5099 14.7C47.9499 15.15 48.2899 15.67 48.5099 16.27C48.7399 16.87 48.85 17.5 48.85 18.16C48.85 19.52 48.46 20.61 47.7 21.43C46.93 22.25 45.76 22.82 44.2 23.17C44.86 23.52 45.49 24.04 46.08 24.72C46.67 25.4 47.2099 26.13 47.6799 26.9C48.1499 27.67 48.52 28.36 48.78 28.98C49.04 29.6 49.17 30.03 49.17 30.26C49.17 30.49 49.09 30.74 48.94 30.98C48.79 31.22 48.58 31.4 48.31 31.54C48.04 31.68 47.74 31.75 47.39 31.75C46.97 31.75 46.62 31.65 46.34 31.46C46.06 31.26 45.81 31.02 45.61 30.72C45.41 30.42 45.13 29.98 44.78 29.4L43.2899 26.93C42.7599 26.02 42.28 25.33 41.86 24.86C41.44 24.39 41.01 24.06 40.58 23.89C40.15 23.72 39.6 23.63 38.94 23.63L38.97 23.59ZM41.09 15.9H37.67V20.93H40.99C41.88 20.93 42.63 20.85 43.24 20.7C43.85 20.55 44.31 20.28 44.63 19.91C44.95 19.54 45.11 19.03 45.11 18.38C45.11 17.87 44.98 17.42 44.72 17.04C44.46 16.65 44.0999 16.36 43.6499 16.17C43.2199 15.99 42.36 15.9 41.09 15.9Z" fill="#BF977C"/>
<path d="M61.65 25.63H54.98C54.98 26.4 55.14 27.09 55.45 27.68C55.75 28.27 56.16 28.72 56.66 29.02C57.16 29.32 57.72 29.47 58.33 29.47C58.74 29.47 59.11 29.42 59.45 29.33C59.79 29.24 60.11 29.08 60.43 28.88C60.75 28.68 61.04 28.46 61.3 28.22C61.57 27.99 61.91 27.67 62.34 27.27C62.51 27.12 62.76 27.05 63.09 27.05C63.44 27.05 63.72 27.15 63.94 27.34C64.16 27.53 64.26 27.8 64.26 28.15C64.26 28.46 64.14 28.82 63.9 29.23C63.66 29.64 63.29 30.04 62.81 30.42C62.32 30.8 61.71 31.11 60.98 31.36C60.25 31.61 59.4 31.74 58.44 31.74C56.25 31.74 54.55 31.12 53.34 29.87C52.12 28.62 51.52 26.93 51.52 24.79C51.52 23.78 51.67 22.85 51.97 21.99C52.27 21.13 52.71 20.39 53.28 19.78C53.85 19.16 54.56 18.69 55.4 18.36C56.24 18.03 57.17 17.87 58.2 17.87C59.53 17.87 60.67 18.15 61.63 18.71C62.58 19.27 63.3 20 63.77 20.89C64.24 21.78 64.48 22.69 64.48 23.61C64.48 24.47 64.23 25.02 63.74 25.28C63.25 25.53 62.56 25.66 61.67 25.66L61.65 25.63ZM54.99 23.7H61.17C61.09 22.54 60.77 21.66 60.23 21.09C59.68 20.51 58.97 20.22 58.08 20.22C57.19 20.22 56.53 20.51 55.99 21.1C55.44 21.69 55.11 22.55 55 23.7H54.99ZM58.48 12.98H60.17C60.59 12.98 60.81 13.04 60.81 13.17C60.81 13.24 60.58 13.51 60.11 13.98C59.64 14.45 59.17 14.91 58.7 15.34C58.23 15.77 57.9 16.04 57.71 16.13C57.24 16.37 56.73 16.49 56.19 16.49C55.83 16.49 55.65 16.39 55.65 16.18C55.65 16.04 55.76 15.79 55.97 15.44L56.53 14.39C56.85 13.78 57.14 13.4 57.38 13.23C57.62 13.06 57.99 12.98 58.48 12.98Z" fill="#BF977C"/>
</svg>
