<svg width="99" height="184" viewBox="0 0 99 184" fill="none" xmlns="http://www.w3.org/2000/svg">
<path d="M98.6 171.68H0.400024L3.59002 183.74H95.41L98.6 171.68Z" fill="#CDA07E"/>
<path d="M94.29 0.26001H4.71002C2.32967 0.26001 0.400024 2.18966 0.400024 4.57001V169.1C0.400024 171.48 2.32967 173.41 4.71002 173.41H94.29C96.6704 173.41 98.6 171.48 98.6 169.1V4.57001C98.6 2.18966 96.6704 0.26001 94.29 0.26001Z" fill="#FDC9A2"/>
<path opacity="0.09" d="M0.459961 30.83C0.459961 30.83 4.94996 12.76 51.45 13.6C97.95 14.44 98.03 30.69 98.03 30.69L98.54 0.890024L1.18996 0.650024L0.469963 30.83H0.459961Z" fill="#1A1515"/>
<path d="M49.5 159.65C60.5457 159.65 69.5 150.696 69.5 139.65C69.5 128.604 60.5457 119.65 49.5 119.65C38.4543 119.65 29.5 128.604 29.5 139.65C29.5 150.696 38.4543 159.65 49.5 159.65Z" fill="#F9F9F9"/>
<path d="M48.1 143.67H52.94C53.42 143.67 53.79 143.77 54.04 143.97C54.29 144.17 54.42 144.44 54.42 144.78C54.42 145.08 54.32 145.34 54.12 145.55C53.92 145.76 53.61 145.87 53.21 145.87H46.38C45.92 145.87 45.55 145.74 45.29 145.49C45.03 145.24 44.9 144.93 44.9 144.59C44.9 144.37 44.98 144.07 45.15 143.7C45.32 143.33 45.5 143.04 45.7 142.83C46.52 141.98 47.26 141.25 47.93 140.64C48.59 140.03 49.06 139.63 49.35 139.44C49.86 139.08 50.28 138.72 50.62 138.36C50.96 138 51.21 137.63 51.39 137.25C51.57 136.87 51.65 136.5 51.65 136.13C51.65 135.73 51.56 135.38 51.37 135.07C51.18 134.76 50.92 134.51 50.6 134.34C50.27 134.17 49.92 134.08 49.54 134.08C48.73 134.08 48.09 134.44 47.63 135.15C47.57 135.24 47.46 135.5 47.32 135.91C47.17 136.32 47.01 136.64 46.83 136.87C46.65 137.09 46.38 137.2 46.03 137.2C45.72 137.2 45.46 137.1 45.26 136.89C45.06 136.69 44.95 136.41 44.95 136.06C44.95 135.63 45.05 135.19 45.24 134.72C45.43 134.26 45.72 133.84 46.1 133.46C46.48 133.08 46.96 132.78 47.55 132.55C48.13 132.32 48.82 132.2 49.6 132.2C50.55 132.2 51.35 132.35 52.02 132.65C52.45 132.85 52.83 133.12 53.16 133.47C53.49 133.82 53.74 134.22 53.93 134.67C54.11 135.12 54.2 135.6 54.2 136.08C54.2 136.85 54.01 137.54 53.63 138.17C53.25 138.8 52.86 139.29 52.47 139.64C52.07 140 51.41 140.55 50.48 141.31C49.55 142.07 48.91 142.66 48.56 143.08C48.41 143.25 48.26 143.45 48.11 143.68L48.1 143.67Z" fill="#DDAF90"/>
<path d="M39.6899 25.91H38.3899V31.79C38.3899 32.56 38.2199 33.13 37.8799 33.5C37.5399 33.87 37.0899 34.05 36.5399 34.05C35.9499 34.05 35.4899 33.86 35.1699 33.48C34.8499 33.1 34.6799 32.54 34.6799 31.79V17.71C34.6799 16.91 34.8599 16.33 35.2199 15.98C35.5799 15.62 36.1599 15.44 36.9499 15.44H42.9799C43.8099 15.44 44.5199 15.48 45.1099 15.55C45.6999 15.62 46.2299 15.76 46.7099 15.98C47.2799 16.22 47.7899 16.57 48.2299 17.02C48.6699 17.47 49.0099 17.99 49.2299 18.59C49.4599 19.19 49.5699 19.82 49.5699 20.48C49.5699 21.84 49.1799 22.93 48.4199 23.75C47.6499 24.57 46.4799 25.14 44.9199 25.49C45.5799 25.84 46.2099 26.36 46.7999 27.04C47.3899 27.72 47.9299 28.45 48.3999 29.22C48.8699 29.99 49.2399 30.68 49.4999 31.3C49.7599 31.92 49.8899 32.35 49.8899 32.58C49.8899 32.81 49.8099 33.06 49.6599 33.3C49.5099 33.54 49.2999 33.72 49.0299 33.86C48.7599 34 48.4599 34.07 48.1099 34.07C47.6899 34.07 47.3399 33.97 47.0599 33.78C46.7799 33.58 46.5299 33.34 46.3299 33.04C46.1299 32.74 45.8499 32.3 45.4999 31.72L44.0099 29.25C43.4799 28.34 42.9999 27.65 42.5799 27.18C42.1599 26.71 41.7299 26.38 41.2999 26.21C40.8699 26.04 40.3199 25.95 39.6599 25.95L39.6899 25.91ZM41.8099 18.22H38.3899V23.25H41.7099C42.5999 23.25 43.3499 23.17 43.9599 23.02C44.5699 22.87 45.0299 22.6 45.3499 22.23C45.6699 21.86 45.8299 21.35 45.8299 20.7C45.8299 20.19 45.6999 19.74 45.4399 19.36C45.1799 18.97 44.8199 18.68 44.3699 18.49C43.9399 18.31 43.0799 18.22 41.8099 18.22Z" fill="#BF977C"/>
<path d="M62.37 27.96H55.7C55.7 28.73 55.86 29.42 56.17 30.01C56.47 30.6 56.88 31.05 57.38 31.35C57.88 31.65 58.44 31.8 59.05 31.8C59.46 31.8 59.83 31.75 60.17 31.66C60.51 31.57 60.83 31.41 61.15 31.21C61.47 31.01 61.76 30.79 62.02 30.55C62.29 30.32 62.63 30 63.06 29.6C63.23 29.45 63.48 29.38 63.81 29.38C64.16 29.38 64.44 29.48 64.66 29.67C64.88 29.86 64.98 30.13 64.98 30.48C64.98 30.79 64.86 31.15 64.62 31.56C64.38 31.97 64.01 32.37 63.53 32.75C63.04 33.13 62.43 33.44 61.7 33.69C60.97 33.94 60.12 34.07 59.16 34.07C56.97 34.07 55.27 33.45 54.06 32.2C52.84 30.95 52.24 29.26 52.24 27.12C52.24 26.11 52.39 25.18 52.69 24.32C52.99 23.46 53.43 22.72 54 22.11C54.57 21.49 55.28 21.02 56.12 20.69C56.96 20.36 57.89 20.2 58.92 20.2C60.25 20.2 61.39 20.48 62.35 21.04C63.3 21.6 64.02 22.33 64.49 23.22C64.96 24.11 65.2 25.02 65.2 25.94C65.2 26.8 64.95 27.35 64.46 27.61C63.97 27.86 63.28 27.99 62.39 27.99L62.37 27.96ZM55.7 26.02H61.88C61.8 24.86 61.48 23.98 60.94 23.41C60.39 22.83 59.68 22.54 58.79 22.54C57.9 22.54 57.24 22.83 56.7 23.42C56.15 24.01 55.82 24.87 55.71 26.02H55.7ZM59.2 15.3H60.89C61.31 15.3 61.53 15.36 61.53 15.49C61.53 15.56 61.3 15.83 60.83 16.3C60.36 16.77 59.89 17.23 59.42 17.66C58.95 18.09 58.62 18.36 58.43 18.45C57.96 18.69 57.45 18.81 56.91 18.81C56.55 18.81 56.37 18.71 56.37 18.5C56.37 18.36 56.48 18.11 56.69 17.76L57.25 16.71C57.57 16.1 57.86 15.72 58.1 15.55C58.34 15.38 58.71 15.3 59.2 15.3Z" fill="#BF977C"/>
</svg>
