<svg width="100" height="178" viewBox="0 0 100 178" fill="none" xmlns="http://www.w3.org/2000/svg">
<path d="M99.08 171.53H0.880005L3.16998 177.5H98.17L99.09 171.53H99.08Z" fill="#C492BE"/>
<path d="M94.65 0.109985H5.07001C2.68966 0.109985 0.76001 2.03964 0.76001 4.41998V168.95C0.76001 171.33 2.68966 173.26 5.07001 173.26H94.65C97.0304 173.26 98.96 171.33 98.96 168.95V4.41998C98.96 2.03964 97.0304 0.109985 94.65 0.109985Z" fill="#FFD7FD"/>
<path opacity="0.09" d="M0.939941 30.69C0.939941 30.69 5.42993 12.62 51.9299 13.46C98.4299 14.3 98.5099 30.55 98.5099 30.55L99.02 0.749985L1.66992 0.509979L0.949951 30.69H0.939941Z" fill="#1A1515"/>
<path d="M49.86 159.51C60.9057 159.51 69.86 150.556 69.86 139.51C69.86 128.464 60.9057 119.51 49.86 119.51C38.8143 119.51 29.86 128.464 29.86 139.51C29.86 150.556 38.8143 159.51 49.86 159.51Z" fill="#F9F9F9"/>
<path d="M46.7 132.88H52.8799C53.4699 132.88 53.8999 132.97 54.1699 133.16C54.4399 133.35 54.5699 133.65 54.5699 134.08C54.5699 134.34 54.4099 134.68 54.0999 135.11C53.7899 135.54 53.43 136.01 53.03 136.53C52.63 137.05 52.2199 137.69 51.7999 138.45C51.3799 139.21 50.99 140.15 50.64 141.26C50.49 141.75 50.3899 142.15 50.3199 142.48C50.2599 142.8 50.1899 143.22 50.1199 143.73C50.0499 144.24 49.9799 144.64 49.9199 144.91C49.7899 145.54 49.6099 145.98 49.3699 146.22C49.1299 146.46 48.8099 146.59 48.4199 146.59C48.0299 146.59 47.7399 146.46 47.5099 146.2C47.2799 145.94 47.1699 145.55 47.1699 145.04C47.1699 144.64 47.2499 144.11 47.4199 143.42C47.5899 142.74 47.8599 141.93 48.2399 140.98C48.6199 140.03 49.0899 139.06 49.6599 138.06C50.2299 137.06 50.8999 136.07 51.6799 135.08H46.7199C46.1999 135.08 45.8099 134.99 45.5499 134.8C45.2899 134.61 45.1699 134.32 45.1699 133.91C45.1699 133.48 45.31 133.21 45.58 133.08C45.85 132.95 46.2299 132.89 46.7199 132.89L46.7 132.88Z" fill="#D579D8"/>
<path d="M53.9799 28.74C53.9799 29.85 53.6899 30.84 53.1299 31.72C52.5599 32.6 51.7299 33.29 50.6299 33.79C49.5299 34.29 48.2299 34.54 46.7199 34.54C44.9199 34.54 43.4299 34.2 42.2499 33.52C41.4199 33.03 40.7399 32.37 40.2199 31.55C39.6999 30.73 39.4399 29.93 39.4399 29.16C39.4399 28.71 39.5999 28.33 39.9099 28.01C40.2199 27.69 40.6199 27.53 41.0999 27.53C41.4899 27.53 41.82 27.65 42.09 27.9C42.36 28.15 42.59 28.52 42.78 29.01C43.01 29.59 43.2599 30.08 43.5399 30.47C43.8099 30.86 44.1899 31.18 44.6799 31.44C45.1699 31.69 45.8199 31.82 46.6099 31.82C47.7099 31.82 48.5999 31.56 49.2899 31.05C49.9799 30.54 50.3199 29.9 50.3199 29.13C50.3199 28.52 50.13 28.03 49.77 27.65C49.4 27.27 48.92 26.98 48.33 26.78C47.74 26.58 46.9599 26.37 45.9799 26.14C44.6699 25.83 43.5599 25.47 42.6799 25.06C41.7899 24.65 41.0899 24.09 40.5699 23.38C40.0499 22.67 39.7899 21.78 39.7899 20.73C39.7899 19.68 40.0599 18.83 40.6099 18.05C41.1599 17.27 41.9499 16.67 42.9899 16.25C44.0299 15.83 45.2499 15.62 46.6599 15.62C47.7799 15.62 48.7499 15.76 49.5699 16.04C50.3899 16.32 51.0699 16.69 51.6099 17.15C52.1499 17.61 52.5499 18.1 52.7999 18.6C53.0499 19.11 53.1699 19.6 53.1699 20.09C53.1699 20.53 53.01 20.93 52.7 21.28C52.39 21.63 52 21.81 51.53 21.81C51.11 21.81 50.7799 21.7 50.5599 21.49C50.3399 21.28 50.1 20.93 49.84 20.45C49.51 19.76 49.11 19.22 48.64 18.83C48.17 18.44 47.43 18.25 46.39 18.25C45.43 18.25 44.6599 18.46 44.0699 18.88C43.4799 19.3 43.1899 19.81 43.1899 20.4C43.1899 20.77 43.2899 21.08 43.4899 21.35C43.6899 21.62 43.9599 21.85 44.3099 22.04C44.6599 22.23 45.0099 22.38 45.3699 22.49C45.7299 22.6 46.32 22.76 47.14 22.96C48.17 23.2 49.0999 23.47 49.9399 23.76C50.7799 24.05 51.4899 24.4 52.0699 24.82C52.6599 25.24 53.1099 25.76 53.4399 26.4C53.7699 27.04 53.9299 27.82 53.9299 28.74H53.9799Z" fill="#D579D8"/>
<path d="M58.6099 19.11C58.1399 19.11 57.7299 18.96 57.3899 18.67C57.0499 18.38 56.8899 17.97 56.8899 17.43C56.8899 16.95 57.0599 16.55 57.4099 16.24C57.7499 15.93 58.1599 15.77 58.6099 15.77C59.0599 15.77 59.4399 15.91 59.7799 16.19C60.1199 16.47 60.2899 16.89 60.2899 17.43C60.2899 17.97 60.1199 18.36 59.7899 18.66C59.4599 18.95 59.0599 19.1 58.5999 19.1L58.6099 19.11ZM60.2899 22.63V32.48C60.2899 33.16 60.1299 33.68 59.7999 34.03C59.4699 34.38 59.0599 34.55 58.5599 34.55C58.0599 34.55 57.6599 34.37 57.3399 34.01C57.0299 33.65 56.8699 33.14 56.8699 32.47V22.72C56.8699 22.05 57.0299 21.54 57.3399 21.2C57.6499 20.86 58.0599 20.69 58.5599 20.69C59.0599 20.69 59.4699 20.86 59.7999 21.2C60.1199 21.54 60.2899 22.02 60.2899 22.62V22.63Z" fill="#D579D8"/>
</svg>
