<svg width="99" height="178" viewBox="0 0 99 178" fill="none" xmlns="http://www.w3.org/2000/svg">
<path d="M98.21 171.42H0.0100098L2.29999 177.39H97.3L98.22 171.42H98.21Z" fill="#98ADCE"/>
<path d="M93.89 0H4.31C1.92965 0 0 1.92965 0 4.31V168.84C0 171.22 1.92965 173.15 4.31 173.15H93.89C96.2703 173.15 98.2 171.22 98.2 168.84V4.31C98.2 1.92965 96.2703 0 93.89 0Z" fill="#E1EDFF"/>
<g clip-path="url(#clip0_283_3068)">
<path d="M45.26 30.01C45.26 31.12 44.98 32.11 44.41 32.99C43.85 33.87 43.02 34.56 41.93 35.06C40.84 35.56 39.55 35.81 38.06 35.81C36.27 35.81 34.8 35.47 33.64 34.79C32.82 34.3 32.15 33.64 31.63 32.82C31.12 32 30.86 31.2 30.86 30.43C30.86 29.98 31.01 29.6 31.32 29.28C31.63 28.96 32.02 28.8 32.5 28.8C32.89 28.8 33.21 28.92 33.48 29.17C33.75 29.42 33.98 29.79 34.17 30.28C34.4 30.86 34.65 31.35 34.92 31.74C35.19 32.13 35.56 32.45 36.05 32.71C36.54 32.96 37.17 33.09 37.96 33.09C39.05 33.09 39.93 32.83 40.61 32.32C41.29 31.81 41.63 31.17 41.63 30.4C41.63 29.79 41.45 29.3 41.08 28.92C40.71 28.54 40.24 28.25 39.66 28.05C39.08 27.85 38.3 27.64 37.33 27.41C36.03 27.1 34.94 26.74 34.06 26.33C33.18 25.92 32.49 25.36 31.97 24.65C31.45 23.94 31.2 23.05 31.2 22C31.2 20.95 31.47 20.1 32.02 19.32C32.56 18.54 33.35 17.94 34.38 17.52C35.41 17.1 36.62 16.89 38.01 16.89C39.12 16.89 40.08 17.03 40.89 17.31C41.7 17.59 42.37 17.96 42.91 18.42C43.44 18.88 43.84 19.37 44.08 19.87C44.33 20.38 44.45 20.87 44.45 21.36C44.45 21.8 44.3 22.2 43.99 22.55C43.68 22.9 43.3 23.08 42.84 23.08C42.42 23.08 42.1 22.97 41.88 22.76C41.66 22.55 41.43 22.2 41.17 21.72C40.84 21.03 40.45 20.49 39.99 20.1C39.53 19.71 38.79 19.52 37.77 19.52C36.82 19.52 36.06 19.73 35.48 20.15C34.9 20.57 34.61 21.08 34.61 21.67C34.61 22.04 34.71 22.35 34.91 22.62C35.11 22.89 35.38 23.12 35.72 23.31C36.06 23.5 36.42 23.65 36.77 23.76C37.12 23.87 37.71 24.03 38.52 24.23C39.54 24.47 40.47 24.74 41.29 25.03C42.11 25.32 42.82 25.67 43.4 26.09C43.98 26.51 44.43 27.03 44.76 27.67C45.09 28.31 45.25 29.09 45.25 30.01H45.26Z" fill="#2291FF"/>
<path d="M61.08 28.88C61.08 29.9 60.92 30.83 60.61 31.69C60.29 32.55 59.84 33.28 59.24 33.9C58.64 34.52 57.93 34.99 57.09 35.32C56.26 35.65 55.32 35.81 54.28 35.81C53.24 35.81 52.32 35.64 51.5 35.31C50.68 34.98 49.96 34.5 49.36 33.88C48.76 33.26 48.3 32.53 47.99 31.68C47.68 30.84 47.52 29.9 47.52 28.88C47.52 27.86 47.68 26.9 47.99 26.05C48.31 25.19 48.76 24.46 49.35 23.85C49.94 23.24 50.66 22.77 51.5 22.45C52.34 22.12 53.27 21.96 54.28 21.96C55.29 21.96 56.25 22.13 57.09 22.46C57.93 22.79 58.65 23.27 59.25 23.88C59.85 24.5 60.3 25.23 60.62 26.08C60.93 26.93 61.09 27.87 61.09 28.89L61.08 28.88ZM57.66 28.88C57.66 27.49 57.35 26.41 56.74 25.63C56.13 24.85 55.31 24.47 54.28 24.47C53.61 24.47 53.03 24.64 52.52 24.99C52.01 25.33 51.62 25.84 51.35 26.52C51.08 27.19 50.94 27.98 50.94 28.88C50.94 29.78 51.07 30.55 51.35 31.21C51.62 31.88 52.01 32.39 52.51 32.74C53.01 33.09 53.61 33.27 54.29 33.27C55.32 33.27 56.14 32.88 56.75 32.1C57.36 31.32 57.67 30.25 57.67 28.87L57.66 28.88Z" fill="#2291FF"/>
<path d="M63.76 33.74V18.96C63.76 18.28 63.91 17.76 64.22 17.41C64.53 17.06 64.93 16.89 65.45 16.89C65.97 16.89 66.38 17.06 66.7 17.41C67.02 17.76 67.17 18.27 67.17 18.96V33.74C67.17 34.43 67.01 34.95 66.69 35.29C66.37 35.64 65.95 35.81 65.45 35.81C64.95 35.81 64.54 35.63 64.23 35.27C63.92 34.91 63.76 34.4 63.76 33.73V33.74Z" fill="#2291FF"/>
</g>
<path opacity="0.09" d="M0.0699463 30.58C0.0699463 30.58 4.55994 12.51 51.0599 13.35C97.5599 14.19 97.6399 30.44 97.6399 30.44L98.1499 0.639999L0.799927 0.399994L0.0799255 30.58H0.0699463Z" fill="#1A1515"/>
<path d="M49.1 159.4C60.1457 159.4 69.1 150.446 69.1 139.4C69.1 128.354 60.1457 119.4 49.1 119.4C38.0543 119.4 29.1 128.354 29.1 139.4C29.1 150.446 38.0543 159.4 49.1 159.4Z" fill="#F9F9F9"/>
<path d="M52.1099 134.29H47.6999L47.1699 137.3C48.0499 136.83 48.8599 136.59 49.5999 136.59C50.1899 136.59 50.7499 136.7 51.2699 136.92C51.7899 137.14 52.2399 137.45 52.6299 137.84C53.0199 138.23 53.3299 138.7 53.5499 139.24C53.7699 139.78 53.8799 140.36 53.8799 140.98C53.8799 141.88 53.6799 142.69 53.2799 143.43C52.8799 144.17 52.2999 144.75 51.5399 145.18C50.7799 145.61 49.9099 145.83 48.9199 145.83C47.8099 145.83 46.9199 145.62 46.2199 145.22C45.5299 144.81 45.0399 144.34 44.7499 143.81C44.4599 143.28 44.3199 142.82 44.3199 142.42C44.3199 142.18 44.4199 141.95 44.6199 141.73C44.8199 141.51 45.0699 141.41 45.3799 141.41C45.8999 141.41 46.2899 141.71 46.5399 142.31C46.7899 142.86 47.1199 143.29 47.5399 143.6C47.9599 143.91 48.4299 144.06 48.9499 144.06C49.4299 144.06 49.8399 143.94 50.1999 143.69C50.5599 143.44 50.8299 143.1 51.0299 142.67C51.2199 142.24 51.3199 141.75 51.3199 141.2C51.3199 140.61 51.2099 140.1 50.9999 139.68C50.7899 139.26 50.5099 138.95 50.1599 138.74C49.8099 138.53 49.4099 138.43 48.9799 138.43C48.4499 138.43 48.0699 138.5 47.8399 138.62C47.6099 138.75 47.2799 138.98 46.8499 139.3C46.4199 139.62 46.0699 139.79 45.7899 139.79C45.4899 139.79 45.2199 139.68 44.9799 139.46C44.7399 139.24 44.6299 138.99 44.6299 138.71C44.6299 138.68 44.6599 138.47 44.7299 138.08L45.5099 133.64C45.5999 133.11 45.7599 132.72 45.9899 132.48C46.2299 132.24 46.6099 132.12 47.1399 132.12H52.0399C52.9999 132.12 53.4899 132.49 53.4899 133.22C53.4899 133.54 53.3699 133.8 53.1399 134C52.8999 134.2 52.5599 134.3 52.0999 134.3L52.1099 134.29Z" fill="#2291FF"/>
<defs>
<clipPath id="clip0_283_3068">
<rect width="36.3" height="18.92" fill="white" transform="translate(30.87 16.89)"/>
</clipPath>
</defs>
</svg>
