<svg width="99" height="184" viewBox="0 0 99 184" fill="none" xmlns="http://www.w3.org/2000/svg">
<path d="M98.34 171.43H0.140015L3.32999 183.49H95.15L98.34 171.43Z" fill="#98ADCE"/>
<path d="M94.02 0H4.44C2.05966 0 0.130005 1.92965 0.130005 4.31V168.84C0.130005 171.22 2.05966 173.15 4.44 173.15H94.02C96.4003 173.15 98.33 171.22 98.33 168.84V4.31C98.33 1.92965 96.4003 0 94.02 0Z" fill="#B8D1F9"/>
<path opacity="0.09" d="M0.199951 30.58C0.199951 30.58 4.68994 12.51 51.1899 13.35C97.6899 14.19 97.7699 30.44 97.7699 30.44L98.2799 0.639994L0.929932 0.399994L0.20993 30.58H0.199951Z" fill="#1A1515"/>
<path d="M49.23 159.4C60.2757 159.4 69.23 150.446 69.23 139.4C69.23 128.354 60.2757 119.4 49.23 119.4C38.1843 119.4 29.23 128.354 29.23 139.4C29.23 150.446 38.1843 159.4 49.23 159.4Z" fill="#F9F9F9"/>
<path d="M52.2399 134.29H47.8299L47.2999 137.3C48.1799 136.83 48.99 136.59 49.7299 136.59C50.32 136.59 50.8799 136.7 51.3999 136.92C51.9199 137.14 52.3699 137.45 52.7599 137.84C53.1499 138.23 53.4599 138.7 53.6799 139.24C53.8999 139.78 54.0099 140.36 54.0099 140.98C54.0099 141.88 53.8099 142.69 53.4099 143.43C53.0099 144.17 52.43 144.75 51.67 145.18C50.91 145.61 50.0399 145.83 49.0499 145.83C47.9399 145.83 47.0499 145.62 46.3499 145.22C45.6599 144.81 45.1699 144.34 44.8799 143.81C44.5899 143.28 44.45 142.82 44.45 142.42C44.45 142.18 44.5499 141.95 44.7499 141.73C44.9499 141.51 45.1999 141.41 45.5099 141.41C46.0299 141.41 46.42 141.71 46.67 142.31C46.92 142.86 47.25 143.29 47.67 143.6C48.09 143.91 48.5599 144.06 49.0799 144.06C49.5599 144.06 49.9699 143.94 50.3299 143.69C50.6899 143.44 50.9599 143.1 51.1599 142.67C51.3499 142.24 51.45 141.75 51.45 141.2C51.45 140.61 51.3399 140.1 51.1299 139.68C50.9199 139.26 50.6399 138.95 50.2899 138.74C49.9399 138.53 49.5399 138.43 49.1099 138.43C48.5799 138.43 48.1999 138.5 47.9699 138.62C47.7399 138.75 47.41 138.98 46.9799 139.3C46.5499 139.62 46.2 139.79 45.92 139.79C45.62 139.79 45.3499 139.68 45.1099 139.46C44.8699 139.24 44.7599 138.99 44.7599 138.71C44.7599 138.68 44.7899 138.47 44.8599 138.08L45.64 133.64C45.73 133.11 45.8899 132.72 46.1199 132.48C46.3599 132.24 46.7399 132.12 47.2699 132.12H52.17C53.13 132.12 53.6199 132.49 53.6199 133.22C53.6199 133.54 53.4999 133.8 53.2699 134C53.0299 134.2 52.6899 134.3 52.2299 134.3L52.2399 134.29Z" fill="#9FB4D3"/>
<path d="M45.43 27.99C45.43 29.1 45.14 30.09 44.58 30.97C44.01 31.85 43.18 32.54 42.08 33.04C40.98 33.54 39.68 33.79 38.17 33.79C36.36 33.79 34.88 33.45 33.7 32.77C32.87 32.28 32.19 31.62 31.67 30.8C31.15 29.98 30.89 29.18 30.89 28.41C30.89 27.96 31.05 27.58 31.36 27.26C31.67 26.94 32.07 26.78 32.55 26.78C32.94 26.78 33.27 26.9 33.54 27.15C33.81 27.4 34.04 27.77 34.23 28.26C34.46 28.84 34.71 29.33 34.98 29.72C35.25 30.11 35.63 30.43 36.12 30.69C36.61 30.94 37.26 31.07 38.05 31.07C39.15 31.07 40.04 30.81 40.73 30.3C41.42 29.79 41.76 29.15 41.76 28.38C41.76 27.77 41.58 27.28 41.21 26.9C40.84 26.52 40.36 26.23 39.77 26.03C39.18 25.83 38.4 25.62 37.42 25.39C36.1 25.08 35 24.72 34.12 24.31C33.24 23.9 32.53 23.34 32.01 22.63C31.49 21.92 31.23 21.03 31.23 19.98C31.23 18.93 31.5 18.08 32.05 17.3C32.6 16.52 33.39 15.92 34.43 15.5C35.47 15.08 36.69 14.87 38.1 14.87C39.22 14.87 40.19 15.01 41.01 15.29C41.83 15.57 42.51 15.94 43.05 16.4C43.59 16.86 43.99 17.35 44.24 17.85C44.49 18.36 44.61 18.85 44.61 19.34C44.61 19.78 44.45 20.18 44.14 20.53C43.83 20.88 43.44 21.06 42.97 21.06C42.55 21.06 42.22 20.95 42 20.74C41.78 20.53 41.54 20.18 41.28 19.7C40.95 19.01 40.55 18.47 40.08 18.08C39.61 17.69 38.86 17.5 37.83 17.5C36.87 17.5 36.1 17.71 35.51 18.13C34.92 18.55 34.63 19.06 34.63 19.65C34.63 20.02 34.73 20.33 34.93 20.6C35.13 20.87 35.4 21.1 35.75 21.29C36.1 21.48 36.45 21.63 36.81 21.74C37.17 21.85 37.76 22.01 38.58 22.21C39.61 22.45 40.55 22.72 41.38 23.01C42.21 23.3 42.93 23.65 43.51 24.07C44.1 24.49 44.55 25.01 44.88 25.65C45.21 26.29 45.37 27.07 45.37 27.99H45.43Z" fill="#94A8C4"/>
<path d="M61.09 26.87C61.09 27.89 60.93 28.82 60.62 29.68C60.3 30.54 59.85 31.27 59.25 31.89C58.65 32.51 57.94 32.98 57.1 33.31C56.27 33.64 55.33 33.8 54.29 33.8C53.25 33.8 52.33 33.63 51.51 33.3C50.69 32.97 49.97 32.49 49.37 31.87C48.77 31.25 48.31 30.52 48 29.67C47.69 28.83 47.53 27.89 47.53 26.87C47.53 25.85 47.69 24.89 48 24.04C48.32 23.18 48.77 22.45 49.36 21.84C49.95 21.23 50.67 20.76 51.51 20.44C52.35 20.11 53.28 19.95 54.29 19.95C55.3 19.95 56.26 20.12 57.1 20.45C57.94 20.78 58.66 21.26 59.26 21.87C59.86 22.49 60.31 23.22 60.63 24.07C60.94 24.92 61.1 25.86 61.1 26.88L61.09 26.87ZM57.67 26.87C57.67 25.48 57.36 24.4 56.75 23.62C56.14 22.84 55.32 22.46 54.29 22.46C53.62 22.46 53.04 22.63 52.53 22.98C52.02 23.32 51.63 23.83 51.36 24.51C51.09 25.18 50.95 25.97 50.95 26.87C50.95 27.77 51.08 28.54 51.36 29.2C51.63 29.87 52.02 30.38 52.52 30.73C53.02 31.08 53.62 31.26 54.3 31.26C55.33 31.26 56.15 30.87 56.76 30.09C57.37 29.31 57.68 28.24 57.68 26.86L57.67 26.87Z" fill="#94A8C4"/>
<path d="M63.77 31.72V16.94C63.77 16.26 63.92 15.74 64.23 15.39C64.54 15.04 64.94 14.87 65.46 14.87C65.98 14.87 66.39 15.04 66.71 15.39C67.03 15.74 67.18 16.25 67.18 16.94V31.72C67.18 32.41 67.02 32.93 66.7 33.27C66.38 33.62 65.96 33.79 65.46 33.79C64.96 33.79 64.55 33.61 64.24 33.25C63.93 32.89 63.77 32.38 63.77 31.71V31.72Z" fill="#94A8C4"/>
</svg>
