<svg width="142" height="224" viewBox="0 0 142 224" fill="none" xmlns="http://www.w3.org/2000/svg">
<path d="M17.87 198.27L15.15 193.54H13.67V198.27H11.73V186.45H15.81C16.72 186.45 17.48 186.61 18.11 186.93C18.74 187.25 19.21 187.67 19.52 188.2C19.83 188.73 19.99 189.33 19.99 189.99C19.99 190.76 19.77 191.46 19.32 192.09C18.87 192.72 18.18 193.15 17.25 193.37L20.17 198.27H17.86H17.87ZM13.67 192H15.81C16.54 192 17.08 191.82 17.45 191.46C17.82 191.1 18 190.61 18 190C18 189.39 17.82 188.91 17.46 188.56C17.1 188.21 16.55 188.04 15.81 188.04H13.67V192Z" fill="#A6A6A6"/>
<path d="M30.9999 194.31H23.84C23.9 195.06 24.1699 195.66 24.6699 196.11C25.1699 196.56 25.7799 196.79 26.5099 196.79C27.5499 196.79 28.2899 196.35 28.7199 195.48H30.8099C30.5299 196.34 30.01 197.05 29.27 197.6C28.53 198.15 27.6099 198.43 26.5099 198.43C25.6099 198.43 24.8099 198.23 24.0999 197.83C23.3899 197.43 22.8399 196.86 22.4299 196.13C22.0299 195.4 21.83 194.55 21.83 193.59C21.83 192.63 22.0299 191.78 22.4199 191.05C22.8099 190.32 23.3599 189.76 24.0699 189.36C24.7799 188.96 25.5899 188.77 26.5099 188.77C27.4299 188.77 28.1799 188.96 28.8699 189.35C29.5599 189.74 30.0999 190.28 30.4799 190.97C30.8699 191.67 31.0599 192.47 31.0599 193.38C31.0599 193.73 31.0399 194.05 30.9899 194.33L30.9999 194.31ZM29.0399 192.75C29.0299 192.04 28.77 191.46 28.27 191.03C27.77 190.6 27.1499 190.38 26.4199 190.38C25.7499 190.38 25.18 190.59 24.7 191.02C24.22 191.45 23.9399 192.02 23.8499 192.75H29.0399Z" fill="#A6A6A6"/>
<path d="M32.9099 191.04C33.2999 190.31 33.84 189.75 34.53 189.35C35.22 188.95 36.0099 188.76 36.9099 188.76C38.0399 188.76 38.9799 189.03 39.7199 189.57C40.4599 190.11 40.9599 190.88 41.2199 191.87H39.1299C38.9599 191.41 38.6899 191.04 38.3099 190.78C37.9299 190.52 37.47 190.39 36.9 190.39C36.11 190.39 35.4799 190.67 34.9999 191.23C34.5299 191.79 34.2899 192.58 34.2899 193.58C34.2899 194.58 34.5199 195.38 34.9999 195.94C35.4699 196.51 36.1 196.79 36.9 196.79C38.02 196.79 38.7599 196.3 39.1299 195.31H41.2199C40.9499 196.26 40.4399 197.02 39.6899 197.58C38.9399 198.14 38.01 198.42 36.9 198.42C36 198.42 35.21 198.22 34.52 197.82C33.83 197.42 33.29 196.85 32.9 196.12C32.51 195.39 32.3099 194.54 32.3099 193.58C32.3099 192.62 32.51 191.77 32.9 191.04H32.9099Z" fill="#A6A6A6"/>
<path d="M44.83 197.82C44.12 197.42 43.56 196.85 43.15 196.12C42.74 195.39 42.5399 194.54 42.5399 193.58C42.5399 192.62 42.7499 191.78 43.1699 191.05C43.5899 190.31 44.16 189.75 44.89 189.35C45.62 188.95 46.4299 188.76 47.3199 188.76C48.2099 188.76 49.0299 188.96 49.7499 189.35C50.4799 189.75 51.0499 190.31 51.4699 191.05C51.8899 191.79 52.0999 192.63 52.0999 193.58C52.0999 194.53 51.89 195.38 51.45 196.11C51.02 196.85 50.4299 197.42 49.6899 197.82C48.9499 198.22 48.1299 198.42 47.2299 198.42C46.3299 198.42 45.55 198.22 44.83 197.82ZM48.6299 196.39C49.0699 196.15 49.4199 195.79 49.6899 195.32C49.9599 194.84 50.0999 194.27 50.0999 193.59C50.0999 192.91 49.97 192.34 49.71 191.86C49.45 191.39 49.0999 191.04 48.6699 190.8C48.2399 190.56 47.77 190.44 47.28 190.44C46.79 190.44 46.32 190.56 45.89 190.8C45.47 191.04 45.1299 191.39 44.8799 191.86C44.6299 192.33 44.5099 192.91 44.5099 193.59C44.5099 194.6 44.77 195.38 45.28 195.93C45.8 196.48 46.4399 196.75 47.2299 196.75C47.7299 196.75 48.1999 196.63 48.6299 196.39Z" fill="#A6A6A6"/>
<path d="M57.08 189.15C57.55 188.88 58.11 188.75 58.75 188.75V190.76H58.26C57.5 190.76 56.93 190.95 56.53 191.34C56.14 191.72 55.94 192.39 55.94 193.35V198.28H54V188.91H55.94V190.27C56.22 189.79 56.6 189.42 57.07 189.16L57.08 189.15Z" fill="#A6A6A6"/>
<path d="M62.8 190.49V195.68C62.8 196.03 62.88 196.28 63.05 196.44C63.21 196.59 63.49 196.67 63.89 196.67H65.08V198.29H63.55C62.68 198.29 62.01 198.09 61.54 197.68C61.08 197.27 60.84 196.61 60.84 195.69V190.5H59.74V188.92H60.84V186.59H62.8V188.92H65.08V190.5H62.8V190.49Z" fill="#A6A6A6"/>
<path d="M75.3799 194.31H68.2199C68.2799 195.06 68.5499 195.66 69.0499 196.11C69.5499 196.56 70.16 196.79 70.89 196.79C71.93 196.79 72.6699 196.35 73.0999 195.48H75.1899C74.9099 196.34 74.39 197.05 73.65 197.6C72.91 198.15 71.99 198.43 70.89 198.43C69.99 198.43 69.1899 198.23 68.4799 197.83C67.7699 197.43 67.2199 196.86 66.8099 196.13C66.4099 195.4 66.21 194.55 66.21 193.59C66.21 192.63 66.4099 191.78 66.7999 191.05C67.1899 190.32 67.74 189.76 68.45 189.36C69.16 188.96 69.97 188.77 70.89 188.77C71.81 188.77 72.5599 188.96 73.2499 189.35C73.9399 189.74 74.4799 190.28 74.8599 190.97C75.2399 191.66 75.4399 192.47 75.4399 193.38C75.4399 193.73 75.4199 194.05 75.3699 194.33L75.3799 194.31ZM73.4299 192.75C73.4199 192.04 73.1599 191.46 72.6599 191.03C72.1599 190.6 71.5399 190.38 70.8099 190.38C70.1399 190.38 69.57 190.59 69.09 191.02C68.61 191.45 68.3299 192.02 68.2399 192.75H73.4299Z" fill="#A6A6A6"/>
<path d="M90.2899 194.31H83.1299C83.1899 195.06 83.4599 195.66 83.9599 196.11C84.4599 196.56 85.0699 196.79 85.7999 196.79C86.8399 196.79 87.5799 196.35 88.0099 195.48H90.0999C89.8199 196.34 89.2999 197.05 88.5599 197.6C87.8199 198.15 86.8999 198.43 85.7999 198.43C84.8999 198.43 84.0999 198.23 83.3899 197.83C82.6799 197.43 82.1298 196.86 81.7198 196.13C81.3198 195.4 81.1199 194.55 81.1199 193.59C81.1199 192.63 81.3199 191.78 81.7099 191.05C82.0999 190.32 82.6499 189.76 83.3599 189.36C84.0699 188.96 84.8799 188.77 85.7999 188.77C86.7199 188.77 87.4699 188.96 88.1599 189.35C88.8499 189.74 89.3899 190.28 89.7799 190.97C90.1699 191.67 90.3599 192.47 90.3599 193.38C90.3599 193.73 90.3399 194.05 90.2899 194.33V194.31ZM88.3399 192.75C88.3299 192.04 88.0699 191.46 87.5799 191.03C87.0799 190.6 86.4599 190.38 85.7299 190.38C85.0599 190.38 84.4899 190.59 84.0099 191.02C83.5299 191.45 83.2499 192.02 83.1599 192.75H88.3399Z" fill="#A6A6A6"/>
<path d="M96.62 191.04C97.01 190.31 97.55 189.75 98.24 189.35C98.93 188.95 99.72 188.76 100.62 188.76C101.75 188.76 102.69 189.03 103.43 189.57C104.17 190.11 104.67 190.88 104.93 191.87H102.84C102.67 191.41 102.4 191.04 102.02 190.78C101.64 190.52 101.18 190.39 100.61 190.39C99.82 190.39 99.18 190.67 98.71 191.23C98.24 191.79 98 192.58 98 193.58C98 194.58 98.23 195.38 98.71 195.94C99.18 196.51 99.81 196.79 100.61 196.79C101.73 196.79 102.47 196.3 102.84 195.31H104.93C104.66 196.26 104.15 197.02 103.4 197.58C102.65 198.14 101.72 198.42 100.61 198.42C99.71 198.42 98.92 198.22 98.23 197.82C97.54 197.42 97 196.85 96.61 196.12C96.22 195.39 96.02 194.54 96.02 193.58C96.02 192.62 96.22 191.77 96.61 191.04H96.62Z" fill="#A6A6A6"/>
<path d="M108.55 197.82C107.84 197.42 107.28 196.85 106.87 196.12C106.46 195.39 106.26 194.54 106.26 193.58C106.26 192.62 106.47 191.78 106.89 191.05C107.31 190.31 107.88 189.75 108.61 189.35C109.34 188.95 110.15 188.76 111.04 188.76C111.93 188.76 112.75 188.96 113.47 189.35C114.2 189.75 114.77 190.31 115.19 191.05C115.61 191.79 115.82 192.63 115.82 193.58C115.82 194.53 115.61 195.38 115.17 196.11C114.74 196.85 114.15 197.42 113.41 197.82C112.67 198.22 111.85 198.42 110.95 198.42C110.05 198.42 109.27 198.22 108.55 197.82ZM112.35 196.39C112.79 196.15 113.14 195.79 113.41 195.32C113.68 194.84 113.82 194.27 113.82 193.59C113.82 192.91 113.69 192.34 113.43 191.86C113.17 191.39 112.82 191.04 112.39 190.8C111.96 190.56 111.49 190.44 111 190.44C110.51 190.44 110.04 190.56 109.61 190.8C109.19 191.04 108.85 191.39 108.6 191.86C108.35 192.33 108.23 192.91 108.23 193.59C108.23 194.6 108.49 195.38 109 195.93C109.52 196.48 110.16 196.75 110.95 196.75C111.45 196.75 111.92 196.63 112.35 196.39Z" fill="#A6A6A6"/>
<path d="M119.67 185.69V198.27H117.73V185.69H119.67Z" fill="#A6A6A6"/>
<path d="M130.73 194.31H123.57C123.63 195.06 123.9 195.66 124.4 196.11C124.9 196.56 125.51 196.79 126.24 196.79C127.28 196.79 128.02 196.35 128.45 195.48H130.54C130.26 196.34 129.74 197.05 129 197.6C128.26 198.15 127.34 198.43 126.24 198.43C125.34 198.43 124.54 198.23 123.83 197.83C123.12 197.43 122.57 196.86 122.16 196.13C121.76 195.4 121.56 194.55 121.56 193.59C121.56 192.63 121.76 191.78 122.15 191.05C122.54 190.32 123.09 189.76 123.8 189.36C124.51 188.96 125.32 188.77 126.24 188.77C127.16 188.77 127.91 188.96 128.6 189.35C129.29 189.74 129.83 190.28 130.22 190.97C130.6 191.67 130.8 192.47 130.8 193.38C130.8 193.73 130.78 194.05 130.73 194.33V194.31ZM128.78 192.75C128.77 192.04 128.51 191.46 128.02 191.03C127.52 190.6 126.9 190.38 126.17 190.38C125.5 190.38 124.93 190.59 124.45 191.02C123.97 191.45 123.69 192.02 123.6 192.75H128.78Z" fill="#A6A6A6"/>
<path d="M2.49994 218.22C1.78994 217.82 1.22995 217.25 0.819946 216.52C0.409946 215.79 0.209961 214.94 0.209961 213.98C0.209961 213.02 0.419966 212.18 0.839966 211.45C1.25997 210.71 1.82994 210.15 2.55994 209.75C3.28994 209.35 4.09993 209.16 4.98993 209.16C5.87993 209.16 6.69992 209.36 7.41992 209.75C8.14992 210.15 8.71995 210.71 9.13995 211.45C9.55995 212.19 9.76996 213.03 9.76996 213.98C9.76996 214.93 9.55993 215.78 9.11993 216.51C8.68993 217.25 8.09992 217.82 7.35992 218.22C6.61992 218.62 5.79996 218.82 4.89996 218.82C3.99996 218.82 3.21994 218.62 2.49994 218.22ZM6.29993 216.79C6.73993 216.55 7.08992 216.19 7.35992 215.72C7.62992 215.25 7.76996 214.67 7.76996 213.99C7.76996 213.31 7.63994 212.74 7.37994 212.26C7.11994 211.79 6.76997 211.44 6.33997 211.2C5.90997 210.96 5.43995 210.84 4.94995 210.84C4.45995 210.84 3.98994 210.96 3.55994 211.2C3.13994 211.44 2.79993 211.79 2.54993 212.26C2.29993 212.73 2.17993 213.31 2.17993 213.99C2.17993 215 2.43995 215.78 2.94995 216.33C3.46995 216.88 4.10996 217.15 4.89996 217.15C5.39996 217.15 5.86993 217.03 6.29993 216.79Z" fill="#A6A6A6"/>
<path d="M16.0399 211.44C16.4299 210.71 16.9699 210.15 17.6599 209.75C18.3499 209.35 19.1399 209.16 20.0399 209.16C21.1699 209.16 22.1099 209.43 22.8499 209.97C23.5899 210.51 24.0899 211.28 24.3499 212.27H22.2599C22.0899 211.81 21.8199 211.44 21.4399 211.18C21.0699 210.92 20.6 210.79 20.03 210.79C19.24 210.79 18.5999 211.07 18.1299 211.63C17.6599 212.19 17.4199 212.98 17.4199 213.98C17.4199 214.98 17.6599 215.78 18.1299 216.34C18.5999 216.91 19.23 217.19 20.03 217.19C21.15 217.19 21.8899 216.7 22.2599 215.71H24.3499C24.0799 216.66 23.5699 217.42 22.8199 217.98C22.0699 218.54 21.14 218.82 20.03 218.82C19.13 218.82 18.34 218.62 17.65 218.22C16.96 217.82 16.42 217.25 16.03 216.52C15.64 215.79 15.4399 214.94 15.4399 213.98C15.4399 213.02 15.64 212.17 16.03 211.44H16.0399Z" fill="#A6A6A6"/>
<path d="M27.9699 218.22C27.2599 217.82 26.6899 217.25 26.2899 216.52C25.8799 215.79 25.6799 214.94 25.6799 213.98C25.6799 213.02 25.8899 212.18 26.3099 211.45C26.7299 210.71 27.3 210.15 28.03 209.75C28.76 209.35 29.57 209.16 30.46 209.16C31.35 209.16 32.17 209.36 32.89 209.75C33.61 210.15 34.1899 210.71 34.6099 211.45C35.0299 212.19 35.2399 213.03 35.2399 213.98C35.2399 214.93 35.02 215.78 34.59 216.51C34.16 217.25 33.57 217.82 32.83 218.22C32.09 218.62 31.2699 218.82 30.3699 218.82C29.4699 218.82 28.6899 218.62 27.9699 218.22ZM31.77 216.79C32.21 216.55 32.56 216.19 32.83 215.72C33.1 215.25 33.2399 214.67 33.2399 213.99C33.2399 213.31 33.1099 212.74 32.8499 212.26C32.5899 211.79 32.2399 211.44 31.8099 211.2C31.3799 210.96 30.9099 210.84 30.4199 210.84C29.9299 210.84 29.46 210.96 29.03 211.2C28.61 211.44 28.27 211.79 28.02 212.26C27.77 212.73 27.65 213.31 27.65 213.99C27.65 215 27.9099 215.78 28.4199 216.33C28.9299 216.88 29.5799 217.15 30.3699 217.15C30.8699 217.15 31.34 217.03 31.77 216.79Z" fill="#A6A6A6"/>
<path d="M40.2198 209.55C40.6898 209.28 41.2499 209.15 41.8899 209.15V211.16H41.3999C40.6399 211.16 40.0699 211.35 39.6699 211.74C39.2799 212.12 39.0799 212.79 39.0799 213.75V218.68H37.1399V209.31H39.0799V210.67C39.3599 210.19 39.7399 209.82 40.2099 209.56L40.2198 209.55Z" fill="#A6A6A6"/>
<path d="M46.96 209.6C47.53 209.31 48.1699 209.16 48.8799 209.16C49.6999 209.16 50.4399 209.36 51.1199 209.76C51.7899 210.16 52.32 210.73 52.71 211.45C53.1 212.17 53.2899 213.01 53.2899 213.95C53.2899 214.89 53.1 215.73 52.71 216.47C52.32 217.21 51.7899 217.79 51.1199 218.2C50.4499 218.61 49.6999 218.82 48.8799 218.82C48.1699 218.82 47.5299 218.68 46.9799 218.39C46.4299 218.1 45.9699 217.74 45.6199 217.31V223.12H43.6799V209.3H45.6199V210.68C45.9499 210.25 46.4 209.89 46.96 209.59V209.6ZM50.9099 212.27C50.6399 211.8 50.2899 211.44 49.8599 211.2C49.4199 210.96 48.96 210.83 48.46 210.83C47.96 210.83 47.5099 210.95 47.0699 211.2C46.6299 211.45 46.28 211.81 46.02 212.29C45.75 212.77 45.6199 213.33 45.6199 213.97C45.6199 214.61 45.75 215.18 46.02 215.66C46.29 216.14 46.6399 216.51 47.0699 216.76C47.5099 217.01 47.97 217.13 48.46 217.13C48.95 217.13 49.4299 217 49.8599 216.75C50.2999 216.49 50.6499 216.12 50.9099 215.64C51.1799 215.15 51.3099 214.59 51.3099 213.94C51.3099 213.29 51.1799 212.74 50.9099 212.27Z" fill="#A6A6A6"/>
<path d="M56.8699 218.22C56.1599 217.82 55.5899 217.25 55.1899 216.52C54.7799 215.79 54.58 214.94 54.58 213.98C54.58 213.02 54.79 212.18 55.21 211.45C55.63 210.71 56.1999 210.15 56.9299 209.75C57.6599 209.35 58.4699 209.16 59.3599 209.16C60.2499 209.16 61.0699 209.36 61.7899 209.75C62.5099 210.15 63.0899 210.71 63.5099 211.45C63.9299 212.19 64.14 213.03 64.14 213.98C64.14 214.93 63.9199 215.78 63.4899 216.51C63.0599 217.25 62.4699 217.82 61.7299 218.22C60.9899 218.62 60.17 218.82 59.27 218.82C58.37 218.82 57.5899 218.62 56.8699 218.22ZM60.6699 216.79C61.1099 216.55 61.4599 216.19 61.7299 215.72C61.9999 215.25 62.14 214.67 62.14 213.99C62.14 213.31 62.0099 212.74 61.7499 212.26C61.4899 211.79 61.14 211.44 60.71 211.2C60.28 210.96 59.8099 210.84 59.3199 210.84C58.8299 210.84 58.3599 210.96 57.9299 211.2C57.5099 211.44 57.1699 211.79 56.9199 212.26C56.6699 212.73 56.5499 213.31 56.5499 213.99C56.5499 215 56.8099 215.78 57.3199 216.33C57.8299 216.88 58.48 217.15 59.27 217.15C59.77 217.15 60.2399 217.03 60.6699 216.79Z" fill="#A6A6A6"/>
<path d="M77.2299 209.61C77.7899 209.92 78.2299 210.37 78.5599 210.97C78.8799 211.57 79.0399 212.3 79.0399 213.15V218.68H77.1199V213.44C77.1199 212.6 76.9099 211.96 76.4899 211.51C76.0699 211.06 75.5 210.84 74.77 210.84C74.04 210.84 73.4699 211.06 73.0399 211.51C72.6199 211.96 72.4 212.6 72.4 213.44V218.68H70.46V206.1H72.4V210.4C72.73 210 73.15 209.7 73.65 209.48C74.15 209.27 74.7099 209.16 75.3099 209.16C76.0199 209.16 76.6599 209.31 77.2199 209.62L77.2299 209.61Z" fill="#A6A6A6"/>
<path d="M89.9799 209.31V218.68H88.0399V217.57C87.7299 217.96 87.33 218.26 86.84 218.48C86.35 218.7 85.82 218.81 85.27 218.81C84.53 218.81 83.8699 218.66 83.2899 218.35C82.7099 218.04 82.2499 217.59 81.9099 216.99C81.5799 216.39 81.4099 215.66 81.4099 214.81V209.3H83.33V214.52C83.33 215.36 83.54 216 83.96 216.45C84.38 216.9 84.9499 217.12 85.6799 217.12C86.4099 217.12 86.9799 216.9 87.4099 216.45C87.8299 216 88.0499 215.36 88.0499 214.52V209.3H89.9899L89.9799 209.31Z" fill="#A6A6A6"/>
<path d="M105.85 209.61C106.43 209.92 106.89 210.37 107.23 210.97C107.56 211.57 107.73 212.3 107.73 213.15V218.68H105.81V213.44C105.81 212.6 105.6 211.96 105.18 211.51C104.76 211.06 104.19 210.84 103.46 210.84C102.73 210.84 102.16 211.06 101.73 211.51C101.31 211.96 101.09 212.6 101.09 213.44V218.68H99.17V213.44C99.17 212.6 98.96 211.96 98.54 211.51C98.12 211.06 97.55 210.84 96.82 210.84C96.09 210.84 95.52 211.06 95.09 211.51C94.67 211.96 94.45 212.6 94.45 213.44V218.68H92.51V209.31H94.45V210.38C94.77 209.99 95.17 209.69 95.66 209.48C96.15 209.27 96.67 209.16 97.22 209.16C97.97 209.16 98.64 209.32 99.23 209.64C99.82 209.96 100.27 210.42 100.59 211.02C100.87 210.45 101.31 210 101.92 209.67C102.52 209.34 103.17 209.17 103.86 209.17C104.6 209.17 105.26 209.32 105.84 209.63L105.85 209.61Z" fill="#A6A6A6"/>
<path d="M110.14 211.45C110.53 210.72 111.06 210.16 111.74 209.76C112.41 209.36 113.16 209.16 113.98 209.16C114.72 209.16 115.36 209.3 115.91 209.59C116.46 209.88 116.9 210.24 117.23 210.67V209.31H119.19V218.68H117.23V217.29C116.9 217.73 116.45 218.1 115.89 218.39C115.32 218.68 114.68 218.83 113.95 218.83C113.15 218.83 112.41 218.62 111.74 218.21C111.07 217.8 110.54 217.22 110.15 216.48C109.76 215.74 109.56 214.9 109.56 213.96C109.56 213.02 109.76 212.19 110.15 211.46L110.14 211.45ZM116.82 212.3C116.55 211.82 116.2 211.46 115.77 211.21C115.34 210.96 114.87 210.84 114.38 210.84C113.89 210.84 113.42 210.96 112.99 211.21C112.56 211.45 112.21 211.81 111.94 212.28C111.67 212.75 111.54 213.31 111.54 213.95C111.54 214.59 111.67 215.16 111.94 215.65C112.21 216.14 112.56 216.51 112.99 216.76C113.43 217.01 113.89 217.14 114.38 217.14C114.87 217.14 115.34 217.02 115.77 216.77C116.2 216.52 116.55 216.16 116.82 215.67C117.09 215.19 117.22 214.63 117.22 213.98C117.22 213.33 117.09 212.77 116.82 212.3Z" fill="#A6A6A6"/>
<path d="M128.43 209.61C129.01 209.92 129.47 210.37 129.8 210.97C130.13 211.57 130.29 212.3 130.29 213.15V218.68H128.37V213.44C128.37 212.6 128.16 211.96 127.74 211.51C127.32 211.06 126.75 210.84 126.02 210.84C125.29 210.84 124.72 211.06 124.29 211.51C123.86 211.96 123.65 212.6 123.65 213.44V218.68H121.71V209.31H123.65V210.38C123.97 209.99 124.37 209.69 124.87 209.48C125.36 209.27 125.89 209.16 126.44 209.16C127.18 209.16 127.84 209.31 128.42 209.62L128.43 209.61Z" fill="#A6A6A6"/>
<path d="M134.42 218.22C133.71 217.82 133.15 217.25 132.74 216.52C132.33 215.79 132.13 214.94 132.13 213.98C132.13 213.02 132.34 212.18 132.76 211.45C133.18 210.71 133.75 210.15 134.48 209.75C135.2 209.35 136.02 209.16 136.91 209.16C137.8 209.16 138.62 209.36 139.34 209.75C140.06 210.14 140.64 210.71 141.06 211.45C141.48 212.19 141.69 213.03 141.69 213.98C141.69 214.93 141.47 215.78 141.04 216.51C140.61 217.25 140.02 217.82 139.28 218.22C138.54 218.62 137.72 218.82 136.82 218.82C135.92 218.82 135.14 218.62 134.42 218.22ZM138.22 216.79C138.66 216.55 139.01 216.19 139.28 215.72C139.55 215.24 139.69 214.67 139.69 213.99C139.69 213.31 139.56 212.74 139.3 212.26C139.04 211.79 138.69 211.44 138.26 211.2C137.83 210.96 137.36 210.84 136.87 210.84C136.38 210.84 135.91 210.96 135.48 211.2C135.06 211.44 134.72 211.79 134.47 212.26C134.22 212.73 134.1 213.31 134.1 213.99C134.1 215 134.36 215.78 134.87 216.33C135.38 216.88 136.03 217.15 136.82 217.15C137.32 217.15 137.79 217.03 138.22 216.79Z" fill="#A6A6A6"/>
<path d="M99.41 31.45C98.93 31.3 98.43 31.2899 97.93 31.4099C97.93 31.2599 97.93 31.1 97.93 30.95C97.93 14.65 84.72 1.43994 68.42 1.43994C52.12 1.43994 38.91 14.65 38.91 30.95C38.91 31.09 38.91 31.2399 38.91 31.3799C38.46 31.2899 38.0001 31.31 37.5601 31.45C35.6201 32.07 34.7801 34.8599 35.6801 37.6799C36.5801 40.4999 38.8901 42.29 40.8301 41.67C40.8601 41.67 40.8801 41.65 40.9001 41.64C44.8401 51.77 54.2001 59.1799 65.4301 60.3099C65.4001 60.4799 65.3801 60.6499 65.3801 60.8199V63.2499C65.3801 64.9299 66.74 66.2899 68.42 66.2899C70.1 66.2899 71.4601 64.9299 71.4601 63.2499V60.8199C71.4601 60.6399 71.44 60.4699 71.41 60.3099C82.65 59.1799 92.0301 51.7399 95.9501 41.5899C96.0101 41.6199 96.0701 41.64 96.1401 41.67C98.0801 42.29 100.39 40.5099 101.29 37.6799C102.19 34.8599 101.35 32.07 99.41 31.45Z" fill="white" stroke="#010200" stroke-miterlimit="10"/>
<path d="M82.8801 43.7001C86.3705 43.7001 89.2001 40.9824 89.2001 37.6301C89.2001 34.2777 86.3705 31.5601 82.8801 31.5601C79.3896 31.5601 76.5601 34.2777 76.5601 37.6301C76.5601 40.9824 79.3896 43.7001 82.8801 43.7001Z" fill="#010200" stroke="#010200" stroke-miterlimit="10"/>
<path d="M53.2401 44.6698C56.7305 44.6698 59.5601 41.9522 59.5601 38.5998C59.5601 35.2474 56.7305 32.5298 53.2401 32.5298C49.7496 32.5298 46.92 35.2474 46.92 38.5998C46.92 41.9522 49.7496 44.6698 53.2401 44.6698Z" fill="#010200" stroke="#010200" stroke-miterlimit="10"/>
<path d="M66.1201 49.5298C66.7701 50.4498 68.6101 51.7298 70.7401 49.5298H66.1201Z" fill="white"/>
<path d="M66.1201 49.5298C66.7701 50.4498 68.6101 51.7298 70.7401 49.5298" stroke="#010200" stroke-linecap="round"/>
<path d="M86.2801 37.3898C87.219 37.3898 87.98 36.6286 87.98 35.6898C87.98 34.7509 87.219 33.9897 86.2801 33.9897C85.3412 33.9897 84.5801 34.7509 84.5801 35.6898C84.5801 36.6286 85.3412 37.3898 86.2801 37.3898Z" fill="white" stroke="#010200" stroke-miterlimit="10"/>
<path d="M56.6401 38.36C57.579 38.36 58.3401 37.5989 58.3401 36.66C58.3401 35.7211 57.579 34.96 56.6401 34.96C55.7012 34.96 54.9401 35.7211 54.9401 36.66C54.9401 37.5989 55.7012 38.36 56.6401 38.36Z" fill="white" stroke="#010200" stroke-miterlimit="10"/>
<path d="M70.8201 68.1499H65.9501C59.2398 68.1499 53.8 73.5896 53.8 80.2999V94.8199C53.8 101.53 59.2398 106.97 65.9501 106.97H70.8201C77.5303 106.97 82.97 101.53 82.97 94.8199V80.2999C82.97 73.5896 77.5303 68.1499 70.8201 68.1499Z" fill="white" stroke="#010200" stroke-miterlimit="10"/>
<path d="M51.2001 77.3098L41.0901 84.8799C40.0201 85.6799 38.4901 85.4599 37.6901 84.3899C36.8901 83.3199 37.1101 81.7898 38.1801 80.9898L48.2901 73.4199C49.3601 72.6199 50.8901 72.8398 51.6901 73.9098C52.4901 74.9798 52.2701 76.5098 51.2001 77.3098Z" fill="white" stroke="#010200" stroke-miterlimit="10"/>
<path d="M87.03 77.3802L97.14 84.9502C98.21 85.7502 99.74 85.5302 100.54 84.4602C101.34 83.3902 101.12 81.8602 100.05 81.0602L89.94 73.4902C88.87 72.6902 87.34 72.9102 86.54 73.9802C85.74 75.0502 85.96 76.5802 87.03 77.3802Z" fill="white" stroke="#010200" stroke-miterlimit="10"/>
<path d="M33.98 91.4598L27.86 102.51C27.21 103.68 25.73 104.11 24.56 103.46C23.39 102.81 22.96 101.33 23.61 100.16L29.73 89.1098C30.38 87.9398 31.8601 87.5098 33.0301 88.1598C34.2001 88.8098 34.63 90.2898 33.98 91.4598Z" fill="white" stroke="#010200" stroke-miterlimit="10"/>
<path d="M100.46 94.1097L106.58 105.16C107.23 106.33 108.71 106.76 109.88 106.11C111.05 105.46 111.48 103.98 110.83 102.81L104.71 91.7598C104.06 90.5898 102.58 90.1597 101.41 90.8097C100.24 91.4597 99.8101 92.9397 100.46 94.1097Z" fill="white" stroke="#010200" stroke-miterlimit="10"/>
<path d="M75.41 110.95C77.02 110.95 78.32 112.26 78.32 113.86V128.19C78.32 129.8 77.01 131.1 75.41 131.1C73.8 131.1 72.5 129.79 72.5 128.19V113.86C72.5 112.25 73.81 110.95 75.41 110.95Z" fill="white" stroke="#010200" stroke-miterlimit="10"/>
<path d="M61.3301 110.95C62.9401 110.95 64.2401 112.26 64.2401 113.86V128.19C64.2401 129.8 62.9301 131.1 61.3301 131.1C59.7201 131.1 58.42 129.79 58.42 128.19V113.86C58.42 112.25 59.7301 110.95 61.3301 110.95Z" fill="white" stroke="#010200" stroke-miterlimit="10"/>
<path d="M75.41 135.36C77.02 135.36 78.32 136.67 78.32 138.27V152.6C78.32 154.21 77.01 155.51 75.41 155.51C73.8 155.51 72.5 154.21 72.5 152.6V138.27C72.5 136.66 73.81 135.36 75.41 135.36Z" fill="white" stroke="#010200" stroke-miterlimit="10"/>
<path d="M61.3301 135.36C62.9401 135.36 64.2401 136.67 64.2401 138.27V152.6C64.2401 154.21 62.9301 155.51 61.3301 155.51C59.7201 155.51 58.42 154.21 58.42 152.6V138.27C58.42 136.66 59.7301 135.36 61.3301 135.36Z" fill="white" stroke="#010200" stroke-miterlimit="10"/>
<g opacity="0.2">
<path d="M86.4001 53.6601C87.941 53.6601 89.1901 52.411 89.1901 50.8701C89.1901 49.3292 87.941 48.0801 86.4001 48.0801C84.8593 48.0801 83.6101 49.3292 83.6101 50.8701C83.6101 52.411 84.8593 53.6601 86.4001 53.6601Z" fill="white" stroke="#010200" stroke-miterlimit="10"/>
</g>
<g opacity="0.2">
<path d="M50.4501 53.6601C51.9909 53.6601 53.2401 52.411 53.2401 50.8701C53.2401 49.3292 51.9909 48.0801 50.4501 48.0801C48.9092 48.0801 47.66 49.3292 47.66 50.8701C47.66 52.411 48.9092 53.6601 50.4501 53.6601Z" fill="white" stroke="#010200" stroke-miterlimit="10"/>
</g>
<path d="M24.23 113.46L23.91 111.76C23.86 111.49 23.7201 111.26 23.5301 111.08C23.5001 109.98 22.96 108.9 21.99 108.22C20.36 107.1 18.13 107.5 17 109.13L15.8 110.87C14.68 112.5 15.0801 114.73 16.7101 115.86C18.3401 116.99 20.5701 116.58 21.7001 114.95L22.0701 114.42C22.3401 114.77 22.7901 114.97 23.2601 114.88C23.9201 114.76 24.36 114.12 24.23 113.46Z" fill="white" stroke="#010200" stroke-miterlimit="10"/>
<path d="M115.66 111.4L114.46 109.66C113.34 108.03 111.1 107.62 109.47 108.75C108.49 109.43 107.96 110.5 107.93 111.61C107.74 111.78 107.6 112.01 107.55 112.29L107.23 113.99C107.11 114.65 107.54 115.29 108.2 115.41C108.67 115.5 109.12 115.3 109.39 114.95L109.76 115.48C110.88 117.11 113.12 117.52 114.75 116.39C116.38 115.26 116.79 113.03 115.66 111.4Z" fill="white" stroke="#010200" stroke-miterlimit="10"/>
<path d="M81.4901 163.41C81.4901 165.42 78.7701 165.11 75.4201 165.11C72.0701 165.11 69.3501 165.42 69.3501 163.41C69.3501 161.4 72.0701 159.77 75.4201 159.77C78.7701 159.77 81.4901 161.4 81.4901 163.41Z" fill="white" stroke="#010200" stroke-miterlimit="10"/>
<path d="M67.4 163.66C67.4 165.67 64.44 165.24 61.08 165.24C57.72 165.24 55.25 165.67 55.25 163.66C55.25 161.65 57.97 160.02 61.32 160.02C64.67 160.02 67.39 161.65 67.39 163.66H67.4Z" fill="white" stroke="#010200" stroke-miterlimit="10"/>
</svg>
