<svg width="473" height="663" viewBox="0 0 473 663" fill="none" xmlns="http://www.w3.org/2000/svg">
<path d="M460.94 11.73H0.830078V662.45H460.94V11.73Z" fill="#B7B7B7"/>
<path d="M471.95 0.72998H11.8398V651.45H471.95V0.72998Z" fill="white" stroke="#222221" stroke-miterlimit="10"/>
<path d="M338.55 217.2C337.07 216.73 335.53 216.71 334 217.08C334 216.61 334.02 216.14 334.02 215.67C334.02 165.6 293.43 125.02 243.37 125.02C193.31 125.02 152.72 165.61 152.72 215.67C152.72 216.11 152.73 216.55 152.74 216.99C151.34 216.72 149.94 216.77 148.59 217.2C142.63 219.11 140.04 227.68 142.82 236.35C145.59 245.02 152.67 250.5 158.63 248.6C158.71 248.58 158.78 248.54 158.86 248.51C170.95 279.62 199.73 302.4 234.2 305.87C234.11 306.38 234.06 306.91 234.06 307.45V314.91C234.06 320.06 238.24 324.24 243.39 324.24C248.54 324.24 252.72 320.06 252.72 314.91V307.45C252.72 306.91 252.66 306.38 252.58 305.87C287.1 302.4 315.91 279.55 327.97 248.37C328.16 248.45 328.35 248.54 328.55 248.6C334.51 250.51 341.59 245.02 344.36 236.35C347.13 227.68 344.55 219.11 338.59 217.2H338.55Z" fill="white" stroke="#010200" stroke-miterlimit="10"/>
<path d="M156.47 53.29C157.16 52.11 158.1 51.19 159.29 50.52C160.48 49.85 161.78 49.52 163.19 49.52C164.81 49.52 166.25 49.92 167.51 50.71C168.77 51.5 169.68 52.63 170.25 54.09H167.25C166.86 53.29 166.31 52.69 165.61 52.3C164.91 51.91 164.1 51.71 163.18 51.71C162.17 51.71 161.28 51.94 160.49 52.39C159.7 52.84 159.09 53.49 158.64 54.34C158.19 55.18 157.97 56.17 157.97 57.29C157.97 58.41 158.19 59.4 158.64 60.24C159.08 61.09 159.7 61.74 160.49 62.2C161.28 62.66 162.17 62.89 163.18 62.89C164.1 62.89 164.91 62.69 165.61 62.3C166.31 61.91 166.86 61.31 167.25 60.51H170.25C169.68 61.97 168.77 63.09 167.51 63.88C166.25 64.67 164.81 65.06 163.19 65.06C161.76 65.06 160.46 64.73 159.28 64.07C158.1 63.41 157.16 62.48 156.47 61.3C155.78 60.12 155.43 58.79 155.43 57.3C155.43 55.81 155.78 54.48 156.47 53.3V53.29Z" fill="#010200"/>
<path d="M176.19 64.08C175 63.42 174.06 62.49 173.37 61.3C172.68 60.11 172.33 58.77 172.33 57.29C172.33 55.81 172.68 54.47 173.37 53.29C174.06 52.11 175 51.19 176.19 50.52C177.38 49.85 178.68 49.52 180.09 49.52C181.5 49.52 182.83 49.85 184.01 50.52C185.2 51.18 186.13 52.1 186.82 53.29C187.5 54.47 187.85 55.8 187.85 57.29C187.85 58.78 187.51 60.11 186.82 61.3C186.13 62.49 185.2 63.41 184.01 64.08C182.82 64.74 181.51 65.08 180.09 65.08C178.67 65.08 177.38 64.75 176.19 64.08ZM182.78 62.22C183.57 61.76 184.18 61.1 184.63 60.25C185.08 59.4 185.3 58.41 185.3 57.29C185.3 56.17 185.08 55.18 184.63 54.34C184.19 53.49 183.57 52.85 182.78 52.39C181.99 51.93 181.1 51.71 180.09 51.71C179.08 51.71 178.19 51.94 177.4 52.39C176.61 52.84 176 53.49 175.55 54.34C175.1 55.18 174.88 56.17 174.88 57.29C174.88 58.41 175.1 59.4 175.55 60.25C175.99 61.1 176.61 61.76 177.4 62.22C178.19 62.68 179.08 62.91 180.09 62.91C181.1 62.91 181.99 62.68 182.78 62.22Z" fill="#010200"/>
<path d="M198.19 64.9202L194.69 58.8402H192.79V64.9202H190.3V49.7202H195.55C196.72 49.7202 197.7 49.9302 198.51 50.3302C199.32 50.7402 199.92 51.2902 200.33 51.9702C200.73 52.6602 200.93 53.4202 200.93 54.2702C200.93 55.2602 200.64 56.1602 200.07 56.9702C199.49 57.7802 198.61 58.3302 197.41 58.6202L201.17 64.9202H198.2H198.19ZM192.79 56.8502H195.54C196.47 56.8502 197.18 56.6202 197.65 56.1502C198.12 55.6802 198.36 55.0602 198.36 54.2702C198.36 53.4802 198.13 52.8702 197.66 52.4202C197.19 51.9802 196.49 51.7502 195.54 51.7502H192.79V56.8402V56.8502Z" fill="#010200"/>
<path d="M214.2 56.43C213.83 57.12 213.25 57.67 212.45 58.1C211.65 58.53 210.62 58.74 209.37 58.74H206.62V64.91H204.13V49.71H209.38C210.55 49.71 211.53 49.91 212.34 50.31C213.15 50.71 213.75 51.25 214.16 51.94C214.56 52.63 214.76 53.39 214.76 54.24C214.76 55.01 214.58 55.74 214.21 56.43H214.2ZM211.49 56.07C211.96 55.64 212.19 55.03 212.19 54.24C212.19 52.58 211.25 51.75 209.37 51.75H206.62V56.71H209.37C210.32 56.71 211.02 56.5 211.49 56.06V56.07Z" fill="#010200"/>
<path d="M220.16 64.08C218.97 63.42 218.03 62.49 217.34 61.3C216.65 60.11 216.3 58.77 216.3 57.29C216.3 55.81 216.65 54.47 217.34 53.29C218.03 52.11 218.97 51.19 220.16 50.52C221.35 49.85 222.65 49.52 224.06 49.52C225.47 49.52 226.8 49.85 227.98 50.52C229.17 51.18 230.1 52.1 230.79 53.29C231.47 54.47 231.82 55.8 231.82 57.29C231.82 58.78 231.48 60.11 230.79 61.3C230.1 62.49 229.17 63.41 227.98 64.08C226.79 64.74 225.48 65.08 224.06 65.08C222.64 65.08 221.35 64.75 220.16 64.08ZM226.75 62.22C227.54 61.76 228.15 61.1 228.6 60.25C229.05 59.4 229.27 58.41 229.27 57.29C229.27 56.17 229.05 55.18 228.6 54.34C228.16 53.49 227.54 52.85 226.75 52.39C225.96 51.93 225.07 51.71 224.06 51.71C223.05 51.71 222.16 51.94 221.37 52.39C220.58 52.84 219.97 53.49 219.52 54.34C219.07 55.18 218.85 56.17 218.85 57.29C218.85 58.41 219.07 59.4 219.52 60.25C219.96 61.1 220.58 61.76 221.37 62.22C222.16 62.68 223.05 62.91 224.06 62.91C225.07 62.91 225.96 62.68 226.75 62.22Z" fill="#010200"/>
<path d="M252.09 49.7202V64.9202H249.6V58.2702H242.45V64.9202H239.96V49.7202H242.45V56.2402H249.6V49.7202H252.09Z" fill="#010200"/>
<path d="M257.84 49.7202V59.4102C257.84 60.5602 258.14 61.4302 258.75 62.0102C259.36 62.5902 260.2 62.8902 261.28 62.8902C262.36 62.8902 263.22 62.6002 263.83 62.0102C264.43 61.4302 264.74 60.5602 264.74 59.4102V49.7202H267.23V59.3602C267.23 60.6002 266.96 61.6502 266.42 62.5102C265.88 63.3702 265.16 64.0102 264.25 64.4302C263.35 64.8502 262.35 65.0602 261.25 65.0602C260.15 65.0602 259.16 64.8502 258.27 64.4302C257.37 64.0102 256.66 63.3702 256.14 62.5102C255.61 61.6502 255.35 60.6002 255.35 59.3602V49.7202H257.84Z" fill="#010200"/>
<path d="M286.46 49.7202V64.9202H283.97V54.5102L279.33 64.9202H277.6L272.94 54.5102V64.9202H270.45V49.7202H273.14L278.47 61.6402L283.78 49.7202H286.45H286.46Z" fill="#010200"/>
<path d="M298.9 61.8099H292.54L291.45 64.9099H288.85L294.29 49.6899H297.18L302.62 64.9099H300L298.91 61.8099H298.9ZM298.2 59.7799L295.73 52.7199L293.24 59.7799H298.2Z" fill="#010200"/>
<path d="M317.46 64.9202H314.97L307.47 53.5702V64.9202H304.98V49.7002H307.47L314.97 61.0302V49.7002H317.46V64.9202Z" fill="#010200"/>
<path d="M323.77 64.08C322.58 63.42 321.64 62.49 320.95 61.3C320.26 60.11 319.91 58.77 319.91 57.29C319.91 55.81 320.26 54.47 320.95 53.29C321.64 52.11 322.58 51.19 323.77 50.52C324.96 49.85 326.26 49.52 327.67 49.52C329.08 49.52 330.41 49.85 331.59 50.52C332.78 51.18 333.71 52.1 334.4 53.29C335.08 54.47 335.43 55.8 335.43 57.29C335.43 58.78 335.09 60.11 334.4 61.3C333.71 62.49 332.78 63.41 331.59 64.08C330.4 64.74 329.09 65.08 327.67 65.08C326.25 65.08 324.96 64.75 323.77 64.08ZM330.36 62.22C331.15 61.76 331.76 61.1 332.21 60.25C332.66 59.4 332.88 58.41 332.88 57.29C332.88 56.17 332.66 55.18 332.21 54.34C331.77 53.49 331.15 52.85 330.36 52.39C329.57 51.93 328.68 51.71 327.67 51.71C326.66 51.71 325.77 51.94 324.98 52.39C324.19 52.84 323.58 53.49 323.13 54.34C322.68 55.18 322.46 56.17 322.46 57.29C322.46 58.41 322.68 59.4 323.13 60.25C323.57 61.1 324.19 61.76 324.98 62.22C325.77 62.68 326.66 62.91 327.67 62.91C328.68 62.91 329.57 62.68 330.36 62.22Z" fill="#010200"/>
<path d="M123.62 88.3497L121.14 84.0997H119.5V88.3497H118.14V77.9497H121.5C122.29 77.9497 122.95 78.0797 123.49 78.3497C124.03 78.6197 124.44 78.9797 124.71 79.4397C124.98 79.8997 125.11 80.4197 125.11 81.0097C125.11 81.7297 124.9 82.3597 124.49 82.9097C124.08 83.4597 123.46 83.8197 122.63 83.9997L125.24 88.3597H123.61L123.62 88.3497ZM119.5 83.0097H121.5C122.24 83.0097 122.79 82.8297 123.16 82.4697C123.53 82.1097 123.71 81.6197 123.71 81.0097C123.71 80.3997 123.53 79.9197 123.17 79.5797C122.81 79.2397 122.25 79.0697 121.51 79.0697H119.51V83.0097H119.5Z" fill="#010200"/>
<path d="M128.58 79.0599V82.5399H132.37V83.6599H128.58V87.2399H132.82V88.3599H127.22V77.9399H132.82V79.0599H128.58Z" fill="#010200"/>
<path d="M135.05 80.4098C135.51 79.5998 136.13 78.9598 136.92 78.5098C137.71 78.0498 138.59 77.8198 139.55 77.8198C140.68 77.8198 141.67 78.0898 142.52 78.6398C143.36 79.1898 143.98 79.9598 144.37 80.9698H142.74C142.45 80.3398 142.04 79.8598 141.49 79.5198C140.95 79.1798 140.3 79.0098 139.54 79.0098C138.78 79.0098 138.16 79.1798 137.58 79.5198C137 79.8598 136.55 80.3398 136.22 80.9598C135.89 81.5798 135.73 82.3098 135.73 83.1498C135.73 83.9898 135.89 84.6998 136.22 85.3198C136.55 85.9398 137 86.4198 137.58 86.7598C138.16 87.0998 138.81 87.2698 139.54 87.2698C140.27 87.2698 140.94 87.0998 141.49 86.7698C142.03 86.4398 142.45 85.9598 142.74 85.3298H144.37C143.98 86.3298 143.37 87.0898 142.52 87.6398C141.67 88.1798 140.68 88.4498 139.55 88.4498C138.58 88.4498 137.71 88.2198 136.92 87.7698C136.13 87.3198 135.5 86.6898 135.05 85.8798C134.59 85.0698 134.36 84.1598 134.36 83.1498C134.36 82.1398 134.59 81.2198 135.05 80.4098Z" fill="#010200"/>
<path d="M148.47 87.7798C147.67 87.3298 147.04 86.6998 146.58 85.8798C146.12 85.0698 145.89 84.1598 145.89 83.1398C145.89 82.1198 146.12 81.2098 146.58 80.3998C147.04 79.5898 147.67 78.9598 148.47 78.4998C149.26 78.0498 150.15 77.8198 151.11 77.8198C152.07 77.8198 152.97 78.0498 153.77 78.4998C154.57 78.9498 155.19 79.5798 155.65 80.3898C156.11 81.1998 156.34 82.1098 156.34 83.1398C156.34 84.1698 156.11 85.0798 155.65 85.8898C155.19 86.6998 154.57 87.3198 153.77 87.7798C152.97 88.2298 152.09 88.4598 151.11 88.4598C150.13 88.4598 149.26 88.2298 148.47 87.7798ZM153.07 86.7698C153.65 86.4298 154.11 85.9498 154.44 85.3198C154.77 84.6898 154.94 83.9698 154.94 83.1398C154.94 82.3098 154.77 81.5798 154.44 80.9498C154.11 80.3298 153.65 79.8498 153.07 79.5098C152.49 79.1698 151.84 78.9998 151.1 78.9998C150.36 78.9998 149.71 79.1698 149.13 79.5098C148.55 79.8498 148.1 80.3298 147.76 80.9498C147.43 81.5698 147.26 82.2998 147.26 83.1398C147.26 83.9798 147.43 84.6898 147.76 85.3198C148.09 85.9498 148.55 86.4298 149.13 86.7698C149.71 87.1098 150.37 87.2798 151.09 87.2798C151.81 87.2798 152.47 87.1098 153.05 86.7698H153.07Z" fill="#010200"/>
<path d="M163.6 88.3497L161.12 84.0997H159.48V88.3497H158.12V77.9497H161.48C162.27 77.9497 162.93 78.0797 163.47 78.3497C164.01 78.6197 164.42 78.9797 164.69 79.4397C164.96 79.8997 165.09 80.4197 165.09 81.0097C165.09 81.7297 164.88 82.3597 164.47 82.9097C164.06 83.4597 163.44 83.8197 162.61 83.9997L165.22 88.3597H163.59L163.6 88.3497ZM159.48 83.0097H161.48C162.22 83.0097 162.77 82.8297 163.14 82.4697C163.51 82.1097 163.69 81.6197 163.69 81.0097C163.69 80.3997 163.51 79.9197 163.15 79.5797C162.79 79.2397 162.23 79.0697 161.49 79.0697H159.49V83.0097H159.48Z" fill="#010200"/>
<path d="M173.6 77.9497V79.0497H170.77V88.3497H169.41V79.0497H166.56V77.9497H173.6Z" fill="#010200"/>
<path d="M176.63 79.0599V82.5399H180.42V83.6599H176.63V87.2399H180.87V88.3599H175.27V77.9399H180.87V79.0599H176.63Z" fill="#010200"/>
<path d="M184.33 86.4697L182.66 90.4797H181.75L182.84 86.4697H184.33Z" fill="#010200"/>
<path d="M195.93 83.1497C195.34 83.7197 194.43 84.0097 193.22 84.0097H191.22V88.3497H189.86V77.9497H193.22C194.39 77.9497 195.29 78.2297 195.9 78.7997C196.51 79.3697 196.82 80.0997 196.82 80.9897C196.82 81.8797 196.52 82.5697 195.93 83.1497ZM194.89 82.3997C195.25 82.0697 195.43 81.5997 195.43 80.9997C195.43 79.7197 194.69 79.0697 193.22 79.0697H191.22V82.8897H193.22C193.98 82.8897 194.53 82.7297 194.89 82.3997Z" fill="#010200"/>
<path d="M199.86 77.9497V88.3497H198.5V77.9497H199.86Z" fill="#010200"/>
<path d="M210.35 88.3497H208.99L203.53 80.0697V88.3497H202.17V77.9297H203.53L208.99 86.1997V77.9297H210.35V88.3497Z" fill="#010200"/>
<path d="M219.06 77.9497V79.0497H216.23V88.3497H214.87V79.0497H212.02V77.9497H219.06Z" fill="#010200"/>
<path d="M222.09 79.0599V82.5399H225.88V83.6599H222.09V87.2399H226.33V88.3599H220.73V77.9399H226.33V79.0599H222.09Z" fill="#010200"/>
<path d="M229.79 86.4697L228.12 90.4797H227.21L228.3 86.4697H229.79Z" fill="#010200"/>
<path d="M236.69 79.0599V82.5399H240.48V83.6599H236.69V87.2399H240.93V88.3599H235.33V77.9399H240.93V79.0599H236.69Z" fill="#010200"/>
<path d="M247.15 80.4098C247.61 79.5998 248.23 78.9598 249.02 78.5098C249.81 78.0498 250.69 77.8198 251.65 77.8198C252.78 77.8198 253.77 78.0898 254.62 78.6398C255.46 79.1898 256.08 79.9598 256.47 80.9698H254.84C254.55 80.3398 254.14 79.8598 253.59 79.5198C253.05 79.1798 252.4 79.0098 251.64 79.0098C250.88 79.0098 250.26 79.1798 249.68 79.5198C249.1 79.8598 248.65 80.3398 248.32 80.9598C247.99 81.5798 247.83 82.3098 247.83 83.1498C247.83 83.9898 247.99 84.6998 248.32 85.3198C248.65 85.9398 249.1 86.4198 249.68 86.7598C250.26 87.0998 250.91 87.2698 251.64 87.2698C252.37 87.2698 253.04 87.0998 253.59 86.7698C254.13 86.4398 254.55 85.9598 254.84 85.3298H256.47C256.08 86.3298 255.47 87.0898 254.62 87.6398C253.77 88.1798 252.78 88.4498 251.65 88.4498C250.68 88.4498 249.81 88.2198 249.02 87.7698C248.23 87.3198 247.6 86.6898 247.15 85.8798C246.69 85.0698 246.46 84.1598 246.46 83.1498C246.46 82.1398 246.69 81.2198 247.15 80.4098Z" fill="#010200"/>
<path d="M260.56 87.7798C259.76 87.3298 259.13 86.6998 258.67 85.8798C258.21 85.0698 257.98 84.1598 257.98 83.1398C257.98 82.1198 258.21 81.2098 258.67 80.3998C259.13 79.5898 259.76 78.9598 260.56 78.4998C261.35 78.0498 262.24 77.8198 263.2 77.8198C264.16 77.8198 265.06 78.0498 265.86 78.4998C266.66 78.9498 267.28 79.5798 267.74 80.3898C268.2 81.1998 268.43 82.1098 268.43 83.1398C268.43 84.1698 268.2 85.0798 267.74 85.8898C267.28 86.6998 266.66 87.3198 265.86 87.7798C265.06 88.2298 264.18 88.4598 263.2 88.4598C262.22 88.4598 261.35 88.2298 260.56 87.7798ZM265.17 86.7698C265.75 86.4298 266.21 85.9498 266.54 85.3198C266.87 84.6898 267.04 83.9698 267.04 83.1398C267.04 82.3098 266.87 81.5798 266.54 80.9498C266.21 80.3298 265.75 79.8498 265.17 79.5098C264.59 79.1698 263.94 78.9998 263.2 78.9998C262.46 78.9998 261.81 79.1698 261.23 79.5098C260.65 79.8498 260.2 80.3298 259.86 80.9498C259.53 81.5698 259.36 82.2998 259.36 83.1398C259.36 83.9798 259.53 84.6898 259.86 85.3198C260.19 85.9498 260.65 86.4298 261.23 86.7698C261.81 87.1098 262.47 87.2798 263.19 87.2798C263.91 87.2798 264.57 87.1098 265.15 86.7698H265.17Z" fill="#010200"/>
<path d="M271.58 87.2497H275.22V88.3497H270.22V77.9497H271.58V87.2497Z" fill="#010200"/>
<path d="M278.02 79.0599V82.5399H281.81V83.6599H278.02V87.2399H282.26V88.3599H276.66V77.9399H282.26V79.0599H278.02Z" fill="#010200"/>
<path d="M294.49 78.59C295.32 79.01 295.96 79.62 296.4 80.4C296.84 81.19 297.06 82.11 297.06 83.18C297.06 84.25 296.84 85.17 296.4 85.95C295.96 86.73 295.32 87.33 294.49 87.74C293.66 88.15 292.68 88.36 291.54 88.36H288.3V77.96H291.54C292.67 77.96 293.66 78.17 294.49 78.59ZM294.62 86.17C295.33 85.46 295.68 84.46 295.68 83.18C295.68 81.9 295.32 80.88 294.61 80.15C293.9 79.42 292.88 79.06 291.54 79.06H289.66V87.24H291.54C292.88 87.24 293.91 86.88 294.61 86.17H294.62Z" fill="#010200"/>
<path d="M300.21 79.0599V82.5399H304V83.6599H300.21V87.2399H304.45V88.3599H298.85V77.9399H304.45V79.0599H300.21Z" fill="#010200"/>
<path d="M307.96 88.0898C307.42 87.8498 306.99 87.5098 306.68 87.0798C306.37 86.6498 306.21 86.1498 306.2 85.5798H307.65C307.7 86.0698 307.9 86.4798 308.25 86.8098C308.6 87.1398 309.12 87.3098 309.79 87.3098C310.46 87.3098 310.95 87.1498 311.32 86.8298C311.69 86.5098 311.88 86.0898 311.88 85.5798C311.88 85.1798 311.77 84.8598 311.55 84.6098C311.33 84.3598 311.06 84.1698 310.73 84.0398C310.4 83.9098 309.96 83.7698 309.4 83.6198C308.71 83.4398 308.16 83.2598 307.75 83.0798C307.34 82.8998 306.98 82.6198 306.69 82.2398C306.4 81.8598 306.25 81.3398 306.25 80.6998C306.25 80.1298 306.39 79.6298 306.68 79.1898C306.97 78.7498 307.37 78.4098 307.9 78.1798C308.42 77.9398 309.02 77.8198 309.7 77.8198C310.67 77.8198 311.47 78.0598 312.09 78.5498C312.71 79.0398 313.06 79.6798 313.14 80.4898H311.65C311.6 80.0898 311.39 79.7398 311.02 79.4398C310.65 79.1398 310.16 78.9798 309.56 78.9798C308.99 78.9798 308.53 79.1298 308.17 79.4198C307.81 79.7098 307.63 80.1198 307.63 80.6498C307.63 81.0298 307.74 81.3398 307.95 81.5798C308.16 81.8198 308.43 81.9998 308.74 82.1198C309.05 82.2398 309.49 82.3898 310.06 82.5498C310.75 82.7398 311.3 82.9298 311.72 83.1098C312.14 83.2898 312.5 83.5798 312.79 83.9598C313.09 84.3398 313.24 84.8598 313.24 85.5198C313.24 86.0298 313.11 86.4998 312.84 86.9498C312.57 87.3998 312.17 87.7598 311.65 88.0398C311.13 88.3198 310.5 88.4598 309.78 88.4598C309.06 88.4598 308.48 88.3398 307.94 88.0898H307.96Z" fill="#010200"/>
<path d="M316.63 79.0599V82.5399H320.42V83.6599H316.63V87.2399H320.87V88.3599H315.27V77.9399H320.87V79.0599H316.63Z" fill="#010200"/>
<path d="M331.1 88.3497H329.74L324.28 80.0697V88.3497H322.92V77.9297H324.28L329.74 86.1997V77.9297H331.1V88.3497Z" fill="#010200"/>
<path d="M341.43 77.9497V88.3497H340.07V83.6297H334.77V88.3497H333.41V77.9497H334.77V82.5197H340.07V77.9497H341.43Z" fill="#010200"/>
<path d="M345.1 79.0599V82.5399H348.89V83.6599H345.1V87.2399H349.34V88.3599H343.74V77.9399H349.34V79.0599H345.1Z" fill="#010200"/>
<path d="M169.88 105.69C169.08 105.24 168.45 104.61 167.99 103.79C167.53 102.98 167.3 102.07 167.3 101.05C167.3 100.03 167.53 99.12 167.99 98.31C168.45 97.5 169.08 96.87 169.88 96.41C170.67 95.96 171.56 95.73 172.52 95.73C173.48 95.73 174.38 95.96 175.18 96.41C175.98 96.86 176.6 97.49 177.06 98.3C177.52 99.11 177.75 100.02 177.75 101.05C177.75 102.08 177.52 102.99 177.06 103.8C176.6 104.61 175.98 105.23 175.18 105.69C174.38 106.14 173.5 106.37 172.52 106.37C171.54 106.37 170.67 106.14 169.88 105.69ZM174.48 104.68C175.06 104.34 175.52 103.86 175.85 103.23C176.18 102.6 176.35 101.88 176.35 101.05C176.35 100.22 176.18 99.49 175.85 98.86C175.52 98.24 175.06 97.76 174.48 97.42C173.9 97.08 173.25 96.91 172.51 96.91C171.77 96.91 171.12 97.08 170.54 97.42C169.96 97.76 169.51 98.24 169.17 98.86C168.84 99.48 168.67 100.21 168.67 101.05C168.67 101.89 168.84 102.6 169.17 103.23C169.5 103.86 169.96 104.34 170.54 104.68C171.12 105.02 171.78 105.19 172.5 105.19C173.22 105.19 173.88 105.02 174.46 104.68H174.48Z" fill="#010200"/>
<path d="M183.7 98.3097C184.16 97.4997 184.78 96.8597 185.57 96.4097C186.36 95.9497 187.24 95.7197 188.2 95.7197C189.33 95.7197 190.32 95.9897 191.17 96.5397C192.01 97.0897 192.63 97.8597 193.02 98.8697H191.39C191.1 98.2397 190.69 97.7597 190.14 97.4197C189.6 97.0797 188.95 96.9097 188.19 96.9097C187.43 96.9097 186.81 97.0797 186.23 97.4197C185.65 97.7597 185.2 98.2397 184.87 98.8597C184.54 99.4797 184.38 100.21 184.38 101.05C184.38 101.89 184.54 102.6 184.87 103.22C185.2 103.84 185.65 104.32 186.23 104.66C186.81 105 187.46 105.17 188.19 105.17C188.92 105.17 189.59 105 190.14 104.67C190.68 104.34 191.1 103.86 191.39 103.23H193.02C192.63 104.23 192.02 104.99 191.17 105.54C190.32 106.08 189.33 106.35 188.2 106.35C187.23 106.35 186.36 106.12 185.57 105.67C184.78 105.22 184.15 104.59 183.7 103.78C183.24 102.97 183.01 102.06 183.01 101.05C183.01 100.04 183.24 99.1197 183.7 98.3097Z" fill="#010200"/>
<path d="M197.11 105.69C196.31 105.24 195.68 104.61 195.22 103.79C194.76 102.98 194.53 102.07 194.53 101.05C194.53 100.03 194.76 99.12 195.22 98.31C195.68 97.5 196.31 96.87 197.11 96.41C197.9 95.96 198.79 95.73 199.75 95.73C200.71 95.73 201.61 95.96 202.41 96.41C203.21 96.86 203.83 97.49 204.29 98.3C204.75 99.11 204.98 100.02 204.98 101.05C204.98 102.08 204.75 102.99 204.29 103.8C203.83 104.61 203.21 105.23 202.41 105.69C201.61 106.14 200.73 106.37 199.75 106.37C198.77 106.37 197.9 106.14 197.11 105.69ZM201.72 104.68C202.3 104.34 202.76 103.86 203.09 103.23C203.42 102.6 203.59 101.88 203.59 101.05C203.59 100.22 203.42 99.49 203.09 98.86C202.76 98.24 202.3 97.76 201.72 97.42C201.14 97.08 200.49 96.91 199.75 96.91C199.01 96.91 198.36 97.08 197.78 97.42C197.2 97.76 196.75 98.24 196.41 98.86C196.08 99.48 195.91 100.21 195.91 101.05C195.91 101.89 196.08 102.6 196.41 103.23C196.74 103.86 197.2 104.34 197.78 104.68C198.36 105.02 199.02 105.19 199.74 105.19C200.46 105.19 201.12 105.02 201.7 104.68H201.72Z" fill="#010200"/>
<path d="M212.25 106.26L209.77 102.01H208.13V106.26H206.77V95.8599H210.13C210.92 95.8599 211.58 95.9899 212.12 96.2599C212.66 96.5299 213.07 96.8899 213.34 97.3499C213.61 97.8099 213.74 98.3299 213.74 98.9199C213.74 99.6399 213.53 100.27 213.12 100.82C212.71 101.37 212.09 101.73 211.26 101.91L213.87 106.27H212.24L212.25 106.26ZM208.13 100.92H210.13C210.87 100.92 211.42 100.74 211.79 100.38C212.16 100.02 212.34 99.5299 212.34 98.9199C212.34 98.3099 212.16 97.8299 211.8 97.4899C211.44 97.1499 210.88 96.9799 210.14 96.9799H208.14V100.92H208.13Z" fill="#010200"/>
<path d="M221.91 101.06C221.32 101.63 220.41 101.92 219.2 101.92H217.2V106.26H215.84V95.8599H219.2C220.37 95.8599 221.27 96.1399 221.88 96.7099C222.49 97.2799 222.8 98.0099 222.8 98.8999C222.8 99.7899 222.5 100.48 221.91 101.06ZM220.87 100.31C221.23 99.9799 221.41 99.5099 221.41 98.9099C221.41 97.6299 220.67 96.9799 219.2 96.9799H217.2V100.8H219.2C219.96 100.8 220.51 100.64 220.87 100.31Z" fill="#010200"/>
<path d="M226.56 105.69C225.76 105.24 225.13 104.61 224.67 103.79C224.21 102.98 223.98 102.07 223.98 101.05C223.98 100.03 224.21 99.12 224.67 98.31C225.13 97.5 225.76 96.87 226.56 96.41C227.35 95.96 228.24 95.73 229.2 95.73C230.16 95.73 231.06 95.96 231.86 96.41C232.66 96.86 233.28 97.49 233.74 98.3C234.2 99.11 234.43 100.02 234.43 101.05C234.43 102.08 234.2 102.99 233.74 103.8C233.28 104.61 232.66 105.23 231.86 105.69C231.06 106.14 230.18 106.37 229.2 106.37C228.22 106.37 227.35 106.14 226.56 105.69ZM231.16 104.68C231.74 104.34 232.2 103.86 232.53 103.23C232.86 102.6 233.03 101.88 233.03 101.05C233.03 100.22 232.86 99.49 232.53 98.86C232.2 98.24 231.74 97.76 231.16 97.42C230.58 97.08 229.93 96.91 229.19 96.91C228.45 96.91 227.8 97.08 227.22 97.42C226.64 97.76 226.19 98.24 225.85 98.86C225.52 99.48 225.35 100.21 225.35 101.05C225.35 101.89 225.52 102.6 225.85 103.23C226.18 103.86 226.64 104.34 227.22 104.68C227.8 105.02 228.46 105.19 229.18 105.19C229.9 105.19 230.56 105.02 231.14 104.68H231.16Z" fill="#010200"/>
<path d="M248.21 95.8599V106.26H246.85V101.54H241.55V106.26H240.19V95.8599H241.55V100.43H246.85V95.8599H248.21Z" fill="#010200"/>
<path d="M251.85 95.8599V102.44C251.85 103.37 252.08 104.05 252.53 104.5C252.98 104.95 253.61 105.17 254.42 105.17C255.23 105.17 255.84 104.95 256.29 104.5C256.74 104.05 256.97 103.37 256.97 102.44V95.8599H258.33V102.43C258.33 103.3 258.16 104.02 257.81 104.62C257.46 105.21 256.99 105.65 256.4 105.94C255.81 106.23 255.14 106.37 254.41 106.37C253.68 106.37 253.01 106.23 252.42 105.94C251.83 105.65 251.36 105.21 251.02 104.62C250.68 104.03 250.51 103.3 250.51 102.43V95.8599H251.87H251.85Z" fill="#010200"/>
<path d="M271.14 95.9297V106.26H269.78V98.5597L266.35 106.26H265.39L261.94 98.5497V106.26H260.58V95.9297H262.04L265.86 104.47L269.68 95.9297H271.13H271.14Z" fill="#010200"/>
<path d="M279.59 103.95H275.05L274.21 106.26H272.78L276.54 95.9199H278.11L281.86 106.26H280.43L279.59 103.95ZM279.2 102.84L277.32 97.5899L275.44 102.84H279.2Z" fill="#010200"/>
<path d="M291.68 106.26H290.32L284.86 97.9798V106.26H283.5V95.8398H284.86L290.32 104.11V95.8398H291.68V106.26Z" fill="#010200"/>
<path d="M296.06 105.69C295.26 105.24 294.63 104.61 294.17 103.79C293.71 102.98 293.48 102.07 293.48 101.05C293.48 100.03 293.71 99.12 294.17 98.31C294.63 97.5 295.26 96.87 296.06 96.41C296.85 95.96 297.74 95.73 298.7 95.73C299.66 95.73 300.56 95.96 301.36 96.41C302.16 96.86 302.78 97.49 303.24 98.3C303.7 99.11 303.93 100.02 303.93 101.05C303.93 102.08 303.7 102.99 303.24 103.8C302.78 104.61 302.16 105.23 301.36 105.69C300.56 106.14 299.68 106.37 298.7 106.37C297.72 106.37 296.85 106.14 296.06 105.69ZM300.67 104.68C301.25 104.34 301.71 103.86 302.04 103.23C302.37 102.6 302.54 101.88 302.54 101.05C302.54 100.22 302.37 99.49 302.04 98.86C301.71 98.24 301.25 97.76 300.67 97.42C300.09 97.08 299.44 96.91 298.7 96.91C297.96 96.91 297.31 97.08 296.73 97.42C296.15 97.76 295.7 98.24 295.36 98.86C295.03 99.48 294.86 100.21 294.86 101.05C294.86 101.89 295.03 102.6 295.36 103.23C295.69 103.86 296.15 104.34 296.73 104.68C297.31 105.02 297.97 105.19 298.69 105.19C299.41 105.19 300.07 105.02 300.65 104.68H300.67Z" fill="#010200"/>
<path d="M287.76 254.84C298.474 254.84 307.16 246.49 307.16 236.19C307.16 225.89 298.474 217.54 287.76 217.54C277.046 217.54 268.36 225.89 268.36 236.19C268.36 246.49 277.046 254.84 287.76 254.84Z" fill="#010200" stroke="#010200" stroke-miterlimit="10"/>
<path d="M196.73 257.82C207.444 257.82 216.13 249.47 216.13 239.17C216.13 228.87 207.444 220.52 196.73 220.52C186.016 220.52 177.33 228.87 177.33 239.17C177.33 249.47 186.016 257.82 196.73 257.82Z" fill="#010200" stroke="#010200" stroke-miterlimit="10"/>
<path d="M236.28 272.75C238.28 275.57 243.91 279.51 250.46 272.75H236.28Z" fill="white"/>
<path d="M236.28 272.75C238.28 275.57 243.91 279.51 250.46 272.75" stroke="#010200" stroke-linecap="round"/>
<path d="M298.2 235.44C301.083 235.44 303.42 233.103 303.42 230.22C303.42 227.337 301.083 225 298.2 225C295.317 225 292.98 227.337 292.98 230.22C292.98 233.103 295.317 235.44 298.2 235.44Z" fill="white" stroke="#010200" stroke-miterlimit="10"/>
<path d="M207.18 238.42C210.063 238.42 212.4 236.083 212.4 233.2C212.4 230.317 210.063 227.98 207.18 227.98C204.297 227.98 201.96 230.317 201.96 233.2C201.96 236.083 204.297 238.42 207.18 238.42Z" fill="white" stroke="#010200" stroke-miterlimit="10"/>
<path d="M250.74 329.95H235.74C215.134 329.95 198.43 346.654 198.43 367.26V411.88C198.43 432.486 215.134 449.19 235.74 449.19H250.74C271.346 449.19 288.05 432.486 288.05 411.88V367.26C288.05 346.654 271.346 329.95 250.74 329.95Z" fill="white" stroke="#010200" stroke-miterlimit="10"/>
<path d="M190.47 358.06L159.4 381.3C156.1 383.77 151.42 383.1 148.96 379.8C146.49 376.5 147.16 371.82 150.46 369.36L181.53 346.12C184.83 343.65 189.51 344.32 191.97 347.62C194.44 350.92 193.77 355.6 190.47 358.06Z" fill="white" stroke="#010200" stroke-miterlimit="10"/>
<path d="M300.52 358.3L331.59 381.54C334.89 384.01 339.57 383.34 342.03 380.04C344.5 376.74 343.83 372.06 340.53 369.6L309.46 346.36C306.16 343.89 301.48 344.56 299.02 347.86C296.55 351.16 297.22 355.84 300.52 358.3Z" fill="white" stroke="#010200" stroke-miterlimit="10"/>
<path d="M137.56 401.55L118.75 435.49C116.75 439.09 112.21 440.4 108.61 438.4C105.01 436.4 103.7 431.86 105.7 428.26L124.51 394.32C126.51 390.72 131.05 389.41 134.65 391.41C138.25 393.41 139.56 397.95 137.56 401.55Z" fill="white" stroke="#010200" stroke-miterlimit="10"/>
<path d="M341.76 409.69L360.57 443.63C362.57 447.23 367.11 448.54 370.71 446.54C374.31 444.54 375.62 440 373.62 436.4L354.81 402.46C352.81 398.86 348.27 397.55 344.67 399.55C341.07 401.55 339.76 406.09 341.76 409.69Z" fill="white" stroke="#010200" stroke-miterlimit="10"/>
<path d="M264.83 461.39C269.77 461.39 273.78 465.4 273.78 470.34V514.36C273.78 519.3 269.77 523.31 264.83 523.31C259.89 523.31 255.88 519.3 255.88 514.36V470.34C255.88 465.4 259.89 461.39 264.83 461.39Z" fill="white" stroke="#010200" stroke-miterlimit="10"/>
<path d="M221.56 461.39C226.5 461.39 230.51 465.4 230.51 470.34V514.36C230.51 519.3 226.5 523.31 221.56 523.31C216.62 523.31 212.61 519.3 212.61 514.36V470.34C212.61 465.4 216.62 461.39 221.56 461.39Z" fill="white" stroke="#010200" stroke-miterlimit="10"/>
<path d="M264.83 536.38C269.77 536.38 273.78 540.39 273.78 545.33V589.35C273.78 594.29 269.77 598.3 264.83 598.3C259.89 598.3 255.88 594.29 255.88 589.35V545.33C255.88 540.39 259.89 536.38 264.83 536.38Z" fill="white" stroke="#010200" stroke-miterlimit="10"/>
<path d="M221.56 536.38C226.5 536.38 230.51 540.39 230.51 545.33V589.35C230.51 594.29 226.5 598.3 221.56 598.3C216.62 598.3 212.61 594.29 212.61 589.35V545.33C212.61 540.39 216.62 536.38 221.56 536.38Z" fill="white" stroke="#010200" stroke-miterlimit="10"/>
<g opacity="0.2">
<path d="M298.58 285.43C303.319 285.43 307.16 281.589 307.16 276.85C307.16 272.111 303.319 268.27 298.58 268.27C293.841 268.27 290 272.111 290 276.85C290 281.589 293.841 285.43 298.58 285.43Z" fill="white" stroke="#010200" stroke-miterlimit="10"/>
</g>
<g opacity="0.2">
<path d="M188.15 285.43C192.888 285.43 196.73 281.589 196.73 276.85C196.73 272.111 192.888 268.27 188.15 268.27C183.411 268.27 179.57 272.111 179.57 276.85C179.57 281.589 183.411 285.43 188.15 285.43Z" fill="white" stroke="#010200" stroke-miterlimit="10"/>
</g>
<path d="M107.6 469.12L106.62 463.9C106.46 463.06 106.03 462.35 105.44 461.82C105.35 458.43 103.7 455.12 100.7 453.05C95.69 449.59 88.83 450.85 85.38 455.86L81.7 461.19C78.24 466.2 79.5 473.06 84.51 476.51C89.52 479.96 96.38 478.71 99.83 473.7L100.96 472.06C101.79 473.14 103.17 473.74 104.61 473.47C106.64 473.09 107.98 471.13 107.6 469.1V469.12Z" fill="white" stroke="#010200" stroke-miterlimit="10"/>
<path d="M388.47 462.79L384.79 457.46C381.33 452.45 374.48 451.2 369.47 454.65C366.46 456.73 364.82 460.03 364.73 463.42C364.14 463.95 363.71 464.66 363.55 465.5L362.57 470.72C362.19 472.75 363.53 474.71 365.56 475.09C366.99 475.36 368.38 474.76 369.21 473.68L370.34 475.32C373.8 480.33 380.65 481.58 385.66 478.13C390.67 474.68 391.92 467.82 388.47 462.81V462.79Z" fill="white" stroke="#010200" stroke-miterlimit="10"/>
<path d="M283.48 622.56C283.48 628.74 275.13 627.78 264.83 627.78C254.53 627.78 246.18 628.74 246.18 622.56C246.18 616.38 254.53 611.37 264.83 611.37C275.13 611.37 283.48 616.38 283.48 622.56Z" fill="white" stroke="#010200" stroke-miterlimit="10"/>
<path d="M240.21 623.3C240.21 629.48 231.11 628.15 220.81 628.15C210.51 628.15 202.9 629.48 202.9 623.3C202.9 617.12 211.25 612.11 221.55 612.11C231.85 612.11 240.2 617.12 240.2 623.3H240.21Z" fill="white" stroke="#010200" stroke-miterlimit="10"/>
</svg>
