<svg width="543" height="94" viewBox="0 0 543 94" fill="none" xmlns="http://www.w3.org/2000/svg">
<path d="M512.98 23.27H30.4301C13.9665 23.27 0.620117 36.6164 0.620117 53.08V63.46C0.620117 79.9236 13.9665 93.27 30.4301 93.27H512.98C529.444 93.27 542.79 79.9236 542.79 63.46V53.08C542.79 36.6164 529.444 23.27 512.98 23.27Z" fill="#C0F2C3"/>
<path d="M232.18 4.3497C232.72 3.4297 233.45 2.71969 234.37 2.19969C235.29 1.67969 236.31 1.42969 237.41 1.42969C238.67 1.42969 239.79 1.7397 240.77 2.3597C241.75 2.9797 242.46 3.8497 242.9 4.9897H240.57C240.26 4.3697 239.84 3.8997 239.3 3.5997C238.76 3.2897 238.13 3.13969 237.41 3.13969C236.63 3.13969 235.93 3.31969 235.32 3.66969C234.71 4.01969 234.23 4.52969 233.88 5.17969C233.53 5.82969 233.36 6.5997 233.36 7.4697C233.36 8.3397 233.53 9.10969 233.88 9.75969C234.23 10.4097 234.7 10.9197 235.32 11.2797C235.93 11.6397 236.63 11.8197 237.41 11.8197C238.12 11.8197 238.75 11.6697 239.3 11.3597C239.85 11.0497 240.27 10.5897 240.57 9.9697H242.9C242.46 11.0997 241.75 11.9797 240.77 12.5897C239.79 13.1997 238.67 13.5097 237.41 13.5097C236.3 13.5097 235.29 13.2497 234.37 12.7397C233.45 12.2197 232.72 11.5097 232.19 10.5897C231.65 9.66969 231.38 8.62969 231.38 7.47969C231.38 6.32969 231.65 5.28969 232.19 4.36969L232.18 4.3497Z" fill="#A6A6A6"/>
<path d="M246.82 12.9496C246.11 12.5496 245.55 11.9796 245.14 11.2496C244.73 10.5196 244.53 9.66966 244.53 8.70966C244.53 7.74966 244.74 6.90964 245.16 6.17964C245.58 5.43964 246.15 4.87964 246.88 4.47964C247.6 4.07964 248.42 3.88965 249.31 3.88965C250.2 3.88965 251.02 4.08964 251.74 4.47964C252.46 4.86964 253.04 5.43964 253.46 6.17964C253.88 6.91964 254.09 7.75966 254.09 8.70966C254.09 9.65966 253.87 10.5097 253.44 11.2397C253.01 11.9797 252.42 12.5496 251.68 12.9496C250.94 13.3496 250.12 13.5497 249.22 13.5497C248.32 13.5497 247.54 13.3496 246.82 12.9496ZM250.62 11.5096C251.06 11.2696 251.41 10.9097 251.68 10.4397C251.95 9.95965 252.09 9.38966 252.09 8.70966C252.09 8.02966 251.96 7.45964 251.7 6.97964C251.44 6.50964 251.09 6.15965 250.66 5.91965C250.23 5.67965 249.76 5.55965 249.27 5.55965C248.78 5.55965 248.31 5.67965 247.88 5.91965C247.46 6.15965 247.12 6.50964 246.87 6.97964C246.62 7.44964 246.5 8.02966 246.5 8.70966C246.5 9.71966 246.76 10.4997 247.27 11.0497C247.78 11.5997 248.43 11.8696 249.22 11.8696C249.72 11.8696 250.19 11.7496 250.62 11.5096Z" fill="#A6A6A6"/>
<path d="M257.94 0.819824V13.3998H256V0.819824H257.94Z" fill="#A6A6A6"/>
<path d="M260.43 6.16988C260.82 5.43988 261.35 4.87987 262.03 4.47987C262.7 4.07987 263.45 3.87988 264.27 3.87988C265.01 3.87988 265.65 4.01988 266.2 4.30988C266.75 4.59988 267.19 4.95988 267.52 5.38988V4.02988H269.48V13.3999H267.52V12.0099C267.19 12.4499 266.74 12.8199 266.18 13.1099C265.62 13.3999 264.97 13.5499 264.24 13.5499C263.44 13.5499 262.7 13.3399 262.03 12.9299C261.36 12.5199 260.83 11.9399 260.44 11.1999C260.05 10.4599 259.85 9.61987 259.85 8.67987C259.85 7.73987 260.05 6.90987 260.44 6.17987L260.43 6.16988ZM267.11 7.01988C266.84 6.53988 266.49 6.17987 266.06 5.92987C265.63 5.67987 265.16 5.55988 264.67 5.55988C264.18 5.55988 263.71 5.67987 263.28 5.92987C262.85 6.16987 262.5 6.52988 262.24 6.99988C261.97 7.46988 261.84 8.02988 261.84 8.66988C261.84 9.30988 261.97 9.87987 262.24 10.3699C262.51 10.8599 262.86 11.2299 263.29 11.4799C263.73 11.7299 264.19 11.8599 264.68 11.8599C265.17 11.8599 265.64 11.7399 266.07 11.4899C266.5 11.2399 266.85 10.8799 267.12 10.3899C267.39 9.90988 267.52 9.34987 267.52 8.69987C267.52 8.04987 267.39 7.48988 267.12 7.01988H267.11Z" fill="#A6A6A6"/>
<path d="M277.72 4.30991C278.28 4.59991 278.72 4.95991 279.04 5.38991V4.02991H281V13.5499C281 14.4099 280.82 15.1799 280.46 15.8499C280.1 16.5199 279.57 17.0499 278.89 17.4399C278.21 17.8299 277.39 18.0199 276.43 18.0199C275.16 18.0199 274.11 17.7199 273.27 17.1299C272.43 16.5399 271.95 15.7299 271.84 14.7099H273.76C273.91 15.1999 274.22 15.5899 274.7 15.8899C275.18 16.1899 275.76 16.3399 276.43 16.3399C277.21 16.3399 277.84 16.0999 278.33 15.6299C278.81 15.1499 279.05 14.4599 279.05 13.5599V11.9999C278.72 12.4399 278.28 12.8099 277.72 13.1099C277.16 13.4099 276.52 13.5599 275.81 13.5599C274.99 13.5599 274.25 13.3499 273.57 12.9399C272.9 12.5299 272.36 11.9499 271.97 11.2099C271.58 10.4699 271.38 9.62991 271.38 8.68991C271.38 7.74991 271.58 6.91991 271.97 6.18991C272.36 5.45991 272.89 4.89991 273.57 4.49991C274.24 4.09991 274.99 3.8999 275.81 3.8999C276.54 3.8999 277.18 4.03991 277.74 4.32991L277.72 4.30991ZM278.64 7.01991C278.37 6.53991 278.03 6.1799 277.6 5.9299C277.17 5.6799 276.7 5.55991 276.21 5.55991C275.72 5.55991 275.25 5.6799 274.82 5.9299C274.39 6.1699 274.04 6.52991 273.77 6.99991C273.5 7.46991 273.37 8.02991 273.37 8.66991C273.37 9.30991 273.5 9.8799 273.77 10.3699C274.04 10.8599 274.39 11.2299 274.82 11.4799C275.26 11.7299 275.72 11.8599 276.21 11.8599C276.7 11.8599 277.17 11.7399 277.6 11.4899C278.03 11.2399 278.38 10.8799 278.64 10.3899C278.91 9.90991 279.04 9.34991 279.04 8.69991C279.04 8.04991 278.91 7.48991 278.64 7.01991Z" fill="#A6A6A6"/>
<path d="M292.06 9.43991H284.9C284.96 10.1899 285.23 10.7899 285.73 11.2399C286.23 11.6899 286.84 11.9199 287.57 11.9199C288.61 11.9199 289.35 11.4799 289.78 10.6099H291.87C291.59 11.4699 291.07 12.1799 290.33 12.7299C289.59 13.2799 288.67 13.5599 287.57 13.5599C286.67 13.5599 285.87 13.3599 285.16 12.9599C284.45 12.5599 283.9 11.9899 283.49 11.2599C283.09 10.5299 282.89 9.67991 282.89 8.71991C282.89 7.75991 283.09 6.9099 283.48 6.1799C283.87 5.4499 284.42 4.88991 285.13 4.48991C285.84 4.08991 286.65 3.8999 287.57 3.8999C288.49 3.8999 289.24 4.0899 289.93 4.4799C290.62 4.8699 291.16 5.40991 291.54 6.09991C291.92 6.78991 292.12 7.5999 292.12 8.5099C292.12 8.8599 292.1 9.17991 292.05 9.45992L292.06 9.43991ZM290.1 7.8699C290.09 7.1599 289.83 6.5799 289.33 6.1499C288.83 5.7199 288.21 5.49991 287.48 5.49991C286.81 5.49991 286.24 5.70991 285.76 6.13991C285.28 6.56991 285 7.1399 284.91 7.8699H290.1Z" fill="#A6A6A6"/>
<path d="M300.74 4.33965C301.32 4.64965 301.78 5.09965 302.11 5.69965C302.44 6.29965 302.6 7.02965 302.6 7.87965V13.4097H300.68V8.16965C300.68 7.32965 300.47 6.68965 300.05 6.23965C299.63 5.78965 299.06 5.56966 298.33 5.56966C297.6 5.56966 297.03 5.78965 296.6 6.23965C296.18 6.68965 295.96 7.32965 295.96 8.16965V13.4097H294.02V4.03964H295.96V5.10965C296.28 4.71965 296.68 4.41966 297.18 4.20966C297.67 3.99966 298.2 3.88965 298.75 3.88965C299.49 3.88965 300.15 4.03966 300.73 4.34966L300.74 4.33965Z" fill="#A6A6A6"/>
<path d="M306.48 13.1499C305.9 12.8799 305.43 12.5199 305.09 12.0599C304.75 11.5999 304.57 11.0899 304.55 10.5199H306.56C306.59 10.9199 306.78 11.2499 307.13 11.5099C307.48 11.7799 307.91 11.9099 308.43 11.9099C308.95 11.9099 309.4 11.7999 309.7 11.5899C310 11.3799 310.15 11.1099 310.15 10.7799C310.15 10.4299 309.98 10.1699 309.65 9.99986C309.32 9.82986 308.79 9.63986 308.06 9.43987C307.36 9.24987 306.79 9.05987 306.34 8.87987C305.9 8.69987 305.52 8.41987 305.19 8.04987C304.86 7.67987 304.71 7.17987 304.71 6.56987C304.71 6.06987 304.86 5.61986 305.15 5.19986C305.44 4.78986 305.87 4.45986 306.42 4.21986C306.97 3.97986 307.6 3.85986 308.32 3.85986C309.39 3.85986 310.24 4.12986 310.9 4.66986C311.55 5.20986 311.9 5.93986 311.95 6.86986H310.01C309.98 6.44986 309.81 6.11986 309.5 5.86986C309.19 5.61986 308.78 5.49986 308.26 5.49986C307.74 5.49986 307.36 5.59986 307.09 5.78986C306.82 5.97986 306.68 6.23987 306.68 6.54987C306.68 6.79987 306.77 7.00986 306.95 7.17986C307.13 7.34986 307.35 7.47986 307.61 7.57986C307.87 7.67986 308.26 7.79986 308.77 7.94986C309.45 8.12986 310.01 8.31986 310.44 8.49986C310.88 8.68986 311.25 8.95987 311.57 9.31987C311.89 9.67987 312.05 10.1599 312.06 10.7699C312.06 11.2999 311.91 11.7799 311.62 12.1999C311.33 12.6199 310.91 12.9499 310.37 13.1899C309.83 13.4299 309.2 13.5499 308.47 13.5499C307.74 13.5499 307.07 13.4199 306.49 13.1499H306.48Z" fill="#A6A6A6"/>
<path d="M88.61 48.4597C90.03 46.0297 91.97 44.1297 94.41 42.7697C96.86 41.4097 99.53 40.7197 102.44 40.7197C105.77 40.7197 108.73 41.5397 111.33 43.1697C113.92 44.8097 115.81 47.1197 116.98 50.1197H110.81C110 48.4697 108.87 47.2397 107.43 46.4297C105.99 45.6197 104.33 45.2197 102.43 45.2197C100.36 45.2197 98.52 45.6797 96.9 46.6097C95.28 47.5397 94.01 48.8797 93.1 50.6097C92.18 52.3497 91.73 54.3797 91.73 56.6897C91.73 58.9997 92.19 61.0297 93.1 62.7697C94.02 64.5097 95.28 65.8497 96.9 66.7997C98.52 67.7497 100.36 68.2197 102.43 68.2197C104.32 68.2197 105.99 67.8097 107.43 66.9997C108.87 66.1897 109.99 64.9597 110.81 63.3097H116.98C115.81 66.3097 113.93 68.6197 111.33 70.2397C108.73 71.8597 105.77 72.6697 102.44 72.6697C99.5 72.6697 96.82 71.9897 94.38 70.6197C91.95 69.2497 90.02 67.3597 88.6 64.9297C87.17 62.4997 86.46 59.7597 86.46 56.6897C86.46 53.6197 87.17 50.8897 88.6 48.4497L88.61 48.4597Z" fill="white"/>
<path d="M129.2 70.66C126.75 69.29 124.82 67.39 123.39 64.95C121.96 62.5 121.25 59.75 121.25 56.69C121.25 53.63 121.96 50.89 123.39 48.45C124.81 46.02 126.75 44.1199 129.2 42.7599C131.64 41.3999 134.32 40.71 137.23 40.71C140.14 40.71 142.86 41.3899 145.31 42.7599C147.75 44.1299 149.68 46.02 151.09 48.45C152.5 50.88 153.2 53.63 153.2 56.69C153.2 59.75 152.49 62.5 151.09 64.95C149.68 67.4 147.75 69.3 145.31 70.66C142.86 72.03 140.17 72.71 137.23 72.71C134.29 72.71 131.64 72.03 129.2 70.66ZM142.76 66.84C144.38 65.8899 145.65 64.5499 146.56 62.7899C147.47 61.0399 147.93 59 147.93 56.69C147.93 54.38 147.47 52.36 146.56 50.61C145.64 48.87 144.38 47.54 142.76 46.61C141.14 45.68 139.3 45.22 137.22 45.22C135.14 45.22 133.3 45.68 131.68 46.61C130.06 47.54 128.79 48.88 127.88 50.61C126.96 52.35 126.51 54.38 126.51 56.69C126.51 59 126.97 61.0299 127.88 62.7899C128.79 64.5399 130.06 65.8899 131.68 66.84C133.3 67.79 135.15 68.2599 137.22 68.2599C139.29 68.2599 141.14 67.79 142.76 66.84Z" fill="white"/>
<path d="M174.49 72.4001L167.29 59.8901H163.37V72.4001H158.24V41.1201H169.04C171.44 41.1201 173.47 41.5401 175.14 42.3801C176.81 43.2201 178.05 44.3401 178.87 45.7601C179.69 47.1801 180.11 48.7501 180.11 50.4801C180.11 52.5201 179.52 54.3701 178.33 56.0401C177.14 57.7101 175.32 58.8401 172.86 59.4401L180.6 72.4001H174.48H174.49ZM163.37 55.7901H169.04C170.96 55.7901 172.41 55.3101 173.38 54.3501C174.35 53.3901 174.84 52.1001 174.84 50.4801C174.84 48.8601 174.36 47.5901 173.4 46.6801C172.44 45.7701 170.98 45.3101 169.04 45.3101H163.37V55.7901Z" fill="white"/>
<path d="M207.43 54.9401C206.68 56.3501 205.48 57.5001 203.83 58.3801C202.18 59.2701 200.06 59.7101 197.49 59.7101H191.82V72.4001H186.69V41.1201H197.49C199.89 41.1201 201.92 41.5301 203.59 42.3601C205.26 43.1901 206.5 44.3001 207.32 45.7101C208.14 47.1201 208.56 48.7001 208.56 50.4301C208.56 52.0201 208.18 53.5201 207.44 54.9301L207.43 54.9401ZM201.85 54.1901C202.81 53.3101 203.29 52.0501 203.29 50.4301C203.29 47.0101 201.35 45.3001 197.49 45.3001H191.82V55.5101H197.49C199.44 55.5101 200.89 55.0701 201.85 54.1801V54.1901Z" fill="white"/>
<path d="M219.69 70.66C217.24 69.29 215.31 67.39 213.88 64.95C212.45 62.51 211.74 59.75 211.74 56.69C211.74 53.63 212.45 50.89 213.88 48.45C215.3 46.02 217.24 44.1199 219.69 42.7599C222.13 41.3999 224.81 40.71 227.72 40.71C230.63 40.71 233.35 41.3899 235.8 42.7599C238.25 44.1299 240.17 46.02 241.58 48.45C242.99 50.88 243.69 53.63 243.69 56.69C243.69 59.75 242.98 62.5 241.58 64.95C240.17 67.4 238.24 69.3 235.8 70.66C233.36 72.02 230.66 72.71 227.72 72.71C224.78 72.71 222.13 72.03 219.69 70.66ZM233.26 66.84C234.88 65.8899 236.15 64.5499 237.06 62.7899C237.97 61.0399 238.43 59 238.43 56.69C238.43 54.38 237.97 52.36 237.06 50.61C236.14 48.87 234.88 47.54 233.26 46.61C231.64 45.68 229.79 45.22 227.72 45.22C225.65 45.22 223.8 45.68 222.18 46.61C220.56 47.54 219.29 48.88 218.38 50.61C217.46 52.35 217.01 54.38 217.01 56.69C217.01 59 217.47 61.0299 218.38 62.7899C219.29 64.5499 220.56 65.8899 222.18 66.84C223.8 67.79 225.64 68.2599 227.72 68.2599C229.8 68.2599 231.64 67.79 233.26 66.84Z" fill="white"/>
<path d="M285.41 41.1201V72.4001H280.28V58.7201H265.56V72.4001H260.43V41.1201H265.56V54.5301H280.28V41.1201H285.41Z" fill="white"/>
<path d="M297.25 41.1201V61.0601C297.25 63.4301 297.87 65.2201 299.12 66.4101C300.36 67.6101 302.1 68.2101 304.32 68.2101C306.54 68.2101 308.32 67.6101 309.56 66.4101C310.8 65.2101 311.43 63.4301 311.43 61.0601V41.1201H316.56V60.9701C316.56 63.5201 316 65.6801 314.9 67.4501C313.79 69.2201 312.3 70.5401 310.44 71.4101C308.58 72.2801 306.52 72.7201 304.27 72.7201C302.02 72.7201 299.97 72.2901 298.13 71.4101C296.28 70.5401 294.82 69.2201 293.74 67.4501C292.66 65.6801 292.12 63.5201 292.12 60.9701V41.1201H297.25Z" fill="white"/>
<path d="M356.15 41.1201V72.4001H351.02V50.9801L341.48 72.4001H337.92L328.34 50.9801V72.4001H323.21V41.1201H328.75L339.73 65.6501L350.67 41.1201H356.16H356.15Z" fill="white"/>
<path d="M381.75 66.0101H368.65L366.4 72.4001H361.05L372.26 41.0801H378.2L389.41 72.4001H384.01L381.76 66.0101H381.75ZM380.31 61.8201L375.23 47.2801L370.1 61.8201H380.31Z" fill="white"/>
<path d="M419.96 72.4001H414.83L399.39 49.0401V72.4001H394.26V41.0801H399.39L414.83 64.3901V41.0801H419.96V72.4001Z" fill="white"/>
<path d="M432.94 70.66C430.49 69.29 428.56 67.39 427.13 64.95C425.7 62.51 424.99 59.75 424.99 56.69C424.99 53.63 425.7 50.89 427.13 48.45C428.55 46.02 430.49 44.1199 432.94 42.7599C435.38 41.3999 438.06 40.71 440.97 40.71C443.88 40.71 446.6 41.3899 449.05 42.7599C451.49 44.1299 453.42 46.02 454.83 48.45C456.24 50.88 456.95 53.63 456.95 56.69C456.95 59.75 456.24 62.5 454.83 64.95C453.42 67.4 451.49 69.3 449.05 70.66C446.6 72.03 443.91 72.71 440.97 72.71C438.03 72.71 435.38 72.03 432.94 70.66ZM446.51 66.84C448.13 65.8899 449.4 64.5499 450.31 62.7899C451.22 61.0399 451.68 59 451.68 56.69C451.68 54.38 451.22 52.36 450.31 50.61C449.39 48.87 448.13 47.54 446.51 46.61C444.89 45.68 443.04 45.22 440.97 45.22C438.9 45.22 437.05 45.68 435.43 46.61C433.81 47.54 432.54 48.88 431.63 50.61C430.71 52.35 430.26 54.38 430.26 56.69C430.26 59 430.72 61.0299 431.63 62.7899C432.54 64.5499 433.81 65.8899 435.43 66.84C437.05 67.79 438.89 68.2599 440.97 68.2599C443.05 68.2599 444.89 67.79 446.51 66.84Z" fill="white"/>
</svg>
