<svg width="473" height="663" viewBox="0 0 473 663" fill="none" xmlns="http://www.w3.org/2000/svg">
<path d="M460.94 11.73H0.830078V662.45H460.94V11.73Z" fill="#B7B7B7"/>
<path d="M471.95 0.72998H11.8398V651.45H471.95V0.72998Z" fill="white" stroke="#222221" stroke-miterlimit="10"/>
<path d="M265.68 384.98H241.84V632.2H265.68V384.98Z" stroke="#010200" stroke-width="2"/>
<path d="M234.24 38.05V40.26H227.22V45.14H232.69V47.35H227.22V54.58H224.51V38.04H234.24V38.05Z" fill="#010200"/>
<path d="M239.479 52.3998H245.07V54.5898H236.77V38.0498H239.479V52.3998Z" fill="#010200"/>
<path d="M250.62 53.6698C249.33 52.9498 248.3 51.9398 247.55 50.6498C246.8 49.3598 246.42 47.8998 246.42 46.2798C246.42 44.6598 246.8 43.2098 247.55 41.9298C248.3 40.6498 249.33 39.6398 250.62 38.9198C251.91 38.1998 253.33 37.8398 254.87 37.8398C256.41 37.8398 257.85 38.1998 259.14 38.9198C260.43 39.6398 261.45 40.6398 262.2 41.9298C262.95 43.2198 263.32 44.6698 263.32 46.2798C263.32 47.8898 262.95 49.3498 262.2 50.6498C261.45 51.9398 260.44 52.9498 259.14 53.6698C257.85 54.3898 256.42 54.7498 254.87 54.7498C253.32 54.7498 251.92 54.3898 250.62 53.6698ZM257.79 51.6498C258.65 51.1498 259.32 50.4398 259.8 49.5098C260.28 48.5798 260.53 47.5098 260.53 46.2898C260.53 45.0698 260.29 43.9998 259.8 43.0798C259.32 42.1598 258.65 41.4598 257.79 40.9598C256.93 40.4698 255.96 40.2198 254.86 40.2198C253.76 40.2198 252.79 40.4698 251.93 40.9598C251.07 41.4498 250.4 42.1598 249.92 43.0798C249.44 43.9998 249.19 45.0698 249.19 46.2898C249.19 47.5098 249.43 48.5898 249.92 49.5098C250.4 50.4398 251.07 51.1498 251.93 51.6498C252.79 52.1498 253.76 52.3998 254.86 52.3998C255.96 52.3998 256.93 52.1498 257.79 51.6498Z" fill="#010200"/>
<path d="M274.57 54.5898L270.76 47.9798H268.69V54.5898H265.979V38.0498H271.69C272.96 38.0498 274.029 38.2698 274.909 38.7198C275.789 39.1598 276.45 39.7598 276.88 40.4998C277.32 41.2498 277.53 42.0798 277.53 42.9998C277.53 44.0798 277.22 45.0598 276.59 45.9398C275.96 46.8198 275 47.4198 273.7 47.7398L277.789 54.5898H274.549H274.57ZM268.69 45.8098H271.69C272.71 45.8098 273.47 45.5598 273.99 45.0498C274.51 44.5398 274.76 43.8598 274.76 42.9998C274.76 42.1398 274.51 41.4698 274 40.9898C273.49 40.5098 272.72 40.2598 271.69 40.2598H268.69V45.7998V45.8098Z" fill="#010200"/>
<path d="M171.82 71.4396C172.32 70.5596 173 69.8696 173.86 69.3696C174.72 68.8696 175.68 68.6196 176.73 68.6196C177.96 68.6196 179.04 68.9196 179.96 69.5096C180.88 70.0996 181.55 70.9496 181.97 72.0396H180.2C179.89 71.3596 179.43 70.8296 178.84 70.4696C178.25 70.1096 177.54 69.9196 176.72 69.9196C175.9 69.9196 175.22 70.0996 174.59 70.4696C173.96 70.8396 173.47 71.3596 173.11 72.0396C172.75 72.7196 172.57 73.5096 172.57 74.4196C172.57 75.3296 172.75 76.1096 173.11 76.7796C173.47 77.4596 173.96 77.9796 174.59 78.3496C175.22 78.7196 175.93 78.8996 176.72 78.8996C177.51 78.8996 178.25 78.7196 178.84 78.3596C179.43 77.9996 179.88 77.4796 180.2 76.7896H181.97C181.55 77.8696 180.88 78.7096 179.96 79.2996C179.04 79.8896 177.96 80.1796 176.73 80.1796C175.68 80.1796 174.72 79.9296 173.86 79.4396C173 78.9496 172.32 78.2596 171.82 77.3896C171.32 76.5096 171.07 75.5196 171.07 74.4196C171.07 73.3196 171.32 72.3196 171.82 71.4396Z" fill="#010200"/>
<path d="M186.42 79.4597C185.55 78.9697 184.87 78.2797 184.37 77.3997C183.87 76.5197 183.62 75.5196 183.62 74.4196C183.62 73.3196 183.87 72.3197 184.37 71.4397C184.87 70.5597 185.56 69.8696 186.42 69.3796C187.29 68.8896 188.24 68.6396 189.29 68.6396C190.34 68.6396 191.31 68.8896 192.18 69.3796C193.05 69.8696 193.73 70.5596 194.23 71.4296C194.73 72.3096 194.98 73.2996 194.98 74.4196C194.98 75.5396 194.73 76.5297 194.23 77.4097C193.73 78.2897 193.05 78.9697 192.18 79.4597C191.31 79.9497 190.35 80.1996 189.29 80.1996C188.23 80.1996 187.28 79.9497 186.42 79.4597ZM191.43 78.3696C192.06 77.9996 192.56 77.4796 192.92 76.7896C193.28 76.1097 193.46 75.3196 193.46 74.4196C193.46 73.5196 193.28 72.7196 192.92 72.0396C192.56 71.3596 192.06 70.8397 191.43 70.4697C190.8 70.0997 190.09 69.9196 189.29 69.9196C188.49 69.9196 187.77 70.0997 187.15 70.4697C186.53 70.8397 186.03 71.3596 185.66 72.0396C185.3 72.7196 185.12 73.5096 185.12 74.4196C185.12 75.3296 185.3 76.1097 185.66 76.7896C186.02 77.4697 186.52 77.9996 187.15 78.3696C187.78 78.7396 188.5 78.9196 189.29 78.9196C190.08 78.9196 190.79 78.7396 191.43 78.3696Z" fill="#010200"/>
<path d="M198.4 78.8895H202.36V80.0895H196.92V68.7695H198.4V78.8895Z" fill="#010200"/>
<path d="M205.42 69.9698V73.7498H209.54V74.9698H205.42V78.8698H210.03V80.0898H203.94V68.7598H210.03V69.9798H205.42V69.9698Z" fill="#010200"/>
<path d="M218.86 79.4597C217.99 78.9697 217.31 78.2797 216.81 77.3997C216.31 76.5197 216.06 75.5196 216.06 74.4196C216.06 73.3196 216.31 72.3197 216.81 71.4397C217.31 70.5597 218 69.8696 218.86 69.3796C219.73 68.8896 220.68 68.6396 221.73 68.6396C222.78 68.6396 223.75 68.8896 224.62 69.3796C225.49 69.8696 226.17 70.5596 226.67 71.4296C227.17 72.3096 227.42 73.2996 227.42 74.4196C227.42 75.5396 227.17 76.5297 226.67 77.4097C226.17 78.2897 225.49 78.9697 224.62 79.4597C223.75 79.9497 222.79 80.1996 221.73 80.1996C220.67 80.1996 219.72 79.9497 218.86 79.4597ZM223.87 78.3696C224.5 77.9996 225 77.4796 225.36 76.7896C225.72 76.1097 225.9 75.3196 225.9 74.4196C225.9 73.5196 225.72 72.7196 225.36 72.0396C225 71.3596 224.5 70.8397 223.87 70.4697C223.24 70.0997 222.53 69.9196 221.73 69.9196C220.93 69.9196 220.21 70.0997 219.59 70.4697C218.97 70.8397 218.47 71.3596 218.1 72.0396C217.74 72.7196 217.56 73.5096 217.56 74.4196C217.56 75.3296 217.74 76.1097 218.1 76.7896C218.46 77.4697 218.96 77.9996 219.59 78.3696C220.22 78.7396 220.94 78.9196 221.73 78.9196C222.52 78.9196 223.23 78.7396 223.87 78.3696Z" fill="#010200"/>
<path d="M236.16 74.7595C236.5 75.0295 236.77 75.3695 236.97 75.7695C237.17 76.1695 237.27 76.5995 237.27 77.0495C237.27 77.6195 237.12 78.1395 236.83 78.5995C236.54 79.0595 236.11 79.4195 235.56 79.6895C235 79.9495 234.34 80.0895 233.59 80.0895H229.37V68.7695H233.43C234.2 68.7695 234.85 68.8995 235.39 69.1495C235.93 69.3995 236.34 69.7495 236.61 70.1795C236.88 70.6095 237.02 71.0995 237.02 71.6395C237.02 72.3095 236.84 72.8695 236.48 73.2995C236.12 73.7395 235.64 74.0495 235.04 74.2495C235.45 74.3095 235.83 74.4795 236.17 74.7495L236.16 74.7595ZM230.84 73.6595H233.32C234.01 73.6595 234.55 73.4995 234.93 73.1695C235.31 72.8395 235.5 72.3995 235.5 71.8195C235.5 71.2395 235.31 70.7995 234.93 70.4695C234.55 70.1395 234 69.9795 233.29 69.9795H230.84V73.6495V73.6595ZM235.18 78.3495C235.59 77.9995 235.8 77.5195 235.8 76.8995C235.8 76.2795 235.58 75.7795 235.15 75.4095C234.72 75.0495 234.14 74.8695 233.41 74.8695H230.84V78.8595H233.45C234.19 78.8595 234.76 78.6895 235.17 78.3395L235.18 78.3495Z" fill="#010200"/>
<path d="M245.02 68.7695V77.1295C245.02 78.0595 244.73 78.7995 244.16 79.3595C243.59 79.9195 242.83 80.1995 241.89 80.1995C240.95 80.1995 240.17 79.9195 239.6 79.3495C239.03 78.7795 238.74 78.0095 238.74 77.0195H240.22C240.23 77.5695 240.37 78.0195 240.65 78.3695C240.93 78.7195 241.34 78.8895 241.89 78.8895C242.44 78.8895 242.85 78.7195 243.12 78.3895C243.39 78.0595 243.53 77.6395 243.53 77.1295V68.7695H245.02Z" fill="#010200"/>
<path d="M249.4 69.9698V73.7498H253.52V74.9698H249.4V78.8698H254.01V80.0898H247.92V68.7598H254.01V69.9798H249.4V69.9698Z" fill="#010200"/>
<path d="M263.22 68.7695V69.9695H260.13V80.0895H258.65V69.9695H255.55V68.7695H263.21H263.22Z" fill="#010200"/>
<path d="M267.3 79.4597C266.43 78.9697 265.75 78.2797 265.25 77.3997C264.75 76.5197 264.5 75.5196 264.5 74.4196C264.5 73.3196 264.75 72.3197 265.25 71.4397C265.75 70.5597 266.44 69.8696 267.3 69.3796C268.17 68.8896 269.12 68.6396 270.17 68.6396C271.22 68.6396 272.19 68.8896 273.06 69.3796C273.93 69.8696 274.61 70.5596 275.11 71.4296C275.61 72.3096 275.86 73.2996 275.86 74.4196C275.86 75.5396 275.61 76.5297 275.11 77.4097C274.61 78.2897 273.93 78.9697 273.06 79.4597C272.19 79.9497 271.23 80.1996 270.17 80.1996C269.11 80.1996 268.16 79.9497 267.3 79.4597ZM272.31 78.3696C272.94 77.9996 273.44 77.4796 273.8 76.7896C274.16 76.1097 274.34 75.3196 274.34 74.4196C274.34 73.5196 274.16 72.7196 273.8 72.0396C273.44 71.3596 272.94 70.8397 272.31 70.4697C271.68 70.0997 270.97 69.9196 270.17 69.9196C269.37 69.9196 268.65 70.0997 268.03 70.4697C267.41 70.8397 266.91 71.3596 266.54 72.0396C266.18 72.7196 266 73.5096 266 74.4196C266 75.3296 266.18 76.1097 266.54 76.7896C266.9 77.4697 267.4 77.9996 268.03 78.3696C268.66 78.7396 269.38 78.9196 270.17 78.9196C270.96 78.9196 271.67 78.7396 272.31 78.3696Z" fill="#010200"/>
<path d="M279.39 79.7996C278.8 79.5396 278.34 79.1696 278 78.6996C277.66 78.2296 277.49 77.6896 277.48 77.0696H279.05C279.1 77.5996 279.32 78.0496 279.71 78.4096C280.09 78.7696 280.65 78.9496 281.39 78.9496C282.13 78.9496 282.65 78.7696 283.05 78.4196C283.46 78.0696 283.66 77.6196 283.66 77.0596C283.66 76.6296 283.54 76.2796 283.3 76.0096C283.06 75.7396 282.76 75.5296 282.41 75.3896C282.06 75.2496 281.57 75.0996 280.96 74.9296C280.21 74.7396 279.61 74.5396 279.17 74.3496C278.72 74.1496 278.34 73.8496 278.02 73.4296C277.7 73.0096 277.54 72.4496 277.54 71.7496C277.54 71.1296 277.7 70.5896 278.01 70.1096C278.32 69.6296 278.76 69.2696 279.33 69.0096C279.9 68.7496 280.55 68.6196 281.29 68.6196C282.35 68.6196 283.22 68.8896 283.9 69.4196C284.58 69.9496 284.96 70.6496 285.04 71.5296H283.42C283.37 71.0996 283.14 70.7196 282.74 70.3896C282.34 70.0596 281.81 69.8896 281.15 69.8896C280.53 69.8896 280.03 70.0496 279.64 70.3696C279.25 70.6896 279.06 71.1396 279.06 71.7096C279.06 72.1196 279.18 72.4596 279.41 72.7196C279.64 72.9796 279.93 73.1796 280.27 73.3096C280.61 73.4496 281.09 73.5996 281.71 73.7696C282.46 73.9796 283.06 74.1796 283.51 74.3796C283.96 74.5796 284.35 74.8896 284.68 75.3096C285 75.7296 285.17 76.2896 285.17 77.0096C285.17 77.5596 285.02 78.0796 284.73 78.5696C284.44 79.0596 284 79.4496 283.43 79.7596C282.86 80.0596 282.18 80.2096 281.4 80.2096C280.62 80.2096 279.98 80.0796 279.39 79.8096V79.7996Z" fill="#010200"/>
<path d="M298.27 74.4295C297.63 75.0495 296.64 75.3595 295.32 75.3595H293.14V80.0895H291.66V68.7695H295.31C296.59 68.7695 297.56 69.0795 298.22 69.6995C298.89 70.3195 299.22 71.1095 299.22 72.0895C299.22 73.0695 298.9 73.8095 298.25 74.4395L298.27 74.4295ZM297.14 73.6095C297.53 73.2495 297.72 72.7395 297.72 72.0795C297.72 70.6795 296.92 69.9895 295.32 69.9895H293.14V74.1495H295.32C296.14 74.1495 296.75 73.9695 297.14 73.6095Z" fill="#010200"/>
<path d="M307.76 77.5698H302.82L301.91 80.0898H300.35L304.44 68.8398H306.14L310.22 80.0898H308.66L307.75 77.5698H307.76ZM307.34 76.3699L305.29 70.6599L303.24 76.3699H307.33H307.34Z" fill="#010200"/>
<path d="M317.97 80.0895L315.27 75.4595H313.48V80.0895H312V68.7695H315.65C316.5 68.7695 317.23 68.9195 317.82 69.2095C318.41 69.4995 318.85 69.8995 319.14 70.3895C319.43 70.8895 319.58 71.4595 319.58 72.0995C319.58 72.8795 319.35 73.5695 318.91 74.1595C318.46 74.7595 317.79 75.1495 316.89 75.3495L319.73 80.0895H317.96H317.97ZM313.49 74.2695H315.67C316.47 74.2695 317.07 74.0695 317.47 73.6795C317.87 73.2795 318.07 72.7595 318.07 72.0995C318.07 71.4395 317.87 70.9095 317.48 70.5395C317.08 70.1695 316.48 69.9895 315.67 69.9895H313.49V74.2795V74.2695Z" fill="#010200"/>
<path d="M328.58 77.5698H323.64L322.73 80.0898H321.17L325.26 68.8398H326.96L331.04 80.0898H329.48L328.57 77.5698H328.58ZM328.15 76.3699L326.1 70.6599L324.05 76.3699H328.14H328.15Z" fill="#010200"/>
<path d="M185.44 93.9095C184.8 94.5295 183.81 94.8395 182.49 94.8395H180.31V99.5695H178.83V88.2495H182.48C183.76 88.2495 184.73 88.5595 185.39 89.1795C186.06 89.7995 186.39 90.5895 186.39 91.5695C186.39 92.5495 186.07 93.2895 185.42 93.9195L185.44 93.9095ZM184.32 93.0895C184.71 92.7295 184.9 92.2195 184.9 91.5595C184.9 90.1595 184.1 89.4695 182.5 89.4695H180.32V93.6295H182.5C183.32 93.6295 183.93 93.4495 184.32 93.0895Z" fill="#010200"/>
<path d="M194.2 99.5695L191.5 94.9395H189.71V99.5695H188.23V88.2495H191.88C192.73 88.2495 193.46 88.3995 194.05 88.6895C194.64 88.9795 195.08 89.3795 195.37 89.8695C195.66 90.3695 195.81 90.9395 195.81 91.5795C195.81 92.3595 195.58 93.0495 195.14 93.6395C194.69 94.2395 194.02 94.6295 193.12 94.8295L195.96 99.5695H194.19H194.2ZM189.72 93.7595H191.9C192.7 93.7595 193.3 93.5595 193.7 93.1695C194.1 92.7695 194.3 92.2495 194.3 91.5895C194.3 90.9295 194.1 90.3995 193.71 90.0295C193.31 89.6595 192.71 89.4795 191.9 89.4795H189.72V93.7695V93.7595Z" fill="#010200"/>
<path d="M199.6 89.4595V93.2395H203.72V94.4595H199.6V98.3595H204.21V99.5795H198.12V88.2495H204.21V89.4695H199.6V89.4595Z" fill="#010200"/>
<path d="M207.93 89.4595V93.2395H212.05V94.4595H207.93V98.3595H212.54V99.5795H206.45V88.2495H212.54V89.4695H207.93V89.4595Z" fill="#010200"/>
<path d="M223.68 99.5697H222.2L216.26 90.5597V99.5697H214.78V88.2397H216.26L222.2 97.2397V88.2397H223.68V99.5697Z" fill="#010200"/>
<path d="M226.39 90.9299C226.89 90.0499 227.57 89.3599 228.43 88.8599C229.29 88.3599 230.25 88.1099 231.3 88.1099C232.53 88.1099 233.61 88.4099 234.53 88.9999C235.45 89.5899 236.12 90.4399 236.54 91.5299H234.77C234.46 90.8499 234 90.3199 233.41 89.9599C232.82 89.5999 232.11 89.4099 231.29 89.4099C230.47 89.4099 229.79 89.5899 229.16 89.9599C228.53 90.3299 228.04 90.8499 227.68 91.5299C227.32 92.2099 227.14 92.9999 227.14 93.9099C227.14 94.8199 227.32 95.5999 227.68 96.2699C228.04 96.9499 228.53 97.4699 229.16 97.8399C229.79 98.2099 230.5 98.3899 231.29 98.3899C232.08 98.3899 232.82 98.2099 233.41 97.8499C234 97.4899 234.45 96.9699 234.77 96.2799H236.54C236.12 97.3599 235.45 98.1999 234.53 98.7899C233.61 99.3799 232.53 99.6699 231.3 99.6699C230.25 99.6699 229.29 99.4199 228.43 98.9299C227.57 98.4399 226.89 97.7499 226.39 96.8799C225.89 95.9999 225.64 95.0099 225.64 93.9099C225.64 92.8099 225.89 91.8099 226.39 90.9299Z" fill="#010200"/>
<path d="M247.45 88.2598V99.5798H245.97V94.4498H240.21V99.5798H238.73V88.2598H240.21V93.2298H245.97V88.2598H247.45Z" fill="#010200"/>
<path d="M251.44 89.4595V93.2395H255.56V94.4595H251.44V98.3595H256.05V99.5795H249.96V88.2495H256.05V89.4695H251.44V89.4595Z" fill="#010200"/>
<path d="M264.25 99.5695L261.55 94.9395H259.76V99.5695H258.28V88.2495H261.93C262.78 88.2495 263.51 88.3995 264.1 88.6895C264.69 88.9795 265.13 89.3795 265.42 89.8695C265.71 90.3695 265.86 90.9395 265.86 91.5795C265.86 92.3595 265.63 93.0495 265.19 93.6395C264.74 94.2395 264.07 94.6295 263.17 94.8295L266.01 99.5695H264.24H264.25ZM259.77 93.7595H261.95C262.75 93.7595 263.35 93.5595 263.75 93.1695C264.15 92.7695 264.35 92.2495 264.35 91.5895C264.35 90.9295 264.15 90.3995 263.76 90.0295C263.36 89.6595 262.76 89.4795 261.95 89.4795H259.77V93.7695V93.7595Z" fill="#010200"/>
<path d="M279.19 97.0596H274.25L273.34 99.5796H271.78L275.87 88.3296H277.57L281.65 99.5796H280.09L279.18 97.0596H279.19ZM278.77 95.8496L276.72 90.1396L274.67 95.8496H278.76H278.77Z" fill="#010200"/>
<path d="M294.18 88.2598V89.4598H289.26V93.2798H293.25V94.4798H289.26V99.5798H287.78V88.2598H294.18Z" fill="#010200"/>
<path d="M297.44 98.3695H301.4V99.5695H295.96V88.2495H297.44V98.3695Z" fill="#010200"/>
<path d="M305.24 98.9494C304.37 98.4594 303.69 97.7694 303.19 96.8894C302.69 96.0094 302.44 95.0094 302.44 93.9094C302.44 92.8094 302.69 91.8094 303.19 90.9294C303.69 90.0494 304.38 89.3594 305.24 88.8694C306.11 88.3794 307.06 88.1294 308.11 88.1294C309.16 88.1294 310.13 88.3794 311 88.8694C311.87 89.3594 312.55 90.0494 313.05 90.9194C313.55 91.7994 313.8 92.7894 313.8 93.9094C313.8 95.0294 313.55 96.0194 313.05 96.8994C312.55 97.7794 311.87 98.4594 311 98.9494C310.13 99.4394 309.17 99.6894 308.11 99.6894C307.05 99.6894 306.1 99.4394 305.24 98.9494ZM310.24 97.8494C310.87 97.4794 311.37 96.9594 311.73 96.2694C312.09 95.5894 312.27 94.7994 312.27 93.8994C312.27 92.9994 312.09 92.1994 311.73 91.5194C311.37 90.8394 310.87 90.3194 310.24 89.9494C309.61 89.5794 308.9 89.3994 308.1 89.3994C307.3 89.3994 306.58 89.5794 305.96 89.9494C305.34 90.3194 304.84 90.8394 304.47 91.5194C304.11 92.1994 303.93 92.9894 303.93 93.8994C303.93 94.8094 304.11 95.5894 304.47 96.2694C304.83 96.9494 305.33 97.4794 305.96 97.8494C306.59 98.2194 307.31 98.3994 308.1 98.3994C308.89 98.3994 309.6 98.2194 310.24 97.8494Z" fill="#010200"/>
<path d="M321.7 99.5695L319 94.9395H317.21V99.5695H315.73V88.2495H319.38C320.23 88.2495 320.96 88.3995 321.55 88.6895C322.14 88.9795 322.58 89.3795 322.87 89.8695C323.16 90.3695 323.31 90.9395 323.31 91.5795C323.31 92.3595 323.08 93.0495 322.64 93.6395C322.19 94.2395 321.52 94.6295 320.62 94.8295L323.46 99.5695H321.69H321.7ZM317.22 93.7595H319.4C320.2 93.7595 320.8 93.5595 321.2 93.1695C321.6 92.7695 321.8 92.2495 321.8 91.5895C321.8 90.9295 321.6 90.3995 321.21 90.0295C320.81 89.6595 320.21 89.4795 319.4 89.4795H317.22V93.7695V93.7595Z" fill="#010200"/>
<path d="M254.92 385C292.867 385 323.63 354.238 323.63 316.29C323.63 278.343 292.867 247.58 254.92 247.58C216.972 247.58 186.21 278.343 186.21 316.29C186.21 354.238 216.972 385 254.92 385Z" stroke="#010200" stroke-width="2"/>
<path d="M117.41 508.38C117.41 508.38 236.58 513.21 232.8 600.73C232.8 600.73 165.06 665.21 117.41 508.38Z" stroke="#010200" stroke-width="2"/>
<path d="M390.84 508.38C390.84 508.38 271.67 513.21 275.45 600.73C275.45 600.73 343.19 665.21 390.84 508.38Z" stroke="#010200" stroke-width="2"/>
<path d="M132.684 352.18C162.709 351.447 186.699 336.578 186.269 318.971C185.839 301.364 161.15 287.686 131.126 288.419C101.102 289.153 77.111 304.021 77.5413 321.629C77.9717 339.236 102.66 352.914 132.684 352.18Z" stroke="#010200" stroke-width="2"/>
<path d="M378.794 346.169C408.818 345.435 432.809 330.567 432.379 312.96C431.948 295.353 407.26 281.674 377.236 282.408C347.212 283.142 323.221 298.01 323.651 315.617C324.082 333.224 348.77 346.903 378.794 346.169Z" stroke="#010200" stroke-width="2"/>
<path d="M174.527 415.832C198.747 398.073 209.939 372.163 199.524 357.959C189.11 343.756 161.033 346.638 136.813 364.397C112.593 382.156 101.401 408.067 111.815 422.27C122.23 436.474 150.307 433.591 174.527 415.832Z" stroke="#010200" stroke-width="2"/>
<path d="M373.069 270.264C397.289 252.505 408.481 226.594 398.067 212.391C387.652 198.187 359.576 201.07 335.355 218.829C311.135 236.587 299.943 262.498 310.358 276.701C320.772 290.905 348.849 288.022 373.069 270.264Z" stroke="#010200" stroke-width="2"/>
<path d="M245.719 444.148C255.333 415.695 249.601 388.059 232.915 382.421C216.229 376.783 194.909 395.278 185.295 423.731C175.681 452.183 181.414 479.82 198.099 485.458C214.785 491.096 236.105 472.6 245.719 444.148Z" fill="white" stroke="#010200" stroke-width="2"/>
<path d="M324.534 210.925C334.148 182.472 328.416 154.836 311.73 149.198C295.044 143.56 273.724 162.055 264.11 190.507C254.496 218.96 260.228 246.596 276.914 252.234C293.6 257.872 314.92 239.377 324.534 210.925Z" stroke="#010200" stroke-width="2"/>
<path d="M310.142 485.981C326.881 480.503 332.879 452.924 323.538 424.38C314.198 395.836 293.056 377.137 276.317 382.615C259.578 388.092 253.581 415.672 262.921 444.216C272.262 472.76 293.404 491.459 310.142 485.981Z" fill="white" stroke="#010200" stroke-width="2"/>
<path d="M233.579 252.002C250.318 246.524 256.316 218.945 246.975 190.401C237.635 161.857 216.493 143.158 199.754 148.636C183.015 154.113 177.018 181.693 186.358 210.237C195.699 238.781 216.841 257.48 233.579 252.002Z" stroke="#010200" stroke-width="2"/>
<path d="M401.813 416.841C411.692 402.26 399.545 376.783 374.681 359.937C349.818 343.09 321.653 341.254 311.774 355.834C301.895 370.415 314.042 395.892 338.906 412.738C363.769 429.585 391.933 431.421 401.813 416.841Z" stroke="#010200" stroke-width="2"/>
<path d="M198.019 278.75C207.899 264.169 195.751 238.693 170.888 221.846C146.025 205 117.86 203.163 107.981 217.743C98.1015 232.324 110.249 257.801 135.112 274.647C159.976 291.494 188.14 293.331 198.019 278.75Z" stroke="#010200" stroke-width="2"/>
</svg>
