<svg width="543" height="94" viewBox="0 0 543 94" fill="none" xmlns="http://www.w3.org/2000/svg">
<path d="M513.01 23.27H30.4599C13.9963 23.27 0.649902 36.6164 0.649902 53.08V63.46C0.649902 79.9236 13.9963 93.27 30.4599 93.27H513.01C529.474 93.27 542.82 79.9236 542.82 63.46V53.08C542.82 36.6164 529.474 23.27 513.01 23.27Z" fill="#C0F2C3"/>
<path d="M232.11 4.3497C232.65 3.4297 233.38 2.71969 234.3 2.19969C235.22 1.67969 236.24 1.42969 237.33 1.42969C238.59 1.42969 239.71 1.7397 240.69 2.3597C241.67 2.9797 242.38 3.8497 242.82 4.9897H240.49C240.18 4.3697 239.76 3.8997 239.21 3.5997C238.67 3.2897 238.04 3.13969 237.32 3.13969C236.54 3.13969 235.84 3.31969 235.23 3.66969C234.62 4.01969 234.14 4.52969 233.79 5.17969C233.44 5.82969 233.27 6.5997 233.27 7.4697C233.27 8.3397 233.44 9.10969 233.79 9.75969C234.14 10.4097 234.61 10.9197 235.23 11.2797C235.84 11.6397 236.54 11.8197 237.32 11.8197C238.03 11.8197 238.66 11.6697 239.21 11.3597C239.76 11.0497 240.18 10.5897 240.49 9.9697H242.82C242.38 11.0997 241.67 11.9797 240.69 12.5897C239.71 13.1997 238.59 13.5097 237.33 13.5097C236.22 13.5097 235.21 13.2497 234.29 12.7397C233.37 12.2197 232.64 11.5097 232.11 10.5897C231.58 9.66969 231.3 8.62969 231.3 7.47969C231.3 6.32969 231.57 5.28969 232.11 4.36969V4.3497Z" fill="#A6A6A6"/>
<path d="M246.76 12.9496C246.05 12.5496 245.48 11.9796 245.08 11.2496C244.67 10.5196 244.47 9.66966 244.47 8.70966C244.47 7.74966 244.68 6.90964 245.1 6.17964C245.52 5.43964 246.09 4.87964 246.82 4.47964C247.55 4.07964 248.36 3.88965 249.25 3.88965C250.14 3.88965 250.96 4.08964 251.68 4.47964C252.4 4.87964 252.98 5.43964 253.4 6.17964C253.82 6.91964 254.03 7.75966 254.03 8.70966C254.03 9.65966 253.81 10.5097 253.38 11.2397C252.95 11.9797 252.36 12.5496 251.62 12.9496C250.88 13.3496 250.06 13.5497 249.16 13.5497C248.26 13.5497 247.48 13.3496 246.76 12.9496ZM250.56 11.5096C251 11.2696 251.35 10.9097 251.62 10.4397C251.89 9.96965 252.03 9.38966 252.03 8.70966C252.03 8.02966 251.9 7.45964 251.64 6.97964C251.38 6.50964 251.03 6.15965 250.6 5.91965C250.17 5.67965 249.7 5.55965 249.21 5.55965C248.72 5.55965 248.25 5.67965 247.82 5.91965C247.4 6.15965 247.06 6.50964 246.81 6.97964C246.56 7.44964 246.44 8.02966 246.44 8.70966C246.44 9.71966 246.7 10.4997 247.21 11.0497C247.72 11.5997 248.37 11.8696 249.16 11.8696C249.66 11.8696 250.13 11.7496 250.56 11.5096Z" fill="#A6A6A6"/>
<path d="M257.88 0.819824V13.3998H255.94V0.819824H257.88Z" fill="#A6A6A6"/>
<path d="M260.37 6.16988C260.76 5.43988 261.29 4.87987 261.97 4.47987C262.64 4.07987 263.39 3.87988 264.21 3.87988C264.95 3.87988 265.59 4.01988 266.14 4.30988C266.69 4.59988 267.13 4.95988 267.46 5.38988V4.02988H269.42V13.3999H267.46V12.0099C267.13 12.4499 266.68 12.8199 266.12 13.1099C265.55 13.3999 264.91 13.5499 264.18 13.5499C263.38 13.5499 262.64 13.3399 261.97 12.9299C261.3 12.5199 260.77 11.9399 260.38 11.1999C259.99 10.4599 259.79 9.61987 259.79 8.67987C259.79 7.73987 259.99 6.90987 260.38 6.17987L260.37 6.16988ZM267.05 7.01988C266.78 6.53988 266.43 6.17987 266 5.92987C265.57 5.67987 265.1 5.55988 264.61 5.55988C264.12 5.55988 263.65 5.67987 263.22 5.92987C262.79 6.16987 262.44 6.52988 262.17 6.99988C261.9 7.46988 261.77 8.02988 261.77 8.66988C261.77 9.30988 261.9 9.87987 262.17 10.3699C262.44 10.8599 262.79 11.2299 263.22 11.4799C263.66 11.7299 264.12 11.8599 264.61 11.8599C265.1 11.8599 265.57 11.7399 266 11.4899C266.43 11.2399 266.78 10.8799 267.05 10.3899C267.32 9.90988 267.45 9.34987 267.45 8.69987C267.45 8.04987 267.32 7.48988 267.05 7.01988Z" fill="#A6A6A6"/>
<path d="M277.66 4.30991C278.22 4.59991 278.66 4.95991 278.98 5.38991V4.02991H280.94V13.5499C280.94 14.4099 280.76 15.1799 280.4 15.8499C280.04 16.5199 279.51 17.0499 278.83 17.4399C278.15 17.8299 277.33 18.0199 276.37 18.0199C275.1 18.0199 274.05 17.7199 273.21 17.1299C272.37 16.5399 271.9 15.7299 271.78 14.7099H273.7C273.85 15.1999 274.16 15.5899 274.64 15.8899C275.12 16.1899 275.7 16.3399 276.37 16.3399C277.15 16.3399 277.78 16.0999 278.27 15.6299C278.75 15.1499 278.99 14.4599 278.99 13.5599V11.9999C278.66 12.4399 278.22 12.8099 277.66 13.1099C277.1 13.4099 276.46 13.5599 275.75 13.5599C274.93 13.5599 274.19 13.3499 273.51 12.9399C272.84 12.5299 272.3 11.9499 271.91 11.2099C271.52 10.4699 271.32 9.62991 271.32 8.68991C271.32 7.74991 271.52 6.91991 271.91 6.18991C272.3 5.45991 272.83 4.89991 273.51 4.49991C274.19 4.09991 274.93 3.8999 275.75 3.8999C276.47 3.8999 277.12 4.03991 277.68 4.32991L277.66 4.30991ZM278.57 7.01991C278.3 6.53991 277.96 6.1799 277.52 5.9299C277.08 5.6799 276.62 5.55991 276.13 5.55991C275.64 5.55991 275.17 5.6799 274.74 5.9299C274.31 6.1699 273.96 6.52991 273.69 6.99991C273.42 7.46991 273.29 8.02991 273.29 8.66991C273.29 9.30991 273.42 9.8799 273.69 10.3699C273.96 10.8599 274.31 11.2299 274.74 11.4799C275.18 11.7299 275.64 11.8599 276.13 11.8599C276.62 11.8599 277.09 11.7399 277.52 11.4899C277.95 11.2399 278.3 10.8799 278.57 10.3899C278.84 9.90991 278.97 9.34991 278.97 8.69991C278.97 8.04991 278.84 7.48991 278.57 7.01991Z" fill="#A6A6A6"/>
<path d="M292 9.43991H284.84C284.9 10.1899 285.17 10.7899 285.67 11.2399C286.17 11.6899 286.78 11.9199 287.51 11.9199C288.55 11.9199 289.29 11.4799 289.72 10.6099H291.81C291.53 11.4699 291.01 12.1799 290.27 12.7299C289.53 13.2799 288.61 13.5599 287.51 13.5599C286.61 13.5599 285.81 13.3599 285.1 12.9599C284.39 12.5599 283.84 11.9899 283.43 11.2599C283.03 10.5299 282.83 9.67991 282.83 8.71991C282.83 7.75991 283.03 6.9099 283.42 6.1799C283.81 5.4499 284.36 4.88991 285.07 4.48991C285.78 4.08991 286.59 3.8999 287.51 3.8999C288.43 3.8999 289.18 4.0899 289.87 4.4799C290.56 4.8699 291.1 5.40991 291.49 6.09991C291.87 6.79991 292.07 7.5999 292.07 8.5099C292.07 8.8599 292.05 9.17991 292 9.45992V9.43991ZM290.04 7.8699C290.03 7.1599 289.77 6.5799 289.28 6.1499C288.78 5.7199 288.16 5.49991 287.43 5.49991C286.76 5.49991 286.19 5.70991 285.71 6.13991C285.23 6.56991 284.95 7.1399 284.86 7.8699H290.04Z" fill="#A6A6A6"/>
<path d="M300.67 4.33965C301.25 4.64965 301.71 5.09965 302.04 5.69965C302.37 6.29965 302.53 7.02965 302.53 7.87965V13.4097H300.61V8.16965C300.61 7.32965 300.4 6.68965 299.98 6.23965C299.56 5.78965 298.99 5.56966 298.26 5.56966C297.53 5.56966 296.96 5.78965 296.53 6.23965C296.1 6.68965 295.89 7.32965 295.89 8.16965V13.4097H293.95V4.03964H295.89V5.10965C296.21 4.71965 296.61 4.41966 297.11 4.20966C297.6 3.99966 298.13 3.88965 298.68 3.88965C299.42 3.88965 300.08 4.03966 300.66 4.34966L300.67 4.33965Z" fill="#A6A6A6"/>
<path d="M306.42 13.1499C305.84 12.8799 305.37 12.5199 305.03 12.0599C304.69 11.5999 304.51 11.0899 304.49 10.5199H306.5C306.53 10.9199 306.72 11.2499 307.07 11.5099C307.42 11.7799 307.85 11.9099 308.37 11.9099C308.89 11.9099 309.34 11.7999 309.64 11.5899C309.94 11.3799 310.09 11.1099 310.09 10.7799C310.09 10.4299 309.92 10.1699 309.59 9.99986C309.26 9.82986 308.73 9.63986 308 9.43987C307.3 9.24987 306.73 9.05987 306.28 8.87987C305.84 8.69987 305.46 8.41987 305.13 8.04987C304.81 7.67987 304.65 7.17987 304.65 6.56987C304.65 6.06987 304.8 5.61986 305.09 5.19986C305.38 4.78986 305.81 4.45986 306.36 4.21986C306.91 3.97986 307.54 3.85986 308.26 3.85986C309.32 3.85986 310.18 4.12986 310.84 4.66986C311.49 5.20986 311.84 5.93986 311.89 6.86986H309.95C309.92 6.44986 309.75 6.11986 309.44 5.86986C309.13 5.61986 308.72 5.49986 308.2 5.49986C307.68 5.49986 307.3 5.59986 307.03 5.78986C306.76 5.97986 306.62 6.23987 306.62 6.54987C306.62 6.79987 306.71 7.00986 306.89 7.17986C307.07 7.34986 307.29 7.47986 307.55 7.57986C307.81 7.67986 308.2 7.79986 308.71 7.94986C309.39 8.12986 309.95 8.31986 310.38 8.49986C310.82 8.68986 311.19 8.95987 311.51 9.31987C311.83 9.67987 311.99 10.1599 312 10.7699C312 11.2999 311.85 11.7799 311.56 12.1999C311.27 12.6199 310.85 12.9499 310.31 13.1899C309.77 13.4299 309.14 13.5499 308.41 13.5499C307.68 13.5499 307.01 13.4199 306.43 13.1499H306.42Z" fill="#A6A6A6"/>
<path d="M240.08 41.1201V45.3101H226.8V54.5301H237.15V58.7201H226.8V72.4001H221.67V41.1201H240.08Z" fill="white"/>
<path d="M249.98 68.2601H260.56V72.4001H244.85V41.1201H249.98V68.2601Z" fill="white"/>
<path d="M271.06 70.66C268.61 69.29 266.68 67.39 265.26 64.95C263.83 62.5 263.12 59.75 263.12 56.69C263.12 53.63 263.83 50.89 265.26 48.45C266.68 46.02 268.62 44.1199 271.06 42.7599C273.51 41.3999 276.18 40.71 279.09 40.71C282 40.71 284.72 41.3899 287.17 42.7599C289.61 44.1299 291.54 46.02 292.95 48.45C294.36 50.88 295.07 53.63 295.07 56.69C295.07 59.75 294.36 62.5 292.95 64.95C291.54 67.4 289.61 69.3 287.17 70.66C284.72 72.03 282.03 72.71 279.09 72.71C276.15 72.71 273.5 72.03 271.06 70.66ZM284.63 66.84C286.25 65.8899 287.52 64.5499 288.43 62.7899C289.34 61.0299 289.8 59 289.8 56.69C289.8 54.38 289.34 52.36 288.43 50.61C287.51 48.87 286.25 47.54 284.63 46.61C283.01 45.68 281.16 45.22 279.09 45.22C277.02 45.22 275.18 45.68 273.56 46.61C271.94 47.54 270.67 48.88 269.76 50.61C268.84 52.35 268.39 54.38 268.39 56.69C268.39 59 268.85 61.0299 269.76 62.7899C270.68 64.5399 271.94 65.8899 273.56 66.84C275.18 67.79 277.02 68.2599 279.09 68.2599C281.16 68.2599 283.01 67.79 284.63 66.84Z" fill="white"/>
<path d="M316.36 72.4001L309.16 59.8901H305.24V72.4001H300.11V41.1201H310.91C313.31 41.1201 315.34 41.5401 317.01 42.3801C318.68 43.2201 319.92 44.3401 320.74 45.7601C321.56 47.1701 321.98 48.7501 321.98 50.4801C321.98 52.5201 321.39 54.3701 320.2 56.0401C319.01 57.7101 317.19 58.8401 314.73 59.4401L322.47 72.4001H316.35H316.36ZM305.24 55.7901H310.91C312.83 55.7901 314.28 55.3101 315.25 54.3501C316.22 53.3901 316.71 52.1001 316.71 50.4801C316.71 48.8601 316.23 47.5901 315.27 46.6801C314.31 45.7701 312.85 45.3101 310.9 45.3101H305.23V55.7901H305.24Z" fill="white"/>
</svg>
