<svg width="146" height="202" viewBox="0 0 146 202" fill="none" xmlns="http://www.w3.org/2000/svg">
<path d="M19.59 164.46V166.04H14.57V169.53H18.48V171.11H14.57V176.28H12.63V164.46H19.58H19.59Z" fill="#A6A6A6"/>
<path d="M21.33 169.05C21.72 168.32 22.25 167.76 22.93 167.36C23.6 166.96 24.35 166.76 25.17 166.76C25.91 166.76 26.55 166.9 27.1 167.19C27.65 167.48 28.09 167.84 28.42 168.27V166.91H30.38V176.28H28.42V174.89C28.09 175.33 27.64 175.7 27.08 175.99C26.52 176.28 25.87 176.43 25.14 176.43C24.34 176.43 23.6 176.22 22.93 175.81C22.26 175.4 21.73 174.82 21.34 174.08C20.95 173.34 20.75 172.5 20.75 171.56C20.75 170.62 20.95 169.79 21.34 169.06L21.33 169.05ZM28.01 169.9C27.74 169.42 27.4 169.06 26.96 168.81C26.53 168.56 26.06 168.44 25.57 168.44C25.08 168.44 24.61 168.56 24.18 168.81C23.75 169.05 23.4 169.41 23.13 169.88C22.86 170.35 22.73 170.91 22.73 171.55C22.73 172.19 22.86 172.76 23.13 173.25C23.4 173.74 23.75 174.11 24.18 174.36C24.62 174.61 25.08 174.74 25.57 174.74C26.06 174.74 26.53 174.62 26.96 174.37C27.39 174.12 27.74 173.76 28.01 173.27C28.28 172.79 28.41 172.23 28.41 171.58C28.41 170.93 28.28 170.37 28.01 169.9Z" fill="#A6A6A6"/>
<path d="M39.09 173.32H41.18C40.93 174.18 40.49 174.89 39.85 175.44C39.21 175.99 38.41 176.31 37.44 176.4V177.1C38.1 177.1 38.63 177.26 39.04 177.57C39.45 177.88 39.65 178.32 39.65 178.89C39.65 179.46 39.45 179.91 39.04 180.24C38.63 180.57 38.12 180.74 37.49 180.74H35.25V179.52H37.1C37.42 179.52 37.66 179.47 37.81 179.38C37.96 179.29 38.05 179.13 38.05 178.89C38.05 178.65 37.97 178.49 37.81 178.4C37.65 178.31 37.41 178.26 37.1 178.26H36.16V176.39C35.39 176.3 34.71 176.04 34.12 175.62C33.53 175.2 33.07 174.64 32.75 173.95C32.43 173.26 32.27 172.48 32.27 171.6C32.27 170.64 32.47 169.79 32.86 169.06C33.25 168.33 33.79 167.77 34.48 167.37C35.17 166.97 35.96 166.78 36.86 166.78C37.99 166.78 38.93 167.05 39.67 167.59C40.41 168.13 40.91 168.9 41.17 169.89H39.08C38.91 169.43 38.64 169.06 38.26 168.8C37.89 168.54 37.42 168.41 36.85 168.41C36.06 168.41 35.42 168.69 34.95 169.25C34.48 169.81 34.24 170.6 34.24 171.6C34.24 172.6 34.48 173.4 34.95 173.96C35.42 174.53 36.05 174.81 36.85 174.81C37.97 174.81 38.71 174.32 39.08 173.33L39.09 173.32Z" fill="#A6A6A6"/>
<path d="M43.06 169.05C43.45 168.32 43.98 167.76 44.66 167.36C45.33 166.96 46.08 166.76 46.9 166.76C47.64 166.76 48.28 166.9 48.83 167.19C49.38 167.48 49.82 167.84 50.15 168.27V166.91H52.11V176.28H50.15V174.89C49.82 175.33 49.37 175.7 48.81 175.99C48.25 176.28 47.6 176.43 46.87 176.43C46.07 176.43 45.33 176.22 44.66 175.81C43.99 175.4 43.46 174.82 43.07 174.08C42.68 173.34 42.48 172.5 42.48 171.56C42.48 170.62 42.68 169.79 43.07 169.06L43.06 169.05ZM49.74 169.9C49.47 169.42 49.13 169.06 48.69 168.81C48.26 168.56 47.79 168.44 47.3 168.44C46.81 168.44 46.34 168.56 45.91 168.81C45.48 169.05 45.13 169.41 44.86 169.88C44.59 170.35 44.46 170.91 44.46 171.55C44.46 172.19 44.59 172.76 44.86 173.25C45.13 173.74 45.48 174.11 45.91 174.36C46.35 174.61 46.81 174.74 47.3 174.74C47.79 174.74 48.26 174.62 48.69 174.37C49.12 174.12 49.47 173.76 49.74 173.27C50.01 172.79 50.14 172.23 50.14 171.58C50.14 170.93 50.01 170.37 49.74 169.9Z" fill="#A6A6A6"/>
<path d="M59 169.04C59.39 168.31 59.93 167.75 60.62 167.35C61.31 166.95 62.1 166.76 63 166.76C64.13 166.76 65.07 167.03 65.81 167.57C66.55 168.11 67.05 168.88 67.31 169.87H65.22C65.05 169.41 64.78 169.04 64.4 168.78C64.03 168.52 63.56 168.39 62.99 168.39C62.2 168.39 61.56 168.67 61.09 169.23C60.62 169.79 60.38 170.58 60.38 171.58C60.38 172.58 60.62 173.38 61.09 173.94C61.56 174.51 62.19 174.79 62.99 174.79C64.11 174.79 64.85 174.3 65.22 173.31H67.31C67.04 174.26 66.53 175.02 65.78 175.58C65.03 176.14 64.1 176.42 62.99 176.42C62.09 176.42 61.3 176.22 60.61 175.82C59.92 175.42 59.38 174.85 58.99 174.12C58.6 173.39 58.4 172.54 58.4 171.58C58.4 170.62 58.6 169.77 58.99 169.04H59Z" fill="#A6A6A6"/>
<path d="M70.93 175.82C70.22 175.42 69.66 174.85 69.25 174.12C68.84 173.39 68.64 172.54 68.64 171.58C68.64 170.62 68.85 169.78 69.27 169.05C69.69 168.31 70.26 167.75 70.99 167.35C71.72 166.95 72.53 166.76 73.42 166.76C74.31 166.76 75.13 166.96 75.85 167.35C76.58 167.75 77.15 168.31 77.57 169.05C77.99 169.79 78.2 170.63 78.2 171.58C78.2 172.53 77.98 173.38 77.55 174.11C77.12 174.85 76.53 175.42 75.79 175.82C75.05 176.22 74.23 176.42 73.33 176.42C72.43 176.42 71.65 176.22 70.93 175.82ZM74.73 174.39C75.17 174.15 75.52 173.79 75.79 173.32C76.06 172.85 76.2 172.27 76.2 171.59C76.2 170.91 76.07 170.34 75.81 169.86C75.55 169.39 75.2 169.04 74.77 168.8C74.34 168.56 73.87 168.44 73.38 168.44C72.89 168.44 72.42 168.56 71.99 168.8C71.57 169.04 71.23 169.39 70.98 169.86C70.73 170.33 70.61 170.91 70.61 171.59C70.61 172.6 70.87 173.38 71.38 173.93C71.9 174.48 72.54 174.75 73.33 174.75C73.83 174.75 74.3 174.63 74.73 174.39Z" fill="#A6A6A6"/>
<path d="M82.05 163.69V176.27H80.11V163.69H82.05Z" fill="#A6A6A6"/>
<path d="M84.5399 169.05C84.9299 168.32 85.46 167.76 86.14 167.36C86.81 166.96 87.5599 166.76 88.3799 166.76C89.1199 166.76 89.7599 166.9 90.3099 167.19C90.8599 167.48 91.2999 167.84 91.6299 168.27V166.91H93.59V176.28H91.6299V174.89C91.2999 175.33 90.8499 175.7 90.2899 175.99C89.7299 176.28 89.0799 176.43 88.3499 176.43C87.5499 176.43 86.81 176.22 86.14 175.81C85.47 175.4 84.9399 174.82 84.5499 174.08C84.1599 173.34 83.96 172.5 83.96 171.56C83.96 170.62 84.1599 169.79 84.5499 169.06L84.5399 169.05ZM91.2199 169.9C90.9499 169.42 90.6099 169.06 90.1699 168.81C89.7399 168.56 89.27 168.44 88.78 168.44C88.29 168.44 87.82 168.56 87.39 168.81C86.96 169.05 86.61 169.41 86.34 169.88C86.07 170.35 85.9399 170.91 85.9399 171.55C85.9399 172.19 86.07 172.76 86.34 173.25C86.61 173.74 86.96 174.11 87.39 174.36C87.83 174.61 88.29 174.74 88.78 174.74C89.27 174.74 89.7399 174.62 90.1699 174.37C90.5999 174.12 90.9499 173.76 91.2199 173.27C91.4899 172.79 91.6199 172.23 91.6199 171.58C91.6199 170.93 91.4899 170.37 91.2199 169.9Z" fill="#A6A6A6"/>
<path d="M101.83 167.19C102.39 167.48 102.83 167.84 103.15 168.27V166.91H105.11V176.43C105.11 177.29 104.93 178.06 104.57 178.73C104.21 179.4 103.68 179.93 103 180.32C102.31 180.71 101.5 180.9 100.54 180.9C99.27 180.9 98.22 180.6 97.38 180.01C96.54 179.42 96.07 178.61 95.95 177.59H97.87C98.02 178.08 98.33 178.47 98.81 178.77C99.29 179.07 99.87 179.22 100.54 179.22C101.32 179.22 101.95 178.98 102.44 178.51C102.92 178.03 103.16 177.34 103.16 176.44V174.88C102.83 175.32 102.39 175.69 101.83 175.99C101.27 176.29 100.63 176.44 99.92 176.44C99.1 176.44 98.36 176.23 97.68 175.82C97.01 175.41 96.47 174.83 96.08 174.09C95.69 173.35 95.49 172.51 95.49 171.57C95.49 170.63 95.69 169.8 96.08 169.07C96.47 168.34 97 167.78 97.68 167.38C98.35 166.98 99.1 166.78 99.92 166.78C100.65 166.78 101.29 166.92 101.85 167.21L101.83 167.19ZM102.75 169.9C102.48 169.42 102.14 169.06 101.7 168.81C101.27 168.56 100.8 168.44 100.31 168.44C99.82 168.44 99.35 168.56 98.92 168.81C98.49 169.05 98.14 169.41 97.87 169.88C97.6 170.35 97.47 170.91 97.47 171.55C97.47 172.19 97.6 172.76 97.87 173.25C98.14 173.74 98.49 174.11 98.92 174.36C99.36 174.61 99.82 174.74 100.31 174.74C100.8 174.74 101.27 174.62 101.7 174.37C102.13 174.12 102.48 173.76 102.75 173.27C103.02 172.79 103.15 172.23 103.15 171.58C103.15 170.93 103.02 170.37 102.75 169.9Z" fill="#A6A6A6"/>
<path d="M116.17 172.31H109.01C109.07 173.06 109.34 173.66 109.84 174.11C110.34 174.56 110.95 174.79 111.68 174.79C112.72 174.79 113.46 174.35 113.89 173.48H115.98C115.7 174.34 115.18 175.05 114.44 175.6C113.7 176.15 112.78 176.43 111.68 176.43C110.78 176.43 109.98 176.23 109.27 175.83C108.56 175.43 108.01 174.86 107.6 174.13C107.2 173.4 107 172.55 107 171.59C107 170.63 107.2 169.78 107.59 169.05C107.98 168.32 108.53 167.76 109.24 167.36C109.95 166.96 110.76 166.77 111.68 166.77C112.6 166.77 113.35 166.96 114.04 167.35C114.73 167.74 115.27 168.28 115.65 168.97C116.04 169.67 116.23 170.47 116.23 171.38C116.23 171.73 116.21 172.05 116.16 172.33L116.17 172.31ZM114.21 170.75C114.2 170.04 113.94 169.46 113.45 169.03C112.95 168.6 112.33 168.38 111.6 168.38C110.93 168.38 110.36 168.59 109.88 169.02C109.4 169.45 109.12 170.02 109.03 170.75H114.21Z" fill="#A6A6A6"/>
<path d="M131.46 167.21C132.04 167.52 132.5 167.97 132.84 168.57C133.17 169.17 133.34 169.9 133.34 170.75V176.28H131.42V171.04C131.42 170.2 131.21 169.56 130.79 169.11C130.37 168.66 129.8 168.44 129.07 168.44C128.34 168.44 127.77 168.66 127.34 169.11C126.91 169.56 126.7 170.2 126.7 171.04V176.28H124.78V171.04C124.78 170.2 124.57 169.56 124.15 169.11C123.73 168.66 123.16 168.44 122.43 168.44C121.7 168.44 121.13 168.66 120.7 169.11C120.27 169.56 120.06 170.2 120.06 171.04V176.28H118.12V166.91H120.06V167.98C120.38 167.59 120.78 167.29 121.27 167.08C121.76 166.87 122.28 166.76 122.83 166.76C123.58 166.76 124.25 166.92 124.84 167.24C125.43 167.56 125.88 168.02 126.2 168.62C126.48 168.05 126.93 167.6 127.53 167.27C128.13 166.94 128.78 166.77 129.47 166.77C130.21 166.77 130.87 166.92 131.45 167.23L131.46 167.21Z" fill="#A6A6A6"/>
<path d="M9.94 192.71H2.78003C2.84003 193.46 3.10999 194.06 3.60999 194.51C4.10999 194.96 4.72001 195.19 5.45001 195.19C6.49001 195.19 7.22997 194.75 7.65997 193.88H9.75C9.47 194.74 8.95002 195.45 8.21002 196C7.47002 196.55 6.55001 196.83 5.45001 196.83C4.55001 196.83 3.74998 196.63 3.03998 196.23C2.32998 195.83 1.78 195.26 1.37 194.53C0.969995 193.8 0.77002 192.95 0.77002 191.99C0.77002 191.03 0.969985 190.18 1.35999 189.45C1.74999 188.72 2.30001 188.16 3.01001 187.76C3.72001 187.36 4.53001 187.17 5.45001 187.17C6.37001 187.17 7.12 187.36 7.81 187.75C8.5 188.14 9.03998 188.68 9.41998 189.37C9.80998 190.07 10 190.87 10 191.78C10 192.13 9.97999 192.45 9.92999 192.73L9.94 192.71ZM7.97998 191.15C7.96998 190.44 7.70997 189.86 7.21997 189.43C6.71997 189 6.1 188.78 5.37 188.78C4.7 188.78 4.13002 188.99 3.65002 189.42C3.17002 189.85 2.88999 190.42 2.79999 191.15H7.97998Z" fill="#A6A6A6"/>
<path d="M19.61 187.6C20.18 187.31 20.8201 187.16 21.5301 187.16C22.3501 187.16 23.0901 187.36 23.7701 187.76C24.4501 188.16 24.97 188.73 25.36 189.45C25.75 190.17 25.9401 191.01 25.9401 191.95C25.9401 192.89 25.75 193.73 25.36 194.47C24.97 195.21 24.4401 195.79 23.7701 196.2C23.1001 196.61 22.3501 196.82 21.5301 196.82C20.8201 196.82 20.1801 196.68 19.6301 196.39C19.0701 196.1 18.6201 195.74 18.2701 195.31V201.12H16.3301V187.3H18.2701V188.68C18.6001 188.25 19.05 187.89 19.61 187.59V187.6ZM23.5601 190.27C23.2901 189.8 22.9401 189.44 22.5101 189.2C22.0701 188.96 21.61 188.83 21.11 188.83C20.61 188.83 20.16 188.95 19.72 189.2C19.28 189.45 18.93 189.81 18.67 190.29C18.4 190.77 18.2701 191.33 18.2701 191.97C18.2701 192.61 18.4 193.18 18.67 193.66C18.94 194.14 19.29 194.51 19.72 194.76C20.16 195.01 20.62 195.13 21.11 195.13C21.6 195.13 22.0801 195 22.5101 194.75C22.9501 194.49 23.3001 194.12 23.5601 193.64C23.8301 193.15 23.9601 192.59 23.9601 191.94C23.9601 191.29 23.8301 190.74 23.5601 190.27Z" fill="#A6A6A6"/>
<path d="M30.92 187.55C31.39 187.28 31.9501 187.15 32.5901 187.15V189.16H32.1C31.34 189.16 30.7701 189.35 30.3701 189.74C29.9801 190.12 29.7801 190.79 29.7801 191.75V196.68H27.8401V187.31H29.7801V188.67C30.0601 188.19 30.44 187.82 30.91 187.56L30.92 187.55Z" fill="#A6A6A6"/>
<path d="M42.9 192.71H35.74C35.8 193.46 36.07 194.06 36.57 194.51C37.07 194.96 37.68 195.19 38.41 195.19C39.45 195.19 40.19 194.75 40.62 193.88H42.71C42.43 194.74 41.91 195.45 41.17 196C40.43 196.55 39.51 196.83 38.41 196.83C37.51 196.83 36.71 196.63 36 196.23C35.29 195.83 34.74 195.26 34.33 194.53C33.93 193.8 33.73 192.95 33.73 191.99C33.73 191.03 33.93 190.18 34.32 189.45C34.71 188.72 35.26 188.16 35.97 187.76C36.68 187.36 37.49 187.17 38.41 187.17C39.33 187.17 40.08 187.36 40.77 187.75C41.46 188.14 42 188.68 42.38 189.37C42.77 190.07 42.96 190.87 42.96 191.78C42.96 192.13 42.94 192.45 42.89 192.73L42.9 192.71ZM40.94 191.15C40.93 190.44 40.67 189.86 40.18 189.43C39.68 189 39.06 188.78 38.33 188.78C37.66 188.78 37.09 188.99 36.61 189.42C36.13 189.85 35.85 190.42 35.76 191.15H40.94Z" fill="#A6A6A6"/>
<path d="M53.39 192.71H46.23C46.29 193.46 46.56 194.06 47.06 194.51C47.56 194.96 48.17 195.19 48.9 195.19C49.94 195.19 50.68 194.75 51.11 193.88H53.2C52.92 194.74 52.4 195.45 51.66 196C50.92 196.55 50 196.83 48.9 196.83C48 196.83 47.2 196.63 46.49 196.23C45.78 195.83 45.23 195.26 44.82 194.53C44.42 193.8 44.22 192.95 44.22 191.99C44.22 191.03 44.42 190.18 44.81 189.45C45.2 188.72 45.75 188.16 46.46 187.76C47.17 187.36 47.98 187.17 48.9 187.17C49.82 187.17 50.57 187.36 51.26 187.75C51.95 188.14 52.49 188.68 52.87 189.37C53.26 190.07 53.45 190.87 53.45 191.78C53.45 192.13 53.43 192.45 53.38 192.73L53.39 192.71ZM51.43 191.15C51.42 190.44 51.16 189.86 50.67 189.43C50.17 189 49.55 188.78 48.82 188.78C48.15 188.78 47.58 188.99 47.1 189.42C46.62 189.85 46.34 190.42 46.25 191.15H51.43Z" fill="#A6A6A6"/>
<path d="M62.0601 187.61C62.6401 187.92 63.1001 188.37 63.4301 188.97C63.7601 189.57 63.92 190.3 63.92 191.15V196.68H62.0001V191.44C62.0001 190.6 61.7901 189.96 61.3701 189.51C60.9501 189.06 60.3801 188.84 59.6501 188.84C58.9201 188.84 58.35 189.06 57.92 189.51C57.49 189.96 57.2801 190.6 57.2801 191.44V196.68H55.3401V187.31H57.2801V188.38C57.6001 187.99 58.0001 187.69 58.5001 187.48C58.9901 187.27 59.5201 187.16 60.0701 187.16C60.8101 187.16 61.47 187.31 62.05 187.62L62.0601 187.61Z" fill="#A6A6A6"/>
<path d="M66.33 189.44C66.72 188.71 67.26 188.15 67.95 187.75C68.64 187.35 69.43 187.16 70.33 187.16C71.46 187.16 72.4 187.43 73.14 187.97C73.88 188.51 74.38 189.28 74.64 190.27H72.55C72.38 189.81 72.11 189.44 71.73 189.18C71.36 188.92 70.89 188.79 70.32 188.79C69.53 188.79 68.89 189.07 68.42 189.63C67.95 190.19 67.71 190.98 67.71 191.98C67.71 192.98 67.95 193.78 68.42 194.34C68.89 194.91 69.52 195.19 70.32 195.19C71.44 195.19 72.18 194.7 72.55 193.71H74.64C74.37 194.66 73.86 195.42 73.11 195.98C72.36 196.54 71.43 196.82 70.32 196.82C69.42 196.82 68.63 196.62 67.94 196.22C67.25 195.82 66.71 195.25 66.32 194.52C65.93 193.79 65.73 192.94 65.73 191.98C65.73 191.02 65.93 190.17 66.32 189.44H66.33Z" fill="#A6A6A6"/>
<path d="M83.35 187.61C83.91 187.92 84.3501 188.37 84.6801 188.97C85.0101 189.57 85.16 190.3 85.16 191.15V196.68H83.2401V191.44C83.2401 190.6 83.03 189.96 82.61 189.51C82.19 189.06 81.6201 188.84 80.8901 188.84C80.1601 188.84 79.59 189.06 79.16 189.51C78.73 189.96 78.5201 190.6 78.5201 191.44V196.68H76.5801V184.1H78.5201V188.4C78.8501 188 79.2701 187.7 79.7701 187.48C80.2701 187.27 80.8301 187.16 81.4301 187.16C82.1401 187.16 82.7801 187.31 83.3401 187.62L83.35 187.61Z" fill="#A6A6A6"/>
<path d="M87.56 189.45C87.95 188.72 88.48 188.16 89.16 187.76C89.83 187.36 90.58 187.16 91.4 187.16C92.14 187.16 92.78 187.3 93.33 187.59C93.88 187.88 94.32 188.24 94.65 188.67V187.31H96.61V196.68H94.65V195.29C94.32 195.73 93.87 196.1 93.31 196.39C92.75 196.68 92.1 196.83 91.37 196.83C90.57 196.83 89.83 196.62 89.16 196.21C88.49 195.8 87.96 195.22 87.57 194.48C87.18 193.74 86.98 192.9 86.98 191.96C86.98 191.02 87.18 190.19 87.57 189.46L87.56 189.45ZM94.25 190.3C93.98 189.82 93.64 189.46 93.2 189.21C92.77 188.96 92.3 188.84 91.81 188.84C91.32 188.84 90.85 188.96 90.42 189.21C89.99 189.45 89.64 189.81 89.37 190.28C89.1 190.75 88.97 191.31 88.97 191.95C88.97 192.59 89.1 193.16 89.37 193.65C89.64 194.14 89.99 194.51 90.42 194.76C90.86 195.01 91.32 195.14 91.81 195.14C92.3 195.14 92.77 195.02 93.2 194.77C93.63 194.52 93.98 194.16 94.25 193.67C94.52 193.19 94.65 192.63 94.65 191.98C94.65 191.33 94.52 190.77 94.25 190.3Z" fill="#A6A6A6"/>
<path d="M103.51 189.45C103.9 188.72 104.43 188.16 105.11 187.76C105.78 187.36 106.53 187.16 107.35 187.16C108.09 187.16 108.73 187.3 109.28 187.59C109.83 187.88 110.27 188.24 110.6 188.67V187.31H112.56V196.68H110.6V195.29C110.27 195.73 109.82 196.1 109.26 196.39C108.7 196.68 108.05 196.83 107.32 196.83C106.52 196.83 105.78 196.62 105.11 196.21C104.44 195.8 103.91 195.22 103.52 194.48C103.13 193.74 102.93 192.9 102.93 191.96C102.93 191.02 103.13 190.19 103.52 189.46L103.51 189.45ZM110.19 190.3C109.92 189.82 109.58 189.46 109.14 189.21C108.71 188.96 108.24 188.84 107.75 188.84C107.26 188.84 106.79 188.96 106.36 189.21C105.93 189.45 105.58 189.81 105.31 190.28C105.04 190.75 104.91 191.31 104.91 191.95C104.91 192.59 105.04 193.16 105.31 193.65C105.58 194.14 105.93 194.51 106.36 194.76C106.8 195.01 107.26 195.14 107.75 195.14C108.24 195.14 108.71 195.02 109.14 194.77C109.57 194.52 109.92 194.16 110.19 193.67C110.46 193.19 110.59 192.63 110.59 191.98C110.59 191.33 110.46 190.77 110.19 190.3Z" fill="#A6A6A6"/>
<path d="M123.44 188.89H121.71V196.68H119.75V188.89H118.65V187.31H119.75V186.65C119.75 185.57 120.04 184.79 120.61 184.3C121.18 183.81 122.08 183.56 123.3 183.56V185.18C122.71 185.18 122.3 185.29 122.06 185.51C121.82 185.73 121.7 186.11 121.7 186.66V187.32H123.43V188.9L123.44 188.89Z" fill="#A6A6A6"/>
<path d="M127.1 184.09V196.67H125.16V184.09H127.1Z" fill="#A6A6A6"/>
<path d="M131.31 196.22C130.6 195.82 130.04 195.25 129.63 194.52C129.22 193.79 129.02 192.94 129.02 191.98C129.02 191.02 129.23 190.18 129.65 189.45C130.07 188.71 130.64 188.15 131.37 187.75C132.1 187.35 132.91 187.16 133.8 187.16C134.69 187.16 135.51 187.36 136.23 187.75C136.96 188.15 137.53 188.71 137.95 189.45C138.37 190.19 138.58 191.03 138.58 191.98C138.58 192.93 138.36 193.78 137.93 194.51C137.5 195.25 136.91 195.82 136.17 196.22C135.43 196.62 134.61 196.82 133.71 196.82C132.81 196.82 132.03 196.62 131.31 196.22ZM135.11 194.79C135.55 194.55 135.9 194.19 136.17 193.72C136.44 193.25 136.58 192.67 136.58 191.99C136.58 191.31 136.45 190.74 136.19 190.26C135.93 189.79 135.58 189.44 135.15 189.2C134.72 188.96 134.25 188.84 133.76 188.84C133.27 188.84 132.8 188.96 132.37 189.2C131.95 189.44 131.61 189.79 131.36 190.26C131.11 190.73 130.99 191.31 130.99 191.99C130.99 193 131.25 193.78 131.76 194.33C132.28 194.88 132.92 195.15 133.71 195.15C134.21 195.15 134.68 195.03 135.11 194.79Z" fill="#A6A6A6"/>
<path d="M143.56 187.55C144.03 187.28 144.59 187.15 145.23 187.15V189.16H144.74C143.98 189.16 143.41 189.35 143.01 189.74C142.62 190.12 142.42 190.79 142.42 191.75V196.68H140.48V187.31H142.42V188.67C142.7 188.19 143.08 187.82 143.55 187.56L143.56 187.55Z" fill="#A6A6A6"/>
<path d="M77.8101 67.8701H71.29V135.45H77.8101V67.8701Z" stroke="#010200" stroke-width="2"/>
<path d="M74.8701 67.8701C85.242 67.8701 93.6501 59.462 93.6501 49.0901C93.6501 38.7182 85.242 30.3101 74.8701 30.3101C64.4981 30.3101 56.0901 38.7182 56.0901 49.0901C56.0901 59.462 64.4981 67.8701 74.8701 67.8701Z" stroke="#010200" stroke-width="2"/>
<path d="M37.28 101.6C37.28 101.6 69.86 102.92 68.82 126.84C68.82 126.84 50.3 144.47 37.28 101.6Z" stroke="#010200" stroke-width="2"/>
<path d="M112.02 101.6C112.02 101.6 79.4399 102.92 80.4799 126.84C80.4799 126.84 99 144.47 112.02 101.6Z" stroke="#010200" stroke-width="2"/>
<path d="M41.474 58.8806C49.6841 58.6799 56.2442 54.6144 56.1265 49.7999C56.0089 44.9854 49.258 41.2451 41.0479 41.4458C32.8379 41.6464 26.2778 45.712 26.3954 50.5265C26.5131 55.341 33.264 59.0812 41.474 58.8806Z" stroke="#010200" stroke-width="2"/>
<path d="M108.744 57.2375C116.954 57.0369 123.514 52.9713 123.396 48.1568C123.279 43.3423 116.528 39.6021 108.318 39.8027C100.108 40.0034 93.5477 44.0689 93.6653 48.8834C93.783 53.6979 100.534 57.4382 108.744 57.2375Z" stroke="#010200" stroke-width="2"/>
<path d="M52.8917 76.2931C59.5146 71.437 62.575 64.3519 59.7273 60.4681C56.8796 56.5844 49.2021 57.3726 42.5792 62.2287C35.9563 67.0848 32.8959 74.1699 35.7436 78.0537C38.5913 81.9375 46.2688 81.1492 52.8917 76.2931Z" stroke="#010200" stroke-width="2"/>
<path d="M107.169 36.504C113.792 31.6479 116.852 24.5629 114.005 20.6791C111.157 16.7953 103.48 17.5835 96.8567 22.4397C90.2338 27.2958 87.1734 34.3808 90.0211 38.2646C92.8688 42.1484 100.546 41.3602 107.169 36.504Z" stroke="#010200" stroke-width="2"/>
<path d="M72.3408 84.0212C74.9697 76.2409 73.4023 68.6839 68.8398 67.1423C64.2773 65.6006 58.4474 70.6581 55.8185 78.4384C53.1895 86.2187 54.757 93.7756 59.3195 95.3173C63.882 96.859 69.7118 91.8015 72.3408 84.0212Z" fill="white" stroke="#010200" stroke-width="2"/>
<path d="M93.884 20.2673C96.5129 12.487 94.9455 4.93004 90.383 3.38838C85.8205 1.84672 79.9907 6.90415 77.3617 14.6845C74.7327 22.4648 76.3002 30.0217 80.8627 31.5634C85.4252 33.1051 91.255 28.0476 93.884 20.2673Z" stroke="#010200" stroke-width="2"/>
<path d="M89.9742 95.4579C94.5513 93.9601 96.1912 86.4185 93.6371 78.6134C91.0829 70.8082 85.3019 65.695 80.7248 67.1928C76.1477 68.6906 74.5078 76.2321 77.0619 84.0373C79.6161 91.8425 85.3971 96.9557 89.9742 95.4579Z" fill="white" stroke="#010200" stroke-width="2"/>
<path d="M69.0401 31.4994C73.6172 30.0016 75.2571 22.4601 72.703 14.6549C70.1488 6.84966 64.3678 1.73651 59.7907 3.23431C55.2136 4.7321 53.5737 12.2736 56.1279 20.0788C58.682 27.884 64.463 32.9972 69.0401 31.4994Z" stroke="#010200" stroke-width="2"/>
<path d="M115.016 76.5431C117.717 72.5562 114.396 65.5897 107.597 60.9831C100.798 56.3765 93.0967 55.8742 90.3953 59.8611C87.6939 63.8481 91.0156 70.8145 97.8144 75.4211C104.613 80.0277 112.315 80.53 115.016 76.5431Z" stroke="#010200" stroke-width="2"/>
<path d="M59.3048 38.7984C62.0062 34.8115 58.6846 27.8451 51.8858 23.2385C45.087 18.6319 37.3855 18.1295 34.6842 22.1164C31.9828 26.1034 35.3044 33.0698 42.1032 37.6764C48.902 42.2831 56.6035 42.7854 59.3048 38.7984Z" stroke="#010200" stroke-width="2"/>
</svg>
