<svg width="473" height="663" viewBox="0 0 473 663" fill="none" xmlns="http://www.w3.org/2000/svg">
<path d="M460.94 11.73H0.830078V662.45H460.94V11.73Z" fill="#B7B7B7"/>
<path d="M471.95 0.72998H11.8401V651.45H471.95V0.72998Z" fill="white" stroke="#222221" stroke-miterlimit="10"/>
<path d="M207.89 53.6099H201.21L200.06 56.8699H197.33L203.04 40.8999H206.07L211.78 56.8699H209.03L207.88 53.6099H207.89ZM207.15 51.4699L204.56 44.0599L201.94 51.4699H207.15Z" fill="#010200"/>
<path d="M226.61 59.76L223.81 56.73C223.12 56.93 222.36 57.03 221.54 57.03C220.06 57.03 218.69 56.68 217.44 55.99C216.19 55.29 215.21 54.32 214.48 53.08C213.75 51.83 213.39 50.43 213.39 48.87C213.39 47.31 213.75 45.91 214.48 44.67C215.21 43.43 216.19 42.46 217.44 41.77C218.69 41.07 220.05 40.73 221.54 40.73C223.03 40.73 224.41 41.08 225.66 41.77C226.91 42.47 227.89 43.43 228.61 44.67C229.33 45.91 229.69 47.31 229.69 48.87C229.69 50.34 229.37 51.67 228.74 52.85C228.11 54.04 227.23 54.99 226.11 55.71L229.94 59.77H226.61V59.76ZM216.78 51.97C217.25 52.86 217.89 53.55 218.72 54.03C219.55 54.51 220.49 54.75 221.54 54.75C222.59 54.75 223.54 54.51 224.36 54.03C225.19 53.55 225.83 52.86 226.3 51.97C226.77 51.07 227 50.04 227 48.86C227 47.68 226.77 46.65 226.3 45.76C225.83 44.87 225.19 44.19 224.36 43.72C223.53 43.25 222.59 43.01 221.54 43.01C220.49 43.01 219.54 43.25 218.72 43.72C217.89 44.19 217.25 44.88 216.78 45.76C216.31 46.65 216.08 47.68 216.08 48.86C216.08 50.04 216.31 51.07 216.78 51.97Z" fill="#010200"/>
<path d="M234.92 40.9199V51.0799C234.92 52.2899 235.24 53.1999 235.87 53.8099C236.5 54.4199 237.39 54.7299 238.52 54.7299C239.65 54.7299 240.56 54.4199 241.19 53.8099C241.82 53.1999 242.14 52.2899 242.14 51.0799V40.9199H244.76V51.0399C244.76 52.3399 244.48 53.4399 243.91 54.3399C243.34 55.2399 242.59 55.9199 241.64 56.3599C240.69 56.7999 239.64 57.0299 238.5 57.0299C237.36 57.0299 236.31 56.8099 235.37 56.3599C234.43 55.9199 233.68 55.2399 233.13 54.3399C232.58 53.4399 232.3 52.3399 232.3 51.0399V40.9199H234.92Z" fill="#010200"/>
<path d="M257.77 53.61H251.09L249.94 56.87H247.21L252.92 40.9H255.95L261.66 56.87H258.91L257.76 53.61H257.77ZM256.81 37.5L251.74 40V38.07L256.81 35.27V37.5ZM257.04 51.47L254.45 44.06L251.83 51.47H257.04Z" fill="#010200"/>
<path d="M272.43 56.8602L268.76 50.4802H266.76V56.8602H264.14V40.9102H269.65C270.87 40.9102 271.91 41.1202 272.76 41.5502C273.61 41.9802 274.24 42.5501 274.66 43.2701C275.08 43.9901 275.29 44.7902 275.29 45.6802C275.29 46.7202 274.99 47.6602 274.38 48.5102C273.78 49.3602 272.85 49.9402 271.59 50.2402L275.54 56.8502H272.42L272.43 56.8602ZM266.76 48.4002H269.65C270.63 48.4002 271.37 48.1602 271.86 47.6702C272.36 47.1802 272.61 46.5201 272.61 45.7001C272.61 44.8801 272.36 44.2302 271.88 43.7602C271.39 43.2902 270.65 43.0602 269.65 43.0602H266.76V48.4102V48.4002Z" fill="#010200"/>
<path d="M281.26 40.9199V56.8699H278.64V40.9199H281.26Z" fill="#010200"/>
<path d="M287.88 55.9802C286.63 55.2802 285.65 54.3102 284.92 53.0702C284.19 51.8202 283.83 50.4202 283.83 48.8602C283.83 47.3002 284.19 45.9002 284.92 44.6602C285.65 43.4202 286.63 42.4502 287.88 41.7602C289.13 41.0602 290.49 40.7202 291.98 40.7202C293.47 40.7202 294.85 41.0702 296.1 41.7602C297.35 42.4602 298.33 43.4202 299.05 44.6602C299.77 45.9002 300.13 47.3002 300.13 48.8602C300.13 50.4202 299.77 51.8202 299.05 53.0702C298.33 54.3202 297.35 55.2902 296.1 55.9802C294.85 56.6802 293.48 57.0202 291.98 57.0202C290.48 57.0202 289.13 56.6702 287.88 55.9802ZM294.8 54.0302C295.63 53.5502 296.27 52.8602 296.74 51.9702C297.21 51.0702 297.44 50.0402 297.44 48.8602C297.44 47.6802 297.21 46.6502 296.74 45.7602C296.27 44.8702 295.63 44.1902 294.8 43.7202C293.97 43.2502 293.03 43.0102 291.98 43.0102C290.93 43.0102 289.98 43.2502 289.16 43.7202C288.33 44.1902 287.69 44.8802 287.22 45.7602C286.75 46.6502 286.52 47.6802 286.52 48.8602C286.52 50.0402 286.75 51.0702 287.22 51.9702C287.69 52.8602 288.33 53.5502 289.16 54.0302C289.99 54.5102 290.93 54.7502 291.98 54.7502C293.03 54.7502 293.98 54.5102 294.8 54.0302Z" fill="#010200"/>
<path d="M140.24 81.46L137.64 77H135.92V81.46H134.49V70.54H138.01C138.83 70.54 139.53 70.68 140.1 70.96C140.67 71.24 141.09 71.62 141.38 72.1C141.66 72.58 141.8 73.13 141.8 73.74C141.8 74.49 141.58 75.15 141.15 75.73C140.72 76.3 140.07 76.69 139.2 76.87L141.94 81.44H140.23L140.24 81.46ZM135.92 75.85H138.02C138.79 75.85 139.37 75.66 139.76 75.28C140.15 74.9 140.34 74.39 140.34 73.75C140.34 73.11 140.15 72.6 139.77 72.25C139.39 71.9 138.81 71.72 138.02 71.72H135.92V75.85Z" fill="#010200"/>
<path d="M151.8 77.7H144.94C144.99 78.54 145.28 79.21 145.81 79.68C146.34 80.16 146.98 80.39 147.73 80.39C148.35 80.39 148.86 80.25 149.27 79.96C149.68 79.67 149.97 79.29 150.14 78.81H151.67C151.44 79.64 150.98 80.31 150.29 80.82C149.6 81.34 148.74 81.59 147.72 81.59C146.91 81.59 146.18 81.41 145.54 81.04C144.9 80.67 144.39 80.16 144.03 79.48C143.66 78.81 143.48 78.03 143.48 77.14C143.48 76.25 143.66 75.47 144.01 74.81C144.36 74.15 144.86 73.63 145.51 73.27C146.15 72.91 146.89 72.73 147.73 72.73C148.57 72.73 149.26 72.91 149.89 73.26C150.52 73.61 151 74.1 151.34 74.72C151.68 75.34 151.85 76.04 151.85 76.83C151.85 77.1 151.83 77.39 151.8 77.69V77.7ZM150.02 75.14C149.78 74.75 149.45 74.45 149.04 74.25C148.63 74.05 148.17 73.94 147.67 73.94C146.95 73.94 146.34 74.17 145.83 74.63C145.32 75.09 145.03 75.73 144.96 76.54H150.38C150.38 76 150.26 75.53 150.02 75.14Z" fill="#010200"/>
<path d="M153.73 74.8302C154.08 74.1702 154.58 73.6502 155.21 73.2902C155.84 72.9202 156.56 72.7402 157.38 72.7402C158.43 72.7402 159.3 73.0002 159.99 73.5102C160.67 74.0202 161.13 74.7302 161.34 75.6402H159.81C159.66 75.1202 159.38 74.7102 158.96 74.4002C158.54 74.0902 158.01 73.9502 157.39 73.9502C156.58 73.9502 155.92 74.2302 155.42 74.7902C154.92 75.3502 154.67 76.1402 154.67 77.1602C154.67 78.1802 154.92 78.9902 155.42 79.5602C155.92 80.1202 156.58 80.4102 157.39 80.4102C158.02 80.4102 158.54 80.2602 158.96 79.9702C159.38 79.6802 159.66 79.2602 159.82 78.7202H161.35C161.12 79.6002 160.66 80.3002 159.97 80.8302C159.28 81.3602 158.42 81.6202 157.39 81.6202C156.58 81.6202 155.85 81.4402 155.22 81.0702C154.59 80.7002 154.1 80.1902 153.74 79.5202C153.38 78.8502 153.21 78.0702 153.21 77.1702C153.21 76.2702 153.39 75.5102 153.74 74.8402L153.73 74.8302Z" fill="#010200"/>
<path d="M164.79 81.05C164.14 80.68 163.63 80.17 163.26 79.49C162.89 78.82 162.7 78.04 162.7 77.15C162.7 76.26 162.89 75.5 163.27 74.82C163.65 74.15 164.17 73.63 164.83 73.27C165.49 72.91 166.22 72.73 167.04 72.73C167.86 72.73 168.59 72.91 169.25 73.27C169.91 73.63 170.43 74.14 170.81 74.81C171.19 75.48 171.38 76.26 171.38 77.14C171.38 78.02 171.18 78.81 170.79 79.48C170.4 80.15 169.87 80.67 169.2 81.04C168.53 81.41 167.79 81.59 166.98 81.59C166.17 81.59 165.45 81.41 164.8 81.04L164.79 81.05ZM168.42 79.99C168.87 79.75 169.23 79.39 169.51 78.91C169.79 78.43 169.93 77.85 169.93 77.16C169.93 76.47 169.79 75.89 169.52 75.41C169.25 74.93 168.89 74.57 168.46 74.34C168.02 74.1 167.55 73.99 167.04 73.99C166.53 73.99 166.04 74.11 165.61 74.34C165.18 74.57 164.83 74.93 164.57 75.41C164.31 75.89 164.18 76.48 164.18 77.16C164.18 77.84 164.31 78.45 164.56 78.93C164.82 79.41 165.16 79.77 165.59 80C166.02 80.23 166.49 80.35 167 80.35C167.51 80.35 167.99 80.23 168.44 79.99H168.42Z" fill="#010200"/>
<path d="M175.75 73.1302C176.21 72.8602 176.78 72.7202 177.45 72.7202V74.1902H177.07C175.47 74.1902 174.67 75.0602 174.67 76.7902V81.4602H173.24V72.8802H174.67V74.2702C174.92 73.7802 175.28 73.4002 175.74 73.1302H175.75Z" fill="#010200"/>
<path d="M180.83 74.0502V79.1102C180.83 79.5302 180.92 79.8202 181.1 79.9902C181.28 80.1602 181.59 80.2502 182.02 80.2502H183.07V81.4602H181.79C181 81.4602 180.4 81.2802 180 80.9102C179.6 80.5402 179.4 79.9402 179.4 79.1102V74.0502H178.29V72.8802H179.4V70.7202H180.82V72.8802H183.06V74.0502H180.82H180.83Z" fill="#010200"/>
<path d="M192.58 77.7H185.72C185.77 78.54 186.06 79.21 186.59 79.68C187.12 80.16 187.76 80.39 188.51 80.39C189.13 80.39 189.64 80.25 190.05 79.96C190.46 79.67 190.75 79.29 190.92 78.81H192.45C192.22 79.64 191.76 80.31 191.07 80.82C190.38 81.34 189.52 81.59 188.5 81.59C187.69 81.59 186.96 81.41 186.32 81.04C185.68 80.67 185.17 80.16 184.81 79.48C184.44 78.81 184.26 78.03 184.26 77.14C184.26 76.25 184.44 75.47 184.79 74.81C185.14 74.15 185.64 73.63 186.29 73.27C186.93 72.91 187.67 72.73 188.51 72.73C189.35 72.73 190.04 72.91 190.67 73.26C191.3 73.61 191.78 74.1 192.12 74.72C192.46 75.34 192.63 76.04 192.63 76.83C192.63 77.1 192.61 77.39 192.58 77.69V77.7ZM190.79 75.14C190.55 74.75 190.22 74.45 189.81 74.25C189.4 74.05 188.94 73.94 188.44 73.94C187.72 73.94 187.11 74.17 186.6 74.63C186.09 75.09 185.8 75.73 185.73 76.54H191.15C191.15 76 191.03 75.53 190.79 75.14Z" fill="#010200"/>
<path d="M206.47 77.7H199.61C199.66 78.54 199.95 79.21 200.48 79.68C201.01 80.16 201.65 80.39 202.4 80.39C203.02 80.39 203.53 80.25 203.94 79.96C204.35 79.67 204.64 79.29 204.81 78.81H206.34C206.11 79.64 205.65 80.31 204.96 80.82C204.27 81.34 203.41 81.59 202.39 81.59C201.58 81.59 200.85 81.41 200.21 81.04C199.57 80.67 199.06 80.16 198.7 79.48C198.33 78.81 198.15 78.03 198.15 77.14C198.15 76.25 198.33 75.47 198.68 74.81C199.03 74.15 199.53 73.63 200.18 73.27C200.82 72.91 201.56 72.73 202.4 72.73C203.24 72.73 203.93 72.91 204.56 73.26C205.19 73.61 205.67 74.1 206.01 74.72C206.35 75.34 206.52 76.04 206.52 76.83C206.52 77.1 206.5 77.39 206.47 77.69V77.7ZM204.68 75.14C204.44 74.75 204.11 74.45 203.7 74.25C203.29 74.05 202.83 73.94 202.33 73.94C201.61 73.94 201 74.17 200.49 74.63C199.98 75.09 199.69 75.73 199.62 76.54H205.04C205.04 76 204.92 75.53 204.68 75.14Z" fill="#010200"/>
<path d="M212.57 74.8302C212.92 74.1702 213.42 73.6502 214.05 73.2902C214.68 72.9202 215.4 72.7402 216.22 72.7402C217.27 72.7402 218.14 73.0002 218.83 73.5102C219.51 74.0202 219.97 74.7302 220.18 75.6402H218.65C218.5 75.1202 218.22 74.7102 217.8 74.4002C217.38 74.0902 216.85 73.9502 216.23 73.9502C215.42 73.9502 214.76 74.2302 214.26 74.7902C213.76 75.3502 213.51 76.1402 213.51 77.1602C213.51 78.1802 213.76 78.9902 214.26 79.5602C214.76 80.1202 215.42 80.4102 216.23 80.4102C216.86 80.4102 217.38 80.2602 217.8 79.9702C218.22 79.6802 218.5 79.2602 218.66 78.7202H220.19C219.96 79.6002 219.5 80.3002 218.81 80.8302C218.12 81.3602 217.26 81.6202 216.23 81.6202C215.42 81.6202 214.69 81.4402 214.06 81.0702C213.43 80.7002 212.94 80.1902 212.58 79.5202C212.22 78.8502 212.05 78.0702 212.05 77.1702C212.05 76.2702 212.23 75.5102 212.58 74.8402L212.57 74.8302Z" fill="#010200"/>
<path d="M223.64 81.05C222.99 80.68 222.48 80.17 222.11 79.49C221.74 78.82 221.55 78.04 221.55 77.15C221.55 76.26 221.74 75.5 222.12 74.82C222.5 74.15 223.02 73.63 223.68 73.27C224.34 72.91 225.07 72.73 225.89 72.73C226.71 72.73 227.44 72.91 228.1 73.27C228.76 73.63 229.28 74.14 229.66 74.81C230.04 75.48 230.23 76.26 230.23 77.14C230.23 78.02 230.03 78.81 229.64 79.48C229.25 80.15 228.72 80.67 228.05 81.04C227.38 81.41 226.64 81.59 225.83 81.59C225.02 81.59 224.3 81.41 223.65 81.04L223.64 81.05ZM227.26 79.99C227.71 79.75 228.07 79.39 228.35 78.91C228.63 78.43 228.77 77.85 228.77 77.16C228.77 76.47 228.63 75.89 228.36 75.41C228.09 74.93 227.73 74.57 227.3 74.34C226.86 74.1 226.39 73.99 225.88 73.99C225.37 73.99 224.88 74.11 224.45 74.34C224.02 74.57 223.67 74.93 223.41 75.41C223.15 75.89 223.02 76.48 223.02 77.16C223.02 77.84 223.15 78.45 223.4 78.93C223.66 79.41 224 79.77 224.43 80C224.86 80.23 225.33 80.35 225.84 80.35C226.35 80.35 226.83 80.23 227.28 79.99H227.26Z" fill="#010200"/>
<path d="M233.53 69.8701V81.4601H232.1V69.8701H233.53Z" fill="#010200"/>
<path d="M243.74 77.7H236.88C236.93 78.54 237.22 79.21 237.75 79.68C238.28 80.16 238.92 80.39 239.67 80.39C240.29 80.39 240.8 80.25 241.21 79.96C241.62 79.67 241.91 79.29 242.08 78.81H243.61C243.38 79.64 242.92 80.31 242.23 80.82C241.54 81.34 240.68 81.59 239.66 81.59C238.85 81.59 238.12 81.41 237.48 81.04C236.84 80.67 236.33 80.16 235.97 79.48C235.6 78.81 235.42 78.03 235.42 77.14C235.42 76.25 235.6 75.47 235.95 74.81C236.3 74.15 236.8 73.63 237.45 73.27C238.09 72.91 238.83 72.73 239.67 72.73C240.51 72.73 241.2 72.91 241.83 73.26C242.46 73.61 242.94 74.1 243.28 74.72C243.62 75.34 243.79 76.04 243.79 76.83C243.79 77.1 243.77 77.39 243.74 77.69V77.7ZM241.95 75.14C241.71 74.75 241.38 74.45 240.97 74.25C240.56 74.05 240.1 73.94 239.6 73.94C238.88 73.94 238.27 74.17 237.76 74.63C237.25 75.09 236.96 75.73 236.89 76.54H242.31C242.31 76 242.19 75.53 241.95 75.14Z" fill="#010200"/>
<path d="M251.4 81.05C250.75 80.68 250.24 80.17 249.87 79.49C249.5 78.82 249.31 78.04 249.31 77.15C249.31 76.26 249.5 75.5 249.88 74.82C250.26 74.15 250.78 73.63 251.44 73.27C252.1 72.91 252.83 72.73 253.65 72.73C254.47 72.73 255.2 72.91 255.86 73.27C256.52 73.63 257.04 74.14 257.42 74.81C257.8 75.48 257.99 76.26 257.99 77.14C257.99 78.02 257.79 78.81 257.4 79.48C257.01 80.15 256.48 80.67 255.81 81.04C255.14 81.41 254.4 81.59 253.59 81.59C252.78 81.59 252.06 81.41 251.41 81.04L251.4 81.05ZM255.03 79.99C255.48 79.75 255.84 79.39 256.12 78.91C256.4 78.43 256.54 77.85 256.54 77.16C256.54 76.47 256.4 75.89 256.13 75.41C255.86 74.93 255.5 74.57 255.07 74.34C254.63 74.1 254.16 73.99 253.65 73.99C253.14 73.99 252.65 74.11 252.22 74.34C251.79 74.57 251.44 74.93 251.18 75.41C250.92 75.89 250.79 76.48 250.79 77.16C250.79 77.84 250.92 78.45 251.17 78.93C251.43 79.41 251.77 79.77 252.2 80C252.63 80.23 253.1 80.35 253.61 80.35C254.12 80.35 254.6 80.23 255.05 79.99H255.03Z" fill="#010200"/>
<path d="M261.13 81.2602C260.61 81.0402 260.2 80.7202 259.89 80.3202C259.59 79.9202 259.42 79.4602 259.39 78.9302H260.86C260.9 79.3602 261.1 79.7102 261.46 79.9802C261.82 80.2502 262.29 80.3902 262.88 80.3902C263.42 80.3902 263.85 80.2702 264.16 80.0302C264.47 79.7902 264.63 79.4902 264.63 79.1202C264.63 78.7502 264.46 78.4602 264.13 78.2802C263.8 78.1002 263.28 77.9202 262.58 77.7402C261.94 77.5702 261.42 77.4002 261.02 77.2302C260.62 77.0602 260.27 76.8002 259.99 76.4602C259.7 76.1202 259.56 75.6702 259.56 75.1202C259.56 74.6802 259.69 74.2802 259.95 73.9102C260.21 73.5402 260.58 73.2502 261.06 73.0402C261.54 72.8302 262.09 72.7202 262.7 72.7202C263.65 72.7202 264.42 72.9602 265 73.4402C265.58 73.9202 265.9 74.5802 265.94 75.4102H264.51C264.48 74.9602 264.3 74.6002 263.97 74.3302C263.64 74.0602 263.2 73.9202 262.65 73.9202C262.14 73.9202 261.73 74.0302 261.43 74.2502C261.13 74.4702 260.98 74.7602 260.98 75.1102C260.98 75.3902 261.07 75.6202 261.25 75.8102C261.43 75.9902 261.66 76.1402 261.94 76.2502C262.22 76.3602 262.6 76.4802 263.09 76.6202C263.71 76.7902 264.21 76.9502 264.59 77.1102C264.98 77.2702 265.31 77.5202 265.58 77.8402C265.86 78.1602 266 78.5902 266.01 79.1102C266.01 79.5802 265.88 80.0002 265.62 80.3802C265.36 80.7602 264.99 81.0502 264.52 81.2602C264.04 81.4702 263.5 81.5802 262.88 81.5802C262.22 81.5802 261.63 81.4702 261.11 81.2402L261.13 81.2602Z" fill="#010200"/>
<path d="M274.91 73.2302C275.47 72.9002 276.12 72.7402 276.86 72.7402C277.6 72.7402 278.31 72.9202 278.94 73.2902C279.56 73.6602 280.05 74.1702 280.4 74.8302C280.75 75.4902 280.93 76.2602 280.93 77.1402C280.93 78.0202 280.75 78.7802 280.4 79.4602C280.05 80.1402 279.56 80.6702 278.94 81.0402C278.32 81.4202 277.63 81.6002 276.86 81.6002C276.09 81.6002 275.48 81.4402 274.93 81.1102C274.37 80.7802 273.95 80.3702 273.65 79.8802V85.5302H272.22V72.8802H273.65V74.4602C273.93 73.9702 274.35 73.5602 274.91 73.2302ZM279.08 75.4402C278.82 74.9602 278.47 74.6002 278.02 74.3402C277.58 74.0902 277.09 73.9602 276.56 73.9602C276.03 73.9602 275.56 74.0902 275.11 74.3402C274.66 74.5902 274.31 74.9702 274.05 75.4502C273.78 75.9402 273.65 76.5002 273.65 77.1302C273.65 77.7602 273.78 78.3402 274.05 78.8302C274.32 79.3202 274.67 79.6902 275.11 79.9402C275.55 80.1902 276.04 80.3202 276.56 80.3202C277.08 80.3202 277.58 80.1902 278.02 79.9402C278.46 79.6802 278.82 79.3102 279.08 78.8302C279.34 78.3402 279.47 77.7702 279.47 77.1202C279.47 76.4702 279.34 75.9102 279.08 75.4302V75.4402Z" fill="#010200"/>
<path d="M290.59 77.7H283.73C283.78 78.54 284.07 79.21 284.6 79.68C285.13 80.16 285.77 80.39 286.52 80.39C287.14 80.39 287.65 80.25 288.06 79.96C288.47 79.67 288.76 79.29 288.93 78.81H290.46C290.23 79.64 289.77 80.31 289.08 80.82C288.39 81.34 287.53 81.59 286.51 81.59C285.7 81.59 284.97 81.41 284.33 81.04C283.69 80.67 283.18 80.16 282.82 79.48C282.45 78.81 282.27 78.03 282.27 77.14C282.27 76.25 282.45 75.47 282.8 74.81C283.15 74.15 283.65 73.63 284.3 73.27C284.94 72.91 285.68 72.73 286.52 72.73C287.36 72.73 288.05 72.91 288.68 73.26C289.31 73.61 289.79 74.1 290.13 74.72C290.47 75.34 290.64 76.04 290.64 76.83C290.64 77.1 290.62 77.39 290.59 77.69V77.7ZM288.8 75.14C288.56 74.75 288.23 74.45 287.82 74.25C287.41 74.05 286.95 73.94 286.45 73.94C285.73 73.94 285.12 74.17 284.61 74.63C284.1 75.09 283.81 75.73 283.74 76.54H289.16C289.16 76 289.04 75.53 288.8 75.14Z" fill="#010200"/>
<path d="M292.56 71.2C292.37 71.01 292.28 70.78 292.28 70.51C292.28 70.24 292.37 70.01 292.56 69.82C292.75 69.63 292.98 69.54 293.25 69.54C293.52 69.54 293.73 69.63 293.92 69.82C294.1 70.01 294.19 70.24 294.19 70.51C294.19 70.78 294.1 71.01 293.92 71.2C293.74 71.39 293.52 71.48 293.25 71.48C292.98 71.48 292.75 71.39 292.56 71.2ZM293.94 72.88V81.46H292.51V72.88H293.94Z" fill="#010200"/>
<path d="M300.85 81.4599L298.81 78.2699L296.85 81.4599H295.36L298.13 77.1999L295.36 72.8799H296.97L299.01 76.0599L300.95 72.8799H302.44L299.68 77.1199L302.45 81.4599H300.84H300.85Z" fill="#010200"/>
<path d="M303.92 71.2C303.73 71.01 303.64 70.78 303.64 70.51C303.64 70.24 303.73 70.01 303.92 69.82C304.11 69.63 304.34 69.54 304.61 69.54C304.88 69.54 305.09 69.63 305.28 69.82C305.46 70.01 305.55 70.24 305.55 70.51C305.55 70.78 305.46 71.01 305.28 71.2C305.1 71.39 304.88 71.48 304.61 71.48C304.34 71.48 304.11 71.39 303.92 71.2ZM305.29 72.88V81.46H303.86V72.88H305.29Z" fill="#010200"/>
<path d="M314.44 73.6702C315.09 74.3002 315.41 75.2102 315.41 76.4002V81.4602H314V76.6102C314 75.7502 313.79 75.1002 313.36 74.6502C312.93 74.2002 312.35 73.9702 311.61 73.9702C310.87 73.9702 310.26 74.2102 309.82 74.6802C309.38 75.1502 309.15 75.8302 309.15 76.7302V81.4802H307.72V72.9002H309.15V74.1202C309.43 73.6802 309.82 73.3402 310.3 73.1002C310.78 72.8602 311.32 72.7402 311.9 72.7402C312.94 72.7402 313.79 73.0602 314.44 73.6902V73.6702Z" fill="#010200"/>
<path d="M323.76 73.1301C324.28 73.4101 324.69 73.8201 324.99 74.3801C325.29 74.9301 325.44 75.6101 325.44 76.4001V81.4601H324.03V76.6101C324.03 75.7501 323.82 75.1001 323.39 74.6501C322.96 74.2001 322.38 73.9701 321.64 73.9701C320.9 73.9701 320.29 74.2101 319.85 74.6801C319.41 75.1501 319.18 75.8301 319.18 76.7301V81.4801H317.75V69.8901H319.18V74.1201C319.46 73.6801 319.85 73.3401 320.35 73.1001C320.85 72.8601 321.4 72.7401 322.02 72.7401C322.67 72.7401 323.25 72.8801 323.77 73.1601L323.76 73.1301Z" fill="#010200"/>
<path d="M329.32 81.05C328.67 80.68 328.16 80.17 327.79 79.49C327.42 78.82 327.23 78.04 327.23 77.15C327.23 76.26 327.42 75.5 327.8 74.82C328.18 74.15 328.7 73.63 329.36 73.27C330.02 72.91 330.75 72.73 331.57 72.73C332.39 72.73 333.12 72.91 333.78 73.27C334.44 73.63 334.96 74.14 335.34 74.81C335.72 75.48 335.91 76.26 335.91 77.14C335.91 78.02 335.71 78.81 335.32 79.48C334.93 80.15 334.4 80.67 333.73 81.04C333.06 81.41 332.32 81.59 331.51 81.59C330.7 81.59 329.98 81.41 329.33 81.04L329.32 81.05ZM332.95 79.99C333.4 79.75 333.76 79.39 334.04 78.91C334.32 78.43 334.46 77.85 334.46 77.16C334.46 76.47 334.32 75.89 334.05 75.41C333.78 74.93 333.42 74.57 332.99 74.34C332.55 74.1 332.08 73.99 331.57 73.99C331.06 73.99 330.57 74.11 330.14 74.34C329.71 74.57 329.36 74.93 329.1 75.41C328.84 75.89 328.71 76.48 328.71 77.16C328.71 77.84 328.84 78.45 329.09 78.93C329.35 79.41 329.69 79.77 330.12 80C330.55 80.23 331.02 80.35 331.53 80.35C332.04 80.35 332.52 80.23 332.97 79.99H332.95Z" fill="#010200"/>
<path d="M339.05 81.2602C338.53 81.0402 338.12 80.7202 337.81 80.3202C337.51 79.9202 337.34 79.4602 337.31 78.9302H338.78C338.82 79.3602 339.02 79.7102 339.38 79.9802C339.74 80.2502 340.21 80.3902 340.8 80.3902C341.34 80.3902 341.77 80.2702 342.08 80.0302C342.39 79.7902 342.55 79.4902 342.55 79.1202C342.55 78.7502 342.38 78.4602 342.05 78.2802C341.72 78.1002 341.2 77.9202 340.5 77.7402C339.86 77.5702 339.34 77.4002 338.94 77.2302C338.54 77.0602 338.19 76.8002 337.91 76.4602C337.62 76.1202 337.48 75.6702 337.48 75.1202C337.48 74.6802 337.61 74.2802 337.87 73.9102C338.13 73.5402 338.5 73.2502 338.98 73.0402C339.46 72.8302 340.01 72.7202 340.62 72.7202C341.57 72.7202 342.34 72.9602 342.92 73.4402C343.5 73.9202 343.82 74.5802 343.86 75.4102H342.43C342.4 74.9602 342.22 74.6002 341.89 74.3302C341.56 74.0602 341.12 73.9202 340.57 73.9202C340.06 73.9202 339.65 74.0302 339.35 74.2502C339.05 74.4702 338.9 74.7602 338.9 75.1102C338.9 75.3902 338.99 75.6202 339.17 75.8102C339.35 75.9902 339.58 76.1402 339.86 76.2502C340.14 76.3602 340.52 76.4802 341.01 76.6202C341.63 76.7902 342.13 76.9502 342.51 77.1102C342.9 77.2702 343.23 77.5202 343.5 77.8402C343.78 78.1602 343.92 78.5902 343.93 79.1102C343.93 79.5802 343.8 80.0002 343.54 80.3802C343.28 80.7602 342.91 81.0502 342.44 81.2602C341.96 81.4702 341.42 81.5802 340.8 81.5802C340.14 81.5802 339.55 81.4702 339.03 81.2402L339.05 81.2602Z" fill="#010200"/>
<path d="M171.15 93.6201C171.5 92.9601 171.99 92.4402 172.61 92.0802C173.23 91.7102 173.93 91.5302 174.7 91.5302C175.37 91.5302 175.99 91.6802 176.56 91.9902C177.13 92.3002 177.57 92.7001 177.88 93.2001V88.6602H179.32V100.25H177.88V98.6402C177.6 99.1502 177.18 99.5701 176.63 99.9001C176.08 100.23 175.43 100.39 174.69 100.39C173.95 100.39 173.24 100.2 172.62 99.8302C172 99.4602 171.51 98.9302 171.16 98.2502C170.81 97.5702 170.63 96.8001 170.63 95.9301C170.63 95.0601 170.81 94.2801 171.16 93.6201H171.15ZM177.49 94.2502C177.23 93.7702 176.88 93.4001 176.43 93.1501C175.98 92.9001 175.5 92.7702 174.97 92.7702C174.44 92.7702 173.95 92.8901 173.51 93.1501C173.07 93.4101 172.72 93.7702 172.46 94.2502C172.2 94.7302 172.07 95.2902 172.07 95.9402C172.07 96.5902 172.2 97.1701 172.46 97.6501C172.72 98.1401 173.07 98.5101 173.51 98.7601C173.95 99.0101 174.43 99.1402 174.97 99.1402C175.51 99.1402 175.99 99.0101 176.43 98.7601C176.87 98.5101 177.23 98.1301 177.49 97.6501C177.75 97.1601 177.88 96.6001 177.88 95.9501C177.88 95.3001 177.75 94.7401 177.49 94.2601V94.2502Z" fill="#010200"/>
<path d="M189.52 96.49H182.66C182.71 97.33 183 98 183.53 98.47C184.06 98.95 184.7 99.18 185.45 99.18C186.07 99.18 186.58 99.04 186.99 98.75C187.4 98.46 187.69 98.08 187.86 97.6H189.39C189.16 98.43 188.7 99.1 188.01 99.61C187.32 100.13 186.46 100.38 185.44 100.38C184.63 100.38 183.9 100.2 183.26 99.83C182.62 99.46 182.11 98.95 181.75 98.27C181.38 97.6 181.2 96.82 181.2 95.93C181.2 95.04 181.38 94.26 181.73 93.6C182.08 92.94 182.58 92.42 183.23 92.06C183.87 91.7 184.61 91.52 185.45 91.52C186.29 91.52 186.98 91.7 187.61 92.05C188.24 92.4 188.72 92.89 189.06 93.51C189.4 94.13 189.57 94.83 189.57 95.62C189.57 95.89 189.55 96.18 189.52 96.48V96.49ZM187.73 93.93C187.49 93.54 187.16 93.24 186.75 93.04C186.34 92.84 185.88 92.73 185.38 92.73C184.66 92.73 184.05 92.96 183.54 93.42C183.03 93.88 182.74 94.52 182.67 95.33H188.09C188.09 94.79 187.97 94.32 187.73 93.93Z" fill="#010200"/>
<path d="M198.16 92.4603C198.81 93.0903 199.13 94.0003 199.13 95.1903V100.25H197.72V95.4003C197.72 94.5403 197.51 93.8903 197.08 93.4403C196.65 92.9903 196.07 92.7603 195.33 92.7603C194.59 92.7603 193.98 93.0003 193.54 93.4703C193.1 93.9403 192.87 94.6203 192.87 95.5203V100.27H191.44V91.6903H192.87V92.9103C193.15 92.4703 193.54 92.1303 194.02 91.8903C194.5 91.6503 195.04 91.5303 195.62 91.5303C196.66 91.5303 197.51 91.8503 198.16 92.4803V92.4603Z" fill="#010200"/>
<path d="M203.2 92.8403V97.9003C203.2 98.3203 203.29 98.6103 203.47 98.7803C203.65 98.9503 203.96 99.0403 204.39 99.0403H205.44V100.25H204.16C203.37 100.25 202.77 100.07 202.37 99.7003C201.97 99.3303 201.77 98.7303 201.77 97.9003V92.8403H200.66V91.6703H201.77V89.5103H203.19V91.6703H205.43V92.8403H203.19H203.2Z" fill="#010200"/>
<path d="M209.66 91.9203C210.12 91.6503 210.69 91.5103 211.36 91.5103V92.9803H210.98C209.38 92.9803 208.58 93.8503 208.58 95.5803V100.25H207.15V91.6703H208.58V93.0603C208.83 92.5703 209.19 92.1903 209.65 91.9203H209.66Z" fill="#010200"/>
<path d="M214.56 99.84C213.91 99.47 213.4 98.96 213.03 98.28C212.66 97.61 212.47 96.83 212.47 95.94C212.47 95.05 212.66 94.29 213.04 93.61C213.42 92.94 213.94 92.42 214.6 92.06C215.26 91.7 215.99 91.52 216.81 91.52C217.63 91.52 218.36 91.7 219.02 92.06C219.68 92.42 220.2 92.93 220.58 93.6C220.96 94.27 221.15 95.05 221.15 95.93C221.15 96.81 220.95 97.6 220.56 98.27C220.17 98.94 219.64 99.46 218.97 99.83C218.3 100.2 217.56 100.38 216.75 100.38C215.94 100.38 215.22 100.2 214.57 99.83L214.56 99.84ZM218.19 98.78C218.64 98.54 219 98.18 219.28 97.7C219.56 97.22 219.7 96.64 219.7 95.95C219.7 95.26 219.56 94.68 219.29 94.2C219.02 93.72 218.66 93.36 218.23 93.13C217.79 92.89 217.32 92.78 216.81 92.78C216.3 92.78 215.81 92.9 215.38 93.13C214.95 93.36 214.6 93.72 214.34 94.2C214.08 94.68 213.95 95.27 213.95 95.95C213.95 96.63 214.08 97.24 214.33 97.72C214.59 98.2 214.93 98.56 215.36 98.79C215.79 99.02 216.26 99.14 216.77 99.14C217.28 99.14 217.76 99.02 218.21 98.78H218.19Z" fill="#010200"/>
<path d="M227.21 93.6201C227.56 92.9601 228.05 92.4402 228.67 92.0802C229.29 91.7102 229.99 91.5302 230.76 91.5302C231.43 91.5302 232.05 91.6802 232.62 91.9902C233.19 92.3002 233.63 92.7001 233.94 93.2001V88.6602H235.38V100.25H233.94V98.6402C233.66 99.1502 233.24 99.5701 232.69 99.9001C232.14 100.23 231.49 100.39 230.75 100.39C230.01 100.39 229.3 100.2 228.68 99.8302C228.06 99.4602 227.57 98.9302 227.22 98.2502C226.87 97.5702 226.69 96.8001 226.69 95.9301C226.69 95.0601 226.87 94.2801 227.22 93.6201H227.21ZM233.55 94.2502C233.29 93.7702 232.94 93.4001 232.49 93.1501C232.04 92.9001 231.56 92.7702 231.03 92.7702C230.5 92.7702 230.01 92.8901 229.57 93.1501C229.13 93.4101 228.78 93.7702 228.52 94.2502C228.26 94.7302 228.13 95.2902 228.13 95.9402C228.13 96.5902 228.26 97.1701 228.52 97.6501C228.78 98.1401 229.13 98.5101 229.57 98.7601C230.01 99.0101 230.49 99.1402 231.03 99.1402C231.57 99.1402 232.05 99.0101 232.49 98.7601C232.93 98.5101 233.29 98.1301 233.55 97.6501C233.81 97.1601 233.94 96.6001 233.94 95.9501C233.94 95.3001 233.81 94.7401 233.55 94.2601V94.2502Z" fill="#010200"/>
<path d="M239.35 99.84C238.7 99.47 238.19 98.96 237.82 98.28C237.45 97.61 237.26 96.83 237.26 95.94C237.26 95.05 237.45 94.29 237.83 93.61C238.21 92.94 238.73 92.42 239.39 92.06C240.05 91.7 240.78 91.52 241.6 91.52C242.42 91.52 243.15 91.7 243.81 92.06C244.47 92.42 244.99 92.93 245.37 93.6C245.75 94.27 245.94 95.05 245.94 95.93C245.94 96.81 245.74 97.6 245.35 98.27C244.96 98.94 244.43 99.46 243.76 99.83C243.09 100.2 242.35 100.38 241.54 100.38C240.73 100.38 240.01 100.2 239.36 99.83L239.35 99.84ZM242.98 98.78C243.43 98.54 243.79 98.18 244.07 97.7C244.35 97.22 244.49 96.64 244.49 95.95C244.49 95.26 244.35 94.68 244.08 94.2C243.81 93.72 243.45 93.36 243.02 93.13C242.58 92.89 242.11 92.78 241.6 92.78C241.09 92.78 240.6 92.9 240.17 93.13C239.74 93.36 239.39 93.72 239.13 94.2C238.87 94.68 238.74 95.27 238.74 95.95C238.74 96.63 238.87 97.24 239.12 97.72C239.38 98.2 239.72 98.56 240.15 98.79C240.58 99.02 241.05 99.14 241.56 99.14C242.07 99.14 242.55 99.02 243 98.78H242.98Z" fill="#010200"/>
<path d="M252 93.6203C252.35 92.9603 252.84 92.4403 253.46 92.0803C254.08 91.7103 254.77 91.5303 255.53 91.5303C256.29 91.5303 256.93 91.6903 257.49 92.0203C258.04 92.3403 258.46 92.7503 258.73 93.2403V91.6703H260.17V100.25H258.73V98.6503C258.45 99.1503 258.03 99.5703 257.47 99.9003C256.91 100.23 256.26 100.39 255.52 100.39C254.78 100.39 254.07 100.2 253.45 99.8303C252.83 99.4503 252.35 98.9303 251.99 98.2503C251.64 97.5703 251.46 96.8003 251.46 95.9303C251.46 95.0603 251.64 94.2803 251.99 93.6203H252ZM258.34 94.2503C258.08 93.7703 257.73 93.4003 257.28 93.1503C256.83 92.9003 256.35 92.7703 255.82 92.7703C255.29 92.7703 254.8 92.8903 254.36 93.1503C253.92 93.4103 253.57 93.7703 253.31 94.2503C253.05 94.7303 252.92 95.2903 252.92 95.9403C252.92 96.5903 253.05 97.1703 253.31 97.6503C253.57 98.1403 253.92 98.5103 254.36 98.7603C254.8 99.0103 255.28 99.1403 255.82 99.1403C256.36 99.1403 256.84 99.0103 257.28 98.7603C257.72 98.5103 258.08 98.1303 258.34 97.6503C258.6 97.1603 258.73 96.6003 258.73 95.9503C258.73 95.3003 258.6 94.7403 258.34 94.2603V94.2503Z" fill="#010200"/>
<path d="M262.58 93.6203C262.93 92.9603 263.42 92.4403 264.04 92.0803C264.66 91.7103 265.36 91.5303 266.13 91.5303C266.9 91.5303 267.52 91.7003 268.08 92.0203C268.64 92.3503 269.05 92.7503 269.31 93.2303V91.6603H270.75V104.31H269.31V98.6603C269.04 99.1403 268.62 99.5503 268.06 99.8803C267.5 100.21 266.84 100.38 266.09 100.38C265.34 100.38 264.65 100.19 264.04 99.8203C263.42 99.4403 262.94 98.9203 262.58 98.2403C262.23 97.5603 262.05 96.7903 262.05 95.9203C262.05 95.0503 262.23 94.2703 262.58 93.6103V93.6203ZM268.92 94.2503C268.66 93.7703 268.31 93.4003 267.86 93.1503C267.41 92.9003 266.93 92.7703 266.4 92.7703C265.87 92.7703 265.38 92.8903 264.94 93.1503C264.5 93.4103 264.15 93.7703 263.89 94.2503C263.63 94.7303 263.5 95.2903 263.5 95.9403C263.5 96.5903 263.63 97.1703 263.89 97.6503C264.15 98.1403 264.5 98.5103 264.94 98.7603C265.38 99.0103 265.86 99.1403 266.4 99.1403C266.94 99.1403 267.42 99.0103 267.86 98.7603C268.3 98.5103 268.66 98.1303 268.92 97.6503C269.18 97.1603 269.31 96.6003 269.31 95.9503C269.31 95.3003 269.18 94.7403 268.92 94.2603V94.2503Z" fill="#010200"/>
<path d="M280.78 91.6699V100.25H279.35V98.9799C279.08 99.4199 278.7 99.7599 278.21 100.01C277.72 100.26 277.19 100.38 276.61 100.38C275.94 100.38 275.34 100.24 274.81 99.9599C274.28 99.6799 273.86 99.2699 273.55 98.7199C273.24 98.1699 273.09 97.4899 273.09 96.6999V91.6699H274.5V96.5099C274.5 97.3499 274.71 98.0099 275.14 98.4599C275.57 98.9099 276.15 99.1399 276.89 99.1399C277.63 99.1399 278.25 98.9099 278.69 98.4399C279.13 97.9699 279.35 97.2899 279.35 96.3899V91.6799H280.78V91.6699Z" fill="#010200"/>
<path d="M283.19 93.6203C283.54 92.9603 284.03 92.4403 284.65 92.0803C285.27 91.7103 285.96 91.5303 286.72 91.5303C287.48 91.5303 288.12 91.6903 288.68 92.0203C289.23 92.3403 289.65 92.7503 289.92 93.2403V91.6703H291.36V100.25H289.92V98.6503C289.64 99.1503 289.22 99.5703 288.66 99.9003C288.1 100.23 287.45 100.39 286.71 100.39C285.97 100.39 285.26 100.2 284.64 99.8303C284.02 99.4503 283.54 98.9303 283.18 98.2503C282.83 97.5703 282.65 96.8003 282.65 95.9303C282.65 95.0603 282.83 94.2803 283.18 93.6203H283.19ZM289.53 94.2503C289.27 93.7703 288.92 93.4003 288.47 93.1503C288.02 92.9003 287.54 92.7703 287.01 92.7703C286.48 92.7703 285.99 92.8903 285.55 93.1503C285.11 93.4103 284.76 93.7703 284.5 94.2503C284.24 94.7303 284.11 95.2903 284.11 95.9403C284.11 96.5903 284.24 97.1703 284.5 97.6503C284.76 98.1403 285.11 98.5103 285.55 98.7603C285.99 99.0103 286.47 99.1403 287.01 99.1403C287.55 99.1403 288.03 99.0103 288.47 98.7603C288.91 98.5103 289.27 98.1303 289.53 97.6503C289.79 97.1603 289.92 96.6003 289.92 95.9503C289.92 95.3003 289.79 94.7403 289.53 94.2603V94.2503ZM288.81 89.2403L285.47 91.0303V89.9703L288.81 88.0103V89.2503V89.2403Z" fill="#010200"/>
<path d="M296.27 91.9203C296.73 91.6503 297.3 91.5103 297.97 91.5103V92.9803H297.59C295.99 92.9803 295.19 93.8503 295.19 95.5803V100.25H293.76V91.6703H295.19V93.0603C295.44 92.5703 295.8 92.1903 296.26 91.9203H296.27Z" fill="#010200"/>
<path d="M299.66 89.9901C299.47 89.8001 299.38 89.5701 299.38 89.3001C299.38 89.0301 299.47 88.8001 299.66 88.6101C299.85 88.4201 300.08 88.3301 300.35 88.3301C300.62 88.3301 300.83 88.4201 301.02 88.6101C301.2 88.8001 301.29 89.0301 301.29 89.3001C301.29 89.5701 301.2 89.8001 301.02 89.9901C300.84 90.1801 300.62 90.2701 300.35 90.2701C300.08 90.2701 299.85 90.1801 299.66 89.9901ZM301.04 91.6701V100.25H299.61V91.6701H301.04Z" fill="#010200"/>
<path d="M305.03 99.84C304.38 99.47 303.87 98.96 303.5 98.28C303.13 97.61 302.94 96.83 302.94 95.94C302.94 95.05 303.13 94.29 303.51 93.61C303.89 92.94 304.41 92.42 305.07 92.06C305.73 91.7 306.46 91.52 307.28 91.52C308.1 91.52 308.83 91.7 309.49 92.06C310.15 92.42 310.67 92.93 311.05 93.6C311.43 94.27 311.62 95.05 311.62 95.93C311.62 96.81 311.42 97.6 311.03 98.27C310.64 98.94 310.11 99.46 309.44 99.83C308.77 100.2 308.03 100.38 307.22 100.38C306.41 100.38 305.69 100.2 305.04 99.83L305.03 99.84ZM308.65 98.78C309.1 98.54 309.46 98.18 309.74 97.7C310.02 97.22 310.16 96.64 310.16 95.95C310.16 95.26 310.02 94.68 309.75 94.2C309.48 93.72 309.12 93.36 308.69 93.13C308.25 92.89 307.78 92.78 307.27 92.78C306.76 92.78 306.27 92.9 305.84 93.13C305.41 93.36 305.06 93.72 304.8 94.2C304.54 94.68 304.41 95.27 304.41 95.95C304.41 96.63 304.54 97.24 304.79 97.72C305.05 98.2 305.39 98.56 305.82 98.79C306.25 99.02 306.72 99.14 307.23 99.14C307.74 99.14 308.22 99.02 308.67 98.78H308.65Z" fill="#010200"/>
<path d="M243.85 504.73C193.07 504.73 154.86 499.42 148.76 491.52C147.93 490.45 147.67 489.32 147.97 488.17L150.47 478.66C88.23 444.96 49.5701 380.14 49.5701 309.42C49.5701 256.27 71.52 208.35 113.04 170.86C131.03 154.62 191.77 147.06 243.98 146.77C292.74 146.5 356.38 152.65 375.29 170.87C393.73 188.63 408.23 209.48 418.38 232.86C428.89 257.06 434.22 282.82 434.22 309.43C434.22 380.16 395.56 444.98 333.32 478.67L335.82 488.18C336.15 489.42 335.86 490.63 334.98 491.77C328.9 499.65 293.12 504.75 243.84 504.75L243.85 504.73ZM247.45 147.53C246.29 147.53 245.15 147.53 243.98 147.53C191.91 147.82 131.39 155.31 113.56 171.42C72.2101 208.77 50.35 256.48 50.35 309.4C50.35 379.94 88.96 444.58 151.11 478.1L151.38 478.25L148.72 488.36C148.48 489.28 148.69 490.15 149.37 491.04C155.23 498.64 194.08 503.95 243.84 503.95C293.6 503.95 328.52 498.86 334.36 491.28C335.1 490.32 335.33 489.37 335.06 488.37L332.4 478.26L332.67 478.11C394.82 444.59 433.43 379.95 433.43 309.41C433.43 256.87 412.58 207.87 374.73 171.42C359.58 156.83 309.82 147.53 247.43 147.53H247.45Z" fill="#010200"/>
<path d="M79.2601 278.95C65.2901 278.95 54.7201 269.21 54.5601 269.06L55.1 268.49C55.33 268.71 78.5901 290.12 101.52 268.49L102.06 269.06C94.1901 276.48 86.2901 278.95 79.2601 278.95Z" fill="#010200"/>
<path d="M126.22 278.95C112.25 278.95 101.68 269.21 101.52 269.06L102.06 268.49C102.29 268.71 125.55 290.12 148.48 268.49L149.02 269.06C141.15 276.48 133.25 278.95 126.22 278.95Z" fill="#010200"/>
<path d="M173.18 278.95C159.21 278.95 148.64 269.21 148.48 269.06L149.02 268.49C149.25 268.71 172.51 290.12 195.44 268.49L195.98 269.06C188.11 276.48 180.21 278.95 173.18 278.95Z" fill="#010200"/>
<path d="M220.14 278.95C206.17 278.95 195.6 269.21 195.44 269.06L195.98 268.49C196.21 268.71 219.47 290.12 242.4 268.49L242.94 269.06C235.07 276.48 227.17 278.95 220.14 278.95Z" fill="#010200"/>
<path d="M267.1 278.95C253.13 278.95 242.56 269.21 242.4 269.06L242.94 268.49C243.17 268.71 266.43 290.12 289.36 268.49L289.9 269.06C282.03 276.48 274.13 278.95 267.1 278.95Z" fill="#010200"/>
<path d="M314.06 278.95C300.09 278.95 289.52 269.21 289.36 269.06L289.9 268.49C290.13 268.71 313.39 290.12 336.32 268.49L336.86 269.06C328.99 276.48 321.09 278.95 314.06 278.95Z" fill="#010200"/>
<path d="M361.03 278.95C347.06 278.95 336.49 269.21 336.33 269.06L336.87 268.49C337.1 268.71 360.36 290.12 383.29 268.49L383.83 269.06C375.96 276.48 368.06 278.95 361.03 278.95Z" fill="#010200"/>
<path d="M407.99 278.95C394.02 278.95 383.45 269.21 383.29 269.06L383.83 268.49C384.06 268.71 407.32 290.12 430.25 268.49L430.79 269.06C422.92 276.48 415.02 278.95 407.99 278.95Z" fill="#010200"/>
<path d="M270.18 405.11C258.8 405.11 244.69 403.05 225.01 397.68C180.97 385.67 142.21 387.57 117.45 391.28C90.6301 395.3 74.0301 402.25 73.8701 402.32L73.5601 401.6C73.7301 401.53 90.4201 394.55 117.33 390.51C142.16 386.78 181.03 384.87 225.21 396.93C271.18 409.47 285.8 404.18 307.93 396.17C319.45 392 332.51 387.28 352.89 384.05C397.44 377 409.63 383.73 412.94 388.38C414.69 390.84 414.85 393.84 413.36 396.62L412.67 396.25C413.3 395.07 414.53 391.97 412.3 388.84C409.1 384.34 397.14 377.84 353.01 384.83C332.7 388.05 319.68 392.76 308.19 396.92C295.87 401.38 285.5 405.13 270.17 405.13L270.18 405.11Z" fill="#010200"/>
<path d="M106.82 324.2C101.33 324.2 96.8601 319.73 96.8601 314.24C96.8601 308.75 101.33 304.29 106.82 304.29C112.31 304.29 116.78 308.76 116.78 314.24C116.78 319.72 112.31 324.2 106.82 324.2ZM106.82 305.07C101.76 305.07 97.6501 309.18 97.6501 314.24C97.6501 319.3 101.76 323.41 106.82 323.41C111.88 323.41 115.99 319.3 115.99 314.24C115.99 309.18 111.88 305.07 106.82 305.07Z" fill="#010200"/>
<path d="M114.31 351.53C110.9 351.53 108.13 348.76 108.13 345.35C108.13 341.94 110.9 339.17 114.31 339.17C117.72 339.17 120.49 341.94 120.49 345.35C120.49 348.76 117.72 351.53 114.31 351.53ZM114.31 339.95C111.33 339.95 108.91 342.37 108.91 345.35C108.91 348.33 111.33 350.75 114.31 350.75C117.29 350.75 119.71 348.33 119.71 345.35C119.71 342.37 117.29 339.95 114.31 339.95Z" fill="#010200"/>
<path d="M101.65 361.61C99.7101 361.61 98.1401 360.03 98.1401 358.1C98.1401 356.17 99.7201 354.59 101.65 354.59C103.58 354.59 105.16 356.17 105.16 358.1C105.16 360.03 103.58 361.61 101.65 361.61ZM101.65 355.37C100.14 355.37 98.9201 356.6 98.9201 358.1C98.9201 359.6 100.15 360.83 101.65 360.83C103.15 360.83 104.38 359.61 104.38 358.1C104.38 356.59 103.15 355.37 101.65 355.37Z" fill="#010200"/>
<path d="M116.39 334.06C114.45 334.06 112.88 332.48 112.88 330.55C112.88 328.62 114.46 327.04 116.39 327.04C118.32 327.04 119.9 328.62 119.9 330.55C119.9 332.48 118.32 334.06 116.39 334.06ZM116.39 327.82C114.88 327.82 113.66 329.05 113.66 330.55C113.66 332.05 114.89 333.28 116.39 333.28C117.89 333.28 119.12 332.06 119.12 330.55C119.12 329.04 117.89 327.82 116.39 327.82Z" fill="#010200"/>
<path d="M88.7199 322.41C86.7799 322.41 85.21 320.83 85.21 318.9C85.21 316.97 86.7899 315.39 88.7199 315.39C90.6499 315.39 92.2299 316.97 92.2299 318.9C92.2299 320.83 90.6499 322.41 88.7199 322.41ZM88.7199 316.16C87.2099 316.16 85.9899 317.38 85.9899 318.89C85.9899 320.4 87.2199 321.62 88.7199 321.62C90.2199 321.62 91.45 320.4 91.45 318.89C91.45 317.38 90.2199 316.16 88.7199 316.16Z" fill="#010200"/>
<path d="M92.89 344.18C88.65 344.18 85.21 340.73 85.21 336.5C85.21 332.27 88.66 328.82 92.89 328.82C97.12 328.82 100.57 332.27 100.57 336.5C100.57 340.73 97.12 344.18 92.89 344.18ZM92.89 329.6C89.09 329.6 85.9899 332.7 85.9899 336.5C85.9899 340.3 89.08 343.4 92.89 343.4C96.7 343.4 99.7899 340.3 99.7899 336.5C99.7899 332.7 96.7 329.6 92.89 329.6Z" fill="#010200"/>
<path d="M353.96 384.67L354.45 383.94C354.52 383.83 360.21 374.4 340.57 348.69C336.31 343.05 334.61 332.13 336.33 321.51C338.3 309.34 344.22 299.31 352.99 293.28L353.37 293.02L353.57 293.44C359.2 305.55 358.61 317.2 358.09 327.48C357.67 335.77 357.31 342.93 360.43 348.26C371.43 367.01 360.71 383.43 360.6 383.59L360.5 383.73L353.97 384.67H353.96ZM353.04 294.2C341.75 302.2 338.21 314.8 337.1 321.64C335.41 332.06 337.06 342.74 341.19 348.22C358.47 370.85 356.5 381.03 355.45 383.67L360.03 383.01C361.05 381.37 369.94 366.04 359.74 348.66C356.5 343.13 356.86 335.86 357.29 327.44C357.8 317.37 358.38 305.98 353.04 294.2Z" fill="#010200"/>
<path d="M357.47 383.21C361.59 372.03 357.5 359.41 350.16 350.5C345.24 344.12 344.52 335.65 344.91 327.88C345.67 316.09 348.91 304.56 353.21 293.6C347.9 307.81 343.24 324.39 345.87 339.6C346.63 343.42 348.05 347.18 350.49 350.24C352.97 353.3 355.16 356.64 356.76 360.26C359.97 367.48 360.91 375.98 358.19 383.52L357.47 383.21Z" fill="#010200"/>
<path d="M363.87 382.93L365 382.14C365.1 382.07 371.23 377.25 364.91 355.18C363.54 350.29 365.26 342.55 369.19 335.9C373.69 328.29 380.27 323.14 387.71 321.4L388.16 321.3L388.19 321.76C388.78 331.31 385.34 338.93 382.31 345.64C379.88 351.03 377.77 355.69 378.46 360.02C380.9 375.44 370.41 382.45 370.3 382.52L370.21 382.58L363.87 382.93ZM387.43 322.28C377.95 324.68 372.37 332.07 369.86 336.3C366.03 342.77 364.35 350.27 365.66 354.97C370.89 373.24 367.78 379.96 366.19 382.01L369.95 381.8C370.91 381.12 379.92 374.32 377.68 360.14C376.96 355.58 379.1 350.82 381.59 345.32C384.53 338.8 387.87 331.42 387.43 322.28Z" fill="#010200"/>
<path d="M367.18 382.46C372.82 376.15 373.4 366.69 370.86 358.88C367.45 346.3 379.72 330.59 387.78 321.79C379.91 330.55 367.78 346.37 371.26 358.75C373.97 366.76 373.48 376.39 367.73 383L367.18 382.45V382.46Z" fill="#010200"/>
<path d="M349.01 386.13L348.91 386.1C348.83 386.07 340.75 383.49 339.48 373.09C339.13 370.23 336.94 367.65 334.41 364.67C331.23 360.92 327.62 356.66 326.24 350.41L326.14 349.96L326.6 349.94C331.71 349.68 336.9 351.79 341.2 355.86C344.96 359.41 347.49 364.09 347.51 367.5C347.51 382.69 352.26 384.63 352.31 384.65L353.54 385.11L349 386.15L349.01 386.13ZM327.11 350.7C328.52 356.52 331.96 360.57 335 364.16C337.61 367.24 339.87 369.91 340.25 373C341.39 382.3 348.16 385.01 349.04 385.33L351.18 384.84C349.67 383.57 346.72 379.56 346.72 367.5C346.7 364.29 344.26 359.84 340.65 356.42C338.31 354.2 333.49 350.58 327.09 350.7H327.11Z" fill="#010200"/>
<path d="M350.61 385.93C345.65 382.66 343.62 376.61 343.9 370.94C343.79 362.28 333.34 354.59 326.62 350.32C332.93 354.22 339.28 358.83 342.9 365.48C343.75 367.16 344.33 369.03 344.31 370.95C344.28 372.81 344.45 374.66 344.91 376.45C345.79 379.95 347.91 383.34 350.98 385.25L350.6 385.93H350.61Z" fill="#010200"/>
<path d="M248.46 180.74C232.2 180.74 216.87 180.14 203.3 179.28C153.95 176.17 116.69 169.17 116.32 169.1L116.47 168.33C116.84 168.4 154.06 175.4 203.36 178.5C248.85 181.36 314.23 181.4 367.35 165.33L367.58 166.08C330.2 177.39 286.78 180.74 248.46 180.74Z" fill="#010200"/>
<path d="M117.39 403.09C119.8 403.09 119.81 399.34 117.39 399.34C114.97 399.34 114.97 403.09 117.39 403.09Z" fill="#010200"/>
<path d="M142.45 405.32C144.86 405.32 144.87 401.57 142.45 401.57C140.03 401.57 140.03 405.32 142.45 405.32Z" fill="#010200"/>
<path d="M125 417.4C127.41 417.4 127.42 413.65 125 413.65C122.58 413.65 122.58 417.4 125 417.4Z" fill="#010200"/>
<path d="M175.11 396.37C177.52 396.37 177.53 392.62 175.11 392.62C172.69 392.62 172.69 396.37 175.11 396.37Z" fill="#010200"/>
<path d="M163.93 408.9C166.34 408.9 166.35 405.15 163.93 405.15C161.51 405.15 161.51 408.9 163.93 408.9Z" fill="#010200"/>
<path d="M236.85 410.24C239.26 410.24 239.27 406.49 236.85 406.49C234.43 406.49 234.43 410.24 236.85 410.24Z" fill="#010200"/>
<path d="M197.93 400.85C200.34 400.85 200.35 397.1 197.93 397.1C195.51 397.1 195.51 400.85 197.93 400.85Z" fill="#010200"/>
<path d="M211.8 415.61C214.21 415.61 214.22 411.86 211.8 411.86C209.38 411.86 209.38 415.61 211.8 415.61Z" fill="#010200"/>
<path d="M359.89 392.35C362.3 392.35 362.31 388.6 359.89 388.6C357.47 388.6 357.47 392.35 359.89 392.35Z" fill="#010200"/>
<path d="M356.31 406.22C358.72 406.22 358.73 402.47 356.31 402.47C353.89 402.47 353.89 406.22 356.31 406.22Z" fill="#010200"/>
<path d="M335.29 399.06C337.7 399.06 337.71 395.31 335.29 395.31C332.87 395.31 332.87 399.06 335.29 399.06Z" fill="#010200"/>
<path d="M300.39 415.61C302.8 415.61 302.81 411.86 300.39 411.86C297.97 411.86 297.97 415.61 300.39 415.61Z" fill="#010200"/>
<path d="M264.59 423.22C267 423.22 267.01 419.47 264.59 419.47C262.17 419.47 262.17 423.22 264.59 423.22Z" fill="#010200"/>
<path d="M281.6 413.82C284.01 413.82 284.02 410.07 281.6 410.07C279.18 410.07 279.18 413.82 281.6 413.82Z" fill="#010200"/>
<path d="M396.58 393.69C398.99 393.69 399 389.94 396.58 389.94C394.16 389.94 394.16 393.69 396.58 393.69Z" fill="#010200"/>
<path d="M94.1299 410.24C96.5399 410.24 96.5499 406.49 94.1299 406.49C91.7099 406.49 91.7099 410.24 94.1299 410.24Z" fill="#010200"/>
<path d="M108.89 415.17C111.3 415.17 111.31 411.42 108.89 411.42C106.47 411.42 106.47 415.17 108.89 415.17Z" fill="#010200"/>
<path d="M132.61 396.02C133.41 396.02 133.42 394.77 132.61 394.77C131.8 394.77 131.8 396.02 132.61 396.02Z" fill="#010200"/>
<path d="M142.45 412.57C143.25 412.57 143.26 411.32 142.45 411.32C141.64 411.32 141.64 412.57 142.45 412.57Z" fill="#010200"/>
<path d="M153.64 400.05C154.44 400.05 154.45 398.8 153.64 398.8C152.83 398.8 152.83 400.05 153.64 400.05Z" fill="#010200"/>
<path d="M188.98 412.57C189.78 412.57 189.79 411.32 188.98 411.32C188.17 411.32 188.17 412.57 188.98 412.57Z" fill="#010200"/>
<path d="M219.41 404.52C220.21 404.52 220.22 403.27 219.41 403.27C218.6 403.27 218.6 404.52 219.41 404.52Z" fill="#010200"/>
<path d="M224.77 421.07C225.57 421.07 225.58 419.82 224.77 419.82C223.96 419.82 223.96 421.07 224.77 421.07Z" fill="#010200"/>
<path d="M257.88 414.81C258.68 414.81 258.69 413.56 257.88 413.56C257.07 413.56 257.07 414.81 257.88 414.81Z" fill="#010200"/>
<path d="M254.3 426.44C255.1 426.44 255.11 425.19 254.3 425.19C253.49 425.19 253.49 426.44 254.3 426.44Z" fill="#010200"/>
<path d="M329.92 417.94C330.72 417.94 330.73 416.69 329.92 416.69C329.11 416.69 329.11 417.94 329.92 417.94Z" fill="#010200"/>
<path d="M349.16 399.15C349.96 399.15 349.97 397.9 349.16 397.9C348.35 397.9 348.35 399.15 349.16 399.15Z" fill="#010200"/>
<path d="M320.52 408.1C321.32 408.1 321.33 406.85 320.52 406.85C319.71 406.85 319.71 408.1 320.52 408.1Z" fill="#010200"/>
<path d="M312.02 426C312.82 426 312.83 424.75 312.02 424.75C311.21 424.75 311.21 426 312.02 426Z" fill="#010200"/>
<path d="M283.39 427.34C284.19 427.34 284.2 426.09 283.39 426.09C282.58 426.09 282.58 427.34 283.39 427.34Z" fill="#010200"/>
<path d="M383.61 397.36C384.41 397.36 384.42 396.11 383.61 396.11C382.8 396.11 382.8 397.36 383.61 397.36Z" fill="#010200"/>
<path d="M380.47 421.52C381.27 421.52 381.28 420.27 380.47 420.27C379.66 420.27 379.66 421.52 380.47 421.52Z" fill="#010200"/>
<path d="M402.4 404.97C403.2 404.97 403.21 403.72 402.4 403.72C401.59 403.72 401.59 404.97 402.4 404.97Z" fill="#010200"/>
<path d="M374.66 411.23C375.46 411.23 375.47 409.98 374.66 409.98C373.85 409.98 373.85 411.23 374.66 411.23Z" fill="#010200"/>
<path d="M373.76 388.86C374.56 388.86 374.57 387.61 373.76 387.61C372.95 387.61 372.95 388.86 373.76 388.86Z" fill="#010200"/>
<path d="M186.3 402.28C187.1 402.28 187.11 401.03 186.3 401.03C185.49 401.03 185.49 402.28 186.3 402.28Z" fill="#010200"/>
<path d="M99.95 400.49C100.75 400.49 100.76 399.24 99.95 399.24C99.14 399.24 99.14 400.49 99.95 400.49Z" fill="#010200"/>
<path d="M101.74 422.42C102.54 422.42 102.55 421.17 101.74 421.17C100.93 421.17 100.93 422.42 101.74 422.42Z" fill="#010200"/>
<path d="M115.16 410.78C115.96 410.78 115.97 409.53 115.16 409.53C114.35 409.53 114.35 410.78 115.16 410.78Z" fill="#010200"/>
<path d="M91.44 418.84C92.24 418.84 92.25 417.59 91.44 417.59C90.63 417.59 90.63 418.84 91.44 418.84Z" fill="#010200"/>
<path d="M124.05 613.51C108.67 613.51 96.1602 601 96.1602 585.62C96.1602 570.24 108.67 557.73 124.05 557.73C139.43 557.73 151.94 570.24 151.94 585.62C151.94 601 139.43 613.51 124.05 613.51ZM124.05 559.31C109.54 559.31 97.7302 571.12 97.7302 585.63C97.7302 600.14 109.54 611.95 124.05 611.95C138.56 611.95 150.37 600.14 150.37 585.63C150.37 571.12 138.56 559.31 124.05 559.31Z" fill="#010200"/>
<path d="M120.15 613.24C84.3001 608.65 83.8801 588.54 83.8801 588.34C84.0401 585.95 85.3201 573.89 95.3601 565.51C103.34 558.85 114.67 556.31 129.05 557.95C129.49 558 129.92 558.07 130.37 558.13L130.55 558.16L130.32 559.71L130.14 559.68C129.71 559.62 129.29 559.55 128.88 559.51C114.95 557.92 104.01 560.34 96.3801 566.71C86.8201 574.68 85.6001 586.17 85.4601 588.39C85.4601 593.59 91.7301 608.02 120.36 611.68L120.16 613.23L120.15 613.24Z" fill="#010200"/>
<path d="M137.94 589.71C141.337 589.71 144.09 586.957 144.09 583.56C144.09 580.164 141.337 577.41 137.94 577.41C134.544 577.41 131.79 580.164 131.79 583.56C131.79 586.957 134.544 589.71 137.94 589.71Z" fill="#010200"/>
<path d="M114.69 591.18C118.087 591.18 120.84 588.426 120.84 585.03C120.84 581.633 118.087 578.88 114.69 578.88C111.294 578.88 108.54 581.633 108.54 585.03C108.54 588.426 111.294 591.18 114.69 591.18Z" fill="#010200"/>
<path d="M128.97 600.27C125.7 600.27 123.23 598.08 123.19 598.05L124.24 596.89C124.43 597.06 128.83 600.9 133.26 596.89L134.31 598.05C132.47 599.71 130.62 600.27 128.97 600.27Z" fill="#010200"/>
<path d="M139.8 582.95C140.529 582.95 141.12 582.359 141.12 581.63C141.12 580.901 140.529 580.31 139.8 580.31C139.071 580.31 138.48 580.901 138.48 581.63C138.48 582.359 139.071 582.95 139.8 582.95Z" fill="white"/>
<path d="M116.01 583.56C116.739 583.56 117.33 582.969 117.33 582.24C117.33 581.511 116.739 580.92 116.01 580.92C115.281 580.92 114.69 581.511 114.69 582.24C114.69 582.969 115.281 583.56 116.01 583.56Z" fill="white"/>
<path d="M69.97 603.97C68.56 603.97 67.8301 603.32 67.5401 602.98C66.5001 601.73 66.8101 599.75 68.2801 598.38C70.3501 596.43 71.0301 592.46 71.4801 589.83C71.5601 589.34 71.64 588.89 71.72 588.51C72.16 586.33 70.2701 583.11 66.8701 578.28C65.1401 575.83 66.0001 574.55 66.6601 574C68.5501 572.45 73.4901 573.43 75.7801 575.82C78.6801 578.84 85.0601 583.44 85.1201 583.48L85.4501 583.71V591.49C85.4501 592.32 84.7901 592.99 83.9401 593C83.5801 593 83.4601 593.14 82.8501 594.18C82.0101 595.62 80.6001 598.03 76.4301 601.12C73.4501 603.33 71.37 603.97 69.97 603.97ZM69.2801 574.79C68.5701 574.79 67.9901 574.92 67.6501 575.2C67.0801 575.67 67.7201 576.76 68.1401 577.37C71.8701 582.67 73.7901 586.07 73.2401 588.81C73.1701 589.18 73.0901 589.61 73.0101 590.09C72.5201 592.92 71.7901 597.21 69.3401 599.51C68.5201 600.29 68.2401 601.39 68.7301 601.97C69.2901 602.64 71.3401 602.93 75.4801 599.86C79.3901 596.96 80.7001 594.72 81.4801 593.39C82.1101 592.31 82.6101 591.45 83.9001 591.43L83.8701 584.51C82.5101 583.52 77.2901 579.65 74.6401 576.89C73.3601 575.55 70.9701 574.79 69.2801 574.79Z" fill="#010200"/>
<path d="M96.81 565.31C93.95 565.31 89.37 560.7 88.19 559.2C87.48 558.3 86.9 557.37 87.44 556.67C88 555.95 89.04 556.43 89.48 556.63C91.34 557.48 92.22 556.88 95.32 554.42C98.01 552.29 102.07 549.07 109.5 545.26C113.95 542.98 117.91 542.68 121.27 544.35C127.95 547.68 129.76 557.56 129.83 557.98L130.04 559.17L128.87 558.87C115.15 555.39 103.61 561.84 99.26 564.27C98.59 564.64 98.06 564.94 97.68 565.11C97.41 565.23 97.12 565.29 96.8 565.29L96.81 565.31ZM89.49 558.32C90.71 559.81 93.3 562.27 95.45 563.33C96.31 563.75 96.83 563.8 97.03 563.71C97.35 563.56 97.86 563.28 98.5 562.92C102.87 560.48 114.25 554.12 128.02 557.08C127.34 554.44 125.27 548.1 120.57 545.76C117.68 544.32 114.19 544.63 110.21 546.66C102.92 550.39 98.93 553.56 96.29 555.65C93.44 557.91 91.9 559.13 89.49 558.31V558.32Z" fill="#010200"/>
<path d="M106.71 623.77L106.5 622.96C103.96 613.19 110.03 609.26 110.29 609.1L110.61 608.9L115.24 610.52L115.28 611.03C116.03 620.56 107.59 623.48 107.51 623.51L106.72 623.77H106.71ZM110.83 610.63C109.77 611.46 106.35 614.76 107.81 621.68C109.66 620.79 114.02 618.01 113.75 611.65L110.83 610.63Z" fill="#010200"/>
<path d="M140.82 621.96L140.03 621.7C139.96 621.67 132.61 619.13 133.26 610.85L133.3 610.34L137.4 608.9L137.72 609.1C137.95 609.24 143.23 612.67 141.03 621.15L140.82 621.96ZM134.79 611.47C134.6 616.69 138.09 619.05 139.72 619.86C140.87 614.15 138.11 611.38 137.18 610.63L134.79 611.47Z" fill="#010200"/>
<path d="M84.5 586.42L73.77 580.92L84.83 585.72L84.5 586.42Z" fill="#010200"/>
<path d="M84.0701 588.37L75.6501 588.61L84.0201 587.59L84.0701 588.37Z" fill="#010200"/>
<path d="M84.2101 590.06L75.6501 593.72L83.8801 589.36L84.2101 590.06Z" fill="#010200"/>
<path d="M237.59 615.45C222.21 615.45 209.7 602.94 209.7 587.56C209.7 572.18 222.21 559.67 237.59 559.67C252.97 559.67 265.48 572.18 265.48 587.56C265.48 602.94 252.97 615.45 237.59 615.45ZM237.59 561.24C223.08 561.24 211.27 573.05 211.27 587.56C211.27 602.07 223.08 613.88 237.59 613.88C252.1 613.88 263.91 602.07 263.91 587.56C263.91 573.05 252.1 561.24 237.59 561.24Z" fill="#010200"/>
<path d="M241.49 615.17L241.29 613.62C269.92 609.96 276.19 595.53 276.19 590.28C276.04 588.11 274.82 576.62 265.27 568.65C257.63 562.28 246.69 559.86 232.76 561.44C232.35 561.49 231.94 561.55 231.53 561.61L231.32 561.64L231.09 560.09L231.3 560.06C231.73 560 232.16 559.93 232.58 559.88C246.96 558.23 258.29 560.78 266.27 567.44C276.31 575.82 277.6 587.89 277.75 590.22C277.75 590.47 277.34 610.58 241.49 615.17Z" fill="#010200"/>
<path d="M223.69 591.64C227.087 591.64 229.84 588.886 229.84 585.49C229.84 582.093 227.087 579.34 223.69 579.34C220.294 579.34 217.54 582.093 217.54 585.49C217.54 588.886 220.294 591.64 223.69 591.64Z" fill="#010200"/>
<path d="M246.94 593.11C250.337 593.11 253.09 590.357 253.09 586.96C253.09 583.564 250.337 580.81 246.94 580.81C243.544 580.81 240.79 583.564 240.79 586.96C240.79 590.357 243.544 593.11 246.94 593.11Z" fill="#010200"/>
<path d="M232.67 602.2C231.02 602.2 229.17 601.65 227.33 599.98L228.38 598.82C232.82 602.83 237.22 598.98 237.4 598.82L238.45 599.98C238.45 599.98 235.94 602.2 232.67 602.2Z" fill="#010200"/>
<path d="M221.83 584.88C222.559 584.88 223.15 584.289 223.15 583.56C223.15 582.831 222.559 582.24 221.83 582.24C221.101 582.24 220.51 582.831 220.51 583.56C220.51 584.289 221.101 584.88 221.83 584.88Z" fill="white"/>
<path d="M245.62 585.49C246.349 585.49 246.94 584.899 246.94 584.17C246.94 583.441 246.349 582.85 245.62 582.85C244.891 582.85 244.3 583.441 244.3 584.17C244.3 584.899 244.891 585.49 245.62 585.49Z" fill="white"/>
<path d="M291.66 605.9C290.26 605.9 288.18 605.26 285.2 603.05C281.04 599.96 279.63 597.55 278.78 596.11C278.17 595.07 278.05 594.93 277.69 594.93C276.84 594.92 276.18 594.25 276.18 593.42V585.64L276.51 585.41C276.57 585.36 282.95 580.77 285.85 577.75C288.14 575.36 293.08 574.38 294.97 575.93C295.63 576.48 296.49 577.76 294.76 580.21C291.36 585.04 289.48 588.26 289.91 590.44C289.99 590.82 290.06 591.27 290.15 591.76C290.6 594.39 291.28 598.36 293.35 600.31C294.81 601.69 295.13 603.67 294.09 604.91C293.8 605.25 293.07 605.9 291.66 605.9ZM277.83 593.42C279.03 593.42 279.52 594.26 280.14 595.32C280.92 596.66 282.23 598.89 286.14 601.79C290.29 604.87 292.34 604.57 292.89 603.9C293.38 603.32 293.1 602.22 292.28 601.44C289.83 599.13 289.1 594.85 288.61 592.02C288.53 591.54 288.45 591.11 288.38 590.74C287.83 587.99 289.75 584.6 293.48 579.3C293.91 578.69 294.54 577.6 293.97 577.13C292.81 576.18 288.79 576.93 286.97 578.82C284.32 581.58 279.11 585.44 277.74 586.43V593.41C277.74 593.41 277.79 593.41 277.82 593.41L277.83 593.42Z" fill="#010200"/>
<path d="M264.82 567.25C264.5 567.25 264.21 567.19 263.94 567.07C263.56 566.89 263.03 566.6 262.37 566.23C258.02 563.8 246.48 557.35 232.76 560.83L231.59 561.13L231.8 559.94C231.87 559.52 233.68 549.64 240.36 546.31C243.72 544.64 247.69 544.94 252.13 547.22C259.56 551.02 263.62 554.24 266.31 556.38C269.4 558.83 270.29 559.44 272.15 558.59C272.59 558.39 273.63 557.91 274.19 558.63C274.74 559.33 274.15 560.26 273.44 561.16C272.25 562.66 267.68 567.27 264.82 567.27V567.25ZM240.88 558.25C251.3 558.25 259.56 562.86 263.13 564.86C263.77 565.22 264.27 565.5 264.6 565.65C264.8 565.74 265.33 565.69 266.19 565.27C268.34 564.21 270.93 561.75 272.15 560.26C269.73 561.08 268.19 559.85 265.34 557.6C262.7 555.51 258.71 552.34 251.42 548.61C247.44 546.57 243.95 546.27 241.06 547.71C236.36 550.05 234.29 556.38 233.61 559.03C236.12 558.49 238.55 558.26 240.88 558.26V558.25Z" fill="#010200"/>
<path d="M254.92 625.7L254.13 625.44C254.04 625.41 245.61 622.49 246.36 612.96L246.4 612.45L251.03 610.83L251.35 611.03C251.61 611.19 257.68 615.13 255.14 624.89L254.93 625.7H254.92ZM247.88 613.59C247.61 619.95 251.97 622.73 253.82 623.62C255.28 616.7 251.86 613.4 250.8 612.57L247.88 613.59Z" fill="#010200"/>
<path d="M220.81 623.89L220.6 623.08C218.39 614.59 223.68 611.17 223.91 611.03L224.23 610.83L228.33 612.27L228.37 612.78C229.02 621.07 221.68 623.61 221.6 623.63L220.81 623.89ZM224.45 612.57C223.52 613.32 220.76 616.09 221.91 621.8C223.53 620.99 227.03 618.63 226.84 613.41L224.45 612.57Z" fill="#010200"/>
<path d="M276.8 587.65L287.86 582.85L277.14 588.36L276.8 587.65Z" fill="#010200"/>
<path d="M277.61 589.52L285.98 590.54L277.56 590.3L277.61 589.52Z" fill="#010200"/>
<path d="M277.75 591.29L285.98 595.65L277.42 592L277.75 591.29Z" fill="#010200"/>
<path d="M381.43 612.02C366.05 612.02 353.54 599.51 353.54 584.14C353.54 568.77 366.05 556.25 381.43 556.25C396.81 556.25 409.32 568.76 409.32 584.14C409.32 599.52 396.81 612.02 381.43 612.02ZM381.43 557.81C366.92 557.81 355.11 569.62 355.11 584.13C355.11 598.64 366.92 610.45 381.43 610.45C395.94 610.45 407.75 598.64 407.75 584.13C407.75 569.62 395.94 557.81 381.43 557.81Z" fill="#010200"/>
<path d="M385.33 611.75L385.13 610.2C413.76 606.54 420.03 592.11 420.03 586.86C419.88 584.69 418.66 573.2 409.11 565.23C401.47 558.86 390.54 556.43 376.6 558.02C376.19 558.07 375.78 558.13 375.37 558.19L375.16 558.22L374.93 556.67L375.14 556.64C375.57 556.58 376 556.51 376.42 556.46C390.79 554.81 402.13 557.36 410.11 564.02C420.15 572.4 421.44 584.47 421.59 586.8C421.59 587.05 421.18 607.16 385.33 611.75Z" fill="#010200"/>
<path d="M367.54 588.21C370.937 588.21 373.69 585.456 373.69 582.06C373.69 578.663 370.937 575.91 367.54 575.91C364.144 575.91 361.39 578.663 361.39 582.06C361.39 585.456 364.144 588.21 367.54 588.21Z" fill="#010200"/>
<path d="M390.78 589.68C394.176 589.68 396.93 586.926 396.93 583.53C396.93 580.133 394.176 577.38 390.78 577.38C387.383 577.38 384.63 580.133 384.63 583.53C384.63 586.926 387.383 589.68 390.78 589.68Z" fill="#010200"/>
<path d="M376.51 598.77C374.86 598.77 373.01 598.22 371.17 596.55L372.22 595.39C376.66 599.4 381.06 595.56 381.24 595.39L382.29 596.55C382.29 596.55 379.78 598.77 376.51 598.77Z" fill="#010200"/>
<path d="M365.67 581.45C366.399 581.45 366.99 580.859 366.99 580.13C366.99 579.401 366.399 578.81 365.67 578.81C364.941 578.81 364.35 579.401 364.35 580.13C364.35 580.859 364.941 581.45 365.67 581.45Z" fill="white"/>
<path d="M389.46 582.06C390.189 582.06 390.78 581.469 390.78 580.74C390.78 580.011 390.189 579.42 389.46 579.42C388.731 579.42 388.14 580.011 388.14 580.74C388.14 581.469 388.731 582.06 389.46 582.06Z" fill="white"/>
<path d="M435.51 602.47C434.11 602.47 432.03 601.83 429.05 599.62C424.89 596.53 423.48 594.12 422.63 592.68C422.02 591.64 421.9 591.5 421.54 591.5C420.69 591.49 420.03 590.82 420.03 589.99V582.21L420.36 581.98C420.42 581.93 426.8 577.34 429.7 574.32C431.99 571.93 436.93 570.95 438.82 572.5C439.48 573.05 440.34 574.33 438.61 576.78C435.21 581.61 433.33 584.83 433.76 587.01C433.84 587.39 433.91 587.84 434 588.33C434.45 590.96 435.13 594.93 437.2 596.88C438.66 598.26 438.98 600.24 437.94 601.48C437.65 601.82 436.92 602.47 435.51 602.47ZM421.67 589.99C422.87 589.99 423.36 590.83 423.98 591.89C424.76 593.23 426.07 595.46 429.98 598.36C434.13 601.44 436.18 601.14 436.73 600.47C437.22 599.89 436.94 598.79 436.12 598.01C433.67 595.7 432.94 591.42 432.45 588.59C432.37 588.11 432.29 587.68 432.22 587.31C431.67 584.56 433.59 581.17 437.32 575.87C437.75 575.26 438.38 574.17 437.81 573.7C436.65 572.75 432.63 573.5 430.81 575.39C428.16 578.15 422.95 582.01 421.58 583V589.98C421.58 589.98 421.63 589.98 421.65 589.98L421.67 589.99Z" fill="#010200"/>
<path d="M408.67 563.82C408.35 563.82 408.06 563.76 407.79 563.64C407.41 563.46 406.88 563.17 406.21 562.8C401.86 560.37 390.32 553.92 376.6 557.4L375.43 557.7L375.64 556.51C375.71 556.09 377.52 546.21 384.2 542.88C387.56 541.21 391.53 541.51 395.97 543.79C403.4 547.59 407.46 550.81 410.15 552.95C413.24 555.4 414.13 556.01 415.99 555.16C416.43 554.96 417.47 554.48 418.03 555.2C418.58 555.9 418 556.83 417.28 557.72C416.09 559.22 411.52 563.83 408.66 563.83L408.67 563.82ZM384.72 554.82C395.14 554.82 403.4 559.43 406.97 561.43C407.61 561.79 408.11 562.07 408.44 562.22C408.64 562.31 409.17 562.26 410.03 561.84C412.18 560.78 414.77 558.32 415.99 556.83C413.58 557.65 412.03 556.42 409.19 554.17C406.55 552.08 402.56 548.91 395.27 545.18C391.29 543.14 387.8 542.84 384.91 544.28C380.21 546.62 378.14 552.95 377.46 555.6C379.97 555.06 382.41 554.83 384.73 554.83L384.72 554.82Z" fill="#010200"/>
<path d="M398.76 622.27L397.97 622.01C397.88 621.98 389.45 619.06 390.2 609.53L390.24 609.02L394.87 607.4L395.19 607.6C395.45 607.76 401.52 611.7 398.98 621.46L398.77 622.27H398.76ZM391.72 610.16C391.45 616.52 395.81 619.3 397.66 620.19C399.12 613.27 395.7 609.97 394.64 609.14L391.72 610.16Z" fill="#010200"/>
<path d="M364.66 620.46L364.45 619.65C362.24 611.16 367.53 607.74 367.76 607.6L368.08 607.4L372.18 608.84L372.22 609.35C372.87 617.64 365.53 620.18 365.45 620.2L364.66 620.46ZM368.3 609.14C367.37 609.89 364.61 612.66 365.76 618.37C367.38 617.56 370.88 615.2 370.69 609.98L368.3 609.14Z" fill="#010200"/>
<path d="M420.65 584.22L431.7 579.42L420.98 584.93L420.65 584.22Z" fill="#010200"/>
<path d="M421.46 586.09L429.82 587.11L421.4 586.88L421.46 586.09Z" fill="#010200"/>
<path d="M421.6 587.86L429.82 592.22L421.26 588.57L421.6 587.86Z" fill="#010200"/>
</svg>
