<svg width="543" height="94" viewBox="0 0 543 94" fill="none" xmlns="http://www.w3.org/2000/svg">
<path d="M512.81 23.27H30.2599C13.7963 23.27 0.449951 36.6164 0.449951 53.08V63.46C0.449951 79.9236 13.7963 93.27 30.2599 93.27H512.81C529.274 93.27 542.62 79.9236 542.62 63.46V53.08C542.62 36.6164 529.274 23.27 512.81 23.27Z" fill="#C0F2C3"/>
<path d="M218.72 4.3497C219.26 3.4297 219.99 2.71969 220.91 2.19969C221.83 1.67969 222.85 1.42969 223.95 1.42969C225.21 1.42969 226.33 1.7397 227.31 2.3597C228.29 2.9797 229 3.8497 229.44 4.9897H227.11C226.8 4.3697 226.38 3.8997 225.84 3.5997C225.3 3.2897 224.67 3.13969 223.95 3.13969C223.17 3.13969 222.47 3.31969 221.86 3.66969C221.25 4.01969 220.77 4.52969 220.42 5.17969C220.07 5.82969 219.9 6.5997 219.9 7.4697C219.9 8.3397 220.07 9.10969 220.42 9.75969C220.77 10.4097 221.24 10.9197 221.86 11.2797C222.47 11.6397 223.17 11.8197 223.95 11.8197C224.66 11.8197 225.29 11.6697 225.84 11.3597C226.39 11.0497 226.81 10.5897 227.11 9.9697H229.44C229 11.0997 228.29 11.9797 227.31 12.5897C226.33 13.1997 225.21 13.5097 223.95 13.5097C222.84 13.5097 221.83 13.2497 220.91 12.7397C219.99 12.2197 219.26 11.5097 218.73 10.5897C218.19 9.66969 217.92 8.62969 217.92 7.47969C217.92 6.32969 218.19 5.28969 218.73 4.36969L218.72 4.3497Z" fill="#A6A6A6"/>
<path d="M233.36 12.9496C232.65 12.5496 232.09 11.9796 231.68 11.2496C231.27 10.5196 231.07 9.66966 231.07 8.70966C231.07 7.74966 231.28 6.90964 231.7 6.17964C232.12 5.43964 232.69 4.87964 233.42 4.47964C234.14 4.07964 234.96 3.88965 235.85 3.88965C236.74 3.88965 237.56 4.08964 238.28 4.47964C239 4.86964 239.58 5.43964 240 6.17964C240.42 6.91964 240.63 7.75966 240.63 8.70966C240.63 9.65966 240.41 10.5097 239.98 11.2397C239.55 11.9797 238.96 12.5496 238.22 12.9496C237.48 13.3496 236.66 13.5497 235.76 13.5497C234.86 13.5497 234.08 13.3496 233.36 12.9496ZM237.16 11.5096C237.6 11.2696 237.95 10.9097 238.22 10.4397C238.49 9.95965 238.63 9.38966 238.63 8.70966C238.63 8.02966 238.5 7.45964 238.24 6.97964C237.98 6.50964 237.63 6.15965 237.2 5.91965C236.77 5.67965 236.3 5.55965 235.81 5.55965C235.32 5.55965 234.85 5.67965 234.42 5.91965C234 6.15965 233.66 6.50964 233.41 6.97964C233.16 7.44964 233.04 8.02966 233.04 8.70966C233.04 9.71966 233.3 10.4997 233.81 11.0497C234.32 11.5997 234.97 11.8696 235.76 11.8696C236.26 11.8696 236.73 11.7496 237.16 11.5096Z" fill="#A6A6A6"/>
<path d="M244.48 0.819824V13.3998H242.54V0.819824H244.48Z" fill="#A6A6A6"/>
<path d="M246.97 6.16988C247.36 5.43988 247.89 4.87987 248.57 4.47987C249.24 4.07987 249.99 3.87988 250.81 3.87988C251.55 3.87988 252.19 4.01988 252.74 4.30988C253.29 4.59988 253.73 4.95988 254.06 5.38988V4.02988H256.02V13.3999H254.06V12.0099C253.73 12.4499 253.28 12.8199 252.72 13.1099C252.16 13.3999 251.51 13.5499 250.78 13.5499C249.98 13.5499 249.24 13.3399 248.57 12.9299C247.9 12.5199 247.37 11.9399 246.98 11.1999C246.59 10.4599 246.39 9.61987 246.39 8.67987C246.39 7.73987 246.59 6.90987 246.98 6.17987L246.97 6.16988ZM253.65 7.01988C253.38 6.53988 253.03 6.17987 252.6 5.92987C252.17 5.67987 251.7 5.55988 251.21 5.55988C250.72 5.55988 250.25 5.67987 249.82 5.92987C249.39 6.16987 249.04 6.52988 248.78 6.99988C248.51 7.46988 248.38 8.02988 248.38 8.66988C248.38 9.30988 248.51 9.87987 248.78 10.3699C249.05 10.8599 249.4 11.2299 249.83 11.4799C250.27 11.7299 250.73 11.8599 251.22 11.8599C251.71 11.8599 252.18 11.7399 252.61 11.4899C253.04 11.2399 253.39 10.8799 253.66 10.3899C253.93 9.90988 254.06 9.34987 254.06 8.69987C254.06 8.04987 253.93 7.48988 253.66 7.01988H253.65Z" fill="#A6A6A6"/>
<path d="M264.26 4.30991C264.82 4.59991 265.26 4.95991 265.58 5.38991V4.02991H267.54V13.5499C267.54 14.4099 267.36 15.1799 267 15.8499C266.64 16.5199 266.11 17.0499 265.43 17.4399C264.75 17.8299 263.93 18.0199 262.97 18.0199C261.7 18.0199 260.65 17.7199 259.81 17.1299C258.97 16.5399 258.49 15.7299 258.38 14.7099H260.3C260.45 15.1999 260.76 15.5899 261.24 15.8899C261.72 16.1899 262.3 16.3399 262.97 16.3399C263.75 16.3399 264.38 16.0999 264.87 15.6299C265.35 15.1499 265.59 14.4599 265.59 13.5599V11.9999C265.26 12.4399 264.82 12.8099 264.26 13.1099C263.7 13.4099 263.06 13.5599 262.35 13.5599C261.53 13.5599 260.79 13.3499 260.11 12.9399C259.44 12.5299 258.9 11.9499 258.51 11.2099C258.12 10.4699 257.92 9.62991 257.92 8.68991C257.92 7.74991 258.12 6.91991 258.51 6.18991C258.9 5.45991 259.43 4.89991 260.11 4.49991C260.78 4.09991 261.53 3.8999 262.35 3.8999C263.08 3.8999 263.72 4.03991 264.28 4.32991L264.26 4.30991ZM265.18 7.01991C264.91 6.53991 264.57 6.1799 264.14 5.9299C263.71 5.6799 263.24 5.55991 262.75 5.55991C262.26 5.55991 261.79 5.6799 261.36 5.9299C260.93 6.1699 260.58 6.52991 260.31 6.99991C260.04 7.46991 259.91 8.02991 259.91 8.66991C259.91 9.30991 260.04 9.8799 260.31 10.3699C260.58 10.8599 260.93 11.2299 261.36 11.4799C261.8 11.7299 262.26 11.8599 262.75 11.8599C263.24 11.8599 263.71 11.7399 264.14 11.4899C264.57 11.2399 264.92 10.8799 265.18 10.3899C265.45 9.90991 265.58 9.34991 265.58 8.69991C265.58 8.04991 265.45 7.48991 265.18 7.01991Z" fill="#A6A6A6"/>
<path d="M278.6 9.43991H271.44C271.5 10.1899 271.77 10.7899 272.27 11.2399C272.77 11.6899 273.38 11.9199 274.11 11.9199C275.15 11.9199 275.89 11.4799 276.32 10.6099H278.41C278.13 11.4699 277.61 12.1799 276.87 12.7299C276.13 13.2799 275.21 13.5599 274.11 13.5599C273.21 13.5599 272.41 13.3599 271.7 12.9599C270.99 12.5599 270.44 11.9899 270.03 11.2599C269.63 10.5299 269.43 9.67991 269.43 8.71991C269.43 7.75991 269.63 6.9099 270.02 6.1799C270.41 5.4499 270.96 4.88991 271.67 4.48991C272.38 4.08991 273.19 3.8999 274.11 3.8999C275.03 3.8999 275.78 4.0899 276.47 4.4799C277.16 4.8699 277.7 5.40991 278.08 6.09991C278.46 6.78991 278.66 7.5999 278.66 8.5099C278.66 8.8599 278.64 9.17991 278.59 9.45992L278.6 9.43991ZM276.64 7.8699C276.63 7.1599 276.37 6.5799 275.87 6.1499C275.37 5.7199 274.75 5.49991 274.02 5.49991C273.35 5.49991 272.78 5.70991 272.3 6.13991C271.82 6.56991 271.54 7.1399 271.45 7.8699H276.64Z" fill="#A6A6A6"/>
<path d="M287.28 4.33965C287.86 4.64965 288.32 5.09965 288.65 5.69965C288.98 6.29965 289.14 7.02965 289.14 7.87965V13.4097H287.22V8.16965C287.22 7.32965 287.01 6.68965 286.59 6.23965C286.17 5.78965 285.6 5.56966 284.87 5.56966C284.14 5.56966 283.57 5.78965 283.14 6.23965C282.72 6.68965 282.5 7.32965 282.5 8.16965V13.4097H280.56V4.03964H282.5V5.10965C282.82 4.71965 283.22 4.41966 283.72 4.20966C284.21 3.99966 284.74 3.88965 285.29 3.88965C286.03 3.88965 286.69 4.03966 287.27 4.34966L287.28 4.33965Z" fill="#A6A6A6"/>
<path d="M293.02 13.1499C292.44 12.8799 291.97 12.5199 291.63 12.0599C291.29 11.5999 291.11 11.0899 291.09 10.5199H293.1C293.13 10.9199 293.32 11.2499 293.67 11.5099C294.02 11.7799 294.45 11.9099 294.97 11.9099C295.49 11.9099 295.94 11.7999 296.24 11.5899C296.54 11.3799 296.69 11.1099 296.69 10.7799C296.69 10.4299 296.52 10.1699 296.19 9.99986C295.86 9.82986 295.33 9.63986 294.6 9.43987C293.9 9.24987 293.33 9.05987 292.88 8.87987C292.44 8.69987 292.06 8.41987 291.73 8.04987C291.4 7.67987 291.25 7.17987 291.25 6.56987C291.25 6.06987 291.4 5.61986 291.69 5.19986C291.98 4.78986 292.41 4.45986 292.96 4.21986C293.51 3.97986 294.14 3.85986 294.86 3.85986C295.93 3.85986 296.78 4.12986 297.44 4.66986C298.09 5.20986 298.44 5.93986 298.49 6.86986H296.55C296.52 6.44986 296.35 6.11986 296.04 5.86986C295.73 5.61986 295.32 5.49986 294.8 5.49986C294.28 5.49986 293.9 5.59986 293.63 5.78986C293.36 5.97986 293.22 6.23987 293.22 6.54987C293.22 6.79987 293.31 7.00986 293.49 7.17986C293.67 7.34986 293.89 7.47986 294.15 7.57986C294.41 7.67986 294.8 7.79986 295.31 7.94986C295.99 8.12986 296.55 8.31986 296.98 8.49986C297.42 8.68986 297.79 8.95987 298.11 9.31987C298.43 9.67987 298.59 10.1599 298.6 10.7699C298.6 11.2999 298.45 11.7799 298.16 12.1999C297.87 12.6199 297.45 12.9499 296.91 13.1899C296.37 13.4299 295.74 13.5499 295.01 13.5499C294.28 13.5499 293.61 13.4199 293.03 13.1499H293.02Z" fill="#A6A6A6"/>
<path d="M106.06 48.4597C107.48 46.0297 109.42 44.1297 111.86 42.7697C114.31 41.4097 116.98 40.7197 119.89 40.7197C123.22 40.7197 126.18 41.5397 128.78 43.1697C131.37 44.8097 133.26 47.1197 134.43 50.1197H128.26C127.45 48.4697 126.32 47.2397 124.88 46.4297C123.44 45.6197 121.78 45.2197 119.88 45.2197C117.81 45.2197 115.97 45.6797 114.35 46.6097C112.73 47.5397 111.46 48.8797 110.55 50.6097C109.63 52.3497 109.18 54.3797 109.18 56.6897C109.18 58.9997 109.64 61.0297 110.55 62.7697C111.47 64.5097 112.73 65.8497 114.35 66.7997C115.97 67.7497 117.81 68.2197 119.88 68.2197C121.77 68.2197 123.44 67.8097 124.88 66.9997C126.32 66.1897 127.44 64.9597 128.26 63.3097H134.43C133.26 66.3097 131.38 68.6197 128.78 70.2397C126.18 71.8597 123.22 72.6697 119.89 72.6697C116.95 72.6697 114.27 71.9897 111.83 70.6197C109.4 69.2497 107.47 67.3597 106.05 64.9297C104.62 62.4997 103.91 59.7597 103.91 56.6897C103.91 53.6197 104.62 50.8897 106.05 48.4497L106.06 48.4597Z" fill="white"/>
<path d="M146.65 70.66C144.2 69.29 142.27 67.39 140.84 64.95C139.41 62.5 138.7 59.75 138.7 56.69C138.7 53.63 139.41 50.89 140.84 48.45C142.26 46.02 144.2 44.1199 146.65 42.7599C149.09 41.3999 151.77 40.71 154.68 40.71C157.59 40.71 160.31 41.3899 162.76 42.7599C165.2 44.1299 167.13 46.02 168.54 48.45C169.95 50.88 170.65 53.63 170.65 56.69C170.65 59.75 169.94 62.5 168.54 64.95C167.13 67.4 165.2 69.3 162.76 70.66C160.31 72.03 157.62 72.71 154.68 72.71C151.74 72.71 149.09 72.03 146.65 70.66ZM160.22 66.84C161.84 65.8899 163.11 64.5499 164.02 62.7899C164.93 61.0399 165.39 59 165.39 56.69C165.39 54.38 164.93 52.36 164.02 50.61C163.1 48.87 161.84 47.54 160.22 46.61C158.6 45.68 156.76 45.22 154.68 45.22C152.6 45.22 150.76 45.68 149.14 46.61C147.52 47.54 146.25 48.88 145.34 50.61C144.42 52.35 143.97 54.38 143.97 56.69C143.97 59 144.43 61.0299 145.34 62.7899C146.25 64.5399 147.52 65.8899 149.14 66.84C150.76 67.79 152.61 68.2599 154.68 68.2599C156.75 68.2599 158.6 67.79 160.22 66.84Z" fill="white"/>
<path d="M180.83 68.2601H191.41V72.4001H175.7V41.1201H180.83V68.2601Z" fill="white"/>
<path d="M200.81 45.2598V54.4398H211.61V58.6298H200.81V68.2098H212.96V72.3898H195.68V41.0698H212.96V45.2598H200.81Z" fill="white"/>
<path d="M237.19 70.66C234.74 69.29 232.81 67.39 231.39 64.95C229.96 62.5 229.25 59.75 229.25 56.69C229.25 53.63 229.96 50.89 231.39 48.45C232.81 46.02 234.75 44.1199 237.19 42.7599C239.63 41.3999 242.31 40.71 245.22 40.71C248.13 40.71 250.85 41.3899 253.3 42.7599C255.74 44.1299 257.67 46.02 259.08 48.45C260.49 50.88 261.2 53.63 261.2 56.69C261.2 59.75 260.49 62.5 259.08 64.95C257.67 67.4 255.74 69.3 253.3 70.66C250.85 72.03 248.16 72.71 245.22 72.71C242.28 72.71 239.63 72.03 237.19 70.66ZM250.75 66.84C252.37 65.8899 253.64 64.5499 254.55 62.7899C255.47 61.0399 255.92 59 255.92 56.69C255.92 54.38 255.46 52.36 254.55 50.61C253.63 48.87 252.37 47.54 250.75 46.61C249.13 45.68 247.29 45.22 245.21 45.22C243.13 45.22 241.3 45.68 239.68 46.61C238.06 47.54 236.79 48.88 235.88 50.61C234.96 52.35 234.51 54.38 234.51 56.69C234.51 59 234.97 61.0299 235.88 62.7899C236.79 64.5399 238.06 65.8899 239.68 66.84C241.3 67.79 243.15 68.2599 245.21 68.2599C247.27 68.2599 249.13 67.79 250.75 66.84Z" fill="white"/>
<path d="M270.87 71.61C269.19 70.87 267.87 69.83 266.91 68.4799C265.95 67.1299 265.47 65.5599 265.47 63.7599H270.96C271.08 65.1099 271.61 66.2199 272.56 67.09C273.51 67.96 274.83 68.39 276.54 68.39C278.25 68.39 279.69 67.96 280.68 67.11C281.67 66.25 282.16 65.15 282.16 63.8C282.16 62.75 281.85 61.8899 281.24 61.2299C280.62 60.57 279.86 60.06 278.94 59.7C278.02 59.34 276.76 58.95 275.14 58.53C273.1 57.99 271.44 57.44 270.17 56.89C268.89 56.34 267.81 55.47 266.91 54.3C266.01 53.13 265.56 51.5699 265.56 49.6199C265.56 47.8199 266.01 46.24 266.91 44.89C267.81 43.54 269.07 42.5099 270.69 41.7899C272.31 41.0699 274.18 40.71 276.31 40.71C279.34 40.71 281.82 41.4699 283.76 42.9799C285.69 44.4899 286.77 46.57 286.98 49.21H281.31C281.22 48.07 280.68 47.0899 279.69 46.2899C278.7 45.4799 277.39 45.07 275.77 45.07C274.3 45.07 273.1 45.45 272.17 46.19C271.24 46.94 270.78 48.0199 270.78 49.4299C270.78 50.3899 271.07 51.1799 271.66 51.7899C272.24 52.4099 272.99 52.89 273.89 53.25C274.79 53.61 276.02 54 277.58 54.42C279.65 54.99 281.34 55.56 282.64 56.13C283.94 56.7 285.05 57.5799 285.97 58.7599C286.88 59.9499 287.34 61.5299 287.34 63.5099C287.34 65.0999 286.91 66.5999 286.06 68.0099C285.21 69.4199 283.96 70.55 282.32 71.41C280.69 72.27 278.76 72.69 276.54 72.69C274.44 72.69 272.55 72.32 270.87 71.59V71.61Z" fill="white"/>
<path d="M325.86 54.9401C325.11 56.3501 323.91 57.5001 322.26 58.3801C320.61 59.2701 318.49 59.7101 315.91 59.7101H310.24V72.4001H305.11V41.1201H315.91C318.31 41.1201 320.34 41.5301 322.01 42.3601C323.68 43.1901 324.92 44.3001 325.75 45.7101C326.57 47.1201 326.99 48.7001 326.99 50.4301C326.99 52.0201 326.61 53.5201 325.87 54.9301L325.86 54.9401ZM320.28 54.1901C321.24 53.3101 321.72 52.0501 321.72 50.4301C321.72 47.0101 319.78 45.3001 315.91 45.3001H310.24V55.5101H315.91C317.86 55.5101 319.31 55.0701 320.28 54.1801V54.1901Z" fill="white"/>
<path d="M337.02 45.2598V54.4398H347.82V58.6298H337.02V68.2098H349.17V72.3898H331.89V41.0698H349.17V45.2598H337.02Z" fill="white"/>
<path d="M360.6 41.1201V72.4001H355.47V41.1201H360.6Z" fill="white"/>
<path d="M381.7 56.7801L391.42 72.4001H385.66L378.6 61.0601L371.98 72.4001H366.27L375.99 56.7801L366.23 41.1201H371.99L379.1 52.5501L385.76 41.1201H391.47L381.7 56.7801Z" fill="white"/>
<path d="M402.18 45.2598V54.4398H412.98V58.6298H402.18V68.2098H414.33V72.3898H397.05V41.0698H414.33V45.2598H402.18Z" fill="white"/>
<path d="M425.26 71.61C423.58 70.87 422.26 69.83 421.3 68.4799C420.34 67.1299 419.86 65.5599 419.86 63.7599H425.35C425.47 65.1099 426 66.2199 426.95 67.09C427.89 67.96 429.22 68.39 430.93 68.39C432.64 68.39 434.08 67.96 435.07 67.11C436.06 66.25 436.56 65.15 436.56 63.8C436.56 62.75 436.25 61.8899 435.64 61.2299C435.02 60.57 434.26 60.06 433.35 59.7C432.43 59.34 431.17 58.95 429.55 58.53C427.51 57.99 425.85 57.44 424.58 56.89C423.3 56.34 422.22 55.47 421.32 54.3C420.42 53.13 419.97 51.5699 419.97 49.6199C419.97 47.8199 420.42 46.24 421.32 44.89C422.22 43.54 423.48 42.5099 425.1 41.7899C426.72 41.0699 428.59 40.71 430.72 40.71C433.75 40.71 436.23 41.4699 438.17 42.9799C440.1 44.4899 441.18 46.57 441.39 49.21H435.72C435.63 48.07 435.09 47.0899 434.1 46.2899C433.11 45.4799 431.8 45.07 430.18 45.07C428.71 45.07 427.51 45.45 426.58 46.19C425.65 46.94 425.18 48.0199 425.18 49.4299C425.18 50.3899 425.47 51.1799 426.06 51.7899C426.64 52.4099 427.39 52.89 428.29 53.25C429.19 53.61 430.42 54 431.98 54.42C434.05 54.99 435.74 55.56 437.04 56.13C438.34 56.7 439.45 57.5799 440.37 58.7599C441.28 59.9499 441.74 61.5299 441.74 63.5099C441.74 65.0999 441.31 66.5999 440.46 68.0099C439.6 69.4199 438.36 70.55 436.72 71.41C435.08 72.27 433.16 72.69 430.94 72.69C428.84 72.69 426.95 72.32 425.27 71.59L425.26 71.61Z" fill="white"/>
</svg>
