<svg width="155" height="207" viewBox="0 0 155 207" fill="none" xmlns="http://www.w3.org/2000/svg">
<path d="M104.39 125.15C77.04 125.15 54.79 102.9 54.79 75.5502C54.79 48.2002 77.04 25.9502 104.39 25.9502C131.74 25.9502 153.99 48.2002 153.99 75.5502C153.99 102.9 131.74 125.15 104.39 125.15ZM104.39 28.7402C78.58 28.7402 57.58 49.7402 57.58 75.5502C57.58 101.36 78.58 122.36 104.39 122.36C130.2 122.36 151.2 101.36 151.2 75.5502C151.2 49.7402 130.2 28.7402 104.39 28.7402Z" fill="#010200"/>
<path d="M97.45 124.67C33.68 116.51 32.9399 80.7401 32.9399 80.3801C33.2199 76.1401 35.4999 54.6701 53.3699 39.7701C67.5599 27.9301 87.7199 23.4001 113.29 26.3301C114.02 26.4101 114.76 26.5201 115.5 26.6301L115.94 26.7001L115.53 29.4601L115.09 29.3901C114.38 29.2801 113.67 29.1801 112.97 29.1001C88.1899 26.2701 68.7399 30.5801 55.1499 41.9101C38.1499 56.0901 35.9799 76.5201 35.7199 80.4801C35.7199 89.7301 46.8699 115.39 97.7999 121.91L97.45 124.67Z" fill="#010200"/>
<path d="M129.09 82.8204C135.138 82.8204 140.04 77.9179 140.04 71.8704C140.04 65.8229 135.138 60.9204 129.09 60.9204C123.042 60.9204 118.14 65.8229 118.14 71.8704C118.14 77.9179 123.042 82.8204 129.09 82.8204Z" fill="#010200"/>
<path d="M87.7499 85.4303C93.7975 85.4303 98.7 80.5278 98.7 74.4803C98.7 68.4328 93.7975 63.5303 87.7499 63.5303C81.7024 63.5303 76.7999 68.4328 76.7999 74.4803C76.7999 80.5278 81.7024 85.4303 87.7499 85.4303Z" fill="#010200"/>
<path d="M113.14 101.59C107.32 101.59 102.92 97.7003 102.86 97.6403L104.73 95.5703C105.06 95.8703 112.88 102.71 120.78 95.5703L122.65 97.6403C119.37 100.6 116.08 101.59 113.15 101.59H113.14Z" fill="#010200"/>
<path d="M132.41 70.7903C133.708 70.7903 134.76 69.7382 134.76 68.4403C134.76 67.1425 133.708 66.0903 132.41 66.0903C131.112 66.0903 130.06 67.1425 130.06 68.4403C130.06 69.7382 131.112 70.7903 132.41 70.7903Z" fill="white"/>
<path d="M90.09 71.8704C91.3879 71.8704 92.44 70.8183 92.44 69.5204C92.44 68.2225 91.3879 67.1704 90.09 67.1704C88.7921 67.1704 87.74 68.2225 87.74 69.5204C87.74 70.8183 88.7921 71.8704 90.09 71.8704Z" fill="white"/>
<path d="M8.19998 108.17C5.68998 108.17 4.38998 107.02 3.87998 106.41C2.01998 104.19 2.58997 100.67 5.18997 98.2204C8.86997 94.7504 10.08 87.6904 10.88 83.0104C11.03 82.1404 11.17 81.3404 11.3 80.6604C12.08 76.7804 8.72996 71.0504 2.67996 62.4604C-0.390036 58.1004 1.12997 55.8204 2.30997 54.8504C5.66997 52.0904 14.46 53.8304 18.54 58.0804C23.7 63.4504 35.04 71.6304 35.15 71.7104L35.73 72.1304V85.9704C35.73 87.4504 34.55 88.6304 33.05 88.6604C32.41 88.6604 32.19 88.9104 31.11 90.7604C29.61 93.3204 27.1 97.6104 19.69 103.1C14.39 107.03 10.7 108.17 8.19998 108.17ZM6.97998 56.2704C5.71998 56.2704 4.67996 56.5104 4.07996 57.0004C3.06996 57.8304 4.19996 59.7704 4.95996 60.8604C11.6 70.2904 15.01 76.3304 14.03 81.2104C13.9 81.8704 13.77 82.6304 13.62 83.4804C12.75 88.5204 11.45 96.1404 7.08997 100.24C5.62997 101.62 5.13998 103.58 6.00998 104.62C6.99998 105.8 10.64 106.34 18.02 100.86C24.97 95.7004 27.3 91.7204 28.69 89.3504C29.82 87.4304 30.71 85.9104 32.99 85.8704L32.93 73.5604C30.5 71.7904 21.22 64.9204 16.51 60.0104C14.23 57.6404 9.98997 56.2704 6.96997 56.2704H6.97998Z" fill="#010200"/>
<path d="M55.94 39.4202C50.85 39.4202 42.71 31.2302 40.6 28.5602C39.33 26.9602 38.2999 25.3102 39.2699 24.0702C40.2799 22.7902 42.12 23.6302 42.91 23.9902C46.22 25.5102 47.79 24.4302 53.29 20.0702C58.07 16.2802 65.3 10.5502 78.51 3.78022C86.42 -0.269776 93.47 -0.809761 99.45 2.17024C111.33 8.09024 114.55 25.6702 114.68 26.4102L115.05 28.5302L112.96 28.0002C88.5599 21.8102 68.0299 33.2802 60.2999 37.6002C59.1099 38.2602 58.17 38.7902 57.5 39.1002C57.02 39.3202 56.4999 39.4202 55.9299 39.4202H55.94ZM42.92 26.9902C45.09 29.6402 49.6999 34.0202 53.5199 35.9002C55.0499 36.6502 55.98 36.7402 56.34 36.5702C56.92 36.3002 57.81 35.8002 58.95 35.1702C66.71 30.8402 86.9699 19.5302 111.46 24.7902C110.25 20.0902 106.56 8.82023 98.2099 4.66023C93.0599 2.10023 86.86 2.64024 79.78 6.26024C66.81 12.9002 59.7099 18.5202 55.0199 22.2502C49.9499 26.2602 47.21 28.4402 42.92 26.9902Z" fill="#010200"/>
<path d="M73.56 143.39L73.19 141.95C68.67 124.58 79.46 117.58 79.93 117.29L80.5 116.94L88.74 119.83L88.81 120.73C90.15 137.68 75.14 142.87 74.98 142.92L73.57 143.39H73.56ZM80.88 120.03C79 121.51 72.91 127.37 75.51 139.68C78.8 138.1 86.56 133.16 86.08 121.84L80.89 120.02L80.88 120.03Z" fill="#010200"/>
<path d="M134.22 140.18L132.81 139.71C132.68 139.67 119.61 135.14 120.78 120.4L120.85 119.5L128.15 116.94L128.72 117.29C129.12 117.54 138.53 123.64 134.6 138.73L134.23 140.17L134.22 140.18ZM123.5 121.52C123.17 130.8 129.38 135 132.27 136.45C134.32 126.29 129.41 121.37 127.75 120.03L123.51 121.52H123.5Z" fill="#010200"/>
<path d="M34.04 76.9702L14.96 67.1802L34.63 75.7102L34.04 76.9702Z" fill="#010200"/>
<path d="M33.2899 80.43L18.2999 80.85L33.1799 79.04L33.2899 80.43Z" fill="#010200"/>
<path d="M33.5399 83.4402L18.2999 89.9402L32.9399 82.1802L33.5399 83.4402Z" fill="#010200"/>
<path d="M7.78998 172.23C8.32998 171.31 9.05998 170.6 9.97998 170.08C10.9 169.56 11.92 169.31 13.01 169.31C14.27 169.31 15.39 169.62 16.37 170.24C17.35 170.86 18.06 171.73 18.5 172.87H16.17C15.86 172.25 15.44 171.78 14.9 171.48C14.36 171.17 13.73 171.02 13.01 171.02C12.23 171.02 11.53 171.2 10.92 171.55C10.31 171.9 9.82998 172.41 9.47998 173.06C9.12998 173.71 8.95996 174.48 8.95996 175.35C8.95996 176.22 9.12998 176.99 9.47998 177.64C9.82998 178.29 10.3 178.8 10.92 179.16C11.53 179.52 12.23 179.7 13.01 179.7C13.72 179.7 14.35 179.55 14.9 179.24C15.45 178.93 15.87 178.47 16.17 177.85H18.5C18.06 178.98 17.35 179.86 16.37 180.47C15.39 181.08 14.27 181.39 13.01 181.39C11.9 181.39 10.89 181.13 9.96997 180.62C9.04997 180.1 8.31998 179.39 7.78998 178.47C7.24998 177.55 6.97998 176.51 6.97998 175.36C6.97998 174.21 7.24998 173.17 7.78998 172.25V172.23Z" fill="#A6A6A6"/>
<path d="M22.43 180.82C21.72 180.42 21.16 179.85 20.75 179.12C20.34 178.39 20.14 177.54 20.14 176.58C20.14 175.62 20.35 174.78 20.77 174.05C21.19 173.31 21.76 172.75 22.49 172.35C23.22 171.95 24.03 171.76 24.92 171.76C25.81 171.76 26.63 171.96 27.35 172.35C28.08 172.75 28.65 173.31 29.07 174.05C29.49 174.79 29.7 175.63 29.7 176.58C29.7 177.53 29.48 178.38 29.05 179.11C28.62 179.85 28.03 180.42 27.29 180.82C26.55 181.22 25.73 181.42 24.83 181.42C23.93 181.42 23.15 181.22 22.43 180.82ZM26.23 179.39C26.67 179.15 27.02 178.79 27.29 178.32C27.56 177.85 27.7 177.27 27.7 176.59C27.7 175.91 27.57 175.34 27.31 174.86C27.05 174.39 26.7 174.04 26.27 173.8C25.84 173.56 25.37 173.44 24.88 173.44C24.39 173.44 23.92 173.56 23.49 173.8C23.07 174.04 22.73 174.39 22.48 174.86C22.23 175.33 22.11 175.91 22.11 176.59C22.11 177.6 22.37 178.38 22.88 178.93C23.4 179.48 24.04 179.75 24.83 179.75C25.33 179.75 25.8 179.63 26.23 179.39Z" fill="#A6A6A6"/>
<path d="M33.55 168.69V181.27H31.61V168.69H33.55Z" fill="#A6A6A6"/>
<path d="M44.6199 177.31H37.4599C37.5199 178.06 37.7899 178.66 38.2899 179.11C38.7899 179.56 39.3999 179.79 40.1299 179.79C41.1699 179.79 41.9099 179.35 42.3399 178.48H44.4299C44.1499 179.34 43.63 180.05 42.89 180.6C42.15 181.15 41.2299 181.43 40.1299 181.43C39.2299 181.43 38.4299 181.23 37.7199 180.83C37.0099 180.43 36.4599 179.86 36.0499 179.13C35.6499 178.4 35.45 177.55 35.45 176.59C35.45 175.63 35.6499 174.78 36.0399 174.05C36.4299 173.32 36.9799 172.76 37.6899 172.36C38.3999 171.96 39.2099 171.77 40.1299 171.77C41.0499 171.77 41.7999 171.96 42.4899 172.35C43.1799 172.74 43.7199 173.28 44.0999 173.97C44.4899 174.67 44.6799 175.47 44.6799 176.38C44.6799 176.73 44.6599 177.05 44.6099 177.33L44.6199 177.31ZM42.6599 175.75C42.6499 175.04 42.3899 174.46 41.8999 174.03C41.3999 173.6 40.7799 173.38 40.0499 173.38C39.3799 173.38 38.8099 173.59 38.3299 174.02C37.8499 174.45 37.5699 175.02 37.4799 175.75H42.6599Z" fill="#A6A6A6"/>
<path d="M52.67 180.82C51.96 180.42 51.4 179.85 50.99 179.12C50.58 178.39 50.38 177.54 50.38 176.58C50.38 175.62 50.59 174.78 51.01 174.05C51.43 173.31 52 172.75 52.73 172.35C53.46 171.95 54.27 171.76 55.16 171.76C56.05 171.76 56.87 171.96 57.59 172.35C58.32 172.75 58.89 173.31 59.31 174.05C59.73 174.79 59.94 175.63 59.94 176.58C59.94 177.53 59.72 178.38 59.29 179.11C58.86 179.85 58.27 180.42 57.53 180.82C56.79 181.22 55.97 181.42 55.07 181.42C54.17 181.42 53.39 181.22 52.67 180.82ZM56.47 179.39C56.91 179.15 57.26 178.79 57.53 178.32C57.8 177.85 57.94 177.27 57.94 176.59C57.94 175.91 57.81 175.34 57.55 174.86C57.29 174.39 56.94 174.04 56.51 173.8C56.08 173.56 55.61 173.44 55.12 173.44C54.63 173.44 54.16 173.56 53.73 173.8C53.31 174.04 52.97 174.39 52.72 174.86C52.47 175.33 52.35 175.91 52.35 176.59C52.35 177.6 52.61 178.38 53.12 178.93C53.64 179.48 54.28 179.75 55.07 179.75C55.57 179.75 56.04 179.63 56.47 179.39Z" fill="#A6A6A6"/>
<path d="M63.27 181.03C62.69 180.76 62.22 180.4 61.88 179.94C61.54 179.48 61.36 178.97 61.34 178.4H63.35C63.38 178.8 63.57 179.13 63.92 179.39C64.27 179.66 64.7 179.79 65.22 179.79C65.74 179.79 66.19 179.68 66.49 179.47C66.79 179.26 66.94 178.99 66.94 178.66C66.94 178.31 66.77 178.05 66.44 177.88C66.11 177.71 65.58 177.52 64.85 177.32C64.15 177.13 63.57 176.94 63.13 176.76C62.69 176.58 62.31 176.3 61.98 175.93C61.65 175.56 61.5 175.06 61.5 174.45C61.5 173.95 61.65 173.5 61.94 173.08C62.23 172.67 62.66 172.34 63.21 172.1C63.76 171.86 64.39 171.74 65.11 171.74C66.18 171.74 67.03 172.01 67.69 172.55C68.34 173.09 68.69 173.82 68.74 174.75H66.8C66.77 174.33 66.6 174 66.29 173.75C65.98 173.5 65.57 173.38 65.05 173.38C64.53 173.38 64.15 173.48 63.88 173.67C63.61 173.86 63.47 174.12 63.47 174.43C63.47 174.68 63.56 174.89 63.74 175.06C63.92 175.23 64.14 175.36 64.4 175.46C64.66 175.56 65.05 175.68 65.56 175.83C66.24 176.01 66.8 176.2 67.23 176.38C67.67 176.57 68.04 176.84 68.36 177.2C68.68 177.56 68.84 178.04 68.85 178.65C68.85 179.18 68.7 179.66 68.41 180.08C68.12 180.5 67.7 180.83 67.16 181.07C66.62 181.31 65.99 181.43 65.26 181.43C64.53 181.43 63.86 181.3 63.28 181.03H63.27Z" fill="#A6A6A6"/>
<path d="M78.63 172.2C79.2 171.91 79.84 171.76 80.55 171.76C81.37 171.76 82.11 171.96 82.79 172.36C83.47 172.76 83.99 173.33 84.38 174.05C84.77 174.77 84.96 175.61 84.96 176.55C84.96 177.49 84.77 178.33 84.38 179.07C83.99 179.81 83.46 180.39 82.79 180.8C82.12 181.21 81.37 181.42 80.55 181.42C79.84 181.42 79.2 181.28 78.65 180.99C78.09 180.7 77.64 180.34 77.29 179.91V185.72H75.35V171.9H77.29V173.28C77.62 172.85 78.07 172.49 78.63 172.19V172.2ZM82.59 174.87C82.32 174.4 81.97 174.04 81.54 173.8C81.1 173.56 80.64 173.43 80.14 173.43C79.64 173.43 79.19 173.55 78.75 173.8C78.31 174.05 77.96 174.41 77.7 174.89C77.43 175.37 77.3 175.93 77.3 176.57C77.3 177.21 77.43 177.78 77.7 178.26C77.97 178.74 78.32 179.11 78.75 179.36C79.19 179.61 79.65 179.73 80.14 179.73C80.63 179.73 81.11 179.6 81.54 179.35C81.98 179.09 82.33 178.72 82.59 178.24C82.86 177.75 82.99 177.19 82.99 176.54C82.99 175.89 82.86 175.34 82.59 174.87Z" fill="#A6A6A6"/>
<path d="M95.39 177.31H88.23C88.29 178.06 88.56 178.66 89.06 179.11C89.56 179.56 90.17 179.79 90.9 179.79C91.94 179.79 92.68 179.35 93.11 178.48H95.2C94.92 179.34 94.4 180.05 93.66 180.6C92.92 181.15 92 181.43 90.9 181.43C90 181.43 89.2 181.23 88.49 180.83C87.78 180.43 87.23 179.86 86.82 179.13C86.42 178.4 86.22 177.55 86.22 176.59C86.22 175.63 86.42 174.78 86.81 174.05C87.2 173.32 87.75 172.76 88.46 172.36C89.17 171.96 89.98 171.77 90.9 171.77C91.82 171.77 92.57 171.96 93.26 172.35C93.95 172.74 94.49 173.28 94.87 173.97C95.26 174.67 95.45 175.47 95.45 176.38C95.45 176.73 95.43 177.05 95.38 177.33L95.39 177.31ZM93.44 175.75C93.43 175.04 93.17 174.46 92.68 174.03C92.18 173.6 91.56 173.38 90.83 173.38C90.16 173.38 89.59 173.59 89.11 174.02C88.63 174.45 88.35 175.02 88.26 175.75H93.44Z" fill="#A6A6A6"/>
<path d="M97.47 170.31C97.23 170.07 97.11 169.78 97.11 169.43C97.11 169.08 97.23 168.78 97.47 168.55C97.71 168.31 98 168.19 98.35 168.19C98.7 168.19 98.98 168.31 99.22 168.55C99.46 168.79 99.58 169.08 99.58 169.43C99.58 169.78 99.46 170.08 99.22 170.31C98.98 170.54 98.69 170.67 98.35 170.67C98.01 170.67 97.7 170.55 97.47 170.31ZM99.3 171.91V181.28H97.36V171.91H99.3Z" fill="#A6A6A6"/>
<path d="M105.87 176.53L108.9 181.27H106.71L104.69 178.09L102.79 181.27H100.77L103.8 176.66L100.77 171.9H102.96L104.98 175.08L106.88 171.9H108.9L105.87 176.52V176.53Z" fill="#A6A6A6"/>
<path d="M110.44 170.31C110.2 170.07 110.08 169.78 110.08 169.43C110.08 169.08 110.2 168.78 110.44 168.55C110.68 168.31 110.97 168.19 111.32 168.19C111.67 168.19 111.95 168.31 112.19 168.55C112.43 168.79 112.55 169.08 112.55 169.43C112.55 169.78 112.43 170.08 112.19 170.31C111.95 170.54 111.66 170.67 111.32 170.67C110.98 170.67 110.67 170.55 110.44 170.31ZM112.28 171.91V181.28H110.34V171.91H112.28Z" fill="#A6A6A6"/>
<path d="M121.53 172.21C122.11 172.52 122.57 172.97 122.9 173.57C123.23 174.17 123.39 174.9 123.39 175.75V181.28H121.47V176.04C121.47 175.2 121.26 174.56 120.84 174.11C120.42 173.66 119.85 173.44 119.12 173.44C118.39 173.44 117.82 173.66 117.39 174.11C116.96 174.56 116.75 175.2 116.75 176.04V181.28H114.81V171.91H116.75V172.98C117.07 172.59 117.47 172.29 117.97 172.08C118.46 171.87 118.99 171.76 119.54 171.76C120.28 171.76 120.94 171.91 121.52 172.22L121.53 172.21Z" fill="#A6A6A6"/>
<path d="M132.62 172.21C133.18 172.52 133.62 172.97 133.95 173.57C134.28 174.17 134.43 174.9 134.43 175.75V181.28H132.51V176.04C132.51 175.2 132.3 174.56 131.88 174.11C131.46 173.66 130.89 173.44 130.16 173.44C129.43 173.44 128.86 173.66 128.43 174.11C128 174.56 127.79 175.2 127.79 176.04V181.28H125.85V168.7H127.79V173C128.12 172.6 128.54 172.3 129.04 172.08C129.54 171.87 130.1 171.76 130.7 171.76C131.41 171.76 132.05 171.91 132.61 172.22L132.62 172.21Z" fill="#A6A6A6"/>
<path d="M138.56 180.82C137.85 180.42 137.29 179.85 136.88 179.12C136.47 178.39 136.27 177.54 136.27 176.58C136.27 175.62 136.48 174.78 136.9 174.05C137.32 173.31 137.89 172.75 138.62 172.35C139.35 171.95 140.16 171.76 141.05 171.76C141.94 171.76 142.76 171.96 143.48 172.35C144.21 172.75 144.78 173.31 145.2 174.05C145.62 174.79 145.83 175.63 145.83 176.58C145.83 177.53 145.61 178.38 145.18 179.11C144.75 179.85 144.16 180.42 143.42 180.82C142.68 181.22 141.86 181.42 140.96 181.42C140.06 181.42 139.28 181.22 138.56 180.82ZM142.36 179.39C142.8 179.15 143.15 178.79 143.42 178.32C143.69 177.85 143.83 177.27 143.83 176.59C143.83 175.91 143.7 175.34 143.44 174.86C143.18 174.39 142.83 174.04 142.4 173.8C141.97 173.56 141.5 173.44 141.01 173.44C140.52 173.44 140.05 173.56 139.62 173.8C139.2 174.04 138.86 174.39 138.61 174.86C138.36 175.33 138.24 175.91 138.24 176.59C138.24 177.6 138.5 178.38 139.01 178.93C139.53 179.48 140.17 179.75 140.96 179.75C141.46 179.75 141.93 179.63 142.36 179.39Z" fill="#A6A6A6"/>
<path d="M149.16 181.03C148.58 180.76 148.11 180.4 147.77 179.94C147.43 179.48 147.25 178.97 147.23 178.4H149.24C149.27 178.8 149.46 179.13 149.81 179.39C150.16 179.66 150.59 179.79 151.11 179.79C151.63 179.79 152.08 179.68 152.38 179.47C152.68 179.26 152.83 178.99 152.83 178.66C152.83 178.31 152.66 178.05 152.33 177.88C152 177.71 151.47 177.52 150.74 177.32C150.04 177.13 149.46 176.94 149.02 176.76C148.58 176.58 148.2 176.3 147.87 175.93C147.54 175.56 147.39 175.06 147.39 174.45C147.39 173.95 147.54 173.5 147.83 173.08C148.12 172.67 148.55 172.34 149.1 172.1C149.65 171.86 150.28 171.74 151 171.74C152.07 171.74 152.92 172.01 153.58 172.55C154.23 173.09 154.58 173.82 154.63 174.75H152.69C152.66 174.33 152.49 174 152.18 173.75C151.87 173.5 151.46 173.38 150.94 173.38C150.42 173.38 150.04 173.48 149.77 173.67C149.5 173.86 149.36 174.12 149.36 174.43C149.36 174.68 149.45 174.89 149.63 175.06C149.81 175.23 150.03 175.36 150.29 175.46C150.55 175.56 150.94 175.68 151.45 175.83C152.13 176.01 152.69 176.2 153.12 176.38C153.56 176.57 153.93 176.84 154.25 177.2C154.57 177.56 154.73 178.04 154.74 178.65C154.74 179.18 154.59 179.66 154.3 180.08C154.01 180.5 153.59 180.83 153.05 181.07C152.51 181.31 151.88 181.43 151.15 181.43C150.42 181.43 149.75 181.3 149.17 181.03H149.16Z" fill="#A6A6A6"/>
<path d="M42.0399 192.61C42.6199 192.92 43.0799 193.37 43.4099 193.97C43.7399 194.57 43.8999 195.3 43.8999 196.15V201.68H41.9799V196.44C41.9799 195.6 41.7699 194.96 41.3499 194.51C40.9299 194.06 40.3599 193.84 39.6299 193.84C38.8999 193.84 38.3299 194.06 37.8999 194.51C37.4699 194.96 37.2599 195.6 37.2599 196.44V201.68H35.3199V192.31H37.2599V193.38C37.5799 192.99 37.9799 192.69 38.4799 192.48C38.9699 192.27 39.4999 192.16 40.0499 192.16C40.7899 192.16 41.4499 192.31 42.0299 192.62L42.0399 192.61Z" fill="#A6A6A6"/>
<path d="M48.03 201.22C47.32 200.82 46.76 200.25 46.35 199.52C45.94 198.79 45.74 197.94 45.74 196.98C45.74 196.02 45.95 195.18 46.37 194.45C46.79 193.71 47.36 193.15 48.09 192.75C48.82 192.35 49.63 192.16 50.52 192.16C51.41 192.16 52.23 192.36 52.95 192.75C53.68 193.15 54.25 193.71 54.67 194.45C55.09 195.19 55.3 196.03 55.3 196.98C55.3 197.93 55.08 198.78 54.65 199.51C54.22 200.25 53.63 200.82 52.89 201.22C52.15 201.62 51.33 201.82 50.43 201.82C49.53 201.82 48.75 201.62 48.03 201.22ZM51.83 199.79C52.27 199.55 52.62 199.19 52.89 198.72C53.16 198.25 53.3 197.67 53.3 196.99C53.3 196.31 53.17 195.74 52.91 195.26C52.65 194.79 52.3 194.44 51.87 194.2C51.44 193.96 50.97 193.84 50.48 193.84C49.99 193.84 49.52 193.96 49.09 194.2C48.67 194.44 48.33 194.79 48.08 195.26C47.83 195.73 47.71 196.31 47.71 196.99C47.71 198 47.97 198.78 48.48 199.33C49 199.88 49.64 200.15 50.43 200.15C50.93 200.15 51.4 200.03 51.83 199.79Z" fill="#A6A6A6"/>
<path d="M61.57 194.45C61.96 193.72 62.49 193.16 63.17 192.76C63.84 192.36 64.59 192.16 65.41 192.16C66.15 192.16 66.79 192.3 67.34 192.59C67.89 192.88 68.33 193.24 68.66 193.67V192.31H70.62V201.68H68.66V200.29C68.33 200.73 67.88 201.1 67.32 201.39C66.76 201.68 66.11 201.83 65.38 201.83C64.58 201.83 63.84 201.62 63.17 201.21C62.5 200.8 61.97 200.22 61.58 199.48C61.19 198.74 60.99 197.9 60.99 196.96C60.99 196.02 61.19 195.19 61.58 194.46L61.57 194.45ZM68.25 195.3C67.98 194.82 67.64 194.46 67.2 194.21C66.77 193.96 66.3 193.84 65.81 193.84C65.32 193.84 64.85 193.96 64.42 194.21C63.99 194.45 63.64 194.81 63.37 195.28C63.1 195.75 62.97 196.31 62.97 196.95C62.97 197.59 63.1 198.16 63.37 198.65C63.64 199.14 63.99 199.51 64.42 199.76C64.86 200.01 65.32 200.14 65.81 200.14C66.3 200.14 66.77 200.02 67.2 199.77C67.63 199.52 67.98 199.16 68.25 198.67C68.52 198.19 68.65 197.63 68.65 196.98C68.65 196.33 68.52 195.77 68.25 195.3Z" fill="#A6A6A6"/>
<path d="M73.1 194.45C73.49 193.72 74.02 193.16 74.7 192.76C75.37 192.36 76.13 192.16 76.95 192.16C77.68 192.16 78.32 192.31 78.88 192.6C79.44 192.89 79.87 193.25 80.18 193.67V192.31H82.14V206.13H80.18V200.32C79.87 200.74 79.43 201.1 78.85 201.39C78.27 201.68 77.61 201.83 76.88 201.83C76.08 201.83 75.34 201.62 74.68 201.21C74.02 200.8 73.49 200.22 73.1 199.48C72.71 198.74 72.51 197.9 72.51 196.96C72.51 196.02 72.71 195.19 73.1 194.46V194.45ZM79.78 195.3C79.51 194.82 79.17 194.46 78.73 194.21C78.3 193.96 77.83 193.84 77.34 193.84C76.85 193.84 76.38 193.96 75.95 194.21C75.52 194.45 75.17 194.81 74.9 195.28C74.63 195.75 74.5 196.31 74.5 196.95C74.5 197.59 74.63 198.16 74.9 198.65C75.17 199.14 75.52 199.51 75.95 199.76C76.39 200.01 76.85 200.14 77.34 200.14C77.83 200.14 78.3 200.02 78.73 199.77C79.16 199.52 79.51 199.16 79.78 198.67C80.05 198.19 80.18 197.63 80.18 196.98C80.18 196.33 80.05 195.77 79.78 195.3Z" fill="#A6A6A6"/>
<path d="M93.17 192.31V201.68H91.23V200.57C90.92 200.96 90.52 201.26 90.03 201.48C89.54 201.7 89.01 201.81 88.46 201.81C87.72 201.81 87.06 201.66 86.48 201.35C85.9 201.04 85.44 200.59 85.1 199.99C84.76 199.39 84.6 198.66 84.6 197.81V192.3H86.52V197.52C86.52 198.36 86.73 199 87.15 199.45C87.57 199.9 88.14 200.12 88.87 200.12C89.6 200.12 90.17 199.9 90.6 199.45C91.02 199 91.24 198.36 91.24 197.52V192.3H93.18L93.17 192.31Z" fill="#A6A6A6"/>
<path d="M95.66 194.45C96.05 193.72 96.58 193.16 97.26 192.76C97.93 192.36 98.68 192.16 99.5 192.16C100.24 192.16 100.88 192.3 101.43 192.59C101.98 192.88 102.42 193.24 102.75 193.67V192.31H104.71V201.68H102.75V200.29C102.42 200.73 101.97 201.1 101.41 201.39C100.85 201.68 100.2 201.83 99.47 201.83C98.67 201.83 97.93 201.62 97.26 201.21C96.59 200.8 96.06 200.22 95.67 199.48C95.28 198.74 95.08 197.9 95.08 196.96C95.08 196.02 95.28 195.19 95.67 194.46L95.66 194.45ZM102.34 195.3C102.07 194.82 101.73 194.46 101.29 194.21C100.86 193.96 100.39 193.84 99.9 193.84C99.41 193.84 98.94 193.96 98.51 194.21C98.08 194.45 97.73 194.81 97.46 195.28C97.19 195.75 97.06 196.31 97.06 196.95C97.06 197.59 97.19 198.16 97.46 198.65C97.73 199.14 98.08 199.51 98.51 199.76C98.95 200.01 99.41 200.14 99.9 200.14C100.39 200.14 100.86 200.02 101.29 199.77C101.72 199.52 102.07 199.16 102.34 198.67C102.61 198.19 102.74 197.63 102.74 196.98C102.74 196.33 102.61 195.77 102.34 195.3ZM101.96 189.79L98.2 191.64V190.21L101.96 188.14V189.79Z" fill="#A6A6A6"/>
<path d="M110.31 192.55C110.78 192.28 111.34 192.15 111.98 192.15V194.16H111.49C110.73 194.16 110.16 194.35 109.76 194.74C109.37 195.12 109.17 195.79 109.17 196.75V201.68H107.23V192.31H109.17V193.67C109.45 193.19 109.83 192.82 110.3 192.56L110.31 192.55Z" fill="#A6A6A6"/>
<path d="M113.87 190.71C113.63 190.47 113.51 190.18 113.51 189.83C113.51 189.48 113.63 189.18 113.87 188.95C114.11 188.71 114.4 188.59 114.75 188.59C115.1 188.59 115.38 188.71 115.62 188.95C115.86 189.19 115.98 189.48 115.98 189.83C115.98 190.18 115.86 190.48 115.62 190.71C115.38 190.94 115.09 191.07 114.75 191.07C114.41 191.07 114.1 190.95 113.87 190.71ZM115.71 192.31V201.68H113.77V192.31H115.71Z" fill="#A6A6A6"/>
<path d="M119.92 201.22C119.21 200.82 118.65 200.25 118.24 199.52C117.83 198.79 117.63 197.94 117.63 196.98C117.63 196.02 117.84 195.18 118.26 194.45C118.68 193.71 119.25 193.15 119.98 192.75C120.71 192.35 121.52 192.16 122.41 192.16C123.3 192.16 124.12 192.36 124.84 192.75C125.57 193.15 126.14 193.71 126.56 194.45C126.98 195.19 127.19 196.03 127.19 196.98C127.19 197.93 126.97 198.78 126.54 199.51C126.11 200.25 125.52 200.82 124.78 201.22C124.04 201.62 123.22 201.82 122.32 201.82C121.42 201.82 120.64 201.62 119.92 201.22ZM123.72 199.79C124.16 199.55 124.51 199.19 124.78 198.72C125.05 198.25 125.19 197.67 125.19 196.99C125.19 196.31 125.06 195.74 124.8 195.26C124.54 194.79 124.19 194.44 123.76 194.2C123.33 193.96 122.86 193.84 122.37 193.84C121.88 193.84 121.41 193.96 120.98 194.2C120.56 194.44 120.22 194.79 119.97 195.26C119.72 195.73 119.6 196.31 119.6 196.99C119.6 198 119.86 198.78 120.37 199.33C120.89 199.88 121.53 200.15 122.32 200.15C122.82 200.15 123.29 200.03 123.72 199.79Z" fill="#A6A6A6"/>
</svg>
