<svg width="66" height="69" viewBox="0 0 66 69" fill="none" xmlns="http://www.w3.org/2000/svg">
<path d="M33.13 65.5C51.0793 65.5 65.63 50.9493 65.63 33C65.63 15.0507 51.0793 0.5 33.13 0.5C15.1807 0.5 0.630005 15.0507 0.630005 33C0.630005 50.9493 15.1807 65.5 33.13 65.5Z" fill="#E8FFE6"/>
<path d="M33.13 68.5C51.0793 68.5 65.63 53.9493 65.63 36C65.63 18.0507 51.0793 3.5 33.13 3.5C15.1807 3.5 0.630005 18.0507 0.630005 36C0.630005 53.9493 15.1807 68.5 33.13 68.5Z" fill="#C0F2C3"/>
<path opacity="0.09" d="M1.63 44.5C1.63 44.5 4.53001 63.5 34.58 63.5C64.63 63.5 64.34 44.5 64.34 44.5C64.34 44.5 59.89 68.46 34.76 68.46C7.63001 68.46 1.63 44.5 1.63 44.5Z" fill="#1A1515"/>
<path d="M21.76 23.71C23.27 23.71 24.49 22.49 24.49 20.98C24.49 19.47 23.27 18.25 21.76 18.25C20.25 18.25 19.03 19.47 19.03 20.98C19.03 22.49 20.25 23.71 21.76 23.71ZM21.76 20.07C22.26 20.07 22.67 20.48 22.67 20.98C22.67 21.48 22.26 21.89 21.76 21.89C21.26 21.89 20.85 21.48 20.85 20.98C20.85 20.48 21.26 20.07 21.76 20.07Z" fill="#9AC19B"/>
<path d="M21.76 49.17C23.27 49.17 24.49 47.95 24.49 46.44C24.49 44.93 23.27 43.71 21.76 43.71C20.25 43.71 19.03 44.93 19.03 46.44C19.03 47.95 20.25 49.17 21.76 49.17ZM21.76 45.53C22.26 45.53 22.67 45.94 22.67 46.44C22.67 46.94 22.26 47.35 21.76 47.35C21.26 47.35 20.85 46.94 20.85 46.44C20.85 45.94 21.26 45.53 21.76 45.53Z" fill="#9AC19B"/>
<path d="M34.49 47.35C36 47.35 37.22 46.13 37.22 44.62C37.22 43.11 36 41.89 34.49 41.89C32.98 41.89 31.76 43.11 31.76 44.62C31.76 46.13 32.98 47.35 34.49 47.35ZM34.49 43.71C34.99 43.71 35.4 44.12 35.4 44.62C35.4 45.12 34.99 45.53 34.49 45.53C33.99 45.53 33.58 45.12 33.58 44.62C33.58 44.12 33.99 43.71 34.49 43.71Z" fill="#9AC19B"/>
<path d="M34.49 25.5299C36 25.5299 37.22 24.3099 37.22 22.7999C37.22 21.2899 36 20.0699 34.49 20.0699C32.98 20.0699 31.76 21.2899 31.76 22.7999C31.76 24.3099 32.98 25.5299 34.49 25.5299ZM34.49 21.8899C34.99 21.8899 35.4 22.2999 35.4 22.7999C35.4 23.2999 34.99 23.7099 34.49 23.7099C33.99 23.7099 33.58 23.2999 33.58 22.7999C33.58 22.2999 33.99 21.8899 34.49 21.8899Z" fill="#9AC19B"/>
<path d="M47.22 27.35C48.73 27.35 49.95 26.13 49.95 24.62C49.95 23.11 48.73 21.89 47.22 21.89C45.71 21.89 44.49 23.11 44.49 24.62C44.49 26.13 45.71 27.35 47.22 27.35ZM47.22 23.71C47.72 23.71 48.13 24.12 48.13 24.62C48.13 25.12 47.72 25.53 47.22 25.53C46.72 25.53 46.31 25.12 46.31 24.62C46.31 24.12 46.72 23.71 47.22 23.71Z" fill="#9AC19B"/>
<path d="M47.22 45.5299C48.73 45.5299 49.95 44.3099 49.95 42.7999C49.95 41.2899 48.73 40.0699 47.22 40.0699C45.71 40.0699 44.49 41.2899 44.49 42.7999C44.49 44.3099 45.71 45.5299 47.22 45.5299ZM47.22 41.8999C47.72 41.8999 48.13 42.3099 48.13 42.8099C48.13 43.3099 47.72 43.7199 47.22 43.7199C46.72 43.7199 46.31 43.3099 46.31 42.8099C46.31 42.3099 46.72 41.8999 47.22 41.8999Z" fill="#9AC19B"/>
<path d="M52.68 43.05V41.25V43.05ZM52.68 22.61V20.08C52.68 19.58 52.27 19.17 51.77 19.17H42.68C42.18 19.17 41.77 19.58 41.77 20.08V21.11L39.95 20.86V18.27C39.95 17.77 39.54 17.36 39.04 17.36H29.95C29.45 17.36 29.04 17.77 29.04 18.27V19.36L27.22 19.11V16.45C27.22 15.95 26.81 15.54 26.31 15.54H17.22C16.72 15.54 16.31 15.95 16.31 16.45V17.64C15.65 17.63 15.01 17.86 14.51 18.29C13.38 19.27 13.27 20.99 14.25 22.12C14.68 22.61 15.27 22.93 15.92 23.02L16.31 23.07V44.6L15.91 44.66C14.43 44.87 13.4 46.24 13.6 47.72C13.79 49.06 14.93 50.05 16.29 50.05H16.31V51C16.31 51.5 16.72 51.91 17.22 51.91H26.31C26.81 51.91 27.22 51.5 27.22 51V48.52L29.04 48.26V49.18C29.04 49.68 29.45 50.09 29.95 50.09H39.04C39.54 50.09 39.95 49.68 39.95 49.18V46.71L41.77 46.45V47.36C41.77 47.86 42.18 48.27 42.68 48.27H51.77C52.27 48.27 52.68 47.86 52.68 47.36V44.89M52.68 26.24V24.44V26.24ZM52.68 39.41V28.08V39.41ZM16.31 48.2C16.09 48.21 15.88 48.14 15.71 48C15.51 47.83 15.4 47.59 15.4 47.33C15.4 46.89 15.73 46.51 16.17 46.45L16.31 46.43V48.21V48.2ZM16.31 21.23L16.17 21.21C15.73 21.15 15.4 20.77 15.4 20.33C15.4 19.85 15.77 19.46 16.25 19.45C16.27 19.45 16.29 19.45 16.31 19.45V21.23ZM25.4 50.08H18.13V17.35H25.4V50.08ZM29.04 46.41L27.22 46.67V44.87L29.04 44.61V46.41ZM29.04 42.77L27.22 43.03V24.56L29.04 24.81V42.77ZM29.04 22.98L27.22 22.73V20.93L29.04 21.18V22.98ZM38.13 48.26H30.86V19.16H38.13V48.26ZM41.77 44.6L39.95 44.86V43.06L41.77 42.8V44.6ZM41.77 40.96L39.95 41.22V26.32L41.77 26.57V40.96ZM41.77 24.74L39.95 24.49V22.69L41.77 22.94V24.74ZM50.86 46.44H43.59V20.98H50.86V46.44Z" fill="#9AC19B"/>
</svg>
