<svg width="66" height="69" viewBox="0 0 66 69" fill="none" xmlns="http://www.w3.org/2000/svg">
<path d="M33.02 65.5C50.9693 65.5 65.52 50.9493 65.52 33C65.52 15.0507 50.9693 0.5 33.02 0.5C15.0708 0.5 0.52002 15.0507 0.52002 33C0.52002 50.9493 15.0708 65.5 33.02 65.5Z" fill="#E8FFE6"/>
<path d="M33.02 68.5C50.9693 68.5 65.52 53.9493 65.52 36C65.52 18.0507 50.9693 3.5 33.02 3.5C15.0708 3.5 0.52002 18.0507 0.52002 36C0.52002 53.9493 15.0708 68.5 33.02 68.5Z" fill="#C0F2C3"/>
<path opacity="0.09" d="M1.52002 44.5C1.52002 44.5 4.42002 63.5 34.47 63.5C64.52 63.5 64.23 44.5 64.23 44.5C64.23 44.5 59.78 68.46 34.65 68.46C7.52001 68.46 1.52002 44.5 1.52002 44.5Z" fill="#1A1515"/>
<path d="M24.88 23.24H16.56C16.25 23.24 15.99 22.99 15.99 22.67V17.67C15.99 16.31 17.09 15.21 18.45 15.21H22.98C24.34 15.21 25.44 16.31 25.44 17.67V22.67C25.44 22.98 25.19 23.24 24.87 23.24H24.88ZM17.13 22.11H24.32V17.67C24.32 16.94 23.72 16.34 22.99 16.34H18.46C17.73 16.34 17.13 16.93 17.13 17.67V22.11Z" fill="#92B793"/>
<path d="M20.72 52.21C18.11 52.21 16 50.96 16 49.42V27.74C16 27.56 16.25 27.41 16.57 27.41H24.89C25.2 27.41 25.46 27.56 25.46 27.74V49.32C25.49 50.85 23.47 52.13 20.88 52.21C20.83 52.21 20.78 52.21 20.73 52.21H20.72ZM17.13 28.08V49.42C17.13 50.59 18.74 51.54 20.73 51.54C20.77 51.54 20.8 51.54 20.84 51.54C22.82 51.47 24.36 50.49 24.32 49.32V28.08H17.13Z" fill="#92B793"/>
<path d="M33.19 23.24H24.87C24.56 23.24 24.3 22.99 24.3 22.67V17.67C24.3 16.31 25.4 15.21 26.76 15.21H31.29C32.65 15.21 33.75 16.31 33.75 17.67V22.67C33.75 22.98 33.5 23.24 33.18 23.24H33.19ZM25.44 22.11H32.6301V17.67C32.6301 16.94 32.03 16.34 31.3 16.34H26.7701C26.0401 16.34 25.44 16.93 25.44 17.67V22.11Z" fill="#92B793"/>
<path d="M29.0401 49.34C26.4301 49.34 24.3201 48.09 24.3201 46.55V27.74C24.3201 27.56 24.5701 27.41 24.8901 27.41H33.2101C33.5201 27.41 33.7801 27.56 33.7801 27.74V46.45C33.8101 47.98 31.7901 49.26 29.2001 49.34H29.0501H29.0401ZM25.4401 28.08V46.56C25.4401 47.73 27.0501 48.68 29.0401 48.68C29.0801 48.68 29.1101 48.68 29.1501 48.68C31.1301 48.61 32.6601 47.63 32.6301 46.46V28.09H25.4401V28.08Z" fill="#92B793"/>
<path d="M41.51 23.24H33.19C32.88 23.24 32.62 22.99 32.62 22.67V17.67C32.62 16.31 33.72 15.21 35.08 15.21H39.61C40.97 15.21 42.07 16.31 42.07 17.67V22.67C42.07 22.98 41.82 23.23 41.51 23.24ZM33.76 22.11H40.95V17.67C40.95 16.94 40.35 16.34 39.62 16.34H35.09C34.36 16.34 33.76 16.93 33.76 17.67V22.11Z" fill="#92B793"/>
<path d="M37.35 46.47C34.74 46.47 32.63 45.22 32.63 43.68V27.74C32.63 27.56 32.88 27.41 33.2 27.41H41.52C41.83 27.41 42.09 27.56 42.09 27.74V43.58C42.12 45.11 40.1 46.39 37.51 46.47C37.46 46.47 37.41 46.47 37.37 46.47H37.35ZM33.76 28.08V43.69C33.76 44.26 34.15 44.81 34.85 45.21C35.55 45.61 36.49 45.83 37.47 45.81C39.45 45.74 40.99 44.76 40.95 43.59V28.08H33.76Z" fill="#92B793"/>
<path d="M49.8299 23.24H41.5099C41.1999 23.24 40.9399 22.99 40.9399 22.67V17.67C40.9399 16.31 42.0399 15.21 43.3999 15.21H47.9299C49.2899 15.21 50.3899 16.31 50.3899 17.67V22.67C50.3899 22.98 50.1399 23.23 49.8299 23.24ZM42.0799 22.11H49.2699V17.67C49.2699 16.94 48.6699 16.34 47.9399 16.34H43.4099C42.6799 16.34 42.0799 16.93 42.0799 17.67V22.11Z" fill="#92B793"/>
<path d="M45.67 43.6C43.06 43.6 40.95 42.35 40.95 40.81V27.74C40.95 27.56 41.2 27.41 41.52 27.41H49.84C50.15 27.41 50.41 27.56 50.41 27.74V40.71C50.44 42.24 48.42 43.52 45.83 43.6C45.78 43.6 45.7299 43.6 45.6799 43.6H45.67ZM42.08 28.08V40.82C42.08 41.99 43.69 42.94 45.67 42.94C45.71 42.94 45.74 42.94 45.78 42.94C47.76 42.87 49.2999 41.89 49.2599 40.72V28.09H42.07L42.08 28.08Z" fill="#92B793"/>
<path d="M50.39 28.54H15.84C14.56 28.61 13.47 27.23 13.42 25.46C13.37 23.68 14.36 22.18 15.65 22.11C15.71 22.11 15.78 22.11 15.84 22.11H50.39C51.67 22.18 52.67 23.69 52.62 25.46C52.57 27.13 51.6 28.47 50.39 28.54ZM15.84 23.24C15.44 23.24 15.05 23.46 14.77 23.85C14.18 24.67 14.19 26 14.78 26.81C15.06 27.2 15.44 27.41 15.84 27.41H50.39C51.22 27.35 51.86 26.37 51.82 25.21C51.78 24.14 51.16 23.29 50.39 23.23H15.84V23.24Z" fill="#92B793"/>
<path d="M21.78 25.89H20.18C19.87 25.89 19.61 25.64 19.61 25.32C19.61 25 19.86 24.75 20.18 24.75H21.78C22.09 24.75 22.35 25 22.35 25.32C22.35 25.64 22.1 25.89 21.78 25.89Z" fill="#92B793"/>
<path d="M29.84 25.89H28.2401C27.9301 25.89 27.67 25.64 27.67 25.32C27.67 25 27.9201 24.75 28.2401 24.75H29.84C30.15 24.75 30.41 25 30.41 25.32C30.41 25.64 30.16 25.89 29.84 25.89Z" fill="#92B793"/>
<path d="M38.16 25.89H36.56C36.25 25.89 35.99 25.64 35.99 25.32C35.99 25 36.24 24.75 36.56 24.75H38.16C38.47 24.75 38.73 25 38.73 25.32C38.73 25.64 38.48 25.89 38.16 25.89Z" fill="#92B793"/>
<path d="M46.47 25.89H44.87C44.56 25.89 44.3 25.64 44.3 25.32C44.3 25 44.55 24.75 44.87 24.75H46.47C46.78 24.75 47.04 25 47.04 25.32C47.04 25.64 46.79 25.89 46.47 25.89Z" fill="#92B793"/>
</svg>
