<svg width="227" height="160" viewBox="0 0 227 160" fill="none" xmlns="http://www.w3.org/2000/svg">
<path d="M191.841 81.5197C191.841 124.423 175.078 159.203 113.503 159.203C51.9291 159.203 35.1654 124.423 35.1654 81.5197C35.1654 38.6164 62.978 9.59064 113.503 9.59064C164.029 9.59064 191.841 38.6164 191.841 81.5197Z" fill="#FFD7AC"/>
<path d="M172.972 80.7879C176.731 97.4962 177.776 118.045 164.34 121.068C150.905 124.091 133.574 116.997 129.814 100.289C126.055 83.5804 122.453 63.0315 135.888 60.0084C149.324 56.9853 169.212 64.0796 172.972 80.7879Z" fill="#B18174"/>
<ellipse cx="113.168" cy="129.153" rx="33.2472" ry="23.0173" fill="#DB9861"/>
<path d="M113.565 146.794C104.869 146.794 104.72 139.761 106.212 132.408C109.281 128.828 117.081 130.917 120.598 132.408C121.557 139.761 122.26 146.794 113.565 146.794Z" fill="black" fill-opacity="0.25"/>
<path d="M113.565 146.155C104.869 146.155 104.72 139.122 106.212 131.769C109.281 128.189 117.081 130.277 120.598 131.769C121.557 139.122 122.26 146.155 113.565 146.155Z" fill="#FF837B"/>
<ellipse cx="154.727" cy="101.66" rx="16.6236" ry="15.9842" fill="black"/>
<ellipse cx="72.8883" cy="101.66" rx="16.6236" ry="15.9842" fill="black"/>
<path d="M113.169 129.153C116.866 131.565 127.284 134.943 139.383 129.153" stroke="black" stroke-width="5" stroke-linecap="round"/>
<path d="M86.9543 129.153C90.6512 131.565 101.07 134.943 113.169 129.153" stroke="black" stroke-width="5" stroke-linecap="round"/>
<circle cx="75.7652" cy="95.5859" r="2.87716" fill="white"/>
<circle cx="157.605" cy="95.5859" r="2.87716" fill="white"/>
<path d="M122.759 114.767C122.759 118.475 118.465 125.956 113.168 125.956C107.872 125.956 103.578 118.475 103.578 114.767C103.578 111.059 107.872 108.054 113.168 108.054C118.465 108.054 122.759 111.059 122.759 114.767Z" fill="black"/>
<path d="M198.877 89.7663C189.257 64.5857 164.583 31.056 153.449 17.4388C214.376 2.43757 227.826 41.1015 226.936 62.3087C226.045 83.5158 208.497 114.947 198.877 89.7663Z" fill="#B18174"/>
<path d="M28.0992 89.7663C37.7193 64.5857 62.3931 31.056 73.5275 17.4388C12.6001 2.43757 -0.850243 41.1015 0.0405045 62.3087C0.931259 83.5158 18.4791 114.947 28.0992 89.7663Z" fill="#B18174"/>
<path d="M112.668 141.301C112.668 141.577 112.892 141.801 113.168 141.801C113.445 141.801 113.668 141.577 113.668 141.301H112.668ZM112.668 131.071V141.301H113.668V131.071H112.668Z" fill="#94255F"/>
<path d="M73.9274 24.7032C73.8883 24.9117 73.5278 26.7707 73.2406 27.5207C73.0023 27.2108 72.7777 27.0215 72.641 27.1464C72.0096 27.7239 71.1264 28.4357 70.3802 28.9302C68.9672 29.8665 71.8304 29.3927 72.3838 29.3561C74.1027 29.2424 75.7361 29.2921 77.4579 28.9791C79.6602 28.5787 81.7083 27.6433 83.9269 27.3307C87.3145 26.8533 90.7508 26.5298 94.1682 26.891C96.926 27.1826 99.6191 26.7905 102.368 26.8554C106.374 26.9499 110.381 26.8252 114.382 26.95C123.936 27.2482 133.477 26.1088 143.026 26.5548C145.19 26.6558 147.417 27.143 149.585 27.0414C150.157 27.0146 151.316 27.009 151.583 26.4438C152.065 25.4214 151.759 24.8868 151.695 23.923C151.625 22.8676 151.411 21.8458 151.304 20.8254C151.189 19.7279 150.806 18.4423 150.899 17.3666C150.956 16.7154 151.152 16.0813 151.134 15.4377C151.127 15.1948 151.862 13.7399 151.66 13.6963C150.682 13.4855 149.121 14.0401 148.067 14.1098C146.1 14.24 143.447 14.7062 141.882 15.9877C141.825 16.0343 141.914 12.3493 141.99 11.6779C142.098 10.7352 142.33 9.38811 142.098 8.46449C141.961 7.91652 141.031 8.64953 140.788 8.82011C138.813 10.2052 135.917 10.4723 133.617 10.97C132.167 11.2839 131.143 12.1052 129.928 12.8896C129.078 13.4384 129.532 13.1857 129.99 12.4201C130.692 11.2481 131.194 10.089 132.092 9.02302C132.377 8.686 134.498 5.92937 134.12 5.91011C130.384 5.71919 126.781 5.1721 123.092 6.49488C120.698 7.35367 118.231 8.36355 116.018 9.63131C115.195 10.1032 114.434 10.6299 113.659 11.1734C113.119 11.5516 112.4 13.0624 112.151 12.4522C112.05 12.2063 113.271 10.5267 113.302 10.4729C113.837 9.56306 115.852 7.63254 115.842 6.6436C115.839 6.4397 113.081 7.1053 112.977 7.12269C110.855 7.47761 108.761 7.96013 106.609 8.10251C103.591 8.30218 100.746 8.91394 97.7839 9.47238C97.6399 9.49954 94.6844 10.4705 95.1874 9.77861C95.6238 9.17849 95.6418 8.16544 96.0192 7.49988L96.0428 7.45826C96.7048 6.29081 97.2812 5.27439 98.0736 4.1577C99.3497 2.35932 95.5666 4.69515 95.1885 4.94844C91.9035 7.14909 88.8054 9.25222 86.8402 12.7407C86.4917 13.3595 86.2958 14.6366 85.7404 14.096C85.2031 13.5729 84.9274 12.4747 84.7091 11.7957C84.3674 10.7328 84.4834 9.79003 84.4141 8.7434C84.3654 8.00684 83.9333 8.60756 83.6397 8.91875C81.0114 11.7042 78.1369 14.295 76.2451 17.6822C75.0137 19.887 74.3869 22.2512 73.9274 24.7032Z" fill="#FFD7AC"/>
</svg>
