<svg width="204" height="174" viewBox="0 0 204 174" fill="none" xmlns="http://www.w3.org/2000/svg">
<path d="M175.971 86.4884C169.122 101.959 151.028 108.947 135.558 102.098C120.088 95.2492 113.099 77.1558 119.948 61.6856C126.797 46.2155 138.181 17.9253 177.951 13.5901C182.502 24.769 182.82 71.0183 175.971 86.4884Z" fill="#FECA74"/>
<path d="M27.3095 86.4884C34.1586 101.959 52.2519 108.947 67.7221 102.098C83.1922 95.2492 90.181 77.1558 83.3319 61.6856C76.4828 46.2155 65.0996 17.9253 25.3293 13.5901C20.7785 24.769 20.4603 71.0183 27.3095 86.4884Z" fill="#FECA74"/>
<path d="M173.054 80.3546C167.672 92.5123 153.453 98.0046 141.295 92.622C129.137 87.2395 128.232 76.0322 133.615 63.8745C138.998 51.7168 151.865 31.6113 174.61 23.0654C178.187 31.8506 178.437 68.1969 173.054 80.3546Z" fill="#F34FA5"/>
<path d="M30.226 80.3546C35.6086 92.5123 49.8277 98.0046 61.9854 92.622C74.1431 87.2395 75.0478 76.0322 69.6652 63.8745C64.2827 51.7168 51.4153 31.6113 28.6698 23.0654C25.0935 31.8506 24.8434 68.1969 30.226 80.3546Z" fill="#F34FA5"/>
<path d="M178.588 100.7C178.588 144.436 143.133 173.7 99.3966 173.7C55.6604 173.7 20.2052 144.436 20.2052 100.7C20.2052 56.964 55.6604 21.5088 99.3966 21.5088C143.133 21.5088 178.588 56.964 178.588 100.7Z" fill="#FECA74"/>
<ellipse cx="142.088" cy="121.231" rx="16.9463" ry="16.2945" fill="black"/>
<ellipse cx="58.6603" cy="121.231" rx="16.9463" ry="16.2945" fill="black"/>
<ellipse cx="58.6602" cy="121.231" rx="11.0803" ry="10.4285" fill="black"/>
<circle cx="61.5933" cy="115.039" r="2.93301" fill="white"/>
<circle cx="145.021" cy="115.039" r="2.93301" fill="white"/>
<path d="M99.7224 166.856C89.2939 166.856 88.8594 153.82 86.6868 147.302C91.1189 153.299 97.2239 149.801 99.7224 147.302C105.719 153.82 111.129 150.018 113.084 147.302C110.803 153.82 110.151 166.856 99.7224 166.856Z" fill="black"/>
<path d="M99.3077 164.901C95.4563 164.901 92.7652 161.439 91.9011 159.708C98.1227 152.586 105.356 156.74 108.196 159.708C106.838 161.439 103.159 164.901 99.3077 164.901Z" fill="#F34FA5"/>
<path d="M80.8208 49.2095L67.1334 28.3525C70.3923 27.0489 76.9101 24.7676 80.8208 23.79V49.2095Z" fill="#FFE5B9"/>
<path d="M68.9372 154.472L66.3843 167.799C64.6182 167.074 61.2093 165.497 59.312 164.398L68.9372 154.472Z" fill="#FFE5B9"/>
<path d="M129.835 154.472L132.388 167.799C134.154 167.074 137.563 165.497 139.46 164.398L129.835 154.472Z" fill="#FFE5B9"/>
<path d="M59.3363 149.258L54.6605 161.996C53.0349 160.995 49.9262 158.887 48.2317 157.495L59.3363 149.258Z" fill="#FFE5B9"/>
<path d="M139.436 149.258L144.112 161.996C145.737 160.995 148.846 158.887 150.54 157.495L139.436 149.258Z" fill="#FFE5B9"/>
<path d="M121.231 49.5354L134.919 28.6784C131.66 27.3748 125.142 25.0936 121.231 24.1159V49.5354Z" fill="#FFE5B9"/>
<path d="M102.764 54.7496L94.4274 21.9455C97.9282 21.6922 104.831 21.4961 108.854 21.7511L102.764 54.7496Z" fill="#FFE5B9"/>
<ellipse cx="107.218" cy="144.369" rx="8.14726" ry="7.49548" fill="#FFE5B9"/>
<ellipse cx="91.5752" cy="144.369" rx="8.14726" ry="7.49548" fill="#FFE5B9"/>
<path d="M109.499 134.593C109.499 138.372 105.122 145.999 99.7224 145.999C94.3229 145.999 89.9457 138.372 89.9457 134.593C89.9457 130.813 94.3229 127.749 99.7224 127.749C105.122 127.749 109.499 130.813 109.499 134.593Z" fill="black"/>
<path d="M99.7224 149.91C101.469 152.369 106.391 155.812 112.106 149.91" stroke="black" stroke-width="5" stroke-linecap="round"/>
<path d="M87.3386 149.91C89.0851 152.369 94.0068 155.812 99.7225 149.91" stroke="black" stroke-width="5" stroke-linecap="round"/>
<path d="M106.19 155.776L105.589 153.168H106.892L106.19 155.776Z" fill="white"/>
<path d="M94.4581 155.776L93.8564 153.168H95.16L94.4581 155.776Z" fill="white"/>
<path d="M25.7548 131.415C25.8247 130.581 26.0704 129.765 26.0815 128.933C26.5232 129.579 27.1393 130.202 27.6729 130.703C28.6463 131.617 29.5526 132.7 30.6606 133.463C34.4265 136.055 37.8438 140.046 39.9594 144.062C40.3996 144.897 41.1434 146.11 41.1969 147.068C41.2434 147.899 41.064 149.142 41.3914 149.915C41.4822 150.129 41.7513 151.336 41.7096 151.304C41.0987 150.831 40.5529 150.3 39.8887 149.88C39.3344 149.529 38.68 148.486 38.3684 149.282C38.1557 149.826 38.1739 150.922 38.1739 151.506C38.1739 151.773 38.1697 152.892 37.9353 153.079C37.5332 153.399 37.1176 152.78 36.8038 152.516C34.8191 150.847 33.6261 148.977 32.6936 146.593C32.3729 145.773 32.3433 147.006 32.2074 147.384C31.8825 148.289 31.7895 149.235 31.4208 150.126C31.3068 150.401 30.8973 148.854 30.855 148.57C30.6283 147.048 29.9616 145.526 29.5115 144.062C29.1069 142.745 28.7867 141.408 28.7867 140.028C28.7867 139.846 29.0862 137.973 28.6276 138.771C28.3566 139.243 26.0972 142.119 25.6311 141.733C25.3625 141.51 25.6045 139.602 25.6045 139.228C25.6045 138.124 25.3231 137.024 25.4543 135.915C25.6308 134.423 25.6291 132.915 25.7548 131.415Z" fill="#FECA74"/>
<path d="M174.994 127.505C174.924 126.67 174.678 125.855 174.667 125.023C174.225 125.668 173.609 126.292 173.075 126.793C172.102 127.707 171.196 128.79 170.088 129.552C166.322 132.145 162.905 136.135 160.789 140.151C160.349 140.987 159.605 142.199 159.551 143.157C159.505 143.988 159.684 145.231 159.357 146.004C159.266 146.219 158.997 147.425 159.039 147.393C159.65 146.92 160.196 146.389 160.86 145.969C161.414 145.618 162.068 144.575 162.38 145.372C162.593 145.915 162.575 147.012 162.575 147.595C162.575 147.862 162.579 148.982 162.813 149.168C163.215 149.488 163.631 148.87 163.945 148.606C165.929 146.936 167.122 145.066 168.055 142.682C168.375 141.862 168.405 143.095 168.541 143.473C168.866 144.378 168.959 145.325 169.328 146.215C169.442 146.49 169.851 144.943 169.893 144.66C170.12 143.138 170.787 141.616 171.237 140.151C171.642 138.835 171.962 137.498 171.962 136.117C171.962 135.935 171.662 134.063 172.121 134.86C172.392 135.332 174.651 138.208 175.117 137.822C175.386 137.6 175.144 135.691 175.144 135.318C175.144 134.213 175.425 133.113 175.294 132.004C175.118 130.513 175.119 129.005 174.994 127.505Z" fill="#FECA74"/>
</svg>
