<svg width="197" height="195" viewBox="0 0 197 195" fill="none" xmlns="http://www.w3.org/2000/svg">
<path d="M61.5673 1.2643C75.637 0.293087 91.6877 8.14369 97.9544 12.1904C103.776 1.50713 125.447 -0.354398 135.554 0.0502482C134.544 0.454931 132.886 1.87129 134.341 4.29929C135.797 6.72728 134.948 10.5717 134.341 12.1904C140.81 6.72733 154.961 -0.920954 159.812 12.1904C164.664 25.3017 183.666 37.0776 192.561 41.3266C193.531 49.0963 185.283 58.3228 181.038 61.9648C190.741 70.7057 191.146 89.4824 190.135 97.7781C187.477 94.7382 179.448 91.7478 173.369 89.9122C177.843 91.6507 182.467 95.0903 181.038 100.813C179.097 108.583 185.485 124.689 188.922 131.77C183.1 136.626 172.75 132.984 168.303 130.556C170.324 136.019 172.737 148.486 168.909 150.588C163.828 153.377 161.025 160.3 159.812 166.977C153.896 166.977 148.229 157.364 145.714 151.663C146.889 154.963 146.711 159.887 142.361 164.676C137.509 170.017 137.374 174.562 137.374 184.58C130.581 188.465 121.606 176.486 117.967 170.012C118.978 172.642 119.301 178.267 112.509 179.724C105.717 181.181 99.9759 190.448 97.9544 194.899C98.5608 191.459 97.9543 184.58 90.6769 184.58C83.3995 184.58 79.963 176.082 79.1544 171.833C77.6989 180.574 65.206 183.973 59.1415 184.58C59.9501 182.759 60.2331 177.66 54.8963 171.833C49.8955 166.372 49.8292 157.288 50.506 152.669C48.6654 162.237 39.8089 166.191 35.4899 166.977C35.2878 164.549 33.7918 158.114 29.4254 151.802C25.059 145.489 25.9888 135.817 26.9996 131.77C23.6909 137.921 12.8224 134.584 7.40462 131.975C7.2584 131.919 7.11852 131.85 6.98672 131.77C7.12204 131.838 7.26144 131.907 7.40462 131.975C9.50088 132.787 12.8983 130.974 12.4448 117.809C11.9596 103.727 19.52 94.1361 23.3609 91.101C19.4796 88.673 10.8276 95.3501 6.98672 98.9921C1.64996 86.3664 11.2319 69.0465 16.6899 61.9648C8.92736 59.5368 4.96522 47.1943 3.95447 41.3266C7.18887 40.7196 14.2641 38.1702 16.6899 32.8285C30.7596 1.74986 52.4706 6.12033 61.5673 12.1904C59.1415 9.7624 60.5566 3.89466 61.5673 1.2643Z" fill="#67422D"/>
<ellipse cx="162.702" cy="34.5752" rx="23.1619" ry="26.5515" transform="rotate(30 162.702 34.5752)" fill="#E0A03B"/>
<ellipse cx="23.1619" cy="26.5515" rx="23.1619" ry="26.5515" transform="matrix(-0.866025 0.5 0.5 0.866025 40.1176 0)" fill="#E0A03B"/>
<ellipse cx="164.74" cy="37.8945" rx="16.3828" ry="18.6425" transform="rotate(30 164.74 37.8945)" fill="#7D5436"/>
<ellipse cx="16.3828" cy="18.6425" rx="16.3828" ry="18.6425" transform="matrix(-0.866025 0.5 0.5 0.866025 36.1631 13.5582)" fill="#7D5436"/>
<path d="M165.523 91.2354C165.523 122.887 144.099 149.534 114.962 157.468C109.202 159.037 103.989 165.523 97.7319 165.523C91.4753 165.523 84.5667 159.037 78.807 157.468C49.6697 149.534 28.2462 122.887 28.2462 91.2354C28.2462 53.3275 58.9766 30.506 96.8846 30.506C134.792 30.506 165.523 53.3275 165.523 91.2354Z" fill="#E0A03B"/>
<ellipse cx="133.887" cy="109.03" rx="14.688" ry="14.1231" fill="black"/>
<ellipse cx="61.5767" cy="109.03" rx="14.688" ry="14.1231" fill="black"/>
<ellipse cx="61.5768" cy="109.03" rx="9.60372" ry="9.03879" fill="black"/>
<circle cx="64.1189" cy="103.664" r="2.54216" fill="white"/>
<circle cx="136.429" cy="103.664" r="2.54216" fill="white"/>
<path d="M97.4879 162.698C81.8652 162.698 81.2143 143.114 77.9596 133.322C84.5992 142.331 92.8592 134.816 96.6021 131.062C105.585 140.855 114.575 137.402 117.504 133.322C114.087 143.114 113.11 162.698 97.4879 162.698Z" fill="black"/>
<path d="M107.901 146.315L106.206 138.124H109.878L107.901 146.315Z" fill="white"/>
<path d="M86.9984 146.315L85.3036 138.124H88.9757L86.9984 146.315Z" fill="white"/>
<path d="M96.9102 159.874C91.1685 159.874 87.1567 154.73 85.8685 152.158C95.1436 141.577 105.928 147.749 110.16 152.158C108.136 154.73 102.652 159.874 96.9102 159.874Z" fill="#F34FA5"/>
<ellipse cx="108.748" cy="128.803" rx="12.1459" ry="11.2985" fill="#FFE5B9"/>
<ellipse cx="85.0211" cy="128.803" rx="12.1459" ry="11.2985" fill="#FFE5B9"/>
<path d="M109.03 115.033C109.03 119.596 103.719 128.803 97.1671 128.803C90.6151 128.803 85.3036 119.596 85.3036 115.033C85.3036 110.47 90.6151 106.771 97.1671 106.771C103.719 106.771 109.03 110.47 109.03 115.033Z" fill="#9F5937"/>
<path d="M105.076 149.705L103.381 157.896L106.488 155.919L105.076 149.705Z" fill="white"/>
<path d="M90.9528 150.835L89.823 157.331L92.9301 159.026L90.9528 150.835Z" fill="white"/>
<path d="M162.698 72.8752C158.179 59.0911 142.361 44.7232 135.017 39.2622L142.926 25.4216C142.474 37.6239 164.581 56.4924 175.692 64.4014L162.698 72.8752Z" fill="#67422D"/>
<path d="M31.6358 71.1805C36.1552 57.3963 53.9503 43.5933 61.2943 38.1324L57.9048 21.1846C58.3567 33.387 29.7527 54.7976 18.6425 62.7066L31.6358 71.1805Z" fill="#67422D"/>
</svg>
