<svg width="184" height="158" viewBox="0 0 184 158" fill="none" xmlns="http://www.w3.org/2000/svg">
<path d="M173.374 77.8878C173.374 121.624 137.918 157.079 94.1823 157.079C50.4461 157.079 14.991 121.624 14.991 77.8878C22.8123 37.4774 50.4461 10.7544 94.1823 10.7544C137.918 10.7544 160.012 33.5667 173.374 77.8878Z" fill="#74BE21"/>
<circle cx="138.829" cy="44.3211" r="32.3211" fill="white" stroke="#74BE21" stroke-width="24"/>
<circle cx="44.3211" cy="44.3211" r="32.3211" fill="white" stroke="#74BE21" stroke-width="24"/>
<ellipse cx="31.9373" cy="45.6247" rx="11.0803" ry="10.4285" fill="#423737"/>
<ellipse cx="153.168" cy="36.4997" rx="11.0803" ry="10.4285" fill="#423737"/>
<circle cx="34.8703" cy="39.4327" r="2.93301" fill="white"/>
<circle cx="156.101" cy="30.3078" r="2.93301" fill="white"/>
<path d="M171.092 98.093C90.0109 129.639 33.5667 109.282 16.9463 96.1376C20.857 111.454 38.7809 157.432 98.7448 157.079C143.066 156.818 165.987 117.646 171.092 98.093Z" fill="#FFDE88"/>
<path d="M141.762 130.682C132.377 133.289 127.64 118.081 126.445 110.151C129.835 110.151 140.241 107.109 145.021 105.588C147.846 112.867 151.148 128.075 141.762 130.682Z" fill="#FF837B"/>
<circle cx="102.655" cy="101.352" r="4.23657" fill="black"/>
<circle cx="84.4056" cy="101.352" r="4.23657" fill="black"/>
<path d="M73.9771 57.3567C38.7809 70.3923 20.2052 58.6603 16.9463 57.3567C19.2275 65.8298 24.4418 82.7394 46.9282 81.4726C65.4388 80.4297 72.6735 64.9608 73.9771 57.3567Z" fill="#6EB321" stroke="#74BE21"/>
<path d="M167.182 56.0532C131.986 69.0888 113.41 57.3567 110.151 56.0532C112.432 64.5263 117.646 81.4359 140.133 80.169C158.643 79.1262 165.878 63.6573 167.182 56.0532Z" fill="#6EB321" stroke="#74BE21"/>
</svg>
