<svg width="427" height="70" viewBox="0 0 427 70" fill="none" xmlns="http://www.w3.org/2000/svg">
<path d="M397.19 0H29.81C13.3464 0 0 13.3464 0 29.81V40.19C0 56.6536 13.3464 70 29.81 70H397.19C413.654 70 427 56.6536 427 40.19V29.81C427 13.3464 413.654 0 397.19 0Z" fill="#E0A03B"/>
<path d="M172.134 46.04H181.894V49H168.494V21.12H172.134V46.04ZM189.4 24.08V33.4H199.56V36.4H189.4V46H200.76V49H185.76V21.08H200.76V24.08H189.4ZM222.748 42.8H210.588L208.348 49H204.507L214.588 21.28H218.788L228.828 49H224.988L222.748 42.8ZM221.708 39.84L216.668 25.76L211.628 39.84H221.708ZM210.788 18.92C210.974 17.56 211.414 16.52 212.108 15.8C212.828 15.08 213.721 14.72 214.788 14.72C215.294 14.72 215.721 14.8133 216.068 15C216.441 15.16 216.881 15.4 217.388 15.72C217.761 15.9867 218.094 16.2 218.388 16.36C218.681 16.4933 219.001 16.56 219.348 16.56C219.801 16.56 220.188 16.4133 220.508 16.12C220.828 15.8267 221.028 15.4 221.108 14.84H223.188C223.028 16.1733 222.588 17.2 221.868 17.92C221.148 18.64 220.254 19 219.188 19C218.681 19 218.228 18.92 217.828 18.76C217.454 18.5733 217.028 18.3067 216.548 17.96C216.121 17.6933 215.774 17.4933 215.508 17.36C215.268 17.2267 214.974 17.16 214.628 17.16C214.174 17.16 213.788 17.3067 213.467 17.6C213.174 17.8933 212.988 18.3333 212.908 18.92H210.788ZM245.861 49.28C243.274 49.28 240.914 48.68 238.781 47.48C236.647 46.2533 234.954 44.56 233.701 42.4C232.474 40.2133 231.861 37.76 231.861 35.04C231.861 32.32 232.474 29.88 233.701 27.72C234.954 25.5333 236.647 23.84 238.781 22.64C240.914 21.4133 243.274 20.8 245.861 20.8C248.474 20.8 250.847 21.4133 252.981 22.64C255.114 23.84 256.794 25.52 258.021 27.68C259.247 29.84 259.861 32.2933 259.861 35.04C259.861 37.7867 259.247 40.24 258.021 42.4C256.794 44.56 255.114 46.2533 252.981 47.48C250.847 48.68 248.474 49.28 245.861 49.28ZM245.861 46.12C247.807 46.12 249.554 45.6667 251.101 44.76C252.674 43.8533 253.901 42.56 254.781 40.88C255.687 39.2 256.141 37.2533 256.141 35.04C256.141 32.8 255.687 30.8533 254.781 29.2C253.901 27.52 252.687 26.2267 251.141 25.32C249.594 24.4133 247.834 23.96 245.861 23.96C243.887 23.96 242.127 24.4133 240.581 25.32C239.034 26.2267 237.807 27.52 236.901 29.2C236.021 30.8533 235.581 32.8 235.581 35.04C235.581 37.2533 236.021 39.2 236.901 40.88C237.807 42.56 239.034 43.8533 240.581 44.76C242.154 45.6667 243.914 46.12 245.861 46.12Z" fill="white"/>
</svg>
