<svg width="427" height="70" viewBox="0 0 427 70" fill="none" xmlns="http://www.w3.org/2000/svg">
<path d="M397.19 0H29.81C13.3464 0 0 13.3464 0 29.81V40.19C0 56.6536 13.3464 70 29.81 70H397.19C413.654 70 427 56.6536 427 40.19V29.81C427 13.3464 413.654 0 397.19 0Z" fill="#B18174"/>
<path d="M101.216 35.04C101.216 32.32 101.829 29.88 103.056 27.72C104.283 25.5333 105.949 23.8267 108.056 22.6C110.189 21.3733 112.549 20.76 115.136 20.76C118.176 20.76 120.829 21.4933 123.096 22.96C125.363 24.4267 127.016 26.5067 128.056 29.2H123.696C122.923 27.52 121.803 26.2267 120.336 25.32C118.896 24.4133 117.163 23.96 115.136 23.96C113.189 23.96 111.443 24.4133 109.896 25.32C108.349 26.2267 107.136 27.52 106.256 29.2C105.376 30.8533 104.936 32.8 104.936 35.04C104.936 37.2533 105.376 39.2 106.256 40.88C107.136 42.5333 108.349 43.8133 109.896 44.72C111.443 45.6267 113.189 46.08 115.136 46.08C117.163 46.08 118.896 45.64 120.336 44.76C121.803 43.8533 122.923 42.56 123.696 40.88H128.056C127.016 43.5467 125.363 45.6133 123.096 47.08C120.829 48.52 118.176 49.24 115.136 49.24C112.549 49.24 110.189 48.64 108.056 47.44C105.949 46.2133 104.283 44.52 103.056 42.36C101.829 40.2 101.216 37.76 101.216 35.04ZM149.955 42.8H137.795L135.555 49H131.715L141.795 21.28H145.995L156.035 49H152.195L149.955 42.8ZM148.915 39.84L143.875 25.76L138.835 39.84H148.915ZM159.068 35.04C159.068 32.32 159.681 29.88 160.908 27.72C162.134 25.5333 163.801 23.8267 165.908 22.6C168.041 21.3733 170.401 20.76 172.988 20.76C176.028 20.76 178.681 21.4933 180.948 22.96C183.214 24.4267 184.868 26.5067 185.908 29.2H181.548C180.774 27.52 179.654 26.2267 178.188 25.32C176.748 24.4133 175.014 23.96 172.988 23.96C171.041 23.96 169.294 24.4133 167.748 25.32C166.201 26.2267 164.988 27.52 164.108 29.2C163.228 30.8533 162.788 32.8 162.788 35.04C162.788 37.2533 163.228 39.2 164.108 40.88C164.988 42.5333 166.201 43.8133 167.748 44.72C169.294 45.6267 171.041 46.08 172.988 46.08C175.014 46.08 176.748 45.64 178.188 44.76C179.654 43.8533 180.774 42.56 181.548 40.88H185.908C184.868 43.5467 183.214 45.6133 180.948 47.08C178.681 48.52 176.028 49.24 172.988 49.24C170.401 49.24 168.041 48.64 165.908 47.44C163.801 46.2133 162.134 44.52 160.908 42.36C159.681 40.2 159.068 37.76 159.068 35.04ZM212.806 21.12V49H209.166V36.36H194.966V49H191.326V21.12H194.966V33.36H209.166V21.12H212.806ZM231.661 49.28C229.075 49.28 226.715 48.68 224.581 47.48C222.448 46.2533 220.755 44.56 219.501 42.4C218.275 40.2133 217.661 37.76 217.661 35.04C217.661 32.32 218.275 29.88 219.501 27.72C220.755 25.5333 222.448 23.84 224.581 22.64C226.715 21.4133 229.075 20.8 231.661 20.8C234.275 20.8 236.648 21.4133 238.781 22.64C240.915 23.84 242.595 25.52 243.821 27.68C245.048 29.84 245.661 32.2933 245.661 35.04C245.661 37.7867 245.048 40.24 243.821 42.4C242.595 44.56 240.915 46.2533 238.781 47.48C236.648 48.68 234.275 49.28 231.661 49.28ZM231.661 46.12C233.608 46.12 235.355 45.6667 236.901 44.76C238.475 43.8533 239.701 42.56 240.581 40.88C241.488 39.2 241.941 37.2533 241.941 35.04C241.941 32.8 241.488 30.8533 240.581 29.2C239.701 27.52 238.488 26.2267 236.941 25.32C235.395 24.4133 233.635 23.96 231.661 23.96C229.688 23.96 227.928 24.4133 226.381 25.32C224.835 26.2267 223.608 27.52 222.701 29.2C221.821 30.8533 221.381 32.8 221.381 35.04C221.381 37.2533 221.821 39.2 222.701 40.88C223.608 42.56 224.835 43.8533 226.381 44.76C227.955 45.6667 229.715 46.12 231.661 46.12ZM265.147 49L258.507 37.6H254.107V49H250.467V21.12H259.467C261.573 21.12 263.347 21.48 264.787 22.2C266.253 22.92 267.347 23.8933 268.067 25.12C268.787 26.3467 269.147 27.7467 269.147 29.32C269.147 31.24 268.587 32.9333 267.467 34.4C266.373 35.8667 264.72 36.84 262.507 37.32L269.507 49H265.147ZM254.107 34.68H259.467C261.44 34.68 262.92 34.2 263.907 33.24C264.893 32.2533 265.387 30.9467 265.387 29.32C265.387 27.6667 264.893 26.3867 263.907 25.48C262.947 24.5733 261.467 24.12 259.467 24.12H254.107V34.68ZM289.483 49L282.843 37.6H278.443V49H274.803V21.12H283.803C285.909 21.12 287.683 21.48 289.123 22.2C290.589 22.92 291.683 23.8933 292.403 25.12C293.123 26.3467 293.483 27.7467 293.483 29.32C293.483 31.24 292.923 32.9333 291.803 34.4C290.709 35.8667 289.056 36.84 286.843 37.32L293.843 49H289.483ZM278.443 34.68H283.803C285.776 34.68 287.256 34.2 288.243 33.24C289.229 32.2533 289.723 30.9467 289.723 29.32C289.723 27.6667 289.229 26.3867 288.243 25.48C287.283 24.5733 285.803 24.12 283.803 24.12H278.443V34.68ZM311.779 49.28C309.192 49.28 306.832 48.68 304.699 47.48C302.565 46.2533 300.872 44.56 299.619 42.4C298.392 40.2133 297.779 37.76 297.779 35.04C297.779 32.32 298.392 29.88 299.619 27.72C300.872 25.5333 302.565 23.84 304.699 22.64C306.832 21.4133 309.192 20.8 311.779 20.8C314.392 20.8 316.765 21.4133 318.899 22.64C321.032 23.84 322.712 25.52 323.939 27.68C325.165 29.84 325.779 32.2933 325.779 35.04C325.779 37.7867 325.165 40.24 323.939 42.4C322.712 44.56 321.032 46.2533 318.899 47.48C316.765 48.68 314.392 49.28 311.779 49.28ZM311.779 46.12C313.725 46.12 315.472 45.6667 317.019 44.76C318.592 43.8533 319.819 42.56 320.699 40.88C321.605 39.2 322.059 37.2533 322.059 35.04C322.059 32.8 321.605 30.8533 320.699 29.2C319.819 27.52 318.605 26.2267 317.059 25.32C315.512 24.4133 313.752 23.96 311.779 23.96C309.805 23.96 308.045 24.4133 306.499 25.32C304.952 26.2267 303.725 27.52 302.819 29.2C301.939 30.8533 301.499 32.8 301.499 35.04C301.499 37.2533 301.939 39.2 302.819 40.88C303.725 42.56 304.952 43.8533 306.499 44.76C308.072 45.6667 309.832 46.12 311.779 46.12Z" fill="white"/>
</svg>
