<svg width="427" height="70" viewBox="0 0 427 70" fill="none" xmlns="http://www.w3.org/2000/svg">
<path d="M397.19 0H29.81C13.3464 0 0 13.3464 0 29.81V40.19C0 56.6536 13.3464 70 29.81 70H397.19C413.654 70 427 56.6536 427 40.19V29.81C427 13.3464 413.654 0 397.19 0Z" fill="#FECA74"/>
<path d="M181.614 29.2C180.841 27.5733 179.721 26.32 178.254 25.44C176.787 24.5333 175.081 24.08 173.134 24.08C171.187 24.08 169.427 24.5333 167.854 25.44C166.307 26.32 165.081 27.6 164.174 29.28C163.294 30.9333 162.854 32.8533 162.854 35.04C162.854 37.2267 163.294 39.1467 164.174 40.8C165.081 42.4533 166.307 43.7333 167.854 44.64C169.427 45.52 171.187 45.96 173.134 45.96C175.854 45.96 178.094 45.1467 179.854 43.52C181.614 41.8933 182.641 39.6933 182.934 36.92H171.814V33.96H186.814V36.76C186.601 39.0533 185.881 41.16 184.654 43.08C183.427 44.9733 181.814 46.48 179.814 47.6C177.814 48.6933 175.587 49.24 173.134 49.24C170.547 49.24 168.187 48.64 166.054 47.44C163.921 46.2133 162.227 44.52 160.974 42.36C159.747 40.2 159.134 37.76 159.134 35.04C159.134 32.32 159.747 29.88 160.974 27.72C162.227 25.5333 163.921 23.84 166.054 22.64C168.187 21.4133 170.547 20.8 173.134 20.8C176.094 20.8 178.707 21.5333 180.974 23C183.267 24.4667 184.934 26.5333 185.974 29.2H181.614ZM208.107 42.8H195.947L193.707 49H189.867L199.947 21.28H204.147L214.187 49H210.347L208.107 42.8ZM207.067 39.84L202.027 25.76L196.987 39.84H207.067ZM235.74 21.12V24.08H228.14V49H224.5V24.08H216.86V21.12H235.74ZM252.861 49.28C250.274 49.28 247.914 48.68 245.781 47.48C243.647 46.2533 241.954 44.56 240.701 42.4C239.474 40.2133 238.861 37.76 238.861 35.04C238.861 32.32 239.474 29.88 240.701 27.72C241.954 25.5333 243.647 23.84 245.781 22.64C247.914 21.4133 250.274 20.8 252.861 20.8C255.474 20.8 257.847 21.4133 259.981 22.64C262.114 23.84 263.794 25.52 265.021 27.68C266.247 29.84 266.861 32.2933 266.861 35.04C266.861 37.7867 266.247 40.24 265.021 42.4C263.794 44.56 262.114 46.2533 259.981 47.48C257.847 48.68 255.474 49.28 252.861 49.28ZM252.861 46.12C254.807 46.12 256.554 45.6667 258.101 44.76C259.674 43.8533 260.901 42.56 261.781 40.88C262.687 39.2 263.141 37.2533 263.141 35.04C263.141 32.8 262.687 30.8533 261.781 29.2C260.901 27.52 259.687 26.2267 258.141 25.32C256.594 24.4133 254.834 23.96 252.861 23.96C250.887 23.96 249.127 24.4133 247.581 25.32C246.034 26.2267 244.807 27.52 243.901 29.2C243.021 30.8533 242.581 32.8 242.581 35.04C242.581 37.2533 243.021 39.2 243.901 40.88C244.807 42.56 246.034 43.8533 247.581 44.76C249.154 45.6667 250.914 46.12 252.861 46.12Z" fill="white"/>
</svg>
