<svg width="427" height="70" viewBox="0 0 427 70" fill="none" xmlns="http://www.w3.org/2000/svg">
<path d="M397.19 0H29.81C13.3464 0 0 13.3464 0 29.81V40.19C0 56.6536 13.3464 70 29.81 70H397.19C413.654 70 427 56.6536 427 40.19V29.81C427 13.3464 413.654 0 397.19 0Z" fill="#C8A9F2"/>
<path d="M152.736 42.8H140.576L138.336 49H134.496L144.576 21.28H148.776L158.816 49H154.976L152.736 42.8ZM151.696 39.84L146.656 25.76L141.616 39.84H151.696ZM185.129 49H181.489L166.849 26.8V49H163.209V21.08H166.849L181.489 43.24V21.08H185.129V49ZM194.974 21.12V49H191.334V21.12H194.974ZM229.458 21.32V49H225.818V28.36L216.618 49H214.058L204.818 28.32V49H201.178V21.32H205.098L215.338 44.2L225.578 21.32H229.458ZM252.111 42.8H239.951L237.711 49H233.871L243.951 21.28H248.151L258.191 49H254.351L252.111 42.8ZM251.071 39.84L246.031 25.76L240.991 39.84H251.071ZM266.224 21.12V49H262.584V21.12H266.224ZM281.268 49.28C279.428 49.28 277.774 48.96 276.308 48.32C274.868 47.6533 273.734 46.7467 272.908 45.6C272.081 44.4267 271.654 43.08 271.628 41.56H275.508C275.641 42.8667 276.174 43.9733 277.108 44.88C278.068 45.76 279.454 46.2 281.268 46.2C283.001 46.2 284.361 45.7733 285.348 44.92C286.361 44.04 286.868 42.92 286.868 41.56C286.868 40.4933 286.574 39.6267 285.988 38.96C285.401 38.2933 284.668 37.7867 283.788 37.44C282.908 37.0933 281.721 36.72 280.228 36.32C278.388 35.84 276.908 35.36 275.788 34.88C274.694 34.4 273.748 33.6533 272.948 32.64C272.174 31.6 271.788 30.2133 271.788 28.48C271.788 26.96 272.174 25.6133 272.948 24.44C273.721 23.2667 274.801 22.36 276.188 21.72C277.601 21.08 279.214 20.76 281.028 20.76C283.641 20.76 285.774 21.4133 287.428 22.72C289.108 24.0267 290.054 25.76 290.268 27.92H286.268C286.134 26.8533 285.574 25.92 284.588 25.12C283.601 24.2933 282.294 23.88 280.668 23.88C279.148 23.88 277.908 24.28 276.948 25.08C275.988 25.8533 275.508 26.9467 275.508 28.36C275.508 29.3733 275.788 30.2 276.348 30.84C276.934 31.48 277.641 31.9733 278.468 32.32C279.321 32.64 280.508 33.0133 282.028 33.44C283.868 33.9467 285.348 34.4533 286.468 34.96C287.588 35.44 288.548 36.2 289.348 37.24C290.148 38.2533 290.548 39.64 290.548 41.4C290.548 42.76 290.188 44.04 289.468 45.24C288.748 46.44 287.681 47.4133 286.268 48.16C284.854 48.9067 283.188 49.28 281.268 49.28Z" fill="white"/>
</svg>
