<svg width="427" height="70" viewBox="0 0 427 70" fill="none" xmlns="http://www.w3.org/2000/svg">
<path d="M397.19 0H29.81C13.3464 0 0 13.3464 0 29.81V40.19C0 56.6536 13.3464 70 29.81 70H397.19C413.654 70 427 56.6536 427 40.19V29.81C427 13.3464 413.654 0 397.19 0Z" fill="#74BE21"/>
<path d="M172.4 49.28C170.56 49.28 168.907 48.96 167.44 48.32C166 47.6533 164.867 46.7467 164.04 45.6C163.214 44.4267 162.787 43.08 162.76 41.56H166.64C166.774 42.8667 167.307 43.9733 168.24 44.88C169.2 45.76 170.587 46.2 172.4 46.2C174.134 46.2 175.494 45.7733 176.48 44.92C177.494 44.04 178 42.92 178 41.56C178 40.4933 177.707 39.6267 177.12 38.96C176.534 38.2933 175.8 37.7867 174.92 37.44C174.04 37.0933 172.854 36.72 171.36 36.32C169.52 35.84 168.04 35.36 166.92 34.88C165.827 34.4 164.88 33.6533 164.08 32.64C163.307 31.6 162.92 30.2133 162.92 28.48C162.92 26.96 163.307 25.6133 164.08 24.44C164.854 23.2667 165.934 22.36 167.32 21.72C168.734 21.08 170.347 20.76 172.16 20.76C174.774 20.76 176.907 21.4133 178.56 22.72C180.24 24.0267 181.187 25.76 181.4 27.92H177.4C177.267 26.8533 176.707 25.92 175.72 25.12C174.734 24.2933 173.427 23.88 171.8 23.88C170.28 23.88 169.04 24.28 168.08 25.08C167.12 25.8533 166.64 26.9467 166.64 28.36C166.64 29.3733 166.92 30.2 167.48 30.84C168.067 31.48 168.774 31.9733 169.6 32.32C170.454 32.64 171.64 33.0133 173.16 33.44C175 33.9467 176.48 34.4533 177.6 34.96C178.72 35.44 179.68 36.2 180.48 37.24C181.28 38.2533 181.68 39.64 181.68 41.4C181.68 42.76 181.32 44.04 180.6 45.24C179.88 46.44 178.814 47.4133 177.4 48.16C175.987 48.9067 174.32 49.28 172.4 49.28ZM203.517 42.8H191.357L189.117 49H185.277L195.357 21.28H199.557L209.597 49H205.757L203.517 42.8ZM202.477 39.84L197.437 25.76L192.397 39.84H202.477ZM232.63 29.28C232.63 31.6 231.83 33.5333 230.23 35.08C228.657 36.6 226.243 37.36 222.99 37.36H217.63V49H213.99V21.12H222.99C226.137 21.12 228.523 21.88 230.15 23.4C231.803 24.92 232.63 26.88 232.63 29.28ZM222.99 34.36C225.017 34.36 226.51 33.92 227.47 33.04C228.43 32.16 228.91 30.9067 228.91 29.28C228.91 25.84 226.937 24.12 222.99 24.12H217.63V34.36H222.99ZM249.794 49.28C247.208 49.28 244.848 48.68 242.714 47.48C240.581 46.2533 238.888 44.56 237.634 42.4C236.408 40.2133 235.794 37.76 235.794 35.04C235.794 32.32 236.408 29.88 237.634 27.72C238.888 25.5333 240.581 23.84 242.714 22.64C244.848 21.4133 247.208 20.8 249.794 20.8C252.408 20.8 254.781 21.4133 256.914 22.64C259.048 23.84 260.728 25.52 261.954 27.68C263.181 29.84 263.794 32.2933 263.794 35.04C263.794 37.7867 263.181 40.24 261.954 42.4C260.728 44.56 259.048 46.2533 256.914 47.48C254.781 48.68 252.408 49.28 249.794 49.28ZM249.794 46.12C251.741 46.12 253.488 45.6667 255.034 44.76C256.608 43.8533 257.834 42.56 258.714 40.88C259.621 39.2 260.074 37.2533 260.074 35.04C260.074 32.8 259.621 30.8533 258.714 29.2C257.834 27.52 256.621 26.2267 255.074 25.32C253.528 24.4133 251.768 23.96 249.794 23.96C247.821 23.96 246.061 24.4133 244.514 25.32C242.968 26.2267 241.741 27.52 240.834 29.2C239.954 30.8533 239.514 32.8 239.514 35.04C239.514 37.2533 239.954 39.2 240.834 40.88C241.741 42.56 242.968 43.8533 244.514 44.76C246.088 45.6667 247.848 46.12 249.794 46.12Z" fill="white"/>
</svg>
