<svg width="524" height="129" viewBox="0 0 524 129" fill="none" xmlns="http://www.w3.org/2000/svg">
<path d="M504.02 3.27002H20.78C11.1813 3.27002 3.39999 11.0513 3.39999 20.65V108.89C3.39999 118.489 11.1813 126.27 20.78 126.27H504.02C513.619 126.27 521.4 118.489 521.4 108.89V20.65C521.4 11.0513 513.619 3.27002 504.02 3.27002Z" fill="white"/>
<mask id="mask0_22_2" style="mask-type:luminance" maskUnits="userSpaceOnUse" x="3" y="3" width="519" height="124">
<path d="M504.02 3.27002H20.78C11.1813 3.27002 3.39999 11.0513 3.39999 20.65V108.89C3.39999 118.489 11.1813 126.27 20.78 126.27H504.02C513.619 126.27 521.4 118.489 521.4 108.89V20.65C521.4 11.0513 513.619 3.27002 504.02 3.27002Z" fill="white"/>
</mask>
<g mask="url(#mask0_22_2)">
<path d="M2.89999 38.77H520.9" stroke="#BCBCBC" stroke-miterlimit="10"/>
<path d="M3.39999 49.77H521.4" stroke="#BCBCBC" stroke-miterlimit="10"/>
<path d="M3.39999 60.77H521.4" stroke="#BCBCBC" stroke-miterlimit="10"/>
<path d="M3.39999 71.77H521.4" stroke="#BCBCBC" stroke-miterlimit="10"/>
<path d="M3.39999 84.77H521.4" stroke="#BCBCBC" stroke-miterlimit="10"/>
</g>
<path d="M504.02 3.27002H20.78C11.1813 3.27002 3.39999 11.0513 3.39999 20.65V108.89C3.39999 118.489 11.1813 126.27 20.78 126.27H504.02C513.619 126.27 521.4 118.489 521.4 108.89V20.65C521.4 11.0513 513.619 3.27002 504.02 3.27002Z" stroke="#46537F" stroke-width="5" stroke-miterlimit="10"/>
<path d="M111.85 29.55L112.47 29.9C111.66 25 110.85 20.1 110.05 15.19C109.96 14.64 109.01 14.76 109.07 15.32C109.22 16.89 108.88 18.45 108.08 19.82C107.24 21.26 106.02 22.2 104.55 22.93C103.97 23.21 104.48 24.07 105.05 23.79C106.67 23 108.02 21.9 108.94 20.33C109.86 18.76 110.23 17.06 110.06 15.33L109.08 15.46C109.89 20.36 110.7 25.26 111.5 30.17C111.54 30.42 111.88 30.61 112.12 30.52C113.78 29.84 115.58 29.08 116.48 27.42C117.21 26.08 117.1 24.28 115.82 23.31C114.54 22.34 112.85 22.95 111.94 24.14C110.7 25.78 111.2 27.94 111.69 29.75C111.86 30.37 112.82 30.11 112.65 29.48" fill="#A5A5A5"/>
<path d="M302.14 111.74L302.39 112.4C304.93 108.13 307.47 103.86 310.01 99.59C310.3 99.11 309.49 98.59 309.17 99.06C308.27 100.36 307.01 101.34 305.52 101.86C303.95 102.42 302.41 102.36 300.82 101.96C300.2 101.8 300.03 102.79 300.65 102.95C302.4 103.39 304.14 103.42 305.86 102.81C307.58 102.2 308.95 101.14 309.94 99.71L309.1 99.18C306.56 103.45 304.02 107.72 301.48 111.99C301.35 112.2 301.48 112.58 301.73 112.65C303.44 113.2 305.31 113.78 307.07 113.09C308.49 112.53 309.56 111.09 309.21 109.52C308.86 107.95 307.17 107.33 305.71 107.66C303.7 108.11 302.7 110.08 301.9 111.79C301.63 112.37 302.54 112.79 302.81 112.21" fill="#A5A5A5"/>
<path d="M77.04 117.71L77.72 117.89C75.92 114.14 73.59 110.68 70.81 107.6L70.71 108.39C72.93 107.34 75.14 106.28 77.36 105.23C77.88 104.98 78.39 104.74 78.91 104.49C79.5 104.21 80.11 103.83 80.73 103.63C80.97 103.56 81.21 103.6 81.39 103.4C81.65 103.13 81.51 102.8 81.34 102.52C81 101.97 80.14 102.48 80.48 103.02C80.56 103.19 80.59 103.2 80.54 103.04L80.69 102.69C80.95 102.46 80.74 102.59 80.54 102.64C80.38 102.68 80.23 102.75 80.08 102.82C79.6 103.04 79.12 103.28 78.64 103.51C77.72 103.95 76.79 104.39 75.87 104.83C73.99 105.73 72.1 106.62 70.22 107.52C69.91 107.67 69.92 108.09 70.12 108.31C72.85 111.33 75.12 114.73 76.88 118.4C76.99 118.63 77.36 118.73 77.56 118.58C78.69 117.76 79.76 116.75 80.36 115.47C80.87 114.39 81.17 112.89 80.41 111.85C79.65 110.81 78.11 111.16 77.14 111.75C76.03 112.43 75.24 113.56 75.01 114.84C74.9 115.47 75.86 115.74 75.97 115.11" fill="#A5A5A5"/>
<path d="M88.44 114.02C88.3 114 87.89 112.75 87.82 112.6C86.16 108.89 84.02 105.43 81.49 102.26C81.09 101.76 80.38 102.47 80.78 102.97C83.41 106.26 85.6 109.91 87.26 113.79C87.54 114.45 87.95 115.47 88.85 114.92C89.2 114.71 89.45 114.31 89.69 113.99C90.01 113.58 90.3 113.15 90.57 112.7C91.39 111.33 92.6 109.05 91.15 107.67C89.57 106.17 87.06 108.1 86.1 109.42" fill="#A5A5A5"/>
<path d="M386.06 26.89L386.76 27.07C384.93 23.32 382.56 19.86 379.72 16.78L379.62 17.57C381.88 16.52 384.14 15.46 386.39 14.41C386.92 14.16 387.44 13.92 387.97 13.67C388.57 13.39 389.19 13.01 389.82 12.81C390.06 12.74 390.3 12.78 390.49 12.58C390.75 12.31 390.61 11.98 390.44 11.7C390.1 11.15 389.21 11.66 389.56 12.2C389.65 12.37 389.67 12.38 389.62 12.22L389.77 11.87C390.03 11.64 389.82 11.77 389.62 11.82C389.46 11.86 389.3 11.93 389.15 12C388.66 12.22 388.17 12.46 387.68 12.69C386.74 13.13 385.8 13.57 384.86 14.01C382.94 14.91 381.02 15.8 379.1 16.7C378.79 16.85 378.79 17.27 379 17.49C381.78 20.51 384.09 23.91 385.88 27.58C385.99 27.81 386.37 27.91 386.58 27.76C387.73 26.94 388.82 25.93 389.43 24.65C389.95 23.57 390.26 22.07 389.49 21.03C388.72 19.99 387.15 20.34 386.16 20.93C385.03 21.61 384.23 22.74 383.99 24.02C383.87 24.65 384.86 24.92 384.97 24.29" fill="#A5A5A5"/>
<path d="M397.66 23.2C397.52 23.18 397.1 21.93 397.03 21.78C395.34 18.07 393.16 14.61 390.58 11.44C390.17 10.94 389.45 11.65 389.86 12.15C392.54 15.44 394.77 19.09 396.45 22.97C396.74 23.63 397.15 24.65 398.07 24.1C398.42 23.89 398.68 23.49 398.93 23.17C399.25 22.76 399.55 22.33 399.83 21.88C400.66 20.51 401.9 18.23 400.42 16.85C398.81 15.35 396.26 17.28 395.27 18.6" fill="#A5A5A5"/>
<path d="M197.66 23.31L197.81 24.01C200.34 20.7 202.38 17.03 203.87 13.12L203.12 13.38C205.07 14.93 207.02 16.48 208.97 18.03C209.43 18.39 209.88 18.75 210.34 19.11C210.86 19.52 211.48 19.9 211.93 20.38C212.1 20.56 212.17 20.8 212.44 20.88C212.8 20.99 213.03 20.72 213.2 20.44C213.53 19.89 212.69 19.32 212.36 19.88C212.24 20.03 212.25 20.06 212.37 19.95L212.75 19.93C213.07 20.06 212.86 19.93 212.72 19.77C212.61 19.64 212.48 19.54 212.34 19.43C211.92 19.09 211.49 18.76 211.07 18.42C210.26 17.77 209.44 17.13 208.63 16.48C206.97 15.16 205.31 13.85 203.65 12.53C203.38 12.32 203.01 12.51 202.9 12.79C201.44 16.63 199.43 20.21 196.95 23.45C196.8 23.65 196.87 24.03 197.1 24.15C198.35 24.81 199.74 25.34 201.16 25.31C202.36 25.29 203.84 24.9 204.42 23.74C205 22.58 204 21.34 203.02 20.72C201.91 20.01 200.54 19.8 199.29 20.16C198.68 20.34 198.87 21.34 199.49 21.16" fill="#A5A5A5"/>
<path d="M206.14 32.05C206.1 31.91 207.03 30.99 207.13 30.85C209.69 27.69 211.82 24.19 213.5 20.46C213.77 19.87 212.81 19.55 212.55 20.13C210.8 24 208.53 27.62 205.81 30.86C205.35 31.41 204.62 32.24 205.52 32.82C205.87 33.04 206.34 33.09 206.73 33.17C207.25 33.27 207.76 33.35 208.29 33.4C209.89 33.53 212.48 33.62 213.05 31.68C213.67 29.57 210.81 28.14 209.18 27.86" fill="#A5A5A5"/>
<path d="M216.96 35.51L217.06 36.3C219.16 33.73 221.35 31.24 223.63 28.83C223.85 28.59 223.81 28.21 223.53 28.04C219.95 25.87 216.66 23.29 213.7 20.33C213.24 19.87 212.54 20.58 212.99 21.04C216 24.05 219.37 26.69 223.02 28.9L222.92 28.11C220.64 30.52 218.45 33.01 216.35 35.58C216.15 35.83 216.15 36.18 216.45 36.37C217.63 37.09 219.01 37.46 220.39 37.37C221.55 37.3 222.89 36.93 223.43 35.79C223.9 34.81 223.53 33.63 222.47 33.24C221.9 33.03 221.27 33.07 220.68 33.12C219.87 33.19 219.05 33.26 218.24 33.34C217.6 33.4 217.6 34.4 218.24 34.34" fill="#A5A5A5"/>
<path d="M405.87 115.48L406.54 115.75C405.23 111.79 403.34 108.04 400.95 104.61L400.74 105.37C403.12 104.63 405.5 103.89 407.88 103.15C408.44 102.98 408.99 102.8 409.55 102.63C410.18 102.43 410.85 102.14 411.5 102.03C411.75 101.99 411.98 102.07 412.2 101.89C412.5 101.65 412.4 101.31 412.27 101.01C412 100.42 411.06 100.8 411.33 101.39C411.39 101.57 411.41 101.58 411.39 101.42L411.59 101.09C411.88 100.9 411.65 101 411.45 101.02C411.28 101.04 411.12 101.09 410.96 101.14C410.44 101.29 409.93 101.46 409.41 101.62C408.42 101.93 407.43 102.24 406.44 102.55C404.42 103.18 402.4 103.81 400.37 104.44C400.04 104.54 399.99 104.96 400.16 105.2C402.51 108.57 404.34 112.24 405.62 116.12C405.7 116.36 406.06 116.51 406.29 116.39C407.54 115.73 408.76 114.88 409.54 113.69C410.2 112.69 410.71 111.25 410.08 110.11C409.45 108.97 407.86 109.11 406.79 109.56C405.58 110.08 404.63 111.09 404.23 112.33C404.03 112.94 404.97 113.34 405.17 112.73" fill="#A5A5A5"/>
<path d="M417.86 113.39C417.72 113.35 417.48 112.06 417.43 111.89C416.26 107.99 414.56 104.26 412.43 100.78C412.09 100.23 411.29 100.84 411.62 101.38C413.83 105 415.55 108.92 416.7 112.99C416.89 113.68 417.17 114.75 418.15 114.33C418.53 114.17 418.84 113.81 419.12 113.53C419.5 113.16 419.85 112.78 420.18 112.37C421.19 111.13 422.72 109.03 421.44 107.47C420.05 105.77 417.26 107.33 416.11 108.51" fill="#A5A5A5"/>
<path d="M426.81 106.4L427.52 106.76C426.58 103.58 425.76 100.37 425.05 97.13C424.98 96.81 424.64 96.64 424.34 96.77C420.54 98.5 416.55 99.77 412.44 100.55C411.81 100.67 411.99 101.65 412.63 101.53C416.82 100.74 420.9 99.44 424.77 97.67L424.06 97.31C424.77 100.55 425.59 103.76 426.53 106.94C426.62 107.25 426.92 107.44 427.24 107.3C428.5 106.73 429.58 105.8 430.29 104.61C430.88 103.61 431.33 102.29 430.69 101.21C430.14 100.27 428.96 99.91 428.05 100.57C427.55 100.92 427.23 101.46 426.94 101.98C426.54 102.69 426.14 103.4 425.75 104.12C425.44 104.68 426.26 105.25 426.58 104.68" fill="#A5A5A5"/>
</svg>
