<svg width="124" height="105" viewBox="0 0 124 105" fill="none" xmlns="http://www.w3.org/2000/svg">
<path d="M110.2 24.7369L99.1274 11.3994L19.275 77.6941L30.348 91.0316L110.2 24.7369Z" fill="#E2CF64"/>
<path d="M122.96 12.1668L113.35 0.59056C113.079 0.264407 112.595 0.219506 112.269 0.490284L98.9554 11.5432C98.6292 11.814 98.5843 12.2979 98.8551 12.6241L108.466 24.2003C108.737 24.5264 109.221 24.5713 109.547 24.3005L122.86 13.2476C123.186 12.9768 123.231 12.4929 122.96 12.1668Z" fill="#FF7676"/>
<path d="M101.163 32.2436L95.8674 25.865L25.0563 84.6534L30.352 91.0321L101.163 32.2436Z" fill="#F9E96D"/>
<path d="M30.5135 90.4348L0 104.709L19.6421 77.3416" fill="#CDA998"/>
<path d="M115.081 21.4218L103.283 7.21057C102.952 6.81193 102.36 6.75706 101.962 7.08801L87.5845 19.024C87.1859 19.355 87.131 19.9464 87.4619 20.3451L99.2603 34.5563C99.5913 34.9549 100.183 35.0098 100.581 34.6789L114.958 22.7428C115.357 22.4119 115.412 21.8204 115.081 21.4218Z" fill="#ABB9BA"/>
<path d="M19.0002 77.0813C19.8036 76.61 20.6206 76.1342 21.4779 75.8649C22.3352 75.6001 23.2509 75.5731 23.8658 75.9771C24.6379 76.4888 24.7725 77.593 24.4763 78.6254C24.18 79.6578 23.5292 80.6408 22.8918 81.5968C24.2519 80.6722 25.8632 79.6847 27.1919 80.0124C27.6677 80.1291 28.0492 80.4074 28.3589 80.7395C29.1265 81.5609 29.499 82.7953 29.0636 84.0656C28.7315 85.0261 27.9908 85.8969 27.2682 86.7273C28.3006 86.0271 29.2701 85.1339 30.4057 84.7568C31.5413 84.3798 32.8834 84.869 32.6769 85.9553C32.5961 86.3907 32.2864 86.8126 31.9902 87.2031C31.3079 88.1098 30.6301 89.012 29.9479 89.9187C26.1056 85.5423 22.1961 81.2198 18.2192 76.9556" fill="#CDA998"/>
<path d="M8.99513 100.503C8.99513 100.503 9.6011 96.647 5.48506 97.0689L0 104.713L8.99513 100.503Z" fill="black"/>
<path d="M109.715 24.1602L100.087 12.5632L99.334 13.1883L108.962 24.7852L109.715 24.1602Z" fill="#8F9999"/>
<path d="M105.741 25.5027L96.1128 13.9058L95.3599 14.5308L104.988 26.1277L105.741 25.5027Z" fill="#8F9999"/>
</svg>
