<svg width="99" height="96" viewBox="0 0 99 96" fill="none" xmlns="http://www.w3.org/2000/svg">
<g clip-path="url(#clip0_775_10537)">
<path d="M48.854 96C75.4039 96 96.9269 74.5097 96.9269 48C96.9269 21.4903 75.4039 0 48.854 0C22.3041 0 0.781189 21.4903 0.781189 48C0.781189 74.5097 22.3041 96 48.854 96Z" fill="#FBF8EF"/>
<path d="M42.0337 15.1801L56.9062 24.2401C56.9062 24.2401 51.8586 39.0001 50.6267 37.7101C46.3903 33.4201 26.1997 38.6701 26.1997 38.6701L25.5988 26.5201L41.3727 14.0701L39.9305 0.840088" fill="#351A17"/>
<path d="M5.22789 60.09L21.0018 57.21L31.1872 73.53L25.2983 82.5C25.2983 82.5 10.6962 80.07 7.24094 74.52C3.78571 68.97 5.25794 60.09 5.25794 60.09H5.22789Z" fill="#351A17"/>
<path d="M61.6835 54L83.4364 54.09L81.844 71.43L63.1857 80.7L52.4294 70.14L61.6835 54Z" fill="#351A17"/>
<path d="M86.0503 16.3501L81.6637 23.9101C81.6637 23.9101 90.7374 33.0901 90.8276 40.5301L99 42.8101C99 42.8101 96.1757 23.6701 86.0203 16.3201L86.0503 16.3501Z" fill="#351A17"/>
<path d="M4.23645 33.9001L13.2201 23.2501L13.821 22.5301L13.0097 17.3401C13.0097 17.3401 1.68258 25.7701 4.23645 33.8701V33.9001Z" fill="#351A17"/>
<path d="M26.1997 38.6699L21.0018 57.1799L32.4191 74.5199L52.3994 70.1099L61.6835 53.9699L50.5967 37.6799C50.5967 37.6799 42.5445 32.3399 26.1697 38.6399L26.1997 38.6699Z" stroke="#351A17" stroke-width="0.5"/>
<path d="M56.9062 24.2399L81.6638 23.9399L90.3469 30.7199L90.8276 40.5599L83.4364 54.0899L81.844 71.4299L87.3724 76.7099" stroke="#351A17" stroke-width="0.5"/>
<path d="M63.1857 80.7L59.3399 94.86" stroke="#351A17" stroke-width="0.5"/>
<path d="M25.2983 82.5L29.3244 91.86" stroke="#351A17" stroke-width="0.5"/>
<path d="M25.5988 26.52L13.8209 22.53L4.23642 33.9L0.781189 42.27L5.22793 60.09" stroke="#351A17" stroke-width="0.5"/>
</g>
<defs>
<clipPath id="clip0_775_10537">
<rect width="99" height="96" fill="white"/>
</clipPath>
</defs>
</svg>
