<svg width="103" height="166" viewBox="0 0 103 166" fill="none" xmlns="http://www.w3.org/2000/svg">
<g clip-path="url(#clip0_775_10503)">
<path d="M42.75 47.1199L41.84 47.47L39.03 40.2L14.38 49.7299L17.19 57L16.28 57.3499C3.16999 62.4199 -3.35001 77.16 1.71999 90.26L20.64 148.6C25.71 161.71 40.44 168.23 53.55 163.16L86.34 150.48C99.45 145.41 105.97 130.68 100.9 117.57L75.66 61.6699C70.59 48.5599 55.86 42.04 42.75 47.11V47.1199Z" fill="#F2F2F2"/>
<mask id="mask0_775_10503" style="mask-type:luminance" maskUnits="userSpaceOnUse" x="0" y="40" width="103" height="125">
<path d="M42.75 47.1199L41.84 47.47L39.03 40.2L14.38 49.7299L17.19 57L16.28 57.3499C3.16999 62.4199 -3.35001 77.16 1.71999 90.26L20.64 148.6C25.71 161.71 40.44 168.23 53.55 163.16L86.34 150.48C99.45 145.41 105.97 130.68 100.9 117.57L75.66 61.6699C70.59 48.5599 55.86 42.04 42.75 47.11V47.1199Z" fill="white"/>
</mask>
<g mask="url(#mask0_775_10503)">
<path d="M11.03 112.62C11.45 113.56 13.54 145.58 39.42 153.96C65.65 162.45 88.16 149.85 90.63 148.06C93.11 146.28 32.64 182.3 21.96 155.22C11.28 128.15 11.02 112.62 11.02 112.62H11.03Z" fill="#CECECE"/>
</g>
<path d="M47.9955 75.2278L31.3281 81.6726C19.4392 86.2697 13.528 99.6342 18.1251 111.523L20.6604 118.08C25.2575 129.969 38.6221 135.88 50.511 131.283L67.1783 124.838C79.0672 120.241 84.9784 106.877 80.3814 94.9877L77.846 88.4308C73.2489 76.5419 59.8844 70.6307 47.9955 75.2278Z" fill="#C8A9F2"/>
<path d="M12.31 40.0001L10.23 34.6301C10.23 34.6301 10.88 32.5601 12.59 32.2701C14.29 31.9801 7.07001 3.90011 7.07001 3.90011C7.07001 3.90011 7.69001 -2.87989 13.38 1.46011L28.27 25.8501C28.27 25.8501 31.81 26.1101 33.09 27.9801C34.37 29.8501 34.78 30.9601 34.78 30.9601L12.32 40.0101L12.31 40.0001Z" fill="#E1A9AF"/>
<path d="M29.1192 29.1425L14.2799 34.8804C10.1178 36.4898 8.04837 41.1685 9.65775 45.3307L10.5485 47.6344C12.1579 51.7966 16.8367 53.866 20.9988 52.2566L35.8381 46.5187C40.0003 44.9093 42.0697 40.2306 40.4603 36.0685L39.5695 33.7647C37.9601 29.6025 33.2814 27.5331 29.1192 29.1425Z" fill="#F1F0F1"/>
<path d="M11.3822 38.543L9.48877 39.2751L14.3756 51.9133L16.2689 51.1811L11.3822 38.543Z" fill="#D8D8D8"/>
<path d="M14.435 37.3616L12.5416 38.0938L17.4283 50.7319L19.3217 49.9997L14.435 37.3616Z" fill="#D8D8D8"/>
<path d="M17.4748 36.1849L15.5814 36.917L20.4682 49.5551L22.3616 48.823L17.4748 36.1849Z" fill="#D8D8D8"/>
<path d="M20.5083 35.0172L18.6149 35.7493L23.5016 48.3874L25.395 47.6553L20.5083 35.0172Z" fill="#D8D8D8"/>
<path d="M23.5481 33.8402L21.6547 34.5723L26.5415 47.2104L28.4349 46.4783L23.5481 33.8402Z" fill="#D8D8D8"/>
<path d="M26.588 32.6531L24.6946 33.3853L29.5814 46.0234L31.4747 45.2912L26.588 32.6531Z" fill="#D8D8D8"/>
<path d="M29.6314 31.4857L27.738 32.2178L32.6248 44.8559L34.5182 44.1238L29.6314 31.4857Z" fill="#D8D8D8"/>
<path d="M32.6712 30.3087L30.7778 31.0408L35.6646 43.6789L37.558 42.9468L32.6712 30.3087Z" fill="#D8D8D8"/>
<path d="M35.7147 29.1409L33.8213 29.873L38.7081 42.5112L40.6015 41.779L35.7147 29.1409Z" fill="#D8D8D8"/>
<path d="M40.6315 44.6583L16.2973 54.0676L17.0294 55.961L41.3636 46.5517L40.6315 44.6583Z" fill="#D8D8D8"/>
<path d="M47.32 55.8999C56.31 55.5299 63.23 60.4299 68.67 67.1599C71.2 70.2999 75.61 65.8399 73.1 62.7299C66.68 54.7899 57.81 49.1999 47.32 49.6299C43.3 49.7999 43.28 56.0599 47.32 55.8899V55.8999Z" fill="white"/>
<path d="M41.66 103.4L38.46 104.64L37.63 102.5C37.39 101.88 37.2 101.5 37.08 101.37C36.95 101.24 36.77 101.22 36.54 101.31C36.28 101.41 36.14 101.57 36.15 101.78C36.15 101.99 36.27 102.41 36.51 103.04L38.72 108.76C38.95 109.36 39.14 109.73 39.28 109.89C39.42 110.05 39.62 110.07 39.86 109.98C40.1 109.89 40.22 109.74 40.22 109.53C40.22 109.32 40.09 108.87 39.83 108.2L39.23 106.65L42.43 105.41L42.62 105.89C43.11 107.16 43.37 108.1 43.4 108.71C43.43 109.31 43.21 109.93 42.75 110.57C42.29 111.21 41.61 111.7 40.7 112.05C39.76 112.41 38.92 112.54 38.18 112.44C37.44 112.34 36.86 112.02 36.43 111.5C36 110.98 35.55 110.11 35.09 108.9L33.7 105.3C33.36 104.41 33.13 103.74 33.02 103.27C32.91 102.8 32.93 102.31 33.07 101.78C33.21 101.25 33.51 100.77 33.95 100.33C34.39 99.8901 34.96 99.5301 35.66 99.2601C36.6 98.9001 37.45 98.7701 38.21 98.9001C38.96 99.0301 39.54 99.3201 39.95 99.7901C40.35 100.26 40.78 101.07 41.22 102.22L41.67 103.39L41.66 103.4Z" fill="white"/>
<path d="M50.84 101.97C51.32 103.21 51.63 104.09 51.77 104.63C51.91 105.17 51.91 105.71 51.77 106.25C51.63 106.79 51.34 107.28 50.91 107.71C50.48 108.14 49.91 108.49 49.22 108.76C48.56 109.02 47.93 109.14 47.32 109.12C46.71 109.11 46.16 108.95 45.68 108.64C45.19 108.33 44.82 107.94 44.56 107.45C44.3 106.97 43.93 106.09 43.44 104.82L42.63 102.71C42.15 101.47 41.84 100.59 41.7 100.05C41.56 99.5099 41.56 98.9699 41.7 98.4299C41.84 97.8899 42.13 97.3999 42.56 96.9699C42.99 96.5399 43.56 96.1899 44.25 95.9199C44.91 95.6699 45.54 95.5399 46.15 95.5599C46.76 95.5699 47.31 95.7299 47.79 96.0399C48.27 96.3499 48.65 96.7399 48.9 97.2299C49.15 97.7199 49.53 98.5899 50.02 99.8599L50.83 101.97H50.84ZM46.07 99.1599C45.85 98.5899 45.68 98.2299 45.55 98.0999C45.43 97.9599 45.26 97.9299 45.07 98.0099C44.9 98.0799 44.8 98.1899 44.76 98.3499C44.72 98.5099 44.82 98.9099 45.07 99.5499L47.29 105.3C47.57 106.01 47.77 106.45 47.89 106.59C48.01 106.73 48.18 106.77 48.39 106.68C48.61 106.6 48.71 106.44 48.7 106.23C48.69 106.01 48.54 105.54 48.26 104.82L46.07 99.1599Z" fill="white"/>
<path d="M52.45 93.0601L56.26 102.91L58.21 102.16L59.16 104.62L54.01 106.61L49.25 94.3001L52.45 93.0601Z" fill="white"/>
<path d="M61.09 89.72L67.68 101.32L64.41 102.58L63.38 100.43L62.23 100.87L62.89 103.16L59.58 104.44L56.45 91.5L61.08 89.71L61.09 89.72ZM62.45 98.29C61.75 96.96 60.92 95.3 59.96 93.31C60.55 95.79 61.01 97.6 61.34 98.72L62.44 98.29H62.45Z" fill="white"/>
</g>
<defs>
<clipPath id="clip0_775_10503">
<rect width="102.62" height="165.34" fill="white"/>
</clipPath>
</defs>
</svg>
