<svg width="117" height="145" viewBox="0 0 117 145" fill="none" xmlns="http://www.w3.org/2000/svg">
<g clip-path="url(#clip0_775_10530)">
<path d="M86.8919 40.0908C86.5224 41.9226 68.3913 72.6018 50.4884 91.9125C32.5856 111.223 11.6696 135.66 11.6696 135.66C11.6696 135.66 4.78048 140.015 8.16604 133.078C11.5516 126.141 61.2632 57.898 66.2245 53.1561C71.1771 48.4258 80.5254 36.7684 80.5254 36.7684L86.8919 40.0908Z" fill="#C6A16F"/>
<path d="M101.055 2.32097C101.055 2.32097 110.122 17.4203 103.712 29.4745C97.3016 41.5288 90.4125 45.8838 84.9607 42.9179C79.5293 39.949 78.8193 38.4189 78.8193 38.4189C78.8193 38.4189 71.3014 30.7287 80.4966 24.9171C89.6831 19.1171 106.607 14.8295 101.055 2.32097Z" fill="#661919"/>
<path d="M101.312 2.94926C101.312 2.94926 104.968 9.46112 98.7838 14.2342C92.6086 18.9956 88.5073 21.0549 91.3799 20.6396C94.2525 20.2243 99.1844 23.9102 97.9558 25.5541C96.7271 27.1981 99.1063 31.0659 100.794 28.7108C102.472 26.3674 102.517 31.852 102.517 31.852C102.517 31.852 111.488 17.7323 102.022 2.97135" fill="#E4827A"/>
</g>
<defs>
<clipPath id="clip0_775_10530">
<rect width="22.8379" height="163.781" fill="white" transform="translate(98.0465) rotate(36.773)"/>
</clipPath>
</defs>
</svg>
