<svg width="119" height="166" viewBox="0 0 119 166" fill="none" xmlns="http://www.w3.org/2000/svg">
<g clip-path="url(#clip0_775_10497)">
<path d="M89.85 138.4C89.05 135 86.9 132.11 84.93 129.24C81.8 124.69 78.98 119.92 76.51 114.97C74.7 111.34 73.03 107.42 73.36 103.38L73.15 103.25C69.53 103.75 66.97 103.23 63.34 103.73C62.42 103.86 61.47 104 60.73 104.55C59.89 105.18 59.48 106.22 59.13 107.21C55.41 117.6 52.74 128.37 51.19 139.3C50.5 144.17 50.05 149.31 51.91 153.86C53.17 156.95 55.41 159.55 57.94 161.73C59.09 162.72 60.32 163.64 61.7 164.27C65.61 166.07 70.18 165.37 74.36 164.34C77.71 163.51 81.17 162.38 83.54 159.88C85.3 158.02 86.29 155.57 87.23 153.19C89.11 148.46 91.02 143.36 89.86 138.4H89.85ZM70.52 157.74C63.56 158.44 57.15 151.42 56.21 142.06C55.27 132.7 60.15 124.55 67.12 123.85C74.08 123.15 80.49 130.17 81.43 139.53C82.37 148.89 77.49 157.04 70.52 157.74Z" fill="#A9F2C2"/>
<path d="M77.02 2.9599L53 96.4399L64.21 108.53L72.92 105.3L79.29 3.1999C79.29 3.1999 79.85 -3.8401 77.02 2.9499V2.9599Z" fill="#EDEDED"/>
<path d="M2.24002 117.37C1.19002 119.71 0.120024 122.12 0.0100241 124.68C-0.139976 128.13 1.47002 131.39 3.20002 134.37C5.37002 138.09 8.06002 141.85 12.07 143.4C13.49 143.95 15 144.19 16.51 144.33C19.83 144.63 23.26 144.43 26.36 143.18C30.92 141.34 34.3 137.44 37.31 133.55C44.06 124.82 49.93 115.41 54.79 105.5C55.25 104.56 55.72 103.54 55.58 102.5C55.46 101.58 54.9 100.8 54.35 100.05C52.19 97.1001 50.03 95.6301 47.86 92.6801L47.62 92.6201C44.95 95.6701 40.98 97.2101 37.11 98.4401C31.84 100.11 26.46 101.42 21.01 102.34C17.57 102.92 14 103.39 11.01 105.19C6.65002 107.81 4.32002 112.74 2.23002 117.38L2.24002 117.37ZM16.06 112.01C23.43 106.16 32.93 105.87 37.28 111.35C41.63 116.83 39.18 126.01 31.82 131.86C24.45 137.71 14.95 138 10.6 132.52C6.25002 127.04 8.70002 117.86 16.06 112.01Z" fill="#A9F2C2"/>
<path d="M117.11 20.02L66.79 102.39L50.3 102.77L46.54 94.27L115.35 18.56C115.35 18.56 120.01 13.25 117.11 20.02Z" fill="#EDEDED"/>
<path d="M64 98.24C66.7504 98.24 68.98 96.0104 68.98 93.26C68.98 90.5097 66.7504 88.28 64 88.28C61.2496 88.28 59.02 90.5097 59.02 93.26C59.02 96.0104 61.2496 98.24 64 98.24Z" fill="#5BA2DD"/>
</g>
<defs>
<clipPath id="clip0_775_10497">
<rect width="118.06" height="165.38" fill="white"/>
</clipPath>
</defs>
</svg>
