<svg width="64" height="67" viewBox="0 0 64 67" fill="none" xmlns="http://www.w3.org/2000/svg">
<path d="M32.01 63.44C49.5285 63.44 63.73 49.2385 63.73 31.72C63.73 14.2015 49.5285 0 32.01 0C14.4916 0 0.290039 14.2015 0.290039 31.72C0.290039 49.2385 14.4916 63.44 32.01 63.44Z" fill="#B29C74"/>
<path d="M31.72 66.44C49.2385 66.44 63.44 52.2385 63.44 34.72C63.44 17.2015 49.2385 3.00003 31.72 3.00003C14.2015 3.00003 0 17.2015 0 34.72C0 52.2385 14.2015 66.44 31.72 66.44Z" fill="white"/>
<mask id="mask0_286_397" style="mask-type:luminance" maskUnits="userSpaceOnUse" x="0" y="3" width="64" height="64">
<path d="M31.72 66.44C49.2385 66.44 63.44 52.2385 63.44 34.72C63.44 17.2015 49.2385 3.00003 31.72 3.00003C14.2015 3.00003 0 17.2015 0 34.72C0 52.2385 14.2015 66.44 31.72 66.44Z" fill="white"/>
</mask>
<g mask="url(#mask0_286_397)">
<path d="M33.9122 47.3597L22.5032 12.1626L-9.67837 22.5942L1.73068 57.7913L33.9122 47.3597Z" fill="#C4C4C4"/>
<path d="M22.49 12.14L12.08 15.7C12.08 15.7 9.38996 19.72 14.74 19.09C20.09 18.47 15.96 23 15.96 23C15.96 23 6.98997 26.05 9.94997 31.76C12.91 37.47 24.73 29.36 25.85 32.8C26.97 36.24 17.88 35.86 17.38 39.35C16.88 42.85 19.34 46.5 24.29 44.89C29.24 43.28 22.53 46.57 22.18 48.91C21.83 51.25 26.89 49.61 26.89 49.61L33.9 47.34L22.49 12.14Z" fill="#E4827A"/>
<path opacity="0.26" d="M32.2832 42.3287L30.0013 35.2893L-2.18021 45.7209L0.101605 52.7603L32.2832 42.3287Z" fill="white"/>
<path opacity="0.13" d="M-5.72009 20.15C-5.35009 22.4 10.5899 30.65 26.5399 36.76L25.2799 37.91C20.0599 35.91 11.8199 33.05 4.36991 29.26C-4.50009 24.75 -7.22009 22.33 -7.74009 20.72C-7.90009 20.21 -7.85009 19.78 -7.70009 19.4" fill="black"/>
<path d="M26.1599 35.19C17.9899 31.37 9.86993 27.21 2.28993 22.32C0.469934 21.15 -5.26007 18.25 -4.10007 15.71C-3.33007 14.03 -0.160068 13.33 1.38993 13.08C5.33993 12.46 9.22993 13.75 12.7999 15.29C13.4399 15.07 15.4499 14.42 15.4499 14.42C10.0599 12.11 1.89993 8.77996 -3.58007 11.96C-6.10007 13.42 -8.38007 15.76 -6.61007 18.57C-4.17007 22.43 1.72993 25.17 5.49993 27.38C11.8099 31.08 18.3299 34.45 24.9599 37.55C26.4999 38.27 27.7099 35.92 26.1599 35.2V35.19Z" fill="#9B9B9B"/>
<path d="M29.6699 33.65C29.6699 33.65 38.6999 38.52 46.5699 61.89C52.0399 78.14 46.1299 70.45 46.1299 70.45C46.1299 70.45 29.6499 86.35 33.4399 69.11C36.7599 53.96 33.8399 47.55 33.8399 47.55L29.6699 33.65Z" fill="#E4827A"/>
</g>
</svg>
