<svg width="64" height="68" viewBox="0 0 64 68" fill="none" xmlns="http://www.w3.org/2000/svg">
<g opacity="0.7">
<path d="M32.01 67.44C49.5285 67.44 63.73 53.2384 63.73 35.72C63.73 18.2015 49.5285 3.99997 32.01 3.99997C14.4916 3.99997 0.290039 18.2015 0.290039 35.72C0.290039 53.2384 14.4916 67.44 32.01 67.44Z" fill="#B29C74"/>
<path d="M31.72 63.44C49.2385 63.44 63.44 49.2384 63.44 31.72C63.44 14.2015 49.2385 0 31.72 0C14.2015 0 0 14.2015 0 31.72C0 49.2384 14.2015 63.44 31.72 63.44Z" fill="white"/>
<mask id="mask0_286_494" style="mask-type:luminance" maskUnits="userSpaceOnUse" x="0" y="0" width="64" height="64">
<path d="M31.72 63.44C49.2385 63.44 63.44 49.2384 63.44 31.72C63.44 14.2015 49.2385 0 31.72 0C14.2015 0 0 14.2015 0 31.72C0 49.2384 14.2015 63.44 31.72 63.44Z" fill="white"/>
</mask>
<g mask="url(#mask0_286_494)">
<path d="M33.9122 44.3597L22.5032 9.1626L-9.67837 19.5942L1.73068 54.7912L33.9122 44.3597Z" fill="#C4C4C4"/>
<path d="M22.49 9.13995L12.08 12.7C12.08 12.7 9.38996 16.72 14.74 16.09C20.09 15.47 15.96 20 15.96 20C15.96 20 6.98997 23.05 9.94997 28.76C12.91 34.47 24.73 26.36 25.85 29.8C26.97 33.24 17.88 32.86 17.38 36.35C16.88 39.85 19.34 43.5 24.29 41.89C29.24 40.28 22.53 43.57 22.18 45.91C21.83 48.25 26.89 46.61 26.89 46.61L33.9 44.34L22.49 9.13995Z" fill="#E4827A"/>
<path opacity="0.26" d="M32.2832 39.3287L30.0013 32.2892L-2.18021 42.7208L0.101605 49.7602L32.2832 39.3287Z" fill="white"/>
<path opacity="0.13" d="M-5.72009 17.15C-5.35009 19.4 10.5899 27.65 26.5399 33.76L25.2799 34.91C20.0599 32.91 11.8199 30.05 4.36991 26.26C-4.50009 21.75 -7.22009 19.33 -7.74009 17.72C-7.90009 17.21 -7.85009 16.78 -7.70009 16.4" fill="black"/>
<path d="M26.1599 32.19C17.9899 28.37 9.86993 24.21 2.28993 19.32C0.469934 18.15 -5.26007 15.2499 -4.10007 12.7099C-3.33007 11.0299 -0.160068 10.3299 1.38993 10.0799C5.33993 9.45993 9.22993 10.7499 12.7999 12.2899C13.4399 12.0699 15.4499 11.42 15.4499 11.42C10.0599 9.10995 1.89993 5.77993 -3.58007 8.95993C-6.10007 10.4199 -8.38007 12.76 -6.61007 15.57C-4.17007 19.43 1.72993 22.17 5.49993 24.38C11.8099 28.08 18.3299 31.45 24.9599 34.55C26.4999 35.27 27.7099 32.9199 26.1599 32.1999V32.19Z" fill="#9B9B9B"/>
<path d="M29.6699 30.65C29.6699 30.65 38.6999 35.52 46.5699 58.89C52.0399 75.14 46.1299 67.45 46.1299 67.45C46.1299 67.45 29.6499 83.35 33.4399 66.11C36.7599 50.96 33.8399 44.55 33.8399 44.55L29.6699 30.65Z" fill="#E4827A"/>
</g>
</g>
</svg>
