<svg width="64" height="68" viewBox="0 0 64 68" fill="none" xmlns="http://www.w3.org/2000/svg">
<g opacity="0.7">
<path d="M32.01 67.5C49.5285 67.5 63.73 53.2984 63.73 35.78C63.73 18.2615 49.5285 4.05997 32.01 4.05997C14.4916 4.05997 0.290039 18.2615 0.290039 35.78C0.290039 53.2984 14.4916 67.5 32.01 67.5Z" fill="#B29C74"/>
<path d="M31.72 63.44C49.2385 63.44 63.44 49.2384 63.44 31.72C63.44 14.2015 49.2385 0 31.72 0C14.2015 0 0 14.2015 0 31.72C0 49.2384 14.2015 63.44 31.72 63.44Z" fill="white"/>
<mask id="mask0_286_508" style="mask-type:luminance" maskUnits="userSpaceOnUse" x="0" y="0" width="64" height="64">
<path d="M31.72 63.44C49.2385 63.44 63.44 49.2384 63.44 31.72C63.44 14.2015 49.2385 0 31.72 0C14.2015 0 0 14.2015 0 31.72C0 49.2384 14.2015 63.44 31.72 63.44Z" fill="white"/>
</mask>
<g mask="url(#mask0_286_508)">
<path d="M39.8301 18.99H23.6101C19.0924 18.99 15.4301 22.6523 15.4301 27.17V63.2599C15.4301 67.7776 19.0924 71.44 23.6101 71.44H39.8301C44.3477 71.44 48.0101 67.7776 48.0101 63.2599V27.17C48.0101 22.6523 44.3477 18.99 39.8301 18.99Z" fill="#E2DDD9"/>
<path d="M50.04 36.9H13.39V74H50.04V36.9Z" fill="#7FAFE2"/>
</g>
</g>
</svg>
