<svg width="64" height="67" viewBox="0 0 64 67" fill="none" xmlns="http://www.w3.org/2000/svg">
<path d="M32.01 63.44C49.5285 63.44 63.73 49.2385 63.73 31.72C63.73 14.2015 49.5285 0 32.01 0C14.4916 0 0.290039 14.2015 0.290039 31.72C0.290039 49.2385 14.4916 63.44 32.01 63.44Z" fill="#B29C74"/>
<path d="M31.72 66.38C49.2385 66.38 63.44 52.1785 63.44 34.66C63.44 17.1415 49.2385 2.94003 31.72 2.94003C14.2015 2.94003 0 17.1415 0 34.66C0 52.1785 14.2015 66.38 31.72 66.38Z" fill="white"/>
<mask id="mask0_286_388" style="mask-type:luminance" maskUnits="userSpaceOnUse" x="0" y="2" width="64" height="65">
<path d="M31.72 66.38C49.2385 66.38 63.44 52.1785 63.44 34.66C63.44 17.1415 49.2385 2.94003 31.72 2.94003C14.2015 2.94003 0 17.1415 0 34.66C0 52.1785 14.2015 66.38 31.72 66.38Z" fill="white"/>
</mask>
<g mask="url(#mask0_286_388)">
<path d="M39.8301 21.93H23.6101C19.0924 21.93 15.4301 25.5923 15.4301 30.11V66.2C15.4301 70.7177 19.0924 74.38 23.6101 74.38H39.8301C44.3477 74.38 48.0101 70.7177 48.0101 66.2V30.11C48.0101 25.5923 44.3477 21.93 39.8301 21.93Z" fill="#E2DDD9"/>
<path d="M50.04 39.84H13.39V76.94H50.04V39.84Z" fill="#7FAFE2"/>
</g>
</svg>
