<svg width="64" height="68" viewBox="0 0 64 68" fill="none" xmlns="http://www.w3.org/2000/svg">
<g opacity="0.7">
<path d="M31.72 67.44C49.2385 67.44 63.44 53.2385 63.44 35.72C63.44 18.2015 49.2385 4 31.72 4C14.2015 4 0 18.2015 0 35.72C0 53.2385 14.2015 67.44 31.72 67.44Z" fill="#B29C74"/>
<path d="M31.72 63.44C49.2385 63.44 63.44 49.2385 63.44 31.72C63.44 14.2015 49.2385 0 31.72 0C14.2015 0 0 14.2015 0 31.72C0 49.2385 14.2015 63.44 31.72 63.44Z" fill="white"/>
<mask id="mask0_286_434" style="mask-type:luminance" maskUnits="userSpaceOnUse" x="0" y="0" width="64" height="64">
<path d="M31.72 63.44C49.2385 63.44 63.44 49.2385 63.44 31.72C63.44 14.2015 49.2385 0 31.72 0C14.2015 0 0 14.2015 0 31.72C0 49.2385 14.2015 63.44 31.72 63.44Z" fill="white"/>
</mask>
<g mask="url(#mask0_286_434)">
<path d="M33.73 35.11C34.28 36.27 36.92 60.61 35.01 78.6C33.1 96.59 31.64 118.64 31.64 118.64C31.64 118.64 29.64 123.87 28.65 118.66C27.66 113.45 26.95 55.45 27.73 50.8C28.51 46.16 28.86 35.9 28.86 35.9L33.73 35.11Z" fill="#C6A16F"/>
<path d="M25.99 8.5C25.99 8.5 37.19 13.08 38.62 22.35C40.05 31.62 38.05 36.85 33.83 37.46C29.62 38.06 28.6 37.51 28.6 37.51C28.6 37.51 21.3 36.37 23.97 29.39C26.64 22.42 34.19 13.1 25.99 8.5Z" fill="#661919"/>
<path d="M26.39 8.73001C26.39 8.73001 31.08 10.81 29.64 15.98C28.2 21.14 26.79 23.96 28.2 22.55C29.61 21.14 33.84 21.14 33.84 22.55C33.84 23.96 36.74 25.11 36.7 23.12C36.66 21.13 38.94 24.14 38.94 24.14C38.94 24.14 38.07 12.68 26.79 8.45001" fill="#E4827A"/>
</g>
</g>
</svg>
