<svg width="64" height="67" viewBox="0 0 64 67" fill="none" xmlns="http://www.w3.org/2000/svg">
<path d="M31.72 63.44C49.2385 63.44 63.44 49.2385 63.44 31.72C63.44 14.2015 49.2385 0 31.72 0C14.2015 0 0 14.2015 0 31.72C0 49.2385 14.2015 63.44 31.72 63.44Z" fill="#B29C74"/>
<path d="M31.72 66.44C49.2385 66.44 63.44 52.2385 63.44 34.72C63.44 17.2015 49.2385 3 31.72 3C14.2015 3 0 17.2015 0 34.72C0 52.2385 14.2015 66.44 31.72 66.44Z" fill="white"/>
<mask id="mask0_286_467" style="mask-type:luminance" maskUnits="userSpaceOnUse" x="0" y="3" width="64" height="64">
<path d="M31.72 66.44C49.2385 66.44 63.44 52.2385 63.44 34.72C63.44 17.2015 49.2385 3 31.72 3C14.2015 3 0 17.2015 0 34.72C0 52.2385 14.2015 66.44 31.72 66.44Z" fill="white"/>
</mask>
<g mask="url(#mask0_286_467)">
<path d="M33.73 38.11C34.28 39.27 36.92 63.61 35.01 81.6C33.1 99.59 31.64 121.64 31.64 121.64C31.64 121.64 29.64 126.87 28.65 121.66C27.66 116.45 26.95 58.45 27.73 53.8C28.51 49.16 28.86 38.9 28.86 38.9L33.73 38.11Z" fill="#C6A16F"/>
<path d="M25.99 11.5C25.99 11.5 37.19 16.08 38.62 25.35C40.05 34.62 38.05 39.85 33.83 40.46C29.62 41.06 28.6 40.51 28.6 40.51C28.6 40.51 21.3 39.37 23.97 32.39C26.64 25.42 34.19 16.1 25.99 11.5Z" fill="#661919"/>
<path d="M26.39 11.73C26.39 11.73 31.08 13.81 29.64 18.98C28.2 24.14 26.79 26.96 28.2 25.55C29.61 24.14 33.84 24.14 33.84 25.55C33.84 26.96 36.74 28.11 36.7 26.12C36.66 24.13 38.94 27.14 38.94 27.14C38.94 27.14 38.07 15.68 26.79 11.45" fill="#E4827A"/>
</g>
</svg>
