<svg width="64" height="67" viewBox="0 0 64 67" fill="none" xmlns="http://www.w3.org/2000/svg">
<path d="M31.72 63.44C49.2385 63.44 63.44 49.2385 63.44 31.72C63.44 14.2015 49.2385 0 31.72 0C14.2015 0 0 14.2015 0 31.72C0 49.2385 14.2015 63.44 31.72 63.44Z" fill="#B29C74"/>
<path d="M31.72 66.44C49.2385 66.44 63.44 52.2385 63.44 34.72C63.44 17.2015 49.2385 3 31.72 3C14.2015 3 0 17.2015 0 34.72C0 52.2385 14.2015 66.44 31.72 66.44Z" fill="white"/>
<mask id="mask0_436_34" style="mask-type:luminance" maskUnits="userSpaceOnUse" x="0" y="3" width="64" height="64">
<path d="M31.72 66.44C49.2385 66.44 63.44 52.2385 63.44 34.72C63.44 17.2015 49.2385 3 31.72 3C14.2015 3 0 17.2015 0 34.72C0 52.2385 14.2015 66.44 31.72 66.44Z" fill="white"/>
</mask>
<g mask="url(#mask0_436_34)">
<g clip-path="url(#clip0_436_34)">
<path d="M49.11 47.51C49.11 38.91 41.31 31.95 31.68 31.95C22.05 31.95 14.25 38.91 14.25 47.51C14.25 47.79 14.28 48.06 14.3 48.33C14.28 48.63 14.25 48.94 14.25 49.25V110.53C14.25 117.33 19.76 117.87 26.57 117.87H36.8C43.6 117.87 49.12 117.34 49.12 110.53V49.25C49.12 48.94 49.1 48.64 49.07 48.33C49.09 48.06 49.12 47.79 49.12 47.51H49.11Z" fill="#C4C4C4"/>
<path d="M32.9201 26.96H30.4301V31.94H32.9201V26.96Z" fill="#A8A8A8"/>
<path d="M36.04 21.98C35.01 21.98 34.17 21.14 34.17 20.11C34.17 19.08 35.01 18.24 36.04 18.24C36.26 18.24 36.47 18.28 36.66 18.35V17H26.7V28.21H36.66V21.87C36.46 21.94 36.26 21.98 36.04 21.98Z" fill="#D17671"/>
<path d="M42.88 117.86H37.9V33.19L42.88 35.68V117.86Z" fill="#DBDBDB"/>
<path d="M49.06 45.64H14.29C13.5776 45.64 13 46.2176 13 46.93V48.09C13 48.8025 13.5776 49.38 14.29 49.38H49.06C49.7724 49.38 50.35 48.8025 50.35 48.09V46.93C50.35 46.2176 49.7724 45.64 49.06 45.64Z" fill="#D6D6D6"/>
<path d="M29.1899 17H27.9399V28.21H29.1899V17Z" fill="#BC6A68"/>
<path d="M31.6801 17H30.4301V28.21H31.6801V17Z" fill="#BC6A68"/>
<path d="M34.17 17H32.92V28.21H34.17V17Z" fill="#BC6A68"/>
<path d="M36.66 21.98H35.41V28.21H36.66V21.98Z" fill="#BC6A68"/>
<path d="M49.11 49.37H14.25V50.62H49.11V49.37Z" fill="#8E8E8E"/>
<path d="M32.9201 28.21H30.4301V29.46H32.9201V28.21Z" fill="#8E8E8E"/>
<path d="M29.19 33.96C29.19 34.44 19.23 34.44 16.74 44.4" stroke="#CECECE" stroke-width="0.75" stroke-miterlimit="10" stroke-linecap="round"/>
</g>
</g>
<defs>
<clipPath id="clip0_436_34">
<rect width="37.35" height="100.86" fill="white" transform="translate(13 17)"/>
</clipPath>
</defs>
</svg>
