<svg width="64" height="68" viewBox="0 0 64 68" fill="none" xmlns="http://www.w3.org/2000/svg">
<g opacity="0.7">
<path d="M31.72 67.44C49.2385 67.44 63.44 53.2385 63.44 35.72C63.44 18.2015 49.2385 4 31.72 4C14.2015 4 0 18.2015 0 35.72C0 53.2385 14.2015 67.44 31.72 67.44Z" fill="#B29C74"/>
<path d="M31.72 63.44C49.2385 63.44 63.44 49.2385 63.44 31.72C63.44 14.2015 49.2385 0 31.72 0C14.2015 0 0 14.2015 0 31.72C0 49.2385 14.2015 63.44 31.72 63.44Z" fill="white"/>
<mask id="mask0_436_89" style="mask-type:luminance" maskUnits="userSpaceOnUse" x="0" y="0" width="64" height="64">
<path d="M31.72 63.44C49.2385 63.44 63.44 49.2385 63.44 31.72C63.44 14.2015 49.2385 0 31.72 0C14.2015 0 0 14.2015 0 31.72C0 49.2385 14.2015 63.44 31.72 63.44Z" fill="white"/>
</mask>
<g mask="url(#mask0_436_89)">
<g clip-path="url(#clip0_436_89)">
<path d="M49.11 44.51C49.11 35.91 41.31 28.95 31.68 28.95C22.05 28.95 14.25 35.91 14.25 44.51C14.25 44.79 14.28 45.06 14.3 45.33C14.28 45.63 14.25 45.94 14.25 46.25V107.53C14.25 114.33 19.76 114.87 26.57 114.87H36.8C43.6 114.87 49.12 114.34 49.12 107.53V46.25C49.12 45.94 49.1 45.64 49.07 45.33C49.09 45.06 49.12 44.79 49.12 44.51H49.11Z" fill="#C4C4C4"/>
<path d="M32.9201 23.96H30.4301V28.94H32.9201V23.96Z" fill="#A8A8A8"/>
<path d="M36.04 18.98C35.01 18.98 34.17 18.14 34.17 17.11C34.17 16.08 35.01 15.24 36.04 15.24C36.26 15.24 36.47 15.28 36.66 15.35V14H26.7V25.21H36.66V18.87C36.46 18.94 36.26 18.98 36.04 18.98Z" fill="#D17671"/>
<path d="M42.88 114.86H37.9V30.19L42.88 32.68V114.86Z" fill="#DBDBDB"/>
<path d="M49.06 42.64H14.29C13.5776 42.64 13 43.2176 13 43.93V45.09C13 45.8025 13.5776 46.38 14.29 46.38H49.06C49.7724 46.38 50.35 45.8025 50.35 45.09V43.93C50.35 43.2176 49.7724 42.64 49.06 42.64Z" fill="#D6D6D6"/>
<path d="M29.1899 14H27.9399V25.21H29.1899V14Z" fill="#BC6A68"/>
<path d="M31.6801 14H30.4301V25.21H31.6801V14Z" fill="#BC6A68"/>
<path d="M34.17 14H32.92V25.21H34.17V14Z" fill="#BC6A68"/>
<path d="M36.66 18.98H35.41V25.21H36.66V18.98Z" fill="#BC6A68"/>
<path d="M49.11 46.37H14.25V47.62H49.11V46.37Z" fill="#8E8E8E"/>
<path d="M32.9201 25.21H30.4301V26.46H32.9201V25.21Z" fill="#8E8E8E"/>
<path d="M29.19 30.96C29.19 31.44 19.23 31.44 16.74 41.4" stroke="#CECECE" stroke-width="0.75" stroke-miterlimit="10" stroke-linecap="round"/>
</g>
</g>
</g>
<defs>
<clipPath id="clip0_436_89">
<rect width="37.35" height="100.86" fill="white" transform="translate(13 14)"/>
</clipPath>
</defs>
</svg>
