<svg width="148" height="212" viewBox="0 0 148 212" fill="none" xmlns="http://www.w3.org/2000/svg">
<path d="M24.95 208.24H19.74L18.78 210.87H17.14L21.46 199.09H23.26L27.56 210.87H25.92L24.96 208.24H24.95ZM24.5 206.98L22.34 201L20.18 206.98H24.5Z" fill="#A6A6A6"/>
<path d="M30.9899 198.29V210.87H29.4299V198.29H30.9899Z" fill="#A6A6A6"/>
<path d="M37.47 202.83H35.5V210.87H33.94V202.83H32.72V201.55H33.94V200.89C33.94 199.85 34.21 199.09 34.75 198.6C35.29 198.12 36.16 197.88 37.36 197.88V199.17C36.68 199.17 36.19 199.3 35.91 199.57C35.63 199.84 35.49 200.28 35.49 200.89V201.55H37.46V202.83H37.47Z" fill="#A6A6A6"/>
<path d="M39.28 203.67C39.67 202.95 40.1999 202.39 40.8799 202C41.5599 201.61 42.32 201.41 43.15 201.41C43.98 201.41 44.6899 201.59 45.2899 201.94C45.8999 202.29 46.35 202.73 46.64 203.27V201.57H48.2199V210.89H46.64V209.16C46.33 209.7 45.8699 210.16 45.2599 210.51C44.6499 210.87 43.9399 211.05 43.1299 211.05C42.3199 211.05 41.5399 210.85 40.8699 210.44C40.1999 210.03 39.67 209.46 39.28 208.72C38.89 207.98 38.7 207.14 38.7 206.2C38.7 205.26 38.89 204.41 39.28 203.69V203.67ZM46.2199 204.36C45.9299 203.84 45.5499 203.44 45.0599 203.16C44.5699 202.88 44.04 202.74 43.46 202.74C42.88 202.74 42.3499 202.88 41.8699 203.15C41.3899 203.42 41.0099 203.82 40.7199 204.34C40.4299 204.86 40.2899 205.47 40.2899 206.18C40.2899 206.89 40.4299 207.51 40.7199 208.04C41.0099 208.57 41.3899 208.97 41.8699 209.25C42.3499 209.53 42.88 209.67 43.46 209.67C44.04 209.67 44.5799 209.53 45.0599 209.25C45.5499 208.97 45.9299 208.57 46.2199 208.04C46.5099 207.51 46.65 206.9 46.65 206.2C46.65 205.5 46.5099 204.89 46.2199 204.36Z" fill="#A6A6A6"/>
<path d="M53.82 201.93C54.44 201.58 55.14 201.4 55.93 201.4C56.77 201.4 57.53 201.6 58.21 201.99C58.89 202.38 59.42 202.95 59.8 203.66C60.19 204.38 60.38 205.22 60.38 206.17C60.38 207.12 60.19 207.95 59.8 208.69C59.41 209.43 58.88 210 58.2 210.41C57.52 210.82 56.76 211.02 55.93 211.02C55.1 211.02 54.41 210.84 53.8 210.49C53.19 210.14 52.73 209.69 52.42 209.15V210.87H50.86V198.29H52.42V203.29C52.74 202.74 53.21 202.28 53.82 201.93ZM58.36 204.34C58.07 203.82 57.69 203.42 57.2 203.15C56.71 202.88 56.18 202.74 55.6 202.74C55.02 202.74 54.5 202.88 54.02 203.16C53.53 203.44 53.15 203.84 52.86 204.37C52.57 204.9 52.42 205.51 52.42 206.2C52.42 206.89 52.57 207.52 52.86 208.04C53.15 208.57 53.54 208.97 54.02 209.25C54.51 209.53 55.03 209.67 55.6 209.67C56.17 209.67 56.72 209.53 57.2 209.25C57.69 208.97 58.07 208.57 58.36 208.04C58.65 207.51 58.79 206.89 58.79 206.18C58.79 205.47 58.65 204.87 58.36 204.34Z" fill="#A6A6A6"/>
<path d="M70.95 206.79H63.45C63.51 207.71 63.82 208.42 64.4 208.94C64.98 209.46 65.68 209.71 66.5 209.71C67.17 209.71 67.74 209.55 68.19 209.24C68.64 208.93 68.96 208.51 69.14 207.99H70.82C70.57 208.89 70.07 209.61 69.31 210.17C68.55 210.73 67.62 211.01 66.5 211.01C65.61 211.01 64.81 210.81 64.11 210.41C63.41 210.01 62.86 209.45 62.46 208.72C62.06 207.99 61.86 207.14 61.86 206.18C61.86 205.22 62.05 204.37 62.44 203.65C62.83 202.92 63.37 202.37 64.08 201.98C64.78 201.59 65.59 201.39 66.5 201.39C67.41 201.39 68.18 201.58 68.86 201.97C69.55 202.35 70.07 202.89 70.44 203.56C70.81 204.23 71 205 71 205.85C71 206.14 70.98 206.46 70.95 206.78V206.79ZM69 204.01C68.74 203.59 68.38 203.26 67.93 203.04C67.48 202.82 66.98 202.71 66.43 202.71C65.64 202.71 64.97 202.96 64.42 203.46C63.87 203.96 63.55 204.65 63.47 205.53H69.4C69.4 204.94 69.27 204.43 69.01 204.01H69Z" fill="#A6A6A6"/>
<path d="M74.96 202.83V208.32C74.96 208.77 75.0599 209.09 75.2499 209.28C75.4399 209.47 75.7799 209.56 76.2599 209.56H77.4099V210.87H76.0099C75.1399 210.87 74.4899 210.67 74.0599 210.28C73.6299 209.88 73.4099 209.23 73.4099 208.32V202.83H72.1899V201.55H73.4099V199.2H74.9699V201.55H77.4199V202.83H74.9699H74.96Z" fill="#A6A6A6"/>
<path d="M80.9999 210.43C80.2899 210.03 79.7299 209.47 79.3199 208.74C78.9099 208.01 78.71 207.16 78.71 206.2C78.71 205.24 78.92 204.41 79.33 203.68C79.75 202.95 80.32 202.39 81.03 202C81.75 201.61 82.55 201.41 83.45 201.41C84.35 201.41 85.1499 201.61 85.8699 202C86.5899 202.39 87.1599 202.95 87.5699 203.67C87.9799 204.39 88.1899 205.24 88.1899 206.2C88.1899 207.16 87.9799 208.01 87.5499 208.74C87.1199 209.47 86.5399 210.03 85.8099 210.43C85.0799 210.83 84.2699 211.03 83.3799 211.03C82.4899 211.03 81.6999 210.83 80.9899 210.43H80.9999ZM84.96 209.27C85.45 209.01 85.85 208.62 86.15 208.1C86.45 207.58 86.5999 206.94 86.5999 206.2C86.5999 205.46 86.45 204.82 86.15 204.3C85.85 203.78 85.4699 203.39 84.9899 203.14C84.5099 202.89 83.9899 202.76 83.4299 202.76C82.8699 202.76 82.3399 202.89 81.8599 203.14C81.3799 203.39 81.0099 203.78 80.7199 204.3C80.4299 204.82 80.2899 205.46 80.2899 206.2C80.2899 206.94 80.43 207.6 80.71 208.12C80.99 208.64 81.36 209.03 81.83 209.28C82.3 209.53 82.8099 209.66 83.3699 209.66C83.9299 209.66 84.45 209.53 84.95 209.27H84.96Z" fill="#A6A6A6"/>
<path d="M58.41 61.1302L56.49 55.4502H50.49" stroke="#B8D1F9" stroke-width="4"/>
<path d="M47.74 55.4502H39.76" stroke="#B8D1F9" stroke-width="4"/>
<path d="M38.3901 55.4502H32.3901L30.4601 61.1302" stroke="#B8D1F9" stroke-width="4"/>
<path d="M30.45 61.1802L28.52 66.8602H22.52" stroke="#B8D1F9" stroke-width="4"/>
<path d="M18.05 66.8602H12.05L14.0901 61.2202" stroke="#B8D1F9" stroke-width="4"/>
<path d="M15.8201 56.4598L32.5201 10.2998" stroke="#B8D1F9" stroke-width="4"/>
<path d="M33.3801 7.92004L35.4201 2.27002H41.4201" stroke="#B8D1F9" stroke-width="4"/>
<path d="M47.6401 2.27002H53.6401L55.6801 7.92004" stroke="#B8D1F9" stroke-width="4"/>
<path d="M57.4001 12.6699L74.1001 58.8399" stroke="#B8D1F9" stroke-width="4"/>
<path d="M74.96 61.2202L77.01 66.8602H71.01" stroke="#B8D1F9" stroke-width="4"/>
<path d="M66.35 66.8602H60.35L58.4301 61.1802" stroke="#B8D1F9" stroke-width="4"/>
<path d="M46.4399 43.3101H52.4399L50.52 37.6201" stroke="#B8D1F9" stroke-width="4"/>
<path d="M49.5701 34.8303L46.8301 26.7402" stroke="#B8D1F9" stroke-width="4"/>
<path d="M46.36 25.3402L44.44 19.6602L42.53 25.3502" stroke="#B8D1F9" stroke-width="4"/>
<path d="M41.6 28.1401L38.9 36.2201" stroke="#B8D1F9" stroke-width="4"/>
<path d="M38.43 37.6201L36.53 43.3101H42.53" stroke="#B8D1F9" stroke-width="4"/>
<path d="M28.69 155.7L22.98 157.56L21.12 151.86" stroke="#C0F2C3" stroke-width="4"/>
<path d="M19.67 147.39L5.56006 104.09" stroke="#C0F2C3" stroke-width="4"/>
<path d="M4.83002 101.86L2.96997 96.1603L8.67999 94.3003" stroke="#C0F2C3" stroke-width="4"/>
<path d="M13.05 92.8701L30.61 87.1501C36.85 85.1201 42.2 84.9501 46.66 86.6601C51.12 88.3701 54.1501 91.6701 55.7401 96.5701C56.9201 100.19 56.9501 103.5 55.8301 106.51C55.6701 106.94 55.49 107.37 55.29 107.78" stroke="#C0F2C3" stroke-width="4"/>
<path d="M54.15 109.76C53.06 111.35 51.64 112.75 49.89 113.95C51.98 113.73 53.97 113.88 55.84 114.41" stroke="#C0F2C3" stroke-width="4"/>
<path d="M60.23 116.48C63.27 118.55 65.37 121.35 66.52 124.89C68.19 130.02 67.73 134.67 65.12 138.84C62.51 143.01 58 146.14 51.59 148.23L31 154.94" stroke="#C0F2C3" stroke-width="4"/>
<path d="M24.16 110.42L26.0201 116.12L31.73 114.26" stroke="#C0F2C3" stroke-width="4"/>
<path d="M35.69 112.97L35.82 112.93C38.27 112.13 39.97 110.98 40.94 109.47C41.9 107.96 42.04 106.16 41.35 104.06C40.67 101.96 39.49 100.57 37.82 99.89C36.15 99.21 34.08 99.27 31.64 100.07L29.53 100.76" stroke="#C0F2C3" stroke-width="4"/>
<path d="M27.54 101.41L21.8301 103.27L23.6901 108.97" stroke="#C0F2C3" stroke-width="4"/>
<path d="M35.29 125.2L29.5901 127.06L31.4501 132.76" stroke="#C0F2C3" stroke-width="4"/>
<path d="M32.1501 134.91L34.0101 140.62L39.7101 138.76" stroke="#C0F2C3" stroke-width="4"/>
<path d="M44.09 137.33L45.03 137.03C47.54 136.21 49.29 135.01 50.29 133.43C51.29 131.85 51.44 129.98 50.74 127.82C50.04 125.66 48.77 124.2 46.94 123.45C45.11 122.69 42.94 122.72 40.44 123.54L37.49 124.5" stroke="#C0F2C3" stroke-width="4"/>
<path d="M145.5 89.23C145.83 91.14 145.99 93.14 145.97 95.21L140.18 93.64" stroke="#EEBBF3" stroke-width="4"/>
<path d="M135.08 92.2401L129.29 90.6701C128.91 88.5801 128.18 86.7301 127.1 85.1201" stroke="#EEBBF3" stroke-width="4"/>
<path d="M123.39 81.4001C121.93 80.4001 120.27 79.6401 118.41 79.1401C113.73 77.8701 109.5 78.47 105.72 80.94C101.93 83.41 99.3001 87.36 97.8201 92.81C96.3401 98.25 96.6101 103 98.6201 107.04C100.63 111.08 103.98 113.74 108.66 115.01C111.46 115.77 114.14 115.82 116.7 115.16" stroke="#EEBBF3" stroke-width="4"/>
<path d="M119.19 114.24C120.93 113.4 122.5 112.17 123.88 110.56L129.67 112.13" stroke="#EEBBF3" stroke-width="4"/>
<path d="M134.78 113.52L140.57 115.09C139.54 116.88 138.39 118.52 137.14 120" stroke="#EEBBF3" stroke-width="4"/>
<path d="M133.62 123.51C131.27 125.47 128.62 127.02 125.68 128.16C119.36 130.61 112.5 130.82 105.1 128.81C99.0601 127.17 94.0301 124.36 89.9901 120.37C85.9601 116.38 83.2601 111.63 81.9001 106.11C80.5401 100.59 80.7001 94.76 82.3701 88.6C84.0401 82.44 86.8701 77.32 90.8401 73.22C94.8101 69.12 99.5501 66.37 105.05 64.97C110.55 63.57 116.31 63.6901 122.35 65.3301C129.75 67.3401 135.55 71.02 139.76 76.35C142.24 79.5 143.98 82.98 144.98 86.79" stroke="#EEBBF3" stroke-width="4"/>
</svg>
