<svg width="543" height="91" viewBox="0 0 543 91" fill="none" xmlns="http://www.w3.org/2000/svg">
<path d="M512.81 20.27H30.2602C13.7966 20.27 0.450195 33.6164 0.450195 50.08V60.46C0.450195 76.9236 13.7966 90.27 30.2602 90.27H512.81C529.274 90.27 542.62 76.9236 542.62 60.46V50.08C542.62 33.6164 529.274 20.27 512.81 20.27Z" fill="#C6A7F0"/>
<path d="M192.1 65.45H180.17L178.12 71.27H173.24L183.45 42.73H188.86L199.07 71.27H194.15L192.1 65.45ZM190.79 61.64L186.16 48.4L181.49 61.64H190.8H190.79Z" fill="white"/>
<path d="M208.17 67.5H217.8V71.27H203.49V42.77H208.16V67.49L208.17 67.5Z" fill="white"/>
<path d="M238.47 42.7803V46.5903H226.37V54.9903H235.8V58.8003H226.37V71.2603H221.7V42.7603H238.47V42.7803Z" fill="white"/>
<path d="M260 65.45H248.07L246.02 71.27H241.14L251.35 42.73H256.76L266.97 71.27H262.05L260 65.45ZM258.68 61.64L254.05 48.4L249.38 61.64H258.69H258.68Z" fill="white"/>
<path d="M290.54 59.0603C291.61 60.4003 292.14 61.9203 292.14 63.6103C292.14 65.0603 291.76 66.3603 291.01 67.5303C290.26 68.6903 289.17 69.6103 287.75 70.2803C286.33 70.9503 284.67 71.2803 282.79 71.2803H271.39V42.7803H282.25C284.19 42.7803 285.86 43.1103 287.25 43.7603C288.64 44.4203 289.7 45.3003 290.41 46.4003C291.12 47.5103 291.48 48.7403 291.48 50.1103C291.48 51.7503 291.04 53.1203 290.17 54.2103C289.29 55.3003 288.12 56.1103 286.64 56.6303C288.17 56.9003 289.47 57.7103 290.54 59.0503V59.0603ZM276.07 54.7503H281.85C283.38 54.7503 284.58 54.4003 285.44 53.7103C286.3 53.0103 286.73 52.0103 286.73 50.7003C286.73 49.3903 286.3 48.4103 285.44 47.6903C284.58 46.9703 283.38 46.6003 281.85 46.6003H276.07V54.7603V54.7503ZM286.11 66.3103C287.01 65.5503 287.46 64.4803 287.46 63.1103C287.46 61.7403 286.98 60.6103 286.02 59.7903C285.06 58.9703 283.79 58.5603 282.21 58.5603H276.06V67.4603H282.37C283.95 67.4603 285.2 67.0803 286.1 66.3103H286.11Z" fill="white"/>
<path d="M301.9 46.5502V54.9102H311.74V58.7202H301.9V67.4502H312.97V71.2602H297.23V42.7202H312.97V46.5302H301.9V46.5502Z" fill="white"/>
<path d="M337.12 42.7803V46.5903H329.54V71.2703H324.87V46.5903H317.24V42.7803H337.12Z" fill="white"/>
<path d="M347.511 69.7001C345.281 68.4601 343.521 66.7202 342.221 64.4902C340.921 62.2602 340.271 59.7502 340.271 56.9702C340.271 54.1902 340.921 51.6802 342.221 49.4702C343.521 47.2602 345.281 45.5302 347.511 44.2802C349.741 43.0402 352.181 42.4102 354.831 42.4102C357.481 42.4102 359.961 43.0302 362.191 44.2802C364.421 45.5202 366.171 47.2502 367.461 49.4702C368.741 51.6802 369.391 54.1802 369.391 56.9702C369.391 59.7602 368.751 62.2702 367.461 64.4902C366.171 66.7202 364.421 68.4501 362.191 69.7001C359.961 70.9401 357.511 71.5702 354.831 71.5702C352.151 71.5702 349.741 70.9501 347.511 69.7001ZM359.871 66.2102C361.351 65.3502 362.501 64.1202 363.331 62.5202C364.161 60.9202 364.581 59.0702 364.581 56.9702C364.581 54.8702 364.161 53.0201 363.331 51.4301C362.501 49.8501 361.341 48.6302 359.871 47.7802C358.391 46.9302 356.711 46.5101 354.831 46.5101C352.951 46.5101 351.261 46.9302 349.791 47.7802C348.311 48.6302 347.161 49.8401 346.331 51.4301C345.501 53.0101 345.081 54.8602 345.081 56.9702C345.081 59.0802 345.501 60.9302 346.331 62.5202C347.161 64.1202 348.321 65.3502 349.791 66.2102C351.271 67.0702 352.951 67.5002 354.831 67.5002C356.711 67.5002 358.401 67.0702 359.871 66.2102Z" fill="white"/>
<path d="M247.29 11.9899L244.57 7.25992H243.09V11.9899H241.15V0.169922H245.23C246.14 0.169922 246.9 0.329918 247.53 0.649918C248.16 0.969918 248.63 1.38992 248.94 1.91992C249.25 2.44992 249.41 3.04993 249.41 3.70993C249.41 4.47993 249.19 5.17992 248.74 5.80992C248.29 6.43992 247.6 6.86992 246.67 7.08992L249.59 11.9899H247.28H247.29ZM243.09 5.70993H245.23C245.96 5.70993 246.5 5.52992 246.87 5.16992C247.24 4.80992 247.42 4.31993 247.42 3.70993C247.42 3.09993 247.24 2.61993 246.88 2.26993C246.52 1.91993 245.97 1.74992 245.23 1.74992H243.09V5.70993Z" fill="#A6A6A6"/>
<path d="M260.42 8.02974H253.26C253.32 8.77974 253.59 9.37974 254.09 9.82974C254.59 10.2797 255.2 10.5097 255.93 10.5097C256.97 10.5097 257.71 10.0697 258.14 9.19974H260.23C259.95 10.0597 259.43 10.7697 258.69 11.3197C257.95 11.8697 257.03 12.1497 255.93 12.1497C255.03 12.1497 254.23 11.9497 253.52 11.5497C252.81 11.1497 252.26 10.5797 251.85 9.84975C251.45 9.11975 251.25 8.26974 251.25 7.30974C251.25 6.34974 251.45 5.49974 251.84 4.76974C252.23 4.03974 252.78 3.47974 253.49 3.07974C254.2 2.67974 255.01 2.48975 255.93 2.48975C256.85 2.48975 257.6 2.67975 258.29 3.06975C258.98 3.45975 259.52 3.99974 259.91 4.68974C260.29 5.38974 260.49 6.18975 260.49 7.09975C260.49 7.44975 260.47 7.76974 260.42 8.04974V8.02974ZM258.46 6.45975C258.45 5.74975 258.19 5.16975 257.69 4.73975C257.19 4.30975 256.57 4.08974 255.84 4.08974C255.17 4.08974 254.6 4.29974 254.12 4.72974C253.64 5.15974 253.36 5.72975 253.27 6.45975H258.46Z" fill="#A6A6A6"/>
<path d="M262.33 4.74973C262.72 4.01973 263.26 3.45972 263.95 3.05972C264.64 2.65972 265.43 2.46973 266.33 2.46973C267.46 2.46973 268.4 2.73972 269.14 3.27972C269.88 3.81972 270.38 4.58973 270.64 5.57973H268.55C268.38 5.11973 268.11 4.74973 267.73 4.48973C267.35 4.22973 266.89 4.09973 266.32 4.09973C265.53 4.09973 264.89 4.37973 264.42 4.93973C263.95 5.49973 263.71 6.28972 263.71 7.28972C263.71 8.28972 263.94 9.08972 264.42 9.64972C264.89 10.2197 265.52 10.4997 266.32 10.4997C267.44 10.4997 268.18 10.0097 268.55 9.01973H270.64C270.37 9.96973 269.86 10.7297 269.11 11.2897C268.36 11.8497 267.43 12.1297 266.32 12.1297C265.42 12.1297 264.63 11.9297 263.94 11.5297C263.25 11.1297 262.71 10.5597 262.32 9.82973C261.93 9.09973 261.73 8.24972 261.73 7.28972C261.73 6.32972 261.93 5.47973 262.32 4.74973H262.33Z" fill="#A6A6A6"/>
<path d="M274.26 11.54C273.55 11.14 272.99 10.57 272.58 9.83998C272.17 9.10998 271.97 8.25999 271.97 7.29999C271.97 6.33999 272.18 5.49999 272.6 4.76999C273.02 4.02999 273.59 3.46999 274.32 3.06999C275.05 2.66999 275.86 2.47998 276.75 2.47998C277.64 2.47998 278.46 2.67999 279.18 3.06999C279.91 3.46999 280.48 4.02999 280.9 4.76999C281.32 5.50999 281.53 6.34999 281.53 7.29999C281.53 8.24999 281.31 9.09999 280.88 9.82999C280.45 10.57 279.86 11.14 279.12 11.54C278.38 11.94 277.56 12.14 276.66 12.14C275.76 12.14 274.98 11.94 274.26 11.54ZM278.06 10.1C278.5 9.85999 278.85 9.49998 279.12 9.02998C279.39 8.54998 279.53 7.97999 279.53 7.29999C279.53 6.61999 279.4 6.04999 279.14 5.56999C278.88 5.09999 278.53 4.74998 278.1 4.50998C277.67 4.26998 277.2 4.14998 276.71 4.14998C276.22 4.14998 275.75 4.26998 275.32 4.50998C274.9 4.74998 274.56 5.09999 274.31 5.56999C274.06 6.03999 273.94 6.61999 273.94 7.29999C273.94 8.30999 274.2 9.08998 274.71 9.63998C275.23 10.19 275.87 10.46 276.66 10.46C277.16 10.46 277.63 10.34 278.06 10.1Z" fill="#A6A6A6"/>
<path d="M286.5 2.86972C286.97 2.59972 287.53 2.46973 288.17 2.46973V4.47972H287.68C286.92 4.47972 286.35 4.66972 285.95 5.05972C285.56 5.43972 285.36 6.10973 285.36 7.06973V11.9997H283.42V2.62973H285.36V3.98973C285.64 3.50973 286.02 3.13973 286.49 2.87973L286.5 2.86972Z" fill="#A6A6A6"/>
<path d="M292.22 4.1998V9.3898C292.22 9.7398 292.3 9.9898 292.47 10.1498C292.63 10.2998 292.91 10.3798 293.31 10.3798H294.5V11.9998H292.97C292.1 11.9998 291.43 11.7998 290.96 11.3898C290.5 10.9798 290.26 10.3198 290.26 9.3998V4.20981H289.16V2.62981H290.26V0.299805H292.22V2.62981H294.5V4.20981H292.22V4.1998Z" fill="#A6A6A6"/>
<path d="M304.8 8.02974H297.64C297.7 8.77974 297.97 9.37974 298.47 9.82974C298.97 10.2797 299.58 10.5097 300.31 10.5097C301.35 10.5097 302.09 10.0697 302.52 9.19974H304.61C304.33 10.0597 303.81 10.7697 303.07 11.3197C302.33 11.8697 301.41 12.1497 300.31 12.1497C299.41 12.1497 298.61 11.9497 297.9 11.5497C297.19 11.1497 296.64 10.5797 296.23 9.84975C295.83 9.11975 295.63 8.26974 295.63 7.30974C295.63 6.34974 295.83 5.49974 296.22 4.76974C296.61 4.03974 297.16 3.47974 297.87 3.07974C298.58 2.67974 299.39 2.48975 300.31 2.48975C301.23 2.48975 301.98 2.67975 302.67 3.06975C303.36 3.45975 303.9 3.99974 304.29 4.68974C304.67 5.38974 304.87 6.18975 304.87 7.09975C304.87 7.44975 304.85 7.76974 304.8 8.04974V8.02974ZM302.85 6.45975C302.84 5.74975 302.58 5.16975 302.08 4.73975C301.58 4.30975 300.96 4.08974 300.23 4.08974C299.56 4.08974 298.99 4.29974 298.51 4.72974C298.03 5.15974 297.75 5.72975 297.66 6.45975H302.85Z" fill="#A6A6A6"/>
<path d="M308.19 11.7397C307.61 11.4697 307.14 11.1097 306.8 10.6497C306.46 10.1897 306.28 9.67971 306.26 9.10971H308.27C308.3 9.50971 308.49 9.83972 308.84 10.0997C309.19 10.3697 309.62 10.4997 310.14 10.4997C310.66 10.4997 311.11 10.3897 311.41 10.1797C311.71 9.9697 311.86 9.69971 311.86 9.36971C311.86 9.01971 311.69 8.75971 311.36 8.58971C311.03 8.41971 310.5 8.22971 309.77 8.02971C309.07 7.83971 308.5 7.64971 308.05 7.46971C307.61 7.28971 307.23 7.00971 306.9 6.63971C306.58 6.26971 306.42 5.76971 306.42 5.15971C306.42 4.65971 306.57 4.2097 306.86 3.7897C307.15 3.3797 307.58 3.04971 308.13 2.80971C308.68 2.56971 309.31 2.44971 310.03 2.44971C311.09 2.44971 311.95 2.7197 312.61 3.2597C313.26 3.7997 313.61 4.52972 313.66 5.45972H311.72C311.69 5.03972 311.52 4.70972 311.21 4.45972C310.9 4.20972 310.49 4.08971 309.97 4.08971C309.45 4.08971 309.07 4.18971 308.8 4.37971C308.53 4.56972 308.39 4.82971 308.39 5.13971C308.39 5.38971 308.48 5.59971 308.66 5.76971C308.84 5.93971 309.06 6.06971 309.32 6.16971C309.58 6.26971 309.97 6.3897 310.48 6.5397C311.16 6.7197 311.72 6.90971 312.15 7.08971C312.59 7.27971 312.96 7.54971 313.28 7.90971C313.6 8.26971 313.76 8.74971 313.77 9.35971C313.77 9.88971 313.62 10.3697 313.33 10.7897C313.04 11.2097 312.62 11.5397 312.08 11.7797C311.54 12.0197 310.91 12.1397 310.18 12.1397C309.45 12.1397 308.78 12.0097 308.2 11.7397H308.19Z" fill="#A6A6A6"/>
</svg>
