<svg width="473" height="663" viewBox="0 0 473 663" fill="none" xmlns="http://www.w3.org/2000/svg">
<path d="M460.94 11.73H0.830078V662.45H460.94V11.73Z" fill="#B7B7B7"/>
<path d="M471.95 0.72998H11.8398V651.45H471.95V0.72998Z" fill="white" stroke="#222221" stroke-miterlimit="10"/>
<path d="M215 63.22H220.34V65.31H212.4V49.5H214.99V63.21L215 63.22Z" fill="#010200"/>
<path d="M225.101 51.6002V56.2402H230.561V58.3602H225.101V63.2002H231.241V65.3202H222.511V49.4902H231.241V51.6102H225.101V51.6002Z" fill="#010200"/>
<path d="M244.64 49.5V51.62H240.43V65.31H237.84V51.62H233.61V49.5H244.64Z" fill="#010200"/>
<path d="M255.471 65.31L251.831 58.99H249.851V65.31H247.261V49.5H252.721C253.931 49.5 254.961 49.71 255.801 50.14C256.641 50.56 257.271 51.13 257.691 51.85C258.111 52.56 258.321 53.36 258.321 54.24C258.321 55.27 258.021 56.21 257.421 57.05C256.821 57.89 255.901 58.46 254.661 58.77L258.571 65.32H255.481L255.471 65.31ZM249.851 56.92H252.721C253.691 56.92 254.421 56.68 254.911 56.19C255.401 55.7 255.651 55.05 255.651 54.23C255.651 53.41 255.411 52.77 254.921 52.31C254.431 51.85 253.701 51.62 252.711 51.62H249.841V56.92H249.851Z" fill="#010200"/>
<path d="M271.16 62.08H264.54L263.4 65.31H260.69L266.35 49.48H269.35L275.01 65.31H272.28L271.14 62.08H271.16ZM270.43 59.97L267.86 52.62L265.27 59.97H270.43Z" fill="#010200"/>
<path d="M279.831 64.91C278.981 64.54 278.311 64.01 277.831 63.33C277.341 62.65 277.101 61.85 277.101 60.94H279.871C279.931 61.62 280.201 62.18 280.681 62.62C281.161 63.06 281.831 63.28 282.691 63.28C283.551 63.28 284.281 63.06 284.781 62.63C285.281 62.2 285.531 61.64 285.531 60.96C285.531 60.43 285.371 60 285.061 59.66C284.751 59.33 284.361 59.07 283.901 58.89C283.441 58.71 282.801 58.51 281.981 58.3C280.951 58.03 280.111 57.75 279.471 57.47C278.831 57.19 278.281 56.75 277.821 56.16C277.371 55.57 277.141 54.78 277.141 53.79C277.141 52.88 277.371 52.08 277.821 51.4C278.281 50.72 278.911 50.19 279.731 49.83C280.551 49.47 281.501 49.29 282.571 49.29C284.101 49.29 285.361 49.67 286.331 50.44C287.301 51.21 287.851 52.26 287.961 53.59H285.091C285.041 53.01 284.771 52.52 284.271 52.11C283.771 51.7 283.111 51.5 282.291 51.5C281.551 51.5 280.941 51.69 280.471 52.07C280.001 52.45 279.761 52.99 279.761 53.71C279.761 54.2 279.911 54.59 280.201 54.9C280.501 55.21 280.871 55.46 281.331 55.64C281.791 55.82 282.411 56.02 283.201 56.23C284.251 56.52 285.101 56.81 285.761 57.09C286.421 57.37 286.981 57.82 287.441 58.42C287.901 59.02 288.131 59.82 288.131 60.82C288.131 61.62 287.911 62.38 287.481 63.09C287.051 63.8 286.421 64.38 285.591 64.81C284.761 65.24 283.791 65.46 282.671 65.46C281.611 65.46 280.651 65.27 279.801 64.9L279.831 64.91Z" fill="#010200"/>
<path d="M185.34 81.9299L182.76 77.5099H181.05V81.9299H179.64V71.1099H183.13C183.95 71.1099 184.64 71.2499 185.2 71.5299C185.76 71.8099 186.19 72.1899 186.47 72.6599C186.75 73.1399 186.89 73.6799 186.89 74.2899C186.89 75.0399 186.68 75.6899 186.25 76.2599C185.82 76.8299 185.18 77.2099 184.32 77.3899L187.04 81.9199H185.35L185.34 81.9299ZM181.06 76.3699H183.14C183.91 76.3699 184.48 76.1799 184.86 75.7999C185.24 75.4199 185.43 74.9199 185.43 74.2899C185.43 73.6599 185.24 73.1499 184.86 72.7999C184.48 72.4499 183.9 72.2699 183.13 72.2699H181.05V76.3699H181.06Z" fill="#010200"/>
<path d="M196.8 78.1998H190C190.05 79.0398 190.34 79.6898 190.86 80.1598C191.38 80.6298 192.02 80.8698 192.76 80.8698C193.37 80.8698 193.88 80.7298 194.29 80.4398C194.7 80.1598 194.99 79.7698 195.15 79.2998H196.67C196.44 80.1198 195.99 80.7798 195.3 81.2898C194.62 81.7998 193.77 82.0598 192.75 82.0598C191.94 82.0598 191.22 81.8798 190.58 81.5198C189.94 81.1598 189.44 80.6398 189.08 79.9798C188.72 79.3098 188.54 78.5398 188.54 77.6598C188.54 76.7798 188.72 76.0098 189.07 75.3498C189.42 74.6898 189.92 74.1798 190.55 73.8198C191.19 73.4598 191.92 73.2798 192.75 73.2798C193.58 73.2798 194.27 73.4598 194.89 73.8098C195.51 74.1598 195.99 74.6498 196.33 75.2598C196.67 75.8698 196.83 76.5698 196.83 77.3498C196.83 77.6198 196.81 77.8998 196.78 78.1998H196.8ZM195.03 75.6698C194.79 75.2798 194.47 74.9898 194.06 74.7898C193.65 74.5898 193.2 74.4898 192.7 74.4898C191.99 74.4898 191.38 74.7198 190.88 75.1698C190.38 75.6298 190.09 76.2598 190.02 77.0598H195.39C195.39 76.5198 195.27 76.0598 195.03 75.6698Z" fill="#010200"/>
<path d="M198.709 75.36C199.059 74.7 199.549 74.19 200.179 73.83C200.809 73.47 201.519 73.29 202.329 73.29C203.379 73.29 204.239 73.54 204.909 74.05C205.579 74.56 206.039 75.26 206.249 76.16H204.729C204.579 75.64 204.299 75.23 203.879 74.93C203.459 74.63 202.939 74.48 202.319 74.48C201.509 74.48 200.859 74.76 200.359 75.31C199.859 75.86 199.609 76.65 199.609 77.66C199.609 78.67 199.859 79.48 200.359 80.04C200.859 80.6 201.509 80.88 202.319 80.88C202.939 80.88 203.459 80.74 203.869 80.45C204.279 80.16 204.569 79.75 204.719 79.21H206.239C206.009 80.08 205.559 80.78 204.869 81.3C204.189 81.82 203.329 82.08 202.309 82.08C201.499 82.08 200.789 81.9 200.159 81.54C199.529 81.18 199.039 80.66 198.689 80C198.339 79.34 198.159 78.56 198.159 77.67C198.159 76.78 198.339 76.02 198.689 75.36H198.709Z" fill="#010200"/>
<path d="M209.67 81.5298C209.02 81.1698 208.52 80.6498 208.15 79.9898C207.78 79.3198 207.6 78.5498 207.6 77.6698C207.6 76.7898 207.79 76.0298 208.17 75.3598C208.55 74.6898 209.06 74.1798 209.71 73.8198C210.36 73.4598 211.09 73.2798 211.9 73.2798C212.71 73.2798 213.44 73.4598 214.09 73.8198C214.74 74.1798 215.26 74.6898 215.63 75.3498C216.01 76.0098 216.2 76.7798 216.2 77.6598C216.2 78.5398 216.01 79.3098 215.62 79.9798C215.23 80.6498 214.71 81.1598 214.04 81.5198C213.37 81.8798 212.64 82.0598 211.84 82.0598C211.04 82.0598 210.32 81.8798 209.67 81.5198V81.5298ZM213.27 80.4698C213.71 80.2298 214.07 79.8798 214.35 79.3998C214.62 78.9198 214.76 78.3398 214.76 77.6598C214.76 76.9798 214.63 76.3998 214.36 75.9198C214.09 75.4398 213.74 75.0898 213.3 74.8598C212.87 74.6298 212.39 74.5098 211.89 74.5098C211.39 74.5098 210.9 74.6298 210.47 74.8598C210.04 75.0898 209.7 75.4498 209.44 75.9198C209.18 76.3998 209.05 76.9798 209.05 77.6598C209.05 78.3398 209.18 78.9398 209.43 79.4098C209.68 79.8898 210.02 80.2398 210.45 80.4698C210.87 80.6998 211.34 80.8198 211.85 80.8198C212.36 80.8198 212.83 80.6998 213.28 80.4598L213.27 80.4698Z" fill="#010200"/>
<path d="M220.54 73.67C221 73.4 221.56 73.27 222.22 73.27V74.73H221.85C220.27 74.73 219.47 75.59 219.47 77.31V81.94H218.06V73.43H219.47V74.81C219.72 74.32 220.07 73.95 220.53 73.68L220.54 73.67Z" fill="#010200"/>
<path d="M225.579 74.5898V79.5998C225.579 80.0098 225.669 80.3098 225.839 80.4798C226.009 80.6498 226.319 80.7398 226.759 80.7398H227.799V81.9398H226.529C225.739 81.9398 225.149 81.7598 224.759 81.3998C224.369 81.0398 224.169 80.4398 224.169 79.6098V74.5998H223.069V73.4398H224.169V71.2998H225.579V73.4398H227.799V74.5998H225.579V74.5898Z" fill="#010200"/>
<path d="M237.22 78.1998H230.42C230.47 79.0398 230.76 79.6898 231.28 80.1598C231.8 80.6298 232.44 80.8698 233.18 80.8698C233.79 80.8698 234.3 80.7298 234.71 80.4398C235.12 80.1598 235.41 79.7698 235.57 79.2998H237.09C236.86 80.1198 236.41 80.7798 235.72 81.2898C235.04 81.7998 234.19 82.0598 233.17 82.0598C232.36 82.0598 231.64 81.8798 231 81.5198C230.36 81.1598 229.86 80.6398 229.5 79.9798C229.14 79.3098 228.96 78.5398 228.96 77.6598C228.96 76.7798 229.14 76.0098 229.49 75.3498C229.84 74.6898 230.34 74.1798 230.97 73.8198C231.61 73.4598 232.34 73.2798 233.17 73.2798C234 73.2798 234.69 73.4598 235.31 73.8098C235.93 74.1598 236.41 74.6498 236.75 75.2598C237.09 75.8698 237.25 76.5698 237.25 77.3498C237.25 77.6198 237.23 77.8998 237.2 78.1998H237.22ZM235.45 75.6698C235.21 75.2798 234.89 74.9898 234.48 74.7898C234.07 74.5898 233.62 74.4898 233.12 74.4898C232.41 74.4898 231.8 74.7198 231.3 75.1698C230.8 75.6298 230.51 76.2598 230.44 77.0598H235.81C235.81 76.5198 235.69 76.0598 235.45 75.6698Z" fill="#010200"/>
<path d="M244.82 81.5298C244.17 81.1698 243.67 80.6498 243.3 79.9898C242.93 79.3198 242.75 78.5498 242.75 77.6698C242.75 76.7898 242.94 76.0298 243.32 75.3598C243.7 74.6898 244.21 74.1798 244.86 73.8198C245.51 73.4598 246.24 73.2798 247.05 73.2798C247.86 73.2798 248.59 73.4598 249.24 73.8198C249.89 74.1798 250.41 74.6898 250.78 75.3498C251.16 76.0098 251.35 76.7798 251.35 77.6598C251.35 78.5398 251.16 79.3098 250.77 79.9798C250.38 80.6498 249.86 81.1598 249.19 81.5198C248.52 81.8798 247.79 82.0598 246.99 82.0598C246.19 82.0598 245.47 81.8798 244.82 81.5198V81.5298ZM248.41 80.4698C248.85 80.2298 249.21 79.8798 249.49 79.3998C249.76 78.9198 249.9 78.3398 249.9 77.6598C249.9 76.9798 249.77 76.3998 249.5 75.9198C249.23 75.4398 248.88 75.0898 248.44 74.8598C248.01 74.6298 247.53 74.5098 247.03 74.5098C246.53 74.5098 246.04 74.6298 245.61 74.8598C245.18 75.0898 244.84 75.4498 244.58 75.9198C244.32 76.3998 244.19 76.9798 244.19 77.6598C244.19 78.3398 244.32 78.9398 244.57 79.4098C244.82 79.8898 245.16 80.2398 245.59 80.4698C246.01 80.6998 246.48 80.8198 246.99 80.8198C247.5 80.8198 247.97 80.6998 248.42 80.4598L248.41 80.4698Z" fill="#010200"/>
<path d="M257.35 75.36C257.7 74.7 258.19 74.19 258.8 73.83C259.41 73.47 260.1 73.29 260.86 73.29C261.62 73.29 262.25 73.45 262.8 73.77C263.35 74.09 263.76 74.49 264.03 74.98V73.43H265.46V81.94H264.03V80.36C263.75 80.86 263.33 81.27 262.78 81.59C262.23 81.92 261.58 82.08 260.85 82.08C260.12 82.08 259.41 81.89 258.8 81.52C258.19 81.15 257.71 80.62 257.36 79.95C257.01 79.28 256.83 78.51 256.83 77.65C256.83 76.79 257.01 76.02 257.36 75.36H257.35ZM263.64 75.98C263.38 75.5 263.03 75.14 262.59 74.89C262.15 74.64 261.67 74.51 261.14 74.51C260.61 74.51 260.13 74.63 259.7 74.88C259.27 75.13 258.92 75.49 258.66 75.97C258.4 76.45 258.27 77.01 258.27 77.65C258.27 78.29 258.4 78.87 258.66 79.35C258.92 79.83 259.27 80.2 259.7 80.45C260.14 80.7 260.62 80.83 261.14 80.83C261.66 80.83 262.15 80.7 262.59 80.45C263.03 80.2 263.38 79.83 263.64 79.35C263.9 78.87 264.03 78.31 264.03 77.67C264.03 77.03 263.9 76.47 263.64 75.99V75.98Z" fill="#010200"/>
<path d="M269.26 70.4399V81.9299H267.85V70.4399H269.26Z" fill="#010200"/>
<path d="M275.119 74.5898H273.329V81.9298H271.919V74.5898H270.819V73.4298H271.919V72.8198C271.919 71.8698 272.169 71.1698 272.659 70.7298C273.149 70.2898 273.939 70.0698 275.029 70.0698V71.2498C274.409 71.2498 273.969 71.3698 273.719 71.6098C273.469 71.8498 273.339 72.2498 273.339 72.8098V73.4198H275.129V74.5798L275.119 74.5898Z" fill="#010200"/>
<path d="M276.77 75.36C277.12 74.7 277.61 74.19 278.22 73.83C278.83 73.47 279.52 73.29 280.28 73.29C281.04 73.29 281.67 73.45 282.22 73.77C282.77 74.09 283.18 74.49 283.45 74.98V73.43H284.88V81.94H283.45V80.36C283.17 80.86 282.75 81.27 282.2 81.59C281.65 81.92 281 82.08 280.27 82.08C279.54 82.08 278.83 81.89 278.22 81.52C277.61 81.15 277.13 80.62 276.78 79.95C276.43 79.28 276.25 78.51 276.25 77.65C276.25 76.79 276.43 76.02 276.78 75.36H276.77ZM283.06 75.98C282.8 75.5 282.45 75.14 282.01 74.89C281.57 74.64 281.09 74.51 280.56 74.51C280.03 74.51 279.55 74.63 279.12 74.88C278.69 75.13 278.34 75.49 278.08 75.97C277.82 76.45 277.69 77.01 277.69 77.65C277.69 78.29 277.82 78.87 278.08 79.35C278.34 79.83 278.69 80.2 279.12 80.45C279.56 80.7 280.04 80.83 280.56 80.83C281.08 80.83 281.57 80.7 282.01 80.45C282.45 80.2 282.8 79.83 283.06 79.35C283.32 78.87 283.45 78.31 283.45 77.67C283.45 77.03 283.32 76.47 283.06 75.99V75.98Z" fill="#010200"/>
<path d="M289.95 73.7599C290.51 73.4399 291.15 73.2799 291.86 73.2799C292.63 73.2799 293.31 73.4599 293.92 73.8199C294.53 74.1799 295.01 74.6899 295.36 75.3499C295.71 76.0099 295.89 76.7699 295.89 77.6399C295.89 78.5099 295.71 79.2599 295.36 79.9399C295.01 80.6099 294.52 81.1399 293.91 81.5099C293.29 81.8799 292.61 82.0699 291.85 82.0699C291.09 82.0699 290.47 81.9099 289.92 81.5899C289.37 81.2699 288.95 80.8599 288.67 80.3599V81.9299H287.26V70.4399H288.67V74.9999C288.96 74.4899 289.38 74.0799 289.94 73.7599H289.95ZM294.06 75.9699C293.8 75.4899 293.45 75.1299 293.01 74.8799C292.57 74.6299 292.09 74.5099 291.56 74.5099C291.03 74.5099 290.56 74.6399 290.12 74.8899C289.68 75.1399 289.33 75.5099 289.06 75.9899C288.8 76.4699 288.66 77.0299 288.66 77.6599C288.66 78.2899 288.79 78.8599 289.06 79.3399C289.32 79.8199 289.68 80.1899 290.12 80.4399C290.56 80.6899 291.04 80.8199 291.56 80.8199C292.08 80.8199 292.57 80.6899 293.01 80.4399C293.45 80.1899 293.8 79.8199 294.06 79.3399C294.32 78.8599 294.45 78.2899 294.45 77.6399C294.45 76.9899 294.32 76.4399 294.06 75.9599V75.9699Z" fill="#010200"/>
<path d="M305.47 78.1998H298.67C298.72 79.0398 299.01 79.6898 299.53 80.1598C300.05 80.6298 300.69 80.8698 301.43 80.8698C302.04 80.8698 302.55 80.7298 302.96 80.4398C303.37 80.1598 303.66 79.7698 303.82 79.2998H305.34C305.11 80.1198 304.66 80.7798 303.97 81.2898C303.29 81.7998 302.44 82.0598 301.42 82.0598C300.61 82.0598 299.89 81.8798 299.25 81.5198C298.61 81.1598 298.11 80.6398 297.75 79.9798C297.39 79.3098 297.21 78.5398 297.21 77.6598C297.21 76.7798 297.39 76.0098 297.74 75.3498C298.09 74.6898 298.59 74.1798 299.22 73.8198C299.86 73.4598 300.59 73.2798 301.42 73.2798C302.25 73.2798 302.94 73.4598 303.56 73.8098C304.18 74.1598 304.66 74.6498 305 75.2598C305.34 75.8698 305.5 76.5698 305.5 77.3498C305.5 77.6198 305.48 77.8998 305.45 78.1998H305.47ZM303.7 75.6698C303.46 75.2798 303.14 74.9898 302.73 74.7898C302.32 74.5898 301.87 74.4898 301.37 74.4898C300.66 74.4898 300.05 74.7198 299.55 75.1698C299.05 75.6298 298.76 76.2598 298.69 77.0598H304.06C304.06 76.5198 303.94 76.0598 303.7 75.6698Z" fill="#010200"/>
<path d="M309.1 74.5898V79.5998C309.1 80.0098 309.19 80.3098 309.36 80.4798C309.53 80.6498 309.84 80.7398 310.28 80.7398H311.32V81.9398H310.05C309.26 81.9398 308.67 81.7598 308.28 81.3998C307.89 81.0398 307.69 80.4398 307.69 79.6098V74.5998H306.59V73.4398H307.69V71.2998H309.1V73.4398H311.32V74.5998H309.1V74.5898Z" fill="#010200"/>
<path d="M314.58 81.5298C313.93 81.1698 313.43 80.6498 313.06 79.9898C312.69 79.3198 312.51 78.5498 312.51 77.6698C312.51 76.7898 312.7 76.0298 313.08 75.3598C313.46 74.6898 313.97 74.1798 314.62 73.8198C315.27 73.4598 316 73.2798 316.81 73.2798C317.62 73.2798 318.35 73.4598 319 73.8198C319.65 74.1798 320.17 74.6898 320.54 75.3498C320.92 76.0098 321.11 76.7798 321.11 77.6598C321.11 78.5398 320.92 79.3098 320.53 79.9798C320.14 80.6498 319.62 81.1598 318.95 81.5198C318.28 81.8798 317.55 82.0598 316.75 82.0598C315.95 82.0598 315.23 81.8798 314.58 81.5198V81.5298ZM318.17 80.4698C318.61 80.2298 318.97 79.8798 319.25 79.3998C319.52 78.9198 319.66 78.3398 319.66 77.6598C319.66 76.9798 319.53 76.3998 319.26 75.9198C318.99 75.4398 318.64 75.0898 318.2 74.8598C317.77 74.6298 317.29 74.5098 316.79 74.5098C316.29 74.5098 315.8 74.6298 315.37 74.8598C314.94 75.0898 314.6 75.4498 314.34 75.9198C314.08 76.3998 313.95 76.9798 313.95 77.6598C313.95 78.3398 314.08 78.9398 314.33 79.4098C314.58 79.8898 314.92 80.2398 315.35 80.4698C315.77 80.6998 316.24 80.8198 316.75 80.8198C317.26 80.8198 317.73 80.6998 318.18 80.4598L318.17 80.4698Z" fill="#010200"/>
<path d="M72.8904 200.47H50.5204L46.9304 211.06H31.6504L53.3404 151.13H70.2404L91.9304 211.06H76.4803L72.8904 200.47ZM69.1304 189.2L61.7004 167.26L54.3604 189.2H69.1304Z" stroke="#010200" stroke-width="2"/>
<path d="M176.53 185.49C178.63 188.19 179.69 191.28 179.69 194.75C179.69 199.76 177.94 203.73 174.44 206.66C170.94 209.59 166.06 211.06 159.8 211.06H131.88V151.13H158.86C164.95 151.13 169.72 152.53 173.16 155.31C176.6 158.1 178.33 161.88 178.33 166.66C178.33 170.19 177.4 173.12 175.56 175.45C173.71 177.78 171.25 179.41 168.17 180.32C171.64 181.06 174.43 182.78 176.54 185.49H176.53ZM146.48 175.37H156.04C158.43 175.37 160.27 174.84 161.55 173.79C162.83 172.74 163.47 171.19 163.47 169.14C163.47 167.09 162.83 165.53 161.55 164.44C160.27 163.36 158.43 162.82 156.04 162.82H146.48V175.37ZM162.91 197.61C164.25 196.5 164.92 194.89 164.92 192.79C164.92 190.69 164.22 189.03 162.83 187.84C161.43 186.64 159.51 186.05 157.07 186.05H146.48V199.28H157.24C159.69 199.28 161.58 198.73 162.92 197.62L162.91 197.61Z" stroke="#010200" stroke-width="2"/>
<path d="M224.67 165.17C227.23 160.53 230.8 156.92 235.38 154.33C239.96 151.74 245.16 150.45 250.96 150.45C258.07 150.45 264.16 152.33 269.23 156.09C274.3 159.85 277.68 164.97 279.39 171.46H263.34C262.14 168.96 260.45 167.05 258.26 165.74C256.07 164.43 253.58 163.78 250.79 163.78C246.29 163.78 242.65 165.35 239.86 168.48C237.07 171.61 235.68 175.79 235.68 181.03C235.68 186.27 237.07 190.45 239.86 193.58C242.65 196.71 246.29 198.28 250.79 198.28C253.58 198.28 256.07 197.63 258.26 196.32C260.45 195.01 262.14 193.1 263.34 190.6H279.39C277.68 197.09 274.3 202.2 269.23 205.93C264.16 209.66 258.07 211.52 250.96 211.52C245.15 211.52 239.96 210.23 235.38 207.64C230.8 205.05 227.23 201.45 224.67 196.84C222.11 192.23 220.83 186.97 220.83 181.05C220.83 175.13 222.11 169.85 224.67 165.21V165.17Z" stroke="#010200" stroke-width="2"/>
<path d="M352.25 154.88C356.97 157.39 360.63 160.9 363.22 165.42C365.81 169.95 367.11 175.17 367.11 181.09C367.11 187.01 365.81 192.16 363.22 196.71C360.63 201.26 356.96 204.79 352.21 207.3C347.46 209.81 341.95 211.06 335.69 211.06H313.24V151.13H335.69C342.01 151.13 347.53 152.38 352.25 154.89V154.88ZM347.65 193.9C350.72 190.88 352.26 186.61 352.26 181.09C352.26 175.57 350.72 171.27 347.65 168.2C344.58 165.13 340.28 163.59 334.76 163.59H327.84V198.42H334.76C340.28 198.42 344.58 196.91 347.65 193.89V193.9Z" stroke="#010200" stroke-width="2"/>
<path d="M416.09 162.82V174.94H435.64V186.21H416.09V199.36H438.2V211.06H401.49V151.13H438.2V162.83H416.09V162.82Z" stroke="#010200" stroke-width="2"/>
<path d="M81.3002 243.45V255.15H56.8802V267.79H75.1503V279.14H56.8802V303.39H42.2803V243.46H81.3002V243.45Z" stroke="#010200" stroke-width="2"/>
<path d="M168.33 262.41C167.25 260.42 165.7 258.9 163.68 257.84C161.66 256.79 159.28 256.26 156.55 256.26C151.82 256.26 148.04 257.81 145.2 260.91C142.35 264.01 140.93 268.15 140.93 273.33C140.93 278.85 142.42 283.16 145.41 286.26C148.4 289.36 152.51 290.91 157.75 290.91C161.34 290.91 164.37 290 166.84 288.18C169.32 286.36 171.12 283.74 172.26 280.33H153.73V269.57H185.49V283.15C184.41 286.79 182.57 290.18 179.98 293.31C177.39 296.44 174.1 298.97 170.12 300.91C166.14 302.85 161.64 303.81 156.63 303.81C150.71 303.81 145.43 302.52 140.79 299.93C136.15 297.34 132.54 293.74 129.95 289.13C127.36 284.52 126.07 279.26 126.07 273.34C126.07 267.42 127.36 262.14 129.95 257.5C132.54 252.86 136.14 249.25 140.75 246.66C145.36 244.07 150.62 242.78 156.54 242.78C163.71 242.78 169.76 244.52 174.68 247.99C179.6 251.46 182.86 256.27 184.46 262.42H168.32L168.33 262.41Z" stroke="#010200" stroke-width="2"/>
<path d="M276.06 243.45V303.38H261.46V278.71H238.75V303.38H224.15V243.45H238.75V266.93H261.46V243.45H276.06Z" stroke="#010200" stroke-width="2"/>
<path d="M347.47 243.45V303.38H332.87V243.45H347.47Z" stroke="#010200" stroke-width="2"/>
<path d="M440.16 243.45V284.26C440.16 290.58 438.38 295.44 434.82 298.86C431.26 302.27 426.47 303.98 420.43 303.98C414.39 303.98 409.05 302.19 405.23 298.6C401.42 295.01 399.51 289.92 399.51 283.32H414.02C414.02 285.83 414.53 287.72 415.56 289C416.58 290.28 418.06 290.92 420 290.92C421.76 290.92 423.13 290.35 424.1 289.21C425.07 288.07 425.55 286.42 425.55 284.26V243.45H440.15H440.16Z" stroke="#010200" stroke-width="2"/>
<path d="M59.5297 386.8H78.6497V398.07H44.9297V338.14H59.5297V386.8Z" stroke="#010200" stroke-width="2"/>
<path d="M189.72 338.13V398.06H175.12V362.12L161.72 398.06H149.94L136.45 362.03V398.06H121.85V338.13H139.1L155.92 379.62L172.57 338.13H189.73H189.72Z" stroke="#010200" stroke-width="2"/>
<path d="M276.92 398.07H262.32L237.9 361.1V398.07H223.3V338.14H237.9L262.32 375.28V338.14H276.92V398.07Z" stroke="#010200" stroke-width="2"/>
<path d="M324.759 394.74C320.059 392.12 316.339 388.46 313.579 383.77C310.819 379.07 309.439 373.8 309.439 367.93C309.439 362.06 310.819 356.8 313.579 352.14C316.339 347.47 320.069 343.83 324.759 341.21C329.459 338.59 334.619 337.28 340.259 337.28C345.899 337.28 351.059 338.59 355.759 341.21C360.459 343.83 364.159 347.47 366.859 352.14C369.559 356.81 370.919 362.07 370.919 367.93C370.919 373.79 369.549 379.07 366.819 383.77C364.089 388.47 360.389 392.12 355.719 394.74C351.049 397.36 345.899 398.67 340.269 398.67C334.639 398.67 329.469 397.36 324.769 394.74H324.759ZM351.739 380.57C354.609 377.38 356.049 373.17 356.049 367.93C356.049 362.69 354.609 358.41 351.739 355.25C348.869 352.09 345.039 350.51 340.259 350.51C335.479 350.51 331.559 352.08 328.689 355.21C325.819 358.34 324.379 362.58 324.379 367.93C324.379 373.28 325.819 377.45 328.689 380.61C331.559 383.77 335.419 385.35 340.259 385.35C345.099 385.35 348.869 383.76 351.739 380.57Z" stroke="#010200" stroke-width="2"/>
<path d="M440.29 366.95C438.7 369.82 436.25 372.14 432.95 373.91C429.65 375.68 425.55 376.56 420.66 376.56H411.61V398.07H397.01V338.14H420.66C425.44 338.14 429.48 338.97 432.78 340.62C436.08 342.27 438.56 344.55 440.21 347.45C441.86 350.35 442.69 353.68 442.69 357.44C442.69 360.91 441.89 364.09 440.3 366.96L440.29 366.95ZM425.78 362.98C427.15 361.67 427.83 359.82 427.83 357.43C427.83 355.04 427.15 353.19 425.78 351.88C424.41 350.57 422.34 349.92 419.55 349.92H411.61V364.95H419.55C422.34 364.95 424.42 364.3 425.78 362.99V362.98Z" stroke="#010200" stroke-width="2"/>
<path d="M75.5399 503.53L67.8599 493.2C65.5799 493.65 63.3599 493.88 61.1999 493.88C55.5699 493.88 50.3999 492.57 45.6999 489.95C40.9999 487.33 37.2799 483.68 34.5199 478.98C31.7599 474.28 30.3799 469.01 30.3799 463.14C30.3799 457.27 31.7599 452.01 34.5199 447.34C37.2799 442.67 41.0099 439.03 45.6999 436.41C50.3899 433.79 55.5599 432.48 61.1999 432.48C66.8399 432.48 71.9999 433.79 76.6999 436.41C81.3999 439.03 85.0899 442.67 87.7999 447.34C90.4999 452.01 91.8599 457.27 91.8599 463.14C91.8599 468.26 90.8199 472.94 88.7399 477.18C86.6599 481.42 83.7699 484.94 80.0699 487.72L93.2198 503.51H75.5499L75.5399 503.53ZM49.6299 475.82C52.4999 478.98 56.3599 480.56 61.1999 480.56C66.0399 480.56 69.8099 478.97 72.6799 475.78C75.5499 472.59 76.9899 468.38 76.9899 463.14C76.9899 457.9 75.5499 453.62 72.6799 450.46C69.8099 447.3 65.9799 445.72 61.1999 445.72C56.4199 445.72 52.5099 447.29 49.6299 450.42C46.7599 453.55 45.3199 457.79 45.3199 463.14C45.3199 468.49 46.7599 472.66 49.6299 475.82Z" stroke="#010200" stroke-width="2"/>
<path d="M162.83 493.28L150.36 470.65H146.86V493.28H132.26V433.35H156.76C161.48 433.35 165.51 434.18 168.84 435.83C172.17 437.48 174.66 439.74 176.31 442.62C177.96 445.49 178.79 448.7 178.79 452.22C178.79 456.2 177.67 459.76 175.42 462.89C173.17 466.02 169.86 468.24 165.47 469.55L179.3 493.28H162.82H162.83ZM146.86 460.33H155.91C158.58 460.33 160.59 459.68 161.93 458.37C163.27 457.06 163.94 455.21 163.94 452.82C163.94 450.43 163.27 448.75 161.93 447.44C160.59 446.13 158.59 445.48 155.91 445.48H146.86V460.34V460.33Z" stroke="#010200" stroke-width="2"/>
<path d="M239.1 491.75C235.63 490.33 232.85 488.22 230.78 485.43C228.7 482.64 227.61 479.28 227.49 475.36H243.03C243.26 477.58 244.03 479.27 245.34 480.44C246.65 481.61 248.36 482.19 250.46 482.19C252.56 482.19 254.33 481.69 255.58 480.7C256.83 479.7 257.46 478.32 257.46 476.56C257.46 475.08 256.96 473.86 255.97 472.89C254.97 471.92 253.75 471.13 252.3 470.5C250.85 469.87 248.78 469.16 246.11 468.37C242.24 467.18 239.08 465.98 236.63 464.78C234.18 463.58 232.08 461.82 230.31 459.49C228.55 457.16 227.66 454.11 227.66 450.36C227.66 444.78 229.68 440.41 233.72 437.25C237.76 434.09 243.03 432.51 249.51 432.51C255.99 432.51 261.43 434.09 265.48 437.25C269.52 440.41 271.68 444.81 271.97 450.44H256.18C256.07 448.51 255.35 446.98 254.05 445.87C252.74 444.76 251.06 444.21 249.01 444.21C247.25 444.21 245.82 444.68 244.74 445.62C243.66 446.56 243.12 447.91 243.12 449.68C243.12 451.62 244.03 453.12 245.85 454.21C247.67 455.29 250.52 456.46 254.39 457.71C258.26 459.02 261.4 460.27 263.82 461.47C266.24 462.67 268.33 464.4 270.1 466.68C271.86 468.96 272.75 471.89 272.75 475.47C272.75 479.05 271.88 481.99 270.15 484.78C268.41 487.57 265.89 489.79 262.59 491.44C259.29 493.09 255.39 493.92 250.89 493.92C246.39 493.92 242.58 493.21 239.11 491.79L239.1 491.75Z" stroke="#010200" stroke-width="2"/>
<path d="M363.35 433.35V445.05H347.47V493.29H332.87V445.05H316.99V433.35H363.35Z" stroke="#010200" stroke-width="2"/>
<path d="M409.34 433.35V469.21C409.34 472.8 410.22 475.56 411.99 477.49C413.75 479.43 416.34 480.39 419.76 480.39C423.18 480.39 425.79 479.42 427.61 477.49C429.43 475.56 430.34 472.79 430.34 469.21V433.35H444.94V469.12C444.94 474.47 443.801 479 441.521 482.7C439.241 486.4 436.18 489.19 432.34 491.07C428.5 492.95 424.21 493.89 419.49 493.89C414.77 493.89 410.541 492.97 406.811 491.12C403.081 489.27 400.14 486.48 397.97 482.75C395.81 479.02 394.73 474.48 394.73 469.13V433.36H409.33L409.34 433.35Z" stroke="#010200" stroke-width="2"/>
<path d="M92.1904 537.24L70.9304 597.17H52.6603L31.4004 537.24H46.9404L61.8004 582.49L76.7404 537.24H92.1904Z" stroke="#010200" stroke-width="2"/>
<path d="M167.27 597.18L155.06 578.82L144.3 597.18H127.74L146.95 566.7L127.31 537.24H144.3L156.34 555.34L166.93 537.24H183.49L164.45 567.46L184.26 597.17H167.27V597.18Z" stroke="#010200" stroke-width="2"/>
<path d="M245.5 585.23H271.28V597.18H228.93V586.08L254.54 549.2H228.93V537.25H271.28V548.35L245.5 585.23Z" stroke="#010200" stroke-width="2"/>
</svg>
