<svg width="473" height="663" viewBox="0 0 473 663" fill="none" xmlns="http://www.w3.org/2000/svg">
<path d="M460.94 11.73H0.830078V662.45H460.94V11.73Z" fill="#B7B7B7"/>
<path d="M471.95 0.72998H11.8398V651.45H471.95V0.72998Z" fill="white" stroke="#222221" stroke-miterlimit="10"/>
<path d="M208.81 234.24H63.6299V275.72H208.81V234.24Z" fill="white" stroke="#222221" stroke-miterlimit="10"/>
<path d="M420.37 234.24H275.19V275.72H420.37V234.24Z" fill="white" stroke="#222221" stroke-miterlimit="10"/>
<path d="M163.08 192.03C170.956 192.03 177.34 185.645 177.34 177.77C177.34 169.894 170.956 163.51 163.08 163.51C155.205 163.51 148.82 169.894 148.82 177.77C148.82 185.645 155.205 192.03 163.08 192.03Z" fill="#010200"/>
<path d="M109.36 192.03C117.236 192.03 123.62 185.645 123.62 177.77C123.62 169.894 117.236 163.51 109.36 163.51C101.485 163.51 95.1001 169.894 95.1001 177.77C95.1001 185.645 101.485 192.03 109.36 192.03Z" fill="#010200"/>
<path d="M163.08 187.79C168.614 187.79 173.1 183.304 173.1 177.77C173.1 172.236 168.614 167.75 163.08 167.75C157.546 167.75 153.06 172.236 153.06 177.77C153.06 183.304 157.546 187.79 163.08 187.79Z" fill="white" stroke="#404346" stroke-miterlimit="10"/>
<path d="M109.36 187.79C114.894 187.79 119.38 183.304 119.38 177.77C119.38 172.236 114.894 167.75 109.36 167.75C103.826 167.75 99.3403 172.236 99.3403 177.77C99.3403 183.304 103.826 187.79 109.36 187.79Z" fill="white" stroke="#404346" stroke-miterlimit="10"/>
<path d="M136.83 237.25C157.193 237.25 173.7 220.743 173.7 200.38C173.7 180.017 157.193 163.51 136.83 163.51C116.467 163.51 99.96 180.017 99.96 200.38C99.96 220.743 116.467 237.25 136.83 237.25Z" fill="white" stroke="#010200" stroke-miterlimit="10"/>
<path d="M162.066 218.395C167.294 215.377 168.714 208.048 165.237 202.026C161.76 196.005 154.704 193.57 149.476 196.588C144.249 199.606 142.829 206.935 146.306 212.956C149.782 218.978 156.839 221.413 162.066 218.395Z" fill="#010200"/>
<path d="M136.98 230.89C143.017 230.89 147.91 225.996 147.91 219.96C147.91 213.923 143.017 209.03 136.98 209.03C130.944 209.03 126.05 213.923 126.05 219.96C126.05 225.996 130.944 230.89 136.98 230.89Z" fill="white" stroke="#010200" stroke-width="0.5"/>
<path d="M127.602 212.952C131.079 206.93 129.659 199.602 124.432 196.584C119.204 193.566 112.148 196 108.671 202.022C105.194 208.044 106.614 215.372 111.842 218.39C117.069 221.409 124.126 218.974 127.602 212.952Z" fill="#010200"/>
<path d="M156.7 217.53C161.058 217.53 164.59 214.131 164.59 209.94C164.59 205.748 161.058 202.35 156.7 202.35C152.343 202.35 148.81 205.748 148.81 209.94C148.81 214.131 152.343 217.53 156.7 217.53Z" fill="white"/>
<path d="M117.86 217.53C122.218 217.53 125.75 214.131 125.75 209.94C125.75 205.748 122.218 202.35 117.86 202.35C113.503 202.35 109.97 205.748 109.97 209.94C109.97 214.131 113.503 217.53 117.86 217.53Z" fill="white"/>
<path d="M136.98 222.99C137.79 224.14 140.09 225.74 142.75 222.99" stroke="#010200" stroke-width="2" stroke-linecap="round"/>
<path d="M131.21 222.99C132.02 224.14 134.32 225.74 136.98 222.99" stroke="#010200" stroke-width="2" stroke-linecap="round"/>
<path d="M117.86 214.8C120.71 214.8 123.02 212.624 123.02 209.94C123.02 207.255 120.71 205.08 117.86 205.08C115.01 205.08 112.7 207.255 112.7 209.94C112.7 212.624 115.01 214.8 117.86 214.8Z" fill="#413A3A"/>
<path d="M156.7 214.8C159.55 214.8 161.86 212.624 161.86 209.94C161.86 207.255 159.55 205.08 156.7 205.08C153.85 205.08 151.54 207.255 151.54 209.94C151.54 212.624 153.85 214.8 156.7 214.8Z" fill="#413A3A"/>
<path d="M119.22 208.43C119.977 208.43 120.59 207.817 120.59 207.06C120.59 206.303 119.977 205.69 119.22 205.69C118.463 205.69 117.85 206.303 117.85 207.06C117.85 207.817 118.463 208.43 119.22 208.43Z" fill="white"/>
<path d="M158.07 208.43C158.827 208.43 159.44 207.817 159.44 207.06C159.44 206.303 158.827 205.69 158.07 205.69C157.314 205.69 156.7 206.303 156.7 207.06C156.7 207.817 157.314 208.43 158.07 208.43Z" fill="white"/>
<path d="M141.53 216.16C141.53 217.92 139.49 221.47 136.98 221.47C134.47 221.47 132.43 217.92 132.43 216.16C132.43 214.4 134.47 212.97 136.98 212.97C139.49 212.97 141.53 214.4 141.53 216.16Z" fill="#010200"/>
<path d="M380.87 170.47C378.39 174.76 372.91 176.23 368.63 173.75C364.34 171.27 362.87 165.79 365.35 161.51C366.58 159.38 369.32 157.51 372.46 155.84C374.45 154.78 376.57 153.82 378.55 152.93C379.58 152.46 380.57 152.02 381.48 151.58C382.06 153.91 382.52 157.48 382.54 161.01C382.56 164.72 382.11 168.33 380.87 170.47Z" fill="white" stroke="#010200"/>
<path d="M314.69 170.47C317.17 174.76 322.65 176.23 326.93 173.75C331.22 171.27 332.69 165.79 330.21 161.51C328.98 159.38 326.24 157.51 323.1 155.84C321.11 154.78 318.99 153.82 317.01 152.93C315.98 152.46 314.99 152.02 314.08 151.58C313.5 153.91 313.04 157.48 313.02 161.01C313 164.72 313.45 168.33 314.69 170.47Z" fill="white" stroke="#010200"/>
<path d="M380.17 167.95C378.54 170.77 374.85 171.7 371.91 170C368.97 168.3 367.93 164.64 369.56 161.82C370.37 160.42 372.2 159.19 374.35 158.1C375.71 157.41 377.15 156.78 378.49 156.2C379.16 155.91 379.81 155.63 380.41 155.36C380.82 156.93 381.16 159.29 381.21 161.63C381.24 162.87 381.18 164.1 381.02 165.2C380.85 166.3 380.58 167.25 380.18 167.95H380.17Z" fill="white" stroke="#010200"/>
<path d="M315.39 167.95C317.02 170.77 320.71 171.7 323.65 170C326.59 168.3 327.63 164.64 326 161.82C325.19 160.42 323.36 159.19 321.21 158.1C319.85 157.41 318.41 156.78 317.07 156.2C316.4 155.91 315.75 155.63 315.15 155.36C314.74 156.93 314.4 159.29 314.35 161.63C314.32 162.87 314.38 164.1 314.54 165.2C314.71 166.3 314.98 167.25 315.38 167.95H315.39Z" fill="white" stroke="#010200"/>
<path d="M382.54 193.31C382.54 202.88 381.22 213.83 376.25 222.38C371.3 230.9 362.7 237.06 348.08 237.06C333.46 237.06 324.86 230.9 319.91 222.38C314.94 213.83 313.62 202.89 313.62 193.31C313.62 174.28 329.05 158.85 348.08 158.85C367.11 158.85 382.54 174.28 382.54 193.31Z" fill="white" stroke="#010200"/>
<path d="M372.58 228.65C372.58 231.4 372.24 233.84 370.15 235.77C368.04 237.71 364.11 239.16 356.78 239.76C355.73 239.85 354.64 240.15 353.5 240.46C353.29 240.52 353.08 240.57 352.87 240.63C351.5 241 350.06 241.34 348.51 241.34C347.31 241.34 346.14 241.01 344.99 240.66C344.87 240.62 344.75 240.59 344.64 240.55C343.63 240.24 342.62 239.92 341.67 239.87C333.45 239.38 328.75 237.95 326.11 235.96C323.49 234 322.86 231.47 322.86 228.65C322.86 228.1 322.84 227.53 322.82 226.96C322.81 226.69 322.8 226.42 322.79 226.15C322.76 225.31 322.76 224.46 322.84 223.63C323.01 221.97 323.52 220.37 324.89 218.96C326.27 217.55 328.55 216.31 332.29 215.42C336.04 214.53 341.23 214 348.43 214C355.63 214 360.74 214.53 364.35 215.42C367.96 216.31 370.05 217.55 371.25 218.95C372.44 220.35 372.78 221.94 372.82 223.61C372.84 224.45 372.78 225.29 372.71 226.14C372.71 226.2 372.71 226.27 372.7 226.33C372.64 227.11 372.58 227.89 372.58 228.65Z" fill="white" stroke="#010200"/>
<path d="M348.72 239.62C345.95 239.62 343.77 238.79 342.68 238.08C342.34 237.86 342.25 237.41 342.47 237.07C342.69 236.73 343.14 236.64 343.48 236.86C345.08 237.9 349.43 239.23 354.48 236.81C354.85 236.63 355.28 236.79 355.46 237.15C355.64 237.51 355.48 237.95 355.12 238.13C352.82 239.23 350.63 239.62 348.73 239.62H348.72Z" fill="#010200"/>
<path d="M366.8 209.45C370.904 209.45 374.23 206.253 374.23 202.31C374.23 198.367 370.904 195.17 366.8 195.17C362.697 195.17 359.37 198.367 359.37 202.31C359.37 206.253 362.697 209.45 366.8 209.45Z" fill="#010200"/>
<path d="M369.56 222.33C368.73 226.97 364.87 230.08 361.01 229.39C357.15 228.7 354.62 224.44 355.45 219.8C356.28 215.16 360.14 212.05 364 212.74C367.86 213.43 370.39 217.69 369.56 222.33Z" fill="white" stroke="#010200"/>
<path d="M327.15 222.33C327.98 226.97 331.84 230.08 335.7 229.39C339.56 228.7 342.09 224.44 341.26 219.8C340.43 215.16 336.57 212.05 332.71 212.74C328.85 213.43 326.32 217.69 327.15 222.33Z" fill="white" stroke="#010200"/>
<path d="M330.21 209.45C334.314 209.45 337.64 206.253 337.64 202.31C337.64 198.367 334.314 195.17 330.21 195.17C326.107 195.17 322.78 198.367 322.78 202.31C322.78 206.253 326.107 209.45 330.21 209.45Z" fill="#010200"/>
<path d="M330.21 206.88C332.894 206.88 335.07 204.834 335.07 202.31C335.07 199.786 332.894 197.74 330.21 197.74C327.526 197.74 325.35 199.786 325.35 202.31C325.35 204.834 327.526 206.88 330.21 206.88Z" fill="#010200"/>
<path d="M331.5 200.89C332.212 200.89 332.79 200.313 332.79 199.6C332.79 198.888 332.212 198.31 331.5 198.31C330.787 198.31 330.21 198.888 330.21 199.6C330.21 200.313 330.787 200.89 331.5 200.89Z" fill="white"/>
<path d="M368.08 200.89C368.792 200.89 369.37 200.313 369.37 199.6C369.37 198.888 368.792 198.31 368.08 198.31C367.368 198.31 366.79 198.888 366.79 199.6C366.79 200.313 367.368 200.89 368.08 200.89Z" fill="white"/>
<path d="M348.22 193.31C341.02 185.31 340.12 167.45 341.36 159.44C345.22 157.87 355.51 158.87 356.65 159.73C357.45 186.82 351.22 192.45 350.93 193.31C350.07 194.6 348.21 193.31 348.21 193.31H348.22Z" stroke="#010200"/>
<path d="M340.47 181.16C325.34 176.6 328.55 166.56 332.21 161.44C341.04 155.65 362.95 155.86 366.08 161.73C366.08 161.73 366.56 162.24 366.94 163.3C367.76 165.61 366.22 171.28 367.17 174.19C360.05 174.82 357.53 169.91 357.16 167.37C352.58 168.13 351.65 175.19 351.76 178.62C342.86 176.59 342.23 171.22 343.02 168.79C337.55 170.44 339.05 177.72 340.48 181.15L340.47 181.16Z" fill="white" stroke="#010200"/>
<path d="M208.81 400.54H63.6299V442.02H208.81V400.54Z" fill="white" stroke="#222221" stroke-miterlimit="10"/>
<path d="M208.81 550H63.6299V591.48H208.81V550Z" fill="white" stroke="#222221" stroke-miterlimit="10"/>
<path d="M420.37 550H275.19V591.48H420.37V550Z" fill="white" stroke="#222221" stroke-miterlimit="10"/>
<path d="M420.37 400.54H275.19V442.02H420.37V400.54Z" fill="white" stroke="#222221" stroke-miterlimit="10"/>
<mask id="mask0_835_984" style="mask-type:luminance" maskUnits="userSpaceOnUse" x="64" y="323" width="145" height="106">
<path d="M68.04 323.52H203.62L208.42 428.33L64.02 424.3L68.04 323.52Z" fill="white"/>
</mask>
<g mask="url(#mask0_835_984)">
<path d="M75.7802 346.75C75.7802 346.75 58.3802 368.09 75.7802 377.55C93.1802 387.01 83.6902 396.46 94.4502 397.95C105.21 399.44 108.69 383.23 108.69 383.23C108.69 383.23 97.3002 360 102.99 348.38C108.69 336.76 108.69 337.84 108.69 337.84C108.69 337.84 100.46 328.65 75.7802 346.75Z" fill="white" stroke="#222221" stroke-miterlimit="10"/>
<path d="M75.7803 346.46C75.7803 346.46 94.1302 325.89 107.74 335.7C107.74 335.7 99.8302 344.56 101.41 359.43C101.41 359.43 100.46 337.28 75.7803 346.46Z" fill="#E3E1E1"/>
<path d="M105.84 339.82C105.84 339.82 94.7603 331.91 76.0903 346.47C76.0903 346.47 86.2203 330.01 96.9803 330.01C107.74 330.01 113.12 334.76 113.12 334.76L105.84 339.82Z" fill="white" stroke="#222221" stroke-miterlimit="10"/>
<path d="M195.89 344.85C195.89 344.85 213.29 366.19 195.89 375.65C178.49 385.11 187.98 394.56 177.22 396.05C166.46 397.54 162.98 381.33 162.98 381.33C162.98 381.33 174.37 358.1 168.68 346.48C162.98 334.86 162.98 335.94 162.98 335.94C162.98 335.94 171.21 326.75 195.89 344.85Z" fill="white" stroke="#222221" stroke-miterlimit="10"/>
<path d="M196.83 346.46C196.83 346.46 178.48 325.89 164.87 335.7C164.87 335.7 172.78 344.56 171.2 359.43C171.2 359.43 172.15 337.28 196.83 346.46Z" fill="#E3E1E1"/>
<path d="M167.41 339.82C167.41 339.82 178.49 331.91 197.16 346.47C197.16 346.47 187.03 330.01 176.27 330.01C165.51 330.01 160.13 334.76 160.13 334.76L167.41 339.82Z" fill="white" stroke="#222221" stroke-miterlimit="10"/>
<path d="M174.82 361.97C174.82 383.2 168.17 400.42 136.37 400.42C104.57 400.42 97.9199 383.21 97.9199 361.97C97.9199 340.73 115.13 323.52 136.37 323.52C157.61 323.52 174.82 340.73 174.82 361.97Z" fill="white" stroke="#222221" stroke-miterlimit="10"/>
<path d="M157.42 379.85C161.96 379.85 165.65 376.31 165.65 371.94C165.65 367.57 161.97 364.03 157.42 364.03C152.87 364.03 149.19 367.57 149.19 371.94C149.19 376.31 152.87 379.85 157.42 379.85Z" fill="#010200"/>
<path d="M116.91 379.85C121.45 379.85 125.14 376.31 125.14 371.94C125.14 367.57 121.46 364.03 116.91 364.03C112.36 364.03 108.68 367.57 108.68 371.94C108.68 376.31 112.36 379.85 116.91 379.85Z" fill="#010200"/>
<path d="M116.91 377C119.88 377 122.29 374.73 122.29 371.94C122.29 369.15 119.88 366.88 116.91 366.88C113.94 366.88 111.53 369.15 111.53 371.94C111.53 374.73 113.94 377 116.91 377Z" fill="#010200"/>
<path d="M118.34 370.35C119.13 370.35 119.76 369.71 119.76 368.93C119.76 368.15 119.12 367.51 118.34 367.51C117.56 367.51 116.92 368.15 116.92 368.93C116.92 369.71 117.56 370.35 118.34 370.35Z" fill="white"/>
<path d="M158.84 370.35C159.63 370.35 160.26 369.71 160.26 368.93C160.26 368.15 159.62 367.51 158.84 367.51C158.06 367.51 157.42 368.15 157.42 368.93C157.42 369.71 158.06 370.35 158.84 370.35Z" fill="white"/>
<path d="M125.22 398.85C126.06 401.14 126.9 403.51 126.71 405.94C126.52 408.37 124.98 410.87 122.59 411.36C120.2 411.85 117.5 409.37 118.39 407.1C118.91 405.77 118.57 404.4 117.55 403.41C117.29 403.15 114.11 403.48 113.75 403.41C109.56 402.63 106.83 404.39 103.94 407.52C102.91 408.64 104.11 410.43 104.26 411.95C104.36 413.01 106.4 414.53 107.13 415.31C115.58 424.4 131.45 427.47 141.92 420.81C141.92 420.81 160.41 412.8 148.12 386.32" fill="white"/>
<path d="M125.22 398.85C126.06 401.14 126.9 403.51 126.71 405.94C126.52 408.37 124.98 410.87 122.59 411.36C120.2 411.85 117.5 409.37 118.39 407.1C118.91 405.77 118.57 404.4 117.55 403.41C117.29 403.15 114.11 403.48 113.75 403.41C109.56 402.63 106.83 404.39 103.94 407.52C102.91 408.64 104.11 410.43 104.26 411.95C104.36 413.01 106.4 414.53 107.13 415.31C115.58 424.4 131.45 427.47 141.92 420.81C141.92 420.81 160.41 412.8 148.12 386.32" stroke="#222221" stroke-miterlimit="10"/>
<path d="M152.33 396.56C152.15 396.92 153.94 399.63 157.1 399.95C160.26 400.27 156.15 394.25 156.15 394.25C156.15 394.25 154.2 392.85 152.33 396.56Z" fill="white" stroke="#222221" stroke-miterlimit="10"/>
<path d="M123.79 397.51C123.97 397.87 122.18 400.58 119.02 400.9C115.86 401.22 119.97 395.2 119.97 395.2C119.97 395.2 121.92 393.8 123.79 397.51Z" fill="white" stroke="#222221" stroke-miterlimit="10"/>
<path d="M147.27 396.52C142.69 394.52 137.38 394.6 132.81 396.6C131.52 397.17 130.32 397.9 129.2 398.76C128.99 398.92 129.04 399.26 129.2 399.43C129.4 399.63 129.67 399.59 129.87 399.43C133.53 396.6 138.44 395.45 142.98 396.22C144.28 396.44 145.57 396.81 146.78 397.34C147.33 397.58 147.82 396.76 147.26 396.52H147.27Z" fill="#010200"/>
<path d="M146.4 404.06C145.21 403.27 143.78 403.09 142.38 402.97C141 402.85 139.61 402.75 138.23 402.74C135.47 402.72 132.65 403.11 130.23 404.51C129.7 404.82 130.18 405.64 130.71 405.33C132.99 404.01 135.63 403.68 138.23 403.69C139.53 403.69 140.82 403.79 142.12 403.9C143.41 404.01 144.79 404.14 145.92 404.88C146.43 405.22 146.91 404.4 146.4 404.06Z" fill="#010200"/>
</g>
<path d="M395.03 375.51C395.06 400.76 374.62 421.25 349.37 421.29C324.12 421.32 303.63 400.88 303.59 375.63C308.07 352.3 324.01 336.85 349.26 336.81C374.51 336.78 387.28 349.93 395.03 375.51Z" fill="white" stroke="#222221" stroke-miterlimit="10"/>
<path d="M375.06 377.22C386.697 377.22 396.13 367.786 396.13 356.15C396.13 344.513 386.697 335.08 375.06 335.08C363.424 335.08 353.99 344.513 353.99 356.15C353.99 367.786 363.424 377.22 375.06 377.22Z" fill="white" stroke="#222221" stroke-miterlimit="10"/>
<path d="M375.03 330.57H375.06C381.88 330.57 388.3 333.22 393.13 338.04C397.97 342.87 400.64 349.29 400.65 356.12C400.65 362.95 398.01 369.38 393.18 374.22C388.35 379.06 381.93 381.73 375.1 381.74H375.07C368.25 381.74 361.83 379.09 357 374.27C352.16 369.44 349.49 363.02 349.48 356.19C349.48 349.36 352.12 342.93 356.95 338.09C361.78 333.25 368.2 330.58 375.03 330.57ZM375.06 339.6H375.04C370.62 339.6 366.46 341.33 363.34 344.46C360.22 347.59 358.5 351.75 358.51 356.17C358.51 360.59 360.24 364.75 363.37 367.87C366.5 370.99 370.65 372.7 375.06 372.7H375.08C379.5 372.7 383.66 370.97 386.78 367.84C389.9 364.71 391.62 360.55 391.61 356.13C391.61 351.71 389.88 347.55 386.75 344.43C383.62 341.31 379.47 339.6 375.06 339.6Z" fill="white" stroke="#222221" stroke-miterlimit="10"/>
<path d="M320.5 377.3C332.137 377.3 341.57 367.866 341.57 356.23C341.57 344.593 332.137 335.16 320.5 335.16C308.864 335.16 299.43 344.593 299.43 356.23C299.43 367.866 308.864 377.3 320.5 377.3Z" fill="white" stroke="#222221" stroke-miterlimit="10"/>
<path d="M320.5 381.81C313.68 381.81 307.26 379.16 302.43 374.34C297.59 369.51 294.92 363.09 294.91 356.26C294.89 342.15 306.35 330.66 320.46 330.64H320.49C327.31 330.64 333.73 333.29 338.56 338.11C343.4 342.94 346.07 349.36 346.08 356.19C346.08 363.02 343.44 369.45 338.61 374.29C333.78 379.13 327.36 381.8 320.53 381.81H320.5ZM320.5 339.67H320.48C311.35 339.68 303.93 347.12 303.95 356.25C303.95 360.67 305.68 364.83 308.81 367.95C311.94 371.07 316.09 372.78 320.5 372.78H320.52C324.94 372.78 329.1 371.05 332.22 367.92C335.34 364.79 337.06 360.63 337.05 356.21C337.05 351.79 335.32 347.63 332.19 344.51C329.06 341.39 324.91 339.68 320.5 339.68V339.67Z" fill="white" stroke="#222221" stroke-miterlimit="10"/>
<path d="M313.39 362.938C316.925 362.933 319.787 360.234 319.782 356.909C319.777 353.585 316.908 350.893 313.374 350.898C309.839 350.903 306.977 353.602 306.982 356.927C306.987 360.252 309.856 362.943 313.39 362.938Z" fill="#222221" stroke="#222221" stroke-miterlimit="10"/>
<path d="M383.363 357.571C386.898 357.566 389.759 354.866 389.755 351.542C389.75 348.217 386.881 345.526 383.346 345.531C379.812 345.536 376.95 348.235 376.955 351.56C376.959 354.884 379.828 357.576 383.363 357.571Z" fill="#222221" stroke="#222221" stroke-miterlimit="10"/>
<path d="M315.04 355.1C315.973 355.1 316.73 354.343 316.73 353.41C316.73 352.476 315.973 351.72 315.04 351.72C314.107 351.72 313.35 352.476 313.35 353.41C313.35 354.343 314.107 355.1 315.04 355.1Z" fill="white" stroke="#222221" stroke-miterlimit="10"/>
<path d="M385.02 349.74C385.954 349.74 386.71 348.983 386.71 348.05C386.71 347.117 385.954 346.36 385.02 346.36C384.087 346.36 383.33 347.117 383.33 348.05C383.33 348.983 384.087 349.74 385.02 349.74Z" fill="white" stroke="#222221" stroke-miterlimit="10"/>
<path d="M393.73 387.17C346.95 405.44 314.35 393.73 304.74 386.16C307.01 395 317.39 421.53 352.01 421.28C377.6 421.1 390.8 398.46 393.73 387.17Z" fill="white" stroke="#222221" stroke-miterlimit="10"/>
<path d="M376.82 406.71C371.4 408.22 368.66 399.45 367.96 394.87C369.92 394.87 375.92 393.1 378.68 392.22C380.32 396.42 382.23 405.2 376.82 406.71Z" fill="white" stroke="#222221" stroke-miterlimit="10"/>
<path d="M354.22 391.56C355.573 391.56 356.67 390.463 356.67 389.11C356.67 387.757 355.573 386.66 354.22 386.66C352.867 386.66 351.77 387.757 351.77 389.11C351.77 390.463 352.867 391.56 354.22 391.56Z" fill="white" stroke="#222221" stroke-miterlimit="10"/>
<path d="M343.69 391.57C345.043 391.57 346.14 390.473 346.14 389.12C346.14 387.767 345.043 386.67 343.69 386.67C342.337 386.67 341.24 387.767 341.24 389.12C341.24 390.473 342.337 391.57 343.69 391.57Z" fill="white" stroke="#222221" stroke-miterlimit="10"/>
<path d="M335.43 363.73C317.06 371.28 307.34 364.52 305.64 363.77C306.84 368.66 309.57 378.42 321.32 377.67C330.99 377.06 334.76 368.12 335.43 363.73Z" fill="white" stroke="#222221" stroke-miterlimit="10"/>
<path d="M390.02 363.05C371.5 370.6 361.72 363.84 360 363.09C361.21 367.98 363.96 377.74 375.8 376.99C385.54 376.37 389.34 367.44 390.02 363.05Z" fill="white" stroke="#222221" stroke-miterlimit="10"/>
<path d="M184.43 523.53C183.4 548.6 164.63 568.18 134.47 566.94C104.31 565.69 89.2396 544.71 90.2896 519.65C91.3196 494.58 118.69 475.36 138.23 476.16C157.77 476.96 185.47 498.47 184.44 523.53H184.43Z" fill="white" stroke="#222221" stroke-miterlimit="10"/>
<path d="M160.42 549.08C160.07 556.51 161.46 566.72 135.13 565.48C108.8 564.25 112.07 554.24 112.43 546.82C112.78 539.39 121.13 533.75 136.59 534.48C152.06 535.21 160.78 541.65 160.42 549.08Z" fill="white" stroke="#222221" stroke-miterlimit="10"/>
<path d="M171.88 529.09C171.8 523.93 167.39 519.81 162.02 519.89C156.65 519.97 152.37 524.22 152.45 529.38C152.53 534.54 156.94 538.66 162.31 538.58C167.68 538.5 171.96 534.25 171.88 529.09Z" fill="#222221" stroke="#222221" stroke-miterlimit="10"/>
<path d="M121.09 527.33C121.01 522.17 116.6 518.05 111.23 518.13C105.86 518.21 101.58 522.46 101.66 527.62C101.74 532.78 106.15 536.9 111.52 536.82C116.89 536.74 121.17 532.49 121.09 527.33Z" fill="#222221" stroke="#222221" stroke-miterlimit="10"/>
<path d="M168.12 526.52C169.04 526.39 169.68 525.53 169.54 524.62C169.4 523.71 168.55 523.06 167.64 523.2C166.73 523.34 166.08 524.19 166.22 525.1C166.36 526.01 167.21 526.66 168.12 526.52Z" fill="white" stroke="#222221" stroke-miterlimit="10"/>
<path d="M115.85 525.16C116.77 525.03 117.41 524.17 117.27 523.26C117.13 522.35 116.28 521.7 115.37 521.84C114.46 521.98 113.81 522.83 113.95 523.74C114.09 524.65 114.94 525.3 115.85 525.16Z" fill="white" stroke="#222221" stroke-miterlimit="10"/>
<path d="M150.9 548.44C150.73 552.04 148.78 554.89 146.56 554.79C144.33 554.68 144.01 551.73 144.17 548.13C144.34 544.53 144.94 541.61 147.16 541.72C149.38 541.83 151.06 544.84 150.88 548.45H150.89L150.9 548.44Z" fill="white" stroke="#222221" stroke-miterlimit="10"/>
<path d="M122.52 547.12C122.35 550.72 124.02 553.74 126.24 553.85C128.47 553.96 129.07 551.06 129.23 547.44C129.4 543.82 129.08 540.89 126.84 540.78C124.61 540.67 122.67 543.52 122.5 547.13H122.51L122.52 547.12Z" fill="white" stroke="#222221" stroke-miterlimit="10"/>
<path d="M175.36 500.05C174.27 497.38 171.36 495.24 170.04 494.53C170.01 492.34 170.99 487.97 175.17 487.9C179.18 487.84 180.4 493.44 180.53 496.58C181.82 496.26 181.18 496.67 180.55 496.97C180.55 496.84 180.54 496.71 180.53 496.58C180.19 496.67 179.7 496.79 179.05 496.99C175.92 497.93 175.29 499.41 175.35 500.04H175.36V500.05Z" fill="white"/>
<path d="M180.53 496.58C180.4 493.44 179.18 487.84 175.17 487.9C170.99 487.97 170.01 492.34 170.04 494.53C171.36 495.24 174.27 497.38 175.36 500.05V500.04H175.35C175.29 499.41 175.92 497.93 179.05 496.99C179.7 496.79 180.19 496.67 180.53 496.58ZM180.53 496.58C181.82 496.26 181.18 496.67 180.55 496.97C180.55 496.84 180.54 496.71 180.53 496.58Z" stroke="#222221" stroke-miterlimit="10"/>
<path d="M175.19 500.12C174.14 497.53 171.3 495.44 169.95 494.69L169.45 494.41L169.88 494.35C169.88 492.79 170.37 490.55 171.75 489.13C172.65 488.2 173.81 487.72 175.2 487.7C175.22 487.7 175.24 487.7 175.26 487.7C179.23 487.7 180.55 493.03 180.74 496.34C181.4 496.2 181.43 496.3 181.48 496.42C181.55 496.6 181.45 496.75 180.65 497.14L180.38 497.27V496.97C180.38 496.92 180.38 496.87 180.38 496.82C180.08 496.9 179.67 497.01 179.13 497.18C176.03 498.11 175.51 499.55 175.57 500.02L175.2 500.12H175.19ZM170.26 494.43C171.59 495.19 174.08 497.06 175.28 499.41C175.59 498.62 176.58 497.55 179.01 496.82C179.59 496.65 180.02 496.52 180.36 496.44C180.19 493.25 178.96 488.03 175.2 488.09C173.91 488.11 172.84 488.55 172.02 489.4C170.7 490.76 170.25 492.94 170.26 494.43Z" fill="white" stroke="#222221" stroke-miterlimit="10"/>
<path d="M97.0501 502.37C98.0601 499.66 100.9 497.44 102.2 496.69C102.17 494.5 101.05 490.16 96.8701 490.22C92.6901 490.28 91.8202 495.92 91.7802 499.07C90.4702 498.8 91.1302 499.18 91.7802 499.46C91.7802 499.33 91.7802 499.2 91.7802 499.07C92.1302 499.14 92.6102 499.26 93.2702 499.44C96.4302 500.29 97.1101 501.75 97.0501 502.37Z" fill="white"/>
<path d="M91.7802 499.07C91.8202 495.92 92.6901 490.28 96.8701 490.22C101.05 490.16 102.17 494.5 102.2 496.69C100.9 497.44 98.0601 499.66 97.0501 502.37C97.1101 501.75 96.4302 500.29 93.2702 499.44C92.6102 499.26 92.1302 499.14 91.7802 499.07ZM91.7802 499.07C90.4702 498.8 91.1302 499.18 91.7802 499.46C91.7802 499.33 91.7802 499.2 91.7802 499.07Z" stroke="#222221" stroke-miterlimit="10"/>
<path d="M97.23 502.44L96.86 502.36C96.91 501.76 96.21 500.43 93.22 499.63C92.67 499.48 92.26 499.38 91.96 499.31C91.96 499.36 91.96 499.41 91.96 499.46V499.76L91.69 499.64C90.88 499.28 90.78 499.13 90.84 498.94C90.89 498.81 90.92 498.71 91.58 498.83C91.66 495.49 92.82 490.09 96.87 490.02C98.78 490 100.28 490.85 101.26 492.51C102.28 494.22 102.38 496.14 102.39 496.68V496.79L102.3 496.85C100.97 497.64 98.2 499.82 97.24 502.44H97.23ZM91.96 498.92C92.3 498.99 92.74 499.11 93.32 499.26C95.76 499.91 96.79 500.94 97.12 501.72C98.26 499.33 100.71 497.37 102 496.58C101.98 495.95 101.84 494.24 100.93 492.71C100.01 491.16 98.64 490.38 96.87 490.41C93.09 490.48 92.02 495.72 91.96 498.91V498.92Z" fill="white" stroke="#222221" stroke-miterlimit="10"/>
<path d="M158.87 485.66C173.67 475.34 184.81 482.27 186.24 490.28C187.39 496.69 190.93 499.62 192.56 500.28C179.98 509.07 179 494.32 175.4 490.45C172.51 487.35 170.37 491.84 169.66 494.47" fill="white"/>
<path d="M158.87 485.66C173.67 475.34 184.81 482.27 186.24 490.28C187.39 496.69 190.93 499.62 192.56 500.28C179.98 509.07 179 494.32 175.4 490.45C172.51 487.35 170.37 491.84 169.66 494.47" stroke="#222221" stroke-miterlimit="10"/>
<path d="M113.1 487.48C97.9899 477.61 87.0699 484.89 85.8899 492.95C84.9399 499.4 81.4899 502.43 79.8799 503.14C92.7299 511.55 93.2399 496.76 96.7399 492.78H96.7299C99.5299 489.59 101.8 494 102.59 496.61" fill="white"/>
<path d="M113.1 487.48C97.9899 477.61 87.0699 484.89 85.8899 492.95C84.9399 499.4 81.4899 502.43 79.8799 503.14C92.7299 511.55 93.2399 496.76 96.7399 492.78H96.7299C99.5299 489.59 101.8 494 102.59 496.61" stroke="#222221" stroke-miterlimit="10"/>
<path d="M323.65 461.99C332.89 461.35 343.44 466.51 347.56 469.17C351.38 462.15 365.62 460.93 372.26 461.19C371.6 461.46 370.51 462.39 371.46 463.98C372.42 465.58 371.86 468.1 371.46 469.16C375.71 465.57 385.01 460.55 388.19 469.16C391.38 477.77 403.86 485.51 409.7 488.3C410.34 493.4 404.92 499.47 402.13 501.86C408.5 507.6 408.77 519.94 408.11 525.39C406.36 523.39 401.09 521.43 397.09 520.22C400.03 521.36 403.07 523.62 402.13 527.38C400.86 532.49 405.05 543.07 407.31 547.72C403.49 550.91 396.69 548.52 393.76 546.92C395.09 550.51 396.67 558.7 394.16 560.08C390.82 561.91 388.98 566.46 388.18 570.85C384.29 570.85 380.57 564.54 378.92 560.79C379.69 562.96 379.57 566.19 376.72 569.34C373.53 572.85 373.44 575.83 373.44 582.42C368.98 584.97 363.08 577.11 360.69 572.85C361.35 574.58 361.57 578.27 357.1 579.23C352.64 580.19 348.87 586.27 347.54 589.2C347.94 586.94 347.54 582.42 342.76 582.42C337.98 582.42 335.72 576.84 335.19 574.05C334.23 579.79 326.03 582.03 322.04 582.42C322.57 581.22 322.76 577.87 319.25 574.05C315.96 570.46 315.92 564.49 316.37 561.46C315.16 567.74 309.34 570.34 306.5 570.86C306.37 569.27 305.38 565.04 302.52 560.89C299.65 556.74 300.26 550.39 300.93 547.73C298.76 551.77 291.62 549.58 288.06 547.87C287.96 547.83 287.87 547.78 287.79 547.73C287.88 547.77 287.97 547.82 288.06 547.87C289.44 548.4 291.67 547.21 291.37 538.56C291.05 529.31 296.02 523.01 298.54 521.01C295.99 519.41 290.31 523.8 287.78 526.19C284.27 517.9 290.57 506.52 294.15 501.86C289.05 500.26 286.45 492.16 285.78 488.3C287.9 487.9 292.55 486.23 294.15 482.72C303.39 462.3 317.66 465.17 323.63 469.16C322.04 467.56 322.97 463.71 323.63 461.98L323.65 461.99Z" fill="white"/>
<path d="M288.06 547.87C291.62 549.58 298.76 551.77 300.93 547.73C300.26 550.39 299.65 556.74 302.52 560.89C305.38 565.04 306.37 569.27 306.5 570.86C309.34 570.34 315.16 567.74 316.37 561.46C315.92 564.49 315.96 570.46 319.25 574.05C322.76 577.87 322.57 581.22 322.04 582.42C326.03 582.03 334.23 579.79 335.19 574.05C335.72 576.84 337.98 582.42 342.76 582.42C347.54 582.42 347.94 586.94 347.54 589.2C348.87 586.27 352.64 580.19 357.1 579.23C361.57 578.27 361.35 574.58 360.69 572.85C363.08 577.11 368.98 584.97 373.44 582.42C373.44 575.83 373.53 572.85 376.72 569.34C379.57 566.19 379.69 562.96 378.92 560.79C380.57 564.54 384.29 570.85 388.18 570.85C388.98 566.46 390.82 561.91 394.16 560.08C396.67 558.7 395.09 550.51 393.76 546.92C396.69 548.52 403.49 550.91 407.31 547.72C405.05 543.07 400.86 532.49 402.13 527.38C403.07 523.62 400.03 521.36 397.09 520.22C401.09 521.43 406.36 523.39 408.11 525.39C408.77 519.94 408.5 507.6 402.13 501.86C404.92 499.47 410.34 493.4 409.7 488.3C403.86 485.51 391.38 477.77 388.19 469.16C385.01 460.55 375.71 465.57 371.46 469.16C371.86 468.1 372.42 465.58 371.46 463.98C370.51 462.39 371.6 461.46 372.26 461.19C365.62 460.93 351.38 462.15 347.56 469.17C343.44 466.51 332.89 461.35 323.65 461.99L323.63 461.98C322.97 463.71 322.04 467.56 323.63 469.16C317.66 465.17 303.39 462.3 294.15 482.72C292.55 486.23 287.9 487.9 285.78 488.3C286.45 492.16 289.05 500.26 294.15 501.86C290.57 506.52 284.27 517.9 287.78 526.19C290.31 523.8 295.99 519.41 298.54 521.01C296.02 523.01 291.05 529.31 291.37 538.56C291.67 547.21 289.44 548.4 288.06 547.87ZM288.06 547.87C287.96 547.83 287.87 547.78 287.79 547.73C287.88 547.77 287.97 547.82 288.06 547.87Z" stroke="#222221" stroke-miterlimit="10"/>
<path d="M403.275 491.482C408.091 483.14 406.093 472.971 398.814 468.768C391.534 464.565 381.729 467.92 376.913 476.262C372.097 484.603 374.094 494.772 381.374 498.975C388.653 503.178 398.459 499.823 403.275 491.482Z" fill="white" stroke="#222221" stroke-miterlimit="10"/>
<path d="M313.815 498.972C321.094 494.77 323.092 484.6 318.276 476.259C313.46 467.918 303.654 464.563 296.375 468.766C289.095 472.968 287.098 483.138 291.914 491.479C296.73 499.82 306.535 503.175 313.815 498.972Z" fill="white" stroke="#222221" stroke-miterlimit="10"/>
<path d="M400.75 491.431C404.133 485.572 402.703 478.414 397.557 475.443C392.41 472.471 385.496 474.812 382.113 480.671C378.731 486.531 380.16 493.689 385.307 496.66C390.453 499.632 397.367 497.291 400.75 491.431Z" fill="white" stroke="#222221" stroke-miterlimit="10"/>
<path d="M309.889 496.666C315.036 493.694 316.465 486.536 313.083 480.677C309.7 474.818 302.786 472.477 297.639 475.448C292.493 478.419 291.063 485.578 294.446 491.437C297.829 497.296 304.743 499.637 309.889 496.666Z" fill="white" stroke="#222221" stroke-miterlimit="10"/>
<path d="M391.95 521.1C391.95 541.89 377.88 559.4 358.73 564.61C354.95 565.64 351.52 569.9 347.41 569.9C343.3 569.9 338.76 565.64 334.98 564.61C315.84 559.4 301.76 541.89 301.76 521.1C301.76 496.2 321.95 481.2 346.85 481.2C371.75 481.2 391.94 496.19 391.94 521.1H391.95Z" fill="white" stroke="#222221" stroke-miterlimit="10"/>
<path d="M371.16 542.07C376.49 542.07 380.81 537.915 380.81 532.79C380.81 527.665 376.49 523.51 371.16 523.51C365.831 523.51 361.51 527.665 361.51 532.79C361.51 537.915 365.831 542.07 371.16 542.07Z" fill="#222221" stroke="#222221" stroke-miterlimit="10"/>
<path d="M323.66 542.07C328.99 542.07 333.31 537.915 333.31 532.79C333.31 527.665 328.99 523.51 323.66 523.51C318.331 523.51 314.01 527.665 314.01 532.79C314.01 537.915 318.331 542.07 323.66 542.07Z" fill="#222221" stroke="#222221" stroke-miterlimit="10"/>
<path d="M325.33 530.93C326.253 530.93 327 530.183 327 529.26C327 528.338 326.253 527.59 325.33 527.59C324.408 527.59 323.66 528.338 323.66 529.26C323.66 530.183 324.408 530.93 325.33 530.93Z" fill="white" stroke="#222221" stroke-miterlimit="10"/>
<path d="M372.83 530.93C373.752 530.93 374.5 530.183 374.5 529.26C374.5 528.338 373.752 527.59 372.83 527.59C371.908 527.59 371.16 528.338 371.16 529.26C371.16 530.183 371.908 530.93 372.83 530.93Z" fill="white" stroke="#222221" stroke-miterlimit="10"/>
<path d="M347.25 568.04C336.99 568.04 336.56 555.17 334.42 548.74C338.78 554.66 344.21 549.72 346.67 547.26C352.57 553.69 358.48 551.42 360.4 548.74C358.15 555.17 357.51 568.04 347.25 568.04Z" fill="white" stroke="#222221" stroke-miterlimit="10"/>
<path d="M354.09 557.28L352.98 551.9H355.39L354.09 557.28Z" fill="white" stroke="#222221" stroke-miterlimit="10"/>
<path d="M340.36 557.28L339.25 551.9H341.66L340.36 557.28Z" fill="white" stroke="#222221" stroke-miterlimit="10"/>
<path d="M346.87 566.19C343.1 566.19 340.46 562.81 339.62 561.12C345.71 554.17 352.8 558.23 355.58 561.12C354.25 562.81 350.65 566.19 346.87 566.19Z" fill="white" stroke="#222221" stroke-miterlimit="10"/>
<path d="M354.65 553.2C359.057 553.2 362.63 549.878 362.63 545.78C362.63 541.682 359.057 538.36 354.65 538.36C350.243 538.36 346.67 541.682 346.67 545.78C346.67 549.878 350.243 553.2 354.65 553.2Z" fill="white" stroke="#222221" stroke-miterlimit="10"/>
<path d="M339.06 553.2C343.467 553.2 347.04 549.878 347.04 545.78C347.04 541.682 343.467 538.36 339.06 538.36C334.653 538.36 331.08 541.682 331.08 545.78C331.08 549.878 334.653 553.2 339.06 553.2Z" fill="white" stroke="#222221" stroke-miterlimit="10"/>
<path d="M354.83 536.73C354.83 539.73 351.34 545.77 347.04 545.77C342.74 545.77 339.25 539.72 339.25 536.73C339.25 533.74 342.74 531.3 347.04 531.3C351.34 531.3 354.83 533.73 354.83 536.73Z" fill="white" stroke="#222221" stroke-miterlimit="10"/>
<path d="M352.66 561.26L351.55 566.64L353.59 565.34L352.66 561.26Z" fill="white" stroke="#222221" stroke-miterlimit="10"/>
<path d="M342.26 561.26L341.52 565.53L343.56 566.64L342.26 561.26Z" fill="white" stroke="#222221" stroke-miterlimit="10"/>
<path d="M337.45 550.77C337.31 550.77 337.17 550.72 337.06 550.61C336.84 550.39 336.84 550.04 337.06 549.82L337.2 549.68C337.42 549.46 337.77 549.46 337.99 549.68C338.21 549.9 338.21 550.25 337.99 550.47L337.85 550.61C337.74 550.72 337.6 550.77 337.45 550.77Z" fill="white" stroke="#222221" stroke-miterlimit="10"/>
<path d="M334.73 545.45H334.59C334.28 545.45 334.03 545.2 334.03 544.89C334.03 544.58 334.28 544.33 334.59 544.33H334.73C335.04 544.33 335.29 544.58 335.29 544.89C335.29 545.2 335.04 545.45 334.73 545.45Z" fill="white" stroke="#222221" stroke-miterlimit="10"/>
<path d="M338.94 546.55C338.79 546.55 338.64 546.49 338.53 546.37C338.32 546.14 338.35 545.78 338.58 545.58C338.75 545.43 338.89 545.38 339 545.34L339.05 545.32C339.34 545.22 339.66 545.37 339.76 545.66C339.86 545.95 339.71 546.27 339.42 546.37L339.31 546.41C339.2 546.51 339.08 546.55 338.95 546.55H338.94Z" fill="white" stroke="#222221" stroke-miterlimit="10"/>
<path d="M353.26 550.09H353.12C352.81 550.09 352.56 549.84 352.56 549.53C352.56 549.22 352.81 548.97 353.12 548.97H353.26C353.57 548.97 353.82 549.22 353.82 549.53C353.82 549.84 353.57 550.09 353.26 550.09Z" fill="white" stroke="#222221" stroke-miterlimit="10"/>
<path d="M357.48 548.59C357.28 548.59 357.08 548.48 356.98 548.28L356.84 548.01C356.7 547.73 356.82 547.4 357.09 547.26C357.36 547.12 357.7 547.24 357.84 547.51L357.98 547.78C358.12 548.06 358 548.39 357.73 548.53C357.65 548.57 357.57 548.59 357.48 548.59Z" fill="white" stroke="#222221" stroke-miterlimit="10"/>
<path d="M354.35 545.45C354.21 545.45 354.07 545.4 353.96 545.29C353.74 545.07 353.74 544.72 353.96 544.5L354.1 544.36C354.32 544.14 354.67 544.14 354.89 544.36C355.11 544.58 355.11 544.93 354.89 545.15L354.75 545.29C354.64 545.4 354.5 545.45 354.35 545.45Z" fill="white" stroke="#222221" stroke-miterlimit="10"/>
<path d="M145.67 58.2403H139.43L138.36 61.2803H135.81L141.15 46.3604H143.98L149.32 61.2803H146.75L145.68 58.2403H145.67ZM144.98 56.2504L142.56 49.3304L140.12 56.2504H144.99H144.98Z" fill="#010200"/>
<path d="M163.87 61.2901H161.43L154.08 50.1601V61.2901H151.64V46.3701H154.08L161.43 57.4801V46.3701H163.87V61.2901Z" fill="#010200"/>
<path d="M169.53 46.3901V61.2901H167.09V46.3901H169.53Z" fill="#010200"/>
<path d="M188.44 46.3901V61.2901H186V51.0801L181.46 61.2901H179.77L175.2 51.0801V61.2901H172.76V46.3901H175.4L180.63 58.0801L185.84 46.3901H188.46H188.44Z" fill="#010200"/>
<path d="M200.64 58.2403H194.4L193.33 61.2803H190.78L196.12 46.3604H198.95L204.29 61.2803H201.72L200.65 58.2403H200.64ZM199.96 56.2504L197.54 49.3304L195.1 56.2504H199.97H199.96Z" fill="#010200"/>
<path d="M209.05 46.3901V61.2901H206.61V46.3901H209.05Z" fill="#010200"/>
<path d="M214.47 60.9102C213.67 60.5602 213.04 60.0602 212.58 59.4202C212.12 58.7802 211.89 58.0302 211.89 57.1702H214.51C214.57 57.8102 214.82 58.3402 215.27 58.7602C215.72 59.1802 216.35 59.3802 217.17 59.3802C217.99 59.3802 218.67 59.1802 219.14 58.7702C219.61 58.3602 219.85 57.8402 219.85 57.1902C219.85 56.6902 219.7 56.2802 219.41 55.9702C219.12 55.6602 218.75 55.4102 218.32 55.2402C217.88 55.0702 217.28 54.8802 216.51 54.6802C215.54 54.4202 214.75 54.1602 214.14 53.9002C213.53 53.6402 213.01 53.2302 212.59 52.6702C212.17 52.1102 211.95 51.3702 211.95 50.4402C211.95 49.5802 212.16 48.8302 212.59 48.1902C213.02 47.5502 213.62 47.0502 214.39 46.7102C215.16 46.3702 216.06 46.2002 217.07 46.2002C218.51 46.2002 219.7 46.5602 220.62 47.2802C221.54 48.0002 222.05 48.9902 222.15 50.2502H219.45C219.41 49.7102 219.15 49.2402 218.68 48.8602C218.21 48.4702 217.59 48.2802 216.81 48.2802C216.11 48.2802 215.54 48.4602 215.1 48.8202C214.66 49.1802 214.43 49.6902 214.43 50.3602C214.43 50.8202 214.57 51.1902 214.85 51.4802C215.13 51.7702 215.48 52.0102 215.91 52.1802C216.34 52.3502 216.92 52.5402 217.67 52.7402C218.66 53.0102 219.46 53.2802 220.08 53.5502C220.7 53.8202 221.23 54.2402 221.67 54.8002C222.11 55.3702 222.32 56.1202 222.32 57.0602C222.32 57.8202 222.12 58.5302 221.71 59.2002C221.3 59.8702 220.71 60.4102 219.93 60.8202C219.15 61.2302 218.23 61.4302 217.18 61.4302C216.18 61.4302 215.28 61.2602 214.48 60.9002L214.47 60.9102Z" fill="#010200"/>
<path d="M233 60.9102C232.2 60.5602 231.57 60.0602 231.11 59.4202C230.65 58.7802 230.42 58.0302 230.42 57.1702H233.04C233.1 57.8102 233.35 58.3402 233.8 58.7602C234.25 59.1802 234.88 59.3802 235.7 59.3802C236.52 59.3802 237.2 59.1802 237.67 58.7702C238.14 58.3602 238.38 57.8402 238.38 57.1902C238.38 56.6902 238.23 56.2802 237.94 55.9702C237.65 55.6602 237.28 55.4102 236.85 55.2402C236.41 55.0702 235.81 54.8802 235.04 54.6802C234.07 54.4202 233.28 54.1602 232.67 53.9002C232.06 53.6402 231.54 53.2302 231.12 52.6702C230.7 52.1102 230.48 51.3702 230.48 50.4402C230.48 49.5802 230.69 48.8302 231.12 48.1902C231.55 47.5502 232.15 47.0502 232.92 46.7102C233.69 46.3702 234.59 46.2002 235.6 46.2002C237.04 46.2002 238.23 46.5602 239.15 47.2802C240.07 48.0002 240.58 48.9902 240.68 50.2502H237.98C237.94 49.7102 237.68 49.2402 237.21 48.8602C236.74 48.4702 236.12 48.2802 235.34 48.2802C234.64 48.2802 234.07 48.4602 233.63 48.8202C233.19 49.1802 232.96 49.6902 232.96 50.3602C232.96 50.8202 233.1 51.1902 233.38 51.4802C233.66 51.7702 234.01 52.0102 234.44 52.1802C234.87 52.3502 235.45 52.5402 236.2 52.7402C237.19 53.0102 237.99 53.2802 238.61 53.5502C239.23 53.8202 239.76 54.2402 240.2 54.8002C240.64 55.3702 240.85 56.1202 240.85 57.0602C240.85 57.8202 240.65 58.5302 240.24 59.2002C239.83 59.8702 239.24 60.4102 238.46 60.8202C237.68 61.2302 236.76 61.4302 235.71 61.4302C234.71 61.4302 233.81 61.2602 233.01 60.9002L233 60.9102Z" fill="#010200"/>
<path d="M246.18 48.3604V52.7304H251.33V54.7204H246.18V59.2904H251.97V61.2803H243.74V46.3604H251.97V48.3503H246.18V48.3604Z" fill="#010200"/>
<path d="M257.42 59.3104H262.46V61.2804H254.98V46.3804H257.42V59.3104Z" fill="#010200"/>
<path d="M277.33 46.3901L271.73 61.2901H268.9L263.28 46.3901H265.9L270.32 58.7801L274.76 46.3901H277.33Z" fill="#010200"/>
<path d="M288.35 58.2403H282.11L281.04 61.2803H278.49L283.83 46.3604H286.66L292 61.2803H289.43L288.36 58.2403H288.35ZM287.67 56.2504L285.25 49.3304L282.81 56.2504H287.68H287.67Z" fill="#010200"/>
<path d="M305.1 50.67C304.71 49.93 304.18 49.37 303.49 48.99C302.8 48.61 302.01 48.42 301.11 48.42C300.12 48.42 299.24 48.64 298.47 49.09C297.7 49.53 297.09 50.16 296.66 50.98C296.22 51.8 296.01 52.74 296.01 53.81C296.01 54.88 296.23 55.83 296.66 56.65C297.1 57.47 297.7 58.1 298.47 58.55C299.24 58.99 300.12 59.21 301.11 59.21C302.44 59.21 303.52 58.84 304.35 58.1C305.18 57.36 305.69 56.35 305.87 55.08H300.27V53.13H308.48V55.04C308.32 56.2 307.91 57.26 307.25 58.23C306.58 59.2 305.72 59.98 304.66 60.56C303.6 61.14 302.41 61.43 301.11 61.43C299.71 61.43 298.43 61.1 297.27 60.45C296.11 59.8 295.19 58.9 294.51 57.74C293.83 56.58 293.49 55.27 293.49 53.82C293.49 52.37 293.83 51.05 294.51 49.9C295.19 48.74 296.11 47.84 297.28 47.19C298.44 46.54 299.72 46.21 301.11 46.21C302.7 46.21 304.11 46.6 305.34 47.38C306.57 48.16 307.47 49.26 308.03 50.69H305.09L305.1 50.67Z" fill="#010200"/>
<path d="M313.33 48.3604V52.7304H318.48V54.7204H313.33V59.2904H319.12V61.2803H310.89V46.3604H319.12V48.3503H313.33V48.3604Z" fill="#010200"/>
<path d="M334.37 61.2901H331.93L324.58 50.1601V61.2901H322.14V46.3701H324.58L331.93 57.4801V46.3701H334.37V61.2901Z" fill="#010200"/>
<path d="M339.79 60.9102C338.99 60.5602 338.36 60.0602 337.9 59.4202C337.44 58.7802 337.21 58.0302 337.21 57.1702H339.83C339.89 57.8102 340.14 58.3402 340.59 58.7602C341.04 59.1802 341.67 59.3802 342.49 59.3802C343.31 59.3802 343.99 59.1802 344.46 58.7702C344.93 58.3602 345.17 57.8402 345.17 57.1902C345.17 56.6902 345.02 56.2802 344.73 55.9702C344.44 55.6602 344.07 55.4102 343.64 55.2402C343.2 55.0702 342.6 54.8802 341.83 54.6802C340.86 54.4202 340.07 54.1602 339.46 53.9002C338.85 53.6402 338.33 53.2302 337.91 52.6702C337.49 52.1102 337.27 51.3702 337.27 50.4402C337.27 49.5802 337.48 48.8302 337.91 48.1902C338.34 47.5502 338.94 47.0502 339.71 46.7102C340.48 46.3702 341.38 46.2002 342.39 46.2002C343.83 46.2002 345.02 46.5602 345.94 47.2802C346.86 48.0002 347.37 48.9902 347.47 50.2502H344.77C344.73 49.7102 344.47 49.2402 344 48.8602C343.53 48.4702 342.91 48.2802 342.13 48.2802C341.43 48.2802 340.86 48.4602 340.42 48.8202C339.98 49.1802 339.75 49.6902 339.75 50.3602C339.75 50.8202 339.89 51.1902 340.17 51.4802C340.45 51.7702 340.8 52.0102 341.23 52.1802C341.66 52.3502 342.24 52.5402 342.99 52.7402C343.98 53.0102 344.78 53.2802 345.4 53.5502C346.02 53.8202 346.55 54.2402 346.99 54.8002C347.43 55.3702 347.64 56.1202 347.64 57.0602C347.64 57.8202 347.44 58.5302 347.03 59.2002C346.62 59.8702 346.03 60.4102 345.25 60.8202C344.47 61.2302 343.55 61.4302 342.5 61.4302C341.5 61.4302 340.6 61.2602 339.8 60.9002L339.79 60.9102Z" fill="#010200"/>
<path d="M159 92.7303L156.57 88.5603H154.96V92.7303H153.63V82.5303H156.92C157.69 82.5303 158.34 82.6603 158.87 82.9203C159.4 83.1803 159.8 83.5403 160.06 83.9903C160.32 84.4403 160.46 84.9503 160.46 85.5303C160.46 86.2303 160.26 86.8503 159.85 87.3903C159.44 87.9303 158.84 88.2803 158.03 88.4603L160.59 92.7303H158.99H159ZM154.96 87.4903H156.92C157.64 87.4903 158.18 87.3103 158.54 86.9603C158.9 86.6003 159.08 86.1303 159.08 85.5303C159.08 84.9303 158.9 84.4603 158.55 84.1203C158.19 83.7903 157.65 83.6203 156.92 83.6203H154.96V87.4803V87.4903Z" fill="#010200"/>
<path d="M169.8 89.2201H163.39C163.44 90.0101 163.71 90.6301 164.2 91.0701C164.69 91.5101 165.29 91.7401 165.99 91.7401C166.57 91.7401 167.05 91.6101 167.43 91.3401C167.81 91.0701 168.09 90.7101 168.24 90.2601H169.67C169.46 91.0301 169.03 91.6601 168.38 92.1401C167.74 92.6201 166.94 92.8601 165.98 92.8601C165.22 92.8601 164.54 92.6901 163.94 92.3501C163.34 92.0101 162.87 91.5201 162.53 90.8901C162.19 90.2601 162.02 89.5301 162.02 88.7001C162.02 87.8701 162.19 87.1401 162.52 86.5201C162.85 85.9001 163.32 85.4201 163.92 85.0801C164.52 84.7401 165.21 84.5801 165.99 84.5801C166.77 84.5801 167.42 84.7501 168.01 85.0801C168.59 85.4101 169.05 85.8701 169.36 86.4501C169.68 87.0301 169.84 87.6901 169.84 88.4201C169.84 88.6701 169.83 88.9401 169.8 89.2201ZM168.13 86.8201C167.91 86.4501 167.6 86.1801 167.21 85.9901C166.83 85.8001 166.4 85.7001 165.93 85.7001C165.26 85.7001 164.68 85.9101 164.21 86.3401C163.74 86.7701 163.47 87.3601 163.4 88.1301H168.46C168.46 87.6201 168.35 87.1901 168.12 86.8201H168.13Z" fill="#010200"/>
<path d="M171.6 86.5301C171.93 85.9101 172.39 85.4301 172.98 85.0901C173.57 84.7501 174.25 84.5801 175.01 84.5801C176 84.5801 176.81 84.8201 177.45 85.3001C178.09 85.7801 178.51 86.4401 178.72 87.2901H177.29C177.15 86.8001 176.89 86.4201 176.49 86.1301C176.1 85.8501 175.61 85.7101 175.02 85.7101C174.26 85.7101 173.64 85.9701 173.18 86.4901C172.71 87.0101 172.48 87.7501 172.48 88.7101C172.48 89.6701 172.71 90.4201 173.18 90.9501C173.65 91.4801 174.26 91.7401 175.02 91.7401C175.61 91.7401 176.09 91.6001 176.48 91.3301C176.87 91.0601 177.14 90.6701 177.28 90.1601H178.71C178.5 90.9801 178.07 91.6401 177.42 92.1301C176.78 92.6201 175.97 92.8701 175 92.8701C174.24 92.8701 173.56 92.7001 172.97 92.3601C172.38 92.0201 171.92 91.5401 171.59 90.9101C171.26 90.2901 171.09 89.5501 171.09 88.7101C171.09 87.8701 171.26 87.1601 171.59 86.5401L171.6 86.5301Z" fill="#010200"/>
<path d="M181.94 92.3501C181.33 92.0101 180.85 91.5201 180.51 90.8901C180.16 90.2601 179.99 89.5301 179.99 88.7001C179.99 87.8701 180.17 87.1601 180.52 86.5301C180.87 85.9001 181.36 85.4201 181.98 85.0801C182.6 84.7401 183.28 84.5801 184.04 84.5801C184.8 84.5801 185.49 84.7501 186.1 85.0801C186.71 85.4201 187.2 85.9001 187.56 86.5201C187.92 87.1401 188.09 87.8701 188.09 88.7001C188.09 89.5301 187.91 90.2601 187.54 90.8901C187.17 91.5201 186.68 92.0101 186.05 92.3501C185.43 92.6901 184.73 92.8601 183.97 92.8601C183.21 92.8601 182.54 92.6901 181.93 92.3501H181.94ZM185.33 91.3501C185.75 91.1301 186.09 90.7901 186.35 90.3401C186.61 89.8901 186.74 89.3501 186.74 88.7001C186.74 88.0501 186.61 87.5101 186.36 87.0601C186.11 86.6101 185.77 86.2801 185.36 86.0601C184.95 85.8401 184.51 85.7301 184.03 85.7301C183.55 85.7301 183.1 85.8401 182.69 86.0601C182.28 86.2801 181.96 86.6101 181.72 87.0601C181.48 87.5101 181.35 88.0601 181.35 88.7001C181.35 89.3401 181.47 89.9101 181.71 90.3501C181.95 90.8001 182.27 91.1301 182.67 91.3501C183.07 91.5701 183.51 91.6801 183.99 91.6801C184.47 91.6801 184.92 91.5701 185.34 91.3401L185.33 91.3501Z" fill="#010200"/>
<path d="M192.18 84.9401C192.61 84.6901 193.14 84.5601 193.77 84.5601V85.9401H193.42C191.93 85.9401 191.18 86.7501 191.18 88.3701V92.7301H189.85V84.7101H191.18V86.0101C191.41 85.5501 191.75 85.2001 192.18 84.9401Z" fill="#010200"/>
<path d="M196.93 85.8102V90.5402C196.93 90.9302 197.01 91.2102 197.18 91.3702C197.35 91.5302 197.63 91.6102 198.04 91.6102H199.02V92.7402H197.82C197.08 92.7402 196.52 92.5702 196.15 92.2302C195.78 91.8902 195.59 91.3302 195.59 90.5502V85.8202H194.55V84.7202H195.59V82.7002H196.92V84.7202H199.01V85.8202H196.92L196.93 85.8102Z" fill="#010200"/>
<path d="M207.9 89.2201H201.49C201.54 90.0101 201.81 90.6301 202.3 91.0701C202.79 91.5101 203.39 91.7401 204.09 91.7401C204.67 91.7401 205.15 91.6101 205.53 91.3401C205.91 91.0701 206.19 90.7101 206.34 90.2601H207.77C207.56 91.0301 207.13 91.6601 206.48 92.1401C205.84 92.6201 205.04 92.8601 204.08 92.8601C203.32 92.8601 202.64 92.6901 202.04 92.3501C201.44 92.0101 200.97 91.5201 200.63 90.8901C200.29 90.2601 200.12 89.5301 200.12 88.7001C200.12 87.8701 200.29 87.1401 200.62 86.5201C200.95 85.9001 201.42 85.4201 202.02 85.0801C202.62 84.7401 203.31 84.5801 204.09 84.5801C204.87 84.5801 205.52 84.7501 206.11 85.0801C206.69 85.4101 207.15 85.8701 207.46 86.4501C207.78 87.0301 207.94 87.6901 207.94 88.4201C207.94 88.6701 207.93 88.9401 207.9 89.2201ZM206.24 86.8201C206.02 86.4501 205.71 86.1801 205.32 85.9901C204.94 85.8001 204.51 85.7001 204.04 85.7001C203.37 85.7001 202.79 85.9101 202.32 86.3401C201.85 86.7701 201.58 87.3601 201.51 88.1301H206.57C206.57 87.6201 206.46 87.1901 206.23 86.8201H206.24Z" fill="#010200"/>
<path d="M215.07 92.3501C214.46 92.0101 213.98 91.5201 213.64 90.8901C213.29 90.2601 213.12 89.5301 213.12 88.7001C213.12 87.8701 213.3 87.1601 213.65 86.5301C214 85.9001 214.49 85.4201 215.11 85.0801C215.73 84.7401 216.41 84.5801 217.17 84.5801C217.93 84.5801 218.62 84.7501 219.23 85.0801C219.84 85.4201 220.33 85.9001 220.69 86.5201C221.05 87.1401 221.22 87.8701 221.22 88.7001C221.22 89.5301 221.04 90.2601 220.67 90.8901C220.3 91.5201 219.81 92.0101 219.18 92.3501C218.56 92.6901 217.86 92.8601 217.1 92.8601C216.34 92.8601 215.67 92.6901 215.06 92.3501H215.07ZM218.46 91.3501C218.88 91.1301 219.22 90.7901 219.48 90.3401C219.74 89.8901 219.87 89.3501 219.87 88.7001C219.87 88.0501 219.74 87.5101 219.49 87.0601C219.24 86.6101 218.9 86.2801 218.49 86.0601C218.08 85.8401 217.64 85.7301 217.16 85.7301C216.68 85.7301 216.23 85.8401 215.82 86.0601C215.41 86.2801 215.09 86.6101 214.85 87.0601C214.61 87.5101 214.48 88.0601 214.48 88.7001C214.48 89.3401 214.6 89.9101 214.84 90.3501C215.08 90.8001 215.4 91.1301 215.8 91.3501C216.2 91.5701 216.64 91.6801 217.12 91.6801C217.6 91.6801 218.05 91.5701 218.47 91.3401L218.46 91.3501Z" fill="#010200"/>
<path d="M224.16 92.5503C223.67 92.3403 223.29 92.0503 223 91.6703C222.72 91.2903 222.56 90.8603 222.53 90.3703H223.91C223.95 90.7703 224.14 91.1003 224.47 91.3503C224.81 91.6003 225.25 91.7303 225.79 91.7303C226.3 91.7303 226.7 91.6203 226.99 91.3903C227.28 91.1703 227.43 90.8803 227.43 90.5403C227.43 90.2003 227.27 89.9303 226.96 89.7603C226.65 89.5903 226.16 89.4203 225.51 89.2603C224.92 89.1003 224.43 88.9403 224.05 88.7803C223.67 88.6203 223.35 88.3803 223.08 88.0603C222.81 87.7403 222.68 87.3303 222.68 86.8103C222.68 86.4003 222.8 86.0203 223.05 85.6803C223.29 85.3403 223.64 85.0703 224.09 84.8703C224.54 84.6703 225.05 84.5703 225.63 84.5703C226.52 84.5703 227.23 84.7903 227.78 85.2403C228.33 85.6903 228.62 86.3003 228.66 87.0803H227.33C227.3 86.6603 227.13 86.3203 226.83 86.0703C226.52 85.8203 226.11 85.6903 225.59 85.6903C225.11 85.6903 224.73 85.7903 224.45 86.0003C224.17 86.2103 224.03 86.4703 224.03 86.8003C224.03 87.0603 224.11 87.2803 224.29 87.4503C224.47 87.6203 224.67 87.7603 224.93 87.8603C225.19 87.9603 225.55 88.0803 226.01 88.2003C226.59 88.3603 227.05 88.5103 227.41 88.6603C227.77 88.8103 228.08 89.0403 228.34 89.3403C228.6 89.6403 228.73 90.0403 228.74 90.5203C228.74 90.9603 228.62 91.3503 228.37 91.7103C228.12 92.0703 227.78 92.3403 227.34 92.5403C226.9 92.7403 226.39 92.8403 225.81 92.8403C225.19 92.8403 224.64 92.7303 224.16 92.5303V92.5503Z" fill="#010200"/>
<path d="M234.52 86.5301C234.85 85.9101 235.31 85.4301 235.89 85.0901C236.47 84.7501 237.12 84.5801 237.83 84.5801C238.54 84.5801 239.14 84.7301 239.66 85.0301C240.18 85.3301 240.56 85.7101 240.82 86.1701V84.7101H242.17V92.7301H240.82V91.2401C240.56 91.7101 240.16 92.1001 239.64 92.4001C239.12 92.7101 238.51 92.8601 237.82 92.8601C237.13 92.8601 236.46 92.6801 235.89 92.3301C235.31 91.9801 234.86 91.4901 234.53 90.8501C234.2 90.2201 234.03 89.4901 234.03 88.6801C234.03 87.8701 234.2 87.1401 234.53 86.5201L234.52 86.5301ZM240.45 87.1201C240.21 86.6701 239.88 86.3301 239.46 86.0901C239.04 85.8501 238.59 85.7301 238.09 85.7301C237.59 85.7301 237.14 85.8501 236.73 86.0801C236.32 86.3101 235.99 86.6601 235.75 87.1001C235.51 87.5501 235.38 88.0801 235.38 88.6801C235.38 89.2801 235.5 89.8301 235.75 90.2801C235.99 90.7301 236.32 91.0801 236.73 91.3201C237.14 91.5601 237.59 91.6801 238.09 91.6801C238.59 91.6801 239.04 91.5601 239.46 91.3201C239.88 91.0801 240.2 90.7401 240.45 90.2801C240.69 89.8301 240.82 89.3001 240.82 88.6901C240.82 88.0801 240.7 87.5601 240.45 87.1101V87.1201Z" fill="#010200"/>
<path d="M250.69 85.4503C251.3 86.0403 251.6 86.8903 251.6 88.0003V92.7303H250.28V88.1903C250.28 87.3903 250.08 86.7803 249.68 86.3503C249.28 85.9303 248.73 85.7103 248.04 85.7103C247.35 85.7103 246.78 85.9303 246.36 86.3703C245.95 86.8103 245.74 87.4503 245.74 88.2903V92.7203H244.41V84.7003H245.74V85.8403C246 85.4303 246.36 85.1103 246.82 84.8903C247.27 84.6703 247.77 84.5503 248.32 84.5503C249.3 84.5503 250.09 84.8403 250.69 85.4303V85.4503Z" fill="#010200"/>
<path d="M253.82 83.1401C253.64 82.9601 253.56 82.7501 253.56 82.5001C253.56 82.2501 253.65 82.0301 253.82 81.8601C254 81.6901 254.21 81.6001 254.46 81.6001C254.71 81.6001 254.91 81.6901 255.08 81.8601C255.25 82.0401 255.34 82.2501 255.34 82.5001C255.34 82.7501 255.26 82.9701 255.08 83.1401C254.9 83.3101 254.7 83.4001 254.46 83.4001C254.22 83.4001 253.99 83.3101 253.82 83.1401ZM255.11 84.7101V92.7301H253.78V84.7101H255.11Z" fill="#010200"/>
<path d="M268.69 84.9503C269.18 85.2103 269.56 85.6003 269.85 86.1103C270.13 86.6303 270.27 87.2603 270.27 88.0003V92.7303H268.95V88.1903C268.95 87.3903 268.75 86.7803 268.36 86.3503C267.96 85.9303 267.43 85.7103 266.76 85.7103C266.09 85.7103 265.52 85.9303 265.11 86.3803C264.7 86.8203 264.49 87.4703 264.49 88.3003V92.7203H263.17V88.1803C263.17 87.3803 262.97 86.7703 262.58 86.3403C262.18 85.9203 261.65 85.7003 260.98 85.7003C260.31 85.7003 259.74 85.9203 259.33 86.3703C258.92 86.8103 258.71 87.4603 258.71 88.2903V92.7103H257.38V84.6903H258.71V85.8503C258.97 85.4303 259.33 85.1103 259.77 84.8803C260.21 84.6603 260.7 84.5403 261.24 84.5403C261.91 84.5403 262.51 84.6903 263.03 84.9903C263.55 85.2903 263.93 85.7403 264.19 86.3203C264.41 85.7503 264.78 85.3203 265.3 85.0003C265.82 84.6903 266.39 84.5303 267.03 84.5303C267.67 84.5303 268.21 84.6603 268.7 84.9203L268.69 84.9503Z" fill="#010200"/>
<path d="M272.45 86.5301C272.78 85.9101 273.24 85.4301 273.82 85.0901C274.4 84.7501 275.05 84.5801 275.76 84.5801C276.47 84.5801 277.07 84.7301 277.59 85.0301C278.11 85.3301 278.49 85.7101 278.75 86.1701V84.7101H280.1V92.7301H278.75V91.2401C278.49 91.7101 278.09 92.1001 277.57 92.4001C277.05 92.7101 276.44 92.8601 275.75 92.8601C275.06 92.8601 274.39 92.6801 273.82 92.3301C273.24 91.9801 272.79 91.4901 272.46 90.8501C272.13 90.2201 271.96 89.4901 271.96 88.6801C271.96 87.8701 272.13 87.1401 272.46 86.5201L272.45 86.5301ZM278.38 87.1201C278.14 86.6701 277.81 86.3301 277.39 86.0901C276.97 85.8501 276.52 85.7301 276.02 85.7301C275.52 85.7301 275.07 85.8501 274.66 86.0801C274.25 86.3101 273.92 86.6601 273.68 87.1001C273.44 87.5501 273.31 88.0801 273.31 88.6801C273.31 89.2801 273.43 89.8301 273.68 90.2801C273.92 90.7301 274.25 91.0801 274.66 91.3201C275.07 91.5601 275.52 91.6801 276.02 91.6801C276.52 91.6801 276.97 91.5601 277.39 91.3201C277.81 91.0801 278.13 90.7401 278.38 90.2801C278.62 89.8301 278.75 89.3001 278.75 88.6901C278.75 88.0801 278.63 87.5601 278.38 87.1101V87.1201Z" fill="#010200"/>
<path d="M282.39 83.1401C282.21 82.9601 282.13 82.7501 282.13 82.5001C282.13 82.2501 282.22 82.0301 282.39 81.8601C282.57 81.6901 282.78 81.6001 283.03 81.6001C283.28 81.6001 283.48 81.6901 283.65 81.8601C283.82 82.0401 283.91 82.2501 283.91 82.5001C283.91 82.7501 283.83 82.9701 283.65 83.1401C283.47 83.3101 283.27 83.4001 283.03 83.4001C282.79 83.4001 282.56 83.3101 282.39 83.1401ZM283.68 84.7101V92.7301H282.35V84.7101H283.68Z" fill="#010200"/>
<path d="M287.13 92.5503C286.64 92.3403 286.26 92.0503 285.97 91.6703C285.69 91.2903 285.53 90.8603 285.5 90.3703H286.88C286.92 90.7703 287.11 91.1003 287.44 91.3503C287.78 91.6003 288.22 91.7303 288.76 91.7303C289.27 91.7303 289.67 91.6203 289.96 91.3903C290.25 91.1703 290.4 90.8803 290.4 90.5403C290.4 90.2003 290.24 89.9303 289.93 89.7603C289.62 89.5903 289.13 89.4203 288.48 89.2603C287.89 89.1003 287.4 88.9403 287.02 88.7803C286.64 88.6203 286.32 88.3803 286.05 88.0603C285.78 87.7403 285.65 87.3303 285.65 86.8103C285.65 86.4003 285.77 86.0203 286.02 85.6803C286.26 85.3403 286.61 85.0703 287.06 84.8703C287.51 84.6703 288.02 84.5703 288.6 84.5703C289.49 84.5703 290.2 84.7903 290.75 85.2403C291.3 85.6903 291.59 86.3003 291.63 87.0803H290.3C290.27 86.6603 290.1 86.3203 289.8 86.0703C289.49 85.8203 289.08 85.6903 288.56 85.6903C288.08 85.6903 287.7 85.7903 287.42 86.0003C287.14 86.2103 287 86.4703 287 86.8003C287 87.0603 287.08 87.2803 287.26 87.4503C287.44 87.6203 287.64 87.7603 287.9 87.8603C288.16 87.9603 288.52 88.0803 288.98 88.2003C289.56 88.3603 290.02 88.5103 290.38 88.6603C290.74 88.8103 291.05 89.0403 291.31 89.3403C291.57 89.6403 291.7 90.0403 291.71 90.5203C291.71 90.9603 291.59 91.3503 291.34 91.7103C291.09 92.0703 290.75 92.3403 290.31 92.5403C289.87 92.7403 289.36 92.8403 288.78 92.8403C288.16 92.8403 287.61 92.7303 287.13 92.5303V92.5503Z" fill="#010200"/>
<path d="M300 85.0401C300.52 84.7301 301.13 84.5801 301.82 84.5801C302.51 84.5801 303.18 84.7501 303.76 85.0901C304.34 85.4301 304.8 85.9101 305.13 86.5301C305.46 87.1501 305.63 87.8701 305.63 88.6901C305.63 89.5101 305.46 90.2201 305.13 90.8601C304.8 91.4901 304.34 91.9901 303.76 92.3401C303.18 92.6901 302.53 92.8701 301.82 92.8701C301.11 92.8701 300.53 92.7201 300.01 92.4101C299.49 92.1001 299.09 91.7201 298.82 91.2601V96.5401H297.49V84.7201H298.82V86.2001C299.08 85.7401 299.48 85.3601 300 85.0501V85.0401ZM303.9 87.1101C303.66 86.6601 303.33 86.3201 302.91 86.0901C302.49 85.8601 302.04 85.7401 301.54 85.7401C301.04 85.7401 300.6 85.8601 300.19 86.1001C299.78 86.3401 299.44 86.6901 299.2 87.1401C298.95 87.5901 298.83 88.1201 298.83 88.7101C298.83 89.3001 298.95 89.8401 299.2 90.3001C299.45 90.7501 299.78 91.1001 300.19 91.3401C300.61 91.5801 301.06 91.7001 301.54 91.7001C302.02 91.7001 302.49 91.5801 302.91 91.3401C303.32 91.1001 303.65 90.7601 303.9 90.3001C304.14 89.8501 304.27 89.3101 304.27 88.7001C304.27 88.0901 304.15 87.5701 303.9 87.1201V87.1101Z" fill="#010200"/>
<path d="M307.38 86.5301C307.71 85.9101 308.17 85.4301 308.75 85.0901C309.33 84.7501 309.98 84.5801 310.69 84.5801C311.4 84.5801 312 84.7301 312.52 85.0301C313.04 85.3301 313.42 85.7101 313.68 86.1701V84.7101H315.03V92.7301H313.68V91.2401C313.42 91.7101 313.02 92.1001 312.5 92.4001C311.98 92.7101 311.37 92.8601 310.68 92.8601C309.99 92.8601 309.32 92.6801 308.75 92.3301C308.17 91.9801 307.72 91.4901 307.39 90.8501C307.06 90.2201 306.89 89.4901 306.89 88.6801C306.89 87.8701 307.06 87.1401 307.39 86.5201L307.38 86.5301ZM313.31 87.1201C313.07 86.6701 312.74 86.3301 312.32 86.0901C311.9 85.8501 311.45 85.7301 310.95 85.7301C310.45 85.7301 310 85.8501 309.59 86.0801C309.18 86.3101 308.85 86.6601 308.61 87.1001C308.37 87.5501 308.24 88.0801 308.24 88.6801C308.24 89.2801 308.36 89.8301 308.61 90.2801C308.85 90.7301 309.18 91.0801 309.59 91.3201C310 91.5601 310.45 91.6801 310.95 91.6801C311.45 91.6801 311.9 91.5601 312.32 91.3201C312.74 91.0801 313.06 90.7401 313.31 90.2801C313.55 89.8301 313.68 89.3001 313.68 88.6901C313.68 88.0801 313.56 87.5601 313.31 87.1101V87.1201Z" fill="#010200"/>
<path d="M319.61 84.9401C320.04 84.6901 320.57 84.5601 321.2 84.5601V85.9401H320.85C319.36 85.9401 318.61 86.7501 318.61 88.3701V92.7301H317.28V84.7101H318.61V86.0101C318.84 85.5501 319.18 85.2001 319.61 84.9401Z" fill="#010200"/>
<path d="M322.73 86.5301C323.06 85.9101 323.52 85.4301 324.1 85.0901C324.68 84.7501 325.33 84.5801 326.04 84.5801C326.75 84.5801 327.35 84.7301 327.87 85.0301C328.39 85.3301 328.77 85.7101 329.03 86.1701V84.7101H330.38V92.7301H329.03V91.2401C328.77 91.7101 328.37 92.1001 327.85 92.4001C327.33 92.7101 326.72 92.8601 326.03 92.8601C325.34 92.8601 324.67 92.6801 324.1 92.3301C323.52 91.9801 323.07 91.4901 322.74 90.8501C322.41 90.2201 322.24 89.4901 322.24 88.6801C322.24 87.8701 322.41 87.1401 322.74 86.5201L322.73 86.5301ZM328.66 87.1201C328.42 86.6701 328.09 86.3301 327.67 86.0901C327.25 85.8501 326.8 85.7301 326.3 85.7301C325.8 85.7301 325.35 85.8501 324.94 86.0801C324.53 86.3101 324.2 86.6601 323.96 87.1001C323.72 87.5501 323.59 88.0801 323.59 88.6801C323.59 89.2801 323.71 89.8301 323.96 90.2801C324.2 90.7301 324.53 91.0801 324.94 91.3201C325.35 91.5601 325.8 91.6801 326.3 91.6801C326.8 91.6801 327.25 91.5601 327.67 91.3201C328.09 91.0801 328.41 90.7401 328.66 90.2801C328.9 89.8301 329.03 89.3001 329.03 88.6901C329.03 88.0801 328.91 87.5601 328.66 87.1101V87.1201Z" fill="#010200"/>
<path d="M166.21 103.37H164.53V110.29H163.2V103.37H162.16V102.27H163.2V101.7C163.2 100.8 163.43 100.15 163.89 99.7299C164.35 99.3099 165.1 99.1099 166.12 99.1099V100.22C165.54 100.22 165.12 100.33 164.88 100.56C164.64 100.79 164.52 101.17 164.52 101.69V102.26H166.2V103.36L166.21 103.37Z" fill="#010200"/>
<path d="M167.77 104.09C168.1 103.47 168.56 102.99 169.14 102.65C169.72 102.31 170.37 102.14 171.08 102.14C171.79 102.14 172.39 102.29 172.91 102.59C173.43 102.89 173.81 103.27 174.07 103.73V102.27H175.42V110.29H174.07V108.8C173.81 109.27 173.41 109.66 172.89 109.96C172.37 110.27 171.76 110.42 171.07 110.42C170.38 110.42 169.71 110.24 169.14 109.89C168.56 109.54 168.11 109.05 167.78 108.41C167.45 107.78 167.28 107.05 167.28 106.24C167.28 105.43 167.45 104.7 167.78 104.08L167.77 104.09ZM173.69 104.68C173.45 104.23 173.12 103.89 172.7 103.65C172.28 103.41 171.83 103.29 171.33 103.29C170.83 103.29 170.38 103.41 169.97 103.64C169.56 103.87 169.23 104.22 168.99 104.66C168.75 105.11 168.62 105.64 168.62 106.24C168.62 106.84 168.74 107.39 168.99 107.84C169.23 108.29 169.56 108.64 169.97 108.88C170.38 109.12 170.83 109.24 171.33 109.24C171.83 109.24 172.28 109.12 172.7 108.88C173.12 108.64 173.44 108.3 173.69 107.84C173.93 107.39 174.06 106.86 174.06 106.25C174.06 105.64 173.94 105.12 173.69 104.67V104.68Z" fill="#010200"/>
<path d="M178.65 109.19H182.59V110.29H177.13V109.19L181.02 103.35H177.16V102.27H182.56V103.35L178.65 109.19Z" fill="#010200"/>
<path d="M191.59 106.78H185.18C185.23 107.57 185.5 108.19 185.99 108.63C186.48 109.07 187.08 109.3 187.78 109.3C188.36 109.3 188.84 109.17 189.22 108.9C189.6 108.63 189.88 108.27 190.03 107.82H191.46C191.25 108.59 190.82 109.22 190.17 109.7C189.53 110.18 188.73 110.42 187.77 110.42C187.01 110.42 186.33 110.25 185.73 109.91C185.13 109.57 184.66 109.08 184.32 108.45C183.98 107.82 183.81 107.09 183.81 106.26C183.81 105.43 183.98 104.7 184.31 104.08C184.64 103.46 185.11 102.98 185.71 102.64C186.31 102.3 187 102.14 187.78 102.14C188.56 102.14 189.21 102.31 189.8 102.64C190.38 102.97 190.84 103.43 191.15 104.01C191.47 104.59 191.63 105.25 191.63 105.98C191.63 106.23 191.62 106.5 191.59 106.78ZM189.92 104.38C189.7 104.01 189.39 103.74 189 103.55C188.62 103.36 188.19 103.26 187.72 103.26C187.05 103.26 186.47 103.47 186 103.9C185.53 104.33 185.26 104.92 185.19 105.69H190.25C190.25 105.18 190.14 104.75 189.91 104.38H189.92Z" fill="#010200"/>
<path d="M195.72 102.5C196.15 102.25 196.68 102.12 197.31 102.12V103.5H196.96C195.47 103.5 194.72 104.31 194.72 105.93V110.29H193.39V102.27H194.72V103.57C194.95 103.11 195.29 102.76 195.72 102.5Z" fill="#010200"/>
<path d="M204.09 99.46V110.29H202.76V99.46H204.09Z" fill="#010200"/>
<path d="M206.4 100.7C206.22 100.52 206.14 100.31 206.14 100.06C206.14 99.8102 206.23 99.5902 206.4 99.4202C206.58 99.2502 206.79 99.1602 207.04 99.1602C207.29 99.1602 207.49 99.2502 207.66 99.4202C207.83 99.6002 207.92 99.8102 207.92 100.06C207.92 100.31 207.84 100.53 207.66 100.7C207.48 100.87 207.28 100.96 207.04 100.96C206.8 100.96 206.57 100.87 206.4 100.7ZM207.68 102.27V110.29H206.35V102.27H207.68Z" fill="#010200"/>
<path d="M216.23 103.01C216.84 103.6 217.14 104.45 217.14 105.56V110.29H215.82V105.75C215.82 104.95 215.62 104.34 215.22 103.91C214.82 103.49 214.27 103.27 213.58 103.27C212.89 103.27 212.32 103.49 211.9 103.93C211.49 104.37 211.28 105.01 211.28 105.85V110.28H209.95V102.26H211.28V103.4C211.54 102.99 211.9 102.67 212.36 102.45C212.81 102.23 213.31 102.11 213.86 102.11C214.84 102.11 215.63 102.4 216.23 102.99V103.01Z" fill="#010200"/>
<path d="M219.32 104.09C219.65 103.47 220.11 102.99 220.69 102.65C221.27 102.31 221.92 102.14 222.64 102.14C223.26 102.14 223.85 102.28 224.38 102.57C224.92 102.86 225.33 103.24 225.61 103.7V99.46H226.96V110.29H225.61V108.78C225.35 109.26 224.96 109.65 224.44 109.96C223.92 110.27 223.32 110.42 222.63 110.42C221.94 110.42 221.27 110.24 220.69 109.89C220.11 109.54 219.65 109.05 219.32 108.41C218.99 107.78 218.82 107.05 218.82 106.24C218.82 105.43 218.99 104.7 219.32 104.08V104.09ZM225.25 104.68C225.01 104.23 224.68 103.89 224.26 103.65C223.84 103.41 223.39 103.29 222.89 103.29C222.39 103.29 221.94 103.41 221.53 103.64C221.12 103.87 220.79 104.22 220.55 104.66C220.31 105.11 220.18 105.64 220.18 106.24C220.18 106.84 220.3 107.39 220.55 107.84C220.79 108.29 221.12 108.64 221.53 108.88C221.94 109.12 222.39 109.24 222.89 109.24C223.39 109.24 223.84 109.12 224.26 108.88C224.68 108.64 225 108.3 225.25 107.84C225.49 107.39 225.62 106.86 225.62 106.25C225.62 105.64 225.5 105.12 225.25 104.67V104.68Z" fill="#010200"/>
<path d="M230.67 109.91C230.06 109.57 229.58 109.08 229.24 108.45C228.89 107.82 228.72 107.09 228.72 106.26C228.72 105.43 228.9 104.72 229.25 104.09C229.6 103.46 230.09 102.98 230.71 102.64C231.33 102.3 232.01 102.14 232.77 102.14C233.53 102.14 234.22 102.31 234.83 102.64C235.44 102.98 235.93 103.46 236.29 104.08C236.65 104.7 236.82 105.43 236.82 106.26C236.82 107.09 236.64 107.82 236.27 108.45C235.9 109.08 235.41 109.57 234.78 109.91C234.16 110.25 233.46 110.42 232.7 110.42C231.94 110.42 231.27 110.25 230.66 109.91H230.67ZM234.05 108.91C234.47 108.69 234.81 108.35 235.07 107.9C235.33 107.45 235.46 106.91 235.46 106.26C235.46 105.61 235.33 105.07 235.08 104.62C234.83 104.17 234.49 103.84 234.08 103.62C233.67 103.4 233.23 103.29 232.75 103.29C232.27 103.29 231.82 103.4 231.41 103.62C231 103.84 230.68 104.17 230.44 104.62C230.2 105.07 230.07 105.62 230.07 106.26C230.07 106.9 230.19 107.47 230.43 107.91C230.67 108.36 230.99 108.69 231.39 108.91C231.79 109.13 232.23 109.24 232.71 109.24C233.19 109.24 233.64 109.13 234.06 108.9L234.05 108.91Z" fill="#010200"/>
<path d="M239.76 110.11C239.27 109.9 238.89 109.61 238.6 109.23C238.32 108.85 238.16 108.42 238.13 107.93H239.51C239.55 108.33 239.74 108.66 240.07 108.91C240.41 109.16 240.85 109.29 241.39 109.29C241.9 109.29 242.3 109.18 242.59 108.95C242.88 108.73 243.03 108.44 243.03 108.1C243.03 107.76 242.87 107.49 242.56 107.32C242.25 107.15 241.76 106.98 241.11 106.82C240.52 106.66 240.03 106.5 239.65 106.34C239.27 106.18 238.95 105.94 238.68 105.62C238.41 105.3 238.28 104.89 238.28 104.37C238.28 103.96 238.4 103.58 238.65 103.24C238.89 102.9 239.24 102.63 239.69 102.43C240.14 102.23 240.65 102.13 241.23 102.13C242.12 102.13 242.83 102.35 243.38 102.8C243.93 103.25 244.22 103.86 244.26 104.64H242.93C242.9 104.22 242.73 103.88 242.43 103.63C242.12 103.38 241.71 103.25 241.19 103.25C240.71 103.25 240.33 103.35 240.05 103.56C239.77 103.77 239.63 104.03 239.63 104.36C239.63 104.62 239.71 104.84 239.89 105.01C240.07 105.18 240.27 105.32 240.53 105.42C240.79 105.52 241.15 105.64 241.61 105.76C242.19 105.92 242.65 106.07 243.01 106.22C243.37 106.37 243.68 106.6 243.94 106.9C244.2 107.2 244.33 107.6 244.34 108.08C244.34 108.52 244.22 108.91 243.97 109.27C243.72 109.63 243.38 109.9 242.94 110.1C242.5 110.3 241.99 110.4 241.41 110.4C240.79 110.4 240.24 110.29 239.76 110.09V110.11Z" fill="#010200"/>
<path d="M250.12 104.09C250.45 103.47 250.91 102.99 251.49 102.65C252.07 102.31 252.72 102.14 253.44 102.14C254.06 102.14 254.65 102.28 255.18 102.57C255.72 102.86 256.13 103.24 256.41 103.7V99.46H257.76V110.29H256.41V108.78C256.15 109.26 255.76 109.65 255.24 109.96C254.72 110.27 254.12 110.42 253.43 110.42C252.74 110.42 252.07 110.24 251.49 109.89C250.91 109.54 250.45 109.05 250.12 108.41C249.79 107.78 249.62 107.05 249.62 106.24C249.62 105.43 249.79 104.7 250.12 104.08V104.09ZM256.05 104.68C255.81 104.23 255.48 103.89 255.06 103.65C254.64 103.41 254.19 103.29 253.69 103.29C253.19 103.29 252.74 103.41 252.33 103.64C251.92 103.87 251.59 104.22 251.35 104.66C251.11 105.11 250.98 105.64 250.98 106.24C250.98 106.84 251.1 107.39 251.35 107.84C251.59 108.29 251.92 108.64 252.33 108.88C252.74 109.12 253.19 109.24 253.69 109.24C254.19 109.24 254.64 109.12 255.06 108.88C255.48 108.64 255.8 108.3 256.05 107.84C256.29 107.39 256.42 106.86 256.42 106.25C256.42 105.64 256.3 105.12 256.05 104.67V104.68Z" fill="#010200"/>
<path d="M267.29 106.78H260.88C260.93 107.57 261.2 108.19 261.69 108.63C262.18 109.07 262.78 109.3 263.48 109.3C264.06 109.3 264.54 109.17 264.92 108.9C265.3 108.63 265.58 108.27 265.73 107.82H267.16C266.95 108.59 266.52 109.22 265.87 109.7C265.23 110.18 264.43 110.42 263.47 110.42C262.71 110.42 262.03 110.25 261.43 109.91C260.83 109.57 260.36 109.08 260.02 108.45C259.68 107.82 259.51 107.09 259.51 106.26C259.51 105.43 259.68 104.7 260.01 104.08C260.34 103.46 260.81 102.98 261.41 102.64C262.01 102.3 262.7 102.14 263.48 102.14C264.26 102.14 264.91 102.31 265.5 102.64C266.08 102.97 266.54 103.43 266.85 104.01C267.17 104.59 267.33 105.25 267.33 105.98C267.33 106.23 267.32 106.5 267.29 106.78ZM265.62 104.38C265.4 104.01 265.09 103.74 264.7 103.55C264.32 103.36 263.89 103.26 263.42 103.26C262.75 103.26 262.17 103.47 261.7 103.9C261.23 104.33 260.96 104.92 260.89 105.69H265.95C265.95 105.18 265.84 104.75 265.61 104.38H265.62Z" fill="#010200"/>
<path d="M269.09 104.09C269.42 103.47 269.88 102.99 270.46 102.65C271.04 102.31 271.69 102.14 272.41 102.14C273.03 102.14 273.62 102.28 274.15 102.57C274.69 102.86 275.1 103.24 275.38 103.7V99.46H276.73V110.29H275.38V108.78C275.12 109.26 274.73 109.65 274.21 109.96C273.69 110.27 273.09 110.42 272.4 110.42C271.71 110.42 271.04 110.24 270.46 109.89C269.88 109.54 269.42 109.05 269.09 108.41C268.76 107.78 268.59 107.05 268.59 106.24C268.59 105.43 268.76 104.7 269.09 104.08V104.09ZM275.01 104.68C274.77 104.23 274.44 103.89 274.02 103.65C273.6 103.41 273.15 103.29 272.65 103.29C272.15 103.29 271.7 103.41 271.29 103.64C270.88 103.87 270.55 104.22 270.31 104.66C270.07 105.11 269.94 105.64 269.94 106.24C269.94 106.84 270.06 107.39 270.31 107.84C270.55 108.29 270.88 108.64 271.29 108.88C271.7 109.12 272.15 109.24 272.65 109.24C273.15 109.24 273.6 109.12 274.02 108.88C274.44 108.64 274.76 108.3 275.01 107.84C275.25 107.39 275.38 106.86 275.38 106.25C275.38 105.64 275.26 105.12 275.01 104.67V104.68Z" fill="#010200"/>
<path d="M280.43 109.91C279.82 109.57 279.34 109.08 279 108.45C278.65 107.82 278.48 107.09 278.48 106.26C278.48 105.43 278.66 104.72 279.01 104.09C279.36 103.46 279.85 102.98 280.47 102.64C281.09 102.3 281.77 102.14 282.53 102.14C283.29 102.14 283.98 102.31 284.59 102.64C285.2 102.98 285.69 103.46 286.05 104.08C286.41 104.7 286.58 105.43 286.58 106.26C286.58 107.09 286.4 107.82 286.03 108.45C285.66 109.08 285.17 109.57 284.54 109.91C283.92 110.25 283.22 110.42 282.46 110.42C281.7 110.42 281.03 110.25 280.42 109.91H280.43ZM283.82 108.91C284.24 108.69 284.58 108.35 284.84 107.9C285.1 107.45 285.23 106.91 285.23 106.26C285.23 105.61 285.1 105.07 284.85 104.62C284.6 104.17 284.26 103.84 283.85 103.62C283.44 103.4 283 103.29 282.52 103.29C282.04 103.29 281.59 103.4 281.18 103.62C280.77 103.84 280.45 104.17 280.21 104.62C279.97 105.07 279.84 105.62 279.84 106.26C279.84 106.9 279.96 107.47 280.2 107.91C280.44 108.36 280.76 108.69 281.16 108.91C281.56 109.13 282 109.24 282.48 109.24C282.96 109.24 283.41 109.13 283.83 108.9L283.82 108.91Z" fill="#010200"/>
<path d="M288.34 104.09C288.67 103.47 289.13 102.99 289.72 102.65C290.31 102.31 290.99 102.14 291.75 102.14C292.74 102.14 293.55 102.38 294.19 102.86C294.83 103.34 295.25 104 295.46 104.85H294.03C293.89 104.36 293.63 103.98 293.23 103.69C292.84 103.41 292.35 103.27 291.76 103.27C291 103.27 290.38 103.53 289.92 104.05C289.45 104.57 289.22 105.31 289.22 106.27C289.22 107.23 289.45 107.98 289.92 108.51C290.39 109.04 291 109.3 291.76 109.3C292.35 109.3 292.83 109.16 293.22 108.89C293.61 108.62 293.88 108.23 294.02 107.72H295.45C295.24 108.54 294.81 109.2 294.16 109.69C293.52 110.18 292.71 110.43 291.74 110.43C290.98 110.43 290.3 110.26 289.71 109.92C289.12 109.58 288.66 109.1 288.33 108.47C288 107.85 287.83 107.11 287.83 106.27C287.83 105.43 288 104.72 288.33 104.1L288.34 104.09Z" fill="#010200"/>
<path d="M302.85 102.51C303.34 102.77 303.72 103.16 304 103.67C304.28 104.19 304.42 104.82 304.42 105.56V110.29H303.1V105.75C303.1 104.95 302.9 104.34 302.5 103.91C302.1 103.49 301.55 103.27 300.86 103.27C300.17 103.27 299.6 103.49 299.18 103.93C298.77 104.37 298.56 105.01 298.56 105.85V110.28H297.23V99.4502H298.56V103.4C298.82 102.99 299.19 102.67 299.65 102.45C300.11 102.23 300.63 102.11 301.21 102.11C301.81 102.11 302.36 102.24 302.85 102.5V102.51Z" fill="#010200"/>
<path d="M313.86 106.78H307.45C307.5 107.57 307.77 108.19 308.26 108.63C308.75 109.07 309.35 109.3 310.05 109.3C310.63 109.3 311.11 109.17 311.49 108.9C311.87 108.63 312.15 108.27 312.3 107.82H313.73C313.52 108.59 313.09 109.22 312.44 109.7C311.8 110.18 311 110.42 310.04 110.42C309.28 110.42 308.6 110.25 308 109.91C307.4 109.57 306.93 109.08 306.59 108.45C306.25 107.82 306.08 107.09 306.08 106.26C306.08 105.43 306.25 104.7 306.58 104.08C306.91 103.46 307.38 102.98 307.98 102.64C308.58 102.3 309.27 102.14 310.05 102.14C310.83 102.14 311.48 102.31 312.07 102.64C312.65 102.97 313.11 103.43 313.42 104.01C313.74 104.59 313.9 105.25 313.9 105.98C313.9 106.23 313.89 106.5 313.86 106.78ZM312.2 104.38C311.98 104.01 311.67 103.74 311.28 103.55C310.9 103.36 310.47 103.26 310 103.26C309.33 103.26 308.75 103.47 308.28 103.9C307.81 104.33 307.54 104.92 307.47 105.69H312.53C312.53 105.18 312.42 104.75 312.19 104.38H312.2Z" fill="#010200"/>
<path d="M316.85 110.11C316.36 109.9 315.98 109.61 315.69 109.23C315.41 108.85 315.25 108.42 315.22 107.93H316.6C316.64 108.33 316.83 108.66 317.16 108.91C317.5 109.16 317.94 109.29 318.48 109.29C318.99 109.29 319.39 109.18 319.68 108.95C319.97 108.73 320.12 108.44 320.12 108.1C320.12 107.76 319.96 107.49 319.65 107.32C319.34 107.15 318.85 106.98 318.2 106.82C317.61 106.66 317.12 106.5 316.74 106.34C316.36 106.18 316.04 105.94 315.77 105.62C315.5 105.3 315.37 104.89 315.37 104.37C315.37 103.96 315.49 103.58 315.74 103.24C315.98 102.9 316.33 102.63 316.78 102.43C317.23 102.23 317.74 102.13 318.32 102.13C319.21 102.13 319.92 102.35 320.47 102.8C321.02 103.25 321.31 103.86 321.35 104.64H320.02C319.99 104.22 319.82 103.88 319.52 103.63C319.21 103.38 318.8 103.25 318.28 103.25C317.8 103.25 317.42 103.35 317.14 103.56C316.86 103.77 316.72 104.03 316.72 104.36C316.72 104.62 316.8 104.84 316.98 105.01C317.16 105.18 317.36 105.32 317.62 105.42C317.88 105.52 318.24 105.64 318.7 105.76C319.28 105.92 319.74 106.07 320.1 106.22C320.46 106.37 320.77 106.6 321.03 106.9C321.29 107.2 321.42 107.6 321.43 108.08C321.43 108.52 321.31 108.91 321.06 109.27C320.81 109.63 320.47 109.9 320.03 110.1C319.59 110.3 319.08 110.4 318.5 110.4C317.88 110.4 317.33 110.29 316.85 110.09V110.11Z" fill="#010200"/>
</svg>
