<svg width="473" height="663" viewBox="0 0 473 663" fill="none" xmlns="http://www.w3.org/2000/svg">
<path d="M460.94 11.73H0.830078V662.45H460.94V11.73Z" fill="#B7B7B7"/>
<path d="M471.95 0.72998H11.8401V651.45H471.95V0.72998Z" fill="white" stroke="#222221" stroke-miterlimit="10"/>
<path d="M206.46 401.64H64.1699V442.29H206.46V401.64Z" fill="white" stroke="#222221" stroke-miterlimit="10"/>
<path d="M418.02 401.64H275.73V442.29H418.02V401.64Z" fill="white" stroke="#222221" stroke-miterlimit="10"/>
<path d="M206.23 554.62H63.9399V595.27H206.23V554.62Z" fill="white" stroke="#222221" stroke-miterlimit="10"/>
<path d="M418.02 554.62H275.73V595.27H418.02V554.62Z" fill="white" stroke="#222221" stroke-miterlimit="10"/>
<path d="M418.24 238.22H275.95V278.87H418.24V238.22Z" fill="white" stroke="#222221" stroke-miterlimit="10"/>
<path d="M173.35 364.48C173.35 375.04 171.7 384.53 166.14 391.39C160.59 398.24 151.11 402.51 135.32 402.51C119.53 402.51 110.05 398.24 104.5 391.39C98.9401 384.53 97.29 375.03 97.29 364.48C97.29 343.48 114.32 326.45 135.32 326.45C156.32 326.45 173.35 343.48 173.35 364.48Z" fill="white" stroke="#010200"/>
<path d="M163.89 374.41C163.89 378.61 160.35 382.03 155.95 382.03C151.55 382.03 148.01 378.61 148.01 374.41C148.01 370.21 151.55 366.79 155.95 366.79C160.35 366.79 163.89 370.21 163.89 374.41Z" fill="#010200" stroke="#010200"/>
<path d="M123.56 374.41C123.56 378.61 120.02 382.03 115.62 382.03C111.22 382.03 107.68 378.61 107.68 374.41C107.68 370.21 111.22 366.79 115.62 366.79C120.02 366.79 123.56 370.21 123.56 374.41Z" fill="#010200" stroke="#010200"/>
<path d="M117.15 373.51C118.304 373.51 119.24 372.574 119.24 371.42C119.24 370.265 118.304 369.33 117.15 369.33C115.996 369.33 115.06 370.265 115.06 371.42C115.06 372.574 115.996 373.51 117.15 373.51Z" fill="white" stroke="#010200"/>
<path d="M158.96 373.51C160.114 373.51 161.05 372.574 161.05 371.42C161.05 370.265 160.114 369.33 158.96 369.33C157.806 369.33 156.87 370.265 156.87 371.42C156.87 372.574 157.806 373.51 158.96 373.51Z" fill="white" stroke="#010200"/>
<path d="M126.62 400.25C128.13 396.22 130.4 392.48 130.09 391.43H140.02C139.55 393.43 142.04 397.76 143.17 399.15C144.59 400.88 146.16 407.66 141.12 408.29C136.08 408.92 136.24 402.15 134.5 405.14C132.77 408.13 124.73 405.3 126.62 400.26V400.25Z" fill="white" stroke="#010200"/>
<path d="M135.16 401.19C134.21 401.19 125.5 390.06 124.76 388.59L145.4 389.54C144.77 390.91 136.1 401.2 135.16 401.2V401.19Z" fill="white" stroke="#010200"/>
<path d="M130.85 386.7C129.46 388.34 124.94 388.05 124.55 388.91C124 390.89 133.63 399.94 135.26 399.94C136.89 399.94 147.23 388.91 145.5 388.91C143.77 388.91 140.54 388.22 139.28 386.48C138.27 385.09 136.34 384.81 135.01 384.81C133.68 384.81 132.24 385.06 130.85 386.7Z" fill="white" stroke="#010200"/>
<path d="M137.52 389.54C137.78 389.54 137.99 388.904 137.99 388.12C137.99 387.335 137.78 386.7 137.52 386.7C137.261 386.7 137.05 387.335 137.05 388.12C137.05 388.904 137.261 389.54 137.52 389.54Z" fill="white"/>
<path d="M137.49 388.12C137.49 388.47 137.44 388.77 137.38 388.96C137.35 389.06 137.32 389.1 137.31 389.11C137.3 389.12 137.37 389.03 137.52 389.03V390.04C137.81 390.04 138 389.87 138.1 389.74C138.21 389.61 138.28 389.44 138.33 389.28C138.44 388.96 138.49 388.55 138.49 388.12H137.48H137.49ZM137.52 389.03C137.68 389.03 137.75 389.13 137.73 389.11C137.73 389.11 137.7 389.06 137.66 388.96C137.6 388.77 137.55 388.47 137.55 388.12H136.54C136.54 388.55 136.6 388.96 136.7 389.28C136.75 389.44 136.83 389.6 136.93 389.74C137.03 389.87 137.23 390.04 137.51 390.04V389.03H137.52ZM137.56 388.12C137.56 387.77 137.61 387.47 137.67 387.28C137.7 387.18 137.73 387.14 137.74 387.13C137.75 387.12 137.68 387.21 137.53 387.21V386.2C137.24 386.2 137.05 386.37 136.95 386.5C136.84 386.64 136.77 386.8 136.72 386.96C136.61 387.28 136.56 387.69 136.56 388.12H137.57H137.56ZM137.52 387.21C137.36 387.21 137.29 387.11 137.31 387.13C137.31 387.13 137.34 387.18 137.38 387.28C137.44 387.47 137.49 387.77 137.49 388.12H138.5C138.5 387.69 138.44 387.28 138.34 386.96C138.29 386.8 138.21 386.64 138.11 386.5C138.01 386.37 137.82 386.2 137.53 386.2V387.21H137.52Z" fill="#010200"/>
<path d="M133.11 389.54C133.37 389.54 133.58 388.904 133.58 388.12C133.58 387.335 133.37 386.7 133.11 386.7C132.851 386.7 132.64 387.335 132.64 388.12C132.64 388.904 132.851 389.54 133.11 389.54Z" fill="white"/>
<path d="M133.08 388.12C133.08 388.47 133.03 388.77 132.97 388.96C132.94 389.06 132.91 389.1 132.9 389.11C132.89 389.12 132.96 389.03 133.11 389.03V390.04C133.4 390.04 133.59 389.87 133.69 389.74C133.8 389.61 133.87 389.44 133.92 389.28C134.03 388.96 134.08 388.55 134.08 388.12H133.07H133.08ZM133.11 389.03C133.27 389.03 133.34 389.13 133.32 389.11C133.32 389.11 133.29 389.06 133.25 388.96C133.19 388.77 133.14 388.47 133.14 388.12H132.13C132.13 388.55 132.19 388.96 132.29 389.28C132.34 389.44 132.42 389.6 132.52 389.74C132.62 389.87 132.82 390.04 133.1 390.04V389.03H133.11ZM133.15 388.12C133.15 387.77 133.2 387.47 133.26 387.28C133.29 387.18 133.32 387.14 133.33 387.13C133.34 387.12 133.27 387.21 133.12 387.21V386.2C132.83 386.2 132.64 386.37 132.54 386.5C132.43 386.64 132.36 386.8 132.31 386.96C132.2 387.28 132.15 387.69 132.15 388.12H133.16H133.15ZM133.11 387.21C132.95 387.21 132.88 387.11 132.9 387.13C132.9 387.13 132.93 387.18 132.97 387.28C133.03 387.47 133.08 387.77 133.08 388.12H134.09C134.09 387.69 134.03 387.28 133.93 386.96C133.88 386.8 133.8 386.64 133.7 386.5C133.6 386.37 133.4 386.2 133.12 386.2V387.21H133.11Z" fill="#010200"/>
<path d="M144.77 342.27C140.48 342.02 141.78 351.25 135.47 351.25C129.16 351.25 133.26 335.18 134.52 331.08C137.19 322.41 134.52 326.35 130.42 323.52C128.15 321.95 129.41 316.18 135.46 318.32C139.98 319.92 139.15 326.61 137.39 332.13C138.89 328.87 141.03 325.27 143.49 323.52C148.37 320.05 149.63 330.29 143.49 332.5C138.57 334.26 136.09 341.32 135.46 344.63C135.99 342.53 138.58 338.08 144.76 337.07C152.48 335.81 150.12 342.58 144.76 342.27H144.77Z" fill="white" stroke="#010200"/>
<path d="M208.36 238.15H66.0701V278.8H208.36V238.15Z" fill="white" stroke="#222221" stroke-miterlimit="10"/>
<path d="M155.98 168.52C156 168.37 156.03 168.23 156.02 168.08C156.02 167.96 156.38 167.23 156.28 167.21C155.79 167.1 155.01 167.38 154.49 167.42C154.14 167.44 153.76 167.49 153.37 167.56C152.73 167.35 152.08 167.15 151.42 166.97C151.43 166.63 151.45 166.32 151.46 166.21C151.51 165.74 151.63 165.07 151.51 164.6C151.44 164.33 150.98 164.69 150.86 164.78C149.87 165.47 148.43 165.61 147.28 165.85C147.15 165.88 147.04 165.92 146.93 165.96C146.59 165.9 146.26 165.84 145.91 165.79C146.09 165.48 146.27 165.17 146.52 164.88C146.66 164.71 147.72 163.33 147.53 163.33C145.66 163.23 143.86 162.96 142.02 163.62C140.82 164.05 139.59 164.55 138.49 165.19C138.15 165.19 137.81 165.17 137.46 165.17C137.85 164.69 138.41 164.06 138.4 163.69C138.4 163.59 137.02 163.92 136.97 163.93C135.91 164.11 134.86 164.35 133.79 164.42C132.28 164.52 130.86 164.83 129.38 165.1C129.31 165.11 127.83 165.6 128.08 165.25C128.3 164.95 128.31 164.44 128.5 164.11V164.09C128.84 163.51 129.13 163 129.53 162.44C130.17 161.54 128.28 162.71 128.09 162.83C126.45 163.93 124.9 164.98 123.92 166.72C123.64 166.79 123.37 166.87 123.09 166.95C122.99 166.71 122.91 166.45 122.85 166.26C122.68 165.73 122.74 165.26 122.7 164.74C122.68 164.37 122.46 164.67 122.31 164.83C121.26 165.94 120.14 166.99 119.25 168.22C105.48 173.55 98.0898 185.47 98.0898 201.09C98.0898 222.52 106.46 239.89 137.22 239.89C167.98 239.89 176.35 222.52 176.35 201.09C176.35 185.77 169.25 173.99 155.98 168.52Z" fill="white" stroke="#222221"/>
<path d="M166.93 200.72C168.81 209.07 169.33 219.33 162.62 220.84C155.91 222.35 147.25 218.81 145.37 210.46C143.49 202.11 141.69 191.85 148.4 190.34C155.11 188.83 165.05 192.37 166.92 200.72H166.93Z" fill="white" stroke="#010200" stroke-width="0.75"/>
<path d="M137.06 236.38C146.233 236.38 153.67 231.231 153.67 224.88C153.67 218.529 146.233 213.38 137.06 213.38C127.886 213.38 120.45 218.529 120.45 224.88C120.45 231.231 127.886 236.38 137.06 236.38Z" fill="white" stroke="#010200" stroke-width="0.5"/>
<path d="M137.25 233.69C132.91 233.69 132.83 230.18 133.58 226.5C135.11 224.71 139.01 225.75 140.77 226.5C141.25 230.17 141.6 233.69 137.26 233.69H137.25Z" fill="black"/>
<path d="M137.25 233.37C132.91 233.37 132.83 229.86 133.58 226.18C135.11 224.39 139.01 225.43 140.77 226.18C141.25 229.85 141.6 233.37 137.26 233.37H137.25Z" fill="white" stroke="#010200" stroke-width="0.5"/>
<path d="M157.82 219.12C162.404 219.12 166.12 215.547 166.12 211.14C166.12 206.732 162.404 203.16 157.82 203.16C153.236 203.16 149.52 206.732 149.52 211.14C149.52 215.547 153.236 219.12 157.82 219.12Z" fill="#010200"/>
<path d="M116.94 219.12C121.524 219.12 125.24 215.547 125.24 211.14C125.24 206.732 121.524 203.16 116.94 203.16C112.356 203.16 108.64 206.732 108.64 211.14C108.64 215.547 112.356 219.12 116.94 219.12Z" fill="#010200"/>
<path d="M143.36 227.26C140.27 227.26 137.83 226.33 136.62 225.54C136.25 225.3 136.15 224.8 136.39 224.44C136.63 224.08 137.13 223.97 137.49 224.21C139.28 225.38 144.15 226.86 149.8 224.16C150.2 223.97 150.67 224.14 150.86 224.54C151.05 224.94 150.88 225.41 150.48 225.6C147.91 226.83 145.47 227.27 143.35 227.27L143.36 227.26Z" fill="#010200"/>
<path d="M130.27 227.26C127.18 227.26 124.74 226.33 123.53 225.54C123.16 225.3 123.06 224.8 123.3 224.44C123.54 224.08 124.04 223.97 124.4 224.21C126.19 225.38 131.06 226.86 136.71 224.16C137.11 223.97 137.58 224.14 137.77 224.54C137.96 224.94 137.79 225.41 137.39 225.6C134.82 226.83 132.38 227.27 130.26 227.27L130.27 227.26Z" fill="#010200"/>
<path d="M118.37 209.55C119.165 209.55 119.81 208.905 119.81 208.11C119.81 207.315 119.165 206.67 118.37 206.67C117.575 206.67 116.93 207.315 116.93 208.11C116.93 208.905 117.575 209.55 118.37 209.55Z" fill="white"/>
<path d="M159.25 209.55C160.045 209.55 160.69 208.905 160.69 208.11C160.69 207.315 160.045 206.67 159.25 206.67C158.455 206.67 157.81 207.315 157.81 208.11C157.81 208.905 158.455 209.55 159.25 209.55Z" fill="white"/>
<path d="M141.85 217.69C141.85 219.54 139.71 223.28 137.06 223.28C134.41 223.28 132.27 219.54 132.27 217.69C132.27 215.84 134.41 214.34 137.06 214.34C139.71 214.34 141.85 215.84 141.85 217.69Z" fill="#010200"/>
<path d="M179.87 205.2C175.06 192.62 162.74 175.87 157.18 169.07C187.61 161.58 194.33 180.89 193.89 191.48C193.44 202.07 184.68 217.77 179.87 205.2Z" fill="white" stroke="#010200"/>
<path d="M94.5599 205.2C99.3699 192.62 111.69 175.87 117.25 169.07C86.8199 161.58 80.0998 180.89 80.5398 191.48C80.9798 202.07 89.7499 217.77 94.5599 205.2Z" fill="white" stroke="#010200"/>
<path d="M136.9 230.94C136.9 231.03 136.97 231.1 137.06 231.1C137.15 231.1 137.22 231.03 137.22 230.94H136.9ZM136.9 225.83V230.94H137.22V225.83H136.9Z" fill="#010200"/>
<path d="M384.44 194.93C381.04 202.61 372.06 206.08 364.38 202.68C356.7 199.28 353.23 190.3 356.63 182.62C360.03 174.94 365.68 160.9 385.42 158.74C387.68 164.29 387.84 187.25 384.44 194.93Z" fill="white" stroke="#010200"/>
<path d="M310.65 194.93C314.05 202.61 323.03 206.08 330.71 202.68C338.39 199.28 341.86 190.3 338.46 182.62C335.06 174.94 329.41 160.9 309.67 158.74C307.41 164.29 307.25 187.25 310.65 194.93Z" fill="white" stroke="#010200"/>
<path d="M383 191.88C380.33 197.92 373.27 200.64 367.23 197.97C361.19 195.3 360.75 189.73 363.42 183.7C366.09 177.67 372.48 167.68 383.77 163.44C385.55 167.8 385.67 185.84 383 191.88Z" fill="white" stroke="#010200" stroke-width="0.5"/>
<path d="M312.09 191.88C314.76 197.92 321.82 200.64 327.86 197.97C333.9 195.3 334.34 189.73 331.67 183.7C329 177.66 322.61 167.68 311.32 163.44C309.54 167.8 309.42 185.84 312.09 191.88Z" fill="white" stroke="#010200" stroke-width="0.5"/>
<path d="M384.11 217.52C384.02 216.78 384.02 216.03 383.96 215.29C383.93 214.88 383.8 214.47 383.8 214.06C383.77 214.1 383.73 214.15 383.69 214.19C385.01 210.45 385.74 206.37 385.74 201.99C385.74 180.28 368.14 162.68 346.43 162.68C324.72 162.68 307.12 180.28 307.12 201.99C307.12 207.23 308.15 212.04 310.01 216.34C309.97 216.64 309.9 216.94 309.87 217.24C309.81 217.98 309.81 218.73 309.72 219.47C309.65 220.02 309.79 220.57 309.79 221.11C309.79 221.3 309.67 222.24 309.8 222.35C310.03 222.54 311.15 221.11 311.29 220.88C311.52 220.48 311.37 221.41 311.37 221.5C311.37 222.19 311.53 222.85 311.73 223.5C311.95 224.23 312.28 224.98 312.4 225.74C312.42 225.88 312.62 226.65 312.68 226.51C312.86 226.07 312.91 225.6 313.07 225.15C313.14 224.96 313.15 224.35 313.31 224.76C313.77 225.94 314.37 226.87 315.35 227.7C315.51 227.83 315.71 228.14 315.91 227.98C316.03 227.89 316.03 227.33 316.03 227.2C316.03 226.91 316.03 226.37 316.13 226.1C316.18 225.98 316.24 225.95 316.3 225.96C323.51 233.71 334.33 238.22 346.42 238.22C359.22 238.22 370.58 233.17 377.76 224.58C377.78 224.82 377.78 225.09 377.78 225.26C377.78 225.39 377.78 225.95 377.9 226.04C378.1 226.2 378.31 225.89 378.46 225.76C379.45 224.93 380.04 224 380.5 222.82C380.66 222.41 380.67 223.02 380.74 223.21C380.9 223.66 380.95 224.13 381.13 224.57C381.19 224.71 381.39 223.94 381.41 223.8C381.52 223.04 381.85 222.29 382.08 221.56C382.28 220.91 382.44 220.24 382.44 219.56C382.44 219.47 382.29 218.54 382.52 218.94C382.65 219.17 383.78 220.6 384.01 220.41C384.14 220.3 384.02 219.35 384.02 219.17C384.02 218.62 384.16 218.08 384.09 217.53L384.11 217.52Z" fill="#F9F9F9" stroke="#010200"/>
<path d="M367.62 220.27C372.265 220.27 376.03 216.648 376.03 212.18C376.03 207.712 372.265 204.09 367.62 204.09C362.975 204.09 359.21 207.712 359.21 212.18C359.21 216.648 362.975 220.27 367.62 220.27Z" fill="#010200"/>
<path d="M326.21 220.27C330.855 220.27 334.62 216.648 334.62 212.18C334.62 207.712 330.855 204.09 326.21 204.09C321.565 204.09 317.8 207.712 317.8 212.18C317.8 216.648 321.565 220.27 326.21 220.27Z" fill="#010200"/>
<path d="M326.21 217.36C329.248 217.36 331.71 215.041 331.71 212.18C331.71 209.319 329.248 207 326.21 207C323.173 207 320.71 209.319 320.71 212.18C320.71 215.041 323.173 217.36 326.21 217.36Z" fill="#010200"/>
<path d="M327.66 210.56C328.466 210.56 329.12 209.906 329.12 209.1C329.12 208.294 328.466 207.64 327.66 207.64C326.854 207.64 326.2 208.294 326.2 209.1C326.2 209.906 326.854 210.56 327.66 210.56Z" fill="white"/>
<path d="M369.08 210.56C369.886 210.56 370.54 209.906 370.54 209.1C370.54 208.294 369.886 207.64 369.08 207.64C368.274 207.64 367.62 208.294 367.62 209.1C367.62 209.906 368.274 210.56 369.08 210.56Z" fill="white"/>
<path d="M346.59 234.82C341.41 234.82 341.2 228.35 340.12 225.11C342.32 228.09 345.35 226.35 346.59 225.11C349.57 228.35 352.25 226.46 353.22 225.11C352.09 228.35 351.76 234.82 346.59 234.82Z" fill="#010200"/>
<path d="M346.39 233.85C344.48 233.85 343.14 232.13 342.71 231.27C345.8 227.73 349.39 229.8 350.8 231.27C350.13 232.13 348.3 233.85 346.39 233.85Z" fill="white" stroke="#010200" stroke-width="0.5"/>
<path d="M337.21 176.42L330.42 166.07C332.04 165.42 335.27 164.29 337.21 163.81V176.43V176.42Z" fill="white" stroke="#010200" stroke-width="0.5"/>
<path d="M331.31 228.68L330.04 235.3C329.16 234.94 327.47 234.16 326.53 233.61L331.31 228.68Z" fill="white" stroke="#010200" stroke-width="0.5"/>
<path d="M361.54 228.68L362.81 235.3C363.69 234.94 365.38 234.16 366.32 233.61L361.54 228.68Z" fill="white" stroke="#010200" stroke-width="0.5"/>
<path d="M326.54 226.09L324.22 232.41C323.41 231.91 321.87 230.87 321.03 230.18L326.54 226.09Z" fill="white" stroke="#010200" stroke-width="0.5"/>
<path d="M366.31 226.09L368.63 232.41C369.44 231.91 370.98 230.87 371.82 230.18L366.31 226.09Z" fill="white" stroke="#010200" stroke-width="0.5"/>
<path d="M357.27 176.58L364.06 166.23C362.44 165.58 359.21 164.45 357.27 163.97V176.59V176.58Z" fill="white" stroke="#010200" stroke-width="0.5"/>
<path d="M348.1 179.17L343.96 162.89C345.7 162.76 349.12 162.67 351.12 162.79L348.1 179.17Z" fill="white" stroke="#010200" stroke-width="0.5"/>
<path d="M350.31 227.38C352.541 227.38 354.35 225.715 354.35 223.66C354.35 221.606 352.541 219.94 350.31 219.94C348.079 219.94 346.27 221.606 346.27 223.66C346.27 225.715 348.079 227.38 350.31 227.38Z" fill="white" stroke="#010200" stroke-width="0.5"/>
<path d="M342.55 227.38C344.782 227.38 346.59 225.715 346.59 223.66C346.59 221.606 344.782 219.94 342.55 219.94C340.319 219.94 338.51 221.606 338.51 223.66C338.51 225.715 340.319 227.38 342.55 227.38Z" fill="white" stroke="#010200" stroke-width="0.5"/>
<path d="M351.45 218.81C351.45 220.69 349.28 224.47 346.6 224.47C343.92 224.47 341.75 220.68 341.75 218.81C341.75 216.94 343.92 215.41 346.6 215.41C349.28 215.41 351.45 216.93 351.45 218.81Z" fill="#010200"/>
<path d="M349.56 228.75C349.46 228.75 349.36 228.75 349.26 228.74C347.79 228.63 346.62 227.68 346.01 226.83C345.78 226.51 345.86 226.06 346.18 225.83C346.5 225.6 346.95 225.68 347.18 226C347.59 226.58 348.39 227.23 349.36 227.31C350.29 227.38 351.26 226.91 352.22 225.92C352.49 225.63 352.95 225.63 353.23 225.9C353.51 226.18 353.52 226.63 353.25 226.91C352.07 228.13 350.83 228.75 349.55 228.75H349.56Z" fill="#010200"/>
<path d="M343.41 228.75C343.31 228.75 343.21 228.75 343.11 228.74C341.64 228.63 340.47 227.68 339.86 226.83C339.63 226.51 339.71 226.06 340.03 225.83C340.35 225.6 340.8 225.68 341.03 226C341.44 226.58 342.24 227.23 343.21 227.31C344.14 227.38 345.11 226.91 346.07 225.92C346.34 225.63 346.8 225.63 347.08 225.9C347.36 226.18 347.37 226.63 347.1 226.91C345.92 228.13 344.68 228.75 343.4 228.75H343.41Z" fill="#010200"/>
<path d="M349.8 229.32L349.5 228.03H350.15L349.8 229.32Z" fill="white"/>
<path d="M343.98 229.32L343.68 228.03H344.33L343.98 229.32Z" fill="white"/>
<path d="M176.47 515.63C176.47 537.16 169.73 554.62 137.48 554.62C105.23 554.62 98.49 537.17 98.49 515.63C98.49 494.09 115.94 476.64 137.48 476.64C159.02 476.64 176.47 494.09 176.47 515.63Z" fill="white" stroke="#010200"/>
<path d="M158.5 533.76C163.106 533.76 166.84 530.17 166.84 525.74C166.84 521.311 163.106 517.72 158.5 517.72C153.894 517.72 150.16 521.311 150.16 525.74C150.16 530.17 153.894 533.76 158.5 533.76Z" fill="#050504"/>
<path d="M117.43 533.76C122.036 533.76 125.77 530.17 125.77 525.74C125.77 521.311 122.036 517.72 117.43 517.72C112.824 517.72 109.09 521.311 109.09 525.74C109.09 530.17 112.824 533.76 117.43 533.76Z" fill="#050504"/>
<path d="M117.43 530.87C120.44 530.87 122.88 528.574 122.88 525.74C122.88 522.907 120.44 520.61 117.43 520.61C114.42 520.61 111.98 522.907 111.98 525.74C111.98 528.574 114.42 530.87 117.43 530.87Z" fill="#050504"/>
<path d="M118.88 524.13C119.675 524.13 120.32 523.485 120.32 522.69C120.32 521.895 119.675 521.25 118.88 521.25C118.085 521.25 117.44 521.895 117.44 522.69C117.44 523.485 118.085 524.13 118.88 524.13Z" fill="white"/>
<path d="M159.95 524.13C160.745 524.13 161.39 523.485 161.39 522.69C161.39 521.895 160.745 521.25 159.95 521.25C159.155 521.25 158.51 521.895 158.51 522.69C158.51 523.485 159.155 524.13 159.95 524.13Z" fill="white"/>
<path d="M137.65 548.68C131.75 548.81 128.77 545.85 128.02 544.35H146.95C146.31 545.74 143.55 548.55 137.64 548.68H137.65Z" fill="white" stroke="#010200"/>
<path d="M132.93 538.26C131.52 539.93 126.92 539.64 126.51 540.51C125.95 542.53 127.54 547.09 137.42 547.09C149.77 547.09 149.61 540.51 147.85 540.51C146.09 540.51 142.8 539.48 141.51 537.72C140.48 536.31 138.46 536.02 137.42 536.02C136.06 536.02 134.34 536.6 132.93 538.27V538.26Z" fill="white" stroke="#010200"/>
<path d="M140.05 540.82C140.315 540.82 140.53 540.175 140.53 539.38C140.53 538.585 140.315 537.94 140.05 537.94C139.785 537.94 139.57 538.585 139.57 539.38C139.57 540.175 139.785 540.82 140.05 540.82Z" fill="#010200"/>
<path d="M135.56 540.82C135.825 540.82 136.04 540.175 136.04 539.38C136.04 538.585 135.825 537.94 135.56 537.94C135.295 537.94 135.08 538.585 135.08 539.38C135.08 540.175 135.295 540.82 135.56 540.82Z" fill="#010200"/>
<path d="M390.5 364.48C390.5 387.14 383.41 405.51 349.47 405.51C315.53 405.51 308.44 387.14 308.44 364.48C308.44 341.82 326.81 323.45 349.47 323.45C372.13 323.45 390.5 341.82 390.5 364.48Z" fill="white" stroke="#010200"/>
<path d="M371.6 381.87C376.449 381.87 380.38 378.092 380.38 373.43C380.38 368.769 376.449 364.99 371.6 364.99C366.751 364.99 362.82 368.769 362.82 373.43C362.82 378.092 366.751 381.87 371.6 381.87Z" fill="#050504"/>
<path d="M328.37 381.87C333.219 381.87 337.15 378.092 337.15 373.43C337.15 368.769 333.219 364.99 328.37 364.99C323.521 364.99 319.59 368.769 319.59 373.43C319.59 378.092 323.521 381.87 328.37 381.87Z" fill="#050504"/>
<path d="M328.37 378.83C331.54 378.83 334.11 376.413 334.11 373.43C334.11 370.448 331.54 368.03 328.37 368.03C325.2 368.03 322.63 370.448 322.63 373.43C322.63 376.413 325.2 378.83 328.37 378.83Z" fill="#050504"/>
<path d="M329.89 371.74C330.729 371.74 331.41 371.06 331.41 370.22C331.41 369.381 330.729 368.7 329.89 368.7C329.05 368.7 328.37 369.381 328.37 370.22C328.37 371.06 329.05 371.74 329.89 371.74Z" fill="white"/>
<path d="M373.11 371.74C373.949 371.74 374.63 371.06 374.63 370.22C374.63 369.381 373.949 368.7 373.11 368.7C372.27 368.7 371.59 369.381 371.59 370.22C371.59 371.06 372.27 371.74 373.11 371.74Z" fill="white"/>
<path d="M349.31 402.13C348.3 402.13 338.96 390.2 338.17 388.62L360.29 389.63C359.61 391.09 350.33 402.12 349.32 402.12L349.31 402.13Z" fill="white" stroke="#010200"/>
<path d="M344.69 386.6C343.2 388.36 338.36 388.05 337.94 388.96C337.35 391.09 347.67 400.78 349.42 400.78C351.17 400.78 362.25 388.96 360.39 388.96C358.53 388.96 355.07 388.22 353.72 386.36C352.64 384.87 350.57 384.57 349.14 384.57C347.71 384.57 346.17 384.84 344.69 386.6Z" fill="white" stroke="#010200"/>
<path d="M351.84 389.64C352.122 389.64 352.35 388.96 352.35 388.12C352.35 387.281 352.122 386.6 351.84 386.6C351.558 386.6 351.33 387.281 351.33 388.12C351.33 388.96 351.558 389.64 351.84 389.64Z" fill="#050504"/>
<path d="M347.11 389.64C347.392 389.64 347.62 388.96 347.62 388.12C347.62 387.281 347.392 386.6 347.11 386.6C346.828 386.6 346.6 387.281 346.6 388.12C346.6 388.96 346.828 389.64 347.11 389.64Z" fill="#050504"/>
<path d="M380.44 499.67C369.04 511.07 362.59 509.05 357.36 503.82C352.13 498.59 353.2 497.22 361.51 480.74C368.77 466.34 380.21 470.41 385.44 475.64C390.67 480.87 391.85 488.27 380.45 499.68L380.44 499.67Z" fill="white" stroke="#222221" stroke-miterlimit="10"/>
<path d="M301.23 503.12C312.63 514.52 319.08 512.5 324.31 507.27C329.54 502.04 328.45 499.63 320.16 484.19C312.53 469.98 301.46 473.86 296.23 479.09C291 484.32 289.82 491.72 301.22 503.13L301.23 503.12Z" fill="white" stroke="#222221" stroke-miterlimit="10"/>
<path d="M385.36 527.21C380.81 502.83 365.57 480.32 341.15 480.32C316.73 480.32 300.96 501.76 296.94 527.21C293.13 551.33 315.39 560.17 339.81 560.17C364.23 560.17 389.84 551.21 385.36 527.21Z" fill="white" stroke="#222221" stroke-miterlimit="10"/>
<path d="M359.49 532.49C363.886 532.49 367.45 529.065 367.45 524.84C367.45 520.615 363.886 517.19 359.49 517.19C355.094 517.19 351.53 520.615 351.53 524.84C351.53 529.065 355.094 532.49 359.49 532.49Z" fill="#222221" stroke="#222221" stroke-miterlimit="10"/>
<path d="M360.87 524.07C361.632 524.07 362.25 523.452 362.25 522.69C362.25 521.928 361.632 521.31 360.87 521.31C360.108 521.31 359.49 521.928 359.49 522.69C359.49 523.452 360.108 524.07 360.87 524.07Z" fill="white" stroke="#222221" stroke-miterlimit="10"/>
<path d="M322.16 532.49C326.556 532.49 330.12 529.065 330.12 524.84C330.12 520.615 326.556 517.19 322.16 517.19C317.764 517.19 314.2 520.615 314.2 524.84C314.2 529.065 317.764 532.49 322.16 532.49Z" fill="#222221" stroke="#222221" stroke-miterlimit="10"/>
<path d="M323.53 522.54C324.292 522.54 324.91 521.922 324.91 521.16C324.91 520.398 324.292 519.78 323.53 519.78C322.768 519.78 322.15 520.398 322.15 521.16C322.15 521.922 322.768 522.54 323.53 522.54Z" fill="white" stroke="#222221" stroke-miterlimit="10"/>
<path d="M339.35 492.35C339.46 490.53 341.1 490.14 342.6 491.19C344.1 492.24 345.59 500.96 345.87 504.18C346.36 509.84 346.99 515.32 347.68 520.96C348.39 526.77 349.04 533.18 353.32 537.22C359.32 542.88 370.23 539.27 375.96 545.2C377.04 546.32 377.63 549.97 377.62 551.51C377.6 553.49 376.11 555.11 374.52 556.32C370.93 559.06 366.39 560.23 362 561.34C360.45 561.73 351.03 565.82 341.4 565.81C331.46 565.79 321.29 561.66 319.75 561.69C316.02 561.75 312.14 561.06 309.12 558.9C306.1 556.74 304.14 552.87 305.02 549.28C305.94 545.51 309.58 543.01 313.22 541.55C316.86 540.1 320.82 539.29 324.08 537.14C329.23 533.75 333.49 527.53 332.65 521.47C332.1 517.47 332.95 509.24 333.35 503.13C333.48 501.12 334.26 490.58 336.02 489.56C337.77 488.54 339.35 491.65 339.35 492.37" fill="white"/>
<path d="M339.35 492.35C339.46 490.53 341.1 490.14 342.6 491.19C344.1 492.24 345.59 500.96 345.87 504.18C346.36 509.84 346.99 515.32 347.68 520.96C348.39 526.77 349.04 533.18 353.32 537.22C359.32 542.88 370.23 539.27 375.96 545.2C377.04 546.32 377.63 549.97 377.62 551.51C377.6 553.49 376.11 555.11 374.52 556.32C370.93 559.06 366.39 560.23 362 561.34C360.45 561.73 351.03 565.82 341.4 565.81C331.46 565.79 321.29 561.66 319.75 561.69C316.02 561.75 312.14 561.06 309.12 558.9C306.1 556.74 304.14 552.87 305.02 549.28C305.94 545.51 309.58 543.01 313.22 541.55C316.86 540.1 320.82 539.29 324.08 537.14C329.23 533.75 333.49 527.53 332.65 521.47C332.1 517.47 332.95 509.24 333.35 503.13C333.48 501.12 334.26 490.58 336.02 489.56C337.77 488.54 339.35 491.65 339.35 492.37" stroke="#222221" stroke-miterlimit="10"/>
<path d="M348.71 542.21C348.71 544.7 343.07 547.48 341.19 547.48C338.56 547.48 333.67 544.71 333.67 542.21C333.67 539.71 334.42 537.7 341.19 537.7C347.96 537.7 348.71 539.72 348.71 542.21Z" fill="white" stroke="#222221" stroke-miterlimit="10"/>
<path d="M338.94 551.77C338.94 551.77 338.77 556.82 339.68 556.82H343.13C343.13 556.82 343.65 556.51 343.65 555.9V551.7L341.2 550.82L338.93 551.77H338.94Z" fill="white" stroke="#222221" stroke-miterlimit="10"/>
<path d="M344.73 551.94C342.41 551.94 341.18 551.01 341.09 550.94L341.03 550.89V547.48H341.36V550.73C341.84 551.05 344.99 552.88 350.47 549.97L350.63 550.26C348.21 551.54 346.24 551.94 344.73 551.94Z" fill="white" stroke="#222221" stroke-miterlimit="10"/>
<path d="M337.68 551.94C336.17 551.94 334.2 551.55 331.78 550.26L331.94 549.97C337.42 552.88 340.58 551.04 341.05 550.73V547.48H341.38V550.89L341.32 550.94C341.24 551 340.01 551.94 337.68 551.94Z" fill="white" stroke="#222221" stroke-miterlimit="10"/>
<path d="M355.03 541.76L354.87 541.72C354.87 541.72 355.65 539 359.62 536.61C363.27 534.42 370.45 532.04 383.95 533.16V533.33C370.5 532.22 363.35 534.57 359.73 536.75C355.81 539.1 355.04 541.74 355.04 541.77L355.03 541.76Z" fill="white" stroke="#222221" stroke-miterlimit="10"/>
<path d="M387.47 543.92C374.9 539.04 367.38 539.27 363.29 540.33C358.86 541.47 357.38 543.79 357.37 543.81L357.23 543.72C357.23 543.72 358.75 541.33 363.23 540.17C367.35 539.1 374.91 538.86 387.53 543.76L387.47 543.92Z" fill="white" stroke="#222221" stroke-miterlimit="10"/>
<path d="M386.12 557.12C375.44 548.89 368.16 546.98 363.94 546.84C359.37 546.68 357.29 548.49 357.27 548.51L357.16 548.39C357.16 548.39 359.29 546.52 363.92 546.68C368.17 546.82 375.49 548.73 386.22 557L386.12 557.13V557.12Z" fill="white" stroke="#222221" stroke-miterlimit="10"/>
<path d="M321.96 541.76C321.96 541.76 321.19 539.09 317.27 536.74C313.64 534.57 306.5 532.21 293.06 533.32V533.15C306.54 532.03 313.72 534.41 317.37 536.6C321.34 538.98 322.11 541.68 322.12 541.71L321.96 541.75V541.76Z" fill="white" stroke="#222221" stroke-miterlimit="10"/>
<path d="M289.52 543.92L289.46 543.76C302.08 538.86 309.64 539.1 313.76 540.17C318.24 541.33 319.75 543.7 319.76 543.72L319.62 543.81C319.62 543.81 318.12 541.47 313.7 540.33C309.61 539.28 302.09 539.04 289.52 543.92Z" fill="white" stroke="#222221" stroke-miterlimit="10"/>
<path d="M290.87 557.12L290.77 556.99C301.5 548.72 308.82 546.82 313.07 546.67C317.7 546.51 319.81 548.36 319.83 548.38L319.72 548.5C319.72 548.5 317.62 546.68 313.05 546.83C308.82 546.98 301.55 548.88 290.87 557.11V557.12Z" fill="white" stroke="#222221" stroke-miterlimit="10"/>
<path d="M357.21 486.34C359.25 484.67 360.44 482.02 360.33 479.39C362.41 481.56 363.16 484.91 362.2 487.76C364.9 484.59 369.16 482.82 373.31 483.13C370.14 484.6 368 488.04 368.08 491.53C369.99 491.25 371.88 490.78 373.7 490.13C373.19 492.3 372.04 494.31 370.43 495.85C374.3 495.47 378.01 493.64 380.65 490.79C379.29 494.55 376.87 497.91 373.75 500.4C378.21 499.67 383.36 499.32 386.68 502.39C382.9 502.09 379.06 504.46 377.62 507.96" fill="white"/>
<path d="M357.21 486.34C359.25 484.67 360.44 482.02 360.33 479.39C362.41 481.56 363.16 484.91 362.2 487.76C364.9 484.59 369.16 482.82 373.31 483.13C370.14 484.6 368 488.04 368.08 491.53C369.99 491.25 371.88 490.78 373.7 490.13C373.19 492.3 372.04 494.31 370.43 495.85C374.3 495.47 378.01 493.64 380.65 490.79C379.29 494.55 376.87 497.91 373.75 500.4C378.21 499.67 383.36 499.32 386.68 502.39C382.9 502.09 379.06 504.46 377.62 507.96" stroke="#222221" stroke-miterlimit="10"/>
<path d="M324.27 486.34C322.23 484.67 321.04 482.02 321.15 479.39C319.07 481.56 318.32 484.91 319.28 487.76C316.58 484.59 312.32 482.82 308.17 483.13C311.34 484.6 313.48 488.04 313.4 491.53C311.49 491.25 309.6 490.78 307.78 490.13C308.29 492.3 309.44 494.31 311.05 495.85C307.18 495.47 303.47 493.64 300.83 490.79C302.19 494.55 304.61 497.91 307.73 500.4C303.27 499.67 298.12 499.32 294.8 502.39C298.58 502.09 302.42 504.46 303.86 507.96" fill="white"/>
<path d="M324.27 486.34C322.23 484.67 321.04 482.02 321.15 479.39C319.07 481.56 318.32 484.91 319.28 487.76C316.58 484.59 312.32 482.82 308.17 483.13C311.34 484.6 313.48 488.04 313.4 491.53C311.49 491.25 309.6 490.78 307.78 490.13C308.29 492.3 309.44 494.31 311.05 495.85C307.18 495.47 303.47 493.64 300.83 490.79C302.19 494.55 304.61 497.91 307.73 500.4C303.27 499.67 298.12 499.32 294.8 502.39C298.58 502.09 302.42 504.46 303.86 507.96" stroke="#222221" stroke-miterlimit="10"/>
<path d="M96.48 48.6902H87.95L86.48 52.8502H82.99L90.29 32.4502H94.16L101.46 52.8502H97.94L96.48 48.6902ZM95.54 45.9702L92.23 36.5102L88.89 45.9702H95.54Z" fill="black"/>
<path d="M121.35 52.86H118.01L107.96 37.65V52.86H104.62V32.46H107.96L118.01 47.64V32.46H121.35V52.86Z" fill="black"/>
<path d="M129.09 32.4902V52.8602H125.75V32.4902H129.09Z" fill="black"/>
<path d="M154.94 32.4902V52.8602H151.6V38.9102L145.39 52.8602H143.07L136.83 38.9102V52.8602H133.49V32.4902H137.09L144.24 48.4602L151.36 32.4902H154.93H154.94Z" fill="black"/>
<path d="M171.61 48.6902H163.08L161.62 52.8502H158.13L165.43 32.4502H169.3L176.6 52.8502H173.08L171.62 48.6902H171.61ZM170.67 45.9702L167.36 36.5102L164.02 45.9702H170.67Z" fill="black"/>
<path d="M183.1 32.4902V52.8602H179.76V32.4902H183.1Z" fill="black"/>
<path d="M190.51 52.3402C189.42 51.8602 188.56 51.1802 187.93 50.3002C187.31 49.4202 186.99 48.3902 186.99 47.2202H190.57C190.65 48.1002 190.99 48.8202 191.61 49.3902C192.23 49.9602 193.09 50.2402 194.2 50.2402C195.31 50.2402 196.25 49.9602 196.9 49.4002C197.55 48.8402 197.87 48.1302 197.87 47.2502C197.87 46.5702 197.67 46.0102 197.27 45.5802C196.87 45.1502 196.37 44.8202 195.78 44.5802C195.18 44.3502 194.36 44.0902 193.3 43.8202C191.97 43.4702 190.89 43.1102 190.06 42.7502C189.23 42.3902 188.52 41.8302 187.94 41.0702C187.35 40.3102 187.06 39.2902 187.06 38.0202C187.06 36.8502 187.35 35.8202 187.94 34.9402C188.53 34.0602 189.35 33.3902 190.4 32.9202C191.45 32.4502 192.68 32.2202 194.06 32.2202C196.03 32.2202 197.65 32.7102 198.91 33.7002C200.17 34.6902 200.87 36.0402 201.01 37.7602H197.32C197.26 37.0202 196.91 36.3802 196.27 35.8602C195.62 35.3302 194.77 35.0702 193.72 35.0702C192.76 35.0702 191.98 35.3102 191.38 35.8002C190.78 36.2902 190.47 36.9902 190.47 37.9102C190.47 38.5302 190.66 39.0502 191.04 39.4502C191.42 39.8502 191.9 40.1702 192.49 40.4002C193.08 40.6402 193.88 40.8902 194.89 41.1602C196.24 41.5302 197.34 41.9002 198.19 42.2702C199.04 42.6402 199.76 43.2102 200.36 43.9802C200.96 44.7502 201.25 45.7802 201.25 47.0702C201.25 48.1102 200.97 49.0802 200.42 50.0002C199.86 50.9202 199.05 51.6502 197.99 52.2102C196.92 52.7702 195.67 53.0402 194.22 53.0402C192.85 53.0402 191.62 52.8002 190.53 52.3202L190.51 52.3402Z" fill="black"/>
<path d="M225.16 33.7302C226.79 34.5602 228.05 35.7502 228.94 37.3102C229.83 38.8602 230.27 40.6802 230.27 42.7502C230.27 44.8202 229.83 46.6202 228.94 48.1402C228.05 49.6602 226.79 50.8302 225.16 51.6402C223.53 52.4502 221.63 52.8602 219.46 52.8602H212.81V32.4902H219.46C221.63 32.4902 223.53 32.9102 225.16 33.7402V33.7302ZM224.94 48.2002C226.21 46.9102 226.84 45.0902 226.84 42.7502C226.84 40.4102 226.21 38.5402 224.94 37.2102C223.67 35.8802 221.84 35.2202 219.46 35.2202H216.15V50.1402H219.46C221.84 50.1402 223.67 49.4902 224.94 48.2102V48.2002Z" fill="black"/>
<path d="M237.65 51.73C236.06 50.84 234.8 49.6 233.87 48.01C232.94 46.42 232.48 44.63 232.48 42.63C232.48 40.63 232.94 38.85 233.87 37.27C234.8 35.69 236.06 34.45 237.65 33.56C239.24 32.67 240.99 32.23 242.88 32.23C244.77 32.23 246.55 32.68 248.14 33.56C249.73 34.45 250.99 35.68 251.91 37.27C252.83 38.85 253.29 40.64 253.29 42.63C253.29 44.62 252.83 46.42 251.91 48.01C250.99 49.6 249.74 50.84 248.14 51.73C246.55 52.62 244.79 53.06 242.88 53.06C240.97 53.06 239.24 52.62 237.65 51.73ZM246.48 49.24C247.53 48.62 248.36 47.75 248.96 46.6C249.56 45.46 249.85 44.13 249.85 42.63C249.85 41.13 249.55 39.81 248.96 38.67C248.36 37.54 247.54 36.67 246.48 36.06C245.42 35.45 244.22 35.15 242.88 35.15C241.54 35.15 240.33 35.45 239.28 36.06C238.23 36.67 237.4 37.53 236.8 38.67C236.2 39.8 235.91 41.12 235.91 42.63C235.91 44.14 236.21 45.46 236.8 46.6C237.4 47.74 238.22 48.62 239.28 49.24C240.34 49.86 241.54 50.16 242.88 50.16C244.22 50.16 245.43 49.85 246.48 49.24Z" fill="black"/>
<path d="M278.01 32.4902V52.8602H274.67V38.9102L268.46 52.8602H266.14L259.9 38.9102V52.8602H256.56V32.4902H260.16L267.31 48.4602L274.43 32.4902H278H278.01Z" fill="black"/>
<path d="M285.75 35.19V41.17H292.78V43.9H285.75V50.14H293.66V52.86H282.41V32.46H293.66V35.19H285.75ZM290.91 28.12L284.43 31.31V28.85L290.91 25.27V28.11V28.12Z" fill="black"/>
<path d="M300.78 52.3402C299.69 51.8602 298.83 51.1802 298.2 50.3002C297.57 49.4202 297.26 48.3902 297.26 47.2202H300.84C300.92 48.1002 301.26 48.8202 301.88 49.3902C302.5 49.9602 303.36 50.2402 304.47 50.2402C305.58 50.2402 306.52 49.9602 307.17 49.4002C307.82 48.8402 308.14 48.1302 308.14 47.2502C308.14 46.5702 307.94 46.0102 307.54 45.5802C307.14 45.1502 306.64 44.8202 306.05 44.5802C305.46 44.3402 304.63 44.0902 303.57 43.8202C302.24 43.4702 301.16 43.1102 300.33 42.7502C299.5 42.3902 298.79 41.8302 298.21 41.0702C297.62 40.3102 297.33 39.2902 297.33 38.0202C297.33 36.8502 297.62 35.8202 298.21 34.9402C298.8 34.0602 299.62 33.3902 300.67 32.9202C301.72 32.4502 302.95 32.2202 304.33 32.2202C306.3 32.2202 307.92 32.7102 309.18 33.7002C310.44 34.6902 311.14 36.0402 311.27 37.7602H307.58C307.52 37.0202 307.17 36.3802 306.53 35.8602C305.89 35.3402 305.04 35.0702 303.98 35.0702C303.02 35.0702 302.24 35.3102 301.64 35.8002C301.04 36.2902 300.73 36.9902 300.73 37.9102C300.73 38.5302 300.92 39.0502 301.3 39.4502C301.68 39.8502 302.16 40.1702 302.75 40.4002C303.34 40.6402 304.14 40.8902 305.15 41.1602C306.5 41.5302 307.6 41.9002 308.45 42.2702C309.3 42.6402 310.02 43.2102 310.62 43.9802C311.22 44.7502 311.51 45.7802 311.51 47.0702C311.51 48.1102 311.23 49.0802 310.68 50.0002C310.12 50.9202 309.31 51.6502 308.25 52.2102C307.18 52.7702 305.93 53.0402 304.48 53.0402C303.11 53.0402 301.88 52.8002 300.79 52.3202L300.78 52.3402Z" fill="black"/>
<path d="M328.62 32.4902V35.2202H323.2V52.8602H319.86V35.2202H314.41V32.4902H328.62Z" fill="black"/>
<path d="M335.33 32.4902V52.8602H331.99V32.4902H335.33Z" fill="black"/>
<path d="M340.01 37.27C340.94 35.69 342.2 34.45 343.79 33.56C345.38 32.67 347.13 32.23 349.02 32.23C351.19 32.23 353.12 32.76 354.81 33.83C356.5 34.9 357.73 36.4 358.49 38.36H354.48C353.95 37.29 353.22 36.48 352.28 35.96C351.34 35.43 350.26 35.17 349.03 35.17C347.68 35.17 346.48 35.47 345.43 36.08C344.38 36.69 343.55 37.55 342.95 38.69C342.35 39.83 342.06 41.14 342.06 42.65C342.06 44.16 342.36 45.47 342.95 46.61C343.55 47.74 344.37 48.62 345.43 49.23C346.49 49.84 347.69 50.15 349.03 50.15C350.26 50.15 351.34 49.89 352.28 49.36C353.22 48.83 353.95 48.03 354.48 46.96H358.49C357.73 48.91 356.5 50.42 354.81 51.47C353.12 52.52 351.19 53.05 349.02 53.05C347.1 53.05 345.36 52.61 343.77 51.72C342.19 50.83 340.93 49.6 340 48.01C339.07 46.43 338.61 44.64 338.61 42.65C338.61 40.66 339.07 38.87 340 37.29L340.01 37.27Z" fill="black"/>
<path d="M366.44 51.73C364.85 50.84 363.59 49.6 362.66 48.01C361.73 46.42 361.27 44.63 361.27 42.63C361.27 40.63 361.73 38.85 362.66 37.27C363.59 35.69 364.85 34.45 366.44 33.56C368.03 32.67 369.78 32.23 371.67 32.23C373.56 32.23 375.34 32.68 376.93 33.56C378.52 34.45 379.78 35.68 380.69 37.27C381.6 38.86 382.07 40.64 382.07 42.63C382.07 44.62 381.61 46.42 380.69 48.01C379.77 49.6 378.52 50.84 376.93 51.73C375.34 52.62 373.58 53.06 371.67 53.06C369.76 53.06 368.03 52.62 366.44 51.73ZM375.27 49.24C376.32 48.62 377.15 47.75 377.75 46.6C378.35 45.46 378.64 44.13 378.64 42.63C378.64 41.13 378.34 39.81 377.75 38.67C377.15 37.54 376.33 36.67 375.27 36.06C374.21 35.45 373.01 35.15 371.67 35.15C370.33 35.15 369.12 35.45 368.07 36.06C367.02 36.67 366.19 37.53 365.59 38.67C364.99 39.8 364.7 41.12 364.7 42.63C364.7 44.14 365 45.46 365.59 46.6C366.19 47.74 367.01 48.62 368.07 49.24C369.13 49.86 370.33 50.16 371.67 50.16C373.01 50.16 374.22 49.85 375.27 49.24Z" fill="black"/>
<path d="M388.37 52.3402C387.28 51.8602 386.42 51.1802 385.79 50.3002C385.16 49.4202 384.85 48.3902 384.85 47.2202H388.43C388.51 48.1002 388.85 48.8202 389.47 49.3902C390.09 49.9602 390.95 50.2402 392.06 50.2402C393.17 50.2402 394.11 49.9602 394.76 49.4002C395.41 48.8402 395.73 48.1302 395.73 47.2502C395.73 46.5702 395.53 46.0102 395.13 45.5802C394.73 45.1502 394.23 44.8202 393.64 44.5802C393.04 44.3502 392.22 44.0902 391.16 43.8202C389.83 43.4702 388.75 43.1102 387.92 42.7502C387.09 42.3902 386.38 41.8302 385.8 41.0702C385.21 40.3102 384.92 39.2902 384.92 38.0202C384.92 36.8502 385.21 35.8202 385.8 34.9402C386.39 34.0602 387.21 33.3902 388.26 32.9202C389.32 32.4502 390.54 32.2202 391.92 32.2202C393.89 32.2202 395.51 32.7102 396.77 33.7002C398.03 34.6902 398.73 36.0402 398.86 37.7602H395.17C395.11 37.0202 394.76 36.3802 394.12 35.8602C393.48 35.3402 392.62 35.0702 391.57 35.0702C390.61 35.0702 389.83 35.3102 389.23 35.8002C388.62 36.2902 388.32 36.9902 388.32 37.9102C388.32 38.5302 388.51 39.0502 388.89 39.4502C389.27 39.8502 389.75 40.1702 390.34 40.4002C390.93 40.6402 391.73 40.8902 392.74 41.1602C394.09 41.5302 395.19 41.9002 396.04 42.2702C396.89 42.6402 397.61 43.2102 398.21 43.9802C398.81 44.7502 399.1 45.7802 399.1 47.0702C399.1 48.1102 398.82 49.0802 398.27 50.0002C397.71 50.9202 396.9 51.6502 395.84 52.2102C394.78 52.7702 393.52 53.0402 392.07 53.0402C390.7 53.0402 389.47 52.8002 388.38 52.3202L388.37 52.3402Z" fill="black"/>
<path d="M127.99 85.8297L124.67 80.1296H122.47V85.8297H120.65V71.8896H125.15C126.2 71.8896 127.09 72.0696 127.82 72.4296C128.55 72.7896 129.09 73.2796 129.45 73.8896C129.81 74.4996 129.99 75.1996 129.99 75.9896C129.99 76.9496 129.71 77.7996 129.16 78.5296C128.61 79.2596 127.78 79.7496 126.67 79.9896L130.17 85.8297H127.99ZM122.47 78.6696H125.15C126.14 78.6696 126.88 78.4297 127.37 77.9397C127.86 77.4497 128.11 76.7996 128.11 75.9896C128.11 75.1796 127.87 74.5196 127.38 74.0696C126.89 73.6196 126.15 73.3896 125.15 73.3896H122.47V78.6696Z" fill="black"/>
<path d="M142.75 81.0299H133.99C134.06 82.1099 134.43 82.9499 135.1 83.5599C135.77 84.1699 136.59 84.4699 137.55 84.4699C138.34 84.4699 138.99 84.2899 139.52 83.9199C140.05 83.5499 140.42 83.0599 140.63 82.4499H142.59C142.3 83.4999 141.71 84.3599 140.83 85.0199C139.95 85.6799 138.86 86.0099 137.55 86.0099C136.51 86.0099 135.58 85.7799 134.76 85.3099C133.94 84.8399 133.3 84.1799 132.83 83.3199C132.36 82.4599 132.13 81.4599 132.13 80.3299C132.13 79.1999 132.36 78.1999 132.81 77.3499C133.26 76.4999 133.9 75.8399 134.72 75.3799C135.54 74.9199 136.48 74.6899 137.55 74.6899C138.62 74.6899 139.51 74.9199 140.31 75.3699C141.11 75.8199 141.73 76.4499 142.16 77.2399C142.59 78.0299 142.81 78.9299 142.81 79.9299C142.81 80.2799 142.79 80.6399 142.75 81.0299ZM140.47 77.7599C140.16 77.2599 139.75 76.8799 139.22 76.6199C138.69 76.3599 138.11 76.2299 137.47 76.2299C136.55 76.2299 135.77 76.5199 135.12 77.1099C134.47 77.6999 134.1 78.5099 134.01 79.5499H140.93C140.93 78.8599 140.78 78.2599 140.47 77.7599Z" fill="black"/>
<path d="M145.21 77.3599C145.66 76.5099 146.29 75.8599 147.1 75.3899C147.91 74.9199 148.83 74.6899 149.87 74.6899C151.22 74.6899 152.33 75.0199 153.2 75.6699C154.07 76.3199 154.65 77.2299 154.93 78.3899H152.97C152.78 77.7199 152.42 77.1999 151.88 76.8099C151.34 76.4199 150.67 76.2299 149.87 76.2299C148.83 76.2299 147.99 76.5899 147.35 77.2999C146.71 78.0099 146.39 79.0199 146.39 80.3299C146.39 81.6399 146.71 82.6699 147.35 83.3899C147.99 84.1099 148.83 84.4699 149.87 84.4699C150.67 84.4699 151.34 84.2799 151.87 83.9099C152.4 83.5399 152.77 82.9999 152.97 82.3099H154.93C154.64 83.4299 154.05 84.3299 153.17 84.9999C152.29 85.6699 151.19 86.0099 149.87 86.0099C148.83 86.0099 147.91 85.7799 147.1 85.3099C146.29 84.8399 145.66 84.1799 145.21 83.3299C144.76 82.4799 144.53 81.4799 144.53 80.3299C144.53 79.1799 144.76 78.2099 145.21 77.3599Z" fill="black"/>
<path d="M159.34 85.3099C158.51 84.8399 157.85 84.1799 157.38 83.3199C156.91 82.4599 156.67 81.4599 156.67 80.3299C156.67 79.1999 156.91 78.2199 157.4 77.3599C157.89 76.4999 158.55 75.8399 159.39 75.3799C160.23 74.9199 161.17 74.6899 162.21 74.6899C163.25 74.6899 164.19 74.9199 165.03 75.3799C165.87 75.8399 166.53 76.4999 167.02 77.3499C167.51 78.1999 167.75 79.1999 167.75 80.3299C167.75 81.4599 167.5 82.4599 167 83.3199C166.5 84.1799 165.82 84.8399 164.97 85.3099C164.12 85.7799 163.17 86.0099 162.13 86.0099C161.09 86.0099 160.17 85.7799 159.34 85.3099ZM163.97 83.9499C164.54 83.6399 165.01 83.1799 165.36 82.5699C165.71 81.9599 165.89 81.2099 165.89 80.3299C165.89 79.4499 165.72 78.6999 165.37 78.0899C165.02 77.4799 164.57 77.0199 164.01 76.7199C163.45 76.4199 162.84 76.2699 162.19 76.2699C161.54 76.2699 160.91 76.4199 160.36 76.7199C159.81 77.0199 159.36 77.4799 159.03 78.0899C158.7 78.6999 158.53 79.4499 158.53 80.3299C158.53 81.2099 158.69 81.9799 159.02 82.5899C159.35 83.1999 159.78 83.6599 160.33 83.9599C160.88 84.2599 161.48 84.4099 162.13 84.4099C162.78 84.4099 163.4 84.2599 163.97 83.9499Z" fill="black"/>
<path d="M173.34 75.1899C173.93 74.8399 174.66 74.6699 175.51 74.6699V76.5499H175.03C172.99 76.5499 171.97 77.6599 171.97 79.8699V85.8299H170.15V74.8699H171.97V76.6499C172.29 76.0199 172.75 75.5399 173.34 75.1899Z" fill="black"/>
<path d="M179.83 76.3699V82.8299C179.83 83.3599 179.94 83.7399 180.17 83.9599C180.4 84.1799 180.79 84.2899 181.35 84.2899H182.69V85.8299H181.05C180.04 85.8299 179.28 85.5999 178.77 85.1299C178.26 84.6599 178.01 83.8999 178.01 82.8299V76.3699H176.59V74.8699H178.01V72.1099H179.83V74.8699H182.69V76.3699H179.83Z" fill="black"/>
<path d="M194.83 81.0299H186.07C186.14 82.1099 186.51 82.9499 187.18 83.5599C187.85 84.1699 188.67 84.4699 189.63 84.4699C190.42 84.4699 191.07 84.2899 191.6 83.9199C192.13 83.5499 192.5 83.0599 192.71 82.4499H194.67C194.38 83.4999 193.79 84.3599 192.91 85.0199C192.03 85.6799 190.94 86.0099 189.63 86.0099C188.59 86.0099 187.66 85.7799 186.84 85.3099C186.02 84.8399 185.38 84.1799 184.91 83.3199C184.44 82.4599 184.21 81.4599 184.21 80.3299C184.21 79.1999 184.44 78.1999 184.89 77.3499C185.34 76.4999 185.98 75.8399 186.8 75.3799C187.62 74.9199 188.56 74.6899 189.63 74.6899C190.7 74.6899 191.59 74.9199 192.39 75.3699C193.19 75.8199 193.81 76.4499 194.24 77.2399C194.67 78.0299 194.89 78.9299 194.89 79.9299C194.89 80.2799 194.87 80.6399 194.83 81.0299ZM192.55 77.7599C192.24 77.2599 191.83 76.8799 191.3 76.6199C190.77 76.3599 190.19 76.2299 189.55 76.2299C188.63 76.2299 187.85 76.5199 187.2 77.1099C186.55 77.6999 186.18 78.5099 186.09 79.5499H193.01C193.01 78.8599 192.86 78.2599 192.55 77.7599Z" fill="black"/>
<path d="M204.62 85.3099C203.79 84.8399 203.13 84.1799 202.66 83.3199C202.19 82.4599 201.95 81.4599 201.95 80.3299C201.95 79.1999 202.19 78.2199 202.68 77.3599C203.17 76.4999 203.83 75.8399 204.67 75.3799C205.51 74.9199 206.45 74.6899 207.49 74.6899C208.53 74.6899 209.47 74.9199 210.31 75.3799C211.15 75.8399 211.81 76.4999 212.3 77.3499C212.79 78.1999 213.03 79.1999 213.03 80.3299C213.03 81.4599 212.78 82.4599 212.28 83.3199C211.78 84.1799 211.1 84.8399 210.25 85.3099C209.4 85.7799 208.45 86.0099 207.41 86.0099C206.37 86.0099 205.45 85.7799 204.62 85.3099ZM209.25 83.9499C209.82 83.6399 210.29 83.1799 210.64 82.5699C210.99 81.9599 211.17 81.2099 211.17 80.3299C211.17 79.4499 211 78.6999 210.65 78.0899C210.3 77.4799 209.85 77.0199 209.29 76.7199C208.73 76.4199 208.12 76.2699 207.47 76.2699C206.82 76.2699 206.19 76.4199 205.64 76.7199C205.09 77.0199 204.64 77.4799 204.31 78.0899C203.98 78.6999 203.81 79.4499 203.81 80.3299C203.81 81.2099 203.97 81.9799 204.3 82.5899C204.63 83.1999 205.06 83.6599 205.61 83.9599C206.16 84.2599 206.76 84.4099 207.41 84.4099C208.06 84.4099 208.68 84.2599 209.25 83.9499Z" fill="black"/>
<path d="M217.05 85.5799C216.38 85.2899 215.86 84.8899 215.47 84.3799C215.08 83.8699 214.87 83.2799 214.83 82.6099H216.71C216.76 83.1599 217.02 83.5999 217.48 83.9499C217.94 84.2999 218.54 84.4699 219.29 84.4699C219.98 84.4699 220.53 84.3199 220.93 84.0099C221.33 83.6999 221.53 83.3199 221.53 82.8499C221.53 82.3799 221.32 82.0099 220.89 81.7799C220.46 81.5499 219.8 81.3199 218.91 81.0899C218.1 80.8799 217.43 80.6599 216.92 80.4399C216.41 80.2199 215.97 79.8899 215.6 79.4599C215.23 79.0299 215.05 78.4599 215.05 77.7499C215.05 77.1899 215.22 76.6799 215.55 76.2099C215.88 75.7399 216.36 75.3699 216.97 75.0999C217.58 74.8299 218.28 74.6899 219.07 74.6899C220.28 74.6899 221.26 74.9999 222.01 75.6099C222.76 76.2199 223.16 77.0599 223.21 78.1299H221.39C221.35 77.5599 221.12 77.0999 220.7 76.7499C220.28 76.3999 219.72 76.2299 219.01 76.2299C218.36 76.2299 217.84 76.3699 217.45 76.6499C217.06 76.9299 216.87 77.2999 216.87 77.7499C216.87 78.1099 216.99 78.4099 217.22 78.6399C217.45 78.8699 217.75 79.0599 218.1 79.1999C218.45 79.3399 218.94 79.4999 219.57 79.6699C220.36 79.8799 221 80.0899 221.49 80.2999C221.98 80.5099 222.41 80.8199 222.76 81.2299C223.11 81.6399 223.3 82.1799 223.31 82.8499C223.31 83.4499 223.14 83.9899 222.81 84.4699C222.48 84.9499 222.01 85.3299 221.4 85.5999C220.79 85.8699 220.1 86.0099 219.31 86.0099C218.47 86.0099 217.72 85.8699 217.05 85.5799Z" fill="black"/>
<path d="M231.21 77.3599C231.66 76.5099 232.29 75.8599 233.08 75.3899C233.87 74.9199 234.76 74.6899 235.73 74.6899C236.7 74.6899 237.52 74.8999 238.23 75.3099C238.94 75.7199 239.46 76.2399 239.81 76.8699V74.8699H241.65V85.8299H239.81V83.7899C239.45 84.4299 238.91 84.9599 238.2 85.3799C237.49 85.7999 236.66 86.0099 235.71 86.0099C234.76 86.0099 233.86 85.7699 233.07 85.2899C232.28 84.8099 231.66 84.1399 231.21 83.2699C230.76 82.3999 230.53 81.4199 230.53 80.3099C230.53 79.1999 230.76 78.2099 231.21 77.3599ZM239.31 78.1699C238.98 77.5599 238.53 77.0899 237.96 76.7599C237.39 76.4299 236.77 76.2699 236.09 76.2699C235.41 76.2699 234.79 76.4299 234.23 76.7499C233.67 77.0699 233.22 77.5399 232.89 78.1499C232.56 78.7599 232.39 79.4799 232.39 80.3099C232.39 81.1399 232.56 81.8799 232.89 82.4999C233.22 83.1199 233.67 83.5899 234.23 83.9199C234.79 84.2499 235.41 84.4099 236.09 84.4099C236.77 84.4099 237.39 84.2499 237.96 83.9199C238.53 83.5899 238.98 83.1199 239.31 82.4999C239.64 81.8799 239.81 81.1599 239.81 80.3299C239.81 79.4999 239.64 78.7799 239.31 78.1699Z" fill="black"/>
<path d="M253.31 75.8799C254.14 76.6899 254.55 77.8499 254.55 79.3699V85.8299H252.75V79.6299C252.75 78.5399 252.48 77.6999 251.93 77.1199C251.38 76.5399 250.64 76.2499 249.69 76.2499C248.74 76.2499 247.97 76.5499 247.4 77.1499C246.83 77.7499 246.55 78.6199 246.55 79.7699V85.8299H244.73V74.8699H246.55V76.4299C246.91 75.8699 247.4 75.4399 248.02 75.1299C248.64 74.8199 249.32 74.6699 250.07 74.6699C251.4 74.6699 252.48 75.0699 253.31 75.8799Z" fill="black"/>
<path d="M257.59 72.7299C257.35 72.4899 257.23 72.1999 257.23 71.8499C257.23 71.4999 257.35 71.2099 257.59 70.9699C257.83 70.7299 258.12 70.6099 258.47 70.6099C258.82 70.6099 259.09 70.7299 259.32 70.9699C259.55 71.2099 259.67 71.4999 259.67 71.8499C259.67 72.1999 259.55 72.4899 259.32 72.7299C259.09 72.9699 258.8 73.0899 258.47 73.0899C258.14 73.0899 257.83 72.9699 257.59 72.7299ZM259.35 74.8699V85.8299H257.53V74.8699H259.35Z" fill="black"/>
<path d="M277.91 75.1999C278.58 75.5499 279.1 76.0799 279.49 76.7899C279.88 77.4999 280.07 78.3599 280.07 79.3699V85.8299H278.27V79.6299C278.27 78.5399 278 77.6999 277.46 77.1199C276.92 76.5399 276.19 76.2499 275.27 76.2499C274.35 76.2499 273.57 76.5499 273.01 77.1599C272.45 77.7699 272.17 78.6399 272.17 79.7899V85.8299H270.37V79.6299C270.37 78.5399 270.1 77.6999 269.56 77.1199C269.02 76.5399 268.29 76.2499 267.37 76.2499C266.45 76.2499 265.67 76.5499 265.11 77.1599C264.55 77.7699 264.27 78.6399 264.27 79.7899V85.8299H262.45V74.8699H264.27V76.4499C264.63 75.8799 265.11 75.4399 265.72 75.1299C266.33 74.8199 267 74.6699 267.73 74.6699C268.65 74.6699 269.46 74.8799 270.17 75.2899C270.88 75.6999 271.4 76.3099 271.75 77.1099C272.06 76.3399 272.56 75.7399 273.27 75.3099C273.98 74.8799 274.76 74.6699 275.63 74.6699C276.5 74.6699 277.24 74.8499 277.91 75.1999Z" fill="black"/>
<path d="M283.05 77.3599C283.5 76.5099 284.13 75.8599 284.92 75.3899C285.71 74.9199 286.6 74.6899 287.57 74.6899C288.54 74.6899 289.36 74.8999 290.07 75.3099C290.78 75.7199 291.3 76.2399 291.65 76.8699V74.8699H293.49V85.8299H291.65V83.7899C291.29 84.4299 290.75 84.9599 290.04 85.3799C289.33 85.7999 288.5 86.0099 287.55 86.0099C286.6 86.0099 285.7 85.7699 284.91 85.2899C284.12 84.8099 283.5 84.1399 283.05 83.2699C282.6 82.3999 282.37 81.4199 282.37 80.3099C282.37 79.1999 282.6 78.2099 283.05 77.3599ZM291.15 78.1699C290.82 77.5599 290.37 77.0899 289.8 76.7599C289.23 76.4299 288.61 76.2699 287.93 76.2699C287.25 76.2699 286.63 76.4299 286.07 76.7499C285.51 77.0699 285.06 77.5399 284.73 78.1499C284.4 78.7599 284.23 79.4799 284.23 80.3099C284.23 81.1399 284.4 81.8799 284.73 82.4999C285.06 83.1199 285.51 83.5899 286.07 83.9199C286.63 84.2499 287.25 84.4099 287.93 84.4099C288.61 84.4099 289.23 84.2499 289.8 83.9199C290.37 83.5899 290.82 83.1199 291.15 82.4999C291.48 81.8799 291.65 81.1599 291.65 80.3299C291.65 79.4999 291.48 78.7799 291.15 78.1699Z" fill="black"/>
<path d="M296.63 72.7299C296.39 72.4899 296.27 72.1999 296.27 71.8499C296.27 71.4999 296.39 71.2099 296.63 70.9699C296.87 70.7299 297.16 70.6099 297.51 70.6099C297.86 70.6099 298.13 70.7299 298.36 70.9699C298.59 71.2099 298.71 71.4999 298.71 71.8499C298.71 72.1999 298.59 72.4899 298.36 72.7299C298.13 72.9699 297.84 73.0899 297.51 73.0899C297.18 73.0899 296.87 72.9699 296.63 72.7299ZM298.39 74.8699V85.8299H296.57V74.8699H298.39Z" fill="black"/>
<path d="M303.11 85.5799C302.44 85.2899 301.92 84.8899 301.53 84.3799C301.14 83.8699 300.93 83.2799 300.89 82.6099H302.77C302.82 83.1599 303.08 83.5999 303.54 83.9499C304 84.2999 304.6 84.4699 305.35 84.4699C306.04 84.4699 306.59 84.3199 306.99 84.0099C307.39 83.6999 307.59 83.3199 307.59 82.8499C307.59 82.3799 307.38 82.0099 306.95 81.7799C306.52 81.5499 305.86 81.3199 304.97 81.0899C304.16 80.8799 303.49 80.6599 302.98 80.4399C302.47 80.2199 302.03 79.8899 301.66 79.4599C301.29 79.0299 301.11 78.4599 301.11 77.7499C301.11 77.1899 301.28 76.6799 301.61 76.2099C301.94 75.7399 302.42 75.3699 303.03 75.0999C303.64 74.8299 304.34 74.6899 305.13 74.6899C306.34 74.6899 307.32 74.9999 308.07 75.6099C308.82 76.2199 309.22 77.0599 309.27 78.1299H307.45C307.41 77.5599 307.18 77.0999 306.76 76.7499C306.34 76.3999 305.78 76.2299 305.07 76.2299C304.42 76.2299 303.9 76.3699 303.51 76.6499C303.12 76.9299 302.93 77.2999 302.93 77.7499C302.93 78.1099 303.05 78.4099 303.28 78.6399C303.51 78.8699 303.81 79.0599 304.16 79.1999C304.51 79.3399 305 79.4999 305.63 79.6699C306.42 79.8799 307.06 80.0899 307.55 80.2999C308.04 80.5099 308.47 80.8199 308.82 81.2299C309.17 81.6399 309.36 82.1799 309.37 82.8499C309.37 83.4499 309.2 83.9899 308.87 84.4699C308.54 84.9499 308.07 85.3299 307.46 85.5999C306.85 85.8699 306.16 86.0099 305.37 86.0099C304.53 86.0099 303.78 85.8699 303.11 85.5799Z" fill="black"/>
<path d="M320.7 75.3199C321.41 74.8999 322.24 74.6899 323.19 74.6899C324.14 74.6899 325.05 74.9199 325.84 75.3899C326.63 75.8599 327.26 76.5099 327.71 77.3599C328.16 78.2099 328.39 79.1899 328.39 80.3099C328.39 81.4299 328.16 82.3999 327.71 83.2699C327.26 84.1399 326.63 84.8099 325.84 85.2899C325.05 85.7699 324.16 86.0099 323.19 86.0099C322.22 86.0099 321.43 85.7999 320.72 85.3799C320.01 84.9599 319.46 84.4399 319.09 83.8099V91.0299H317.27V74.8699H319.09V76.8899C319.45 76.2599 319.99 75.7399 320.7 75.3199ZM326.03 78.1499C325.7 77.5399 325.25 77.0699 324.68 76.7499C324.11 76.4299 323.49 76.2699 322.81 76.2699C322.13 76.2699 321.53 76.4299 320.96 76.7599C320.39 77.0899 319.94 77.5599 319.6 78.1799C319.26 78.7999 319.09 79.5199 319.09 80.3299C319.09 81.1399 319.26 81.8799 319.6 82.4999C319.94 83.1199 320.39 83.5899 320.96 83.9199C321.53 84.2499 322.14 84.4099 322.81 84.4099C323.48 84.4099 324.11 84.2499 324.68 83.9199C325.25 83.5899 325.7 83.1199 326.03 82.4999C326.36 81.8799 326.53 81.1499 326.53 80.3099C326.53 79.4699 326.36 78.7599 326.03 78.1499Z" fill="black"/>
<path d="M330.79 77.3599C331.24 76.5099 331.87 75.8599 332.66 75.3899C333.45 74.9199 334.34 74.6899 335.31 74.6899C336.28 74.6899 337.1 74.8999 337.81 75.3099C338.52 75.7199 339.04 76.2399 339.39 76.8699V74.8699H341.23V85.8299H339.39V83.7899C339.03 84.4299 338.49 84.9599 337.78 85.3799C337.07 85.7999 336.24 86.0099 335.29 86.0099C334.34 86.0099 333.44 85.7699 332.65 85.2899C331.86 84.8099 331.24 84.1399 330.79 83.2699C330.34 82.3999 330.11 81.4199 330.11 80.3099C330.11 79.1999 330.34 78.2099 330.79 77.3599ZM338.89 78.1699C338.56 77.5599 338.11 77.0899 337.54 76.7599C336.97 76.4299 336.35 76.2699 335.67 76.2699C334.99 76.2699 334.37 76.4299 333.81 76.7499C333.25 77.0699 332.8 77.5399 332.47 78.1499C332.14 78.7599 331.97 79.4799 331.97 80.3099C331.97 81.1399 332.14 81.8799 332.47 82.4999C332.8 83.1199 333.25 83.5899 333.81 83.9199C334.37 84.2499 334.99 84.4099 335.67 84.4099C336.35 84.4099 336.97 84.2499 337.54 83.9199C338.11 83.5899 338.56 83.1199 338.89 82.4999C339.22 81.8799 339.39 81.1599 339.39 80.3299C339.39 79.4999 339.22 78.7799 338.89 78.1699Z" fill="black"/>
<path d="M347.5 75.1899C348.09 74.8399 348.82 74.6699 349.67 74.6699V76.5499H349.19C347.15 76.5499 346.13 77.6599 346.13 79.8699V85.8299H344.31V74.8699H346.13V76.6499C346.45 76.0199 346.91 75.5399 347.5 75.1899Z" fill="black"/>
<path d="M351.77 77.3599C352.22 76.5099 352.85 75.8599 353.64 75.3899C354.43 74.9199 355.32 74.6899 356.29 74.6899C357.26 74.6899 358.08 74.8999 358.79 75.3099C359.5 75.7199 360.02 76.2399 360.37 76.8699V74.8699H362.21V85.8299H360.37V83.7899C360.01 84.4299 359.47 84.9599 358.76 85.3799C358.05 85.7999 357.22 86.0099 356.27 86.0099C355.32 86.0099 354.42 85.7699 353.63 85.2899C352.84 84.8099 352.22 84.1399 351.77 83.2699C351.32 82.3999 351.09 81.4199 351.09 80.3099C351.09 79.1999 351.32 78.2099 351.77 77.3599ZM359.87 78.1699C359.54 77.5599 359.09 77.0899 358.52 76.7599C357.95 76.4299 357.33 76.2699 356.65 76.2699C355.97 76.2699 355.35 76.4299 354.79 76.7499C354.23 77.0699 353.78 77.5399 353.45 78.1499C353.12 78.7599 352.95 79.4799 352.95 80.3099C352.95 81.1399 353.12 81.8799 353.45 82.4999C353.78 83.1199 354.23 83.5899 354.79 83.9199C355.35 84.2499 355.97 84.4099 356.65 84.4099C357.33 84.4099 357.95 84.2499 358.52 83.9199C359.09 83.5899 359.54 83.1199 359.87 82.4999C360.2 81.8799 360.37 81.1599 360.37 80.3299C360.37 79.4999 360.2 78.7799 359.87 78.1699Z" fill="black"/>
<path d="M137.85 100.37H135.55V109.83H133.73V100.37H132.31V98.8698H133.73V98.0898C133.73 96.8598 134.05 95.9698 134.68 95.3998C135.31 94.8298 136.33 94.5498 137.73 94.5498V96.0698C136.93 96.0698 136.37 96.2298 136.04 96.5398C135.71 96.8498 135.55 97.3698 135.55 98.0898V98.8698H137.85V100.37Z" fill="black"/>
<path d="M139.97 101.36C140.42 100.51 141.05 99.8599 141.84 99.3899C142.63 98.9199 143.52 98.6899 144.49 98.6899C145.46 98.6899 146.28 98.8999 146.99 99.3099C147.7 99.7199 148.22 100.24 148.57 100.87V98.8699H150.41V109.83H148.57V107.79C148.21 108.43 147.67 108.96 146.96 109.38C146.25 109.8 145.42 110.01 144.47 110.01C143.52 110.01 142.62 109.77 141.83 109.29C141.04 108.81 140.42 108.14 139.97 107.27C139.52 106.4 139.29 105.42 139.29 104.31C139.29 103.2 139.52 102.21 139.97 101.36ZM148.07 102.17C147.74 101.56 147.29 101.09 146.72 100.76C146.15 100.43 145.53 100.27 144.85 100.27C144.17 100.27 143.55 100.43 142.99 100.75C142.43 101.07 141.98 101.54 141.65 102.15C141.32 102.76 141.15 103.48 141.15 104.31C141.15 105.14 141.32 105.88 141.65 106.5C141.98 107.12 142.43 107.59 142.99 107.92C143.55 108.25 144.17 108.41 144.85 108.41C145.53 108.41 146.15 108.25 146.72 107.92C147.29 107.59 147.74 107.12 148.07 106.5C148.4 105.88 148.57 105.16 148.57 104.33C148.57 103.5 148.4 102.78 148.07 102.17Z" fill="black"/>
<path d="M154.85 108.33H160.23V109.83H152.77V108.33L158.09 100.35H152.81V98.8696H160.19V100.35L154.85 108.33Z" fill="black"/>
<path d="M172.53 105.03H163.77C163.84 106.11 164.21 106.95 164.88 107.56C165.55 108.17 166.37 108.47 167.33 108.47C168.12 108.47 168.77 108.29 169.3 107.92C169.83 107.55 170.2 107.06 170.41 106.45H172.37C172.08 107.5 171.49 108.36 170.61 109.02C169.73 109.68 168.64 110.01 167.33 110.01C166.29 110.01 165.36 109.78 164.54 109.31C163.72 108.84 163.08 108.18 162.61 107.32C162.14 106.46 161.91 105.46 161.91 104.33C161.91 103.2 162.14 102.2 162.59 101.35C163.04 100.5 163.68 99.8399 164.5 99.3799C165.32 98.9199 166.26 98.6899 167.33 98.6899C168.4 98.6899 169.29 98.9199 170.09 99.3699C170.89 99.8199 171.51 100.45 171.94 101.24C172.37 102.03 172.59 102.93 172.59 103.93C172.59 104.28 172.57 104.64 172.53 105.03ZM170.25 101.76C169.94 101.26 169.53 100.88 169 100.62C168.47 100.36 167.89 100.23 167.25 100.23C166.33 100.23 165.55 100.52 164.9 101.11C164.25 101.7 163.88 102.51 163.79 103.55H170.71C170.71 102.86 170.56 102.26 170.25 101.76Z" fill="black"/>
<path d="M178.18 99.1899C178.77 98.8399 179.5 98.6699 180.35 98.6699V100.55H179.87C177.83 100.55 176.81 101.66 176.81 103.87V109.83H174.99V98.8699H176.81V100.65C177.13 100.02 177.59 99.5399 178.18 99.1899Z" fill="black"/>
<path d="M189.61 95.0298V109.83H187.79V95.0298H189.61Z" fill="black"/>
<path d="M192.77 96.7299C192.53 96.4899 192.41 96.1999 192.41 95.8499C192.41 95.4999 192.53 95.2099 192.77 94.9699C193.01 94.7299 193.3 94.6099 193.65 94.6099C194 94.6099 194.27 94.7299 194.5 94.9699C194.73 95.2099 194.85 95.4999 194.85 95.8499C194.85 96.1999 194.73 96.4899 194.5 96.7299C194.27 96.9699 193.98 97.0899 193.65 97.0899C193.32 97.0899 193.01 96.9699 192.77 96.7299ZM194.53 98.8699V109.83H192.71V98.8699H194.53Z" fill="black"/>
<path d="M206.21 99.8799C207.04 100.69 207.45 101.85 207.45 103.37V109.83H205.65V103.63C205.65 102.54 205.38 101.7 204.83 101.12C204.28 100.54 203.54 100.25 202.59 100.25C201.64 100.25 200.87 100.55 200.3 101.15C199.73 101.75 199.45 102.62 199.45 103.77V109.83H197.63V98.8699H199.45V100.43C199.81 99.8699 200.3 99.4399 200.92 99.1299C201.54 98.8199 202.22 98.6699 202.97 98.6699C204.3 98.6699 205.38 99.0699 206.21 99.8799Z" fill="black"/>
<path d="M210.43 101.36C210.88 100.51 211.51 99.8598 212.3 99.3898C213.09 98.9198 213.98 98.6898 214.97 98.6898C215.82 98.6898 216.62 98.8898 217.35 99.2798C218.08 99.6698 218.64 100.19 219.03 100.83V95.0298H220.87V109.83H219.03V107.77C218.67 108.42 218.14 108.96 217.43 109.38C216.72 109.8 215.9 110.01 214.95 110.01C214 110.01 213.09 109.77 212.3 109.29C211.51 108.81 210.88 108.14 210.43 107.27C209.98 106.4 209.75 105.42 209.75 104.31C209.75 103.2 209.98 102.21 210.43 101.36ZM218.53 102.17C218.2 101.56 217.75 101.09 217.18 100.76C216.61 100.43 215.99 100.27 215.31 100.27C214.63 100.27 214.01 100.43 213.45 100.75C212.89 101.07 212.44 101.54 212.11 102.15C211.78 102.76 211.61 103.48 211.61 104.31C211.61 105.14 211.78 105.88 212.11 106.5C212.44 107.12 212.89 107.59 213.45 107.92C214.01 108.25 214.63 108.41 215.31 108.41C215.99 108.41 216.61 108.25 217.18 107.92C217.75 107.59 218.2 107.12 218.53 106.5C218.86 105.88 219.03 105.16 219.03 104.33C219.03 103.5 218.86 102.78 218.53 102.17Z" fill="black"/>
<path d="M225.94 109.31C225.11 108.84 224.45 108.18 223.98 107.32C223.51 106.46 223.27 105.46 223.27 104.33C223.27 103.2 223.51 102.22 224 101.36C224.49 100.5 225.15 99.8399 225.99 99.3799C226.83 98.9199 227.77 98.6899 228.81 98.6899C229.85 98.6899 230.79 98.9199 231.63 99.3799C232.47 99.8399 233.13 100.5 233.62 101.35C234.11 102.2 234.35 103.2 234.35 104.33C234.35 105.46 234.1 106.46 233.6 107.32C233.1 108.18 232.42 108.84 231.57 109.31C230.72 109.78 229.77 110.01 228.73 110.01C227.69 110.01 226.77 109.78 225.94 109.31ZM230.57 107.95C231.14 107.64 231.61 107.18 231.96 106.57C232.31 105.96 232.49 105.21 232.49 104.33C232.49 103.45 232.32 102.7 231.97 102.09C231.62 101.48 231.17 101.02 230.61 100.72C230.05 100.42 229.44 100.27 228.79 100.27C228.14 100.27 227.51 100.42 226.96 100.72C226.41 101.02 225.96 101.48 225.63 102.09C225.3 102.7 225.13 103.45 225.13 104.33C225.13 105.21 225.29 105.98 225.62 106.59C225.95 107.2 226.38 107.66 226.93 107.96C227.48 108.26 228.08 108.41 228.73 108.41C229.38 108.41 230 108.26 230.57 107.95Z" fill="black"/>
<path d="M238.37 109.58C237.7 109.29 237.18 108.89 236.79 108.38C236.4 107.87 236.19 107.28 236.15 106.61H238.03C238.08 107.16 238.34 107.6 238.8 107.95C239.26 108.3 239.86 108.47 240.61 108.47C241.3 108.47 241.85 108.32 242.25 108.01C242.65 107.7 242.85 107.32 242.85 106.85C242.85 106.38 242.64 106.01 242.21 105.78C241.78 105.55 241.12 105.32 240.23 105.09C239.42 104.88 238.75 104.66 238.24 104.44C237.73 104.22 237.29 103.89 236.92 103.46C236.55 103.03 236.37 102.46 236.37 101.75C236.37 101.19 236.54 100.68 236.87 100.21C237.2 99.7399 237.68 99.3699 238.29 99.0999C238.9 98.8299 239.6 98.6899 240.39 98.6899C241.6 98.6899 242.58 98.9999 243.33 99.6099C244.08 100.22 244.48 101.06 244.53 102.13H242.71C242.67 101.56 242.44 101.1 242.02 100.75C241.6 100.4 241.04 100.23 240.33 100.23C239.68 100.23 239.16 100.37 238.77 100.65C238.38 100.93 238.19 101.3 238.19 101.75C238.19 102.11 238.31 102.41 238.54 102.64C238.77 102.87 239.07 103.06 239.42 103.2C239.77 103.34 240.26 103.5 240.89 103.67C241.68 103.88 242.32 104.09 242.81 104.3C243.3 104.51 243.73 104.82 244.08 105.23C244.43 105.64 244.62 106.18 244.63 106.85C244.63 107.45 244.46 107.99 244.13 108.47C243.8 108.95 243.33 109.33 242.72 109.6C242.11 109.87 241.42 110.01 240.63 110.01C239.79 110.01 239.04 109.87 238.37 109.58Z" fill="black"/>
<path d="M252.53 101.36C252.98 100.51 253.61 99.8598 254.4 99.3898C255.19 98.9198 256.08 98.6898 257.07 98.6898C257.92 98.6898 258.72 98.8898 259.45 99.2798C260.18 99.6698 260.74 100.19 261.13 100.83V95.0298H262.97V109.83H261.13V107.77C260.77 108.42 260.24 108.96 259.53 109.38C258.82 109.8 258 110.01 257.05 110.01C256.1 110.01 255.19 109.77 254.4 109.29C253.61 108.81 252.98 108.14 252.53 107.27C252.08 106.4 251.85 105.42 251.85 104.31C251.85 103.2 252.08 102.21 252.53 101.36ZM260.63 102.17C260.3 101.56 259.85 101.09 259.28 100.76C258.71 100.43 258.09 100.27 257.41 100.27C256.73 100.27 256.11 100.43 255.55 100.75C254.99 101.07 254.54 101.54 254.21 102.15C253.88 102.76 253.71 103.48 253.71 104.31C253.71 105.14 253.88 105.88 254.21 106.5C254.54 107.12 254.99 107.59 255.55 107.92C256.11 108.25 256.73 108.41 257.41 108.41C258.09 108.41 258.71 108.25 259.28 107.92C259.85 107.59 260.3 107.12 260.63 106.5C260.96 105.88 261.13 105.16 261.13 104.33C261.13 103.5 260.96 102.78 260.63 102.17Z" fill="black"/>
<path d="M275.99 105.03H267.23C267.3 106.11 267.67 106.95 268.34 107.56C269.01 108.17 269.83 108.47 270.79 108.47C271.58 108.47 272.23 108.29 272.76 107.92C273.29 107.55 273.66 107.06 273.87 106.45H275.83C275.54 107.5 274.95 108.36 274.07 109.02C273.19 109.68 272.1 110.01 270.79 110.01C269.75 110.01 268.82 109.78 268 109.31C267.18 108.84 266.54 108.18 266.07 107.32C265.6 106.46 265.37 105.46 265.37 104.33C265.37 103.2 265.6 102.2 266.05 101.35C266.5 100.5 267.14 99.8399 267.96 99.3799C268.78 98.9199 269.72 98.6899 270.79 98.6899C271.86 98.6899 272.75 98.9199 273.55 99.3699C274.35 99.8199 274.97 100.45 275.4 101.24C275.83 102.03 276.05 102.93 276.05 103.93C276.05 104.28 276.03 104.64 275.99 105.03ZM273.71 101.76C273.4 101.26 272.99 100.88 272.46 100.62C271.93 100.36 271.35 100.23 270.71 100.23C269.79 100.23 269.01 100.52 268.36 101.11C267.71 101.7 267.34 102.51 267.25 103.55H274.17C274.17 102.86 274.02 102.26 273.71 101.76Z" fill="black"/>
<path d="M278.45 101.36C278.9 100.51 279.53 99.8598 280.32 99.3898C281.11 98.9198 282 98.6898 282.99 98.6898C283.84 98.6898 284.64 98.8898 285.37 99.2798C286.1 99.6698 286.66 100.19 287.05 100.83V95.0298H288.89V109.83H287.05V107.77C286.69 108.42 286.16 108.96 285.45 109.38C284.74 109.8 283.92 110.01 282.97 110.01C282.02 110.01 281.11 109.77 280.32 109.29C279.53 108.81 278.9 108.14 278.45 107.27C278 106.4 277.77 105.42 277.77 104.31C277.77 103.2 278 102.21 278.45 101.36ZM286.55 102.17C286.22 101.56 285.77 101.09 285.2 100.76C284.63 100.43 284.01 100.27 283.33 100.27C282.65 100.27 282.03 100.43 281.47 100.75C280.91 101.07 280.46 101.54 280.13 102.15C279.8 102.76 279.63 103.48 279.63 104.31C279.63 105.14 279.8 105.88 280.13 106.5C280.46 107.12 280.91 107.59 281.47 107.92C282.03 108.25 282.65 108.41 283.33 108.41C284.01 108.41 284.63 108.25 285.2 107.92C285.77 107.59 286.22 107.12 286.55 106.5C286.88 105.88 287.05 105.16 287.05 104.33C287.05 103.5 286.88 102.78 286.55 102.17Z" fill="black"/>
<path d="M293.96 109.31C293.13 108.84 292.47 108.18 292 107.32C291.53 106.46 291.29 105.46 291.29 104.33C291.29 103.2 291.53 102.22 292.02 101.36C292.51 100.5 293.17 99.8399 294.01 99.3799C294.85 98.9199 295.79 98.6899 296.83 98.6899C297.87 98.6899 298.81 98.9199 299.65 99.3799C300.49 99.8399 301.15 100.5 301.64 101.35C302.13 102.2 302.37 103.2 302.37 104.33C302.37 105.46 302.12 106.46 301.62 107.32C301.12 108.18 300.44 108.84 299.59 109.31C298.74 109.78 297.79 110.01 296.75 110.01C295.71 110.01 294.79 109.78 293.96 109.31ZM298.59 107.95C299.16 107.64 299.63 107.18 299.98 106.57C300.33 105.96 300.51 105.21 300.51 104.33C300.51 103.45 300.34 102.7 299.99 102.09C299.64 101.48 299.19 101.02 298.63 100.72C298.07 100.42 297.46 100.27 296.81 100.27C296.16 100.27 295.53 100.42 294.98 100.72C294.43 101.02 293.98 101.48 293.65 102.09C293.32 102.7 293.15 103.45 293.15 104.33C293.15 105.21 293.31 105.98 293.64 106.59C293.97 107.2 294.4 107.66 294.95 107.96C295.5 108.26 296.1 108.41 296.75 108.41C297.4 108.41 298.02 108.26 298.59 107.95Z" fill="black"/>
<path d="M304.77 101.36C305.22 100.51 305.85 99.8599 306.66 99.3899C307.47 98.9199 308.39 98.6899 309.43 98.6899C310.78 98.6899 311.89 99.0199 312.76 99.6699C313.63 100.32 314.21 101.23 314.49 102.39H312.53C312.34 101.72 311.98 101.2 311.44 100.81C310.9 100.42 310.23 100.23 309.43 100.23C308.39 100.23 307.55 100.59 306.91 101.3C306.27 102.01 305.95 103.02 305.95 104.33C305.95 105.64 306.27 106.67 306.91 107.39C307.55 108.11 308.39 108.47 309.43 108.47C310.23 108.47 310.9 108.28 311.43 107.91C311.96 107.54 312.33 107 312.53 106.31H314.49C314.2 107.43 313.61 108.33 312.73 109C311.85 109.67 310.75 110.01 309.43 110.01C308.39 110.01 307.47 109.78 306.66 109.31C305.85 108.84 305.22 108.18 304.77 107.33C304.32 106.48 304.09 105.48 304.09 104.33C304.09 103.18 304.32 102.21 304.77 101.36Z" fill="black"/>
<path d="M324.59 99.1998C325.26 99.5498 325.78 100.08 326.16 100.79C326.54 101.5 326.73 102.36 326.73 103.37V109.83H324.93V103.63C324.93 102.54 324.66 101.7 324.11 101.12C323.56 100.54 322.82 100.25 321.87 100.25C320.92 100.25 320.15 100.55 319.58 101.15C319.01 101.75 318.73 102.62 318.73 103.77V109.83H316.91V95.0298H318.73V100.43C319.09 99.8698 319.59 99.4398 320.22 99.1298C320.85 98.8198 321.56 98.6698 322.35 98.6698C323.18 98.6698 323.92 98.8498 324.59 99.1998Z" fill="black"/>
<path d="M339.65 105.03H330.89C330.96 106.11 331.33 106.95 332 107.56C332.67 108.17 333.49 108.47 334.45 108.47C335.24 108.47 335.89 108.29 336.42 107.92C336.95 107.55 337.32 107.06 337.53 106.45H339.49C339.2 107.5 338.61 108.36 337.73 109.02C336.85 109.68 335.76 110.01 334.45 110.01C333.41 110.01 332.48 109.78 331.66 109.31C330.84 108.84 330.2 108.18 329.73 107.32C329.26 106.46 329.03 105.46 329.03 104.33C329.03 103.2 329.26 102.2 329.71 101.35C330.16 100.5 330.8 99.8399 331.62 99.3799C332.44 98.9199 333.38 98.6899 334.45 98.6899C335.52 98.6899 336.41 98.9199 337.21 99.3699C338.01 99.8199 338.63 100.45 339.06 101.24C339.49 102.03 339.71 102.93 339.71 103.93C339.71 104.28 339.69 104.64 339.65 105.03ZM337.37 101.76C337.06 101.26 336.65 100.88 336.12 100.62C335.59 100.36 335.01 100.23 334.37 100.23C333.45 100.23 332.67 100.52 332.02 101.11C331.37 101.7 331 102.51 330.91 103.55H337.83C337.83 102.86 337.68 102.26 337.37 101.76Z" fill="black"/>
<path d="M343.73 109.58C343.06 109.29 342.54 108.89 342.15 108.38C341.76 107.87 341.55 107.28 341.51 106.61H343.39C343.44 107.16 343.7 107.6 344.16 107.95C344.62 108.3 345.22 108.47 345.97 108.47C346.66 108.47 347.21 108.32 347.61 108.01C348.01 107.7 348.21 107.32 348.21 106.85C348.21 106.38 348 106.01 347.57 105.78C347.14 105.55 346.48 105.32 345.59 105.09C344.78 104.88 344.11 104.66 343.6 104.44C343.09 104.22 342.65 103.89 342.28 103.46C341.91 103.03 341.73 102.46 341.73 101.75C341.73 101.19 341.9 100.68 342.23 100.21C342.56 99.7399 343.04 99.3699 343.65 99.0999C344.26 98.8299 344.96 98.6899 345.75 98.6899C346.96 98.6899 347.94 98.9999 348.69 99.6099C349.44 100.22 349.84 101.06 349.89 102.13H348.07C348.03 101.56 347.8 101.1 347.38 100.75C346.96 100.4 346.4 100.23 345.69 100.23C345.04 100.23 344.52 100.37 344.13 100.65C343.74 100.93 343.55 101.3 343.55 101.75C343.55 102.11 343.67 102.41 343.9 102.64C344.13 102.87 344.43 103.06 344.78 103.2C345.13 103.34 345.62 103.5 346.25 103.67C347.04 103.88 347.68 104.09 348.17 104.3C348.66 104.51 349.09 104.82 349.44 105.23C349.79 105.64 349.98 106.18 349.99 106.85C349.99 107.45 349.82 107.99 349.49 108.47C349.16 108.95 348.69 109.33 348.08 109.6C347.47 109.87 346.78 110.01 345.99 110.01C345.15 110.01 344.4 109.87 343.73 109.58Z" fill="black"/>
</svg>
