<svg width="543" height="94" viewBox="0 0 543 94" fill="none" xmlns="http://www.w3.org/2000/svg">
<path d="M512.81 23.27H30.2599C13.7963 23.27 0.449951 36.6164 0.449951 53.08V63.46C0.449951 79.9236 13.7963 93.27 30.2599 93.27H512.81C529.274 93.27 542.62 79.9236 542.62 63.46V53.08C542.62 36.6164 529.274 23.27 512.81 23.27Z" fill="#C6A7F0"/>
<path d="M237.12 1.99953C238.07 2.47953 238.8 3.16953 239.31 4.06953C239.83 4.96953 240.08 6.01953 240.08 7.21953C240.08 8.41953 239.82 9.45953 239.31 10.3495C238.79 11.2295 238.06 11.9095 237.12 12.3795C236.17 12.8495 235.07 13.0895 233.81 13.0895H229.95V1.26953H233.81C235.07 1.26953 236.17 1.50953 237.12 1.98953V1.99953ZM236.99 10.3795C237.73 9.62953 238.09 8.57953 238.09 7.21953C238.09 5.85953 237.72 4.77952 236.99 4.00952C236.25 3.23952 235.19 2.84953 233.81 2.84953H231.89V11.4995H233.81C235.19 11.4995 236.25 11.1295 236.99 10.3795Z" fill="#A6A6A6"/>
<path d="M250.52 9.12985H243.36C243.42 9.87985 243.69 10.4798 244.19 10.9298C244.69 11.3798 245.3 11.6098 246.03 11.6098C247.07 11.6098 247.81 11.1699 248.24 10.2999H250.33C250.05 11.1599 249.53 11.8698 248.79 12.4198C248.05 12.9698 247.13 13.2498 246.03 13.2498C245.13 13.2498 244.33 13.0498 243.62 12.6498C242.91 12.2498 242.36 11.6798 241.95 10.9498C241.55 10.2198 241.35 9.36985 241.35 8.40985C241.35 7.44985 241.55 6.59984 241.94 5.86984C242.33 5.13984 242.88 4.57984 243.59 4.17984C244.3 3.77984 245.11 3.58984 246.03 3.58984C246.95 3.58984 247.7 3.77985 248.39 4.16985C249.08 4.55985 249.62 5.09984 250.01 5.78984C250.39 6.48984 250.59 7.28984 250.59 8.19984C250.59 8.54984 250.57 8.86984 250.52 9.14984V9.12985ZM248.56 7.55984C248.55 6.84984 248.29 6.26984 247.8 5.83984C247.3 5.40984 246.68 5.18985 245.95 5.18985C245.28 5.18985 244.71 5.39985 244.23 5.82985C243.75 6.25985 243.47 6.82984 243.38 7.55984H248.56Z" fill="#A6A6A6"/>
<path d="M252.43 5.85977C252.82 5.12977 253.35 4.56977 254.03 4.16977C254.7 3.76977 255.45 3.56978 256.28 3.56978C256.89 3.56978 257.49 3.69977 258.09 3.96977C258.68 4.23977 259.16 4.58977 259.51 5.02977V0.509766H261.47V13.0898H259.51V11.6798C259.19 12.1298 258.75 12.5098 258.19 12.7998C257.63 13.0898 256.99 13.2398 256.26 13.2398C255.44 13.2398 254.7 13.0298 254.02 12.6198C253.35 12.2098 252.81 11.6298 252.42 10.8898C252.03 10.1498 251.83 9.30977 251.83 8.36977C251.83 7.42977 252.03 6.59977 252.42 5.86977L252.43 5.85977ZM259.11 6.70978C258.84 6.22978 258.49 5.86977 258.06 5.61977C257.63 5.36977 257.17 5.24977 256.67 5.24977C256.17 5.24977 255.71 5.36977 255.28 5.61977C254.85 5.85977 254.5 6.21977 254.23 6.68977C253.96 7.15977 253.83 7.71977 253.83 8.35977C253.83 8.99977 253.96 9.56977 254.23 10.0598C254.5 10.5498 254.85 10.9198 255.28 11.1698C255.72 11.4198 256.18 11.5498 256.67 11.5498C257.16 11.5498 257.63 11.4298 258.06 11.1798C258.49 10.9298 258.84 10.5698 259.11 10.0798C259.38 9.59977 259.51 9.03977 259.51 8.38977C259.51 7.73977 259.38 7.17978 259.11 6.70978Z" fill="#A6A6A6"/>
<path d="M265.68 12.6396C264.97 12.2396 264.4 11.6696 264 10.9396C263.59 10.2096 263.39 9.35958 263.39 8.39958C263.39 7.43958 263.6 6.59958 264.02 5.86958C264.44 5.12958 265.01 4.56959 265.74 4.16959C266.46 3.76959 267.28 3.57959 268.17 3.57959C269.06 3.57959 269.88 3.77959 270.6 4.16959C271.33 4.56959 271.9 5.12958 272.32 5.86958C272.74 6.60958 272.95 7.44958 272.95 8.39958C272.95 9.34958 272.73 10.1996 272.3 10.9296C271.87 11.6696 271.28 12.2396 270.54 12.6396C269.8 13.0396 268.98 13.2396 268.08 13.2396C267.18 13.2396 266.4 13.0396 265.68 12.6396ZM269.48 11.1996C269.92 10.9596 270.27 10.5996 270.54 10.1296C270.81 9.64959 270.95 9.07958 270.95 8.39958C270.95 7.71958 270.82 7.14959 270.56 6.66959C270.3 6.19959 269.95 5.84959 269.52 5.60959C269.09 5.36959 268.62 5.24959 268.13 5.24959C267.64 5.24959 267.17 5.36959 266.75 5.60959C266.32 5.84959 265.99 6.19959 265.74 6.66959C265.49 7.13959 265.37 7.71958 265.37 8.39958C265.37 9.40958 265.63 10.1896 266.14 10.7396C266.65 11.2896 267.3 11.5596 268.09 11.5596C268.59 11.5596 269.06 11.4396 269.49 11.1996H269.48Z" fill="#A6A6A6"/>
<path d="M274.8 5.84982C275.19 5.11982 275.73 4.55982 276.42 4.15982C277.11 3.75982 277.9 3.56982 278.8 3.56982C279.93 3.56982 280.87 3.83982 281.61 4.37982C282.35 4.91982 282.85 5.68981 283.11 6.67981H281.02C280.85 6.21981 280.58 5.84981 280.2 5.58981C279.82 5.32981 279.36 5.19981 278.79 5.19981C278 5.19981 277.37 5.47981 276.89 6.03981C276.42 6.59981 276.18 7.38982 276.18 8.38982C276.18 9.38982 276.42 10.1898 276.89 10.7498C277.36 11.3198 277.99 11.5998 278.79 11.5998C279.91 11.5998 280.65 11.1098 281.02 10.1198H283.11C282.84 11.0698 282.33 11.8298 281.58 12.3898C280.83 12.9498 279.9 13.2298 278.79 13.2298C277.89 13.2298 277.1 13.0298 276.41 12.6298C275.72 12.2298 275.18 11.6598 274.79 10.9298C274.4 10.1998 274.2 9.34982 274.2 8.38982C274.2 7.42982 274.4 6.57982 274.79 5.84982H274.8Z" fill="#A6A6A6"/>
<path d="M291.82 4.02953C292.38 4.33953 292.82 4.78953 293.15 5.38953C293.48 5.98953 293.63 6.71953 293.63 7.56953V13.0995H291.71V7.85953C291.71 7.01953 291.5 6.37952 291.08 5.92952C290.66 5.47952 290.09 5.25952 289.36 5.25952C288.63 5.25952 288.06 5.47952 287.63 5.92952C287.21 6.37952 286.99 7.01953 286.99 7.85953V13.0995H285.05V0.519531H286.99V4.81953C287.32 4.41953 287.74 4.11952 288.24 3.89952C288.74 3.68952 289.3 3.57953 289.9 3.57953C290.61 3.57953 291.25 3.72952 291.81 4.03952L291.82 4.02953Z" fill="#A6A6A6"/>
<path d="M304.61 9.12985H297.45C297.51 9.87985 297.78 10.4798 298.28 10.9298C298.78 11.3798 299.39 11.6098 300.12 11.6098C301.16 11.6098 301.9 11.1699 302.33 10.2999H304.42C304.14 11.1599 303.62 11.8698 302.88 12.4198C302.14 12.9698 301.22 13.2498 300.12 13.2498C299.22 13.2498 298.42 13.0498 297.71 12.6498C297 12.2498 296.45 11.6798 296.04 10.9498C295.64 10.2198 295.44 9.36985 295.44 8.40985C295.44 7.44985 295.64 6.59984 296.03 5.86984C296.42 5.13984 296.97 4.57984 297.68 4.17984C298.39 3.77984 299.2 3.58984 300.12 3.58984C301.04 3.58984 301.79 3.77985 302.48 4.16985C303.17 4.55985 303.71 5.09984 304.1 5.78984C304.48 6.48984 304.68 7.28984 304.68 8.19984C304.68 8.54984 304.66 8.86984 304.61 9.14984V9.12985ZM302.66 7.55984C302.65 6.84984 302.39 6.26984 301.9 5.83984C301.4 5.40984 300.78 5.18985 300.05 5.18985C299.38 5.18985 298.81 5.39985 298.33 5.82985C297.85 6.25985 297.57 6.82984 297.48 7.55984H302.66Z" fill="#A6A6A6"/>
<path d="M308 12.8398C307.42 12.5698 306.96 12.2098 306.61 11.7498C306.27 11.2898 306.09 10.7798 306.07 10.2098H308.08C308.11 10.6098 308.3 10.9398 308.65 11.1998C309 11.4698 309.43 11.5998 309.95 11.5998C310.47 11.5998 310.92 11.4898 311.22 11.2798C311.52 11.0698 311.67 10.7998 311.67 10.4698C311.67 10.1198 311.5 9.8598 311.17 9.6898C310.84 9.5198 310.31 9.32981 309.58 9.12981C308.88 8.93981 308.31 8.74981 307.86 8.56981C307.42 8.38981 307.04 8.10981 306.71 7.73981C306.38 7.36981 306.23 6.8698 306.23 6.2598C306.23 5.7598 306.38 5.3098 306.67 4.8898C306.96 4.4798 307.39 4.14981 307.94 3.90981C308.49 3.66981 309.12 3.5498 309.84 3.5498C310.9 3.5498 311.76 3.8198 312.42 4.3598C313.07 4.8998 313.42 5.6298 313.46 6.5598H311.52C311.49 6.1398 311.32 5.8098 311.01 5.5598C310.7 5.3098 310.29 5.1898 309.77 5.1898C309.25 5.1898 308.87 5.2898 308.6 5.4798C308.33 5.6698 308.19 5.92981 308.19 6.23981C308.19 6.48981 308.28 6.6998 308.46 6.8698C308.64 7.0398 308.86 7.16981 309.12 7.26981C309.38 7.36981 309.77 7.4898 310.28 7.6398C310.96 7.8198 311.52 8.0098 311.95 8.1898C312.39 8.3798 312.76 8.6498 313.08 9.0098C313.4 9.3698 313.56 9.84981 313.57 10.4598C313.57 10.9898 313.42 11.4698 313.13 11.8898C312.84 12.3098 312.42 12.6398 311.88 12.8798C311.34 13.1198 310.71 13.2398 309.98 13.2398C309.25 13.2398 308.58 13.1098 308 12.8398Z" fill="#A6A6A6"/>
<path d="M73.67 65.41H62.03L60.03 71.09H55.27L65.23 43.25H70.51L80.47 71.09H75.67L73.67 65.41ZM72.39 61.69L67.87 48.77L63.31 61.69H72.39Z" fill="white"/>
<path d="M107.63 71.09H103.07L89.35 50.33V71.09H84.79V43.25H89.35L103.07 63.97V43.25H107.63V71.09Z" fill="white"/>
<path d="M118.19 43.29V71.09H113.63V43.29H118.19Z" fill="white"/>
<path d="M153.47 43.29V71.09H148.91V52.05L140.43 71.09H137.27L128.75 52.05V71.09H124.19V43.29H129.11L138.87 65.09L148.59 43.29H153.47Z" fill="white"/>
<path d="M176.23 65.41H164.59L162.59 71.09H157.83L167.79 43.25H173.07L183.03 71.09H178.23L176.23 65.41ZM174.95 61.69L170.43 48.77L165.87 61.69H174.95Z" fill="white"/>
<path d="M191.91 43.29V71.09H187.35V43.29H191.91Z" fill="white"/>
<path d="M202.03 70.3902C200.54 69.7402 199.36 68.8102 198.51 67.6102C197.66 66.4102 197.23 65.0102 197.23 63.4102H202.11C202.22 64.6102 202.69 65.6002 203.53 66.3702C204.37 67.1402 205.55 67.5302 207.07 67.5302C208.59 67.5302 209.87 67.1502 210.75 66.3902C211.63 65.6302 212.07 64.6502 212.07 63.4502C212.07 62.5202 211.8 61.7602 211.25 61.1702C210.7 60.5802 210.02 60.1302 209.21 59.8102C208.4 59.4902 207.27 59.1402 205.83 58.7702C204.02 58.2902 202.54 57.8002 201.41 57.3102C200.28 56.8202 199.31 56.0502 198.51 55.0102C197.71 53.9702 197.31 52.5802 197.31 50.8502C197.31 49.2502 197.71 47.8502 198.51 46.6502C199.31 45.4502 200.43 44.5302 201.87 43.8902C203.31 43.2502 204.98 42.9302 206.87 42.9302C209.56 42.9302 211.77 43.6002 213.49 44.9502C215.21 46.3002 216.16 48.1402 216.35 50.4902H211.31C211.23 49.4802 210.75 48.6102 209.87 47.8902C208.99 47.1702 207.83 46.8102 206.39 46.8102C205.08 46.8102 204.02 47.1402 203.19 47.8102C202.36 48.4802 201.95 49.4402 201.95 50.6902C201.95 51.5402 202.21 52.2402 202.73 52.7902C203.25 53.3402 203.91 53.7702 204.71 54.0902C205.51 54.4102 206.6 54.7602 207.99 55.1302C209.83 55.6402 211.33 56.1402 212.49 56.6502C213.65 57.1602 214.64 57.9402 215.45 58.9902C216.26 60.0402 216.67 61.4502 216.67 63.2102C216.67 64.6202 216.29 65.9602 215.53 67.2102C214.77 68.4602 213.66 69.4702 212.21 70.2302C210.76 70.9902 209.04 71.3702 207.07 71.3702C205.2 71.3702 203.52 71.0402 202.03 70.3902Z" fill="white"/>
<path d="M249.33 44.9901C251.56 46.1201 253.28 47.75 254.49 49.87C255.7 51.99 256.31 54.46 256.31 57.29C256.31 60.12 255.7 62.57 254.49 64.65C253.28 66.73 251.56 68.32 249.33 69.43C247.1 70.54 244.51 71.09 241.55 71.09H232.47V43.29H241.55C244.51 43.29 247.1 43.8601 249.33 44.9901ZM249.03 64.73C250.76 62.97 251.63 60.49 251.63 57.29C251.63 54.09 250.76 51.54 249.03 49.73C247.3 47.92 244.8 47.01 241.55 47.01H237.03V67.37H241.55C244.8 67.37 247.3 66.49 249.03 64.73Z" fill="white"/>
<path d="M266.37 69.5502C264.2 68.3402 262.48 66.6402 261.21 64.4702C259.94 62.3002 259.31 59.8502 259.31 57.1302C259.31 54.4102 259.94 51.9702 261.21 49.8102C262.48 47.6502 264.2 45.9602 266.37 44.7502C268.54 43.5402 270.92 42.9302 273.51 42.9302C276.1 42.9302 278.52 43.5402 280.69 44.7502C282.86 45.9602 284.58 47.6502 285.83 49.8102C287.08 51.9702 287.71 54.4102 287.71 57.1302C287.71 59.8502 287.08 62.3002 285.83 64.4702C284.58 66.6402 282.86 68.3402 280.69 69.5502C278.52 70.7602 276.12 71.3702 273.51 71.3702C270.9 71.3702 268.54 70.7602 266.37 69.5502ZM278.43 66.1502C279.87 65.3102 281 64.1102 281.81 62.5502C282.62 60.9902 283.03 59.1802 283.03 57.1302C283.03 55.0802 282.62 53.2802 281.81 51.7302C281 50.1802 279.87 49.0002 278.43 48.1702C276.99 47.3402 275.35 46.9302 273.51 46.9302C271.67 46.9302 270.03 47.3402 268.59 48.1702C267.15 49.0002 266.02 50.1802 265.21 51.7302C264.4 53.2802 263.99 55.0802 263.99 57.1302C263.99 59.1802 264.4 60.9902 265.21 62.5502C266.02 64.1102 267.15 65.3102 268.59 66.1502C270.03 66.9902 271.67 67.4102 273.51 67.4102C275.35 67.4102 276.99 66.9902 278.43 66.1502Z" fill="white"/>
<path d="M321.47 43.29V71.09H316.91V52.05L308.43 71.09H305.27L296.75 52.05V71.09H292.19V43.29H297.11L306.87 65.09L316.59 43.29H321.47Z" fill="white"/>
<path d="M332.03 46.97V55.13H341.63V58.85H332.03V67.37H342.83V71.09H327.47V43.25H342.83V46.97H332.03Z" fill="white"/>
<path d="M352.55 70.3902C351.06 69.7402 349.88 68.8102 349.03 67.6102C348.18 66.4102 347.75 65.0102 347.75 63.4102H352.63C352.74 64.6102 353.21 65.6002 354.05 66.3702C354.89 67.1402 356.07 67.5302 357.59 67.5302C359.11 67.5302 360.39 67.1502 361.27 66.3902C362.15 65.6302 362.59 64.6502 362.59 63.4502C362.59 62.5202 362.32 61.7602 361.77 61.1702C361.22 60.5802 360.54 60.1302 359.73 59.8102C358.92 59.4902 357.79 59.1402 356.35 58.7702C354.54 58.2902 353.06 57.8002 351.93 57.3102C350.8 56.8202 349.83 56.0502 349.03 55.0102C348.23 53.9702 347.83 52.5802 347.83 50.8502C347.83 49.2502 348.23 47.8502 349.03 46.6502C349.83 45.4502 350.95 44.5302 352.39 43.8902C353.83 43.2502 355.5 42.9302 357.39 42.9302C360.08 42.9302 362.29 43.6002 364.01 44.9502C365.73 46.3002 366.68 48.1402 366.87 50.4902H361.83C361.75 49.4802 361.27 48.6102 360.39 47.8902C359.51 47.1702 358.35 46.8102 356.91 46.8102C355.6 46.8102 354.54 47.1402 353.71 47.8102C352.88 48.4802 352.47 49.4402 352.47 50.6902C352.47 51.5402 352.73 52.2402 353.25 52.7902C353.77 53.3402 354.43 53.7702 355.23 54.0902C356.03 54.4102 357.12 54.7602 358.51 55.1302C360.35 55.6402 361.85 56.1402 363.01 56.6502C364.17 57.1602 365.16 57.9402 365.97 58.9902C366.78 60.0402 367.19 61.4502 367.19 63.2102C367.19 64.6202 366.81 65.9602 366.05 67.2102C365.29 68.4602 364.18 69.4702 362.73 70.2302C361.28 70.9902 359.56 71.3702 357.59 71.3702C355.72 71.3702 354.04 71.0402 352.55 70.3902Z" fill="white"/>
<path d="M390.55 43.29V47.01H383.15V71.09H378.59V47.01H371.15V43.29H390.55Z" fill="white"/>
<path d="M399.71 43.29V71.09H395.15V43.29H399.71Z" fill="white"/>
<path d="M406.09 49.8102C407.36 47.6502 409.08 45.9602 411.25 44.7502C413.42 43.5402 415.8 42.9302 418.39 42.9302C421.35 42.9302 423.98 43.6602 426.29 45.1102C428.6 46.5602 430.27 48.6202 431.31 51.2902H425.83C425.11 49.8202 424.11 48.7302 422.83 48.0102C421.55 47.2902 420.07 46.9302 418.39 46.9302C416.55 46.9302 414.91 47.3402 413.47 48.1702C412.03 49.0002 410.9 50.1802 410.09 51.7302C409.28 53.2802 408.87 55.0802 408.87 57.1302C408.87 59.1802 409.28 60.9802 410.09 62.5302C410.9 64.0802 412.03 65.2702 413.47 66.1102C414.91 66.9502 416.55 67.3702 418.39 67.3702C420.07 67.3702 421.55 67.0102 422.83 66.2902C424.11 65.5702 425.11 64.4802 425.83 63.0102H431.31C430.27 65.6802 428.6 67.7302 426.29 69.1702C423.98 70.6102 421.35 71.3302 418.39 71.3302C415.78 71.3302 413.39 70.7202 411.23 69.5102C409.07 68.3002 407.36 66.6102 406.09 64.4502C404.82 62.2902 404.19 59.8502 404.19 57.1302C404.19 54.4102 404.82 51.9702 406.09 49.8102Z" fill="white"/>
<path d="M442.17 69.5502C440 68.3402 438.28 66.6402 437.01 64.4702C435.74 62.3002 435.11 59.8502 435.11 57.1302C435.11 54.4102 435.74 51.9702 437.01 49.8102C438.28 47.6502 440 45.9602 442.17 44.7502C444.34 43.5402 446.72 42.9302 449.31 42.9302C451.9 42.9302 454.32 43.5402 456.49 44.7502C458.66 45.9602 460.38 47.6502 461.63 49.8102C462.88 51.9702 463.51 54.4102 463.51 57.1302C463.51 59.8502 462.88 62.3002 461.63 64.4702C460.38 66.6402 458.66 68.3402 456.49 69.5502C454.32 70.7602 451.92 71.3702 449.31 71.3702C446.7 71.3702 444.34 70.7602 442.17 69.5502ZM454.23 66.1502C455.67 65.3102 456.8 64.1102 457.61 62.5502C458.42 60.9902 458.83 59.1802 458.83 57.1302C458.83 55.0802 458.42 53.2802 457.61 51.7302C456.8 50.1802 455.67 49.0002 454.23 48.1702C452.79 47.3402 451.15 46.9302 449.31 46.9302C447.47 46.9302 445.83 47.3402 444.39 48.1702C442.95 49.0002 441.82 50.1802 441.01 51.7302C440.2 53.2802 439.79 55.0802 439.79 57.1302C439.79 59.1802 440.2 60.9902 441.01 62.5502C441.82 64.1102 442.95 65.3102 444.39 66.1502C445.83 66.9902 447.47 67.4102 449.31 67.4102C451.15 67.4102 452.79 66.9902 454.23 66.1502Z" fill="white"/>
<path d="M472.11 70.3902C470.62 69.7402 469.44 68.8102 468.59 67.6102C467.74 66.4102 467.31 65.0102 467.31 63.4102H472.19C472.3 64.6102 472.77 65.6002 473.61 66.3702C474.45 67.1402 475.63 67.5302 477.15 67.5302C478.67 67.5302 479.95 67.1502 480.83 66.3902C481.71 65.6302 482.15 64.6502 482.15 63.4502C482.15 62.5202 481.88 61.7602 481.33 61.1702C480.78 60.5802 480.1 60.1302 479.29 59.8102C478.48 59.4902 477.35 59.1402 475.91 58.7702C474.1 58.2902 472.62 57.8002 471.49 57.3102C470.36 56.8202 469.39 56.0502 468.59 55.0102C467.79 53.9702 467.39 52.5802 467.39 50.8502C467.39 49.2502 467.79 47.8502 468.59 46.6502C469.39 45.4502 470.51 44.5302 471.95 43.8902C473.39 43.2502 475.06 42.9302 476.95 42.9302C479.64 42.9302 481.85 43.6002 483.57 44.9502C485.29 46.3002 486.24 48.1402 486.43 50.4902H481.39C481.31 49.4802 480.83 48.6102 479.95 47.8902C479.07 47.1702 477.91 46.8102 476.47 46.8102C475.16 46.8102 474.1 47.1402 473.27 47.8102C472.44 48.4802 472.03 49.4402 472.03 50.6902C472.03 51.5402 472.29 52.2402 472.81 52.7902C473.33 53.3402 473.99 53.7702 474.79 54.0902C475.59 54.4102 476.68 54.7602 478.07 55.1302C479.91 55.6402 481.41 56.1402 482.57 56.6502C483.73 57.1602 484.72 57.9402 485.53 58.9902C486.34 60.0402 486.75 61.4502 486.75 63.2102C486.75 64.6202 486.37 65.9602 485.61 67.2102C484.85 68.4602 483.74 69.4702 482.29 70.2302C480.84 70.9902 479.12 71.3702 477.15 71.3702C475.28 71.3702 473.6 71.0402 472.11 70.3902Z" fill="white"/>
</svg>
