<svg width="543" height="99" viewBox="0 0 543 99" fill="none" xmlns="http://www.w3.org/2000/svg">
<path d="M512.37 28.5898H29.82C13.3564 28.5898 0.0100098 41.9362 0.0100098 58.3998V68.7798C0.0100098 85.2435 13.3564 98.5898 29.82 98.5898H512.37C528.834 98.5898 542.18 85.2435 542.18 68.7798V58.3998C542.18 41.9362 528.834 28.5898 512.37 28.5898Z" fill="#C6A7F0"/>
<path d="M238.12 1.99953C239.07 2.47953 239.8 3.16953 240.31 4.06953C240.83 4.96953 241.08 6.01953 241.08 7.21953C241.08 8.41953 240.82 9.45953 240.31 10.3495C239.79 11.2295 239.06 11.9095 238.12 12.3795C237.17 12.8495 236.07 13.0895 234.81 13.0895H230.95V1.26953H234.81C236.07 1.26953 237.17 1.50953 238.12 1.98953V1.99953ZM237.99 10.3795C238.73 9.62953 239.09 8.57953 239.09 7.21953C239.09 5.85953 238.72 4.77952 237.99 4.00952C237.25 3.23952 236.19 2.84953 234.81 2.84953H232.89V11.4995H234.81C236.19 11.4995 237.25 11.1295 237.99 10.3795Z" fill="#A6A6A6"/>
<path d="M251.52 9.12985H244.36C244.42 9.87985 244.69 10.4798 245.19 10.9298C245.69 11.3798 246.3 11.6098 247.03 11.6098C248.07 11.6098 248.81 11.1699 249.24 10.2999H251.33C251.05 11.1599 250.53 11.8698 249.79 12.4198C249.05 12.9698 248.13 13.2498 247.03 13.2498C246.13 13.2498 245.33 13.0498 244.62 12.6498C243.91 12.2498 243.36 11.6798 242.95 10.9498C242.55 10.2198 242.35 9.36985 242.35 8.40985C242.35 7.44985 242.55 6.59984 242.94 5.86984C243.33 5.13984 243.88 4.57984 244.59 4.17984C245.3 3.77984 246.11 3.58984 247.03 3.58984C247.95 3.58984 248.7 3.77985 249.39 4.16985C250.08 4.55985 250.62 5.09984 251.01 5.78984C251.39 6.48984 251.59 7.28984 251.59 8.19984C251.59 8.54984 251.57 8.86984 251.52 9.14984V9.12985ZM249.56 7.55984C249.55 6.84984 249.29 6.26984 248.8 5.83984C248.3 5.40984 247.68 5.18985 246.95 5.18985C246.28 5.18985 245.71 5.39985 245.23 5.82985C244.75 6.25985 244.47 6.82984 244.38 7.55984H249.56Z" fill="#A6A6A6"/>
<path d="M253.43 5.85977C253.82 5.12977 254.35 4.56977 255.03 4.16977C255.7 3.76977 256.45 3.56978 257.28 3.56978C257.89 3.56978 258.49 3.69977 259.09 3.96977C259.68 4.23977 260.16 4.58977 260.51 5.02977V0.509766H262.47V13.0898H260.51V11.6798C260.19 12.1298 259.75 12.5098 259.19 12.7998C258.63 13.0898 257.99 13.2398 257.26 13.2398C256.44 13.2398 255.7 13.0298 255.02 12.6198C254.35 12.2098 253.81 11.6298 253.42 10.8898C253.03 10.1498 252.83 9.30977 252.83 8.36977C252.83 7.42977 253.03 6.59977 253.42 5.86977L253.43 5.85977ZM260.11 6.70978C259.84 6.22978 259.49 5.86977 259.06 5.61977C258.63 5.36977 258.17 5.24977 257.67 5.24977C257.17 5.24977 256.71 5.36977 256.28 5.61977C255.85 5.85977 255.5 6.21977 255.23 6.68977C254.96 7.15977 254.83 7.71977 254.83 8.35977C254.83 8.99977 254.96 9.56977 255.23 10.0598C255.5 10.5498 255.85 10.9198 256.28 11.1698C256.72 11.4198 257.18 11.5498 257.67 11.5498C258.16 11.5498 258.63 11.4298 259.06 11.1798C259.49 10.9298 259.84 10.5698 260.11 10.0798C260.38 9.59977 260.51 9.03977 260.51 8.38977C260.51 7.73977 260.38 7.17978 260.11 6.70978Z" fill="#A6A6A6"/>
<path d="M266.68 12.6396C265.97 12.2396 265.4 11.6696 265 10.9396C264.59 10.2096 264.39 9.35958 264.39 8.39958C264.39 7.43958 264.6 6.59958 265.02 5.86958C265.44 5.12958 266.01 4.56959 266.74 4.16959C267.46 3.76959 268.28 3.57959 269.17 3.57959C270.06 3.57959 270.88 3.77959 271.6 4.16959C272.33 4.56959 272.9 5.12958 273.32 5.86958C273.74 6.60958 273.95 7.44958 273.95 8.39958C273.95 9.34958 273.73 10.1996 273.3 10.9296C272.87 11.6696 272.28 12.2396 271.54 12.6396C270.8 13.0396 269.98 13.2396 269.08 13.2396C268.18 13.2396 267.4 13.0396 266.68 12.6396ZM270.48 11.1996C270.92 10.9596 271.27 10.5996 271.54 10.1296C271.81 9.64959 271.95 9.07958 271.95 8.39958C271.95 7.71958 271.82 7.14959 271.56 6.66959C271.3 6.19959 270.95 5.84959 270.52 5.60959C270.09 5.36959 269.62 5.24959 269.13 5.24959C268.64 5.24959 268.17 5.36959 267.75 5.60959C267.32 5.84959 266.99 6.19959 266.74 6.66959C266.49 7.13959 266.37 7.71958 266.37 8.39958C266.37 9.40958 266.63 10.1896 267.14 10.7396C267.65 11.2896 268.3 11.5596 269.09 11.5596C269.59 11.5596 270.06 11.4396 270.49 11.1996H270.48Z" fill="#A6A6A6"/>
<path d="M275.8 5.84982C276.19 5.11982 276.73 4.55982 277.42 4.15982C278.11 3.75982 278.9 3.56982 279.8 3.56982C280.93 3.56982 281.87 3.83982 282.61 4.37982C283.35 4.91982 283.85 5.68981 284.11 6.67981H282.02C281.85 6.21981 281.58 5.84981 281.2 5.58981C280.82 5.32981 280.36 5.19981 279.79 5.19981C279 5.19981 278.37 5.47981 277.89 6.03981C277.42 6.59981 277.18 7.38982 277.18 8.38982C277.18 9.38982 277.42 10.1898 277.89 10.7498C278.36 11.3198 278.99 11.5998 279.79 11.5998C280.91 11.5998 281.65 11.1098 282.02 10.1198H284.11C283.84 11.0698 283.33 11.8298 282.58 12.3898C281.83 12.9498 280.9 13.2298 279.79 13.2298C278.89 13.2298 278.1 13.0298 277.41 12.6298C276.72 12.2298 276.18 11.6598 275.79 10.9298C275.4 10.1998 275.2 9.34982 275.2 8.38982C275.2 7.42982 275.4 6.57982 275.79 5.84982H275.8Z" fill="#A6A6A6"/>
<path d="M292.82 4.02953C293.38 4.33953 293.82 4.78953 294.15 5.38953C294.48 5.98953 294.63 6.71953 294.63 7.56953V13.0995H292.71V7.85953C292.71 7.01953 292.5 6.37952 292.08 5.92952C291.66 5.47952 291.09 5.25952 290.36 5.25952C289.63 5.25952 289.06 5.47952 288.63 5.92952C288.21 6.37952 287.99 7.01953 287.99 7.85953V13.0995H286.05V0.519531H287.99V4.81953C288.32 4.41953 288.74 4.11952 289.24 3.89952C289.74 3.68952 290.3 3.57953 290.9 3.57953C291.61 3.57953 292.25 3.72952 292.81 4.03952L292.82 4.02953Z" fill="#A6A6A6"/>
<path d="M305.61 9.12985H298.45C298.51 9.87985 298.78 10.4798 299.28 10.9298C299.78 11.3798 300.39 11.6098 301.12 11.6098C302.16 11.6098 302.9 11.1699 303.33 10.2999H305.42C305.14 11.1599 304.62 11.8698 303.88 12.4198C303.14 12.9698 302.22 13.2498 301.12 13.2498C300.22 13.2498 299.42 13.0498 298.71 12.6498C298 12.2498 297.45 11.6798 297.04 10.9498C296.64 10.2198 296.44 9.36985 296.44 8.40985C296.44 7.44985 296.64 6.59984 297.03 5.86984C297.42 5.13984 297.97 4.57984 298.68 4.17984C299.39 3.77984 300.2 3.58984 301.12 3.58984C302.04 3.58984 302.79 3.77985 303.48 4.16985C304.17 4.55985 304.71 5.09984 305.1 5.78984C305.48 6.48984 305.68 7.28984 305.68 8.19984C305.68 8.54984 305.66 8.86984 305.61 9.14984V9.12985ZM303.66 7.55984C303.65 6.84984 303.39 6.26984 302.9 5.83984C302.4 5.40984 301.78 5.18985 301.05 5.18985C300.38 5.18985 299.81 5.39985 299.33 5.82985C298.85 6.25985 298.57 6.82984 298.48 7.55984H303.66Z" fill="#A6A6A6"/>
<path d="M309 12.8398C308.42 12.5698 307.96 12.2098 307.61 11.7498C307.27 11.2898 307.09 10.7798 307.07 10.2098H309.08C309.11 10.6098 309.3 10.9398 309.65 11.1998C310 11.4698 310.43 11.5998 310.95 11.5998C311.47 11.5998 311.92 11.4898 312.22 11.2798C312.52 11.0698 312.67 10.7998 312.67 10.4698C312.67 10.1198 312.5 9.8598 312.17 9.6898C311.84 9.5198 311.31 9.32981 310.58 9.12981C309.88 8.93981 309.31 8.74981 308.86 8.56981C308.42 8.38981 308.04 8.10981 307.71 7.73981C307.38 7.36981 307.23 6.8698 307.23 6.2598C307.23 5.7598 307.38 5.3098 307.67 4.8898C307.96 4.4798 308.39 4.14981 308.94 3.90981C309.49 3.66981 310.12 3.5498 310.84 3.5498C311.9 3.5498 312.76 3.8198 313.42 4.3598C314.07 4.8998 314.42 5.6298 314.46 6.5598H312.52C312.49 6.1398 312.32 5.8098 312.01 5.5598C311.7 5.3098 311.29 5.1898 310.77 5.1898C310.25 5.1898 309.87 5.2898 309.6 5.4798C309.33 5.6698 309.19 5.92981 309.19 6.23981C309.19 6.48981 309.28 6.6998 309.46 6.8698C309.64 7.0398 309.86 7.16981 310.12 7.26981C310.38 7.36981 310.77 7.4898 311.28 7.6398C311.96 7.8198 312.52 8.0098 312.95 8.1898C313.39 8.3798 313.76 8.6498 314.08 9.0098C314.4 9.3698 314.56 9.84981 314.57 10.4598C314.57 10.9898 314.42 11.4698 314.13 11.8898C313.84 12.3098 313.42 12.6398 312.88 12.8798C312.34 13.1198 311.71 13.2398 310.98 13.2398C310.25 13.2398 309.58 13.1098 309 12.8398Z" fill="#A6A6A6"/>
<path d="M62.84 73.3897H49.35L47.03 79.9697H41.52L53.06 47.7197H59.18L70.72 79.9697H65.16L62.84 73.3897ZM61.35 69.0797L56.11 54.1097L50.83 69.0797H61.35Z" fill="white"/>
<path d="M102.18 79.9697H96.9L81.01 55.9197V79.9697H75.73V47.7197H81.01L96.9 71.7197V47.7197H102.18V79.9697Z" fill="white"/>
<path d="M114.42 47.77V79.98H109.14V47.77H114.42Z" fill="white"/>
<path d="M155.29 47.77V79.98H150.01V57.92L140.18 79.98H136.52L126.65 57.92V79.98H121.37V47.77H127.07L138.38 73.03L149.64 47.77H155.29Z" fill="white"/>
<path d="M181.66 73.3897H168.17L165.85 79.9697H160.34L171.88 47.7197H178L189.54 79.9697H183.98L181.66 73.3897ZM180.17 69.0797L174.93 54.1097L169.65 69.0797H180.17Z" fill="white"/>
<path d="M199.82 47.77V79.98H194.54V47.77H199.82Z" fill="white"/>
<path d="M211.55 79.1599C209.82 78.3999 208.46 77.3298 207.47 75.9398C206.48 74.5499 205.99 72.9299 205.99 71.0699H211.64C211.76 72.4599 212.31 73.5998 213.29 74.4998C214.26 75.3998 215.63 75.8398 217.39 75.8398C219.15 75.8398 220.63 75.3999 221.65 74.5199C222.67 73.6399 223.18 72.4998 223.18 71.1098C223.18 70.0298 222.86 69.1498 222.23 68.4698C221.6 67.7898 220.81 67.2698 219.87 66.8998C218.93 66.5298 217.62 66.1299 215.95 65.6898C213.85 65.1299 212.14 64.5698 210.83 63.9998C209.52 63.4298 208.4 62.5398 207.47 61.3398C206.54 60.1298 206.08 58.5299 206.08 56.5199C206.08 54.6699 206.54 53.0398 207.47 51.6498C208.4 50.2598 209.69 49.1898 211.36 48.4498C213.03 47.7098 214.96 47.3398 217.15 47.3398C220.27 47.3398 222.83 48.1198 224.82 49.6798C226.81 51.2398 227.92 53.3799 228.13 56.0999H222.29C222.2 54.9299 221.64 53.9198 220.62 53.0898C219.6 52.2598 218.26 51.8398 216.59 51.8398C215.08 51.8398 213.84 52.2298 212.88 52.9998C211.92 53.7698 211.44 54.8798 211.44 56.3398C211.44 57.3298 211.74 58.1399 212.34 58.7699C212.94 59.3999 213.71 59.9098 214.63 60.2798C215.55 60.6498 216.82 61.0498 218.43 61.4798C220.56 62.0698 222.3 62.6499 223.64 63.2399C224.98 63.8299 226.13 64.7298 227.07 65.9498C228.01 67.1698 228.48 68.7998 228.48 70.8398C228.48 72.4798 228.04 74.0198 227.16 75.4698C226.28 76.9198 225 78.0898 223.31 78.9698C221.63 79.8498 219.64 80.2898 217.36 80.2898C215.2 80.2898 213.25 79.9098 211.52 79.1498L211.55 79.1599Z" fill="white"/>
<path d="M251.59 79.1599C249.86 78.3999 248.5 77.3298 247.51 75.9398C246.52 74.5499 246.03 72.9299 246.03 71.0699H251.68C251.8 72.4599 252.35 73.5998 253.33 74.4998C254.3 75.3998 255.67 75.8398 257.43 75.8398C259.19 75.8398 260.67 75.3999 261.69 74.5199C262.71 73.6399 263.22 72.4998 263.22 71.1098C263.22 70.0298 262.9 69.1498 262.27 68.4698C261.64 67.7898 260.85 67.2698 259.91 66.8998C258.97 66.5298 257.66 66.1299 255.99 65.6898C253.89 65.1299 252.18 64.5698 250.87 63.9998C249.56 63.4298 248.44 62.5398 247.51 61.3398C246.58 60.1298 246.12 58.5299 246.12 56.5199C246.12 54.6699 246.58 53.0398 247.51 51.6498C248.44 50.2598 249.73 49.1898 251.4 48.4498C253.07 47.7098 255 47.3398 257.19 47.3398C260.31 47.3398 262.87 48.1198 264.86 49.6798C266.85 51.2398 267.96 53.3799 268.17 56.0999H262.33C262.24 54.9299 261.68 53.9198 260.66 53.0898C259.64 52.2598 258.3 51.8398 256.63 51.8398C255.12 51.8398 253.88 52.2298 252.92 52.9998C251.96 53.7698 251.48 54.8798 251.48 56.3398C251.48 57.3298 251.78 58.1399 252.38 58.7699C252.98 59.3999 253.75 59.9098 254.67 60.2798C255.59 60.6498 256.86 61.0498 258.47 61.4798C260.6 62.0698 262.34 62.6499 263.68 63.2399C265.02 63.8299 266.17 64.7298 267.11 65.9498C268.05 67.1698 268.52 68.7998 268.52 70.8398C268.52 72.4798 268.08 74.0198 267.2 75.4698C266.32 76.9198 265.04 78.0898 263.35 78.9698C261.67 79.8498 259.68 80.2898 257.4 80.2898C255.24 80.2898 253.29 79.9098 251.56 79.1498L251.59 79.1599Z" fill="white"/>
<path d="M280.08 52.0297V61.4797H291.2V65.7897H280.08V75.6597H292.59V79.9697H274.79V47.7197H292.59V52.0297H280.08Z" fill="white"/>
<path d="M304.37 75.7098H315.26V79.9698H299.09V47.7598H304.37V75.6998V75.7098Z" fill="white"/>
<path d="M347.42 47.77L335.32 79.98H329.2L317.06 47.77H322.71L332.26 74.56L341.85 47.77H347.41H347.42Z" fill="white"/>
<path d="M371.24 73.3897H357.75L355.43 79.9697H349.92L361.46 47.7197H367.58L379.12 79.9697H373.56L371.24 73.3897ZM369.76 69.0797L364.52 54.1097L359.24 69.0797H369.76Z" fill="white"/>
<path d="M407.43 57.0296C406.6 55.4196 405.44 54.2096 403.95 53.3896C402.47 52.5696 400.75 52.1596 398.81 52.1596C396.68 52.1596 394.78 52.6396 393.11 53.5996C391.44 54.5596 390.14 55.9196 389.19 57.6796C388.25 59.4396 387.78 61.4796 387.78 63.7996C387.78 66.1196 388.25 68.1596 389.19 69.9396C390.13 71.7196 391.44 73.0796 393.11 74.0396C394.78 74.9996 396.68 75.4796 398.81 75.4796C401.68 75.4796 404.02 74.6796 405.81 73.0696C407.6 71.4596 408.7 69.2896 409.1 66.5396H397V62.3196H414.75V66.4396C414.41 68.9396 413.52 71.2396 412.09 73.3396C410.65 75.4396 408.78 77.1196 406.48 78.3696C404.18 79.6196 401.62 80.2496 398.81 80.2496C395.78 80.2496 393.02 79.5496 390.52 78.1396C388.02 76.7296 386.03 74.7796 384.56 72.2796C383.09 69.7796 382.36 66.9496 382.36 63.7996C382.36 60.6496 383.09 57.8196 384.56 55.3196C386.03 52.8196 388.02 50.8596 390.54 49.4596C393.06 48.0596 395.82 47.3496 398.81 47.3496C402.24 47.3496 405.29 48.1896 407.96 49.8796C410.63 51.5696 412.57 53.9496 413.78 57.0396H407.43V57.0296Z" fill="white"/>
<path d="M425.23 52.0297V61.4797H436.35V65.7897H425.23V75.6597H437.74V79.9697H419.94V47.7197H437.74V52.0297H425.23Z" fill="white"/>
<path d="M470.69 79.9697H465.41L449.52 55.9197V79.9697H444.24V47.7197H449.52L465.41 71.7197V47.7197H470.69V79.9697Z" fill="white"/>
<path d="M482.41 79.1599C480.68 78.3999 479.32 77.3298 478.33 75.9398C477.34 74.5499 476.85 72.9299 476.85 71.0699H482.5C482.62 72.4599 483.17 73.5998 484.15 74.4998C485.12 75.3998 486.49 75.8398 488.25 75.8398C490.01 75.8398 491.49 75.3999 492.51 74.5199C493.53 73.6399 494.04 72.4998 494.04 71.1098C494.04 70.0298 493.72 69.1498 493.09 68.4698C492.46 67.7898 491.67 67.2698 490.73 66.8998C489.79 66.5298 488.48 66.1299 486.81 65.6898C484.71 65.1299 483 64.5698 481.69 63.9998C480.38 63.4298 479.26 62.5398 478.33 61.3398C477.4 60.1298 476.94 58.5299 476.94 56.5199C476.94 54.6699 477.4 53.0398 478.33 51.6498C479.26 50.2598 480.55 49.1898 482.22 48.4498C483.89 47.7098 485.82 47.3398 488.01 47.3398C491.13 47.3398 493.69 48.1198 495.68 49.6798C497.67 51.2398 498.78 53.3799 498.99 56.0999H493.15C493.06 54.9299 492.5 53.9198 491.48 53.0898C490.46 52.2598 489.12 51.8398 487.45 51.8398C485.94 51.8398 484.7 52.2298 483.74 52.9998C482.78 53.7698 482.3 54.8798 482.3 56.3398C482.3 57.3298 482.6 58.1399 483.2 58.7699C483.8 59.3999 484.57 59.9098 485.49 60.2798C486.41 60.6498 487.68 61.0498 489.29 61.4798C491.42 62.0698 493.16 62.6499 494.5 63.2399C495.84 63.8299 496.99 64.7298 497.93 65.9498C498.87 67.1698 499.34 68.7998 499.34 70.8398C499.34 72.4798 498.9 74.0198 498.02 75.4698C497.14 76.9198 495.86 78.0898 494.17 78.9698C492.49 79.8498 490.5 80.2898 488.22 80.2898C486.06 80.2898 484.11 79.9098 482.38 79.1498L482.41 79.1599Z" fill="white"/>
</svg>
