<svg width="191" height="207" viewBox="0 0 191 207" fill="none" xmlns="http://www.w3.org/2000/svg">
<path d="M60.62 174.74C61.57 175.22 62.3 175.91 62.81 176.81C63.32 177.7 63.57 178.76 63.57 179.97C63.57 181.18 63.32 182.23 62.81 183.12C62.3 184.01 61.57 184.69 60.62 185.16C59.67 185.63 58.54 185.87 57.24 185.87H53.52V174.02H57.24C58.54 174.02 59.67 174.26 60.62 174.74ZM60.76 183.38C61.57 182.57 61.98 181.43 61.98 179.97C61.98 178.51 61.57 177.35 60.76 176.52C59.95 175.69 58.77 175.28 57.24 175.28H55.08V184.6H57.24C58.78 184.6 59.96 184.2 60.77 183.39L60.76 183.38Z" fill="#A6A6A6"/>
<path d="M74.14 181.79H66.64C66.7 182.71 67.01 183.42 67.59 183.94C68.17 184.46 68.87 184.71 69.69 184.71C70.36 184.71 70.93 184.55 71.38 184.24C71.83 183.93 72.15 183.51 72.33 182.99H74.01C73.76 183.89 73.26 184.61 72.5 185.17C71.74 185.73 70.81 186.01 69.69 186.01C68.8 186.01 68 185.81 67.3 185.41C66.6 185.01 66.05 184.45 65.65 183.72C65.25 182.99 65.05 182.14 65.05 181.18C65.05 180.22 65.24 179.37 65.63 178.65C66.02 177.92 66.56 177.37 67.27 176.98C67.97 176.59 68.78 176.39 69.69 176.39C70.6 176.39 71.37 176.58 72.05 176.97C72.74 177.35 73.26 177.89 73.63 178.56C74 179.23 74.19 180 74.19 180.85C74.19 181.14 74.17 181.46 74.14 181.78V181.79ZM72.19 179.01C71.93 178.59 71.57 178.26 71.12 178.04C70.67 177.82 70.17 177.71 69.62 177.71C68.83 177.71 68.16 177.96 67.61 178.46C67.06 178.96 66.74 179.65 66.66 180.53H72.59C72.59 179.94 72.46 179.43 72.2 179.01H72.19Z" fill="#A6A6A6"/>
<path d="M76.25 178.67C76.64 177.95 77.17 177.39 77.85 177C78.53 176.61 79.29 176.41 80.14 176.41C80.87 176.41 81.55 176.58 82.18 176.91C82.81 177.24 83.29 177.68 83.62 178.23V173.3H85.2V185.88H83.62V184.13C83.31 184.69 82.85 185.14 82.25 185.5C81.64 185.86 80.94 186.04 80.13 186.04C79.32 186.04 78.54 185.84 77.86 185.43C77.18 185.02 76.65 184.45 76.26 183.71C75.87 182.97 75.68 182.13 75.68 181.19C75.68 180.25 75.87 179.4 76.26 178.68L76.25 178.67ZM83.18 179.36C82.89 178.84 82.51 178.44 82.02 178.16C81.53 177.88 81 177.74 80.42 177.74C79.84 177.74 79.31 177.88 78.83 178.15C78.35 178.42 77.97 178.82 77.68 179.34C77.39 179.86 77.25 180.47 77.25 181.18C77.25 181.89 77.39 182.51 77.68 183.04C77.97 183.57 78.35 183.97 78.83 184.25C79.31 184.53 79.84 184.67 80.42 184.67C81 184.67 81.54 184.53 82.02 184.25C82.51 183.97 82.89 183.57 83.18 183.04C83.47 182.51 83.61 181.9 83.61 181.2C83.61 180.5 83.47 179.89 83.18 179.36Z" fill="#A6A6A6"/>
<path d="M89.53 185.43C88.82 185.03 88.26 184.47 87.85 183.74C87.44 183.01 87.24 182.16 87.24 181.2C87.24 180.24 87.45 179.41 87.86 178.68C88.28 177.95 88.85 177.39 89.56 177C90.28 176.61 91.08 176.41 91.98 176.41C92.88 176.41 93.68 176.61 94.4 177C95.12 177.39 95.69 177.95 96.1 178.67C96.51 179.39 96.72 180.24 96.72 181.2C96.72 182.16 96.51 183.01 96.08 183.74C95.65 184.47 95.07 185.03 94.34 185.43C93.61 185.83 92.8 186.03 91.91 186.03C91.02 186.03 90.23 185.83 89.52 185.43H89.53ZM93.49 184.27C93.98 184.01 94.38 183.62 94.68 183.1C94.98 182.58 95.13 181.94 95.13 181.2C95.13 180.46 94.98 179.82 94.68 179.3C94.38 178.78 94 178.39 93.52 178.14C93.04 177.89 92.52 177.76 91.96 177.76C91.4 177.76 90.87 177.89 90.39 178.14C89.91 178.39 89.54 178.78 89.25 179.3C88.96 179.82 88.82 180.46 88.82 181.2C88.82 181.94 88.96 182.6 89.24 183.12C89.52 183.64 89.89 184.03 90.36 184.28C90.83 184.53 91.34 184.66 91.9 184.66C92.46 184.66 92.98 184.53 93.48 184.27H93.49Z" fill="#A6A6A6"/>
<path d="M98.79 178.67C99.18 177.95 99.72 177.39 100.41 177C101.1 176.6 101.89 176.41 102.78 176.41C103.93 176.41 104.88 176.69 105.63 177.24C106.38 177.79 106.87 178.57 107.11 179.55H105.43C105.27 178.98 104.96 178.54 104.5 178.21C104.04 177.88 103.46 177.72 102.78 177.72C101.89 177.72 101.17 178.02 100.62 178.63C100.07 179.24 99.8 180.1 99.8 181.21C99.8 182.32 100.07 183.2 100.62 183.81C101.17 184.42 101.89 184.73 102.78 184.73C103.46 184.73 104.04 184.57 104.49 184.25C104.95 183.93 105.26 183.48 105.43 182.89H107.11C106.86 183.84 106.36 184.6 105.6 185.18C104.85 185.75 103.9 186.04 102.77 186.04C101.88 186.04 101.09 185.84 100.4 185.44C99.71 185.04 99.17 184.48 98.78 183.76C98.39 183.03 98.2 182.18 98.2 181.21C98.2 180.24 98.39 179.41 98.78 178.69L98.79 178.67Z" fill="#A6A6A6"/>
<path d="M115.76 176.84C116.33 177.14 116.78 177.59 117.1 178.19C117.43 178.79 117.59 179.52 117.59 180.38V185.87H116.05V180.6C116.05 179.67 115.82 178.96 115.35 178.47C114.88 177.98 114.24 177.73 113.43 177.73C112.62 177.73 111.95 177.98 111.47 178.49C110.99 179 110.74 179.74 110.74 180.72V185.87H109.18V173.29H110.74V177.88C111.05 177.4 111.47 177.04 112.02 176.78C112.56 176.52 113.17 176.39 113.84 176.39C114.55 176.39 115.19 176.54 115.76 176.84Z" fill="#A6A6A6"/>
<path d="M128.66 181.79H121.16C121.22 182.71 121.53 183.42 122.11 183.94C122.69 184.46 123.39 184.71 124.21 184.71C124.88 184.71 125.45 184.55 125.9 184.24C126.35 183.93 126.67 183.51 126.85 182.99H128.53C128.28 183.89 127.78 184.61 127.02 185.17C126.26 185.73 125.33 186.01 124.21 186.01C123.32 186.01 122.52 185.81 121.82 185.41C121.12 185.01 120.57 184.45 120.17 183.72C119.77 182.99 119.57 182.14 119.57 181.18C119.57 180.22 119.76 179.37 120.15 178.65C120.54 177.92 121.08 177.37 121.79 176.98C122.49 176.59 123.3 176.39 124.21 176.39C125.12 176.39 125.89 176.58 126.57 176.97C127.26 177.35 127.78 177.89 128.15 178.56C128.52 179.23 128.71 180 128.71 180.85C128.71 181.14 128.69 181.46 128.66 181.78V181.79ZM126.7 179.01C126.44 178.59 126.08 178.26 125.63 178.04C125.18 177.82 124.68 177.71 124.13 177.71C123.34 177.71 122.67 177.96 122.12 178.46C121.57 178.96 121.25 179.65 121.17 180.53H127.1C127.1 179.94 126.97 179.43 126.71 179.01H126.7Z" fill="#A6A6A6"/>
<path d="M132.15 185.66C131.58 185.42 131.13 185.08 130.8 184.64C130.47 184.2 130.29 183.7 130.25 183.14H131.86C131.9 183.6 132.13 183.98 132.52 184.28C132.91 184.58 133.43 184.72 134.07 184.72C134.66 184.72 135.13 184.59 135.47 184.33C135.81 184.07 135.98 183.74 135.98 183.34C135.98 182.94 135.8 182.63 135.43 182.43C135.06 182.23 134.5 182.04 133.73 181.84C133.03 181.66 132.47 181.47 132.03 181.29C131.59 181.1 131.21 180.83 130.9 180.46C130.59 180.09 130.43 179.61 130.43 179.01C130.43 178.53 130.57 178.1 130.86 177.7C131.15 177.3 131.55 176.99 132.08 176.76C132.6 176.53 133.2 176.41 133.88 176.41C134.92 176.41 135.76 176.67 136.4 177.19C137.04 177.71 137.38 178.43 137.43 179.33H135.87C135.84 178.84 135.64 178.45 135.28 178.16C134.92 177.87 134.44 177.72 133.83 177.72C133.27 177.72 132.83 177.84 132.49 178.08C132.16 178.32 131.99 178.63 131.99 179.01C131.99 179.32 132.09 179.57 132.29 179.77C132.49 179.97 132.74 180.13 133.04 180.25C133.34 180.37 133.76 180.5 134.3 180.65C134.97 180.83 135.52 181.01 135.94 181.19C136.36 181.37 136.73 181.63 137.03 181.98C137.33 182.33 137.49 182.79 137.5 183.36C137.5 183.87 137.36 184.33 137.07 184.74C136.78 185.15 136.38 185.47 135.86 185.7C135.34 185.93 134.74 186.05 134.07 186.05C133.35 186.05 132.7 185.93 132.13 185.68L132.15 185.66Z" fill="#A6A6A6"/>
<path d="M18.62 203.64H13.41L12.45 206.27H10.81L15.13 194.49H16.93L21.23 206.27H19.59L18.63 203.64H18.62ZM18.17 202.38L16.01 196.4L13.85 202.38H18.17Z" fill="#A6A6A6"/>
<path d="M30.45 197.81C31.16 198.5 31.51 199.48 31.51 200.78V206.27H29.97V201C29.97 200.07 29.74 199.36 29.27 198.87C28.8 198.38 28.16 198.13 27.35 198.13C26.54 198.13 25.87 198.38 25.39 198.89C24.91 199.4 24.66 200.14 24.66 201.12V206.27H23.1V196.95H24.66V198.28C24.97 197.8 25.39 197.44 25.92 197.18C26.45 196.92 27.04 196.79 27.68 196.79C28.82 196.79 29.75 197.13 30.45 197.82V197.81Z" fill="#A6A6A6"/>
<path d="M34.12 195.14C33.91 194.94 33.81 194.69 33.81 194.39C33.81 194.09 33.91 193.85 34.12 193.64C34.33 193.43 34.58 193.33 34.87 193.33C35.16 193.33 35.4 193.43 35.6 193.64C35.8 193.84 35.9 194.09 35.9 194.39C35.9 194.69 35.8 194.93 35.6 195.14C35.4 195.34 35.16 195.45 34.87 195.45C34.58 195.45 34.32 195.35 34.12 195.14ZM35.62 196.95V206.27H34.06V196.95H35.62Z" fill="#A6A6A6"/>
<path d="M51.52 197.24C52.09 197.54 52.54 197.99 52.87 198.59C53.2 199.19 53.37 199.92 53.37 200.78V206.27H51.83V201C51.83 200.07 51.6 199.36 51.14 198.87C50.68 198.38 50.05 198.13 49.26 198.13C48.47 198.13 47.8 198.39 47.32 198.9C46.84 199.41 46.6 200.16 46.6 201.14V206.27H45.06V201C45.06 200.07 44.83 199.36 44.37 198.87C43.91 198.38 43.28 198.13 42.49 198.13C41.7 198.13 41.03 198.39 40.55 198.9C40.07 199.41 39.83 200.16 39.83 201.14V206.27H38.27V196.95H39.83V198.29C40.14 197.8 40.55 197.43 41.07 197.17C41.59 196.91 42.16 196.78 42.79 196.78C43.58 196.78 44.27 196.96 44.88 197.31C45.49 197.66 45.94 198.18 46.23 198.86C46.49 198.2 46.93 197.69 47.53 197.33C48.14 196.97 48.81 196.79 49.55 196.79C50.29 196.79 50.93 196.94 51.5 197.24H51.52Z" fill="#A6A6A6"/>
<path d="M55.92 199.07C56.31 198.35 56.84 197.79 57.52 197.4C58.2 197.01 58.96 196.81 59.79 196.81C60.62 196.81 61.33 196.99 61.93 197.34C62.54 197.69 62.99 198.13 63.28 198.67V196.97H64.86V206.29H63.28V204.56C62.97 205.1 62.51 205.56 61.9 205.91C61.29 206.27 60.58 206.45 59.77 206.45C58.96 206.45 58.18 206.25 57.51 205.84C56.84 205.43 56.31 204.86 55.92 204.12C55.53 203.38 55.34 202.54 55.34 201.6C55.34 200.66 55.53 199.81 55.92 199.09V199.07ZM62.85 199.76C62.56 199.24 62.18 198.84 61.69 198.56C61.2 198.28 60.67 198.14 60.09 198.14C59.51 198.14 58.98 198.28 58.5 198.55C58.02 198.82 57.64 199.22 57.35 199.74C57.06 200.26 56.92 200.87 56.92 201.58C56.92 202.29 57.06 202.91 57.35 203.44C57.64 203.97 58.02 204.37 58.5 204.65C58.98 204.93 59.51 205.07 60.09 205.07C60.67 205.07 61.21 204.93 61.69 204.65C62.18 204.37 62.56 203.97 62.85 203.44C63.14 202.91 63.28 202.3 63.28 201.6C63.28 200.9 63.14 200.29 62.85 199.76Z" fill="#A6A6A6"/>
<path d="M67.55 195.14C67.34 194.94 67.24 194.69 67.24 194.39C67.24 194.09 67.34 193.85 67.55 193.64C67.76 193.43 68.01 193.33 68.3 193.33C68.59 193.33 68.83 193.43 69.03 193.64C69.23 193.84 69.33 194.09 69.33 194.39C69.33 194.69 69.23 194.93 69.03 195.14C68.83 195.34 68.59 195.45 68.3 195.45C68.01 195.45 67.75 195.35 67.55 195.14ZM69.05 196.95V206.27H67.49V196.95H69.05Z" fill="#A6A6A6"/>
<path d="M73.1 206.06C72.53 205.82 72.08 205.48 71.75 205.04C71.42 204.6 71.24 204.1 71.2 203.54H72.81C72.85 204 73.08 204.38 73.47 204.68C73.86 204.98 74.38 205.12 75.02 205.12C75.61 205.12 76.08 204.99 76.42 204.73C76.76 204.47 76.93 204.14 76.93 203.74C76.93 203.34 76.75 203.03 76.38 202.83C76.01 202.63 75.45 202.44 74.68 202.24C73.98 202.06 73.42 201.87 72.98 201.69C72.54 201.5 72.16 201.23 71.85 200.86C71.54 200.49 71.38 200.01 71.38 199.41C71.38 198.93 71.52 198.5 71.81 198.1C72.1 197.7 72.5 197.39 73.03 197.16C73.55 196.93 74.15 196.81 74.83 196.81C75.87 196.81 76.71 197.07 77.35 197.59C77.99 198.11 78.33 198.83 78.38 199.73H76.82C76.79 199.24 76.59 198.85 76.23 198.56C75.87 198.27 75.39 198.12 74.78 198.12C74.22 198.12 73.78 198.24 73.44 198.48C73.11 198.72 72.94 199.03 72.94 199.41C72.94 199.72 73.04 199.97 73.24 200.17C73.44 200.37 73.69 200.53 73.99 200.65C74.29 200.77 74.71 200.9 75.25 201.05C75.92 201.23 76.47 201.41 76.89 201.59C77.31 201.77 77.68 202.03 77.98 202.38C78.28 202.73 78.44 203.19 78.45 203.76C78.45 204.27 78.31 204.73 78.02 205.14C77.73 205.55 77.33 205.87 76.81 206.1C76.29 206.33 75.69 206.45 75.02 206.45C74.3 206.45 73.65 206.33 73.08 206.08L73.1 206.06Z" fill="#A6A6A6"/>
<path d="M92.32 195.14C93.27 195.62 94 196.31 94.51 197.21C95.02 198.1 95.27 199.16 95.27 200.37C95.27 201.58 95.02 202.63 94.51 203.52C94 204.41 93.27 205.09 92.32 205.56C91.37 206.03 90.24 206.27 88.94 206.27H85.22V194.42H88.94C90.24 194.42 91.37 194.66 92.32 195.14ZM92.47 203.78C93.28 202.97 93.69 201.83 93.69 200.37C93.69 198.91 93.28 197.75 92.47 196.92C91.66 196.09 90.48 195.68 88.95 195.68H86.79V205H88.95C90.49 205 91.67 204.6 92.48 203.79L92.47 203.78Z" fill="#A6A6A6"/>
<path d="M99.03 205.83C98.32 205.43 97.76 204.87 97.35 204.14C96.94 203.41 96.74 202.56 96.74 201.6C96.74 200.64 96.95 199.81 97.36 199.08C97.78 198.35 98.35 197.79 99.06 197.4C99.78 197.01 100.58 196.81 101.48 196.81C102.38 196.81 103.18 197.01 103.9 197.4C104.62 197.79 105.19 198.35 105.6 199.07C106.01 199.79 106.22 200.64 106.22 201.6C106.22 202.56 106.01 203.41 105.58 204.14C105.15 204.87 104.57 205.43 103.84 205.83C103.11 206.23 102.3 206.43 101.41 206.43C100.52 206.43 99.73 206.23 99.02 205.83H99.03ZM103 204.67C103.49 204.41 103.89 204.02 104.19 203.5C104.49 202.98 104.64 202.34 104.64 201.6C104.64 200.86 104.49 200.22 104.19 199.7C103.89 199.18 103.51 198.79 103.03 198.54C102.55 198.29 102.03 198.16 101.47 198.16C100.91 198.16 100.38 198.29 99.9 198.54C99.42 198.79 99.05 199.18 98.76 199.7C98.47 200.22 98.33 200.86 98.33 201.6C98.33 202.34 98.47 203 98.75 203.52C99.03 204.04 99.4 204.43 99.87 204.68C100.34 204.93 100.85 205.06 101.41 205.06C101.97 205.06 102.49 204.93 102.99 204.67H103Z" fill="#A6A6A6"/>
<path d="M121.53 197.24C122.1 197.54 122.55 197.99 122.88 198.59C123.21 199.19 123.38 199.92 123.38 200.78V206.27H121.84V201C121.84 200.07 121.61 199.36 121.15 198.87C120.69 198.38 120.06 198.13 119.27 198.13C118.48 198.13 117.81 198.39 117.33 198.9C116.85 199.41 116.61 200.16 116.61 201.14V206.27H115.07V201C115.07 200.07 114.84 199.36 114.38 198.87C113.92 198.38 113.29 198.13 112.5 198.13C111.71 198.13 111.04 198.39 110.56 198.9C110.08 199.41 109.84 200.16 109.84 201.14V206.27H108.28V196.95H109.84V198.29C110.15 197.8 110.56 197.43 111.08 197.17C111.6 196.91 112.17 196.78 112.8 196.78C113.59 196.78 114.28 196.96 114.89 197.31C115.5 197.66 115.95 198.18 116.24 198.86C116.5 198.2 116.94 197.69 117.54 197.33C118.15 196.97 118.82 196.79 119.56 196.79C120.3 196.79 120.94 196.94 121.51 197.24H121.53Z" fill="#A6A6A6"/>
<path d="M134.44 202.19H126.94C127 203.11 127.31 203.82 127.89 204.34C128.47 204.86 129.17 205.11 129.99 205.11C130.66 205.11 131.23 204.95 131.68 204.64C132.13 204.33 132.45 203.91 132.63 203.39H134.31C134.06 204.29 133.56 205.01 132.8 205.57C132.04 206.13 131.11 206.41 129.99 206.41C129.1 206.41 128.3 206.21 127.6 205.81C126.9 205.41 126.35 204.85 125.95 204.12C125.55 203.39 125.35 202.54 125.35 201.58C125.35 200.62 125.54 199.77 125.93 199.05C126.32 198.32 126.86 197.77 127.57 197.38C128.27 196.99 129.08 196.79 129.99 196.79C130.9 196.79 131.67 196.98 132.35 197.37C133.04 197.75 133.56 198.29 133.93 198.96C134.3 199.63 134.49 200.4 134.49 201.25C134.49 201.54 134.47 201.86 134.44 202.18V202.19ZM132.49 199.41C132.23 198.99 131.87 198.66 131.42 198.44C130.97 198.22 130.47 198.11 129.92 198.11C129.13 198.11 128.46 198.36 127.91 198.86C127.36 199.36 127.04 200.05 126.96 200.93H132.89C132.89 200.34 132.76 199.83 132.5 199.41H132.49ZM131.6 194.32L127.95 196.26V195.1L131.6 192.98V194.32Z" fill="#A6A6A6"/>
<path d="M137.94 206.06C137.37 205.82 136.92 205.48 136.59 205.04C136.26 204.6 136.08 204.1 136.04 203.54H137.65C137.69 204 137.92 204.38 138.31 204.68C138.7 204.98 139.22 205.12 139.86 205.12C140.45 205.12 140.92 204.99 141.26 204.73C141.6 204.47 141.77 204.14 141.77 203.74C141.77 203.34 141.59 203.03 141.22 202.83C140.85 202.63 140.29 202.44 139.52 202.24C138.82 202.06 138.26 201.87 137.82 201.69C137.38 201.5 137 201.23 136.69 200.86C136.38 200.49 136.22 200.01 136.22 199.41C136.22 198.93 136.36 198.5 136.65 198.1C136.94 197.7 137.34 197.39 137.87 197.16C138.39 196.93 138.99 196.81 139.67 196.81C140.71 196.81 141.55 197.07 142.19 197.59C142.83 198.11 143.17 198.83 143.22 199.73H141.66C141.63 199.24 141.43 198.85 141.07 198.56C140.71 198.27 140.23 198.12 139.62 198.12C139.06 198.12 138.62 198.24 138.28 198.48C137.95 198.72 137.78 199.03 137.78 199.41C137.78 199.72 137.88 199.97 138.08 200.17C138.28 200.37 138.53 200.53 138.83 200.65C139.13 200.77 139.55 200.9 140.09 201.05C140.76 201.23 141.31 201.41 141.73 201.59C142.15 201.77 142.52 202.03 142.82 202.38C143.12 202.73 143.28 203.19 143.29 203.76C143.29 204.27 143.15 204.73 142.86 205.14C142.57 205.55 142.17 205.87 141.65 206.1C141.13 206.33 140.53 206.45 139.86 206.45C139.14 206.45 138.49 206.33 137.92 206.08L137.94 206.06Z" fill="#A6A6A6"/>
<path d="M147.39 198.23V203.72C147.39 204.17 147.49 204.49 147.68 204.68C147.87 204.87 148.21 204.96 148.69 204.96H149.84V206.27H148.44C147.57 206.27 146.92 206.07 146.49 205.68C146.06 205.28 145.84 204.63 145.84 203.72V198.23H144.62V196.95H145.84V194.6H147.4V196.95H149.85V198.23H147.4H147.39Z" fill="#A6A6A6"/>
<path d="M151.78 195.14C151.57 194.94 151.47 194.69 151.47 194.39C151.47 194.09 151.57 193.85 151.78 193.64C151.99 193.43 152.24 193.33 152.53 193.33C152.82 193.33 153.06 193.43 153.26 193.64C153.46 193.84 153.56 194.09 153.56 194.39C153.56 194.69 153.46 194.93 153.26 195.14C153.06 195.34 152.82 195.45 152.53 195.45C152.24 195.45 151.98 195.35 151.78 195.14ZM153.28 196.95V206.27H151.72V196.95H153.28Z" fill="#A6A6A6"/>
<path d="M155.94 199.07C156.33 198.35 156.87 197.79 157.56 197.4C158.25 197 159.04 196.81 159.93 196.81C161.08 196.81 162.03 197.09 162.78 197.64C163.53 198.19 164.02 198.97 164.26 199.95H162.58C162.42 199.38 162.11 198.94 161.65 198.61C161.19 198.28 160.61 198.12 159.93 198.12C159.04 198.12 158.32 198.42 157.77 199.03C157.22 199.64 156.95 200.5 156.95 201.61C156.95 202.72 157.22 203.6 157.77 204.21C158.32 204.82 159.04 205.13 159.93 205.13C160.61 205.13 161.19 204.97 161.64 204.65C162.1 204.33 162.41 203.88 162.58 203.29H164.26C164.01 204.24 163.51 205 162.75 205.58C162 206.15 161.05 206.44 159.92 206.44C159.03 206.44 158.24 206.24 157.55 205.84C156.86 205.44 156.32 204.88 155.93 204.16C155.54 203.43 155.35 202.58 155.35 201.61C155.35 200.64 155.54 199.81 155.93 199.09L155.94 199.07Z" fill="#A6A6A6"/>
<path d="M168.04 205.83C167.33 205.43 166.77 204.87 166.36 204.14C165.95 203.41 165.75 202.56 165.75 201.6C165.75 200.64 165.96 199.81 166.37 199.08C166.79 198.35 167.36 197.79 168.07 197.4C168.79 197.01 169.59 196.81 170.49 196.81C171.39 196.81 172.19 197.01 172.91 197.4C173.63 197.79 174.2 198.35 174.61 199.07C175.02 199.79 175.23 200.64 175.23 201.6C175.23 202.56 175.02 203.41 174.59 204.14C174.16 204.87 173.58 205.43 172.85 205.83C172.12 206.23 171.31 206.43 170.42 206.43C169.53 206.43 168.74 206.23 168.03 205.83H168.04ZM172 204.67C172.49 204.41 172.89 204.02 173.19 203.5C173.49 202.98 173.64 202.34 173.64 201.6C173.64 200.86 173.49 200.22 173.19 199.7C172.89 199.18 172.51 198.79 172.03 198.54C171.55 198.29 171.03 198.16 170.47 198.16C169.91 198.16 169.38 198.29 168.9 198.54C168.42 198.79 168.05 199.18 167.76 199.7C167.47 200.22 167.33 200.86 167.33 201.6C167.33 202.34 167.47 203 167.75 203.52C168.03 204.04 168.4 204.43 168.87 204.68C169.34 204.93 169.85 205.06 170.41 205.06C170.97 205.06 171.49 204.93 171.99 204.67H172Z" fill="#A6A6A6"/>
<path d="M178.68 206.06C178.11 205.82 177.66 205.48 177.33 205.04C177 204.6 176.82 204.1 176.78 203.54H178.39C178.43 204 178.66 204.38 179.05 204.68C179.44 204.98 179.96 205.12 180.6 205.12C181.19 205.12 181.66 204.99 182 204.73C182.34 204.47 182.51 204.14 182.51 203.74C182.51 203.34 182.33 203.03 181.96 202.83C181.59 202.63 181.03 202.44 180.26 202.24C179.56 202.06 179 201.87 178.56 201.69C178.12 201.5 177.74 201.23 177.43 200.86C177.12 200.49 176.96 200.01 176.96 199.41C176.96 198.93 177.1 198.5 177.39 198.1C177.68 197.7 178.08 197.39 178.61 197.16C179.13 196.93 179.73 196.81 180.41 196.81C181.45 196.81 182.29 197.07 182.93 197.59C183.57 198.11 183.91 198.83 183.96 199.73H182.4C182.37 199.24 182.17 198.85 181.81 198.56C181.45 198.27 180.97 198.12 180.36 198.12C179.8 198.12 179.36 198.24 179.02 198.48C178.69 198.72 178.52 199.03 178.52 199.41C178.52 199.72 178.62 199.97 178.82 200.17C179.02 200.37 179.27 200.53 179.57 200.65C179.87 200.77 180.29 200.9 180.83 201.05C181.5 201.23 182.05 201.41 182.47 201.59C182.89 201.77 183.26 202.03 183.56 202.38C183.86 202.73 184.02 203.19 184.03 203.76C184.03 204.27 183.89 204.73 183.6 205.14C183.31 205.55 182.91 205.87 182.39 206.1C181.87 206.33 181.27 206.45 180.6 206.45C179.88 206.45 179.23 206.33 178.66 206.08L178.68 206.06Z" fill="#A6A6A6"/>
<path d="M121.56 7.35012C121.56 7.10012 121.57 6.85011 121.53 6.61011C121.5 6.41011 121.95 5.12011 121.77 5.11011C120.94 5.04011 119.7 5.67012 118.84 5.85012C118.27 5.96012 117.64 6.12011 117.01 6.33011C115.91 6.12011 114.78 5.94011 113.64 5.78011C113.58 5.21011 113.54 4.70011 113.54 4.50011C113.53 3.71011 113.57 2.57011 113.28 1.83011C113.11 1.39011 112.42 2.10012 112.23 2.27012C110.75 3.63012 108.38 4.17011 106.53 4.84011C106.33 4.91011 106.15 5.01012 105.97 5.10012C105.4 5.08012 104.83 5.05011 104.25 5.04011C104.47 4.48011 104.72 3.93011 105.06 3.39011C105.26 3.08011 106.71 0.560109 106.4 0.590109C103.28 0.840109 100.24 0.780106 97.33 2.29011C95.44 3.26011 93.51 4.37011 91.81 5.67011C91.24 5.73011 90.68 5.79011 90.1 5.87011C90.65 4.98011 91.43 3.82012 91.34 3.21012C91.32 3.04012 89.1 3.90011 89.02 3.92011C87.3 4.45011 85.62 5.08011 83.85 5.43011C81.37 5.93011 79.08 6.75011 76.69 7.53011C76.57 7.57011 74.23 8.70012 74.57 8.07012C74.87 7.52012 74.77 6.68011 75.01 6.09011L75.03 6.05012C75.45 5.01012 75.82 4.10011 76.35 3.09011C77.21 1.46011 74.33 3.81011 74.05 4.06011C71.57 6.24011 69.24 8.32011 67.99 11.4301C67.54 11.6101 67.11 11.8001 66.67 11.9901C66.45 11.6201 66.27 11.2001 66.12 10.8901C65.72 10.0501 65.71 9.25011 65.54 8.39011C65.42 7.79011 65.13 8.33011 64.92 8.62011C63.43 10.6901 61.8 12.6801 60.6 14.9201C38.93 26.7801 29.3 48.1901 32.74 74.1001C37.45 109.65 55.16 136.62 106.18 129.86C157.2 123.1 167.26 92.4401 162.55 56.8901C159.18 31.4801 144.81 13.5101 121.59 7.35012H121.56Z" fill="white" stroke="#222221"/>
<path d="M146.8 58.3499C151.75 71.7799 154.87 88.6899 144.07 92.6699C133.27 96.6499 118.13 92.6699 113.18 79.2499C108.23 65.8199 102.99 49.1899 113.79 45.2099C124.59 41.2299 141.85 44.9199 146.8 58.3499Z" fill="white" stroke="#010200" stroke-width="0.75"/>
<path d="M105.086 124.081C120.301 122.065 131.503 111.891 130.107 101.357C128.711 90.823 115.245 83.9185 100.03 85.9351C84.8147 87.9517 73.6124 98.1258 75.0086 108.66C76.4047 119.193 89.8707 126.098 105.086 124.081Z" fill="white" stroke="#010200" stroke-width="0.5"/>
<path d="M104.83 119.57C97.63 120.53 96.73 114.71 97.16 108.46C99.31 105.16 106 106.03 109.08 106.88C110.68 112.87 112.04 118.62 104.83 119.57Z" fill="black"/>
<path d="M104.76 119.04C97.56 120 96.66 114.18 97.09 107.93C99.24 104.63 105.93 105.5 109.01 106.35C110.61 112.34 111.97 118.09 104.76 119.04Z" fill="white" stroke="#010200" stroke-width="0.5"/>
<path d="M135.718 90.9123C143.323 89.9044 148.702 83.1577 147.733 75.8431C146.763 68.5286 139.812 63.4161 132.208 64.424C124.603 65.4319 119.224 72.1786 120.193 79.4932C121.163 86.8077 128.114 91.9203 135.718 90.9123Z" fill="#010200"/>
<path d="M67.9076 99.904C75.5123 98.8961 80.8912 92.1494 79.9217 84.8349C78.9523 77.5203 72.0015 72.4078 64.3968 73.4157C56.7921 74.4236 51.4131 81.1704 52.3826 88.4849C53.3521 95.7995 60.3028 100.912 67.9076 99.904Z" fill="#010200"/>
<path d="M113.55 107.57C108.42 108.25 104.18 107.24 101.99 106.2C101.32 105.88 101.04 105.08 101.36 104.42C101.68 103.76 102.48 103.47 103.14 103.79C106.36 105.33 114.77 106.73 123.55 101C124.17 100.59 125 100.77 125.4 101.39C125.8 102.01 125.63 102.84 125.01 103.24C121.02 105.84 117.07 107.11 113.54 107.58L113.55 107.57Z" fill="#010200"/>
<path d="M91.83 110.45C86.7 111.13 82.46 110.12 80.27 109.08C79.6 108.76 79.32 107.96 79.64 107.3C79.96 106.64 80.76 106.35 81.42 106.67C84.64 108.21 93.05 109.61 101.83 103.88C102.45 103.47 103.28 103.65 103.68 104.27C104.08 104.89 103.91 105.72 103.29 106.12C99.3 108.72 95.35 109.99 91.82 110.46L91.83 110.45Z" fill="#010200"/>
<path d="M67.89 83.6901C69.2155 83.6901 70.29 82.6156 70.29 81.2901C70.29 79.9646 69.2155 78.8901 67.89 78.8901C66.5645 78.8901 65.49 79.9646 65.49 81.2901C65.49 82.6156 66.5645 83.6901 67.89 83.6901Z" fill="white"/>
<path d="M135.69 74.6999C137.016 74.6999 138.09 73.6254 138.09 72.2999C138.09 70.9744 137.016 69.8999 135.69 69.8999C134.365 69.8999 133.29 70.9744 133.29 72.2999C133.29 73.6254 134.365 74.6999 135.69 74.6999Z" fill="white"/>
<path d="M108.93 92.02C109.34 95.09 106.6 101.76 102.21 102.34C97.82 102.92 93.44 97.2 93.03 94.12C92.62 91.04 95.85 88.09 100.24 87.5C104.63 86.91 108.52 88.94 108.92 92.01L108.93 92.02Z" fill="#010200"/>
<path d="M169.25 62.9503C158.51 43.1403 134.39 18.0703 123.67 8.02026C172.5 -11.0997 187.89 19.4502 189.49 37.1202C191.08 54.7902 180 82.7603 169.26 62.9503H169.25Z" fill="white" stroke="#010200"/>
<path d="M27.76 81.7101C32.96 59.7901 49.72 29.3001 57.45 16.7901C5.32 11.0501 -1.57 44.5701 1.49 62.0401C4.56 79.5101 22.55 103.63 27.75 81.7101H27.76Z" fill="white" stroke="#010200"/>
<path d="M103.63 115.09C103.65 115.24 103.78 115.34 103.93 115.32C104.08 115.3 104.18 115.17 104.16 115.02L103.63 115.09ZM102.51 106.62L103.63 115.1L104.16 115.03L103.04 106.55L102.51 106.62Z" fill="#010200"/>
</svg>
