<svg width="228" height="232" viewBox="0 0 228 232" fill="none" xmlns="http://www.w3.org/2000/svg">
<path d="M80.07 195.74C81.02 196.22 81.75 196.91 82.26 197.81C82.77 198.7 83.02 199.76 83.02 200.97C83.02 202.18 82.77 203.23 82.26 204.12C81.75 205.01 81.02 205.69 80.07 206.16C79.12 206.63 77.99 206.87 76.69 206.87H72.97V195.02H76.69C77.99 195.02 79.12 195.26 80.07 195.74ZM80.22 204.38C81.03 203.57 81.44 202.43 81.44 200.97C81.44 199.51 81.03 198.35 80.22 197.52C79.41 196.69 78.23 196.28 76.7 196.28H74.54V205.6H76.7C78.24 205.6 79.42 205.2 80.23 204.39L80.22 204.38Z" fill="#A6A6A6"/>
<path d="M93.6 202.79H86.1C86.16 203.71 86.47 204.42 87.05 204.94C87.63 205.46 88.33 205.71 89.15 205.71C89.82 205.71 90.39 205.55 90.84 205.24C91.29 204.93 91.61 204.51 91.79 203.99H93.47C93.22 204.89 92.72 205.61 91.96 206.17C91.2 206.73 90.27 207.01 89.15 207.01C88.26 207.01 87.46 206.81 86.76 206.41C86.06 206.01 85.51 205.45 85.11 204.72C84.71 203.99 84.51 203.14 84.51 202.18C84.51 201.22 84.7 200.37 85.09 199.65C85.48 198.92 86.02 198.37 86.73 197.98C87.43 197.59 88.24 197.39 89.15 197.39C90.06 197.39 90.83 197.58 91.51 197.97C92.2 198.35 92.72 198.89 93.09 199.56C93.46 200.23 93.65 201 93.65 201.85C93.65 202.14 93.63 202.46 93.6 202.78V202.79ZM91.64 200.01C91.38 199.59 91.02 199.26 90.57 199.04C90.12 198.82 89.62 198.71 89.07 198.71C88.28 198.71 87.61 198.96 87.06 199.46C86.51 199.96 86.19 200.65 86.11 201.53H92.04C92.04 200.94 91.91 200.43 91.65 200.01H91.64Z" fill="#A6A6A6"/>
<path d="M95.6999 199.67C96.0899 198.95 96.6199 198.39 97.2999 198C97.9799 197.61 98.7399 197.41 99.5899 197.41C100.32 197.41 101 197.58 101.63 197.91C102.26 198.24 102.74 198.68 103.07 199.23V194.3H104.65V206.88H103.07V205.13C102.76 205.69 102.3 206.14 101.7 206.5C101.09 206.86 100.39 207.04 99.5799 207.04C98.7699 207.04 97.9899 206.84 97.3099 206.43C96.6299 206.02 96.0999 205.45 95.7099 204.71C95.3199 203.97 95.1299 203.13 95.1299 202.19C95.1299 201.25 95.3199 200.4 95.7099 199.68L95.6999 199.67ZM102.64 200.36C102.35 199.84 101.97 199.44 101.48 199.16C100.99 198.88 100.46 198.74 99.8799 198.74C99.2999 198.74 98.7699 198.88 98.2899 199.15C97.8099 199.42 97.4299 199.82 97.1399 200.34C96.8499 200.86 96.7099 201.47 96.7099 202.18C96.7099 202.89 96.8499 203.51 97.1399 204.04C97.4299 204.57 97.8099 204.97 98.2899 205.25C98.7699 205.53 99.2999 205.67 99.8799 205.67C100.46 205.67 101 205.53 101.48 205.25C101.97 204.97 102.35 204.57 102.64 204.04C102.93 203.51 103.07 202.9 103.07 202.2C103.07 201.5 102.93 200.89 102.64 200.36Z" fill="#A6A6A6"/>
<path d="M108.98 206.43C108.27 206.03 107.71 205.47 107.3 204.74C106.89 204.01 106.69 203.16 106.69 202.2C106.69 201.24 106.9 200.41 107.31 199.68C107.73 198.95 108.3 198.39 109.01 198C109.73 197.61 110.53 197.41 111.43 197.41C112.33 197.41 113.13 197.61 113.85 198C114.57 198.39 115.14 198.95 115.55 199.67C115.96 200.39 116.17 201.24 116.17 202.2C116.17 203.16 115.96 204.01 115.53 204.74C115.1 205.47 114.52 206.03 113.79 206.43C113.06 206.83 112.25 207.03 111.36 207.03C110.47 207.03 109.68 206.83 108.97 206.43H108.98ZM112.95 205.27C113.44 205.01 113.84 204.62 114.14 204.1C114.44 203.58 114.59 202.94 114.59 202.2C114.59 201.46 114.44 200.82 114.14 200.3C113.84 199.78 113.46 199.39 112.98 199.14C112.5 198.89 111.98 198.76 111.42 198.76C110.86 198.76 110.33 198.89 109.85 199.14C109.37 199.39 109 199.78 108.71 200.3C108.42 200.82 108.28 201.46 108.28 202.2C108.28 202.94 108.42 203.6 108.7 204.12C108.98 204.64 109.35 205.03 109.82 205.28C110.29 205.53 110.8 205.66 111.36 205.66C111.92 205.66 112.44 205.53 112.94 205.27H112.95Z" fill="#A6A6A6"/>
<path d="M118.24 199.67C118.63 198.95 119.17 198.39 119.86 198C120.55 197.6 121.34 197.41 122.23 197.41C123.38 197.41 124.33 197.69 125.08 198.24C125.83 198.79 126.32 199.57 126.56 200.55H124.88C124.72 199.98 124.41 199.54 123.95 199.21C123.49 198.88 122.91 198.72 122.23 198.72C121.34 198.72 120.62 199.02 120.07 199.63C119.52 200.24 119.25 201.1 119.25 202.21C119.25 203.32 119.52 204.2 120.07 204.81C120.62 205.42 121.34 205.73 122.23 205.73C122.91 205.73 123.49 205.57 123.94 205.25C124.4 204.93 124.71 204.48 124.88 203.89H126.56C126.31 204.84 125.81 205.6 125.05 206.18C124.3 206.75 123.35 207.04 122.22 207.04C121.33 207.04 120.54 206.84 119.85 206.44C119.16 206.04 118.62 205.48 118.23 204.76C117.84 204.03 117.65 203.18 117.65 202.21C117.65 201.24 117.84 200.41 118.23 199.69L118.24 199.67Z" fill="#A6A6A6"/>
<path d="M135.21 197.84C135.78 198.14 136.23 198.59 136.55 199.19C136.88 199.79 137.04 200.52 137.04 201.38V206.87H135.5V201.6C135.5 200.67 135.27 199.96 134.8 199.47C134.33 198.98 133.69 198.73 132.88 198.73C132.07 198.73 131.4 198.98 130.92 199.49C130.44 200 130.19 200.74 130.19 201.72V206.87H128.63V194.29H130.19V198.88C130.5 198.4 130.92 198.04 131.47 197.78C132.01 197.52 132.62 197.39 133.29 197.39C134 197.39 134.64 197.54 135.21 197.84Z" fill="#A6A6A6"/>
<path d="M148.11 202.79H140.61C140.67 203.71 140.98 204.42 141.56 204.94C142.14 205.46 142.84 205.71 143.66 205.71C144.33 205.71 144.9 205.55 145.35 205.24C145.8 204.93 146.12 204.51 146.3 203.99H147.98C147.73 204.89 147.23 205.61 146.47 206.17C145.71 206.73 144.78 207.01 143.66 207.01C142.77 207.01 141.97 206.81 141.27 206.41C140.57 206.01 140.02 205.45 139.62 204.72C139.22 203.99 139.02 203.14 139.02 202.18C139.02 201.22 139.21 200.37 139.6 199.65C139.99 198.92 140.53 198.37 141.24 197.98C141.94 197.59 142.75 197.39 143.66 197.39C144.57 197.39 145.34 197.58 146.02 197.97C146.71 198.35 147.23 198.89 147.6 199.56C147.97 200.23 148.16 201 148.16 201.85C148.16 202.14 148.14 202.46 148.11 202.78V202.79ZM146.16 200.01C145.9 199.59 145.54 199.26 145.09 199.04C144.64 198.82 144.14 198.71 143.59 198.71C142.8 198.71 142.13 198.96 141.58 199.46C141.03 199.96 140.71 200.65 140.63 201.53H146.56C146.56 200.94 146.43 200.43 146.17 200.01H146.16Z" fill="#A6A6A6"/>
<path d="M151.6 206.66C151.03 206.42 150.58 206.08 150.25 205.64C149.92 205.2 149.74 204.7 149.7 204.14H151.31C151.35 204.6 151.58 204.98 151.97 205.28C152.36 205.58 152.88 205.72 153.52 205.72C154.11 205.72 154.58 205.59 154.92 205.33C155.26 205.07 155.43 204.74 155.43 204.34C155.43 203.94 155.25 203.63 154.88 203.43C154.51 203.23 153.95 203.04 153.18 202.84C152.48 202.66 151.92 202.47 151.48 202.29C151.04 202.1 150.66 201.83 150.35 201.46C150.04 201.09 149.88 200.61 149.88 200.01C149.88 199.53 150.02 199.1 150.31 198.7C150.6 198.3 151 197.99 151.53 197.76C152.05 197.53 152.65 197.41 153.33 197.41C154.37 197.41 155.21 197.67 155.85 198.19C156.49 198.71 156.83 199.43 156.88 200.33H155.32C155.29 199.84 155.09 199.45 154.73 199.16C154.37 198.87 153.89 198.72 153.28 198.72C152.72 198.72 152.28 198.84 151.94 199.08C151.61 199.32 151.44 199.63 151.44 200.01C151.44 200.32 151.54 200.57 151.74 200.77C151.94 200.97 152.19 201.13 152.49 201.25C152.79 201.37 153.21 201.5 153.75 201.65C154.42 201.83 154.97 202.01 155.39 202.19C155.81 202.37 156.18 202.63 156.48 202.98C156.78 203.33 156.94 203.79 156.95 204.36C156.95 204.87 156.81 205.33 156.52 205.74C156.23 206.15 155.83 206.47 155.31 206.7C154.79 206.93 154.19 207.05 153.52 207.05C152.8 207.05 152.15 206.93 151.58 206.68L151.6 206.66Z" fill="#A6A6A6"/>
<path d="M44.4899 224.64H39.28L38.3199 227.27H36.6799L40.9999 215.49H42.7999L47.0999 227.27H45.46L44.4999 224.64H44.4899ZM44.0499 223.38L41.89 217.4L39.7299 223.38H44.0499Z" fill="#A6A6A6"/>
<path d="M56.33 218.81C57.04 219.5 57.39 220.48 57.39 221.78V227.27H55.85V222C55.85 221.07 55.62 220.36 55.15 219.87C54.68 219.38 54.04 219.13 53.23 219.13C52.42 219.13 51.75 219.38 51.27 219.89C50.79 220.4 50.54 221.14 50.54 222.12V227.27H48.98V217.95H50.54V219.28C50.85 218.8 51.27 218.44 51.8 218.18C52.33 217.92 52.92 217.79 53.56 217.79C54.7 217.79 55.63 218.13 56.33 218.82V218.81Z" fill="#A6A6A6"/>
<path d="M59.9899 216.14C59.7799 215.94 59.6799 215.69 59.6799 215.39C59.6799 215.09 59.7799 214.85 59.9899 214.64C60.1999 214.43 60.4499 214.33 60.7399 214.33C61.0299 214.33 61.2699 214.43 61.4699 214.64C61.6699 214.84 61.77 215.09 61.77 215.39C61.77 215.69 61.6699 215.93 61.4699 216.14C61.2699 216.34 61.0299 216.45 60.7399 216.45C60.4499 216.45 60.1899 216.35 59.9899 216.14ZM61.4999 217.95V227.27H59.9399V217.95H61.4999Z" fill="#A6A6A6"/>
<path d="M77.3899 218.24C77.9599 218.54 78.4099 218.99 78.7399 219.59C79.0699 220.19 79.2399 220.92 79.2399 221.78V227.27H77.6999V222C77.6999 221.07 77.4699 220.36 77.0099 219.87C76.5499 219.38 75.9199 219.13 75.1299 219.13C74.3399 219.13 73.6699 219.39 73.1899 219.9C72.7099 220.41 72.4698 221.16 72.4698 222.14V227.27H70.9299V222C70.9299 221.07 70.6999 220.36 70.2399 219.87C69.7799 219.38 69.1499 219.13 68.3599 219.13C67.5699 219.13 66.8999 219.39 66.4199 219.9C65.9399 220.41 65.6999 221.16 65.6999 222.14V227.27H64.1399V217.95H65.6999V219.29C66.0099 218.8 66.4199 218.43 66.9399 218.17C67.4599 217.91 68.0299 217.78 68.6599 217.78C69.4499 217.78 70.1399 217.96 70.7499 218.31C71.3599 218.66 71.8099 219.18 72.0999 219.86C72.3599 219.2 72.7999 218.69 73.3999 218.33C74.0099 217.97 74.6799 217.79 75.4199 217.79C76.1599 217.79 76.7999 217.94 77.3699 218.24H77.3899Z" fill="#A6A6A6"/>
<path d="M81.7899 220.07C82.1799 219.35 82.71 218.79 83.39 218.4C84.07 218.01 84.8299 217.81 85.6599 217.81C86.4899 217.81 87.1999 217.99 87.7999 218.34C88.4099 218.69 88.86 219.13 89.15 219.67V217.97H90.7299V227.29H89.15V225.56C88.84 226.1 88.38 226.56 87.77 226.91C87.16 227.27 86.45 227.45 85.64 227.45C84.83 227.45 84.0499 227.25 83.3799 226.84C82.7099 226.43 82.1799 225.86 81.7899 225.12C81.3999 224.38 81.21 223.54 81.21 222.6C81.21 221.66 81.3999 220.81 81.7899 220.09V220.07ZM88.7299 220.76C88.4399 220.24 88.0599 219.84 87.5699 219.56C87.0799 219.28 86.5499 219.14 85.9699 219.14C85.3899 219.14 84.8599 219.28 84.3799 219.55C83.8999 219.82 83.5199 220.22 83.2299 220.74C82.9399 221.26 82.7999 221.87 82.7999 222.58C82.7999 223.29 82.9399 223.91 83.2299 224.44C83.5199 224.97 83.8999 225.37 84.3799 225.65C84.8599 225.93 85.3899 226.07 85.9699 226.07C86.5499 226.07 87.0899 225.93 87.5699 225.65C88.0599 225.37 88.4399 224.97 88.7299 224.44C89.0199 223.91 89.1599 223.3 89.1599 222.6C89.1599 221.9 89.0199 221.29 88.7299 220.76Z" fill="#A6A6A6"/>
<path d="M93.4199 216.14C93.2099 215.94 93.1099 215.69 93.1099 215.39C93.1099 215.09 93.2099 214.85 93.4199 214.64C93.6299 214.43 93.8799 214.33 94.1699 214.33C94.4599 214.33 94.6999 214.43 94.8999 214.64C95.0999 214.84 95.1999 215.09 95.1999 215.39C95.1999 215.69 95.0999 215.93 94.8999 216.14C94.6999 216.34 94.4599 216.45 94.1699 216.45C93.8799 216.45 93.6199 216.35 93.4199 216.14ZM94.9299 217.95V227.27H93.3699V217.95H94.9299Z" fill="#A6A6A6"/>
<path d="M98.9699 227.06C98.3999 226.82 97.9499 226.48 97.6199 226.04C97.2899 225.6 97.1099 225.1 97.0699 224.54H98.6799C98.7199 225 98.95 225.38 99.34 225.68C99.73 225.98 100.25 226.12 100.89 226.12C101.48 226.12 101.95 225.99 102.29 225.73C102.63 225.47 102.8 225.14 102.8 224.74C102.8 224.34 102.62 224.03 102.25 223.83C101.88 223.63 101.32 223.44 100.55 223.24C99.8499 223.06 99.2899 222.87 98.8499 222.69C98.4099 222.5 98.0299 222.23 97.7199 221.86C97.4099 221.49 97.2499 221.01 97.2499 220.41C97.2499 219.93 97.3899 219.5 97.6799 219.1C97.9699 218.7 98.37 218.39 98.9 218.16C99.42 217.93 100.02 217.81 100.7 217.81C101.74 217.81 102.58 218.07 103.22 218.59C103.86 219.11 104.2 219.83 104.25 220.73H102.69C102.66 220.24 102.46 219.85 102.1 219.56C101.74 219.27 101.26 219.12 100.65 219.12C100.09 219.12 99.6499 219.24 99.3099 219.48C98.9799 219.72 98.8099 220.03 98.8099 220.41C98.8099 220.72 98.9099 220.97 99.1099 221.17C99.3099 221.37 99.5599 221.53 99.8599 221.65C100.16 221.77 100.58 221.9 101.12 222.05C101.79 222.23 102.34 222.41 102.76 222.59C103.18 222.77 103.55 223.03 103.85 223.38C104.15 223.73 104.31 224.19 104.32 224.76C104.32 225.27 104.18 225.73 103.89 226.14C103.6 226.55 103.2 226.87 102.68 227.1C102.16 227.33 101.56 227.45 100.89 227.45C100.17 227.45 99.52 227.33 98.95 227.08L98.9699 227.06Z" fill="#A6A6A6"/>
<path d="M112.77 226.97C112.15 226.69 111.66 226.31 111.31 225.81C110.96 225.32 110.77 224.75 110.76 224.1H112.42C112.48 224.66 112.71 225.12 113.11 225.5C113.52 225.88 114.11 226.07 114.88 226.07C115.65 226.07 116.21 225.89 116.64 225.52C117.07 225.15 117.28 224.68 117.28 224.1C117.28 223.65 117.15 223.28 116.9 223C116.65 222.72 116.33 222.5 115.96 222.35C115.59 222.2 115.08 222.04 114.44 221.87C113.65 221.67 113.02 221.46 112.55 221.26C112.08 221.06 111.67 220.74 111.33 220.3C110.99 219.86 110.83 219.28 110.83 218.54C110.83 217.89 111 217.32 111.33 216.82C111.66 216.32 112.13 215.94 112.73 215.66C113.33 215.39 114.02 215.25 114.79 215.25C115.91 215.25 116.83 215.53 117.54 216.08C118.25 216.64 118.66 217.37 118.75 218.29H117.04C116.98 217.84 116.74 217.44 116.32 217.09C115.9 216.74 115.34 216.57 114.64 216.57C113.99 216.57 113.46 216.74 113.05 217.07C112.64 217.4 112.43 217.87 112.43 218.47C112.43 218.9 112.55 219.25 112.8 219.52C113.05 219.79 113.35 220 113.71 220.14C114.07 220.28 114.58 220.44 115.23 220.62C116.02 220.84 116.65 221.05 117.13 221.26C117.61 221.47 118.02 221.79 118.36 222.23C118.7 222.67 118.87 223.26 118.87 224.01C118.87 224.59 118.72 225.13 118.41 225.64C118.1 226.15 117.64 226.56 117.04 226.88C116.43 227.2 115.72 227.36 114.9 227.36C114.08 227.36 113.41 227.22 112.78 226.94L112.77 226.97Z" fill="#A6A6A6"/>
<path d="M129.66 223.19H122.16C122.22 224.11 122.53 224.82 123.11 225.34C123.69 225.86 124.39 226.11 125.21 226.11C125.88 226.11 126.45 225.95 126.9 225.64C127.35 225.33 127.67 224.91 127.85 224.39H129.53C129.28 225.29 128.78 226.01 128.02 226.57C127.26 227.13 126.33 227.41 125.21 227.41C124.32 227.41 123.52 227.21 122.82 226.81C122.12 226.41 121.57 225.85 121.17 225.12C120.77 224.39 120.57 223.54 120.57 222.58C120.57 221.62 120.76 220.77 121.15 220.05C121.54 219.32 122.08 218.77 122.79 218.38C123.49 217.99 124.3 217.79 125.21 217.79C126.12 217.79 126.89 217.98 127.57 218.37C128.26 218.75 128.78 219.29 129.15 219.96C129.52 220.63 129.71 221.4 129.71 222.25C129.71 222.54 129.69 222.86 129.66 223.18V223.19ZM127.71 220.41C127.45 219.99 127.09 219.66 126.64 219.44C126.19 219.22 125.69 219.11 125.14 219.11C124.35 219.11 123.68 219.36 123.13 219.86C122.58 220.36 122.26 221.05 122.18 221.93H128.11C128.11 221.34 127.98 220.83 127.72 220.41H127.71Z" fill="#A6A6A6"/>
<path d="M133.33 214.69V227.27H131.77V214.69H133.33Z" fill="#A6A6A6"/>
<path d="M139.48 225.84L142.39 217.95H144.05L140.37 227.27H138.55L134.87 217.95H136.55L139.48 225.84Z" fill="#A6A6A6"/>
<path d="M145.59 220.07C145.98 219.35 146.51 218.79 147.19 218.4C147.87 218.01 148.63 217.81 149.46 217.81C150.29 217.81 151 217.99 151.6 218.34C152.21 218.69 152.66 219.13 152.95 219.67V217.97H154.53V227.29H152.95V225.56C152.64 226.1 152.18 226.56 151.57 226.91C150.96 227.27 150.25 227.45 149.44 227.45C148.63 227.45 147.85 227.25 147.18 226.84C146.51 226.43 145.98 225.86 145.59 225.12C145.2 224.38 145.01 223.54 145.01 222.6C145.01 221.66 145.2 220.81 145.59 220.09V220.07ZM152.53 220.76C152.24 220.24 151.86 219.84 151.37 219.56C150.88 219.28 150.35 219.14 149.77 219.14C149.19 219.14 148.66 219.28 148.18 219.55C147.7 219.82 147.32 220.22 147.03 220.74C146.74 221.26 146.6 221.87 146.6 222.58C146.6 223.29 146.74 223.91 147.03 224.44C147.32 224.97 147.7 225.37 148.18 225.65C148.66 225.93 149.19 226.07 149.77 226.07C150.35 226.07 150.89 225.93 151.37 225.65C151.86 225.37 152.24 224.97 152.53 224.44C152.82 223.91 152.96 223.3 152.96 222.6C152.96 221.9 152.82 221.29 152.53 220.76Z" fill="#A6A6A6"/>
<path d="M163.17 218.33C163.78 218.68 164.24 219.12 164.53 219.66V217.96H166.11V227.48C166.11 228.33 165.93 229.09 165.56 229.75C165.19 230.41 164.67 230.93 163.99 231.31C163.31 231.69 162.52 231.87 161.62 231.87C160.39 231.87 159.36 231.58 158.54 231C157.72 230.42 157.23 229.63 157.08 228.64H158.62C158.79 229.21 159.15 229.66 159.68 230.01C160.22 230.36 160.86 230.53 161.62 230.53C162.48 230.53 163.18 230.26 163.72 229.73C164.26 229.2 164.53 228.45 164.53 227.49V225.53C164.22 226.07 163.76 226.53 163.16 226.89C162.55 227.25 161.85 227.43 161.04 227.43C160.23 227.43 159.45 227.23 158.77 226.82C158.09 226.41 157.56 225.84 157.17 225.1C156.78 224.36 156.59 223.52 156.59 222.58C156.59 221.64 156.78 220.79 157.17 220.07C157.56 219.35 158.09 218.79 158.77 218.4C159.45 218.01 160.21 217.81 161.04 217.81C161.87 217.81 162.56 217.99 163.17 218.34V218.33ZM164.1 220.76C163.81 220.24 163.43 219.84 162.94 219.56C162.45 219.28 161.92 219.14 161.34 219.14C160.76 219.14 160.23 219.28 159.75 219.55C159.27 219.82 158.89 220.22 158.6 220.74C158.31 221.26 158.17 221.87 158.17 222.58C158.17 223.29 158.31 223.91 158.6 224.44C158.89 224.97 159.27 225.37 159.75 225.65C160.23 225.93 160.76 226.07 161.34 226.07C161.92 226.07 162.46 225.93 162.94 225.65C163.43 225.37 163.81 224.97 164.1 224.44C164.39 223.91 164.53 223.3 164.53 222.6C164.53 221.9 164.39 221.29 164.1 220.76Z" fill="#A6A6A6"/>
<path d="M177.26 223.19H169.76C169.82 224.11 170.13 224.82 170.71 225.34C171.29 225.86 171.99 226.11 172.81 226.11C173.48 226.11 174.05 225.95 174.5 225.64C174.95 225.33 175.27 224.91 175.45 224.39H177.13C176.88 225.29 176.38 226.01 175.62 226.57C174.86 227.13 173.93 227.41 172.81 227.41C171.92 227.41 171.12 227.21 170.42 226.81C169.72 226.41 169.17 225.85 168.77 225.12C168.37 224.39 168.17 223.54 168.17 222.58C168.17 221.62 168.36 220.77 168.75 220.05C169.14 219.32 169.68 218.77 170.39 218.38C171.09 217.99 171.9 217.79 172.81 217.79C173.72 217.79 174.49 217.98 175.17 218.37C175.86 218.75 176.38 219.29 176.75 219.96C177.12 220.63 177.31 221.4 177.31 222.25C177.31 222.54 177.29 222.86 177.26 223.18V223.19ZM175.31 220.41C175.05 219.99 174.69 219.66 174.24 219.44C173.79 219.22 173.29 219.11 172.74 219.11C171.95 219.11 171.28 219.36 170.73 219.86C170.18 220.36 169.86 221.05 169.78 221.93H175.71C175.71 221.34 175.58 220.83 175.32 220.41H175.31Z" fill="#A6A6A6"/>
<path d="M186.71 218.81C187.42 219.5 187.77 220.48 187.77 221.78V227.27H186.23V222C186.23 221.07 186 220.36 185.53 219.87C185.06 219.38 184.42 219.13 183.61 219.13C182.8 219.13 182.13 219.38 181.65 219.89C181.17 220.4 180.92 221.14 180.92 222.12V227.27H179.36V217.95H180.92V219.28C181.23 218.8 181.65 218.44 182.18 218.18C182.71 217.92 183.3 217.79 183.94 217.79C185.08 217.79 186.01 218.13 186.71 218.82V218.81Z" fill="#A6A6A6"/>
<path d="M191.71 227.06C191.14 226.82 190.69 226.48 190.36 226.04C190.03 225.6 189.85 225.1 189.81 224.54H191.42C191.46 225 191.69 225.38 192.08 225.68C192.47 225.98 192.99 226.12 193.63 226.12C194.22 226.12 194.69 225.99 195.03 225.73C195.37 225.47 195.54 225.14 195.54 224.74C195.54 224.34 195.36 224.03 194.99 223.83C194.62 223.63 194.06 223.44 193.29 223.24C192.59 223.06 192.03 222.87 191.59 222.69C191.15 222.5 190.77 222.23 190.46 221.86C190.15 221.49 189.99 221.01 189.99 220.41C189.99 219.93 190.13 219.5 190.42 219.1C190.71 218.7 191.11 218.39 191.64 218.16C192.16 217.93 192.76 217.81 193.44 217.81C194.48 217.81 195.32 218.07 195.96 218.59C196.6 219.11 196.94 219.83 196.99 220.73H195.43C195.4 220.24 195.2 219.85 194.84 219.56C194.48 219.27 194 219.12 193.39 219.12C192.83 219.12 192.39 219.24 192.05 219.48C191.72 219.72 191.55 220.03 191.55 220.41C191.55 220.72 191.65 220.97 191.85 221.17C192.05 221.37 192.3 221.53 192.6 221.65C192.9 221.77 193.32 221.9 193.86 222.05C194.53 222.23 195.08 222.41 195.5 222.59C195.92 222.77 196.29 223.03 196.59 223.38C196.89 223.73 197.05 224.19 197.06 224.76C197.06 225.27 196.92 225.73 196.63 226.14C196.34 226.55 195.94 226.87 195.42 227.1C194.9 227.33 194.3 227.45 193.63 227.45C192.91 227.45 192.26 227.33 191.69 227.08L191.71 227.06Z" fill="#A6A6A6"/>
<mask id="mask0_156_492" style="mask-type:luminance" maskUnits="userSpaceOnUse" x="0" y="0" width="228" height="181">
<path d="M20.86 0.910156L227.11 20.4301L219.33 180.57L0.219971 153.65L20.86 0.910156Z" fill="white"/>
</mask>
<g mask="url(#mask0_156_492)">
<path d="M29.2801 37.3699C29.2801 37.3699 -0.269946 67.34 24.8501 84.23C49.9701 101.12 34.1601 114.14 50.3201 117.95C66.4701 121.76 74.1001 97.5999 74.1001 97.5999C74.1001 97.5999 60.1101 60.61 70.4501 43.76C80.7901 26.91 80.6301 28.5499 80.6301 28.5499C80.6301 28.5499 69.4401 13.3899 29.2801 37.3699Z" fill="white" stroke="#222221" stroke-miterlimit="10"/>
<path d="M29.3201 36.9301C29.3201 36.9301 60.2001 8.2801 79.4901 25.1601C79.4901 25.1601 66.1801 37.5001 66.4501 60.3501C66.4501 60.3501 68.1901 26.5101 29.3201 36.9201V36.9301Z" fill="#E3E1E1"/>
<path d="M76.0101 31.1501C76.0101 31.1501 60.3 17.5202 29.8 36.9802C29.8 36.9802 47.5701 13.4002 63.9401 14.9502C80.3101 16.5002 87.8101 24.4902 87.8101 24.4902L76.0101 31.1402V31.1501Z" fill="white" stroke="#222221" stroke-miterlimit="10"/>
<path d="M212.28 51.7702C212.28 51.7702 235.69 86.7502 207.85 98.6302C180.01 110.51 193.09 126.26 176.51 126.97C159.93 127.68 156.97 102.52 156.97 102.52C156.97 102.52 177.65 68.8102 170.65 50.3202C163.66 31.8302 163.5 33.4702 163.5 33.4702C163.5 33.4702 177.34 20.6802 212.28 51.7702Z" fill="white" stroke="#222221" stroke-miterlimit="10"/>
<path d="M213.49 54.3601C213.49 54.3601 188.53 20.4302 166.42 33.3902C166.42 33.3902 177.18 48.0102 172.63 70.4102C172.63 70.4102 177.26 36.8501 213.49 54.3601Z" fill="#E3E1E1"/>
<path d="M169.68 40.0101C169.68 40.0101 187.67 29.5701 213.98 54.4001C213.98 54.4001 200.94 27.9101 184.58 26.3601C168.22 24.8101 159.34 31.2601 159.34 31.2601L169.68 40.0101Z" fill="white" stroke="#222221" stroke-miterlimit="10"/>
<path d="M177.77 74.7801C174.71 107.08 162.13 132.32 113.74 127.74C65.35 123.16 57.73 96.0201 60.78 63.7101C63.83 31.4001 92.5 7.70012 124.81 10.7501C157.11 13.8101 180.82 42.4701 177.77 74.7801Z" fill="white" stroke="#222221" stroke-miterlimit="10"/>
<path d="M148.72 99.4702C155.63 100.12 161.75 95.2702 162.38 88.6202C163.01 81.9702 157.91 76.0502 151 75.4002C144.09 74.7502 137.97 79.6002 137.34 86.2502C136.71 92.9002 141.81 98.8202 148.72 99.4702Z" fill="#010200"/>
<path d="M87.1001 93.6401C94.0101 94.2901 100.13 89.4401 100.76 82.7901C101.39 76.1401 96.2901 70.2201 89.3801 69.5701C82.4701 68.9201 76.3501 73.7701 75.7201 80.4201C75.0901 87.0701 80.1901 92.9901 87.1001 93.6401Z" fill="#010200"/>
<path d="M87.5101 89.3102C92.0301 89.7402 96.0201 86.6402 96.4201 82.3802C96.8201 78.1202 93.4801 74.3302 88.9601 73.9002C84.4401 73.4702 80.4501 76.5702 80.0501 80.8302C79.6501 85.0902 82.9901 88.8802 87.5101 89.3102Z" fill="#010200"/>
<path d="M90.6301 79.4003C91.8301 79.5103 92.8901 78.6303 93.0001 77.4403C93.1101 76.2503 92.23 75.1803 91.04 75.0703C89.85 74.9603 88.7801 75.8403 88.6701 77.0303C88.5601 78.2203 89.4401 79.2903 90.6301 79.4003Z" fill="white"/>
<path d="M152.25 85.2299C153.45 85.3399 154.51 84.4599 154.62 83.2699C154.73 82.0799 153.85 81.0099 152.66 80.8999C151.47 80.7899 150.4 81.6699 150.29 82.8599C150.18 84.0499 151.06 85.1199 152.25 85.2299Z" fill="white"/>
<path d="M97.0001 123.75C97.9401 127.35 98.8901 131.09 98.2501 134.76C97.6101 138.43 94.9001 142.01 91.2001 142.42C87.5001 142.83 83.7401 138.66 85.4201 135.34C86.4001 133.4 86.0901 131.26 84.6701 129.61C84.3101 129.18 79.4301 129.22 78.8901 129.06C72.6201 127.27 68.2301 129.55 63.3701 133.91C61.6301 135.47 63.2101 138.36 63.2101 140.7C63.2101 142.33 66.0901 144.94 67.0901 146.23C78.6401 161.27 102.34 168.23 119.23 159.6C119.23 159.6 148.52 150.08 133.63 108.03" fill="white"/>
<path d="M97.0001 123.75C97.9401 127.35 98.8901 131.09 98.2501 134.76C97.6101 138.43 94.9001 142.01 91.2001 142.42C87.5001 142.83 83.7401 138.66 85.4201 135.34C86.4001 133.4 86.0901 131.26 84.6701 129.61C84.3101 129.18 79.4301 129.22 78.8901 129.06C72.6201 127.27 68.2301 129.55 63.3701 133.91C61.6301 135.47 63.2101 138.36 63.2101 140.7C63.2101 142.33 66.0901 144.94 67.0901 146.23C78.6401 161.27 102.34 168.23 119.23 159.6C119.23 159.6 148.52 150.08 133.63 108.03" stroke="#222221" stroke-miterlimit="10"/>
<path d="M138.58 124.16C138.25 124.69 140.58 129.06 145.35 130C150.12 130.94 144.73 121.2 144.73 121.2C144.73 121.2 141.97 118.8 138.58 124.16Z" fill="white" stroke="#222221" stroke-miterlimit="10"/>
<path d="M95.0201 121.49C95.2501 122.07 92.1301 125.93 87.2701 125.95C82.4101 125.98 89.5301 117.42 89.5301 117.42C89.5301 117.42 92.7001 115.58 95.0101 121.48L95.0201 121.49Z" fill="white" stroke="#222221" stroke-miterlimit="10"/>
<path d="M130.89 123.38C124.21 119.68 116.12 119.03 108.88 121.42C106.83 122.1 104.9 123.04 103.08 124.19C102.74 124.4 102.76 124.93 102.98 125.21C103.25 125.55 103.67 125.51 104 125.31C109.97 121.53 117.6 120.49 124.41 122.31C126.36 122.83 128.26 123.58 130.04 124.56C130.85 125.01 131.7 123.83 130.88 123.38H130.89Z" fill="#010200"/>
<path d="M128.47 134.73C126.77 133.36 124.62 132.88 122.52 132.5C120.44 132.11 118.34 131.76 116.24 131.55C112.04 131.13 107.7 131.31 103.82 133.09C102.97 133.48 103.58 134.8 104.43 134.41C108.09 132.73 112.16 132.6 116.11 133C118.08 133.2 120.04 133.52 122 133.88C123.95 134.23 126.03 134.63 127.64 135.92C128.37 136.5 129.21 135.33 128.48 134.74L128.47 134.73Z" fill="#010200"/>
</g>
</svg>
