<svg width="150" height="259" viewBox="0 0 150 259" fill="none" xmlns="http://www.w3.org/2000/svg">
<path d="M34.29 222.74C35.24 223.22 35.97 223.91 36.48 224.81C36.99 225.7 37.2401 226.76 37.2401 227.97C37.2401 229.18 36.99 230.23 36.48 231.12C35.97 232.01 35.24 232.69 34.29 233.16C33.34 233.63 32.21 233.87 30.91 233.87H27.1901V222.02H30.91C32.21 222.02 33.34 222.26 34.29 222.74ZM34.4401 231.38C35.2501 230.57 35.66 229.43 35.66 227.97C35.66 226.51 35.2501 225.35 34.4401 224.52C33.6301 223.69 32.45 223.28 30.92 223.28H28.7601V232.6H30.92C32.46 232.6 33.6401 232.2 34.4501 231.39L34.4401 231.38Z" fill="#A6A6A6"/>
<path d="M47.81 229.79H40.31C40.37 230.71 40.68 231.42 41.26 231.94C41.84 232.46 42.54 232.71 43.36 232.71C44.03 232.71 44.6 232.55 45.05 232.24C45.5 231.93 45.82 231.51 46 230.99H47.68C47.43 231.89 46.93 232.61 46.17 233.17C45.41 233.73 44.48 234.01 43.36 234.01C42.47 234.01 41.67 233.81 40.97 233.41C40.27 233.01 39.72 232.45 39.32 231.72C38.92 230.99 38.72 230.14 38.72 229.18C38.72 228.22 38.91 227.37 39.3 226.65C39.69 225.92 40.23 225.37 40.94 224.98C41.64 224.59 42.45 224.39 43.36 224.39C44.27 224.39 45.04 224.58 45.72 224.97C46.41 225.35 46.93 225.89 47.3 226.56C47.67 227.23 47.86 228 47.86 228.85C47.86 229.14 47.84 229.46 47.81 229.78V229.79ZM45.86 227.01C45.6 226.59 45.24 226.26 44.79 226.04C44.34 225.82 43.84 225.71 43.29 225.71C42.5 225.71 41.83 225.96 41.28 226.46C40.73 226.96 40.41 227.65 40.33 228.53H46.26C46.26 227.94 46.13 227.43 45.87 227.01H45.86Z" fill="#A6A6A6"/>
<path d="M49.9201 226.67C50.3101 225.95 50.8401 225.39 51.5201 225C52.2001 224.61 52.9601 224.41 53.8101 224.41C54.5401 224.41 55.2201 224.58 55.8501 224.91C56.4801 225.24 56.9601 225.68 57.2901 226.23V221.3H58.8701V233.88H57.2901V232.13C56.9801 232.69 56.5201 233.14 55.9201 233.5C55.3101 233.86 54.6101 234.04 53.8001 234.04C52.9901 234.04 52.2102 233.84 51.5302 233.43C50.8502 233.02 50.3201 232.45 49.9301 231.71C49.5401 230.97 49.3501 230.13 49.3501 229.19C49.3501 228.25 49.5401 227.4 49.9301 226.68L49.9201 226.67ZM56.8601 227.36C56.5701 226.84 56.1901 226.44 55.7001 226.16C55.2101 225.88 54.6801 225.74 54.1001 225.74C53.5201 225.74 52.9901 225.88 52.5101 226.15C52.0301 226.42 51.6501 226.82 51.3601 227.34C51.0701 227.86 50.9301 228.47 50.9301 229.18C50.9301 229.89 51.0701 230.51 51.3601 231.04C51.6501 231.57 52.0301 231.97 52.5101 232.25C52.9901 232.53 53.5201 232.67 54.1001 232.67C54.6801 232.67 55.2201 232.53 55.7001 232.25C56.1901 231.97 56.5701 231.57 56.8601 231.04C57.1501 230.51 57.2901 229.9 57.2901 229.2C57.2901 228.5 57.1501 227.89 56.8601 227.36Z" fill="#A6A6A6"/>
<path d="M63.2001 233.43C62.4901 233.03 61.9301 232.47 61.5201 231.74C61.1101 231.01 60.91 230.16 60.91 229.2C60.91 228.24 61.1201 227.41 61.5301 226.68C61.9501 225.95 62.52 225.39 63.23 225C63.95 224.61 64.7501 224.41 65.6501 224.41C66.5501 224.41 67.3501 224.61 68.0701 225C68.7901 225.39 69.3601 225.95 69.7701 226.67C70.1801 227.39 70.3901 228.24 70.3901 229.2C70.3901 230.16 70.1801 231.01 69.7501 231.74C69.3201 232.47 68.7401 233.03 68.0101 233.43C67.2801 233.83 66.4701 234.03 65.5801 234.03C64.6901 234.03 63.9001 233.83 63.1901 233.43H63.2001ZM67.17 232.27C67.66 232.01 68.06 231.62 68.36 231.1C68.66 230.58 68.8101 229.94 68.8101 229.2C68.8101 228.46 68.66 227.82 68.36 227.3C68.06 226.78 67.6801 226.39 67.2001 226.14C66.7201 225.89 66.2001 225.76 65.6401 225.76C65.0801 225.76 64.5501 225.89 64.0701 226.14C63.5901 226.39 63.2201 226.78 62.9301 227.3C62.6401 227.82 62.5001 228.46 62.5001 229.2C62.5001 229.94 62.64 230.6 62.92 231.12C63.2 231.64 63.57 232.03 64.04 232.28C64.51 232.53 65.0201 232.66 65.5801 232.66C66.1401 232.66 66.66 232.53 67.16 232.27H67.17Z" fill="#A6A6A6"/>
<path d="M72.4601 226.67C72.8501 225.95 73.3901 225.39 74.0801 225C74.7701 224.6 75.5601 224.41 76.4501 224.41C77.6001 224.41 78.5501 224.69 79.3001 225.24C80.0501 225.79 80.5402 226.57 80.7802 227.55H79.1001C78.9401 226.98 78.6301 226.54 78.1701 226.21C77.7101 225.88 77.1301 225.72 76.4501 225.72C75.5601 225.72 74.8401 226.02 74.2901 226.63C73.7401 227.24 73.4701 228.1 73.4701 229.21C73.4701 230.32 73.7401 231.2 74.2901 231.81C74.8401 232.42 75.5601 232.73 76.4501 232.73C77.1301 232.73 77.7101 232.57 78.1601 232.25C78.6201 231.93 78.9301 231.48 79.1001 230.89H80.7802C80.5302 231.84 80.0301 232.6 79.2701 233.18C78.5201 233.75 77.5701 234.04 76.4401 234.04C75.5501 234.04 74.7601 233.84 74.0701 233.44C73.3801 233.04 72.8401 232.48 72.4501 231.76C72.0601 231.03 71.8701 230.18 71.8701 229.21C71.8701 228.24 72.0601 227.41 72.4501 226.69L72.4601 226.67Z" fill="#A6A6A6"/>
<path d="M89.4301 224.84C90.0001 225.14 90.4501 225.59 90.7701 226.19C91.1001 226.79 91.2601 227.52 91.2601 228.38V233.87H89.7201V228.6C89.7201 227.67 89.4901 226.96 89.0201 226.47C88.5501 225.98 87.9101 225.73 87.1001 225.73C86.2901 225.73 85.6201 225.98 85.1401 226.49C84.6601 227 84.4101 227.74 84.4101 228.72V233.87H82.8501V221.29H84.4101V225.88C84.7201 225.4 85.1401 225.04 85.6901 224.78C86.2301 224.52 86.8401 224.39 87.5101 224.39C88.2201 224.39 88.8601 224.54 89.4301 224.84Z" fill="#A6A6A6"/>
<path d="M102.33 229.79H94.83C94.89 230.71 95.2 231.42 95.78 231.94C96.36 232.46 97.06 232.71 97.88 232.71C98.55 232.71 99.12 232.55 99.57 232.24C100.02 231.93 100.34 231.51 100.52 230.99H102.2C101.95 231.89 101.45 232.61 100.69 233.17C99.93 233.73 99 234.01 97.88 234.01C96.99 234.01 96.19 233.81 95.49 233.41C94.79 233.01 94.24 232.45 93.84 231.72C93.44 230.99 93.24 230.14 93.24 229.18C93.24 228.22 93.43 227.37 93.82 226.65C94.21 225.92 94.75 225.37 95.46 224.98C96.16 224.59 96.97 224.39 97.88 224.39C98.79 224.39 99.56 224.58 100.24 224.97C100.93 225.35 101.45 225.89 101.82 226.56C102.19 227.23 102.38 228 102.38 228.85C102.38 229.14 102.36 229.46 102.33 229.78V229.79ZM100.38 227.01C100.12 226.59 99.76 226.26 99.31 226.04C98.86 225.82 98.36 225.71 97.81 225.71C97.02 225.71 96.35 225.96 95.8 226.46C95.25 226.96 94.93 227.65 94.85 228.53H100.78C100.78 227.94 100.65 227.43 100.39 227.01H100.38Z" fill="#A6A6A6"/>
<path d="M105.82 233.66C105.25 233.42 104.8 233.08 104.47 232.64C104.14 232.2 103.96 231.7 103.92 231.14H105.53C105.57 231.6 105.8 231.98 106.19 232.28C106.58 232.58 107.1 232.72 107.74 232.72C108.33 232.72 108.8 232.59 109.14 232.33C109.48 232.07 109.65 231.74 109.65 231.34C109.65 230.94 109.47 230.63 109.1 230.43C108.73 230.23 108.17 230.04 107.4 229.84C106.7 229.66 106.14 229.47 105.7 229.29C105.26 229.1 104.88 228.83 104.57 228.46C104.26 228.09 104.1 227.61 104.1 227.01C104.1 226.53 104.24 226.1 104.53 225.7C104.82 225.3 105.22 224.99 105.75 224.76C106.27 224.53 106.87 224.41 107.55 224.41C108.59 224.41 109.43 224.67 110.07 225.19C110.71 225.71 111.05 226.43 111.1 227.33H109.54C109.51 226.84 109.31 226.45 108.95 226.16C108.59 225.87 108.11 225.72 107.5 225.72C106.94 225.72 106.5 225.84 106.16 226.08C105.83 226.32 105.66 226.63 105.66 227.01C105.66 227.32 105.76 227.57 105.96 227.77C106.16 227.97 106.41 228.13 106.71 228.25C107.01 228.37 107.43 228.5 107.97 228.65C108.64 228.83 109.19 229.01 109.61 229.19C110.03 229.37 110.4 229.63 110.7 229.98C111 230.33 111.16 230.79 111.17 231.36C111.17 231.87 111.03 232.33 110.74 232.74C110.45 233.15 110.05 233.47 109.53 233.7C109.01 233.93 108.41 234.05 107.74 234.05C107.02 234.05 106.37 233.93 105.8 233.68L105.82 233.66Z" fill="#A6A6A6"/>
<path d="M21.5201 248.35C20.8401 249 19.8 249.33 18.41 249.33H16.1201V254.28H14.5601V242.43H18.41C19.76 242.43 20.78 242.75 21.48 243.4C22.18 244.05 22.5301 244.88 22.5301 245.9C22.5301 246.92 22.1901 247.7 21.5101 248.36L21.5201 248.35ZM20.3301 247.49C20.7401 247.12 20.9501 246.58 20.9501 245.89C20.9501 244.43 20.11 243.7 18.41 243.7H16.1201V248.05H18.41C19.28 248.05 19.9201 247.86 20.3301 247.49Z" fill="#A6A6A6"/>
<path d="M32.9801 250.19H25.4801C25.5401 251.11 25.8501 251.82 26.4301 252.34C27.0101 252.86 27.7102 253.11 28.5302 253.11C29.2002 253.11 29.7701 252.95 30.2201 252.64C30.6701 252.33 30.9901 251.91 31.1701 251.39H32.8501C32.6001 252.29 32.1001 253.01 31.3401 253.57C30.5801 254.13 29.6502 254.41 28.5302 254.41C27.6402 254.41 26.8401 254.21 26.1401 253.81C25.4401 253.41 24.8901 252.85 24.4901 252.12C24.0901 251.39 23.8901 250.54 23.8901 249.58C23.8901 248.62 24.0801 247.77 24.4701 247.05C24.8601 246.32 25.4001 245.77 26.1101 245.38C26.8101 244.99 27.6202 244.79 28.5302 244.79C29.4402 244.79 30.2101 244.98 30.8901 245.37C31.5801 245.75 32.1001 246.29 32.4701 246.96C32.8401 247.63 33.0302 248.4 33.0302 249.25C33.0302 249.54 33.0101 249.86 32.9801 250.18V250.19ZM31.0302 247.41C30.7702 246.99 30.4101 246.66 29.9601 246.44C29.5101 246.22 29.0101 246.11 28.4601 246.11C27.6701 246.11 27.0001 246.36 26.4501 246.86C25.9001 247.36 25.5801 248.05 25.5001 248.93H31.4301C31.4301 248.34 31.3001 247.83 31.0401 247.41H31.0302Z" fill="#A6A6A6"/>
<path d="M37.8201 245.23C38.3301 244.94 38.9501 244.79 39.6801 244.79V246.39H39.2701C37.5201 246.39 36.6501 247.33 36.6501 249.21V254.28H35.0901V244.96H36.6501V246.47C36.9201 245.94 37.3201 245.52 37.8201 245.23Z" fill="#A6A6A6"/>
<path d="M43.1801 253.83C42.4701 253.43 41.9101 252.87 41.5001 252.14C41.0901 251.41 40.8901 250.56 40.8901 249.6C40.8901 248.64 41.1001 247.81 41.5101 247.08C41.9301 246.35 42.5001 245.79 43.2101 245.4C43.9301 245.01 44.7301 244.81 45.6301 244.81C46.5301 244.81 47.3301 245.01 48.0501 245.4C48.7701 245.79 49.3401 246.35 49.7501 247.07C50.1601 247.79 50.3701 248.64 50.3701 249.6C50.3701 250.56 50.1601 251.41 49.7301 252.14C49.3001 252.87 48.7201 253.43 47.9901 253.83C47.2601 254.23 46.4501 254.43 45.5601 254.43C44.6701 254.43 43.8801 254.23 43.1701 253.83H43.1801ZM47.1501 252.67C47.6401 252.41 48.0401 252.02 48.3401 251.5C48.6401 250.98 48.7901 250.34 48.7901 249.6C48.7901 248.86 48.6401 248.22 48.3401 247.7C48.0401 247.18 47.6601 246.79 47.1801 246.54C46.7001 246.29 46.1801 246.16 45.6201 246.16C45.0601 246.16 44.5301 246.29 44.0501 246.54C43.5701 246.79 43.2001 247.18 42.9101 247.7C42.6201 248.22 42.4801 248.86 42.4801 249.6C42.4801 250.34 42.6201 251 42.9001 251.52C43.1801 252.04 43.5501 252.43 44.0201 252.68C44.4901 252.93 45.0001 253.06 45.5601 253.06C46.1201 253.06 46.6401 252.93 47.1401 252.67H47.1501Z" fill="#A6A6A6"/>
<path d="M59.79 245.81C60.5 246.5 60.85 247.48 60.85 248.78V254.27H59.3101V249C59.3101 248.07 59.08 247.36 58.61 246.87C58.14 246.38 57.5001 246.13 56.6901 246.13C55.8801 246.13 55.21 246.38 54.73 246.89C54.25 247.4 54.0001 248.14 54.0001 249.12V254.27H52.4401V244.95H54.0001V246.28C54.3101 245.8 54.7301 245.44 55.2601 245.18C55.7901 244.92 56.3801 244.79 57.0201 244.79C58.1601 244.79 59.09 245.13 59.79 245.82V245.81Z" fill="#A6A6A6"/>
<path d="M64.7901 254.06C64.2201 253.82 63.7701 253.48 63.4401 253.04C63.1101 252.6 62.9301 252.1 62.8901 251.54H64.5001C64.5401 252 64.7701 252.38 65.1601 252.68C65.5501 252.98 66.0701 253.12 66.7101 253.12C67.3001 253.12 67.7701 252.99 68.1101 252.73C68.4501 252.47 68.6201 252.14 68.6201 251.74C68.6201 251.34 68.4401 251.03 68.0701 250.83C67.7001 250.63 67.1401 250.44 66.3701 250.24C65.6701 250.06 65.1101 249.87 64.6701 249.69C64.2301 249.5 63.8501 249.23 63.5401 248.86C63.2301 248.49 63.0701 248.01 63.0701 247.41C63.0701 246.93 63.2101 246.5 63.5001 246.1C63.7901 245.7 64.1901 245.39 64.7201 245.16C65.2401 244.93 65.8401 244.81 66.5201 244.81C67.5601 244.81 68.4001 245.07 69.0401 245.59C69.6801 246.11 70.0201 246.83 70.0701 247.73H68.5101C68.4801 247.24 68.2801 246.85 67.9201 246.56C67.5601 246.27 67.0801 246.12 66.4701 246.12C65.9101 246.12 65.4701 246.24 65.1301 246.48C64.8001 246.72 64.6301 247.03 64.6301 247.41C64.6301 247.72 64.7301 247.97 64.9301 248.17C65.1301 248.37 65.3801 248.53 65.6801 248.65C65.9801 248.77 66.4001 248.9 66.9401 249.05C67.6101 249.23 68.1601 249.41 68.5801 249.59C69.0001 249.77 69.3701 250.03 69.6701 250.38C69.9701 250.73 70.1301 251.19 70.1401 251.76C70.1401 252.27 70.0001 252.73 69.7101 253.14C69.4201 253.55 69.0201 253.87 68.5001 254.1C67.9801 254.33 67.3801 254.45 66.7101 254.45C65.9901 254.45 65.3401 254.33 64.7701 254.08L64.7901 254.06Z" fill="#A6A6A6"/>
<path d="M72.34 247.07C72.73 246.35 73.26 245.79 73.94 245.4C74.62 245.01 75.38 244.81 76.21 244.81C77.04 244.81 77.75 244.99 78.35 245.34C78.96 245.69 79.41 246.13 79.7 246.67V244.97H81.28V254.29H79.7V252.56C79.39 253.1 78.93 253.56 78.32 253.91C77.71 254.27 77 254.45 76.19 254.45C75.38 254.45 74.6 254.25 73.93 253.84C73.26 253.43 72.73 252.86 72.34 252.12C71.95 251.38 71.76 250.54 71.76 249.6C71.76 248.66 71.95 247.81 72.34 247.09V247.07ZM79.28 247.76C78.99 247.24 78.61 246.84 78.12 246.56C77.63 246.28 77.1 246.14 76.52 246.14C75.94 246.14 75.41 246.28 74.93 246.55C74.45 246.82 74.07 247.22 73.78 247.74C73.49 248.26 73.35 248.87 73.35 249.58C73.35 250.29 73.49 250.91 73.78 251.44C74.07 251.97 74.45 252.37 74.93 252.65C75.41 252.93 75.94 253.07 76.52 253.07C77.1 253.07 77.64 252.93 78.12 252.65C78.61 252.37 78.99 251.97 79.28 251.44C79.57 250.91 79.71 250.3 79.71 249.6C79.71 248.9 79.57 248.29 79.28 247.76Z" fill="#A6A6A6"/>
<path d="M89.92 245.33C90.53 245.68 90.9901 246.12 91.2801 246.66V244.96H92.86V254.48C92.86 255.33 92.6801 256.09 92.3101 256.75C91.9401 257.41 91.4201 257.93 90.7401 258.31C90.0601 258.69 89.2701 258.87 88.3701 258.87C87.1401 258.87 86.11 258.58 85.29 258C84.47 257.42 83.9801 256.63 83.8301 255.64H85.3701C85.5401 256.21 85.9001 256.66 86.4301 257.01C86.9701 257.36 87.6101 257.53 88.3701 257.53C89.2301 257.53 89.93 257.26 90.47 256.73C91.01 256.2 91.2801 255.45 91.2801 254.49V252.53C90.9701 253.07 90.51 253.53 89.91 253.89C89.3 254.25 88.6 254.43 87.79 254.43C86.98 254.43 86.2001 254.23 85.5201 253.82C84.8401 253.41 84.31 252.84 83.92 252.1C83.53 251.36 83.3401 250.52 83.3401 249.58C83.3401 248.64 83.53 247.79 83.92 247.07C84.31 246.35 84.8401 245.79 85.5201 245.4C86.2001 245.01 86.96 244.81 87.79 244.81C88.62 244.81 89.31 244.99 89.92 245.34V245.33ZM90.85 247.76C90.56 247.24 90.1801 246.84 89.6901 246.56C89.2001 246.28 88.6701 246.14 88.0901 246.14C87.5101 246.14 86.9801 246.28 86.5001 246.55C86.0201 246.82 85.64 247.22 85.35 247.74C85.06 248.26 84.92 248.87 84.92 249.58C84.92 250.29 85.06 250.91 85.35 251.44C85.64 251.97 86.0201 252.37 86.5001 252.65C86.9801 252.93 87.5101 253.07 88.0901 253.07C88.6701 253.07 89.2101 252.93 89.6901 252.65C90.1801 252.37 90.56 251.97 90.85 251.44C91.14 250.91 91.2801 250.3 91.2801 249.6C91.2801 248.9 91.14 248.29 90.85 247.76Z" fill="#A6A6A6"/>
<path d="M104.01 250.19H96.5101C96.5701 251.11 96.8801 251.82 97.4601 252.34C98.0401 252.86 98.7401 253.11 99.5601 253.11C100.23 253.11 100.8 252.95 101.25 252.64C101.7 252.33 102.02 251.91 102.2 251.39H103.88C103.63 252.29 103.13 253.01 102.37 253.57C101.61 254.13 100.68 254.41 99.5601 254.41C98.6701 254.41 97.87 254.21 97.17 253.81C96.47 253.41 95.9201 252.85 95.5201 252.12C95.1201 251.39 94.92 250.54 94.92 249.58C94.92 248.62 95.1101 247.77 95.5001 247.05C95.8901 246.32 96.4301 245.77 97.1401 245.38C97.8401 244.99 98.6501 244.79 99.5601 244.79C100.47 244.79 101.24 244.98 101.92 245.37C102.61 245.75 103.13 246.29 103.5 246.96C103.87 247.63 104.06 248.4 104.06 249.25C104.06 249.54 104.04 249.86 104.01 250.18V250.19ZM102.05 247.41C101.79 246.99 101.43 246.66 100.98 246.44C100.53 246.22 100.03 246.11 99.48 246.11C98.69 246.11 98.02 246.36 97.47 246.86C96.92 247.36 96.6001 248.05 96.5201 248.93H102.45C102.45 248.34 102.32 247.83 102.06 247.41H102.05Z" fill="#A6A6A6"/>
<path d="M113.46 245.81C114.17 246.5 114.52 247.48 114.52 248.78V254.27H112.98V249C112.98 248.07 112.75 247.36 112.28 246.87C111.81 246.38 111.17 246.13 110.36 246.13C109.55 246.13 108.88 246.38 108.4 246.89C107.92 247.4 107.67 248.14 107.67 249.12V254.27H106.11V244.95H107.67V246.28C107.98 245.8 108.4 245.44 108.93 245.18C109.46 244.92 110.05 244.79 110.69 244.79C111.83 244.79 112.76 245.13 113.46 245.82V245.81Z" fill="#A6A6A6"/>
<path d="M118.46 254.06C117.89 253.82 117.44 253.48 117.11 253.04C116.78 252.6 116.6 252.1 116.56 251.54H118.17C118.21 252 118.44 252.38 118.83 252.68C119.22 252.98 119.74 253.12 120.38 253.12C120.97 253.12 121.44 252.99 121.78 252.73C122.12 252.47 122.29 252.14 122.29 251.74C122.29 251.34 122.11 251.03 121.74 250.83C121.37 250.63 120.81 250.44 120.04 250.24C119.34 250.06 118.78 249.87 118.34 249.69C117.9 249.5 117.52 249.23 117.21 248.86C116.9 248.49 116.74 248.01 116.74 247.41C116.74 246.93 116.88 246.5 117.17 246.1C117.46 245.7 117.86 245.39 118.39 245.16C118.91 244.93 119.51 244.81 120.19 244.81C121.23 244.81 122.07 245.07 122.71 245.59C123.35 246.11 123.69 246.83 123.74 247.73H122.18C122.15 247.24 121.95 246.85 121.59 246.56C121.23 246.27 120.75 246.12 120.14 246.12C119.58 246.12 119.14 246.24 118.8 246.48C118.47 246.72 118.3 247.03 118.3 247.41C118.3 247.72 118.4 247.97 118.6 248.17C118.8 248.37 119.05 248.53 119.35 248.65C119.65 248.77 120.07 248.9 120.61 249.05C121.28 249.23 121.83 249.41 122.25 249.59C122.67 249.77 123.04 250.03 123.34 250.38C123.64 250.73 123.8 251.19 123.81 251.76C123.81 252.27 123.67 252.73 123.38 253.14C123.09 253.55 122.69 253.87 122.17 254.1C121.65 254.33 121.05 254.45 120.38 254.45C119.66 254.45 119.01 254.33 118.44 254.08L118.46 254.06Z" fill="#A6A6A6"/>
<path d="M140.03 168.1L125.65 147.19C125.1 146.39 124.34 145.81 123.5 145.46C123.37 145.36 123.25 145.25 123.11 145.17L101.42 131.99C100.22 131.26 98.83 131.12 97.57 131.48C92.57 125.96 85.11 122.8 77.13 123.57L67.36 124.51C59.07 125.31 52.16 130.18 48.39 136.94C46.63 136.03 44.42 136.24 42.87 137.66L24.11 154.75C23.99 154.86 23.89 154.99 23.79 155.11C23.03 155.61 22.4 156.33 22.02 157.22L11.91 180.5C10.84 182.97 11.97 185.85 14.44 186.92C16.91 187.99 19.79 186.86 20.86 184.39L30.55 162.07C30.55 162.07 30.64 162.01 30.68 161.97L45.31 148.65C45.31 149.48 45.34 150.32 45.42 151.16L48.23 180.21C49.53 193.62 61.45 203.45 74.87 202.15L84.64 201.21C98.05 199.91 107.88 187.99 106.58 174.57L103.77 145.52C103.75 145.28 103.71 145.04 103.68 144.8L118.04 153.53C118.04 153.53 118.14 153.57 118.19 153.6L131.98 173.65C133.51 175.87 136.55 176.43 138.77 174.91C140.99 173.38 141.55 170.34 140.03 168.12V168.1Z" fill="white" stroke="black" stroke-miterlimit="10"/>
<path d="M23.4001 191.48L22.4401 188.15C22.2901 187.62 21.9601 187.18 21.5401 186.87C21.2701 184.67 19.9901 182.62 17.9001 181.46C14.4201 179.53 10.0401 180.78 8.10005 184.25L6.04005 187.95C4.11005 191.43 5.36009 195.81 8.83009 197.75C12.3001 199.69 16.6901 198.43 18.6301 194.96L19.2601 193.82C19.8701 194.47 20.81 194.78 21.72 194.51C23.02 194.13 23.7701 192.78 23.3901 191.48H23.4001Z" fill="white" stroke="black" stroke-miterlimit="10"/>
<path d="M147.23 174.3L144.5 171.06C141.94 168.02 137.39 167.63 134.35 170.2C132.52 171.74 131.66 173.99 131.81 176.21C131.46 176.59 131.22 177.08 131.17 177.64L130.86 181.1C130.74 182.45 131.74 183.64 133.08 183.75C134.03 183.83 134.89 183.36 135.37 182.6L136.21 183.59C138.77 186.63 143.32 187.02 146.36 184.45C149.4 181.88 149.79 177.34 147.22 174.3H147.23Z" fill="white" stroke="black" stroke-miterlimit="10"/>
<path d="M48.2101 179.8L106.5 174.16L106.55 174.65C107.85 188.06 98.02 199.99 84.61 201.29L74.9001 202.23C61.4901 203.53 49.5601 193.7 48.2601 180.29L48.2101 179.8Z" fill="white" stroke="black" stroke-miterlimit="10"/>
<path d="M128.41 55.6302C127.42 55.4102 126.4 55.5002 125.43 55.8402C125.41 55.5302 125.39 55.2302 125.36 54.9202C122.21 22.3302 93.2301 -1.53979 60.6401 1.61021C28.0501 4.76021 4.18006 33.7402 7.33006 66.3302C7.36006 66.6202 7.40005 66.9102 7.44005 67.2002C6.51005 67.1102 5.59003 67.2202 4.74003 67.5802C0.980034 69.2002 -0.159953 74.9402 2.19005 80.4102C4.54005 85.8802 9.49005 89.0002 13.2601 87.3902C13.3101 87.3702 13.36 87.3302 13.41 87.3102C23.24 106.8 43.39 119.83 66.05 119.91C66.03 120.25 66.02 120.6 66.05 120.95L66.5201 125.81C66.8401 129.16 69.83 131.62 73.18 131.29C76.53 130.96 78.99 127.98 78.66 124.63L78.19 119.77C78.16 119.42 78.09 119.08 78 118.75C100.26 114.32 117.56 97.6302 123.45 76.5702C123.58 76.6102 123.71 76.6602 123.85 76.6902C127.85 77.5602 132.11 73.5402 133.37 67.7202C134.63 61.9002 132.41 56.4802 128.41 55.6202V55.6302Z" fill="white" stroke="black" stroke-miterlimit="10"/>
<path d="M97.708 83.3889C104.684 82.7148 109.814 76.7314 109.166 70.0248C108.517 63.3182 102.337 58.4279 95.3609 59.1021C88.3849 59.7762 83.2552 65.7595 83.9033 72.4662C84.5514 79.1728 90.732 84.0631 97.708 83.3889Z" fill="black" stroke="black" stroke-miterlimit="10"/>
<path d="M38.6297 91.0554C45.6057 90.3812 50.7354 84.3979 50.0873 77.6913C49.4392 70.9847 43.2586 66.0944 36.2826 66.7686C29.3066 67.4427 24.1769 73.426 24.825 80.1327C25.4732 86.8393 31.6537 91.7296 38.6297 91.0554Z" fill="black" stroke="black" stroke-miterlimit="10"/>
<path d="M70.1302 101.45C69.9702 101.46 69.8201 101.47 69.6601 101.48C67.3801 101.53 65.4502 100.25 64.4002 99.0403C63.9602 98.5303 64.0102 97.7603 64.5202 97.3203C65.0302 96.8803 65.8001 96.9303 66.2401 97.4403C66.9001 98.2003 68.1701 99.0703 69.6001 99.0403C70.9701 99.0103 72.3202 98.1903 73.5902 96.5903C74.0102 96.0603 74.7801 95.9803 75.3001 96.4003C75.8301 96.8203 75.9101 97.5903 75.4901 98.1103C73.8701 100.14 72.0601 101.27 70.1101 101.46L70.1302 101.45Z" fill="black" stroke="black" stroke-miterlimit="10"/>
<path d="M102.96 70.0705C104.849 70.0705 106.38 68.5393 106.38 66.6505C106.38 64.7616 104.849 63.2305 102.96 63.2305C101.071 63.2305 99.54 64.7616 99.54 66.6505C99.54 68.5393 101.071 70.0705 102.96 70.0705Z" fill="white" stroke="black" stroke-miterlimit="10"/>
<path d="M43.89 77.7404C45.7788 77.7404 47.31 76.2092 47.31 74.3204C47.31 72.4316 45.7788 70.9004 43.89 70.9004C42.0012 70.9004 40.47 72.4316 40.47 74.3204C40.47 76.2092 42.0012 77.7404 43.89 77.7404Z" fill="white" stroke="black" stroke-miterlimit="10"/>
<path d="M27.5001 31.5404C10.2301 27.3304 6.81011 53.3204 7.64011 67.0404C3.50011 47.9104 13.9201 7.76039 57.2601 2.18039C106.27 -4.12961 123.15 34.5404 125.19 55.6704C119.61 41.0904 107.65 16.7204 96.4701 24.8604C82.5001 35.0404 73.0501 43.7904 63.5801 44.7104C48.0401 46.2104 49.0901 36.8004 27.5001 31.5304V31.5404Z" stroke="black" stroke-miterlimit="10"/>
</svg>
