<svg width="543" height="91" viewBox="0 0 543 91" fill="none" xmlns="http://www.w3.org/2000/svg">
<path d="M512.81 20.27H30.2602C13.7966 20.27 0.450195 33.6164 0.450195 50.08V60.46C0.450195 76.9236 13.7966 90.27 30.2602 90.27H512.81C529.274 90.27 542.62 76.9236 542.62 60.46V50.08C542.62 33.6164 529.274 20.27 512.81 20.27Z" fill="#C6A7F0"/>
<path d="M57.6201 42.7803V46.5903H45.5201V54.9903H54.9501V58.8003H45.5201V71.2603H40.8501V42.7603H57.6201V42.7803Z" fill="white"/>
<path d="M67.6502 69.7001C65.4202 68.4601 63.6602 66.7202 62.3602 64.4902C61.0602 62.2602 60.4102 59.7502 60.4102 56.9702C60.4102 54.1902 61.0602 51.6802 62.3602 49.4702C63.6602 47.2602 65.4202 45.5302 67.6502 44.2802C69.8802 43.0402 72.3202 42.4102 74.9702 42.4102C77.6202 42.4102 80.1002 43.0302 82.3302 44.2802C84.5602 45.5202 86.3102 47.2502 87.6002 49.4702C88.8802 51.6802 89.5302 54.1802 89.5302 56.9702C89.5302 59.7602 88.8902 62.2702 87.6002 64.4902C86.3102 66.7202 84.5602 68.4501 82.3302 69.7001C80.1002 70.9401 77.6502 71.5702 74.9702 71.5702C72.2902 71.5702 69.8802 70.9501 67.6502 69.7001ZM80.0102 66.2102C81.4902 65.3502 82.6402 64.1202 83.4702 62.5202C84.3002 60.9202 84.7202 59.0702 84.7202 56.9702C84.7202 54.8702 84.3002 53.0201 83.4702 51.4301C82.6402 49.8501 81.4802 48.6302 80.0102 47.7802C78.5302 46.9302 76.8502 46.5101 74.9702 46.5101C73.0902 46.5101 71.4002 46.9302 69.9302 47.7802C68.4502 48.6302 67.3002 49.8401 66.4702 51.4301C65.6402 53.0101 65.2202 54.8602 65.2202 56.9702C65.2202 59.0802 65.6402 60.9302 66.4702 62.5202C67.3002 64.1202 68.4602 65.3502 69.9302 66.2102C71.4102 67.0702 73.0902 67.5002 74.9702 67.5002C76.8502 67.5002 78.5402 67.0702 80.0102 66.2102Z" fill="white"/>
<path d="M108.91 71.27L102.35 59.87H98.7799V71.27H94.1099V42.77H103.95C106.14 42.77 107.99 43.15 109.51 43.92C111.03 44.69 112.16 45.71 112.91 46.99C113.66 48.28 114.04 49.71 114.04 51.3C114.04 53.16 113.5 54.85 112.42 56.36C111.34 57.88 109.68 58.91 107.44 59.46L114.49 71.27H108.91ZM98.7899 56.14H103.96C105.71 56.14 107.03 55.7 107.92 54.83C108.81 53.96 109.25 52.78 109.25 51.3C109.25 49.82 108.81 48.67 107.94 47.84C107.06 47.01 105.74 46.59 103.96 46.59H98.7899V56.14Z" fill="white"/>
<path d="M150.04 42.7803V71.2803H145.37V51.7603L136.68 71.2803H133.44L124.71 51.7603V71.2803H120.04V42.7803H125.08L135.08 65.1203L145.04 42.7803H150.04Z" fill="white"/>
<path d="M173.36 65.45H161.43L159.38 71.27H154.5L164.71 42.73H170.12L180.33 71.27H175.41L173.36 65.45ZM172.05 61.64L167.42 48.4L162.75 61.64H172.06H172.05Z" fill="white"/>
<path d="M188.99 70.5604C187.46 69.8904 186.26 68.9404 185.38 67.7104C184.5 66.4804 184.07 65.0404 184.07 63.4104H189.07C189.18 64.6404 189.66 65.6504 190.53 66.4404C191.4 67.2304 192.6 67.6304 194.16 67.6304C195.72 67.6304 197.03 67.2404 197.93 66.4604C198.83 65.6804 199.28 64.6804 199.28 63.4504C199.28 62.4904 199 61.7104 198.44 61.1104C197.88 60.5104 197.18 60.0404 196.35 59.7204C195.52 59.3904 194.36 59.0404 192.89 58.6504C191.03 58.1604 189.52 57.6604 188.36 57.1504C187.2 56.6404 186.21 55.8604 185.39 54.7904C184.57 53.7204 184.16 52.3004 184.16 50.5304C184.16 48.8904 184.57 47.4504 185.39 46.2304C186.21 45.0004 187.36 44.0604 188.83 43.4004C190.31 42.7404 192.01 42.4204 193.95 42.4204C196.71 42.4204 198.97 43.1104 200.74 44.4904C202.5 45.8704 203.48 47.7604 203.67 50.1704H198.5C198.42 49.1304 197.93 48.2404 197.02 47.5004C196.12 46.7604 194.93 46.3904 193.45 46.3904C192.11 46.3904 191.02 46.7304 190.17 47.4104C189.32 48.0904 188.9 49.0804 188.9 50.3604C188.9 51.2404 189.17 51.9504 189.7 52.5104C190.23 53.0704 190.91 53.5104 191.73 53.8404C192.55 54.1704 193.67 54.5204 195.09 54.9104C196.98 55.4304 198.51 55.9504 199.7 56.4704C200.89 56.9904 201.9 57.7904 202.73 58.8704C203.56 59.9504 203.98 61.3904 203.98 63.2004C203.98 64.6504 203.59 66.0204 202.81 67.3004C202.03 68.5804 200.9 69.6204 199.41 70.3904C197.92 71.1704 196.16 71.5604 194.14 71.5604C192.23 71.5604 190.5 71.2304 188.97 70.5604H188.99Z" fill="white"/>
<path d="M240.81 50.9804C240.07 49.5604 239.05 48.4904 237.73 47.7604C236.42 47.0404 234.9 46.6704 233.18 46.6704C231.29 46.6704 229.61 47.0904 228.14 47.9404C226.66 48.7904 225.51 49.9904 224.68 51.5504C223.85 53.1104 223.43 54.9104 223.43 56.9604C223.43 59.0104 223.85 60.8204 224.68 62.3904C225.51 63.9604 226.67 65.1704 228.14 66.0204C229.62 66.8704 231.3 67.2904 233.18 67.2904C235.72 67.2904 237.79 66.5804 239.37 65.1604C240.95 63.7404 241.93 61.8104 242.28 59.3804H231.58V55.6504H247.28V59.3004C246.98 61.5104 246.19 63.5504 244.92 65.4104C243.65 67.2704 242 68.7504 239.96 69.8604C237.92 70.9704 235.66 71.5204 233.17 71.5204C230.49 71.5204 228.05 70.9004 225.83 69.6504C223.61 68.4004 221.86 66.6804 220.56 64.4604C219.26 62.2504 218.61 59.7404 218.61 56.9604C218.61 54.1804 219.26 51.6704 220.56 49.4604C221.86 47.2504 223.62 45.5204 225.85 44.2704C228.08 43.0304 230.52 42.4004 233.17 42.4004C236.2 42.4004 238.9 43.1504 241.27 44.6304C243.63 46.1204 245.35 48.2304 246.42 50.9604H240.8L240.81 50.9804Z" fill="white"/>
<path d="M256.55 46.5502V54.9102H266.39V58.7202H256.55V67.4502H267.62V71.2602H251.88V42.7202H267.62V46.5302H256.55V46.5502Z" fill="white"/>
<path d="M279.04 69.7001C276.81 68.4601 275.05 66.7202 273.75 64.4902C272.45 62.2602 271.8 59.7502 271.8 56.9702C271.8 54.1902 272.45 51.6802 273.75 49.4702C275.05 47.2602 276.81 45.5302 279.04 44.2802C281.27 43.0402 283.71 42.4102 286.36 42.4102C289.01 42.4102 291.49 43.0302 293.72 44.2802C295.95 45.5202 297.7 47.2502 298.99 49.4702C300.27 51.6802 300.92 54.1802 300.92 56.9702C300.92 59.7602 300.28 62.2702 298.99 64.4902C297.7 66.7202 295.95 68.4501 293.72 69.7001C291.49 70.9401 289.04 71.5702 286.36 71.5702C283.68 71.5702 281.27 70.9501 279.04 69.7001ZM291.4 66.2102C292.88 65.3502 294.03 64.1202 294.86 62.5202C295.69 60.9202 296.11 59.0702 296.11 56.9702C296.11 54.8702 295.69 53.0201 294.86 51.4301C294.03 49.8501 292.87 48.6302 291.4 47.7802C289.92 46.9302 288.24 46.5101 286.36 46.5101C284.48 46.5101 282.79 46.9302 281.32 47.7802C279.84 48.6302 278.69 49.8401 277.86 51.4301C277.03 53.0101 276.61 54.8602 276.61 56.9702C276.61 59.0802 277.03 60.9302 277.86 62.5202C278.69 64.1202 279.85 65.3502 281.32 66.2102C282.8 67.0702 284.48 67.5002 286.36 67.5002C288.24 67.5002 289.93 67.0702 291.4 66.2102Z" fill="white"/>
<path d="M335.52 42.7803V71.2803H330.85V51.7603L322.16 71.2803H318.92L310.19 51.7603V71.2803H305.52V42.7803H310.56L320.56 65.1203L330.52 42.7803H335.52Z" fill="white"/>
<path d="M346.34 46.5502V54.9102H356.18V58.7202H346.34V67.4502H357.41V71.2602H341.67V42.7202H357.41V46.5302H346.34V46.5502ZM353.56 36.6702L344.5 41.1402V37.7002L353.56 32.7002V36.6802V36.6702Z" fill="white"/>
<path d="M381.56 42.7803V46.5903H373.98V71.2703H369.31V46.5903H361.68V42.7803H381.56Z" fill="white"/>
<path d="M401.08 71.27L394.52 59.87H390.95V71.27H386.28V42.77H396.12C398.31 42.77 400.16 43.15 401.68 43.92C403.2 44.69 404.33 45.71 405.08 46.99C405.83 48.28 406.21 49.71 406.21 51.3C406.21 53.16 405.67 54.85 404.59 56.36C403.51 57.88 401.85 58.91 399.61 59.46L406.66 71.27H401.08ZM390.95 56.14H396.12C397.87 56.14 399.19 55.7 400.08 54.83C400.97 53.96 401.41 52.78 401.41 51.3C401.41 49.82 400.97 48.67 400.1 47.84C399.22 47.01 397.9 46.59 396.12 46.59H390.95V56.14Z" fill="white"/>
<path d="M416.86 42.7803V71.2803H412.19V42.7803H416.86Z" fill="white"/>
<path d="M423.4 49.4604C424.7 47.2504 426.46 45.5204 428.69 44.2704C430.92 43.0304 433.36 42.4004 436.01 42.4004C439.04 42.4004 441.74 43.1504 444.11 44.6304C446.47 46.1204 448.19 48.2304 449.26 50.9604H443.64C442.9 49.4604 441.88 48.3404 440.56 47.6004C439.25 46.8604 437.73 46.4904 436.01 46.4904C434.12 46.4904 432.44 46.9104 430.97 47.7604C429.49 48.6104 428.34 49.8204 427.51 51.4104C426.68 52.9904 426.26 54.8404 426.26 56.9504C426.26 59.0604 426.68 60.9004 427.51 62.4804C428.34 64.0704 429.5 65.2904 430.97 66.1504C432.45 67.0104 434.13 67.4404 436.01 67.4404C437.73 67.4404 439.25 67.0704 440.56 66.3304C441.87 65.5904 442.9 64.4704 443.64 62.9704H449.26C448.19 65.7004 446.48 67.8104 444.11 69.2804C441.75 70.7604 439.05 71.4904 436.01 71.4904C433.33 71.4904 430.89 70.8704 428.67 69.6204C426.45 68.3704 424.7 66.6504 423.4 64.4304C422.1 62.2204 421.45 59.7104 421.45 56.9304C421.45 54.1504 422.1 51.6404 423.4 49.4304V49.4604Z" fill="white"/>
<path d="M471.88 65.45H459.95L457.9 71.27H453.02L463.23 42.73H468.64L478.85 71.27H473.93L471.88 65.45ZM470.57 61.64L465.94 48.4L461.27 61.64H470.58H470.57Z" fill="white"/>
<path d="M487.5 70.5604C485.97 69.8904 484.77 68.9404 483.89 67.7104C483.01 66.4804 482.58 65.0404 482.58 63.4104H487.58C487.69 64.6404 488.17 65.6504 489.04 66.4404C489.91 67.2304 491.11 67.6304 492.67 67.6304C494.23 67.6304 495.54 67.2404 496.44 66.4604C497.34 65.6804 497.79 64.6804 497.79 63.4504C497.79 62.4904 497.51 61.7104 496.95 61.1104C496.39 60.5104 495.69 60.0404 494.86 59.7204C494.03 59.3904 492.87 59.0404 491.4 58.6504C489.54 58.1604 488.03 57.6604 486.87 57.1504C485.71 56.6404 484.72 55.8604 483.9 54.7904C483.08 53.7204 482.67 52.3004 482.67 50.5304C482.67 48.8904 483.08 47.4504 483.9 46.2304C484.72 45.0004 485.87 44.0604 487.34 43.4004C488.82 42.7404 490.52 42.4204 492.46 42.4204C495.22 42.4204 497.48 43.1104 499.25 44.4904C501.01 45.8704 501.99 47.7604 502.18 50.1704H497.01C496.93 49.1304 496.44 48.2404 495.53 47.5004C494.63 46.7604 493.44 46.3904 491.96 46.3904C490.62 46.3904 489.53 46.7304 488.68 47.4104C487.83 48.0904 487.41 49.0804 487.41 50.3604C487.41 51.2404 487.68 51.9504 488.21 52.5104C488.74 53.0704 489.42 53.5104 490.24 53.8404C491.06 54.1704 492.18 54.5204 493.6 54.9104C495.49 55.4304 497.02 55.9504 498.21 56.4704C499.4 56.9904 500.41 57.7904 501.24 58.8704C502.07 59.9504 502.49 61.3904 502.49 63.2004C502.49 64.6504 502.1 66.0204 501.32 67.3004C500.54 68.5804 499.41 69.6204 497.92 70.3904C496.43 71.1704 494.67 71.5604 492.65 71.5604C490.74 71.5604 489.01 71.2304 487.48 70.5604H487.5Z" fill="white"/>
<path d="M248.41 11.8298L245.69 7.09978H244.21V11.8298H242.27V0.00976562H246.35C247.26 0.00976562 248.02 0.169777 248.65 0.489777C249.28 0.809777 249.75 1.22977 250.06 1.75977C250.37 2.28977 250.53 2.88977 250.53 3.54977C250.53 4.31977 250.31 5.01976 249.86 5.64977C249.41 6.27977 248.72 6.70976 247.79 6.92976L250.71 11.8298H248.4H248.41ZM244.21 5.54977H246.35C247.08 5.54977 247.62 5.36977 247.99 5.00977C248.36 4.64977 248.54 4.15977 248.54 3.54977C248.54 2.93977 248.36 2.45977 248 2.10977C247.64 1.75977 247.09 1.58977 246.35 1.58977H244.21V5.54977Z" fill="#A6A6A6"/>
<path d="M261.53 7.85982H254.37C254.43 8.60982 254.7 9.20982 255.2 9.65982C255.7 10.1098 256.31 10.3398 257.04 10.3398C258.08 10.3398 258.82 9.89982 259.25 9.02982H261.34C261.06 9.88982 260.54 10.5998 259.8 11.1498C259.06 11.6998 258.14 11.9798 257.04 11.9798C256.14 11.9798 255.34 11.7798 254.63 11.3798C253.92 10.9798 253.37 10.4098 252.96 9.67981C252.56 8.94981 252.36 8.09982 252.36 7.13982C252.36 6.17982 252.56 5.32982 252.95 4.59982C253.34 3.86982 253.89 3.30982 254.6 2.90982C255.31 2.50982 256.12 2.31982 257.04 2.31982C257.96 2.31982 258.71 2.50981 259.4 2.89981C260.09 3.28981 260.63 3.82982 261.02 4.51982C261.4 5.21982 261.6 6.01981 261.6 6.92981C261.6 7.27981 261.58 7.59982 261.53 7.87982V7.85982ZM259.58 6.29982C259.57 5.58982 259.31 5.00982 258.81 4.57982C258.31 4.14982 257.69 3.92981 256.96 3.92981C256.29 3.92981 255.72 4.13982 255.24 4.56982C254.76 4.99982 254.48 5.56982 254.39 6.29982H259.58Z" fill="#A6A6A6"/>
<path d="M263.44 4.58957C263.83 3.85957 264.37 3.29957 265.06 2.89957C265.75 2.49957 266.54 2.30957 267.44 2.30957C268.57 2.30957 269.51 2.57957 270.25 3.11957C270.99 3.65957 271.49 4.42957 271.75 5.41957H269.66C269.49 4.95957 269.22 4.58957 268.84 4.32957C268.46 4.06957 268 3.93958 267.43 3.93958C266.64 3.93958 266 4.21957 265.53 4.77957C265.06 5.33957 264.82 6.12958 264.82 7.12958C264.82 8.12958 265.05 8.92958 265.53 9.48958C266 10.0596 266.63 10.3396 267.43 10.3396C268.55 10.3396 269.29 9.84957 269.66 8.85957H271.75C271.48 9.80957 270.97 10.5696 270.22 11.1296C269.47 11.6896 268.54 11.9696 267.43 11.9696C266.53 11.9696 265.74 11.7696 265.05 11.3696C264.36 10.9696 263.82 10.3996 263.43 9.66957C263.04 8.93957 262.84 8.08958 262.84 7.12958C262.84 6.16958 263.04 5.31957 263.43 4.58957H263.44Z" fill="#A6A6A6"/>
<path d="M275.37 11.3798C274.66 10.9798 274.1 10.4098 273.69 9.67981C273.28 8.94981 273.08 8.09982 273.08 7.13982C273.08 6.17982 273.29 5.33982 273.71 4.60982C274.13 3.86982 274.7 3.30982 275.43 2.90982C276.16 2.50982 276.97 2.31982 277.86 2.31982C278.75 2.31982 279.57 2.51982 280.29 2.90982C281.02 3.30982 281.59 3.86982 282.01 4.60982C282.43 5.34982 282.64 6.18982 282.64 7.13982C282.64 8.08982 282.42 8.93982 281.99 9.66982C281.56 10.4098 280.97 10.9798 280.23 11.3798C279.49 11.7798 278.67 11.9798 277.77 11.9798C276.87 11.9798 276.09 11.7798 275.37 11.3798ZM279.17 9.93982C279.61 9.69982 279.96 9.33981 280.23 8.86981C280.5 8.38981 280.64 7.81982 280.64 7.13982C280.64 6.45982 280.51 5.88982 280.25 5.40982C279.99 4.93982 279.64 4.58982 279.21 4.34982C278.78 4.10982 278.31 3.98982 277.82 3.98982C277.33 3.98982 276.86 4.10982 276.43 4.34982C276.01 4.58982 275.67 4.93982 275.42 5.40982C275.17 5.87982 275.05 6.45982 275.05 7.13982C275.05 8.14982 275.31 8.92981 275.82 9.47981C276.34 10.0298 276.98 10.2998 277.77 10.2998C278.27 10.2998 278.74 10.1798 279.17 9.93982Z" fill="#A6A6A6"/>
<path d="M287.62 2.70958C288.09 2.43958 288.65 2.30957 289.29 2.30957V4.31958H288.8C288.04 4.31958 287.47 4.50957 287.07 4.89957C286.68 5.27957 286.48 5.94958 286.48 6.90958V11.8396H284.54V2.46957H286.48V3.82957C286.76 3.34957 287.14 2.97957 287.61 2.71957L287.62 2.70958Z" fill="#A6A6A6"/>
<path d="M293.34 4.03964V9.22964C293.34 9.57965 293.42 9.82965 293.59 9.98965C293.75 10.1397 294.03 10.2197 294.43 10.2197H295.62V11.8396H294.09C293.22 11.8396 292.55 11.6396 292.08 11.2296C291.62 10.8196 291.38 10.1597 291.38 9.23965V4.04965H290.28V2.46965H291.38V0.139648H293.34V2.46965H295.62V4.04965H293.34V4.03964Z" fill="#A6A6A6"/>
<path d="M305.92 7.85982H298.76C298.82 8.60982 299.09 9.20982 299.59 9.65982C300.09 10.1098 300.7 10.3398 301.43 10.3398C302.47 10.3398 303.21 9.89982 303.64 9.02982H305.73C305.45 9.88982 304.93 10.5998 304.19 11.1498C303.45 11.6998 302.53 11.9798 301.43 11.9798C300.53 11.9798 299.73 11.7798 299.02 11.3798C298.31 10.9798 297.76 10.4098 297.35 9.67981C296.95 8.94981 296.75 8.09982 296.75 7.13982C296.75 6.17982 296.95 5.32982 297.34 4.59982C297.73 3.86982 298.28 3.30982 298.99 2.90982C299.7 2.50982 300.51 2.31982 301.43 2.31982C302.35 2.31982 303.1 2.50981 303.79 2.89981C304.48 3.28981 305.02 3.82982 305.41 4.51982C305.79 5.21982 305.99 6.01981 305.99 6.92981C305.99 7.27981 305.97 7.59982 305.92 7.87982V7.85982ZM303.96 6.29982C303.95 5.58982 303.69 5.00982 303.19 4.57982C302.69 4.14982 302.07 3.92981 301.34 3.92981C300.67 3.92981 300.1 4.13982 299.62 4.56982C299.14 4.99982 298.86 5.56982 298.77 6.29982H303.96Z" fill="#A6A6A6"/>
<path d="M309.31 11.5796C308.73 11.3096 308.26 10.9496 307.92 10.4896C307.58 10.0296 307.4 9.51955 307.38 8.94955H309.39C309.42 9.34955 309.61 9.67956 309.96 9.93956C310.31 10.2096 310.74 10.3396 311.26 10.3396C311.78 10.3396 312.23 10.2296 312.53 10.0196C312.83 9.80956 312.98 9.53956 312.98 9.20956C312.98 8.85956 312.81 8.59955 312.48 8.42955C312.15 8.25955 311.62 8.06955 310.89 7.86955C310.19 7.67955 309.62 7.48955 309.17 7.30956C308.73 7.12956 308.35 6.84955 308.02 6.47955C307.7 6.10955 307.54 5.60956 307.54 4.99956C307.54 4.49956 307.69 4.04956 307.98 3.62956C308.27 3.21956 308.7 2.88955 309.25 2.64955C309.8 2.40955 310.43 2.28955 311.15 2.28955C312.21 2.28955 313.07 2.55956 313.73 3.09956C314.38 3.63956 314.73 4.36956 314.78 5.29956H312.84C312.81 4.87956 312.64 4.54956 312.33 4.29956C312.02 4.04956 311.61 3.92955 311.09 3.92955C310.57 3.92955 310.19 4.02956 309.92 4.21956C309.65 4.40956 309.51 4.66955 309.51 4.97955C309.51 5.22955 309.6 5.43956 309.78 5.60956C309.96 5.77956 310.18 5.90955 310.44 6.00955C310.7 6.10955 311.09 6.22956 311.6 6.37956C312.28 6.55956 312.84 6.74955 313.27 6.92955C313.71 7.11955 314.08 7.38956 314.4 7.74956C314.72 8.10956 314.88 8.58955 314.89 9.19955C314.89 9.72955 314.74 10.2096 314.45 10.6296C314.16 11.0496 313.74 11.3796 313.2 11.6196C312.66 11.8596 312.03 11.9796 311.3 11.9796C310.57 11.9796 309.9 11.8496 309.32 11.5796H309.31Z" fill="#A6A6A6"/>
</svg>
