<svg width="219" height="231" viewBox="0 0 219 231" fill="none" xmlns="http://www.w3.org/2000/svg">
<path d="M80.86 198.02V199.28H75.67V203.28H79.88V204.54H75.67V209.88H74.11V198.03H80.86V198.02Z" fill="#A6A6A6"/>
<path d="M84.44 209.43C83.73 209.03 83.17 208.47 82.76 207.74C82.35 207.01 82.15 206.16 82.15 205.2C82.15 204.24 82.36 203.41 82.77 202.68C83.19 201.95 83.76 201.39 84.47 201C85.19 200.61 85.99 200.41 86.89 200.41C87.79 200.41 88.59 200.61 89.31 201C90.03 201.39 90.6 201.95 91.01 202.67C91.42 203.39 91.63 204.24 91.63 205.2C91.63 206.16 91.42 207.01 90.99 207.74C90.56 208.47 89.98 209.03 89.25 209.43C88.52 209.83 87.71 210.03 86.82 210.03C85.93 210.03 85.14 209.83 84.43 209.43H84.44ZM88.41 208.27C88.9 208.01 89.3 207.62 89.6 207.1C89.9 206.58 90.05 205.94 90.05 205.2C90.05 204.46 89.9 203.82 89.6 203.3C89.3 202.78 88.92 202.39 88.44 202.14C87.96 201.89 87.44 201.76 86.88 201.76C86.32 201.76 85.79 201.89 85.31 202.14C84.83 202.39 84.46 202.78 84.17 203.3C83.88 203.82 83.74 204.46 83.74 205.2C83.74 205.94 83.88 206.6 84.16 207.12C84.44 207.64 84.81 208.03 85.28 208.28C85.75 208.53 86.26 208.66 86.82 208.66C87.38 208.66 87.9 208.53 88.4 208.27H88.41Z" fill="#A6A6A6"/>
<path d="M96.43 200.83C96.94 200.54 97.56 200.39 98.29 200.39V201.99H97.88C96.13 201.99 95.26 202.93 95.26 204.81V209.88H93.7V200.56H95.26V202.07C95.53 201.54 95.93 201.12 96.43 200.83Z" fill="#A6A6A6"/>
<path d="M113.33 200.84C113.9 201.14 114.35 201.59 114.68 202.19C115.01 202.79 115.18 203.52 115.18 204.38V209.87H113.64V204.6C113.64 203.67 113.41 202.96 112.95 202.47C112.49 201.98 111.86 201.73 111.07 201.73C110.28 201.73 109.61 201.99 109.13 202.5C108.65 203.01 108.41 203.76 108.41 204.74V209.87H106.87V204.6C106.87 203.67 106.64 202.96 106.18 202.47C105.72 201.98 105.09 201.73 104.3 201.73C103.51 201.73 102.84 201.99 102.36 202.5C101.88 203.01 101.64 203.76 101.64 204.74V209.87H100.08V200.55H101.64V201.89C101.95 201.4 102.36 201.03 102.88 200.77C103.4 200.51 103.97 200.38 104.6 200.38C105.39 200.38 106.08 200.56 106.69 200.91C107.3 201.26 107.75 201.78 108.04 202.46C108.3 201.8 108.74 201.29 109.34 200.93C109.95 200.57 110.62 200.39 111.36 200.39C112.1 200.39 112.74 200.54 113.31 200.84H113.33Z" fill="#A6A6A6"/>
<path d="M117.73 202.67C118.12 201.95 118.65 201.39 119.33 201C120.01 200.61 120.77 200.41 121.6 200.41C122.43 200.41 123.14 200.59 123.74 200.94C124.35 201.29 124.8 201.73 125.09 202.27V200.57H126.67V209.89H125.09V208.16C124.78 208.7 124.32 209.16 123.71 209.51C123.1 209.87 122.39 210.05 121.58 210.05C120.77 210.05 119.99 209.85 119.32 209.44C118.65 209.03 118.12 208.46 117.73 207.72C117.34 206.98 117.15 206.14 117.15 205.2C117.15 204.26 117.34 203.41 117.73 202.69V202.67ZM124.67 203.36C124.38 202.84 124 202.44 123.51 202.16C123.02 201.88 122.49 201.74 121.91 201.74C121.33 201.74 120.8 201.88 120.32 202.15C119.84 202.42 119.46 202.82 119.17 203.34C118.88 203.86 118.74 204.47 118.74 205.18C118.74 205.89 118.88 206.51 119.17 207.04C119.46 207.57 119.84 207.97 120.32 208.25C120.8 208.53 121.33 208.67 121.91 208.67C122.49 208.67 123.03 208.53 123.51 208.25C124 207.97 124.38 207.57 124.67 207.04C124.96 206.51 125.1 205.9 125.1 205.2C125.1 204.5 124.96 203.89 124.67 203.36Z" fill="#A6A6A6"/>
<path d="M132.04 200.83C132.55 200.54 133.17 200.39 133.9 200.39V201.99H133.49C131.74 201.99 130.87 202.93 130.87 204.81V209.88H129.31V200.56H130.87V202.07C131.14 201.54 131.54 201.12 132.04 200.83Z" fill="#A6A6A6"/>
<path d="M58.49 221.86C58.16 221.17 57.68 220.63 57.05 220.25C56.42 219.87 55.69 219.68 54.86 219.68C54.03 219.68 53.28 219.87 52.61 220.25C51.94 220.63 51.42 221.17 51.03 221.88C50.65 222.59 50.46 223.41 50.46 224.34C50.46 225.27 50.65 226.09 51.03 226.79C51.41 227.49 51.94 228.03 52.61 228.41C53.28 228.79 54.03 228.98 54.86 228.98C56.03 228.98 56.98 228.63 57.74 227.94C58.49 227.25 58.93 226.31 59.06 225.14H54.3V223.88H60.72V225.07C60.63 226.04 60.32 226.94 59.8 227.75C59.28 228.56 58.58 229.2 57.73 229.67C56.87 230.14 55.92 230.38 54.87 230.38C53.76 230.38 52.75 230.12 51.84 229.61C50.93 229.09 50.2 228.38 49.67 227.46C49.14 226.54 48.87 225.5 48.87 224.35C48.87 223.2 49.14 222.15 49.67 221.23C50.2 220.31 50.92 219.59 51.84 219.07C52.75 218.55 53.76 218.3 54.87 218.3C56.14 218.3 57.26 218.61 58.24 219.24C59.22 219.86 59.93 220.74 60.37 221.87H58.5L58.49 221.86Z" fill="#A6A6A6"/>
<path d="M71.28 226.19H63.78C63.84 227.11 64.15 227.82 64.73 228.34C65.31 228.86 66.01 229.11 66.83 229.11C67.5 229.11 68.07 228.95 68.52 228.64C68.97 228.33 69.29 227.91 69.47 227.39H71.15C70.9 228.29 70.4 229.01 69.64 229.57C68.88 230.13 67.95 230.41 66.83 230.41C65.94 230.41 65.14 230.21 64.44 229.81C63.74 229.41 63.19 228.85 62.79 228.12C62.39 227.39 62.19 226.54 62.19 225.58C62.19 224.62 62.38 223.77 62.77 223.05C63.16 222.32 63.7 221.77 64.41 221.38C65.11 220.99 65.92 220.79 66.83 220.79C67.74 220.79 68.51 220.98 69.19 221.37C69.88 221.75 70.4 222.29 70.77 222.96C71.14 223.63 71.33 224.4 71.33 225.25C71.33 225.54 71.31 225.86 71.28 226.18V226.19ZM69.33 223.41C69.07 222.99 68.71 222.66 68.26 222.44C67.81 222.22 67.31 222.11 66.76 222.11C65.97 222.11 65.3 222.36 64.75 222.86C64.2 223.36 63.88 224.05 63.8 224.93H69.73C69.73 224.34 69.6 223.83 69.34 223.41H69.33Z" fill="#A6A6A6"/>
<path d="M75.09 229.83C74.38 229.43 73.82 228.87 73.41 228.14C73 227.41 72.8 226.56 72.8 225.6C72.8 224.64 73.01 223.81 73.42 223.08C73.84 222.35 74.41 221.79 75.12 221.4C75.84 221.01 76.64 220.81 77.54 220.81C78.44 220.81 79.24 221.01 79.96 221.4C80.68 221.79 81.25 222.35 81.66 223.07C82.07 223.79 82.28 224.64 82.28 225.6C82.28 226.56 82.07 227.41 81.64 228.14C81.21 228.87 80.63 229.43 79.9 229.83C79.17 230.23 78.36 230.43 77.47 230.43C76.58 230.43 75.79 230.23 75.08 229.83H75.09ZM79.06 228.67C79.55 228.41 79.95 228.02 80.25 227.5C80.55 226.98 80.7 226.34 80.7 225.6C80.7 224.86 80.55 224.22 80.25 223.7C79.95 223.18 79.57 222.79 79.09 222.54C78.61 222.29 78.09 222.16 77.53 222.16C76.97 222.16 76.44 222.29 75.96 222.54C75.48 222.79 75.11 223.18 74.82 223.7C74.53 224.22 74.39 224.86 74.39 225.6C74.39 226.34 74.53 227 74.81 227.52C75.09 228.04 75.46 228.43 75.93 228.68C76.4 228.93 76.91 229.06 77.47 229.06C78.03 229.06 78.55 228.93 79.05 228.67H79.06Z" fill="#A6A6A6"/>
<path d="M97.59 221.24C98.16 221.54 98.61 221.99 98.94 222.59C99.27 223.19 99.44 223.92 99.44 224.78V230.27H97.9V225C97.9 224.07 97.67 223.36 97.21 222.87C96.75 222.38 96.12 222.13 95.33 222.13C94.54 222.13 93.87 222.39 93.39 222.9C92.91 223.41 92.67 224.16 92.67 225.14V230.27H91.13V225C91.13 224.07 90.9 223.36 90.44 222.87C89.98 222.38 89.35 222.13 88.56 222.13C87.77 222.13 87.1 222.39 86.62 222.9C86.14 223.41 85.9 224.16 85.9 225.14V230.27H84.34V220.95H85.9V222.29C86.21 221.8 86.62 221.43 87.14 221.17C87.66 220.91 88.23 220.78 88.86 220.78C89.65 220.78 90.34 220.96 90.95 221.31C91.56 221.66 92.01 222.18 92.3 222.86C92.56 222.2 93 221.69 93.6 221.33C94.21 220.97 94.88 220.79 95.62 220.79C96.36 220.79 97 220.94 97.57 221.24H97.59Z" fill="#A6A6A6"/>
<path d="M110.5 226.19H103C103.06 227.11 103.37 227.82 103.95 228.34C104.53 228.86 105.23 229.11 106.05 229.11C106.72 229.11 107.29 228.95 107.74 228.64C108.19 228.33 108.51 227.91 108.69 227.39H110.37C110.12 228.29 109.62 229.01 108.86 229.57C108.1 230.13 107.17 230.41 106.05 230.41C105.16 230.41 104.36 230.21 103.66 229.81C102.96 229.41 102.41 228.85 102.01 228.12C101.61 227.39 101.41 226.54 101.41 225.58C101.41 224.62 101.6 223.77 101.99 223.05C102.38 222.32 102.92 221.77 103.63 221.38C104.33 220.99 105.14 220.79 106.05 220.79C106.96 220.79 107.73 220.98 108.41 221.37C109.1 221.75 109.62 222.29 109.99 222.96C110.36 223.63 110.55 224.4 110.55 225.25C110.55 225.54 110.53 225.86 110.5 226.18V226.19ZM108.55 223.41C108.29 222.99 107.93 222.66 107.48 222.44C107.03 222.22 106.53 222.11 105.98 222.11C105.19 222.11 104.52 222.36 103.97 222.86C103.42 223.36 103.1 224.05 103.02 224.93H108.95C108.95 224.34 108.82 223.83 108.56 223.41H108.55Z" fill="#A6A6A6"/>
<path d="M114.51 222.23V227.72C114.51 228.17 114.61 228.49 114.8 228.68C114.99 228.87 115.33 228.96 115.81 228.96H116.96V230.27H115.56C114.69 230.27 114.04 230.07 113.61 229.68C113.18 229.28 112.96 228.63 112.96 227.72V222.23H111.74V220.95H112.96V218.6H114.52V220.95H116.97V222.23H114.52H114.51Z" fill="#A6A6A6"/>
<path d="M121.58 221.23C122.09 220.94 122.71 220.79 123.44 220.79V222.39H123.03C121.28 222.39 120.41 223.33 120.41 225.21V230.28H118.85V220.96H120.41V222.47C120.68 221.94 121.08 221.52 121.58 221.23Z" fill="#A6A6A6"/>
<path d="M125.28 219.14C125.07 218.94 124.97 218.69 124.97 218.39C124.97 218.09 125.07 217.85 125.28 217.64C125.49 217.43 125.74 217.33 126.03 217.33C126.32 217.33 126.56 217.43 126.76 217.64C126.96 217.84 127.06 218.09 127.06 218.39C127.06 218.69 126.96 218.93 126.76 219.14C126.56 219.34 126.32 219.45 126.03 219.45C125.74 219.45 125.48 219.35 125.28 219.14ZM126.79 220.95V230.27H125.23V220.95H126.79Z" fill="#A6A6A6"/>
<path d="M129.45 223.07C129.84 222.35 130.38 221.79 131.07 221.4C131.76 221 132.55 220.81 133.44 220.81C134.59 220.81 135.54 221.09 136.29 221.64C137.04 222.19 137.53 222.97 137.77 223.95H136.09C135.93 223.38 135.62 222.94 135.16 222.61C134.7 222.28 134.12 222.12 133.44 222.12C132.55 222.12 131.83 222.42 131.28 223.03C130.73 223.64 130.46 224.5 130.46 225.61C130.46 226.72 130.73 227.6 131.28 228.21C131.83 228.82 132.55 229.13 133.44 229.13C134.12 229.13 134.7 228.97 135.15 228.65C135.61 228.33 135.92 227.88 136.09 227.29H137.77C137.52 228.24 137.02 229 136.26 229.58C135.51 230.15 134.56 230.44 133.43 230.44C132.54 230.44 131.75 230.24 131.06 229.84C130.37 229.44 129.83 228.88 129.44 228.16C129.05 227.43 128.86 226.58 128.86 225.61C128.86 224.64 129.05 223.81 129.44 223.09L129.45 223.07Z" fill="#A6A6A6"/>
<path d="M139.84 223.07C140.23 222.35 140.76 221.79 141.44 221.4C142.12 221.01 142.88 220.81 143.71 220.81C144.54 220.81 145.25 220.99 145.85 221.34C146.46 221.69 146.91 222.13 147.2 222.67V220.97H148.78V230.29H147.2V228.56C146.89 229.1 146.43 229.56 145.82 229.91C145.21 230.27 144.5 230.45 143.69 230.45C142.88 230.45 142.1 230.25 141.43 229.84C140.76 229.43 140.23 228.86 139.84 228.12C139.45 227.38 139.26 226.54 139.26 225.6C139.26 224.66 139.45 223.81 139.84 223.09V223.07ZM146.78 223.76C146.49 223.24 146.11 222.84 145.62 222.56C145.13 222.28 144.6 222.14 144.02 222.14C143.44 222.14 142.91 222.28 142.43 222.55C141.95 222.82 141.57 223.22 141.28 223.74C140.99 224.26 140.85 224.87 140.85 225.58C140.85 226.29 140.99 226.91 141.28 227.44C141.57 227.97 141.95 228.37 142.43 228.65C142.91 228.93 143.44 229.07 144.02 229.07C144.6 229.07 145.14 228.93 145.62 228.65C146.11 228.37 146.49 227.97 146.78 227.44C147.07 226.91 147.21 226.3 147.21 225.6C147.21 224.9 147.07 224.29 146.78 223.76Z" fill="#A6A6A6"/>
<path d="M152.81 230.06C152.24 229.82 151.79 229.48 151.46 229.04C151.13 228.6 150.95 228.1 150.91 227.54H152.52C152.56 228 152.79 228.38 153.18 228.68C153.57 228.98 154.09 229.12 154.73 229.12C155.32 229.12 155.79 228.99 156.13 228.73C156.47 228.47 156.64 228.14 156.64 227.74C156.64 227.34 156.46 227.03 156.09 226.83C155.72 226.63 155.16 226.44 154.39 226.24C153.69 226.06 153.13 225.87 152.69 225.69C152.25 225.5 151.87 225.23 151.56 224.86C151.25 224.49 151.09 224.01 151.09 223.41C151.09 222.93 151.23 222.5 151.52 222.1C151.81 221.7 152.21 221.39 152.74 221.16C153.26 220.93 153.86 220.81 154.54 220.81C155.58 220.81 156.42 221.07 157.06 221.59C157.7 222.11 158.04 222.83 158.09 223.73H156.53C156.5 223.24 156.3 222.85 155.94 222.56C155.58 222.27 155.1 222.12 154.49 222.12C153.93 222.12 153.49 222.24 153.15 222.48C152.82 222.72 152.65 223.03 152.65 223.41C152.65 223.72 152.75 223.97 152.95 224.17C153.15 224.37 153.4 224.53 153.7 224.65C154 224.77 154.42 224.9 154.96 225.05C155.63 225.23 156.18 225.41 156.6 225.59C157.02 225.77 157.39 226.03 157.69 226.38C157.99 226.73 158.15 227.19 158.16 227.76C158.16 228.27 158.02 228.73 157.73 229.14C157.44 229.55 157.04 229.87 156.52 230.1C156 230.33 155.4 230.45 154.73 230.45C154.01 230.45 153.36 230.33 152.79 230.08L152.81 230.06Z" fill="#A6A6A6"/>
<path d="M115.662 98.835C130.66 74.5704 123.147 42.7419 98.8828 27.7441C74.6183 12.7463 42.7898 20.2585 27.7919 44.5231C12.7941 68.7877 20.3063 100.616 44.5709 115.614C68.8355 130.612 100.664 123.1 115.662 98.835Z" stroke="#EBACB2" stroke-width="4"/>
<path d="M192.54 120.3L190.22 125.83L184.68 123.52" stroke="#F1C9A2" stroke-width="4"/>
<path d="M180.3 121.68L137.77 103.88" stroke="#F1C9A2" stroke-width="4"/>
<path d="M135.58 102.96L130.04 100.64L132.36 95.1099" stroke="#F1C9A2" stroke-width="4"/>
<path d="M134.19 90.7199L152 48.1899" stroke="#F1C9A2" stroke-width="4"/>
<path d="M152.91 45.9998L155.23 40.4697L160.76 42.7798" stroke="#F1C9A2" stroke-width="4"/>
<path d="M165.15 44.6196L207.68 62.4196" stroke="#F1C9A2" stroke-width="4"/>
<path d="M209.87 63.3398L215.41 65.6498L213.09 71.1898" stroke="#F1C9A2" stroke-width="4"/>
<path d="M211.26 75.5698L193.45 118.11" stroke="#F1C9A2" stroke-width="4"/>
<path d="M74.96 157.69L68.97 157.33L73.46 153.35" stroke="#D5ACF6" stroke-width="4"/>
<path d="M77.01 150.19L111.52 119.61" stroke="#D5ACF6" stroke-width="4"/>
<path d="M113.29 118.03L117.78 114.05L121.76 118.54" stroke="#D5ACF6" stroke-width="4"/>
<path d="M124.92 122.1L155.5 156.6" stroke="#D5ACF6" stroke-width="4"/>
<path d="M157.08 158.38L161.06 162.87L155.07 162.51" stroke="#D5ACF6" stroke-width="4"/>
<path d="M149.58 162.18L77.7 157.85" stroke="#D5ACF6" stroke-width="4"/>
</svg>
