<svg width="473" height="663" viewBox="0 0 473 663" fill="none" xmlns="http://www.w3.org/2000/svg">
<path d="M460.94 11.73H0.830078V662.45H460.94V11.73Z" fill="#B7B7B7"/>
<path d="M471.95 0.72998H11.8398V651.45H471.95V0.72998Z" fill="white" stroke="#222221" stroke-miterlimit="10"/>
<path d="M132.83 41.5103V43.4902H126.55V47.8503H131.44V49.8303H126.55V56.3003H124.12V41.5103H132.82H132.83Z" fill="#010200"/>
<path d="M138.04 55.4798C136.88 54.8298 135.97 53.9298 135.29 52.7798C134.62 51.6198 134.28 50.3198 134.28 48.8698C134.28 47.4198 134.62 46.1198 135.29 44.9798C135.96 43.8298 136.88 42.9298 138.04 42.2898C139.2 41.6398 140.46 41.3198 141.84 41.3198C143.22 41.3198 144.5 41.6398 145.66 42.2898C146.82 42.9398 147.73 43.8298 148.39 44.9798C149.06 46.1298 149.39 47.4298 149.39 48.8698C149.39 50.3098 149.06 51.6198 148.39 52.7798C147.72 53.9398 146.81 54.8398 145.66 55.4798C144.51 56.1198 143.23 56.4498 141.84 56.4498C140.45 56.4498 139.2 56.1298 138.04 55.4798ZM144.45 53.6698C145.22 53.2198 145.82 52.5898 146.25 51.7498C146.68 50.9198 146.9 49.9598 146.9 48.8698C146.9 47.7798 146.68 46.8198 146.25 45.9998C145.82 45.1798 145.22 44.5498 144.45 44.1098C143.68 43.6698 142.81 43.4498 141.83 43.4498C140.85 43.4498 139.98 43.6698 139.21 44.1098C138.44 44.5498 137.84 45.1798 137.41 45.9998C136.98 46.8198 136.76 47.7798 136.76 48.8698C136.76 49.9598 136.98 50.9198 137.41 51.7498C137.84 52.5798 138.44 53.2198 139.21 53.6698C139.98 54.1198 140.85 54.3398 141.83 54.3398C142.81 54.3398 143.68 54.1198 144.45 53.6698Z" fill="#010200"/>
<path d="M159.45 56.3003L156.05 50.3802H154.2V56.3003H151.77V41.5103H156.88C158.01 41.5103 158.98 41.7103 159.76 42.1103C160.55 42.5103 161.14 43.0403 161.53 43.7103C161.92 44.3803 162.12 45.1203 162.12 45.9403C162.12 46.9003 161.84 47.7803 161.28 48.5703C160.72 49.3603 159.86 49.8903 158.69 50.1803L162.35 56.3102H159.46L159.45 56.3003ZM154.2 48.4403H156.88C157.79 48.4403 158.47 48.2103 158.93 47.7603C159.39 47.3103 159.62 46.7003 159.62 45.9303C159.62 45.1603 159.39 44.5602 158.94 44.1302C158.49 43.7002 157.8 43.4803 156.88 43.4803H154.2V48.4403Z" fill="#010200"/>
<path d="M180.8 41.5103V56.3003H178.37V46.1702L173.86 56.3003H172.18L167.65 46.1702V56.3003H165.22V41.5103H167.84L173.03 53.1103L178.2 41.5103H180.8Z" fill="#010200"/>
<path d="M192.9 53.2802H186.71L185.65 56.3002H183.12L188.42 41.4902H191.23L196.53 56.3002H193.98L192.92 53.2802H192.9ZM192.22 51.3002L189.82 44.4302L187.39 51.3002H192.22Z" fill="#010200"/>
<path d="M201.01 55.9301C200.22 55.5801 199.59 55.0901 199.14 54.4501C198.69 53.8101 198.46 53.0701 198.46 52.2201H201.06C201.12 52.8601 201.37 53.3801 201.82 53.8001C202.27 54.2101 202.89 54.4201 203.7 54.4201C204.51 54.4201 205.19 54.2201 205.66 53.8101C206.13 53.4001 206.36 52.8801 206.36 52.2501C206.36 51.7501 206.21 51.3501 205.92 51.0401C205.63 50.7301 205.27 50.4901 204.83 50.3201C204.39 50.1501 203.8 49.9701 203.03 49.7701C202.06 49.5101 201.28 49.2601 200.68 48.9901C200.08 48.7301 199.56 48.3201 199.14 47.7701C198.71 47.2201 198.5 46.4801 198.5 45.5601C198.5 44.7101 198.71 43.9601 199.14 43.3301C199.57 42.6901 200.16 42.2001 200.93 41.8601C201.7 41.5201 202.58 41.3501 203.59 41.3501C205.02 41.3501 206.2 41.7101 207.11 42.4201C208.03 43.1401 208.53 44.1201 208.63 45.3701H205.95C205.91 44.8301 205.65 44.3701 205.18 43.9901C204.71 43.6101 204.1 43.4101 203.33 43.4101C202.63 43.4101 202.07 43.5901 201.63 43.9401C201.19 44.2901 200.97 44.8101 200.97 45.4701C200.97 45.9201 201.11 46.3001 201.39 46.5901C201.67 46.8801 202.02 47.1101 202.44 47.2801C202.87 47.4501 203.45 47.6301 204.19 47.8301C205.17 48.1001 205.97 48.3701 206.58 48.6401C207.19 48.9101 207.72 49.3201 208.15 49.8801C208.58 50.4401 208.8 51.1901 208.8 52.1301C208.8 52.8801 208.6 53.5901 208.19 54.2601C207.79 54.9301 207.2 55.4601 206.42 55.8701C205.65 56.2701 204.73 56.4801 203.69 56.4801C202.7 56.4801 201.8 56.3101 201.01 55.9601V55.9301Z" fill="#010200"/>
<path d="M227.91 45.7601C227.53 45.0201 226.99 44.4701 226.31 44.0901C225.63 43.7101 224.84 43.5301 223.95 43.5301C222.97 43.5301 222.1 43.7501 221.33 44.1901C220.56 44.6301 219.96 45.2501 219.53 46.0601C219.1 46.8701 218.88 47.8101 218.88 48.8701C218.88 49.9301 219.1 50.8701 219.53 51.6901C219.96 52.5101 220.56 53.1301 221.33 53.5701C222.1 54.0101 222.97 54.2301 223.95 54.2301C225.27 54.2301 226.34 53.8601 227.16 53.1201C227.98 52.3801 228.49 51.3801 228.67 50.1201H223.12V48.1801H231.27V50.0701C231.11 51.2201 230.71 52.2801 230.05 53.2401C229.39 54.2001 228.53 54.9701 227.47 55.5501C226.41 56.1301 225.24 56.4101 223.95 56.4101C222.56 56.4101 221.29 56.0901 220.14 55.4401C218.99 54.7901 218.08 53.9001 217.41 52.7501C216.74 51.6001 216.4 50.3001 216.4 48.8601C216.4 47.4201 216.74 46.1101 217.41 44.9701C218.08 43.8201 219 42.9201 220.16 42.2801C221.32 41.6301 222.58 41.3101 223.96 41.3101C225.53 41.3101 226.94 41.7001 228.16 42.4701C229.39 43.2401 230.28 44.3401 230.83 45.7601H227.91Z" fill="#010200"/>
<path d="M236.08 43.4702V47.8102H241.19V49.7902H236.08V54.3202H241.83V56.3002H233.66V41.4902H241.83V43.4702H236.08Z" fill="#010200"/>
<path d="M247.75 55.4798C246.59 54.8298 245.68 53.9298 245 52.7798C244.33 51.6198 243.99 50.3198 243.99 48.8698C243.99 47.4198 244.33 46.1198 245 44.9798C245.67 43.8298 246.59 42.9298 247.75 42.2898C248.91 41.6398 250.17 41.3198 251.55 41.3198C252.93 41.3198 254.21 41.6398 255.37 42.2898C256.53 42.9398 257.44 43.8298 258.1 44.9798C258.77 46.1298 259.1 47.4298 259.1 48.8698C259.1 50.3098 258.77 51.6198 258.1 52.7798C257.43 53.9398 256.52 54.8398 255.37 55.4798C254.22 56.1198 252.94 56.4498 251.55 56.4498C250.16 56.4498 248.91 56.1298 247.75 55.4798ZM254.17 53.6698C254.94 53.2198 255.54 52.5898 255.97 51.7498C256.4 50.9198 256.62 49.9598 256.62 48.8698C256.62 47.7798 256.4 46.8198 255.97 45.9998C255.54 45.1798 254.94 44.5498 254.17 44.1098C253.4 43.6698 252.53 43.4498 251.55 43.4498C250.57 43.4498 249.7 43.6698 248.93 44.1098C248.16 44.5498 247.56 45.1798 247.13 45.9998C246.7 46.8198 246.48 47.7798 246.48 48.8698C246.48 49.9598 246.7 50.9198 247.13 51.7498C247.56 52.5798 248.16 53.2198 248.93 53.6698C249.7 54.1198 250.57 54.3398 251.55 54.3398C252.53 54.3398 253.4 54.1198 254.17 53.6698Z" fill="#010200"/>
<path d="M277.06 41.5103V56.3003H274.63V46.1702L270.12 56.3003H268.44L263.91 46.1702V56.3003H261.48V41.5103H264.1L269.29 53.1103L274.46 41.5103H277.06Z" fill="#010200"/>
<path d="M282.68 43.47V47.81H287.79V49.79H282.68V54.32H288.43V56.3H280.26V41.49H288.43V43.47H282.68ZM286.43 38.34L281.73 40.66V38.87L286.43 36.27V38.33V38.34Z" fill="#010200"/>
<path d="M300.96 41.5103V43.4902H297.02V56.3003H294.59V43.4902H290.63V41.5103H300.95H300.96Z" fill="#010200"/>
<path d="M305.83 41.5103V56.3003H303.4V41.5103H305.83Z" fill="#010200"/>
<path d="M316.71 56.3003L313.31 50.3802H311.46V56.3003H309.03V41.5103H314.14C315.27 41.5103 316.24 41.7103 317.02 42.1103C317.81 42.5103 318.4 43.0403 318.79 43.7103C319.18 44.3803 319.38 45.1203 319.38 45.9403C319.38 46.9003 319.1 47.7803 318.54 48.5703C317.98 49.3603 317.12 49.8903 315.95 50.1803L319.61 56.3102H316.72L316.71 56.3003ZM311.45 48.4403H314.13C315.04 48.4403 315.72 48.2103 316.18 47.7603C316.64 47.3103 316.87 46.7003 316.87 45.9303C316.87 45.1603 316.64 44.5602 316.19 44.1302C315.74 43.7002 315.05 43.4803 314.13 43.4803H311.45V48.4403Z" fill="#010200"/>
<path d="M322.68 44.9798C323.35 43.8298 324.27 42.9298 325.43 42.2898C326.59 41.6398 327.85 41.3198 329.23 41.3198C330.8 41.3198 332.21 41.7098 333.43 42.4798C334.66 43.2498 335.55 44.3498 336.1 45.7698H333.18C332.8 44.9898 332.26 44.4098 331.58 44.0198C330.9 43.6398 330.11 43.4498 329.22 43.4498C328.24 43.4498 327.37 43.6698 326.6 44.1098C325.83 44.5498 325.23 45.1798 324.8 45.9998C324.37 46.8198 324.15 47.7798 324.15 48.8698C324.15 49.9598 324.37 50.9198 324.8 51.7398C325.23 52.5598 325.83 53.1998 326.6 53.6398C327.37 54.0798 328.24 54.3098 329.22 54.3098C330.11 54.3098 330.9 54.1198 331.58 53.7398C332.26 53.3598 332.79 52.7798 333.18 51.9898H336.1C335.55 53.4098 334.66 54.4998 333.43 55.2698C332.2 56.0398 330.8 56.4198 329.23 56.4198C327.84 56.4198 326.57 56.0998 325.42 55.4498C324.27 54.7998 323.36 53.9098 322.69 52.7598C322.02 51.6098 321.68 50.3098 321.68 48.8698C321.68 47.4298 322.02 46.1198 322.69 44.9798H322.68Z" fill="#010200"/>
<path d="M347.84 53.2802H341.65L340.59 56.3002H338.06L343.36 41.4902H346.17L351.47 56.3002H348.92L347.86 53.2802H347.84ZM347.16 51.3002L344.76 44.4302L342.33 51.3002H347.16Z" fill="#010200"/>
<path d="M355.95 55.9301C355.16 55.5801 354.53 55.0901 354.08 54.4501C353.63 53.8101 353.4 53.0701 353.4 52.2201H356C356.06 52.8601 356.31 53.3801 356.76 53.8001C357.21 54.2101 357.83 54.4201 358.64 54.4201C359.45 54.4201 360.13 54.2201 360.6 53.8101C361.07 53.4001 361.3 52.8801 361.3 52.2501C361.3 51.7501 361.15 51.3501 360.86 51.0401C360.57 50.7301 360.21 50.4901 359.77 50.3201C359.33 50.1501 358.74 49.9701 357.97 49.7701C357 49.5101 356.22 49.2601 355.62 48.9901C355.02 48.7301 354.5 48.3201 354.08 47.7701C353.65 47.2201 353.44 46.4801 353.44 45.5601C353.44 44.7101 353.65 43.9601 354.08 43.3301C354.51 42.6901 355.1 42.2001 355.87 41.8601C356.64 41.5201 357.52 41.3501 358.53 41.3501C359.96 41.3501 361.14 41.7101 362.05 42.4201C362.97 43.1401 363.47 44.1201 363.57 45.3701H360.89C360.85 44.8301 360.59 44.3701 360.12 43.9901C359.65 43.6101 359.04 43.4101 358.27 43.4101C357.57 43.4101 357.01 43.5901 356.57 43.9401C356.13 44.2901 355.91 44.8101 355.91 45.4701C355.91 45.9201 356.05 46.3001 356.33 46.5901C356.61 46.8801 356.96 47.1101 357.38 47.2801C357.81 47.4501 358.39 47.6301 359.13 47.8301C360.11 48.1001 360.91 48.3701 361.52 48.6401C362.13 48.9101 362.66 49.3201 363.09 49.8801C363.52 50.4401 363.74 51.1901 363.74 52.1301C363.74 52.8801 363.54 53.5901 363.13 54.2601C362.73 54.9301 362.14 55.4601 361.36 55.8701C360.59 56.2701 359.67 56.4801 358.63 56.4801C357.64 56.4801 356.74 56.3101 355.95 55.9601V55.9301Z" fill="#010200"/>
<path d="M135.67 79.1102L133.26 74.9702H131.66V79.1102H130.34V68.9902H133.61C134.37 68.9902 135.02 69.1202 135.55 69.3802C136.08 69.6402 136.47 70.0002 136.73 70.4402C136.99 70.8902 137.12 71.3902 137.12 71.9602C137.12 72.6602 136.92 73.2702 136.52 73.8002C136.12 74.3302 135.52 74.6902 134.71 74.8602L137.25 79.1002H135.67V79.1102ZM131.66 73.9102H133.61C134.33 73.9102 134.86 73.7302 135.22 73.3802C135.58 73.0302 135.76 72.5502 135.76 71.9602C135.76 71.3702 135.58 70.9002 135.23 70.5702C134.88 70.2402 134.34 70.0802 133.61 70.0802H131.66V73.9102Z" fill="#010200"/>
<path d="M146.39 75.6198H140.03C140.08 76.3998 140.35 77.0198 140.84 77.4598C141.33 77.8998 141.92 78.1198 142.62 78.1198C143.19 78.1198 143.67 77.9898 144.05 77.7198C144.43 77.4498 144.7 77.0998 144.86 76.6498H146.28C146.07 77.4098 145.64 78.0398 145 78.5198C144.36 78.9998 143.57 79.2398 142.62 79.2398C141.87 79.2398 141.19 79.0698 140.59 78.7298C139.99 78.3898 139.53 77.9098 139.19 77.2898C138.85 76.6698 138.68 75.9398 138.68 75.1198C138.68 74.2998 138.84 73.5798 139.17 72.9598C139.5 72.3398 139.96 71.8598 140.56 71.5298C141.16 71.1998 141.84 71.0298 142.61 71.0298C143.38 71.0298 144.03 71.1998 144.61 71.5198C145.19 71.8398 145.64 72.2998 145.95 72.8798C146.26 73.4598 146.42 74.1098 146.42 74.8298C146.42 75.0798 146.41 75.3498 146.38 75.6298L146.39 75.6198ZM144.73 73.2498C144.51 72.8898 144.2 72.6098 143.82 72.4198C143.44 72.2298 143.01 72.1398 142.55 72.1398C141.88 72.1398 141.31 72.3498 140.84 72.7798C140.37 73.2098 140.1 73.7998 140.03 74.5498H145.05C145.05 74.0498 144.94 73.6098 144.72 73.2498H144.73Z" fill="#010200"/>
<path d="M148.17 72.96C148.5 72.34 148.96 71.87 149.54 71.53C150.12 71.19 150.8 71.02 151.55 71.02C152.53 71.02 153.33 71.26 153.97 71.73C154.6 72.2 155.02 72.86 155.23 73.71H153.81C153.67 73.23 153.41 72.84 153.02 72.56C152.63 72.28 152.14 72.14 151.56 72.14C150.8 72.14 150.19 72.4 149.73 72.92C149.27 73.44 149.03 74.17 149.03 75.12C149.03 76.07 149.26 76.82 149.73 77.34C150.19 77.86 150.8 78.12 151.56 78.12C152.14 78.12 152.62 77.98 153.01 77.71C153.4 77.44 153.66 77.05 153.81 76.55H155.23C155.02 77.36 154.59 78.01 153.95 78.5C153.31 78.99 152.51 79.23 151.55 79.23C150.79 79.23 150.12 79.06 149.54 78.72C148.96 78.38 148.5 77.9 148.17 77.28C147.84 76.66 147.68 75.93 147.68 75.1C147.68 74.27 147.84 73.56 148.17 72.94V72.96Z" fill="#010200"/>
<path d="M158.44 78.73C157.83 78.39 157.36 77.91 157.02 77.29C156.68 76.67 156.5 75.94 156.5 75.12C156.5 74.3 156.68 73.59 157.03 72.96C157.38 72.34 157.86 71.86 158.47 71.52C159.08 71.19 159.76 71.02 160.52 71.02C161.28 71.02 161.96 71.19 162.57 71.52C163.18 71.85 163.66 72.33 164.01 72.95C164.36 73.57 164.54 74.29 164.54 75.11C164.54 75.93 164.36 76.66 164 77.28C163.64 77.9 163.15 78.39 162.53 78.72C161.91 79.06 161.22 79.23 160.47 79.23C159.72 79.23 159.05 79.06 158.44 78.72V78.73ZM161.8 77.74C162.22 77.52 162.55 77.18 162.81 76.74C163.07 76.29 163.19 75.75 163.19 75.11C163.19 74.47 163.06 73.93 162.81 73.48C162.56 73.03 162.23 72.7 161.82 72.48C161.41 72.26 160.97 72.15 160.5 72.15C160.03 72.15 159.57 72.26 159.17 72.48C158.77 72.7 158.45 73.03 158.2 73.48C157.96 73.93 157.84 74.47 157.84 75.11C157.84 75.75 157.96 76.31 158.2 76.75C158.44 77.2 158.75 77.53 159.15 77.74C159.55 77.96 159.98 78.07 160.46 78.07C160.94 78.07 161.38 77.96 161.8 77.74Z" fill="#010200"/>
<path d="M168.6 71.38C169.03 71.13 169.56 71 170.18 71V72.36H169.83C168.35 72.36 167.61 73.16 167.61 74.77V79.1H166.29V71.14H167.61V72.43C167.84 71.97 168.17 71.62 168.6 71.37V71.38Z" fill="#010200"/>
<path d="M173.31 72.2399V76.9299C173.31 77.3199 173.39 77.5899 173.56 77.7499C173.72 77.9099 174.01 77.9899 174.42 77.9899H175.39V79.1099H174.2C173.46 79.1099 172.91 78.9399 172.54 78.5999C172.17 78.2599 171.99 77.7099 171.99 76.9299V72.2399H170.96V71.1499H171.99V69.1499H173.31V71.1499H175.39V72.2399H173.31Z" fill="#010200"/>
<path d="M184.21 75.6198H177.85C177.9 76.3998 178.17 77.0198 178.66 77.4598C179.15 77.8998 179.74 78.1198 180.44 78.1198C181.01 78.1198 181.49 77.9898 181.87 77.7198C182.25 77.4498 182.52 77.0998 182.68 76.6498H184.1C183.89 77.4098 183.46 78.0398 182.82 78.5198C182.18 78.9998 181.39 79.2398 180.44 79.2398C179.69 79.2398 179.01 79.0698 178.41 78.7298C177.81 78.3898 177.35 77.9098 177.01 77.2898C176.67 76.6698 176.5 75.9398 176.5 75.1198C176.5 74.2998 176.66 73.5798 176.99 72.9598C177.32 72.3398 177.78 71.8598 178.38 71.5298C178.98 71.1998 179.66 71.0298 180.43 71.0298C181.2 71.0298 181.85 71.1998 182.43 71.5198C183.01 71.8398 183.46 72.2998 183.77 72.8798C184.08 73.4598 184.24 74.1098 184.24 74.8298C184.24 75.0798 184.23 75.3498 184.2 75.6298L184.21 75.6198ZM182.55 73.2498C182.33 72.8898 182.02 72.6098 181.64 72.4198C181.26 72.2298 180.83 72.1398 180.37 72.1398C179.7 72.1398 179.13 72.3498 178.66 72.7798C178.19 73.2098 177.92 73.7998 177.85 74.5498H182.87C182.87 74.0498 182.76 73.6098 182.54 73.2498H182.55Z" fill="#010200"/>
<path d="M189.87 72.96C190.2 72.34 190.65 71.87 191.23 71.53C191.81 71.19 192.45 71.02 193.15 71.02C193.85 71.02 194.45 71.17 194.97 71.47C195.48 71.77 195.87 72.15 196.12 72.6V71.15H197.46V79.11H196.12V77.63C195.86 78.09 195.47 78.48 194.95 78.78C194.43 79.09 193.83 79.24 193.14 79.24C192.45 79.24 191.79 79.07 191.22 78.72C190.65 78.37 190.2 77.88 189.87 77.25C189.54 76.62 189.38 75.9 189.38 75.1C189.38 74.3 189.54 73.57 189.87 72.96ZM195.75 73.54C195.51 73.09 195.18 72.75 194.77 72.52C194.36 72.28 193.91 72.16 193.41 72.16C192.91 72.16 192.47 72.28 192.06 72.51C191.65 72.74 191.33 73.08 191.09 73.53C190.85 73.98 190.73 74.5 190.73 75.1C190.73 75.7 190.85 76.24 191.09 76.69C191.33 77.14 191.66 77.48 192.06 77.72C192.47 77.96 192.92 78.08 193.41 78.08C193.9 78.08 194.36 77.96 194.77 77.72C195.18 77.48 195.51 77.14 195.75 76.69C195.99 76.24 196.11 75.71 196.11 75.11C196.11 74.51 195.99 73.99 195.75 73.54Z" fill="#010200"/>
<path d="M200.86 78.93C200.38 78.72 199.99 78.43 199.71 78.06C199.43 77.69 199.27 77.26 199.25 76.77H200.62C200.66 77.17 200.85 77.49 201.18 77.74C201.51 77.99 201.95 78.12 202.49 78.12C202.99 78.12 203.39 78.01 203.68 77.79C203.97 77.57 204.12 77.29 204.12 76.95C204.12 76.61 203.97 76.34 203.66 76.17C203.35 76 202.87 75.83 202.22 75.67C201.63 75.52 201.15 75.36 200.77 75.2C200.39 75.04 200.08 74.8 199.81 74.49C199.54 74.18 199.41 73.76 199.41 73.25C199.41 72.84 199.53 72.47 199.77 72.13C200.01 71.79 200.36 71.52 200.8 71.32C201.24 71.12 201.75 71.02 202.32 71.02C203.2 71.02 203.91 71.24 204.45 71.69C204.99 72.14 205.28 72.74 205.32 73.52H204C203.97 73.1 203.8 72.77 203.5 72.52C203.19 72.27 202.79 72.14 202.27 72.14C201.8 72.14 201.42 72.24 201.14 72.44C200.86 72.64 200.72 72.91 200.72 73.24C200.72 73.5 200.8 73.72 200.97 73.89C201.14 74.06 201.35 74.19 201.61 74.3C201.87 74.4 202.22 74.52 202.68 74.64C203.25 74.8 203.72 74.95 204.07 75.1C204.43 75.25 204.74 75.48 204.99 75.77C205.25 76.07 205.38 76.46 205.39 76.95C205.39 77.39 205.27 77.78 205.03 78.13C204.79 78.48 204.45 78.75 204.01 78.95C203.57 79.15 203.06 79.25 202.49 79.25C201.88 79.25 201.33 79.15 200.85 78.94L200.86 78.93Z" fill="#010200"/>
<path d="M214.38 72.2398H212.71V79.1098H211.39V72.2398H210.36V71.1498H211.39V70.5798C211.39 69.6898 211.62 69.0398 212.08 68.6298C212.54 68.2198 213.28 68.0098 214.29 68.0098V69.1098C213.71 69.1098 213.3 69.2198 213.06 69.4498C212.82 69.6798 212.7 70.0498 212.7 70.5698V71.1398H214.37V72.2298L214.38 72.2398Z" fill="#010200"/>
<path d="M217.37 78.73C216.76 78.39 216.29 77.91 215.95 77.29C215.61 76.67 215.43 75.94 215.43 75.12C215.43 74.3 215.61 73.59 215.96 72.96C216.31 72.34 216.79 71.86 217.4 71.52C218.01 71.19 218.69 71.02 219.45 71.02C220.21 71.02 220.89 71.19 221.5 71.52C222.11 71.85 222.59 72.33 222.94 72.95C223.29 73.57 223.47 74.29 223.47 75.11C223.47 75.93 223.29 76.66 222.93 77.28C222.57 77.9 222.08 78.39 221.46 78.72C220.84 79.06 220.15 79.23 219.4 79.23C218.65 79.23 217.98 79.06 217.37 78.72V78.73ZM220.73 77.74C221.15 77.52 221.48 77.18 221.74 76.74C222 76.29 222.12 75.75 222.12 75.11C222.12 74.47 221.99 73.93 221.74 73.48C221.49 73.03 221.16 72.7 220.75 72.48C220.34 72.26 219.9 72.15 219.43 72.15C218.96 72.15 218.5 72.26 218.1 72.48C217.7 72.7 217.38 73.03 217.13 73.48C216.89 73.93 216.77 74.47 216.77 75.11C216.77 75.75 216.89 76.31 217.13 76.75C217.37 77.2 217.68 77.53 218.08 77.74C218.48 77.96 218.91 78.07 219.39 78.07C219.87 78.07 220.31 77.96 220.73 77.74Z" fill="#010200"/>
<path d="M227.54 71.38C227.97 71.13 228.5 71 229.12 71V72.36H228.77C227.29 72.36 226.55 73.16 226.55 74.77V79.1H225.23V71.14H226.55V72.43C226.78 71.97 227.11 71.62 227.54 71.37V71.38Z" fill="#010200"/>
<path d="M241.86 71.39C242.34 71.65 242.73 72.03 243.01 72.54C243.29 73.05 243.43 73.68 243.43 74.41V79.1H242.12V74.6C242.12 73.81 241.92 73.2 241.53 72.78C241.14 72.36 240.61 72.15 239.94 72.15C239.27 72.15 238.71 72.37 238.3 72.81C237.89 73.25 237.69 73.89 237.69 74.72V79.11H236.38V74.61C236.38 73.82 236.18 73.21 235.79 72.79C235.4 72.37 234.87 72.16 234.2 72.16C233.53 72.16 232.97 72.38 232.56 72.82C232.15 73.26 231.95 73.9 231.95 74.73V79.12H230.63V71.16H231.95V72.31C232.21 71.89 232.56 71.57 233 71.35C233.44 71.13 233.93 71.02 234.46 71.02C235.13 71.02 235.72 71.17 236.23 71.47C236.74 71.77 237.13 72.21 237.38 72.79C237.6 72.23 237.97 71.79 238.48 71.48C238.99 71.17 239.56 71.02 240.19 71.02C240.82 71.02 241.36 71.15 241.85 71.4L241.86 71.39Z" fill="#010200"/>
<path d="M245.59 72.96C245.92 72.34 246.37 71.87 246.95 71.53C247.53 71.19 248.17 71.02 248.87 71.02C249.57 71.02 250.17 71.17 250.69 71.47C251.2 71.77 251.59 72.15 251.84 72.6V71.15H253.18V79.11H251.84V77.63C251.58 78.09 251.19 78.48 250.67 78.78C250.15 79.09 249.55 79.24 248.86 79.24C248.17 79.24 247.51 79.07 246.94 78.72C246.37 78.37 245.92 77.88 245.59 77.25C245.26 76.62 245.1 75.9 245.1 75.1C245.1 74.3 245.26 73.57 245.59 72.96ZM251.48 73.54C251.24 73.09 250.91 72.75 250.5 72.52C250.09 72.28 249.64 72.16 249.14 72.16C248.64 72.16 248.2 72.28 247.79 72.51C247.38 72.74 247.06 73.08 246.82 73.53C246.58 73.98 246.46 74.5 246.46 75.1C246.46 75.7 246.58 76.24 246.82 76.69C247.06 77.14 247.39 77.48 247.79 77.72C248.2 77.96 248.65 78.08 249.14 78.08C249.63 78.08 250.09 77.96 250.5 77.72C250.91 77.48 251.24 77.14 251.48 76.69C251.72 76.24 251.84 75.71 251.84 75.11C251.84 74.51 251.72 73.99 251.48 73.54Z" fill="#010200"/>
<path d="M256.59 78.93C256.11 78.72 255.72 78.43 255.44 78.06C255.16 77.69 255 77.26 254.98 76.77H256.35C256.39 77.17 256.58 77.49 256.91 77.74C257.24 77.99 257.68 78.12 258.22 78.12C258.72 78.12 259.12 78.01 259.41 77.79C259.7 77.57 259.85 77.29 259.85 76.95C259.85 76.61 259.7 76.34 259.39 76.17C259.08 76 258.6 75.83 257.95 75.67C257.36 75.52 256.88 75.36 256.5 75.2C256.12 75.04 255.81 74.8 255.54 74.49C255.27 74.18 255.14 73.76 255.14 73.25C255.14 72.84 255.26 72.47 255.5 72.13C255.74 71.79 256.09 71.52 256.53 71.32C256.97 71.12 257.48 71.02 258.05 71.02C258.93 71.02 259.64 71.24 260.18 71.69C260.72 72.14 261.01 72.74 261.05 73.52H259.73C259.7 73.1 259.53 72.77 259.23 72.52C258.92 72.27 258.52 72.14 258 72.14C257.53 72.14 257.15 72.24 256.87 72.44C256.59 72.64 256.45 72.91 256.45 73.24C256.45 73.5 256.53 73.72 256.7 73.89C256.87 74.06 257.08 74.19 257.34 74.3C257.6 74.4 257.95 74.52 258.41 74.64C258.98 74.8 259.45 74.95 259.8 75.1C260.16 75.25 260.47 75.48 260.72 75.77C260.98 76.07 261.11 76.46 261.12 76.95C261.12 77.39 261 77.78 260.76 78.13C260.52 78.48 260.18 78.75 259.74 78.95C259.3 79.15 258.79 79.25 258.22 79.25C257.61 79.25 257.06 79.15 256.58 78.94L256.59 78.93Z" fill="#010200"/>
<path d="M271.96 71.4698C272.48 71.7698 272.86 72.1498 273.11 72.5998V71.1498H274.45V79.2798C274.45 80.0098 274.3 80.6498 273.99 81.2198C273.68 81.7898 273.24 82.2298 272.66 82.5498C272.08 82.8698 271.41 83.0298 270.65 83.0298C269.6 83.0298 268.73 82.7798 268.04 82.2898C267.34 81.7998 266.93 81.1198 266.81 80.2698H268.12C268.27 80.7498 268.57 81.1398 269.02 81.4398C269.47 81.7298 270.02 81.8798 270.66 81.8798C271.39 81.8798 271.98 81.6498 272.44 81.1998C272.9 80.7398 273.13 80.1098 273.13 79.2798V77.6098C272.87 78.0698 272.48 78.4598 271.97 78.7698C271.46 79.0798 270.86 79.2298 270.17 79.2298C269.48 79.2298 268.82 79.0598 268.25 78.7098C267.67 78.3598 267.22 77.8698 266.89 77.2398C266.56 76.6098 266.4 75.8898 266.4 75.0898C266.4 74.2898 266.56 73.5598 266.89 72.9498C267.22 72.3398 267.67 71.8598 268.25 71.5198C268.83 71.1798 269.47 71.0098 270.17 71.0098C270.87 71.0098 271.46 71.1598 271.98 71.4598L271.96 71.4698ZM272.75 73.5398C272.51 73.0898 272.18 72.7498 271.77 72.5198C271.36 72.2798 270.91 72.1598 270.41 72.1598C269.91 72.1598 269.47 72.2798 269.06 72.5098C268.65 72.7398 268.33 73.0798 268.09 73.5298C267.85 73.9798 267.73 74.4998 267.73 75.0998C267.73 75.6998 267.85 76.2398 268.09 76.6898C268.33 77.1398 268.66 77.4798 269.06 77.7198C269.47 77.9598 269.92 78.0798 270.41 78.0798C270.9 78.0798 271.36 77.9598 271.77 77.7198C272.18 77.4798 272.51 77.1398 272.75 76.6898C272.99 76.2398 273.11 75.7098 273.11 75.1098C273.11 74.5098 272.99 73.9898 272.75 73.5398Z" fill="#010200"/>
<path d="M283.91 75.6198H277.55C277.6 76.3998 277.87 77.0198 278.36 77.4598C278.85 77.8998 279.44 78.1198 280.14 78.1198C280.71 78.1198 281.19 77.9898 281.57 77.7198C281.95 77.4498 282.22 77.0998 282.38 76.6498H283.8C283.59 77.4098 283.16 78.0398 282.52 78.5198C281.88 78.9998 281.09 79.2398 280.14 79.2398C279.39 79.2398 278.71 79.0698 278.11 78.7298C277.51 78.3898 277.05 77.9098 276.71 77.2898C276.37 76.6698 276.2 75.9398 276.2 75.1198C276.2 74.2998 276.36 73.5798 276.69 72.9598C277.02 72.3398 277.48 71.8598 278.08 71.5298C278.68 71.1998 279.36 71.0298 280.13 71.0298C280.9 71.0298 281.55 71.1998 282.13 71.5198C282.71 71.8398 283.16 72.2998 283.47 72.8798C283.78 73.4598 283.94 74.1098 283.94 74.8298C283.94 75.0798 283.93 75.3498 283.9 75.6298L283.91 75.6198ZM282.25 73.2498C282.03 72.8898 281.72 72.6098 281.34 72.4198C280.96 72.2298 280.53 72.1398 280.07 72.1398C279.4 72.1398 278.83 72.3498 278.36 72.7798C277.89 73.2098 277.62 73.7998 277.55 74.5498H282.57C282.57 74.0498 282.46 73.6098 282.24 73.2498H282.25Z" fill="#010200"/>
<path d="M287.14 78.73C286.53 78.39 286.06 77.91 285.72 77.29C285.38 76.67 285.2 75.94 285.2 75.12C285.2 74.3 285.38 73.59 285.73 72.96C286.08 72.34 286.56 71.86 287.17 71.52C287.78 71.19 288.46 71.02 289.22 71.02C289.98 71.02 290.66 71.19 291.27 71.52C291.88 71.85 292.36 72.33 292.71 72.95C293.06 73.57 293.24 74.29 293.24 75.11C293.24 75.93 293.06 76.66 292.7 77.28C292.34 77.9 291.85 78.39 291.23 78.72C290.61 79.06 289.92 79.23 289.17 79.23C288.42 79.23 287.75 79.06 287.14 78.72V78.73ZM290.5 77.74C290.92 77.52 291.25 77.18 291.51 76.74C291.77 76.29 291.89 75.75 291.89 75.11C291.89 74.47 291.76 73.93 291.51 73.48C291.26 73.03 290.93 72.7 290.52 72.48C290.11 72.26 289.67 72.15 289.2 72.15C288.73 72.15 288.27 72.26 287.87 72.48C287.47 72.7 287.15 73.03 286.9 73.48C286.66 73.93 286.54 74.47 286.54 75.11C286.54 75.75 286.66 76.31 286.9 76.75C287.14 77.2 287.45 77.53 287.85 77.74C288.25 77.96 288.68 78.07 289.16 78.07C289.64 78.07 290.08 77.96 290.5 77.74Z" fill="#010200"/>
<path d="M306.21 71.39C306.69 71.65 307.08 72.03 307.36 72.54C307.64 73.05 307.78 73.68 307.78 74.41V79.1H306.47V74.6C306.47 73.81 306.27 73.2 305.88 72.78C305.49 72.36 304.96 72.15 304.29 72.15C303.62 72.15 303.06 72.37 302.65 72.81C302.24 73.25 302.04 73.89 302.04 74.72V79.11H300.73V74.61C300.73 73.82 300.53 73.21 300.14 72.79C299.75 72.37 299.22 72.16 298.55 72.16C297.88 72.16 297.32 72.38 296.91 72.82C296.5 73.26 296.3 73.9 296.3 74.73V79.12H294.98V71.16H296.3V72.31C296.56 71.89 296.91 71.57 297.35 71.35C297.79 71.13 298.28 71.02 298.81 71.02C299.48 71.02 300.07 71.17 300.58 71.47C301.09 71.77 301.48 72.21 301.73 72.79C301.95 72.23 302.32 71.79 302.83 71.48C303.34 71.17 303.91 71.02 304.54 71.02C305.17 71.02 305.71 71.15 306.2 71.4L306.21 71.39Z" fill="#010200"/>
<path d="M317.17 75.62H310.81C310.86 76.4 311.13 77.02 311.62 77.46C312.11 77.9 312.7 78.12 313.4 78.12C313.97 78.12 314.45 77.99 314.83 77.72C315.21 77.45 315.48 77.1 315.64 76.65H317.06C316.85 77.41 316.42 78.04 315.78 78.52C315.14 79 314.35 79.24 313.4 79.24C312.65 79.24 311.97 79.07 311.37 78.73C310.77 78.39 310.31 77.91 309.97 77.29C309.63 76.67 309.46 75.94 309.46 75.12C309.46 74.3 309.62 73.58 309.95 72.96C310.28 72.34 310.74 71.86 311.34 71.53C311.94 71.2 312.62 71.03 313.39 71.03C314.16 71.03 314.81 71.2 315.39 71.52C315.97 71.84 316.42 72.3 316.73 72.88C317.04 73.46 317.2 74.11 317.2 74.83C317.2 75.08 317.19 75.35 317.16 75.63L317.17 75.62ZM315.51 73.25C315.29 72.89 314.98 72.61 314.6 72.42C314.22 72.23 313.79 72.14 313.33 72.14C312.66 72.14 312.09 72.35 311.62 72.78C311.15 73.21 310.88 73.8 310.81 74.55H315.83C315.83 74.05 315.72 73.61 315.5 73.25H315.51ZM314.75 68.9L311.66 70.56V69.57L314.75 67.75V68.9Z" fill="#010200"/>
<path d="M320.56 72.2399V76.9299C320.56 77.3199 320.64 77.5899 320.81 77.7499C320.97 77.9099 321.26 77.9899 321.67 77.9899H322.64V79.1099H321.45C320.71 79.1099 320.16 78.9399 319.79 78.5999C319.42 78.2599 319.24 77.7099 319.24 76.9299V72.2399H318.21V71.1499H319.24V69.1499H320.56V71.1499H322.64V72.2399H320.56Z" fill="#010200"/>
<path d="M326.55 71.38C326.98 71.13 327.51 71 328.13 71V72.36H327.78C326.3 72.36 325.56 73.16 325.56 74.77V79.1H324.24V71.14H325.56V72.43C325.79 71.97 326.12 71.62 326.55 71.37V71.38Z" fill="#010200"/>
<path d="M329.7 69.5898C329.53 69.4198 329.44 69.1998 329.44 68.9498C329.44 68.6998 329.53 68.4898 329.7 68.3098C329.87 68.1398 330.09 68.0498 330.34 68.0498C330.59 68.0498 330.79 68.1398 330.96 68.3098C331.13 68.4798 331.21 68.6998 331.21 68.9498C331.21 69.1998 331.13 69.4098 330.96 69.5898C330.79 69.7698 330.58 69.8498 330.34 69.8498C330.1 69.8498 329.88 69.7598 329.7 69.5898ZM330.98 71.1498V79.1098H329.66V71.1498H330.98Z" fill="#010200"/>
<path d="M333.23 72.96C333.56 72.34 334.02 71.87 334.6 71.53C335.18 71.19 335.86 71.02 336.61 71.02C337.59 71.02 338.39 71.26 339.03 71.73C339.66 72.2 340.08 72.86 340.29 73.71H338.87C338.73 73.23 338.47 72.84 338.08 72.56C337.69 72.28 337.2 72.14 336.62 72.14C335.86 72.14 335.25 72.4 334.79 72.92C334.33 73.44 334.09 74.17 334.09 75.12C334.09 76.07 334.32 76.82 334.79 77.34C335.25 77.86 335.86 78.12 336.62 78.12C337.2 78.12 337.68 77.98 338.07 77.71C338.46 77.44 338.72 77.05 338.87 76.55H340.29C340.08 77.36 339.65 78.01 339.01 78.5C338.37 78.99 337.57 79.23 336.61 79.23C335.85 79.23 335.18 79.06 334.6 78.72C334.02 78.38 333.56 77.9 333.23 77.28C332.9 76.66 332.74 75.93 332.74 75.1C332.74 74.27 332.9 73.56 333.23 72.94V72.96Z" fill="#010200"/>
<path d="M342.04 72.96C342.37 72.34 342.82 71.87 343.4 71.53C343.98 71.19 344.62 71.02 345.32 71.02C346.02 71.02 346.62 71.17 347.14 71.47C347.65 71.77 348.04 72.15 348.29 72.6V71.15H349.63V79.11H348.29V77.63C348.03 78.09 347.64 78.48 347.12 78.78C346.6 79.09 346 79.24 345.31 79.24C344.62 79.24 343.96 79.07 343.39 78.72C342.82 78.37 342.37 77.88 342.04 77.25C341.71 76.62 341.55 75.9 341.55 75.1C341.55 74.3 341.71 73.57 342.04 72.96ZM347.92 73.54C347.68 73.09 347.35 72.75 346.94 72.52C346.53 72.28 346.08 72.16 345.58 72.16C345.08 72.16 344.64 72.28 344.23 72.51C343.82 72.74 343.5 73.08 343.26 73.53C343.02 73.98 342.9 74.5 342.9 75.1C342.9 75.7 343.02 76.24 343.26 76.69C343.5 77.14 343.83 77.48 344.23 77.72C344.64 77.96 345.09 78.08 345.58 78.08C346.07 78.08 346.53 77.96 346.94 77.72C347.35 77.48 347.68 77.14 347.92 76.69C348.16 76.24 348.28 75.71 348.28 75.11C348.28 74.51 348.16 73.99 347.92 73.54Z" fill="#010200"/>
<path d="M353.04 78.93C352.56 78.72 352.17 78.43 351.89 78.06C351.61 77.69 351.45 77.26 351.43 76.77H352.8C352.84 77.17 353.03 77.49 353.36 77.74C353.69 77.99 354.13 78.12 354.67 78.12C355.17 78.12 355.57 78.01 355.86 77.79C356.15 77.57 356.3 77.29 356.3 76.95C356.3 76.61 356.15 76.34 355.84 76.17C355.53 76 355.05 75.83 354.4 75.67C353.81 75.52 353.33 75.36 352.95 75.2C352.57 75.04 352.26 74.8 351.99 74.49C351.72 74.18 351.59 73.76 351.59 73.25C351.59 72.84 351.71 72.47 351.95 72.13C352.19 71.79 352.54 71.52 352.98 71.32C353.42 71.12 353.93 71.02 354.5 71.02C355.38 71.02 356.09 71.24 356.63 71.69C357.17 72.14 357.46 72.74 357.5 73.52H356.18C356.15 73.1 355.98 72.77 355.68 72.52C355.37 72.27 354.97 72.14 354.45 72.14C353.98 72.14 353.6 72.24 353.32 72.44C353.04 72.64 352.9 72.91 352.9 73.24C352.9 73.5 352.98 73.72 353.15 73.89C353.32 74.06 353.53 74.19 353.79 74.3C354.05 74.4 354.4 74.52 354.86 74.64C355.43 74.8 355.9 74.95 356.25 75.1C356.61 75.25 356.92 75.48 357.17 75.77C357.43 76.07 357.56 76.46 357.57 76.95C357.57 77.39 357.45 77.78 357.21 78.13C356.97 78.48 356.63 78.75 356.19 78.95C355.75 79.15 355.24 79.25 354.67 79.25C354.06 79.25 353.51 79.15 353.03 78.94L353.04 78.93Z" fill="#010200"/>
<path d="M212.36 132.07H77.4502V266.98H212.36V132.07Z" stroke="#010200" stroke-width="4"/>
<path d="M419.63 603.51H284.72L313.76 497.65H390.58L419.63 603.51Z" stroke="#010200" stroke-width="4"/>
<path d="M383.69 300.76H305.26V435.67H383.69V300.76Z" stroke="#010200" stroke-width="4"/>
<path d="M77.4502 446.88L144.9 311.97L212.36 446.88H77.4502Z" stroke="#010200" stroke-width="4"/>
<path d="M344.47 270.48C383.66 270.48 415.43 238.71 415.43 199.52C415.43 160.33 383.66 128.56 344.47 128.56C305.28 128.56 273.51 160.33 273.51 199.52C273.51 238.71 305.28 270.48 344.47 270.48Z" stroke="#010200" stroke-width="4"/>
<path d="M154.18 480.19L131.04 520.21L84.7402 528.41L119.46 560.56L110.46 608.79L154.18 586.92L194.69 608.79L188.26 561.85L221.05 529.06L174.11 521.98L154.18 480.19Z" stroke="#010200" stroke-width="4"/>
</svg>
