<svg width="543" height="92" viewBox="0 0 543 92" fill="none" xmlns="http://www.w3.org/2000/svg">
<path d="M512.73 21.27H30.1801C13.7165 21.27 0.370117 34.6164 0.370117 51.08V61.46C0.370117 77.9236 13.7165 91.27 30.1801 91.27H512.73C529.194 91.27 542.54 77.9236 542.54 61.46V51.08C542.54 34.6164 529.194 21.27 512.73 21.27Z" fill="#C6A7F0"/>
<path d="M198.78 72.27H194.11L180.05 50.99V72.27H175.38V43.73H180.05L194.11 64.97V43.73H198.78V72.27Z" fill="white"/>
<path d="M209.56 43.7802V61.9402C209.56 64.1002 210.13 65.7302 211.26 66.8202C212.39 67.9102 213.97 68.4602 216 68.4602C218.03 68.4602 219.64 67.9102 220.78 66.8202C221.91 65.7302 222.48 64.1002 222.48 61.9402V43.7802H227.15V61.8602C227.15 64.1802 226.64 66.1502 225.63 67.7602C224.62 69.3702 223.27 70.5802 221.57 71.3702C219.87 72.1602 218 72.5602 215.95 72.5602C213.9 72.5602 212.03 72.1602 210.35 71.3702C208.67 70.5802 207.34 69.3802 206.35 67.7602C205.37 66.1502 204.87 64.1802 204.87 61.8602V43.7802H209.54H209.56ZM220.22 37.6702L211.16 42.1402V38.7002L220.22 33.7002V37.6802V37.6702Z" fill="white"/>
<path d="M263.229 43.7803V72.2803H258.559V52.7603L249.869 72.2803H246.629L237.899 52.7603V72.2803H233.229V43.7803H238.269L248.269 66.1203L258.229 43.7803H263.229Z" fill="white"/>
<path d="M274.06 47.5502V55.9102H283.9V59.7202H274.06V68.4502H285.13V72.2602H269.39V43.7202H285.13V47.5302H274.06V47.5502Z" fill="white"/>
<path d="M305.67 72.27L299.11 60.87H295.54V72.27H290.87V43.77H300.71C302.9 43.77 304.75 44.15 306.27 44.92C307.79 45.69 308.92 46.71 309.67 47.99C310.42 49.28 310.8 50.71 310.8 52.3C310.8 54.16 310.26 55.85 309.18 57.36C308.1 58.88 306.44 59.91 304.2 60.46L311.25 72.27H305.67ZM295.54 57.14H300.71C302.46 57.14 303.78 56.7 304.67 55.83C305.56 54.96 306 53.78 306 52.3C306 50.82 305.56 49.67 304.69 48.84C303.81 48.01 302.49 47.59 300.71 47.59H295.54V57.14Z" fill="white"/>
<path d="M322.46 70.7001C320.23 69.4601 318.47 67.7202 317.17 65.4902C315.87 63.2602 315.22 60.7502 315.22 57.9702C315.22 55.1902 315.87 52.6802 317.17 50.4702C318.47 48.2602 320.23 46.5302 322.46 45.2802C324.69 44.0402 327.13 43.4102 329.78 43.4102C332.43 43.4102 334.91 44.0302 337.14 45.2802C339.37 46.5202 341.12 48.2502 342.41 50.4702C343.69 52.6802 344.34 55.1802 344.34 57.9702C344.34 60.7602 343.7 63.2702 342.41 65.4902C341.12 67.7202 339.37 69.4501 337.14 70.7001C334.91 71.9401 332.46 72.5702 329.78 72.5702C327.1 72.5702 324.69 71.9501 322.46 70.7001ZM334.82 67.2102C336.3 66.3502 337.45 65.1202 338.28 63.5202C339.11 61.9202 339.53 60.0702 339.53 57.9702C339.53 55.8702 339.11 54.0201 338.28 52.4301C337.45 50.8401 336.29 49.6302 334.82 48.7802C333.34 47.9302 331.66 47.5101 329.78 47.5101C327.9 47.5101 326.21 47.9302 324.74 48.7802C323.26 49.6302 322.11 50.8401 321.28 52.4301C320.45 54.0101 320.03 55.8602 320.03 57.9702C320.03 60.0802 320.45 61.9302 321.28 63.5202C322.11 65.1202 323.27 66.3502 324.74 67.2102C326.22 68.0702 327.9 68.5002 329.78 68.5002C331.66 68.5002 333.35 68.0702 334.82 67.2102Z" fill="white"/>
<path d="M353.14 71.5604C351.61 70.8904 350.41 69.9404 349.53 68.7104C348.65 67.4804 348.22 66.0404 348.22 64.4104H353.22C353.33 65.6404 353.81 66.6504 354.68 67.4404C355.54 68.2304 356.75 68.6304 358.31 68.6304C359.87 68.6304 361.18 68.2404 362.08 67.4604C362.98 66.6804 363.43 65.6804 363.43 64.4504C363.43 63.4904 363.15 62.7104 362.59 62.1104C362.03 61.5104 361.33 61.0404 360.5 60.7204C359.67 60.3904 358.51 60.0404 357.04 59.6504C355.18 59.1604 353.67 58.6604 352.51 58.1504C351.35 57.6404 350.36 56.8604 349.54 55.7904C348.72 54.7204 348.31 53.3004 348.31 51.5304C348.31 49.8904 348.72 48.4504 349.54 47.2304C350.36 46.0004 351.51 45.0604 352.98 44.4004C354.46 43.7404 356.16 43.4204 358.1 43.4204C360.86 43.4204 363.12 44.1104 364.89 45.4904C366.65 46.8704 367.63 48.7604 367.82 51.1704H362.65C362.57 50.1304 362.08 49.2404 361.17 48.5004C360.27 47.7604 359.08 47.3904 357.6 47.3904C356.26 47.3904 355.17 47.7304 354.32 48.4104C353.47 49.0904 353.05 50.0804 353.05 51.3604C353.05 52.2404 353.32 52.9504 353.85 53.5104C354.38 54.0704 355.06 54.5104 355.88 54.8404C356.7 55.1704 357.82 55.5204 359.24 55.9104C361.13 56.4304 362.66 56.9504 363.85 57.4704C365.04 57.9904 366.05 58.7904 366.88 59.8704C367.71 60.9504 368.13 62.3904 368.13 64.2004C368.13 65.6504 367.74 67.0204 366.96 68.3004C366.18 69.5804 365.05 70.6204 363.56 71.3904C362.07 72.1704 360.31 72.5604 358.29 72.5604C356.38 72.5604 354.66 72.2304 353.12 71.5604H353.14Z" fill="white"/>
<path d="M250.05 12.3298L247.33 7.59978H245.85V12.3298H243.91V0.509766H247.99C248.9 0.509766 249.66 0.669777 250.29 0.989777C250.92 1.30978 251.39 1.72977 251.7 2.25977C252.01 2.78977 252.17 3.38977 252.17 4.04977C252.17 4.81977 251.95 5.51976 251.5 6.14977C251.05 6.77977 250.36 7.20976 249.43 7.42976L252.35 12.3298H250.04H250.05ZM245.85 6.04977H247.99C248.72 6.04977 249.26 5.86977 249.63 5.50977C250 5.14977 250.18 4.65977 250.18 4.04977C250.18 3.43977 250 2.95977 249.64 2.60977C249.28 2.25977 248.73 2.08977 247.99 2.08977H245.85V6.04977Z" fill="#A6A6A6"/>
<path d="M263.17 8.35982H256.01C256.07 9.10982 256.34 9.70982 256.84 10.1598C257.34 10.6098 257.95 10.8398 258.68 10.8398C259.72 10.8398 260.46 10.3998 260.89 9.52982H262.98C262.7 10.3898 262.18 11.0998 261.44 11.6498C260.7 12.1998 259.78 12.4798 258.68 12.4798C257.78 12.4798 256.98 12.2798 256.27 11.8798C255.56 11.4798 255.01 10.9098 254.6 10.1798C254.2 9.44981 254 8.59982 254 7.63982C254 6.67982 254.2 5.82982 254.59 5.09982C254.98 4.36982 255.53 3.80982 256.24 3.40982C256.95 3.00982 257.76 2.81982 258.68 2.81982C259.6 2.81982 260.35 3.00981 261.04 3.39981C261.73 3.78981 262.27 4.32982 262.66 5.01982C263.04 5.71982 263.24 6.51981 263.24 7.42981C263.24 7.77981 263.22 8.09982 263.17 8.37982V8.35982ZM261.22 6.79982C261.21 6.08982 260.95 5.50982 260.46 5.07982C259.97 4.64982 259.34 4.42981 258.61 4.42981C257.94 4.42981 257.37 4.63982 256.89 5.06982C256.41 5.49982 256.13 6.06982 256.04 6.79982H261.22Z" fill="#A6A6A6"/>
<path d="M265.09 5.08957C265.48 4.35957 266.02 3.79957 266.71 3.39957C267.4 2.99957 268.19 2.80957 269.09 2.80957C270.22 2.80957 271.16 3.07957 271.9 3.61957C272.64 4.15957 273.14 4.92957 273.4 5.91957H271.31C271.14 5.45957 270.87 5.08957 270.49 4.82957C270.11 4.56957 269.65 4.43958 269.08 4.43958C268.29 4.43958 267.65 4.71957 267.18 5.27957C266.71 5.83957 266.47 6.62958 266.47 7.62958C266.47 8.62958 266.7 9.42958 267.18 9.98958C267.65 10.5596 268.28 10.8396 269.08 10.8396C270.2 10.8396 270.94 10.3496 271.31 9.35957H273.4C273.13 10.3096 272.62 11.0696 271.87 11.6296C271.12 12.1896 270.19 12.4696 269.08 12.4696C268.18 12.4696 267.39 12.2696 266.7 11.8696C266.01 11.4696 265.47 10.8996 265.08 10.1696C264.69 9.43957 264.49 8.58958 264.49 7.62958C264.49 6.66958 264.69 5.81957 265.08 5.08957H265.09Z" fill="#A6A6A6"/>
<path d="M277.01 11.8798C276.3 11.4798 275.74 10.9098 275.33 10.1798C274.92 9.44981 274.72 8.59982 274.72 7.63982C274.72 6.67982 274.93 5.83982 275.35 5.10982C275.77 4.36982 276.34 3.80982 277.07 3.40982C277.79 3.00982 278.61 2.81982 279.5 2.81982C280.39 2.81982 281.21 3.01982 281.93 3.40982C282.65 3.79982 283.23 4.36982 283.65 5.10982C284.07 5.84982 284.28 6.68982 284.28 7.63982C284.28 8.58982 284.06 9.43982 283.63 10.1698C283.2 10.9098 282.61 11.4798 281.87 11.8798C281.13 12.2798 280.31 12.4798 279.41 12.4798C278.51 12.4798 277.73 12.2798 277.01 11.8798ZM280.81 10.4398C281.25 10.1998 281.6 9.83981 281.87 9.36981C282.14 8.89981 282.28 8.31982 282.28 7.63982C282.28 6.95982 282.15 6.38982 281.89 5.90982C281.63 5.43982 281.28 5.08982 280.85 4.84982C280.42 4.60982 279.95 4.48982 279.46 4.48982C278.97 4.48982 278.5 4.60982 278.07 4.84982C277.65 5.08982 277.31 5.43982 277.06 5.90982C276.81 6.37982 276.69 6.95982 276.69 7.63982C276.69 8.64982 276.95 9.42981 277.46 9.97981C277.98 10.5298 278.62 10.7998 279.41 10.7998C279.91 10.7998 280.38 10.6798 280.81 10.4398Z" fill="#A6A6A6"/>
<path d="M289.26 3.20958C289.73 2.93958 290.29 2.80957 290.93 2.80957V4.81958H290.44C289.68 4.81958 289.11 5.00957 288.71 5.39957C288.32 5.77957 288.12 6.44958 288.12 7.40958V12.3396H286.18V2.96957H288.12V4.32957C288.4 3.84957 288.78 3.47957 289.25 3.21957L289.26 3.20958Z" fill="#A6A6A6"/>
<path d="M294.98 4.53964V9.72964C294.98 10.0796 295.06 10.3297 295.23 10.4897C295.39 10.6397 295.67 10.7197 296.07 10.7197H297.26V12.3396H295.73C294.86 12.3396 294.19 12.1396 293.72 11.7296C293.26 11.3196 293.02 10.6597 293.02 9.73965V4.54965H291.92V2.96965H293.02V0.639648H294.98V2.96965H297.26V4.54965H294.98V4.53964Z" fill="#A6A6A6"/>
<path d="M307.561 8.35982H300.401C300.461 9.10982 300.731 9.70982 301.231 10.1598C301.731 10.6098 302.341 10.8398 303.071 10.8398C304.111 10.8398 304.851 10.3998 305.281 9.52982H307.371C307.091 10.3898 306.571 11.0998 305.831 11.6498C305.091 12.1998 304.171 12.4798 303.071 12.4798C302.171 12.4798 301.371 12.2798 300.661 11.8798C299.951 11.4798 299.401 10.9098 298.991 10.1798C298.591 9.44981 298.391 8.59982 298.391 7.63982C298.391 6.67982 298.591 5.82982 298.981 5.09982C299.371 4.36982 299.921 3.80982 300.631 3.40982C301.341 3.00982 302.151 2.81982 303.071 2.81982C303.991 2.81982 304.741 3.00981 305.431 3.39981C306.121 3.78981 306.661 4.32982 307.051 5.01982C307.431 5.71982 307.631 6.51981 307.631 7.42981C307.631 7.77981 307.611 8.09982 307.561 8.37982V8.35982ZM305.611 6.79982C305.601 6.08982 305.341 5.50982 304.841 5.07982C304.341 4.64982 303.721 4.42981 302.991 4.42981C302.321 4.42981 301.751 4.63982 301.271 5.06982C300.791 5.49982 300.511 6.06982 300.421 6.79982H305.611Z" fill="#A6A6A6"/>
<path d="M310.95 12.0796C310.37 11.8096 309.91 11.4496 309.57 10.9896C309.23 10.5296 309.05 10.0196 309.03 9.44955H311.04C311.07 9.84955 311.26 10.1796 311.61 10.4396C311.96 10.7096 312.39 10.8396 312.91 10.8396C313.43 10.8396 313.88 10.7296 314.18 10.5196C314.48 10.3096 314.63 10.0396 314.63 9.70956C314.63 9.35956 314.46 9.09955 314.13 8.92955C313.8 8.75955 313.27 8.56955 312.54 8.36955C311.84 8.17955 311.26 7.98955 310.82 7.80956C310.38 7.62956 310 7.34955 309.67 6.97955C309.35 6.60955 309.19 6.10956 309.19 5.49956C309.19 4.99956 309.34 4.54956 309.63 4.12956C309.92 3.71956 310.35 3.38955 310.9 3.14955C311.45 2.90955 312.08 2.78955 312.8 2.78955C313.86 2.78955 314.72 3.05956 315.38 3.59956C316.03 4.13956 316.38 4.86956 316.43 5.79956H314.49C314.46 5.37956 314.29 5.04956 313.98 4.79956C313.67 4.54956 313.26 4.42955 312.74 4.42955C312.22 4.42955 311.84 4.52956 311.57 4.71956C311.3 4.90956 311.16 5.16955 311.16 5.47955C311.16 5.72955 311.25 5.93956 311.43 6.10956C311.61 6.27956 311.83 6.40955 312.09 6.50955C312.35 6.60955 312.74 6.72956 313.25 6.87956C313.93 7.05956 314.49 7.24955 314.92 7.42955C315.36 7.61955 315.73 7.88956 316.05 8.24956C316.37 8.60956 316.53 9.08955 316.54 9.69955C316.54 10.2296 316.39 10.7096 316.1 11.1296C315.81 11.5496 315.39 11.8796 314.85 12.1196C314.31 12.3596 313.68 12.4796 312.95 12.4796C312.22 12.4796 311.55 12.3496 310.97 12.0796H310.95Z" fill="#A6A6A6"/>
</svg>
