<svg width="473" height="663" viewBox="0 0 473 663" fill="none" xmlns="http://www.w3.org/2000/svg">
<path d="M460.94 11.73H0.830078V662.45H460.94V11.73Z" fill="#B7B7B7"/>
<path d="M471.95 0.72998H11.8398V651.45H471.95V0.72998Z" fill="white" stroke="#222221" stroke-miterlimit="10"/>
<path d="M218.38 56.27H215.8L208.04 44.53V56.27H205.46V40.52H208.04L215.8 52.24V40.52H218.38V56.27Z" fill="#010200"/>
<path d="M224.33 40.5502V50.5702C224.33 51.7602 224.64 52.6602 225.27 53.2602C225.9 53.8602 226.77 54.1602 227.88 54.1602C228.99 54.1602 229.89 53.8602 230.52 53.2602C231.15 52.6602 231.46 51.7602 231.46 50.5702V40.5502H234.04V50.5302C234.04 51.8102 233.76 52.9002 233.2 53.7902C232.64 54.6802 231.9 55.3402 230.96 55.7802C230.02 56.2202 228.99 56.4402 227.86 56.4402C226.73 56.4402 225.7 56.2202 224.77 55.7802C223.84 55.3402 223.11 54.6802 222.56 53.7902C222.02 52.9002 221.74 51.8102 221.74 50.5302V40.5502H224.32H224.33ZM230.21 37.1802L225.21 39.6502V37.7502L230.21 34.9902V37.1902V37.1802Z" fill="#010200"/>
<path d="M253.94 40.5503V56.2703H251.36V45.5003L246.56 56.2703H244.77L239.95 45.5003V56.2703H237.37V40.5503H240.15L245.67 52.8803L251.17 40.5503H253.93H253.94Z" fill="#010200"/>
<path d="M259.92 42.63V47.25H265.35V49.35H259.92V54.17H266.03V56.27H257.34V40.52H266.03V42.62H259.92V42.63Z" fill="#010200"/>
<path d="M277.359 56.2703L273.739 49.9803H271.769V56.2703H269.189V40.5503H274.619C275.829 40.5503 276.849 40.7603 277.689 41.1803C278.529 41.6003 279.149 42.1703 279.569 42.8803C279.979 43.5903 280.189 44.3803 280.189 45.2603C280.189 46.2903 279.889 47.2203 279.299 48.0503C278.699 48.8903 277.789 49.4603 276.549 49.7603L280.439 56.2803H277.359V56.2703ZM271.769 47.9203H274.619C275.579 47.9203 276.309 47.6803 276.799 47.2003C277.289 46.7203 277.539 46.0703 277.539 45.2503C277.539 44.4303 277.299 43.8003 276.819 43.3403C276.339 42.8803 275.609 42.6503 274.619 42.6503H271.769V47.9203Z" fill="#010200"/>
<path d="M286.63 55.4001C285.4 54.7101 284.43 53.7601 283.71 52.5301C282.99 51.3001 282.63 49.9201 282.63 48.3801C282.63 46.8401 282.99 45.4601 283.71 44.2401C284.43 43.0201 285.4 42.0601 286.63 41.3801C287.86 40.6901 289.21 40.3501 290.67 40.3501C292.13 40.3501 293.5 40.6901 294.73 41.3801C295.96 42.0701 296.93 43.0201 297.64 44.2401C298.35 45.4601 298.7 46.8401 298.7 48.3801C298.7 49.9201 298.35 51.3001 297.64 52.5301C296.93 53.7601 295.96 54.7201 294.73 55.4001C293.5 56.0801 292.15 56.4301 290.67 56.4301C289.19 56.4301 287.86 56.0901 286.63 55.4001ZM293.45 53.4801C294.26 53.0001 294.9 52.3301 295.36 51.4401C295.82 50.5601 296.05 49.5401 296.05 48.3701C296.05 47.2001 295.82 46.1901 295.36 45.3201C294.9 44.4501 294.26 43.7701 293.45 43.3101C292.64 42.8401 291.71 42.6101 290.67 42.6101C289.63 42.6101 288.7 42.8401 287.89 43.3101C287.08 43.7801 286.44 44.4501 285.98 45.3201C285.52 46.2001 285.29 47.2101 285.29 48.3701C285.29 49.5301 285.52 50.5501 285.98 51.4401C286.44 52.3201 287.08 53.0001 287.89 53.4801C288.7 53.9501 289.63 54.1901 290.67 54.1901C291.71 54.1901 292.64 53.9501 293.45 53.4801Z" fill="#010200"/>
<path d="M303.56 55.8801C302.72 55.5101 302.05 54.9901 301.57 54.3101C301.09 53.6301 300.85 52.8401 300.85 51.9301H303.61C303.67 52.6101 303.94 53.1701 304.41 53.6001C304.88 54.0401 305.55 54.2601 306.41 54.2601C307.27 54.2601 307.99 54.0501 308.49 53.6201C308.99 53.1901 309.24 52.6401 309.24 51.9601C309.24 51.4301 309.09 51.0001 308.78 50.6701C308.47 50.3401 308.09 50.0801 307.63 49.9001C307.17 49.7201 306.53 49.5201 305.72 49.3101C304.69 49.0401 303.86 48.7601 303.22 48.4801C302.58 48.2001 302.03 47.7701 301.58 47.1801C301.13 46.5901 300.9 45.8101 300.9 44.8301C300.9 43.9201 301.13 43.1301 301.58 42.4501C302.03 41.7701 302.67 41.2501 303.48 40.8901C304.29 40.5301 305.24 40.3501 306.31 40.3501C307.83 40.3501 309.08 40.7301 310.06 41.4901C311.04 42.2501 311.57 43.3001 311.68 44.6201H308.83C308.79 44.0501 308.51 43.5601 308.02 43.1501C307.53 42.7401 306.87 42.5401 306.05 42.5401C305.31 42.5401 304.71 42.7301 304.24 43.1101C303.77 43.4901 303.54 44.0301 303.54 44.7401C303.54 45.2201 303.69 45.6201 303.98 45.9301C304.27 46.2401 304.65 46.4801 305.1 46.6701C305.55 46.8501 306.17 47.0501 306.96 47.2601C308 47.5501 308.85 47.8301 309.51 48.1201C310.17 48.4101 310.72 48.8501 311.18 49.4401C311.64 50.0401 311.87 50.8301 311.87 51.8301C311.87 52.6301 311.66 53.3801 311.23 54.0901C310.8 54.8001 310.17 55.3701 309.35 55.8001C308.53 56.2301 307.56 56.4401 306.44 56.4401C305.38 56.4401 304.43 56.2601 303.59 55.8901L303.56 55.8801Z" fill="#010200"/>
<path d="M188.18 72.8L185.62 68.4H183.92V72.8H182.51V62.04H185.98C186.79 62.04 187.48 62.18 188.04 62.46C188.6 62.74 189.02 63.11 189.3 63.59C189.58 64.07 189.72 64.6 189.72 65.21C189.72 65.95 189.51 66.61 189.08 67.17C188.65 67.74 188.01 68.11 187.16 68.3L189.86 72.81H188.18V72.8ZM183.92 67.28H185.99C186.75 67.28 187.32 67.09 187.7 66.72C188.08 66.34 188.27 65.84 188.27 65.21C188.27 64.58 188.08 64.08 187.71 63.73C187.33 63.38 186.76 63.21 185.99 63.21H183.92V67.29V67.28Z" fill="#010200"/>
<path d="M199.58 69.1002H192.82C192.87 69.9302 193.16 70.5902 193.68 71.0502C194.2 71.5202 194.83 71.7502 195.57 71.7502C196.18 71.7502 196.68 71.6102 197.09 71.3302C197.5 71.0502 197.78 70.6702 197.95 70.2002H199.46C199.23 71.0102 198.78 71.6702 198.1 72.1802C197.42 72.6902 196.58 72.9402 195.57 72.9402C194.77 72.9402 194.05 72.7602 193.42 72.4002C192.79 72.0402 192.29 71.5302 191.93 70.8602C191.57 70.2002 191.39 69.4302 191.39 68.5502C191.39 67.6702 191.56 66.9102 191.92 66.2502C192.27 65.5902 192.76 65.0802 193.39 64.7302C194.02 64.3702 194.75 64.2002 195.57 64.2002C196.39 64.2002 197.08 64.3802 197.7 64.7302C198.32 65.0802 198.79 65.5602 199.13 66.1702C199.46 66.7802 199.63 67.4702 199.63 68.2502C199.63 68.5202 199.61 68.8002 199.58 69.1002ZM197.82 66.5702C197.58 66.1802 197.26 65.8902 196.85 65.6902C196.44 65.4902 195.99 65.3902 195.5 65.3902C194.79 65.3902 194.18 65.6202 193.69 66.0702C193.19 66.5202 192.9 67.1502 192.83 67.9502H198.17C198.17 67.4102 198.05 66.9502 197.82 66.5702Z" fill="#010200"/>
<path d="M201.479 66.2602C201.829 65.6102 202.319 65.1002 202.939 64.7402C203.559 64.3802 204.279 64.2002 205.079 64.2002C206.119 64.2002 206.979 64.4502 207.649 64.9602C208.319 65.4602 208.769 66.1702 208.979 67.0602H207.469C207.329 66.5502 207.049 66.1402 206.629 65.8402C206.209 65.5402 205.699 65.3902 205.079 65.3902C204.279 65.3902 203.629 65.6702 203.129 66.2202C202.629 66.7702 202.389 67.5502 202.389 68.5602C202.389 69.5702 202.639 70.3702 203.129 70.9202C203.619 71.4702 204.269 71.7502 205.079 71.7502C205.699 71.7502 206.209 71.6102 206.619 71.3202C207.029 71.0302 207.319 70.6202 207.469 70.0802H208.979C208.749 70.9402 208.299 71.6402 207.619 72.1602C206.939 72.6802 206.089 72.9402 205.069 72.9402C204.269 72.9402 203.549 72.7602 202.929 72.4002C202.309 72.0402 201.819 71.5302 201.469 70.8702C201.119 70.2102 200.939 69.4402 200.939 68.5502C200.939 67.6602 201.109 66.9102 201.469 66.2602H201.479Z" fill="#010200"/>
<path d="M212.39 72.4002C211.75 72.0402 211.24 71.5302 210.88 70.8602C210.51 70.2002 210.33 69.4302 210.33 68.5502C210.33 67.6702 210.52 66.9202 210.89 66.2602C211.26 65.6002 211.78 65.0902 212.43 64.7302C213.08 64.3702 213.81 64.2002 214.61 64.2002C215.41 64.2002 216.14 64.3802 216.79 64.7302C217.44 65.0902 217.95 65.5902 218.33 66.2502C218.71 66.9102 218.89 67.6802 218.89 68.5502C218.89 69.4202 218.7 70.1902 218.31 70.8602C217.92 71.5202 217.4 72.0402 216.74 72.4002C216.08 72.7602 215.35 72.9402 214.55 72.9402C213.75 72.9402 213.04 72.7602 212.4 72.4002H212.39ZM215.96 71.3502C216.4 71.1102 216.76 70.7602 217.03 70.2802C217.3 69.8102 217.44 69.2302 217.44 68.5502C217.44 67.8702 217.31 67.2902 217.04 66.8202C216.77 66.3502 216.42 65.9902 215.99 65.7602C215.56 65.5302 215.09 65.4102 214.58 65.4102C214.07 65.4102 213.59 65.5302 213.17 65.7602C212.74 65.9902 212.4 66.3402 212.14 66.8202C211.88 67.2902 211.75 67.8702 211.75 68.5502C211.75 69.2302 211.87 69.8202 212.13 70.2902C212.38 70.7602 212.72 71.1202 213.14 71.3502C213.56 71.5802 214.02 71.7002 214.53 71.7002C215.04 71.7002 215.51 71.5802 215.95 71.3502H215.96Z" fill="#010200"/>
<path d="M223.2 64.5899C223.66 64.3199 224.22 64.1899 224.87 64.1899V65.6399H224.5C222.92 65.6399 222.14 66.4899 222.14 68.1999V72.7999H220.729V64.3399H222.14V65.7099C222.39 65.2299 222.74 64.8499 223.2 64.5799V64.5899Z" fill="#010200"/>
<path d="M228.209 65.5002V70.4902C228.209 70.9002 228.299 71.1902 228.469 71.3602C228.639 71.5302 228.949 71.6102 229.379 71.6102H230.409V72.8002H229.139C228.359 72.8002 227.769 72.6202 227.379 72.2602C226.989 71.9002 226.789 71.3102 226.789 70.4802V65.4902H225.689V64.3302H226.789V62.2002H228.199V64.3302H230.409V65.4902H228.199L228.209 65.5002Z" fill="#010200"/>
<path d="M239.79 69.1002H233.03C233.08 69.9302 233.37 70.5902 233.89 71.0502C234.41 71.5202 235.04 71.7502 235.78 71.7502C236.39 71.7502 236.89 71.6102 237.3 71.3302C237.71 71.0502 237.99 70.6702 238.16 70.2002H239.67C239.44 71.0102 238.99 71.6702 238.31 72.1802C237.63 72.6902 236.79 72.9402 235.78 72.9402C234.98 72.9402 234.26 72.7602 233.63 72.4002C233 72.0402 232.5 71.5302 232.14 70.8602C231.78 70.2002 231.6 69.4302 231.6 68.5502C231.6 67.6702 231.77 66.9102 232.13 66.2502C232.48 65.5902 232.97 65.0802 233.6 64.7302C234.23 64.3702 234.96 64.2002 235.78 64.2002C236.6 64.2002 237.29 64.3802 237.91 64.7302C238.53 65.0802 239 65.5602 239.34 66.1702C239.67 66.7802 239.84 67.4702 239.84 68.2502C239.84 68.5202 239.82 68.8002 239.79 69.1002ZM238.03 66.5702C237.79 66.1802 237.47 65.8902 237.06 65.6902C236.65 65.4902 236.2 65.3902 235.71 65.3902C235 65.3902 234.39 65.6202 233.9 66.0702C233.4 66.5202 233.11 67.1502 233.04 67.9502H238.38C238.38 67.4102 238.26 66.9502 238.03 66.5702Z" fill="#010200"/>
<path d="M247.35 72.4002C246.71 72.0402 246.2 71.5302 245.84 70.8602C245.47 70.2002 245.29 69.4302 245.29 68.5502C245.29 67.6702 245.48 66.9202 245.85 66.2602C246.22 65.6002 246.74 65.0902 247.39 64.7302C248.04 64.3702 248.77 64.2002 249.57 64.2002C250.37 64.2002 251.1 64.3802 251.75 64.7302C252.4 65.0902 252.91 65.5902 253.29 66.2502C253.67 66.9102 253.85 67.6802 253.85 68.5502C253.85 69.4202 253.66 70.1902 253.27 70.8602C252.88 71.5202 252.36 72.0402 251.7 72.4002C251.04 72.7602 250.31 72.9402 249.51 72.9402C248.71 72.9402 248 72.7602 247.36 72.4002H247.35ZM250.92 71.3502C251.36 71.1102 251.72 70.7602 251.99 70.2802C252.26 69.8102 252.4 69.2302 252.4 68.5502C252.4 67.8702 252.27 67.2902 252 66.8202C251.73 66.3502 251.38 65.9902 250.95 65.7602C250.52 65.5302 250.05 65.4102 249.54 65.4102C249.03 65.4102 248.55 65.5302 248.13 65.7602C247.7 65.9902 247.36 66.3402 247.1 66.8202C246.84 67.2902 246.71 67.8702 246.71 68.5502C246.71 69.2302 246.83 69.8202 247.09 70.2902C247.34 70.7602 247.68 71.1202 248.1 71.3502C248.52 71.5802 248.98 71.7002 249.49 71.7002C250 71.7002 250.47 71.5802 250.91 71.3502H250.92Z" fill="#010200"/>
<path d="M256.94 72.6102C256.43 72.3902 256.019 72.0802 255.719 71.6802C255.419 71.2802 255.259 70.8302 255.229 70.3102H256.68C256.72 70.7302 256.92 71.0802 257.27 71.3502C257.63 71.6202 258.089 71.7502 258.669 71.7502C259.209 71.7502 259.63 71.6302 259.94 71.3902C260.25 71.1502 260.4 70.8502 260.4 70.4902C260.4 70.1302 260.239 69.8402 259.909 69.6602C259.579 69.4802 259.07 69.3002 258.38 69.1302C257.75 68.9702 257.24 68.8002 256.84 68.6302C256.44 68.4602 256.1 68.2102 255.82 67.8702C255.54 67.5402 255.4 67.1002 255.4 66.5502C255.4 66.1202 255.529 65.7202 255.789 65.3602C256.049 65.0002 256.41 64.7102 256.89 64.5002C257.37 64.2902 257.9 64.1802 258.51 64.1802C259.45 64.1802 260.2 64.4202 260.78 64.8902C261.36 65.3602 261.66 66.0102 261.71 66.8402H260.299C260.269 66.4002 260.09 66.0402 259.77 65.7702C259.45 65.5002 259.009 65.3702 258.469 65.3702C257.969 65.3702 257.56 65.4802 257.27 65.6902C256.97 65.9102 256.82 66.1902 256.82 66.5402C256.82 66.8202 256.91 67.0502 257.09 67.2302C257.27 67.4102 257.5 67.5502 257.77 67.6602C258.04 67.7702 258.42 67.8902 258.9 68.0202C259.51 68.1802 260 68.3502 260.38 68.5102C260.76 68.6702 261.089 68.9102 261.359 69.2302C261.629 69.5502 261.77 69.9702 261.78 70.4802C261.78 70.9402 261.65 71.3602 261.39 71.7302C261.13 72.1002 260.769 72.3902 260.299 72.6002C259.829 72.8102 259.29 72.9202 258.69 72.9202C258.04 72.9202 257.46 72.8102 256.94 72.5902V72.6102Z" fill="#010200"/>
<path d="M274.5 65.1199C275.14 65.7399 275.46 66.6399 275.46 67.8199V72.8099H274.07V68.0199C274.07 67.1799 273.86 66.5299 273.44 66.0799C273.02 65.6299 272.44 65.4099 271.71 65.4099C270.98 65.4099 270.38 65.6399 269.94 66.0999C269.5 66.5599 269.28 67.2399 269.28 68.1199V72.7999H267.87V64.3399H269.28V65.5399C269.56 65.1099 269.94 64.7699 270.41 64.5399C270.89 64.2999 271.42 64.1899 271.99 64.1899C273.02 64.1899 273.85 64.4999 274.49 65.1199H274.5Z" fill="#010200"/>
<path d="M285.26 64.34V72.8H283.86V71.55C283.59 71.98 283.22 72.32 282.74 72.56C282.26 72.8 281.73 72.92 281.16 72.92C280.5 72.92 279.91 72.78 279.38 72.51C278.85 72.24 278.44 71.83 278.14 71.28C277.84 70.74 277.68 70.07 277.68 69.29V64.33H279.07V69.1C279.07 69.93 279.28 70.57 279.7 71.02C280.12 71.47 280.7 71.69 281.43 71.69C282.16 71.69 282.77 71.46 283.21 71C283.64 70.54 283.86 69.86 283.86 68.98V64.33H285.26V64.34ZM283.03 61.95L279.74 63.71V62.66L283.03 60.73V61.95Z" fill="#010200"/>
<path d="M299.58 64.6002C300.09 64.8702 300.5 65.2802 300.8 65.8302C301.1 66.3802 301.25 67.0402 301.25 67.8202V72.8102H299.86V68.0202C299.86 67.1802 299.65 66.5302 299.24 66.0802C298.82 65.6302 298.26 65.4102 297.55 65.4102C296.84 65.4102 296.24 65.6402 295.81 66.1102C295.38 66.5802 295.16 67.2602 295.16 68.1402V72.8002H293.77V68.0102C293.77 67.1702 293.56 66.5202 293.15 66.0702C292.73 65.6202 292.17 65.4002 291.46 65.4002C290.75 65.4002 290.15 65.6302 289.72 66.1002C289.29 66.5702 289.07 67.2502 289.07 68.1302V72.7902H287.66V64.3302H289.07V65.5502C289.35 65.1102 289.72 64.7702 290.19 64.5302C290.66 64.2902 291.18 64.1802 291.74 64.1802C292.45 64.1802 293.08 64.3402 293.62 64.6602C294.16 64.9802 294.57 65.4502 294.84 66.0702C295.08 65.4702 295.47 65.0102 296.01 64.6802C296.56 64.3502 297.16 64.1902 297.83 64.1902C298.5 64.1902 299.08 64.3302 299.59 64.6002H299.58Z" fill="#010200"/>
<path d="M311.219 69.1002H304.459C304.509 69.9302 304.799 70.5902 305.319 71.0502C305.839 71.5202 306.469 71.7502 307.209 71.7502C307.819 71.7502 308.319 71.6102 308.729 71.3302C309.139 71.0502 309.419 70.6702 309.589 70.2002H311.099C310.869 71.0102 310.419 71.6702 309.739 72.1802C309.059 72.6902 308.219 72.9402 307.209 72.9402C306.409 72.9402 305.689 72.7602 305.059 72.4002C304.429 72.0402 303.929 71.5302 303.569 70.8602C303.209 70.2002 303.029 69.4302 303.029 68.5502C303.029 67.6702 303.199 66.9102 303.559 66.2502C303.909 65.5902 304.399 65.0802 305.029 64.7302C305.659 64.3702 306.389 64.2002 307.209 64.2002C308.029 64.2002 308.719 64.3802 309.339 64.7302C309.959 65.0802 310.429 65.5602 310.769 66.1702C311.099 66.7802 311.269 67.4702 311.269 68.2502C311.269 68.5202 311.249 68.8002 311.219 69.1002ZM309.459 66.5702C309.219 66.1802 308.899 65.8902 308.489 65.6902C308.079 65.4902 307.629 65.3902 307.139 65.3902C306.429 65.3902 305.819 65.6202 305.329 66.0702C304.829 66.5202 304.539 67.1502 304.469 67.9502H309.809C309.809 67.4102 309.689 66.9502 309.459 66.5702Z" fill="#010200"/>
<path d="M315.59 64.5899C316.05 64.3199 316.61 64.1899 317.26 64.1899V65.6399H316.89C315.31 65.6399 314.53 66.4899 314.53 68.1999V72.7999H313.12V64.3399H314.53V65.7099C314.78 65.2299 315.13 64.8499 315.59 64.5799V64.5899Z" fill="#010200"/>
<path d="M320.419 72.4002C319.779 72.0402 319.269 71.5302 318.909 70.8602C318.539 70.2002 318.359 69.4302 318.359 68.5502C318.359 67.6702 318.549 66.9202 318.919 66.2602C319.289 65.6002 319.809 65.0902 320.459 64.7302C321.109 64.3702 321.839 64.2002 322.639 64.2002C323.439 64.2002 324.169 64.3802 324.819 64.7302C325.469 65.0902 325.979 65.5902 326.359 66.2502C326.739 66.9102 326.919 67.6802 326.919 68.5502C326.919 69.4202 326.729 70.1902 326.339 70.8602C325.949 71.5202 325.429 72.0402 324.769 72.4002C324.109 72.7602 323.379 72.9402 322.579 72.9402C321.779 72.9402 321.069 72.7602 320.429 72.4002H320.419ZM323.989 71.3502C324.429 71.1102 324.789 70.7602 325.059 70.2802C325.329 69.8102 325.469 69.2302 325.469 68.5502C325.469 67.8702 325.339 67.2902 325.069 66.8202C324.799 66.3502 324.449 65.9902 324.019 65.7602C323.589 65.5302 323.119 65.4102 322.609 65.4102C322.099 65.4102 321.619 65.5302 321.199 65.7602C320.769 65.9902 320.429 66.3402 320.169 66.8202C319.909 67.2902 319.779 67.8702 319.779 68.5502C319.779 69.2302 319.899 69.8202 320.159 70.2902C320.409 70.7602 320.749 71.1202 321.169 71.3502C321.589 71.5802 322.049 71.7002 322.559 71.7002C323.069 71.7002 323.539 71.5802 323.979 71.3502H323.989Z" fill="#010200"/>
<path d="M330.01 72.6102C329.5 72.3902 329.09 72.0802 328.79 71.6802C328.49 71.2802 328.33 70.8302 328.3 70.3102H329.75C329.79 70.7302 329.99 71.0802 330.34 71.3502C330.7 71.6202 331.16 71.7502 331.74 71.7502C332.28 71.7502 332.7 71.6302 333.01 71.3902C333.32 71.1502 333.47 70.8502 333.47 70.4902C333.47 70.1302 333.31 69.8402 332.98 69.6602C332.65 69.4802 332.14 69.3002 331.45 69.1302C330.82 68.9702 330.31 68.8002 329.91 68.6302C329.51 68.4602 329.17 68.2102 328.89 67.8702C328.61 67.5402 328.47 67.1002 328.47 66.5502C328.47 66.1202 328.6 65.7202 328.86 65.3602C329.12 65.0002 329.48 64.7102 329.96 64.5002C330.44 64.2902 330.97 64.1802 331.58 64.1802C332.52 64.1802 333.27 64.4202 333.85 64.8902C334.43 65.3602 334.73 66.0102 334.78 66.8402H333.37C333.34 66.4002 333.16 66.0402 332.84 65.7702C332.52 65.5002 332.08 65.3702 331.54 65.3702C331.04 65.3702 330.63 65.4802 330.34 65.6902C330.04 65.9102 329.89 66.1902 329.89 66.5402C329.89 66.8202 329.98 67.0502 330.16 67.2302C330.34 67.4102 330.57 67.5502 330.84 67.6602C331.11 67.7702 331.49 67.8902 331.97 68.0202C332.58 68.1802 333.07 68.3502 333.45 68.5102C333.83 68.6702 334.16 68.9102 334.43 69.2302C334.7 69.5502 334.84 69.9702 334.85 70.4802C334.85 70.9402 334.72 71.3602 334.46 71.7302C334.2 72.1002 333.84 72.3902 333.37 72.6002C332.9 72.8102 332.36 72.9202 331.76 72.9202C331.11 72.9202 330.53 72.8102 330.01 72.5902V72.6102Z" fill="#010200"/>
<path d="M56.2803 189.69V170.57H89.6002V258.38H68.1902V189.7H56.2803V189.69Z" stroke="#040504" stroke-width="2"/>
<path d="M161.48 240.45C169.34 233.95 175.53 228.62 180.06 224.45C184.59 220.28 188.42 215.91 191.55 211.34C194.68 206.77 196.24 202.32 196.24 197.99C196.24 194.7 195.48 192.14 193.95 190.29C192.43 188.45 190.14 187.52 187.09 187.52C184.04 187.52 181.66 188.66 179.93 190.95C178.2 193.24 177.34 196.46 177.34 200.63H157.49C157.65 193.81 159.11 188.12 161.88 183.55C164.65 178.98 168.29 175.61 172.83 173.45C177.36 171.28 182.39 170.2 187.93 170.2C197.47 170.2 204.67 172.65 209.52 177.54C214.37 182.43 216.8 188.81 216.8 196.67C216.8 205.25 213.87 213.21 208.02 220.55C202.17 227.89 194.71 235.04 185.65 242.02H218.13V258.74H157.75V243.46C160.48 241.29 161.72 240.29 161.48 240.45Z" stroke="#040504" stroke-width="2"/>
<path d="M279.14 176.16C284.43 171.51 291.61 169.18 300.67 169.18C306.68 169.18 311.83 170.22 316.13 172.31C320.42 174.4 323.67 177.24 325.87 180.85C328.08 184.46 329.18 188.51 329.18 193C329.18 198.29 327.86 202.6 325.21 205.93C322.56 209.26 319.48 211.52 315.95 212.73V213.21C320.52 214.73 324.13 217.26 326.77 220.79C329.42 224.32 330.74 228.85 330.74 234.38C330.74 239.35 329.6 243.74 327.31 247.55C325.02 251.36 321.7 254.35 317.33 256.51C312.96 258.68 307.77 259.76 301.75 259.76C292.13 259.76 284.45 257.4 278.72 252.66C272.99 247.93 269.96 240.79 269.64 231.25H289.61C289.69 234.78 290.69 237.57 292.62 239.61C294.54 241.65 297.35 242.68 301.04 242.68C304.17 242.68 306.59 241.78 308.32 239.97C310.04 238.17 310.91 235.78 310.91 232.81C310.91 228.96 309.69 226.18 307.24 224.45C304.79 222.73 300.88 221.86 295.51 221.86H291.66V205.14H295.51C299.6 205.14 302.91 204.44 305.43 203.03C307.96 201.63 309.22 199.12 309.22 195.51C309.22 192.62 308.42 190.38 306.81 188.77C305.21 187.17 303 186.36 300.19 186.36C297.14 186.36 294.88 187.28 293.39 189.13C291.91 190.98 291.04 193.26 290.8 195.99H270.71C271.03 187.41 273.84 180.79 279.13 176.14L279.14 176.16Z" stroke="#040504" stroke-width="2"/>
<path d="M371.53 242.14V225.54L409.54 171.17H432.51V224.34H442.37V242.14H432.51V257.78H411.939V242.14H371.52H371.53ZM413.39 193.78L393.18 224.33H413.39V193.78Z" stroke="#040504" stroke-width="2"/>
<path d="M98.9796 333.23H61.4496V349.83C63.0496 348.07 65.2996 346.62 68.1896 345.5C71.0796 344.38 74.1996 343.82 77.5696 343.82C83.5796 343.82 88.5796 345.18 92.5496 347.91C96.5196 350.64 99.4197 354.16 101.27 358.5C103.11 362.83 104.04 367.52 104.04 372.57C104.04 381.95 101.39 389.39 96.0996 394.88C90.8096 400.37 83.3496 403.12 73.7296 403.12C67.3096 403.12 61.7396 402.02 57.0096 399.81C52.2796 397.61 48.6296 394.54 46.0596 390.61C43.4896 386.68 42.0896 382.15 41.8496 377.02H61.9396C62.4196 379.51 63.5796 381.57 65.4296 383.21C67.2696 384.85 69.7996 385.68 73.0096 385.68C76.7796 385.68 79.5796 384.48 81.4296 382.07C83.2696 379.66 84.1996 376.46 84.1996 372.45C84.1996 368.44 83.2396 365.51 81.3096 363.43C79.3896 361.35 76.5796 360.3 72.8896 360.3C70.1596 360.3 67.9197 360.96 66.1497 362.28C64.3897 363.6 63.2196 365.35 62.6596 367.51H42.8096V315.19H98.9796V333.23Z" stroke="#040504" stroke-width="2"/>
<path d="M194.37 332.33C192.77 330.85 190.48 330.1 187.51 330.1C182.94 330.1 179.65 332.08 177.65 336.05C175.64 340.02 174.6 346.3 174.52 354.87C176.28 352.06 178.83 349.86 182.16 348.25C185.49 346.65 189.15 345.84 193.17 345.84C201.03 345.84 207.34 348.33 212.11 353.3C216.88 358.27 219.27 365.21 219.27 374.11C219.27 379.96 218.09 385.1 215.72 389.51C213.35 393.92 209.9 397.37 205.38 399.85C200.85 402.34 195.5 403.58 189.32 403.58C176.97 403.58 168.39 399.71 163.58 391.97C158.77 384.23 156.36 373.11 156.36 358.59C156.36 343.36 158.9 332.03 164 324.61C169.09 317.19 177.25 313.48 188.48 313.48C194.49 313.48 199.56 314.66 203.7 317.03C207.83 319.4 210.96 322.5 213.08 326.35C215.2 330.2 216.47 334.41 216.87 338.98H197.75C197.11 336.01 195.98 333.79 194.38 332.3L194.37 332.33ZM179.64 365.17C177.35 367.21 176.21 370.12 176.21 373.89C176.21 377.66 177.27 380.75 179.4 382.91C181.52 385.07 184.55 386.16 188.48 386.16C192.01 386.16 194.79 385.1 196.84 382.97C198.88 380.85 199.91 377.94 199.91 374.25C199.91 370.56 198.91 367.51 196.9 365.35C194.89 363.19 192.01 362.1 188.24 362.1C184.79 362.1 181.92 363.12 179.64 365.17Z" stroke="#040504" stroke-width="2"/>
<path d="M329.24 330.71L299.05 403.12H278L308.55 333H271.14V315.44H329.24V330.72V330.71Z" stroke="#040504" stroke-width="2"/>
<path d="M376.52 337.08C376.52 332.75 377.64 328.8 379.89 325.23C382.13 321.66 385.54 318.82 390.11 316.69C394.68 314.57 400.29 313.5 406.95 313.5C413.61 313.5 419.2 314.56 423.73 316.69C428.26 318.82 431.65 321.66 433.89 325.23C436.13 328.8 437.26 332.75 437.26 337.08C437.26 341.41 436.24 345.18 434.19 348.39C432.14 351.6 429.4 354.12 425.95 355.97C430.28 358.06 433.61 360.92 435.93 364.57C438.25 368.22 439.42 372.49 439.42 377.38C439.42 383.07 437.98 387.99 435.09 392.12C432.2 396.25 428.29 399.4 423.36 401.56C418.43 403.72 412.95 404.81 406.94 404.81C400.93 404.81 395.45 403.73 390.52 401.56C385.59 399.39 381.68 396.25 378.79 392.12C375.9 387.99 374.46 383.08 374.46 377.38C374.46 372.41 375.62 368.1 377.95 364.45C380.27 360.8 383.56 357.98 387.81 355.97C380.27 351.96 376.5 345.67 376.5 337.09L376.52 337.08ZM397.81 367.94C395.48 369.98 394.32 372.81 394.32 376.42C394.32 379.79 395.46 382.55 397.75 384.72C400.04 386.89 403.1 387.97 406.95 387.97C410.8 387.97 413.82 386.89 416.03 384.72C418.23 382.56 419.34 379.79 419.34 376.42C419.34 373.05 418.2 370.09 415.91 368C413.62 365.92 410.64 364.87 406.95 364.87C403.26 364.87 400.13 365.89 397.81 367.94ZM414.47 332.57C412.59 330.77 410.08 329.86 406.95 329.86C403.82 329.86 401.32 330.78 399.43 332.63C397.54 334.48 396.6 337.04 396.6 340.33C396.6 343.62 397.56 345.92 399.49 347.73C401.41 349.53 403.9 350.44 406.95 350.44C410 350.44 412.48 349.52 414.41 347.67C416.33 345.83 417.3 343.34 417.3 340.21C417.3 336.92 416.36 334.38 414.47 332.57Z" stroke="#040504" stroke-width="2"/>
<path d="M74.2104 527.25C78.4604 527.25 81.4703 525.37 83.2303 521.6C84.9903 517.83 85.8804 511.7 85.8804 503.2C84.1204 505.69 81.7103 507.61 78.6603 508.97C75.6103 510.33 72.2004 511.01 68.4404 511.01C63.3104 511.01 58.7403 509.95 54.7303 507.82C50.7203 505.7 47.5703 502.53 45.2903 498.32C43.0003 494.11 41.8604 489 41.8604 482.98C41.8604 476.96 43.0804 471.87 45.5304 467.46C47.9704 463.05 51.4604 459.64 55.9904 457.24C60.5204 454.84 65.8704 453.63 72.0504 453.63C83.9204 453.63 92.2204 457.32 96.9504 464.7C101.68 472.08 104.05 482.94 104.05 497.3C104.05 507.73 103.11 516.33 101.22 523.1C99.3403 529.88 96.1703 535.03 91.7203 538.56C87.2703 542.09 81.2004 543.85 73.5004 543.85C67.4104 543.85 62.2103 542.65 57.9203 540.24C53.6303 537.83 50.3404 534.67 48.0604 530.74C45.7704 526.81 44.4704 522.48 44.1504 517.75H63.1504C64.3504 524.09 68.0403 527.25 74.2203 527.25H74.2104ZM81.1804 491.71C83.1804 489.67 84.1904 486.88 84.1904 483.35C84.1904 479.5 83.1504 476.53 81.0604 474.45C78.9704 472.37 76.1704 471.32 72.6404 471.32C69.1104 471.32 66.3304 472.38 64.2804 474.51C62.2404 476.64 61.2104 479.54 61.2104 483.23C61.2104 486.68 62.2304 489.47 64.2804 491.59C66.3204 493.72 69.2704 494.78 73.1204 494.78C76.4904 494.78 79.1704 493.76 81.1804 491.71Z" stroke="#040504" stroke-width="2"/>
<path d="M171.16 474.81V455.68H204.48V543.49H183.07V474.81H171.16Z" stroke="#040504" stroke-width="2"/>
<path d="M274.39 465.79C279.72 457.85 288.32 453.88 300.19 453.88C312.06 453.88 320.66 457.85 325.99 465.79C331.32 473.73 333.99 484.59 333.99 498.39C333.99 512.19 331.32 523.29 325.99 531.23C320.66 539.17 312.06 543.14 300.19 543.14C288.32 543.14 279.72 539.17 274.39 531.23C269.06 523.29 266.39 512.34 266.39 498.39C266.39 484.44 269.05 473.73 274.39 465.79ZM311.13 479.68C309.36 475.31 305.72 473.12 300.18 473.12C294.64 473.12 291 475.31 289.23 479.68C287.47 484.05 286.58 490.28 286.58 498.38C286.58 503.83 286.9 508.35 287.54 511.91C288.18 515.48 289.48 518.37 291.45 520.57C293.41 522.78 296.32 523.88 300.17 523.88C304.02 523.88 306.93 522.78 308.89 520.57C310.85 518.37 312.16 515.48 312.8 511.91C313.44 508.34 313.76 503.83 313.76 498.38C313.76 490.28 312.88 484.05 311.11 479.68H311.13Z" stroke="#040504" stroke-width="2"/>
</svg>
