<svg width="163" height="198" viewBox="0 0 163 198" fill="none" xmlns="http://www.w3.org/2000/svg">
<path d="M40.6801 196.87H39.1201L32.85 187.44V196.87H31.29V185H32.85L39.1201 194.42V185H40.6801V196.87Z" fill="#A6A6A6"/>
<path d="M51.66 187.55V196.87H50.1V195.49C49.8 195.97 49.39 196.34 48.86 196.6C48.33 196.87 47.74 197 47.11 197C46.38 197 45.72 196.85 45.14 196.55C44.56 196.25 44.1 195.8 43.76 195.2C43.42 194.6 43.26 193.87 43.26 193.01V187.55H44.8V192.8C44.8 193.72 45.03 194.42 45.5 194.92C45.97 195.42 46.61 195.66 47.42 195.66C48.23 195.66 48.91 195.41 49.39 194.9C49.87 194.39 50.11 193.65 50.11 192.67V187.55H51.67H51.66ZM49.18 184.92L45.53 186.86V185.7L49.18 183.58V184.92Z" fill="#A6A6A6"/>
<path d="M67.54 187.84C68.11 188.14 68.5601 188.59 68.8901 189.19C69.2201 189.79 69.3901 190.52 69.3901 191.38V196.87H67.85V191.6C67.85 190.67 67.62 189.96 67.16 189.47C66.7 188.98 66.0701 188.73 65.2801 188.73C64.4901 188.73 63.8201 188.99 63.3401 189.5C62.8601 190.01 62.6201 190.76 62.6201 191.74V196.87H61.0801V191.6C61.0801 190.67 60.8501 189.96 60.3901 189.47C59.9301 188.98 59.3001 188.73 58.5101 188.73C57.7201 188.73 57.0501 188.99 56.5701 189.5C56.0901 190.01 55.85 190.76 55.85 191.74V196.87H54.29V187.55H55.85V188.89C56.16 188.4 56.5701 188.03 57.0901 187.77C57.6101 187.51 58.1801 187.38 58.8101 187.38C59.6001 187.38 60.2901 187.56 60.9001 187.91C61.5101 188.26 61.9601 188.78 62.2501 189.46C62.5101 188.8 62.95 188.29 63.55 187.93C64.16 187.57 64.8301 187.39 65.5701 187.39C66.3101 187.39 66.9501 187.54 67.5201 187.84H67.54Z" fill="#A6A6A6"/>
<path d="M80.4501 192.79H72.9501C73.0101 193.71 73.3201 194.42 73.9001 194.94C74.4801 195.46 75.1801 195.71 76.0001 195.71C76.6701 195.71 77.2401 195.55 77.6901 195.24C78.1401 194.93 78.4601 194.51 78.6401 193.99H80.3201C80.0701 194.89 79.5701 195.61 78.8101 196.17C78.0501 196.73 77.1201 197.01 76.0001 197.01C75.1101 197.01 74.3101 196.81 73.6101 196.41C72.9101 196.01 72.3601 195.45 71.9601 194.72C71.5601 193.99 71.3601 193.14 71.3601 192.18C71.3601 191.22 71.5501 190.37 71.9401 189.65C72.3301 188.92 72.8701 188.37 73.5801 187.98C74.2801 187.59 75.0901 187.39 76.0001 187.39C76.9101 187.39 77.6801 187.58 78.3601 187.97C79.0501 188.35 79.5701 188.89 79.9401 189.56C80.3101 190.23 80.5001 191 80.5001 191.85C80.5001 192.14 80.4801 192.46 80.4501 192.78V192.79ZM78.5001 190.01C78.2401 189.59 77.8801 189.26 77.4301 189.04C76.9801 188.82 76.4801 188.71 75.9301 188.71C75.1401 188.71 74.4701 188.96 73.9201 189.46C73.3701 189.96 73.0501 190.65 72.9701 191.53H78.9001C78.9001 190.94 78.7701 190.43 78.5101 190.01H78.5001Z" fill="#A6A6A6"/>
<path d="M85.29 187.83C85.8 187.54 86.4201 187.39 87.1501 187.39V188.99H86.7401C84.9901 188.99 84.1201 189.93 84.1201 191.81V196.88H82.5601V187.56H84.1201V189.07C84.3901 188.54 84.79 188.12 85.29 187.83Z" fill="#A6A6A6"/>
<path d="M90.6501 196.43C89.9401 196.03 89.3801 195.47 88.9701 194.74C88.5601 194.01 88.3601 193.16 88.3601 192.2C88.3601 191.24 88.5701 190.41 88.9801 189.68C89.4001 188.95 89.9701 188.39 90.6801 188C91.4001 187.61 92.2001 187.41 93.1001 187.41C94.0001 187.41 94.8001 187.61 95.5201 188C96.2401 188.39 96.8101 188.95 97.2201 189.67C97.6301 190.39 97.8401 191.24 97.8401 192.2C97.8401 193.16 97.6301 194.01 97.2001 194.74C96.7701 195.47 96.1901 196.03 95.4601 196.43C94.7301 196.83 93.9202 197.03 93.0302 197.03C92.1402 197.03 91.3501 196.83 90.6401 196.43H90.6501ZM94.6201 195.27C95.1101 195.01 95.5101 194.62 95.8101 194.1C96.1101 193.58 96.2601 192.94 96.2601 192.2C96.2601 191.46 96.1101 190.82 95.8101 190.3C95.5101 189.78 95.1301 189.39 94.6501 189.14C94.1701 188.89 93.6501 188.76 93.0901 188.76C92.5301 188.76 92.0001 188.89 91.5201 189.14C91.0401 189.39 90.6701 189.78 90.3801 190.3C90.0901 190.82 89.9501 191.46 89.9501 192.2C89.9501 192.94 90.0901 193.6 90.3701 194.12C90.6501 194.64 91.0201 195.03 91.4901 195.28C91.9601 195.53 92.4702 195.66 93.0302 195.66C93.5902 195.66 94.1101 195.53 94.6101 195.27H94.6201Z" fill="#A6A6A6"/>
<path d="M101.29 196.66C100.72 196.42 100.27 196.08 99.9401 195.64C99.6101 195.2 99.4301 194.7 99.3901 194.14H101C101.04 194.6 101.27 194.98 101.66 195.28C102.05 195.58 102.57 195.72 103.21 195.72C103.8 195.72 104.27 195.59 104.61 195.33C104.95 195.07 105.12 194.74 105.12 194.34C105.12 193.94 104.94 193.63 104.57 193.43C104.2 193.23 103.64 193.04 102.87 192.84C102.17 192.66 101.61 192.47 101.17 192.29C100.73 192.1 100.35 191.83 100.04 191.46C99.7301 191.09 99.5701 190.61 99.5701 190.01C99.5701 189.53 99.7101 189.1 100 188.7C100.29 188.3 100.69 187.99 101.22 187.76C101.74 187.53 102.34 187.41 103.02 187.41C104.06 187.41 104.9 187.67 105.54 188.19C106.18 188.71 106.52 189.43 106.57 190.33H105.01C104.98 189.84 104.78 189.45 104.42 189.16C104.06 188.87 103.58 188.72 102.97 188.72C102.41 188.72 101.97 188.84 101.63 189.08C101.3 189.32 101.13 189.63 101.13 190.01C101.13 190.32 101.23 190.57 101.43 190.77C101.63 190.97 101.88 191.13 102.18 191.25C102.48 191.37 102.9 191.5 103.44 191.65C104.11 191.83 104.66 192.01 105.08 192.19C105.5 192.37 105.87 192.63 106.17 192.98C106.47 193.33 106.63 193.79 106.64 194.36C106.64 194.87 106.5 195.33 106.21 195.74C105.92 196.15 105.52 196.47 105 196.7C104.48 196.93 103.88 197.05 103.21 197.05C102.49 197.05 101.84 196.93 101.27 196.68L101.29 196.66Z" fill="#A6A6A6"/>
<path d="M7.94 28.3399L12.22 11.3799L41.76 18.8399L22.11 96.6999L3.13 91.9099L18.5 31.0099L7.94 28.3399Z" stroke="#F1C9A2" stroke-width="4"/>
<path d="M51.0699 136.17C58.2599 130.23 63.9199 125.35 68.0699 121.54C72.2099 117.73 75.7099 113.73 78.5699 109.55C81.4299 105.37 82.8599 101.3 82.8599 97.34C82.8599 94.33 82.16 91.9899 80.77 90.2999C79.38 88.6099 77.2899 87.77 74.4999 87.77C71.7099 87.77 69.53 88.81 67.96 90.9C66.38 92.99 65.59 95.9399 65.59 99.7499H47.4399C47.5899 93.5199 48.92 88.3099 51.45 84.1299C53.98 79.9499 57.32 76.87 61.46 74.89C65.6 72.91 70.21 71.9199 75.27 71.9199C84 71.9199 90.5799 74.1599 95.0099 78.6299C99.4499 83.0999 101.67 88.9299 101.67 96.1199C101.67 103.97 98.99 111.24 93.64 117.95C88.29 124.66 81.4699 131.21 73.1799 137.59H102.88V152.88H47.6599V138.91C50.1499 136.93 51.2899 136.01 51.0699 136.16V136.17Z" stroke="#D5ACF6" stroke-width="4"/>
<path d="M97.8 16.8701C101.02 11.2901 106.56 7.17012 114.41 4.52012C119.62 2.76012 124.39 2.15011 128.72 2.70011C133.05 3.25011 136.69 4.76009 139.66 7.24009C142.63 9.72009 144.77 12.9101 146.08 16.7901C147.63 21.3801 147.75 25.5001 146.43 29.1601C145.11 32.8201 143.1 35.6901 140.4 37.7601L140.54 38.1801C144.95 38.1601 148.81 39.2901 152.14 41.5701C155.47 43.8501 157.94 47.3901 159.56 52.1801C161.02 56.4901 161.31 60.6301 160.45 64.5901C159.59 68.5501 157.58 72.1201 154.43 75.2801C151.28 78.4301 147.1 80.8901 141.89 82.6601C133.55 85.4801 126.21 85.6801 119.86 83.2601C113.51 80.8401 108.79 75.5501 105.72 67.3701L123.02 61.5201C124.12 64.5601 125.81 66.6701 128.07 67.8801C130.34 69.0901 133.07 69.1501 136.26 68.0701C138.97 67.1501 140.8 65.6601 141.77 63.6001C142.73 61.5301 142.78 59.2101 141.91 56.6401C140.78 53.3101 138.91 51.2501 136.28 50.4701C133.66 49.6901 130.02 50.0901 125.36 51.6601L122.03 52.7901L117.13 38.3101L120.46 37.1801C124 35.9801 126.66 34.4001 128.44 32.4501C130.22 30.5001 130.58 27.9501 129.52 24.8301C128.67 22.3301 127.32 20.6201 125.46 19.7001C123.6 18.7801 121.45 18.7301 119.02 19.5501C116.38 20.4401 114.69 21.9101 113.94 23.9401C113.19 25.9701 113.12 28.2101 113.71 30.6401L96.31 36.5201C94.07 28.9901 94.57 22.4401 97.79 16.8601L97.8 16.8701Z" stroke="#EBACB2" stroke-width="4"/>
</svg>
