<svg width="473" height="663" viewBox="0 0 473 663" fill="none" xmlns="http://www.w3.org/2000/svg">
<path d="M460.94 11.73H0.830078V662.45H460.94V11.73Z" fill="#B7B7B7"/>
<path d="M471.95 0.72998H11.8398V651.45H471.95V0.72998Z" fill="white" stroke="#222221" stroke-miterlimit="10"/>
<path d="M122.84 478.61C120.64 459.93 142.74 459.15 154.07 461.1C160.65 456.46 188.25 456.84 195.6 467.97C204.78 481.89 211.68 479.59 208.26 489.83C203.41 504.34 208.26 495.67 216.07 510.93C223.88 526.2 208.26 526.64 221.58 536.97C230.17 543.63 231.03 551.83 226.04 557.62C226.04 557.62 214.69 548.64 208.26 557.62C201.83 566.6 184.38 561.66 178.87 557.62C174.46 554.39 154.99 558.97 145.81 561.66C141.83 562.56 133.23 563.01 130.66 557.62C127.45 550.88 118.9 561.66 113.39 557.62C107.88 553.58 93.9298 558.83 93.9298 557.62C93.9298 552.23 99.4398 556.27 93.9298 541.01C88.4198 525.74 92.5498 521.7 99.4398 517.21C106.33 512.72 104.49 497.9 105.87 489.82C107.25 481.74 118.73 484.43 122.86 478.6L122.84 478.61Z" fill="#FDFAFA" stroke="#222221" stroke-miterlimit="10"/>
<path d="M208.42 329.67C208.78 290.72 173.85 283.48 156.34 284.73C117.77 281.96 108.31 317.62 106.51 325.11C104.71 332.6 103.81 356.05 100.06 368.58C96.3102 381.12 88.8002 379.16 88.6502 397.89C88.5002 416.61 109.51 415.15 106.66 413.36C104.38 411.93 103.91 405.38 103.96 402.29C105.88 409.71 112.47 412.77 115.52 413.36C130.68 413.03 163.64 412.58 174.21 413.36C184.78 414.14 186.82 404.35 186.52 399.36C187.36 403.79 186.17 410.54 185.47 413.36C190.07 413.52 201.5 413.75 210.39 413.36C219.28 412.97 219.1 395.94 217.89 387.47C223.53 396.41 223.15 404.74 221.19 408.47C227.55 399.22 223.04 387.14 219.99 382.25C212.25 369.86 208.07 368.61 208.43 329.66L208.42 329.67Z" fill="#FDFAFA" stroke="#222221" stroke-miterlimit="10"/>
<path d="M154.96 106.21C156.38 103.77 159.81 99.6299 162.17 102.55C165.12 106.21 164.46 99.6199 167.74 100.36C171.02 101.09 172.33 101.46 172.98 102.55C173.64 103.65 173.31 100.36 177.24 100.36C181.17 100.36 182.15 99.9899 182.81 102.55C183.47 105.11 185.76 100.72 187.07 102.55C188.38 104.38 191.33 106.57 190.67 108.04C190.01 109.5 191.98 106.58 193.62 109.14C196.77 112.07 196.9 113.04 196.57 113.16C198.97 112.92 203.65 113.16 203.12 116.09C202.6 119.02 203.34 119.75 203.78 119.75C205.09 119.38 207.78 119.09 208.04 120.85C208.3 122.61 208.15 124.51 208.04 125.24C209.9 123.78 213.68 121.88 213.94 125.97C214.15 129.24 213.54 130.71 213 131.23C215.16 130 218.85 129.23 218.85 134.75C218.85 140.6 217.54 141.33 216.88 140.97C218.3 143.04 220.03 147.99 215.57 151.21C215.79 152.67 215.5 156.11 212.62 158.16C209.02 160.72 208.03 159.99 208.03 162.91C208.03 165.83 204.43 168.4 203.77 167.66C203.11 166.92 204.43 171.32 203.77 172.41C203.11 173.5 200.49 173.14 199.51 173.14C198.53 173.14 199.84 178.63 195.25 178.63H189.35C189.13 180.21 187.91 183.31 184.76 183.02C181.61 182.73 180.39 181.68 180.17 181.19C179.84 183.51 177.75 187.85 171.98 186.68C166.21 185.51 152.32 187.17 146.1 188.14C142.28 189.97 133.91 191.87 131.03 184.85C129.72 185.58 126.25 186.46 122.84 184.12C120.55 182.55 119.91 181.77 119.9 181.42C118.68 182.23 116.41 183.06 114.98 181.19C113.41 179.14 113.23 176.92 113.34 176.07C112.36 175.95 110.19 175.19 109.41 173.14C108.62 171.09 109.74 170.09 110.39 169.85C109.08 169.97 106.33 169.48 105.8 166.56C105.28 163.63 106.02 162.42 106.46 162.17C105.15 161.93 102.66 160.56 103.18 157.05C103.7 153.54 104.49 150.96 104.82 150.1C102.74 149.61 98.6601 147.69 98.9201 143.88C99.1801 140.08 101.43 138.39 102.52 138.03C100.88 136.2 98.3301 131.59 101.21 127.79C104.09 123.99 105.47 124.5 105.8 125.23C105.36 123.65 105.8 119.74 111.04 116.82C115.69 114.23 117.42 114.89 117.83 115.75C117.26 113.53 117.3 108.99 121.53 106.21C125.99 103.28 128.63 104.99 129.39 106.21C129.5 104.26 130.37 100.36 132.99 100.36C135.61 100.36 137.8 101.09 138.56 101.46C138.89 100.36 140.2 98.1699 142.82 98.1699C145.44 98.1699 146.75 99.6299 147.08 100.36H149.7C151.53 100.36 153.96 104.26 154.94 106.21H154.96Z" fill="#FDFAFA" stroke="#222221" stroke-miterlimit="10"/>
<path d="M227.32 213.87H79.1201V256.21H227.32V213.87Z" fill="white" stroke="#222221" stroke-miterlimit="10"/>
<path d="M172.96 31.74C172.59 32.43 172.01 32.98 171.21 33.41C170.41 33.84 169.38 34.06 168.12 34.06H165.36V40.23H162.86V25.02H168.11C169.28 25.02 170.27 25.22 171.08 25.62C171.89 26.02 172.5 26.56 172.9 27.25C173.3 27.94 173.5 28.7 173.5 29.55C173.5 30.32 173.32 31.05 172.95 31.74H172.96ZM170.25 31.38C170.72 30.95 170.95 30.34 170.95 29.55C170.95 27.89 170.01 27.05 168.13 27.05H165.37V32.02H168.13C169.08 32.02 169.79 31.81 170.25 31.37V31.38Z" fill="#010200"/>
<path d="M178.39 27.03V31.49H183.64V33.53H178.39V38.19H184.3V40.23H175.9V25H184.3V27.04H178.39V27.03Z" fill="#010200"/>
<path d="M195.27 40.23L191.77 34.15H189.87V40.23H187.37V25.02H192.62C193.79 25.02 194.78 25.23 195.59 25.63C196.4 26.03 197.01 26.59 197.41 27.27C197.81 27.95 198.01 28.72 198.01 29.57C198.01 30.56 197.72 31.46 197.15 32.27C196.58 33.08 195.69 33.63 194.49 33.92L198.25 40.22H195.27V40.23ZM189.86 32.15H192.62C193.55 32.15 194.26 31.92 194.73 31.45C195.2 30.98 195.44 30.36 195.44 29.57C195.44 28.78 195.21 28.17 194.74 27.72C194.27 27.28 193.57 27.05 192.62 27.05H189.86V32.15Z" fill="#010200"/>
<path d="M203.45 39.8498C202.63 39.4898 201.99 38.9798 201.52 38.3298C201.05 37.6798 200.82 36.9098 200.82 36.0298H203.49C203.55 36.6898 203.81 37.2298 204.27 37.6498C204.73 38.0698 205.38 38.2798 206.21 38.2798C207.04 38.2798 207.74 38.0698 208.22 37.6598C208.7 37.2398 208.94 36.7098 208.94 36.0498C208.94 35.5398 208.79 35.1198 208.49 34.7998C208.19 34.4798 207.82 34.2298 207.37 34.0598C206.93 33.8798 206.31 33.6898 205.52 33.4898C204.53 33.2298 203.72 32.9598 203.1 32.6898C202.48 32.4198 201.95 31.9998 201.51 31.4298C201.07 30.8598 200.85 30.0998 200.85 29.1498C200.85 28.2698 201.07 27.5098 201.51 26.8498C201.95 26.1898 202.56 25.6898 203.35 25.3398C204.14 24.9898 205.05 24.8198 206.09 24.8198C207.56 24.8198 208.77 25.1898 209.71 25.9198C210.65 26.6598 211.17 27.6698 211.27 28.9498H208.51C208.47 28.3998 208.2 27.9198 207.72 27.5298C207.24 27.1398 206.6 26.9398 205.82 26.9398C205.11 26.9398 204.52 27.1198 204.07 27.4898C203.62 27.8598 203.39 28.3798 203.39 29.0698C203.39 29.5398 203.53 29.9198 203.82 30.2198C204.1 30.5198 204.47 30.7598 204.9 30.9298C205.34 31.0998 205.94 31.2898 206.69 31.4998C207.7 31.7798 208.52 32.0498 209.15 32.3298C209.78 32.6098 210.32 33.0298 210.77 33.6098C211.21 34.1898 211.44 34.9598 211.44 35.9198C211.44 36.6898 211.23 37.4198 210.82 38.1098C210.4 38.7998 209.8 39.3498 209 39.7598C208.21 40.1798 207.27 40.3798 206.19 40.3798C205.17 40.3798 204.25 40.1998 203.43 39.8398L203.45 39.8498Z" fill="#010200"/>
<path d="M217.45 39.3898C216.26 38.7298 215.32 37.7998 214.63 36.6098C213.94 35.4198 213.59 34.0798 213.59 32.5898C213.59 31.0998 213.94 29.7698 214.63 28.5898C215.32 27.4098 216.26 26.4798 217.45 25.8198C218.64 25.1598 219.94 24.8198 221.36 24.8198C222.78 24.8198 224.1 25.1498 225.29 25.8198C226.48 26.4798 227.42 27.4098 228.1 28.5898C228.79 29.7698 229.13 31.1098 229.13 32.5898C229.13 34.0698 228.79 35.4198 228.1 36.6098C227.41 37.7998 226.48 38.7298 225.29 39.3898C224.1 40.0498 222.79 40.3898 221.36 40.3898C219.93 40.3898 218.64 40.0598 217.45 39.3898ZM224.05 37.5298C224.84 37.0698 225.45 36.4098 225.9 35.5598C226.35 34.7098 226.57 33.7198 226.57 32.5898C226.57 31.4598 226.35 30.4798 225.9 29.6298C225.45 28.7798 224.84 28.1298 224.05 27.6798C223.26 27.2298 222.37 26.9998 221.36 26.9998C220.35 26.9998 219.46 27.2298 218.67 27.6798C217.88 28.1298 217.27 28.7798 216.82 29.6298C216.37 30.4798 216.15 31.4598 216.15 32.5898C216.15 33.7198 216.37 34.6998 216.82 35.5598C217.27 36.4198 217.88 37.0698 218.67 37.5298C219.46 37.9898 220.36 38.2198 221.36 38.2198C222.36 38.2198 223.26 37.9898 224.05 37.5298Z" fill="#010200"/>
<path d="M244.07 40.23H241.57L234.06 28.87V40.23H231.56V25H234.06L241.57 36.34V25H244.07V40.23Z" fill="#010200"/>
<path d="M256.53 37.12H250.16L249.07 40.23H246.47L251.92 25H254.81L260.26 40.23H257.63L256.54 37.12H256.53ZM255.83 35.09L253.36 28.02L250.86 35.09H255.83Z" fill="#010200"/>
<path d="M273.62 29.3898C273.23 28.6298 272.68 28.0598 271.98 27.6698C271.28 27.2798 270.47 27.0898 269.55 27.0898C268.54 27.0898 267.65 27.3198 266.86 27.7698C266.07 28.2198 265.46 28.8598 265.01 29.6998C264.56 30.5298 264.34 31.4898 264.34 32.5898C264.34 33.6898 264.56 34.6498 265.01 35.4898C265.46 36.3298 266.07 36.9698 266.86 37.4298C267.65 37.8798 268.55 38.1098 269.55 38.1098C270.91 38.1098 272.01 37.7298 272.85 36.9698C273.7 36.2098 274.21 35.1798 274.4 33.8798H268.69V31.8898H277.07V33.8398C276.91 35.0198 276.49 36.1098 275.81 37.0998C275.13 38.0898 274.25 38.8798 273.16 39.4798C272.07 40.0798 270.87 40.3698 269.54 40.3698C268.11 40.3698 266.8 40.0398 265.62 39.3698C264.44 38.6998 263.5 37.7798 262.81 36.5998C262.12 35.4198 261.77 34.0798 261.77 32.5898C261.77 31.0998 262.12 29.7698 262.81 28.5898C263.5 27.4098 264.44 26.4798 265.63 25.8198C266.82 25.1598 268.12 24.8198 269.54 24.8198C271.16 24.8198 272.6 25.2198 273.86 26.0098C275.12 26.8098 276.04 27.9298 276.61 29.3898H273.61H273.62Z" fill="#010200"/>
<path d="M282.03 27.03V31.49H287.28V33.53H282.03V38.19H287.94V40.23H279.54V25H287.94V27.04H282.03V27.03Z" fill="#010200"/>
<path d="M303.5 40.23H301L293.49 28.87V40.23H290.99V25H293.49L301 36.34V25H303.5V40.23Z" fill="#010200"/>
<path d="M309.03 39.8498C308.21 39.4898 307.57 38.9798 307.1 38.3298C306.63 37.6798 306.4 36.9098 306.4 36.0298H309.07C309.13 36.6898 309.39 37.2298 309.85 37.6498C310.31 38.0698 310.96 38.2798 311.79 38.2798C312.62 38.2798 313.32 38.0698 313.8 37.6598C314.28 37.2398 314.52 36.7098 314.52 36.0498C314.52 35.5398 314.37 35.1198 314.07 34.7998C313.77 34.4798 313.4 34.2298 312.95 34.0598C312.51 33.8798 311.89 33.6898 311.1 33.4898C310.11 33.2298 309.3 32.9598 308.68 32.6898C308.06 32.4198 307.53 31.9998 307.09 31.4298C306.65 30.8598 306.43 30.0998 306.43 29.1498C306.43 28.2698 306.65 27.5098 307.09 26.8498C307.53 26.1898 308.14 25.6898 308.93 25.3398C309.72 24.9898 310.63 24.8198 311.67 24.8198C313.14 24.8198 314.35 25.1898 315.29 25.9198C316.23 26.6598 316.75 27.6698 316.85 28.9498H314.09C314.05 28.3998 313.78 27.9198 313.3 27.5298C312.82 27.1398 312.18 26.9398 311.4 26.9398C310.69 26.9398 310.1 27.1198 309.65 27.4898C309.2 27.8598 308.97 28.3798 308.97 29.0698C308.97 29.5398 309.11 29.9198 309.4 30.2198C309.68 30.5198 310.05 30.7598 310.48 30.9298C310.92 31.0998 311.52 31.2898 312.27 31.4998C313.28 31.7798 314.1 32.0498 314.73 32.3298C315.36 32.6098 315.9 33.0298 316.35 33.6098C316.79 34.1898 317.02 34.9598 317.02 35.9198C317.02 36.6898 316.81 37.4198 316.4 38.1098C315.98 38.7998 315.38 39.3498 314.58 39.7598C313.79 40.1798 312.85 40.3798 311.77 40.3798C310.75 40.3798 309.83 40.1998 309.01 39.8398L309.03 39.8498Z" fill="#010200"/>
<path d="M135.88 63.6898L133.4 59.4298H131.76V63.6898H130.4V53.2798H133.76C134.55 53.2798 135.21 53.4098 135.75 53.6798C136.29 53.9498 136.7 54.3098 136.97 54.7698C137.24 55.2298 137.37 55.7498 137.37 56.3398C137.37 57.0598 137.16 57.6898 136.75 58.2398C136.34 58.7898 135.72 59.1498 134.89 59.3298L137.5 63.6898H135.87H135.88ZM131.76 58.3398H133.76C134.5 58.3398 135.05 58.1598 135.42 57.7998C135.79 57.4398 135.97 56.9498 135.97 56.3398C135.97 55.7298 135.79 55.2498 135.43 54.9098C135.07 54.5698 134.51 54.3998 133.76 54.3998H131.76V58.3398Z" fill="#010200"/>
<path d="M146.91 60.0999H140.37C140.42 60.9099 140.7 61.5399 141.2 61.9899C141.7 62.4399 142.31 62.6699 143.03 62.6699C143.62 62.6699 144.11 62.5299 144.5 62.2599C144.89 61.9899 145.17 61.6199 145.33 61.1599H146.79C146.57 61.9499 146.13 62.5899 145.48 63.0799C144.82 63.5699 144.01 63.8199 143.03 63.8199C142.25 63.8199 141.56 63.6499 140.95 63.2999C140.34 62.9499 139.86 62.4599 139.51 61.8099C139.16 61.1699 138.99 60.4199 138.99 59.5799C138.99 58.7399 139.16 57.9899 139.5 57.3499C139.84 56.7099 140.31 56.2199 140.93 55.8799C141.54 55.5399 142.25 55.3599 143.04 55.3599C143.83 55.3599 144.5 55.5299 145.1 55.8699C145.7 56.2099 146.16 56.6699 146.48 57.2699C146.8 57.8599 146.97 58.5299 146.97 59.2799C146.97 59.5399 146.96 59.8099 146.93 60.0999H146.91ZM145.2 57.6599C144.97 57.2899 144.66 56.9999 144.27 56.8099C143.88 56.6199 143.44 56.5199 142.96 56.5199C142.27 56.5199 141.69 56.7399 141.21 57.1799C140.73 57.6199 140.45 58.2299 140.38 58.9999H145.55C145.55 58.4799 145.44 58.0399 145.21 57.6599H145.2Z" fill="#010200"/>
<path d="M148.74 57.3596C149.08 56.7296 149.55 56.2396 150.15 55.8896C150.75 55.5396 151.44 55.3696 152.22 55.3696C153.23 55.3696 154.05 55.6096 154.71 56.0996C155.36 56.5896 155.79 57.2696 156 58.1296H154.54C154.4 57.6296 154.13 57.2396 153.73 56.9496C153.33 56.6596 152.83 56.5196 152.23 56.5196C151.45 56.5196 150.83 56.7896 150.35 57.3196C149.87 57.8496 149.63 58.6096 149.63 59.5796C149.63 60.5496 149.87 61.3296 150.35 61.8696C150.83 62.4096 151.45 62.6796 152.23 62.6796C152.83 62.6796 153.33 62.5396 153.72 62.2596C154.12 61.9796 154.39 61.5796 154.54 61.0596H156C155.78 61.8996 155.34 62.5696 154.69 63.0696C154.04 63.5696 153.21 63.8196 152.23 63.8196C151.45 63.8196 150.76 63.6496 150.16 63.2996C149.56 62.9496 149.09 62.4596 148.75 61.8196C148.41 61.1796 148.24 60.4396 148.24 59.5796C148.24 58.7196 148.41 57.9896 148.75 57.3596H148.74Z" fill="#010200"/>
<path d="M159.3 63.2999C158.68 62.9499 158.19 62.4599 157.84 61.8099C157.49 61.1699 157.31 60.4199 157.31 59.5799C157.31 58.7399 157.49 57.9999 157.85 57.3599C158.21 56.7199 158.71 56.2199 159.34 55.8799C159.97 55.5399 160.67 55.3599 161.45 55.3599C162.23 55.3599 162.93 55.5299 163.56 55.8799C164.19 56.2199 164.68 56.7099 165.05 57.3499C165.41 57.9899 165.59 58.7299 165.59 59.5799C165.59 60.4299 165.4 61.1699 165.03 61.8099C164.66 62.4499 164.15 62.9499 163.51 63.2999C162.87 63.6499 162.17 63.8199 161.39 63.8199C160.61 63.8199 159.93 63.6499 159.31 63.2999H159.3ZM162.75 62.2899C163.18 62.0599 163.52 61.7199 163.79 61.2599C164.06 60.7999 164.19 60.2399 164.19 59.5899C164.19 58.9399 164.06 58.3699 163.8 57.9199C163.54 57.4599 163.2 57.1199 162.78 56.8999C162.36 56.6799 161.91 56.5599 161.42 56.5599C160.93 56.5599 160.47 56.6699 160.05 56.8999C159.64 57.1199 159.3 57.4599 159.06 57.9199C158.81 58.3799 158.69 58.9399 158.69 59.5899C158.69 60.2399 158.81 60.8199 159.06 61.2799C159.31 61.7399 159.63 62.0799 160.04 62.2999C160.45 62.5199 160.9 62.6399 161.38 62.6399C161.86 62.6399 162.33 62.5299 162.75 62.2999V62.2899Z" fill="#010200"/>
<path d="M169.75 55.7396C170.19 55.4796 170.73 55.3496 171.37 55.3496V56.7496H171.01C169.49 56.7496 168.72 57.5796 168.72 59.2296V63.6796H167.36V55.4896H168.72V56.8196C168.96 56.3496 169.3 55.9896 169.74 55.7296L169.75 55.7396Z" fill="#010200"/>
<path d="M174.6 56.6199V61.4499C174.6 61.8499 174.68 62.1299 174.85 62.2899C175.02 62.4499 175.31 62.5399 175.73 62.5399H176.73V63.6899H175.51C174.75 63.6899 174.18 63.5199 173.81 63.1699C173.43 62.8199 173.24 62.2499 173.24 61.4499V56.6199H172.18V55.4999H173.24V53.4399H174.6V55.4999H176.74V56.6199H174.6Z" fill="#010200"/>
<path d="M185.8 60.0999H179.26C179.31 60.9099 179.59 61.5399 180.09 61.9899C180.59 62.4399 181.2 62.6699 181.92 62.6699C182.51 62.6699 183 62.5299 183.39 62.2599C183.78 61.9899 184.06 61.6199 184.22 61.1599H185.68C185.46 61.9499 185.02 62.5899 184.37 63.0799C183.71 63.5699 182.9 63.8199 181.92 63.8199C181.14 63.8199 180.45 63.6499 179.84 63.2999C179.23 62.9499 178.75 62.4599 178.4 61.8099C178.05 61.1699 177.88 60.4199 177.88 59.5799C177.88 58.7399 178.05 57.9899 178.39 57.3499C178.73 56.7099 179.2 56.2199 179.82 55.8799C180.43 55.5399 181.14 55.3599 181.93 55.3599C182.72 55.3599 183.39 55.5299 183.99 55.8699C184.59 56.2099 185.05 56.6699 185.37 57.2699C185.69 57.8599 185.86 58.5299 185.86 59.2799C185.86 59.5399 185.85 59.8099 185.82 60.0999H185.8ZM184.1 57.6599C183.87 57.2899 183.56 56.9999 183.17 56.8099C182.78 56.6199 182.34 56.5199 181.86 56.5199C181.17 56.5199 180.59 56.7399 180.11 57.1799C179.63 57.6199 179.35 58.2299 179.28 58.9999H184.45C184.45 58.4799 184.34 58.0399 184.11 57.6599H184.1Z" fill="#010200"/>
<path d="M193.12 63.2999C192.5 62.9499 192.01 62.4599 191.66 61.8099C191.31 61.1699 191.13 60.4199 191.13 59.5799C191.13 58.7399 191.31 57.9999 191.67 57.3599C192.03 56.7199 192.53 56.2199 193.16 55.8799C193.79 55.5399 194.49 55.3599 195.27 55.3599C196.05 55.3599 196.75 55.5299 197.38 55.8799C198.01 56.2199 198.5 56.7099 198.87 57.3499C199.23 57.9899 199.41 58.7299 199.41 59.5799C199.41 60.4299 199.22 61.1699 198.85 61.8099C198.48 62.4499 197.97 62.9499 197.33 63.2999C196.69 63.6499 195.99 63.8199 195.21 63.8199C194.43 63.8199 193.75 63.6499 193.13 63.2999H193.12ZM196.57 62.2899C197 62.0599 197.34 61.7199 197.61 61.2599C197.88 60.7999 198.01 60.2399 198.01 59.5899C198.01 58.9399 197.88 58.3699 197.62 57.9199C197.36 57.4599 197.02 57.1199 196.6 56.8999C196.18 56.6799 195.73 56.5599 195.24 56.5599C194.75 56.5599 194.29 56.6699 193.87 56.8999C193.46 57.1199 193.12 57.4599 192.88 57.9199C192.63 58.3799 192.51 58.9399 192.51 59.5899C192.51 60.2399 192.63 60.8199 192.88 61.2799C193.13 61.7399 193.45 62.0799 193.86 62.2999C194.27 62.5199 194.72 62.6399 195.2 62.6399C195.68 62.6399 196.15 62.5299 196.57 62.2999V62.2899Z" fill="#010200"/>
<path d="M202.4 63.4999C201.9 63.2899 201.51 62.9899 201.22 62.5999C200.93 62.2199 200.77 61.7799 200.74 61.2799H202.14C202.18 61.6899 202.37 62.0199 202.72 62.2799C203.07 62.5399 203.51 62.6699 204.07 62.6699C204.59 62.6699 205 62.5599 205.29 62.3299C205.59 62.0999 205.74 61.8099 205.74 61.4599C205.74 61.1099 205.58 60.8399 205.26 60.6599C204.94 60.4899 204.45 60.3099 203.78 60.1499C203.17 59.9899 202.68 59.8299 202.29 59.6599C201.91 59.4899 201.58 59.2499 201.3 58.9299C201.03 58.6099 200.89 58.1799 200.89 57.6499C200.89 57.2299 201.01 56.8499 201.26 56.4999C201.51 56.1499 201.86 55.8799 202.32 55.6699C202.78 55.4699 203.3 55.3599 203.89 55.3599C204.8 55.3599 205.53 55.5899 206.09 56.0499C206.65 56.5099 206.95 57.1299 206.99 57.9299H205.63C205.6 57.4999 205.43 57.1599 205.11 56.8999C204.8 56.6399 204.38 56.5099 203.85 56.5099C203.36 56.5099 202.97 56.6099 202.68 56.8199C202.39 57.0299 202.25 57.2999 202.25 57.6399C202.25 57.9099 202.34 58.1299 202.51 58.3099C202.68 58.4799 202.9 58.6199 203.17 58.7299C203.44 58.8399 203.8 58.9499 204.27 59.0799C204.86 59.2399 205.34 59.3999 205.7 59.5499C206.07 59.6999 206.38 59.9399 206.65 60.2399C206.92 60.5399 207.05 60.9499 207.06 61.4499C207.06 61.8999 206.94 62.2999 206.69 62.6599C206.44 63.0199 206.09 63.2999 205.64 63.4999C205.19 63.6999 204.67 63.8099 204.08 63.8099C203.45 63.8099 202.89 63.6999 202.39 63.4899L202.4 63.4999Z" fill="#010200"/>
<path d="M215.54 55.8396C216.07 55.5296 216.69 55.3696 217.4 55.3696C218.11 55.3696 218.79 55.5396 219.38 55.8896C219.97 56.2396 220.44 56.7296 220.78 57.3596C221.12 57.9896 221.29 58.7296 221.29 59.5596C221.29 60.3896 221.12 61.1196 220.78 61.7696C220.44 62.4196 219.98 62.9196 219.38 63.2796C218.78 63.6396 218.13 63.8196 217.4 63.8196C216.67 63.8196 216.09 63.6596 215.55 63.3496C215.02 63.0396 214.61 62.6496 214.33 62.1796V67.5696H212.97V55.4996H214.33V57.0096C214.6 56.5396 215 56.1496 215.53 55.8396H215.54ZM219.52 57.9496C219.27 57.4896 218.93 57.1396 218.51 56.8996C218.09 56.6596 217.62 56.5396 217.11 56.5396C216.6 56.5396 216.15 56.6596 215.73 56.9096C215.31 57.1496 214.97 57.5096 214.71 57.9696C214.45 58.4296 214.33 58.9696 214.33 59.5796C214.33 60.1896 214.46 60.7396 214.71 61.1996C214.96 61.6596 215.3 62.0196 215.73 62.2596C216.15 62.4996 216.61 62.6296 217.11 62.6296C217.61 62.6296 218.08 62.5096 218.51 62.2596C218.94 62.0096 219.27 61.6596 219.52 61.1996C219.77 60.7396 219.89 60.1896 219.89 59.5596C219.89 58.9296 219.77 58.3996 219.52 57.9496Z" fill="#010200"/>
<path d="M230.5 60.0999H223.96C224.01 60.9099 224.29 61.5399 224.79 61.9899C225.29 62.4399 225.9 62.6699 226.62 62.6699C227.21 62.6699 227.7 62.5299 228.09 62.2599C228.48 61.9899 228.76 61.6199 228.92 61.1599H230.38C230.16 61.9499 229.72 62.5899 229.07 63.0799C228.41 63.5699 227.6 63.8199 226.62 63.8199C225.84 63.8199 225.15 63.6499 224.54 63.2999C223.93 62.9499 223.45 62.4599 223.1 61.8099C222.75 61.1699 222.58 60.4199 222.58 59.5799C222.58 58.7399 222.75 57.9899 223.09 57.3499C223.43 56.7099 223.9 56.2199 224.52 55.8799C225.13 55.5399 225.84 55.3599 226.63 55.3599C227.42 55.3599 228.09 55.5299 228.69 55.8699C229.29 56.2099 229.75 56.6699 230.07 57.2699C230.39 57.8599 230.56 58.5299 230.56 59.2799C230.56 59.5399 230.55 59.8099 230.52 60.0999H230.5ZM228.79 57.6599C228.56 57.2899 228.25 56.9999 227.86 56.8099C227.47 56.6199 227.03 56.5199 226.55 56.5199C225.86 56.5199 225.28 56.7399 224.8 57.1799C224.32 57.6199 224.04 58.2299 223.97 58.9999H229.14C229.14 58.4799 229.03 58.0399 228.8 57.6599H228.79Z" fill="#010200"/>
<path d="M234.72 55.7396C235.16 55.4796 235.7 55.3496 236.34 55.3496V56.7496H235.98C234.46 56.7496 233.69 57.5796 233.69 59.2296V63.6796H232.33V55.4896H233.69V56.8196C233.93 56.3496 234.27 55.9896 234.71 55.7296L234.72 55.7396Z" fill="#010200"/>
<path d="M239.12 63.4999C238.62 63.2899 238.23 62.9899 237.94 62.5999C237.65 62.2199 237.49 61.7799 237.46 61.2799H238.86C238.9 61.6899 239.09 62.0199 239.44 62.2799C239.79 62.5399 240.23 62.6699 240.79 62.6699C241.31 62.6699 241.72 62.5599 242.01 62.3299C242.31 62.0999 242.46 61.8099 242.46 61.4599C242.46 61.1099 242.3 60.8399 241.98 60.6599C241.66 60.4899 241.17 60.3099 240.5 60.1499C239.89 59.9899 239.4 59.8299 239.01 59.6599C238.63 59.4899 238.3 59.2499 238.02 58.9299C237.75 58.6099 237.61 58.1799 237.61 57.6499C237.61 57.2299 237.73 56.8499 237.98 56.4999C238.23 56.1499 238.58 55.8799 239.04 55.6699C239.5 55.4699 240.02 55.3599 240.61 55.3599C241.52 55.3599 242.25 55.5899 242.81 56.0499C243.37 56.5099 243.67 57.1299 243.71 57.9299H242.35C242.32 57.4999 242.15 57.1599 241.83 56.8999C241.52 56.6399 241.1 56.5099 240.57 56.5099C240.08 56.5099 239.69 56.6099 239.4 56.8199C239.11 57.0299 238.97 57.2999 238.97 57.6399C238.97 57.9099 239.06 58.1299 239.23 58.3099C239.4 58.4799 239.62 58.6199 239.89 58.7299C240.16 58.8399 240.52 58.9499 240.99 59.0799C241.58 59.2399 242.06 59.3999 242.42 59.5499C242.79 59.6999 243.1 59.9399 243.37 60.2399C243.64 60.5399 243.77 60.9499 243.78 61.4499C243.78 61.8999 243.66 62.2999 243.41 62.6599C243.16 63.0199 242.81 63.2999 242.36 63.4999C241.91 63.6999 241.39 63.8099 240.8 63.8099C240.17 63.8099 239.61 63.6999 239.11 63.4899L239.12 63.4999Z" fill="#010200"/>
<path d="M247.19 63.2999C246.57 62.9499 246.08 62.4599 245.73 61.8099C245.38 61.1699 245.2 60.4199 245.2 59.5799C245.2 58.7399 245.38 57.9999 245.74 57.3599C246.1 56.7199 246.6 56.2199 247.23 55.8799C247.86 55.5399 248.56 55.3599 249.34 55.3599C250.12 55.3599 250.82 55.5299 251.45 55.8799C252.08 56.2199 252.57 56.7099 252.94 57.3499C253.3 57.9899 253.48 58.7299 253.48 59.5799C253.48 60.4299 253.29 61.1699 252.92 61.8099C252.55 62.4499 252.04 62.9499 251.4 63.2999C250.76 63.6499 250.06 63.8199 249.28 63.8199C248.5 63.8199 247.82 63.6499 247.2 63.2999H247.19ZM250.65 62.2899C251.08 62.0599 251.42 61.7199 251.69 61.2599C251.96 60.7999 252.09 60.2399 252.09 59.5899C252.09 58.9399 251.96 58.3699 251.7 57.9199C251.44 57.4599 251.1 57.1199 250.68 56.8999C250.26 56.6799 249.81 56.5599 249.32 56.5599C248.83 56.5599 248.37 56.6699 247.95 56.8999C247.54 57.1199 247.2 57.4599 246.96 57.9199C246.71 58.3799 246.59 58.9399 246.59 59.5899C246.59 60.2399 246.71 60.8199 246.96 61.2799C247.21 61.7399 247.53 62.0799 247.94 62.2999C248.35 62.5199 248.8 62.6399 249.28 62.6399C249.76 62.6399 250.23 62.5299 250.65 62.2999V62.2899Z" fill="#010200"/>
<path d="M261.67 56.2596C262.29 56.8596 262.6 57.7296 262.6 58.8696V63.6996H261.26V59.0696C261.26 58.2496 261.06 57.6296 260.65 57.1896C260.24 56.7596 259.68 56.5396 258.98 56.5396C258.28 56.5396 257.69 56.7596 257.27 57.2096C256.85 57.6596 256.64 58.3096 256.64 59.1696V63.6996H255.28V55.5096H256.64V56.6796C256.91 56.2596 257.27 55.9396 257.74 55.7096C258.2 55.4796 258.71 55.3696 259.27 55.3696C260.27 55.3696 261.07 55.6696 261.69 56.2696L261.67 56.2596Z" fill="#010200"/>
<path d="M264.82 57.3596C265.16 56.7296 265.62 56.2396 266.22 55.8896C266.82 55.5396 267.47 55.3696 268.2 55.3696C268.93 55.3696 269.54 55.5196 270.07 55.8296C270.6 56.1396 270.99 56.5296 271.25 56.9996V55.5096H272.63V63.6996H271.25V62.1796C270.98 62.6596 270.58 63.0496 270.05 63.3696C269.52 63.6796 268.9 63.8396 268.19 63.8396C267.48 63.8396 266.81 63.6596 266.22 63.2996C265.63 62.9396 265.17 62.4396 264.83 61.7896C264.49 61.1396 264.32 60.4096 264.32 59.5796C264.32 58.7496 264.49 58.0096 264.83 57.3796L264.82 57.3596ZM270.87 57.9696C270.62 57.5096 270.29 57.1596 269.86 56.9196C269.44 56.6796 268.97 56.5496 268.46 56.5496C267.95 56.5496 267.49 56.6696 267.07 56.9096C266.65 57.1496 266.32 57.4996 266.07 57.9596C265.82 58.4196 265.7 58.9596 265.7 59.5696C265.7 60.1796 265.82 60.7396 266.07 61.2096C266.32 61.6696 266.65 62.0296 267.07 62.2696C267.49 62.5096 267.95 62.6396 268.46 62.6396C268.97 62.6396 269.43 62.5196 269.86 62.2696C270.28 62.0296 270.62 61.6696 270.87 61.2096C271.12 60.7496 271.24 60.2096 271.24 59.5896C271.24 58.9696 271.12 58.4296 270.87 57.9796V57.9696Z" fill="#010200"/>
<path d="M280.16 55.8297C280.69 56.1397 281.09 56.5296 281.35 56.9996V55.5097H282.73V63.8796C282.73 64.6296 282.57 65.2897 282.25 65.8697C281.93 66.4497 281.48 66.9096 280.88 67.2396C280.29 67.5696 279.6 67.7297 278.81 67.7297C277.73 67.7297 276.84 67.4797 276.12 66.9697C275.4 66.4597 274.98 65.7696 274.85 64.8896H276.19C276.34 65.3896 276.65 65.7896 277.12 66.0896C277.59 66.3896 278.15 66.5497 278.81 66.5497C279.56 66.5497 280.17 66.3196 280.64 65.8496C281.11 65.3796 281.35 64.7196 281.35 63.8796V62.1597C281.08 62.6397 280.68 63.0396 280.16 63.3596C279.63 63.6796 279.01 63.8396 278.31 63.8396C277.61 63.8396 276.92 63.6597 276.33 63.2997C275.74 62.9397 275.27 62.4397 274.93 61.7896C274.59 61.1396 274.42 60.4097 274.42 59.5797C274.42 58.7497 274.59 58.0096 274.93 57.3796C275.27 56.7496 275.73 56.2597 276.33 55.9097C276.93 55.5597 277.58 55.3896 278.31 55.3896C279.04 55.3896 279.64 55.5396 280.17 55.8496L280.16 55.8297ZM280.97 57.9697C280.72 57.5097 280.39 57.1596 279.96 56.9196C279.54 56.6796 279.07 56.5497 278.56 56.5497C278.05 56.5497 277.59 56.6697 277.17 56.9097C276.75 57.1497 276.42 57.4996 276.17 57.9596C275.92 58.4196 275.8 58.9596 275.8 59.5696C275.8 60.1796 275.92 60.7396 276.17 61.2096C276.42 61.6696 276.75 62.0296 277.17 62.2696C277.59 62.5096 278.05 62.6396 278.56 62.6396C279.07 62.6396 279.53 62.5196 279.96 62.2696C280.38 62.0296 280.72 61.6696 280.97 61.2096C281.22 60.7496 281.34 60.2096 281.34 59.5896C281.34 58.9696 281.22 58.4297 280.97 57.9797V57.9697Z" fill="#010200"/>
<path d="M292.44 60.0999H285.9C285.95 60.9099 286.23 61.5399 286.73 61.9899C287.23 62.4399 287.84 62.6699 288.56 62.6699C289.15 62.6699 289.64 62.5299 290.03 62.2599C290.42 61.9899 290.7 61.6199 290.86 61.1599H292.32C292.1 61.9499 291.66 62.5899 291.01 63.0799C290.35 63.5699 289.54 63.8199 288.56 63.8199C287.78 63.8199 287.09 63.6499 286.48 63.2999C285.87 62.9499 285.39 62.4599 285.04 61.8099C284.69 61.1699 284.52 60.4199 284.52 59.5799C284.52 58.7399 284.69 57.9899 285.03 57.3499C285.37 56.7099 285.84 56.2199 286.46 55.8799C287.07 55.5399 287.78 55.3599 288.57 55.3599C289.36 55.3599 290.03 55.5299 290.63 55.8699C291.23 56.2099 291.69 56.6699 292.01 57.2699C292.33 57.8599 292.5 58.5299 292.5 59.2799C292.5 59.5399 292.49 59.8099 292.46 60.0999H292.44ZM290.74 57.6599C290.51 57.2899 290.2 56.9999 289.81 56.8099C289.42 56.6199 288.98 56.5199 288.5 56.5199C287.81 56.5199 287.23 56.7399 286.75 57.1799C286.27 57.6199 285.99 58.2299 285.92 58.9999H291.09C291.09 58.4799 290.98 58.0399 290.75 57.6599H290.74Z" fill="#010200"/>
<path d="M300.69 56.2596C301.31 56.8596 301.62 57.7296 301.62 58.8696V63.6996H300.28V59.0696C300.28 58.2496 300.08 57.6296 299.67 57.1896C299.26 56.7596 298.7 56.5396 298 56.5396C297.3 56.5396 296.71 56.7596 296.29 57.2096C295.87 57.6596 295.66 58.3096 295.66 59.1696V63.6996H294.3V55.5096H295.66V56.6796C295.93 56.2596 296.29 55.9396 296.76 55.7096C297.22 55.4796 297.73 55.3696 298.29 55.3696C299.29 55.3696 300.09 55.6696 300.71 56.2696L300.69 56.2596Z" fill="#010200"/>
<path d="M305.05 63.4999C304.55 63.2899 304.16 62.9899 303.87 62.5999C303.58 62.2199 303.42 61.7799 303.39 61.2799H304.79C304.83 61.6899 305.02 62.0199 305.37 62.2799C305.72 62.5399 306.16 62.6699 306.72 62.6699C307.24 62.6699 307.65 62.5599 307.94 62.3299C308.24 62.0999 308.39 61.8099 308.39 61.4599C308.39 61.1099 308.23 60.8399 307.91 60.6599C307.59 60.4899 307.1 60.3099 306.43 60.1499C305.82 59.9899 305.33 59.8299 304.94 59.6599C304.56 59.4899 304.23 59.2499 303.95 58.9299C303.68 58.6099 303.54 58.1799 303.54 57.6499C303.54 57.2299 303.66 56.8499 303.91 56.4999C304.16 56.1499 304.51 55.8799 304.97 55.6699C305.43 55.4699 305.95 55.3599 306.54 55.3599C307.45 55.3599 308.18 55.5899 308.74 56.0499C309.3 56.5099 309.6 57.1299 309.64 57.9299H308.28C308.25 57.4999 308.08 57.1599 307.76 56.8999C307.45 56.6399 307.03 56.5099 306.5 56.5099C306.01 56.5099 305.62 56.6099 305.33 56.8199C305.04 57.0299 304.9 57.2999 304.9 57.6399C304.9 57.9099 304.99 58.1299 305.16 58.3099C305.33 58.4799 305.55 58.6199 305.82 58.7299C306.09 58.8399 306.45 58.9499 306.92 59.0799C307.51 59.2399 307.99 59.3999 308.35 59.5499C308.72 59.6999 309.03 59.9399 309.3 60.2399C309.57 60.5399 309.7 60.9499 309.71 61.4499C309.71 61.8999 309.59 62.2999 309.34 62.6599C309.09 63.0199 308.74 63.2999 308.29 63.4999C307.84 63.6999 307.32 63.8099 306.73 63.8099C306.1 63.8099 305.54 63.6999 305.04 63.4899L305.05 63.4999Z" fill="#010200"/>
<path d="M318.19 55.8396C318.72 55.5296 319.34 55.3696 320.05 55.3696C320.76 55.3696 321.44 55.5396 322.03 55.8896C322.62 56.2396 323.09 56.7296 323.43 57.3596C323.77 57.9896 323.94 58.7296 323.94 59.5596C323.94 60.3896 323.77 61.1196 323.43 61.7696C323.09 62.4196 322.63 62.9196 322.03 63.2796C321.43 63.6396 320.78 63.8196 320.05 63.8196C319.32 63.8196 318.74 63.6596 318.2 63.3496C317.67 63.0396 317.26 62.6496 316.98 62.1796V67.5696H315.62V55.4996H316.98V57.0096C317.25 56.5396 317.65 56.1496 318.18 55.8396H318.19ZM322.17 57.9496C321.92 57.4896 321.58 57.1396 321.16 56.8996C320.74 56.6596 320.27 56.5396 319.76 56.5396C319.25 56.5396 318.8 56.6596 318.38 56.9096C317.96 57.1496 317.62 57.5096 317.36 57.9696C317.1 58.4296 316.98 58.9696 316.98 59.5796C316.98 60.1896 317.11 60.7396 317.36 61.1996C317.61 61.6596 317.95 62.0196 318.38 62.2596C318.8 62.4996 319.26 62.6296 319.76 62.6296C320.26 62.6296 320.73 62.5096 321.16 62.2596C321.59 62.0096 321.92 61.6596 322.17 61.1996C322.42 60.7396 322.54 60.1896 322.54 59.5596C322.54 58.9296 322.42 58.3996 322.17 57.9496Z" fill="#010200"/>
<path d="M325.72 57.3596C326.06 56.7296 326.52 56.2396 327.12 55.8896C327.72 55.5396 328.37 55.3696 329.1 55.3696C329.83 55.3696 330.44 55.5196 330.97 55.8296C331.5 56.1396 331.89 56.5296 332.15 56.9996V55.5096H333.53V63.6996H332.15V62.1796C331.88 62.6596 331.48 63.0496 330.95 63.3696C330.42 63.6796 329.8 63.8396 329.09 63.8396C328.38 63.8396 327.71 63.6596 327.12 63.2996C326.53 62.9396 326.07 62.4396 325.73 61.7896C325.39 61.1396 325.22 60.4096 325.22 59.5796C325.22 58.7496 325.39 58.0096 325.73 57.3796L325.72 57.3596ZM331.77 57.9696C331.52 57.5096 331.19 57.1596 330.76 56.9196C330.34 56.6796 329.87 56.5496 329.36 56.5496C328.85 56.5496 328.39 56.6696 327.97 56.9096C327.55 57.1496 327.22 57.4996 326.97 57.9596C326.72 58.4196 326.6 58.9596 326.6 59.5696C326.6 60.1796 326.72 60.7396 326.97 61.2096C327.22 61.6696 327.55 62.0296 327.97 62.2696C328.39 62.5096 328.85 62.6396 329.36 62.6396C329.87 62.6396 330.33 62.5196 330.76 62.2696C331.18 62.0296 331.52 61.6696 331.77 61.2096C332.02 60.7496 332.14 60.2096 332.14 59.5896C332.14 58.9696 332.02 58.4296 331.77 57.9796V57.9696Z" fill="#010200"/>
<path d="M338.21 55.7396C338.65 55.4796 339.19 55.3496 339.83 55.3496V56.7496H339.47C337.95 56.7496 337.18 57.5796 337.18 59.2296V63.6796H335.82V55.4896H337.18V56.8196C337.42 56.3496 337.76 55.9896 338.2 55.7296L338.21 55.7396Z" fill="#010200"/>
<path d="M341.39 57.3596C341.73 56.7296 342.19 56.2396 342.79 55.8896C343.39 55.5396 344.04 55.3696 344.77 55.3696C345.5 55.3696 346.11 55.5196 346.64 55.8296C347.17 56.1396 347.56 56.5296 347.82 56.9996V55.5096H349.2V63.6996H347.82V62.1796C347.55 62.6596 347.15 63.0496 346.62 63.3696C346.09 63.6796 345.47 63.8396 344.76 63.8396C344.05 63.8396 343.38 63.6596 342.79 63.2996C342.2 62.9396 341.74 62.4396 341.4 61.7896C341.06 61.1396 340.89 60.4096 340.89 59.5796C340.89 58.7496 341.06 58.0096 341.4 57.3796L341.39 57.3596ZM347.44 57.9696C347.19 57.5096 346.86 57.1596 346.43 56.9196C346.01 56.6796 345.54 56.5496 345.03 56.5496C344.52 56.5496 344.06 56.6696 343.64 56.9096C343.22 57.1496 342.89 57.4996 342.64 57.9596C342.39 58.4196 342.27 58.9596 342.27 59.5696C342.27 60.1796 342.39 60.7396 342.64 61.2096C342.89 61.6696 343.22 62.0296 343.64 62.2696C344.06 62.5096 344.52 62.6396 345.03 62.6396C345.54 62.6396 346 62.5196 346.43 62.2696C346.85 62.0296 347.19 61.6696 347.44 61.2096C347.69 60.7496 347.81 60.2096 347.81 59.5896C347.81 58.9696 347.69 58.4296 347.44 57.9796V57.9696Z" fill="#010200"/>
<path d="M162.43 74.55H160.71V81.62H159.35V74.55H158.29V73.43H159.35V72.85C159.35 71.93 159.59 71.26 160.06 70.84C160.53 70.42 161.29 70.21 162.34 70.21V71.34C161.74 71.34 161.32 71.46 161.08 71.69C160.84 71.92 160.71 72.31 160.71 72.85V73.43H162.43V74.55Z" fill="#010200"/>
<path d="M164.02 75.2898C164.36 74.6598 164.82 74.1698 165.42 73.8198C166.02 73.4698 166.67 73.2998 167.4 73.2998C168.13 73.2998 168.74 73.4498 169.27 73.7598C169.8 74.0698 170.19 74.4598 170.45 74.9298V73.4398H171.83V81.6298H170.45V80.1098C170.18 80.5898 169.78 80.9798 169.25 81.2998C168.72 81.6098 168.1 81.7698 167.39 81.7698C166.68 81.7698 166.01 81.5898 165.42 81.2298C164.83 80.8698 164.37 80.3698 164.03 79.7198C163.69 79.0698 163.52 78.3398 163.52 77.5098C163.52 76.6798 163.69 75.9398 164.03 75.3098L164.02 75.2898ZM170.07 75.8898C169.82 75.4298 169.49 75.0798 169.06 74.8398C168.64 74.5998 168.17 74.4698 167.66 74.4698C167.15 74.4698 166.69 74.5898 166.27 74.8298C165.85 75.0698 165.52 75.4198 165.27 75.8798C165.02 76.3398 164.9 76.8798 164.9 77.4898C164.9 78.0998 165.02 78.6598 165.27 79.1298C165.52 79.5898 165.85 79.9498 166.27 80.1898C166.69 80.4298 167.15 80.5598 167.66 80.5598C168.17 80.5598 168.63 80.4398 169.06 80.1898C169.48 79.9498 169.82 79.5898 170.07 79.1298C170.32 78.6698 170.44 78.1298 170.44 77.5098C170.44 76.8898 170.32 76.3498 170.07 75.8998V75.8898Z" fill="#010200"/>
<path d="M175.13 80.4997H179.15V81.6197H173.58V80.4997L177.55 74.5397H173.61V73.4297H179.12V74.5397L175.13 80.4997Z" fill="#010200"/>
<path d="M188.33 78.0295H181.79C181.84 78.8395 182.12 79.4695 182.62 79.9195C183.12 80.3695 183.73 80.5995 184.45 80.5995C185.04 80.5995 185.53 80.4596 185.92 80.1896C186.31 79.9196 186.59 79.5495 186.75 79.0895H188.21C187.99 79.8795 187.55 80.5196 186.9 81.0096C186.24 81.4996 185.43 81.7495 184.45 81.7495C183.67 81.7495 182.98 81.5796 182.37 81.2296C181.76 80.8796 181.28 80.3895 180.93 79.7395C180.58 79.0995 180.41 78.3496 180.41 77.5096C180.41 76.6696 180.58 75.9195 180.92 75.2795C181.26 74.6395 181.73 74.1495 182.35 73.8095C182.96 73.4695 183.67 73.2896 184.46 73.2896C185.25 73.2896 185.92 73.4596 186.52 73.7996C187.12 74.1396 187.58 74.5995 187.9 75.1995C188.22 75.7895 188.39 76.4595 188.39 77.2095C188.39 77.4695 188.38 77.7395 188.35 78.0295H188.33ZM186.63 75.5895C186.4 75.2195 186.09 74.9295 185.7 74.7395C185.31 74.5495 184.87 74.4495 184.39 74.4495C183.7 74.4495 183.12 74.6696 182.64 75.1096C182.16 75.5496 181.88 76.1596 181.81 76.9296H186.98C186.98 76.4096 186.87 75.9695 186.64 75.5895H186.63Z" fill="#010200"/>
<path d="M192.55 73.6698C192.99 73.4098 193.53 73.2798 194.17 73.2798V74.6798H193.81C192.29 74.6798 191.52 75.5098 191.52 77.1598V81.6098H190.16V73.4198H191.52V74.7498C191.76 74.2798 192.1 73.9198 192.54 73.6598L192.55 73.6698Z" fill="#010200"/>
<path d="M201.09 70.5596V81.6096H199.73V70.5596H201.09Z" fill="#010200"/>
<path d="M203.45 71.8298C203.27 71.6497 203.18 71.4297 203.18 71.1697C203.18 70.9097 203.27 70.6898 203.45 70.5098C203.63 70.3298 203.85 70.2397 204.11 70.2397C204.37 70.2397 204.57 70.3298 204.74 70.5098C204.91 70.6898 205 70.9097 205 71.1697C205 71.4297 204.91 71.6497 204.74 71.8298C204.57 72.0098 204.35 72.0997 204.11 72.0997C203.87 72.0997 203.63 72.0098 203.45 71.8298ZM204.77 73.4297V81.6198H203.41V73.4297H204.77Z" fill="#010200"/>
<path d="M213.49 74.1796C214.11 74.7796 214.42 75.6496 214.42 76.7896V81.6196H213.08V76.9895C213.08 76.1695 212.88 75.5496 212.47 75.1096C212.06 74.6796 211.5 74.4595 210.8 74.4595C210.1 74.4595 209.51 74.6795 209.09 75.1295C208.67 75.5795 208.46 76.2295 208.46 77.0895V81.6196H207.1V73.4296H208.46V74.5995C208.73 74.1795 209.09 73.8595 209.56 73.6295C210.02 73.3995 210.53 73.2896 211.09 73.2896C212.09 73.2896 212.89 73.5896 213.51 74.1896L213.49 74.1796Z" fill="#010200"/>
<path d="M216.64 75.2898C216.98 74.6598 217.44 74.1698 218.04 73.8198C218.64 73.4698 219.3 73.2998 220.03 73.2998C220.67 73.2998 221.26 73.4498 221.81 73.7398C222.36 74.0298 222.78 74.4198 223.06 74.8998V70.5698H224.44V81.6198H223.06V80.0798C222.79 80.5698 222.39 80.9698 221.87 81.2798C221.34 81.5898 220.72 81.7498 220.02 81.7498C219.32 81.7498 218.63 81.5698 218.04 81.2098C217.45 80.8498 216.98 80.3498 216.64 79.6998C216.3 79.0498 216.13 78.3198 216.13 77.4898C216.13 76.6598 216.3 75.9198 216.64 75.2898ZM222.69 75.8898C222.44 75.4298 222.11 75.0798 221.68 74.8398C221.26 74.5998 220.79 74.4698 220.28 74.4698C219.77 74.4698 219.31 74.5898 218.89 74.8298C218.47 75.0698 218.14 75.4198 217.89 75.8798C217.64 76.3398 217.52 76.8798 217.52 77.4898C217.52 78.0998 217.64 78.6598 217.89 79.1298C218.14 79.5898 218.47 79.9498 218.89 80.1898C219.31 80.4298 219.77 80.5598 220.28 80.5598C220.79 80.5598 221.25 80.4398 221.68 80.1898C222.1 79.9498 222.44 79.5898 222.69 79.1298C222.94 78.6698 223.06 78.1298 223.06 77.5098C223.06 76.8898 222.94 76.3498 222.69 75.8998V75.8898Z" fill="#010200"/>
<path d="M228.23 81.2296C227.61 80.8796 227.12 80.3895 226.77 79.7395C226.42 79.0995 226.24 78.3496 226.24 77.5096C226.24 76.6696 226.42 75.9296 226.78 75.2896C227.14 74.6496 227.64 74.1495 228.27 73.8095C228.9 73.4695 229.6 73.2896 230.38 73.2896C231.16 73.2896 231.86 73.4595 232.49 73.8095C233.12 74.1495 233.61 74.6395 233.98 75.2795C234.34 75.9195 234.52 76.6596 234.52 77.5096C234.52 78.3596 234.33 79.0995 233.96 79.7395C233.59 80.3795 233.08 80.8796 232.44 81.2296C231.8 81.5796 231.1 81.7495 230.32 81.7495C229.54 81.7495 228.86 81.5796 228.24 81.2296H228.23ZM231.68 80.2095C232.11 79.9795 232.45 79.6396 232.72 79.1796C232.99 78.7196 233.12 78.1596 233.12 77.5096C233.12 76.8596 232.99 76.2895 232.73 75.8395C232.47 75.3795 232.13 75.0395 231.71 74.8195C231.29 74.5995 230.84 74.4796 230.35 74.4796C229.86 74.4796 229.4 74.5895 228.98 74.8195C228.57 75.0395 228.23 75.3795 227.99 75.8395C227.74 76.2995 227.62 76.8596 227.62 77.5096C227.62 78.1596 227.74 78.7395 227.99 79.1995C228.24 79.6595 228.56 79.9996 228.97 80.2196C229.38 80.4396 229.83 80.5595 230.31 80.5595C230.79 80.5595 231.26 80.4496 231.68 80.2196V80.2095Z" fill="#010200"/>
<path d="M237.51 81.4296C237.01 81.2196 236.62 80.9195 236.33 80.5295C236.04 80.1495 235.88 79.7095 235.85 79.2095H237.25C237.29 79.6195 237.48 79.9495 237.83 80.2095C238.18 80.4695 238.62 80.5995 239.18 80.5995C239.7 80.5995 240.11 80.4896 240.4 80.2596C240.7 80.0296 240.85 79.7395 240.85 79.3895C240.85 79.0395 240.69 78.7695 240.37 78.5895C240.05 78.4195 239.56 78.2396 238.89 78.0796C238.28 77.9196 237.79 77.7595 237.4 77.5895C237.02 77.4195 236.69 77.1796 236.41 76.8596C236.14 76.5396 236 76.1096 236 75.5796C236 75.1596 236.12 74.7796 236.37 74.4296C236.62 74.0796 236.97 73.8095 237.43 73.5995C237.89 73.3995 238.41 73.2896 239 73.2896C239.91 73.2896 240.64 73.5196 241.2 73.9796C241.76 74.4396 242.06 75.0596 242.1 75.8596H240.74C240.71 75.4296 240.54 75.0896 240.22 74.8296C239.91 74.5696 239.49 74.4396 238.96 74.4396C238.47 74.4396 238.08 74.5395 237.79 74.7495C237.5 74.9595 237.36 75.2295 237.36 75.5695C237.36 75.8395 237.45 76.0595 237.62 76.2395C237.79 76.4095 238.01 76.5496 238.28 76.6596C238.55 76.7696 238.91 76.8796 239.38 77.0096C239.97 77.1696 240.45 77.3296 240.81 77.4796C241.18 77.6296 241.49 77.8695 241.76 78.1695C242.03 78.4695 242.16 78.8795 242.17 79.3795C242.17 79.8295 242.05 80.2295 241.8 80.5895C241.55 80.9495 241.2 81.2296 240.75 81.4296C240.3 81.6295 239.78 81.7395 239.19 81.7395C238.56 81.7395 238 81.6295 237.5 81.4195L237.51 81.4296Z" fill="#010200"/>
<path d="M248.09 75.2898C248.43 74.6598 248.89 74.1698 249.49 73.8198C250.09 73.4698 250.75 73.2998 251.48 73.2998C252.12 73.2998 252.71 73.4498 253.26 73.7398C253.81 74.0298 254.23 74.4198 254.51 74.8998V70.5698H255.89V81.6198H254.51V80.0798C254.24 80.5698 253.84 80.9698 253.32 81.2798C252.79 81.5898 252.17 81.7498 251.47 81.7498C250.77 81.7498 250.08 81.5698 249.49 81.2098C248.9 80.8498 248.43 80.3498 248.09 79.6998C247.75 79.0498 247.58 78.3198 247.58 77.4898C247.58 76.6598 247.75 75.9198 248.09 75.2898ZM254.13 75.8898C253.88 75.4298 253.55 75.0798 253.12 74.8398C252.7 74.5998 252.23 74.4698 251.72 74.4698C251.21 74.4698 250.75 74.5898 250.33 74.8298C249.91 75.0698 249.58 75.4198 249.33 75.8798C249.08 76.3398 248.96 76.8798 248.96 77.4898C248.96 78.0998 249.08 78.6598 249.33 79.1298C249.58 79.5898 249.91 79.9498 250.33 80.1898C250.75 80.4298 251.21 80.5598 251.72 80.5598C252.23 80.5598 252.69 80.4398 253.12 80.1898C253.54 79.9498 253.88 79.5898 254.13 79.1298C254.38 78.6698 254.5 78.1298 254.5 77.5098C254.5 76.8898 254.38 76.3498 254.13 75.8998V75.8898Z" fill="#010200"/>
<path d="M265.61 78.0295H259.07C259.12 78.8395 259.4 79.4695 259.9 79.9195C260.4 80.3695 261.01 80.5995 261.73 80.5995C262.32 80.5995 262.81 80.4596 263.2 80.1896C263.59 79.9196 263.87 79.5495 264.03 79.0895H265.49C265.27 79.8795 264.83 80.5196 264.18 81.0096C263.52 81.4996 262.71 81.7495 261.73 81.7495C260.95 81.7495 260.26 81.5796 259.65 81.2296C259.04 80.8796 258.56 80.3895 258.21 79.7395C257.86 79.0995 257.69 78.3496 257.69 77.5096C257.69 76.6696 257.86 75.9195 258.2 75.2795C258.54 74.6395 259.01 74.1495 259.63 73.8095C260.24 73.4695 260.95 73.2896 261.74 73.2896C262.53 73.2896 263.2 73.4596 263.8 73.7996C264.4 74.1396 264.86 74.5995 265.18 75.1995C265.5 75.7895 265.67 76.4595 265.67 77.2095C265.67 77.4695 265.66 77.7395 265.63 78.0295H265.61ZM263.9 75.5895C263.67 75.2195 263.36 74.9295 262.97 74.7395C262.58 74.5495 262.14 74.4495 261.66 74.4495C260.97 74.4495 260.39 74.6696 259.91 75.1096C259.43 75.5496 259.15 76.1596 259.08 76.9296H264.25C264.25 76.4096 264.14 75.9695 263.91 75.5895H263.9Z" fill="#010200"/>
<path d="M267.44 75.2898C267.78 74.6598 268.24 74.1698 268.84 73.8198C269.44 73.4698 270.1 73.2998 270.83 73.2998C271.47 73.2998 272.06 73.4498 272.61 73.7398C273.16 74.0298 273.58 74.4198 273.86 74.8998V70.5698H275.24V81.6198H273.86V80.0798C273.59 80.5698 273.19 80.9698 272.67 81.2798C272.14 81.5898 271.52 81.7498 270.82 81.7498C270.12 81.7498 269.43 81.5698 268.84 81.2098C268.25 80.8498 267.78 80.3498 267.44 79.6998C267.1 79.0498 266.93 78.3198 266.93 77.4898C266.93 76.6598 267.1 75.9198 267.44 75.2898ZM273.49 75.8898C273.24 75.4298 272.91 75.0798 272.48 74.8398C272.06 74.5998 271.59 74.4698 271.08 74.4698C270.57 74.4698 270.11 74.5898 269.69 74.8298C269.27 75.0698 268.94 75.4198 268.69 75.8798C268.44 76.3398 268.32 76.8798 268.32 77.4898C268.32 78.0998 268.44 78.6598 268.69 79.1298C268.94 79.5898 269.27 79.9498 269.69 80.1898C270.11 80.4298 270.57 80.5598 271.08 80.5598C271.59 80.5598 272.05 80.4398 272.48 80.1898C272.9 79.9498 273.24 79.5898 273.49 79.1298C273.74 78.6698 273.86 78.1298 273.86 77.5098C273.86 76.8898 273.74 76.3498 273.49 75.8998V75.8898Z" fill="#010200"/>
<path d="M279.03 81.2296C278.41 80.8796 277.92 80.3895 277.57 79.7395C277.22 79.0995 277.04 78.3496 277.04 77.5096C277.04 76.6696 277.22 75.9296 277.58 75.2896C277.94 74.6496 278.44 74.1495 279.07 73.8095C279.7 73.4695 280.4 73.2896 281.18 73.2896C281.96 73.2896 282.66 73.4595 283.29 73.8095C283.92 74.1495 284.41 74.6395 284.78 75.2795C285.14 75.9195 285.32 76.6596 285.32 77.5096C285.32 78.3596 285.13 79.0995 284.76 79.7395C284.39 80.3795 283.88 80.8796 283.24 81.2296C282.6 81.5796 281.9 81.7495 281.12 81.7495C280.34 81.7495 279.66 81.5796 279.04 81.2296H279.03ZM282.49 80.2095C282.92 79.9795 283.26 79.6396 283.53 79.1796C283.8 78.7196 283.93 78.1596 283.93 77.5096C283.93 76.8596 283.8 76.2895 283.54 75.8395C283.28 75.3795 282.94 75.0395 282.52 74.8195C282.1 74.5995 281.65 74.4796 281.16 74.4796C280.67 74.4796 280.21 74.5895 279.79 74.8195C279.38 75.0395 279.04 75.3795 278.8 75.8395C278.55 76.2995 278.43 76.8596 278.43 77.5096C278.43 78.1596 278.55 78.7395 278.8 79.1995C279.05 79.6595 279.37 79.9996 279.78 80.2196C280.19 80.4396 280.64 80.5595 281.12 80.5595C281.6 80.5595 282.07 80.4496 282.49 80.2196V80.2095Z" fill="#010200"/>
<path d="M287.1 75.2898C287.44 74.6598 287.91 74.1698 288.51 73.8198C289.11 73.4698 289.8 73.2998 290.58 73.2998C291.59 73.2998 292.41 73.5398 293.07 74.0298C293.72 74.5198 294.15 75.1998 294.36 76.0598H292.9C292.76 75.5598 292.49 75.1698 292.09 74.8798C291.69 74.5898 291.19 74.4498 290.59 74.4498C289.81 74.4498 289.19 74.7198 288.71 75.2498C288.23 75.7798 287.99 76.5398 287.99 77.5098C287.99 78.4798 288.23 79.2598 288.71 79.7998C289.19 80.3398 289.81 80.6098 290.59 80.6098C291.19 80.6098 291.69 80.4698 292.08 80.1898C292.48 79.9098 292.75 79.5098 292.9 78.9898H294.36C294.14 79.8298 293.7 80.4998 293.05 80.9998C292.4 81.4998 291.57 81.7498 290.59 81.7498C289.81 81.7498 289.12 81.5798 288.52 81.2298C287.92 80.8798 287.45 80.3898 287.11 79.7498C286.77 79.1098 286.6 78.3698 286.6 77.5098C286.6 76.6498 286.77 75.9198 287.11 75.2898H287.1Z" fill="#010200"/>
<path d="M301.91 73.6796C302.41 73.9396 302.8 74.3396 303.08 74.8696C303.36 75.3996 303.51 76.0396 303.51 76.7996V81.6296H302.17V76.9996C302.17 76.1796 301.97 75.5596 301.56 75.1196C301.15 74.6896 300.59 74.4696 299.89 74.4696C299.19 74.4696 298.6 74.6896 298.18 75.1396C297.76 75.5896 297.55 76.2396 297.55 77.0996V81.6296H296.19V70.5796H297.55V74.6096C297.82 74.1896 298.19 73.8696 298.66 73.6396C299.13 73.4096 299.66 73.2996 300.25 73.2996C300.87 73.2996 301.43 73.4296 301.92 73.6996L301.91 73.6796Z" fill="#010200"/>
<path d="M313.15 78.0295H306.61C306.66 78.8395 306.94 79.4695 307.44 79.9195C307.94 80.3695 308.55 80.5995 309.27 80.5995C309.86 80.5995 310.35 80.4596 310.74 80.1896C311.13 79.9196 311.41 79.5495 311.57 79.0895H313.03C312.81 79.8795 312.37 80.5196 311.72 81.0096C311.06 81.4996 310.25 81.7495 309.27 81.7495C308.49 81.7495 307.8 81.5796 307.19 81.2296C306.58 80.8796 306.1 80.3895 305.75 79.7395C305.4 79.0995 305.23 78.3496 305.23 77.5096C305.23 76.6696 305.4 75.9195 305.74 75.2795C306.08 74.6395 306.55 74.1495 307.17 73.8095C307.78 73.4695 308.49 73.2896 309.28 73.2896C310.07 73.2896 310.74 73.4596 311.34 73.7996C311.94 74.1396 312.4 74.5995 312.72 75.1995C313.04 75.7895 313.21 76.4595 313.21 77.2095C313.21 77.4695 313.2 77.7395 313.17 78.0295H313.15ZM311.45 75.5895C311.22 75.2195 310.91 74.9295 310.52 74.7395C310.13 74.5495 309.69 74.4495 309.21 74.4495C308.52 74.4495 307.94 74.6696 307.46 75.1096C306.98 75.5496 306.7 76.1596 306.63 76.9296H311.8C311.8 76.4096 311.69 75.9695 311.46 75.5895H311.45Z" fill="#010200"/>
<path d="M316.2 81.4296C315.7 81.2196 315.31 80.9195 315.02 80.5295C314.73 80.1495 314.57 79.7095 314.54 79.2095H315.94C315.98 79.6195 316.17 79.9495 316.52 80.2095C316.87 80.4695 317.31 80.5995 317.87 80.5995C318.39 80.5995 318.8 80.4896 319.09 80.2596C319.39 80.0296 319.54 79.7395 319.54 79.3895C319.54 79.0395 319.38 78.7695 319.06 78.5895C318.74 78.4195 318.25 78.2396 317.58 78.0796C316.97 77.9196 316.48 77.7595 316.09 77.5895C315.71 77.4195 315.38 77.1796 315.1 76.8596C314.83 76.5396 314.69 76.1096 314.69 75.5796C314.69 75.1596 314.81 74.7796 315.06 74.4296C315.31 74.0796 315.66 73.8095 316.12 73.5995C316.58 73.3995 317.1 73.2896 317.69 73.2896C318.6 73.2896 319.33 73.5196 319.89 73.9796C320.45 74.4396 320.75 75.0596 320.79 75.8596H319.43C319.4 75.4296 319.23 75.0896 318.91 74.8296C318.6 74.5696 318.18 74.4396 317.65 74.4396C317.16 74.4396 316.77 74.5395 316.48 74.7495C316.19 74.9595 316.05 75.2295 316.05 75.5695C316.05 75.8395 316.14 76.0595 316.31 76.2395C316.48 76.4095 316.7 76.5496 316.97 76.6596C317.24 76.7696 317.6 76.8796 318.07 77.0096C318.66 77.1696 319.14 77.3296 319.5 77.4796C319.87 77.6296 320.18 77.8695 320.45 78.1695C320.72 78.4695 320.85 78.8795 320.86 79.3795C320.86 79.8295 320.74 80.2295 320.49 80.5895C320.24 80.9495 319.89 81.2296 319.44 81.4296C318.99 81.6295 318.47 81.7395 317.88 81.7395C317.25 81.7395 316.69 81.6295 316.19 81.4195L316.2 81.4296Z" fill="#010200"/>
<path d="M203.19 230.88L194.36 214.95C194.03 214.35 193.55 213.9 193 213.59C192.9 213.5 192.8 213.41 192.69 213.33L178.11 202.42C177.3 201.81 176.31 201.62 175.39 201.78C172.2 197.5 167.09 194.72 161.34 194.72H154.3C148.33 194.72 143.05 197.71 139.9 202.28C138.71 201.51 137.11 201.51 135.91 202.42L121.33 213.33C121.22 213.41 121.12 213.5 121.02 213.59C120.47 213.9 119.99 214.36 119.66 214.95L110.83 230.88C109.89 232.57 110.5 234.7 112.2 235.64C113.89 236.58 116.02 235.97 116.96 234.27L125.42 219.01C125.42 219.01 125.49 218.96 125.53 218.94L136.9 210.44C136.84 211.03 136.81 211.63 136.81 212.24V233.18C136.81 242.85 144.65 250.69 154.32 250.69H161.36C171.03 250.69 178.87 242.85 178.87 233.18V212.24C178.87 212.07 178.87 211.89 178.86 211.72L188.52 218.94C188.52 218.94 188.59 218.99 188.63 219.01L197.09 234.27C198.03 235.96 200.16 236.57 201.85 235.64C203.54 234.71 204.15 232.57 203.22 230.88H203.19Z" fill="#FDFAFA" stroke="#222221" stroke-miterlimit="10"/>
<path d="M115.44 149.03C115.44 149.24 115.44 149.44 115.44 149.65C114.78 149.52 114.13 149.54 113.49 149.75C110.69 150.64 109.48 154.67 110.78 158.74C112.08 162.81 115.4 165.38 118.2 164.49C118.24 164.48 118.27 164.46 118.31 164.45C123.99 179.05 137.49 189.74 153.67 191.37C153.63 191.61 153.6 191.86 153.6 192.11V195.61C153.6 198.03 155.56 199.99 157.98 199.99C160.4 199.99 162.36 198.03 162.36 195.61V192.11C162.36 191.86 162.33 191.61 162.29 191.37C178.49 189.74 192.01 179.02 197.67 164.39C197.76 164.43 197.85 164.47 197.94 164.5C200.74 165.39 204.06 162.82 205.36 158.75C206.66 154.68 205.45 150.66 202.65 149.76C201.96 149.54 201.23 149.53 200.51 149.7C200.51 149.48 200.51 149.26 200.51 149.04" fill="#FDFAFA"/>
<path d="M115.44 149.03C115.44 149.24 115.44 149.44 115.44 149.65C114.78 149.52 114.13 149.54 113.49 149.75C110.69 150.64 109.48 154.67 110.78 158.74C112.08 162.81 115.4 165.38 118.2 164.49C118.24 164.48 118.27 164.46 118.31 164.45C123.99 179.05 137.49 189.74 153.67 191.37C153.63 191.61 153.6 191.86 153.6 192.11V195.61C153.6 198.03 155.56 199.99 157.98 199.99C160.4 199.99 162.36 198.03 162.36 195.61V192.11C162.36 191.86 162.33 191.61 162.29 191.37C178.49 189.74 192.01 179.02 197.67 164.39C197.76 164.43 197.85 164.47 197.94 164.5C200.74 165.39 204.06 162.82 205.36 158.75C206.66 154.68 205.45 150.66 202.65 149.76C201.96 149.54 201.23 149.53 200.51 149.7C200.51 149.48 200.51 149.26 200.51 149.04" stroke="#222221" stroke-miterlimit="10"/>
<path d="M178.82 167.41C183.846 167.41 187.92 163.493 187.92 158.66C187.92 153.828 183.846 149.91 178.82 149.91C173.794 149.91 169.72 153.828 169.72 158.66C169.72 163.493 173.794 167.41 178.82 167.41Z" fill="#FDFAFA" stroke="#222221" stroke-miterlimit="10"/>
<path d="M136.1 168.81C141.126 168.81 145.2 164.893 145.2 160.06C145.2 155.228 141.126 151.31 136.1 151.31C131.074 151.31 127 155.228 127 160.06C127 164.893 131.074 168.81 136.1 168.81Z" fill="#FDFAFA" stroke="#222221" stroke-miterlimit="10"/>
<path d="M157.87 178.44C157.76 178.44 157.65 178.44 157.53 178.43C155.9 178.31 154.61 177.26 153.94 176.32C153.66 175.93 153.75 175.38 154.15 175.1C154.54 174.82 155.09 174.91 155.37 175.31C155.79 175.9 156.63 176.61 157.66 176.69C158.64 176.76 159.66 176.27 160.68 175.21C161.02 174.86 161.57 174.85 161.92 175.19C162.27 175.53 162.28 176.08 161.94 176.43C160.64 177.77 159.27 178.45 157.87 178.45V178.44Z" fill="#FDFAFA" stroke="#222221" stroke-miterlimit="10"/>
<path d="M183.73 158.31C185.083 158.31 186.18 157.213 186.18 155.86C186.18 154.507 185.083 153.41 183.73 153.41C182.377 153.41 181.28 154.507 181.28 155.86C181.28 157.213 182.377 158.31 183.73 158.31Z" fill="#FDFAFA" stroke="#222221" stroke-miterlimit="10"/>
<path d="M141 159.71C142.353 159.71 143.45 158.613 143.45 157.26C143.45 155.907 142.353 154.81 141 154.81C139.647 154.81 138.55 155.907 138.55 157.26C138.55 158.613 139.647 159.71 141 159.71Z" fill="#FDFAFA" stroke="#222221" stroke-miterlimit="10"/>
<path d="M118.28 239.52L117.82 237.07C117.75 236.68 117.54 236.34 117.27 236.1C117.23 234.51 116.46 232.96 115.04 231.98C112.69 230.36 109.47 230.95 107.85 233.3L106.12 235.8C104.5 238.15 105.09 241.37 107.44 242.99C109.79 244.61 113.01 244.02 114.63 241.67L115.16 240.9C115.55 241.41 116.2 241.69 116.87 241.56C117.82 241.38 118.45 240.46 118.27 239.51L118.28 239.52Z" fill="#FDFAFA" stroke="#222221" stroke-miterlimit="10"/>
<path d="M207.91 235.8L206.18 233.3C204.56 230.95 201.34 230.36 198.99 231.98C197.58 232.95 196.81 234.5 196.76 236.1C196.48 236.35 196.28 236.68 196.21 237.07L195.75 239.52C195.57 240.47 196.2 241.39 197.15 241.57C197.82 241.7 198.47 241.42 198.86 240.91L199.39 241.68C201.01 244.03 204.23 244.62 206.58 243C208.93 241.38 209.52 238.16 207.9 235.81L207.91 235.8Z" fill="#FDFAFA" stroke="#222221" stroke-miterlimit="10"/>
<path d="M136.8 232.89H178.82V233.24C178.82 242.91 170.98 250.75 161.31 250.75H154.31C144.64 250.75 136.8 242.91 136.8 233.24V232.89Z" fill="#FDFAFA" stroke="#222221" stroke-miterlimit="10"/>
<path d="M227.32 399.03H79.1201V441.37H227.32V399.03Z" fill="white" stroke="#222221" stroke-miterlimit="10"/>
<path d="M203.19 416.03L194.36 400.1C194.03 399.5 193.55 399.05 193 398.74C192.9 398.65 192.8 398.56 192.69 398.48L178.11 387.57C177.3 386.96 176.31 386.77 175.39 386.93C172.2 382.65 167.09 379.87 161.34 379.87H154.3C148.33 379.87 143.05 382.86 139.9 387.43C138.71 386.66 137.11 386.66 135.91 387.57L121.33 398.48C121.22 398.56 121.12 398.65 121.02 398.74C120.47 399.05 119.99 399.51 119.66 400.1L110.83 416.03C109.89 417.72 110.5 419.85 112.2 420.79C113.89 421.73 116.02 421.12 116.96 419.42L125.42 404.16C125.42 404.16 125.49 404.11 125.53 404.09L136.9 395.59C136.84 396.18 136.81 396.78 136.81 397.39V418.33C136.81 428 144.65 435.84 154.32 435.84H161.36C171.03 435.84 178.87 428 178.87 418.33V397.39C178.87 397.22 178.87 397.04 178.86 396.87L188.52 404.09C188.52 404.09 188.59 404.14 188.63 404.16L197.09 419.42C198.03 421.11 200.16 421.72 201.85 420.79C203.54 419.86 204.15 417.72 203.22 416.03H203.19Z" fill="#FDFAFA" stroke="#222221" stroke-miterlimit="10"/>
<path d="M115.44 334.19C115.44 334.4 115.44 334.6 115.44 334.81C114.78 334.68 114.13 334.7 113.49 334.91C110.69 335.8 109.48 339.83 110.78 343.9C112.08 347.97 115.4 350.54 118.2 349.65C118.24 349.64 118.27 349.62 118.31 349.61C123.99 364.21 137.49 374.9 153.67 376.53C153.63 376.77 153.6 377.02 153.6 377.27V380.77C153.6 383.19 155.56 385.15 157.98 385.15C160.4 385.15 162.36 383.19 162.36 380.77V377.27C162.36 377.02 162.33 376.77 162.29 376.53C178.49 374.9 192.01 364.18 197.67 349.55C197.76 349.59 197.85 349.63 197.94 349.66C200.74 350.55 204.06 347.98 205.36 343.91C206.66 339.84 205.45 335.82 202.65 334.92C201.96 334.7 201.23 334.69 200.51 334.86C200.51 334.64 200.51 334.42 200.51 334.2" fill="#FDFAFA"/>
<path d="M115.44 334.19C115.44 334.4 115.44 334.6 115.44 334.81C114.78 334.68 114.13 334.7 113.49 334.91C110.69 335.8 109.48 339.83 110.78 343.9C112.08 347.97 115.4 350.54 118.2 349.65C118.24 349.64 118.27 349.62 118.31 349.61C123.99 364.21 137.49 374.9 153.67 376.53C153.63 376.77 153.6 377.02 153.6 377.27V380.77C153.6 383.19 155.56 385.15 157.98 385.15C160.4 385.15 162.36 383.19 162.36 380.77V377.27C162.36 377.02 162.33 376.77 162.29 376.53C178.49 374.9 192.01 364.18 197.67 349.55C197.76 349.59 197.85 349.63 197.94 349.66C200.74 350.55 204.06 347.98 205.36 343.91C206.66 339.84 205.45 335.82 202.65 334.92C201.96 334.7 201.23 334.69 200.51 334.86C200.51 334.64 200.51 334.42 200.51 334.2" stroke="#222221" stroke-miterlimit="10"/>
<path d="M178.82 352.57C183.846 352.57 187.92 348.652 187.92 343.82C187.92 338.987 183.846 335.07 178.82 335.07C173.794 335.07 169.72 338.987 169.72 343.82C169.72 348.652 173.794 352.57 178.82 352.57Z" fill="#FDFAFA" stroke="#222221" stroke-miterlimit="10"/>
<path d="M136.1 353.97C141.126 353.97 145.2 350.053 145.2 345.22C145.2 340.388 141.126 336.47 136.1 336.47C131.074 336.47 127 340.388 127 345.22C127 350.053 131.074 353.97 136.1 353.97Z" fill="#FDFAFA" stroke="#222221" stroke-miterlimit="10"/>
<path d="M157.87 363.6C157.76 363.6 157.65 363.6 157.53 363.59C155.9 363.47 154.61 362.42 153.94 361.48C153.66 361.09 153.75 360.54 154.15 360.26C154.54 359.98 155.09 360.07 155.37 360.47C155.79 361.06 156.63 361.77 157.66 361.85C158.64 361.92 159.66 361.43 160.68 360.37C161.02 360.02 161.57 360.01 161.92 360.35C162.27 360.69 162.28 361.24 161.94 361.59C160.64 362.93 159.27 363.61 157.87 363.61V363.6Z" fill="#FDFAFA" stroke="#222221" stroke-miterlimit="10"/>
<path d="M183.73 343.46C185.083 343.46 186.18 342.363 186.18 341.01C186.18 339.657 185.083 338.56 183.73 338.56C182.377 338.56 181.28 339.657 181.28 341.01C181.28 342.363 182.377 343.46 183.73 343.46Z" fill="#FDFAFA" stroke="#222221" stroke-miterlimit="10"/>
<path d="M141 344.87C142.353 344.87 143.45 343.773 143.45 342.42C143.45 341.067 142.353 339.97 141 339.97C139.647 339.97 138.55 341.067 138.55 342.42C138.55 343.773 139.647 344.87 141 344.87Z" fill="#FDFAFA" stroke="#222221" stroke-miterlimit="10"/>
<path d="M118.28 424.68L117.82 422.23C117.75 421.84 117.54 421.5 117.27 421.26C117.23 419.67 116.46 418.12 115.04 417.14C112.69 415.52 109.47 416.11 107.85 418.46L106.12 420.96C104.5 423.31 105.09 426.53 107.44 428.15C109.79 429.77 113.01 429.18 114.63 426.83L115.16 426.06C115.55 426.57 116.2 426.85 116.87 426.72C117.82 426.54 118.45 425.62 118.27 424.67L118.28 424.68Z" fill="#FDFAFA" stroke="#222221" stroke-miterlimit="10"/>
<path d="M207.91 420.96L206.18 418.46C204.56 416.11 201.34 415.52 198.99 417.14C197.58 418.11 196.81 419.66 196.76 421.26C196.48 421.51 196.28 421.84 196.21 422.23L195.75 424.68C195.57 425.63 196.2 426.55 197.15 426.73C197.82 426.86 198.47 426.58 198.86 426.07L199.39 426.84C201.01 429.19 204.23 429.78 206.58 428.16C208.93 426.54 209.52 423.32 207.9 420.97L207.91 420.96Z" fill="#FDFAFA" stroke="#222221" stroke-miterlimit="10"/>
<path d="M136.8 418.05H178.82V418.4C178.82 428.07 170.98 435.91 161.31 435.91H154.31C144.64 435.91 136.8 428.07 136.8 418.4V418.05Z" fill="#FDFAFA" stroke="#222221" stroke-miterlimit="10"/>
<path d="M414.58 213.87H266.38V256.21H414.58V213.87Z" fill="white" stroke="#222221" stroke-miterlimit="10"/>
<path d="M390.45 230.88L381.62 214.95C381.29 214.35 380.81 213.9 380.26 213.59C380.16 213.5 380.06 213.41 379.95 213.33L365.37 202.42C364.56 201.81 363.57 201.62 362.65 201.78C359.46 197.5 354.35 194.72 348.6 194.72H341.56C335.59 194.72 330.31 197.71 327.16 202.28C325.97 201.51 324.37 201.51 323.17 202.42L308.59 213.33C308.48 213.41 308.38 213.5 308.28 213.59C307.73 213.9 307.25 214.36 306.92 214.95L298.09 230.88C297.15 232.57 297.76 234.7 299.46 235.64C301.15 236.58 303.28 235.97 304.22 234.27L312.68 219.01C312.68 219.01 312.75 218.96 312.79 218.94L324.16 210.44C324.1 211.03 324.07 211.63 324.07 212.24V233.18C324.07 242.85 331.91 250.69 341.58 250.69H348.62C358.29 250.69 366.13 242.85 366.13 233.18V212.24C366.13 212.07 366.13 211.89 366.12 211.72L375.78 218.94C375.78 218.94 375.85 218.99 375.89 219.01L384.35 234.27C385.29 235.96 387.42 236.57 389.11 235.64C390.8 234.71 391.41 232.57 390.48 230.88H390.45Z" fill="#FDFAFA" stroke="#222221" stroke-miterlimit="10"/>
<path d="M389.92 149.74C389.23 149.52 388.5 149.51 387.78 149.68C387.78 149.46 387.78 149.24 387.78 149.02C387.78 125.52 368.73 106.47 345.23 106.47C321.73 106.47 302.68 125.52 302.68 149.02C302.68 149.23 302.68 149.43 302.68 149.64C302.02 149.51 301.37 149.53 300.73 149.74C297.93 150.63 296.72 154.66 298.02 158.73C299.32 162.8 302.64 165.37 305.44 164.48C305.48 164.47 305.51 164.45 305.55 164.44C311.23 179.04 324.73 189.73 340.91 191.36C340.87 191.6 340.84 191.85 340.84 192.1V195.6C340.84 198.02 342.8 199.98 345.22 199.98C347.64 199.98 349.6 198.02 349.6 195.6V192.1C349.6 191.85 349.57 191.6 349.53 191.36C365.73 189.73 379.25 179.01 384.91 164.38C385 164.42 385.09 164.46 385.18 164.49C387.98 165.38 391.3 162.81 392.6 158.74C393.9 154.67 392.69 150.65 389.89 149.75L389.92 149.74Z" fill="#FDFAFA" stroke="#222221" stroke-miterlimit="10"/>
<path d="M366.08 167.41C371.106 167.41 375.18 163.493 375.18 158.66C375.18 153.828 371.106 149.91 366.08 149.91C361.054 149.91 356.98 153.828 356.98 158.66C356.98 163.493 361.054 167.41 366.08 167.41Z" fill="#FDFAFA" stroke="#222221" stroke-miterlimit="10"/>
<path d="M323.36 168.81C328.386 168.81 332.46 164.893 332.46 160.06C332.46 155.228 328.386 151.31 323.36 151.31C318.334 151.31 314.26 155.228 314.26 160.06C314.26 164.893 318.334 168.81 323.36 168.81Z" fill="#FDFAFA" stroke="#222221" stroke-miterlimit="10"/>
<path d="M345.13 178.44C345.02 178.44 344.91 178.44 344.79 178.43C343.16 178.31 341.87 177.26 341.2 176.32C340.92 175.93 341.01 175.38 341.41 175.1C341.8 174.82 342.35 174.91 342.63 175.31C343.05 175.9 343.89 176.61 344.92 176.69C345.9 176.76 346.92 176.27 347.94 175.21C348.28 174.86 348.83 174.85 349.18 175.19C349.53 175.53 349.54 176.08 349.2 176.43C347.9 177.77 346.53 178.45 345.13 178.45V178.44Z" fill="#FDFAFA" stroke="#222221" stroke-miterlimit="10"/>
<path d="M370.98 158.31C372.333 158.31 373.43 157.213 373.43 155.86C373.43 154.507 372.333 153.41 370.98 153.41C369.627 153.41 368.53 154.507 368.53 155.86C368.53 157.213 369.627 158.31 370.98 158.31Z" fill="#FDFAFA" stroke="#222221" stroke-miterlimit="10"/>
<path d="M328.26 159.71C329.613 159.71 330.71 158.613 330.71 157.26C330.71 155.907 329.613 154.81 328.26 154.81C326.907 154.81 325.81 155.907 325.81 157.26C325.81 158.613 326.907 159.71 328.26 159.71Z" fill="#FDFAFA" stroke="#222221" stroke-miterlimit="10"/>
<path d="M305.53 239.52L305.07 237.07C305 236.68 304.79 236.34 304.52 236.1C304.48 234.51 303.71 232.96 302.29 231.98C299.94 230.36 296.72 230.95 295.1 233.3L293.37 235.8C291.75 238.15 292.34 241.37 294.69 242.99C297.04 244.61 300.26 244.02 301.88 241.67L302.41 240.9C302.8 241.41 303.45 241.69 304.12 241.56C305.07 241.38 305.7 240.46 305.52 239.51L305.53 239.52Z" fill="#FDFAFA" stroke="#222221" stroke-miterlimit="10"/>
<path d="M395.16 235.8L393.43 233.3C391.81 230.95 388.59 230.36 386.24 231.98C384.83 232.95 384.06 234.5 384.01 236.1C383.73 236.35 383.53 236.68 383.46 237.07L383 239.52C382.82 240.47 383.45 241.39 384.4 241.57C385.07 241.7 385.72 241.42 386.11 240.91L386.64 241.68C388.26 244.03 391.48 244.62 393.83 243C396.18 241.38 396.77 238.16 395.15 235.81L395.16 235.8Z" fill="#FDFAFA" stroke="#222221" stroke-miterlimit="10"/>
<path d="M324.06 232.89H366.08V233.24C366.08 242.91 358.24 250.75 348.57 250.75H341.57C331.9 250.75 324.06 242.91 324.06 233.24V232.89Z" fill="#FDFAFA" stroke="#222221" stroke-miterlimit="10"/>
<path d="M379.58 115.55C353.59 80.7799 314.48 106.23 301.56 122.43C302.37 121.75 304.17 121.23 306.66 121.04C303.35 126.71 301.48 135.13 302.27 146.26L304.77 167.42H306.38C308.38 155.39 308.84 133.38 312.73 121.14C318.78 121.71 326.45 123.68 333.88 127.97C346.54 135.27 368.33 129.62 376.96 119.6C378.11 135.25 380.91 161.84 384.76 165.52H386.9L389.04 148.75C390.27 136.93 389.85 115.22 379.58 115.56V115.55Z" fill="#FDFAFA" stroke="#222221" stroke-miterlimit="10"/>
<path d="M227.32 579.62H79.1201V621.96H227.32V579.62Z" fill="white" stroke="#222221" stroke-miterlimit="10"/>
<path d="M203.19 596.62L194.36 580.69C194.03 580.09 193.55 579.64 193 579.33C192.9 579.24 192.8 579.15 192.69 579.07L178.11 568.16C177.3 567.55 176.31 567.36 175.39 567.52C172.2 563.24 167.09 560.46 161.34 560.46H154.3C148.33 560.46 143.05 563.45 139.9 568.02C138.71 567.25 137.11 567.25 135.91 568.16L121.33 579.07C121.22 579.15 121.12 579.24 121.02 579.33C120.47 579.64 119.99 580.1 119.66 580.69L110.83 596.62C109.89 598.31 110.5 600.44 112.2 601.38C113.89 602.32 116.02 601.71 116.96 600.01L125.42 584.75C125.42 584.75 125.49 584.7 125.53 584.68L136.9 576.18C136.84 576.77 136.81 577.37 136.81 577.98V598.92C136.81 608.59 144.65 616.43 154.32 616.43H161.36C171.03 616.43 178.87 608.59 178.87 598.92V577.98C178.87 577.81 178.87 577.63 178.86 577.46L188.52 584.68C188.52 584.68 188.59 584.73 188.63 584.75L197.09 600.01C198.03 601.7 200.16 602.31 201.85 601.38C203.54 600.45 204.15 598.31 203.22 596.62H203.19Z" fill="#FDFAFA" stroke="#222221" stroke-miterlimit="10"/>
<path d="M115.44 514.77C115.44 514.98 115.44 515.18 115.44 515.39C114.78 515.26 114.13 515.28 113.49 515.49C110.69 516.38 109.48 520.41 110.78 524.48C112.08 528.55 115.4 531.12 118.2 530.23C118.24 530.22 118.27 530.2 118.31 530.19C123.99 544.79 137.49 555.48 153.67 557.11C153.63 557.35 153.6 557.6 153.6 557.85V561.35C153.6 563.77 155.56 565.73 157.98 565.73C160.4 565.73 162.36 563.77 162.36 561.35V557.85C162.36 557.6 162.33 557.35 162.29 557.11C178.49 555.48 192.01 544.76 197.67 530.13C197.76 530.17 197.85 530.21 197.94 530.24C200.74 531.13 204.06 528.56 205.36 524.49C206.66 520.42 205.45 516.4 202.65 515.5C201.96 515.28 201.23 515.27 200.51 515.44C200.51 515.22 200.51 515 200.51 514.78" fill="#FDFAFA"/>
<path d="M115.44 514.77C115.44 514.98 115.44 515.18 115.44 515.39C114.78 515.26 114.13 515.28 113.49 515.49C110.69 516.38 109.48 520.41 110.78 524.48C112.08 528.55 115.4 531.12 118.2 530.23C118.24 530.22 118.27 530.2 118.31 530.19C123.99 544.79 137.49 555.48 153.67 557.11C153.63 557.35 153.6 557.6 153.6 557.85V561.35C153.6 563.77 155.56 565.73 157.98 565.73C160.4 565.73 162.36 563.77 162.36 561.35V557.85C162.36 557.6 162.33 557.35 162.29 557.11C178.49 555.48 192.01 544.76 197.67 530.13C197.76 530.17 197.85 530.21 197.94 530.24C200.74 531.13 204.06 528.56 205.36 524.49C206.66 520.42 205.45 516.4 202.65 515.5C201.96 515.28 201.23 515.27 200.51 515.44C200.51 515.22 200.51 515 200.51 514.78" stroke="#222221" stroke-miterlimit="10"/>
<path d="M178.82 533.15C183.846 533.15 187.92 529.232 187.92 524.4C187.92 519.567 183.846 515.65 178.82 515.65C173.794 515.65 169.72 519.567 169.72 524.4C169.72 529.232 173.794 533.15 178.82 533.15Z" fill="#FDFAFA" stroke="#222221" stroke-miterlimit="10"/>
<path d="M136.1 534.55C141.126 534.55 145.2 530.632 145.2 525.8C145.2 520.967 141.126 517.05 136.1 517.05C131.074 517.05 127 520.967 127 525.8C127 530.632 131.074 534.55 136.1 534.55Z" fill="#FDFAFA" stroke="#222221" stroke-miterlimit="10"/>
<path d="M157.87 544.19C157.76 544.19 157.65 544.19 157.53 544.18C155.9 544.06 154.61 543.01 153.94 542.07C153.66 541.68 153.75 541.13 154.15 540.85C154.54 540.57 155.09 540.66 155.37 541.06C155.79 541.65 156.63 542.36 157.66 542.44C158.64 542.51 159.66 542.02 160.68 540.96C161.02 540.61 161.57 540.6 161.92 540.94C162.27 541.28 162.28 541.83 161.94 542.18C160.64 543.52 159.27 544.2 157.87 544.2V544.19Z" fill="#FDFAFA" stroke="#222221" stroke-miterlimit="10"/>
<path d="M183.73 524.05C185.083 524.05 186.18 522.953 186.18 521.6C186.18 520.247 185.083 519.15 183.73 519.15C182.377 519.15 181.28 520.247 181.28 521.6C181.28 522.953 182.377 524.05 183.73 524.05Z" fill="#FDFAFA" stroke="#222221" stroke-miterlimit="10"/>
<path d="M141 525.45C142.353 525.45 143.45 524.353 143.45 523C143.45 521.647 142.353 520.55 141 520.55C139.647 520.55 138.55 521.647 138.55 523C138.55 524.353 139.647 525.45 141 525.45Z" fill="#FDFAFA" stroke="#222221" stroke-miterlimit="10"/>
<path d="M118.28 605.27L117.82 602.82C117.75 602.43 117.54 602.09 117.27 601.85C117.23 600.26 116.46 598.71 115.04 597.73C112.69 596.11 109.47 596.7 107.85 599.05L106.12 601.55C104.5 603.9 105.09 607.12 107.44 608.74C109.79 610.36 113.01 609.77 114.63 607.42L115.16 606.65C115.55 607.16 116.2 607.44 116.87 607.31C117.82 607.13 118.45 606.21 118.27 605.26L118.28 605.27Z" fill="#FDFAFA" stroke="#222221" stroke-miterlimit="10"/>
<path d="M207.91 601.55L206.18 599.05C204.56 596.7 201.34 596.11 198.99 597.73C197.58 598.7 196.81 600.25 196.76 601.85C196.48 602.1 196.28 602.43 196.21 602.82L195.75 605.27C195.57 606.22 196.2 607.14 197.15 607.32C197.82 607.45 198.47 607.17 198.86 606.66L199.39 607.43C201.01 609.78 204.23 610.37 206.58 608.75C208.93 607.13 209.52 603.91 207.9 601.56L207.91 601.55Z" fill="#FDFAFA" stroke="#222221" stroke-miterlimit="10"/>
<path d="M136.8 598.64H178.82V598.99C178.82 608.66 170.98 616.5 161.31 616.5H154.31C144.64 616.5 136.8 608.66 136.8 598.99V598.64Z" fill="#FDFAFA" stroke="#222221" stroke-miterlimit="10"/>
<path d="M418.37 579.62H270.17V621.96H418.37V579.62Z" fill="white" stroke="#222221" stroke-miterlimit="10"/>
<path d="M394.24 596.62L385.41 580.69C385.08 580.09 384.6 579.64 384.05 579.33C383.95 579.24 383.85 579.15 383.74 579.07L369.16 568.16C368.35 567.55 367.36 567.36 366.44 567.52C363.25 563.24 358.14 560.46 352.39 560.46H345.35C339.38 560.46 334.1 563.45 330.95 568.02C329.76 567.25 328.16 567.25 326.96 568.16L312.38 579.07C312.27 579.15 312.17 579.24 312.07 579.33C311.52 579.64 311.04 580.1 310.71 580.69L301.88 596.62C300.94 598.31 301.55 600.44 303.25 601.38C304.94 602.32 307.07 601.71 308.01 600.01L316.47 584.75C316.47 584.75 316.54 584.7 316.58 584.68L327.95 576.18C327.89 576.77 327.86 577.37 327.86 577.98V598.92C327.86 608.59 335.7 616.43 345.37 616.43H352.41C362.08 616.43 369.92 608.59 369.92 598.92V577.98C369.92 577.81 369.92 577.63 369.91 577.46L379.57 584.68C379.57 584.68 379.64 584.73 379.68 584.75L388.14 600.01C389.08 601.7 391.21 602.31 392.9 601.38C394.59 600.45 395.2 598.31 394.27 596.62H394.24Z" fill="#FDFAFA" stroke="#222221" stroke-miterlimit="10"/>
<path d="M393.71 515.49C393.02 515.27 392.29 515.26 391.57 515.43C391.57 515.21 391.57 514.99 391.57 514.77C391.57 491.27 372.52 472.22 349.02 472.22C325.52 472.22 306.47 491.27 306.47 514.77C306.47 514.98 306.47 515.18 306.47 515.39C305.81 515.26 305.16 515.28 304.52 515.49C301.72 516.38 300.51 520.41 301.81 524.48C303.11 528.55 306.43 531.12 309.23 530.23C309.27 530.22 309.3 530.2 309.34 530.19C315.02 544.79 328.52 555.48 344.7 557.11C344.66 557.35 344.63 557.6 344.63 557.85V561.35C344.63 563.77 346.59 565.73 349.01 565.73C351.43 565.73 353.39 563.77 353.39 561.35V557.85C353.39 557.6 353.36 557.35 353.32 557.11C369.52 555.48 383.04 544.76 388.7 530.13C388.79 530.17 388.88 530.21 388.97 530.24C391.77 531.13 395.09 528.56 396.39 524.49C397.69 520.42 396.48 516.4 393.68 515.5L393.71 515.49Z" fill="#FDFAFA" stroke="#222221" stroke-miterlimit="10"/>
<path d="M369.87 533.15C374.896 533.15 378.97 529.232 378.97 524.4C378.97 519.567 374.896 515.65 369.87 515.65C364.844 515.65 360.77 519.567 360.77 524.4C360.77 529.232 364.844 533.15 369.87 533.15Z" fill="#FDFAFA" stroke="#222221" stroke-miterlimit="10"/>
<path d="M327.15 534.55C332.176 534.55 336.25 530.632 336.25 525.8C336.25 520.967 332.176 517.05 327.15 517.05C322.124 517.05 318.05 520.967 318.05 525.8C318.05 530.632 322.124 534.55 327.15 534.55Z" fill="#FDFAFA" stroke="#222221" stroke-miterlimit="10"/>
<path d="M348.92 544.19C348.81 544.19 348.7 544.19 348.58 544.18C346.95 544.06 345.66 543.01 344.99 542.07C344.71 541.68 344.8 541.13 345.2 540.85C345.59 540.57 346.14 540.66 346.42 541.06C346.84 541.65 347.68 542.36 348.71 542.44C349.69 542.51 350.71 542.02 351.73 540.96C352.07 540.61 352.62 540.6 352.97 540.94C353.32 541.28 353.33 541.83 352.99 542.18C351.69 543.52 350.32 544.2 348.92 544.2V544.19Z" fill="#FDFAFA" stroke="#222221" stroke-miterlimit="10"/>
<path d="M374.77 524.05C376.123 524.05 377.22 522.953 377.22 521.6C377.22 520.247 376.123 519.15 374.77 519.15C373.417 519.15 372.32 520.247 372.32 521.6C372.32 522.953 373.417 524.05 374.77 524.05Z" fill="#FDFAFA" stroke="#222221" stroke-miterlimit="10"/>
<path d="M332.05 525.45C333.403 525.45 334.5 524.353 334.5 523C334.5 521.647 333.403 520.55 332.05 520.55C330.697 520.55 329.6 521.647 329.6 523C329.6 524.353 330.697 525.45 332.05 525.45Z" fill="#FDFAFA" stroke="#222221" stroke-miterlimit="10"/>
<path d="M309.33 605.27L308.87 602.82C308.8 602.43 308.59 602.09 308.32 601.85C308.28 600.26 307.51 598.71 306.09 597.73C303.74 596.11 300.52 596.7 298.9 599.05L297.17 601.55C295.55 603.9 296.14 607.12 298.49 608.74C300.84 610.36 304.06 609.77 305.68 607.42L306.21 606.65C306.6 607.16 307.25 607.44 307.92 607.31C308.87 607.13 309.5 606.21 309.32 605.26L309.33 605.27Z" fill="#FDFAFA" stroke="#222221" stroke-miterlimit="10"/>
<path d="M398.96 601.55L397.23 599.05C395.61 596.7 392.39 596.11 390.04 597.73C388.63 598.7 387.86 600.25 387.81 601.85C387.53 602.1 387.33 602.43 387.26 602.82L386.8 605.27C386.62 606.22 387.25 607.14 388.2 607.32C388.87 607.45 389.52 607.17 389.91 606.66L390.44 607.43C392.06 609.78 395.28 610.37 397.63 608.75C399.98 607.13 400.57 603.91 398.95 601.56L398.96 601.55Z" fill="#FDFAFA" stroke="#222221" stroke-miterlimit="10"/>
<path d="M327.85 598.64H369.87V598.99C369.87 608.66 362.03 616.5 352.36 616.5H345.36C335.69 616.5 327.85 608.66 327.85 598.99V598.64Z" fill="#FDFAFA" stroke="#222221" stroke-miterlimit="10"/>
<path d="M414.58 399.03H266.38V441.37H414.58V399.03Z" fill="white" stroke="#222221" stroke-miterlimit="10"/>
<path d="M390.45 416.03L381.62 400.1C381.29 399.5 380.81 399.05 380.26 398.74C380.16 398.65 380.06 398.56 379.95 398.48L365.37 387.57C364.56 386.96 363.57 386.77 362.65 386.93C359.46 382.65 354.35 379.87 348.6 379.87H341.56C335.59 379.87 330.31 382.86 327.16 387.43C325.97 386.66 324.37 386.66 323.17 387.57L308.59 398.48C308.48 398.56 308.38 398.65 308.28 398.74C307.73 399.05 307.25 399.51 306.92 400.1L298.09 416.03C297.15 417.72 297.76 419.85 299.46 420.79C301.15 421.73 303.28 421.12 304.22 419.42L312.68 404.16C312.68 404.16 312.75 404.11 312.79 404.09L324.16 395.59C324.1 396.18 324.07 396.78 324.07 397.39V418.33C324.07 428 331.91 435.84 341.58 435.84H348.62C358.29 435.84 366.13 428 366.13 418.33V397.39C366.13 397.22 366.13 397.04 366.12 396.87L375.78 404.09C375.78 404.09 375.85 404.14 375.89 404.16L384.35 419.42C385.29 421.11 387.42 421.72 389.11 420.79C390.8 419.86 391.41 417.72 390.48 416.03H390.45Z" fill="#FDFAFA" stroke="#222221" stroke-miterlimit="10"/>
<path d="M389.92 334.9C389.23 334.68 388.5 334.67 387.78 334.84C387.78 334.62 387.78 334.4 387.78 334.18C387.78 310.68 368.73 291.63 345.23 291.63C321.73 291.63 302.68 310.68 302.68 334.18C302.68 334.39 302.68 334.59 302.68 334.8C302.02 334.67 301.37 334.69 300.73 334.9C297.93 335.79 296.72 339.82 298.02 343.89C299.32 347.96 302.64 350.53 305.44 349.64C305.48 349.63 305.51 349.61 305.55 349.6C311.23 364.2 324.73 374.89 340.91 376.52C340.87 376.76 340.84 377.01 340.84 377.26V380.76C340.84 383.18 342.8 385.14 345.22 385.14C347.64 385.14 349.6 383.18 349.6 380.76V377.26C349.6 377.01 349.57 376.76 349.53 376.52C365.73 374.89 379.25 364.17 384.91 349.54C385 349.58 385.09 349.62 385.18 349.65C387.98 350.54 391.3 347.97 392.6 343.9C393.9 339.83 392.69 335.81 389.89 334.91L389.92 334.9Z" fill="#FDFAFA" stroke="#222221" stroke-miterlimit="10"/>
<path d="M366.08 352.57C371.106 352.57 375.18 348.652 375.18 343.82C375.18 338.987 371.106 335.07 366.08 335.07C361.054 335.07 356.98 338.987 356.98 343.82C356.98 348.652 361.054 352.57 366.08 352.57Z" fill="#FDFAFA" stroke="#222221" stroke-miterlimit="10"/>
<path d="M323.36 353.97C328.386 353.97 332.46 350.053 332.46 345.22C332.46 340.388 328.386 336.47 323.36 336.47C318.334 336.47 314.26 340.388 314.26 345.22C314.26 350.053 318.334 353.97 323.36 353.97Z" fill="#FDFAFA" stroke="#222221" stroke-miterlimit="10"/>
<path d="M345.13 363.6C345.02 363.6 344.91 363.6 344.79 363.59C343.16 363.47 341.87 362.42 341.2 361.48C340.92 361.09 341.01 360.54 341.41 360.26C341.8 359.98 342.35 360.07 342.63 360.47C343.05 361.06 343.89 361.77 344.92 361.85C345.9 361.92 346.92 361.43 347.94 360.37C348.28 360.02 348.83 360.01 349.18 360.35C349.53 360.69 349.54 361.24 349.2 361.59C347.9 362.93 346.53 363.61 345.13 363.61V363.6Z" fill="#FDFAFA" stroke="#222221" stroke-miterlimit="10"/>
<path d="M370.98 343.46C372.333 343.46 373.43 342.363 373.43 341.01C373.43 339.657 372.333 338.56 370.98 338.56C369.627 338.56 368.53 339.657 368.53 341.01C368.53 342.363 369.627 343.46 370.98 343.46Z" fill="#FDFAFA" stroke="#222221" stroke-miterlimit="10"/>
<path d="M328.26 344.87C329.613 344.87 330.71 343.773 330.71 342.42C330.71 341.067 329.613 339.97 328.26 339.97C326.907 339.97 325.81 341.067 325.81 342.42C325.81 343.773 326.907 344.87 328.26 344.87Z" fill="#FDFAFA" stroke="#222221" stroke-miterlimit="10"/>
<path d="M305.53 424.68L305.07 422.23C305 421.84 304.79 421.5 304.52 421.26C304.48 419.67 303.71 418.12 302.29 417.14C299.94 415.52 296.72 416.11 295.1 418.46L293.37 420.96C291.75 423.31 292.34 426.53 294.69 428.15C297.04 429.77 300.26 429.18 301.88 426.83L302.41 426.06C302.8 426.57 303.45 426.85 304.12 426.72C305.07 426.54 305.7 425.62 305.52 424.67L305.53 424.68Z" fill="#FDFAFA" stroke="#222221" stroke-miterlimit="10"/>
<path d="M395.16 420.96L393.43 418.46C391.81 416.11 388.59 415.52 386.24 417.14C384.83 418.11 384.06 419.66 384.01 421.26C383.73 421.51 383.53 421.84 383.46 422.23L383 424.68C382.82 425.63 383.45 426.55 384.4 426.73C385.07 426.86 385.72 426.58 386.11 426.07L386.64 426.84C388.26 429.19 391.48 429.78 393.83 428.16C396.18 426.54 396.77 423.32 395.15 420.97L395.16 420.96Z" fill="#FDFAFA" stroke="#222221" stroke-miterlimit="10"/>
<path d="M324.06 418.05H366.08V418.4C366.08 428.07 358.24 435.91 348.57 435.91H341.57C331.9 435.91 324.06 428.07 324.06 418.4V418.05Z" fill="#FDFAFA" stroke="#222221" stroke-miterlimit="10"/>
<path d="M393.09 322.63C395.38 318.95 398.05 310.89 390.37 308.14C390.66 303.42 388.5 294.81 377.83 296.66C377.33 296.2 376.81 295.75 376.27 295.32C375.07 290.72 371.41 284.78 363.68 288.34C363.24 288.19 362.79 288.04 362.34 287.9C359.6 283.39 353.01 277.76 344.76 285.49C344.51 285.49 344.25 285.5 344 285.51C340.26 281.76 332.28 277.32 327.5 287.14C323.7 285.75 315.51 285.36 313.19 294.93C309.75 294.51 303.12 295.84 304.13 304.53C300.69 305.07 294.64 308.7 297.97 318.84C295.13 321.74 291.34 328.73 298.88 333.51L300.51 336.95H302.38L304.07 349.47H307.69C307.05 346.63 306.46 341.79 306.97 337.17C307.9 337.02 309.38 335.25 310.83 328.98C312.4 329.58 316.08 329.49 318.26 324.27C320.86 324.57 325.98 323.62 325.69 317.39C328.35 318.9 334.46 321.3 337.65 318.84C340.61 319.2 346.67 318.88 347.25 314.67C349.85 316.66 355.69 319.74 358.3 316.12C360.66 316.78 365.37 316.48 365.37 309.96C365.79 313.64 368.01 321.34 373.52 322.64C374.06 326.26 376.53 333.51 382.03 333.51C383.61 333.51 384.47 333.61 384.84 333.77C384.87 333.92 384.89 334.07 384.91 334.22C384.47 334.59 383.14 335.03 382.02 335.32C381.54 338.58 381.22 344.92 383.83 344.2C384.09 344.13 384.33 344.11 384.55 344.13C384.31 345.6 384.03 346.95 383.76 348.03L386.12 349.48L386.82 346.03C387.63 347.33 388.1 348.43 388.91 346.02C390.96 344.39 394.67 339.97 393.08 335.33C395.44 332.73 398.73 326.56 393.08 322.65L393.09 322.63Z" fill="#FDFAFA" stroke="#222221" stroke-miterlimit="10"/>
<path d="M323.79 492.24C311.74 488.04 307.51 506.36 307.16 516.23C305.53 502.28 315.74 474.33 347.08 473.33C382.52 472.21 391.9 500.99 391.9 516.23C388.92 505.43 382.06 487.2 373.52 492.24C362.84 498.54 355.49 504.15 348.66 504.15C337.45 504.15 338.86 497.5 323.8 492.24H323.79Z" fill="black" stroke="#222221" stroke-miterlimit="10"/>
<path d="M197.45 148.19L194.15 146.58L192.83 144.47C192.83 144.47 186.29 143.05 183.62 141.43C180.95 139.81 181.12 137.38 181.53 136.37C180.97 136.88 179.28 137.89 176.94 137.89C174.6 137.89 174.02 134.85 174.02 133.33C169.35 136.57 167.34 131.98 166.93 129.28C167.49 128.94 167.93 128.17 165.26 127.76C162.59 127.35 163.31 121.51 164.01 118.64C164.43 118.3 164.59 117.83 161.92 118.64C159.25 119.45 156.63 113.91 155.66 111.04C155.66 119.14 150.93 121.17 148.57 121.17C149.4 121.68 150.91 123.4 150.24 126.23C149.57 129.07 146.35 128.42 144.82 127.75C145.52 128.26 146.49 129.88 144.82 132.31C143.15 134.74 141.06 133.32 140.23 132.31C140.51 133.66 140.73 136.67 139.4 137.88C138.06 139.1 136.06 138.39 135.23 137.88C135.23 139.06 134.9 142.03 133.56 144.46C132.23 146.89 121.91 145.47 120.66 144.46L118.73 147.28L115.62 149.3" fill="#FDFAFA"/>
<path d="M197.45 148.19L194.15 146.58L192.83 144.47C192.83 144.47 186.29 143.05 183.62 141.43C180.95 139.81 181.12 137.38 181.53 136.37C180.97 136.88 179.28 137.89 176.94 137.89C174.6 137.89 174.02 134.85 174.02 133.33C169.35 136.57 167.34 131.98 166.93 129.28C167.49 128.94 167.93 128.17 165.26 127.76C162.59 127.35 163.31 121.51 164.01 118.64C164.43 118.3 164.59 117.83 161.92 118.64C159.25 119.45 156.63 113.91 155.66 111.04C155.66 119.14 150.93 121.17 148.57 121.17C149.4 121.68 150.91 123.4 150.24 126.23C149.57 129.07 146.35 128.42 144.82 127.75C145.52 128.26 146.49 129.88 144.82 132.31C143.15 134.74 141.06 133.32 140.23 132.31C140.51 133.66 140.73 136.67 139.4 137.88C138.06 139.1 136.06 138.39 135.23 137.88C135.23 139.06 134.9 142.03 133.56 144.46C132.23 146.89 121.91 145.47 120.66 144.46L118.73 147.28L115.62 149.3" stroke="#222221" stroke-miterlimit="10"/>
<path d="M112.98 337.78C113.4 337.96 113.85 338.11 114.31 338.25C113.95 342.82 114.36 349.12 117.26 354.73C121.43 362.79 116.32 369.38 113.25 371.67L112.69 371.99C119.96 369.57 132.58 359.49 124.93 338.47C124.93 338.44 124.91 338.42 124.9 338.4C137.76 336.62 156.14 330.52 176.09 335.04L172.59 322.66L180.32 334.81C183.83 335.36 186.77 335.64 189.26 335.75C188.73 357.61 203.56 363.02 211.12 362.97L210.5 362.85C206.89 361.67 200.03 357.06 201.52 348.06C202.32 343.22 201.59 338.47 200.41 334.61C201.46 334.23 201.97 333.91 202.2 333.9" fill="#FDFAFA"/>
<path d="M112.98 337.78C113.4 337.96 113.85 338.11 114.31 338.25C113.95 342.82 114.36 349.12 117.26 354.73C121.43 362.79 116.32 369.38 113.25 371.67L112.69 371.99C119.96 369.57 132.58 359.49 124.93 338.47C124.93 338.44 124.91 338.42 124.9 338.4C137.76 336.62 156.14 330.52 176.09 335.04L172.59 322.66L180.32 334.81C183.83 335.36 186.77 335.64 189.26 335.75C188.73 357.61 203.56 363.02 211.12 362.97L210.5 362.85C206.89 361.67 200.03 357.06 201.52 348.06C202.32 343.22 201.59 338.47 200.41 334.61C201.46 334.23 201.97 333.91 202.2 333.9" stroke="#222221" stroke-miterlimit="10"/>
<path d="M202.44 515.25H199.26C198.56 506.48 193.59 493.61 191.92 498.66C189.83 504.98 179.92 502.34 173.65 498.66C167.39 494.98 165.3 502.87 158.52 502.34C153.09 501.92 154.87 485.32 156.43 477.08C154.86 481.99 151.52 493.18 150.69 498.66C149.85 504.13 144.43 503.4 141.82 502.34C140.08 499.36 135.97 494.45 133.47 498.66C130.96 502.87 124.42 502.87 121.47 502.34L118.46 515.24H113.86" fill="#FDFAFA"/>
<path d="M202.44 515.25H199.26C198.56 506.48 193.59 493.61 191.92 498.66C189.83 504.98 179.92 502.34 173.65 498.66C167.39 494.98 165.3 502.87 158.52 502.34C153.09 501.92 154.87 485.32 156.43 477.08C154.86 481.99 151.52 493.18 150.69 498.66C149.85 504.13 144.43 503.4 141.82 502.34C140.08 499.36 135.97 494.45 133.47 498.66C130.96 502.87 124.42 502.87 121.47 502.34L118.46 515.24H113.86" stroke="#222221" stroke-miterlimit="10"/>
</svg>
