<svg width="543" height="99" viewBox="0 0 543 99" fill="none" xmlns="http://www.w3.org/2000/svg">
<path d="M513.01 28.5898H30.4599C13.9963 28.5898 0.649902 41.9362 0.649902 58.3998V68.7798C0.649902 85.2435 13.9963 98.5898 30.4599 98.5898H513.01C529.474 98.5898 542.82 85.2435 542.82 68.7798V58.3998C542.82 41.9362 529.474 28.5898 513.01 28.5898Z" fill="#C6A7F0"/>
<path d="M235.12 1.99953C236.07 2.47953 236.8 3.16953 237.31 4.06953C237.83 4.96953 238.08 6.01953 238.08 7.21953C238.08 8.41953 237.82 9.45953 237.31 10.3495C236.79 11.2295 236.06 11.9095 235.12 12.3795C234.17 12.8495 233.07 13.0895 231.81 13.0895H227.95V1.26953H231.81C233.07 1.26953 234.17 1.50953 235.12 1.98953V1.99953ZM234.99 10.3795C235.73 9.62953 236.09 8.57953 236.09 7.21953C236.09 5.85953 235.72 4.77952 234.99 4.00952C234.25 3.23952 233.19 2.84953 231.81 2.84953H229.89V11.4995H231.81C233.19 11.4995 234.25 11.1295 234.99 10.3795Z" fill="#A6A6A6"/>
<path d="M248.52 9.12985H241.36C241.42 9.87985 241.69 10.4798 242.19 10.9298C242.69 11.3798 243.3 11.6098 244.03 11.6098C245.07 11.6098 245.81 11.1699 246.24 10.2999H248.33C248.05 11.1599 247.53 11.8698 246.79 12.4198C246.05 12.9698 245.13 13.2498 244.03 13.2498C243.13 13.2498 242.33 13.0498 241.62 12.6498C240.91 12.2498 240.36 11.6798 239.95 10.9498C239.55 10.2198 239.35 9.36985 239.35 8.40985C239.35 7.44985 239.55 6.59984 239.94 5.86984C240.33 5.13984 240.88 4.57984 241.59 4.17984C242.3 3.77984 243.11 3.58984 244.03 3.58984C244.95 3.58984 245.7 3.77985 246.39 4.16985C247.08 4.55985 247.62 5.09984 248.01 5.78984C248.39 6.48984 248.59 7.28984 248.59 8.19984C248.59 8.54984 248.57 8.86984 248.52 9.14984V9.12985ZM246.56 7.55984C246.55 6.84984 246.29 6.26984 245.8 5.83984C245.3 5.40984 244.68 5.18985 243.95 5.18985C243.28 5.18985 242.71 5.39985 242.23 5.82985C241.75 6.25985 241.47 6.82984 241.38 7.55984H246.56Z" fill="#A6A6A6"/>
<path d="M250.43 5.85977C250.82 5.12977 251.35 4.56977 252.03 4.16977C252.7 3.76977 253.45 3.56978 254.28 3.56978C254.89 3.56978 255.49 3.69977 256.09 3.96977C256.68 4.23977 257.16 4.58977 257.51 5.02977V0.509766H259.47V13.0898H257.51V11.6798C257.19 12.1298 256.75 12.5098 256.19 12.7998C255.63 13.0898 254.99 13.2398 254.26 13.2398C253.44 13.2398 252.7 13.0298 252.02 12.6198C251.35 12.2098 250.81 11.6298 250.42 10.8898C250.03 10.1498 249.83 9.30977 249.83 8.36977C249.83 7.42977 250.03 6.59977 250.42 5.86977L250.43 5.85977ZM257.11 6.70978C256.84 6.22978 256.49 5.86977 256.06 5.61977C255.63 5.36977 255.17 5.24977 254.67 5.24977C254.17 5.24977 253.71 5.36977 253.28 5.61977C252.85 5.85977 252.5 6.21977 252.23 6.68977C251.96 7.15977 251.83 7.71977 251.83 8.35977C251.83 8.99977 251.96 9.56977 252.23 10.0598C252.5 10.5498 252.85 10.9198 253.28 11.1698C253.72 11.4198 254.18 11.5498 254.67 11.5498C255.16 11.5498 255.63 11.4298 256.06 11.1798C256.49 10.9298 256.84 10.5698 257.11 10.0798C257.38 9.59977 257.51 9.03977 257.51 8.38977C257.51 7.73977 257.38 7.17978 257.11 6.70978Z" fill="#A6A6A6"/>
<path d="M263.68 12.6396C262.97 12.2396 262.4 11.6696 262 10.9396C261.59 10.2096 261.39 9.35958 261.39 8.39958C261.39 7.43958 261.6 6.59958 262.02 5.86958C262.44 5.12958 263.01 4.56959 263.74 4.16959C264.46 3.76959 265.28 3.57959 266.17 3.57959C267.06 3.57959 267.88 3.77959 268.6 4.16959C269.33 4.56959 269.9 5.12958 270.32 5.86958C270.74 6.60958 270.95 7.44958 270.95 8.39958C270.95 9.34958 270.73 10.1996 270.3 10.9296C269.87 11.6696 269.28 12.2396 268.54 12.6396C267.8 13.0396 266.98 13.2396 266.08 13.2396C265.18 13.2396 264.4 13.0396 263.68 12.6396ZM267.48 11.1996C267.92 10.9596 268.27 10.5996 268.54 10.1296C268.81 9.64959 268.95 9.07958 268.95 8.39958C268.95 7.71958 268.82 7.14959 268.56 6.66959C268.3 6.19959 267.95 5.84959 267.52 5.60959C267.09 5.36959 266.62 5.24959 266.13 5.24959C265.64 5.24959 265.17 5.36959 264.75 5.60959C264.32 5.84959 263.99 6.19959 263.74 6.66959C263.49 7.13959 263.37 7.71958 263.37 8.39958C263.37 9.40958 263.63 10.1896 264.14 10.7396C264.65 11.2896 265.3 11.5596 266.09 11.5596C266.59 11.5596 267.06 11.4396 267.49 11.1996H267.48Z" fill="#A6A6A6"/>
<path d="M272.8 5.84982C273.19 5.11982 273.73 4.55982 274.42 4.15982C275.11 3.75982 275.9 3.56982 276.8 3.56982C277.93 3.56982 278.87 3.83982 279.61 4.37982C280.35 4.91982 280.85 5.68981 281.11 6.67981H279.02C278.85 6.21981 278.58 5.84981 278.2 5.58981C277.82 5.32981 277.36 5.19981 276.79 5.19981C276 5.19981 275.37 5.47981 274.89 6.03981C274.42 6.59981 274.18 7.38982 274.18 8.38982C274.18 9.38982 274.42 10.1898 274.89 10.7498C275.36 11.3198 275.99 11.5998 276.79 11.5998C277.91 11.5998 278.65 11.1098 279.02 10.1198H281.11C280.84 11.0698 280.33 11.8298 279.58 12.3898C278.83 12.9498 277.9 13.2298 276.79 13.2298C275.89 13.2298 275.1 13.0298 274.41 12.6298C273.72 12.2298 273.18 11.6598 272.79 10.9298C272.4 10.1998 272.2 9.34982 272.2 8.38982C272.2 7.42982 272.4 6.57982 272.79 5.84982H272.8Z" fill="#A6A6A6"/>
<path d="M289.82 4.02953C290.38 4.33953 290.82 4.78953 291.15 5.38953C291.48 5.98953 291.63 6.71953 291.63 7.56953V13.0995H289.71V7.85953C289.71 7.01953 289.5 6.37952 289.08 5.92952C288.66 5.47952 288.09 5.25952 287.36 5.25952C286.63 5.25952 286.06 5.47952 285.63 5.92952C285.21 6.37952 284.99 7.01953 284.99 7.85953V13.0995H283.05V0.519531H284.99V4.81953C285.32 4.41953 285.74 4.11952 286.24 3.89952C286.74 3.68952 287.3 3.57953 287.9 3.57953C288.61 3.57953 289.25 3.72952 289.81 4.03952L289.82 4.02953Z" fill="#A6A6A6"/>
<path d="M302.61 9.12985H295.45C295.51 9.87985 295.78 10.4798 296.28 10.9298C296.78 11.3798 297.39 11.6098 298.12 11.6098C299.16 11.6098 299.9 11.1699 300.33 10.2999H302.42C302.14 11.1599 301.62 11.8698 300.88 12.4198C300.14 12.9698 299.22 13.2498 298.12 13.2498C297.22 13.2498 296.42 13.0498 295.71 12.6498C295 12.2498 294.45 11.6798 294.04 10.9498C293.64 10.2198 293.44 9.36985 293.44 8.40985C293.44 7.44985 293.64 6.59984 294.03 5.86984C294.42 5.13984 294.97 4.57984 295.68 4.17984C296.39 3.77984 297.2 3.58984 298.12 3.58984C299.04 3.58984 299.79 3.77985 300.48 4.16985C301.17 4.55985 301.71 5.09984 302.1 5.78984C302.48 6.48984 302.68 7.28984 302.68 8.19984C302.68 8.54984 302.66 8.86984 302.61 9.14984V9.12985ZM300.66 7.55984C300.65 6.84984 300.39 6.26984 299.9 5.83984C299.4 5.40984 298.78 5.18985 298.05 5.18985C297.38 5.18985 296.81 5.39985 296.33 5.82985C295.85 6.25985 295.57 6.82984 295.48 7.55984H300.66Z" fill="#A6A6A6"/>
<path d="M306 12.8398C305.42 12.5698 304.96 12.2098 304.61 11.7498C304.27 11.2898 304.09 10.7798 304.07 10.2098H306.08C306.11 10.6098 306.3 10.9398 306.65 11.1998C307 11.4698 307.43 11.5998 307.95 11.5998C308.47 11.5998 308.92 11.4898 309.22 11.2798C309.52 11.0698 309.67 10.7998 309.67 10.4698C309.67 10.1198 309.5 9.8598 309.17 9.6898C308.84 9.5198 308.31 9.32981 307.58 9.12981C306.88 8.93981 306.31 8.74981 305.86 8.56981C305.42 8.38981 305.04 8.10981 304.71 7.73981C304.38 7.36981 304.23 6.8698 304.23 6.2598C304.23 5.7598 304.38 5.3098 304.67 4.8898C304.96 4.4798 305.39 4.14981 305.94 3.90981C306.49 3.66981 307.12 3.5498 307.84 3.5498C308.9 3.5498 309.76 3.8198 310.42 4.3598C311.07 4.8998 311.42 5.6298 311.46 6.5598H309.52C309.49 6.1398 309.32 5.8098 309.01 5.5598C308.7 5.3098 308.29 5.1898 307.77 5.1898C307.25 5.1898 306.87 5.2898 306.6 5.4798C306.33 5.6698 306.19 5.92981 306.19 6.23981C306.19 6.48981 306.28 6.6998 306.46 6.8698C306.64 7.0398 306.86 7.16981 307.12 7.26981C307.38 7.36981 307.77 7.4898 308.28 7.6398C308.96 7.8198 309.52 8.0098 309.95 8.1898C310.39 8.3798 310.76 8.6498 311.08 9.0098C311.4 9.3698 311.56 9.84981 311.57 10.4598C311.57 10.9898 311.42 11.4698 311.13 11.8898C310.84 12.3098 310.42 12.6398 309.88 12.8798C309.34 13.1198 308.71 13.2398 307.98 13.2398C307.25 13.2398 306.58 13.1098 306 12.8398Z" fill="#A6A6A6"/>
<path d="M134.33 62.9601C133.58 64.3701 132.38 65.5201 130.73 66.4001C129.08 67.2901 126.97 67.7301 124.39 67.7301H118.72V80.4201H113.59V49.1401H124.39C126.79 49.1401 128.82 49.5501 130.49 50.3801C132.16 51.2101 133.4 52.3201 134.23 53.7301C135.05 55.1401 135.47 56.7201 135.47 58.4501C135.47 60.0401 135.09 61.5401 134.35 62.9501L134.33 62.9601ZM128.75 62.2101C129.71 61.3301 130.19 60.0701 130.19 58.4501C130.19 55.0301 128.25 53.3201 124.38 53.3201H118.71V63.5301H124.38C126.33 63.5301 127.78 63.0901 128.75 62.2001V62.2101Z" fill="#FFFAFA"/>
<path d="M145.49 53.2803V62.4603H156.29V66.6503H145.49V76.2303H157.64V80.4103H140.36V49.0903H157.64V53.2803H145.49Z" fill="#FFFAFA"/>
<path d="M180.18 80.4201L172.98 67.9101H169.06V80.4201H163.93V49.1401H174.73C177.13 49.1401 179.16 49.5601 180.83 50.4001C182.5 51.2401 183.74 52.3601 184.57 53.7801C185.39 55.1901 185.81 56.7701 185.81 58.5001C185.81 60.5401 185.22 62.3901 184.03 64.0601C182.84 65.7301 181.02 66.8601 178.56 67.4601L186.3 80.4201H180.18ZM169.07 63.8101H174.74C176.66 63.8101 178.11 63.3301 179.08 62.3701C180.05 61.4101 180.54 60.1201 180.54 58.5001C180.54 56.8801 180.06 55.6101 179.1 54.7001C178.14 53.7901 176.68 53.3301 174.73 53.3301H169.06V63.8101H169.07Z" fill="#FFFAFA"/>
<path d="M197.01 79.63C195.33 78.89 194.01 77.85 193.05 76.5C192.09 75.15 191.61 73.58 191.61 71.78H197.1C197.22 73.13 197.75 74.24 198.7 75.11C199.65 75.98 200.97 76.41 202.68 76.41C204.39 76.41 205.83 75.98 206.82 75.13C207.81 74.27 208.3 73.17 208.3 71.82C208.3 70.77 207.99 69.91 207.38 69.25C206.76 68.59 206 68.08 205.09 67.72C204.17 67.36 202.91 66.97 201.29 66.55C199.25 66.01 197.59 65.46 196.32 64.91C195.04 64.36 193.96 63.49 193.06 62.32C192.16 61.15 191.71 59.59 191.71 57.64C191.71 55.84 192.16 54.26 193.06 52.91C193.96 51.56 195.22 50.53 196.84 49.81C198.46 49.09 200.33 48.73 202.46 48.73C205.49 48.73 207.97 49.49 209.91 51C211.85 52.51 212.92 54.59 213.13 57.23H207.46C207.37 56.09 206.83 55.11 205.84 54.31C204.85 53.5 203.55 53.09 201.92 53.09C200.45 53.09 199.25 53.47 198.32 54.21C197.39 54.96 196.92 56.04 196.92 57.45C196.92 58.41 197.21 59.2 197.8 59.81C198.38 60.43 199.13 60.91 200.03 61.27C200.93 61.63 202.16 62.02 203.72 62.44C205.79 63.01 207.48 63.58 208.78 64.15C210.08 64.72 211.2 65.6 212.11 66.78C213.03 67.97 213.48 69.55 213.48 71.53C213.48 73.12 213.05 74.62 212.2 76.03C211.35 77.44 210.1 78.57 208.47 79.43C206.83 80.29 204.91 80.71 202.69 80.71C200.59 80.71 198.7 80.34 197.02 79.61L197.01 79.63Z" fill="#FFFAFA"/>
<path d="M225.79 78.68C223.34 77.31 221.41 75.41 219.99 72.97C218.56 70.52 217.85 67.77 217.85 64.71C217.85 61.65 218.56 58.91 219.99 56.47C221.41 54.04 223.35 52.14 225.79 50.78C228.24 49.42 230.91 48.73 233.82 48.73C236.73 48.73 239.45 49.41 241.9 50.78C244.34 52.15 246.27 54.04 247.68 56.47C249.09 58.9 249.8 61.65 249.8 64.71C249.8 67.77 249.09 70.52 247.68 72.97C246.27 75.42 244.34 77.32 241.9 78.68C239.45 80.05 236.76 80.73 233.82 80.73C230.88 80.73 228.23 80.05 225.79 78.68ZM239.36 74.86C240.98 73.91 242.25 72.57 243.16 70.81C244.07 69.05 244.53 67.02 244.53 64.71C244.53 62.4 244.07 60.38 243.16 58.63C242.24 56.89 240.98 55.56 239.36 54.63C237.74 53.7 235.9 53.24 233.82 53.24C231.74 53.24 229.9 53.7 228.29 54.63C226.67 55.56 225.4 56.9 224.49 58.63C223.57 60.37 223.12 62.4 223.12 64.71C223.12 67.02 223.58 69.05 224.49 70.81C225.4 72.56 226.67 73.91 228.29 74.86C229.91 75.81 231.75 76.28 233.82 76.28C235.89 76.28 237.74 75.81 239.36 74.86Z" fill="#FFFAFA"/>
<path d="M280.53 80.4201H275.4L259.96 57.0601V80.4201H254.83V49.1001H259.96L275.4 72.4101V49.1001H280.53V80.4201Z" fill="#FFFAFA"/>
<path d="M306.14 74.0301H293.04L290.79 80.4201H285.44L296.65 49.1001H302.59L313.8 80.4201H308.4L306.15 74.0301H306.14ZM304.7 69.8401L299.62 55.3001L294.49 69.8401H304.7Z" fill="#FFFAFA"/>
<path d="M341.28 58.1402C340.47 56.5802 339.35 55.4002 337.9 54.6102C336.46 53.8202 334.8 53.4202 332.9 53.4202C330.83 53.4202 328.98 53.8902 327.37 54.8102C325.75 55.7402 324.48 57.0602 323.57 58.7702C322.65 60.4802 322.2 62.4602 322.2 64.7102C322.2 66.9602 322.66 68.9502 323.57 70.6702C324.48 72.4002 325.75 73.7202 327.37 74.6502C328.99 75.5802 330.83 76.0402 332.9 76.0402C335.69 76.0402 337.95 75.2602 339.69 73.7002C341.43 72.1402 342.5 70.0302 342.89 67.3602H331.14V63.2702H348.38V67.2702C348.05 69.7002 347.19 71.9402 345.79 73.9802C344.4 76.0202 342.58 77.6502 340.35 78.8602C338.11 80.0702 335.63 80.6802 332.9 80.6802C329.96 80.6802 327.28 80.0002 324.85 78.6302C322.42 77.2602 320.49 75.3702 319.07 72.9402C317.64 70.5102 316.93 67.7702 316.93 64.7002C316.93 61.6302 317.64 58.9002 319.07 56.4602C320.49 54.0302 322.43 52.1302 324.87 50.7702C327.32 49.4102 329.99 48.7202 332.9 48.7202C336.23 48.7202 339.19 49.5402 341.79 51.1702C344.38 52.8102 346.27 55.1202 347.44 58.1202H341.27L341.28 58.1402Z" fill="#FFFAFA"/>
<path d="M358.56 53.2803V62.4603H369.36V66.6503H358.56V76.2303H370.71V80.4103H353.43V49.0903H370.71V53.2803H358.56Z" fill="#FFFAFA"/>
<path d="M402.71 80.4201H397.58L382.14 57.0601V80.4201H377.01V49.1001H382.14L397.58 72.4101V49.1001H402.71V80.4201Z" fill="#FFFAFA"/>
<path d="M414.09 79.63C412.41 78.89 411.09 77.85 410.13 76.5C409.17 75.15 408.69 73.58 408.69 71.78H414.18C414.3 73.13 414.83 74.24 415.78 75.11C416.73 75.98 418.05 76.41 419.76 76.41C421.47 76.41 422.91 75.98 423.9 75.13C424.89 74.27 425.38 73.17 425.38 71.82C425.38 70.77 425.07 69.91 424.46 69.25C423.84 68.59 423.08 68.08 422.17 67.72C421.25 67.36 419.99 66.97 418.37 66.55C416.33 66.01 414.67 65.46 413.4 64.91C412.12 64.36 411.04 63.49 410.14 62.32C409.24 61.15 408.79 59.59 408.79 57.64C408.79 55.84 409.24 54.26 410.14 52.91C411.04 51.56 412.3 50.53 413.92 49.81C415.54 49.09 417.41 48.73 419.54 48.73C422.57 48.73 425.05 49.49 426.99 51C428.93 52.51 430 54.59 430.21 57.23H424.54C424.45 56.09 423.91 55.11 422.92 54.31C421.93 53.5 420.63 53.09 419 53.09C417.53 53.09 416.33 53.47 415.4 54.21C414.47 54.96 414 56.04 414 57.45C414 58.41 414.29 59.2 414.88 59.81C415.46 60.43 416.21 60.91 417.11 61.27C418.01 61.63 419.24 62.02 420.8 62.44C422.87 63.01 424.56 63.58 425.86 64.15C427.16 64.72 428.28 65.6 429.19 66.78C430.11 67.97 430.56 69.55 430.56 71.53C430.56 73.12 430.13 74.62 429.28 76.03C428.43 77.44 427.18 78.57 425.55 79.43C423.91 80.29 421.99 80.71 419.77 80.71C417.67 80.71 415.78 80.34 414.1 79.61L414.09 79.63Z" fill="#FFFAFA"/>
</svg>
