<svg width="292" height="95" viewBox="0 0 292 95" fill="none" xmlns="http://www.w3.org/2000/svg">
<path d="M261.36 24.27H29.9301C13.4665 24.27 0.120117 37.6164 0.120117 54.08V64.46C0.120117 80.9236 13.4665 94.27 29.9301 94.27H261.36C277.824 94.27 291.17 80.9236 291.17 64.46V54.08C291.17 37.6164 277.824 24.27 261.36 24.27Z" fill="#AED8A4"/>
<path d="M99.9899 1.58011C100.94 2.06011 101.66 2.75011 102.17 3.65011C102.68 4.54011 102.93 5.60011 102.93 6.81011C102.93 8.02011 102.68 9.07011 102.17 9.96011C101.67 10.8501 100.94 11.5301 99.9899 12.0001C99.0399 12.4701 97.9299 12.7101 96.6299 12.7101H92.9399V0.860107H96.6299C97.9199 0.860107 99.0399 1.10011 99.9899 1.58011ZM100.14 10.2101C100.94 9.40011 101.35 8.26011 101.35 6.80011C101.35 5.34011 100.95 4.18011 100.14 3.35011C99.33 2.52011 98.17 2.11011 96.65 2.11011H94.5099V11.4301H96.65C98.18 11.4301 99.35 11.0301 100.15 10.2201L100.14 10.2101Z" fill="#A8A8A8"/>
<path d="M106.66 12.2602C105.95 11.8602 105.4 11.3002 104.99 10.5702C104.59 9.84023 104.39 8.99023 104.39 8.03023C104.39 7.07023 104.6 6.24023 105.01 5.51023C105.42 4.78023 105.99 4.22023 106.7 3.83023C107.41 3.44023 108.21 3.24023 109.1 3.24023C109.99 3.24023 110.78 3.44023 111.5 3.83023C112.21 4.22023 112.78 4.78023 113.19 5.50023C113.6 6.22023 113.81 7.07023 113.81 8.03023C113.81 8.99023 113.6 9.84023 113.17 10.5702C112.74 11.3002 112.17 11.8602 111.44 12.2602C110.72 12.6602 109.91 12.8602 109.03 12.8602C108.15 12.8602 107.37 12.6602 106.66 12.2602ZM110.59 11.1102C111.08 10.8502 111.47 10.4602 111.77 9.94023C112.07 9.42023 112.22 8.78023 112.22 8.04023C112.22 7.30023 112.07 6.66023 111.78 6.14023C111.49 5.62023 111.1 5.23023 110.62 4.98023C110.15 4.73023 109.63 4.60023 109.07 4.60023C108.51 4.60023 107.99 4.73023 107.52 4.98023C107.05 5.23023 106.67 5.62023 106.39 6.14023C106.11 6.66023 105.96 7.30023 105.96 8.04023C105.96 8.78023 106.1 9.44023 106.38 9.96023C106.66 10.4802 107.03 10.8702 107.49 11.1202C107.95 11.3702 108.46 11.5002 109.02 11.5002C109.58 11.5002 110.1 11.3702 110.58 11.1102H110.59Z" fill="#A8A8A8"/>
<path d="M118.79 3.76012C119.4 3.41012 120.1 3.23012 120.88 3.23012C121.72 3.23012 122.47 3.43012 123.14 3.82012C123.81 4.22012 124.34 4.78012 124.72 5.49012C125.1 6.20012 125.3 7.05012 125.3 8.00012C125.3 8.95012 125.11 9.78012 124.72 10.5201C124.33 11.2601 123.8 11.8301 123.13 12.2401C122.46 12.6501 121.7 12.8501 120.88 12.8501C120.06 12.8501 119.37 12.6701 118.76 12.3201C118.15 11.9701 117.7 11.5201 117.39 10.9801V12.7001H115.84V0.120117H117.39V5.12012C117.71 4.57012 118.17 4.11012 118.78 3.76012H118.79ZM123.29 6.18012C123.01 5.66012 122.62 5.26012 122.14 4.99012C121.66 4.72012 121.13 4.58012 120.55 4.58012C119.97 4.58012 119.46 4.72012 118.98 5.00012C118.5 5.28012 118.11 5.68012 117.82 6.21012C117.53 6.74012 117.39 7.35012 117.39 8.04012C117.39 8.73012 117.53 9.36012 117.82 9.88012C118.11 10.4101 118.5 10.8101 118.98 11.0901C119.46 11.3701 119.99 11.5101 120.55 11.5101C121.11 11.5101 121.66 11.3701 122.14 11.0901C122.62 10.8101 123.01 10.4101 123.29 9.88012C123.57 9.35012 123.71 8.73012 123.71 8.02012C123.71 7.31012 123.57 6.71012 123.29 6.18012Z" fill="#A8A8A8"/>
<path d="M130.05 3.66021C130.55 3.37021 131.17 3.22021 131.89 3.22021V4.82021H131.48C129.75 4.82021 128.88 5.76022 128.88 7.64022V12.7102H127.33V3.39021H128.88V4.90021C129.15 4.37021 129.54 3.95021 130.04 3.66021H130.05Z" fill="#A8A8A8"/>
<path d="M133.68 5.51C134.06 4.79 134.59 4.23 135.27 3.84C135.94 3.44 136.69 3.25 137.52 3.25C138.35 3.25 139.04 3.43 139.64 3.78C140.24 4.13 140.69 4.57 140.98 5.11V3.41H142.54V12.73H140.98V11C140.67 11.54 140.22 12 139.61 12.35C139 12.71 138.3 12.89 137.49 12.89C136.68 12.89 135.92 12.69 135.25 12.28C134.58 11.87 134.05 11.3 133.67 10.56C133.29 9.82 133.09 8.98 133.09 8.04C133.09 7.1 133.28 6.25 133.67 5.53L133.68 5.51ZM140.56 6.19C140.28 5.67 139.89 5.27 139.41 4.99C138.93 4.71 138.4 4.57 137.82 4.57C137.24 4.57 136.71 4.71 136.24 4.98C135.77 5.25 135.38 5.65 135.1 6.17C134.82 6.69 134.67 7.3 134.67 8.01C134.67 8.72 134.81 9.34 135.1 9.87C135.38 10.4 135.76 10.8 136.24 11.08C136.72 11.36 137.24 11.5 137.82 11.5C138.4 11.5 138.93 11.36 139.41 11.08C139.89 10.8 140.27 10.4 140.56 9.87C140.84 9.34 140.99 8.73 140.99 8.03C140.99 7.33 140.85 6.72 140.56 6.19Z" fill="#A8A8A8"/>
<path d="M145.17 5.51014C145.55 4.79014 146.08 4.23014 146.76 3.84014C147.43 3.44014 148.19 3.25014 149.03 3.25014C149.75 3.25014 150.43 3.42014 151.05 3.75014C151.67 4.08014 152.15 4.52014 152.48 5.07014V0.140137H154.04V12.7201H152.48V10.9701C152.17 11.5301 151.72 11.9801 151.12 12.3401C150.52 12.7001 149.82 12.8801 149.01 12.8801C148.2 12.8801 147.43 12.6801 146.76 12.2701C146.08 11.8601 145.55 11.2901 145.17 10.5501C144.79 9.81014 144.59 8.97014 144.59 8.03014C144.59 7.09014 144.78 6.24014 145.17 5.52014V5.51014ZM152.06 6.19014C151.78 5.67014 151.39 5.27014 150.91 4.99014C150.43 4.71014 149.9 4.57014 149.32 4.57014C148.74 4.57014 148.21 4.71014 147.74 4.98014C147.27 5.25014 146.88 5.65014 146.6 6.17014C146.32 6.69014 146.17 7.30014 146.17 8.01014C146.17 8.72014 146.31 9.34014 146.6 9.87014C146.88 10.4001 147.26 10.8001 147.74 11.0801C148.22 11.3601 148.74 11.5001 149.32 11.5001C149.9 11.5001 150.43 11.3601 150.91 11.0801C151.39 10.8001 151.77 10.4001 152.06 9.87014C152.34 9.34014 152.49 8.73014 152.49 8.03014C152.49 7.33014 152.35 6.72014 152.06 6.19014Z" fill="#A8A8A8"/>
<path d="M164.93 3.39014V12.7101H163.38V11.3301C163.09 11.8101 162.67 12.1801 162.15 12.4401C161.62 12.7101 161.04 12.8401 160.41 12.8401C159.68 12.8401 159.03 12.6901 158.45 12.3901C157.87 12.0901 157.41 11.6401 157.08 11.0401C156.75 10.4401 156.58 9.71014 156.58 8.85014V3.39014H158.11V8.64014C158.11 9.56014 158.34 10.2601 158.81 10.7601C159.28 11.2601 159.91 11.5001 160.71 11.5001C161.51 11.5001 162.19 11.2501 162.66 10.7401C163.14 10.2301 163.37 9.49014 163.37 8.51014V3.39014H164.92H164.93Z" fill="#A8A8A8"/>
<path d="M170.26 3.66021C170.76 3.37021 171.38 3.22021 172.1 3.22021V4.82021H171.69C169.96 4.82021 169.09 5.76022 169.09 7.64022V12.7102H167.54V3.39021H169.09V4.90021C169.36 4.37021 169.75 3.95021 170.25 3.66021H170.26Z" fill="#A8A8A8"/>
<path d="M173.88 5.51C174.26 4.79 174.79 4.23 175.47 3.84C176.14 3.44 176.89 3.25 177.72 3.25C178.55 3.25 179.24 3.43 179.84 3.78C180.44 4.13 180.89 4.57 181.18 5.11V3.41H182.74V12.73H181.18V11C180.87 11.54 180.42 12 179.81 12.35C179.2 12.71 178.5 12.89 177.69 12.89C176.88 12.89 176.12 12.69 175.45 12.28C174.78 11.87 174.25 11.3 173.87 10.56C173.49 9.82 173.29 8.98 173.29 8.04C173.29 7.1 173.48 6.25 173.87 5.53L173.88 5.51ZM180.77 6.19C180.49 5.67 180.1 5.27 179.62 4.99C179.14 4.71 178.61 4.57 178.03 4.57C177.45 4.57 176.92 4.71 176.45 4.98C175.98 5.25 175.59 5.65 175.31 6.17C175.03 6.69 174.88 7.3 174.88 8.01C174.88 8.72 175.02 9.34 175.31 9.87C175.59 10.4 175.97 10.8 176.45 11.08C176.93 11.36 177.45 11.5 178.03 11.5C178.61 11.5 179.14 11.36 179.62 11.08C180.1 10.8 180.48 10.4 180.77 9.87C181.05 9.34 181.2 8.73 181.2 8.03C181.2 7.33 181.06 6.72 180.77 6.19Z" fill="#A8A8A8"/>
<path d="M186.75 12.4902C186.18 12.2502 185.74 11.9102 185.41 11.4702C185.08 11.0302 184.9 10.5302 184.87 9.97023H186.47C186.51 10.4302 186.73 10.8102 187.12 11.1102C187.51 11.4102 188.02 11.5502 188.66 11.5502C189.25 11.5502 189.71 11.4202 190.05 11.1602C190.39 10.9002 190.56 10.5702 190.56 10.1702C190.56 9.77023 190.38 9.46023 190.02 9.26023C189.66 9.06024 189.1 8.87023 188.34 8.67023C187.65 8.49023 187.09 8.30023 186.65 8.12023C186.21 7.93023 185.84 7.66023 185.53 7.29023C185.22 6.92023 185.06 6.44023 185.06 5.84023C185.06 5.36023 185.2 4.93023 185.48 4.53023C185.76 4.13023 186.17 3.82023 186.69 3.59023C187.21 3.36023 187.81 3.24023 188.48 3.24023C189.51 3.24023 190.35 3.50024 190.98 4.02024C191.61 4.54024 191.95 5.26023 192 6.16023H190.45C190.41 5.67023 190.22 5.28023 189.86 4.99023C189.5 4.70023 189.02 4.55023 188.42 4.55023C187.87 4.55023 187.42 4.67023 187.09 4.91023C186.76 5.15023 186.6 5.46023 186.6 5.84023C186.6 6.15023 186.7 6.40023 186.9 6.60023C187.1 6.80024 187.35 6.96023 187.65 7.08023C187.95 7.20023 188.37 7.33023 188.9 7.48023C189.57 7.66023 190.11 7.84024 190.53 8.02024C190.95 8.20023 191.31 8.46024 191.61 8.81024C191.91 9.16023 192.07 9.62023 192.08 10.1902C192.08 10.7002 191.94 11.1602 191.66 11.5702C191.38 11.9802 190.98 12.3002 190.46 12.5302C189.94 12.7602 189.35 12.8802 188.68 12.8802C187.97 12.8802 187.32 12.7602 186.76 12.5102L186.75 12.4902Z" fill="#A8A8A8"/>
<path d="M104.08 67.5H91.92L89.6801 73.7H85.8401L95.92 45.98H100.12L110.16 73.7H106.32L104.08 67.5ZM103.04 64.54L98.0001 50.46L92.9601 64.54H103.04Z" fill="white"/>
<path d="M137.6 45.8198L127.08 73.6998H122.88L112.36 45.8198H116.24L125 69.8598L133.76 45.8198H137.6Z" fill="white"/>
<path d="M145.24 45.8198V73.6998H141.6V45.8198H145.24Z" fill="white"/>
<path d="M167.92 67.4999H155.76L153.52 73.6999H149.68L159.76 45.9799H163.96L174 73.6999H170.16L167.92 67.4999ZM157.3 40.4999C158.01 39.7799 158.89 39.4199 159.96 39.4199C160.47 39.4199 160.9 39.5099 161.26 39.6799C161.62 39.8499 162.05 40.0999 162.56 40.4199C162.93 40.6899 163.27 40.8899 163.56 41.0399C163.85 41.1899 164.17 41.2599 164.52 41.2599C164.97 41.2599 165.36 41.1099 165.68 40.8199C166 40.5299 166.2 40.0999 166.28 39.5399H168.36C168.2 40.8699 167.76 41.8999 167.04 42.6199C166.32 43.3399 165.43 43.6999 164.36 43.6999C163.85 43.6999 163.4 43.6099 163.02 43.4399C162.63 43.2699 162.2 43.0099 161.72 42.6599C161.29 42.3899 160.95 42.1899 160.7 42.0599C160.45 41.9299 160.15 41.8599 159.8 41.8599C159.35 41.8599 158.97 42.0099 158.66 42.2999C158.35 42.5899 158.16 43.0299 158.08 43.6199H155.96C156.15 42.2599 156.59 41.2199 157.3 40.4999ZM166.88 64.5399L161.84 50.4599L156.8 64.5399H166.88Z" fill="white"/>
<path d="M183.96 72.16C181.83 70.95 180.14 69.25 178.9 67.08C177.66 64.91 177.04 62.46 177.04 59.74C177.04 57.02 177.66 54.57 178.9 52.4C180.14 50.23 181.83 48.53 183.96 47.32C186.09 46.11 188.45 45.5 191.04 45.5C193.63 45.5 196.03 46.11 198.16 47.32C200.29 48.53 201.97 50.22 203.2 52.38C204.43 54.54 205.04 56.99 205.04 59.74C205.04 62.49 204.43 64.94 203.2 67.1C201.97 69.26 200.29 70.95 198.16 72.16C196.03 73.37 193.65 73.98 191.04 73.98C188.43 73.98 186.09 73.37 183.96 72.16ZM196.3 69.46C197.86 68.55 199.09 67.26 199.98 65.58C200.87 63.9 201.32 61.95 201.32 59.74C201.32 57.53 200.87 55.55 199.98 53.88C199.09 52.21 197.87 50.93 196.32 50.02C194.77 49.11 193.01 48.66 191.04 48.66C189.07 48.66 187.31 49.11 185.76 50.02C184.21 50.93 182.99 52.21 182.1 53.88C181.21 55.55 180.76 57.5 180.76 59.74C180.76 61.98 181.21 63.9 182.1 65.58C182.99 67.26 184.22 68.55 185.78 69.46C187.34 70.37 189.09 70.82 191.04 70.82C192.99 70.82 194.74 70.37 196.3 69.46Z" fill="white"/>
</svg>
