<svg width="597" height="578" viewBox="0 0 597 578" fill="none" xmlns="http://www.w3.org/2000/svg">
<path d="M550.02 58.95H66.4401C40.9964 58.95 20.3701 79.5762 20.3701 105.02V531.2C20.3701 556.644 40.9964 577.27 66.4401 577.27H550.02C575.464 577.27 596.09 556.644 596.09 531.2V105.02C596.09 79.5762 575.464 58.95 550.02 58.95Z" fill="#D3D3D3"/>
<path d="M545.6 49.27H62.02C36.5762 49.27 15.95 69.8963 15.95 95.34V521.52C15.95 546.964 36.5762 567.59 62.02 567.59H545.6C571.044 567.59 591.67 546.964 591.67 521.52V95.34C591.67 69.8963 571.044 49.27 545.6 49.27Z" fill="#AED8A4"/>
<path d="M43.73 89.27C66.7603 89.27 85.43 70.5689 85.43 47.5C85.43 24.4311 66.7603 5.72998 43.73 5.72998C20.6997 5.72998 2.03003 24.4311 2.03003 47.5C2.03003 70.5689 20.6997 89.27 43.73 89.27Z" fill="#CCA98B" stroke="#F2F2F2"/>
<path d="M43.69 85.6699C66.7203 85.6699 85.39 66.9688 85.39 43.8999C85.39 20.8309 66.7203 2.12988 43.69 2.12988C20.6597 2.12988 1.98999 20.8309 1.98999 43.8999C1.98999 66.9688 20.6597 85.6699 43.69 85.6699Z" fill="white" stroke="#F2F2F2" stroke-width="3"/>
<path d="M25.7399 51.4298C28.4099 49.2198 30.5199 47.4098 32.0599 45.9898C33.5999 44.5698 34.8998 43.0798 35.9698 41.5298C37.0298 39.9698 37.5699 38.4598 37.5699 36.9898C37.5699 35.8698 37.3099 34.9998 36.7899 34.3698C36.2699 33.7398 35.4899 33.4298 34.4599 33.4298C33.4299 33.4298 32.6099 33.8198 32.0299 34.5998C31.4399 35.3798 31.1499 36.4798 31.1499 37.8898H24.3999C24.4499 35.5698 24.9499 33.6298 25.8899 32.0798C26.8299 30.5198 28.0699 29.3798 29.6099 28.6398C31.1499 27.8998 32.8599 27.5398 34.7499 27.5398C37.9999 27.5398 40.4399 28.3698 42.0999 30.0398C43.7499 31.7098 44.5799 33.8698 44.5799 36.5498C44.5799 39.4698 43.5799 42.1798 41.5899 44.6698C39.5999 47.1698 37.0599 49.5998 33.9799 51.9698H45.0299V57.6598H24.4899V52.4598C25.4199 51.7198 25.8399 51.3798 25.7599 51.4398L25.7399 51.4298Z" fill="#AED8A4"/>
<path d="M48.31 32.5798C49.01 31.4798 49.99 30.6098 51.26 29.9798C52.53 29.3498 53.98 29.0398 55.62 29.0398C57.26 29.0398 58.71 29.3498 59.98 29.9798C61.25 30.6098 62.23 31.4698 62.93 32.5798C63.63 33.6898 63.97 34.9598 63.97 36.4098C63.97 37.8598 63.62 39.1398 62.91 40.2598C62.2 41.3798 61.21 42.2598 59.94 42.8998C58.67 43.5398 57.22 43.8598 55.58 43.8598C53.94 43.8598 52.5 43.5398 51.24 42.8998C49.98 42.2598 49.01 41.3798 48.31 40.2598C47.61 39.1398 47.27 37.8598 47.27 36.4098C47.27 34.9598 47.62 33.6898 48.31 32.5798ZM57.71 33.9498C57.14 33.3798 56.43 33.0898 55.58 33.0898C54.73 33.0898 54.07 33.3798 53.51 33.9498C52.95 34.5198 52.67 35.3598 52.67 36.4498C52.67 37.5398 52.94 38.3298 53.49 38.9098C54.04 39.4898 54.73 39.7698 55.58 39.7698C56.43 39.7698 57.13 39.4798 57.71 38.8898C58.28 38.2998 58.57 37.4898 58.57 36.4598C58.57 35.3698 58.28 34.5398 57.71 33.9598V33.9498Z" fill="#AED8A4"/>
<path d="M105.38 35.45C104.59 36.22 103.38 36.6 101.75 36.6H99.07V42.42H97.25V28.48H101.75C103.32 28.48 104.52 28.86 105.34 29.62C106.16 30.38 106.57 31.36 106.57 32.56C106.57 33.76 106.17 34.68 105.38 35.45ZM103.99 34.44C104.47 34 104.71 33.37 104.71 32.56C104.71 30.84 103.72 29.98 101.75 29.98H99.07V35.1H101.75C102.76 35.1 103.51 34.88 103.99 34.44Z" fill="#AED8A4"/>
<path d="M108.83 33.95C109.28 33.1 109.91 32.45 110.7 31.98C111.49 31.51 112.38 31.28 113.35 31.28C114.32 31.28 115.14 31.49 115.85 31.9C116.56 32.31 117.08 32.83 117.43 33.46V31.46H119.27V42.42H117.43V40.38C117.07 41.02 116.53 41.55 115.82 41.97C115.11 42.39 114.28 42.6 113.33 42.6C112.38 42.6 111.48 42.36 110.69 41.88C109.9 41.4 109.28 40.73 108.83 39.86C108.38 38.99 108.15 38.01 108.15 36.9C108.15 35.79 108.38 34.8 108.83 33.95ZM116.93 34.76C116.6 34.15 116.15 33.68 115.58 33.35C115.01 33.02 114.39 32.86 113.71 32.86C113.03 32.86 112.41 33.02 111.85 33.34C111.29 33.66 110.84 34.13 110.51 34.74C110.18 35.35 110.01 36.07 110.01 36.9C110.01 37.73 110.18 38.47 110.51 39.09C110.84 39.71 111.29 40.18 111.85 40.51C112.41 40.84 113.03 41 113.71 41C114.39 41 115.01 40.84 115.58 40.51C116.15 40.18 116.6 39.71 116.93 39.09C117.26 38.47 117.43 37.75 117.43 36.92C117.43 36.09 117.26 35.37 116.93 34.76Z" fill="#AED8A4"/>
<path d="M123.97 42.17C123.3 41.88 122.78 41.48 122.39 40.97C122 40.46 121.79 39.87 121.75 39.2H123.63C123.68 39.75 123.94 40.19 124.4 40.54C124.86 40.89 125.46 41.06 126.21 41.06C126.9 41.06 127.45 40.91 127.85 40.6C128.25 40.29 128.45 39.91 128.45 39.44C128.45 38.97 128.24 38.6 127.81 38.37C127.38 38.14 126.72 37.91 125.83 37.68C125.02 37.47 124.35 37.25 123.84 37.03C123.33 36.81 122.89 36.48 122.52 36.05C122.15 35.62 121.97 35.05 121.97 34.34C121.97 33.78 122.14 33.27 122.47 32.8C122.8 32.33 123.28 31.96 123.89 31.69C124.5 31.42 125.2 31.28 125.99 31.28C127.2 31.28 128.18 31.59 128.93 32.2C129.68 32.81 130.08 33.65 130.13 34.72H128.31C128.27 34.15 128.04 33.69 127.62 33.34C127.2 32.99 126.64 32.82 125.93 32.82C125.28 32.82 124.76 32.96 124.37 33.24C123.98 33.52 123.79 33.89 123.79 34.34C123.79 34.7 123.91 35 124.14 35.23C124.37 35.46 124.67 35.65 125.02 35.79C125.37 35.93 125.86 36.09 126.49 36.26C127.28 36.47 127.92 36.68 128.41 36.89C128.9 37.1 129.33 37.41 129.68 37.82C130.03 38.23 130.22 38.77 130.23 39.44C130.23 40.04 130.06 40.58 129.73 41.06C129.4 41.54 128.93 41.92 128.32 42.19C127.71 42.46 127.02 42.6 126.23 42.6C125.39 42.6 124.64 42.46 123.97 42.17Z" fill="#AED8A4"/>
<path d="M134.41 42.17C133.74 41.88 133.22 41.48 132.83 40.97C132.44 40.46 132.23 39.87 132.19 39.2H134.07C134.12 39.75 134.38 40.19 134.84 40.54C135.3 40.89 135.9 41.06 136.65 41.06C137.34 41.06 137.89 40.91 138.29 40.6C138.69 40.29 138.89 39.91 138.89 39.44C138.89 38.97 138.68 38.6 138.25 38.37C137.82 38.14 137.16 37.91 136.27 37.68C135.46 37.47 134.79 37.25 134.28 37.03C133.77 36.81 133.33 36.48 132.96 36.05C132.59 35.62 132.41 35.05 132.41 34.34C132.41 33.78 132.58 33.27 132.91 32.8C133.24 32.33 133.72 31.96 134.33 31.69C134.94 31.42 135.64 31.28 136.43 31.28C137.64 31.28 138.62 31.59 139.37 32.2C140.12 32.81 140.52 33.65 140.57 34.72H138.75C138.71 34.15 138.48 33.69 138.06 33.34C137.64 32.99 137.08 32.82 136.37 32.82C135.72 32.82 135.2 32.96 134.81 33.24C134.42 33.52 134.23 33.89 134.23 34.34C134.23 34.7 134.35 35 134.58 35.23C134.81 35.46 135.11 35.65 135.46 35.79C135.81 35.93 136.3 36.09 136.93 36.26C137.72 36.47 138.36 36.68 138.85 36.89C139.34 37.1 139.77 37.41 140.12 37.82C140.47 38.23 140.66 38.77 140.67 39.44C140.67 40.04 140.5 40.58 140.17 41.06C139.84 41.54 139.37 41.92 138.76 42.19C138.15 42.46 137.46 42.6 136.67 42.6C135.83 42.6 135.08 42.46 134.41 42.17Z" fill="#AED8A4"/>
<path d="M145.22 41.9C144.39 41.43 143.73 40.77 143.26 39.91C142.79 39.05 142.55 38.05 142.55 36.92C142.55 35.79 142.79 34.81 143.28 33.95C143.77 33.09 144.43 32.43 145.27 31.97C146.11 31.51 147.05 31.28 148.09 31.28C149.13 31.28 150.07 31.51 150.91 31.97C151.75 32.43 152.41 33.09 152.9 33.94C153.39 34.79 153.63 35.79 153.63 36.92C153.63 38.05 153.38 39.05 152.88 39.91C152.38 40.77 151.7 41.43 150.85 41.9C150 42.37 149.05 42.6 148.01 42.6C146.97 42.6 146.05 42.37 145.22 41.9ZM149.85 40.54C150.42 40.23 150.89 39.77 151.24 39.16C151.59 38.55 151.77 37.8 151.77 36.92C151.77 36.04 151.6 35.29 151.25 34.68C150.9 34.07 150.45 33.61 149.89 33.31C149.33 33.01 148.72 32.86 148.07 32.86C147.42 32.86 146.79 33.01 146.24 33.31C145.69 33.61 145.24 34.07 144.91 34.68C144.58 35.29 144.41 36.04 144.41 36.92C144.41 37.8 144.57 38.57 144.9 39.18C145.23 39.79 145.66 40.25 146.21 40.55C146.76 40.85 147.36 41 148.01 41C148.66 41 149.28 40.85 149.85 40.54Z" fill="#AED8A4"/>
<path d="M122.28 498.12C123.34 498.66 124.15 499.43 124.71 500.43C125.27 501.43 125.56 502.61 125.56 503.96C125.56 505.31 125.28 506.49 124.71 507.48C124.14 508.47 123.33 509.23 122.28 509.76C121.22 510.29 119.97 510.55 118.53 510.55H114.41V497.31H118.53C119.97 497.31 121.22 497.58 122.28 498.12ZM122.45 507.78C123.35 506.87 123.8 505.6 123.8 503.97C123.8 502.34 123.35 501.04 122.44 500.11C121.53 499.19 120.23 498.72 118.54 498.72H116.15V509.13H118.54C120.25 509.13 121.55 508.68 122.45 507.77V507.78Z" fill="#424242"/>
<path d="M129.73 510.07C128.94 509.63 128.32 509 127.87 508.18C127.42 507.36 127.2 506.42 127.2 505.34C127.2 504.26 127.43 503.34 127.89 502.52C128.35 501.7 128.98 501.08 129.78 500.64C130.58 500.2 131.47 499.98 132.46 499.98C133.45 499.98 134.34 500.2 135.14 500.64C135.94 501.08 136.57 501.7 137.03 502.51C137.49 503.32 137.72 504.26 137.72 505.34C137.72 506.42 137.48 507.36 137.01 508.18C136.53 509 135.89 509.63 135.08 510.07C134.27 510.51 133.37 510.74 132.38 510.74C131.39 510.74 130.52 510.52 129.73 510.07ZM134.13 508.77C134.67 508.48 135.11 508.04 135.45 507.46C135.79 506.88 135.95 506.17 135.95 505.33C135.95 504.49 135.78 503.78 135.46 503.2C135.13 502.62 134.7 502.18 134.17 501.9C133.64 501.62 133.06 501.47 132.44 501.47C131.82 501.47 131.23 501.61 130.7 501.9C130.17 502.19 129.75 502.62 129.44 503.2C129.12 503.78 128.97 504.49 128.97 505.33C128.97 506.17 129.13 506.89 129.44 507.48C129.75 508.06 130.16 508.5 130.68 508.78C131.2 509.06 131.77 509.21 132.39 509.21C133.01 509.21 133.59 509.06 134.14 508.77H134.13Z" fill="#424242"/>
<path d="M143.29 500.57C143.97 500.18 144.75 499.98 145.63 499.98C146.57 499.98 147.41 500.2 148.16 500.65C148.91 501.09 149.5 501.72 149.93 502.52C150.36 503.32 150.58 504.26 150.58 505.32C150.58 506.38 150.36 507.31 149.93 508.13C149.5 508.95 148.91 509.59 148.15 510.05C147.39 510.51 146.56 510.73 145.63 510.73C144.7 510.73 143.94 510.53 143.26 510.14C142.58 509.75 142.07 509.25 141.73 508.64V510.56H140V496.5H141.73V502.09C142.08 501.47 142.6 500.96 143.29 500.57ZM148.32 503.26C148 502.68 147.58 502.23 147.04 501.93C146.5 501.63 145.91 501.47 145.26 501.47C144.61 501.47 144.04 501.63 143.5 501.94C142.96 502.25 142.53 502.7 142.21 503.29C141.89 503.88 141.73 504.56 141.73 505.33C141.73 506.1 141.89 506.8 142.21 507.39C142.53 507.98 142.96 508.43 143.5 508.74C144.04 509.05 144.62 509.21 145.26 509.21C145.9 509.21 146.5 509.05 147.04 508.74C147.58 508.43 148 507.98 148.32 507.39C148.64 506.8 148.79 506.11 148.79 505.31C148.79 504.51 148.63 503.84 148.32 503.26Z" fill="#424242"/>
<path d="M155.88 500.45C156.44 500.12 157.13 499.96 157.94 499.96V501.75H157.48C155.54 501.75 154.57 502.8 154.57 504.9V510.56H152.84V500.15H154.57V501.84C154.87 501.24 155.31 500.78 155.87 500.45H155.88Z" fill="#424242"/>
<path d="M169.38 506H161.06C161.12 507.03 161.48 507.83 162.11 508.4C162.74 508.97 163.53 509.26 164.44 509.26C165.19 509.26 165.81 509.09 166.31 508.74C166.81 508.39 167.16 507.93 167.36 507.34H169.22C168.94 508.34 168.38 509.15 167.55 509.78C166.72 510.41 165.67 510.72 164.43 510.72C163.44 510.72 162.56 510.5 161.78 510.05C161 509.6 160.39 508.98 159.95 508.16C159.51 507.34 159.28 506.4 159.28 505.32C159.28 504.24 159.49 503.3 159.93 502.49C160.37 501.68 160.97 501.06 161.74 500.62C162.52 500.18 163.41 499.96 164.43 499.96C165.45 499.96 166.29 500.18 167.05 500.61C167.81 501.04 168.4 501.63 168.81 502.39C169.22 503.14 169.43 504 169.43 504.94C169.43 505.27 169.41 505.62 169.37 505.99L169.38 506ZM167.21 502.89C166.92 502.41 166.52 502.05 166.02 501.81C165.52 501.56 164.97 501.44 164.36 501.44C163.49 501.44 162.74 501.72 162.13 502.28C161.52 502.84 161.16 503.61 161.08 504.6H167.65C167.65 503.94 167.5 503.37 167.21 502.9V502.89Z" fill="#424242"/>
<path d="M176.78 502.51C177.21 501.71 177.8 501.08 178.56 500.64C179.32 500.2 180.15 499.97 181.08 499.97C182.01 499.97 182.78 500.17 183.46 500.56C184.13 500.95 184.63 501.45 184.96 502.04V500.14H186.71V510.55H184.96V508.61C184.62 509.22 184.11 509.72 183.43 510.12C182.75 510.52 181.96 510.72 181.06 510.72C180.16 510.72 179.3 510.49 178.55 510.04C177.8 509.58 177.21 508.94 176.78 508.12C176.35 507.3 176.13 506.36 176.13 505.31C176.13 504.26 176.34 503.31 176.78 502.51ZM184.48 503.28C184.16 502.7 183.74 502.25 183.2 501.94C182.66 501.63 182.07 501.47 181.42 501.47C180.77 501.47 180.19 501.62 179.65 501.93C179.11 502.24 178.69 502.68 178.38 503.26C178.07 503.84 177.91 504.53 177.91 505.31C177.91 506.09 178.07 506.8 178.38 507.39C178.7 507.98 179.12 508.43 179.65 508.74C180.18 509.05 180.77 509.21 181.42 509.21C182.07 509.21 182.66 509.05 183.2 508.74C183.74 508.43 184.16 507.98 184.48 507.39C184.8 506.8 184.95 506.11 184.95 505.33C184.95 504.55 184.79 503.86 184.48 503.28Z" fill="#424242"/>
<path d="M191.17 510.32C190.54 510.05 190.04 509.67 189.67 509.18C189.3 508.69 189.1 508.13 189.06 507.5H190.85C190.9 508.02 191.14 508.44 191.58 508.77C192.02 509.1 192.59 509.26 193.3 509.26C193.96 509.26 194.48 509.11 194.86 508.82C195.24 508.53 195.43 508.16 195.43 507.72C195.43 507.28 195.23 506.93 194.82 506.7C194.41 506.48 193.79 506.26 192.94 506.04C192.17 505.84 191.54 505.63 191.05 505.42C190.56 505.21 190.14 504.9 189.8 504.49C189.45 504.08 189.28 503.54 189.28 502.87C189.28 502.34 189.44 501.85 189.76 501.41C190.08 500.97 190.53 500.62 191.11 500.36C191.69 500.1 192.36 499.97 193.11 499.97C194.26 499.97 195.19 500.26 195.9 500.84C196.61 501.42 196.99 502.22 197.04 503.23H195.31C195.27 502.69 195.05 502.25 194.65 501.92C194.25 501.59 193.72 501.43 193.04 501.43C192.42 501.43 191.92 501.56 191.56 501.83C191.19 502.1 191.01 502.44 191.01 502.87C191.01 503.21 191.12 503.49 191.34 503.72C191.56 503.95 191.84 504.12 192.18 504.25C192.52 504.38 192.98 504.53 193.58 504.7C194.33 504.9 194.93 505.1 195.4 505.3C195.87 505.5 196.27 505.79 196.61 506.18C196.94 506.57 197.12 507.09 197.13 507.72C197.13 508.29 196.97 508.8 196.65 509.26C196.33 509.72 195.89 510.07 195.31 510.33C194.73 510.59 194.07 510.72 193.32 510.72C192.52 510.72 191.81 510.58 191.17 510.31V510.32Z" fill="#424242"/>
<path d="M207.88 500.58C208.56 500.18 209.35 499.98 210.25 499.98C211.15 499.98 212.01 500.2 212.77 500.65C213.53 501.1 214.12 501.72 214.55 502.52C214.98 503.32 215.2 504.26 215.2 505.32C215.2 506.38 214.98 507.31 214.55 508.13C214.12 508.95 213.53 509.59 212.77 510.05C212.01 510.51 211.18 510.73 210.25 510.73C209.32 510.73 208.58 510.53 207.9 510.13C207.22 509.73 206.71 509.23 206.35 508.64V515.5H204.62V500.15H206.35V502.07C206.69 501.48 207.2 500.98 207.88 500.58ZM212.94 503.26C212.62 502.68 212.2 502.23 211.66 501.93C211.12 501.63 210.53 501.47 209.88 501.47C209.23 501.47 208.66 501.63 208.12 501.94C207.58 502.25 207.15 502.7 206.83 503.29C206.51 503.88 206.35 504.56 206.35 505.33C206.35 506.1 206.51 506.8 206.83 507.39C207.15 507.98 207.58 508.43 208.12 508.74C208.66 509.05 209.24 509.21 209.88 509.21C210.52 509.21 211.12 509.05 211.66 508.74C212.2 508.43 212.62 507.98 212.94 507.39C213.26 506.8 213.41 506.11 213.41 505.31C213.41 504.51 213.25 503.84 212.94 503.26Z" fill="#424242"/>
<path d="M219.35 510.07C218.56 509.63 217.94 509 217.49 508.18C217.04 507.36 216.82 506.42 216.82 505.34C216.82 504.26 217.05 503.34 217.51 502.52C217.97 501.7 218.6 501.08 219.4 500.64C220.2 500.2 221.09 499.98 222.08 499.98C223.07 499.98 223.96 500.2 224.76 500.64C225.56 501.08 226.19 501.7 226.65 502.51C227.11 503.32 227.34 504.26 227.34 505.34C227.34 506.42 227.1 507.36 226.63 508.18C226.15 509 225.51 509.63 224.7 510.07C223.89 510.51 222.99 510.74 222 510.74C221.01 510.74 220.14 510.52 219.35 510.07ZM223.75 508.77C224.29 508.48 224.73 508.04 225.07 507.46C225.41 506.88 225.57 506.17 225.57 505.33C225.57 504.49 225.4 503.78 225.08 503.2C224.75 502.62 224.32 502.18 223.79 501.9C223.26 501.62 222.68 501.47 222.06 501.47C221.44 501.47 220.85 501.61 220.32 501.9C219.79 502.19 219.37 502.62 219.06 503.2C218.74 503.78 218.59 504.49 218.59 505.33C218.59 506.17 218.75 506.89 219.06 507.48C219.37 508.06 219.78 508.5 220.3 508.78C220.82 509.06 221.39 509.21 222.01 509.21C222.63 509.21 223.21 509.06 223.76 508.77H223.75Z" fill="#424242"/>
<path d="M237.77 501.11C238.56 501.88 238.95 502.98 238.95 504.43V510.57H237.24V504.68C237.24 503.64 236.98 502.85 236.46 502.3C235.94 501.75 235.23 501.47 234.33 501.47C233.43 501.47 232.69 501.75 232.15 502.32C231.61 502.89 231.34 503.72 231.34 504.81V510.57H229.61V500.16H231.34V501.64C231.68 501.11 232.15 500.7 232.74 500.4C233.33 500.11 233.98 499.96 234.69 499.96C235.96 499.96 236.98 500.34 237.77 501.11Z" fill="#424242"/>
<path d="M243.89 501.57V507.71C243.89 508.22 244 508.57 244.21 508.78C244.43 508.99 244.8 509.09 245.33 509.09H246.6V510.55H245.04C244.08 510.55 243.35 510.33 242.87 509.88C242.39 509.44 242.15 508.71 242.15 507.7V501.56H240.8V500.14H242.15V497.52H243.88V500.14H246.6V501.56H243.88L243.89 501.57Z" fill="#424242"/>
<path d="M248.7 502.51C249.13 501.71 249.72 501.08 250.48 500.64C251.24 500.2 252.07 499.97 253 499.97C253.93 499.97 254.7 500.17 255.38 500.56C256.05 500.95 256.55 501.45 256.88 502.04V500.14H258.63V510.55H256.88V508.61C256.54 509.22 256.03 509.72 255.35 510.12C254.67 510.52 253.88 510.72 252.98 510.72C252.08 510.72 251.22 510.49 250.47 510.04C249.72 509.58 249.13 508.94 248.7 508.12C248.27 507.3 248.05 506.36 248.05 505.31C248.05 504.26 248.26 503.31 248.7 502.51ZM256.39 503.28C256.07 502.7 255.65 502.25 255.11 501.94C254.57 501.63 253.98 501.47 253.33 501.47C252.68 501.47 252.1 501.62 251.56 501.93C251.02 502.24 250.6 502.68 250.29 503.26C249.98 503.84 249.82 504.53 249.82 505.31C249.82 506.09 249.98 506.8 250.29 507.39C250.61 507.98 251.03 508.43 251.56 508.74C252.09 509.05 252.68 509.21 253.33 509.21C253.98 509.21 254.57 509.05 255.11 508.74C255.65 508.43 256.07 507.98 256.39 507.39C256.71 506.8 256.86 506.11 256.86 505.33C256.86 504.55 256.7 503.86 256.39 503.28Z" fill="#424242"/>
<path d="M263.08 510.32C262.45 510.05 261.95 509.67 261.58 509.18C261.21 508.69 261.01 508.13 260.97 507.5H262.76C262.81 508.02 263.05 508.44 263.49 508.77C263.93 509.1 264.5 509.26 265.21 509.26C265.87 509.26 266.39 509.11 266.77 508.82C267.15 508.53 267.34 508.16 267.34 507.72C267.34 507.28 267.14 506.93 266.73 506.7C266.32 506.48 265.7 506.26 264.85 506.04C264.08 505.84 263.45 505.63 262.96 505.42C262.47 505.21 262.05 504.9 261.71 504.49C261.36 504.08 261.19 503.54 261.19 502.87C261.19 502.34 261.35 501.85 261.67 501.41C261.99 500.97 262.44 500.62 263.02 500.36C263.6 500.1 264.27 499.97 265.02 499.97C266.17 499.97 267.1 500.26 267.81 500.84C268.52 501.42 268.9 502.22 268.95 503.23H267.22C267.18 502.69 266.96 502.25 266.56 501.92C266.16 501.59 265.63 501.43 264.95 501.43C264.33 501.43 263.83 501.56 263.47 501.83C263.1 502.1 262.92 502.44 262.92 502.87C262.92 503.21 263.03 503.49 263.25 503.72C263.47 503.95 263.75 504.12 264.09 504.25C264.43 504.38 264.89 504.53 265.49 504.7C266.24 504.9 266.84 505.1 267.31 505.3C267.78 505.5 268.18 505.79 268.52 506.18C268.85 506.57 269.03 507.09 269.04 507.72C269.04 508.29 268.88 508.8 268.56 509.26C268.24 509.72 267.8 510.07 267.22 510.33C266.64 510.59 265.98 510.72 265.23 510.72C264.43 510.72 263.72 510.58 263.08 510.31V510.32Z" fill="#424242"/>
<path d="M278.07 510.32C277.44 510.05 276.94 509.67 276.57 509.18C276.2 508.69 276 508.13 275.96 507.5H277.75C277.8 508.02 278.04 508.44 278.48 508.77C278.92 509.1 279.49 509.26 280.2 509.26C280.86 509.26 281.38 509.11 281.76 508.82C282.14 508.53 282.33 508.16 282.33 507.72C282.33 507.28 282.13 506.93 281.72 506.7C281.31 506.48 280.69 506.26 279.84 506.04C279.07 505.84 278.44 505.63 277.95 505.42C277.46 505.21 277.04 504.9 276.7 504.49C276.35 504.08 276.18 503.54 276.18 502.87C276.18 502.34 276.34 501.85 276.66 501.41C276.98 500.97 277.43 500.62 278.01 500.36C278.59 500.1 279.26 499.97 280.01 499.97C281.16 499.97 282.09 500.26 282.8 500.84C283.51 501.42 283.89 502.22 283.94 503.23H282.21C282.17 502.69 281.95 502.25 281.55 501.92C281.15 501.59 280.62 501.43 279.94 501.43C279.32 501.43 278.82 501.56 278.46 501.83C278.09 502.1 277.91 502.44 277.91 502.87C277.91 503.21 278.02 503.49 278.24 503.72C278.46 503.95 278.74 504.12 279.08 504.25C279.42 504.38 279.88 504.53 280.48 504.7C281.23 504.9 281.83 505.1 282.3 505.3C282.77 505.5 283.17 505.79 283.51 506.18C283.84 506.57 284.02 507.09 284.03 507.72C284.03 508.29 283.87 508.8 283.55 509.26C283.23 509.72 282.79 510.07 282.21 510.33C281.63 510.59 280.97 510.72 280.22 510.72C279.42 510.72 278.71 510.58 278.07 510.31V510.32Z" fill="#424242"/>
<path d="M295.69 500.15V510.56H293.96V509.02C293.63 509.55 293.17 509.97 292.58 510.26C291.99 510.56 291.34 510.71 290.63 510.71C289.82 510.71 289.09 510.54 288.45 510.21C287.8 509.88 287.29 509.37 286.92 508.7C286.55 508.03 286.36 507.21 286.36 506.25V500.15H288.07V506.02C288.07 507.05 288.33 507.83 288.85 508.39C289.37 508.94 290.08 509.22 290.98 509.22C291.88 509.22 292.63 508.93 293.16 508.36C293.69 507.79 293.96 506.96 293.96 505.87V500.15H295.69Z" fill="#424242"/>
<path d="M301.87 500.58C302.55 500.18 303.34 499.98 304.24 499.98C305.14 499.98 306 500.2 306.76 500.65C307.52 501.1 308.11 501.72 308.54 502.52C308.97 503.32 309.19 504.26 309.19 505.32C309.19 506.38 308.97 507.31 308.54 508.13C308.11 508.95 307.52 509.59 306.76 510.05C306 510.51 305.17 510.73 304.24 510.73C303.31 510.73 302.57 510.53 301.89 510.13C301.21 509.73 300.7 509.23 300.34 508.64V515.5H298.61V500.15H300.34V502.07C300.68 501.48 301.19 500.98 301.87 500.58ZM306.93 503.26C306.61 502.68 306.19 502.23 305.65 501.93C305.11 501.63 304.52 501.47 303.87 501.47C303.22 501.47 302.65 501.63 302.11 501.94C301.57 502.25 301.14 502.7 300.82 503.29C300.5 503.88 300.34 504.56 300.34 505.33C300.34 506.1 300.5 506.8 300.82 507.39C301.14 507.98 301.57 508.43 302.11 508.74C302.65 509.05 303.23 509.21 303.87 509.21C304.51 509.21 305.11 509.05 305.65 508.74C306.19 508.43 306.61 507.98 306.93 507.39C307.25 506.8 307.4 506.11 307.4 505.31C307.4 504.51 307.24 503.84 306.93 503.26Z" fill="#424242"/>
<path d="M320.9 506H312.58C312.64 507.03 313 507.83 313.63 508.4C314.26 508.97 315.05 509.26 315.96 509.26C316.71 509.26 317.33 509.09 317.83 508.74C318.33 508.39 318.68 507.93 318.88 507.34H320.74C320.46 508.34 319.9 509.15 319.07 509.78C318.24 510.41 317.19 510.72 315.95 510.72C314.96 510.72 314.08 510.5 313.3 510.05C312.52 509.6 311.91 508.98 311.47 508.16C311.03 507.34 310.8 506.4 310.8 505.32C310.8 504.24 311.01 503.3 311.45 502.49C311.89 501.68 312.49 501.06 313.26 500.62C314.04 500.18 314.93 499.96 315.95 499.96C316.97 499.96 317.81 500.18 318.57 500.61C319.33 501.04 319.92 501.63 320.33 502.39C320.74 503.14 320.95 504 320.95 504.94C320.95 505.27 320.93 505.62 320.89 505.99L320.9 506ZM318.73 502.89C318.44 502.41 318.04 502.05 317.54 501.81C317.04 501.56 316.49 501.44 315.88 501.44C315.01 501.44 314.26 501.72 313.65 502.28C313.04 502.84 312.68 503.61 312.6 504.6H319.17C319.17 503.94 319.02 503.37 318.73 502.9V502.89Z" fill="#424242"/>
<path d="M326.27 500.45C326.83 500.12 327.52 499.96 328.33 499.96V501.75H327.87C325.93 501.75 324.96 502.8 324.96 504.9V510.56H323.23V500.15H324.96V501.84C325.26 501.24 325.7 500.78 326.26 500.45H326.27Z" fill="#424242"/>
<path d="M330.38 498.11C330.15 497.88 330.04 497.6 330.04 497.27C330.04 496.94 330.15 496.66 330.38 496.43C330.61 496.2 330.89 496.09 331.22 496.09C331.55 496.09 331.8 496.2 332.03 496.43C332.25 496.66 332.36 496.94 332.36 497.27C332.36 497.6 332.25 497.88 332.03 498.11C331.81 498.34 331.54 498.45 331.22 498.45C330.9 498.45 330.61 498.34 330.38 498.11ZM332.05 500.15V510.56H330.32V500.15H332.05Z" fill="#424242"/>
<path d="M336.89 510.07C336.1 509.63 335.48 509 335.03 508.18C334.58 507.36 334.36 506.42 334.36 505.34C334.36 504.26 334.59 503.34 335.05 502.52C335.51 501.7 336.14 501.08 336.94 500.64C337.74 500.2 338.63 499.98 339.62 499.98C340.61 499.98 341.5 500.2 342.3 500.64C343.1 501.08 343.73 501.7 344.19 502.51C344.65 503.32 344.88 504.26 344.88 505.34C344.88 506.42 344.64 507.36 344.17 508.18C343.69 509 343.05 509.63 342.24 510.07C341.43 510.51 340.53 510.74 339.54 510.74C338.55 510.74 337.68 510.52 336.89 510.07ZM341.28 508.77C341.82 508.48 342.26 508.04 342.6 507.46C342.94 506.88 343.1 506.17 343.1 505.33C343.1 504.49 342.93 503.78 342.61 503.2C342.28 502.62 341.85 502.18 341.32 501.9C340.79 501.62 340.21 501.47 339.59 501.47C338.97 501.47 338.38 501.61 337.85 501.9C337.32 502.19 336.9 502.62 336.59 503.2C336.27 503.78 336.12 504.49 336.12 505.33C336.12 506.17 336.28 506.89 336.59 507.48C336.9 508.06 337.31 508.5 337.83 508.78C338.35 509.06 338.92 509.21 339.54 509.21C340.16 509.21 340.74 509.06 341.29 508.77H341.28Z" fill="#424242"/>
<path d="M350.19 500.45C350.75 500.12 351.44 499.96 352.25 499.96V501.75H351.79C349.85 501.75 348.88 502.8 348.88 504.9V510.56H347.15V500.15H348.88V501.84C349.18 501.24 349.62 500.78 350.18 500.45H350.19Z" fill="#424242"/>
<path d="M363.69 506H355.37C355.43 507.03 355.79 507.83 356.42 508.4C357.05 508.97 357.84 509.26 358.75 509.26C359.5 509.26 360.12 509.09 360.62 508.74C361.12 508.39 361.47 507.93 361.67 507.34H363.53C363.25 508.34 362.69 509.15 361.86 509.78C361.03 510.41 359.98 510.72 358.74 510.72C357.75 510.72 356.87 510.5 356.09 510.05C355.31 509.6 354.7 508.98 354.26 508.16C353.82 507.34 353.59 506.4 353.59 505.32C353.59 504.24 353.8 503.3 354.24 502.49C354.68 501.68 355.28 501.06 356.05 500.62C356.83 500.18 357.72 499.96 358.74 499.96C359.76 499.96 360.6 500.18 361.36 500.61C362.12 501.04 362.71 501.63 363.12 502.39C363.53 503.14 363.74 504 363.74 504.94C363.74 505.27 363.72 505.62 363.68 505.99L363.69 506ZM361.52 502.89C361.23 502.41 360.83 502.05 360.33 501.81C359.83 501.56 359.28 501.44 358.67 501.44C357.8 501.44 357.05 501.72 356.44 502.28C355.83 502.84 355.47 503.61 355.39 504.6H361.96C361.96 503.94 361.81 503.37 361.52 502.9V502.89Z" fill="#424242"/>
<path d="M367.56 510.32C366.93 510.05 366.43 509.67 366.06 509.18C365.69 508.69 365.49 508.13 365.45 507.5H367.24C367.29 508.02 367.53 508.44 367.97 508.77C368.41 509.1 368.98 509.26 369.69 509.26C370.35 509.26 370.87 509.11 371.25 508.82C371.63 508.53 371.82 508.16 371.82 507.72C371.82 507.28 371.62 506.93 371.21 506.7C370.8 506.48 370.18 506.26 369.33 506.04C368.56 505.84 367.93 505.63 367.44 505.42C366.95 505.21 366.53 504.9 366.19 504.49C365.84 504.08 365.67 503.54 365.67 502.87C365.67 502.34 365.83 501.85 366.15 501.41C366.47 500.97 366.92 500.62 367.5 500.36C368.08 500.1 368.75 499.97 369.5 499.97C370.65 499.97 371.58 500.26 372.29 500.84C373 501.42 373.38 502.22 373.43 503.23H371.7C371.66 502.69 371.44 502.25 371.04 501.92C370.64 501.59 370.11 501.43 369.43 501.43C368.81 501.43 368.31 501.56 367.95 501.83C367.58 502.1 367.4 502.44 367.4 502.87C367.4 503.21 367.51 503.49 367.73 503.72C367.95 503.95 368.23 504.12 368.57 504.25C368.91 504.38 369.37 504.53 369.97 504.7C370.72 504.9 371.32 505.1 371.79 505.3C372.26 505.5 372.66 505.79 373 506.18C373.33 506.57 373.51 507.09 373.52 507.72C373.52 508.29 373.36 508.8 373.04 509.26C372.72 509.72 372.28 510.07 371.7 510.33C371.12 510.59 370.46 510.72 369.71 510.72C368.91 510.72 368.2 510.58 367.56 510.31V510.32Z" fill="#424242"/>
<path d="M389.16 501.11C389.95 501.88 390.34 502.98 390.34 504.43V510.57H388.63V504.68C388.63 503.64 388.37 502.85 387.85 502.3C387.33 501.75 386.62 501.47 385.72 501.47C384.82 501.47 384.08 501.75 383.54 502.32C383 502.89 382.73 503.72 382.73 504.81V510.57H381V500.16H382.73V501.64C383.07 501.11 383.54 500.7 384.13 500.4C384.72 500.11 385.37 499.96 386.08 499.96C387.35 499.96 388.37 500.34 389.16 501.11Z" fill="#424242"/>
<path d="M393.17 502.51C393.6 501.71 394.19 501.08 394.95 500.64C395.71 500.2 396.54 499.97 397.47 499.97C398.4 499.97 399.17 500.17 399.85 500.56C400.52 500.95 401.02 501.45 401.35 502.04V500.14H403.1V510.55H401.35V508.61C401.01 509.22 400.5 509.72 399.82 510.12C399.14 510.52 398.35 510.72 397.45 510.72C396.55 510.72 395.69 510.49 394.94 510.04C394.19 509.58 393.6 508.94 393.17 508.12C392.74 507.3 392.52 506.36 392.52 505.31C392.52 504.26 392.73 503.31 393.17 502.51ZM400.87 503.28C400.55 502.7 400.13 502.25 399.59 501.94C399.05 501.63 398.46 501.47 397.81 501.47C397.16 501.47 396.58 501.62 396.04 501.93C395.5 502.24 395.08 502.68 394.77 503.26C394.46 503.84 394.3 504.53 394.3 505.31C394.3 506.09 394.46 506.8 394.77 507.39C395.09 507.98 395.51 508.43 396.04 508.74C396.57 509.05 397.16 509.21 397.81 509.21C398.46 509.21 399.05 509.05 399.59 508.74C400.13 508.43 400.55 507.98 400.87 507.39C401.19 506.8 401.34 506.11 401.34 505.33C401.34 504.55 401.18 503.86 400.87 503.28Z" fill="#424242"/>
<path d="M411.09 502.51C411.52 501.71 412.11 501.08 412.87 500.64C413.63 500.2 414.47 499.97 415.41 499.97C416.22 499.97 416.97 500.16 417.67 500.53C418.37 500.9 418.9 501.39 419.27 502V496.49H421.02V510.55H419.27V508.59C418.93 509.21 418.42 509.72 417.75 510.12C417.08 510.52 416.29 510.72 415.39 510.72C414.49 510.72 413.63 510.49 412.87 510.04C412.11 509.59 411.52 508.94 411.09 508.12C410.66 507.3 410.44 506.36 410.44 505.31C410.44 504.26 410.65 503.31 411.09 502.51ZM418.79 503.28C418.47 502.7 418.05 502.25 417.51 501.94C416.97 501.63 416.38 501.47 415.73 501.47C415.08 501.47 414.5 501.62 413.96 501.93C413.42 502.24 413 502.68 412.69 503.26C412.38 503.84 412.22 504.53 412.22 505.31C412.22 506.09 412.38 506.8 412.69 507.39C413.01 507.98 413.43 508.43 413.96 508.74C414.49 509.05 415.08 509.21 415.73 509.21C416.38 509.21 416.97 509.05 417.51 508.74C418.05 508.43 418.47 507.98 418.79 507.39C419.11 506.8 419.26 506.11 419.26 505.33C419.26 504.55 419.1 503.86 418.79 503.28Z" fill="#424242"/>
<path d="M423.99 498.11C423.76 497.88 423.65 497.6 423.65 497.27C423.65 496.94 423.76 496.66 423.99 496.43C424.22 496.2 424.5 496.09 424.83 496.09C425.16 496.09 425.41 496.2 425.64 496.43C425.86 496.66 425.97 496.94 425.97 497.27C425.97 497.6 425.86 497.88 425.64 498.11C425.42 498.34 425.15 498.45 424.83 498.45C424.51 498.45 424.22 498.34 423.99 498.11ZM425.66 500.15V510.56H423.93V500.15H425.66Z" fill="#424242"/>
<path d="M428.61 502.51C429.04 501.71 429.63 501.08 430.39 500.64C431.15 500.2 431.98 499.97 432.91 499.97C433.84 499.97 434.61 500.17 435.29 500.56C435.96 500.95 436.46 501.45 436.79 502.04V500.14H438.54V510.55H436.79V508.61C436.45 509.22 435.94 509.72 435.26 510.12C434.58 510.52 433.79 510.72 432.89 510.72C431.99 510.72 431.13 510.49 430.38 510.04C429.63 509.58 429.04 508.94 428.61 508.12C428.18 507.3 427.96 506.36 427.96 505.31C427.96 504.26 428.17 503.31 428.61 502.51ZM436.3 503.28C435.98 502.7 435.56 502.25 435.02 501.94C434.48 501.63 433.89 501.47 433.24 501.47C432.59 501.47 432.01 501.62 431.47 501.93C430.93 502.24 430.51 502.68 430.2 503.26C429.89 503.84 429.73 504.53 429.73 505.31C429.73 506.09 429.89 506.8 430.2 507.39C430.52 507.98 430.94 508.43 431.47 508.74C432 509.05 432.59 509.21 433.24 509.21C433.89 509.21 434.48 509.05 435.02 508.74C435.56 508.43 435.98 507.98 436.3 507.39C436.62 506.8 436.77 506.11 436.77 505.33C436.77 504.55 436.61 503.86 436.3 503.28Z" fill="#424242"/>
<path d="M448.11 500.57C448.79 500.96 449.29 501.46 449.62 502.05V500.15H451.37V510.79C451.37 511.74 451.17 512.59 450.76 513.33C450.35 514.07 449.77 514.65 449.02 515.07C448.27 515.49 447.39 515.7 446.39 515.7C445.02 515.7 443.88 515.38 442.97 514.73C442.06 514.08 441.52 513.2 441.35 512.09H443.06C443.25 512.72 443.64 513.23 444.24 513.62C444.84 514.01 445.55 514.2 446.39 514.2C447.34 514.2 448.12 513.9 448.72 513.31C449.32 512.71 449.62 511.88 449.62 510.8V508.62C449.28 509.23 448.77 509.74 448.1 510.14C447.43 510.55 446.64 510.75 445.74 510.75C444.84 510.75 443.98 510.52 443.22 510.07C442.46 509.62 441.87 508.97 441.44 508.15C441.01 507.33 440.79 506.39 440.79 505.34C440.79 504.29 441 503.34 441.44 502.54C441.87 501.74 442.46 501.11 443.22 500.67C443.98 500.23 444.81 500 445.74 500C446.67 500 447.43 500.2 448.11 500.59V500.57ZM449.15 503.28C448.83 502.7 448.41 502.25 447.87 501.94C447.33 501.63 446.74 501.47 446.09 501.47C445.44 501.47 444.86 501.62 444.32 501.93C443.78 502.24 443.36 502.68 443.05 503.26C442.74 503.84 442.58 504.53 442.58 505.31C442.58 506.09 442.74 506.8 443.05 507.39C443.37 507.98 443.79 508.43 444.32 508.74C444.85 509.05 445.44 509.21 446.09 509.21C446.74 509.21 447.33 509.05 447.87 508.74C448.41 508.43 448.83 507.98 449.15 507.39C449.47 506.8 449.62 506.11 449.62 505.33C449.62 504.55 449.46 503.86 449.15 503.28Z" fill="#424242"/>
<path d="M456.19 510.07C455.4 509.63 454.78 509 454.33 508.18C453.88 507.36 453.66 506.42 453.66 505.34C453.66 504.26 453.89 503.34 454.35 502.52C454.81 501.7 455.44 501.08 456.24 500.64C457.04 500.2 457.93 499.98 458.92 499.98C459.91 499.98 460.8 500.2 461.6 500.64C462.4 501.08 463.03 501.7 463.49 502.51C463.95 503.32 464.18 504.26 464.18 505.34C464.18 506.42 463.94 507.36 463.47 508.18C462.99 509 462.35 509.63 461.54 510.07C460.73 510.51 459.83 510.74 458.84 510.74C457.85 510.74 456.98 510.52 456.19 510.07ZM460.58 508.77C461.12 508.48 461.56 508.04 461.9 507.46C462.24 506.88 462.4 506.17 462.4 505.33C462.4 504.49 462.23 503.78 461.91 503.2C461.58 502.62 461.15 502.18 460.62 501.9C460.09 501.62 459.51 501.47 458.89 501.47C458.27 501.47 457.68 501.61 457.15 501.9C456.62 502.19 456.2 502.62 455.89 503.2C455.57 503.78 455.42 504.49 455.42 505.33C455.42 506.17 455.58 506.89 455.89 507.48C456.2 508.06 456.61 508.5 457.13 508.78C457.65 509.06 458.22 509.21 458.84 509.21C459.46 509.21 460.04 509.06 460.59 508.77H460.58Z" fill="#424242"/>
<path d="M474.61 501.11C475.4 501.88 475.79 502.98 475.79 504.43V510.57H474.08V504.68C474.08 503.64 473.82 502.85 473.3 502.3C472.78 501.75 472.07 501.47 471.17 501.47C470.27 501.47 469.53 501.75 468.99 502.32C468.45 502.89 468.18 503.72 468.18 504.81V510.57H466.45V500.16H468.18V501.64C468.52 501.11 468.99 500.7 469.58 500.4C470.17 500.11 470.82 499.96 471.53 499.96C472.8 499.96 473.82 500.34 474.61 501.11Z" fill="#424242"/>
<path d="M478.62 502.51C479.05 501.71 479.64 501.08 480.4 500.64C481.16 500.2 481.99 499.97 482.92 499.97C483.85 499.97 484.62 500.17 485.3 500.56C485.97 500.95 486.47 501.45 486.8 502.04V500.14H488.55V510.55H486.8V508.61C486.46 509.22 485.95 509.72 485.27 510.12C484.59 510.52 483.8 510.72 482.9 510.72C482 510.72 481.14 510.49 480.39 510.04C479.64 509.58 479.05 508.94 478.62 508.12C478.19 507.3 477.97 506.36 477.97 505.31C477.97 504.26 478.18 503.31 478.62 502.51ZM486.31 503.28C485.99 502.7 485.57 502.25 485.03 501.94C484.49 501.63 483.9 501.47 483.25 501.47C482.6 501.47 482.02 501.62 481.48 501.93C480.94 502.24 480.52 502.68 480.21 503.26C479.9 503.84 479.74 504.53 479.74 505.31C479.74 506.09 479.9 506.8 480.21 507.39C480.53 507.98 480.95 508.43 481.48 508.74C482.01 509.05 482.6 509.21 483.25 509.21C483.9 509.21 484.49 509.05 485.03 508.74C485.57 508.43 485.99 507.98 486.31 507.39C486.63 506.8 486.78 506.11 486.78 505.33C486.78 504.55 486.62 503.86 486.31 503.28Z" fill="#424242"/>
<path d="M493.19 496.5V510.56H491.46V496.5H493.19Z" fill="#424242"/>
<path d="M211.65 528.8H203.33C203.39 529.83 203.75 530.63 204.38 531.2C205.01 531.77 205.8 532.06 206.71 532.06C207.46 532.06 208.08 531.89 208.58 531.54C209.08 531.19 209.43 530.73 209.63 530.14H211.49C211.21 531.14 210.65 531.95 209.82 532.58C208.99 533.21 207.94 533.52 206.7 533.52C205.71 533.52 204.83 533.3 204.05 532.85C203.27 532.4 202.66 531.78 202.22 530.96C201.78 530.14 201.55 529.2 201.55 528.12C201.55 527.04 201.76 526.1 202.2 525.29C202.64 524.48 203.24 523.86 204.01 523.42C204.79 522.98 205.68 522.76 206.7 522.76C207.72 522.76 208.56 522.98 209.32 523.41C210.08 523.84 210.67 524.43 211.08 525.19C211.49 525.94 211.7 526.8 211.7 527.74C211.7 528.07 211.68 528.42 211.64 528.79L211.65 528.8ZM209.48 525.69C209.19 525.21 208.79 524.85 208.29 524.61C207.79 524.36 207.24 524.24 206.63 524.24C205.76 524.24 205.01 524.52 204.4 525.08C203.79 525.64 203.43 526.41 203.35 527.4H209.92C209.92 526.74 209.77 526.17 209.48 525.7V525.69Z" fill="#424242"/>
<path d="M228.67 523.26C229.3 523.6 229.8 524.1 230.17 524.77C230.54 525.44 230.72 526.26 230.72 527.22V533.36H229.01V527.47C229.01 526.43 228.75 525.64 228.24 525.09C227.73 524.54 227.03 524.26 226.16 524.26C225.29 524.26 224.55 524.55 224.01 525.12C223.47 525.69 223.21 526.53 223.21 527.62V533.36H221.5V527.47C221.5 526.43 221.24 525.64 220.73 525.09C220.22 524.54 219.52 524.26 218.65 524.26C217.78 524.26 217.04 524.55 216.5 525.12C215.96 525.69 215.7 526.53 215.7 527.62V533.36H213.97V522.95H215.7V524.45C216.04 523.91 216.5 523.49 217.08 523.2C217.66 522.91 218.29 522.76 218.99 522.76C219.86 522.76 220.64 522.96 221.31 523.35C221.98 523.74 222.48 524.32 222.81 525.08C223.1 524.35 223.58 523.78 224.25 523.37C224.92 522.96 225.67 522.76 226.49 522.76C227.31 522.76 228.02 522.93 228.66 523.26H228.67Z" fill="#424242"/>
<path d="M238.63 525.31C239.06 524.51 239.65 523.88 240.41 523.44C241.17 523 242.01 522.77 242.95 522.77C243.76 522.77 244.51 522.96 245.21 523.33C245.91 523.7 246.44 524.19 246.81 524.8V519.29H248.56V533.35H246.81V531.39C246.47 532.01 245.96 532.52 245.29 532.92C244.62 533.32 243.83 533.52 242.93 533.52C242.03 533.52 241.17 533.29 240.41 532.84C239.65 532.39 239.06 531.74 238.63 530.92C238.2 530.1 237.98 529.16 237.98 528.11C237.98 527.06 238.19 526.11 238.63 525.31ZM246.32 526.08C246 525.5 245.58 525.05 245.04 524.74C244.5 524.43 243.91 524.27 243.26 524.27C242.61 524.27 242.03 524.42 241.49 524.73C240.95 525.04 240.53 525.48 240.22 526.06C239.91 526.64 239.75 527.33 239.75 528.11C239.75 528.89 239.91 529.6 240.22 530.19C240.54 530.78 240.96 531.23 241.49 531.54C242.02 531.85 242.61 532.01 243.26 532.01C243.91 532.01 244.5 531.85 245.04 531.54C245.58 531.23 246 530.78 246.32 530.19C246.64 529.6 246.79 528.91 246.79 528.13C246.79 527.35 246.63 526.66 246.32 526.08Z" fill="#424242"/>
<path d="M251.53 520.91C251.3 520.68 251.19 520.4 251.19 520.07C251.19 519.74 251.3 519.46 251.53 519.23C251.76 519 252.04 518.89 252.37 518.89C252.7 518.89 252.95 519 253.18 519.23C253.4 519.46 253.51 519.74 253.51 520.07C253.51 520.4 253.4 520.68 253.18 520.91C252.96 521.14 252.69 521.25 252.37 521.25C252.05 521.25 251.76 521.14 251.53 520.91ZM253.2 522.95V533.36H251.47V522.95H253.2Z" fill="#424242"/>
<path d="M259.18 523.25C259.74 522.92 260.43 522.76 261.24 522.76V524.55H260.78C258.84 524.55 257.87 525.6 257.87 527.7V533.36H256.14V522.95H257.87V524.64C258.17 524.04 258.61 523.58 259.17 523.25H259.18Z" fill="#424242"/>
<path d="M272.68 528.8H264.36C264.42 529.83 264.78 530.63 265.41 531.2C266.04 531.77 266.83 532.06 267.74 532.06C268.49 532.06 269.11 531.89 269.61 531.54C270.11 531.19 270.46 530.73 270.66 530.14H272.52C272.24 531.14 271.68 531.95 270.85 532.58C270.02 533.21 268.97 533.52 267.73 533.52C266.74 533.52 265.86 533.3 265.08 532.85C264.3 532.4 263.69 531.78 263.25 530.96C262.81 530.14 262.58 529.2 262.58 528.12C262.58 527.04 262.79 526.1 263.23 525.29C263.67 524.48 264.27 523.86 265.04 523.42C265.82 522.98 266.71 522.76 267.73 522.76C268.75 522.76 269.59 522.98 270.35 523.41C271.11 523.84 271.7 524.43 272.11 525.19C272.52 525.94 272.73 526.8 272.73 527.74C272.73 528.07 272.71 528.42 272.67 528.79L272.68 528.8ZM270.51 525.69C270.22 525.21 269.82 524.85 269.32 524.61C268.82 524.36 268.27 524.24 267.66 524.24C266.79 524.24 266.04 524.52 265.43 525.08C264.82 525.64 264.46 526.41 264.38 527.4H270.95C270.95 526.74 270.8 526.17 270.51 525.7V525.69Z" fill="#424242"/>
<path d="M281.34 531.54C281.85 531.19 282.19 530.68 282.38 530.02H284.24C283.99 531.01 283.49 531.81 282.75 532.44C282.01 533.07 281.08 533.43 279.97 533.51V534.46C280.72 534.45 281.31 534.61 281.76 534.94C282.2 535.27 282.43 535.74 282.43 536.35C282.43 536.96 282.21 537.42 281.78 537.77C281.35 538.12 280.79 538.3 280.11 538.3H277.93V537.18H279.77C280.19 537.18 280.49 537.12 280.69 536.99C280.89 536.86 280.98 536.65 280.98 536.34C280.98 536.03 280.88 535.84 280.69 535.71C280.49 535.58 280.19 535.52 279.77 535.52H278.82V533.49C277.95 533.4 277.17 533.13 276.5 532.66C275.83 532.2 275.31 531.58 274.93 530.8C274.56 530.02 274.37 529.13 274.37 528.13C274.37 527.05 274.58 526.11 275.02 525.31C275.45 524.51 276.05 523.88 276.82 523.44C277.59 523 278.46 522.77 279.45 522.77C280.73 522.77 281.78 523.08 282.61 523.7C283.44 524.32 283.99 525.18 284.25 526.28H282.39C282.21 525.65 281.87 525.15 281.35 524.78C280.84 524.41 280.2 524.23 279.44 524.23C278.45 524.23 277.65 524.57 277.05 525.25C276.44 525.93 276.14 526.89 276.14 528.13C276.14 529.37 276.44 530.35 277.05 531.04C277.66 531.72 278.46 532.07 279.44 532.07C280.2 532.07 280.83 531.89 281.34 531.54Z" fill="#424242"/>
<path d="M286.55 525.31C286.98 524.51 287.57 523.88 288.33 523.44C289.09 523 289.92 522.77 290.85 522.77C291.78 522.77 292.55 522.97 293.23 523.36C293.9 523.75 294.4 524.25 294.73 524.84V522.94H296.48V533.35H294.73V531.41C294.39 532.02 293.88 532.52 293.2 532.92C292.52 533.32 291.73 533.52 290.83 533.52C289.93 533.52 289.07 533.29 288.32 532.84C287.57 532.38 286.98 531.74 286.55 530.92C286.12 530.1 285.9 529.16 285.9 528.11C285.9 527.06 286.11 526.11 286.55 525.31ZM294.24 526.08C293.92 525.5 293.5 525.05 292.96 524.74C292.42 524.43 291.83 524.27 291.18 524.27C290.53 524.27 289.95 524.42 289.41 524.73C288.87 525.04 288.45 525.48 288.14 526.06C287.83 526.64 287.67 527.33 287.67 528.11C287.67 528.89 287.83 529.6 288.14 530.19C288.46 530.78 288.88 531.23 289.41 531.54C289.94 531.85 290.53 532.01 291.18 532.01C291.83 532.01 292.42 531.85 292.96 531.54C293.5 531.23 293.92 530.78 294.24 530.19C294.56 529.6 294.71 528.91 294.71 528.13C294.71 527.35 294.55 526.66 294.24 526.08ZM289.37 520.34C289.71 520 290.13 519.83 290.63 519.83C290.87 519.83 291.08 519.87 291.25 519.95C291.42 520.03 291.63 520.15 291.87 520.3C292.05 520.43 292.2 520.52 292.34 520.59C292.48 520.66 292.63 520.69 292.8 520.69C293.02 520.69 293.2 520.62 293.35 520.48C293.5 520.34 293.6 520.14 293.64 519.87H294.63C294.55 520.5 294.34 520.99 294 521.33C293.66 521.67 293.23 521.84 292.73 521.84C292.49 521.84 292.28 521.8 292.09 521.72C291.91 521.64 291.7 521.51 291.47 521.35C291.27 521.22 291.11 521.13 290.99 521.06C290.87 521 290.73 520.97 290.56 520.97C290.35 520.97 290.16 521.04 290.02 521.18C289.87 521.32 289.78 521.53 289.74 521.81H288.73C288.82 521.16 289.03 520.67 289.37 520.33V520.34Z" fill="#424242"/>
<path d="M301.28 532.87C300.49 532.43 299.87 531.8 299.42 530.98C298.97 530.16 298.75 529.22 298.75 528.14C298.75 527.06 298.98 526.14 299.44 525.32C299.9 524.5 300.53 523.88 301.33 523.44C302.13 523 303.02 522.78 304.01 522.78C305 522.78 305.89 523 306.69 523.44C307.49 523.88 308.12 524.5 308.58 525.31C309.04 526.12 309.27 527.06 309.27 528.14C309.27 529.22 309.03 530.16 308.56 530.98C308.08 531.8 307.44 532.43 306.63 532.87C305.82 533.31 304.92 533.54 303.93 533.54C302.94 533.54 302.07 533.32 301.28 532.87ZM305.68 531.57C306.22 531.28 306.66 530.84 307 530.26C307.34 529.68 307.5 528.97 307.5 528.13C307.5 527.29 307.33 526.58 307.01 526C306.68 525.42 306.25 524.98 305.72 524.7C305.19 524.42 304.61 524.27 303.99 524.27C303.37 524.27 302.78 524.41 302.25 524.7C301.72 524.99 301.3 525.42 300.99 526C300.67 526.58 300.52 527.29 300.52 528.13C300.52 528.97 300.68 529.69 300.99 530.28C301.3 530.86 301.71 531.3 302.23 531.58C302.75 531.86 303.32 532.01 303.94 532.01C304.56 532.01 305.14 531.86 305.69 531.57H305.68Z" fill="#424242"/>
<path d="M316.62 525.31C317.05 524.51 317.64 523.88 318.4 523.44C319.16 523 319.99 522.77 320.92 522.77C321.85 522.77 322.62 522.97 323.3 523.36C323.97 523.75 324.47 524.25 324.8 524.84V522.94H326.55V533.35H324.8V531.41C324.46 532.02 323.95 532.52 323.27 532.92C322.59 533.32 321.8 533.52 320.9 533.52C320 533.52 319.14 533.29 318.39 532.84C317.64 532.38 317.05 531.74 316.62 530.92C316.19 530.1 315.97 529.16 315.97 528.11C315.97 527.06 316.18 526.11 316.62 525.31ZM324.32 526.08C324 525.5 323.58 525.05 323.04 524.74C322.5 524.43 321.91 524.27 321.26 524.27C320.61 524.27 320.03 524.42 319.49 524.73C318.95 525.04 318.53 525.48 318.22 526.06C317.91 526.64 317.75 527.33 317.75 528.11C317.75 528.89 317.91 529.6 318.22 530.19C318.54 530.78 318.96 531.23 319.49 531.54C320.02 531.85 320.61 532.01 321.26 532.01C321.91 532.01 322.5 531.85 323.04 531.54C323.58 531.23 324 530.78 324.32 530.19C324.64 529.6 324.79 528.91 324.79 528.13C324.79 527.35 324.63 526.66 324.32 526.08Z" fill="#424242"/>
<path d="M331.36 532.87C330.57 532.43 329.95 531.8 329.5 530.98C329.05 530.16 328.83 529.22 328.83 528.14C328.83 527.06 329.06 526.14 329.52 525.32C329.98 524.5 330.61 523.88 331.41 523.44C332.21 523 333.1 522.78 334.09 522.78C335.08 522.78 335.97 523 336.77 523.44C337.57 523.88 338.2 524.5 338.66 525.31C339.12 526.12 339.35 527.06 339.35 528.14C339.35 529.22 339.11 530.16 338.64 530.98C338.16 531.8 337.52 532.43 336.71 532.87C335.9 533.31 335 533.54 334.01 533.54C333.02 533.54 332.15 533.32 331.36 532.87ZM335.76 531.57C336.3 531.28 336.74 530.84 337.08 530.26C337.42 529.68 337.58 528.97 337.58 528.13C337.58 527.29 337.41 526.58 337.09 526C336.76 525.42 336.33 524.98 335.8 524.7C335.27 524.42 334.69 524.27 334.07 524.27C333.45 524.27 332.86 524.41 332.33 524.7C331.8 524.99 331.38 525.42 331.07 526C330.75 526.58 330.6 527.29 330.6 528.13C330.6 528.97 330.76 529.69 331.07 530.28C331.38 530.86 331.79 531.3 332.31 531.58C332.83 531.86 333.4 532.01 334.02 532.01C334.64 532.01 335.22 531.86 335.77 531.57H335.76Z" fill="#424242"/>
<path d="M346.7 525.31C347.13 524.51 347.73 523.88 348.5 523.44C349.27 523 350.14 522.77 351.13 522.77C352.41 522.77 353.46 523.08 354.29 523.7C355.12 524.32 355.67 525.18 355.93 526.28H354.07C353.89 525.65 353.55 525.15 353.03 524.78C352.52 524.41 351.88 524.23 351.12 524.23C350.13 524.23 349.33 524.57 348.73 525.25C348.12 525.93 347.82 526.89 347.82 528.13C347.82 529.37 348.12 530.35 348.73 531.04C349.34 531.72 350.14 532.07 351.12 532.07C351.88 532.07 352.51 531.89 353.02 531.54C353.53 531.19 353.87 530.68 354.06 530.02H355.92C355.64 531.08 355.08 531.94 354.25 532.58C353.42 533.22 352.37 533.54 351.11 533.54C350.12 533.54 349.24 533.32 348.48 532.87C347.71 532.43 347.11 531.8 346.68 530.99C346.25 530.18 346.03 529.23 346.03 528.14C346.03 527.05 346.24 526.12 346.68 525.32L346.7 525.31Z" fill="#424242"/>
<path d="M367.68 528.8H359.36C359.42 529.83 359.78 530.63 360.41 531.2C361.04 531.77 361.83 532.06 362.74 532.06C363.49 532.06 364.11 531.89 364.61 531.54C365.11 531.19 365.46 530.73 365.66 530.14H367.52C367.24 531.14 366.68 531.95 365.85 532.58C365.02 533.21 363.97 533.52 362.73 533.52C361.74 533.52 360.86 533.3 360.08 532.85C359.3 532.4 358.69 531.78 358.25 530.96C357.81 530.14 357.58 529.2 357.58 528.12C357.58 527.04 357.79 526.1 358.23 525.29C358.67 524.48 359.27 523.86 360.04 523.42C360.82 522.98 361.71 522.76 362.73 522.76C363.75 522.76 364.59 522.98 365.35 523.41C366.11 523.84 366.7 524.43 367.11 525.19C367.52 525.94 367.73 526.8 367.73 527.74C367.73 528.07 367.71 528.42 367.67 528.79L367.68 528.8ZM365.51 525.69C365.22 525.21 364.82 524.85 364.32 524.61C363.82 524.36 363.27 524.24 362.66 524.24C361.79 524.24 361.04 524.52 360.43 525.08C359.82 525.64 359.46 526.41 359.38 527.4H365.95C365.95 526.74 365.8 526.17 365.51 525.7V525.69Z" fill="#424242"/>
<path d="M378.16 523.91C378.95 524.68 379.34 525.78 379.34 527.23V533.37H377.63V527.48C377.63 526.44 377.37 525.65 376.85 525.1C376.33 524.55 375.62 524.27 374.72 524.27C373.82 524.27 373.08 524.55 372.54 525.12C372 525.69 371.73 526.52 371.73 527.61V533.37H370V522.96H371.73V524.44C372.07 523.91 372.54 523.5 373.13 523.2C373.72 522.91 374.37 522.76 375.08 522.76C376.35 522.76 377.37 523.14 378.16 523.91Z" fill="#424242"/>
<path d="M384.28 524.37V530.51C384.28 531.02 384.39 531.37 384.6 531.58C384.82 531.79 385.19 531.89 385.72 531.89H386.99V533.35H385.43C384.47 533.35 383.74 533.13 383.26 532.68C382.78 532.24 382.54 531.51 382.54 530.5V524.36H381.19V522.94H382.54V520.32H384.27V522.94H386.99V524.36H384.27L384.28 524.37Z" fill="#424242"/>
<path d="M392.12 523.25C392.68 522.92 393.37 522.76 394.18 522.76V524.55H393.72C391.78 524.55 390.81 525.6 390.81 527.7V533.36H389.08V522.95H390.81V524.64C391.11 524.04 391.55 523.58 392.11 523.25H392.12Z" fill="#424242"/>
<path d="M398.07 532.87C397.28 532.43 396.66 531.8 396.21 530.98C395.76 530.16 395.54 529.22 395.54 528.14C395.54 527.06 395.77 526.14 396.23 525.32C396.69 524.5 397.32 523.88 398.12 523.44C398.92 523 399.81 522.78 400.8 522.78C401.79 522.78 402.68 523 403.48 523.44C404.28 523.88 404.91 524.5 405.37 525.31C405.83 526.12 406.06 527.06 406.06 528.14C406.06 529.22 405.82 530.16 405.35 530.98C404.87 531.8 404.23 532.43 403.42 532.87C402.61 533.31 401.71 533.54 400.72 533.54C399.73 533.54 398.86 533.32 398.07 532.87ZM402.46 531.57C403 531.28 403.44 530.84 403.78 530.26C404.12 529.68 404.28 528.97 404.28 528.13C404.28 527.29 404.11 526.58 403.79 526C403.46 525.42 403.03 524.98 402.5 524.7C401.97 524.42 401.39 524.27 400.77 524.27C400.15 524.27 399.56 524.41 399.03 524.7C398.5 524.99 398.08 525.42 397.77 526C397.45 526.58 397.3 527.29 397.3 528.13C397.3 528.97 397.46 529.69 397.77 530.28C398.08 530.86 398.49 531.3 399.01 531.58C399.53 531.86 400.1 532.01 400.72 532.01C401.34 532.01 401.92 531.86 402.47 531.57H402.46Z" fill="#424242"/>
<path d="M409.58 99.02H202.27V444.53H409.58V99.02Z" fill="#CCCCCC"/>
<path d="M413.36 92.0601H206.05V437.57H413.36V92.0601Z" fill="white"/>
<path d="M309.7 92.27V437.27" stroke="#969696" stroke-width="2"/>
<path d="M401.12 163.39C401.12 163.39 370.26 103.9 329.31 144.78" stroke="#B2CCA2" stroke-width="2"/>
<path d="M321.37 153.86C323.57 148.21 325.56 140.56 325.62 134.76L330.44 143.65L339.83 147.4C334.08 148.13 326.71 151.01 321.37 153.86Z" fill="#B2CCA2"/>
<path d="M310 92.27L413 243.27" stroke="#B2CCA2" stroke-width="2"/>
<path d="M213.88 169.39C213.88 169.39 244.74 109.9 285.69 150.78" stroke="#B2CCA2" stroke-width="2"/>
<path d="M293.63 159.86C288.28 157.01 280.91 154.14 275.16 153.4L284.56 149.65L289.38 140.76C289.43 146.55 291.43 154.21 293.63 159.86Z" fill="#B2CCA2"/>
<path d="M305 98.27L202 249.27" stroke="#B2CCA2" stroke-width="2"/>
</svg>
