<svg width="601" height="578" viewBox="0 0 601 578" fill="none" xmlns="http://www.w3.org/2000/svg">
<path d="M554.02 58.95H70.4401C44.9964 58.95 24.3701 79.5762 24.3701 105.02V531.2C24.3701 556.644 44.9964 577.27 70.4401 577.27H554.02C579.464 577.27 600.09 556.644 600.09 531.2V105.02C600.09 79.5762 579.464 58.95 554.02 58.95Z" fill="#D3D3D3"/>
<path d="M549.4 49.27H65.82C40.3762 49.27 19.75 69.8963 19.75 95.34V521.52C19.75 546.964 40.3762 567.59 65.82 567.59H549.4C574.844 567.59 595.47 546.964 595.47 521.52V95.34C595.47 69.8963 574.844 49.27 549.4 49.27Z" fill="#AED8A4"/>
<path d="M43.73 89.27C66.7603 89.27 85.43 70.5689 85.43 47.5C85.43 24.4311 66.7603 5.72998 43.73 5.72998C20.6998 5.72998 2.03003 24.4311 2.03003 47.5C2.03003 70.5689 20.6998 89.27 43.73 89.27Z" fill="#CCA98B" stroke="#F2F2F2"/>
<path d="M43.69 85.6699C66.7203 85.6699 85.39 66.9688 85.39 43.8999C85.39 20.8309 66.7203 2.12988 43.69 2.12988C20.6597 2.12988 1.98999 20.8309 1.98999 43.8999C1.98999 66.9688 20.6597 85.6699 43.69 85.6699Z" fill="white" stroke="#F2F2F2" stroke-width="3"/>
<path d="M27.1399 29.86C28.9399 28.28 31.3799 27.49 34.4699 27.49C36.5199 27.49 38.2699 27.84 39.7299 28.55C41.1899 29.26 42.2899 30.23 43.0399 31.46C43.7899 32.69 44.1699 34.07 44.1699 35.59C44.1699 37.39 43.7199 38.86 42.8199 39.99C41.9199 41.12 40.8699 41.89 39.6699 42.3V42.46C41.2199 42.98 42.4499 43.84 43.3499 45.04C44.2499 46.24 44.6999 47.78 44.6999 49.66C44.6999 51.35 44.3099 52.85 43.5299 54.14C42.7499 55.43 41.6199 56.45 40.1299 57.19C38.6399 57.93 36.8799 58.29 34.8299 58.29C31.5599 58.29 28.9399 57.49 26.9899 55.88C25.0399 54.27 24.0099 51.84 23.8999 48.6H30.6899C30.7199 49.8 31.0599 50.75 31.7099 51.44C32.3699 52.14 33.3199 52.48 34.5799 52.48C35.6399 52.48 36.4699 52.17 37.0599 51.56C37.6499 50.95 37.9399 50.13 37.9399 49.12C37.9399 47.81 37.5199 46.86 36.6899 46.28C35.8599 45.69 34.5299 45.4 32.6999 45.4H31.3899V39.71H32.6999C34.0899 39.71 35.2199 39.47 36.0799 38.99C36.9399 38.51 37.3699 37.66 37.3699 36.43C37.3699 35.45 37.0999 34.68 36.5499 34.14C35.9999 33.6 35.2499 33.32 34.2999 33.32C33.2599 33.32 32.4899 33.63 31.9899 34.26C31.4799 34.89 31.1899 35.67 31.1099 36.59H24.2799C24.3899 33.67 25.3399 31.42 27.1499 29.84L27.1399 29.86Z" fill="#AED8A4"/>
<path d="M49.01 32.58C49.71 31.48 50.69 30.61 51.96 29.98C53.23 29.35 54.68 29.04 56.32 29.04C57.96 29.04 59.41 29.35 60.68 29.98C61.95 30.61 62.93 31.47 63.63 32.58C64.33 33.69 64.67 34.96 64.67 36.41C64.67 37.86 64.32 39.14 63.61 40.26C62.9 41.38 61.91 42.26 60.64 42.9C59.37 43.54 57.92 43.86 56.28 43.86C54.64 43.86 53.2 43.54 51.94 42.9C50.68 42.26 49.71 41.38 49.01 40.26C48.31 39.14 47.97 37.86 47.97 36.41C47.97 34.96 48.32 33.69 49.01 32.58ZM58.4 33.95C57.83 33.38 57.12 33.09 56.27 33.09C55.42 33.09 54.76 33.38 54.2 33.95C53.64 34.52 53.36 35.36 53.36 36.45C53.36 37.54 53.63 38.33 54.18 38.91C54.73 39.49 55.42 39.7701 56.27 39.7701C57.12 39.7701 57.82 39.48 58.4 38.89C58.97 38.3 59.26 37.4901 59.26 36.4601C59.26 35.3701 58.97 34.5401 58.4 33.9601V33.95Z" fill="#AED8A4"/>
<path d="M105.38 35.45C104.59 36.22 103.38 36.6 101.75 36.6H99.07V42.42H97.25V28.48H101.75C103.32 28.48 104.52 28.86 105.34 29.62C106.16 30.38 106.57 31.36 106.57 32.56C106.57 33.76 106.17 34.68 105.38 35.45ZM103.99 34.44C104.47 34 104.71 33.37 104.71 32.56C104.71 30.84 103.72 29.98 101.75 29.98H99.07V35.1H101.75C102.76 35.1 103.51 34.88 103.99 34.44Z" fill="#AED8A4"/>
<path d="M108.83 33.95C109.28 33.1 109.91 32.45 110.7 31.98C111.49 31.51 112.38 31.28 113.35 31.28C114.32 31.28 115.14 31.49 115.85 31.9C116.56 32.31 117.08 32.83 117.43 33.46V31.46H119.27V42.42H117.43V40.38C117.07 41.02 116.53 41.55 115.82 41.97C115.11 42.39 114.28 42.6 113.33 42.6C112.38 42.6 111.48 42.36 110.69 41.88C109.9 41.4 109.28 40.73 108.83 39.86C108.38 38.99 108.15 38.01 108.15 36.9C108.15 35.79 108.38 34.8 108.83 33.95ZM116.93 34.76C116.6 34.15 116.15 33.68 115.58 33.35C115.01 33.02 114.39 32.86 113.71 32.86C113.03 32.86 112.41 33.02 111.85 33.34C111.29 33.66 110.84 34.13 110.51 34.74C110.18 35.35 110.01 36.07 110.01 36.9C110.01 37.73 110.18 38.47 110.51 39.09C110.84 39.71 111.29 40.18 111.85 40.51C112.41 40.84 113.03 41 113.71 41C114.39 41 115.01 40.84 115.58 40.51C116.15 40.18 116.6 39.71 116.93 39.09C117.26 38.47 117.43 37.75 117.43 36.92C117.43 36.09 117.26 35.37 116.93 34.76Z" fill="#AED8A4"/>
<path d="M123.97 42.17C123.3 41.88 122.78 41.48 122.39 40.97C122 40.46 121.79 39.87 121.75 39.2H123.63C123.68 39.75 123.94 40.19 124.4 40.54C124.86 40.89 125.46 41.06 126.21 41.06C126.9 41.06 127.45 40.91 127.85 40.6C128.25 40.29 128.45 39.91 128.45 39.44C128.45 38.97 128.24 38.6 127.81 38.37C127.38 38.14 126.72 37.91 125.83 37.68C125.02 37.47 124.35 37.25 123.84 37.03C123.33 36.81 122.89 36.48 122.52 36.05C122.15 35.62 121.97 35.05 121.97 34.34C121.97 33.78 122.14 33.27 122.47 32.8C122.8 32.33 123.28 31.96 123.89 31.69C124.5 31.42 125.2 31.28 125.99 31.28C127.2 31.28 128.18 31.59 128.93 32.2C129.68 32.81 130.08 33.65 130.13 34.72H128.31C128.27 34.15 128.04 33.69 127.62 33.34C127.2 32.99 126.64 32.82 125.93 32.82C125.28 32.82 124.76 32.96 124.37 33.24C123.98 33.52 123.79 33.89 123.79 34.34C123.79 34.7 123.91 35 124.14 35.23C124.37 35.46 124.67 35.65 125.02 35.79C125.37 35.93 125.86 36.09 126.49 36.26C127.28 36.47 127.92 36.68 128.41 36.89C128.9 37.1 129.33 37.41 129.68 37.82C130.03 38.23 130.22 38.77 130.23 39.44C130.23 40.04 130.06 40.58 129.73 41.06C129.4 41.54 128.93 41.92 128.32 42.19C127.71 42.46 127.02 42.6 126.23 42.6C125.39 42.6 124.64 42.46 123.97 42.17Z" fill="#AED8A4"/>
<path d="M134.41 42.17C133.74 41.88 133.22 41.48 132.83 40.97C132.44 40.46 132.23 39.87 132.19 39.2H134.07C134.12 39.75 134.38 40.19 134.84 40.54C135.3 40.89 135.9 41.06 136.65 41.06C137.34 41.06 137.89 40.91 138.29 40.6C138.69 40.29 138.89 39.91 138.89 39.44C138.89 38.97 138.68 38.6 138.25 38.37C137.82 38.14 137.16 37.91 136.27 37.68C135.46 37.47 134.79 37.25 134.28 37.03C133.77 36.81 133.33 36.48 132.96 36.05C132.59 35.62 132.41 35.05 132.41 34.34C132.41 33.78 132.58 33.27 132.91 32.8C133.24 32.33 133.72 31.96 134.33 31.69C134.94 31.42 135.64 31.28 136.43 31.28C137.64 31.28 138.62 31.59 139.37 32.2C140.12 32.81 140.52 33.65 140.57 34.72H138.75C138.71 34.15 138.48 33.69 138.06 33.34C137.64 32.99 137.08 32.82 136.37 32.82C135.72 32.82 135.2 32.96 134.81 33.24C134.42 33.52 134.23 33.89 134.23 34.34C134.23 34.7 134.35 35 134.58 35.23C134.81 35.46 135.11 35.65 135.46 35.79C135.81 35.93 136.3 36.09 136.93 36.26C137.72 36.47 138.36 36.68 138.85 36.89C139.34 37.1 139.77 37.41 140.12 37.82C140.47 38.23 140.66 38.77 140.67 39.44C140.67 40.04 140.5 40.58 140.17 41.06C139.84 41.54 139.37 41.92 138.76 42.19C138.15 42.46 137.46 42.6 136.67 42.6C135.83 42.6 135.08 42.46 134.41 42.17Z" fill="#AED8A4"/>
<path d="M145.22 41.9C144.39 41.43 143.73 40.77 143.26 39.91C142.79 39.05 142.55 38.05 142.55 36.92C142.55 35.79 142.79 34.81 143.28 33.95C143.77 33.09 144.43 32.43 145.27 31.97C146.11 31.51 147.05 31.28 148.09 31.28C149.13 31.28 150.07 31.51 150.91 31.97C151.75 32.43 152.41 33.09 152.9 33.94C153.39 34.79 153.63 35.79 153.63 36.92C153.63 38.05 153.38 39.05 152.88 39.91C152.38 40.77 151.7 41.43 150.85 41.9C150 42.37 149.05 42.6 148.01 42.6C146.97 42.6 146.05 42.37 145.22 41.9ZM149.85 40.54C150.42 40.23 150.89 39.77 151.24 39.16C151.59 38.55 151.77 37.8 151.77 36.92C151.77 36.04 151.6 35.29 151.25 34.68C150.9 34.07 150.45 33.61 149.89 33.31C149.33 33.01 148.72 32.86 148.07 32.86C147.42 32.86 146.79 33.01 146.24 33.31C145.69 33.61 145.24 34.07 144.91 34.68C144.58 35.29 144.41 36.04 144.41 36.92C144.41 37.8 144.57 38.57 144.9 39.18C145.23 39.79 145.66 40.25 146.21 40.55C146.76 40.85 147.36 41 148.01 41C148.66 41 149.28 40.85 149.85 40.54Z" fill="#AED8A4"/>
<path d="M246.63 498.12C247.69 498.66 248.5 499.43 249.06 500.43C249.62 501.43 249.91 502.61 249.91 503.96C249.91 505.31 249.63 506.49 249.06 507.48C248.5 508.47 247.68 509.23 246.63 509.76C245.57 510.29 244.32 510.55 242.88 510.55H238.76V497.31H242.88C244.32 497.31 245.57 497.58 246.63 498.12ZM246.8 507.78C247.7 506.87 248.15 505.6 248.15 503.97C248.15 502.34 247.7 501.04 246.79 500.11C245.88 499.19 244.58 498.72 242.89 498.72H240.5V509.13H242.89C244.6 509.13 245.9 508.68 246.8 507.77V507.78Z" fill="#424242"/>
<path d="M254.08 510.07C253.29 509.63 252.67 509 252.22 508.18C251.77 507.36 251.55 506.42 251.55 505.34C251.55 504.26 251.78 503.34 252.24 502.52C252.7 501.7 253.33 501.08 254.13 500.64C254.93 500.2 255.82 499.98 256.81 499.98C257.8 499.98 258.69 500.2 259.49 500.64C260.29 501.08 260.92 501.7 261.38 502.51C261.84 503.32 262.07 504.26 262.07 505.34C262.07 506.42 261.83 507.36 261.36 508.18C260.89 509 260.24 509.63 259.43 510.07C258.62 510.51 257.72 510.74 256.73 510.74C255.74 510.74 254.87 510.52 254.08 510.07ZM258.48 508.77C259.02 508.48 259.46 508.04 259.8 507.46C260.14 506.88 260.3 506.17 260.3 505.33C260.3 504.49 260.14 503.78 259.81 503.2C259.48 502.62 259.05 502.18 258.52 501.9C257.99 501.61 257.41 501.47 256.79 501.47C256.17 501.47 255.58 501.61 255.05 501.9C254.52 502.19 254.1 502.62 253.79 503.2C253.47 503.78 253.32 504.49 253.32 505.33C253.32 506.17 253.48 506.89 253.79 507.48C254.1 508.06 254.51 508.5 255.03 508.78C255.55 509.06 256.12 509.21 256.74 509.21C257.36 509.21 257.94 509.06 258.49 508.77H258.48Z" fill="#424242"/>
<path d="M267.64 500.57C268.32 500.18 269.1 499.98 269.98 499.98C270.92 499.98 271.76 500.2 272.51 500.65C273.26 501.09 273.85 501.72 274.28 502.52C274.71 503.32 274.93 504.26 274.93 505.32C274.93 506.38 274.72 507.31 274.28 508.13C273.85 508.95 273.26 509.59 272.5 510.05C271.74 510.51 270.91 510.73 269.98 510.73C269.05 510.73 268.29 510.53 267.61 510.14C266.93 509.75 266.42 509.25 266.08 508.64V510.56H264.35V496.5H266.08V502.09C266.43 501.47 266.95 500.96 267.64 500.57ZM272.67 503.26C272.35 502.68 271.93 502.23 271.39 501.93C270.85 501.63 270.26 501.47 269.61 501.47C268.96 501.47 268.39 501.63 267.85 501.94C267.31 502.25 266.88 502.7 266.56 503.29C266.24 503.88 266.08 504.56 266.08 505.33C266.08 506.1 266.24 506.8 266.56 507.39C266.88 507.98 267.31 508.43 267.85 508.74C268.39 509.05 268.97 509.21 269.61 509.21C270.25 509.21 270.85 509.05 271.39 508.74C271.93 508.43 272.35 507.98 272.67 507.39C272.99 506.8 273.14 506.11 273.14 505.31C273.14 504.51 272.98 503.84 272.67 503.26Z" fill="#424242"/>
<path d="M280.23 500.45C280.79 500.12 281.48 499.96 282.29 499.96V501.75H281.83C279.89 501.75 278.92 502.8 278.92 504.9V510.56H277.19V500.15H278.92V501.84C279.22 501.24 279.66 500.78 280.22 500.45H280.23Z" fill="#424242"/>
<path d="M293.73 506H285.41C285.47 507.03 285.82 507.83 286.46 508.4C287.1 508.98 287.87 509.26 288.79 509.26C289.54 509.26 290.16 509.09 290.66 508.74C291.16 508.39 291.51 507.93 291.71 507.34H293.57C293.29 508.34 292.73 509.15 291.9 509.78C291.07 510.41 290.02 510.72 288.78 510.72C287.79 510.72 286.91 510.5 286.13 510.05C285.35 509.6 284.74 508.98 284.3 508.16C283.85 507.34 283.63 506.4 283.63 505.32C283.63 504.24 283.84 503.3 284.28 502.49C284.71 501.68 285.32 501.06 286.09 500.62C286.87 500.18 287.76 499.96 288.78 499.96C289.8 499.96 290.64 500.18 291.4 500.61C292.16 501.04 292.75 501.63 293.16 502.39C293.57 503.14 293.78 504 293.78 504.94C293.78 505.27 293.76 505.62 293.72 505.99L293.73 506ZM291.56 502.89C291.27 502.41 290.87 502.05 290.37 501.81C289.87 501.56 289.32 501.44 288.71 501.44C287.84 501.44 287.09 501.72 286.48 502.28C285.87 502.84 285.52 503.61 285.43 504.6H292C292 503.94 291.86 503.37 291.56 502.9V502.89Z" fill="#424242"/>
<path d="M301.13 502.51C301.56 501.71 302.15 501.08 302.91 500.64C303.67 500.2 304.5 499.97 305.43 499.97C306.36 499.97 307.13 500.17 307.81 500.56C308.49 500.95 308.98 501.45 309.31 502.04V500.14H311.06V510.55H309.31V508.61C308.97 509.22 308.46 509.72 307.78 510.12C307.1 510.52 306.32 510.72 305.41 510.72C304.5 510.72 303.65 510.49 302.9 510.04C302.15 509.59 301.56 508.94 301.13 508.12C300.7 507.3 300.49 506.36 300.49 505.31C300.49 504.26 300.7 503.31 301.13 502.51ZM308.83 503.28C308.51 502.7 308.09 502.25 307.55 501.94C307.01 501.63 306.42 501.47 305.77 501.47C305.12 501.47 304.54 501.62 304 501.93C303.47 502.23 303.04 502.68 302.73 503.26C302.42 503.84 302.26 504.53 302.26 505.31C302.26 506.09 302.42 506.8 302.73 507.39C303.05 507.98 303.47 508.43 304 508.74C304.53 509.05 305.12 509.21 305.77 509.21C306.42 509.21 307.01 509.05 307.55 508.74C308.09 508.43 308.51 507.98 308.83 507.39C309.15 506.8 309.3 506.11 309.3 505.33C309.3 504.55 309.14 503.86 308.83 503.28Z" fill="#424242"/>
<path d="M315.87 510.07C315.08 509.63 314.46 509 314.01 508.18C313.56 507.36 313.34 506.42 313.34 505.34C313.34 504.26 313.57 503.34 314.03 502.52C314.49 501.7 315.12 501.08 315.92 500.64C316.72 500.2 317.61 499.98 318.6 499.98C319.59 499.98 320.48 500.2 321.28 500.64C322.08 501.08 322.71 501.7 323.17 502.51C323.63 503.32 323.86 504.26 323.86 505.34C323.86 506.42 323.62 507.36 323.15 508.18C322.68 509 322.03 509.63 321.22 510.07C320.41 510.51 319.51 510.74 318.52 510.74C317.53 510.74 316.66 510.52 315.87 510.07ZM320.27 508.77C320.81 508.48 321.25 508.04 321.59 507.46C321.93 506.88 322.09 506.17 322.09 505.33C322.09 504.49 321.93 503.78 321.6 503.2C321.27 502.62 320.84 502.18 320.31 501.9C319.78 501.61 319.2 501.47 318.58 501.47C317.96 501.47 317.37 501.61 316.84 501.9C316.31 502.19 315.89 502.62 315.58 503.2C315.26 503.78 315.11 504.49 315.11 505.33C315.11 506.17 315.27 506.89 315.58 507.48C315.89 508.06 316.3 508.5 316.82 508.78C317.34 509.06 317.91 509.21 318.53 509.21C319.15 509.21 319.73 509.06 320.28 508.77H320.27Z" fill="#424242"/>
<path d="M345.9 500.46C346.53 500.8 347.03 501.3 347.4 501.97C347.77 502.64 347.95 503.46 347.95 504.42V510.56H346.24V504.67C346.24 503.63 345.98 502.84 345.47 502.29C344.96 501.74 344.26 501.46 343.39 501.46C342.52 501.46 341.78 501.75 341.24 502.32C340.71 502.9 340.44 503.73 340.44 504.82V510.56H338.73V504.67C338.73 503.63 338.47 502.84 337.96 502.29C337.45 501.74 336.75 501.46 335.88 501.46C335.01 501.46 334.26 501.75 333.73 502.32C333.2 502.9 332.93 503.73 332.93 504.82V510.56H331.2V500.15H332.93V501.65C333.27 501.11 333.73 500.69 334.31 500.4C334.89 500.11 335.52 499.96 336.22 499.96C337.09 499.96 337.87 500.16 338.54 500.55C339.21 500.94 339.71 501.52 340.04 502.28C340.33 501.55 340.81 500.98 341.49 500.57C342.16 500.16 342.91 499.96 343.73 499.96C344.55 499.96 345.26 500.13 345.9 500.46Z" fill="#424242"/>
<path d="M360.23 506H351.91C351.97 507.03 352.32 507.83 352.96 508.4C353.6 508.98 354.37 509.26 355.29 509.26C356.04 509.26 356.66 509.09 357.16 508.74C357.66 508.39 358.01 507.93 358.21 507.34H360.07C359.79 508.34 359.23 509.15 358.4 509.78C357.57 510.41 356.52 510.72 355.28 510.72C354.29 510.72 353.41 510.5 352.63 510.05C351.85 509.6 351.24 508.98 350.8 508.16C350.35 507.34 350.13 506.4 350.13 505.32C350.13 504.24 350.34 503.3 350.78 502.49C351.21 501.68 351.82 501.06 352.59 500.62C353.37 500.18 354.26 499.96 355.28 499.96C356.3 499.96 357.14 500.18 357.9 500.61C358.66 501.04 359.25 501.63 359.66 502.39C360.07 503.14 360.28 504 360.28 504.94C360.28 505.27 360.26 505.62 360.22 505.99L360.23 506ZM358.06 502.89C357.77 502.41 357.37 502.05 356.87 501.81C356.37 501.56 355.82 501.44 355.21 501.44C354.34 501.44 353.59 501.72 352.98 502.28C352.37 502.84 352.02 503.61 351.93 504.6H358.5C358.5 503.94 358.36 503.37 358.06 502.9V502.89Z" fill="#424242"/>
<path d="M362.62 498.11C362.39 497.88 362.28 497.6 362.28 497.27C362.28 496.94 362.39 496.66 362.62 496.43C362.85 496.2 363.13 496.09 363.46 496.09C363.79 496.09 364.05 496.2 364.27 496.43C364.49 496.66 364.6 496.94 364.6 497.27C364.6 497.6 364.49 497.88 364.27 498.11C364.05 498.34 363.78 498.45 363.46 498.45C363.14 498.45 362.85 498.34 362.62 498.11ZM364.29 500.15V510.56H362.56V500.15H364.29Z" fill="#424242"/>
<path d="M369.13 510.07C368.34 509.63 367.72 509 367.27 508.18C366.82 507.36 366.6 506.42 366.6 505.34C366.6 504.26 366.83 503.34 367.29 502.52C367.75 501.7 368.38 501.08 369.18 500.64C369.98 500.2 370.87 499.98 371.86 499.98C372.85 499.98 373.74 500.2 374.54 500.64C375.34 501.08 375.97 501.7 376.43 502.51C376.89 503.32 377.12 504.26 377.12 505.34C377.12 506.42 376.88 507.36 376.41 508.18C375.93 509 375.29 509.63 374.48 510.07C373.67 510.51 372.77 510.74 371.78 510.74C370.79 510.74 369.92 510.52 369.13 510.07ZM373.53 508.77C374.07 508.48 374.51 508.04 374.85 507.46C375.19 506.88 375.35 506.17 375.35 505.33C375.35 504.49 375.18 503.78 374.86 503.2C374.53 502.62 374.1 502.18 373.57 501.9C373.04 501.61 372.46 501.47 371.84 501.47C371.22 501.47 370.63 501.61 370.1 501.9C369.57 502.19 369.15 502.62 368.84 503.2C368.52 503.78 368.37 504.49 368.37 505.33C368.37 506.17 368.52 506.89 368.83 507.48C369.14 508.06 369.55 508.5 370.07 508.78C370.59 509.06 371.16 509.21 371.78 509.21C372.4 509.21 372.98 509.06 373.53 508.77Z" fill="#424242"/>
<path d="M403.58 250.27H196.27V444.53H403.58V250.27Z" fill="#CCCCCC"/>
<path d="M407.36 437.58H200.05V249.27L304 92.27L407.36 248.91V437.58Z" fill="white"/>
<path d="M263.37 328.39C263.37 328.39 294.23 268.9 335.18 309.78" stroke="#B2CCA2" stroke-width="2"/>
<path d="M343.12 318.86C337.77 316.01 330.4 313.14 324.65 312.4L334.05 308.65L338.87 299.76C338.93 305.55 340.92 313.21 343.12 318.86Z" fill="#B2CCA2"/>
<path d="M407.5 250.77H304.5V93.77L407.5 250.77Z" fill="#F7F7F7" stroke="#AFAFAF"/>
<path d="M200.5 250.77H303.5V93.77L200.5 250.77Z" fill="#F7F7F7" stroke="#AFAFAF"/>
<path d="M303.7 92.27V98.27" stroke="#B2CCA2" stroke-width="2"/>
<path d="M303.7 110.61V425.11" stroke="#B2CCA2" stroke-width="2"/>
<path d="M303.7 431.27V437.27" stroke="#B2CCA2" stroke-width="2"/>
</svg>
