<svg width="597" height="578" viewBox="0 0 597 578" fill="none" xmlns="http://www.w3.org/2000/svg">
<path d="M550.02 58.95H66.4401C40.9964 58.95 20.3701 79.5762 20.3701 105.02V531.2C20.3701 556.644 40.9964 577.27 66.4401 577.27H550.02C575.464 577.27 596.09 556.644 596.09 531.2V105.02C596.09 79.5762 575.464 58.95 550.02 58.95Z" fill="#D3D3D3"/>
<path d="M545.6 49.27H62.0202C36.5764 49.27 15.9502 69.8963 15.9502 95.34V521.52C15.9502 546.964 36.5764 567.59 62.0202 567.59H545.6C571.044 567.59 591.67 546.964 591.67 521.52V95.34C591.67 69.8963 571.044 49.27 545.6 49.27Z" fill="#AED8A4"/>
<path d="M43.7303 89.27C66.7606 89.27 85.4303 70.5689 85.4303 47.5C85.4303 24.4311 66.7606 5.72998 43.7303 5.72998C20.7 5.72998 2.03027 24.4311 2.03027 47.5C2.03027 70.5689 20.7 89.27 43.7303 89.27Z" fill="#CCA98B" stroke="#F2F2F2"/>
<path d="M43.6902 85.6699C66.7205 85.6699 85.3902 66.9688 85.3902 43.8999C85.3902 20.8309 66.7205 2.12988 43.6902 2.12988C20.66 2.12988 1.99023 20.8309 1.99023 43.8999C1.99023 66.9688 20.66 85.6699 43.6902 85.6699Z" fill="white" stroke="#F2F2F2" stroke-width="3"/>
<path d="M44.1404 34.2799H31.3705V39.9299C31.9105 39.3299 32.6805 38.8399 33.6605 38.4599C34.6405 38.0799 35.7104 37.8899 36.8504 37.8899C38.9004 37.8899 40.6004 38.3499 41.9504 39.2799C43.3004 40.2099 44.2904 41.4099 44.9204 42.8799C45.5504 44.3499 45.8605 45.9499 45.8605 47.6699C45.8605 50.8599 44.9605 53.3899 43.1605 55.2599C41.3605 57.1299 38.8205 58.0599 35.5505 58.0599C33.3705 58.0599 31.4705 57.6799 29.8605 56.9399C28.2505 56.1999 27.0104 55.1499 26.1404 53.8099C25.2704 52.4699 24.7904 50.9299 24.7104 49.1899H31.5405C31.7005 50.0399 32.1005 50.7399 32.7305 51.2999C33.3605 51.8599 34.2204 52.1399 35.3104 52.1399C36.5904 52.1399 37.5504 51.7299 38.1704 50.9099C38.8004 50.0899 39.1105 48.9999 39.1105 47.6399C39.1105 46.2799 38.7804 45.2799 38.1304 44.5699C37.4804 43.8599 36.5204 43.5099 35.2704 43.5099C34.3404 43.5099 33.5805 43.7399 32.9805 44.1899C32.3805 44.6399 31.9805 45.2299 31.7905 45.9699H25.0405V28.1699H44.1505V34.3099L44.1404 34.2799Z" fill="#AED8A4"/>
<path d="M49.9306 32.58C50.6306 31.48 51.6106 30.61 52.8806 29.98C54.1506 29.35 55.6006 29.04 57.2406 29.04C58.8806 29.04 60.3306 29.35 61.6006 29.98C62.8706 30.61 63.8506 31.47 64.5506 32.58C65.2506 33.69 65.5906 34.96 65.5906 36.41C65.5906 37.86 65.2406 39.14 64.5306 40.26C63.8206 41.38 62.8306 42.26 61.5606 42.9C60.2906 43.54 58.8406 43.86 57.2006 43.86C55.5606 43.86 54.1206 43.54 52.8606 42.9C51.6006 42.26 50.6306 41.38 49.9306 40.26C49.2306 39.14 48.8906 37.86 48.8906 36.41C48.8906 34.96 49.2406 33.69 49.9306 32.58ZM59.3206 33.95C58.7506 33.38 58.0406 33.09 57.1906 33.09C56.3406 33.09 55.6806 33.38 55.1206 33.95C54.5606 34.52 54.2806 35.36 54.2806 36.45C54.2806 37.54 54.5506 38.33 55.1006 38.91C55.6506 39.49 56.3406 39.7701 57.1906 39.7701C58.0406 39.7701 58.7406 39.48 59.3206 38.89C59.8906 38.3 60.1806 37.4901 60.1806 36.4601C60.1806 35.3701 59.8906 34.5401 59.3206 33.9601V33.95Z" fill="#AED8A4"/>
<path d="M105.38 35.45C104.59 36.22 103.38 36.6 101.75 36.6H99.07V42.42H97.25V28.48H101.75C103.32 28.48 104.52 28.86 105.34 29.62C106.16 30.38 106.57 31.36 106.57 32.56C106.57 33.76 106.17 34.68 105.38 35.45ZM103.99 34.44C104.47 34 104.71 33.37 104.71 32.56C104.71 30.84 103.72 29.98 101.75 29.98H99.07V35.1H101.75C102.76 35.1 103.51 34.88 103.99 34.44Z" fill="#AED8A4"/>
<path d="M108.83 33.95C109.28 33.1 109.91 32.45 110.7 31.98C111.49 31.51 112.38 31.28 113.35 31.28C114.32 31.28 115.14 31.49 115.85 31.9C116.56 32.31 117.08 32.83 117.43 33.46V31.46H119.27V42.42H117.43V40.38C117.07 41.02 116.53 41.55 115.82 41.97C115.11 42.39 114.28 42.6 113.33 42.6C112.38 42.6 111.48 42.36 110.69 41.88C109.9 41.4 109.28 40.73 108.83 39.86C108.38 38.99 108.15 38.01 108.15 36.9C108.15 35.79 108.38 34.8 108.83 33.95ZM116.93 34.76C116.6 34.15 116.15 33.68 115.58 33.35C115.01 33.02 114.39 32.86 113.71 32.86C113.03 32.86 112.41 33.02 111.85 33.34C111.29 33.66 110.84 34.13 110.51 34.74C110.18 35.35 110.01 36.07 110.01 36.9C110.01 37.73 110.18 38.47 110.51 39.09C110.84 39.71 111.29 40.18 111.85 40.51C112.41 40.84 113.03 41 113.71 41C114.39 41 115.01 40.84 115.58 40.51C116.15 40.18 116.6 39.71 116.93 39.09C117.26 38.47 117.43 37.75 117.43 36.92C117.43 36.09 117.26 35.37 116.93 34.76Z" fill="#AED8A4"/>
<path d="M123.97 42.17C123.3 41.88 122.78 41.48 122.39 40.97C122 40.46 121.79 39.87 121.75 39.2H123.63C123.68 39.75 123.94 40.19 124.4 40.54C124.86 40.89 125.46 41.06 126.21 41.06C126.9 41.06 127.45 40.91 127.85 40.6C128.25 40.29 128.45 39.91 128.45 39.44C128.45 38.97 128.24 38.6 127.81 38.37C127.38 38.14 126.72 37.91 125.83 37.68C125.02 37.47 124.35 37.25 123.84 37.03C123.33 36.81 122.89 36.48 122.52 36.05C122.15 35.62 121.97 35.05 121.97 34.34C121.97 33.78 122.14 33.27 122.47 32.8C122.8 32.33 123.28 31.96 123.89 31.69C124.5 31.42 125.2 31.28 125.99 31.28C127.2 31.28 128.18 31.59 128.93 32.2C129.68 32.81 130.08 33.65 130.13 34.72H128.31C128.27 34.15 128.04 33.69 127.62 33.34C127.2 32.99 126.64 32.82 125.93 32.82C125.28 32.82 124.76 32.96 124.37 33.24C123.98 33.52 123.79 33.89 123.79 34.34C123.79 34.7 123.91 35 124.14 35.23C124.37 35.46 124.67 35.65 125.02 35.79C125.37 35.93 125.86 36.09 126.49 36.26C127.28 36.47 127.92 36.68 128.41 36.89C128.9 37.1 129.33 37.41 129.68 37.82C130.03 38.23 130.22 38.77 130.23 39.44C130.23 40.04 130.06 40.58 129.73 41.06C129.4 41.54 128.93 41.92 128.32 42.19C127.71 42.46 127.02 42.6 126.23 42.6C125.39 42.6 124.64 42.46 123.97 42.17Z" fill="#AED8A4"/>
<path d="M134.41 42.17C133.74 41.88 133.22 41.48 132.83 40.97C132.44 40.46 132.23 39.87 132.19 39.2H134.07C134.12 39.75 134.38 40.19 134.84 40.54C135.3 40.89 135.9 41.06 136.65 41.06C137.34 41.06 137.89 40.91 138.29 40.6C138.69 40.29 138.89 39.91 138.89 39.44C138.89 38.97 138.68 38.6 138.25 38.37C137.82 38.14 137.16 37.91 136.27 37.68C135.46 37.47 134.79 37.25 134.28 37.03C133.77 36.81 133.33 36.48 132.96 36.05C132.59 35.62 132.41 35.05 132.41 34.34C132.41 33.78 132.58 33.27 132.91 32.8C133.24 32.33 133.72 31.96 134.33 31.69C134.94 31.42 135.64 31.28 136.43 31.28C137.64 31.28 138.62 31.59 139.37 32.2C140.12 32.81 140.52 33.65 140.57 34.72H138.75C138.71 34.15 138.48 33.69 138.06 33.34C137.64 32.99 137.08 32.82 136.37 32.82C135.72 32.82 135.2 32.96 134.81 33.24C134.42 33.52 134.23 33.89 134.23 34.34C134.23 34.7 134.35 35 134.58 35.23C134.81 35.46 135.11 35.65 135.46 35.79C135.81 35.93 136.3 36.09 136.93 36.26C137.72 36.47 138.36 36.68 138.85 36.89C139.34 37.1 139.77 37.41 140.12 37.82C140.47 38.23 140.66 38.77 140.67 39.44C140.67 40.04 140.5 40.58 140.17 41.06C139.84 41.54 139.37 41.92 138.76 42.19C138.15 42.46 137.46 42.6 136.67 42.6C135.83 42.6 135.08 42.46 134.41 42.17Z" fill="#AED8A4"/>
<path d="M145.22 41.9C144.39 41.43 143.73 40.77 143.26 39.91C142.79 39.05 142.55 38.05 142.55 36.92C142.55 35.79 142.79 34.81 143.28 33.95C143.77 33.09 144.43 32.43 145.27 31.97C146.11 31.51 147.05 31.28 148.09 31.28C149.13 31.28 150.07 31.51 150.91 31.97C151.75 32.43 152.41 33.09 152.9 33.94C153.39 34.79 153.63 35.79 153.63 36.92C153.63 38.05 153.38 39.05 152.88 39.91C152.38 40.77 151.7 41.43 150.85 41.9C150 42.37 149.05 42.6 148.01 42.6C146.97 42.6 146.05 42.37 145.22 41.9ZM149.85 40.54C150.42 40.23 150.89 39.77 151.24 39.16C151.59 38.55 151.77 37.8 151.77 36.92C151.77 36.04 151.6 35.29 151.25 34.68C150.9 34.07 150.45 33.61 149.89 33.31C149.33 33.01 148.72 32.86 148.07 32.86C147.42 32.86 146.79 33.01 146.24 33.31C145.69 33.61 145.24 34.07 144.91 34.68C144.58 35.29 144.41 36.04 144.41 36.92C144.41 37.8 144.57 38.57 144.9 39.18C145.23 39.79 145.66 40.25 146.21 40.55C146.76 40.85 147.36 41 148.01 41C148.66 41 149.28 40.85 149.85 40.54Z" fill="#AED8A4"/>
<path d="M160.09 503.94C159.34 504.67 158.19 505.03 156.64 505.03H154.09V510.56H152.36V497.32H156.64C158.13 497.32 159.27 497.68 160.05 498.4C160.83 499.12 161.22 500.05 161.22 501.19C161.22 502.33 160.84 503.21 160.09 503.94ZM158.77 502.98C159.23 502.56 159.45 501.97 159.45 501.19C159.45 499.56 158.51 498.74 156.64 498.74H154.09V503.6H156.64C157.6 503.6 158.31 503.39 158.77 502.97V502.98Z" fill="#424242"/>
<path d="M166.4 500.45C166.96 500.12 167.65 499.96 168.46 499.96V501.75H168C166.06 501.75 165.09 502.8 165.09 504.9V510.56H163.36V500.15H165.09V501.84C165.39 501.24 165.83 500.78 166.39 500.45H166.4Z" fill="#424242"/>
<path d="M172.35 510.07C171.56 509.63 170.94 509 170.49 508.18C170.04 507.36 169.82 506.42 169.82 505.34C169.82 504.26 170.05 503.34 170.51 502.52C170.97 501.7 171.6 501.08 172.4 500.64C173.2 500.2 174.09 499.98 175.08 499.98C176.07 499.98 176.96 500.2 177.76 500.64C178.56 501.08 179.19 501.7 179.65 502.51C180.11 503.32 180.34 504.26 180.34 505.34C180.34 506.42 180.1 507.36 179.63 508.18C179.15 509 178.51 509.63 177.7 510.07C176.89 510.51 175.99 510.74 175 510.74C174.01 510.74 173.14 510.52 172.35 510.07ZM176.75 508.77C177.29 508.48 177.73 508.04 178.07 507.46C178.41 506.88 178.57 506.17 178.57 505.33C178.57 504.49 178.4 503.78 178.08 503.2C177.75 502.62 177.32 502.18 176.79 501.9C176.26 501.62 175.68 501.47 175.06 501.47C174.44 501.47 173.85 501.61 173.32 501.9C172.79 502.19 172.37 502.62 172.06 503.2C171.74 503.78 171.59 504.49 171.59 505.33C171.59 506.17 171.75 506.89 172.06 507.48C172.37 508.06 172.78 508.5 173.3 508.78C173.82 509.06 174.39 509.21 175.01 509.21C175.63 509.21 176.21 509.06 176.76 508.77H176.75Z" fill="#424242"/>
<path d="M190.77 501.11C191.56 501.88 191.95 502.98 191.95 504.43V510.57H190.24V504.68C190.24 503.64 189.98 502.85 189.46 502.3C188.94 501.75 188.23 501.47 187.33 501.47C186.43 501.47 185.69 501.75 185.15 502.32C184.61 502.89 184.34 503.72 184.34 504.81V510.57H182.61V500.16H184.34V501.64C184.68 501.11 185.15 500.7 185.74 500.4C186.33 500.11 186.98 499.96 187.69 499.96C188.96 499.96 189.98 500.34 190.77 501.11Z" fill="#424242"/>
<path d="M196.89 501.57V507.71C196.89 508.22 197 508.57 197.21 508.78C197.43 508.99 197.8 509.09 198.33 509.09H199.6V510.55H198.04C197.08 510.55 196.35 510.33 195.87 509.88C195.39 509.44 195.15 508.71 195.15 507.7V501.56H193.8V500.14H195.15V497.52H196.88V500.14H199.6V501.56H196.88L196.89 501.57Z" fill="#424242"/>
<path d="M203.58 510.07C202.79 509.63 202.17 509 201.72 508.18C201.27 507.36 201.05 506.42 201.05 505.34C201.05 504.26 201.28 503.34 201.74 502.52C202.2 501.7 202.83 501.08 203.63 500.64C204.43 500.2 205.32 499.98 206.31 499.98C207.3 499.98 208.19 500.2 208.99 500.64C209.79 501.08 210.42 501.7 210.88 502.51C211.34 503.32 211.57 504.26 211.57 505.34C211.57 506.42 211.33 507.36 210.86 508.18C210.38 509 209.74 509.63 208.93 510.07C208.12 510.51 207.22 510.74 206.23 510.74C205.24 510.74 204.37 510.52 203.58 510.07ZM207.98 508.77C208.52 508.48 208.96 508.04 209.3 507.46C209.64 506.88 209.8 506.17 209.8 505.33C209.8 504.49 209.63 503.78 209.31 503.2C208.98 502.62 208.55 502.18 208.02 501.9C207.49 501.62 206.91 501.47 206.29 501.47C205.67 501.47 205.08 501.61 204.55 501.9C204.02 502.19 203.6 502.62 203.29 503.2C202.97 503.78 202.82 504.49 202.82 505.33C202.82 506.17 202.98 506.89 203.29 507.48C203.6 508.06 204.01 508.5 204.53 508.78C205.05 509.06 205.62 509.21 206.24 509.21C206.86 509.21 207.44 509.06 207.99 508.77H207.98Z" fill="#424242"/>
<path d="M215.64 508.17L213.51 513.28H212.35L213.74 508.17H215.64Z" fill="#424242"/>
<path d="M224.23 510.32C223.6 510.05 223.1 509.67 222.73 509.18C222.36 508.69 222.16 508.13 222.12 507.5H223.91C223.96 508.02 224.2 508.44 224.64 508.77C225.08 509.1 225.65 509.26 226.36 509.26C227.02 509.26 227.54 509.11 227.92 508.82C228.3 508.53 228.49 508.16 228.49 507.72C228.49 507.28 228.29 506.93 227.88 506.7C227.47 506.48 226.85 506.26 226 506.04C225.23 505.84 224.6 505.63 224.11 505.42C223.62 505.21 223.2 504.9 222.86 504.49C222.51 504.08 222.34 503.54 222.34 502.87C222.34 502.34 222.5 501.85 222.82 501.41C223.14 500.97 223.59 500.62 224.17 500.36C224.75 500.1 225.42 499.97 226.17 499.97C227.32 499.97 228.25 500.26 228.96 500.84C229.67 501.42 230.05 502.22 230.1 503.23H228.37C228.33 502.69 228.11 502.25 227.71 501.92C227.31 501.59 226.78 501.43 226.1 501.43C225.48 501.43 224.98 501.56 224.62 501.83C224.25 502.1 224.07 502.44 224.07 502.87C224.07 503.21 224.18 503.49 224.4 503.72C224.62 503.95 224.9 504.12 225.24 504.25C225.58 504.38 226.04 504.53 226.64 504.7C227.39 504.9 227.99 505.1 228.46 505.3C228.93 505.5 229.33 505.79 229.67 506.18C230 506.57 230.18 507.09 230.19 507.72C230.19 508.29 230.03 508.8 229.71 509.26C229.39 509.72 228.95 510.07 228.37 510.33C227.79 510.59 227.13 510.72 226.38 510.72C225.58 510.72 224.87 510.58 224.23 510.31V510.32Z" fill="#424242"/>
<path d="M242.05 506H233.73C233.79 507.03 234.15 507.83 234.78 508.4C235.41 508.97 236.2 509.26 237.11 509.26C237.86 509.26 238.48 509.09 238.98 508.74C239.48 508.39 239.83 507.93 240.03 507.34H241.89C241.61 508.34 241.05 509.15 240.22 509.78C239.39 510.41 238.34 510.72 237.1 510.72C236.11 510.72 235.23 510.5 234.45 510.05C233.67 509.6 233.06 508.98 232.62 508.16C232.18 507.34 231.95 506.4 231.95 505.32C231.95 504.24 232.16 503.3 232.6 502.49C233.04 501.68 233.64 501.06 234.41 500.62C235.19 500.18 236.08 499.96 237.1 499.96C238.12 499.96 238.96 500.18 239.72 500.61C240.48 501.04 241.07 501.63 241.48 502.39C241.89 503.14 242.1 504 242.1 504.94C242.1 505.27 242.08 505.62 242.04 505.99L242.05 506ZM239.88 502.89C239.59 502.41 239.19 502.05 238.69 501.81C238.19 501.56 237.64 501.44 237.03 501.44C236.16 501.44 235.41 501.72 234.8 502.28C234.19 502.84 233.83 503.61 233.75 504.6H240.32C240.32 503.94 240.17 503.37 239.88 502.9V502.89Z" fill="#424242"/>
<path d="M253.62 500.15V510.56H251.89V509.02C251.56 509.55 251.1 509.97 250.51 510.26C249.92 510.56 249.27 510.71 248.56 510.71C247.75 510.71 247.02 510.54 246.38 510.21C245.73 509.88 245.22 509.37 244.85 508.7C244.48 508.03 244.29 507.21 244.29 506.25V500.15H246V506.02C246 507.05 246.26 507.83 246.78 508.39C247.3 508.94 248.01 509.22 248.91 509.22C249.81 509.22 250.56 508.93 251.09 508.36C251.62 507.79 251.89 506.96 251.89 505.87V500.15H253.62Z" fill="#424242"/>
<path d="M261.62 502.51C262.05 501.71 262.64 501.08 263.4 500.64C264.16 500.2 264.99 499.97 265.92 499.97C266.85 499.97 267.62 500.17 268.3 500.56C268.97 500.95 269.47 501.45 269.8 502.04V500.14H271.55V510.55H269.8V508.61C269.46 509.22 268.95 509.72 268.27 510.12C267.59 510.52 266.8 510.72 265.9 510.72C265 510.72 264.14 510.49 263.39 510.04C262.64 509.58 262.05 508.94 261.62 508.12C261.19 507.3 260.97 506.36 260.97 505.31C260.97 504.26 261.18 503.31 261.62 502.51ZM269.31 503.28C268.99 502.7 268.57 502.25 268.03 501.94C267.49 501.63 266.9 501.47 266.25 501.47C265.6 501.47 265.02 501.62 264.48 501.93C263.94 502.24 263.52 502.68 263.21 503.26C262.9 503.84 262.74 504.53 262.74 505.31C262.74 506.09 262.9 506.8 263.21 507.39C263.53 507.98 263.95 508.43 264.48 508.74C265.01 509.05 265.6 509.21 266.25 509.21C266.9 509.21 267.49 509.05 268.03 508.74C268.57 508.43 268.99 507.98 269.31 507.39C269.63 506.8 269.78 506.11 269.78 505.33C269.78 504.55 269.62 503.86 269.31 503.28Z" fill="#424242"/>
<path d="M278.34 508.96L281.57 500.14H283.41L279.33 510.55H277.32L273.23 500.14H275.09L278.34 508.96Z" fill="#424242"/>
<path d="M285.18 498.11C284.95 497.88 284.84 497.6 284.84 497.27C284.84 496.94 284.95 496.66 285.18 496.43C285.41 496.2 285.69 496.09 286.02 496.09C286.35 496.09 286.6 496.2 286.83 496.43C287.05 496.66 287.16 496.94 287.16 497.27C287.16 497.6 287.05 497.88 286.83 498.11C286.61 498.34 286.34 498.45 286.02 498.45C285.7 498.45 285.41 498.34 285.18 498.11ZM286.85 500.15V510.56H285.12V500.15H286.85Z" fill="#424242"/>
<path d="M289.8 502.51C290.23 501.71 290.82 501.08 291.58 500.64C292.34 500.2 293.17 499.97 294.1 499.97C295.03 499.97 295.8 500.17 296.48 500.56C297.15 500.95 297.65 501.45 297.98 502.04V500.14H299.73V510.55H297.98V508.61C297.64 509.22 297.13 509.72 296.45 510.12C295.77 510.52 294.98 510.72 294.08 510.72C293.18 510.72 292.32 510.49 291.57 510.04C290.82 509.58 290.23 508.94 289.8 508.12C289.37 507.3 289.15 506.36 289.15 505.31C289.15 504.26 289.36 503.31 289.8 502.51ZM297.49 503.28C297.17 502.7 296.75 502.25 296.21 501.94C295.67 501.63 295.08 501.47 294.43 501.47C293.78 501.47 293.2 501.62 292.66 501.93C292.12 502.24 291.7 502.68 291.39 503.26C291.08 503.84 290.92 504.53 290.92 505.31C290.92 506.09 291.08 506.8 291.39 507.39C291.71 507.98 292.13 508.43 292.66 508.74C293.19 509.05 293.78 509.21 294.43 509.21C295.08 509.21 295.67 509.05 296.21 508.74C296.75 508.43 297.17 507.98 297.49 507.39C297.81 506.8 297.96 506.11 297.96 505.33C297.96 504.55 297.8 503.86 297.49 503.28ZM292.62 497.55C292.96 497.21 293.38 497.04 293.88 497.04C294.12 497.04 294.33 497.08 294.5 497.16C294.67 497.24 294.88 497.36 295.12 497.51C295.3 497.64 295.45 497.73 295.59 497.8C295.73 497.87 295.88 497.9 296.05 497.9C296.27 497.9 296.45 497.83 296.6 497.69C296.75 497.55 296.85 497.35 296.89 497.08H297.88C297.8 497.71 297.59 498.2 297.25 498.54C296.91 498.88 296.48 499.05 295.98 499.05C295.74 499.05 295.53 499.01 295.34 498.93C295.16 498.85 294.95 498.72 294.72 498.56C294.52 498.43 294.36 498.34 294.24 498.27C294.12 498.21 293.98 498.18 293.81 498.18C293.6 498.18 293.41 498.25 293.27 498.39C293.12 498.53 293.03 498.74 292.99 499.02H291.98C292.07 498.37 292.28 497.88 292.62 497.54V497.55Z" fill="#424242"/>
<path d="M304.53 510.07C303.74 509.63 303.12 509 302.67 508.18C302.22 507.36 302 506.42 302 505.34C302 504.26 302.23 503.34 302.69 502.52C303.15 501.7 303.78 501.08 304.58 500.64C305.38 500.2 306.27 499.98 307.26 499.98C308.25 499.98 309.14 500.2 309.94 500.64C310.74 501.08 311.37 501.7 311.83 502.51C312.29 503.32 312.52 504.26 312.52 505.34C312.52 506.42 312.28 507.36 311.81 508.18C311.33 509 310.69 509.63 309.88 510.07C309.07 510.51 308.17 510.74 307.18 510.74C306.19 510.74 305.32 510.52 304.53 510.07ZM308.93 508.77C309.47 508.48 309.91 508.04 310.25 507.46C310.59 506.88 310.75 506.17 310.75 505.33C310.75 504.49 310.58 503.78 310.26 503.2C309.93 502.62 309.5 502.18 308.97 501.9C308.44 501.62 307.86 501.47 307.24 501.47C306.62 501.47 306.03 501.61 305.5 501.9C304.97 502.19 304.55 502.62 304.24 503.2C303.92 503.78 303.77 504.49 303.77 505.33C303.77 506.17 303.93 506.89 304.24 507.48C304.55 508.06 304.96 508.5 305.48 508.78C306 509.06 306.57 509.21 307.19 509.21C307.81 509.21 308.39 509.06 308.94 508.77H308.93Z" fill="#424242"/>
<path d="M329.32 506H321C321.06 507.03 321.42 507.83 322.05 508.4C322.68 508.97 323.47 509.26 324.38 509.26C325.13 509.26 325.75 509.09 326.25 508.74C326.75 508.39 327.1 507.93 327.3 507.34H329.16C328.88 508.34 328.32 509.15 327.49 509.78C326.66 510.41 325.61 510.72 324.37 510.72C323.38 510.72 322.5 510.5 321.72 510.05C320.94 509.6 320.33 508.98 319.89 508.16C319.45 507.34 319.22 506.4 319.22 505.32C319.22 504.24 319.43 503.3 319.87 502.49C320.31 501.68 320.91 501.06 321.68 500.62C322.46 500.18 323.35 499.96 324.37 499.96C325.39 499.96 326.23 500.18 326.99 500.61C327.75 501.04 328.34 501.63 328.75 502.39C329.16 503.14 329.37 504 329.37 504.94C329.37 505.27 329.35 505.62 329.31 505.99L329.32 506ZM327.15 502.89C326.86 502.41 326.46 502.05 325.96 501.81C325.46 501.56 324.91 501.44 324.3 501.44C323.43 501.44 322.68 501.72 322.07 502.28C321.46 502.84 321.1 503.61 321.02 504.6H327.59C327.59 503.94 327.44 503.37 327.15 502.9V502.89Z" fill="#424242"/>
<path d="M333.19 510.32C332.56 510.05 332.06 509.67 331.69 509.18C331.32 508.69 331.12 508.13 331.08 507.5H332.87C332.92 508.02 333.16 508.44 333.6 508.77C334.04 509.1 334.61 509.26 335.32 509.26C335.98 509.26 336.5 509.11 336.88 508.82C337.26 508.53 337.45 508.16 337.45 507.72C337.45 507.28 337.25 506.93 336.84 506.7C336.43 506.48 335.81 506.26 334.96 506.04C334.19 505.84 333.56 505.63 333.07 505.42C332.58 505.21 332.16 504.9 331.82 504.49C331.47 504.08 331.3 503.54 331.3 502.87C331.3 502.34 331.46 501.85 331.78 501.41C332.1 500.97 332.55 500.62 333.13 500.36C333.71 500.1 334.38 499.97 335.13 499.97C336.28 499.97 337.21 500.26 337.92 500.84C338.63 501.42 339.01 502.22 339.06 503.23H337.33C337.29 502.69 337.07 502.25 336.67 501.92C336.27 501.59 335.74 501.43 335.06 501.43C334.44 501.43 333.94 501.56 333.58 501.83C333.21 502.1 333.03 502.44 333.03 502.87C333.03 503.21 333.14 503.49 333.36 503.72C333.58 503.95 333.86 504.12 334.2 504.25C334.54 504.38 335 504.53 335.6 504.7C336.35 504.9 336.95 505.1 337.42 505.3C337.89 505.5 338.29 505.79 338.63 506.18C338.96 506.57 339.14 507.09 339.15 507.72C339.15 508.29 338.99 508.8 338.67 509.26C338.35 509.72 337.91 510.07 337.33 510.33C336.75 510.59 336.09 510.72 335.34 510.72C334.54 510.72 333.83 510.58 333.19 510.31V510.32Z" fill="#424242"/>
<path d="M343.68 501.57V507.71C343.68 508.22 343.79 508.57 344 508.78C344.22 508.99 344.59 509.09 345.12 509.09H346.39V510.55H344.83C343.87 510.55 343.14 510.33 342.66 509.88C342.18 509.44 341.94 508.71 341.94 507.7V501.56H340.59V500.14H341.94V497.52H343.67V500.14H346.39V501.56H343.67L343.68 501.57Z" fill="#424242"/>
<path d="M348.49 502.51C348.92 501.71 349.51 501.08 350.27 500.64C351.03 500.2 351.86 499.97 352.79 499.97C353.72 499.97 354.49 500.17 355.17 500.56C355.84 500.95 356.34 501.45 356.67 502.04V500.14H358.42V510.55H356.67V508.61C356.33 509.22 355.82 509.72 355.14 510.12C354.46 510.52 353.67 510.72 352.77 510.72C351.87 510.72 351.01 510.49 350.26 510.04C349.51 509.58 348.92 508.94 348.49 508.12C348.06 507.3 347.84 506.36 347.84 505.31C347.84 504.26 348.05 503.31 348.49 502.51ZM356.18 503.28C355.86 502.7 355.44 502.25 354.9 501.94C354.36 501.63 353.77 501.47 353.12 501.47C352.47 501.47 351.89 501.62 351.35 501.93C350.81 502.24 350.39 502.68 350.08 503.26C349.77 503.84 349.61 504.53 349.61 505.31C349.61 506.09 349.77 506.8 350.08 507.39C350.4 507.98 350.82 508.43 351.35 508.74C351.88 509.05 352.47 509.21 353.12 509.21C353.77 509.21 354.36 509.05 354.9 508.74C355.44 508.43 355.86 507.98 356.18 507.39C356.5 506.8 356.65 506.11 356.65 505.33C356.65 504.55 356.49 503.86 356.18 503.28ZM355.31 497.2L351.26 499.37V498.08L355.31 495.7V497.2Z" fill="#424242"/>
<path d="M370.64 501.57H368.45V510.56H366.72V501.57H365.37V500.15H366.72V499.41C366.72 498.24 367.02 497.39 367.62 496.85C368.22 496.31 369.19 496.04 370.52 496.04V497.48C369.76 497.48 369.23 497.63 368.91 497.93C368.6 498.23 368.44 498.72 368.44 499.4V500.14H370.63V501.56L370.64 501.57Z" fill="#424242"/>
<path d="M372.71 498.11C372.48 497.88 372.37 497.6 372.37 497.27C372.37 496.94 372.48 496.66 372.71 496.43C372.94 496.2 373.22 496.09 373.55 496.09C373.88 496.09 374.13 496.2 374.36 496.43C374.58 496.66 374.69 496.94 374.69 497.27C374.69 497.6 374.58 497.88 374.36 498.11C374.14 498.34 373.87 498.45 373.55 498.45C373.23 498.45 372.94 498.34 372.71 498.11ZM374.38 500.15V510.56H372.65V500.15H374.38Z" fill="#424242"/>
<path d="M385.48 501.11C386.27 501.88 386.66 502.98 386.66 504.43V510.57H384.95V504.68C384.95 503.64 384.69 502.85 384.17 502.3C383.65 501.75 382.94 501.47 382.04 501.47C381.14 501.47 380.4 501.75 379.86 502.32C379.32 502.89 379.05 503.72 379.05 504.81V510.57H377.32V500.16H379.05V501.64C379.39 501.11 379.86 500.7 380.45 500.4C381.04 500.11 381.69 499.96 382.4 499.96C383.67 499.96 384.69 500.34 385.48 501.11Z" fill="#424242"/>
<path d="M389.49 502.51C389.92 501.71 390.51 501.08 391.27 500.64C392.03 500.2 392.86 499.97 393.79 499.97C394.72 499.97 395.49 500.17 396.17 500.56C396.84 500.95 397.34 501.45 397.67 502.04V500.14H399.42V510.55H397.67V508.61C397.33 509.22 396.82 509.72 396.14 510.12C395.46 510.52 394.67 510.72 393.77 510.72C392.87 510.72 392.01 510.49 391.26 510.04C390.51 509.58 389.92 508.94 389.49 508.12C389.06 507.3 388.84 506.36 388.84 505.31C388.84 504.26 389.05 503.31 389.49 502.51ZM397.18 503.28C396.86 502.7 396.44 502.25 395.9 501.94C395.36 501.63 394.77 501.47 394.12 501.47C393.47 501.47 392.89 501.62 392.35 501.93C391.81 502.24 391.39 502.68 391.08 503.26C390.77 503.84 390.61 504.53 390.61 505.31C390.61 506.09 390.77 506.8 391.08 507.39C391.4 507.98 391.82 508.43 392.35 508.74C392.88 509.05 393.47 509.21 394.12 509.21C394.77 509.21 395.36 509.05 395.9 508.74C396.44 508.43 396.86 507.98 397.18 507.39C397.5 506.8 397.65 506.11 397.65 505.33C397.65 504.55 397.49 503.86 397.18 503.28Z" fill="#424242"/>
<path d="M404.06 496.5V510.56H402.33V496.5H404.06Z" fill="#424242"/>
<path d="M407.06 498.11C406.83 497.88 406.72 497.6 406.72 497.27C406.72 496.94 406.83 496.66 407.06 496.43C407.29 496.2 407.57 496.09 407.9 496.09C408.23 496.09 408.48 496.2 408.71 496.43C408.93 496.66 409.04 496.94 409.04 497.27C409.04 497.6 408.93 497.88 408.71 498.11C408.49 498.34 408.22 498.45 407.9 498.45C407.58 498.45 407.29 498.34 407.06 498.11ZM408.73 500.15V510.56H407V500.15H408.73Z" fill="#424242"/>
<path d="M412.97 509.13H418.08V510.55H410.99V509.13L416.04 501.55H411.02V500.14H418.03V501.55L412.96 509.13H412.97Z" fill="#424242"/>
<path d="M420.32 502.51C420.75 501.71 421.34 501.08 422.1 500.64C422.86 500.2 423.69 499.97 424.62 499.97C425.55 499.97 426.32 500.17 427 500.56C427.67 500.95 428.17 501.45 428.5 502.04V500.14H430.25V510.55H428.5V508.61C428.16 509.22 427.65 509.72 426.97 510.12C426.29 510.52 425.5 510.72 424.6 510.72C423.7 510.72 422.84 510.49 422.09 510.04C421.34 509.58 420.75 508.94 420.32 508.12C419.89 507.3 419.67 506.36 419.67 505.31C419.67 504.26 419.88 503.31 420.32 502.51ZM428.02 503.28C427.7 502.7 427.28 502.25 426.74 501.94C426.2 501.63 425.61 501.47 424.96 501.47C424.31 501.47 423.73 501.62 423.19 501.93C422.65 502.24 422.23 502.68 421.92 503.26C421.61 503.84 421.45 504.53 421.45 505.31C421.45 506.09 421.61 506.8 421.92 507.39C422.24 507.98 422.66 508.43 423.19 508.74C423.72 509.05 424.31 509.21 424.96 509.21C425.61 509.21 426.2 509.05 426.74 508.74C427.28 508.43 427.7 507.98 428.02 507.39C428.34 506.8 428.49 506.11 428.49 505.33C428.49 504.55 428.33 503.86 428.02 503.28Z" fill="#424242"/>
<path d="M433.17 502.51C433.6 501.71 434.19 501.08 434.95 500.64C435.71 500.2 436.55 499.97 437.49 499.97C438.3 499.97 439.05 500.16 439.75 500.53C440.45 500.9 440.98 501.39 441.35 502V496.49H443.1V510.55H441.35V508.59C441.01 509.21 440.5 509.72 439.83 510.12C439.16 510.52 438.37 510.72 437.47 510.72C436.57 510.72 435.71 510.49 434.95 510.04C434.19 509.59 433.6 508.94 433.17 508.12C432.74 507.3 432.52 506.36 432.52 505.31C432.52 504.26 432.73 503.31 433.17 502.51ZM440.86 503.28C440.54 502.7 440.12 502.25 439.58 501.94C439.04 501.63 438.45 501.47 437.8 501.47C437.15 501.47 436.57 501.62 436.03 501.93C435.49 502.24 435.07 502.68 434.76 503.26C434.45 503.84 434.29 504.53 434.29 505.31C434.29 506.09 434.45 506.8 434.76 507.39C435.08 507.98 435.5 508.43 436.03 508.74C436.56 509.05 437.15 509.21 437.8 509.21C438.45 509.21 439.04 509.05 439.58 508.74C440.12 508.43 440.54 507.98 440.86 507.39C441.18 506.8 441.33 506.11 441.33 505.33C441.33 504.55 441.17 503.86 440.86 503.28Z" fill="#424242"/>
<path d="M447.9 510.07C447.11 509.63 446.49 509 446.04 508.18C445.59 507.36 445.37 506.42 445.37 505.34C445.37 504.26 445.6 503.34 446.06 502.52C446.52 501.7 447.15 501.08 447.95 500.64C448.75 500.2 449.64 499.98 450.63 499.98C451.62 499.98 452.51 500.2 453.31 500.64C454.11 501.08 454.74 501.7 455.2 502.51C455.66 503.32 455.89 504.26 455.89 505.34C455.89 506.42 455.65 507.36 455.18 508.18C454.7 509 454.06 509.63 453.25 510.07C452.44 510.51 451.54 510.74 450.55 510.74C449.56 510.74 448.69 510.52 447.9 510.07ZM452.3 508.77C452.84 508.48 453.28 508.04 453.62 507.46C453.96 506.88 454.12 506.17 454.12 505.33C454.12 504.49 453.95 503.78 453.63 503.2C453.3 502.62 452.87 502.18 452.34 501.9C451.81 501.62 451.23 501.47 450.61 501.47C449.99 501.47 449.4 501.61 448.87 501.9C448.34 502.19 447.92 502.62 447.61 503.2C447.29 503.78 447.14 504.49 447.14 505.33C447.14 506.17 447.3 506.89 447.61 507.48C447.92 508.06 448.33 508.5 448.85 508.78C449.37 509.06 449.94 509.21 450.56 509.21C451.18 509.21 451.76 509.06 452.31 508.77H452.3Z" fill="#424242"/>
<path d="M388.55 143.23L282.53 363.37L249.03 396.87L388.55 143.23Z" fill="#F4F4F4"/>
<path d="M282.53 363.37L320.5 410.27L388.55 143.23L282.53 363.37Z" fill="#E0E0E0"/>
<path d="M320.5 410.27L388.55 409.89V143.23L320.5 410.27Z" fill="white"/>
<path d="M389.73 142.27L184.27 396.87H249.03L389.73 142.27Z" fill="white"/>
</svg>
