<svg width="597" height="578" viewBox="0 0 597 578" fill="none" xmlns="http://www.w3.org/2000/svg">
<path d="M550.02 58.95H66.4401C40.9964 58.95 20.3701 79.5762 20.3701 105.02V531.2C20.3701 556.644 40.9964 577.27 66.4401 577.27H550.02C575.464 577.27 596.09 556.644 596.09 531.2V105.02C596.09 79.5762 575.464 58.95 550.02 58.95Z" fill="#D3D3D3"/>
<path d="M545.6 49.27H62.0202C36.5764 49.27 15.9502 69.8963 15.9502 95.34V521.52C15.9502 546.964 36.5764 567.59 62.0202 567.59H545.6C571.044 567.59 591.67 546.964 591.67 521.52V95.34C591.67 69.8963 571.044 49.27 545.6 49.27Z" fill="#AED8A4"/>
<path d="M43.7302 89.27C66.7605 89.27 85.4302 70.5689 85.4302 47.5C85.4302 24.4311 66.7605 5.72998 43.7302 5.72998C20.7 5.72998 2.03027 24.4311 2.03027 47.5C2.03027 70.5689 20.7 89.27 43.7302 89.27Z" fill="#CCA98B" stroke="#F2F2F2"/>
<path d="M43.6902 85.6699C66.7205 85.6699 85.3903 66.9688 85.3903 43.8999C85.3903 20.8309 66.7205 2.12988 43.6902 2.12988C20.66 2.12988 1.99023 20.8309 1.99023 43.8999C1.99023 66.9688 20.66 85.6699 43.6902 85.6699Z" fill="white" stroke="#F2F2F2" stroke-width="3"/>
<path d="M22.7202 52.7399V47.0898L35.6503 28.5898H43.4702V46.6798H46.8303V52.7399H43.4702V58.0598H36.4702V52.7399H22.7202ZM36.9603 36.2898L30.0803 46.6798H36.9603V36.2898Z" fill="#AED8A4"/>
<path d="M50.4804 32.5798C51.1804 31.4798 52.1604 30.6098 53.4304 29.9798C54.7004 29.3498 56.1504 29.0398 57.7904 29.0398C59.4304 29.0398 60.8805 29.3498 62.1505 29.9798C63.4205 30.6098 64.4004 31.4698 65.1004 32.5798C65.8004 33.6898 66.1404 34.9598 66.1404 36.4098C66.1404 37.8598 65.7904 39.1398 65.0804 40.2598C64.3704 41.3798 63.3804 42.2598 62.1104 42.8998C60.8404 43.5398 59.3904 43.8598 57.7504 43.8598C56.1104 43.8598 54.6704 43.5398 53.4104 42.8998C52.1504 42.2598 51.1804 41.3798 50.4804 40.2598C49.7804 39.1398 49.4404 37.8598 49.4404 36.4098C49.4404 34.9598 49.7904 33.6898 50.4804 32.5798ZM59.8804 33.9498C59.3104 33.3798 58.6004 33.0898 57.7504 33.0898C56.9004 33.0898 56.2404 33.3798 55.6804 33.9498C55.1204 34.5198 54.8405 35.3598 54.8405 36.4498C54.8405 37.5398 55.1104 38.3298 55.6604 38.9098C56.2104 39.4898 56.9004 39.7698 57.7504 39.7698C58.6004 39.7698 59.3004 39.4798 59.8804 38.8898C60.4504 38.2998 60.7404 37.4898 60.7404 36.4598C60.7404 35.3698 60.4504 34.5398 59.8804 33.9598V33.9498Z" fill="#AED8A4"/>
<path d="M105.38 35.45C104.59 36.22 103.38 36.6 101.75 36.6H99.07V42.42H97.25V28.48H101.75C103.32 28.48 104.52 28.86 105.34 29.62C106.16 30.38 106.57 31.36 106.57 32.56C106.57 33.76 106.17 34.68 105.38 35.45ZM103.99 34.44C104.47 34 104.71 33.37 104.71 32.56C104.71 30.84 103.72 29.98 101.75 29.98H99.07V35.1H101.75C102.76 35.1 103.51 34.88 103.99 34.44Z" fill="#AED8A4"/>
<path d="M108.83 33.95C109.28 33.1 109.91 32.45 110.7 31.98C111.49 31.51 112.38 31.28 113.35 31.28C114.32 31.28 115.14 31.49 115.85 31.9C116.56 32.31 117.08 32.83 117.43 33.46V31.46H119.27V42.42H117.43V40.38C117.07 41.02 116.53 41.55 115.82 41.97C115.11 42.39 114.28 42.6 113.33 42.6C112.38 42.6 111.48 42.36 110.69 41.88C109.9 41.4 109.28 40.73 108.83 39.86C108.38 38.99 108.15 38.01 108.15 36.9C108.15 35.79 108.38 34.8 108.83 33.95ZM116.93 34.76C116.6 34.15 116.15 33.68 115.58 33.35C115.01 33.02 114.39 32.86 113.71 32.86C113.03 32.86 112.41 33.02 111.85 33.34C111.29 33.66 110.84 34.13 110.51 34.74C110.18 35.35 110.01 36.07 110.01 36.9C110.01 37.73 110.18 38.47 110.51 39.09C110.84 39.71 111.29 40.18 111.85 40.51C112.41 40.84 113.03 41 113.71 41C114.39 41 115.01 40.84 115.58 40.51C116.15 40.18 116.6 39.71 116.93 39.09C117.26 38.47 117.43 37.75 117.43 36.92C117.43 36.09 117.26 35.37 116.93 34.76Z" fill="#AED8A4"/>
<path d="M123.97 42.17C123.3 41.88 122.78 41.48 122.39 40.97C122 40.46 121.79 39.87 121.75 39.2H123.63C123.68 39.75 123.94 40.19 124.4 40.54C124.86 40.89 125.46 41.06 126.21 41.06C126.9 41.06 127.45 40.91 127.85 40.6C128.25 40.29 128.45 39.91 128.45 39.44C128.45 38.97 128.24 38.6 127.81 38.37C127.38 38.14 126.72 37.91 125.83 37.68C125.02 37.47 124.35 37.25 123.84 37.03C123.33 36.81 122.89 36.48 122.52 36.05C122.15 35.62 121.97 35.05 121.97 34.34C121.97 33.78 122.14 33.27 122.47 32.8C122.8 32.33 123.28 31.96 123.89 31.69C124.5 31.42 125.2 31.28 125.99 31.28C127.2 31.28 128.18 31.59 128.93 32.2C129.68 32.81 130.08 33.65 130.13 34.72H128.31C128.27 34.15 128.04 33.69 127.62 33.34C127.2 32.99 126.64 32.82 125.93 32.82C125.28 32.82 124.76 32.96 124.37 33.24C123.98 33.52 123.79 33.89 123.79 34.34C123.79 34.7 123.91 35 124.14 35.23C124.37 35.46 124.67 35.65 125.02 35.79C125.37 35.93 125.86 36.09 126.49 36.26C127.28 36.47 127.92 36.68 128.41 36.89C128.9 37.1 129.33 37.41 129.68 37.82C130.03 38.23 130.22 38.77 130.23 39.44C130.23 40.04 130.06 40.58 129.73 41.06C129.4 41.54 128.93 41.92 128.32 42.19C127.71 42.46 127.02 42.6 126.23 42.6C125.39 42.6 124.64 42.46 123.97 42.17Z" fill="#AED8A4"/>
<path d="M134.41 42.17C133.74 41.88 133.22 41.48 132.83 40.97C132.44 40.46 132.23 39.87 132.19 39.2H134.07C134.12 39.75 134.38 40.19 134.84 40.54C135.3 40.89 135.9 41.06 136.65 41.06C137.34 41.06 137.89 40.91 138.29 40.6C138.69 40.29 138.89 39.91 138.89 39.44C138.89 38.97 138.68 38.6 138.25 38.37C137.82 38.14 137.16 37.91 136.27 37.68C135.46 37.47 134.79 37.25 134.28 37.03C133.77 36.81 133.33 36.48 132.96 36.05C132.59 35.62 132.41 35.05 132.41 34.34C132.41 33.78 132.58 33.27 132.91 32.8C133.24 32.33 133.72 31.96 134.33 31.69C134.94 31.42 135.64 31.28 136.43 31.28C137.64 31.28 138.62 31.59 139.37 32.2C140.12 32.81 140.52 33.65 140.57 34.72H138.75C138.71 34.15 138.48 33.69 138.06 33.34C137.64 32.99 137.08 32.82 136.37 32.82C135.72 32.82 135.2 32.96 134.81 33.24C134.42 33.52 134.23 33.89 134.23 34.34C134.23 34.7 134.35 35 134.58 35.23C134.81 35.46 135.11 35.65 135.46 35.79C135.81 35.93 136.3 36.09 136.93 36.26C137.72 36.47 138.36 36.68 138.85 36.89C139.34 37.1 139.77 37.41 140.12 37.82C140.47 38.23 140.66 38.77 140.67 39.44C140.67 40.04 140.5 40.58 140.17 41.06C139.84 41.54 139.37 41.92 138.76 42.19C138.15 42.46 137.46 42.6 136.67 42.6C135.83 42.6 135.08 42.46 134.41 42.17Z" fill="#AED8A4"/>
<path d="M145.22 41.9C144.39 41.43 143.73 40.77 143.26 39.91C142.79 39.05 142.55 38.05 142.55 36.92C142.55 35.79 142.79 34.81 143.28 33.95C143.77 33.09 144.43 32.43 145.27 31.97C146.11 31.51 147.05 31.28 148.09 31.28C149.13 31.28 150.07 31.51 150.91 31.97C151.75 32.43 152.41 33.09 152.9 33.94C153.39 34.79 153.63 35.79 153.63 36.92C153.63 38.05 153.38 39.05 152.88 39.91C152.38 40.77 151.7 41.43 150.85 41.9C150 42.37 149.05 42.6 148.01 42.6C146.97 42.6 146.05 42.37 145.22 41.9ZM149.85 40.54C150.42 40.23 150.89 39.77 151.24 39.16C151.59 38.55 151.77 37.8 151.77 36.92C151.77 36.04 151.6 35.29 151.25 34.68C150.9 34.07 150.45 33.61 149.89 33.31C149.33 33.01 148.72 32.86 148.07 32.86C147.42 32.86 146.79 33.01 146.24 33.31C145.69 33.61 145.24 34.07 144.91 34.68C144.58 35.29 144.41 36.04 144.41 36.92C144.41 37.8 144.57 38.57 144.9 39.18C145.23 39.79 145.66 40.25 146.21 40.55C146.76 40.85 147.36 41 148.01 41C148.66 41 149.28 40.85 149.85 40.54Z" fill="#AED8A4"/>
<path d="M191.95 498.12C193.01 498.66 193.82 499.43 194.38 500.43C194.94 501.43 195.23 502.61 195.23 503.96C195.23 505.31 194.95 506.49 194.38 507.48C193.81 508.47 193 509.23 191.95 509.76C190.89 510.29 189.64 510.55 188.2 510.55H184.08V497.31H188.2C189.64 497.31 190.89 497.58 191.95 498.12ZM192.11 507.78C193.01 506.87 193.46 505.6 193.46 503.97C193.46 502.34 193.01 501.04 192.1 500.11C191.19 499.19 189.89 498.72 188.2 498.72H185.81V509.13H188.2C189.91 509.13 191.21 508.68 192.11 507.77V507.78Z" fill="#424242"/>
<path d="M199.39 510.07C198.6 509.63 197.98 509 197.53 508.18C197.08 507.36 196.86 506.42 196.86 505.34C196.86 504.26 197.09 503.34 197.55 502.52C198.01 501.7 198.64 501.08 199.44 500.64C200.24 500.2 201.13 499.98 202.12 499.98C203.11 499.98 204 500.2 204.8 500.64C205.6 501.08 206.23 501.7 206.69 502.51C207.15 503.32 207.38 504.26 207.38 505.34C207.38 506.42 207.14 507.36 206.67 508.18C206.19 509 205.55 509.63 204.74 510.07C203.93 510.51 203.03 510.74 202.04 510.74C201.05 510.74 200.18 510.52 199.39 510.07ZM203.79 508.77C204.33 508.48 204.77 508.04 205.11 507.46C205.45 506.88 205.61 506.17 205.61 505.33C205.61 504.49 205.44 503.78 205.12 503.2C204.79 502.62 204.36 502.18 203.83 501.9C203.3 501.62 202.72 501.47 202.1 501.47C201.48 501.47 200.89 501.61 200.36 501.9C199.83 502.19 199.41 502.62 199.1 503.2C198.78 503.78 198.63 504.49 198.63 505.33C198.63 506.17 198.79 506.89 199.1 507.48C199.41 508.06 199.82 508.5 200.34 508.78C200.86 509.06 201.43 509.21 202.05 509.21C202.67 509.21 203.25 509.06 203.8 508.77H203.79Z" fill="#424242"/>
<path d="M212.95 500.57C213.63 500.18 214.41 499.98 215.29 499.98C216.23 499.98 217.07 500.2 217.82 500.65C218.57 501.09 219.16 501.72 219.59 502.52C220.02 503.32 220.24 504.26 220.24 505.32C220.24 506.38 220.02 507.31 219.59 508.13C219.16 508.95 218.57 509.59 217.81 510.05C217.05 510.51 216.22 510.73 215.29 510.73C214.36 510.73 213.6 510.53 212.92 510.14C212.24 509.75 211.73 509.25 211.39 508.64V510.56H209.66V496.5H211.39V502.09C211.74 501.47 212.26 500.96 212.95 500.57ZM217.99 503.26C217.67 502.68 217.25 502.23 216.71 501.93C216.17 501.63 215.58 501.47 214.93 501.47C214.28 501.47 213.71 501.63 213.17 501.94C212.63 502.25 212.2 502.7 211.88 503.29C211.56 503.88 211.4 504.56 211.4 505.33C211.4 506.1 211.56 506.8 211.88 507.39C212.2 507.98 212.63 508.43 213.17 508.74C213.71 509.05 214.29 509.21 214.93 509.21C215.57 509.21 216.17 509.05 216.71 508.74C217.25 508.43 217.67 507.98 217.99 507.39C218.31 506.8 218.46 506.11 218.46 505.31C218.46 504.51 218.3 503.84 217.99 503.26Z" fill="#424242"/>
<path d="M225.54 500.45C226.1 500.12 226.79 499.96 227.6 499.96V501.75H227.14C225.2 501.75 224.23 502.8 224.23 504.9V510.56H222.5V500.15H224.23V501.84C224.53 501.24 224.97 500.78 225.53 500.45H225.54Z" fill="#424242"/>
<path d="M239.04 506H230.72C230.78 507.03 231.14 507.83 231.77 508.4C232.4 508.97 233.19 509.26 234.1 509.26C234.85 509.26 235.47 509.09 235.97 508.74C236.47 508.39 236.82 507.93 237.02 507.34H238.88C238.6 508.34 238.04 509.15 237.21 509.78C236.38 510.41 235.33 510.72 234.09 510.72C233.1 510.72 232.22 510.5 231.44 510.05C230.66 509.6 230.05 508.98 229.61 508.16C229.17 507.34 228.94 506.4 228.94 505.32C228.94 504.24 229.15 503.3 229.59 502.49C230.03 501.68 230.63 501.06 231.4 500.62C232.18 500.18 233.07 499.96 234.09 499.96C235.11 499.96 235.95 500.18 236.71 500.61C237.47 501.04 238.06 501.63 238.47 502.39C238.88 503.14 239.09 504 239.09 504.94C239.09 505.27 239.07 505.62 239.03 505.99L239.04 506ZM236.87 502.89C236.58 502.41 236.18 502.05 235.68 501.81C235.18 501.56 234.63 501.44 234.02 501.44C233.15 501.44 232.4 501.72 231.79 502.28C231.18 502.84 230.82 503.61 230.74 504.6H237.31C237.31 503.94 237.16 503.37 236.87 502.9V502.89Z" fill="#424242"/>
<path d="M248.34 510.07C247.55 509.63 246.93 509 246.48 508.18C246.03 507.36 245.81 506.42 245.81 505.34C245.81 504.26 246.04 503.34 246.5 502.52C246.96 501.7 247.59 501.08 248.39 500.64C249.19 500.2 250.08 499.98 251.07 499.98C252.06 499.98 252.95 500.2 253.75 500.64C254.55 501.08 255.18 501.7 255.64 502.51C256.1 503.32 256.33 504.26 256.33 505.34C256.33 506.42 256.09 507.36 255.62 508.18C255.14 509 254.5 509.63 253.69 510.07C252.88 510.51 251.98 510.74 250.99 510.74C250 510.74 249.13 510.52 248.34 510.07ZM252.74 508.77C253.28 508.48 253.72 508.04 254.06 507.46C254.4 506.88 254.56 506.17 254.56 505.33C254.56 504.49 254.39 503.78 254.07 503.2C253.74 502.62 253.31 502.18 252.78 501.9C252.25 501.62 251.67 501.47 251.05 501.47C250.43 501.47 249.84 501.61 249.31 501.9C248.78 502.19 248.36 502.62 248.05 503.2C247.73 503.78 247.58 504.49 247.58 505.33C247.58 506.17 247.74 506.89 248.05 507.48C248.36 508.06 248.77 508.5 249.29 508.78C249.81 509.06 250.38 509.21 251 509.21C251.62 509.21 252.2 509.06 252.75 508.77H252.74Z" fill="#424242"/>
<path d="M260.15 510.32C259.52 510.05 259.02 509.67 258.65 509.18C258.28 508.69 258.08 508.13 258.04 507.5H259.83C259.88 508.02 260.12 508.44 260.56 508.77C261 509.1 261.57 509.26 262.28 509.26C262.94 509.26 263.46 509.11 263.84 508.82C264.22 508.53 264.41 508.16 264.41 507.72C264.41 507.28 264.21 506.93 263.8 506.7C263.39 506.48 262.77 506.26 261.92 506.04C261.15 505.84 260.52 505.63 260.03 505.42C259.54 505.21 259.12 504.9 258.78 504.49C258.43 504.08 258.26 503.54 258.26 502.87C258.26 502.34 258.42 501.85 258.74 501.41C259.06 500.97 259.51 500.62 260.09 500.36C260.67 500.1 261.34 499.97 262.09 499.97C263.24 499.97 264.17 500.26 264.88 500.84C265.59 501.42 265.97 502.22 266.02 503.23H264.29C264.25 502.69 264.03 502.25 263.63 501.92C263.23 501.59 262.7 501.43 262.02 501.43C261.4 501.43 260.9 501.56 260.54 501.83C260.17 502.1 259.99 502.44 259.99 502.87C259.99 503.21 260.1 503.49 260.32 503.72C260.54 503.95 260.82 504.12 261.16 504.25C261.5 504.38 261.96 504.53 262.56 504.7C263.31 504.9 263.91 505.1 264.38 505.3C264.85 505.5 265.25 505.79 265.59 506.18C265.92 506.57 266.1 507.09 266.11 507.72C266.11 508.29 265.95 508.8 265.63 509.26C265.31 509.72 264.87 510.07 264.29 510.33C263.71 510.59 263.05 510.72 262.3 510.72C261.5 510.72 260.79 510.58 260.15 510.31V510.32Z" fill="#424242"/>
<path d="M273.6 502.51C274.03 501.71 274.62 501.08 275.38 500.64C276.14 500.2 276.98 499.97 277.92 499.97C278.73 499.97 279.48 500.16 280.18 500.53C280.88 500.9 281.41 501.39 281.78 502V496.49H283.53V510.55H281.78V508.59C281.44 509.21 280.93 509.72 280.26 510.12C279.59 510.52 278.8 510.72 277.9 510.72C277 510.72 276.14 510.49 275.38 510.04C274.62 509.59 274.03 508.94 273.6 508.12C273.17 507.3 272.95 506.36 272.95 505.31C272.95 504.26 273.16 503.31 273.6 502.51ZM281.29 503.28C280.97 502.7 280.55 502.25 280.01 501.94C279.47 501.63 278.88 501.47 278.23 501.47C277.58 501.47 277 501.62 276.46 501.93C275.92 502.24 275.5 502.68 275.19 503.26C274.88 503.84 274.72 504.53 274.72 505.31C274.72 506.09 274.88 506.8 275.19 507.39C275.51 507.98 275.93 508.43 276.46 508.74C276.99 509.05 277.58 509.21 278.23 509.21C278.88 509.21 279.47 509.05 280.01 508.74C280.55 508.43 280.97 507.98 281.29 507.39C281.61 506.8 281.76 506.11 281.76 505.33C281.76 504.55 281.6 503.86 281.29 503.28Z" fill="#424242"/>
<path d="M288.33 510.07C287.54 509.63 286.92 509 286.47 508.18C286.02 507.36 285.8 506.42 285.8 505.34C285.8 504.26 286.03 503.34 286.49 502.52C286.95 501.7 287.58 501.08 288.38 500.64C289.18 500.2 290.07 499.98 291.06 499.98C292.05 499.98 292.94 500.2 293.74 500.64C294.54 501.08 295.17 501.7 295.63 502.51C296.09 503.32 296.32 504.26 296.32 505.34C296.32 506.42 296.08 507.36 295.61 508.18C295.13 509 294.49 509.63 293.68 510.07C292.87 510.51 291.97 510.74 290.98 510.74C289.99 510.74 289.12 510.52 288.33 510.07ZM292.73 508.77C293.27 508.48 293.71 508.04 294.05 507.46C294.39 506.88 294.55 506.17 294.55 505.33C294.55 504.49 294.38 503.78 294.06 503.2C293.73 502.62 293.3 502.18 292.77 501.9C292.24 501.62 291.66 501.47 291.04 501.47C290.42 501.47 289.83 501.61 289.3 501.9C288.77 502.19 288.35 502.62 288.04 503.2C287.72 503.78 287.57 504.49 287.57 505.33C287.57 506.17 287.73 506.89 288.04 507.48C288.35 508.06 288.76 508.5 289.28 508.78C289.8 509.06 290.37 509.21 290.99 509.21C291.61 509.21 292.19 509.06 292.74 508.77H292.73Z" fill="#424242"/>
<path d="M298.66 498.11C298.43 497.88 298.32 497.6 298.32 497.27C298.32 496.94 298.43 496.66 298.66 496.43C298.89 496.2 299.17 496.09 299.5 496.09C299.83 496.09 300.08 496.2 300.31 496.43C300.53 496.66 300.64 496.94 300.64 497.27C300.64 497.6 300.53 497.88 300.31 498.11C300.09 498.34 299.82 498.45 299.5 498.45C299.18 498.45 298.89 498.34 298.66 498.11ZM300.33 500.15V510.56H298.6V500.15H300.33Z" fill="#424242"/>
<path d="M304.82 510.32C304.19 510.05 303.69 509.67 303.32 509.18C302.95 508.69 302.75 508.13 302.71 507.5H304.5C304.55 508.02 304.79 508.44 305.23 508.77C305.67 509.1 306.24 509.26 306.95 509.26C307.61 509.26 308.13 509.11 308.51 508.82C308.89 508.53 309.08 508.16 309.08 507.72C309.08 507.28 308.88 506.93 308.47 506.7C308.06 506.48 307.44 506.26 306.59 506.04C305.82 505.84 305.19 505.63 304.7 505.42C304.21 505.21 303.79 504.9 303.45 504.49C303.1 504.08 302.93 503.54 302.93 502.87C302.93 502.34 303.09 501.85 303.41 501.41C303.73 500.97 304.18 500.62 304.76 500.36C305.34 500.1 306.01 499.97 306.76 499.97C307.91 499.97 308.84 500.26 309.55 500.84C310.26 501.42 310.64 502.22 310.69 503.23H308.96C308.92 502.69 308.7 502.25 308.3 501.92C307.9 501.59 307.37 501.43 306.69 501.43C306.07 501.43 305.57 501.56 305.21 501.83C304.84 502.1 304.66 502.44 304.66 502.87C304.66 503.21 304.77 503.49 304.99 503.72C305.21 503.95 305.49 504.12 305.83 504.25C306.17 504.38 306.63 504.53 307.23 504.7C307.98 504.9 308.58 505.1 309.05 505.3C309.52 505.5 309.92 505.79 310.26 506.18C310.59 506.57 310.77 507.09 310.78 507.72C310.78 508.29 310.62 508.8 310.3 509.26C309.98 509.72 309.54 510.07 308.96 510.33C308.38 510.59 307.72 510.72 306.97 510.72C306.17 510.72 305.46 510.58 304.82 510.31V510.32Z" fill="#424242"/>
<path d="M320 496.5V510.56H318.27V496.5H320Z" fill="#424242"/>
<path d="M322.94 502.51C323.37 501.71 323.96 501.08 324.72 500.64C325.48 500.2 326.31 499.97 327.24 499.97C328.17 499.97 328.94 500.17 329.62 500.56C330.29 500.95 330.79 501.45 331.12 502.04V500.14H332.87V510.55H331.12V508.61C330.78 509.22 330.27 509.72 329.59 510.12C328.91 510.52 328.12 510.72 327.22 510.72C326.32 510.72 325.46 510.49 324.71 510.04C323.96 509.58 323.37 508.94 322.94 508.12C322.51 507.3 322.29 506.36 322.29 505.31C322.29 504.26 322.5 503.31 322.94 502.51ZM330.64 503.28C330.32 502.7 329.9 502.25 329.36 501.94C328.82 501.63 328.23 501.47 327.58 501.47C326.93 501.47 326.35 501.62 325.81 501.93C325.27 502.24 324.85 502.68 324.54 503.26C324.23 503.84 324.07 504.53 324.07 505.31C324.07 506.09 324.23 506.8 324.54 507.39C324.86 507.98 325.28 508.43 325.81 508.74C326.34 509.05 326.93 509.21 327.58 509.21C328.23 509.21 328.82 509.05 329.36 508.74C329.9 508.43 330.32 507.98 330.64 507.39C330.96 506.8 331.11 506.11 331.11 505.33C331.11 504.55 330.95 503.86 330.64 503.28Z" fill="#424242"/>
<path d="M335.78 502.51C336.21 501.71 336.8 501.08 337.56 500.64C338.32 500.2 339.16 499.97 340.1 499.97C340.91 499.97 341.66 500.16 342.36 500.53C343.06 500.9 343.59 501.39 343.96 502V496.49H345.71V510.55H343.96V508.59C343.62 509.21 343.11 509.72 342.44 510.12C341.77 510.52 340.98 510.72 340.08 510.72C339.18 510.72 338.32 510.49 337.56 510.04C336.8 509.59 336.21 508.94 335.78 508.12C335.35 507.3 335.13 506.36 335.13 505.31C335.13 504.26 335.34 503.31 335.78 502.51ZM343.48 503.28C343.16 502.7 342.74 502.25 342.2 501.94C341.66 501.63 341.07 501.47 340.42 501.47C339.77 501.47 339.19 501.62 338.65 501.93C338.11 502.24 337.69 502.68 337.38 503.26C337.07 503.84 336.91 504.53 336.91 505.31C336.91 506.09 337.07 506.8 337.38 507.39C337.7 507.98 338.12 508.43 338.65 508.74C339.18 509.05 339.77 509.21 340.42 509.21C341.07 509.21 341.66 509.05 342.2 508.74C342.74 508.43 343.16 507.98 343.48 507.39C343.8 506.8 343.95 506.11 343.95 505.33C343.95 504.55 343.79 503.86 343.48 503.28Z" fill="#424242"/>
<path d="M350.52 510.07C349.73 509.63 349.11 509 348.66 508.18C348.21 507.36 347.99 506.42 347.99 505.34C347.99 504.26 348.22 503.34 348.68 502.52C349.14 501.7 349.77 501.08 350.57 500.64C351.37 500.2 352.26 499.98 353.25 499.98C354.24 499.98 355.13 500.2 355.93 500.64C356.73 501.08 357.36 501.7 357.82 502.51C358.28 503.32 358.51 504.26 358.51 505.34C358.51 506.42 358.27 507.36 357.8 508.18C357.32 509 356.68 509.63 355.87 510.07C355.06 510.51 354.16 510.74 353.17 510.74C352.18 510.74 351.31 510.52 350.52 510.07ZM354.92 508.77C355.46 508.48 355.9 508.04 356.24 507.46C356.58 506.88 356.74 506.17 356.74 505.33C356.74 504.49 356.57 503.78 356.25 503.2C355.92 502.62 355.49 502.18 354.96 501.9C354.43 501.62 353.85 501.47 353.23 501.47C352.61 501.47 352.02 501.61 351.49 501.9C350.96 502.19 350.54 502.62 350.23 503.2C349.91 503.78 349.76 504.49 349.76 505.33C349.76 506.17 349.92 506.89 350.23 507.48C350.54 508.06 350.95 508.5 351.47 508.78C351.99 509.06 352.56 509.21 353.18 509.21C353.8 509.21 354.38 509.06 354.93 508.77H354.92Z" fill="#424242"/>
<path d="M362.33 510.32C361.7 510.05 361.2 509.67 360.83 509.18C360.46 508.69 360.26 508.13 360.22 507.5H362.01C362.06 508.02 362.3 508.44 362.74 508.77C363.18 509.1 363.75 509.26 364.46 509.26C365.12 509.26 365.64 509.11 366.02 508.82C366.4 508.53 366.59 508.16 366.59 507.72C366.59 507.28 366.39 506.93 365.98 506.7C365.57 506.48 364.95 506.26 364.1 506.04C363.33 505.84 362.7 505.63 362.21 505.42C361.72 505.21 361.3 504.9 360.96 504.49C360.61 504.08 360.44 503.54 360.44 502.87C360.44 502.34 360.6 501.85 360.92 501.41C361.24 500.97 361.69 500.62 362.27 500.36C362.85 500.1 363.52 499.97 364.27 499.97C365.42 499.97 366.35 500.26 367.06 500.84C367.77 501.42 368.15 502.22 368.2 503.23H366.47C366.43 502.69 366.21 502.25 365.81 501.92C365.41 501.59 364.88 501.43 364.2 501.43C363.58 501.43 363.08 501.56 362.72 501.83C362.35 502.1 362.17 502.44 362.17 502.87C362.17 503.21 362.28 503.49 362.5 503.72C362.72 503.95 363 504.12 363.34 504.25C363.68 504.38 364.14 504.53 364.74 504.7C365.49 504.9 366.09 505.1 366.56 505.3C367.03 505.5 367.43 505.79 367.77 506.18C368.1 506.57 368.28 507.09 368.29 507.72C368.29 508.29 368.13 508.8 367.81 509.26C367.49 509.72 367.05 510.07 366.47 510.33C365.89 510.59 365.23 510.72 364.48 510.72C363.68 510.72 362.97 510.58 362.33 510.31V510.32Z" fill="#424242"/>
<path d="M379.04 500.58C379.72 500.18 380.51 499.98 381.41 499.98C382.31 499.98 383.17 500.2 383.93 500.65C384.69 501.1 385.28 501.72 385.71 502.52C386.14 503.32 386.36 504.26 386.36 505.32C386.36 506.38 386.14 507.31 385.71 508.13C385.28 508.95 384.69 509.59 383.93 510.05C383.17 510.51 382.34 510.73 381.41 510.73C380.48 510.73 379.74 510.53 379.06 510.13C378.38 509.73 377.87 509.23 377.51 508.64V515.5H375.78V500.15H377.51V502.07C377.85 501.48 378.36 500.98 379.04 500.58ZM384.1 503.26C383.78 502.68 383.36 502.23 382.82 501.93C382.28 501.63 381.69 501.47 381.04 501.47C380.39 501.47 379.82 501.63 379.28 501.94C378.74 502.25 378.31 502.7 377.99 503.29C377.67 503.88 377.51 504.56 377.51 505.33C377.51 506.1 377.67 506.8 377.99 507.39C378.31 507.98 378.74 508.43 379.28 508.74C379.82 509.05 380.4 509.21 381.04 509.21C381.68 509.21 382.28 509.05 382.82 508.74C383.36 508.43 383.78 507.98 384.1 507.39C384.42 506.8 384.57 506.11 384.57 505.31C384.57 504.51 384.41 503.84 384.1 503.26Z" fill="#424242"/>
<path d="M388.62 502.51C389.05 501.71 389.64 501.08 390.4 500.64C391.16 500.2 391.99 499.97 392.92 499.97C393.85 499.97 394.62 500.17 395.3 500.56C395.97 500.95 396.47 501.45 396.8 502.04V500.14H398.55V510.55H396.8V508.61C396.46 509.22 395.95 509.72 395.27 510.12C394.59 510.52 393.8 510.72 392.9 510.72C392 510.72 391.14 510.49 390.39 510.04C389.64 509.58 389.05 508.94 388.62 508.12C388.19 507.3 387.97 506.36 387.97 505.31C387.97 504.26 388.18 503.31 388.62 502.51ZM396.32 503.28C396 502.7 395.58 502.25 395.04 501.94C394.5 501.63 393.91 501.47 393.26 501.47C392.61 501.47 392.03 501.62 391.49 501.93C390.95 502.24 390.53 502.68 390.22 503.26C389.91 503.84 389.75 504.53 389.75 505.31C389.75 506.09 389.91 506.8 390.22 507.39C390.54 507.98 390.96 508.43 391.49 508.74C392.02 509.05 392.61 509.21 393.26 509.21C393.91 509.21 394.5 509.05 395.04 508.74C395.58 508.43 396 507.98 396.32 507.39C396.64 506.8 396.79 506.11 396.79 505.33C396.79 504.55 396.63 503.86 396.32 503.28Z" fill="#424242"/>
<path d="M404.5 500.45C405.06 500.12 405.75 499.96 406.56 499.96V501.75H406.1C404.16 501.75 403.19 502.8 403.19 504.9V510.56H401.46V500.15H403.19V501.84C403.49 501.24 403.93 500.78 404.49 500.45H404.5Z" fill="#424242"/>
<path d="M408.55 502.51C408.98 501.71 409.57 501.08 410.33 500.64C411.09 500.2 411.92 499.97 412.85 499.97C413.78 499.97 414.55 500.17 415.23 500.56C415.9 500.95 416.4 501.45 416.73 502.04V500.14H418.48V510.55H416.73V508.61C416.39 509.22 415.88 509.72 415.2 510.12C414.52 510.52 413.73 510.72 412.83 510.72C411.93 510.72 411.07 510.49 410.32 510.04C409.57 509.58 408.98 508.94 408.55 508.12C408.12 507.3 407.9 506.36 407.9 505.31C407.9 504.26 408.11 503.31 408.55 502.51ZM416.25 503.28C415.93 502.7 415.51 502.25 414.97 501.94C414.43 501.63 413.84 501.47 413.19 501.47C412.54 501.47 411.96 501.62 411.42 501.93C410.88 502.24 410.46 502.68 410.15 503.26C409.84 503.84 409.68 504.53 409.68 505.31C409.68 506.09 409.84 506.8 410.15 507.39C410.47 507.98 410.89 508.43 411.42 508.74C411.95 509.05 412.54 509.21 413.19 509.21C413.84 509.21 414.43 509.05 414.97 508.74C415.51 508.43 415.93 507.98 416.25 507.39C416.57 506.8 416.72 506.11 416.72 505.33C416.72 504.55 416.56 503.86 416.25 503.28Z" fill="#424242"/>
<path d="M246.99 524.37H244.8V533.36H243.07V524.37H241.72V522.95H243.07V522.21C243.07 521.04 243.37 520.19 243.97 519.65C244.57 519.11 245.54 518.84 246.87 518.84V520.28C246.11 520.28 245.58 520.43 245.26 520.73C244.95 521.03 244.79 521.52 244.79 522.2V522.94H246.98V524.36L246.99 524.37Z" fill="#424242"/>
<path d="M249 525.31C249.43 524.51 250.02 523.88 250.78 523.44C251.54 523 252.37 522.77 253.3 522.77C254.23 522.77 255 522.97 255.68 523.36C256.35 523.75 256.85 524.25 257.18 524.84V522.94H258.93V533.35H257.18V531.41C256.84 532.02 256.33 532.52 255.65 532.92C254.97 533.32 254.18 533.52 253.28 533.52C252.38 533.52 251.52 533.29 250.77 532.84C250.02 532.38 249.43 531.74 249 530.92C248.57 530.1 248.35 529.16 248.35 528.11C248.35 527.06 248.56 526.11 249 525.31ZM256.7 526.08C256.38 525.5 255.96 525.05 255.42 524.74C254.88 524.43 254.29 524.27 253.64 524.27C252.99 524.27 252.41 524.42 251.87 524.73C251.33 525.04 250.91 525.48 250.6 526.06C250.29 526.64 250.13 527.33 250.13 528.11C250.13 528.89 250.29 529.6 250.6 530.19C250.92 530.78 251.34 531.23 251.87 531.54C252.4 531.85 252.99 532.01 253.64 532.01C254.29 532.01 254.88 531.85 255.42 531.54C255.96 531.23 256.38 530.78 256.7 530.19C257.02 529.6 257.17 528.91 257.17 528.13C257.17 527.35 257.01 526.66 256.7 526.08Z" fill="#424242"/>
<path d="M263.14 531.93H268.25V533.35H261.16V531.93L266.21 524.35H261.19V522.94H268.2V524.35L263.13 531.93H263.14Z" fill="#424242"/>
<path d="M279.93 528.8H271.61C271.67 529.83 272.03 530.63 272.66 531.2C273.29 531.77 274.08 532.06 274.99 532.06C275.74 532.06 276.36 531.89 276.86 531.54C277.36 531.19 277.71 530.73 277.91 530.14H279.77C279.49 531.14 278.93 531.95 278.1 532.58C277.27 533.21 276.22 533.52 274.98 533.52C273.99 533.52 273.11 533.3 272.33 532.85C271.55 532.4 270.94 531.78 270.5 530.96C270.06 530.14 269.83 529.2 269.83 528.12C269.83 527.04 270.04 526.1 270.48 525.29C270.92 524.48 271.52 523.86 272.29 523.42C273.07 522.98 273.96 522.76 274.98 522.76C276 522.76 276.84 522.98 277.6 523.41C278.36 523.84 278.95 524.43 279.36 525.19C279.77 525.94 279.98 526.8 279.98 527.74C279.98 528.07 279.96 528.42 279.92 528.79L279.93 528.8ZM277.77 525.69C277.48 525.21 277.08 524.85 276.58 524.61C276.08 524.36 275.53 524.24 274.92 524.24C274.05 524.24 273.3 524.52 272.69 525.08C272.08 525.64 271.72 526.41 271.64 527.4H278.21C278.21 526.74 278.06 526.17 277.77 525.7V525.69Z" fill="#424242"/>
<path d="M285.3 523.25C285.86 522.92 286.55 522.76 287.36 522.76V524.55H286.9C284.96 524.55 283.99 525.6 283.99 527.7V533.36H282.26V522.95H283.99V524.64C284.29 524.04 284.73 523.58 285.29 523.25H285.3Z" fill="#424242"/>
<path d="M294.43 525.31C294.86 524.51 295.45 523.88 296.21 523.44C296.97 523 297.8 522.77 298.73 522.77C299.66 522.77 300.43 522.97 301.11 523.36C301.78 523.75 302.28 524.25 302.61 524.84V522.94H304.36V533.35H302.61V531.41C302.27 532.02 301.76 532.52 301.08 532.92C300.4 533.32 299.61 533.52 298.71 533.52C297.81 533.52 296.95 533.29 296.2 532.84C295.45 532.38 294.86 531.74 294.43 530.92C294 530.1 293.78 529.16 293.78 528.11C293.78 527.06 293.99 526.11 294.43 525.31ZM302.13 526.08C301.81 525.5 301.39 525.05 300.85 524.74C300.31 524.43 299.72 524.27 299.07 524.27C298.42 524.27 297.84 524.42 297.3 524.73C296.76 525.04 296.34 525.48 296.03 526.06C295.72 526.64 295.56 527.33 295.56 528.11C295.56 528.89 295.72 529.6 296.03 530.19C296.35 530.78 296.77 531.23 297.3 531.54C297.83 531.85 298.42 532.01 299.07 532.01C299.72 532.01 300.31 531.85 300.85 531.54C301.39 531.23 301.81 530.78 302.13 530.19C302.45 529.6 302.6 528.91 302.6 528.13C302.6 527.35 302.44 526.66 302.13 526.08Z" fill="#424242"/>
<path d="M308.81 533.12C308.18 532.85 307.68 532.47 307.31 531.98C306.94 531.49 306.74 530.93 306.7 530.3H308.49C308.54 530.82 308.78 531.24 309.22 531.57C309.66 531.9 310.23 532.06 310.94 532.06C311.6 532.06 312.12 531.91 312.5 531.62C312.88 531.33 313.07 530.96 313.07 530.52C313.07 530.08 312.87 529.73 312.46 529.5C312.05 529.28 311.43 529.06 310.58 528.84C309.81 528.64 309.18 528.43 308.69 528.22C308.2 528.01 307.78 527.7 307.44 527.29C307.09 526.88 306.92 526.34 306.92 525.67C306.92 525.14 307.08 524.65 307.4 524.21C307.72 523.77 308.17 523.42 308.75 523.16C309.33 522.9 310 522.77 310.75 522.77C311.9 522.77 312.83 523.06 313.54 523.64C314.25 524.22 314.63 525.02 314.68 526.03H312.95C312.91 525.49 312.69 525.05 312.29 524.72C311.89 524.39 311.36 524.23 310.68 524.23C310.06 524.23 309.56 524.36 309.2 524.63C308.83 524.9 308.65 525.24 308.65 525.67C308.65 526.01 308.76 526.29 308.98 526.52C309.2 526.75 309.48 526.92 309.82 527.05C310.16 527.18 310.62 527.33 311.22 527.5C311.97 527.7 312.57 527.9 313.04 528.1C313.51 528.3 313.91 528.59 314.25 528.98C314.58 529.37 314.76 529.89 314.77 530.52C314.77 531.09 314.61 531.6 314.29 532.06C313.97 532.52 313.53 532.87 312.95 533.13C312.37 533.39 311.71 533.52 310.96 533.52C310.16 533.52 309.45 533.38 308.81 533.11V533.12Z" fill="#424242"/>
<path d="M322.27 525.31C322.7 524.51 323.29 523.88 324.05 523.44C324.81 523 325.64 522.77 326.57 522.77C327.5 522.77 328.27 522.97 328.95 523.36C329.62 523.75 330.12 524.25 330.45 524.84V522.94H332.2V533.35H330.45V531.41C330.11 532.02 329.6 532.52 328.92 532.92C328.24 533.32 327.45 533.52 326.55 533.52C325.65 533.52 324.79 533.29 324.04 532.84C323.29 532.38 322.7 531.74 322.27 530.92C321.84 530.1 321.62 529.16 321.62 528.11C321.62 527.06 321.83 526.11 322.27 525.31ZM329.96 526.08C329.64 525.5 329.22 525.05 328.68 524.74C328.14 524.43 327.55 524.27 326.9 524.27C326.25 524.27 325.67 524.42 325.13 524.73C324.59 525.04 324.17 525.48 323.86 526.06C323.55 526.64 323.39 527.33 323.39 528.11C323.39 528.89 323.55 529.6 323.86 530.19C324.18 530.78 324.6 531.23 325.13 531.54C325.66 531.85 326.25 532.01 326.9 532.01C327.55 532.01 328.14 531.85 328.68 531.54C329.22 531.23 329.64 530.78 329.96 530.19C330.28 529.6 330.43 528.91 330.43 528.13C330.43 527.35 330.27 526.66 329.96 526.08Z" fill="#424242"/>
<path d="M336.65 533.12C336.02 532.85 335.52 532.47 335.15 531.98C334.78 531.49 334.58 530.93 334.54 530.3H336.33C336.38 530.82 336.62 531.24 337.06 531.57C337.5 531.9 338.07 532.06 338.78 532.06C339.44 532.06 339.96 531.91 340.34 531.62C340.72 531.33 340.91 530.96 340.91 530.52C340.91 530.08 340.71 529.73 340.3 529.5C339.89 529.28 339.27 529.06 338.42 528.84C337.65 528.64 337.02 528.43 336.53 528.22C336.04 528.01 335.62 527.7 335.28 527.29C334.93 526.88 334.76 526.34 334.76 525.67C334.76 525.14 334.92 524.65 335.24 524.21C335.56 523.77 336.01 523.42 336.59 523.16C337.17 522.9 337.84 522.77 338.59 522.77C339.74 522.77 340.67 523.06 341.38 523.64C342.09 524.22 342.47 525.02 342.52 526.03H340.79C340.75 525.49 340.53 525.05 340.13 524.72C339.73 524.39 339.2 524.23 338.52 524.23C337.9 524.23 337.4 524.36 337.04 524.63C336.67 524.9 336.49 525.24 336.49 525.67C336.49 526.01 336.6 526.29 336.82 526.52C337.04 526.75 337.32 526.92 337.66 527.05C338 527.18 338.46 527.33 339.06 527.5C339.81 527.7 340.41 527.9 340.88 528.1C341.35 528.3 341.75 528.59 342.09 528.98C342.42 529.37 342.6 529.89 342.61 530.52C342.61 531.09 342.45 531.6 342.13 532.06C341.81 532.52 341.37 532.87 340.79 533.13C340.21 533.39 339.55 533.52 338.8 533.52C338 533.52 337.29 533.38 336.65 533.11V533.12Z" fill="#424242"/>
<path d="M345.03 525.31C345.46 524.51 346.05 523.88 346.81 523.44C347.57 523 348.4 522.77 349.33 522.77C350.26 522.77 351.03 522.97 351.71 523.36C352.38 523.75 352.88 524.25 353.21 524.84V522.94H354.96V533.35H353.21V531.41C352.87 532.02 352.36 532.52 351.68 532.92C351 533.32 350.21 533.52 349.31 533.52C348.41 533.52 347.55 533.29 346.8 532.84C346.05 532.38 345.46 531.74 345.03 530.92C344.6 530.1 344.38 529.16 344.38 528.11C344.38 527.06 344.59 526.11 345.03 525.31ZM352.72 526.08C352.4 525.5 351.98 525.05 351.44 524.74C350.9 524.43 350.31 524.27 349.66 524.27C349.01 524.27 348.43 524.42 347.89 524.73C347.35 525.04 346.93 525.48 346.62 526.06C346.31 526.64 346.15 527.33 346.15 528.11C346.15 528.89 346.31 529.6 346.62 530.19C346.94 530.78 347.36 531.23 347.89 531.54C348.42 531.85 349.01 532.01 349.66 532.01C350.31 532.01 350.9 531.85 351.44 531.54C351.98 531.23 352.4 530.78 352.72 530.19C353.04 529.6 353.19 528.91 353.19 528.13C353.19 527.35 353.03 526.66 352.72 526.08Z" fill="#424242"/>
<path d="M359.41 533.12C358.78 532.85 358.28 532.47 357.91 531.98C357.54 531.49 357.34 530.93 357.3 530.3H359.09C359.14 530.82 359.38 531.24 359.82 531.57C360.26 531.9 360.83 532.06 361.54 532.06C362.2 532.06 362.72 531.91 363.1 531.62C363.48 531.33 363.67 530.96 363.67 530.52C363.67 530.08 363.47 529.73 363.06 529.5C362.65 529.28 362.03 529.06 361.18 528.84C360.41 528.64 359.78 528.43 359.29 528.22C358.8 528.01 358.38 527.7 358.04 527.29C357.69 526.88 357.52 526.34 357.52 525.67C357.52 525.14 357.68 524.65 358 524.21C358.32 523.77 358.77 523.42 359.35 523.16C359.93 522.9 360.6 522.77 361.35 522.77C362.5 522.77 363.43 523.06 364.14 523.64C364.85 524.22 365.23 525.02 365.28 526.03H363.55C363.51 525.49 363.29 525.05 362.89 524.72C362.49 524.39 361.96 524.23 361.28 524.23C360.66 524.23 360.16 524.36 359.8 524.63C359.43 524.9 359.25 525.24 359.25 525.67C359.25 526.01 359.36 526.29 359.58 526.52C359.8 526.75 360.08 526.92 360.42 527.05C360.76 527.18 361.22 527.33 361.82 527.5C362.57 527.7 363.17 527.9 363.64 528.1C364.11 528.3 364.51 528.59 364.85 528.98C365.18 529.37 365.36 529.89 365.37 530.52C365.37 531.09 365.21 531.6 364.89 532.06C364.57 532.52 364.13 532.87 363.55 533.13C362.97 533.39 362.31 533.52 361.56 533.52C360.76 533.52 360.05 533.38 359.41 533.11V533.12Z" fill="#424242"/>
<path d="M79.3198 361.58V229.9L538.04 224.27L329.96 361.58H79.3198Z" fill="white"/>
<path d="M429.26 296.99H423.26" stroke="#B2CCA2" stroke-width="2"/>
<path d="M410.85 296.99H94.3403" stroke="#B2CCA2" stroke-width="2"/>
<path d="M88.1401 296.99H82.1401" stroke="#B2CCA2" stroke-width="2"/>
<path d="M226.22 346.03C226.22 346.03 300.76 307.37 247.05 256.39" stroke="#B2CCA2" stroke-width="2"/>
<path d="M237.87 248.54C243.54 250.68 251.22 252.59 257.01 252.58L248.17 257.5L244.53 266.93C243.73 261.19 240.78 253.85 237.87 248.54Z" fill="#B2CCA2"/>
</svg>
