<svg width="601" height="578" viewBox="0 0 601 578" fill="none" xmlns="http://www.w3.org/2000/svg">
<path d="M554.02 58.95H70.4401C44.9964 58.95 24.3701 79.5762 24.3701 105.02V531.2C24.3701 556.644 44.9964 577.27 70.4401 577.27H554.02C579.464 577.27 600.09 556.644 600.09 531.2V105.02C600.09 79.5762 579.464 58.95 554.02 58.95Z" fill="#D3D3D3"/>
<path d="M549.4 49.27H65.82C40.3762 49.27 19.75 69.8963 19.75 95.34V521.52C19.75 546.964 40.3762 567.59 65.82 567.59H549.4C574.844 567.59 595.47 546.964 595.47 521.52V95.34C595.47 69.8963 574.844 49.27 549.4 49.27Z" fill="#AED8A4"/>
<path d="M43.73 89.27C66.7603 89.27 85.43 70.5689 85.43 47.5C85.43 24.4311 66.7603 5.72998 43.73 5.72998C20.6998 5.72998 2.03003 24.4311 2.03003 47.5C2.03003 70.5689 20.6998 89.27 43.73 89.27Z" fill="#CCA98B" stroke="#F2F2F2"/>
<path d="M43.69 85.6699C66.7203 85.6699 85.39 66.9688 85.39 43.8999C85.39 20.8309 66.7203 2.12988 43.69 2.12988C20.6597 2.12988 1.98999 20.8309 1.98999 43.8999C1.98999 66.9688 20.6597 85.6699 43.69 85.6699Z" fill="white" stroke="#F2F2F2" stroke-width="3"/>
<path d="M27.97 34.6899V28.1799H39.31V58.0599H32.03V34.6899H27.98H27.97Z" fill="#AED8A4"/>
<path d="M44.32 32.58C45.02 31.48 46 30.61 47.27 29.98C48.54 29.35 49.99 29.04 51.63 29.04C53.27 29.04 54.72 29.35 55.99 29.98C57.26 30.61 58.24 31.47 58.94 32.58C59.64 33.69 59.98 34.96 59.98 36.41C59.98 37.86 59.63 39.14 58.92 40.26C58.21 41.38 57.22 42.26 55.95 42.9C54.68 43.54 53.23 43.86 51.59 43.86C49.95 43.86 48.51 43.54 47.25 42.9C45.99 42.26 45.02 41.38 44.32 40.26C43.62 39.14 43.28 37.86 43.28 36.41C43.28 34.96 43.63 33.69 44.32 32.58ZM53.71 33.95C53.14 33.38 52.43 33.09 51.58 33.09C50.73 33.09 50.07 33.38 49.51 33.95C48.95 34.52 48.67 35.36 48.67 36.45C48.67 37.54 48.94 38.33 49.49 38.91C50.04 39.49 50.73 39.7701 51.58 39.7701C52.43 39.7701 53.13 39.48 53.71 38.89C54.28 38.3 54.57 37.4901 54.57 36.4601C54.57 35.3701 54.28 34.5401 53.71 33.9601V33.95Z" fill="#AED8A4"/>
<path d="M105.38 35.45C104.59 36.22 103.38 36.6 101.75 36.6H99.07V42.42H97.25V28.48H101.75C103.32 28.48 104.52 28.86 105.34 29.62C106.16 30.38 106.57 31.36 106.57 32.56C106.57 33.76 106.17 34.68 105.38 35.45ZM103.99 34.44C104.47 34 104.71 33.37 104.71 32.56C104.71 30.84 103.72 29.98 101.75 29.98H99.07V35.1H101.75C102.76 35.1 103.51 34.88 103.99 34.44Z" fill="#AED8A4"/>
<path d="M108.83 33.95C109.28 33.1 109.91 32.45 110.7 31.98C111.49 31.51 112.38 31.28 113.35 31.28C114.32 31.28 115.14 31.49 115.85 31.9C116.56 32.31 117.08 32.83 117.43 33.46V31.46H119.27V42.42H117.43V40.38C117.07 41.02 116.53 41.55 115.82 41.97C115.11 42.39 114.28 42.6 113.33 42.6C112.38 42.6 111.48 42.36 110.69 41.88C109.9 41.4 109.28 40.73 108.83 39.86C108.38 38.99 108.15 38.01 108.15 36.9C108.15 35.79 108.38 34.8 108.83 33.95ZM116.93 34.76C116.6 34.15 116.15 33.68 115.58 33.35C115.01 33.02 114.39 32.86 113.71 32.86C113.03 32.86 112.41 33.02 111.85 33.34C111.29 33.66 110.84 34.13 110.51 34.74C110.18 35.35 110.01 36.07 110.01 36.9C110.01 37.73 110.18 38.47 110.51 39.09C110.84 39.71 111.29 40.18 111.85 40.51C112.41 40.84 113.03 41 113.71 41C114.39 41 115.01 40.84 115.58 40.51C116.15 40.18 116.6 39.71 116.93 39.09C117.26 38.47 117.43 37.75 117.43 36.92C117.43 36.09 117.26 35.37 116.93 34.76Z" fill="#AED8A4"/>
<path d="M123.97 42.17C123.3 41.88 122.78 41.48 122.39 40.97C122 40.46 121.79 39.87 121.75 39.2H123.63C123.68 39.75 123.94 40.19 124.4 40.54C124.86 40.89 125.46 41.06 126.21 41.06C126.9 41.06 127.45 40.91 127.85 40.6C128.25 40.29 128.45 39.91 128.45 39.44C128.45 38.97 128.24 38.6 127.81 38.37C127.38 38.14 126.72 37.91 125.83 37.68C125.02 37.47 124.35 37.25 123.84 37.03C123.33 36.81 122.89 36.48 122.52 36.05C122.15 35.62 121.97 35.05 121.97 34.34C121.97 33.78 122.14 33.27 122.47 32.8C122.8 32.33 123.28 31.96 123.89 31.69C124.5 31.42 125.2 31.28 125.99 31.28C127.2 31.28 128.18 31.59 128.93 32.2C129.68 32.81 130.08 33.65 130.13 34.72H128.31C128.27 34.15 128.04 33.69 127.62 33.34C127.2 32.99 126.64 32.82 125.93 32.82C125.28 32.82 124.76 32.96 124.37 33.24C123.98 33.52 123.79 33.89 123.79 34.34C123.79 34.7 123.91 35 124.14 35.23C124.37 35.46 124.67 35.65 125.02 35.79C125.37 35.93 125.86 36.09 126.49 36.26C127.28 36.47 127.92 36.68 128.41 36.89C128.9 37.1 129.33 37.41 129.68 37.82C130.03 38.23 130.22 38.77 130.23 39.44C130.23 40.04 130.06 40.58 129.73 41.06C129.4 41.54 128.93 41.92 128.32 42.19C127.71 42.46 127.02 42.6 126.23 42.6C125.39 42.6 124.64 42.46 123.97 42.17Z" fill="#AED8A4"/>
<path d="M134.41 42.17C133.74 41.88 133.22 41.48 132.83 40.97C132.44 40.46 132.23 39.87 132.19 39.2H134.07C134.12 39.75 134.38 40.19 134.84 40.54C135.3 40.89 135.9 41.06 136.65 41.06C137.34 41.06 137.89 40.91 138.29 40.6C138.69 40.29 138.89 39.91 138.89 39.44C138.89 38.97 138.68 38.6 138.25 38.37C137.82 38.14 137.16 37.91 136.27 37.68C135.46 37.47 134.79 37.25 134.28 37.03C133.77 36.81 133.33 36.48 132.96 36.05C132.59 35.62 132.41 35.05 132.41 34.34C132.41 33.78 132.58 33.27 132.91 32.8C133.24 32.33 133.72 31.96 134.33 31.69C134.94 31.42 135.64 31.28 136.43 31.28C137.64 31.28 138.62 31.59 139.37 32.2C140.12 32.81 140.52 33.65 140.57 34.72H138.75C138.71 34.15 138.48 33.69 138.06 33.34C137.64 32.99 137.08 32.82 136.37 32.82C135.72 32.82 135.2 32.96 134.81 33.24C134.42 33.52 134.23 33.89 134.23 34.34C134.23 34.7 134.35 35 134.58 35.23C134.81 35.46 135.11 35.65 135.46 35.79C135.81 35.93 136.3 36.09 136.93 36.26C137.72 36.47 138.36 36.68 138.85 36.89C139.34 37.1 139.77 37.41 140.12 37.82C140.47 38.23 140.66 38.77 140.67 39.44C140.67 40.04 140.5 40.58 140.17 41.06C139.84 41.54 139.37 41.92 138.76 42.19C138.15 42.46 137.46 42.6 136.67 42.6C135.83 42.6 135.08 42.46 134.41 42.17Z" fill="#AED8A4"/>
<path d="M145.22 41.9C144.39 41.43 143.73 40.77 143.26 39.91C142.79 39.05 142.55 38.05 142.55 36.92C142.55 35.79 142.79 34.81 143.28 33.95C143.77 33.09 144.43 32.43 145.27 31.97C146.11 31.51 147.05 31.28 148.09 31.28C149.13 31.28 150.07 31.51 150.91 31.97C151.75 32.43 152.41 33.09 152.9 33.94C153.39 34.79 153.63 35.79 153.63 36.92C153.63 38.05 153.38 39.05 152.88 39.91C152.38 40.77 151.7 41.43 150.85 41.9C150 42.37 149.05 42.6 148.01 42.6C146.97 42.6 146.05 42.37 145.22 41.9ZM149.85 40.54C150.42 40.23 150.89 39.77 151.24 39.16C151.59 38.55 151.77 37.8 151.77 36.92C151.77 36.04 151.6 35.29 151.25 34.68C150.9 34.07 150.45 33.61 149.89 33.31C149.33 33.01 148.72 32.86 148.07 32.86C147.42 32.86 146.79 33.01 146.24 33.31C145.69 33.61 145.24 34.07 144.91 34.68C144.58 35.29 144.41 36.04 144.41 36.92C144.41 37.8 144.57 38.57 144.9 39.18C145.23 39.79 145.66 40.25 146.21 40.55C146.76 40.85 147.36 41 148.01 41C148.66 41 149.28 40.85 149.85 40.54Z" fill="#AED8A4"/>
<path d="M93.8899 503.94C93.1399 504.67 91.9899 505.03 90.4399 505.03H87.8899V510.56H86.1599V497.32H90.4399C91.9299 497.32 93.0699 497.68 93.8499 498.4C94.6299 499.12 95.0199 500.05 95.0199 501.19C95.0199 502.33 94.6399 503.21 93.8899 503.94ZM92.5699 502.98C93.0299 502.56 93.2499 501.97 93.2499 501.19C93.2499 499.56 92.3099 498.74 90.4399 498.74H87.8899V503.6H90.4399C91.3999 503.6 92.1099 503.39 92.5699 502.97V502.98Z" fill="#424242"/>
<path d="M106.62 506H98.2998C98.3598 507.03 98.7198 507.83 99.3498 508.4C99.9898 508.98 100.77 509.26 101.68 509.26C102.43 509.26 103.05 509.09 103.55 508.74C104.05 508.39 104.4 507.93 104.6 507.34H106.46C106.18 508.34 105.62 509.15 104.79 509.78C103.96 510.41 102.91 510.72 101.67 510.72C100.68 510.72 99.7998 510.5 99.0198 510.05C98.2398 509.6 97.6298 508.98 97.1898 508.16C96.7498 507.34 96.5298 506.4 96.5298 505.32C96.5298 504.24 96.7398 503.3 97.1698 502.49C97.5998 501.68 98.2098 501.06 98.9798 500.62C99.7598 500.18 100.66 499.96 101.67 499.96C102.68 499.96 103.53 500.18 104.29 500.61C105.05 501.04 105.64 501.63 106.05 502.39C106.46 503.15 106.67 504 106.67 504.94C106.67 505.27 106.65 505.62 106.61 505.99L106.62 506ZM104.45 502.89C104.16 502.41 103.76 502.05 103.26 501.81C102.76 501.56 102.21 501.44 101.6 501.44C100.72 501.44 99.9798 501.72 99.3698 502.28C98.7498 502.84 98.3998 503.61 98.3198 504.6H104.89C104.89 503.94 104.74 503.37 104.45 502.9V502.89Z" fill="#424242"/>
<path d="M115.61 500.57C116.29 500.96 116.79 501.46 117.12 502.05V500.15H118.87V510.79C118.87 511.74 118.67 512.59 118.26 513.33C117.85 514.07 117.27 514.65 116.52 515.07C115.77 515.49 114.89 515.7 113.89 515.7C112.52 515.7 111.38 515.38 110.47 514.73C109.56 514.08 109.02 513.2 108.85 512.09H110.56C110.75 512.72 111.14 513.23 111.74 513.62C112.34 514.01 113.05 514.2 113.89 514.2C114.84 514.2 115.62 513.9 116.22 513.31C116.82 512.71 117.12 511.88 117.12 510.8V508.62C116.78 509.23 116.27 509.74 115.6 510.14C114.93 510.55 114.14 510.75 113.24 510.75C112.34 510.75 111.48 510.52 110.72 510.07C109.96 509.62 109.37 508.97 108.94 508.15C108.51 507.33 108.29 506.39 108.29 505.34C108.29 504.29 108.5 503.34 108.94 502.54C109.37 501.74 109.96 501.11 110.72 500.67C111.48 500.23 112.31 500 113.24 500C114.17 500 114.93 500.2 115.61 500.59V500.57ZM116.65 503.28C116.33 502.7 115.91 502.25 115.37 501.94C114.83 501.63 114.24 501.47 113.59 501.47C112.94 501.47 112.36 501.62 111.82 501.93C111.29 502.23 110.86 502.68 110.55 503.26C110.24 503.84 110.08 504.53 110.08 505.31C110.08 506.09 110.24 506.8 110.55 507.39C110.87 507.98 111.29 508.43 111.82 508.74C112.35 509.05 112.94 509.21 113.59 509.21C114.24 509.21 114.83 509.05 115.37 508.74C115.91 508.43 116.33 507.98 116.65 507.39C116.97 506.8 117.12 506.11 117.12 505.33C117.12 504.55 116.96 503.86 116.65 503.28Z" fill="#424242"/>
<path d="M131.03 500.15V510.56H129.3V509.02C128.97 509.55 128.51 509.97 127.92 510.26C127.33 510.56 126.68 510.71 125.97 510.71C125.16 510.71 124.43 510.54 123.78 510.21C123.13 509.88 122.62 509.37 122.25 508.7C121.88 508.03 121.69 507.21 121.69 506.25V500.15H123.4V506.02C123.4 507.05 123.66 507.83 124.18 508.39C124.7 508.94 125.41 509.22 126.31 509.22C127.21 509.22 127.96 508.93 128.5 508.36C129.03 507.79 129.3 506.96 129.3 505.87V500.15H131.03Z" fill="#424242"/>
<path d="M143.4 506H135.08C135.14 507.03 135.49 507.83 136.13 508.4C136.77 508.98 137.54 509.26 138.46 509.26C139.21 509.26 139.83 509.09 140.33 508.74C140.83 508.39 141.18 507.93 141.38 507.34H143.24C142.96 508.34 142.4 509.15 141.57 509.78C140.74 510.41 139.69 510.72 138.45 510.72C137.46 510.72 136.58 510.5 135.8 510.05C135.02 509.6 134.41 508.98 133.97 508.16C133.52 507.34 133.3 506.4 133.3 505.32C133.3 504.24 133.51 503.3 133.95 502.49C134.38 501.68 134.99 501.06 135.76 500.62C136.54 500.18 137.43 499.96 138.45 499.96C139.47 499.96 140.31 500.18 141.07 500.61C141.83 501.04 142.42 501.63 142.83 502.39C143.24 503.14 143.45 504 143.45 504.94C143.45 505.27 143.43 505.62 143.39 505.99L143.4 506ZM141.23 502.89C140.94 502.41 140.54 502.05 140.04 501.81C139.54 501.56 138.99 501.44 138.38 501.44C137.51 501.44 136.76 501.72 136.15 502.28C135.54 502.84 135.19 503.61 135.1 504.6H141.67C141.67 503.94 141.53 503.37 141.23 502.9V502.89Z" fill="#424242"/>
<path d="M160.04 500.15V510.56H158.31V509.02C157.98 509.55 157.52 509.97 156.93 510.26C156.34 510.56 155.69 510.71 154.98 510.71C154.17 510.71 153.44 510.54 152.8 510.21C152.15 509.88 151.64 509.37 151.27 508.7C150.89 508.03 150.71 507.21 150.71 506.25V500.15H152.42V506.02C152.42 507.05 152.68 507.83 153.2 508.39C153.72 508.94 154.43 509.22 155.33 509.22C156.23 509.22 156.98 508.93 157.51 508.36C158.04 507.79 158.31 506.96 158.31 505.87V500.15H160.04Z" fill="#424242"/>
<path d="M177.66 500.46C178.29 500.8 178.79 501.3 179.16 501.97C179.53 502.64 179.71 503.46 179.71 504.42V510.56H178V504.67C178 503.63 177.74 502.84 177.23 502.29C176.72 501.74 176.02 501.46 175.15 501.46C174.28 501.46 173.53 501.75 173 502.32C172.47 502.9 172.2 503.73 172.2 504.82V510.56H170.49V504.67C170.49 503.63 170.23 502.84 169.72 502.29C169.21 501.74 168.51 501.46 167.64 501.46C166.77 501.46 166.03 501.75 165.49 502.32C164.96 502.9 164.69 503.73 164.69 504.82V510.56H162.96V500.15H164.69V501.65C165.03 501.11 165.49 500.69 166.07 500.4C166.65 500.11 167.28 499.96 167.98 499.96C168.86 499.96 169.63 500.16 170.3 500.55C170.97 500.94 171.47 501.52 171.8 502.28C172.09 501.55 172.57 500.98 173.24 500.57C173.91 500.16 174.66 499.96 175.48 499.96C176.3 499.96 177.01 500.13 177.65 500.46H177.66Z" fill="#424242"/>
<path d="M190.87 500.58C191.55 500.18 192.33 499.98 193.24 499.98C194.15 499.98 195 500.2 195.76 500.65C196.52 501.1 197.11 501.72 197.54 502.52C197.97 503.32 198.19 504.26 198.19 505.32C198.19 506.38 197.98 507.31 197.54 508.13C197.11 508.95 196.52 509.59 195.76 510.05C195 510.51 194.17 510.73 193.24 510.73C192.31 510.73 191.57 510.53 190.89 510.13C190.21 509.73 189.7 509.23 189.34 508.64V515.5H187.61V500.15H189.34V502.07C189.68 501.48 190.19 500.98 190.87 500.58ZM195.93 503.26C195.61 502.68 195.19 502.23 194.65 501.93C194.11 501.63 193.52 501.47 192.87 501.47C192.22 501.47 191.65 501.63 191.11 501.94C190.57 502.25 190.14 502.7 189.82 503.29C189.5 503.88 189.34 504.56 189.34 505.33C189.34 506.1 189.5 506.8 189.82 507.39C190.14 507.98 190.57 508.43 191.11 508.74C191.65 509.05 192.23 509.21 192.87 509.21C193.51 509.21 194.11 509.05 194.65 508.74C195.19 508.43 195.61 507.98 195.93 507.39C196.25 506.8 196.4 506.11 196.4 505.31C196.4 504.51 196.24 503.84 195.93 503.26Z" fill="#424242"/>
<path d="M200.46 502.51C200.89 501.71 201.48 501.08 202.24 500.64C203 500.2 203.83 499.97 204.76 499.97C205.69 499.97 206.46 500.17 207.14 500.56C207.82 500.95 208.31 501.45 208.64 502.04V500.14H210.39V510.55H208.64V508.61C208.3 509.22 207.79 509.72 207.11 510.12C206.43 510.52 205.65 510.72 204.74 510.72C203.83 510.72 202.98 510.49 202.23 510.04C201.48 509.59 200.89 508.94 200.46 508.12C200.03 507.3 199.82 506.36 199.82 505.31C199.82 504.26 200.03 503.31 200.46 502.51ZM208.15 503.28C207.83 502.7 207.41 502.25 206.87 501.94C206.33 501.63 205.74 501.47 205.09 501.47C204.44 501.47 203.86 501.62 203.32 501.93C202.79 502.23 202.36 502.68 202.05 503.26C201.74 503.84 201.58 504.53 201.58 505.31C201.58 506.09 201.74 506.8 202.05 507.39C202.37 507.98 202.79 508.43 203.32 508.74C203.85 509.05 204.44 509.21 205.09 509.21C205.74 509.21 206.33 509.05 206.87 508.74C207.41 508.43 207.83 507.98 208.15 507.39C208.47 506.8 208.62 506.11 208.62 505.33C208.62 504.55 208.46 503.86 208.15 503.28Z" fill="#424242"/>
<path d="M216.56 500.58C217.24 500.18 218.02 499.98 218.93 499.98C219.84 499.98 220.69 500.2 221.45 500.65C222.21 501.1 222.8 501.72 223.23 502.52C223.66 503.32 223.88 504.26 223.88 505.32C223.88 506.38 223.67 507.31 223.23 508.13C222.8 508.95 222.21 509.59 221.45 510.05C220.69 510.51 219.86 510.73 218.93 510.73C218 510.73 217.26 510.53 216.58 510.13C215.9 509.73 215.39 509.23 215.03 508.64V515.5H213.3V500.15H215.03V502.07C215.37 501.48 215.88 500.98 216.56 500.58ZM221.62 503.26C221.3 502.68 220.88 502.23 220.34 501.93C219.8 501.63 219.21 501.47 218.56 501.47C217.91 501.47 217.34 501.63 216.8 501.94C216.26 502.25 215.83 502.7 215.51 503.29C215.19 503.88 215.03 504.56 215.03 505.33C215.03 506.1 215.19 506.8 215.51 507.39C215.83 507.98 216.26 508.43 216.8 508.74C217.34 509.05 217.92 509.21 218.56 509.21C219.2 509.21 219.8 509.05 220.34 508.74C220.88 508.43 221.3 507.98 221.62 507.39C221.94 506.8 222.09 506.11 222.09 505.31C222.09 504.51 221.93 503.84 221.62 503.26Z" fill="#424242"/>
<path d="M235.59 506H227.27C227.33 507.03 227.68 507.83 228.32 508.4C228.96 508.98 229.73 509.26 230.65 509.26C231.4 509.26 232.02 509.09 232.52 508.74C233.02 508.39 233.37 507.93 233.57 507.34H235.43C235.15 508.34 234.59 509.15 233.76 509.78C232.93 510.41 231.88 510.72 230.64 510.72C229.65 510.72 228.77 510.5 227.99 510.05C227.21 509.6 226.6 508.98 226.16 508.16C225.71 507.34 225.49 506.4 225.49 505.32C225.49 504.24 225.7 503.3 226.14 502.49C226.57 501.68 227.18 501.06 227.95 500.62C228.73 500.18 229.62 499.96 230.64 499.96C231.66 499.96 232.5 500.18 233.26 500.61C234.02 501.04 234.61 501.63 235.02 502.39C235.43 503.14 235.64 504 235.64 504.94C235.64 505.27 235.62 505.62 235.58 505.99L235.59 506ZM233.42 502.89C233.13 502.41 232.73 502.05 232.23 501.81C231.73 501.56 231.18 501.44 230.57 501.44C229.7 501.44 228.95 501.72 228.34 502.28C227.73 502.84 227.38 503.61 227.29 504.6H233.86C233.86 503.94 233.72 503.37 233.42 502.9V502.89Z" fill="#424242"/>
<path d="M239.65 496.5V510.56H237.92V496.5H239.65Z" fill="#424242"/>
<path d="M250.7 500.45C251.26 500.12 251.95 499.96 252.76 499.96V501.75H252.3C250.36 501.75 249.39 502.8 249.39 504.9V510.56H247.66V500.15H249.39V501.84C249.69 501.24 250.13 500.78 250.69 500.45H250.7Z" fill="#424242"/>
<path d="M264.2 506H255.88C255.94 507.03 256.29 507.83 256.93 508.4C257.57 508.98 258.34 509.26 259.26 509.26C260.01 509.26 260.63 509.09 261.13 508.74C261.63 508.39 261.98 507.93 262.18 507.34H264.04C263.76 508.34 263.2 509.15 262.37 509.78C261.54 510.41 260.49 510.72 259.25 510.72C258.26 510.72 257.38 510.5 256.6 510.05C255.82 509.6 255.21 508.98 254.77 508.16C254.32 507.34 254.1 506.4 254.1 505.32C254.1 504.24 254.31 503.3 254.75 502.49C255.18 501.68 255.79 501.06 256.56 500.62C257.34 500.18 258.23 499.96 259.25 499.96C260.27 499.96 261.11 500.18 261.87 500.61C262.63 501.04 263.22 501.63 263.63 502.39C264.04 503.14 264.25 504 264.25 504.94C264.25 505.27 264.23 505.62 264.19 505.99L264.2 506ZM262.04 502.89C261.75 502.41 261.35 502.05 260.85 501.81C260.35 501.56 259.8 501.44 259.19 501.44C258.32 501.44 257.57 501.72 256.96 502.28C256.35 502.84 256 503.61 255.91 504.6H262.48C262.48 503.94 262.34 503.37 262.04 502.9V502.89Z" fill="#424242"/>
<path d="M268.65 501.57V507.71C268.65 508.22 268.76 508.57 268.97 508.78C269.18 508.99 269.56 509.09 270.09 509.09H271.36V510.55H269.8C268.84 510.55 268.11 510.33 267.63 509.88C267.15 509.44 266.91 508.71 266.91 507.7V501.56H265.56V500.14H266.91V497.52H268.64V500.14H271.36V501.56H268.64L268.65 501.57Z" fill="#424242"/>
<path d="M273.45 502.51C273.88 501.71 274.47 501.08 275.23 500.64C275.99 500.2 276.82 499.97 277.75 499.97C278.68 499.97 279.46 500.17 280.13 500.56C280.8 500.95 281.3 501.45 281.63 502.04V500.14H283.38V510.55H281.63V508.61C281.29 509.22 280.78 509.72 280.1 510.12C279.42 510.52 278.63 510.72 277.73 510.72C276.83 510.72 275.97 510.49 275.22 510.04C274.47 509.58 273.88 508.94 273.45 508.12C273.02 507.3 272.8 506.36 272.8 505.31C272.8 504.26 273.01 503.31 273.45 502.51ZM281.15 503.28C280.83 502.7 280.41 502.25 279.87 501.94C279.33 501.63 278.74 501.47 278.09 501.47C277.44 501.47 276.86 501.62 276.32 501.93C275.79 502.23 275.36 502.68 275.05 503.26C274.74 503.84 274.58 504.53 274.58 505.31C274.58 506.09 274.74 506.8 275.05 507.39C275.37 507.98 275.79 508.43 276.32 508.74C276.85 509.05 277.44 509.21 278.09 509.21C278.74 509.21 279.33 509.05 279.87 508.74C280.41 508.43 280.83 507.98 281.15 507.39C281.47 506.8 281.62 506.11 281.62 505.33C281.62 504.55 281.46 503.86 281.15 503.28Z" fill="#424242"/>
<path d="M294.45 501.11C295.24 501.88 295.63 502.98 295.63 504.43V510.57H293.92V504.68C293.92 503.64 293.66 502.85 293.14 502.3C292.62 501.75 291.91 501.47 291.01 501.47C290.11 501.47 289.37 501.75 288.83 502.32C288.29 502.89 288.02 503.72 288.02 504.81V510.57H286.29V500.16H288.02V501.64C288.36 501.11 288.83 500.7 289.42 500.4C290.01 500.11 290.66 499.96 291.37 499.96C292.64 499.96 293.66 500.34 294.45 501.11Z" fill="#424242"/>
<path d="M305.12 500.57C305.8 500.96 306.3 501.46 306.63 502.05V500.15H308.38V510.79C308.38 511.74 308.18 512.59 307.77 513.33C307.36 514.07 306.78 514.65 306.03 515.07C305.28 515.49 304.4 515.7 303.4 515.7C302.03 515.7 300.89 515.38 299.98 514.73C299.07 514.08 298.53 513.2 298.36 512.09H300.07C300.26 512.72 300.65 513.23 301.25 513.62C301.85 514.01 302.56 514.2 303.4 514.2C304.35 514.2 305.13 513.9 305.73 513.31C306.33 512.71 306.63 511.88 306.63 510.8V508.62C306.29 509.23 305.78 509.74 305.11 510.14C304.44 510.55 303.65 510.75 302.75 510.75C301.85 510.75 300.99 510.52 300.23 510.07C299.47 509.62 298.88 508.97 298.45 508.15C298.02 507.33 297.8 506.39 297.8 505.34C297.8 504.29 298.01 503.34 298.45 502.54C298.88 501.74 299.47 501.11 300.23 500.67C300.99 500.23 301.82 500 302.75 500C303.68 500 304.44 500.2 305.12 500.59V500.57ZM306.15 503.28C305.83 502.7 305.41 502.25 304.87 501.94C304.33 501.63 303.74 501.47 303.09 501.47C302.44 501.47 301.86 501.62 301.32 501.93C300.79 502.23 300.36 502.68 300.05 503.26C299.74 503.84 299.58 504.53 299.58 505.31C299.58 506.09 299.74 506.8 300.05 507.39C300.37 507.98 300.79 508.43 301.32 508.74C301.85 509.05 302.44 509.21 303.09 509.21C303.74 509.21 304.33 509.05 304.87 508.74C305.41 508.43 305.83 507.98 306.15 507.39C306.47 506.8 306.62 506.11 306.62 505.33C306.62 504.55 306.46 503.86 306.15 503.28Z" fill="#424242"/>
<path d="M320.54 500.15V510.56H318.81V509.02C318.48 509.55 318.02 509.97 317.43 510.26C316.84 510.56 316.19 510.71 315.48 510.71C314.67 510.71 313.94 510.54 313.29 510.21C312.64 509.88 312.13 509.37 311.76 508.7C311.39 508.03 311.2 507.21 311.2 506.25V500.15H312.91V506.02C312.91 507.05 313.17 507.83 313.69 508.39C314.21 508.94 314.92 509.22 315.82 509.22C316.72 509.22 317.47 508.93 318.01 508.36C318.54 507.79 318.81 506.96 318.81 505.87V500.15H320.54Z" fill="#424242"/>
<path d="M325.19 496.5V510.56H323.46V496.5H325.19Z" fill="#424242"/>
<path d="M328.13 502.51C328.56 501.71 329.15 501.08 329.91 500.64C330.67 500.2 331.5 499.97 332.43 499.97C333.36 499.97 334.14 500.17 334.81 500.56C335.48 500.95 335.98 501.45 336.31 502.04V500.14H338.06V510.55H336.31V508.61C335.97 509.22 335.46 509.72 334.78 510.12C334.1 510.52 333.31 510.72 332.41 510.72C331.51 510.72 330.65 510.49 329.9 510.04C329.15 509.58 328.56 508.94 328.13 508.12C327.7 507.3 327.48 506.36 327.48 505.31C327.48 504.26 327.69 503.31 328.13 502.51ZM335.83 503.28C335.51 502.7 335.09 502.25 334.55 501.94C334.01 501.63 333.42 501.47 332.77 501.47C332.12 501.47 331.54 501.62 331 501.93C330.47 502.23 330.04 502.68 329.73 503.26C329.42 503.84 329.26 504.53 329.26 505.31C329.26 506.09 329.42 506.8 329.73 507.39C330.05 507.98 330.47 508.43 331 508.74C331.53 509.05 332.12 509.21 332.77 509.21C333.42 509.21 334.01 509.05 334.55 508.74C335.09 508.43 335.51 507.98 335.83 507.39C336.15 506.8 336.3 506.11 336.3 505.33C336.3 504.55 336.14 503.86 335.83 503.28Z" fill="#424242"/>
<path d="M344.01 500.45C344.57 500.12 345.26 499.96 346.07 499.96V501.75H345.61C343.67 501.75 342.7 502.8 342.7 504.9V510.56H340.97V500.15H342.7V501.84C343 501.24 343.44 500.78 344 500.45H344.01Z" fill="#424242"/>
<path d="M362.58 506H354.26C354.32 507.03 354.67 507.83 355.31 508.4C355.95 508.98 356.72 509.26 357.64 509.26C358.39 509.26 359.01 509.09 359.51 508.74C360.01 508.39 360.36 507.93 360.56 507.34H362.42C362.14 508.34 361.58 509.15 360.75 509.78C359.92 510.41 358.87 510.72 357.63 510.72C356.64 510.72 355.76 510.5 354.98 510.05C354.2 509.6 353.59 508.98 353.15 508.16C352.7 507.34 352.48 506.4 352.48 505.32C352.48 504.24 352.69 503.3 353.13 502.49C353.56 501.68 354.17 501.06 354.94 500.62C355.72 500.18 356.61 499.96 357.63 499.96C358.65 499.96 359.49 500.18 360.25 500.61C361.01 501.04 361.6 501.63 362.01 502.39C362.42 503.14 362.63 504 362.63 504.94C362.63 505.27 362.61 505.62 362.57 505.99L362.58 506ZM360.42 502.89C360.13 502.41 359.73 502.05 359.23 501.81C358.73 501.56 358.18 501.44 357.57 501.44C356.7 501.44 355.95 501.72 355.34 502.28C354.73 502.84 354.38 503.61 354.29 504.6H360.86C360.86 503.94 360.72 503.37 360.42 502.9V502.89Z" fill="#424242"/>
<path d="M369.99 502.51C370.42 501.71 371.01 501.08 371.77 500.64C372.53 500.2 373.37 499.97 374.31 499.97C375.12 499.97 375.87 500.16 376.57 500.53C377.27 500.9 377.8 501.39 378.17 502V496.49H379.92V510.55H378.17V508.59C377.83 509.21 377.32 509.72 376.65 510.12C375.98 510.52 375.19 510.72 374.29 510.72C373.39 510.72 372.53 510.49 371.77 510.04C371.01 509.59 370.42 508.94 369.99 508.12C369.56 507.3 369.35 506.36 369.35 505.31C369.35 504.26 369.56 503.31 369.99 502.51ZM377.69 503.28C377.37 502.7 376.95 502.25 376.41 501.94C375.87 501.63 375.28 501.47 374.63 501.47C373.98 501.47 373.4 501.62 372.86 501.93C372.33 502.23 371.9 502.68 371.59 503.26C371.28 503.84 371.12 504.53 371.12 505.31C371.12 506.09 371.28 506.8 371.59 507.39C371.91 507.98 372.33 508.43 372.86 508.74C373.39 509.05 373.98 509.21 374.63 509.21C375.28 509.21 375.87 509.05 376.41 508.74C376.95 508.43 377.37 507.98 377.69 507.39C378.01 506.8 378.16 506.11 378.16 505.33C378.16 504.55 378 503.86 377.69 503.28Z" fill="#424242"/>
<path d="M384.72 510.07C383.93 509.63 383.31 509 382.86 508.18C382.41 507.36 382.19 506.42 382.19 505.34C382.19 504.26 382.42 503.34 382.88 502.52C383.34 501.7 383.97 501.08 384.77 500.64C385.57 500.2 386.46 499.98 387.45 499.98C388.44 499.98 389.33 500.2 390.13 500.64C390.93 501.08 391.56 501.7 392.02 502.51C392.48 503.32 392.71 504.26 392.71 505.34C392.71 506.42 392.47 507.36 392 508.18C391.53 509 390.88 509.63 390.07 510.07C389.26 510.51 388.36 510.74 387.37 510.74C386.38 510.74 385.51 510.52 384.72 510.07ZM389.12 508.77C389.66 508.48 390.1 508.04 390.44 507.46C390.78 506.88 390.94 506.17 390.94 505.33C390.94 504.49 390.78 503.78 390.45 503.2C390.12 502.62 389.69 502.18 389.16 501.9C388.63 501.61 388.05 501.47 387.43 501.47C386.81 501.47 386.22 501.61 385.69 501.9C385.16 502.19 384.74 502.62 384.43 503.2C384.11 503.78 383.96 504.49 383.96 505.33C383.96 506.17 384.12 506.89 384.43 507.48C384.74 508.06 385.15 508.5 385.67 508.78C386.19 509.06 386.76 509.21 387.38 509.21C388 509.21 388.58 509.06 389.13 508.77H389.12Z" fill="#424242"/>
<path d="M398.28 500.57C398.96 500.18 399.74 499.98 400.62 499.98C401.56 499.98 402.4 500.2 403.15 500.65C403.9 501.09 404.49 501.72 404.92 502.52C405.35 503.32 405.57 504.26 405.57 505.32C405.57 506.38 405.36 507.31 404.92 508.13C404.49 508.95 403.9 509.59 403.14 510.05C402.38 510.51 401.55 510.73 400.62 510.73C399.69 510.73 398.93 510.53 398.25 510.14C397.57 509.75 397.06 509.25 396.72 508.64V510.56H394.99V496.5H396.72V502.09C397.07 501.47 397.59 500.96 398.28 500.57ZM403.32 503.26C403 502.68 402.58 502.23 402.04 501.93C401.5 501.63 400.91 501.47 400.26 501.47C399.61 501.47 399.04 501.63 398.5 501.94C397.96 502.25 397.53 502.7 397.21 503.29C396.89 503.88 396.73 504.56 396.73 505.33C396.73 506.1 396.89 506.8 397.21 507.39C397.53 507.98 397.96 508.43 398.5 508.74C399.04 509.05 399.62 509.21 400.26 509.21C400.9 509.21 401.5 509.05 402.04 508.74C402.58 508.43 403 507.98 403.32 507.39C403.64 506.8 403.79 506.11 403.79 505.31C403.79 504.51 403.63 503.84 403.32 503.26Z" fill="#424242"/>
<path d="M410.87 500.45C411.43 500.12 412.12 499.96 412.93 499.96V501.75H412.47C410.53 501.75 409.56 502.8 409.56 504.9V510.56H407.83V500.15H409.56V501.84C409.86 501.24 410.3 500.78 410.86 500.45H410.87Z" fill="#424242"/>
<path d="M424.37 506H416.05C416.11 507.03 416.46 507.83 417.1 508.4C417.74 508.98 418.51 509.26 419.43 509.26C420.18 509.26 420.8 509.09 421.3 508.74C421.8 508.39 422.15 507.93 422.35 507.34H424.21C423.93 508.34 423.37 509.15 422.54 509.78C421.71 510.41 420.66 510.72 419.42 510.72C418.43 510.72 417.55 510.5 416.77 510.05C415.99 509.6 415.38 508.98 414.94 508.16C414.49 507.34 414.27 506.4 414.27 505.32C414.27 504.24 414.48 503.3 414.92 502.49C415.35 501.68 415.96 501.06 416.73 500.62C417.51 500.18 418.4 499.96 419.42 499.96C420.44 499.96 421.28 500.18 422.04 500.61C422.8 501.04 423.39 501.63 423.8 502.39C424.21 503.14 424.42 504 424.42 504.94C424.42 505.27 424.4 505.62 424.36 505.99L424.37 506ZM422.2 502.89C421.91 502.41 421.51 502.05 421.01 501.81C420.51 501.56 419.96 501.44 419.35 501.44C418.48 501.44 417.73 501.72 417.12 502.28C416.51 502.84 416.16 503.61 416.07 504.6H422.64C422.64 503.94 422.5 503.37 422.2 502.9V502.89Z" fill="#424242"/>
<path d="M433.93 502.86V504.32H426.35V502.86H433.93Z" fill="#424242"/>
<path d="M439.06 510.07C438.27 509.63 437.65 509 437.2 508.18C436.75 507.36 436.53 506.42 436.53 505.34C436.53 504.26 436.76 503.34 437.22 502.52C437.68 501.7 438.31 501.08 439.11 500.64C439.91 500.2 440.8 499.98 441.79 499.98C442.78 499.98 443.67 500.2 444.47 500.64C445.27 501.08 445.9 501.7 446.36 502.51C446.82 503.32 447.05 504.26 447.05 505.34C447.05 506.42 446.81 507.36 446.34 508.18C445.87 509 445.22 509.63 444.41 510.07C443.6 510.51 442.7 510.74 441.71 510.74C440.72 510.74 439.85 510.52 439.06 510.07ZM443.46 508.77C444 508.48 444.44 508.04 444.78 507.46C445.12 506.88 445.28 506.17 445.28 505.33C445.28 504.49 445.12 503.78 444.79 503.2C444.46 502.62 444.03 502.18 443.5 501.9C442.97 501.61 442.39 501.47 441.77 501.47C441.15 501.47 440.56 501.61 440.03 501.9C439.5 502.19 439.08 502.62 438.77 503.2C438.45 503.78 438.3 504.49 438.3 505.33C438.3 506.17 438.46 506.89 438.77 507.48C439.08 508.06 439.49 508.5 440.01 508.78C440.53 509.06 441.1 509.21 441.72 509.21C442.34 509.21 442.92 509.06 443.47 508.77H443.46Z" fill="#424242"/>
<path d="M462.56 501.11C463.35 501.88 463.74 502.98 463.74 504.43V510.57H462.03V504.68C462.03 503.64 461.77 502.85 461.25 502.3C460.73 501.75 460.02 501.47 459.12 501.47C458.22 501.47 457.48 501.75 456.94 502.32C456.4 502.89 456.13 503.72 456.13 504.81V510.57H454.4V500.16H456.13V501.64C456.47 501.11 456.94 500.7 457.53 500.4C458.12 500.11 458.77 499.96 459.48 499.96C460.75 499.96 461.77 500.34 462.56 501.11Z" fill="#424242"/>
<path d="M468.46 510.07C467.67 509.63 467.05 509 466.6 508.18C466.15 507.36 465.93 506.42 465.93 505.34C465.93 504.26 466.16 503.34 466.62 502.52C467.08 501.7 467.71 501.08 468.51 500.64C469.31 500.2 470.2 499.98 471.19 499.98C472.18 499.98 473.07 500.2 473.87 500.64C474.67 501.08 475.3 501.7 475.76 502.51C476.22 503.32 476.45 504.26 476.45 505.34C476.45 506.42 476.21 507.36 475.74 508.18C475.27 509 474.62 509.63 473.81 510.07C473 510.51 472.1 510.74 471.11 510.74C470.12 510.74 469.25 510.52 468.46 510.07ZM472.86 508.77C473.4 508.48 473.84 508.04 474.18 507.46C474.52 506.88 474.68 506.17 474.68 505.33C474.68 504.49 474.52 503.78 474.19 503.2C473.86 502.62 473.43 502.18 472.9 501.9C472.37 501.61 471.79 501.47 471.17 501.47C470.55 501.47 469.96 501.61 469.43 501.9C468.9 502.19 468.48 502.62 468.17 503.2C467.85 503.78 467.7 504.49 467.7 505.33C467.7 506.17 467.86 506.89 468.17 507.48C468.48 508.06 468.89 508.5 469.41 508.78C469.93 509.06 470.5 509.21 471.12 509.21C471.74 509.21 472.32 509.06 472.87 508.77H472.86Z" fill="#424242"/>
<path d="M498.49 500.46C499.12 500.8 499.62 501.3 499.99 501.97C500.36 502.64 500.54 503.46 500.54 504.42V510.56H498.83V504.67C498.83 503.63 498.57 502.84 498.06 502.29C497.55 501.74 496.85 501.46 495.98 501.46C495.11 501.46 494.37 501.75 493.83 502.32C493.3 502.9 493.03 503.73 493.03 504.82V510.56H491.32V504.67C491.32 503.63 491.06 502.84 490.55 502.29C490.04 501.74 489.34 501.46 488.47 501.46C487.6 501.46 486.85 501.75 486.32 502.32C485.79 502.9 485.52 503.73 485.52 504.82V510.56H483.79V500.15H485.52V501.65C485.86 501.11 486.32 500.69 486.9 500.4C487.48 500.11 488.11 499.96 488.81 499.96C489.68 499.96 490.46 500.16 491.13 500.55C491.8 500.94 492.3 501.52 492.63 502.28C492.92 501.55 493.4 500.98 494.08 500.57C494.75 500.16 495.5 499.96 496.32 499.96C497.14 499.96 497.85 500.13 498.49 500.46Z" fill="#424242"/>
<path d="M512.81 506H504.49C504.55 507.03 504.91 507.83 505.54 508.4C506.18 508.98 506.96 509.26 507.87 509.26C508.62 509.26 509.24 509.09 509.74 508.74C510.24 508.39 510.59 507.93 510.79 507.34H512.65C512.37 508.34 511.81 509.15 510.98 509.78C510.15 510.41 509.1 510.72 507.86 510.72C506.87 510.72 505.99 510.5 505.21 510.05C504.43 509.6 503.82 508.98 503.38 508.16C502.94 507.34 502.72 506.4 502.72 505.32C502.72 504.24 502.93 503.3 503.36 502.49C503.79 501.68 504.4 501.06 505.17 500.62C505.95 500.18 506.85 499.96 507.86 499.96C508.87 499.96 509.72 500.18 510.48 500.61C511.24 501.04 511.83 501.63 512.24 502.39C512.65 503.15 512.86 504 512.86 504.94C512.86 505.27 512.84 505.62 512.8 505.99L512.81 506ZM510.65 502.89C510.36 502.41 509.96 502.05 509.46 501.81C508.96 501.56 508.41 501.44 507.8 501.44C506.92 501.44 506.18 501.72 505.57 502.28C504.95 502.84 504.6 503.61 504.52 504.6H511.09C511.09 503.94 510.94 503.37 510.65 502.9V502.89Z" fill="#424242"/>
<path d="M515.21 498.11C514.98 497.88 514.87 497.6 514.87 497.27C514.87 496.94 514.98 496.66 515.21 496.43C515.44 496.2 515.72 496.09 516.05 496.09C516.38 496.09 516.64 496.2 516.86 496.43C517.08 496.66 517.19 496.94 517.19 497.27C517.19 497.6 517.08 497.88 516.86 498.11C516.64 498.34 516.37 498.45 516.05 498.45C515.73 498.45 515.44 498.34 515.21 498.11ZM516.88 500.15V510.56H515.15V500.15H516.88Z" fill="#424242"/>
<path d="M521.71 510.07C520.92 509.63 520.3 509 519.85 508.18C519.4 507.36 519.18 506.42 519.18 505.34C519.18 504.26 519.41 503.34 519.87 502.52C520.33 501.7 520.96 501.08 521.76 500.64C522.56 500.2 523.45 499.98 524.44 499.98C525.43 499.98 526.32 500.2 527.12 500.64C527.92 501.08 528.55 501.7 529.01 502.51C529.47 503.32 529.7 504.26 529.7 505.34C529.7 506.42 529.46 507.36 528.99 508.18C528.51 509 527.87 509.63 527.06 510.07C526.25 510.51 525.35 510.74 524.36 510.74C523.37 510.74 522.5 510.52 521.71 510.07ZM526.11 508.77C526.65 508.48 527.09 508.04 527.43 507.46C527.77 506.88 527.93 506.17 527.93 505.33C527.93 504.49 527.76 503.78 527.44 503.2C527.11 502.62 526.68 502.18 526.15 501.9C525.62 501.61 525.04 501.47 524.42 501.47C523.8 501.47 523.21 501.61 522.68 501.9C522.15 502.19 521.73 502.62 521.42 503.2C521.1 503.78 520.95 504.49 520.95 505.33C520.95 506.17 521.1 506.89 521.41 507.48C521.72 508.06 522.13 508.5 522.65 508.78C523.17 509.06 523.74 509.21 524.36 509.21C524.98 509.21 525.56 509.06 526.11 508.77Z" fill="#424242"/>
<path d="M209.54 523.38C210.22 522.98 211.01 522.78 211.91 522.78C212.81 522.78 213.67 523 214.43 523.45C215.19 523.9 215.78 524.52 216.21 525.32C216.64 526.12 216.86 527.06 216.86 528.12C216.86 529.18 216.64 530.11 216.21 530.93C215.78 531.75 215.19 532.39 214.43 532.85C213.67 533.31 212.84 533.53 211.91 533.53C210.98 533.53 210.24 533.33 209.56 532.93C208.88 532.53 208.37 532.03 208.01 531.44V538.3H206.28V522.95H208.01V524.87C208.35 524.28 208.86 523.78 209.54 523.38ZM214.6 526.06C214.28 525.48 213.86 525.03 213.32 524.73C212.78 524.43 212.19 524.27 211.54 524.27C210.89 524.27 210.32 524.43 209.78 524.74C209.24 525.05 208.81 525.5 208.49 526.09C208.17 526.68 208.01 527.36 208.01 528.13C208.01 528.9 208.17 529.6 208.49 530.19C208.81 530.78 209.24 531.23 209.78 531.54C210.32 531.85 210.9 532.01 211.54 532.01C212.18 532.01 212.78 531.85 213.32 531.54C213.86 531.23 214.28 530.78 214.6 530.19C214.92 529.6 215.07 528.91 215.07 528.11C215.07 527.31 214.91 526.64 214.6 526.06Z" fill="#424242"/>
<path d="M219.12 525.31C219.55 524.51 220.14 523.88 220.9 523.44C221.66 523 222.49 522.77 223.42 522.77C224.35 522.77 225.13 522.97 225.8 523.36C226.47 523.75 226.97 524.25 227.3 524.84V522.94H229.05V533.35H227.3V531.41C226.96 532.02 226.45 532.52 225.77 532.92C225.09 533.32 224.3 533.52 223.4 533.52C222.5 533.52 221.64 533.29 220.89 532.84C220.14 532.38 219.55 531.74 219.12 530.92C218.69 530.1 218.47 529.16 218.47 528.11C218.47 527.06 218.68 526.11 219.12 525.31ZM226.82 526.08C226.5 525.5 226.08 525.05 225.54 524.74C225 524.43 224.41 524.27 223.76 524.27C223.11 524.27 222.53 524.42 221.99 524.73C221.46 525.03 221.03 525.48 220.72 526.06C220.41 526.64 220.25 527.33 220.25 528.11C220.25 528.89 220.41 529.6 220.72 530.19C221.04 530.78 221.46 531.23 221.99 531.54C222.52 531.85 223.11 532.01 223.76 532.01C224.41 532.01 225 531.85 225.54 531.54C226.08 531.23 226.5 530.78 226.82 530.19C227.14 529.6 227.29 528.91 227.29 528.13C227.29 527.35 227.13 526.66 226.82 526.08Z" fill="#424242"/>
<path d="M235 523.25C235.56 522.92 236.25 522.76 237.06 522.76V524.55H236.6C234.66 524.55 233.69 525.6 233.69 527.7V533.36H231.96V522.95H233.69V524.64C233.99 524.04 234.43 523.58 234.99 523.25H235Z" fill="#424242"/>
<path d="M239.05 525.31C239.48 524.51 240.07 523.88 240.83 523.44C241.59 523 242.42 522.77 243.35 522.77C244.28 522.77 245.05 522.97 245.73 523.36C246.41 523.75 246.9 524.25 247.23 524.84V522.94H248.98V533.35H247.23V531.41C246.89 532.02 246.38 532.52 245.7 532.92C245.02 533.32 244.24 533.52 243.33 533.52C242.42 533.52 241.57 533.29 240.82 532.84C240.07 532.39 239.48 531.74 239.05 530.92C238.62 530.1 238.41 529.16 238.41 528.11C238.41 527.06 238.62 526.11 239.05 525.31ZM246.75 526.08C246.43 525.5 246.01 525.05 245.47 524.74C244.93 524.43 244.34 524.27 243.69 524.27C243.04 524.27 242.46 524.42 241.92 524.73C241.39 525.03 240.96 525.48 240.65 526.06C240.34 526.64 240.18 527.33 240.18 528.11C240.18 528.89 240.34 529.6 240.65 530.19C240.97 530.78 241.39 531.23 241.92 531.54C242.45 531.85 243.04 532.01 243.69 532.01C244.34 532.01 244.93 531.85 245.47 531.54C246.01 531.23 246.43 530.78 246.75 530.19C247.07 529.6 247.22 528.91 247.22 528.13C247.22 527.35 247.06 526.66 246.75 526.08Z" fill="#424242"/>
<path d="M271.66 523.26C272.29 523.6 272.79 524.1 273.16 524.77C273.53 525.44 273.71 526.26 273.71 527.22V533.36H272V527.47C272 526.43 271.74 525.64 271.23 525.09C270.72 524.54 270.02 524.26 269.15 524.26C268.28 524.26 267.54 524.55 267 525.12C266.47 525.7 266.2 526.53 266.2 527.62V533.36H264.49V527.47C264.49 526.43 264.23 525.64 263.72 525.09C263.21 524.54 262.51 524.26 261.64 524.26C260.77 524.26 260.02 524.55 259.49 525.12C258.96 525.7 258.69 526.53 258.69 527.62V533.36H256.96V522.95H258.69V524.45C259.03 523.91 259.49 523.49 260.07 523.2C260.65 522.91 261.28 522.76 261.98 522.76C262.85 522.76 263.63 522.96 264.3 523.35C264.97 523.74 265.47 524.32 265.8 525.08C266.09 524.35 266.57 523.78 267.25 523.37C267.92 522.96 268.67 522.76 269.49 522.76C270.31 522.76 271.02 522.93 271.66 523.26Z" fill="#424242"/>
<path d="M276.54 525.31C276.97 524.51 277.56 523.88 278.32 523.44C279.08 523 279.91 522.77 280.84 522.77C281.77 522.77 282.55 522.97 283.22 523.36C283.89 523.75 284.39 524.25 284.72 524.84V522.94H286.47V533.35H284.72V531.41C284.38 532.02 283.87 532.52 283.19 532.92C282.51 533.32 281.72 533.52 280.82 533.52C279.92 533.52 279.06 533.29 278.31 532.84C277.56 532.38 276.97 531.74 276.54 530.92C276.11 530.1 275.89 529.16 275.89 528.11C275.89 527.06 276.1 526.11 276.54 525.31ZM284.24 526.08C283.92 525.5 283.5 525.05 282.96 524.74C282.42 524.43 281.83 524.27 281.18 524.27C280.53 524.27 279.95 524.42 279.41 524.73C278.88 525.03 278.45 525.48 278.14 526.06C277.83 526.64 277.67 527.33 277.67 528.11C277.67 528.89 277.83 529.6 278.14 530.19C278.46 530.78 278.88 531.23 279.41 531.54C279.94 531.85 280.53 532.01 281.18 532.01C281.83 532.01 282.42 531.85 282.96 531.54C283.5 531.23 283.92 530.78 284.24 530.19C284.56 529.6 284.71 528.91 284.71 528.13C284.71 527.35 284.55 526.66 284.24 526.08Z" fill="#424242"/>
<path d="M292.41 523.25C292.97 522.92 293.66 522.76 294.47 522.76V524.55H294.01C292.07 524.55 291.1 525.6 291.1 527.7V533.36H289.37V522.95H291.1V524.64C291.4 524.04 291.84 523.58 292.4 523.25H292.41Z" fill="#424242"/>
<path d="M296.47 525.31C296.9 524.51 297.5 523.88 298.27 523.44C299.04 523 299.91 522.77 300.9 522.77C302.18 522.77 303.23 523.08 304.06 523.7C304.89 524.32 305.44 525.18 305.7 526.28H303.84C303.66 525.65 303.32 525.15 302.8 524.78C302.29 524.41 301.65 524.23 300.89 524.23C299.9 524.23 299.1 524.57 298.5 525.25C297.9 525.93 297.59 526.89 297.59 528.13C297.59 529.37 297.89 530.35 298.5 531.04C299.11 531.72 299.91 532.07 300.89 532.07C301.65 532.07 302.28 531.89 302.79 531.54C303.3 531.19 303.64 530.68 303.83 530.02H305.69C305.41 531.08 304.85 531.94 304.02 532.58C303.19 533.22 302.14 533.54 300.89 533.54C299.9 533.54 299.02 533.32 298.26 532.87C297.49 532.43 296.89 531.8 296.46 530.99C296.03 530.18 295.82 529.23 295.82 528.14C295.82 527.05 296.03 526.12 296.46 525.32L296.47 525.31Z" fill="#424242"/>
<path d="M308 525.31C308.43 524.51 309.02 523.88 309.78 523.44C310.54 523 311.37 522.77 312.3 522.77C313.23 522.77 314.01 522.97 314.68 523.36C315.35 523.75 315.85 524.25 316.18 524.84V522.94H317.93V533.35H316.18V531.41C315.84 532.02 315.33 532.52 314.65 532.92C313.97 533.32 313.18 533.52 312.28 533.52C311.38 533.52 310.52 533.29 309.77 532.84C309.02 532.38 308.43 531.74 308 530.92C307.57 530.1 307.35 529.16 307.35 528.11C307.35 527.06 307.56 526.11 308 525.31ZM315.7 526.08C315.38 525.5 314.96 525.05 314.42 524.74C313.88 524.43 313.29 524.27 312.64 524.27C311.99 524.27 311.41 524.42 310.87 524.73C310.34 525.03 309.91 525.48 309.6 526.06C309.29 526.64 309.13 527.33 309.13 528.11C309.13 528.89 309.29 529.6 309.6 530.19C309.92 530.78 310.34 531.23 310.87 531.54C311.4 531.85 311.99 532.01 312.64 532.01C313.29 532.01 313.88 531.85 314.42 531.54C314.96 531.23 315.38 530.78 315.7 530.19C316.02 529.6 316.17 528.91 316.17 528.13C316.17 527.35 316.01 526.66 315.7 526.08Z" fill="#424242"/>
<path d="M323.88 523.25C324.44 522.92 325.13 522.76 325.94 522.76V524.55H325.48C323.54 524.55 322.57 525.6 322.57 527.7V533.36H320.84V522.95H322.57V524.64C322.87 524.04 323.31 523.58 323.87 523.25H323.88Z" fill="#424242"/>
<path d="M334.9 532.87C334.11 532.43 333.49 531.8 333.04 530.98C332.59 530.16 332.37 529.22 332.37 528.14C332.37 527.06 332.6 526.14 333.06 525.32C333.52 524.5 334.15 523.88 334.95 523.44C335.75 523 336.64 522.78 337.63 522.78C338.62 522.78 339.51 523 340.31 523.44C341.11 523.88 341.74 524.5 342.2 525.31C342.66 526.12 342.89 527.06 342.89 528.14C342.89 529.22 342.65 530.16 342.18 530.98C341.7 531.8 341.06 532.43 340.25 532.87C339.44 533.31 338.54 533.54 337.55 533.54C336.56 533.54 335.69 533.32 334.9 532.87ZM339.3 531.57C339.84 531.28 340.28 530.84 340.62 530.26C340.96 529.68 341.12 528.97 341.12 528.13C341.12 527.29 340.95 526.58 340.63 526C340.3 525.42 339.87 524.98 339.34 524.7C338.81 524.41 338.23 524.27 337.61 524.27C336.99 524.27 336.4 524.41 335.87 524.7C335.34 524.99 334.92 525.42 334.61 526C334.29 526.58 334.14 527.29 334.14 528.13C334.14 528.97 334.29 529.69 334.6 530.28C334.91 530.86 335.32 531.3 335.84 531.58C336.36 531.86 336.93 532.01 337.55 532.01C338.17 532.01 338.75 531.86 339.3 531.57Z" fill="#424242"/>
<path d="M350.24 525.31C350.67 524.51 351.27 523.88 352.04 523.44C352.81 523 353.68 522.77 354.67 522.77C355.95 522.77 357 523.08 357.83 523.7C358.66 524.32 359.21 525.18 359.47 526.28H357.61C357.43 525.65 357.09 525.15 356.57 524.78C356.06 524.41 355.42 524.23 354.66 524.23C353.67 524.23 352.87 524.57 352.27 525.25C351.67 525.93 351.36 526.89 351.36 528.13C351.36 529.37 351.66 530.35 352.27 531.04C352.88 531.72 353.68 532.07 354.66 532.07C355.42 532.07 356.05 531.89 356.56 531.54C357.07 531.19 357.41 530.68 357.6 530.02H359.46C359.18 531.08 358.62 531.94 357.79 532.58C356.96 533.22 355.91 533.54 354.66 533.54C353.67 533.54 352.79 533.32 352.03 532.87C351.26 532.43 350.66 531.8 350.23 530.99C349.8 530.18 349.59 529.23 349.59 528.14C349.59 527.05 349.8 526.12 350.23 525.32L350.24 525.31Z" fill="#424242"/>
<path d="M371.22 528.8H362.9C362.96 529.83 363.31 530.63 363.95 531.2C364.59 531.78 365.36 532.06 366.28 532.06C367.03 532.06 367.65 531.89 368.15 531.54C368.65 531.19 369 530.73 369.2 530.14H371.06C370.78 531.14 370.22 531.95 369.39 532.58C368.56 533.21 367.51 533.52 366.27 533.52C365.28 533.52 364.4 533.3 363.62 532.85C362.84 532.4 362.23 531.78 361.79 530.96C361.34 530.14 361.12 529.2 361.12 528.12C361.12 527.04 361.33 526.1 361.77 525.29C362.2 524.48 362.81 523.86 363.58 523.42C364.36 522.98 365.25 522.76 366.27 522.76C367.29 522.76 368.13 522.98 368.89 523.41C369.65 523.84 370.24 524.43 370.65 525.19C371.06 525.94 371.27 526.8 371.27 527.74C371.27 528.07 371.25 528.42 371.21 528.79L371.22 528.8ZM369.05 525.69C368.76 525.21 368.36 524.85 367.86 524.61C367.36 524.36 366.81 524.24 366.2 524.24C365.33 524.24 364.58 524.52 363.97 525.08C363.36 525.64 363.01 526.41 362.92 527.4H369.49C369.49 526.74 369.35 526.17 369.05 525.7V525.69Z" fill="#424242"/>
<path d="M381.71 523.91C382.5 524.68 382.89 525.78 382.89 527.23V533.37H381.18V527.48C381.18 526.44 380.92 525.65 380.4 525.1C379.88 524.55 379.17 524.27 378.27 524.27C377.37 524.27 376.63 524.55 376.09 525.12C375.55 525.69 375.28 526.52 375.28 527.61V533.37H373.55V522.96H375.28V524.44C375.62 523.91 376.09 523.5 376.68 523.2C377.27 522.91 377.92 522.76 378.63 522.76C379.9 522.76 380.92 523.14 381.71 523.91Z" fill="#424242"/>
<path d="M387.82 524.37V530.51C387.82 531.02 387.93 531.37 388.14 531.58C388.36 531.79 388.73 531.89 389.26 531.89H390.53V533.35H388.97C388.01 533.35 387.28 533.13 386.8 532.68C386.32 532.24 386.08 531.51 386.08 530.5V524.36H384.73V522.94H386.08V520.32H387.81V522.94H390.53V524.36H387.81L387.82 524.37Z" fill="#424242"/>
<path d="M395.66 523.25C396.22 522.92 396.91 522.76 397.72 522.76V524.55H397.26C395.32 524.55 394.35 525.6 394.35 527.7V533.36H392.62V522.95H394.35V524.64C394.65 524.04 395.09 523.58 395.65 523.25H395.66Z" fill="#424242"/>
<path d="M401.61 532.87C400.82 532.43 400.2 531.8 399.75 530.98C399.3 530.16 399.08 529.22 399.08 528.14C399.08 527.06 399.31 526.14 399.77 525.32C400.23 524.5 400.86 523.88 401.66 523.44C402.46 523 403.35 522.78 404.34 522.78C405.33 522.78 406.22 523 407.02 523.44C407.82 523.88 408.45 524.5 408.91 525.31C409.37 526.12 409.6 527.06 409.6 528.14C409.6 529.22 409.36 530.16 408.89 530.98C408.42 531.8 407.77 532.43 406.96 532.87C406.15 533.31 405.25 533.54 404.26 533.54C403.27 533.54 402.4 533.32 401.61 532.87ZM406 531.57C406.54 531.28 406.98 530.84 407.32 530.26C407.66 529.68 407.82 528.97 407.82 528.13C407.82 527.29 407.66 526.58 407.33 526C407 525.42 406.57 524.98 406.04 524.7C405.51 524.41 404.93 524.27 404.31 524.27C403.69 524.27 403.1 524.41 402.57 524.7C402.04 524.99 401.62 525.42 401.31 526C400.99 526.58 400.84 527.29 400.84 528.13C400.84 528.97 401 529.69 401.31 530.28C401.62 530.86 402.03 531.3 402.55 531.58C403.07 531.86 403.64 532.01 404.26 532.01C404.88 532.01 405.46 531.86 406.01 531.57H406Z" fill="#424242"/>
<path d="M403.58 99.02H196.27V444.53H403.58V99.02Z" fill="#CCCCCC"/>
<path d="M407.36 92.0601H200.05V437.57H407.36V92.0601Z" fill="white"/>
<path d="M303.7 92.27V98.27" stroke="#B2CCA2" stroke-width="2"/>
<path d="M303.7 110.61V425.11" stroke="#B2CCA2" stroke-width="2"/>
<path d="M303.7 431.27V437.27" stroke="#B2CCA2" stroke-width="2"/>
<path d="M265.37 265.39C265.37 265.39 296.23 205.9 337.18 246.78" stroke="#B2CCA2" stroke-width="2"/>
<path d="M345.12 255.86C339.77 253.01 332.4 250.14 326.65 249.4L336.05 245.65L340.87 236.76C340.93 242.55 342.92 250.21 345.12 255.86Z" fill="#B2CCA2"/>
</svg>
