<svg width="159" height="181" viewBox="0 0 159 181" fill="none" xmlns="http://www.w3.org/2000/svg">
<path d="M142.223 45.3242C137.526 53.459 127.124 56.2462 118.99 51.5496C110.855 46.853 108.068 36.4511 112.764 28.3163C115.103 24.2653 120.289 20.7178 126.259 17.5486C130.041 15.5413 134.066 13.7192 137.81 12.0247C139.764 11.1404 141.641 10.2908 143.366 9.46774C144.475 13.8963 145.341 20.6572 145.385 27.3665C145.43 34.4024 144.568 41.2621 142.223 45.3242Z" fill="white" stroke="black"/>
<path d="M16.6372 45.3242C21.3338 53.459 31.7356 56.2462 39.8704 51.5496C48.0051 46.853 50.7923 36.4511 46.0957 28.3163C43.7568 24.2653 38.5709 20.7178 32.6008 17.5486C28.8195 15.5413 24.7939 13.7192 21.0502 12.0247C19.0964 11.1404 17.2194 10.2908 15.494 9.46774C14.3856 13.8963 13.5189 20.6572 13.4754 27.3665C13.4299 34.4024 14.2919 41.2621 16.6372 45.3242Z" fill="white" stroke="black"/>
<path d="M140.887 40.5374C137.798 45.8872 130.785 47.6546 125.209 44.4353C119.633 41.216 117.657 34.2589 120.746 28.9092C122.282 26.2481 125.764 23.9259 129.833 21.847C132.406 20.5325 135.141 19.3487 137.691 18.2452C138.965 17.6936 140.193 17.1622 141.332 16.6444C142.114 19.6315 142.755 24.1048 142.851 28.5389C142.902 30.8973 142.799 33.232 142.486 35.3164C142.172 37.407 141.651 39.2135 140.887 40.5374Z" fill="white" stroke="black"/>
<path d="M17.9733 40.5374C21.062 45.8872 28.0749 47.6546 33.6509 44.4353C39.2269 41.216 41.2027 34.2589 38.114 28.9092C36.5777 26.2481 33.0962 23.9259 29.0268 21.847C26.4536 20.5325 23.7186 19.3487 21.1689 18.2452C19.8946 17.6936 18.6667 17.1622 17.5283 16.6444C16.746 19.6315 16.1055 24.1048 16.0091 28.5389C15.9578 30.8973 16.0607 33.232 16.3739 35.3164C16.688 37.407 17.2089 39.2135 17.9733 40.5374Z" fill="white" stroke="black"/>
<path d="M145.376 88.6644C145.376 106.83 142.869 127.601 133.446 143.815C124.047 159.987 107.743 171.677 79.9877 171.677C52.233 171.677 35.9281 159.987 26.53 143.815C17.1067 127.601 14.5995 106.83 14.5995 88.6644C14.5995 52.5515 43.8748 23.2762 79.9877 23.2762C116.101 23.2762 145.376 52.5515 145.376 88.6644Z" fill="white" stroke="black"/>
<path d="M126.475 155.73C126.475 160.951 125.825 165.587 121.857 169.233C117.855 172.91 110.388 175.667 96.4869 176.802C94.5028 176.964 92.4213 177.541 90.2706 178.137C89.8769 178.246 89.4808 178.355 89.0826 178.463C86.4853 179.168 83.7514 179.812 80.8012 179.812C78.524 179.812 76.3025 179.193 74.1221 178.524C73.8984 178.456 73.6748 178.386 73.4513 178.317C71.5271 177.72 69.6175 177.128 67.816 177.021C52.2222 176.09 43.3062 173.369 38.2915 169.606C33.3278 165.882 32.1213 161.083 32.1213 155.73C32.1213 154.683 32.0798 153.602 32.0381 152.516C32.0185 152.007 31.9989 151.496 31.9835 150.988C31.935 149.385 31.9274 147.78 32.085 146.2C32.3991 143.051 33.3673 140.016 35.9746 137.348C38.5929 134.668 42.911 132.311 50.0217 130.626C57.1308 128.941 66.9925 127.938 80.6526 127.938C94.3135 127.938 104.004 128.941 110.856 130.625C117.711 132.309 121.678 134.662 123.954 137.323C126.221 139.975 126.866 142.998 126.932 146.161C126.965 147.746 126.853 149.355 126.73 150.965C126.721 151.085 126.712 151.205 126.703 151.325C126.589 152.808 126.475 154.294 126.475 155.73Z" fill="white" stroke="black"/>
<path d="M70.4977 172.448C73.6332 174.494 82.4698 177.359 92.7316 172.448" stroke="black" stroke-width="3" stroke-linecap="round"/>
<ellipse cx="115.508" cy="105.747" rx="14.0995" ry="13.5573" fill="black"/>
<path d="M120.747 143.728C119.169 152.524 111.851 158.428 104.529 157.115C97.2067 155.801 92.3971 147.722 93.975 138.926C95.5528 130.13 102.871 124.226 110.193 125.539C117.515 126.853 122.325 134.932 120.747 143.728Z" fill="white" stroke="black"/>
<path d="M40.2883 143.728C41.8661 152.524 49.1842 158.428 56.5062 157.115C63.8283 155.801 68.6379 147.722 67.06 138.926C65.4821 130.13 58.1641 124.226 50.842 125.539C43.52 126.853 38.7104 134.932 40.2883 143.728Z" fill="white" stroke="black"/>
<ellipse cx="46.0946" cy="105.747" rx="14.0995" ry="13.5573" fill="black"/>
<ellipse cx="46.0946" cy="105.747" rx="9.21893" ry="8.67664" fill="black"/>
<circle cx="48.535" cy="100.595" r="2.44031" fill="white"/>
<circle cx="117.948" cy="100.595" r="2.44031" fill="white"/>
<path d="M80.259 88.6645C66.5933 73.4804 64.8941 39.5872 67.244 24.4031C74.5649 21.4205 94.0873 23.3185 96.2567 24.9454C97.7751 76.3545 85.953 87.0376 85.4107 88.6645C83.7838 91.1048 80.259 88.6645 80.259 88.6645Z" stroke="black"/>
<path d="M65.5644 65.6171C36.8582 56.9558 42.9554 37.923 49.8907 28.1991C66.647 17.2222 108.222 17.6141 114.152 28.7414C114.152 28.7414 115.064 29.7094 115.779 31.724C117.336 36.1133 114.413 46.871 116.222 52.3846C102.714 53.5875 97.9292 44.2646 97.2256 39.4527C88.5414 40.8963 86.7724 54.2892 86.9734 60.8053C70.0874 56.9558 68.8813 46.7707 70.389 42.1594C60.0161 45.2871 62.8506 59.1011 65.5644 65.6171Z" fill="white" stroke="black"/>
</svg>
