<svg width="293" height="333" viewBox="0 0 293 333" fill="none" xmlns="http://www.w3.org/2000/svg">
<path d="M263.062 84.0403C254.147 99.482 234.401 104.773 218.96 95.8575C203.518 86.9422 198.227 67.1969 207.143 51.7552C216.058 36.3135 246.284 25.1759 264.983 16.1425C269.383 32.5636 271.977 68.5986 263.062 84.0403Z" fill="#7D5436"/>
<path d="M29.8809 84.0403C38.7962 99.482 58.5414 104.773 73.9832 95.8575C89.4249 86.9422 94.7156 67.1969 85.8003 51.7552C76.885 36.3135 46.6593 25.1759 27.9597 16.1425C23.5597 32.5636 20.9656 68.5986 29.8809 84.0403Z" fill="#7D5436"/>
<path d="M260.598 75.2136C254.633 85.5455 241.126 88.9146 230.429 82.7388C219.732 76.5629 215.896 63.1807 221.861 52.8487C227.826 42.5168 248.472 35.3083 261.223 29.4021C264.413 40.5314 266.563 64.8816 260.598 75.2136Z" fill="#DB9861"/>
<path d="M32.3449 75.2136C38.31 85.5455 51.8173 88.9146 62.5143 82.7388C73.2112 76.5629 77.0471 63.1807 71.0819 52.8487C65.1168 42.5168 44.4711 35.3083 31.7203 29.4021C28.5303 40.5314 26.3797 64.8816 32.3449 75.2136Z" fill="#DB9861"/>
<path d="M269 163.5C269 230.603 250.5 317.5 147.5 317.5C44.5 317.5 26 230.603 26 163.5C26 96.3974 80.3974 42 147.5 42C214.603 42 269 96.3974 269 163.5Z" fill="#B66C1A"/>
<path d="M234.146 287.171C234.146 306.538 229.356 322.755 178 326.947C169.561 327.636 160.139 332.5 149 332.5C140.296 332.5 132.139 327.778 125 327.352C67.4058 323.916 58.3108 307.233 58.3108 287.171C58.3108 264.621 47.8206 235 148.726 235C249.631 235 234.146 264.621 234.146 287.171Z" fill="#DB9861"/>
<path d="M130 318C135.782 321.773 152.077 327.055 171 318" stroke="black" stroke-width="3" stroke-linecap="round"/>
<ellipse cx="213" cy="195" rx="26" ry="25" fill="black"/>
<path d="M219.631 264.496C216.937 279.514 204.691 288.739 193.298 286.695C181.904 284.651 173.628 271.746 176.322 256.727C179.016 241.709 191.262 232.484 202.656 234.528C214.049 236.572 222.325 249.478 219.631 264.496Z" fill="#6A4424" stroke="#DB9861" stroke-width="8"/>
<path d="M77.3224 264.496C80.0165 279.514 92.2624 288.739 103.656 286.695C115.049 284.651 123.325 271.746 120.631 256.727C117.937 241.709 105.691 232.484 94.2977 234.528C82.9044 236.572 74.6283 249.478 77.3224 264.496Z" fill="#6A4424" stroke="#DB9861" stroke-width="8"/>
<ellipse cx="85" cy="195" rx="26" ry="25" fill="black"/>
<ellipse cx="85" cy="195" rx="17" ry="16" fill="black"/>
<circle cx="89.5" cy="185.5" r="4.5" fill="white"/>
<circle cx="217.5" cy="185.5" r="4.5" fill="white"/>
<path d="M148 163.5C122.8 135.5 119.667 73.0001 124 45.0001C137.5 39.5 173.5 43 177.5 46C180.3 140.8 158.5 160.5 157.5 163.5C154.5 168 148 163.5 148 163.5Z" fill="#D9D9D9"/>
<path d="M120.903 121C67.9678 105.029 79.211 69.9315 92 52.0002C122.899 31.7585 199.565 32.4811 210.5 53.0003C210.5 53.0003 212.182 54.7852 213.5 58.5003C216.371 66.5944 210.982 86.4318 214.318 96.599C189.407 98.8173 180.585 81.6255 179.287 72.7523C163.273 75.4143 160.011 100.111 160.382 112.127C129.243 105.029 127.019 86.2469 129.799 77.7435C110.672 83.511 115.898 108.984 120.903 121Z" fill="#E0A644"/>
</svg>
