<svg width="243" height="288" viewBox="0 0 243 288" fill="none" xmlns="http://www.w3.org/2000/svg">
<path d="M243 148.5C243 215.603 222 270 121.5 270C21 270 0 215.603 0 148.5C0 81.3974 54.3974 27 121.5 27C188.603 27 243 81.3974 243 148.5Z" fill="#A46C44"/>
<ellipse cx="187" cy="180" rx="26" ry="25" fill="black"/>
<ellipse cx="59" cy="180" rx="26" ry="25" fill="black"/>
<ellipse cx="59" cy="180" rx="17" ry="16" fill="black"/>
<circle cx="63.5" cy="170.5" r="4.5" fill="white"/>
<circle cx="191.5" cy="170.5" r="4.5" fill="white"/>
<path d="M93.9078 262C98.7078 249.2 105.908 237.333 104.908 234H136.408C134.908 240.333 142.808 254.1 146.408 258.5C150.908 264 155.908 285.5 139.908 287.5C123.908 289.5 124.408 268 118.908 277.5C113.408 287 87.9078 278 93.9078 262Z" fill="#E72323"/>
<path d="M121 265C118 265 90.3333 229.667 88 225L153.5 228C151.5 232.333 124 265 121 265Z" fill="#D68123"/>
<path d="M107.307 219C102.907 224.2 88.563 223.295 87.3074 226C85.5631 232.295 116.115 261 121.307 261C126.5 261 159.307 226 153.807 226C148.307 226 138.063 223.795 134.063 218.295C130.863 213.895 124.744 213 120.5 213C116.256 213 111.707 213.8 107.307 219Z" fill="#FB9728"/>
<ellipse cx="128.5" cy="223.5" rx="1.5" ry="4.5" fill="#D68123"/>
<ellipse cx="114.5" cy="223.5" rx="1.5" ry="4.5" fill="#D68123"/>
<path d="M151.5 77.9997C137.9 77.1997 142 106.5 122 106.5C102 106.5 115 55.4998 119 42.4997C127.461 14.9997 119 27.4997 106 18.4998C98.8061 13.5194 102.8 -4.80025 122 1.99975C136.354 7.08332 133.717 28.3185 128.129 45.8176C132.902 35.4679 139.677 24.0517 147.5 18.4998C163 7.49976 167 39.9998 147.5 46.9998C131.9 52.5998 124 74.9998 122 85.4998C123.667 78.8331 131.9 64.6997 151.5 61.4997C176 57.4997 168.5 78.9997 151.5 77.9997Z" fill="#E72323"/>
</svg>
