<svg width="151" height="180" viewBox="0 0 151 180" fill="none" xmlns="http://www.w3.org/2000/svg">
<path d="M150.5 92.9639C150.5 113.78 147.238 132.51 136.28 146.036C125.341 159.539 106.639 167.964 75.5 167.964C44.3614 167.964 25.6591 159.539 14.7195 146.036C3.76167 132.51 0.5 113.78 0.5 92.9639C0.5 51.5425 34.0786 17.9639 75.5 17.9639C116.921 17.9639 150.5 51.5425 150.5 92.9639Z" fill="white" stroke="black"/>
<path d="M131.858 112.538C131.858 120.823 124.867 127.573 116.202 127.573C107.536 127.573 100.545 120.823 100.545 112.538C100.545 104.253 107.536 97.503 116.202 97.503C124.867 97.503 131.858 104.253 131.858 112.538Z" fill="white" stroke="black"/>
<path d="M52.3189 112.538C52.3189 120.823 45.3279 127.573 36.6625 127.573C27.997 127.573 21.0061 120.823 21.0061 112.538C21.0061 104.253 27.997 97.503 36.6625 97.503C45.3279 97.503 52.3189 104.253 52.3189 112.538Z" fill="white" stroke="black"/>
<circle cx="39.4589" cy="106.635" r="2.2963" fill="white" stroke="black"/>
<circle cx="118.998" cy="106.635" r="2.2963" fill="white" stroke="black"/>
<path d="M58.3542 163.493C61.3369 155.539 65.8109 148.165 65.1895 146.094H84.7636C83.8315 150.029 88.7406 158.584 90.9776 161.318C93.7739 164.735 96.8809 178.096 86.9385 179.338C76.9961 180.581 77.3068 167.221 73.8891 173.124C70.4714 179.028 54.6258 173.435 58.3542 163.493Z" fill="white" stroke="black"/>
<path d="M75.1893 165.357C73.3251 165.357 56.133 143.401 54.6831 140.501L95.3848 142.365C94.142 145.058 77.0535 165.357 75.1893 165.357Z" fill="white" stroke="black"/>
<path d="M66.6806 136.773C63.9465 140.004 55.0329 139.441 54.2526 141.122C53.1687 145.034 72.1536 162.871 75.3802 162.871C78.6069 162.871 98.9934 141.122 95.5757 141.122C92.158 141.122 85.7921 139.752 83.3065 136.334C81.318 133.6 77.516 133.044 74.8785 133.044C72.241 133.044 69.4148 133.541 66.6806 136.773Z" fill="white" stroke="black"/>
<mask id="path-9-inside-1_156_1304" fill="white">
<ellipse cx="79.8498" cy="139.569" rx="0.932099" ry="2.7963"/>
</mask>
<ellipse cx="79.8498" cy="139.569" rx="0.932099" ry="2.7963" fill="white"/>
<path d="M79.7819 139.569C79.7819 140.263 79.6866 140.851 79.5602 141.23C79.4953 141.425 79.44 141.51 79.4272 141.526C79.4055 141.554 79.5408 141.365 79.8498 141.365V143.365C80.4163 143.365 80.7967 143.02 80.998 142.764C81.2083 142.498 81.3539 142.174 81.4576 141.862C81.6686 141.229 81.7819 140.419 81.7819 139.569H79.7819ZM79.8498 141.365C80.1589 141.365 80.2941 141.554 80.2724 141.526C80.2596 141.51 80.2043 141.425 80.1394 141.23C80.013 140.851 79.9177 140.263 79.9177 139.569H77.9177C77.9177 140.419 78.0311 141.229 78.242 141.862C78.3458 142.174 78.4914 142.498 78.7016 142.764C78.9029 143.02 79.2834 143.365 79.8498 143.365V141.365ZM79.9177 139.569C79.9177 138.874 80.013 138.287 80.1394 137.908C80.2043 137.713 80.2596 137.627 80.2724 137.611C80.2941 137.584 80.1589 137.773 79.8498 137.773V135.773C79.2834 135.773 78.9029 136.118 78.7016 136.373C78.4914 136.64 78.3458 136.964 78.242 137.275C78.0311 137.908 77.9177 138.719 77.9177 139.569H79.9177ZM79.8498 137.773C79.5408 137.773 79.4055 137.584 79.4272 137.611C79.44 137.627 79.4953 137.713 79.5602 137.908C79.6866 138.287 79.7819 138.874 79.7819 139.569H81.7819C81.7819 138.719 81.6686 137.908 81.4576 137.275C81.3539 136.964 81.2083 136.64 80.998 136.373C80.7967 136.118 80.4163 135.773 79.8498 135.773V137.773Z" fill="black" mask="url(#path-9-inside-1_156_1304)"/>
<mask id="path-11-inside-2_156_1304" fill="white">
<ellipse cx="71.1501" cy="139.569" rx="0.932099" ry="2.7963"/>
</mask>
<ellipse cx="71.1501" cy="139.569" rx="0.932099" ry="2.7963" fill="white"/>
<path d="M71.0822 139.569C71.0822 140.263 70.9869 140.851 70.8605 141.23C70.7956 141.425 70.7403 141.51 70.7275 141.526C70.7058 141.554 70.8411 141.365 71.1501 141.365V143.365C71.7165 143.365 72.097 143.02 72.2983 142.764C72.5086 142.498 72.6541 142.174 72.7579 141.862C72.9689 141.229 73.0822 140.419 73.0822 139.569H71.0822ZM71.1501 141.365C71.4592 141.365 71.5944 141.554 71.5727 141.526C71.5599 141.51 71.5046 141.425 71.4397 141.23C71.3133 140.851 71.218 140.263 71.218 139.569H69.218C69.218 140.419 69.3314 141.229 69.5423 141.862C69.6461 142.174 69.7917 142.498 70.0019 142.764C70.2032 143.02 70.5837 143.365 71.1501 143.365V141.365ZM71.218 139.569C71.218 138.874 71.3133 138.287 71.4397 137.908C71.5046 137.713 71.5599 137.627 71.5727 137.611C71.5944 137.584 71.4592 137.773 71.1501 137.773V135.773C70.5837 135.773 70.2032 136.118 70.0019 136.373C69.7917 136.64 69.6461 136.964 69.5423 137.275C69.3314 137.908 69.218 138.719 69.218 139.569H71.218ZM71.1501 137.773C70.8411 137.773 70.7058 137.584 70.7275 137.611C70.7403 137.627 70.7956 137.713 70.8605 137.908C70.9869 138.287 71.0822 138.874 71.0822 139.569H73.0822C73.0822 138.719 72.9689 137.908 72.7579 137.275C72.6541 136.964 72.5086 136.64 72.2983 136.373C72.097 136.118 71.7165 135.773 71.1501 135.773V137.773Z" fill="black" mask="url(#path-11-inside-2_156_1304)"/>
<path d="M94.142 49.1552C85.691 48.6581 88.2387 66.8651 75.8108 66.8651C63.3828 66.8651 71.461 35.1738 73.9466 27.0955C79.2045 10.007 73.9466 17.7745 65.8684 12.182C61.3981 9.08723 63.8799 -2.2966 75.8108 1.92891C84.7301 5.08784 83.0918 18.2834 79.6195 29.1573C82.5852 22.726 86.7951 15.632 91.6564 12.182C101.288 5.34661 103.774 25.5421 91.6564 29.8919C81.9626 33.3717 77.0536 47.291 75.8108 53.8157C76.8464 49.6731 81.9626 40.8906 94.142 38.9021C109.366 36.4165 104.706 49.7766 94.142 49.1552Z" fill="white" stroke="black"/>
</svg>
