<svg width="600" height="59" viewBox="0 0 600 59" fill="none" xmlns="http://www.w3.org/2000/svg">
<path d="M0.607955 20V0.363636H6.94567C8.33913 0.363636 9.50249 0.632102 10.4357 1.16903C11.3754 1.69957 12.0817 2.42188 12.5547 3.33594C13.0341 4.25 13.2738 5.27912 13.2738 6.42329C13.2738 7.56747 13.0373 8.59979 12.5643 9.52024C12.0913 10.4343 11.3881 11.1598 10.4549 11.6967C9.52166 12.2273 8.36151 12.4925 6.97443 12.4925H1.98864V10.8817H6.92649C7.95561 10.8817 8.80895 10.69 9.48651 10.3065C10.1641 9.91655 10.669 9.38601 11.0014 8.71484C11.3402 8.04368 11.5096 7.27983 11.5096 6.42329C11.5096 5.56676 11.3402 4.80291 11.0014 4.13175C10.669 3.46058 10.1609 2.93324 9.47692 2.54972C8.79936 2.16619 7.93963 1.97443 6.89773 1.97443H2.40092V20H0.607955ZM17.1474 20V5.27273H18.8636V20H17.1474ZM18.0199 2.74148C17.6683 2.74148 17.3679 2.62322 17.1186 2.38672C16.8693 2.14382 16.7447 1.85298 16.7447 1.5142C16.7447 1.17543 16.8693 0.887784 17.1186 0.651279C17.3679 0.40838 17.6683 0.286931 18.0199 0.286931C18.3714 0.286931 18.6719 0.40838 18.9212 0.651279C19.1705 0.887784 19.2951 1.17543 19.2951 1.5142C19.2951 1.85298 19.1705 2.14382 18.9212 2.38672C18.6719 2.62322 18.3714 2.74148 18.0199 2.74148ZM25.0839 10.7955V20H23.3772V5.27273H25.036V7.58345H25.1894C25.5345 6.82919 26.0715 6.22514 26.8002 5.77131C27.5352 5.31108 28.4429 5.08097 29.5232 5.08097C30.5139 5.08097 31.3833 5.28871 32.1311 5.70419C32.8854 6.11328 33.4703 6.71733 33.8857 7.51633C34.3076 8.31534 34.5186 9.29652 34.5186 10.4599V20H32.8119V10.5653C32.8119 9.35724 32.4731 8.40163 31.7955 7.69851C31.1244 6.99538 30.2231 6.64382 29.0917 6.64382C28.3183 6.64382 27.6311 6.81001 27.0303 7.1424C26.4294 7.47479 25.9532 7.95419 25.6017 8.58061C25.2565 9.20064 25.0839 9.93892 25.0839 10.7955ZM44.8137 5.27273V6.75888H37.7857V5.27273H44.8137ZM39.9814 1.74432H41.6976V16.1552C41.6976 16.7688 41.8031 17.2514 42.014 17.603C42.225 17.9482 42.4998 18.1942 42.8386 18.3413C43.1774 18.4819 43.5385 18.5522 43.9221 18.5522C44.1458 18.5522 44.3375 18.5394 44.4973 18.5138C44.6571 18.4819 44.7978 18.4499 44.9192 18.418L45.2836 19.9616C45.1174 20.0256 44.9128 20.0831 44.6699 20.1342C44.427 20.1918 44.1266 20.2205 43.7686 20.2205C43.1422 20.2205 42.5382 20.0831 41.9565 19.8082C41.3812 19.5334 40.9082 19.1243 40.5375 18.581C40.1667 18.0376 39.9814 17.3633 39.9814 16.5579V1.74432ZM54.4857 20.3068C53.1114 20.3068 51.9225 19.9872 50.9189 19.348C49.9154 18.7024 49.1388 17.8107 48.589 16.6729C48.0457 15.5288 47.7741 14.212 47.7741 12.7227C47.7741 11.2397 48.0457 9.92294 48.589 8.77237C49.1388 7.61541 49.8962 6.71094 50.8614 6.05895C51.833 5.40057 52.9548 5.07138 54.2268 5.07138C55.0258 5.07138 55.7961 5.21839 56.5376 5.51243C57.279 5.80007 57.9438 6.24432 58.5319 6.84517C59.1263 7.43963 59.5961 8.1907 59.9413 9.09837C60.2865 9.99964 60.4591 11.0671 60.4591 12.3008V13.1445H48.9534V11.6392H58.714C58.714 10.6932 58.5223 9.84304 58.1388 9.08878C57.7616 8.32812 57.2343 7.72727 56.5567 7.28622C55.8856 6.84517 55.1089 6.62464 54.2268 6.62464C53.2936 6.62464 52.4722 6.87393 51.7627 7.37251C51.0532 7.87109 50.4971 8.52947 50.0944 9.34766C49.6981 10.1658 49.4967 11.0607 49.4903 12.0323V12.9336C49.4903 14.1033 49.6917 15.1261 50.0944 16.0018C50.5035 16.8711 51.0819 17.5455 51.8298 18.0249C52.5777 18.5043 53.463 18.744 54.4857 18.744C55.1824 18.744 55.7929 18.6353 56.317 18.418C56.8476 18.2006 57.2918 17.9098 57.6498 17.5455C58.0141 17.1747 58.289 16.7688 58.4743 16.3278L60.0947 16.8551C59.871 17.4751 59.5035 18.0472 58.9921 18.5714C58.4871 19.0955 57.8543 19.5174 57.0937 19.837C56.3394 20.1502 55.4701 20.3068 54.4857 20.3068ZM75.927 20.3356C75.0385 20.3356 74.2267 20.163 73.4917 19.8178C72.7566 19.4663 72.1717 18.9613 71.737 18.3029C71.3024 17.6381 71.085 16.8327 71.085 15.8867C71.085 15.158 71.2225 14.5444 71.4973 14.0458C71.7722 13.5472 72.1621 13.1381 72.6671 12.8185C73.1721 12.4989 73.7697 12.2464 74.46 12.0611C75.1504 11.8757 75.911 11.7319 76.742 11.6296C77.5666 11.5273 78.2633 11.4379 78.8322 11.3612C79.4075 11.2844 79.8453 11.163 80.1458 10.9968C80.4462 10.8306 80.5964 10.5621 80.5964 10.1914V9.84624C80.5964 8.84268 80.296 8.05327 79.6951 7.47798C79.1007 6.89631 78.2441 6.60547 77.1255 6.60547C76.0645 6.60547 75.1983 6.83878 74.5272 7.3054C73.8624 7.77202 73.3958 8.32173 73.1273 8.95454L71.5069 8.36967C71.8393 7.56428 72.2995 6.92187 72.8876 6.44247C73.4757 5.95668 74.1341 5.60831 74.8627 5.39737C75.5914 5.18004 76.3297 5.07138 77.0776 5.07138C77.6401 5.07138 78.225 5.14489 78.8322 5.2919C79.4458 5.43892 80.0147 5.6946 80.5389 6.05895C81.063 6.4169 81.4881 6.91868 81.8141 7.56428C82.1401 8.20348 82.3031 9.01527 82.3031 9.99964V20H80.5964V17.6701H80.4909C80.2864 18.1048 79.9828 18.5266 79.5801 18.9357C79.1774 19.3448 78.6724 19.6804 78.0652 19.9425C77.4579 20.2045 76.7452 20.3356 75.927 20.3356ZM76.1571 18.7727C77.0648 18.7727 77.851 18.5714 78.5158 18.1687C79.1806 17.766 79.6919 17.2322 80.0499 16.5675C80.4142 15.8963 80.5964 15.158 80.5964 14.3526V12.2241C80.4686 12.3455 80.2544 12.4542 79.954 12.5501C79.66 12.646 79.318 12.7322 78.9281 12.8089C78.5446 12.8793 78.161 12.94 77.7775 12.9911C77.394 13.0423 77.0488 13.087 76.742 13.1254C75.911 13.2276 75.2015 13.3874 74.6135 13.6048C74.0254 13.8221 73.5748 14.1225 73.2615 14.506C72.9483 14.8832 72.7917 15.369 72.7917 15.9634C72.7917 16.8583 73.1113 17.5518 73.7505 18.044C74.3897 18.5298 75.1919 18.7727 76.1571 18.7727ZM86.843 25.5227V5.27273H88.5018V8.08203H88.7031C88.9077 7.64098 89.1889 7.19034 89.5469 6.73011C89.9048 6.26349 90.3778 5.87038 90.9659 5.55078C91.5604 5.23118 92.3082 5.07138 93.2095 5.07138C94.424 5.07138 95.4851 5.39098 96.3928 6.03018C97.3068 6.663 98.0163 7.55149 98.5213 8.69567C99.0327 9.83345 99.2884 11.1598 99.2884 12.6747C99.2884 14.196 99.0327 15.5288 98.5213 16.6729C98.0163 17.8171 97.3068 18.7088 96.3928 19.348C95.4851 19.9872 94.4304 20.3068 93.2287 20.3068C92.3402 20.3068 91.5955 20.147 90.9947 19.8274C90.4002 19.5078 89.9176 19.1147 89.5469 18.6481C89.1825 18.1751 88.9013 17.7148 88.7031 17.2674H88.5497V25.5227H86.843ZM88.5305 12.646C88.5305 13.8349 88.7063 14.8896 89.0579 15.81C89.4158 16.7241 89.9272 17.4432 90.592 17.9673C91.2631 18.4851 92.0749 18.744 93.0273 18.744C94.0053 18.744 94.8299 18.4755 95.5011 17.9386C96.1786 17.3952 96.6932 16.6634 97.0447 15.7429C97.4027 14.8224 97.5817 13.7901 97.5817 12.646C97.5817 11.5146 97.4059 10.495 97.0543 9.58736C96.7092 8.67969 96.1978 7.96058 95.5202 7.43004C94.8427 6.89311 94.0117 6.62464 93.0273 6.62464C92.0685 6.62464 91.2536 6.88352 90.5824 7.40128C89.9112 7.91264 89.3999 8.62216 89.0483 9.52983C88.7031 10.4311 88.5305 11.4698 88.5305 12.646ZM108.987 20.3068C107.612 20.3068 106.423 19.9872 105.42 19.348C104.416 18.7024 103.64 17.8107 103.09 16.6729C102.547 15.5288 102.275 14.212 102.275 12.7227C102.275 11.2397 102.547 9.92294 103.09 8.77237C103.64 7.61541 104.397 6.71094 105.362 6.05895C106.334 5.40057 107.456 5.07138 108.728 5.07138C109.527 5.07138 110.297 5.21839 111.039 5.51243C111.78 5.80007 112.445 6.24432 113.033 6.84517C113.627 7.43963 114.097 8.1907 114.442 9.09837C114.787 9.99964 114.96 11.0671 114.96 12.3008V13.1445H103.454V11.6392H113.215C113.215 10.6932 113.023 9.84304 112.64 9.08878C112.263 8.32812 111.735 7.72727 111.058 7.28622C110.387 6.84517 109.61 6.62464 108.728 6.62464C107.795 6.62464 106.973 6.87393 106.264 7.37251C105.554 7.87109 104.998 8.52947 104.595 9.34766C104.199 10.1658 103.998 11.0607 103.991 12.0323V12.9336C103.991 14.1033 104.193 15.1261 104.595 16.0018C105.004 16.8711 105.583 17.5455 106.331 18.0249C107.079 18.5043 107.964 18.744 108.987 18.744C109.683 18.744 110.294 18.6353 110.818 18.418C111.349 18.2006 111.793 17.9098 112.151 17.5455C112.515 17.1747 112.79 16.7688 112.975 16.3278L114.596 16.8551C114.372 17.4751 114.004 18.0472 113.493 18.5714C112.988 19.0955 112.355 19.5174 111.595 19.837C110.84 20.1502 109.971 20.3068 108.987 20.3068ZM120.428 10.7955V20H118.721V5.27273H120.38V7.58345H120.533C120.878 6.82919 121.415 6.22514 122.144 5.77131C122.879 5.31108 123.787 5.08097 124.867 5.08097C125.858 5.08097 126.727 5.28871 127.475 5.70419C128.229 6.11328 128.814 6.71733 129.229 7.51633C129.651 8.31534 129.862 9.29652 129.862 10.4599V20H128.156V10.5653C128.156 9.35724 127.817 8.40163 127.139 7.69851C126.468 6.99538 125.567 6.64382 124.435 6.64382C123.662 6.64382 122.975 6.81001 122.374 7.1424C121.773 7.47479 121.297 7.95419 120.945 8.58061C120.6 9.20064 120.428 9.93892 120.428 10.7955ZM138.47 20.3356C137.581 20.3356 136.77 20.163 136.035 19.8178C135.3 19.4663 134.715 18.9613 134.28 18.3029C133.845 17.6381 133.628 16.8327 133.628 15.8867C133.628 15.158 133.765 14.5444 134.04 14.0458C134.315 13.5472 134.705 13.1381 135.21 12.8185C135.715 12.4989 136.313 12.2464 137.003 12.0611C137.693 11.8757 138.454 11.7319 139.285 11.6296C140.11 11.5273 140.806 11.4379 141.375 11.3612C141.95 11.2844 142.388 11.163 142.689 10.9968C142.989 10.8306 143.139 10.5621 143.139 10.1914V9.84624C143.139 8.84268 142.839 8.05327 142.238 7.47798C141.644 6.89631 140.787 6.60547 139.669 6.60547C138.607 6.60547 137.741 6.83878 137.07 7.3054C136.405 7.77202 135.939 8.32173 135.67 8.95454L134.05 8.36967C134.382 7.56428 134.843 6.92187 135.431 6.44247C136.019 5.95668 136.677 5.60831 137.406 5.39737C138.134 5.18004 138.873 5.07138 139.621 5.07138C140.183 5.07138 140.768 5.14489 141.375 5.2919C141.989 5.43892 142.558 5.6946 143.082 6.05895C143.606 6.4169 144.031 6.91868 144.357 7.56428C144.683 8.20348 144.846 9.01527 144.846 9.99964V20H143.139V17.6701H143.034C142.829 18.1048 142.526 18.5266 142.123 18.9357C141.72 19.3448 141.215 19.6804 140.608 19.9425C140.001 20.2045 139.288 20.3356 138.47 20.3356ZM138.7 18.7727C139.608 18.7727 140.394 18.5714 141.059 18.1687C141.724 17.766 142.235 17.2322 142.593 16.5675C142.957 15.8963 143.139 15.158 143.139 14.3526V12.2241C143.012 12.3455 142.797 12.4542 142.497 12.5501C142.203 12.646 141.861 12.7322 141.471 12.8089C141.088 12.8793 140.704 12.94 140.32 12.9911C139.937 13.0423 139.592 13.087 139.285 13.1254C138.454 13.2276 137.744 13.3874 137.156 13.6048C136.568 13.8221 136.118 14.1225 135.805 14.506C135.491 14.8832 135.335 15.369 135.335 15.9634C135.335 16.8583 135.654 17.5518 136.294 18.044C136.933 18.5298 137.735 18.7727 138.7 18.7727ZM159.281 8.50391L157.718 8.94496C157.565 8.50391 157.347 8.1044 157.066 7.74645C156.785 7.38849 156.417 7.10405 155.963 6.89311C155.516 6.68217 154.96 6.5767 154.295 6.5767C153.298 6.5767 152.48 6.81321 151.841 7.28622C151.201 7.75923 150.882 8.36967 150.882 9.11754C150.882 9.75035 151.099 10.2649 151.534 10.6612C151.975 11.0511 152.652 11.3612 153.566 11.5913L155.791 12.1378C157.025 12.4382 157.948 12.9144 158.562 13.5664C159.182 14.2184 159.492 15.0366 159.492 16.021C159.492 16.8519 159.262 17.5902 158.801 18.2358C158.341 18.8814 157.699 19.3896 156.874 19.7603C156.056 20.1246 155.107 20.3068 154.027 20.3068C152.588 20.3068 151.403 19.984 150.469 19.3384C149.536 18.6864 148.939 17.7468 148.676 16.5195L150.316 16.1168C150.527 16.9925 150.939 17.6541 151.553 18.1016C152.173 18.549 152.988 18.7727 153.998 18.7727C155.129 18.7727 156.034 18.5202 156.711 18.0153C157.389 17.5039 157.728 16.8647 157.728 16.0977C157.728 15.5032 157.529 15.0046 157.133 14.6019C156.737 14.1928 156.136 13.8924 155.331 13.7006L152.924 13.1254C151.646 12.8185 150.7 12.3327 150.086 11.668C149.472 11.0032 149.165 10.1786 149.165 9.19425C149.165 8.38246 149.386 7.66974 149.827 7.05611C150.268 6.43608 150.875 5.95028 151.649 5.59872C152.422 5.24716 153.304 5.07138 154.295 5.07138C155.644 5.07138 156.721 5.3782 157.526 5.99183C158.338 6.59908 158.923 7.43643 159.281 8.50391ZM174.936 20.3356C174.047 20.3356 173.236 20.163 172.5 19.8178C171.765 19.4663 171.18 18.9613 170.746 18.3029C170.311 17.6381 170.094 16.8327 170.094 15.8867C170.094 15.158 170.231 14.5444 170.506 14.0458C170.781 13.5472 171.171 13.1381 171.676 12.8185C172.181 12.4989 172.778 12.2464 173.469 12.0611C174.159 11.8757 174.92 11.7319 175.751 11.6296C176.575 11.5273 177.272 11.4379 177.841 11.3612C178.416 11.2844 178.854 11.163 179.155 10.9968C179.455 10.8306 179.605 10.5621 179.605 10.1914V9.84624C179.605 8.84268 179.305 8.05327 178.704 7.47798C178.109 6.89631 177.253 6.60547 176.134 6.60547C175.073 6.60547 174.207 6.83878 173.536 7.3054C172.871 7.77202 172.405 8.32173 172.136 8.95454L170.516 8.36967C170.848 7.56428 171.308 6.92187 171.896 6.44247C172.484 5.95668 173.143 5.60831 173.872 5.39737C174.6 5.18004 175.339 5.07138 176.086 5.07138C176.649 5.07138 177.234 5.14489 177.841 5.2919C178.455 5.43892 179.024 5.6946 179.548 6.05895C180.072 6.4169 180.497 6.91868 180.823 7.56428C181.149 8.20348 181.312 9.01527 181.312 9.99964V20H179.605V17.6701H179.5C179.295 18.1048 178.992 18.5266 178.589 18.9357C178.186 19.3448 177.681 19.6804 177.074 19.9425C176.467 20.2045 175.754 20.3356 174.936 20.3356ZM175.166 18.7727C176.074 18.7727 176.86 18.5714 177.525 18.1687C178.189 17.766 178.701 17.2322 179.059 16.5675C179.423 15.8963 179.605 15.158 179.605 14.3526V12.2241C179.477 12.3455 179.263 12.4542 178.963 12.5501C178.669 12.646 178.327 12.7322 177.937 12.8089C177.553 12.8793 177.17 12.94 176.786 12.9911C176.403 13.0423 176.058 13.087 175.751 13.1254C174.92 13.2276 174.21 13.3874 173.622 13.6048C173.034 13.8221 172.584 14.1225 172.27 14.506C171.957 14.8832 171.801 15.369 171.801 15.9634C171.801 16.8583 172.12 17.5518 172.759 18.044C173.399 18.5298 174.201 18.7727 175.166 18.7727ZM195.747 8.50391L194.184 8.94496C194.03 8.50391 193.813 8.1044 193.532 7.74645C193.251 7.38849 192.883 7.10405 192.429 6.89311C191.982 6.68217 191.426 6.5767 190.761 6.5767C189.764 6.5767 188.946 6.81321 188.306 7.28622C187.667 7.75923 187.348 8.36967 187.348 9.11754C187.348 9.75035 187.565 10.2649 188 10.6612C188.441 11.0511 189.118 11.3612 190.032 11.5913L192.257 12.1378C193.49 12.4382 194.414 12.9144 195.028 13.5664C195.648 14.2184 195.958 15.0366 195.958 16.021C195.958 16.8519 195.728 17.5902 195.267 18.2358C194.807 18.8814 194.165 19.3896 193.34 19.7603C192.522 20.1246 191.573 20.3068 190.492 20.3068C189.054 20.3068 187.869 19.984 186.935 19.3384C186.002 18.6864 185.404 17.7468 185.142 16.5195L186.782 16.1168C186.993 16.9925 187.405 17.6541 188.019 18.1016C188.639 18.549 189.454 18.7727 190.464 18.7727C191.595 18.7727 192.5 18.5202 193.177 18.0153C193.855 17.5039 194.193 16.8647 194.193 16.0977C194.193 15.5032 193.995 15.0046 193.599 14.6019C193.203 14.1928 192.602 13.8924 191.796 13.7006L189.39 13.1254C188.111 12.8185 187.165 12.3327 186.552 11.668C185.938 11.0032 185.631 10.1786 185.631 9.19425C185.631 8.38246 185.852 7.66974 186.293 7.05611C186.734 6.43608 187.341 5.95028 188.115 5.59872C188.888 5.24716 189.77 5.07138 190.761 5.07138C192.11 5.07138 193.187 5.3782 193.992 5.99183C194.804 6.59908 195.389 7.43643 195.747 8.50391ZM207.221 20V18.6864L213.636 11.4762C214.473 10.5302 215.147 9.72159 215.659 9.05043C216.17 8.37926 216.541 7.75923 216.771 7.19034C217.007 6.62145 217.126 6.03018 217.126 5.41655C217.126 4.66868 216.95 4.01669 216.598 3.46058C216.253 2.89808 215.777 2.46023 215.17 2.14702C214.563 1.83381 213.879 1.6772 213.118 1.6772C212.313 1.6772 211.606 1.84979 210.999 2.19496C210.398 2.54013 209.931 3.01314 209.599 3.61399C209.267 4.21484 209.1 4.90518 209.1 5.68501H207.384C207.384 4.59837 207.634 3.63636 208.132 2.79901C208.637 1.95526 209.324 1.29368 210.194 0.814274C211.069 0.334871 212.06 0.0951697 213.166 0.0951697C214.259 0.0951697 215.23 0.331676 216.081 0.804688C216.931 1.27131 217.599 1.90731 218.085 2.71271C218.57 3.51811 218.813 4.41939 218.813 5.41655C218.813 6.13885 218.685 6.83878 218.43 7.51633C218.18 8.19389 217.749 8.94815 217.135 9.77912C216.522 10.6101 215.672 11.6264 214.585 12.8281L209.714 18.2646V18.3892H219.427V20H207.221ZM236.98 25.8295C235.977 25.8295 235.098 25.6985 234.343 25.4364C233.589 25.1808 232.953 24.8292 232.435 24.3817C231.918 23.9343 231.515 23.4325 231.227 22.8764L232.627 21.956C232.838 22.3267 233.119 22.6911 233.471 23.049C233.829 23.407 234.292 23.7042 234.861 23.9407C235.437 24.1772 236.143 24.2955 236.98 24.2955C238.284 24.2955 239.336 23.9695 240.135 23.3175C240.94 22.6655 241.343 21.6523 241.343 20.2781V16.9606H241.189C240.991 17.408 240.707 17.8555 240.336 18.3029C239.965 18.744 239.479 19.1115 238.879 19.4055C238.284 19.6996 237.546 19.8466 236.664 19.8466C235.488 19.8466 234.443 19.5558 233.528 18.9741C232.621 18.3924 231.905 17.5614 231.381 16.4812C230.863 15.3945 230.604 14.1001 230.604 12.598C230.604 11.1087 230.857 9.79829 231.362 8.6669C231.873 7.53551 232.586 6.65341 233.5 6.0206C234.414 5.38778 235.478 5.07138 236.693 5.07138C237.594 5.07138 238.342 5.23118 238.936 5.55078C239.531 5.86399 240.007 6.25391 240.365 6.72053C240.729 7.18714 241.014 7.64098 241.218 8.08203H241.391V5.27273H243.059V20.3835C243.059 21.63 242.794 22.6559 242.263 23.4613C241.733 24.2667 241.01 24.8612 240.096 25.2447C239.182 25.6346 238.144 25.8295 236.98 25.8295ZM236.865 18.2837C237.811 18.2837 238.62 18.0568 239.291 17.603C239.962 17.1428 240.477 16.4844 240.835 15.6278C241.193 14.7713 241.372 13.7518 241.372 12.5692C241.372 11.4187 241.196 10.3991 240.844 9.51065C240.493 8.61577 239.981 7.91264 239.31 7.40128C238.645 6.88352 237.83 6.62464 236.865 6.62464C235.881 6.62464 235.05 6.88991 234.372 7.42045C233.695 7.95099 233.183 8.6669 232.838 9.56818C232.493 10.4631 232.32 11.4634 232.32 12.5692C232.32 13.6942 232.496 14.6882 232.848 15.5511C233.199 16.4077 233.714 17.0788 234.391 17.5646C235.069 18.044 235.894 18.2837 236.865 18.2837ZM251.691 20.3356C250.802 20.3356 249.99 20.163 249.255 19.8178C248.52 19.4663 247.935 18.9613 247.501 18.3029C247.066 17.6381 246.849 16.8327 246.849 15.8867C246.849 15.158 246.986 14.5444 247.261 14.0458C247.536 13.5472 247.926 13.1381 248.431 12.8185C248.936 12.4989 249.533 12.2464 250.224 12.0611C250.914 11.8757 251.675 11.7319 252.506 11.6296C253.33 11.5273 254.027 11.4379 254.596 11.3612C255.171 11.2844 255.609 11.163 255.909 10.9968C256.21 10.8306 256.36 10.5621 256.36 10.1914V9.84624C256.36 8.84268 256.06 8.05327 255.459 7.47798C254.864 6.89631 254.008 6.60547 252.889 6.60547C251.828 6.60547 250.962 6.83878 250.291 7.3054C249.626 7.77202 249.159 8.32173 248.891 8.95454L247.271 8.36967C247.603 7.56428 248.063 6.92187 248.651 6.44247C249.239 5.95668 249.898 5.60831 250.626 5.39737C251.355 5.18004 252.093 5.07138 252.841 5.07138C253.404 5.07138 253.989 5.14489 254.596 5.2919C255.21 5.43892 255.778 5.6946 256.303 6.05895C256.827 6.4169 257.252 6.91868 257.578 7.56428C257.904 8.20348 258.067 9.01527 258.067 9.99964V20H256.36V17.6701H256.255C256.05 18.1048 255.746 18.5266 255.344 18.9357C254.941 19.3448 254.436 19.6804 253.829 19.9425C253.222 20.2045 252.509 20.3356 251.691 20.3356ZM251.921 18.7727C252.828 18.7727 253.615 18.5714 254.279 18.1687C254.944 17.766 255.456 17.2322 255.814 16.5675C256.178 15.8963 256.36 15.158 256.36 14.3526V12.2241C256.232 12.3455 256.018 12.4542 255.718 12.5501C255.424 12.646 255.082 12.7322 254.692 12.8089C254.308 12.8793 253.925 12.94 253.541 12.9911C253.158 13.0423 252.812 13.087 252.506 13.1254C251.675 13.2276 250.965 13.3874 250.377 13.6048C249.789 13.8221 249.338 14.1225 249.025 14.506C248.712 14.8832 248.555 15.369 248.555 15.9634C248.555 16.8583 248.875 17.5518 249.514 18.044C250.153 18.5298 250.956 18.7727 251.921 18.7727ZM264.313 0.363636V20H262.607V0.363636H264.313ZM268.849 20V5.27273H270.565V20H268.849ZM269.721 2.74148C269.369 2.74148 269.069 2.62322 268.82 2.38672C268.57 2.14382 268.446 1.85298 268.446 1.5142C268.446 1.17543 268.57 0.887784 268.82 0.651279C269.069 0.40838 269.369 0.286931 269.721 0.286931C270.073 0.286931 270.373 0.40838 270.622 0.651279C270.872 0.887784 270.996 1.17543 270.996 1.5142C270.996 1.85298 270.872 2.14382 270.622 2.38672C270.373 2.62322 270.073 2.74148 269.721 2.74148ZM276.785 10.7955V20H275.078V5.27273H276.737V7.58345H276.891C277.236 6.82919 277.773 6.22514 278.501 5.77131C279.236 5.31108 280.144 5.08097 281.224 5.08097C282.215 5.08097 283.084 5.28871 283.832 5.70419C284.587 6.11328 285.171 6.71733 285.587 7.51633C286.009 8.31534 286.22 9.29652 286.22 10.4599V20H284.513V10.5653C284.513 9.35724 284.174 8.40163 283.497 7.69851C282.826 6.99538 281.924 6.64382 280.793 6.64382C280.019 6.64382 279.332 6.81001 278.731 7.1424C278.131 7.47479 277.654 7.95419 277.303 8.58061C276.958 9.20064 276.785 9.93892 276.785 10.7955ZM292.421 10.7955V20H290.714V0.363636H292.421V7.58345H292.574C292.919 6.8228 293.453 6.21555 294.175 5.76172C294.904 5.30788 295.825 5.08097 296.937 5.08097C297.934 5.08097 298.81 5.28551 299.564 5.6946C300.318 6.10369 300.906 6.70774 301.328 7.50675C301.75 8.30575 301.961 9.29013 301.961 10.4599V20H300.245V10.5653C300.245 9.35085 299.906 8.39524 299.228 7.69851C298.557 6.99538 297.65 6.64382 296.505 6.64382C295.719 6.64382 295.019 6.81001 294.406 7.1424C293.792 7.47479 293.306 7.95419 292.948 8.58061C292.597 9.20064 292.421 9.93892 292.421 10.7955ZM310.569 20.3356C309.68 20.3356 308.868 20.163 308.133 19.8178C307.398 19.4663 306.813 18.9613 306.379 18.3029C305.944 17.6381 305.727 16.8327 305.727 15.8867C305.727 15.158 305.864 14.5444 306.139 14.0458C306.414 13.5472 306.804 13.1381 307.309 12.8185C307.814 12.4989 308.411 12.2464 309.102 12.0611C309.792 11.8757 310.553 11.7319 311.384 11.6296C312.208 11.5273 312.905 11.4379 313.474 11.3612C314.049 11.2844 314.487 11.163 314.787 10.9968C315.088 10.8306 315.238 10.5621 315.238 10.1914V9.84624C315.238 8.84268 314.938 8.05327 314.337 7.47798C313.742 6.89631 312.886 6.60547 311.767 6.60547C310.706 6.60547 309.84 6.83878 309.169 7.3054C308.504 7.77202 308.037 8.32173 307.769 8.95454L306.149 8.36967C306.481 7.56428 306.941 6.92187 307.529 6.44247C308.117 5.95668 308.776 5.60831 309.504 5.39737C310.233 5.18004 310.971 5.07138 311.719 5.07138C312.282 5.07138 312.867 5.14489 313.474 5.2919C314.087 5.43892 314.656 5.6946 315.18 6.05895C315.705 6.4169 316.13 6.91868 316.456 7.56428C316.782 8.20348 316.945 9.01527 316.945 9.99964V20H315.238V17.6701H315.133C314.928 18.1048 314.624 18.5266 314.222 18.9357C313.819 19.3448 313.314 19.6804 312.707 19.9425C312.1 20.2045 311.387 20.3356 310.569 20.3356ZM310.799 18.7727C311.706 18.7727 312.493 18.5714 313.157 18.1687C313.822 17.766 314.334 17.2322 314.691 16.5675C315.056 15.8963 315.238 15.158 315.238 14.3526V12.2241C315.11 12.3455 314.896 12.4542 314.596 12.5501C314.302 12.646 313.96 12.7322 313.57 12.8089C313.186 12.8793 312.803 12.94 312.419 12.9911C312.036 13.0423 311.69 13.087 311.384 13.1254C310.553 13.2276 309.843 13.3874 309.255 13.6048C308.667 13.8221 308.216 14.1225 307.903 14.506C307.59 14.8832 307.433 15.369 307.433 15.9634C307.433 16.8583 307.753 17.5518 308.392 18.044C309.031 18.5298 309.834 18.7727 310.799 18.7727ZM331.38 8.50391L329.817 8.94496C329.663 8.50391 329.446 8.1044 329.165 7.74645C328.883 7.38849 328.516 7.10405 328.062 6.89311C327.615 6.68217 327.059 6.5767 326.394 6.5767C325.397 6.5767 324.578 6.81321 323.939 7.28622C323.3 7.75923 322.98 8.36967 322.98 9.11754C322.98 9.75035 323.198 10.2649 323.632 10.6612C324.073 11.0511 324.751 11.3612 325.665 11.5913L327.889 12.1378C329.123 12.4382 330.047 12.9144 330.66 13.5664C331.28 14.2184 331.59 15.0366 331.59 16.021C331.59 16.8519 331.36 17.5902 330.9 18.2358C330.44 18.8814 329.797 19.3896 328.973 19.7603C328.155 20.1246 327.206 20.3068 326.125 20.3068C324.687 20.3068 323.501 19.984 322.568 19.3384C321.635 18.6864 321.037 17.7468 320.775 16.5195L322.415 16.1168C322.626 16.9925 323.038 17.6541 323.652 18.1016C324.272 18.549 325.087 18.7727 326.097 18.7727C327.228 18.7727 328.132 18.5202 328.81 18.0153C329.487 17.5039 329.826 16.8647 329.826 16.0977C329.826 15.5032 329.628 15.0046 329.232 14.6019C328.835 14.1928 328.235 13.8924 327.429 13.7006L325.023 13.1254C323.744 12.8185 322.798 12.3327 322.185 11.668C321.571 11.0032 321.264 10.1786 321.264 9.19425C321.264 8.38246 321.485 7.66974 321.926 7.05611C322.367 6.43608 322.974 5.95028 323.747 5.59872C324.521 5.24716 325.403 5.07138 326.394 5.07138C327.742 5.07138 328.82 5.3782 329.625 5.99183C330.437 6.59908 331.022 7.43643 331.38 8.50391ZM338.165 17.3153L337.993 18.3413C337.884 19.0316 337.731 19.7923 337.533 20.6232C337.335 21.4542 337.13 22.2436 336.919 22.9915C336.708 23.7393 336.526 24.3402 336.373 24.794H335.059C335.142 24.3594 335.248 23.8065 335.375 23.1353C335.51 22.4641 335.647 21.7195 335.788 20.9013C335.928 20.0895 336.056 19.2521 336.171 18.3892L336.305 17.3153H338.165ZM360.259 25.5227V17.2674H360.105C359.907 17.7148 359.626 18.1751 359.262 18.6481C358.897 19.1147 358.415 19.5078 357.814 19.8274C357.213 20.147 356.468 20.3068 355.58 20.3068C354.378 20.3068 353.32 19.9872 352.406 19.348C351.498 18.7088 350.789 17.8171 350.278 16.6729C349.773 15.5288 349.52 14.196 349.52 12.6747C349.52 11.1598 349.773 9.83345 350.278 8.69567C350.789 7.55149 351.502 6.663 352.416 6.03018C353.33 5.39098 354.394 5.07138 355.609 5.07138C356.51 5.07138 357.255 5.23118 357.843 5.55078C358.437 5.87038 358.913 6.26349 359.271 6.73011C359.629 7.19034 359.907 7.64098 360.105 8.08203H360.307V5.27273H361.975V25.5227H360.259ZM355.781 18.744C356.734 18.744 357.545 18.4851 358.217 17.9673C358.888 17.4432 359.399 16.7241 359.751 15.81C360.109 14.8896 360.288 13.8349 360.288 12.646C360.288 11.4698 360.112 10.4311 359.76 9.52983C359.409 8.62216 358.897 7.91264 358.226 7.40128C357.561 6.88352 356.746 6.62464 355.781 6.62464C354.797 6.62464 353.966 6.89311 353.288 7.43004C352.611 7.96058 352.099 8.67969 351.754 9.58736C351.409 10.495 351.236 11.5146 351.236 12.646C351.236 13.7901 351.412 14.8224 351.764 15.7429C352.115 16.6634 352.63 17.3952 353.307 17.9386C353.985 18.4755 354.81 18.744 355.781 18.744ZM375.825 14.3718V5.27273H377.532V20H375.825V17.555H375.691C375.346 18.3093 374.799 18.9389 374.051 19.4439C373.303 19.9425 372.389 20.1918 371.309 20.1918C370.369 20.1918 369.535 19.9872 368.807 19.5781C368.078 19.1626 367.506 18.5554 367.09 17.7564C366.675 16.9574 366.467 15.9762 366.467 14.8129V5.27273H368.174V14.7074C368.174 15.858 368.513 16.7848 369.19 17.4879C369.868 18.1847 370.737 18.533 371.798 18.533C372.463 18.533 373.102 18.3732 373.716 18.0536C374.329 17.734 374.834 17.2674 375.231 16.6538C375.627 16.0337 375.825 15.2731 375.825 14.3718ZM386.163 20.3356C385.275 20.3356 384.463 20.163 383.728 19.8178C382.993 19.4663 382.408 18.9613 381.973 18.3029C381.539 17.6381 381.321 16.8327 381.321 15.8867C381.321 15.158 381.459 14.5444 381.734 14.0458C382.009 13.5472 382.398 13.1381 382.903 12.8185C383.408 12.4989 384.006 12.2464 384.696 12.0611C385.387 11.8757 386.147 11.7319 386.978 11.6296C387.803 11.5273 388.5 11.4379 389.069 11.3612C389.644 11.2844 390.082 11.163 390.382 10.9968C390.683 10.8306 390.833 10.5621 390.833 10.1914V9.84624C390.833 8.84268 390.532 8.05327 389.931 7.47798C389.337 6.89631 388.48 6.60547 387.362 6.60547C386.301 6.60547 385.435 6.83878 384.763 7.3054C384.099 7.77202 383.632 8.32173 383.364 8.95454L381.743 8.36967C382.076 7.56428 382.536 6.92187 383.124 6.44247C383.712 5.95668 384.37 5.60831 385.099 5.39737C385.828 5.18004 386.566 5.07138 387.314 5.07138C387.876 5.07138 388.461 5.14489 389.069 5.2919C389.682 5.43892 390.251 5.6946 390.775 6.05895C391.299 6.4169 391.724 6.91868 392.05 7.56428C392.376 8.20348 392.539 9.01527 392.539 9.99964V20H390.833V17.6701H390.727C390.523 18.1048 390.219 18.5266 389.816 18.9357C389.414 19.3448 388.909 19.6804 388.301 19.9425C387.694 20.2045 386.982 20.3356 386.163 20.3356ZM386.393 18.7727C387.301 18.7727 388.087 18.5714 388.752 18.1687C389.417 17.766 389.928 17.2322 390.286 16.5675C390.651 15.8963 390.833 15.158 390.833 14.3526V12.2241C390.705 12.3455 390.491 12.4542 390.19 12.5501C389.896 12.646 389.554 12.7322 389.164 12.8089C388.781 12.8793 388.397 12.94 388.014 12.9911C387.63 13.0423 387.285 13.087 386.978 13.1254C386.147 13.2276 385.438 13.3874 384.85 13.6048C384.262 13.8221 383.811 14.1225 383.498 14.506C383.185 14.8832 383.028 15.369 383.028 15.9634C383.028 16.8583 383.348 17.5518 383.987 18.044C384.626 18.5298 385.428 18.7727 386.393 18.7727ZM398.786 10.7955V20H397.079V5.27273H398.738V7.58345H398.892C399.237 6.82919 399.774 6.22514 400.502 5.77131C401.237 5.31108 402.145 5.08097 403.225 5.08097C404.216 5.08097 405.085 5.28871 405.833 5.70419C406.588 6.11328 407.172 6.71733 407.588 7.51633C408.01 8.31534 408.221 9.29652 408.221 10.4599V20H406.514V10.5653C406.514 9.35724 406.175 8.40163 405.498 7.69851C404.827 6.99538 403.925 6.64382 402.794 6.64382C402.02 6.64382 401.333 6.81001 400.732 7.1424C400.132 7.47479 399.655 7.95419 399.304 8.58061C398.959 9.20064 398.786 9.93892 398.786 10.7955ZM418.017 20.3068C416.809 20.3068 415.751 19.9872 414.844 19.348C413.936 18.7088 413.226 17.8171 412.715 16.6729C412.21 15.5288 411.958 14.196 411.958 12.6747C411.958 11.1598 412.21 9.83345 412.715 8.69567C413.226 7.55149 413.939 6.663 414.853 6.03018C415.767 5.39098 416.832 5.07138 418.046 5.07138C418.941 5.07138 419.686 5.23118 420.28 5.55078C420.875 5.86399 421.351 6.25391 421.709 6.72053C422.067 7.18714 422.345 7.64098 422.543 8.08203H422.696V0.363636H424.413V20H422.744V17.2674H422.543C422.345 17.7148 422.063 18.1751 421.699 18.6481C421.335 19.1147 420.852 19.5078 420.251 19.8274C419.657 20.147 418.912 20.3068 418.017 20.3068ZM418.219 18.744C419.171 18.744 419.983 18.4851 420.654 17.9673C421.325 17.4432 421.837 16.7241 422.188 15.81C422.546 14.8896 422.725 13.8349 422.725 12.646C422.725 11.4698 422.549 10.4311 422.198 9.52983C421.846 8.62216 421.335 7.91264 420.664 7.40128C419.992 6.88352 419.177 6.62464 418.219 6.62464C417.234 6.62464 416.403 6.89311 415.726 7.43004C415.055 7.96058 414.543 8.67969 414.192 9.58736C413.847 10.495 413.674 11.5146 413.674 12.646C413.674 13.7901 413.85 14.8224 414.201 15.7429C414.553 16.6634 415.064 17.3952 415.735 17.9386C416.413 18.4755 417.241 18.744 418.219 18.744ZM434.998 20.3068C433.726 20.3068 432.601 19.984 431.623 19.3384C430.651 18.6928 429.891 17.8011 429.341 16.6634C428.791 15.5192 428.516 14.1992 428.516 12.7035C428.516 11.195 428.791 9.86861 429.341 8.72443C429.891 7.57386 430.651 6.67898 431.623 6.03977C432.601 5.39418 433.726 5.07138 434.998 5.07138C436.27 5.07138 437.392 5.39418 438.363 6.03977C439.335 6.68537 440.095 7.58026 440.645 8.72443C441.201 9.86861 441.479 11.195 441.479 12.7035C441.479 14.1992 441.204 15.5192 440.655 16.6634C440.105 17.8011 439.341 18.6928 438.363 19.3384C437.392 19.984 436.27 20.3068 434.998 20.3068ZM434.998 18.744C436.021 18.744 436.887 18.4691 437.596 17.9194C438.306 17.3697 438.843 16.6378 439.207 15.7237C439.578 14.8097 439.763 13.8029 439.763 12.7035C439.763 11.604 439.578 10.5941 439.207 9.67365C438.843 8.7532 438.306 8.01491 437.596 7.45881C436.887 6.9027 436.021 6.62464 434.998 6.62464C433.981 6.62464 433.115 6.9027 432.399 7.45881C431.69 8.01491 431.15 8.7532 430.779 9.67365C430.415 10.5941 430.233 11.604 430.233 12.7035C430.233 13.8029 430.415 14.8097 430.779 15.7237C431.15 16.6378 431.69 17.3697 432.399 17.9194C433.109 18.4691 433.975 18.744 434.998 18.744ZM458.774 20.3068C457.4 20.3068 456.211 19.9872 455.207 19.348C454.203 18.7024 453.427 17.8107 452.877 16.6729C452.334 15.5288 452.062 14.212 452.062 12.7227C452.062 11.2397 452.334 9.92294 452.877 8.77237C453.427 7.61541 454.184 6.71094 455.15 6.05895C456.121 5.40057 457.243 5.07138 458.515 5.07138C459.314 5.07138 460.084 5.21839 460.826 5.51243C461.567 5.80007 462.232 6.24432 462.82 6.84517C463.414 7.43963 463.884 8.1907 464.229 9.09837C464.575 9.99964 464.747 11.0671 464.747 12.3008V13.1445H453.241V11.6392H463.002C463.002 10.6932 462.81 9.84304 462.427 9.08878C462.05 8.32812 461.522 7.72727 460.845 7.28622C460.174 6.84517 459.397 6.62464 458.515 6.62464C457.582 6.62464 456.76 6.87393 456.051 7.37251C455.341 7.87109 454.785 8.52947 454.382 9.34766C453.986 10.1658 453.785 11.0607 453.778 12.0323V12.9336C453.778 14.1033 453.98 15.1261 454.382 16.0018C454.792 16.8711 455.37 17.5455 456.118 18.0249C456.866 18.5043 457.751 18.744 458.774 18.744C459.471 18.744 460.081 18.6353 460.605 18.418C461.136 18.2006 461.58 17.9098 461.938 17.5455C462.302 17.1747 462.577 16.7688 462.762 16.3278L464.383 16.8551C464.159 17.4751 463.792 18.0472 463.28 18.5714C462.775 19.0955 462.142 19.5174 461.382 19.837C460.627 20.1502 459.758 20.3068 458.774 20.3068ZM478.403 8.50391L476.84 8.94496C476.687 8.50391 476.469 8.1044 476.188 7.74645C475.907 7.38849 475.539 7.10405 475.085 6.89311C474.638 6.68217 474.082 6.5767 473.417 6.5767C472.42 6.5767 471.602 6.81321 470.963 7.28622C470.323 7.75923 470.004 8.36967 470.004 9.11754C470.004 9.75035 470.221 10.2649 470.656 10.6612C471.097 11.0511 471.774 11.3612 472.688 11.5913L474.913 12.1378C476.147 12.4382 477.07 12.9144 477.684 13.5664C478.304 14.2184 478.614 15.0366 478.614 16.021C478.614 16.8519 478.384 17.5902 477.924 18.2358C477.463 18.8814 476.821 19.3896 475.996 19.7603C475.178 20.1246 474.229 20.3068 473.149 20.3068C471.71 20.3068 470.525 19.984 469.592 19.3384C468.658 18.6864 468.061 17.7468 467.799 16.5195L469.438 16.1168C469.649 16.9925 470.061 17.6541 470.675 18.1016C471.295 18.549 472.11 18.7727 473.12 18.7727C474.251 18.7727 475.156 18.5202 475.833 18.0153C476.511 17.5039 476.85 16.8647 476.85 16.0977C476.85 15.5032 476.652 15.0046 476.255 14.6019C475.859 14.1928 475.258 13.8924 474.453 13.7006L472.046 13.1254C470.768 12.8185 469.822 12.3327 469.208 11.668C468.594 11.0032 468.288 10.1786 468.288 9.19425C468.288 8.38246 468.508 7.66974 468.949 7.05611C469.39 6.43608 469.997 5.95028 470.771 5.59872C471.544 5.24716 472.426 5.07138 473.417 5.07138C474.766 5.07138 475.843 5.3782 476.648 5.99183C477.46 6.59908 478.045 7.43643 478.403 8.50391ZM488.152 5.27273V6.75888H481.124V5.27273H488.152ZM483.319 1.74432H485.036V16.1552C485.036 16.7688 485.141 17.2514 485.352 17.603C485.563 17.9482 485.838 18.1942 486.176 18.3413C486.515 18.4819 486.876 18.5522 487.26 18.5522C487.484 18.5522 487.675 18.5394 487.835 18.5138C487.995 18.4819 488.136 18.4499 488.257 18.418L488.621 19.9616C488.455 20.0256 488.251 20.0831 488.008 20.1342C487.765 20.1918 487.464 20.2205 487.107 20.2205C486.48 20.2205 485.876 20.0831 485.294 19.8082C484.719 19.5334 484.246 19.1243 483.875 18.581C483.505 18.0376 483.319 17.3633 483.319 16.5579V1.74432ZM492.047 20V5.27273H493.763V20H492.047ZM492.919 2.74148C492.568 2.74148 492.267 2.62322 492.018 2.38672C491.769 2.14382 491.644 1.85298 491.644 1.5142C491.644 1.17543 491.769 0.887784 492.018 0.651279C492.267 0.40838 492.568 0.286931 492.919 0.286931C493.271 0.286931 493.571 0.40838 493.821 0.651279C494.07 0.887784 494.195 1.17543 494.195 1.5142C494.195 1.85298 494.07 2.14382 493.821 2.38672C493.571 2.62322 493.271 2.74148 492.919 2.74148ZM509.677 5.27273L504.298 20H502.476L497.097 5.27273H498.948L503.32 17.7468H503.454L507.826 5.27273H509.677ZM518.443 20.3068C517.068 20.3068 515.88 19.9872 514.876 19.348C513.872 18.7024 513.096 17.8107 512.546 16.6729C512.003 15.5288 511.731 14.212 511.731 12.7227C511.731 11.2397 512.003 9.92294 512.546 8.77237C513.096 7.61541 513.853 6.71094 514.818 6.05895C515.79 5.40057 516.912 5.07138 518.184 5.07138C518.983 5.07138 519.753 5.21839 520.495 5.51243C521.236 5.80007 521.901 6.24432 522.489 6.84517C523.083 7.43963 523.553 8.1907 523.898 9.09837C524.244 9.99964 524.416 11.0671 524.416 12.3008V13.1445H512.91V11.6392H522.671C522.671 10.6932 522.479 9.84304 522.096 9.08878C521.719 8.32812 521.191 7.72727 520.514 7.28622C519.843 6.84517 519.066 6.62464 518.184 6.62464C517.251 6.62464 516.429 6.87393 515.72 7.37251C515.01 7.87109 514.454 8.52947 514.051 9.34766C513.655 10.1658 513.454 11.0607 513.447 12.0323V12.9336C513.447 14.1033 513.649 15.1261 514.051 16.0018C514.46 16.8711 515.039 17.5455 515.787 18.0249C516.535 18.5043 517.42 18.744 518.443 18.744C519.139 18.744 519.75 18.6353 520.274 18.418C520.805 18.2006 521.249 17.9098 521.607 17.5455C521.971 17.1747 522.246 16.7688 522.431 16.3278L524.052 16.8551C523.828 17.4751 523.46 18.0472 522.949 18.5714C522.444 19.0955 521.811 19.5174 521.051 19.837C520.296 20.1502 519.427 20.3068 518.443 20.3068ZM528.177 20V5.27273H529.836V7.53551H529.96C530.254 6.79403 530.766 6.19638 531.494 5.74254C532.23 5.28231 533.061 5.0522 533.987 5.0522C534.128 5.0522 534.285 5.0554 534.457 5.06179C534.63 5.06818 534.774 5.07457 534.889 5.08097V6.81641C534.812 6.80362 534.678 6.78445 534.486 6.75888C534.294 6.73331 534.086 6.72053 533.863 6.72053C533.096 6.72053 532.412 6.88352 531.811 7.20952C531.216 7.52912 530.747 7.97337 530.401 8.54226C530.056 9.11115 529.884 9.75994 529.884 10.4886V20H528.177ZM551.196 5.27273V6.75888H544.168V5.27273H551.196ZM546.363 1.74432H548.079V16.1552C548.079 16.7688 548.185 17.2514 548.396 17.603C548.607 17.9482 548.882 18.1942 549.22 18.3413C549.559 18.4819 549.92 18.5522 550.304 18.5522C550.528 18.5522 550.719 18.5394 550.879 18.5138C551.039 18.4819 551.18 18.4499 551.301 18.418L551.665 19.9616C551.499 20.0256 551.295 20.0831 551.052 20.1342C550.809 20.1918 550.508 20.2205 550.15 20.2205C549.524 20.2205 548.92 20.0831 548.338 19.8082C547.763 19.5334 547.29 19.1243 546.919 18.581C546.549 18.0376 546.363 17.3633 546.363 16.5579V1.74432ZM564.43 14.3718V5.27273H566.136V20H564.43V17.555H564.295C563.95 18.3093 563.404 18.9389 562.656 19.4439C561.908 19.9425 560.994 20.1918 559.914 20.1918C558.974 20.1918 558.14 19.9872 557.411 19.5781C556.682 19.1626 556.11 18.5554 555.695 17.7564C555.279 16.9574 555.072 15.9762 555.072 14.8129V5.27273H556.778V14.7074C556.778 15.858 557.117 16.7848 557.795 17.4879C558.472 18.1847 559.341 18.533 560.403 18.533C561.067 18.533 561.706 18.3732 562.32 18.0536C562.934 17.734 563.439 17.2674 563.835 16.6538C564.231 16.0337 564.43 15.2731 564.43 14.3718ZM575.957 20.3068C574.749 20.3068 573.691 19.9872 572.783 19.348C571.875 18.7088 571.166 17.8171 570.655 16.6729C570.15 15.5288 569.897 14.196 569.897 12.6747C569.897 11.1598 570.15 9.83345 570.655 8.69567C571.166 7.55149 571.879 6.663 572.793 6.03018C573.707 5.39098 574.771 5.07138 575.986 5.07138C576.88 5.07138 577.625 5.23118 578.22 5.55078C578.814 5.86399 579.29 6.25391 579.648 6.72053C580.006 7.18714 580.284 7.64098 580.482 8.08203H580.636V0.363636H582.352V20H580.684V17.2674H580.482C580.284 17.7148 580.003 18.1751 579.639 18.6481C579.274 19.1147 578.792 19.5078 578.191 19.8274C577.596 20.147 576.852 20.3068 575.957 20.3068ZM576.158 18.744C577.111 18.744 577.922 18.4851 578.593 17.9673C579.265 17.4432 579.776 16.7241 580.128 15.81C580.486 14.8896 580.665 13.8349 580.665 12.646C580.665 11.4698 580.489 10.4311 580.137 9.52983C579.786 8.62216 579.274 7.91264 578.603 7.40128C577.932 6.88352 577.117 6.62464 576.158 6.62464C575.174 6.62464 574.343 6.89311 573.665 7.43004C572.994 7.96058 572.483 8.67969 572.131 9.58736C571.786 10.495 571.613 11.5146 571.613 12.646C571.613 13.7901 571.789 14.8224 572.141 15.7429C572.492 16.6634 573.004 17.3952 573.675 17.9386C574.352 18.4755 575.18 18.744 576.158 18.744ZM592.937 20.3068C591.665 20.3068 590.54 19.984 589.562 19.3384C588.591 18.6928 587.83 17.8011 587.28 16.6634C586.731 15.5192 586.456 14.1992 586.456 12.7035C586.456 11.195 586.731 9.86861 587.28 8.72443C587.83 7.57386 588.591 6.67898 589.562 6.03977C590.54 5.39418 591.665 5.07138 592.937 5.07138C594.209 5.07138 595.331 5.39418 596.303 6.03977C597.274 6.68537 598.035 7.58026 598.585 8.72443C599.141 9.86861 599.419 11.195 599.419 12.7035C599.419 14.1992 599.144 15.5192 598.594 16.6634C598.044 17.8011 597.281 18.6928 596.303 19.3384C595.331 19.984 594.209 20.3068 592.937 20.3068ZM592.937 18.744C593.96 18.744 594.826 18.4691 595.536 17.9194C596.245 17.3697 596.782 16.6378 597.146 15.7237C597.517 14.8097 597.703 13.8029 597.703 12.7035C597.703 11.604 597.517 10.5941 597.146 9.67365C596.782 8.7532 596.245 8.01491 595.536 7.45881C594.826 6.9027 593.96 6.62464 592.937 6.62464C591.921 6.62464 591.055 6.9027 590.339 7.45881C589.629 8.01491 589.089 8.7532 588.718 9.67365C588.354 10.5941 588.172 11.604 588.172 12.7035C588.172 13.8029 588.354 14.8097 588.718 15.7237C589.089 16.6378 589.629 17.3697 590.339 17.9194C591.048 18.4691 591.915 18.744 592.937 18.744ZM0.253196 58.5227V38.2727H1.91193V41.082H2.11328C2.31783 40.641 2.59908 40.1903 2.95703 39.7301C3.31499 39.2635 3.788 38.8704 4.37607 38.5508C4.97053 38.2312 5.7184 38.0714 6.61967 38.0714C7.83416 38.0714 8.89524 38.391 9.80291 39.0302C10.717 39.663 11.4265 40.5515 11.9315 41.6957C12.4428 42.8335 12.6985 44.1598 12.6985 45.6747C12.6985 47.196 12.4428 48.5288 11.9315 49.6729C11.4265 50.8171 10.717 51.7088 9.80291 52.348C8.89524 52.9872 7.84055 53.3068 6.63885 53.3068C5.75036 53.3068 5.00568 53.147 4.40483 52.8274C3.81037 52.5078 3.32777 52.1147 2.95703 51.6481C2.59268 51.1751 2.31143 50.7148 2.11328 50.2674H1.95987V58.5227H0.253196ZM1.9407 45.646C1.9407 46.8349 2.11648 47.8896 2.46804 48.81C2.82599 49.7241 3.33736 50.4432 4.00213 50.9673C4.6733 51.4851 5.48509 51.744 6.4375 51.744C7.41548 51.744 8.24006 51.4755 8.91122 50.9386C9.58878 50.3952 10.1033 49.6634 10.4549 48.7429C10.8129 47.8224 10.9918 46.7901 10.9918 45.646C10.9918 44.5146 10.8161 43.495 10.4645 42.5874C10.1193 41.6797 9.60795 40.9606 8.9304 40.43C8.25284 39.8931 7.42188 39.6246 6.4375 39.6246C5.47869 39.6246 4.66371 39.8835 3.99254 40.4013C3.32138 40.9126 2.81001 41.6222 2.45845 42.5298C2.11328 43.4311 1.9407 44.4698 1.9407 45.646ZM16.4426 53V38.2727H18.1014V40.5355H18.226C18.5201 39.794 19.0314 39.1964 19.7601 38.7425C20.4952 38.2823 21.3262 38.0522 22.253 38.0522C22.3936 38.0522 22.5502 38.0554 22.7228 38.0618C22.8954 38.0682 23.0392 38.0746 23.1543 38.081V39.8164C23.0776 39.8036 22.9434 39.7844 22.7516 39.7589C22.5598 39.7333 22.3521 39.7205 22.1284 39.7205C21.3613 39.7205 20.6774 39.8835 20.0765 40.2095C19.4821 40.5291 19.0123 40.9734 18.6671 41.5423C18.3219 42.1112 18.1493 42.7599 18.1493 43.4886V53H16.4426ZM31.3425 53.3068C30.0705 53.3068 28.9455 52.984 27.9675 52.3384C26.9959 51.6928 26.2353 50.8011 25.6855 49.6634C25.1358 48.5192 24.861 47.1992 24.861 45.7035C24.861 44.195 25.1358 42.8686 25.6855 41.7244C26.2353 40.5739 26.9959 39.679 27.9675 39.0398C28.9455 38.3942 30.0705 38.0714 31.3425 38.0714C32.6145 38.0714 33.7363 38.3942 34.7079 39.0398C35.6795 39.6854 36.4402 40.5803 36.9899 41.7244C37.546 42.8686 37.824 44.195 37.824 45.7035C37.824 47.1992 37.5492 48.5192 36.9995 49.6634C36.4498 50.8011 35.6859 51.6928 34.7079 52.3384C33.7363 52.984 32.6145 53.3068 31.3425 53.3068ZM31.3425 51.744C32.3652 51.744 33.2314 51.4691 33.9409 50.9194C34.6504 50.3697 35.1873 49.6378 35.5517 48.7237C35.9224 47.8097 36.1078 46.8029 36.1078 45.7035C36.1078 44.604 35.9224 43.5941 35.5517 42.6737C35.1873 41.7532 34.6504 41.0149 33.9409 40.4588C33.2314 39.9027 32.3652 39.6246 31.3425 39.6246C30.3262 39.6246 29.46 39.9027 28.7441 40.4588C28.0346 41.0149 27.4945 41.7532 27.1238 42.6737C26.7594 43.5941 26.5772 44.604 26.5772 45.7035C26.5772 46.8029 26.7594 47.8097 27.1238 48.7237C27.4945 49.6378 28.0346 50.3697 28.7441 50.9194C29.4537 51.4691 30.3198 51.744 31.3425 51.744ZM43.2773 43.7955V53H41.5706V38.2727H43.2293V40.5835H43.3827C43.7279 39.8292 44.2648 39.2251 44.9935 38.7713C45.7286 38.3111 46.6363 38.081 47.7165 38.081C48.7073 38.081 49.5766 38.2887 50.3245 38.7042C51.0787 39.1133 51.6636 39.7173 52.0791 40.5163C52.501 41.3153 52.7119 42.2965 52.7119 43.4599V53H51.0052V43.5653C51.0052 42.3572 50.6665 41.4016 49.9889 40.6985C49.3177 39.9954 48.4165 39.6438 47.2851 39.6438C46.5116 39.6438 45.8245 39.81 45.2236 40.1424C44.6228 40.4748 44.1466 40.9542 43.795 41.5806C43.4498 42.2006 43.2773 42.9389 43.2773 43.7955ZM63.0071 38.2727V39.7589H55.979V38.2727H63.0071ZM58.1747 34.7443H59.891V49.1552C59.891 49.7688 59.9964 50.2514 60.2074 50.603C60.4183 50.9482 60.6932 51.1942 61.032 51.3413C61.3707 51.4819 61.7319 51.5522 62.1154 51.5522C62.3391 51.5522 62.5309 51.5394 62.6907 51.5138C62.8505 51.4819 62.9911 51.4499 63.1126 51.418L63.4769 52.9616C63.3107 53.0256 63.1062 53.0831 62.8633 53.1342C62.6204 53.1918 62.32 53.2205 61.962 53.2205C61.3356 53.2205 60.7315 53.0831 60.1499 52.8082C59.5746 52.5334 59.1016 52.1243 58.7308 51.581C58.3601 51.0376 58.1747 50.3633 58.1747 49.5579V34.7443ZM72.449 53.3068C71.1769 53.3068 70.0519 52.984 69.074 52.3384C68.1024 51.6928 67.3417 50.8011 66.792 49.6634C66.2423 48.5192 65.9674 47.1992 65.9674 45.7035C65.9674 44.195 66.2423 42.8686 66.792 41.7244C67.3417 40.5739 68.1024 39.679 69.074 39.0398C70.0519 38.3942 71.1769 38.0714 72.449 38.0714C73.721 38.0714 74.8428 38.3942 75.8144 39.0398C76.786 39.6854 77.5466 40.5803 78.0963 41.7244C78.6524 42.8686 78.9305 44.195 78.9305 45.7035C78.9305 47.1992 78.6556 48.5192 78.1059 49.6634C77.5562 50.8011 76.7923 51.6928 75.8144 52.3384C74.8428 52.984 73.721 53.3068 72.449 53.3068ZM72.449 51.744C73.4717 51.744 74.3378 51.4691 75.0473 50.9194C75.7568 50.3697 76.2938 49.6378 76.6581 48.7237C77.0289 47.8097 77.2142 46.8029 77.2142 45.7035C77.2142 44.604 77.0289 43.5941 76.6581 42.6737C76.2938 41.7532 75.7568 41.0149 75.0473 40.4588C74.3378 39.9027 73.4717 39.6246 72.449 39.6246C71.4326 39.6246 70.5665 39.9027 69.8506 40.4588C69.1411 41.0149 68.6009 41.7532 68.2302 42.6737C67.8659 43.5941 67.6837 44.604 67.6837 45.7035C67.6837 46.8029 67.8659 47.8097 68.2302 48.7237C68.6009 49.6378 69.1411 50.3697 69.8506 50.9194C70.5601 51.4691 71.4262 51.744 72.449 51.744ZM96.0236 53.3068C94.7069 53.3068 93.5595 52.9776 92.5815 52.3192C91.6099 51.6609 90.8556 50.7596 90.3187 49.6154C89.7818 48.4712 89.5133 47.1673 89.5133 45.7035C89.5133 44.2269 89.785 42.9134 90.3283 41.7628C90.878 40.6122 91.6387 39.7109 92.6103 39.0589C93.5819 38.4006 94.7101 38.0714 95.9949 38.0714C96.9792 38.0714 97.8709 38.2631 98.6699 38.6467C99.4689 39.0238 100.127 39.5575 100.645 40.2479C101.169 40.9318 101.498 41.7308 101.633 42.6449H99.9068C99.7278 41.8139 99.2963 41.1044 98.6124 40.5163C97.9348 39.9219 97.0719 39.6246 96.0236 39.6246C95.084 39.6246 94.253 39.8803 93.5307 40.3917C92.8084 40.8967 92.2427 41.603 91.8336 42.5107C91.4309 43.4119 91.2296 44.457 91.2296 45.646C91.2296 46.8413 91.4277 47.8991 91.824 48.8196C92.2203 49.7337 92.7765 50.4496 93.4924 50.9673C94.2147 51.4851 95.0584 51.744 96.0236 51.744C96.6756 51.744 97.2701 51.6225 97.807 51.3796C98.3503 51.1303 98.8042 50.7788 99.1685 50.3249C99.5392 49.8711 99.7885 49.331 99.9164 48.7045H101.642C101.514 49.593 101.198 50.3857 100.693 51.0824C100.194 51.7727 99.5456 52.3161 98.7466 52.7124C97.954 53.1087 97.0463 53.3068 96.0236 53.3068ZM107.007 33.3636V53H105.3V33.3636H107.007ZM111.542 53V38.2727H113.258V53H111.542ZM112.414 35.7415C112.063 35.7415 111.762 35.6232 111.513 35.3867C111.264 35.1438 111.139 34.853 111.139 34.5142C111.139 34.1754 111.264 33.8878 111.513 33.6513C111.762 33.4084 112.063 33.2869 112.414 33.2869C112.766 33.2869 113.066 33.4084 113.316 33.6513C113.565 33.8878 113.69 34.1754 113.69 34.5142C113.69 34.853 113.565 35.1438 113.316 35.3867C113.066 35.6232 112.766 35.7415 112.414 35.7415ZM127.753 58.5227V50.2674H127.6C127.401 50.7148 127.12 51.1751 126.756 51.6481C126.391 52.1147 125.909 52.5078 125.308 52.8274C124.707 53.147 123.962 53.3068 123.074 53.3068C121.872 53.3068 120.814 52.9872 119.9 52.348C118.993 51.7088 118.283 50.8171 117.772 49.6729C117.267 48.5288 117.014 47.196 117.014 45.6747C117.014 44.1598 117.267 42.8335 117.772 41.6957C118.283 40.5515 118.996 39.663 119.91 39.0302C120.824 38.391 121.888 38.0714 123.103 38.0714C124.004 38.0714 124.749 38.2312 125.337 38.5508C125.931 38.8704 126.407 39.2635 126.765 39.7301C127.123 40.1903 127.401 40.641 127.6 41.082H127.801V38.2727H129.469V58.5227H127.753ZM123.275 51.744C124.228 51.744 125.04 51.4851 125.711 50.9673C126.382 50.4432 126.893 49.7241 127.245 48.81C127.603 47.8896 127.782 46.8349 127.782 45.646C127.782 44.4698 127.606 43.4311 127.254 42.5298C126.903 41.6222 126.391 40.9126 125.72 40.4013C125.055 39.8835 124.241 39.6246 123.275 39.6246C122.291 39.6246 121.46 39.8931 120.782 40.43C120.105 40.9606 119.593 41.6797 119.248 42.5874C118.903 43.495 118.731 44.5146 118.731 45.646C118.731 46.7901 118.906 47.8224 119.258 48.7429C119.609 49.6634 120.124 50.3952 120.802 50.9386C121.479 51.4755 122.304 51.744 123.275 51.744ZM143.319 47.3718V38.2727H145.026V53H143.319V50.555H143.185C142.84 51.3093 142.293 51.9389 141.545 52.4439C140.797 52.9425 139.883 53.1918 138.803 53.1918C137.864 53.1918 137.029 52.9872 136.301 52.5781C135.572 52.1626 135 51.5554 134.584 50.7564C134.169 49.9574 133.961 48.9762 133.961 47.8129V38.2727H135.668V47.7074C135.668 48.858 136.007 49.7848 136.684 50.4879C137.362 51.1847 138.231 51.533 139.292 51.533C139.957 51.533 140.596 51.3732 141.21 51.0536C141.823 50.734 142.328 50.2674 142.725 49.6538C143.121 49.0337 143.319 48.2731 143.319 47.3718ZM155.498 53.3068C154.124 53.3068 152.935 52.9872 151.932 52.348C150.928 51.7024 150.151 50.8107 149.602 49.6729C149.058 48.5288 148.787 47.212 148.787 45.7227C148.787 44.2397 149.058 42.9229 149.602 41.7724C150.151 40.6154 150.909 39.7109 151.874 39.0589C152.846 38.4006 153.968 38.0714 155.24 38.0714C156.039 38.0714 156.809 38.2184 157.55 38.5124C158.292 38.8001 158.956 39.2443 159.545 39.8452C160.139 40.4396 160.609 41.1907 160.954 42.0984C161.299 42.9996 161.472 44.0671 161.472 45.3008V46.1445H149.966V44.6392H159.727C159.727 43.6932 159.535 42.843 159.151 42.0888C158.774 41.3281 158.247 40.7273 157.569 40.2862C156.898 39.8452 156.122 39.6246 155.24 39.6246C154.306 39.6246 153.485 39.8739 152.775 40.3725C152.066 40.8711 151.51 41.5295 151.107 42.3477C150.711 43.1658 150.509 44.0607 150.503 45.0323V45.9336C150.503 47.1033 150.704 48.1261 151.107 49.0018C151.516 49.8711 152.095 50.5455 152.843 51.0249C153.59 51.5043 154.476 51.744 155.498 51.744C156.195 51.744 156.806 51.6353 157.33 51.418C157.86 51.2006 158.305 50.9098 158.662 50.5455C159.027 50.1747 159.302 49.7688 159.487 49.3278L161.107 49.8551C160.884 50.4751 160.516 51.0472 160.005 51.5714C159.5 52.0955 158.867 52.5174 158.106 52.837C157.352 53.1502 156.483 53.3068 155.498 53.3068ZM178.781 53.3068C177.406 53.3068 176.217 52.9872 175.214 52.348C174.21 51.7024 173.434 50.8107 172.884 49.6729C172.341 48.5288 172.069 47.212 172.069 45.7227C172.069 44.2397 172.341 42.9229 172.884 41.7724C173.434 40.6154 174.191 39.7109 175.156 39.0589C176.128 38.4006 177.25 38.0714 178.522 38.0714C179.321 38.0714 180.091 38.2184 180.832 38.5124C181.574 38.8001 182.239 39.2443 182.827 39.8452C183.421 40.4396 183.891 41.1907 184.236 42.0984C184.581 42.9996 184.754 44.0671 184.754 45.3008V46.1445H173.248V44.6392H183.009C183.009 43.6932 182.817 42.843 182.434 42.0888C182.057 41.3281 181.529 40.7273 180.852 40.2862C180.18 39.8452 179.404 39.6246 178.522 39.6246C177.589 39.6246 176.767 39.8739 176.058 40.3725C175.348 40.8711 174.792 41.5295 174.389 42.3477C173.993 43.1658 173.792 44.0607 173.785 45.0323V45.9336C173.785 47.1033 173.987 48.1261 174.389 49.0018C174.798 49.8711 175.377 50.5455 176.125 51.0249C176.873 51.5043 177.758 51.744 178.781 51.744C179.477 51.744 180.088 51.6353 180.612 51.418C181.142 51.2006 181.587 50.9098 181.945 50.5455C182.309 50.1747 182.584 49.7688 182.769 49.3278L184.39 49.8551C184.166 50.4751 183.798 51.0472 183.287 51.5714C182.782 52.0955 182.149 52.5174 181.389 52.837C180.634 53.1502 179.765 53.3068 178.781 53.3068ZM188.515 53V38.2727H190.174V40.5355H190.327C190.621 39.7749 191.11 39.1772 191.794 38.7425C192.484 38.3015 193.312 38.081 194.277 38.081C195.294 38.081 196.128 38.3207 196.78 38.8001C197.438 39.2731 197.93 39.9251 198.256 40.756H198.381C198.713 39.9379 199.254 39.2891 200.001 38.8097C200.756 38.3239 201.67 38.081 202.744 38.081C204.112 38.081 205.192 38.5124 205.984 39.3754C206.777 40.2319 207.173 41.4847 207.173 43.1339V53H205.467V43.1339C205.467 41.9705 205.169 41.098 204.575 40.5163C203.98 39.9347 203.197 39.6438 202.226 39.6438C201.101 39.6438 200.235 39.989 199.627 40.6793C199.02 41.3697 198.717 42.2454 198.717 43.3065V53H196.972V42.9805C196.972 41.9833 196.694 41.1779 196.137 40.5643C195.581 39.9506 194.798 39.6438 193.788 39.6438C193.111 39.6438 192.5 39.81 191.957 40.1424C191.42 40.4748 190.995 40.9382 190.682 41.5327C190.375 42.1207 190.222 42.7983 190.222 43.5653V53H188.515ZM225.009 53.3068C223.737 53.3068 222.612 52.984 221.634 52.3384C220.663 51.6928 219.902 50.8011 219.353 49.6634C218.803 48.5192 218.528 47.1992 218.528 45.7035C218.528 44.195 218.803 42.8686 219.353 41.7244C219.902 40.5739 220.663 39.679 221.634 39.0398C222.612 38.3942 223.737 38.0714 225.009 38.0714C226.282 38.0714 227.403 38.3942 228.375 39.0398C229.347 39.6854 230.107 40.5803 230.657 41.7244C231.213 42.8686 231.491 44.195 231.491 45.7035C231.491 47.1992 231.216 48.5192 230.666 49.6634C230.117 50.8011 229.353 51.6928 228.375 52.3384C227.403 52.984 226.282 53.3068 225.009 53.3068ZM225.009 51.744C226.032 51.744 226.898 51.4691 227.608 50.9194C228.317 50.3697 228.854 49.6378 229.219 48.7237C229.589 47.8097 229.775 46.8029 229.775 45.7035C229.775 44.604 229.589 43.5941 229.219 42.6737C228.854 41.7532 228.317 41.0149 227.608 40.4588C226.898 39.9027 226.032 39.6246 225.009 39.6246C223.993 39.6246 223.127 39.9027 222.411 40.4588C221.702 41.0149 221.161 41.7532 220.791 42.6737C220.426 43.5941 220.244 44.604 220.244 45.7035C220.244 46.8029 220.426 47.8097 220.791 48.7237C221.161 49.6378 221.702 50.3697 222.411 50.9194C223.121 51.4691 223.987 51.744 225.009 51.744ZM236.791 47.4389L236.772 45.2049H237.155L244.059 38.2727H246.216L239.399 45.0994L239.245 45.1282L236.791 47.4389ZM235.238 53V33.3636H236.944V53H235.238ZM244.413 53L238.43 45.435L239.658 44.2557L246.599 53H244.413Z" fill="black"/>
</svg>
