<svg width="462" height="59" viewBox="0 0 462 59" fill="none" xmlns="http://www.w3.org/2000/svg">
<path d="M19.1231 20V0.363636H25.4608C26.8543 0.363636 28.0176 0.632102 28.9509 1.16903C29.8905 1.69957 30.5968 2.42188 31.0698 3.33594C31.5492 4.25 31.7889 5.27912 31.7889 6.42329C31.7889 7.56747 31.5524 8.59979 31.0794 9.52024C30.6064 10.4343 29.9033 11.1598 28.97 11.6967C28.0368 12.2273 26.8766 12.4925 25.4896 12.4925H20.5038V10.8817H25.4416C26.4707 10.8817 27.3241 10.69 28.0016 10.3065C28.6792 9.91655 29.1842 9.38601 29.5166 8.71484C29.8553 8.04368 30.0247 7.27983 30.0247 6.42329C30.0247 5.56676 29.8553 4.80291 29.5166 4.13175C29.1842 3.46058 28.676 2.93324 27.9921 2.54972C27.3145 2.16619 26.4548 1.97443 25.4129 1.97443H20.9161V20H19.1231ZM35.6625 20V5.27273H37.3788V20H35.6625ZM36.535 2.74148C36.1835 2.74148 35.883 2.62322 35.6337 2.38672C35.3845 2.14382 35.2598 1.85298 35.2598 1.5142C35.2598 1.17543 35.3845 0.887784 35.6337 0.651279C35.883 0.40838 36.1835 0.286931 36.535 0.286931C36.8866 0.286931 37.187 0.40838 37.4363 0.651279C37.6856 0.887784 37.8102 1.17543 37.8102 1.5142C37.8102 1.85298 37.6856 2.14382 37.4363 2.38672C37.187 2.62322 36.8866 2.74148 36.535 2.74148ZM43.599 10.7955V20H41.8924V5.27273H43.5511V7.58345H43.7045C44.0497 6.82919 44.5866 6.22514 45.3153 5.77131C46.0504 5.31108 46.9581 5.08097 48.0383 5.08097C49.0291 5.08097 49.8984 5.28871 50.6463 5.70419C51.4005 6.11328 51.9854 6.71733 52.4009 7.51633C52.8228 8.31534 53.0337 9.29652 53.0337 10.4599V20H51.327V10.5653C51.327 9.35724 50.9882 8.40163 50.3107 7.69851C49.6395 6.99538 48.7382 6.64382 47.6068 6.64382C46.8334 6.64382 46.1463 6.81001 45.5454 7.1424C44.9446 7.47479 44.4684 7.95419 44.1168 8.58061C43.7716 9.20064 43.599 9.93892 43.599 10.7955ZM63.3289 5.27273V6.75888H56.3008V5.27273H63.3289ZM58.4965 1.74432H60.2128V16.1552C60.2128 16.7688 60.3182 17.2514 60.5292 17.603C60.7401 17.9482 61.015 18.1942 61.3537 18.3413C61.6925 18.4819 62.0537 18.5522 62.4372 18.5522C62.6609 18.5522 62.8527 18.5394 63.0125 18.5138C63.1723 18.4819 63.3129 18.4499 63.4343 18.418L63.7987 19.9616C63.6325 20.0256 63.428 20.0831 63.1851 20.1342C62.9422 20.1918 62.6417 20.2205 62.2838 20.2205C61.6574 20.2205 61.0533 20.0831 60.4716 19.8082C59.8964 19.5334 59.4233 19.1243 59.0526 18.581C58.6819 18.0376 58.4965 17.3633 58.4965 16.5579V1.74432ZM73.0008 20.3068C71.6266 20.3068 70.4376 19.9872 69.4341 19.348C68.4305 18.7024 67.6539 17.8107 67.1042 16.6729C66.5609 15.5288 66.2892 14.212 66.2892 12.7227C66.2892 11.2397 66.5609 9.92294 67.1042 8.77237C67.6539 7.61541 68.4114 6.71094 69.3766 6.05895C70.3481 5.40057 71.4699 5.07138 72.742 5.07138C73.541 5.07138 74.3112 5.21839 75.0527 5.51243C75.7942 5.80007 76.4589 6.24432 77.047 6.84517C77.6415 7.43963 78.1113 8.1907 78.4565 9.09837C78.8016 9.99964 78.9742 11.0671 78.9742 12.3008V13.1445H67.4685V11.6392H77.2292C77.2292 10.6932 77.0374 9.84304 76.6539 9.08878C76.2768 8.32812 75.7494 7.72727 75.0719 7.28622C74.4007 6.84517 73.6241 6.62464 72.742 6.62464C71.8087 6.62464 70.9873 6.87393 70.2778 7.37251C69.5683 7.87109 69.0122 8.52947 68.6095 9.34766C68.2132 10.1658 68.0119 11.0607 68.0055 12.0323V12.9336C68.0055 14.1033 68.2068 15.1261 68.6095 16.0018C69.0186 16.8711 69.5971 17.5455 70.3449 18.0249C71.0928 18.5043 71.9781 18.744 73.0008 18.744C73.6976 18.744 74.308 18.6353 74.8322 18.418C75.3627 18.2006 75.807 17.9098 76.1649 17.5455C76.5293 17.1747 76.8041 16.7688 76.9895 16.3278L78.6099 16.8551C78.3861 17.4751 78.0186 18.0472 77.5072 18.5714C77.0023 19.0955 76.3695 19.5174 75.6088 19.837C74.8545 20.1502 73.9852 20.3068 73.0008 20.3068ZM96.053 20.3068C94.7809 20.3068 93.6559 19.984 92.678 19.3384C91.7064 18.6928 90.9457 17.8011 90.396 16.6634C89.8463 15.5192 89.5714 14.1992 89.5714 12.7035C89.5714 11.195 89.8463 9.86861 90.396 8.72443C90.9457 7.57386 91.7064 6.67898 92.678 6.03977C93.6559 5.39418 94.7809 5.07138 96.053 5.07138C97.325 5.07138 98.4468 5.39418 99.4184 6.03977C100.39 6.68537 101.151 7.58026 101.7 8.72443C102.256 9.86861 102.534 11.195 102.534 12.7035C102.534 14.1992 102.26 15.5192 101.71 16.6634C101.16 17.8011 100.396 18.6928 99.4184 19.3384C98.4468 19.984 97.325 20.3068 96.053 20.3068ZM96.053 18.744C97.0757 18.744 97.9418 18.4691 98.6513 17.9194C99.3608 17.3697 99.8978 16.6378 100.262 15.7237C100.633 14.8097 100.818 13.8029 100.818 12.7035C100.818 11.604 100.633 10.5941 100.262 9.67365C99.8978 8.7532 99.3608 8.01491 98.6513 7.45881C97.9418 6.9027 97.0757 6.62464 96.053 6.62464C95.0366 6.62464 94.1705 6.9027 93.4546 7.45881C92.7451 8.01491 92.2049 8.7532 91.8342 9.67365C91.4699 10.5941 91.2877 11.604 91.2877 12.7035C91.2877 13.8029 91.4699 14.8097 91.8342 15.7237C92.2049 16.6378 92.7451 17.3697 93.4546 17.9194C94.1641 18.4691 95.0302 18.744 96.053 18.744ZM116.176 8.50391L114.613 8.94496C114.46 8.50391 114.242 8.1044 113.961 7.74645C113.68 7.38849 113.312 7.10405 112.858 6.89311C112.411 6.68217 111.855 6.5767 111.19 6.5767C110.193 6.5767 109.375 6.81321 108.736 7.28622C108.096 7.75923 107.777 8.36967 107.777 9.11754C107.777 9.75035 107.994 10.2649 108.429 10.6612C108.87 11.0511 109.547 11.3612 110.461 11.5913L112.686 12.1378C113.92 12.4382 114.843 12.9144 115.457 13.5664C116.077 14.2184 116.387 15.0366 116.387 16.021C116.387 16.8519 116.157 17.5902 115.697 18.2358C115.236 18.8814 114.594 19.3896 113.769 19.7603C112.951 20.1246 112.002 20.3068 110.922 20.3068C109.483 20.3068 108.298 19.984 107.364 19.3384C106.431 18.6864 105.834 17.7468 105.572 16.5195L107.211 16.1168C107.422 16.9925 107.834 17.6541 108.448 18.1016C109.068 18.549 109.883 18.7727 110.893 18.7727C112.024 18.7727 112.929 18.5202 113.606 18.0153C114.284 17.5039 114.623 16.8647 114.623 16.0977C114.623 15.5032 114.424 15.0046 114.028 14.6019C113.632 14.1928 113.031 13.8924 112.226 13.7006L109.819 13.1254C108.541 12.8185 107.595 12.3327 106.981 11.668C106.367 11.0032 106.061 10.1786 106.061 9.19425C106.061 8.38246 106.281 7.66974 106.722 7.05611C107.163 6.43608 107.77 5.95028 108.544 5.59872C109.317 5.24716 110.199 5.07138 111.19 5.07138C112.539 5.07138 113.616 5.3782 114.421 5.99183C115.233 6.59908 115.818 7.43643 116.176 8.50391ZM133.394 20.2685C132.301 20.2685 131.323 20.0479 130.46 19.6069C129.603 19.1594 128.919 18.5458 128.408 17.766C127.903 16.9862 127.634 16.0945 127.602 15.0909H129.338C129.395 16.1328 129.805 16.9893 130.565 17.6605C131.326 18.3253 132.269 18.6577 133.394 18.6577C134.269 18.6577 135.049 18.4499 135.733 18.0344C136.417 17.6126 136.951 17.0373 137.334 16.3086C137.724 15.5735 137.919 14.7457 137.919 13.8253C137.913 12.8665 137.705 12.0227 137.296 11.294C136.887 10.5589 136.331 9.98366 135.628 9.56818C134.931 9.1527 134.148 8.94496 133.279 8.94496C132.62 8.93856 131.975 9.04723 131.342 9.27095C130.709 9.49467 130.182 9.78232 129.76 10.1339L127.967 9.90376L129.146 0.363636H138.849V1.97443H130.652L129.865 8.54226H129.961C130.396 8.17791 130.923 7.88068 131.543 7.65057C132.17 7.42045 132.831 7.3054 133.528 7.3054C134.685 7.3054 135.724 7.58345 136.644 8.13956C137.571 8.69567 138.303 9.46271 138.84 10.4407C139.383 11.4123 139.655 12.5309 139.655 13.7965C139.655 15.0366 139.383 16.1456 138.84 17.1236C138.303 18.0952 137.561 18.8622 136.615 19.4247C135.676 19.9872 134.602 20.2685 133.394 20.2685ZM157.148 20.3068C155.831 20.3068 154.684 19.9776 153.706 19.3192C152.734 18.6609 151.98 17.7596 151.443 16.6154C150.906 15.4712 150.638 14.1673 150.638 12.7035C150.638 11.2269 150.909 9.91335 151.453 8.76278C152.003 7.61222 152.763 6.71094 153.735 6.05895C154.706 5.40057 155.835 5.07138 157.119 5.07138C158.104 5.07138 158.995 5.26314 159.794 5.64666C160.593 6.02379 161.252 6.55753 161.77 7.24787C162.294 7.93182 162.623 8.73082 162.757 9.64489H161.031C160.852 8.81392 160.421 8.1044 159.737 7.51633C159.059 6.92187 158.196 6.62464 157.148 6.62464C156.208 6.62464 155.378 6.88033 154.655 7.39169C153.933 7.89666 153.367 8.60298 152.958 9.51065C152.555 10.4119 152.354 11.457 152.354 12.646C152.354 13.8413 152.552 14.8991 152.949 15.8196C153.345 16.7337 153.901 17.4496 154.617 17.9673C155.339 18.4851 156.183 18.744 157.148 18.744C157.8 18.744 158.395 18.6225 158.932 18.3796C159.475 18.1303 159.929 17.7788 160.293 17.3249C160.664 16.8711 160.913 16.331 161.041 15.7045H162.767C162.639 16.593 162.322 17.3857 161.818 18.0824C161.319 18.7727 160.67 19.3161 159.871 19.7124C159.079 20.1087 158.171 20.3068 157.148 20.3068ZM170.538 20.3356C169.649 20.3356 168.838 20.163 168.102 19.8178C167.367 19.4663 166.783 18.9613 166.348 18.3029C165.913 17.6381 165.696 16.8327 165.696 15.8867C165.696 15.158 165.833 14.5444 166.108 14.0458C166.383 13.5472 166.773 13.1381 167.278 12.8185C167.783 12.4989 168.381 12.2464 169.071 12.0611C169.761 11.8757 170.522 11.7319 171.353 11.6296C172.177 11.5273 172.874 11.4379 173.443 11.3612C174.018 11.2844 174.456 11.163 174.757 10.9968C175.057 10.8306 175.207 10.5621 175.207 10.1914V9.84624C175.207 8.84268 174.907 8.05327 174.306 7.47798C173.712 6.89631 172.855 6.60547 171.736 6.60547C170.675 6.60547 169.809 6.83878 169.138 7.3054C168.473 7.77202 168.007 8.32173 167.738 8.95454L166.118 8.36967C166.45 7.56428 166.91 6.92187 167.498 6.44247C168.087 5.95668 168.745 5.60831 169.474 5.39737C170.202 5.18004 170.941 5.07138 171.688 5.07138C172.251 5.07138 172.836 5.14489 173.443 5.2919C174.057 5.43892 174.626 5.6946 175.15 6.05895C175.674 6.4169 176.099 6.91868 176.425 7.56428C176.751 8.20348 176.914 9.01527 176.914 9.99964V20H175.207V17.6701H175.102C174.897 18.1048 174.594 18.5266 174.191 18.9357C173.788 19.3448 173.283 19.6804 172.676 19.9425C172.069 20.2045 171.356 20.3356 170.538 20.3356ZM170.768 18.7727C171.676 18.7727 172.462 18.5714 173.127 18.1687C173.791 17.766 174.303 17.2322 174.661 16.5675C175.025 15.8963 175.207 15.158 175.207 14.3526V12.2241C175.079 12.3455 174.865 12.4542 174.565 12.5501C174.271 12.646 173.929 12.7322 173.539 12.8089C173.155 12.8793 172.772 12.94 172.388 12.9911C172.005 13.0423 171.66 13.087 171.353 13.1254C170.522 13.2276 169.812 13.3874 169.224 13.6048C168.636 13.8221 168.186 14.1225 167.872 14.506C167.559 14.8832 167.403 15.369 167.403 15.9634C167.403 16.8583 167.722 17.5518 168.361 18.044C169.001 18.5298 169.803 18.7727 170.768 18.7727ZM192.327 5.27273L186.948 20H185.126L179.747 5.27273H181.598L185.97 17.7468H186.104L190.476 5.27273H192.327ZM199.331 20.3356C198.442 20.3356 197.631 20.163 196.895 19.8178C196.16 19.4663 195.576 18.9613 195.141 18.3029C194.706 17.6381 194.489 16.8327 194.489 15.8867C194.489 15.158 194.626 14.5444 194.901 14.0458C195.176 13.5472 195.566 13.1381 196.071 12.8185C196.576 12.4989 197.174 12.2464 197.864 12.0611C198.554 11.8757 199.315 11.7319 200.146 11.6296C200.97 11.5273 201.667 11.4379 202.236 11.3612C202.811 11.2844 203.249 11.163 203.55 10.9968C203.85 10.8306 204 10.5621 204 10.1914V9.84624C204 8.84268 203.7 8.05327 203.099 7.47798C202.504 6.89631 201.648 6.60547 200.529 6.60547C199.468 6.60547 198.602 6.83878 197.931 7.3054C197.266 7.77202 196.8 8.32173 196.531 8.95454L194.911 8.36967C195.243 7.56428 195.703 6.92187 196.291 6.44247C196.879 5.95668 197.538 5.60831 198.267 5.39737C198.995 5.18004 199.734 5.07138 200.481 5.07138C201.044 5.07138 201.629 5.14489 202.236 5.2919C202.85 5.43892 203.419 5.6946 203.943 6.05895C204.467 6.4169 204.892 6.91868 205.218 7.56428C205.544 8.20348 205.707 9.01527 205.707 9.99964V20H204V17.6701H203.895C203.69 18.1048 203.387 18.5266 202.984 18.9357C202.581 19.3448 202.076 19.6804 201.469 19.9425C200.862 20.2045 200.149 20.3356 199.331 20.3356ZM199.561 18.7727C200.469 18.7727 201.255 18.5714 201.92 18.1687C202.584 17.766 203.096 17.2322 203.454 16.5675C203.818 15.8963 204 15.158 204 14.3526V12.2241C203.872 12.3455 203.658 12.4542 203.358 12.5501C203.064 12.646 202.722 12.7322 202.332 12.8089C201.948 12.8793 201.565 12.94 201.181 12.9911C200.798 13.0423 200.453 13.087 200.146 13.1254C199.315 13.2276 198.605 13.3874 198.017 13.6048C197.429 13.8221 196.979 14.1225 196.665 14.506C196.352 14.8832 196.196 15.369 196.196 15.9634C196.196 16.8583 196.515 17.5518 197.154 18.044C197.794 18.5298 198.596 18.7727 199.561 18.7727ZM211.954 0.363636V20H210.247V0.363636H211.954ZM222.194 20.3068C220.922 20.3068 219.797 19.984 218.819 19.3384C217.847 18.6928 217.086 17.8011 216.537 16.6634C215.987 15.5192 215.712 14.1992 215.712 12.7035C215.712 11.195 215.987 9.86861 216.537 8.72443C217.086 7.57386 217.847 6.67898 218.819 6.03977C219.797 5.39418 220.922 5.07138 222.194 5.07138C223.466 5.07138 224.587 5.39418 225.559 6.03977C226.531 6.68537 227.291 7.58026 227.841 8.72443C228.397 9.86861 228.675 11.195 228.675 12.7035C228.675 14.1992 228.4 15.5192 227.851 16.6634C227.301 17.8011 226.537 18.6928 225.559 19.3384C224.587 19.984 223.466 20.3068 222.194 20.3068ZM222.194 18.744C223.216 18.744 224.082 18.4691 224.792 17.9194C225.501 17.3697 226.038 16.6378 226.403 15.7237C226.773 14.8097 226.959 13.8029 226.959 12.7035C226.959 11.604 226.773 10.5941 226.403 9.67365C226.038 8.7532 225.501 8.01491 224.792 7.45881C224.082 6.9027 223.216 6.62464 222.194 6.62464C221.177 6.62464 220.311 6.9027 219.595 7.45881C218.886 8.01491 218.346 8.7532 217.975 9.67365C217.61 10.5941 217.428 11.604 217.428 12.7035C217.428 13.8029 217.61 14.8097 217.975 15.7237C218.346 16.6378 218.886 17.3697 219.595 17.9194C220.305 18.4691 221.171 18.744 222.194 18.744ZM242.317 8.50391L240.754 8.94496C240.6 8.50391 240.383 8.1044 240.102 7.74645C239.82 7.38849 239.453 7.10405 238.999 6.89311C238.552 6.68217 237.996 6.5767 237.331 6.5767C236.334 6.5767 235.515 6.81321 234.876 7.28622C234.237 7.75923 233.917 8.36967 233.917 9.11754C233.917 9.75035 234.135 10.2649 234.569 10.6612C235.01 11.0511 235.688 11.3612 236.602 11.5913L238.826 12.1378C240.06 12.4382 240.984 12.9144 241.597 13.5664C242.217 14.2184 242.527 15.0366 242.527 16.021C242.527 16.8519 242.297 17.5902 241.837 18.2358C241.377 18.8814 240.735 19.3896 239.91 19.7603C239.092 20.1246 238.143 20.3068 237.062 20.3068C235.624 20.3068 234.438 19.984 233.505 19.3384C232.572 18.6864 231.974 17.7468 231.712 16.5195L233.352 16.1168C233.563 16.9925 233.975 17.6541 234.589 18.1016C235.209 18.549 236.024 18.7727 237.034 18.7727C238.165 18.7727 239.069 18.5202 239.747 18.0153C240.424 17.5039 240.763 16.8647 240.763 16.0977C240.763 15.5032 240.565 15.0046 240.169 14.6019C239.773 14.1928 239.172 13.8924 238.366 13.7006L235.96 13.1254C234.681 12.8185 233.735 12.3327 233.122 11.668C232.508 11.0032 232.201 10.1786 232.201 9.19425C232.201 8.38246 232.422 7.66974 232.863 7.05611C233.304 6.43608 233.911 5.95028 234.684 5.59872C235.458 5.24716 236.34 5.07138 237.331 5.07138C238.679 5.07138 239.757 5.3782 240.562 5.99183C241.374 6.59908 241.959 7.43643 242.317 8.50391ZM249.102 17.3153L248.93 18.3413C248.821 19.0316 248.668 19.7923 248.47 20.6232C248.272 21.4542 248.067 22.2436 247.856 22.9915C247.645 23.7393 247.463 24.3402 247.31 24.794H245.996C246.079 24.3594 246.185 23.8065 246.312 23.1353C246.447 22.4641 246.584 21.7195 246.725 20.9013C246.865 20.0895 246.993 19.2521 247.108 18.3892L247.242 17.3153H249.102ZM271.196 25.5227V17.2674H271.042C270.844 17.7148 270.563 18.1751 270.199 18.6481C269.834 19.1147 269.352 19.5078 268.751 19.8274C268.15 20.147 267.405 20.3068 266.517 20.3068C265.315 20.3068 264.257 19.9872 263.343 19.348C262.436 18.7088 261.726 17.8171 261.215 16.6729C260.71 15.5288 260.457 14.196 260.457 12.6747C260.457 11.1598 260.71 9.83345 261.215 8.69567C261.726 7.55149 262.439 6.663 263.353 6.03018C264.267 5.39098 265.331 5.07138 266.546 5.07138C267.447 5.07138 268.192 5.23118 268.78 5.55078C269.374 5.87038 269.85 6.26349 270.208 6.73011C270.566 7.19034 270.844 7.64098 271.042 8.08203H271.244V5.27273H272.912V25.5227H271.196ZM266.718 18.744C267.671 18.744 268.482 18.4851 269.154 17.9673C269.825 17.4432 270.336 16.7241 270.688 15.81C271.046 14.8896 271.225 13.8349 271.225 12.646C271.225 11.4698 271.049 10.4311 270.697 9.52983C270.346 8.62216 269.834 7.91264 269.163 7.40128C268.498 6.88352 267.683 6.62464 266.718 6.62464C265.734 6.62464 264.903 6.89311 264.225 7.43004C263.548 7.96058 263.036 8.67969 262.691 9.58736C262.346 10.495 262.173 11.5146 262.173 12.646C262.173 13.7901 262.349 14.8224 262.701 15.7429C263.052 16.6634 263.567 17.3952 264.244 17.9386C264.922 18.4755 265.747 18.744 266.718 18.744ZM286.762 14.3718V5.27273H288.469V20H286.762V17.555H286.628C286.283 18.3093 285.736 18.9389 284.988 19.4439C284.24 19.9425 283.326 20.1918 282.246 20.1918C281.306 20.1918 280.472 19.9872 279.744 19.5781C279.015 19.1626 278.443 18.5554 278.027 17.7564C277.612 16.9574 277.404 15.9762 277.404 14.8129V5.27273H279.111V14.7074C279.111 15.858 279.45 16.7848 280.127 17.4879C280.805 18.1847 281.674 18.533 282.735 18.533C283.4 18.533 284.039 18.3732 284.653 18.0536C285.266 17.734 285.771 17.2674 286.168 16.6538C286.564 16.0337 286.762 15.2731 286.762 14.3718ZM297.1 20.3356C296.212 20.3356 295.4 20.163 294.665 19.8178C293.93 19.4663 293.345 18.9613 292.91 18.3029C292.476 17.6381 292.258 16.8327 292.258 15.8867C292.258 15.158 292.396 14.5444 292.671 14.0458C292.946 13.5472 293.335 13.1381 293.84 12.8185C294.345 12.4989 294.943 12.2464 295.633 12.0611C296.324 11.8757 297.084 11.7319 297.915 11.6296C298.74 11.5273 299.437 11.4379 300.006 11.3612C300.581 11.2844 301.019 11.163 301.319 10.9968C301.62 10.8306 301.77 10.5621 301.77 10.1914V9.84624C301.77 8.84268 301.469 8.05327 300.868 7.47798C300.274 6.89631 299.417 6.60547 298.299 6.60547C297.238 6.60547 296.372 6.83878 295.701 7.3054C295.036 7.77202 294.569 8.32173 294.301 8.95454L292.68 8.36967C293.013 7.56428 293.473 6.92187 294.061 6.44247C294.649 5.95668 295.307 5.60831 296.036 5.39737C296.765 5.18004 297.503 5.07138 298.251 5.07138C298.813 5.07138 299.398 5.14489 300.006 5.2919C300.619 5.43892 301.188 5.6946 301.712 6.05895C302.236 6.4169 302.661 6.91868 302.987 7.56428C303.313 8.20348 303.476 9.01527 303.476 9.99964V20H301.77V17.6701H301.664C301.46 18.1048 301.156 18.5266 300.753 18.9357C300.351 19.3448 299.846 19.6804 299.239 19.9425C298.631 20.2045 297.919 20.3356 297.1 20.3356ZM297.33 18.7727C298.238 18.7727 299.024 18.5714 299.689 18.1687C300.354 17.766 300.865 17.2322 301.223 16.5675C301.588 15.8963 301.77 15.158 301.77 14.3526V12.2241C301.642 12.3455 301.428 12.4542 301.127 12.5501C300.833 12.646 300.491 12.7322 300.101 12.8089C299.718 12.8793 299.334 12.94 298.951 12.9911C298.567 13.0423 298.222 13.087 297.915 13.1254C297.084 13.2276 296.375 13.3874 295.787 13.6048C295.199 13.8221 294.748 14.1225 294.435 14.506C294.122 14.8832 293.965 15.369 293.965 15.9634C293.965 16.8583 294.285 17.5518 294.924 18.044C295.563 18.5298 296.365 18.7727 297.33 18.7727ZM309.723 10.7955V20H308.016V5.27273H309.675V7.58345H309.829C310.174 6.82919 310.711 6.22514 311.439 5.77131C312.174 5.31108 313.082 5.08097 314.162 5.08097C315.153 5.08097 316.022 5.28871 316.77 5.70419C317.525 6.11328 318.109 6.71733 318.525 7.51633C318.947 8.31534 319.158 9.29652 319.158 10.4599V20H317.451V10.5653C317.451 9.35724 317.112 8.40163 316.435 7.69851C315.764 6.99538 314.862 6.64382 313.731 6.64382C312.957 6.64382 312.27 6.81001 311.669 7.1424C311.069 7.47479 310.592 7.95419 310.241 8.58061C309.896 9.20064 309.723 9.93892 309.723 10.7955ZM328.954 20.3068C327.746 20.3068 326.688 19.9872 325.781 19.348C324.873 18.7088 324.163 17.8171 323.652 16.6729C323.147 15.5288 322.895 14.196 322.895 12.6747C322.895 11.1598 323.147 9.83345 323.652 8.69567C324.163 7.55149 324.876 6.663 325.79 6.03018C326.704 5.39098 327.769 5.07138 328.983 5.07138C329.878 5.07138 330.623 5.23118 331.217 5.55078C331.812 5.86399 332.288 6.25391 332.646 6.72053C333.004 7.18714 333.282 7.64098 333.48 8.08203H333.633V0.363636H335.35V20H333.681V17.2674H333.48C333.282 17.7148 333 18.1751 332.636 18.6481C332.272 19.1147 331.789 19.5078 331.188 19.8274C330.594 20.147 329.849 20.3068 328.954 20.3068ZM329.156 18.744C330.108 18.744 330.92 18.4851 331.591 17.9673C332.262 17.4432 332.774 16.7241 333.125 15.81C333.483 14.8896 333.662 13.8349 333.662 12.646C333.662 11.4698 333.486 10.4311 333.135 9.52983C332.783 8.62216 332.272 7.91264 331.601 7.40128C330.929 6.88352 330.114 6.62464 329.156 6.62464C328.171 6.62464 327.34 6.89311 326.663 7.43004C325.992 7.96058 325.48 8.67969 325.129 9.58736C324.784 10.495 324.611 11.5146 324.611 12.646C324.611 13.7901 324.787 14.8224 325.138 15.7429C325.49 16.6634 326.001 17.3952 326.672 17.9386C327.35 18.4755 328.178 18.744 329.156 18.744ZM345.935 20.3068C344.663 20.3068 343.538 19.984 342.56 19.3384C341.588 18.6928 340.828 17.8011 340.278 16.6634C339.728 15.5192 339.453 14.1992 339.453 12.7035C339.453 11.195 339.728 9.86861 340.278 8.72443C340.828 7.57386 341.588 6.67898 342.56 6.03977C343.538 5.39418 344.663 5.07138 345.935 5.07138C347.207 5.07138 348.329 5.39418 349.3 6.03977C350.272 6.68537 351.032 7.58026 351.582 8.72443C352.138 9.86861 352.416 11.195 352.416 12.7035C352.416 14.1992 352.141 15.5192 351.592 16.6634C351.042 17.8011 350.278 18.6928 349.3 19.3384C348.329 19.984 347.207 20.3068 345.935 20.3068ZM345.935 18.744C346.958 18.744 347.824 18.4691 348.533 17.9194C349.243 17.3697 349.78 16.6378 350.144 15.7237C350.515 14.8097 350.7 13.8029 350.7 12.7035C350.7 11.604 350.515 10.5941 350.144 9.67365C349.78 8.7532 349.243 8.01491 348.533 7.45881C347.824 6.9027 346.958 6.62464 345.935 6.62464C344.918 6.62464 344.052 6.9027 343.336 7.45881C342.627 8.01491 342.087 8.7532 341.716 9.67365C341.352 10.5941 341.17 11.604 341.17 12.7035C341.17 13.8029 341.352 14.8097 341.716 15.7237C342.087 16.6378 342.627 17.3697 343.336 17.9194C344.046 18.4691 344.912 18.744 345.935 18.744ZM369.711 20.3068C368.337 20.3068 367.148 19.9872 366.144 19.348C365.14 18.7024 364.364 17.8107 363.814 16.6729C363.271 15.5288 362.999 14.212 362.999 12.7227C362.999 11.2397 363.271 9.92294 363.814 8.77237C364.364 7.61541 365.121 6.71094 366.087 6.05895C367.058 5.40057 368.18 5.07138 369.452 5.07138C370.251 5.07138 371.021 5.21839 371.763 5.51243C372.504 5.80007 373.169 6.24432 373.757 6.84517C374.351 7.43963 374.821 8.1907 375.166 9.09837C375.512 9.99964 375.684 11.0671 375.684 12.3008V13.1445H364.178V11.6392H373.939C373.939 10.6932 373.747 9.84304 373.364 9.08878C372.987 8.32812 372.459 7.72727 371.782 7.28622C371.111 6.84517 370.334 6.62464 369.452 6.62464C368.519 6.62464 367.697 6.87393 366.988 7.37251C366.278 7.87109 365.722 8.52947 365.319 9.34766C364.923 10.1658 364.722 11.0607 364.715 12.0323V12.9336C364.715 14.1033 364.917 15.1261 365.319 16.0018C365.729 16.8711 366.307 17.5455 367.055 18.0249C367.803 18.5043 368.688 18.744 369.711 18.744C370.408 18.744 371.018 18.6353 371.542 18.418C372.073 18.2006 372.517 17.9098 372.875 17.5455C373.239 17.1747 373.514 16.7688 373.699 16.3278L375.32 16.8551C375.096 17.4751 374.729 18.0472 374.217 18.5714C373.712 19.0955 373.079 19.5174 372.319 19.837C371.564 20.1502 370.695 20.3068 369.711 20.3068ZM389.34 8.50391L387.777 8.94496C387.624 8.50391 387.406 8.1044 387.125 7.74645C386.844 7.38849 386.476 7.10405 386.023 6.89311C385.575 6.68217 385.019 6.5767 384.354 6.5767C383.357 6.5767 382.539 6.81321 381.9 7.28622C381.26 7.75923 380.941 8.36967 380.941 9.11754C380.941 9.75035 381.158 10.2649 381.593 10.6612C382.034 11.0511 382.711 11.3612 383.625 11.5913L385.85 12.1378C387.084 12.4382 388.007 12.9144 388.621 13.5664C389.241 14.2184 389.551 15.0366 389.551 16.021C389.551 16.8519 389.321 17.5902 388.861 18.2358C388.4 18.8814 387.758 19.3896 386.933 19.7603C386.115 20.1246 385.166 20.3068 384.086 20.3068C382.648 20.3068 381.462 19.984 380.529 19.3384C379.595 18.6864 378.998 17.7468 378.736 16.5195L380.375 16.1168C380.586 16.9925 380.998 17.6541 381.612 18.1016C382.232 18.549 383.047 18.7727 384.057 18.7727C385.188 18.7727 386.093 18.5202 386.77 18.0153C387.448 17.5039 387.787 16.8647 387.787 16.0977C387.787 15.5032 387.589 15.0046 387.192 14.6019C386.796 14.1928 386.195 13.8924 385.39 13.7006L382.983 13.1254C381.705 12.8185 380.759 12.3327 380.145 11.668C379.531 11.0032 379.225 10.1786 379.225 9.19425C379.225 8.38246 379.445 7.66974 379.886 7.05611C380.327 6.43608 380.934 5.95028 381.708 5.59872C382.481 5.24716 383.363 5.07138 384.354 5.07138C385.703 5.07138 386.78 5.3782 387.585 5.99183C388.397 6.59908 388.982 7.43643 389.34 8.50391ZM399.089 5.27273V6.75888H392.061V5.27273H399.089ZM394.256 1.74432H395.973V16.1552C395.973 16.7688 396.078 17.2514 396.289 17.603C396.5 17.9482 396.775 18.1942 397.114 18.3413C397.452 18.4819 397.813 18.5522 398.197 18.5522C398.421 18.5522 398.612 18.5394 398.772 18.5138C398.932 18.4819 399.073 18.4499 399.194 18.418L399.558 19.9616C399.392 20.0256 399.188 20.0831 398.945 20.1342C398.702 20.1918 398.402 20.2205 398.044 20.2205C397.417 20.2205 396.813 20.0831 396.231 19.8082C395.656 19.5334 395.183 19.1243 394.812 18.581C394.442 18.0376 394.256 17.3633 394.256 16.5579V1.74432ZM402.984 20V5.27273H404.7V20H402.984ZM403.856 2.74148C403.505 2.74148 403.204 2.62322 402.955 2.38672C402.706 2.14382 402.581 1.85298 402.581 1.5142C402.581 1.17543 402.706 0.887784 402.955 0.651279C403.204 0.40838 403.505 0.286931 403.856 0.286931C404.208 0.286931 404.508 0.40838 404.758 0.651279C405.007 0.887784 405.132 1.17543 405.132 1.5142C405.132 1.85298 405.007 2.14382 404.758 2.38672C404.508 2.62322 404.208 2.74148 403.856 2.74148ZM420.614 5.27273L415.235 20H413.413L408.034 5.27273H409.885L414.257 17.7468H414.391L418.763 5.27273H420.614ZM429.38 20.3068C428.005 20.3068 426.817 19.9872 425.813 19.348C424.809 18.7024 424.033 17.8107 423.483 16.6729C422.94 15.5288 422.668 14.212 422.668 12.7227C422.668 11.2397 422.94 9.92294 423.483 8.77237C424.033 7.61541 424.79 6.71094 425.755 6.05895C426.727 5.40057 427.849 5.07138 429.121 5.07138C429.92 5.07138 430.69 5.21839 431.432 5.51243C432.173 5.80007 432.838 6.24432 433.426 6.84517C434.02 7.43963 434.49 8.1907 434.835 9.09837C435.181 9.99964 435.353 11.0671 435.353 12.3008V13.1445H423.847V11.6392H433.608C433.608 10.6932 433.416 9.84304 433.033 9.08878C432.656 8.32812 432.128 7.72727 431.451 7.28622C430.78 6.84517 430.003 6.62464 429.121 6.62464C428.188 6.62464 427.366 6.87393 426.657 7.37251C425.947 7.87109 425.391 8.52947 424.988 9.34766C424.592 10.1658 424.391 11.0607 424.384 12.0323V12.9336C424.384 14.1033 424.586 15.1261 424.988 16.0018C425.398 16.8711 425.976 17.5455 426.724 18.0249C427.472 18.5043 428.357 18.744 429.38 18.744C430.076 18.744 430.687 18.6353 431.211 18.418C431.742 18.2006 432.186 17.9098 432.544 17.5455C432.908 17.1747 433.183 16.7688 433.368 16.3278L434.989 16.8551C434.765 17.4751 434.398 18.0472 433.886 18.5714C433.381 19.0955 432.748 19.5174 431.988 19.837C431.233 20.1502 430.364 20.3068 429.38 20.3068ZM439.114 20V5.27273H440.773V7.53551H440.897C441.191 6.79403 441.703 6.19638 442.432 5.74254C443.167 5.28231 443.998 5.0522 444.924 5.0522C445.065 5.0522 445.222 5.0554 445.394 5.06179C445.567 5.06818 445.711 5.07457 445.826 5.08097V6.81641C445.749 6.80362 445.615 6.78445 445.423 6.75888C445.231 6.73331 445.023 6.72053 444.8 6.72053C444.033 6.72053 443.349 6.88352 442.748 7.20952C442.153 7.52912 441.684 7.97337 441.338 8.54226C440.993 9.11115 440.821 9.75994 440.821 10.4886V20H439.114ZM7.11404 38.2727V39.7589H0.0859819V38.2727H7.11404ZM2.28165 34.7443H3.99791V49.1552C3.99791 49.7688 4.10338 50.2514 4.31432 50.603C4.52526 50.9482 4.80012 51.1942 5.13889 51.3413C5.47767 51.4819 5.83882 51.5522 6.22235 51.5522C6.44607 51.5522 6.63783 51.5394 6.79763 51.5138C6.95743 51.4819 7.09806 51.4499 7.2195 51.418L7.58385 52.9616C7.41766 53.0256 7.21311 53.0831 6.97021 53.1342C6.72732 53.1918 6.42689 53.2205 6.06894 53.2205C5.44252 53.2205 4.83847 53.0831 4.25679 52.8082C3.68151 52.5334 3.2085 52.1243 2.83776 51.581C2.46702 51.0376 2.28165 50.3633 2.28165 49.5579V34.7443ZM20.348 47.3718V38.2727H22.0546V53H20.348V50.555H20.2137C19.8686 51.3093 19.322 51.9389 18.5742 52.4439C17.8263 52.9425 16.9122 53.1918 15.832 53.1918C14.8924 53.1918 14.0582 52.9872 13.3295 52.5781C12.6008 52.1626 12.0287 51.5554 11.6132 50.7564C11.1978 49.9574 10.99 48.9762 10.99 47.8129V38.2727H12.6967V47.7074C12.6967 48.858 13.0355 49.7848 13.713 50.4879C14.3906 51.1847 15.2599 51.533 16.321 51.533C16.9858 51.533 17.625 51.3732 18.2386 51.0536C18.8522 50.734 19.3572 50.2674 19.7535 49.6538C20.1498 49.0337 20.348 48.2731 20.348 47.3718ZM31.8752 53.3068C30.6671 53.3068 29.6092 52.9872 28.7016 52.348C27.7939 51.7088 27.0844 50.8171 26.573 49.6729C26.068 48.5288 25.8156 47.196 25.8156 45.6747C25.8156 44.1598 26.068 42.8335 26.573 41.6957C27.0844 40.5515 27.7971 39.663 28.7112 39.0302C29.6252 38.391 30.6895 38.0714 31.904 38.0714C32.7989 38.0714 33.5435 38.2312 34.138 38.5508C34.7325 38.864 35.2087 39.2539 35.5666 39.7205C35.9246 40.1871 36.2026 40.641 36.4008 41.082H36.5542V33.3636H38.2705V53H36.6021V50.2674H36.4008C36.2026 50.7148 35.9214 51.1751 35.557 51.6481C35.1927 52.1147 34.7101 52.5078 34.1092 52.8274C33.5148 53.147 32.7701 53.3068 31.8752 53.3068ZM32.0766 51.744C33.029 51.744 33.8408 51.4851 34.5119 50.9673C35.1831 50.4432 35.6945 49.7241 36.046 48.81C36.404 47.8896 36.583 46.8349 36.583 45.646C36.583 44.4698 36.4072 43.4311 36.0556 42.5298C35.7041 41.6222 35.1927 40.9126 34.5215 40.4013C33.8504 39.8835 33.0354 39.6246 32.0766 39.6246C31.0922 39.6246 30.2612 39.8931 29.5837 40.43C28.9125 40.9606 28.4011 41.6797 28.0496 42.5874C27.7044 43.495 27.5318 44.5146 27.5318 45.646C27.5318 46.7901 27.7076 47.8224 28.0592 48.7429C28.4107 49.6634 28.9221 50.3952 29.5933 50.9386C30.2708 51.4755 31.0986 51.744 32.0766 51.744ZM48.8557 53.3068C47.5837 53.3068 46.4587 52.984 45.4807 52.3384C44.5091 51.6928 43.7484 50.8011 43.1987 49.6634C42.649 48.5192 42.3742 47.1992 42.3742 45.7035C42.3742 44.195 42.649 42.8686 43.1987 41.7244C43.7484 40.5739 44.5091 39.679 45.4807 39.0398C46.4587 38.3942 47.5837 38.0714 48.8557 38.0714C50.1277 38.0714 51.2495 38.3942 52.2211 39.0398C53.1927 39.6854 53.9533 40.5803 54.5031 41.7244C55.0592 42.8686 55.3372 44.195 55.3372 45.7035C55.3372 47.1992 55.0624 48.5192 54.5127 49.6634C53.9629 50.8011 53.1991 51.6928 52.2211 52.3384C51.2495 52.984 50.1277 53.3068 48.8557 53.3068ZM48.8557 51.744C49.8784 51.744 50.7445 51.4691 51.4541 50.9194C52.1636 50.3697 52.7005 49.6378 53.0649 48.7237C53.4356 47.8097 53.621 46.8029 53.621 45.7035C53.621 44.604 53.4356 43.5941 53.0649 42.6737C52.7005 41.7532 52.1636 41.0149 51.4541 40.4588C50.7445 39.9027 49.8784 39.6246 48.8557 39.6246C47.8394 39.6246 46.9732 39.9027 46.2573 40.4588C45.5478 41.0149 45.0077 41.7532 44.6369 42.6737C44.2726 43.5941 44.0904 44.604 44.0904 45.7035C44.0904 46.8029 44.2726 47.8097 44.6369 48.7237C45.0077 49.6378 45.5478 50.3697 46.2573 50.9194C46.9668 51.4691 47.833 51.744 48.8557 51.744ZM66.6775 58.5227V38.2727H68.3362V41.082H68.5376C68.7421 40.641 69.0234 40.1903 69.3813 39.7301C69.7393 39.2635 70.2123 38.8704 70.8004 38.5508C71.3948 38.2312 72.1427 38.0714 73.044 38.0714C74.2585 38.0714 75.3196 38.391 76.2272 39.0302C77.1413 39.663 77.8508 40.5515 78.3558 41.6957C78.8671 42.8335 79.1228 44.1598 79.1228 45.6747C79.1228 47.196 78.8671 48.5288 78.3558 49.6729C77.8508 50.8171 77.1413 51.7088 76.2272 52.348C75.3196 52.9872 74.2649 53.3068 73.0632 53.3068C72.1747 53.3068 71.43 53.147 70.8291 52.8274C70.2347 52.5078 69.7521 52.1147 69.3813 51.6481C69.017 51.1751 68.7358 50.7148 68.5376 50.2674H68.3842V58.5227H66.6775ZM68.365 45.646C68.365 46.8349 68.5408 47.8896 68.8924 48.81C69.2503 49.7241 69.7617 50.4432 70.4264 50.9673C71.0976 51.4851 71.9094 51.744 72.8618 51.744C73.8398 51.744 74.6644 51.4755 75.3355 50.9386C76.0131 50.3952 76.5277 49.6634 76.8792 48.7429C77.2372 47.8224 77.4161 46.7901 77.4161 45.646C77.4161 44.5146 77.2404 43.495 76.8888 42.5874C76.5436 41.6797 76.0323 40.9606 75.3547 40.43C74.6772 39.8931 73.8462 39.6246 72.8618 39.6246C71.903 39.6246 71.088 39.8835 70.4169 40.4013C69.7457 40.9126 69.2343 41.6222 68.8828 42.5298C68.5376 43.4311 68.365 44.4698 68.365 45.646ZM82.867 53V38.2727H84.5257V40.5355H84.6503C84.9444 39.794 85.4557 39.1964 86.1844 38.7425C86.9195 38.2823 87.7505 38.0522 88.6773 38.0522C88.818 38.0522 88.9746 38.0554 89.1472 38.0618C89.3197 38.0682 89.4636 38.0746 89.5786 38.081V39.8164C89.5019 39.8036 89.3677 39.7844 89.1759 39.7589C88.9842 39.7333 88.7764 39.7205 88.5527 39.7205C87.7856 39.7205 87.1017 39.8835 86.5008 40.2095C85.9064 40.5291 85.4366 40.9734 85.0914 41.5423C84.7462 42.1112 84.5736 42.7599 84.5736 43.4886V53H82.867ZM97.7668 53.3068C96.4948 53.3068 95.3698 52.984 94.3918 52.3384C93.4202 51.6928 92.6596 50.8011 92.1099 49.6634C91.5601 48.5192 91.2853 47.1992 91.2853 45.7035C91.2853 44.195 91.5601 42.8686 92.1099 41.7244C92.6596 40.5739 93.4202 39.679 94.3918 39.0398C95.3698 38.3942 96.4948 38.0714 97.7668 38.0714C99.0388 38.0714 100.161 38.3942 101.132 39.0398C102.104 39.6854 102.864 40.5803 103.414 41.7244C103.97 42.8686 104.248 44.195 104.248 45.7035C104.248 47.1992 103.974 48.5192 103.424 49.6634C102.874 50.8011 102.11 51.6928 101.132 52.3384C100.161 52.984 99.0388 53.3068 97.7668 53.3068ZM97.7668 51.744C98.7896 51.744 99.6557 51.4691 100.365 50.9194C101.075 50.3697 101.612 49.6378 101.976 48.7237C102.347 47.8097 102.532 46.8029 102.532 45.7035C102.532 44.604 102.347 43.5941 101.976 42.6737C101.612 41.7532 101.075 41.0149 100.365 40.4588C99.6557 39.9027 98.7896 39.6246 97.7668 39.6246C96.7505 39.6246 95.8844 39.9027 95.1685 40.4588C94.4589 41.0149 93.9188 41.7532 93.5481 42.6737C93.1837 43.5941 93.0016 44.604 93.0016 45.7035C93.0016 46.8029 93.1837 47.8097 93.5481 48.7237C93.9188 49.6378 94.4589 50.3697 95.1685 50.9194C95.878 51.4691 96.7441 51.744 97.7668 51.744ZM109.702 43.7955V53H107.995V38.2727H109.654V40.5835H109.807C110.152 39.8292 110.689 39.2251 111.418 38.7713C112.153 38.3111 113.061 38.081 114.141 38.081C115.132 38.081 116.001 38.2887 116.749 38.7042C117.503 39.1133 118.088 39.7173 118.503 40.5163C118.925 41.3153 119.136 42.2965 119.136 43.4599V53H117.43V43.5653C117.43 42.3572 117.091 41.4016 116.413 40.6985C115.742 39.9954 114.841 39.6438 113.709 39.6438C112.936 39.6438 112.249 39.81 111.648 40.1424C111.047 40.4748 110.571 40.9542 110.219 41.5806C109.874 42.2006 109.702 42.9389 109.702 43.7955ZM129.431 38.2727V39.7589H122.403V38.2727H129.431ZM124.599 34.7443H126.315V49.1552C126.315 49.7688 126.421 50.2514 126.632 50.603C126.843 50.9482 127.117 51.1942 127.456 51.3413C127.795 51.4819 128.156 51.5522 128.54 51.5522C128.763 51.5522 128.955 51.5394 129.115 51.5138C129.275 51.4819 129.415 51.4499 129.537 51.418L129.901 52.9616C129.735 53.0256 129.53 53.0831 129.288 53.1342C129.045 53.1918 128.744 53.2205 128.386 53.2205C127.76 53.2205 127.156 53.0831 126.574 52.8082C125.999 52.5334 125.526 52.1243 125.155 51.581C124.784 51.0376 124.599 50.3633 124.599 49.5579V34.7443ZM138.873 53.3068C137.601 53.3068 136.476 52.984 135.498 52.3384C134.527 51.6928 133.766 50.8011 133.216 49.6634C132.667 48.5192 132.392 47.1992 132.392 45.7035C132.392 44.195 132.667 42.8686 133.216 41.7244C133.766 40.5739 134.527 39.679 135.498 39.0398C136.476 38.3942 137.601 38.0714 138.873 38.0714C140.145 38.0714 141.267 38.3942 142.239 39.0398C143.21 39.6854 143.971 40.5803 144.521 41.7244C145.077 42.8686 145.355 44.195 145.355 45.7035C145.355 47.1992 145.08 48.5192 144.53 49.6634C143.981 50.8011 143.217 51.6928 142.239 52.3384C141.267 52.984 140.145 53.3068 138.873 53.3068ZM138.873 51.744C139.896 51.744 140.762 51.4691 141.472 50.9194C142.181 50.3697 142.718 49.6378 143.082 48.7237C143.453 47.8097 143.639 46.8029 143.639 45.7035C143.639 44.604 143.453 43.5941 143.082 42.6737C142.718 41.7532 142.181 41.0149 141.472 40.4588C140.762 39.9027 139.896 39.6246 138.873 39.6246C137.857 39.6246 136.991 39.9027 136.275 40.4588C135.565 41.0149 135.025 41.7532 134.655 42.6737C134.29 43.5941 134.108 44.604 134.108 45.7035C134.108 46.8029 134.29 47.8097 134.655 48.7237C135.025 49.6378 135.565 50.3697 136.275 50.9194C136.984 51.4691 137.851 51.744 138.873 51.744ZM162.448 53.3068C161.131 53.3068 159.984 52.9776 159.006 52.3192C158.034 51.6609 157.28 50.7596 156.743 49.6154C156.206 48.4712 155.938 47.1673 155.938 45.7035C155.938 44.2269 156.209 42.9134 156.753 41.7628C157.302 40.6122 158.063 39.7109 159.035 39.0589C160.006 38.4006 161.134 38.0714 162.419 38.0714C163.404 38.0714 164.295 38.2631 165.094 38.6467C165.893 39.0238 166.552 39.5575 167.069 40.2479C167.594 40.9318 167.923 41.7308 168.057 42.6449H166.331C166.152 41.8139 165.721 41.1044 165.037 40.5163C164.359 39.9219 163.496 39.6246 162.448 39.6246C161.508 39.6246 160.677 39.8803 159.955 40.3917C159.233 40.8967 158.667 41.603 158.258 42.5107C157.855 43.4119 157.654 44.457 157.654 45.646C157.654 46.8413 157.852 47.8991 158.248 48.8196C158.645 49.7337 159.201 50.4496 159.917 50.9673C160.639 51.4851 161.483 51.744 162.448 51.744C163.1 51.744 163.694 51.6225 164.231 51.3796C164.775 51.1303 165.228 50.7788 165.593 50.3249C165.964 49.8711 166.213 49.331 166.341 48.7045H168.067C167.939 49.593 167.622 50.3857 167.117 51.0824C166.619 51.7727 165.97 52.3161 165.171 52.7124C164.378 53.1087 163.471 53.3068 162.448 53.3068ZM173.431 33.3636V53H171.724V33.3636H173.431ZM177.966 53V38.2727H179.682V53H177.966ZM178.839 35.7415C178.487 35.7415 178.187 35.6232 177.937 35.3867C177.688 35.1438 177.564 34.853 177.564 34.5142C177.564 34.1754 177.688 33.8878 177.937 33.6513C178.187 33.4084 178.487 33.2869 178.839 33.2869C179.19 33.2869 179.491 33.4084 179.74 33.6513C179.989 33.8878 180.114 34.1754 180.114 34.5142C180.114 34.853 179.989 35.1438 179.74 35.3867C179.491 35.6232 179.19 35.7415 178.839 35.7415ZM194.177 58.5227V50.2674H194.024C193.826 50.7148 193.544 51.1751 193.18 51.6481C192.816 52.1147 192.333 52.5078 191.732 52.8274C191.131 53.147 190.387 53.3068 189.498 53.3068C188.297 53.3068 187.239 52.9872 186.325 52.348C185.417 51.7088 184.707 50.8171 184.196 49.6729C183.691 48.5288 183.439 47.196 183.439 45.6747C183.439 44.1598 183.691 42.8335 184.196 41.6957C184.707 40.5515 185.42 39.663 186.334 39.0302C187.248 38.391 188.313 38.0714 189.527 38.0714C190.428 38.0714 191.173 38.2312 191.761 38.5508C192.356 38.8704 192.832 39.2635 193.19 39.7301C193.548 40.1903 193.826 40.641 194.024 41.082H194.225V38.2727H195.894V58.5227H194.177ZM189.7 51.744C190.652 51.744 191.464 51.4851 192.135 50.9673C192.806 50.4432 193.318 49.7241 193.669 48.81C194.027 47.8896 194.206 46.8349 194.206 45.646C194.206 44.4698 194.03 43.4311 193.679 42.5298C193.327 41.6222 192.816 40.9126 192.145 40.4013C191.48 39.8835 190.665 39.6246 189.7 39.6246C188.715 39.6246 187.884 39.8931 187.207 40.43C186.529 40.9606 186.018 41.6797 185.673 42.5874C185.327 43.495 185.155 44.5146 185.155 45.646C185.155 46.7901 185.331 47.8224 185.682 48.7429C186.034 49.6634 186.548 50.3952 187.226 50.9386C187.903 51.4755 188.728 51.744 189.7 51.744ZM209.743 47.3718V38.2727H211.45V53H209.743V50.555H209.609C209.264 51.3093 208.718 51.9389 207.97 52.4439C207.222 52.9425 206.308 53.1918 205.227 53.1918C204.288 53.1918 203.454 52.9872 202.725 52.5781C201.996 52.1626 201.424 51.5554 201.009 50.7564C200.593 49.9574 200.386 48.9762 200.386 47.8129V38.2727H202.092V47.7074C202.092 48.858 202.431 49.7848 203.109 50.4879C203.786 51.1847 204.655 51.533 205.716 51.533C206.381 51.533 207.02 51.3732 207.634 51.0536C208.248 50.734 208.753 50.2674 209.149 49.6538C209.545 49.0337 209.743 48.2731 209.743 47.3718ZM221.923 53.3068C220.548 53.3068 219.36 52.9872 218.356 52.348C217.352 51.7024 216.576 50.8107 216.026 49.6729C215.483 48.5288 215.211 47.212 215.211 45.7227C215.211 44.2397 215.483 42.9229 216.026 41.7724C216.576 40.6154 217.333 39.7109 218.298 39.0589C219.27 38.4006 220.392 38.0714 221.664 38.0714C222.463 38.0714 223.233 38.2184 223.975 38.5124C224.716 38.8001 225.381 39.2443 225.969 39.8452C226.563 40.4396 227.033 41.1907 227.378 42.0984C227.723 42.9996 227.896 44.0671 227.896 45.3008V46.1445H216.39V44.6392H226.151C226.151 43.6932 225.959 42.843 225.576 42.0888C225.199 41.3281 224.671 40.7273 223.994 40.2862C223.323 39.8452 222.546 39.6246 221.664 39.6246C220.731 39.6246 219.909 39.8739 219.2 40.3725C218.49 40.8711 217.934 41.5295 217.531 42.3477C217.135 43.1658 216.934 44.0607 216.927 45.0323V45.9336C216.927 47.1033 217.129 48.1261 217.531 49.0018C217.94 49.8711 218.519 50.5455 219.267 51.0249C220.015 51.5043 220.9 51.744 221.923 51.744C222.619 51.744 223.23 51.6353 223.754 51.418C224.285 51.2006 224.729 50.9098 225.087 50.5455C225.451 50.1747 225.726 49.7688 225.911 49.3278L227.532 49.8551C227.308 50.4751 226.94 51.0472 226.429 51.5714C225.924 52.0955 225.291 52.5174 224.531 52.837C223.776 53.1502 222.907 53.3068 221.923 53.3068ZM240.957 43.7955V53H239.251V38.2727H240.909V40.5835H241.063C241.408 39.8292 241.945 39.2251 242.674 38.7713C243.409 38.3111 244.316 38.081 245.397 38.081C246.387 38.081 247.257 38.2887 248.005 38.7042C248.759 39.1133 249.344 39.7173 249.759 40.5163C250.181 41.3153 250.392 42.2965 250.392 43.4599V53H248.685V43.5653C248.685 42.3572 248.347 41.4016 247.669 40.6985C246.998 39.9954 246.097 39.6438 244.965 39.6438C244.192 39.6438 243.505 39.81 242.904 40.1424C242.303 40.4748 241.827 40.9542 241.475 41.5806C241.13 42.2006 240.957 42.9389 240.957 43.7955ZM259 53.3356C258.111 53.3356 257.299 53.163 256.564 52.8178C255.829 52.4663 255.244 51.9613 254.81 51.3029C254.375 50.6381 254.158 49.8327 254.158 48.8867C254.158 48.158 254.295 47.5444 254.57 47.0458C254.845 46.5472 255.235 46.1381 255.74 45.8185C256.245 45.4989 256.842 45.2464 257.533 45.0611C258.223 44.8757 258.984 44.7319 259.815 44.6296C260.639 44.5273 261.336 44.4379 261.905 44.3612C262.48 44.2844 262.918 44.163 263.219 43.9968C263.519 43.8306 263.669 43.5621 263.669 43.1914V42.8462C263.669 41.8427 263.369 41.0533 262.768 40.478C262.173 39.8963 261.317 39.6055 260.198 39.6055C259.137 39.6055 258.271 39.8388 257.6 40.3054C256.935 40.772 256.469 41.3217 256.2 41.9545L254.58 41.3697C254.912 40.5643 255.372 39.9219 255.96 39.4425C256.548 38.9567 257.207 38.6083 257.936 38.3974C258.664 38.18 259.402 38.0714 260.15 38.0714C260.713 38.0714 261.298 38.1449 261.905 38.2919C262.519 38.4389 263.087 38.6946 263.612 39.0589C264.136 39.4169 264.561 39.9187 264.887 40.5643C265.213 41.2035 265.376 42.0153 265.376 42.9996V53H263.669V50.6701H263.564C263.359 51.1048 263.056 51.5266 262.653 51.9357C262.25 52.3448 261.745 52.6804 261.138 52.9425C260.531 53.2045 259.818 53.3356 259 53.3356ZM259.23 51.7727C260.138 51.7727 260.924 51.5714 261.589 51.1687C262.253 50.766 262.765 50.2322 263.123 49.5675C263.487 48.8963 263.669 48.158 263.669 47.3526V45.2241C263.541 45.3455 263.327 45.4542 263.027 45.5501C262.733 45.646 262.391 45.7322 262.001 45.8089C261.617 45.8793 261.234 45.94 260.85 45.9911C260.467 46.0423 260.122 46.087 259.815 46.1254C258.984 46.2276 258.274 46.3874 257.686 46.6048C257.098 46.8221 256.648 47.1225 256.334 47.506C256.021 47.8832 255.864 48.369 255.864 48.9634C255.864 49.8583 256.184 50.5518 256.823 51.044C257.462 51.5298 258.265 51.7727 259.23 51.7727ZM287.404 41.5039L285.842 41.945C285.688 41.5039 285.471 41.1044 285.19 40.7464C284.908 40.3885 284.541 40.104 284.087 39.8931C283.64 39.6822 283.083 39.5767 282.419 39.5767C281.421 39.5767 280.603 39.8132 279.964 40.2862C279.325 40.7592 279.005 41.3697 279.005 42.1175C279.005 42.7504 279.223 43.2649 279.657 43.6612C280.098 44.0511 280.776 44.3612 281.69 44.5913L283.914 45.1378C285.148 45.4382 286.072 45.9144 286.685 46.5664C287.305 47.2184 287.615 48.0366 287.615 49.021C287.615 49.8519 287.385 50.5902 286.925 51.2358C286.465 51.8814 285.822 52.3896 284.998 52.7603C284.18 53.1246 283.23 53.3068 282.15 53.3068C280.712 53.3068 279.526 52.984 278.593 52.3384C277.66 51.6864 277.062 50.7468 276.8 49.5195L278.44 49.1168C278.651 49.9925 279.063 50.6541 279.676 51.1016C280.296 51.549 281.111 51.7727 282.121 51.7727C283.253 51.7727 284.157 51.5202 284.835 51.0153C285.512 50.5039 285.851 49.8647 285.851 49.0977C285.851 48.5032 285.653 48.0046 285.257 47.6019C284.86 47.1928 284.26 46.8924 283.454 46.7006L281.048 46.1254C279.769 45.8185 278.823 45.3327 278.209 44.668C277.596 44.0032 277.289 43.1786 277.289 42.1942C277.289 41.3825 277.51 40.6697 277.951 40.0561C278.392 39.4361 278.999 38.9503 279.772 38.5987C280.546 38.2472 281.428 38.0714 282.419 38.0714C283.767 38.0714 284.844 38.3782 285.65 38.9918C286.462 39.5991 287.046 40.4364 287.404 41.5039ZM297.307 53.3068C295.932 53.3068 294.743 52.9872 293.74 52.348C292.736 51.7024 291.96 50.8107 291.41 49.6729C290.867 48.5288 290.595 47.212 290.595 45.7227C290.595 44.2397 290.867 42.9229 291.41 41.7724C291.96 40.6154 292.717 39.7109 293.682 39.0589C294.654 38.4006 295.776 38.0714 297.048 38.0714C297.847 38.0714 298.617 38.2184 299.358 38.5124C300.1 38.8001 300.765 39.2443 301.353 39.8452C301.947 40.4396 302.417 41.1907 302.762 42.0984C303.107 42.9996 303.28 44.0671 303.28 45.3008V46.1445H291.774V44.6392H301.535C301.535 43.6932 301.343 42.843 300.96 42.0888C300.582 41.3281 300.055 40.7273 299.378 40.2862C298.706 39.8452 297.93 39.6246 297.048 39.6246C296.114 39.6246 295.293 39.8739 294.583 40.3725C293.874 40.8711 293.318 41.5295 292.915 42.3477C292.519 43.1658 292.318 44.0607 292.311 45.0323V45.9336C292.311 47.1033 292.512 48.1261 292.915 49.0018C293.324 49.8711 293.903 50.5455 294.651 51.0249C295.398 51.5043 296.284 51.744 297.307 51.744C298.003 51.744 298.614 51.6353 299.138 51.418C299.668 51.2006 300.113 50.9098 300.471 50.5455C300.835 50.1747 301.11 49.7688 301.295 49.3278L302.916 49.8551C302.692 50.4751 302.324 51.0472 301.813 51.5714C301.308 52.0955 300.675 52.5174 299.914 52.837C299.16 53.1502 298.291 53.3068 297.307 53.3068ZM312.842 38.2727V39.7589H305.814V38.2727H312.842ZM308.009 34.7443H309.725V49.1552C309.725 49.7688 309.831 50.2514 310.042 50.603C310.253 50.9482 310.528 51.1942 310.866 51.3413C311.205 51.4819 311.566 51.5522 311.95 51.5522C312.174 51.5522 312.365 51.5394 312.525 51.5138C312.685 51.4819 312.826 51.4499 312.947 51.418L313.311 52.9616C313.145 53.0256 312.941 53.0831 312.698 53.1342C312.455 53.1918 312.154 53.2205 311.796 53.2205C311.17 53.2205 310.566 53.0831 309.984 52.8082C309.409 52.5334 308.936 52.1243 308.565 51.581C308.195 51.0376 308.009 50.3633 308.009 49.5579V34.7443ZM320.831 53.3356C319.942 53.3356 319.131 53.163 318.395 52.8178C317.66 52.4663 317.076 51.9613 316.641 51.3029C316.206 50.6381 315.989 49.8327 315.989 48.8867C315.989 48.158 316.126 47.5444 316.401 47.0458C316.676 46.5472 317.066 46.1381 317.571 45.8185C318.076 45.4989 318.674 45.2464 319.364 45.0611C320.054 44.8757 320.815 44.7319 321.646 44.6296C322.47 44.5273 323.167 44.4379 323.736 44.3612C324.311 44.2844 324.749 44.163 325.05 43.9968C325.35 43.8306 325.5 43.5621 325.5 43.1914V42.8462C325.5 41.8427 325.2 41.0533 324.599 40.478C324.004 39.8963 323.148 39.6055 322.029 39.6055C320.968 39.6055 320.102 39.8388 319.431 40.3054C318.766 40.772 318.3 41.3217 318.031 41.9545L316.411 41.3697C316.743 40.5643 317.203 39.9219 317.791 39.4425C318.379 38.9567 319.038 38.6083 319.767 38.3974C320.495 38.18 321.234 38.0714 321.981 38.0714C322.544 38.0714 323.129 38.1449 323.736 38.2919C324.35 38.4389 324.919 38.6946 325.443 39.0589C325.967 39.4169 326.392 39.9187 326.718 40.5643C327.044 41.2035 327.207 42.0153 327.207 42.9996V53H325.5V50.6701H325.395C325.19 51.1048 324.887 51.5266 324.484 51.9357C324.081 52.3448 323.576 52.6804 322.969 52.9425C322.362 53.2045 321.649 53.3356 320.831 53.3356ZM321.061 51.7727C321.969 51.7727 322.755 51.5714 323.42 51.1687C324.084 50.766 324.596 50.2322 324.954 49.5675C325.318 48.8963 325.5 48.158 325.5 47.3526V45.2241C325.372 45.3455 325.158 45.4542 324.858 45.5501C324.564 45.646 324.222 45.7322 323.832 45.8089C323.448 45.8793 323.065 45.94 322.681 45.9911C322.298 46.0423 321.953 46.087 321.646 46.1254C320.815 46.2276 320.105 46.3874 319.517 46.6048C318.929 46.8221 318.479 47.1225 318.165 47.506C317.852 47.8832 317.696 48.369 317.696 48.9634C317.696 49.8583 318.015 50.5518 318.654 51.044C319.294 51.5298 320.096 51.7727 321.061 51.7727ZM339.341 58.5227V38.2727H340.999V41.082H341.201C341.405 40.641 341.686 40.1903 342.044 39.7301C342.402 39.2635 342.875 38.8704 343.463 38.5508C344.058 38.2312 344.806 38.0714 345.707 38.0714C346.922 38.0714 347.983 38.391 348.89 39.0302C349.804 39.663 350.514 40.5515 351.019 41.6957C351.53 42.8335 351.786 44.1598 351.786 45.6747C351.786 47.196 351.53 48.5288 351.019 49.6729C350.514 50.8171 349.804 51.7088 348.89 52.348C347.983 52.9872 346.928 53.3068 345.726 53.3068C344.838 53.3068 344.093 53.147 343.492 52.8274C342.898 52.5078 342.415 52.1147 342.044 51.6481C341.68 51.1751 341.399 50.7148 341.201 50.2674H341.047V58.5227H339.341ZM341.028 45.646C341.028 46.8349 341.204 47.8896 341.555 48.81C341.913 49.7241 342.425 50.4432 343.09 50.9673C343.761 51.4851 344.572 51.744 345.525 51.744C346.503 51.744 347.327 51.4755 347.999 50.9386C348.676 50.3952 349.191 49.6634 349.542 48.7429C349.9 47.8224 350.079 46.7901 350.079 45.646C350.079 44.5146 349.903 43.495 349.552 42.5874C349.207 41.6797 348.695 40.9606 348.018 40.43C347.34 39.8931 346.509 39.6246 345.525 39.6246C344.566 39.6246 343.751 39.8835 343.08 40.4013C342.409 40.9126 341.897 41.6222 341.546 42.5298C341.201 43.4311 341.028 44.4698 341.028 45.646ZM359.643 53.3356C358.755 53.3356 357.943 53.163 357.208 52.8178C356.473 52.4663 355.888 51.9613 355.453 51.3029C355.019 50.6381 354.801 49.8327 354.801 48.8867C354.801 48.158 354.939 47.5444 355.214 47.0458C355.489 46.5472 355.878 46.1381 356.383 45.8185C356.888 45.4989 357.486 45.2464 358.176 45.0611C358.867 44.8757 359.627 44.7319 360.458 44.6296C361.283 44.5273 361.98 44.4379 362.549 44.3612C363.124 44.2844 363.562 44.163 363.862 43.9968C364.163 43.8306 364.313 43.5621 364.313 43.1914V42.8462C364.313 41.8427 364.012 41.0533 363.411 40.478C362.817 39.8963 361.96 39.6055 360.842 39.6055C359.781 39.6055 358.915 39.8388 358.243 40.3054C357.579 40.772 357.112 41.3217 356.844 41.9545L355.223 41.3697C355.556 40.5643 356.016 39.9219 356.604 39.4425C357.192 38.9567 357.85 38.6083 358.579 38.3974C359.308 38.18 360.046 38.0714 360.794 38.0714C361.356 38.0714 361.941 38.1449 362.549 38.2919C363.162 38.4389 363.731 38.6946 364.255 39.0589C364.779 39.4169 365.204 39.9187 365.53 40.5643C365.856 41.2035 366.019 42.0153 366.019 42.9996V53H364.313V50.6701H364.207C364.003 51.1048 363.699 51.5266 363.296 51.9357C362.894 52.3448 362.389 52.6804 361.781 52.9425C361.174 53.2045 360.462 53.3356 359.643 53.3356ZM359.873 51.7727C360.781 51.7727 361.567 51.5714 362.232 51.1687C362.897 50.766 363.408 50.2322 363.766 49.5675C364.131 48.8963 364.313 48.158 364.313 47.3526V45.2241C364.185 45.3455 363.971 45.4542 363.67 45.5501C363.376 45.646 363.034 45.7322 362.644 45.8089C362.261 45.8793 361.877 45.94 361.494 45.9911C361.11 46.0423 360.765 46.087 360.458 46.1254C359.627 46.2276 358.918 46.3874 358.33 46.6048C357.742 46.8221 357.291 47.1225 356.978 47.506C356.665 47.8832 356.508 48.369 356.508 48.9634C356.508 49.8583 356.828 50.5518 357.467 51.044C358.106 51.5298 358.908 51.7727 359.873 51.7727ZM370.559 53V38.2727H372.218V40.5355H372.343C372.637 39.794 373.148 39.1964 373.877 38.7425C374.612 38.2823 375.443 38.0522 376.37 38.0522C376.51 38.0522 376.667 38.0554 376.84 38.0618C377.012 38.0682 377.156 38.0746 377.271 38.081V39.8164C377.194 39.8036 377.06 39.7844 376.868 39.7589C376.677 39.7333 376.469 39.7205 376.245 39.7205C375.478 39.7205 374.794 39.8835 374.193 40.2095C373.599 40.5291 373.129 40.9734 372.784 41.5423C372.439 42.1112 372.266 42.7599 372.266 43.4886V53H370.559ZM384.297 53.3356C383.408 53.3356 382.596 53.163 381.861 52.8178C381.126 52.4663 380.541 51.9613 380.107 51.3029C379.672 50.6381 379.455 49.8327 379.455 48.8867C379.455 48.158 379.592 47.5444 379.867 47.0458C380.142 46.5472 380.532 46.1381 381.037 45.8185C381.542 45.4989 382.139 45.2464 382.83 45.0611C383.52 44.8757 384.281 44.7319 385.112 44.6296C385.936 44.5273 386.633 44.4379 387.202 44.3612C387.777 44.2844 388.215 44.163 388.515 43.9968C388.816 43.8306 388.966 43.5621 388.966 43.1914V42.8462C388.966 41.8427 388.666 41.0533 388.065 40.478C387.47 39.8963 386.614 39.6055 385.495 39.6055C384.434 39.6055 383.568 39.8388 382.897 40.3054C382.232 40.772 381.765 41.3217 381.497 41.9545L379.877 41.3697C380.209 40.5643 380.669 39.9219 381.257 39.4425C381.845 38.9567 382.504 38.6083 383.232 38.3974C383.961 38.18 384.699 38.0714 385.447 38.0714C386.01 38.0714 386.595 38.1449 387.202 38.2919C387.815 38.4389 388.384 38.6946 388.909 39.0589C389.433 39.4169 389.858 39.9187 390.184 40.5643C390.51 41.2035 390.673 42.0153 390.673 42.9996V53H388.966V50.6701H388.861C388.656 51.1048 388.352 51.5266 387.95 51.9357C387.547 52.3448 387.042 52.6804 386.435 52.9425C385.828 53.2045 385.115 53.3356 384.297 53.3356ZM384.527 51.7727C385.434 51.7727 386.221 51.5714 386.885 51.1687C387.55 50.766 388.062 50.2322 388.42 49.5675C388.784 48.8963 388.966 48.158 388.966 47.3526V45.2241C388.838 45.3455 388.624 45.4542 388.324 45.5501C388.03 45.646 387.688 45.7322 387.298 45.8089C386.914 45.8793 386.531 45.94 386.147 45.9911C385.764 46.0423 385.418 46.087 385.112 46.1254C384.281 46.2276 383.571 46.3874 382.983 46.6048C382.395 46.8221 381.944 47.1225 381.631 47.506C381.318 47.8832 381.161 48.369 381.161 48.9634C381.161 49.8583 381.481 50.5518 382.12 51.044C382.759 51.5298 383.562 51.7727 384.527 51.7727ZM408.109 53.3068C406.901 53.3068 405.843 52.9872 404.935 52.348C404.027 51.7088 403.318 50.8171 402.806 49.6729C402.301 48.5288 402.049 47.196 402.049 45.6747C402.049 44.1598 402.301 42.8335 402.806 41.6957C403.318 40.5515 404.03 39.663 404.945 39.0302C405.859 38.391 406.923 38.0714 408.137 38.0714C409.032 38.0714 409.777 38.2312 410.371 38.5508C410.966 38.864 411.442 39.2539 411.8 39.7205C412.158 40.1871 412.436 40.641 412.634 41.082H412.788V33.3636H414.504V53H412.836V50.2674H412.634C412.436 50.7148 412.155 51.1751 411.79 51.6481C411.426 52.1147 410.943 52.5078 410.343 52.8274C409.748 53.147 409.004 53.3068 408.109 53.3068ZM408.31 51.744C409.262 51.744 410.074 51.4851 410.745 50.9673C411.417 50.4432 411.928 49.7241 412.279 48.81C412.637 47.8896 412.816 46.8349 412.816 45.646C412.816 44.4698 412.641 43.4311 412.289 42.5298C411.937 41.6222 411.426 40.9126 410.755 40.4013C410.084 39.8835 409.269 39.6246 408.31 39.6246C407.326 39.6246 406.495 39.8931 405.817 40.43C405.146 40.9606 404.635 41.6797 404.283 42.5874C403.938 43.495 403.765 44.5146 403.765 45.646C403.765 46.7901 403.941 47.8224 404.293 48.7429C404.644 49.6634 405.155 50.3952 405.827 50.9386C406.504 51.4755 407.332 51.744 408.31 51.744ZM419.384 53V38.2727H421.1V53H419.384ZM420.257 35.7415C419.905 35.7415 419.605 35.6232 419.355 35.3867C419.106 35.1438 418.981 34.853 418.981 34.5142C418.981 34.1754 419.106 33.8878 419.355 33.6513C419.605 33.4084 419.905 33.2869 420.257 33.2869C420.608 33.2869 420.909 33.4084 421.158 33.6513C421.407 33.8878 421.532 34.1754 421.532 34.5142C421.532 34.853 421.407 35.1438 421.158 35.3867C420.909 35.6232 420.608 35.7415 420.257 35.7415ZM425.614 53V38.2727H427.273V40.5355H427.397C427.691 39.794 428.203 39.1964 428.932 38.7425C429.667 38.2823 430.498 38.0522 431.424 38.0522C431.565 38.0522 431.722 38.0554 431.894 38.0618C432.067 38.0682 432.211 38.0746 432.326 38.081V39.8164C432.249 39.8036 432.115 39.7844 431.923 39.7589C431.731 39.7333 431.523 39.7205 431.3 39.7205C430.533 39.7205 429.849 39.8835 429.248 40.2095C428.653 40.5291 428.184 40.9734 427.838 41.5423C427.493 42.1112 427.321 42.7599 427.321 43.4886V53H425.614ZM435.257 53V38.2727H436.973V53H435.257ZM436.13 35.7415C435.778 35.7415 435.478 35.6232 435.228 35.3867C434.979 35.1438 434.855 34.853 434.855 34.5142C434.855 34.1754 434.979 33.8878 435.228 33.6513C435.478 33.4084 435.778 33.2869 436.13 33.2869C436.481 33.2869 436.782 33.4084 437.031 33.6513C437.28 33.8878 437.405 34.1754 437.405 34.5142C437.405 34.853 437.28 35.1438 437.031 35.3867C436.782 35.6232 436.481 35.7415 436.13 35.7415ZM447.288 38.2727V39.7589H440.26V38.2727H447.288ZM442.455 34.7443H444.172V49.1552C444.172 49.7688 444.277 50.2514 444.488 50.603C444.699 50.9482 444.974 51.1942 445.313 51.3413C445.652 51.4819 446.013 51.5522 446.396 51.5522C446.62 51.5522 446.812 51.5394 446.971 51.5138C447.131 51.4819 447.272 51.4499 447.393 51.418L447.758 52.9616C447.591 53.0256 447.387 53.0831 447.144 53.1342C446.901 53.1918 446.601 53.2205 446.243 53.2205C445.616 53.2205 445.012 53.0831 444.431 52.8082C443.855 52.5334 443.382 52.1243 443.012 51.581C442.641 51.0376 442.455 50.3633 442.455 49.5579V34.7443ZM455.277 53.3356C454.389 53.3356 453.577 53.163 452.842 52.8178C452.107 52.4663 451.522 51.9613 451.087 51.3029C450.652 50.6381 450.435 49.8327 450.435 48.8867C450.435 48.158 450.573 47.5444 450.847 47.0458C451.122 46.5472 451.512 46.1381 452.017 45.8185C452.522 45.4989 453.12 45.2464 453.81 45.0611C454.5 44.8757 455.261 44.7319 456.092 44.6296C456.917 44.5273 457.613 44.4379 458.182 44.3612C458.758 44.2844 459.195 44.163 459.496 43.9968C459.796 43.8306 459.947 43.5621 459.947 43.1914V42.8462C459.947 41.8427 459.646 41.0533 459.045 40.478C458.451 39.8963 457.594 39.6055 456.476 39.6055C455.415 39.6055 454.548 39.8388 453.877 40.3054C453.212 40.772 452.746 41.3217 452.477 41.9545L450.857 41.3697C451.189 40.5643 451.65 39.9219 452.238 39.4425C452.826 38.9567 453.484 38.6083 454.213 38.3974C454.942 38.18 455.68 38.0714 456.428 38.0714C456.99 38.0714 457.575 38.1449 458.182 38.2919C458.796 38.4389 459.365 38.6946 459.889 39.0589C460.413 39.4169 460.838 39.9187 461.164 40.5643C461.49 41.2035 461.653 42.0153 461.653 42.9996V53H459.947V50.6701H459.841C459.636 51.1048 459.333 51.5266 458.93 51.9357C458.527 52.3448 458.023 52.6804 457.415 52.9425C456.808 53.2045 456.095 53.3356 455.277 53.3356ZM455.507 51.7727C456.415 51.7727 457.201 51.5714 457.866 51.1687C458.531 50.766 459.042 50.2322 459.4 49.5675C459.764 48.8963 459.947 48.158 459.947 47.3526V45.2241C459.819 45.3455 459.605 45.4542 459.304 45.5501C459.01 45.646 458.668 45.7322 458.278 45.8089C457.895 45.8793 457.511 45.94 457.128 45.9911C456.744 46.0423 456.399 46.087 456.092 46.1254C455.261 46.2276 454.552 46.3874 453.964 46.6048C453.375 46.8221 452.925 47.1225 452.612 47.506C452.298 47.8832 452.142 48.369 452.142 48.9634C452.142 49.8583 452.461 50.5518 453.101 51.044C453.74 51.5298 454.542 51.7727 455.507 51.7727Z" fill="black"/>
</svg>
