<svg width="417" height="38" viewBox="0 0 417 38" fill="none" xmlns="http://www.w3.org/2000/svg">
<path d="M0.210138 37V2.81818H13.6959C16.2885 2.81818 18.4972 3.31333 20.322 4.30362C22.1468 5.28279 23.5377 6.64583 24.4946 8.39275C25.4626 10.1286 25.9466 12.1314 25.9466 14.4013C25.9466 16.6712 25.4571 18.674 24.4779 20.4098C23.4987 22.1456 22.0801 23.4975 20.2219 24.4656C18.3748 25.4336 16.1383 25.9176 13.5123 25.9176H4.91682V20.1261H12.344C13.7349 20.1261 14.8809 19.8868 15.7822 19.4084C16.6946 18.9188 17.3734 18.2456 17.8184 17.3888C18.2747 16.521 18.5028 15.5251 18.5028 14.4013C18.5028 13.2663 18.2747 12.276 17.8184 11.4304C17.3734 10.5736 16.6946 9.91158 15.7822 9.44425C14.8698 8.96579 13.7126 8.72656 12.3106 8.72656H7.43706V37H0.210138ZM30.5073 37V11.3636H37.6174V37H30.5073ZM34.079 8.05895C33.022 8.05895 32.1151 7.70845 31.3585 7.00746C30.613 6.29533 30.2402 5.44413 30.2402 4.45383C30.2402 3.47467 30.613 2.63459 31.3585 1.93359C32.1151 1.22147 33.022 0.86541 34.079 0.86541C35.1361 0.86541 36.0373 1.22147 36.7828 1.93359C37.5395 2.63459 37.9178 3.47467 37.9178 4.45383C37.9178 5.44413 37.5395 6.29533 36.7828 7.00746C36.0373 7.70845 35.1361 8.05895 34.079 8.05895ZM50.423 22.179V37H43.3129V11.3636H50.0892V15.8867H50.3896C50.9571 14.3957 51.9085 13.2163 53.2437 12.3484C54.5789 11.4693 56.1979 11.0298 58.1006 11.0298C59.8809 11.0298 61.4331 11.4193 62.7572 12.1982C64.0813 12.977 65.1105 14.0897 65.8449 15.5362C66.5793 16.9716 66.9465 18.6851 66.9465 20.6768V37H59.8364V21.9453C59.8475 20.3764 59.4469 19.1525 58.6347 18.2734C57.8224 17.3833 56.7042 16.9382 55.2799 16.9382C54.323 16.9382 53.4774 17.1441 52.743 17.5558C52.0197 17.9674 51.4523 18.5683 51.0406 19.3583C50.64 20.1372 50.4342 21.0774 50.423 22.179ZM86.1863 11.3636V16.7045H70.7477V11.3636H86.1863ZM74.2527 5.22159H81.3627V29.1222C81.3627 29.7786 81.4629 30.2905 81.6632 30.6577C81.8635 31.0137 82.1416 31.2641 82.4977 31.4087C82.8649 31.5534 83.2877 31.6257 83.7662 31.6257C84.1 31.6257 84.4338 31.5979 84.7676 31.5423C85.1014 31.4755 85.3573 31.4254 85.5353 31.392L86.6536 36.6829C86.2975 36.7942 85.7968 36.9221 85.1515 37.0668C84.5061 37.2225 83.7217 37.3171 82.7981 37.3505C81.0846 37.4173 79.5824 37.1892 78.2917 36.6662C77.0121 36.1432 76.0163 35.331 75.3042 34.2294C74.592 33.1278 74.2415 31.737 74.2527 30.0568V5.22159ZM102.226 37.5007C99.5886 37.5007 97.3187 36.9666 95.416 35.8984C93.5244 34.8191 92.0668 33.2947 91.0431 31.3253C90.0195 29.3447 89.5076 27.0025 89.5076 24.2986C89.5076 21.6616 90.0195 19.3472 91.0431 17.3555C92.0668 15.3638 93.5078 13.8116 95.3659 12.6989C97.2353 11.5862 99.4273 11.0298 101.942 11.0298C103.633 11.0298 105.208 11.3024 106.665 11.8477C108.134 12.3817 109.414 13.1884 110.504 14.2678C111.606 15.3471 112.462 16.7045 113.074 18.3402C113.686 19.9647 113.992 21.8674 113.992 24.0483V26.0011H92.345V21.5948H107.3C107.3 20.5711 107.077 19.6643 106.632 18.8743C106.187 18.0843 105.569 17.4667 104.779 17.0217C104 16.5655 103.094 16.3374 102.059 16.3374C100.979 16.3374 100.023 16.5877 99.188 17.0884C98.3646 17.578 97.7193 18.2401 97.252 19.0746C96.7846 19.898 96.5454 20.8159 96.5343 21.8285V26.0178C96.5343 27.2862 96.7679 28.3822 97.2353 29.3058C97.7137 30.2293 98.3869 30.9414 99.2548 31.4421C100.123 31.9428 101.152 32.1932 102.343 32.1932C103.133 32.1932 103.856 32.0819 104.512 31.8594C105.169 31.6368 105.731 31.303 106.198 30.858C106.665 30.4129 107.021 29.8677 107.266 29.2223L113.842 29.6562C113.508 31.2363 112.824 32.616 111.789 33.7955C110.766 34.9638 109.441 35.8762 107.817 36.5327C106.204 37.178 104.34 37.5007 102.226 37.5007ZM141.093 37.5007C138.501 37.5007 136.259 36.9499 134.367 35.8484C132.487 34.7357 131.035 33.189 130.011 31.2085C128.987 29.2167 128.475 26.9079 128.475 24.282C128.475 21.6338 128.987 19.3194 130.011 17.3388C131.035 15.3471 132.487 13.8004 134.367 12.6989C136.259 11.5862 138.501 11.0298 141.093 11.0298C143.686 11.0298 145.922 11.5862 147.803 12.6989C149.694 13.8004 151.152 15.3471 152.176 17.3388C153.199 19.3194 153.711 21.6338 153.711 24.282C153.711 26.9079 153.199 29.2167 152.176 31.2085C151.152 33.189 149.694 34.7357 147.803 35.8484C145.922 36.9499 143.686 37.5007 141.093 37.5007ZM141.127 31.9929C142.306 31.9929 143.291 31.6591 144.081 30.9915C144.871 30.3127 145.466 29.3892 145.867 28.2209C146.278 27.0526 146.484 25.7229 146.484 24.2319C146.484 22.7409 146.278 21.4112 145.867 20.2429C145.466 19.0746 144.871 18.151 144.081 17.4723C143.291 16.7936 142.306 16.4542 141.127 16.4542C139.936 16.4542 138.935 16.7936 138.122 17.4723C137.321 18.151 136.715 19.0746 136.303 20.2429C135.903 21.4112 135.702 22.7409 135.702 24.2319C135.702 25.7229 135.903 27.0526 136.303 28.2209C136.715 29.3892 137.321 30.3127 138.122 30.9915C138.935 31.6591 139.936 31.9929 141.127 31.9929ZM179.665 18.674L173.155 19.0746C173.044 18.5182 172.805 18.0175 172.438 17.5724C172.071 17.1162 171.587 16.7546 170.986 16.4876C170.396 16.2094 169.689 16.0703 168.866 16.0703C167.764 16.0703 166.835 16.304 166.079 16.7713C165.322 17.2275 164.944 17.8395 164.944 18.6072C164.944 19.2192 165.189 19.7366 165.678 20.1594C166.168 20.5823 167.008 20.9216 168.198 21.1776L172.838 22.1122C175.331 22.6241 177.189 23.4474 178.413 24.5824C179.637 25.7173 180.249 27.2083 180.249 29.0554C180.249 30.7356 179.754 32.2099 178.763 33.4783C177.784 34.7468 176.438 35.7371 174.724 36.4492C173.022 37.1502 171.058 37.5007 168.833 37.5007C165.439 37.5007 162.735 36.7942 160.721 35.381C158.718 33.9568 157.544 32.0207 157.199 29.5728L164.193 29.2056C164.404 30.2404 164.916 31.0304 165.728 31.5756C166.541 32.1097 167.581 32.3768 168.849 32.3768C170.096 32.3768 171.097 32.1375 171.854 31.6591C172.621 31.1695 173.011 30.5408 173.022 29.7731C173.011 29.1277 172.738 28.5992 172.204 28.1875C171.67 27.7647 170.847 27.442 169.734 27.2195L165.294 26.3349C162.791 25.8342 160.927 24.9663 159.703 23.7312C158.49 22.4961 157.884 20.9216 157.884 19.0078C157.884 17.361 158.329 15.9424 159.219 14.7518C160.12 13.5612 161.383 12.6432 163.008 11.9979C164.643 11.3525 166.557 11.0298 168.749 11.0298C171.987 11.0298 174.535 11.7141 176.393 13.0827C178.263 14.4513 179.353 16.3151 179.665 18.674ZM208.022 37.4673C205.663 37.4673 203.56 37.0334 201.713 36.1655C199.877 35.2976 198.419 34.1014 197.34 32.5771C196.26 31.0527 195.699 29.3058 195.654 27.3363H202.664C202.742 28.6604 203.298 29.7341 204.333 30.5575C205.368 31.3809 206.597 31.7926 208.022 31.7926C209.157 31.7926 210.158 31.5423 211.026 31.0415C211.905 30.5297 212.589 29.8232 213.079 28.9219C213.579 28.0095 213.83 26.9635 213.83 25.7841C213.83 24.5824 213.574 23.5253 213.062 22.6129C212.561 21.7005 211.866 20.9884 210.976 20.4766C210.086 19.9647 209.068 19.7032 207.921 19.6921C206.92 19.6921 205.946 19.898 205.001 20.3097C204.066 20.7214 203.337 21.2833 202.814 21.9954L196.388 20.8438L198.007 2.81818H218.904V8.72656H203.966L203.081 17.2887H203.282C203.882 16.4431 204.789 15.7421 206.002 15.1857C207.215 14.6294 208.572 14.3512 210.074 14.3512C212.133 14.3512 213.969 14.8352 215.582 15.8033C217.196 16.7713 218.47 18.101 219.404 19.7923C220.339 21.4724 220.801 23.4085 220.79 25.6005C220.801 27.9038 220.267 29.9511 219.187 31.7425C218.119 33.5228 216.623 34.9248 214.698 35.9485C212.784 36.9611 210.559 37.4673 208.022 37.4673ZM267.068 14.7852H259.757C259.624 13.8394 259.351 12.9993 258.94 12.2649C258.528 11.5194 257.999 10.8852 257.354 10.3622C256.709 9.83925 255.963 9.43868 255.118 9.16051C254.283 8.88234 253.376 8.74325 252.397 8.74325C250.628 8.74325 249.087 9.18277 247.774 10.0618C246.461 10.9297 245.443 12.1982 244.719 13.8672C243.996 15.5251 243.635 17.5391 243.635 19.9091C243.635 22.3459 243.996 24.3932 244.719 26.0511C245.454 27.709 246.478 28.9608 247.79 29.8065C249.103 30.6521 250.622 31.0749 252.347 31.0749C253.315 31.0749 254.211 30.947 255.034 30.6911C255.869 30.4351 256.609 30.0624 257.254 29.5728C257.899 29.0721 258.433 28.4657 258.856 27.7536C259.29 27.0414 259.591 26.2292 259.757 25.3168L267.068 25.3501C266.879 26.919 266.406 28.4323 265.649 29.8899C264.904 31.3364 263.897 32.6327 262.628 33.7788C261.371 34.9137 259.869 35.815 258.122 36.4826C256.386 37.1391 254.422 37.4673 252.23 37.4673C249.181 37.4673 246.455 36.7775 244.052 35.3977C241.66 34.018 239.768 32.0207 238.377 29.4059C236.997 26.7911 236.308 23.6255 236.308 19.9091C236.308 16.1816 237.009 13.0104 238.411 10.3956C239.813 7.78078 241.715 5.78906 244.119 4.42045C246.522 3.04072 249.226 2.35085 252.23 2.35085C254.211 2.35085 256.047 2.62902 257.738 3.18537C259.44 3.74171 260.948 4.55398 262.261 5.62216C263.574 6.67921 264.642 7.9755 265.466 9.51101C266.3 11.0465 266.834 12.8046 267.068 14.7852ZM279.427 37.484C277.791 37.484 276.334 37.2003 275.054 36.6328C273.775 36.0542 272.762 35.203 272.017 34.0792C271.282 32.9442 270.915 31.5311 270.915 29.8398C270.915 28.4156 271.176 27.2195 271.699 26.2514C272.222 25.2834 272.934 24.5045 273.836 23.9148C274.737 23.325 275.761 22.88 276.907 22.5795C278.064 22.2791 279.277 22.0677 280.545 21.9453C282.036 21.7895 283.238 21.6449 284.15 21.5114C285.063 21.3667 285.725 21.1553 286.137 20.8771C286.548 20.599 286.754 20.1873 286.754 19.642V19.5419C286.754 18.4848 286.42 17.667 285.753 17.0884C285.096 16.5098 284.162 16.2205 282.949 16.2205C281.669 16.2205 280.651 16.5043 279.894 17.0717C279.138 17.6281 278.637 18.3291 278.392 19.1747L271.816 18.6406C272.15 17.0829 272.807 15.7365 273.786 14.6016C274.765 13.4555 276.028 12.5765 277.574 11.9645C279.132 11.3414 280.935 11.0298 282.982 11.0298C284.406 11.0298 285.769 11.1967 287.071 11.5305C288.384 11.8643 289.547 12.3817 290.559 13.0827C291.583 13.7837 292.39 14.685 292.98 15.7866C293.569 16.877 293.864 18.1844 293.864 19.7088V37H287.121V33.445H286.921C286.509 34.2461 285.959 34.9527 285.269 35.5646C284.579 36.1655 283.75 36.6384 282.782 36.9833C281.814 37.3171 280.695 37.484 279.427 37.484ZM281.463 32.5771C282.509 32.5771 283.433 32.3712 284.234 31.9595C285.035 31.5367 285.664 30.9692 286.12 30.2571C286.576 29.545 286.804 28.7383 286.804 27.837V25.1165C286.582 25.2611 286.276 25.3946 285.886 25.517C285.508 25.6283 285.079 25.734 284.601 25.8342C284.123 25.9232 283.644 26.0066 283.166 26.0845C282.687 26.1513 282.253 26.2125 281.864 26.2681C281.029 26.3905 280.3 26.5852 279.677 26.8523C279.054 27.1193 278.57 27.4809 278.225 27.9371C277.88 28.3822 277.708 28.9386 277.708 29.6062C277.708 30.5742 278.058 31.3142 278.759 31.826C279.472 32.3267 280.373 32.5771 281.463 32.5771ZM322.363 11.3636L313.4 37H305.389L296.426 11.3636H303.937L309.261 29.7063H309.528L314.836 11.3636H322.363ZM332.623 37.484C330.988 37.484 329.53 37.2003 328.25 36.6328C326.971 36.0542 325.958 35.203 325.213 34.0792C324.478 32.9442 324.111 31.5311 324.111 29.8398C324.111 28.4156 324.373 27.2195 324.896 26.2514C325.419 25.2834 326.131 24.5045 327.032 23.9148C327.933 23.325 328.957 22.88 330.103 22.5795C331.26 22.2791 332.473 22.0677 333.742 21.9453C335.233 21.7895 336.434 21.6449 337.347 21.5114C338.259 21.3667 338.921 21.1553 339.333 20.8771C339.745 20.599 339.95 20.1873 339.95 19.642V19.5419C339.95 18.4848 339.617 17.667 338.949 17.0884C338.292 16.5098 337.358 16.2205 336.145 16.2205C334.865 16.2205 333.847 16.5043 333.091 17.0717C332.334 17.6281 331.833 18.3291 331.589 19.1747L325.013 18.6406C325.346 17.0829 326.003 15.7365 326.982 14.6016C327.961 13.4555 329.224 12.5765 330.771 11.9645C332.328 11.3414 334.131 11.0298 336.178 11.0298C337.603 11.0298 338.966 11.1967 340.267 11.5305C341.58 11.8643 342.743 12.3817 343.756 13.0827C344.779 13.7837 345.586 14.685 346.176 15.7866C346.766 16.877 347.06 18.1844 347.06 19.7088V37H340.318V33.445H340.117C339.706 34.2461 339.155 34.9527 338.465 35.5646C337.775 36.1655 336.946 36.6384 335.978 36.9833C335.01 37.3171 333.892 37.484 332.623 37.484ZM334.66 32.5771C335.705 32.5771 336.629 32.3712 337.43 31.9595C338.231 31.5367 338.86 30.9692 339.316 30.2571C339.772 29.545 340 28.7383 340 27.837V25.1165C339.778 25.2611 339.472 25.3946 339.082 25.517C338.704 25.6283 338.276 25.734 337.797 25.8342C337.319 25.9232 336.84 26.0066 336.362 26.0845C335.883 26.1513 335.45 26.2125 335.06 26.2681C334.226 26.3905 333.497 26.5852 332.874 26.8523C332.251 27.1193 331.767 27.4809 331.422 27.9371C331.077 28.3822 330.904 28.9386 330.904 29.6062C330.904 30.5742 331.255 31.3142 331.956 31.826C332.668 32.3267 333.569 32.5771 334.66 32.5771ZM359.687 2.81818V37H352.577V2.81818H359.687ZM376.965 37.5007C374.373 37.5007 372.131 36.9499 370.239 35.8484C368.359 34.7357 366.907 33.189 365.883 31.2085C364.859 29.2167 364.347 26.9079 364.347 24.282C364.347 21.6338 364.859 19.3194 365.883 17.3388C366.907 15.3471 368.359 13.8004 370.239 12.6989C372.131 11.5862 374.373 11.0298 376.965 11.0298C379.558 11.0298 381.794 11.5862 383.675 12.6989C385.566 13.8004 387.024 15.3471 388.048 17.3388C389.071 19.3194 389.583 21.6338 389.583 24.282C389.583 26.9079 389.071 29.2167 388.048 31.2085C387.024 33.189 385.566 34.7357 383.675 35.8484C381.794 36.9499 379.558 37.5007 376.965 37.5007ZM376.999 31.9929C378.178 31.9929 379.163 31.6591 379.953 30.9915C380.743 30.3127 381.338 29.3892 381.739 28.2209C382.151 27.0526 382.356 25.7229 382.356 24.2319C382.356 22.7409 382.151 21.4112 381.739 20.2429C381.338 19.0746 380.743 18.151 379.953 17.4723C379.163 16.7936 378.178 16.4542 376.999 16.4542C375.808 16.4542 374.807 16.7936 373.994 17.4723C373.193 18.151 372.587 19.0746 372.175 20.2429C371.775 21.4112 371.574 22.7409 371.574 24.2319C371.574 25.7229 371.775 27.0526 372.175 28.2209C372.587 29.3892 373.193 30.3127 373.994 30.9915C374.807 31.6591 375.808 31.9929 376.999 31.9929ZM415.537 18.674L409.028 19.0746C408.916 18.5182 408.677 18.0175 408.31 17.5724C407.943 17.1162 407.459 16.7546 406.858 16.4876C406.268 16.2094 405.561 16.0703 404.738 16.0703C403.637 16.0703 402.707 16.304 401.951 16.7713C401.194 17.2275 400.816 17.8395 400.816 18.6072C400.816 19.2192 401.061 19.7366 401.55 20.1594C402.04 20.5823 402.88 20.9216 404.07 21.1776L408.71 22.1122C411.203 22.6241 413.061 23.4474 414.285 24.5824C415.509 25.7173 416.121 27.2083 416.121 29.0554C416.121 30.7356 415.626 32.2099 414.635 33.4783C413.656 34.7468 412.31 35.7371 410.596 36.4492C408.894 37.1502 406.93 37.5007 404.705 37.5007C401.311 37.5007 398.607 36.7942 396.593 35.381C394.59 33.9568 393.416 32.0207 393.072 29.5728L400.065 29.2056C400.276 30.2404 400.788 31.0304 401.6 31.5756C402.413 32.1097 403.453 32.3768 404.721 32.3768C405.968 32.3768 406.969 32.1375 407.726 31.6591C408.493 31.1695 408.883 30.5408 408.894 29.7731C408.883 29.1277 408.61 28.5992 408.076 28.1875C407.542 27.7647 406.719 27.442 405.606 27.2195L401.166 26.3349C398.663 25.8342 396.799 24.9663 395.575 23.7312C394.362 22.4961 393.756 20.9216 393.756 19.0078C393.756 17.361 394.201 15.9424 395.091 14.7518C395.992 13.5612 397.255 12.6432 398.88 11.9979C400.515 11.3525 402.429 11.0298 404.621 11.0298C407.859 11.0298 410.407 11.7141 412.265 13.0827C414.135 14.4513 415.225 16.3151 415.537 18.674Z" fill="black"/>
</svg>
