<svg width="605" height="48" viewBox="0 0 605 48" fill="none" xmlns="http://www.w3.org/2000/svg">
<path d="M0.893732 37V2.81818H14.3795C16.9721 2.81818 19.1808 3.31333 21.0056 4.30362C22.8304 5.28279 24.2213 6.64583 25.1782 8.39275C26.1462 10.1286 26.6302 12.1314 26.6302 14.4013C26.6302 16.6712 26.1407 18.674 25.1615 20.4098C24.1823 22.1456 22.7636 23.4975 20.9055 24.4656C19.0584 25.4336 16.8219 25.9176 14.1959 25.9176H5.60041V20.1261H13.0276C14.4185 20.1261 15.5645 19.8868 16.4658 19.4084C17.3782 18.9188 18.057 18.2456 18.502 17.3888C18.9582 16.521 19.1863 15.5251 19.1863 14.4013C19.1863 13.2663 18.9582 12.276 18.502 11.4304C18.057 10.5736 17.3782 9.91158 16.4658 9.44425C15.5534 8.96579 14.3962 8.72656 12.9942 8.72656H8.12065V37H0.893732ZM31.1909 37V11.3636H38.301V37H31.1909ZM34.7626 8.05895C33.7056 8.05895 32.7987 7.70845 32.0421 7.00746C31.2966 6.29533 30.9238 5.44413 30.9238 4.45383C30.9238 3.47467 31.2966 2.63459 32.0421 1.93359C32.7987 1.22147 33.7056 0.86541 34.7626 0.86541C35.8197 0.86541 36.7209 1.22147 37.4664 1.93359C38.2231 2.63459 38.6014 3.47467 38.6014 4.45383C38.6014 5.44413 38.2231 6.29533 37.4664 7.00746C36.7209 7.70845 35.8197 8.05895 34.7626 8.05895ZM51.1066 22.179V37H43.9965V11.3636H50.7728V15.8867H51.0732C51.6407 14.3957 52.5921 13.2163 53.9273 12.3484C55.2625 11.4693 56.8815 11.0298 58.7842 11.0298C60.5645 11.0298 62.1167 11.4193 63.4408 12.1982C64.7649 12.977 65.7941 14.0897 66.5285 15.5362C67.2629 16.9716 67.6301 18.6851 67.6301 20.6768V37H60.52V21.9453C60.5311 20.3764 60.1305 19.1525 59.3183 18.2734C58.506 17.3833 57.3878 16.9382 55.9635 16.9382C55.0066 16.9382 54.161 17.1441 53.4266 17.5558C52.7033 17.9674 52.1359 18.5683 51.7242 19.3583C51.3236 20.1372 51.1177 21.0774 51.1066 22.179ZM86.8699 11.3636V16.7045H71.4313V11.3636H86.8699ZM74.9363 5.22159H82.0463V29.1222C82.0463 29.7786 82.1465 30.2905 82.3468 30.6577C82.5471 31.0137 82.8252 31.2641 83.1813 31.4087C83.5485 31.5534 83.9713 31.6257 84.4498 31.6257C84.7836 31.6257 85.1174 31.5979 85.4512 31.5423C85.785 31.4755 86.0409 31.4254 86.2189 31.392L87.3372 36.6829C86.9811 36.7942 86.4804 36.9221 85.8351 37.0668C85.1897 37.2225 84.4052 37.3171 83.4817 37.3505C81.7682 37.4173 80.266 37.1892 78.9753 36.6662C77.6957 36.1432 76.6999 35.331 75.9877 34.2294C75.2756 33.1278 74.9251 31.737 74.9363 30.0568V5.22159ZM102.909 37.5007C100.272 37.5007 98.0023 36.9666 96.0996 35.8984C94.208 34.8191 92.7504 33.2947 91.7267 31.3253C90.7031 29.3447 90.1912 27.0025 90.1912 24.2986C90.1912 21.6616 90.7031 19.3472 91.7267 17.3555C92.7504 15.3638 94.1913 13.8116 96.0495 12.6989C97.9189 11.5862 100.111 11.0298 102.626 11.0298C104.317 11.0298 105.891 11.3024 107.349 11.8477C108.818 12.3817 110.097 13.1884 111.188 14.2678C112.289 15.3471 113.146 16.7045 113.758 18.3402C114.37 19.9647 114.676 21.8674 114.676 24.0483V26.0011H93.0286V21.5948H107.983C107.983 20.5711 107.761 19.6643 107.316 18.8743C106.87 18.0843 106.253 17.4667 105.463 17.0217C104.684 16.5655 103.777 16.3374 102.742 16.3374C101.663 16.3374 100.706 16.5877 99.8716 17.0884C99.0482 17.578 98.4029 18.2401 97.9355 19.0746C97.4682 19.898 97.229 20.8159 97.2179 21.8285V26.0178C97.2179 27.2862 97.4515 28.3822 97.9189 29.3058C98.3973 30.2293 99.0705 30.9414 99.9384 31.4421C100.806 31.9428 101.836 32.1932 103.026 32.1932C103.816 32.1932 104.539 32.0819 105.196 31.8594C105.852 31.6368 106.414 31.303 106.882 30.858C107.349 30.4129 107.705 29.8677 107.95 29.2223L114.526 29.6562C114.192 31.2363 113.508 32.616 112.473 33.7955C111.449 34.9638 110.125 35.8762 108.501 36.5327C106.887 37.178 105.023 37.5007 102.909 37.5007ZM137.504 37.484C135.869 37.484 134.411 37.2003 133.131 36.6328C131.852 36.0542 130.839 35.203 130.094 34.0792C129.359 32.9442 128.992 31.5311 128.992 29.8398C128.992 28.4156 129.254 27.2195 129.777 26.2514C130.3 25.2834 131.012 24.5045 131.913 23.9148C132.814 23.325 133.838 22.88 134.984 22.5795C136.141 22.2791 137.354 22.0677 138.622 21.9453C140.113 21.7895 141.315 21.6449 142.228 21.5114C143.14 21.3667 143.802 21.1553 144.214 20.8771C144.625 20.599 144.831 20.1873 144.831 19.642V19.5419C144.831 18.4848 144.497 17.667 143.83 17.0884C143.173 16.5098 142.239 16.2205 141.026 16.2205C139.746 16.2205 138.728 16.5043 137.972 17.0717C137.215 17.6281 136.714 18.3291 136.469 19.1747L129.893 18.6406C130.227 17.0829 130.884 15.7365 131.863 14.6016C132.842 13.4555 134.105 12.5765 135.652 11.9645C137.209 11.3414 139.012 11.0298 141.059 11.0298C142.483 11.0298 143.847 11.1967 145.148 11.5305C146.461 11.8643 147.624 12.3817 148.637 13.0827C149.66 13.7837 150.467 14.685 151.057 15.7866C151.646 16.877 151.941 18.1844 151.941 19.7088V37H145.198V33.445H144.998C144.586 34.2461 144.036 34.9527 143.346 35.5646C142.656 36.1655 141.827 36.6384 140.859 36.9833C139.891 37.3171 138.773 37.484 137.504 37.484ZM139.54 32.5771C140.586 32.5771 141.51 32.3712 142.311 31.9595C143.112 31.5367 143.741 30.9692 144.197 30.2571C144.653 29.545 144.881 28.7383 144.881 27.837V25.1165C144.659 25.2611 144.353 25.3946 143.963 25.517C143.585 25.6283 143.157 25.734 142.678 25.8342C142.2 25.9232 141.721 26.0066 141.243 26.0845C140.764 26.1513 140.33 26.2125 139.941 26.2681C139.106 26.3905 138.378 26.5852 137.755 26.8523C137.131 27.1193 136.647 27.4809 136.302 27.9371C135.958 28.3822 135.785 28.9386 135.785 29.6062C135.785 30.5742 136.136 31.3142 136.837 31.826C137.549 32.3267 138.45 32.5771 139.54 32.5771ZM157.457 46.6136V11.3636H164.467V15.6697H164.785C165.096 14.9799 165.547 14.2789 166.136 13.5668C166.737 12.8435 167.516 12.2427 168.473 11.7642C169.441 11.2746 170.643 11.0298 172.078 11.0298C173.948 11.0298 175.672 11.5194 177.252 12.4986C178.832 13.4666 180.095 14.9298 181.041 16.8881C181.987 18.8353 182.46 21.2777 182.46 24.2152C182.46 27.0748 181.998 29.4893 181.074 31.4588C180.162 33.4171 178.916 34.9026 177.336 35.9151C175.767 36.9165 174.009 37.4173 172.062 37.4173C170.682 37.4173 169.508 37.1892 168.54 36.733C167.583 36.2768 166.799 35.7037 166.187 35.0138C165.575 34.3129 165.107 33.6063 164.785 32.8942H164.568V46.6136H157.457ZM164.417 24.1818C164.417 25.7062 164.629 27.0359 165.052 28.1708C165.474 29.3058 166.086 30.1903 166.888 30.8246C167.689 31.4477 168.662 31.7592 169.808 31.7592C170.966 31.7592 171.945 31.4421 172.746 30.8079C173.547 30.1625 174.153 29.2724 174.565 28.1374C174.988 26.9914 175.199 25.6728 175.199 24.1818C175.199 22.7019 174.993 21.4001 174.582 20.2763C174.17 19.1525 173.564 18.2734 172.763 17.6392C171.961 17.005 170.977 16.6879 169.808 16.6879C168.651 16.6879 167.672 16.9938 166.871 17.6058C166.081 18.2178 165.474 19.0857 165.052 20.2095C164.629 21.3333 164.417 22.6574 164.417 24.1818ZM198.883 37.5007C196.246 37.5007 193.976 36.9666 192.073 35.8984C190.182 34.8191 188.724 33.2947 187.7 31.3253C186.677 29.3447 186.165 27.0025 186.165 24.2986C186.165 21.6616 186.677 19.3472 187.7 17.3555C188.724 15.3638 190.165 13.8116 192.023 12.6989C193.892 11.5862 196.084 11.0298 198.599 11.0298C200.29 11.0298 201.865 11.3024 203.323 11.8477C204.791 12.3817 206.071 13.1884 207.161 14.2678C208.263 15.3471 209.12 16.7045 209.732 18.3402C210.344 19.9647 210.65 21.8674 210.65 24.0483V26.0011H189.002V21.5948H203.957C203.957 20.5711 203.734 19.6643 203.289 18.8743C202.844 18.0843 202.227 17.4667 201.437 17.0217C200.658 16.5655 199.751 16.3374 198.716 16.3374C197.637 16.3374 196.68 16.5877 195.845 17.0884C195.022 17.578 194.377 18.2401 193.909 19.0746C193.442 19.898 193.203 20.8159 193.191 21.8285V26.0178C193.191 27.2862 193.425 28.3822 193.892 29.3058C194.371 30.2293 195.044 30.9414 195.912 31.4421C196.78 31.9428 197.809 32.1932 199 32.1932C199.79 32.1932 200.513 32.0819 201.169 31.8594C201.826 31.6368 202.388 31.303 202.855 30.858C203.323 30.4129 203.679 29.8677 203.923 29.2223L210.499 29.6562C210.166 31.2363 209.481 32.616 208.446 33.7955C207.423 34.9638 206.099 35.8762 204.474 36.5327C202.861 37.178 200.997 37.5007 198.883 37.5007ZM222.4 22.179V37H215.29V11.3636H222.066V15.8867H222.366C222.934 14.3957 223.885 13.2163 225.22 12.3484C226.555 11.4693 228.174 11.0298 230.077 11.0298C231.857 11.0298 233.41 11.4193 234.734 12.1982C236.058 12.977 237.087 14.0897 237.821 15.5362C238.556 16.9716 238.923 18.6851 238.923 20.6768V37H231.813V21.9453C231.824 20.3764 231.424 19.1525 230.611 18.2734C229.799 17.3833 228.681 16.9382 227.256 16.9382C226.3 16.9382 225.454 17.1441 224.72 17.5558C223.996 17.9674 223.429 18.5683 223.017 19.3583C222.617 20.1372 222.411 21.0774 222.4 22.179ZM251.837 37.484C250.202 37.484 248.744 37.2003 247.464 36.6328C246.185 36.0542 245.172 35.203 244.427 34.0792C243.692 32.9442 243.325 31.5311 243.325 29.8398C243.325 28.4156 243.587 27.2195 244.11 26.2514C244.633 25.2834 245.345 24.5045 246.246 23.9148C247.147 23.325 248.171 22.88 249.317 22.5795C250.474 22.2791 251.687 22.0677 252.955 21.9453C254.446 21.7895 255.648 21.6449 256.561 21.5114C257.473 21.3667 258.135 21.1553 258.547 20.8771C258.958 20.599 259.164 20.1873 259.164 19.642V19.5419C259.164 18.4848 258.83 17.667 258.163 17.0884C257.506 16.5098 256.572 16.2205 255.359 16.2205C254.079 16.2205 253.061 16.5043 252.305 17.0717C251.548 17.6281 251.047 18.3291 250.802 19.1747L244.226 18.6406C244.56 17.0829 245.217 15.7365 246.196 14.6016C247.175 13.4555 248.438 12.5765 249.985 11.9645C251.542 11.3414 253.345 11.0298 255.392 11.0298C256.816 11.0298 258.18 11.1967 259.481 11.5305C260.794 11.8643 261.957 12.3817 262.97 13.0827C263.993 13.7837 264.8 14.685 265.39 15.7866C265.979 16.877 266.274 18.1844 266.274 19.7088V37H259.531V33.445H259.331C258.919 34.2461 258.369 34.9527 257.679 35.5646C256.989 36.1655 256.16 36.6384 255.192 36.9833C254.224 37.3171 253.106 37.484 251.837 37.484ZM253.873 32.5771C254.919 32.5771 255.843 32.3712 256.644 31.9595C257.445 31.5367 258.074 30.9692 258.53 30.2571C258.986 29.545 259.214 28.7383 259.214 27.837V25.1165C258.992 25.2611 258.686 25.3946 258.296 25.517C257.918 25.6283 257.49 25.734 257.011 25.8342C256.533 25.9232 256.054 26.0066 255.576 26.0845C255.097 26.1513 254.663 26.2125 254.274 26.2681C253.439 26.3905 252.711 26.5852 252.088 26.8523C251.464 27.1193 250.98 27.4809 250.635 27.9371C250.291 28.3822 250.118 28.9386 250.118 29.6062C250.118 30.5742 250.469 31.3142 251.17 31.826C251.882 32.3267 252.783 32.5771 253.873 32.5771ZM293.121 18.674L286.612 19.0746C286.5 18.5182 286.261 18.0175 285.894 17.5724C285.527 17.1162 285.043 16.7546 284.442 16.4876C283.852 16.2094 283.145 16.0703 282.322 16.0703C281.221 16.0703 280.291 16.304 279.535 16.7713C278.778 17.2275 278.4 17.8395 278.4 18.6072C278.4 19.2192 278.645 19.7366 279.134 20.1594C279.624 20.5823 280.464 20.9216 281.654 21.1776L286.294 22.1122C288.787 22.6241 290.645 23.4474 291.869 24.5824C293.093 25.7173 293.705 27.2083 293.705 29.0554C293.705 30.7356 293.21 32.2099 292.219 33.4783C291.24 34.7468 289.894 35.7371 288.18 36.4492C286.478 37.1502 284.514 37.5007 282.289 37.5007C278.895 37.5007 276.191 36.7942 274.177 35.381C272.174 33.9568 271 32.0207 270.656 29.5728L277.649 29.2056C277.86 30.2404 278.372 31.0304 279.184 31.5756C279.997 32.1097 281.037 32.3768 282.305 32.3768C283.552 32.3768 284.553 32.1375 285.31 31.6591C286.077 31.1695 286.467 30.5408 286.478 29.7731C286.467 29.1277 286.194 28.5992 285.66 28.1875C285.126 27.7647 284.303 27.442 283.19 27.2195L278.75 26.3349C276.247 25.8342 274.383 24.9663 273.159 23.7312C271.946 22.4961 271.34 20.9216 271.34 19.0078C271.34 17.361 271.785 15.9424 272.675 14.7518C273.576 13.5612 274.839 12.6432 276.464 11.9979C278.099 11.3525 280.013 11.0298 282.205 11.0298C285.443 11.0298 287.991 11.7141 289.849 13.0827C291.719 14.4513 292.809 16.3151 293.121 18.674ZM316.37 37.484C314.735 37.484 313.277 37.2003 311.998 36.6328C310.718 36.0542 309.705 35.203 308.96 34.0792C308.225 32.9442 307.858 31.5311 307.858 29.8398C307.858 28.4156 308.12 27.2195 308.643 26.2514C309.166 25.2834 309.878 24.5045 310.779 23.9148C311.68 23.325 312.704 22.88 313.85 22.5795C315.007 22.2791 316.22 22.0677 317.489 21.9453C318.98 21.7895 320.181 21.6449 321.094 21.5114C322.006 21.3667 322.668 21.1553 323.08 20.8771C323.492 20.599 323.697 20.1873 323.697 19.642V19.5419C323.697 18.4848 323.364 17.667 322.696 17.0884C322.04 16.5098 321.105 16.2205 319.892 16.2205C318.612 16.2205 317.594 16.5043 316.838 17.0717C316.081 17.6281 315.58 18.3291 315.336 19.1747L308.76 18.6406C309.093 17.0829 309.75 15.7365 310.729 14.6016C311.708 13.4555 312.971 12.5765 314.518 11.9645C316.076 11.3414 317.878 11.0298 319.925 11.0298C321.35 11.0298 322.713 11.1967 324.015 11.5305C325.328 11.8643 326.49 12.3817 327.503 13.0827C328.527 13.7837 329.333 14.685 329.923 15.7866C330.513 16.877 330.808 18.1844 330.808 19.7088V37H324.065V33.445H323.864C323.453 34.2461 322.902 34.9527 322.212 35.5646C321.522 36.1655 320.693 36.6384 319.725 36.9833C318.757 37.3171 317.639 37.484 316.37 37.484ZM318.407 32.5771C319.453 32.5771 320.376 32.3712 321.177 31.9595C321.978 31.5367 322.607 30.9692 323.063 30.2571C323.519 29.545 323.748 28.7383 323.748 27.837V25.1165C323.525 25.2611 323.219 25.3946 322.83 25.517C322.451 25.6283 322.023 25.734 321.544 25.8342C321.066 25.9232 320.587 26.0066 320.109 26.0845C319.631 26.1513 319.197 26.2125 318.807 26.2681C317.973 26.3905 317.244 26.5852 316.621 26.8523C315.998 27.1193 315.514 27.4809 315.169 27.9371C314.824 28.3822 314.651 28.9386 314.651 29.6062C314.651 30.5742 315.002 31.3142 315.703 31.826C316.415 32.3267 317.316 32.5771 318.407 32.5771ZM357.654 18.674L351.145 19.0746C351.033 18.5182 350.794 18.0175 350.427 17.5724C350.06 17.1162 349.576 16.7546 348.975 16.4876C348.385 16.2094 347.679 16.0703 346.855 16.0703C345.754 16.0703 344.825 16.304 344.068 16.7713C343.311 17.2275 342.933 17.8395 342.933 18.6072C342.933 19.2192 343.178 19.7366 343.667 20.1594C344.157 20.5823 344.997 20.9216 346.188 21.1776L350.828 22.1122C353.32 22.6241 355.178 23.4474 356.402 24.5824C357.626 25.7173 358.238 27.2083 358.238 29.0554C358.238 30.7356 357.743 32.2099 356.753 33.4783C355.773 34.7468 354.427 35.7371 352.714 36.4492C351.011 37.1502 349.047 37.5007 346.822 37.5007C343.428 37.5007 340.724 36.7942 338.71 35.381C336.708 33.9568 335.534 32.0207 335.189 29.5728L342.182 29.2056C342.393 30.2404 342.905 31.0304 343.718 31.5756C344.53 32.1097 345.57 32.3768 346.839 32.3768C348.085 32.3768 349.086 32.1375 349.843 31.6591C350.611 31.1695 351 30.5408 351.011 29.7731C351 29.1277 350.727 28.5992 350.193 28.1875C349.659 27.7647 348.836 27.442 347.723 27.2195L343.284 26.3349C340.78 25.8342 338.916 24.9663 337.692 23.7312C336.479 22.4961 335.873 20.9216 335.873 19.0078C335.873 17.361 336.318 15.9424 337.208 14.7518C338.11 13.5612 339.372 12.6432 340.997 11.9979C342.633 11.3525 344.546 11.0298 346.738 11.0298C349.976 11.0298 352.524 11.7141 354.383 13.0827C356.252 14.4513 357.342 16.3151 357.654 18.674ZM373.526 37V31.7926L385.694 20.5266C386.729 19.5252 387.596 18.6239 388.297 17.8228C389.01 17.0217 389.549 16.2372 389.916 15.4695C390.284 14.6906 390.467 13.8505 390.467 12.9492C390.467 11.9478 390.239 11.0855 389.783 10.3622C389.327 9.62784 388.704 9.06593 387.914 8.67649C387.124 8.27592 386.228 8.07564 385.226 8.07564C384.18 8.07564 383.268 8.28705 382.489 8.70987C381.71 9.13269 381.109 9.73911 380.687 10.5291C380.264 11.3191 380.052 12.2593 380.052 13.3498H373.193C373.193 11.1133 373.699 9.17164 374.711 7.52486C375.724 5.87808 377.143 4.60405 378.968 3.70277C380.792 2.80149 382.895 2.35085 385.276 2.35085C387.724 2.35085 389.855 2.7848 391.669 3.6527C393.494 4.50947 394.912 5.70005 395.925 7.22443C396.937 8.74882 397.444 10.4957 397.444 12.4652C397.444 13.7559 397.188 15.0299 396.676 16.2873C396.175 17.5446 395.28 18.9411 393.989 20.4766C392.698 22.0009 390.879 23.8313 388.531 25.9677L383.541 30.858V31.0916H397.894V37H373.526ZM425.625 47.1477C423.322 47.1477 421.347 46.8306 419.7 46.1964C418.065 45.5733 416.763 44.7221 415.795 43.6428C414.827 42.5634 414.198 41.3506 413.909 40.0043L420.485 39.1197C420.685 39.6315 421.002 40.11 421.436 40.555C421.87 41.0001 422.443 41.3562 423.155 41.6232C423.878 41.9014 424.757 42.0405 425.792 42.0405C427.339 42.0405 428.613 41.6622 429.614 40.9055C430.627 40.16 431.133 38.9083 431.133 37.1502V32.4602H430.833C430.521 33.1723 430.054 33.8455 429.431 34.4798C428.808 35.114 428.007 35.6314 427.027 36.032C426.048 36.4325 424.88 36.6328 423.522 36.6328C421.597 36.6328 419.845 36.1877 418.265 35.2976C416.696 34.3963 415.444 33.0221 414.51 31.1751C413.586 29.3169 413.124 26.9691 413.124 24.1317C413.124 21.2276 413.597 18.802 414.543 16.8548C415.489 14.9076 416.746 13.4499 418.315 12.4819C419.895 11.5138 421.625 11.0298 423.506 11.0298C424.941 11.0298 426.143 11.2746 427.111 11.7642C428.079 12.2427 428.858 12.8435 429.447 13.5668C430.048 14.2789 430.51 14.9799 430.833 15.6697H431.1V11.3636H438.16V37.2504C438.16 39.4312 437.626 41.256 436.558 42.7248C435.489 44.1935 434.009 45.2951 432.118 46.0295C430.237 46.775 428.073 47.1477 425.625 47.1477ZM425.776 31.2919C426.922 31.2919 427.89 31.0082 428.68 30.4407C429.481 29.8621 430.093 29.0387 430.516 27.9705C430.95 26.8912 431.167 25.6005 431.167 24.0984C431.167 22.5962 430.955 21.2944 430.532 20.1928C430.109 19.0801 429.498 18.2178 428.696 17.6058C427.895 16.9938 426.922 16.6879 425.776 16.6879C424.607 16.6879 423.623 17.005 422.821 17.6392C422.02 18.2623 421.414 19.1302 421.002 20.2429C420.59 21.3556 420.385 22.6407 420.385 24.0984C420.385 25.5782 420.59 26.8578 421.002 27.9371C421.425 29.0053 422.031 29.8343 422.821 30.424C423.623 31.0026 424.607 31.2919 425.776 31.2919ZM451.128 37.484C449.493 37.484 448.035 37.2003 446.755 36.6328C445.476 36.0542 444.463 35.203 443.718 34.0792C442.983 32.9442 442.616 31.5311 442.616 29.8398C442.616 28.4156 442.878 27.2195 443.401 26.2514C443.924 25.2834 444.636 24.5045 445.537 23.9148C446.438 23.325 447.462 22.88 448.608 22.5795C449.765 22.2791 450.978 22.0677 452.246 21.9453C453.737 21.7895 454.939 21.6449 455.852 21.5114C456.764 21.3667 457.426 21.1553 457.838 20.8771C458.249 20.599 458.455 20.1873 458.455 19.642V19.5419C458.455 18.4848 458.121 17.667 457.454 17.0884C456.797 16.5098 455.863 16.2205 454.65 16.2205C453.37 16.2205 452.352 16.5043 451.596 17.0717C450.839 17.6281 450.338 18.3291 450.093 19.1747L443.517 18.6406C443.851 17.0829 444.508 15.7365 445.487 14.6016C446.466 13.4555 447.729 12.5765 449.276 11.9645C450.833 11.3414 452.636 11.0298 454.683 11.0298C456.107 11.0298 457.471 11.1967 458.772 11.5305C460.085 11.8643 461.248 12.3817 462.261 13.0827C463.284 13.7837 464.091 14.685 464.681 15.7866C465.27 16.877 465.565 18.1844 465.565 19.7088V37H458.822V33.445H458.622C458.21 34.2461 457.66 34.9527 456.97 35.5646C456.28 36.1655 455.451 36.6384 454.483 36.9833C453.515 37.3171 452.397 37.484 451.128 37.484ZM453.164 32.5771C454.21 32.5771 455.134 32.3712 455.935 31.9595C456.736 31.5367 457.365 30.9692 457.821 30.2571C458.277 29.545 458.505 28.7383 458.505 27.837V25.1165C458.283 25.2611 457.977 25.3946 457.587 25.517C457.209 25.6283 456.781 25.734 456.302 25.8342C455.824 25.9232 455.345 26.0066 454.867 26.0845C454.388 26.1513 453.954 26.2125 453.565 26.2681C452.73 26.3905 452.002 26.5852 451.379 26.8523C450.755 27.1193 450.271 27.4809 449.926 27.9371C449.582 28.3822 449.409 28.9386 449.409 29.6062C449.409 30.5742 449.76 31.3142 450.461 31.826C451.173 32.3267 452.074 32.5771 453.164 32.5771ZM478.192 2.81818V37H471.081V2.81818H478.192ZM483.887 37V11.3636H490.997V37H483.887ZM487.459 8.05895C486.402 8.05895 485.495 7.70845 484.738 7.00746C483.993 6.29533 483.62 5.44413 483.62 4.45383C483.62 3.47467 483.993 2.63459 484.738 1.93359C485.495 1.22147 486.402 0.86541 487.459 0.86541C488.516 0.86541 489.417 1.22147 490.163 1.93359C490.919 2.63459 491.298 3.47467 491.298 4.45383C491.298 5.44413 490.919 6.29533 490.163 7.00746C489.417 7.70845 488.516 8.05895 487.459 8.05895ZM503.803 22.179V37H496.693V11.3636H503.469V15.8867H503.77C504.337 14.3957 505.288 13.2163 506.624 12.3484C507.959 11.4693 509.578 11.0298 511.48 11.0298C513.261 11.0298 514.813 11.4193 516.137 12.1982C517.461 12.977 518.49 14.0897 519.225 15.5362C519.959 16.9716 520.326 18.6851 520.326 20.6768V37H513.216V21.9453C513.227 20.3764 512.827 19.1525 512.015 18.2734C511.202 17.3833 510.084 16.9382 508.66 16.9382C507.703 16.9382 506.857 17.1441 506.123 17.5558C505.4 17.9674 504.832 18.5683 504.42 19.3583C504.02 20.1372 503.814 21.0774 503.803 22.179ZM533.04 22.179V37H525.93V2.81818H532.84V15.8867H533.14C533.719 14.3735 534.654 13.1884 535.944 12.3317C537.235 11.4638 538.854 11.0298 540.801 11.0298C542.582 11.0298 544.134 11.4193 545.458 12.1982C546.793 12.9659 547.828 14.073 548.562 15.5195C549.308 16.9549 549.675 18.674 549.664 20.6768V37H542.554V21.9453C542.565 20.3653 542.164 19.1358 541.352 18.2567C540.551 17.3777 539.427 16.9382 537.981 16.9382C537.013 16.9382 536.156 17.1441 535.41 17.5558C534.676 17.9674 534.097 18.5683 533.674 19.3583C533.263 20.1372 533.051 21.0774 533.04 22.179ZM562.57 37.484C560.934 37.484 559.476 37.2003 558.197 36.6328C556.917 36.0542 555.905 35.203 555.159 34.0792C554.425 32.9442 554.058 31.5311 554.058 29.8398C554.058 28.4156 554.319 27.2195 554.842 26.2514C555.365 25.2834 556.077 24.5045 556.978 23.9148C557.88 23.325 558.903 22.88 560.049 22.5795C561.207 22.2791 562.419 22.0677 563.688 21.9453C565.179 21.7895 566.381 21.6449 567.293 21.5114C568.205 21.3667 568.867 21.1553 569.279 20.8771C569.691 20.599 569.897 20.1873 569.897 19.642V19.5419C569.897 18.4848 569.563 17.667 568.895 17.0884C568.239 16.5098 567.304 16.2205 566.091 16.2205C564.812 16.2205 563.794 16.5043 563.037 17.0717C562.28 17.6281 561.78 18.3291 561.535 19.1747L554.959 18.6406C555.293 17.0829 555.949 15.7365 556.928 14.6016C557.907 13.4555 559.17 12.5765 560.717 11.9645C562.275 11.3414 564.077 11.0298 566.125 11.0298C567.549 11.0298 568.912 11.1967 570.214 11.5305C571.527 11.8643 572.69 12.3817 573.702 13.0827C574.726 13.7837 575.532 14.685 576.122 15.7866C576.712 16.877 577.007 18.1844 577.007 19.7088V37H570.264V33.445H570.064C569.652 34.2461 569.101 34.9527 568.411 35.5646C567.721 36.1655 566.892 36.6384 565.924 36.9833C564.956 37.3171 563.838 37.484 562.57 37.484ZM564.606 32.5771C565.652 32.5771 566.575 32.3712 567.376 31.9595C568.178 31.5367 568.806 30.9692 569.262 30.2571C569.719 29.545 569.947 28.7383 569.947 27.837V25.1165C569.724 25.2611 569.418 25.3946 569.029 25.517C568.65 25.6283 568.222 25.734 567.744 25.8342C567.265 25.9232 566.787 26.0066 566.308 26.0845C565.83 26.1513 565.396 26.2125 565.006 26.2681C564.172 26.3905 563.443 26.5852 562.82 26.8523C562.197 27.1193 561.713 27.4809 561.368 27.9371C561.023 28.3822 560.85 28.9386 560.85 29.6062C560.85 30.5742 561.201 31.3142 561.902 31.826C562.614 32.3267 563.515 32.5771 564.606 32.5771ZM603.853 18.674L597.344 19.0746C597.233 18.5182 596.993 18.0175 596.626 17.5724C596.259 17.1162 595.775 16.7546 595.174 16.4876C594.584 16.2094 593.878 16.0703 593.055 16.0703C591.953 16.0703 591.024 16.304 590.267 16.7713C589.511 17.2275 589.132 17.8395 589.132 18.6072C589.132 19.2192 589.377 19.7366 589.867 20.1594C590.356 20.5823 591.196 20.9216 592.387 21.1776L597.027 22.1122C599.519 22.6241 601.377 23.4474 602.601 24.5824C603.825 25.7173 604.437 27.2083 604.437 29.0554C604.437 30.7356 603.942 32.2099 602.952 33.4783C601.973 34.7468 600.626 35.7371 598.913 36.4492C597.21 37.1502 595.247 37.5007 593.021 37.5007C589.627 37.5007 586.924 36.7942 584.91 35.381C582.907 33.9568 581.733 32.0207 581.388 29.5728L588.381 29.2056C588.593 30.2404 589.104 31.0304 589.917 31.5756C590.729 32.1097 591.769 32.3768 593.038 32.3768C594.284 32.3768 595.285 32.1375 596.042 31.6591C596.81 31.1695 597.199 30.5408 597.21 29.7731C597.199 29.1277 596.927 28.5992 596.393 28.1875C595.858 27.7647 595.035 27.442 593.922 27.2195L589.483 26.3349C586.979 25.8342 585.115 24.9663 583.892 23.7312C582.679 22.4961 582.072 20.9216 582.072 19.0078C582.072 17.361 582.517 15.9424 583.407 14.7518C584.309 13.5612 585.572 12.6432 587.196 11.9979C588.832 11.3525 590.746 11.0298 592.938 11.0298C596.176 11.0298 598.724 11.7141 600.582 13.0827C602.451 14.4513 603.542 16.3151 603.853 18.674Z" fill="black"/>
</svg>
