<svg width="70" height="72" viewBox="0 0 70 72" fill="none" xmlns="http://www.w3.org/2000/svg">
<path d="M34.5 71.98C53.5538 71.98 69 56.5338 69 37.48C69 18.4262 53.5538 2.98001 34.5 2.98001C15.4462 2.98001 0 18.4262 0 37.48C0 56.5338 15.4462 71.98 34.5 71.98Z" fill="#E8E3E6"/>
<path d="M34.54 69C53.5939 69 69.04 53.5538 69.04 34.5C69.04 15.4462 53.5939 0 34.54 0C15.4862 0 0.0400391 15.4462 0.0400391 34.5C0.0400391 53.5538 15.4862 69 34.54 69Z" fill="#FFF8FC"/>
<path d="M19.26 30.72L33.26 16.72C35.62 14.36 39.67 16.03 39.67 19.37V49.57C39.67 52.87 35.71 54.57 33.32 52.28L19.26 38.84V30.71V30.72Z" fill="#C8A9F2"/>
<path d="M16.56 30.69H16.55C15.7161 30.69 15.04 31.3661 15.04 32.2V36.75C15.04 37.584 15.7161 38.26 16.55 38.26H16.56C17.394 38.26 18.0701 37.584 18.0701 36.75V32.2C18.0701 31.3661 17.394 30.69 16.56 30.69Z" fill="#C8A9F2"/>
<path d="M43.42 42.57C44.53 41.62 46.0701 37.27 46.0701 34.47C46.0701 31.67 45.03 27.75 43.42 26.37" fill="#C8A9F2"/>
<path d="M47.99 45.19C49.46 43.93 51.5 38.18 51.5 34.47C51.5 30.76 50.13 25.57 47.99 23.75" fill="#C8A9F2"/>
</svg>
