<svg width="16" height="37" viewBox="0 0 16 37" fill="none" xmlns="http://www.w3.org/2000/svg">
<path d="M15.2699 36.03L1.19993 21.97C-0.410068 20.36 -0.410068 15.76 1.19993 14.15L15.2699 2.09" fill="#C19759"/>
<path d="M15.2699 34.03L1.19993 19.97C-0.410068 18.36 -0.410068 15.76 1.19993 14.15L15.2699 0.0899963" fill="#FECA74"/>
<g opacity="0.48">
<path d="M2.2699 13.56C6.3299 8.79 10.7499 4.33 15.2699 0C15.2599 2.1 15.1799 4.23 15.0999 6.32C15.0499 8.07 14.9299 9.81 14.7999 11.56C14.5299 8.07 14.4099 4.58 14.3399 1.09L15.1199 1.42C11.0099 5.65 6.7799 9.76 2.2699 13.57V13.56Z" fill="white"/>
</g>
</svg>
