<svg width="16" height="37" viewBox="0 0 16 37" fill="none" xmlns="http://www.w3.org/2000/svg">
<path d="M0.0100098 36.04L14.07 21.98C15.68 20.37 15.68 15.77 14.07 14.16L0.0100098 2.10001" fill="#C19759"/>
<path d="M0.0100098 34.04L14.07 19.98C15.68 18.37 15.68 15.77 14.07 14.16L0.0100098 0.100006" fill="#FECA74"/>
<g opacity="0.48">
<path d="M13 13.57C8.49 9.77 4.25996 5.65 0.149963 1.42L0.929993 1.09C0.859993 4.58 0.739971 8.07 0.469971 11.56C0.339971 9.81 0.219983 8.07 0.169983 6.32C0.0899829 4.22 0.01 2.1 0 0C4.52 4.33 8.93 8.79 13 13.56V13.57Z" fill="white"/>
</g>
</svg>
