<svg width="70" height="72" viewBox="0 0 70 72" fill="none" xmlns="http://www.w3.org/2000/svg">
<path d="M34.5 71.98C53.5538 71.98 69 56.5338 69 37.48C69 18.4262 53.5538 2.98001 34.5 2.98001C15.4462 2.98001 0 18.4262 0 37.48C0 56.5338 15.4462 71.98 34.5 71.98Z" fill="#E8E3E6"/>
<path d="M34.54 69C53.5939 69 69.04 53.5538 69.04 34.5C69.04 15.4462 53.5939 0 34.54 0C15.4862 0 0.0400391 15.4462 0.0400391 34.5C0.0400391 53.5538 15.4862 69 34.54 69Z" fill="#FFF8FC"/>
<path d="M54.02 29.73C48.47 25.65 42.92 21.56 37.36 17.48C36.75 16.88 35.98 16.51 35.12 16.54C34.27 16.52 33.5 16.88 32.89 17.48C27.34 21.56 21.78 25.65 16.23 29.73C12.38 32.56 16.12 39.07 20.02 36.21C20.39 35.94 20.76 35.67 21.13 35.4V45.94C21.13 49.55 24.05 52.47 27.66 52.47H31.66C31.65 52.36 31.63 52.26 31.63 52.15V45.8C31.63 44.52 32.67 43.48 33.95 43.48H36.3C37.58 43.48 38.62 44.52 38.62 45.8V52.15C38.62 52.26 38.6 52.37 38.59 52.47H42.59C46.2 52.47 49.12 49.55 49.12 45.94V35.4L50.23 36.21C54.12 39.07 57.87 32.57 54.02 29.73Z" fill="#EEC7A1"/>
</svg>
