<svg width="70" height="72" viewBox="0 0 70 72" fill="none" xmlns="http://www.w3.org/2000/svg">
<path d="M34.5 71.98C53.5538 71.98 69 56.5338 69 37.48C69 18.4262 53.5538 2.98001 34.5 2.98001C15.4462 2.98001 0 18.4262 0 37.48C0 56.5338 15.4462 71.98 34.5 71.98Z" fill="#E8E3E6"/>
<path d="M34.54 69C53.5938 69 69.04 53.5538 69.04 34.5C69.04 15.4462 53.5938 0 34.54 0C15.4862 0 0.039978 15.4462 0.039978 34.5C0.039978 53.5538 15.4862 69 34.54 69Z" fill="#FFF8FC"/>
<path d="M52.04 30.88H25.16L28.59 27.45C31.88 24.16 26.78 19.05 23.48 22.34C20.4 25.42 17.33 28.49 14.25 31.57C14.03 31.74 13.84 31.95 13.67 32.17C13.04 32.9 12.79 33.71 12.83 34.49C12.79 35.29 13.05 36.13 13.72 36.88C13.8 36.98 13.89 37.06 13.98 37.15C17.15 40.32 20.32 43.49 23.49 46.66C26.78 49.95 31.89 44.85 28.6 41.55L25.15 38.1H52.05C56.7 38.1 56.7 30.88 52.05 30.88H52.04Z" fill="#E1A9AF"/>
</svg>
