<svg width="78" height="92" viewBox="0 0 78 92" fill="none" xmlns="http://www.w3.org/2000/svg">
<g clip-path="url(#clip0_283_4454)">
<path d="M72.6401 28.1309C69.6566 31.6704 64.3399 32.1293 60.7681 29.1576C57.1963 26.1858 56.7208 20.9049 59.7043 17.3654C62.6904 13.8264 70.9621 12.3467 76.1763 10.8856C76.5722 15.2762 75.6258 24.5945 72.6397 28.1335L72.6401 28.1309Z" fill="#7D5436"/>
<path d="M12.6673 17.6037C14.2696 21.9481 19.1096 24.1898 23.48 22.6122C27.8504 21.0346 30.096 16.2314 28.4963 11.8873C26.8945 7.54033 19.6187 3.33155 15.2164 0.182436C13.3489 4.17573 11.0651 13.2592 12.6673 17.6037Z" fill="#7D5436"/>
<path d="M72.4032 25.7656C70.4048 28.1333 66.7817 28.3841 64.3062 26.3259C61.8311 24.2651 61.4456 20.6763 63.4415 18.3082C65.4398 15.9406 71.0715 15.0317 74.6156 14.0985C74.9372 17.084 74.399 23.3975 72.4032 25.7656Z" fill="#DB9861"/>
<path d="M13.6957 15.4604C14.7682 18.3671 18.0893 19.8369 21.1178 18.7448C24.1468 17.6502 25.7314 14.4072 24.6615 11.501C23.5915 8.59469 18.6035 5.82173 15.5891 3.73731C14.2699 6.43473 12.6257 12.5541 13.6957 15.4604Z" fill="#DB9861"/>
<path d="M70.6071 48.6849C67.6001 65.8152 58.9477 87.1651 32.4565 82.515C5.96529 77.8648 5.10144 54.8445 8.10841 37.7142C11.1154 20.5839 27.5421 9.15135 44.8026 12.1812C62.063 15.211 73.6141 31.5546 70.6071 48.6849Z" fill="#B66C1A"/>
<path d="M56.1017 78.6839C55.2336 83.629 53.2748 87.5536 39.8774 86.3045C37.6758 86.0996 35.0352 86.9151 32.17 86.4122C29.9324 86.0194 28.0452 84.446 26.2281 84.0139C11.5699 80.5382 9.97734 75.8665 10.8763 70.7453C11.8868 64.9883 10.5162 56.9529 36.4699 61.5087C62.4236 66.0645 57.1122 72.927 56.1017 78.6839Z" fill="#DB9861"/>
<path d="M32.7147 84.3972C30.2894 83.9715 28.5073 82.9166 27.6663 82.1347C27.509 81.9887 27.4992 81.7422 27.6463 81.5838C27.793 81.428 28.0411 81.4189 28.201 81.5654C29.514 82.7854 33.3312 84.7212 38.3725 83.3245C38.5815 83.2665 38.796 83.3884 38.855 83.5961C38.914 83.8038 38.7918 84.0166 38.5828 84.0746C36.3816 84.683 34.3947 84.6895 32.7152 84.3947L32.7147 84.3972Z" fill="black"/>
<path d="M53.6721 60.5809C57.3653 61.2292 60.8608 58.8972 61.4796 55.3724C62.0983 51.8475 59.606 48.4644 55.9128 47.8162C52.2196 47.1679 48.7241 49.4998 48.1054 53.0247C47.4866 56.5496 49.979 59.9326 53.6721 60.5809Z" fill="black"/>
<path d="M53.3833 72.2408C52.0188 75.9513 48.4545 77.7546 45.6164 76.7196C42.7788 75.682 41.2273 72.0149 42.5923 68.3018C43.9572 64.5887 47.5215 62.7854 50.3591 63.823C53.1972 64.858 54.7482 68.5277 53.3807 72.2403L53.3833 72.2408Z" fill="#6A4424"/>
<path d="M46.2549 77.9607C45.9179 77.9015 45.586 77.8143 45.2572 77.6934C41.742 76.408 40.1052 72.0337 41.6103 67.9453C42.3444 65.953 43.6926 64.3291 45.4135 63.3759C47.1168 62.4328 49.0488 62.2404 50.7178 62.8518C52.3872 63.4606 53.7393 64.8506 54.4255 66.6658C55.1192 68.4981 55.0968 70.6047 54.3622 72.5995C52.9981 76.3075 49.5136 78.5327 46.2549 77.9607ZM49.3822 64.6305C48.4331 64.4639 47.3922 64.6549 46.4345 65.1868C45.151 65.8983 44.1367 67.1308 43.5738 68.661C42.4633 71.6793 43.5412 74.858 45.9751 75.7484C48.4121 76.6367 51.2934 74.9029 52.4038 71.8847C52.9662 70.3571 52.9918 68.7615 52.474 67.3917C52.0012 66.1429 51.1013 65.198 50.005 64.7977C49.8056 64.7259 49.5982 64.6684 49.3848 64.6309L49.3822 64.6305Z" fill="#DB9861"/>
<path d="M16.7816 65.816C16.8008 69.7694 19.5378 72.6788 22.5587 72.6722C25.58 72.6631 28.2877 69.7436 28.2664 65.7872C28.2476 61.8312 25.5106 58.9218 22.4893 58.9309C19.4684 58.9375 16.7602 61.8595 16.779 65.8155L16.7816 65.816Z" fill="#6A4424"/>
<path d="M21.5362 73.6191C18.2775 73.0471 15.7565 69.7677 15.7369 65.8168C15.7251 63.6936 16.4245 61.7032 17.6982 60.2163C18.9616 58.7433 20.7067 57.8943 22.4837 57.8904C24.2585 57.8836 26.0121 58.723 27.2919 60.1924C28.5827 61.6742 29.3003 63.6581 29.309 65.7834C29.3312 70.1426 26.3055 73.6957 22.5626 73.7071C22.2124 73.7088 21.8679 73.6773 21.5336 73.6186L21.5362 73.6191ZM17.8268 65.8126C17.8428 69.0286 19.9666 71.6409 22.5552 71.6348C25.1469 71.6265 27.2403 69.0045 27.2242 65.7885C27.2157 64.1606 26.6796 62.6533 25.7178 61.5477C24.8372 60.5378 23.6654 59.9637 22.4983 59.9667C21.3313 59.9698 20.1633 60.5516 19.2935 61.5647C18.3406 62.6738 17.8212 64.1826 17.8293 65.813L17.8268 65.8126Z" fill="#DB9861"/>
<path d="M20.751 54.802C24.4442 55.4503 27.9397 53.1183 28.5584 49.5934C29.1772 46.0685 26.6848 42.6855 22.9917 42.0372C19.2985 41.3889 15.803 43.7209 15.1842 47.2458C14.5655 50.7707 17.0578 54.1537 20.751 54.802Z" fill="black"/>
<path d="M21.1544 52.5043C23.5691 52.9282 25.8477 51.443 26.2437 49.1871C26.6397 46.9312 25.0032 44.7588 22.5884 44.3349C20.1736 43.911 17.895 45.3962 17.4991 47.6521C17.1031 49.908 18.7396 52.0804 21.1544 52.5043Z" fill="black"/>
<path d="M23.2528 47.3464C23.892 47.4586 24.5005 47.0352 24.6119 46.4007C24.7233 45.7663 24.2954 45.1609 23.6562 45.0487C23.017 44.9365 22.4085 45.3599 22.2971 45.9944C22.1857 46.6289 22.6136 47.2342 23.2528 47.3464Z" fill="white"/>
<path d="M56.174 53.1252C56.8132 53.2374 57.4217 52.814 57.533 52.1795C57.6444 51.5451 57.2165 50.9398 56.5773 50.8276C55.9381 50.7153 55.3296 51.1387 55.2183 51.7732C55.1069 52.4077 55.5348 53.013 56.174 53.1252Z" fill="white"/>
<path d="M39.4864 43.2221C34.2598 34.9362 36.2556 18.8389 38.6241 11.8862C42.3427 11.0915 51.4449 13.6103 52.3393 14.5568C48.8111 38.8852 42.3214 42.9303 41.9298 43.651C40.9565 44.6644 39.4864 43.2221 39.4864 43.2221Z" fill="#D9D9D9"/>
<path d="M34.4209 31.1486C21.5232 24.6819 25.987 16.2285 30.0801 12.2285C38.9345 8.4564 58.6214 12.1016 60.513 17.8337C60.513 17.8337 60.8653 18.364 61.0381 19.3733C61.4137 21.5682 59.1384 26.3899 59.5416 29.1371C53.0354 28.5792 51.5373 23.7925 51.6008 21.4668C47.3639 21.4231 45.416 27.5812 44.9755 30.6645C37.2846 27.446 37.5552 22.5513 38.6512 20.5068C33.4724 21.1162 33.6762 27.8547 34.4235 31.1491L34.4209 31.1486Z" fill="#E0A644"/>
</g>
<defs>
<clipPath id="clip0_283_4454">
<rect width="64" height="82" fill="white" transform="translate(14.1771) rotate(9.956)"/>
</clipPath>
</defs>
</svg>
