<svg width="120" height="98" viewBox="0 0 120 98" fill="none" xmlns="http://www.w3.org/2000/svg">
<mask id="mask0_283_4427" style="mask-type:luminance" maskUnits="userSpaceOnUse" x="0" y="0" width="120" height="98">
<path d="M105.414 2.45082e-05L0 18.3372L13.7095 97.1486L119.124 78.8115L105.414 2.45082e-05Z" fill="white"/>
</mask>
<g mask="url(#mask0_283_4427)">
<path d="M9.16985 35.4373C9.16985 35.4373 -1.46219 54.4642 13.355 59.4963C28.1721 64.5283 22.0757 73.1983 30.6432 72.9049C39.2108 72.6115 39.7144 59.4772 39.7144 59.4772C39.7144 59.4772 27.6998 42.8693 30.5501 33.0246C33.4004 23.1799 33.547 24.0228 33.547 24.0228C33.547 24.0228 25.9016 17.9597 9.16985 35.4373Z" fill="#758481"/>
<path d="M9.13073 35.2124C9.13073 35.2124 20.6062 16.6627 32.5191 22.4852C32.5191 22.4852 27.572 30.4765 30.8232 41.8804C30.8232 41.8804 27.0751 24.7055 9.13073 35.2124Z" fill="#5A6964"/>
<path d="M31.6017 25.9555C31.6017 25.9555 21.9153 21.2737 9.37671 35.1697C9.37671 35.1697 15.0141 20.9462 23.3796 19.491C31.745 18.0358 36.5727 21.0161 36.5727 21.0161L31.6017 25.9555Z" fill="#949A90"/>
<path d="M102.3 17.7091C102.3 17.7091 118.732 32.0281 106.485 41.7681C94.2374 51.5081 102.904 57.6101 94.7402 60.2271C86.5768 62.8441 81.6675 50.6514 81.6675 50.6514C81.6675 50.6514 87.368 30.9619 81.3607 22.658C75.3535 14.354 75.5001 15.1969 75.5001 15.1969C75.5001 15.1969 80.6489 6.90824 102.3 17.7091Z" fill="#758481"/>
<path d="M103.257 18.839C103.257 18.839 86.1914 5.25403 76.9445 14.7573C76.9445 14.7573 84.2996 20.6086 85.0903 32.4405C85.0903 32.4405 82.8185 15.0089 103.257 18.839Z" fill="#5A6964"/>
<path d="M79.4718 17.6283C79.4718 17.6283 87.0083 9.95058 103.503 18.7961C103.503 18.7961 93.3935 7.31185 85.028 8.76704C76.6626 10.2222 73.1248 14.6577 73.1248 14.6577L79.4718 17.6283Z" fill="#949A90"/>
<path d="M88.249 33.9284C91.1342 50.5148 88.3065 64.8607 63.5792 69.1621C38.8519 73.4634 31.3459 60.9151 28.4606 44.3287C25.5754 27.7423 36.6209 11.9669 53.1304 9.09499C69.6398 6.22313 85.3637 17.3419 88.249 33.9284Z" fill="#949A90"/>
<path d="M77.1461 50.2485C80.6792 49.6339 83.062 46.3697 82.4682 42.956C81.8744 39.5423 78.5293 37.2744 74.9961 37.889C71.4629 38.5036 69.0802 41.7679 69.674 45.1816C70.2678 48.5953 73.6129 50.8631 77.1461 50.2485Z" fill="black"/>
<path d="M45.6527 55.7269C49.1858 55.1123 51.5686 51.8481 50.9748 48.4344C50.381 45.0207 47.0359 42.7528 43.5027 43.3674C39.9695 43.982 37.5868 47.2463 38.1806 50.66C38.7744 54.0737 42.1195 56.3415 45.6527 55.7269Z" fill="black"/>
<path d="M45.2656 53.5022C47.576 53.1003 49.1405 51.0047 48.7603 48.8195C48.3802 46.6344 46.2 45.1902 43.8896 45.5921C41.5793 45.994 40.0148 48.0896 40.3949 50.2747C40.775 52.4599 42.9553 53.9041 45.2656 53.5022Z" fill="black"/>
<path d="M45.4699 48.1187C46.0825 48.0121 46.4907 47.4292 46.3836 46.8137C46.2765 46.1982 45.6955 45.7874 45.0829 45.8939C44.4703 46.0005 44.0621 46.5834 44.1692 47.1989C44.2763 47.8144 44.8572 48.2252 45.4699 48.1187Z" fill="white"/>
<path d="M76.9633 42.6403C77.5759 42.5337 77.9841 41.9508 77.877 41.3353C77.7699 40.7198 77.189 40.309 76.5763 40.4156C75.9637 40.5221 75.5555 41.105 75.6626 41.7205C75.7697 42.336 76.3507 42.7468 76.9633 42.6403Z" fill="white"/>
<path d="M49.4383 60.2943C51.1885 63.3464 52.9411 66.398 54.6909 69.4476C55.6513 71.1218 56.6337 72.8635 56.8163 74.7876C56.9989 76.7117 56.1379 78.8734 54.3498 79.5817C52.5617 80.29 50.1234 78.7176 50.504 76.8254C50.7274 75.7195 50.2799 74.692 49.3486 74.0595C49.1096 73.8948 46.6856 74.5762 46.3961 74.5731C43.0303 74.5321 41.1505 76.2725 39.3278 79.1133C38.6759 80.1308 39.8538 81.3648 40.1758 82.5312C40.4015 83.3476 42.1899 84.2589 42.862 84.771C50.6663 90.7276 63.4253 90.9809 70.6589 84.3593C70.6589 84.3593 83.9497 75.6042 70.7952 56.5817C62.4627 44.5286 49.4363 60.2972 49.4363 60.2972L49.4387 60.2967L49.4383 60.2943Z" fill="#949A90"/>
<path d="M75.4625 63.988C75.3693 64.297 77.1295 66.1683 79.6329 65.9875C82.1364 65.8067 78.1208 61.6664 78.1208 61.6664C78.1208 61.6664 76.4156 60.84 75.4625 63.988Z" fill="#FEFFCF"/>
<path d="M53.401 68.5897C53.5931 68.8491 52.5682 71.2048 50.1507 71.88C47.7333 72.5552 50.1149 67.3022 50.1149 67.3022C50.1149 67.3022 51.4409 65.9485 53.401 68.5897Z" fill="#FEFFCF"/>
<path d="M71.5236 64.6452C67.6891 63.7027 63.5733 64.4798 60.2926 66.6625C59.3658 67.2796 58.5306 68.0157 57.7814 68.8387C57.643 68.9902 57.7219 69.254 57.8726 69.3628C58.0551 69.494 58.2578 69.4206 58.3942 69.2721C60.8541 66.5674 64.5137 65.0038 68.1538 64.9895C69.1976 64.9862 70.2464 65.0991 71.2634 65.3501C71.7271 65.4655 71.9922 64.7598 71.5236 64.6452Z" fill="#858981"/>
<path d="M71.8696 70.6562C70.835 70.2021 69.6988 70.2571 68.5994 70.349C67.5099 70.4392 66.4185 70.5476 65.3395 70.7276C63.1894 71.0889 61.0546 71.771 59.3599 73.1914C58.9907 73.5026 59.4736 74.0782 59.8428 73.767C61.4375 72.4276 63.4464 71.8082 65.4685 71.4692C66.4782 71.2987 67.4994 71.1949 68.5208 71.1063C69.5421 71.0178 70.6296 70.9305 71.609 71.3586C72.0532 71.5513 72.3109 70.8469 71.8692 70.6537L71.8696 70.6562Z" fill="#858981"/>
</g>
</svg>
