<svg width="78" height="91" viewBox="0 0 78 91" fill="none" xmlns="http://www.w3.org/2000/svg">
<path d="M77.08 41.4905C80.06 62.6405 75.86 80.7205 44.18 85.1905C12.5 89.6605 3.46001 73.4405 0.480009 52.2905C-2.49999 31.1405 12.23 11.5705 33.38 8.59048C54.53 5.61048 74.1 20.3405 77.08 41.4905Z" fill="#A46C44"/>
<path d="M61.9468 61.7826C66.4748 61.1438 69.6477 57.097 69.0336 52.744C68.4195 48.3909 64.2509 45.3798 59.7229 46.0186C55.1948 46.6574 52.0219 50.7042 52.636 55.0572C53.2501 59.4103 57.4187 62.4214 61.9468 61.7826Z" fill="black"/>
<path d="M21.5973 67.4733C26.1253 66.8345 29.2982 62.7878 28.6841 58.4347C28.07 54.0817 23.9015 51.0706 19.3734 51.7094C14.8453 52.3482 11.6724 56.395 12.2865 60.748C12.9006 65.1011 17.0692 68.1121 21.5973 67.4733Z" fill="black"/>
<path d="M21.1964 64.6315C24.1549 64.2141 26.235 61.6192 25.8423 58.8356C25.4496 56.0521 22.7329 54.1339 19.7743 54.5513C16.8157 54.9687 14.7357 57.5635 15.1284 60.3471C15.5211 63.1307 18.2378 65.0488 21.1964 64.6315Z" fill="black"/>
<path d="M21.48 57.8405C22.2698 57.8405 22.91 57.2002 22.91 56.4105C22.91 55.6207 22.2698 54.9805 21.48 54.9805C20.6903 54.9805 20.05 55.6207 20.05 56.4105C20.05 57.2002 20.6903 57.8405 21.48 57.8405Z" fill="white"/>
<path d="M61.83 52.1505C62.6198 52.1505 63.26 51.5103 63.26 50.7205C63.26 49.9308 62.6198 49.2905 61.83 49.2905C61.0402 49.2905 60.4 49.9308 60.4 50.7205C60.4 51.5103 61.0402 52.1505 61.83 52.1505Z" fill="white"/>
<path d="M35.13 83.9004C36.07 79.6504 37.82 75.5904 37.35 74.5804L47.28 73.1804C47.09 75.2404 50.19 79.2304 51.52 80.4604C53.18 81.9904 55.71 88.5504 50.76 89.8904C45.81 91.2304 45.01 84.4304 43.7 87.6704C42.39 90.9104 33.95 89.2104 35.13 83.9004Z" fill="#E72323"/>
<path d="M43.8 83.6405C42.85 83.7705 32.56 73.8705 31.62 72.5005L52.4 70.5305C51.96 71.9805 44.75 83.5005 43.8 83.6405Z" fill="#D68123"/>
<path d="M37.44 69.7504C36.28 71.5804 31.72 71.9404 31.45 72.8504C31.18 74.9104 42.09 82.6004 43.72 82.3704C45.35 82.1404 54.14 69.6504 52.41 69.8904C50.68 70.1304 47.35 69.8904 45.84 68.3404C44.64 67.1004 42.67 67.0904 41.33 67.2704C39.99 67.4504 38.59 67.9104 37.44 69.7504Z" fill="#FB9728"/>
<path d="M44.5262 71.6328C44.7887 71.5958 44.912 70.9318 44.8017 70.1498C44.6914 69.3678 44.3892 68.7638 44.1267 68.8009C43.8642 68.8379 43.7408 69.5019 43.8511 70.2839C43.9615 71.0659 44.2637 71.6699 44.5262 71.6328Z" fill="#D68123"/>
<path d="M40.116 72.2528C40.3785 72.2158 40.5019 71.5518 40.3916 70.7698C40.2813 69.9878 39.979 69.3838 39.7165 69.4209C39.454 69.4579 39.3306 70.1219 39.441 70.9039C39.5513 71.6859 39.8535 72.2899 40.116 72.2528Z" fill="#D68123"/>
<path d="M45.1 23.3405C40.78 23.6905 43.37 32.7505 37.07 33.6405C30.77 34.5305 32.6 17.8705 33.28 13.6005C34.72 4.56048 32.61 8.87048 28.12 6.61048C25.63 5.36048 26.08 -0.589521 32.43 0.700479C37.18 1.66048 37.29 8.48048 36.31 14.2405C37.35 10.7705 38.98 6.87048 41.2 4.77048C45.6 0.61048 48.3 10.6805 42.47 13.7505C37.8 16.2105 36.31 23.6205 36.14 27.0205C36.37 24.8405 38.34 20.0205 44.37 18.1405C51.92 15.7905 50.51 22.9005 45.1 23.3405Z" fill="#E72323"/>
</svg>
