<svg width="102" height="105" viewBox="0 0 102 105" fill="none" xmlns="http://www.w3.org/2000/svg">
<g clip-path="url(#clip0_283_4352)">
<path d="M26.59 10.4849C32.9878 8.97314 40.9644 11.3889 44.1525 12.7845C46.0204 7.40898 55.8447 4.9109 60.5233 4.33548C60.0891 4.59978 59.4351 5.37731 60.2871 6.38997C61.1417 7.4022 61.0409 9.24145 60.8859 10.0362C63.4461 7.02373 69.3736 2.42089 72.6001 8.11226C75.8267 13.8036 85.4596 17.8076 89.8716 19.1013C90.9078 22.6167 87.8153 27.5045 86.1377 29.5062C91.2641 32.8109 92.8735 41.4564 93.0377 45.3643C91.586 44.1606 87.665 43.3867 84.7303 42.9975C86.9199 43.4635 89.3082 44.7009 89.0852 47.4528C88.7839 51.1906 92.9418 58.1497 95.061 61.1602C92.7512 63.8447 87.7153 62.9429 85.4863 62.1564C86.8309 64.5276 88.8863 70.1057 87.2844 71.366C85.1606 73.0389 84.3945 76.4483 84.3452 79.6246C81.6252 80.0714 78.2903 76.0597 76.699 73.6165C77.4897 75.052 77.78 77.339 76.1457 79.8804C74.3195 82.716 74.6018 84.8247 75.3619 89.4523C72.534 91.7609 67.4971 86.9056 65.3328 84.1893C65.9971 85.3266 66.5722 87.9019 63.56 89.0881C60.5479 90.2744 58.6088 94.9888 58.0191 97.1978C58.036 95.5627 57.2359 92.4293 53.8897 92.9789C50.5436 93.5284 48.3167 89.8628 47.6228 87.9611C47.6157 92.1089 42.1297 94.6235 39.3853 95.361C39.6188 94.4596 39.3616 92.0814 36.4672 89.7933C33.7535 87.647 33.033 83.4551 32.9945 81.2715C32.8733 85.8294 29.0998 88.3255 27.1746 89.0143C26.8971 87.9099 25.7204 85.0502 23.2355 82.4616C20.7485 79.876 20.4433 75.3372 20.601 73.3894C19.5454 76.4818 14.2936 75.7602 11.6045 74.9662C11.5327 74.9511 11.4621 74.9279 11.3964 74.9012C11.4639 74.9222 11.534 74.9429 11.6045 74.9662C12.6296 75.1811 14.056 74.0864 12.8468 68.0396C11.5547 61.5695 14.3029 56.5667 15.8393 54.875C13.8702 54.0458 10.3968 57.7845 8.90925 59.7577C5.49611 54.3275 8.58794 45.6015 10.563 41.9185C6.80393 41.3833 4.04612 35.9795 3.1357 33.344C4.57846 32.8203 7.63735 31.1063 8.34678 28.4568C12.4602 13.0361 22.7755 13.4139 27.419 15.5327C26.1202 14.5935 26.3247 11.7776 26.59 10.4849Z" fill="#67422D"/>
<path d="M85.7309 22.0697C88.1391 15.6486 85.5679 8.72609 79.9879 6.60778C74.408 4.48947 67.9324 7.97755 65.5242 14.3986C63.116 20.8197 65.6872 27.7423 71.2672 29.8606C76.8471 31.9789 83.3227 28.4908 85.7309 22.0697Z" fill="#E0A03B"/>
<path d="M23.9858 37.6254C28.5951 33.8336 28.817 26.4523 24.4816 21.1388C20.1461 15.8253 12.895 14.5916 8.28575 18.3834C3.67649 22.1752 3.45452 29.5565 7.78996 34.87C12.1254 40.1835 19.3765 41.4171 23.9858 37.6254Z" fill="#E0A03B"/>
<path d="M83.9644 22.3284C85.6553 17.8199 83.8265 12.9505 79.8797 11.4522C75.9329 9.95388 71.3627 12.3941 69.6719 16.9025C67.9811 21.4109 69.8098 26.2803 73.7566 27.7786C77.7034 29.2769 82.2736 26.8368 83.9644 22.3284Z" fill="#7D5436"/>
<path d="M20.9604 36.4504C24.2206 33.7684 24.3958 28.5699 21.3518 24.8391C18.3078 21.1083 13.1972 20.2581 9.93695 22.9401C6.67674 25.6221 6.50149 30.8206 9.54553 34.5514C12.5896 38.2822 17.7002 39.1324 20.9604 36.4504Z" fill="#7D5436"/>
<path d="M81.2247 44.2002C83.6265 58.8242 75.7971 72.7537 62.9987 78.6191C60.4679 79.7799 58.5647 83.1696 55.6862 83.6424C52.8076 84.1151 49.1408 81.6402 46.3717 81.3498C32.3696 79.8862 20.4961 69.1927 18.0943 54.5686C15.2179 37.0553 27.619 24.1896 45.0513 21.3265C62.4836 18.4635 78.3483 26.6868 81.2247 44.2002Z" fill="#E0A03B"/>
<path d="M69.098 61.3363C72.8285 60.7236 75.3729 57.3055 74.781 53.7018C74.1891 50.0981 70.6852 47.6734 66.9546 48.2861C63.2241 48.8988 60.6798 52.3169 61.2716 55.9206C61.8635 59.5243 65.3675 61.949 69.098 61.3363Z" fill="black"/>
<path d="M35.8442 66.798C39.5747 66.1853 42.1191 62.7672 41.5272 59.1635C40.9354 55.5598 37.4314 53.1351 33.7009 53.7478C29.9703 54.3605 27.426 57.7786 28.0178 61.3823C28.6097 64.986 32.1137 67.4107 35.8442 66.798Z" fill="black"/>
<path d="M35.4583 64.4489C37.8975 64.0483 39.5678 61.8538 39.189 59.5475C38.8102 57.2411 36.5258 55.6962 34.0866 56.0968C31.6474 56.4974 29.9771 58.6918 30.3559 60.9982C30.7347 63.3046 33.0191 64.8495 35.4583 64.4489Z" fill="black"/>
<path d="M35.7272 58.7758C36.3729 58.6698 36.81 58.0579 36.7034 57.4093C36.5969 56.7606 35.9871 56.3207 35.3414 56.4268C34.6958 56.5328 34.2587 57.1446 34.3653 57.7933C34.4718 58.442 35.0816 58.8818 35.7272 58.7758Z" fill="white"/>
<path d="M68.9812 53.3143C69.6268 53.2082 70.0639 52.5964 69.9573 51.9477C69.8508 51.2991 69.241 50.8592 68.5954 50.9652C67.9497 51.0713 67.5126 51.6831 67.6192 52.3317C67.7257 52.9804 68.3355 53.4203 68.9812 53.3143Z" fill="white"/>
<path d="M55.3601 82.3557C48.1767 83.5355 46.3892 74.536 44.1499 70.2586C47.8862 73.9203 51.1138 69.8225 52.5517 67.8065C57.4253 71.6513 61.2993 69.3773 62.3356 67.2718C61.5067 72.0532 62.5434 81.176 55.3601 82.3557Z" fill="black"/>
<path d="M58.905 74.0003L57.504 70.3438L59.1927 70.0664L58.905 74.0003Z" fill="white"/>
<path d="M49.2926 75.579L47.8916 71.9225L49.5803 71.6451L49.2926 75.579Z" fill="white"/>
<path d="M54.8782 81.0947C52.2387 81.5282 50.0036 79.4534 49.2162 78.3631C52.6792 72.7739 58.1072 74.8121 60.3874 76.5284C59.6524 77.8687 57.5203 80.6607 54.8782 81.0947Z" fill="#F34FA5"/>
<path d="M58.8231 71.0652C61.908 70.5586 64.0249 67.8108 63.5514 64.9278C63.0779 62.0448 60.1933 60.1185 57.1084 60.6251C54.0236 61.1318 51.9067 63.8796 52.3802 66.7626C52.8537 69.6455 55.7383 71.5719 58.8231 71.0652Z" fill="#FFE5B9"/>
<path d="M47.9117 72.8572C50.9966 72.3506 53.1135 69.6028 52.64 66.7198C52.1665 63.8368 49.2819 61.9104 46.1971 62.4171C43.1122 62.9238 40.9953 65.6716 41.4688 68.5545C41.9423 71.4375 44.8269 73.3639 47.9117 72.8572Z" fill="#FFE5B9"/>
<path d="M57.051 59.4632C57.397 61.5695 55.6536 66.2249 52.64 66.7199C49.6263 67.2148 46.4855 63.3616 46.1396 61.2553C45.7937 59.149 47.9545 57.0357 50.9682 56.5407C53.9818 56.0458 56.7047 57.3543 57.051 59.4632Z" fill="#9F5937"/>
<path d="M57.8633 75.7796L57.7054 79.6921L58.9843 78.544L57.8633 75.7796Z" fill="white"/>
<path d="M51.454 77.3684L51.4274 80.4553L52.9849 81.0036L51.454 77.3684Z" fill="white"/>
<path d="M78.5325 35.931C75.4082 29.9038 67.0438 24.4612 63.2519 22.492L65.8388 15.5001C66.5569 21.1719 78.1545 28.2198 83.8648 31.0345L78.5325 35.931Z" fill="#67422D"/>
<path d="M18.1312 45.047C19.1636 38.3372 26.3 30.6168 29.2628 27.5382L26.418 19.9641C27.5518 25.5676 16.0229 37.62 11.5129 42.1133L18.1312 45.047Z" fill="#67422D"/>
<path d="M46.506 71.3325C46.4073 71.3487 46.3025 71.3284 46.2117 71.2629C46.0336 71.1367 45.9929 70.8887 46.1209 70.7095L46.2011 70.5972C46.3265 70.4184 46.5733 70.3779 46.7519 70.5067C46.93 70.6329 46.9708 70.8809 46.8428 71.0601L46.7625 71.1724C46.6996 71.2605 46.6047 71.3163 46.506 71.3325Z" fill="black"/>
<path d="M43.9827 67.9085L43.8866 67.9243C43.671 67.9597 43.4682 67.8135 43.4326 67.5968C43.397 67.3802 43.5423 67.1767 43.758 67.1413L43.8541 67.1255C44.0697 67.0901 44.2725 67.2364 44.3081 67.453C44.3437 67.6697 44.1983 67.8731 43.9827 67.9085Z" fill="black"/>
<path d="M47.0587 68.1994C46.9547 68.2165 46.8409 68.1896 46.7489 68.1163C46.5772 67.981 46.5564 67.7244 46.6909 67.5522C46.7902 67.426 46.886 67.3754 46.9549 67.34L46.9843 67.3244C47.175 67.2181 47.416 67.2884 47.5195 67.4804C47.6257 67.6721 47.5561 67.914 47.365 68.0178L47.2939 68.0563C47.2324 68.1361 47.1466 68.1823 47.0556 68.1972L47.0587 68.1994Z" fill="black"/>
<path d="M57.4922 69.0376L57.3961 69.0534C57.1805 69.0888 56.9777 68.9425 56.9421 68.7259C56.9065 68.5092 57.0519 68.3058 57.2675 68.2703L57.3636 68.2546C57.5793 68.2191 57.782 68.3654 57.8176 68.5821C57.8532 68.7987 57.7079 69.0022 57.4922 69.0376Z" fill="black"/>
<path d="M60.2756 67.4975C60.1327 67.521 59.9817 67.4627 59.8919 67.3381L59.764 67.1607C59.6362 66.9833 59.6781 66.7352 59.8545 66.6071C60.0309 66.4789 60.278 66.5214 60.4058 66.6988L60.5337 66.8761C60.6615 67.0535 60.6196 67.3016 60.4432 67.4298C60.3934 67.4674 60.3357 67.4903 60.276 67.5001L60.2756 67.4975Z" fill="black"/>
<path d="M57.7206 65.6523C57.6219 65.6685 57.5172 65.6481 57.4268 65.5853C57.2487 65.459 57.208 65.2111 57.3359 65.0319L57.4162 64.9196C57.5416 64.7408 57.7884 64.7003 57.967 64.8291C58.1451 64.9553 58.1858 65.2033 58.0579 65.3824L57.9776 65.4948C57.9151 65.5855 57.8198 65.6387 57.7185 65.6553L57.7206 65.6523Z" fill="black"/>
</g>
<defs>
<clipPath id="clip0_283_4352">
<rect width="87.9343" height="91.2526" fill="white" transform="translate(0 14.2513) rotate(-9.32691)"/>
</clipPath>
</defs>
</svg>
