<svg width="88" height="72" viewBox="0 0 88 72" fill="none" xmlns="http://www.w3.org/2000/svg">
<path d="M79.25 40.6005C76.76 59.9905 60.87 73.9205 37.55 70.9205C14.23 67.9205 3.95004 50.6205 6.45004 31.2405C8.94004 11.8505 31.48 -1.2195 46.59 0.720498C61.7 2.6605 81.75 21.2205 79.26 40.6005H79.25Z" fill="#F787BF"/>
<path d="M57.57 59.6904C56.47 65.3804 56.41 73.4104 36.25 69.5204C16.09 65.6404 19.72 58.2904 20.82 52.6104C21.92 46.9204 28.98 43.5004 40.82 45.7804C52.67 48.0604 58.67 54.0004 57.57 59.6904Z" fill="#FC9BCE"/>
<path d="M68.6323 45.5507C69.1453 41.5629 66.1996 37.8978 62.053 37.3644C57.9064 36.831 54.129 39.6313 53.6161 43.6191C53.1031 47.6069 56.0488 51.272 60.1954 51.8054C64.342 52.3388 68.1194 49.5385 68.6323 45.5507Z" fill="black"/>
<path d="M29.669 38.548C30.1819 34.5603 27.2363 30.8951 23.0896 30.3617C18.943 29.8283 15.1657 32.6286 14.6527 36.6164C14.1397 40.6042 17.0854 44.2693 21.232 44.8027C25.3786 45.3361 29.156 42.5358 29.669 38.548Z" fill="black"/>
<path d="M66.02 43.1505C66.7435 43.1505 67.33 42.564 67.33 41.8405C67.33 41.117 66.7435 40.5305 66.02 40.5305C65.2965 40.5305 64.71 41.117 64.71 41.8405C64.71 42.564 65.2965 43.1505 66.02 43.1505Z" fill="white"/>
<path d="M25.8701 36.2904C26.5935 36.2904 27.1801 35.7039 27.1801 34.9804C27.1801 34.2569 26.5935 33.6704 25.8701 33.6704C25.1466 33.6704 24.5601 34.2569 24.5601 34.9804C24.5601 35.7039 25.1466 36.2904 25.8701 36.2904Z" fill="white"/>
<path d="M50.3 58.1404C49.77 60.9004 47.95 62.8804 46.25 62.5504C44.54 62.2204 44.62 59.9104 45.15 57.1504C45.68 54.3904 46.47 52.2104 48.17 52.5404C49.87 52.8704 50.83 55.3804 50.29 58.1404H50.3Z" fill="#F34FA5"/>
<path d="M28.5699 53.9606C28.0399 56.7206 28.9899 59.2306 30.6899 59.5606C32.3999 59.8906 33.1799 57.7206 33.7099 54.9506C34.2399 52.1806 34.3199 49.8806 32.6099 49.5506C30.8999 49.2206 29.0899 51.2006 28.5599 53.9606H28.5699Z" fill="#F34FA5"/>
<path d="M74.5401 23.5503C74.0001 21.3703 71.99 19.4003 71.05 18.7003C71.27 17.0103 72.5101 13.7503 75.7401 14.1603C78.8401 14.5603 79.1601 19.0103 78.9101 21.4503C79.9401 21.3503 79.4001 21.5903 78.8801 21.7503C78.8901 21.6503 78.9001 21.5503 78.9101 21.4503C78.6401 21.4803 78.2501 21.5203 77.7201 21.6003C75.2001 21.9803 74.5501 23.0503 74.5301 23.5403L74.5401 23.5503Z" fill="#BB6590"/>
<path d="M71.0601 18.7004C72.0001 19.4104 74.01 21.3704 74.55 23.5504C74.56 23.0604 75.2201 21.9904 77.7401 21.6104C80.2601 21.2304 79.5601 21.5504 78.9001 21.7604C79.2001 19.4004 79.0001 14.5804 75.7701 14.1604C72.5301 13.7404 71.29 17.0104 71.08 18.7004H71.0601Z" stroke="#F787BF"/>
<path d="M13.9099 16.6304C14.9899 14.6504 17.4299 13.2604 18.5099 12.8204C18.7299 11.1304 18.3499 7.66038 15.1199 7.24038C11.8899 6.82038 10.5899 11.0704 10.2099 13.5004C9.22993 13.1504 9.69995 13.5104 10.17 13.8004C10.18 13.7004 10.1999 13.6004 10.2099 13.5004C10.4699 13.5904 10.8299 13.7404 11.3199 13.9504C13.6599 14.9604 14.0199 16.1604 13.9099 16.6304Z" fill="#BB6590"/>
<path d="M18.5099 12.8205C17.4199 13.2705 14.9799 14.6605 13.9099 16.6305C14.0199 16.1505 13.6599 14.9505 11.3199 13.9505C8.97994 12.9405 9.57994 13.4305 10.1599 13.8005C10.4599 11.4405 11.8799 6.83048 15.1199 7.24048C18.3599 7.66048 18.7299 11.1305 18.5099 12.8205Z" stroke="#F787BF"/>
<path d="M75.64 16.1506C73.76 13.4406 71.6099 16.6606 70.7699 18.6106L63.4299 10.6206C75.9899 4.3106 83.8099 10.8906 84.0199 17.2306C84.1899 22.3006 86.5999 24.9506 87.7799 25.6406C77.0999 31.0206 77.99 19.5406 75.64 16.1506Z" fill="#F787BF"/>
<path d="M14.72 9.19051C17.23 7.05051 18.49 10.7005 18.81 12.8005L27.94 6.93051C17.39 -2.35949 8.15998 2.04051 6.34998 8.12051C4.89998 12.9905 1.89996 14.9405 0.579956 15.3105C9.54996 23.2205 11.59 11.8805 14.73 9.20051L14.72 9.19051Z" fill="#F787BF"/>
</svg>
