<svg width="275" height="296" viewBox="0 0 275 296" fill="none" xmlns="http://www.w3.org/2000/svg">
<g clip-path="url(#clip0_297_707)">
<path d="M149.23 240.46C210.766 240.46 260.65 190.576 260.65 129.04C260.65 67.5044 210.766 17.62 149.23 17.62C87.6945 17.62 37.8101 67.5044 37.8101 129.04C37.8101 190.576 87.6945 240.46 149.23 240.46Z" fill="#9EE6B3"/>
<path d="M67.8799 205.16L220.57 81.23C220.57 81.23 222.5 83.01 225.04 81.23C228.21 79.01 242.21 68.01 242.21 68.01L239.54 63.76L224.14 76.55C224.14 76.55 224.14 77.38 221.68 76.69L220.39 75.3L67.6699 202.11L66.9499 201.25L65.1299 202.1L67.8799 205.15V205.16Z" fill="#94D3A5"/>
<path d="M245.551 54.4272L220.882 24.713L42.9813 172.409L67.6505 202.123L245.551 54.4272Z" fill="#E2CF64"/>
<path d="M273.978 26.4224L252.567 0.632176C251.964 -0.09445 250.886 -0.194466 250.159 0.408791L220.499 25.0333C219.772 25.6365 219.672 26.7146 220.275 27.4413L241.687 53.2315C242.29 53.9582 243.368 54.0582 244.095 53.4549L273.755 28.8304C274.482 28.2271 274.582 27.1491 273.978 26.4224Z" fill="#FF7676"/>
<path d="M225.407 71.1508L213.609 56.9399L55.8512 187.913L67.6492 202.124L225.407 71.1508Z" fill="#F9E96D"/>
<path d="M67.97 200.79L0 232.59L43.76 171.62" fill="#CDA998"/>
<path d="M256.424 47.0416L230.139 15.3808C229.402 14.4927 228.084 14.3705 227.196 15.1078L195.166 41.6997C194.278 42.437 194.155 43.7547 194.893 44.6428L221.178 76.3036C221.915 77.1917 223.233 77.3139 224.121 76.5766L256.151 49.9847C257.039 49.2474 257.162 47.9297 256.424 47.0416Z" fill="#ABB9BA"/>
<path d="M42.3301 171.04C44.1201 169.99 45.9401 168.93 47.8501 168.33C49.7601 167.74 51.8001 167.68 53.1701 168.58C54.8901 169.72 55.1901 172.18 54.5301 174.48C53.8701 176.78 52.4201 178.97 51.0001 181.1C54.0301 179.04 57.6201 176.84 60.5801 177.57C61.6401 177.83 62.4901 178.45 63.1801 179.19C64.8901 181.02 65.7201 183.77 64.7501 186.6C64.0101 188.74 62.3601 190.68 60.7501 192.53C63.0501 190.97 65.2101 188.98 67.7401 188.14C70.2701 187.3 73.2601 188.39 72.8001 190.81C72.6201 191.78 71.9301 192.72 71.2701 193.59C69.7501 195.61 68.2401 197.62 66.7201 199.64C58.1601 189.89 49.4501 180.26 40.5901 170.76" fill="#CDA998"/>
<path d="M20.04 223.22C20.04 223.22 21.39 214.63 12.22 215.57L0 232.59L20.04 223.21V223.22Z" fill="black"/>
<path d="M244.467 53.1361L223.017 27.2997L221.34 28.6922L242.79 54.5286L244.467 53.1361Z" fill="#8F9999"/>
<path d="M235.607 56.1192L214.157 30.2827L212.48 31.6752L233.93 57.5117L235.607 56.1192Z" fill="#8F9999"/>
<path d="M93 292.02H86.81L85.75 295.04H83.22L88.52 280.23H91.33L96.63 295.04H94.08L93.02 292.02H93ZM92.32 290.04L89.92 283.17L87.49 290.04H92.32Z" fill="#A8A8A8"/>
<path d="M101.98 285.29V291.78C101.98 292.22 102.08 292.53 102.29 292.73C102.5 292.92 102.85 293.02 103.34 293.02H104.83V295.04H102.91C101.82 295.04 100.98 294.78 100.4 294.27C99.8199 293.76 99.5299 292.93 99.5299 291.78V285.29H98.1499V283.31H99.5299V280.39H101.98V283.31H104.83V285.29H101.98Z" fill="#A8A8A8"/>
<path d="M107.43 281.32C107.13 281.02 106.98 280.65 106.98 280.21C106.98 279.77 107.13 279.4 107.43 279.1C107.73 278.8 108.1 278.65 108.54 278.65C108.98 278.65 109.33 278.8 109.63 279.1C109.93 279.4 110.08 279.77 110.08 280.21C110.08 280.65 109.93 281.02 109.63 281.32C109.33 281.62 108.97 281.77 108.54 281.77C108.11 281.77 107.73 281.62 107.43 281.32ZM109.73 283.32V295.05H107.3V283.32H109.73Z" fill="#A8A8A8"/>
<path d="M117.69 292.87L121.01 283.31H123.58L119.11 295.04H116.22L111.77 283.31H114.37L117.69 292.87Z" fill="#A8A8A8"/>
<path d="M125.78 281.32C125.48 281.02 125.33 280.65 125.33 280.21C125.33 279.77 125.48 279.4 125.78 279.1C126.08 278.8 126.45 278.65 126.89 278.65C127.33 278.65 127.68 278.8 127.98 279.1C128.28 279.4 128.43 279.77 128.43 280.21C128.43 280.65 128.28 281.02 127.98 281.32C127.68 281.62 127.32 281.77 126.89 281.77C126.46 281.77 126.08 281.62 125.78 281.32ZM128.08 283.32V295.05H125.65V283.32H128.08Z" fill="#A8A8A8"/>
<path d="M131.43 286C131.92 285.09 132.59 284.39 133.43 283.88C134.27 283.37 135.21 283.12 136.25 283.12C137.02 283.12 137.77 283.29 138.52 283.62C139.27 283.95 139.86 284.4 140.3 284.95V279.29H142.75V295.04H140.3V293.27C139.9 293.84 139.35 294.31 138.65 294.68C137.95 295.05 137.14 295.23 136.23 295.23C135.21 295.23 134.28 294.97 133.43 294.45C132.58 293.93 131.92 293.21 131.43 292.28C130.94 291.35 130.7 290.3 130.7 289.12C130.7 287.94 130.94 286.9 131.43 285.99V286ZM139.79 287.06C139.46 286.46 139.02 286.01 138.48 285.7C137.94 285.39 137.36 285.23 136.73 285.23C136.1 285.23 135.52 285.38 134.98 285.69C134.44 286 134 286.44 133.67 287.03C133.34 287.62 133.17 288.32 133.17 289.13C133.17 289.94 133.34 290.65 133.67 291.26C134 291.87 134.44 292.33 134.99 292.65C135.54 292.97 136.11 293.13 136.72 293.13C137.33 293.13 137.93 292.97 138.47 292.66C139.01 292.35 139.45 291.89 139.78 291.29C140.11 290.69 140.28 289.98 140.28 289.17C140.28 288.36 140.11 287.66 139.78 287.06H139.79Z" fill="#A8A8A8"/>
<path d="M146.09 286C146.58 285.09 147.25 284.39 148.09 283.88C148.93 283.37 149.87 283.12 150.89 283.12C151.81 283.12 152.62 283.3 153.31 283.66C154 284.02 154.55 284.47 154.96 285.01V283.31H157.41V295.04H154.96V293.29C154.55 293.84 153.99 294.3 153.28 294.67C152.57 295.04 151.76 295.22 150.85 295.22C149.84 295.22 148.92 294.96 148.08 294.44C147.24 293.92 146.58 293.2 146.09 292.27C145.6 291.34 145.36 290.29 145.36 289.11C145.36 287.93 145.6 286.89 146.09 285.98V286ZM154.45 287.06C154.12 286.46 153.68 286.01 153.14 285.7C152.6 285.39 152.02 285.23 151.39 285.23C150.76 285.23 150.18 285.38 149.64 285.69C149.1 286 148.66 286.44 148.33 287.03C148 287.62 147.83 288.32 147.83 289.13C147.83 289.94 148 290.65 148.33 291.26C148.66 291.87 149.1 292.33 149.65 292.65C150.2 292.97 150.77 293.13 151.38 293.13C151.99 293.13 152.59 292.97 153.13 292.66C153.67 292.35 154.11 291.89 154.44 291.29C154.77 290.69 154.94 289.98 154.94 289.17C154.94 288.36 154.77 287.66 154.44 287.06H154.45Z" fill="#A8A8A8"/>
<path d="M160.75 286C161.24 285.09 161.91 284.39 162.75 283.88C163.59 283.37 164.53 283.12 165.57 283.12C166.34 283.12 167.09 283.29 167.84 283.62C168.59 283.95 169.18 284.4 169.62 284.95V279.29H172.07V295.04H169.62V293.27C169.22 293.84 168.67 294.31 167.97 294.68C167.27 295.05 166.46 295.23 165.55 295.23C164.53 295.23 163.6 294.97 162.75 294.45C161.9 293.93 161.24 293.21 160.75 292.28C160.26 291.35 160.02 290.3 160.02 289.12C160.02 287.94 160.26 286.9 160.75 285.99V286ZM169.12 287.06C168.79 286.46 168.35 286.01 167.81 285.7C167.27 285.39 166.69 285.23 166.06 285.23C165.43 285.23 164.85 285.38 164.31 285.69C163.77 286 163.33 286.44 163 287.03C162.67 287.62 162.5 288.32 162.5 289.13C162.5 289.94 162.67 290.65 163 291.26C163.33 291.87 163.77 292.33 164.32 292.65C164.87 292.97 165.44 293.13 166.05 293.13C166.66 293.13 167.26 292.97 167.8 292.66C168.34 292.35 168.78 291.89 169.11 291.29C169.44 290.69 169.61 289.98 169.61 289.17C169.61 288.36 169.44 287.66 169.11 287.06H169.12Z" fill="#A8A8A8"/>
<path d="M186.15 290.08H177.19C177.26 291.02 177.61 291.77 178.23 292.34C178.85 292.91 179.62 293.19 180.53 293.19C181.84 293.19 182.76 292.64 183.3 291.55H185.92C185.57 292.63 184.92 293.51 183.99 294.2C183.06 294.89 181.91 295.23 180.53 295.23C179.41 295.23 178.41 294.98 177.52 294.48C176.63 293.98 175.94 293.27 175.43 292.35C174.93 291.43 174.67 290.37 174.67 289.17C174.67 287.97 174.91 286.9 175.4 285.99C175.89 285.07 176.58 284.37 177.46 283.87C178.35 283.37 179.36 283.12 180.51 283.12C181.66 283.12 182.6 283.36 183.47 283.84C184.34 284.32 185.01 285 185.49 285.87C185.97 286.74 186.21 287.75 186.21 288.88C186.21 289.32 186.18 289.72 186.13 290.07L186.15 290.08ZM183.7 288.13C183.69 287.24 183.37 286.52 182.74 285.98C182.12 285.44 181.34 285.17 180.42 285.17C179.58 285.17 178.87 285.44 178.27 285.97C177.67 286.5 177.32 287.22 177.21 288.13H183.7Z" fill="#A8A8A8"/>
<path d="M190.63 294.73C189.9 294.4 189.32 293.94 188.9 293.37C188.47 292.8 188.25 292.15 188.22 291.44H190.73C190.77 291.94 191.01 292.35 191.44 292.69C191.87 293.03 192.42 293.19 193.07 293.19C193.72 293.19 194.28 293.06 194.66 292.8C195.04 292.54 195.22 292.2 195.22 291.79C195.22 291.35 195.01 291.02 194.59 290.81C194.17 290.6 193.51 290.36 192.6 290.11C191.72 289.87 191 289.64 190.45 289.41C189.9 289.18 189.42 288.84 189.01 288.37C188.61 287.9 188.4 287.29 188.4 286.52C188.4 285.9 188.58 285.32 188.95 284.81C189.32 284.29 189.85 283.88 190.54 283.59C191.23 283.29 192.02 283.14 192.91 283.14C194.24 283.14 195.32 283.48 196.13 284.15C196.95 284.82 197.38 285.74 197.44 286.91H195.01C194.97 286.38 194.75 285.97 194.37 285.65C193.99 285.34 193.47 285.18 192.82 285.18C192.17 285.18 191.69 285.3 191.35 285.54C191.01 285.78 190.84 286.1 190.84 286.5C190.84 286.81 190.95 287.08 191.18 287.29C191.41 287.5 191.68 287.67 192.01 287.79C192.34 287.91 192.82 288.06 193.46 288.25C194.31 288.48 195.01 288.71 195.56 288.94C196.11 289.17 196.58 289.52 196.98 289.97C197.38 290.42 197.58 291.03 197.6 291.78C197.6 292.45 197.42 293.04 197.05 293.57C196.68 294.09 196.16 294.51 195.49 294.8C194.82 295.1 194.02 295.25 193.12 295.25C192.22 295.25 191.37 295.08 190.64 294.75L190.63 294.73Z" fill="#A8A8A8"/>
<path d="M186.27 73.59C184.78 53.72 162.12 46.16 154.49 51.03C145.8 47.38 118.92 52.76 117.34 73.59C115.76 94.42 108.69 82.45 104.35 91.95C100.88 99.55 105.8 106.57 108.69 109.12C107.11 108.75 106.33 110.07 101.59 118.25C96.85 126.43 99.62 131.65 101.59 133.23C92.9 151.13 104.74 152.23 113.03 149.31C121.32 146.39 143.95 153.07 150.91 153.07C159.54 153.07 168.7 139.45 174.23 145.66C179.76 151.87 194.55 146.81 199.29 142.79C204.03 138.77 193.7 138.4 197.65 130.73C201.6 123.06 191.99 114.83 193.54 111.68C197.1 104.42 194.63 94.91 191.07 90.16C187.52 85.41 188.19 99.18 186.27 73.58V73.59Z" fill="#816F5A"/>
<path d="M150.91 123.06C169.301 123.06 184.21 108.151 184.21 89.76C184.21 71.3689 169.301 56.46 150.91 56.46C132.519 56.46 117.61 71.3689 117.61 89.76C117.61 108.151 132.519 123.06 150.91 123.06Z" fill="#DFAA84"/>
<path d="M167.22 104.14C171.158 104.14 174.35 101.073 174.35 97.29C174.35 93.5069 171.158 90.44 167.22 90.44C163.282 90.44 160.09 93.5069 160.09 97.29C160.09 101.073 163.282 104.14 167.22 104.14Z" fill="#413A3A"/>
<path d="M133.78 105.24C137.718 105.24 140.91 102.173 140.91 98.39C140.91 94.6069 137.718 91.54 133.78 91.54C129.842 91.54 126.65 94.6069 126.65 98.39C126.65 102.173 129.842 105.24 133.78 105.24Z" fill="#413A3A"/>
<path d="M171.06 97.02C172.121 97.02 172.98 96.1604 172.98 95.1C172.98 94.0396 172.121 93.18 171.06 93.18C170 93.18 169.14 94.0396 169.14 95.1C169.14 96.1604 170 97.02 171.06 97.02Z" fill="white"/>
<path d="M137.62 98.12C138.68 98.12 139.54 97.2604 139.54 96.2C139.54 95.1396 138.68 94.28 137.62 94.28C136.56 94.28 135.7 95.1396 135.7 96.2C135.7 97.2604 136.56 98.12 137.62 98.12Z" fill="white"/>
<path d="M153.55 125.52H148.03C140.464 125.52 134.33 131.654 134.33 139.22V155.62C134.33 163.186 140.464 169.32 148.03 169.32H153.55C161.116 169.32 167.25 163.186 167.25 155.62V139.22C167.25 131.654 161.116 125.52 153.55 125.52Z" fill="#DEA5F3"/>
<path d="M134.97 135.38C134.06 136.59 132.35 136.84 131.13 135.93L119.72 127.39C118.51 126.48 118.26 124.77 119.17 123.55C120.08 122.34 121.79 122.09 123.01 123L134.42 131.54C135.63 132.45 135.88 134.16 134.97 135.38Z" fill="#DEA5F3"/>
<path d="M163.39 135.94L174.8 144.48C176.01 145.39 177.73 145.14 178.64 143.93C179.55 142.72 179.3 141 178.09 140.09L166.68 131.55C165.47 130.64 163.75 130.89 162.84 132.1C161.93 133.31 162.18 135.03 163.39 135.94Z" fill="#DEA5F3"/>
<path d="M122.14 127.2C120.82 127.93 119.15 127.46 118.41 126.13L111.5 113.66C110.77 112.34 111.24 110.67 112.57 109.93C113.89 109.2 115.56 109.67 116.3 111L123.21 123.47C123.94 124.79 123.47 126.46 122.14 127.2Z" fill="#DFAA84"/>
<path d="M174.59 144.01L181.5 156.48C182.23 157.8 183.9 158.28 185.23 157.55C186.55 156.82 187.03 155.15 186.3 153.82L179.39 141.35C178.66 140.03 176.99 139.55 175.66 140.28C174.34 141.01 173.86 142.68 174.59 144.01Z" fill="#DFAA84"/>
<path d="M158.45 165.54C160.27 165.54 161.74 167.01 161.74 168.83V185C161.74 186.82 160.27 188.29 158.45 188.29C156.63 188.29 155.16 186.82 155.16 185V168.83C155.16 167.01 156.63 165.54 158.45 165.54Z" fill="#494989"/>
<path d="M142.55 165.54C144.37 165.54 145.84 167.01 145.84 168.83V185C145.84 186.82 144.37 188.29 142.55 188.29C140.73 188.29 139.26 186.82 139.26 185V168.83C139.26 167.01 140.73 165.54 142.55 165.54Z" fill="#494989"/>
<path d="M158.45 186.1C160.27 186.1 161.74 187.57 161.74 189.39V205.56C161.74 207.38 160.27 208.85 158.45 208.85C156.63 208.85 155.16 207.38 155.16 205.56V189.39C155.16 187.57 156.63 186.1 158.45 186.1Z" fill="#DFAA84"/>
<path d="M142.55 186.1C144.37 186.1 145.84 187.57 145.84 189.39V205.56C145.84 207.38 144.37 208.85 142.55 208.85C140.73 208.85 139.26 207.38 139.26 205.56V189.39C139.26 187.57 140.73 186.1 142.55 186.1Z" fill="#DFAA84"/>
<path d="M150.91 120.04C152.8 120.04 154.34 121.57 154.34 123.47V126.21C154.34 128.1 152.81 129.64 150.91 129.64C149.02 129.64 147.48 128.11 147.48 126.21V123.47C147.48 121.58 149.01 120.04 150.91 120.04Z" fill="#DFAA84"/>
<path d="M147.21 122.78C149.14 123.19 152.97 123.05 154.61 122.78C153.54 124.85 150.56 127.74 147.21 122.78Z" fill="black"/>
<g opacity="0.2">
<path d="M171.2 115.38C172.94 115.38 174.35 113.97 174.35 112.23C174.35 110.49 172.94 109.08 171.2 109.08C169.46 109.08 168.05 110.49 168.05 112.23C168.05 113.97 169.46 115.38 171.2 115.38Z" fill="#E3817A"/>
</g>
<g opacity="0.2">
<path d="M130.63 115.38C132.37 115.38 133.78 113.97 133.78 112.23C133.78 110.49 132.37 109.08 130.63 109.08C128.89 109.08 127.48 110.49 127.48 112.23C127.48 113.97 128.89 115.38 130.63 115.38Z" fill="#E3817A"/>
</g>
<path d="M114.47 105.21L115.82 107.17C117.09 109.01 116.63 111.53 114.79 112.8C112.95 114.07 110.43 113.61 109.16 111.77L107.81 109.81C106.54 107.97 107 105.45 108.84 104.18C110.68 102.91 113.2 103.37 114.47 105.21Z" fill="#DFAA84"/>
<path d="M116.23 109.61C115.48 109.75 114.77 109.26 114.63 108.51L114.27 106.59C114.13 105.84 114.62 105.13 115.37 104.99C116.12 104.85 116.83 105.34 116.97 106.09L117.33 108.01C117.47 108.76 116.98 109.47 116.23 109.61Z" fill="#DFAA84"/>
<path d="M188.96 163.3C190.8 162.03 191.26 159.51 189.99 157.67L188.64 155.71C187.37 153.87 184.85 153.41 183.01 154.68C181.17 155.95 180.71 158.47 181.98 160.31L183.33 162.27C184.6 164.11 187.12 164.57 188.96 163.3Z" fill="#DFAA84"/>
<path d="M181.57 162.19C182.32 162.33 183.03 161.84 183.17 161.09L183.53 159.17C183.67 158.42 183.18 157.71 182.43 157.57C181.68 157.43 180.97 157.92 180.83 158.67L180.47 160.59C180.33 161.34 180.82 162.05 181.57 162.19Z" fill="#DFAA84"/>
<path d="M165.3 210.22C165.3 212.49 162.23 212.14 158.45 212.14C154.67 212.14 151.6 212.49 151.6 210.22C151.6 207.95 154.67 206.11 158.45 206.11C162.23 206.11 165.3 207.95 165.3 210.22Z" fill="#B41D1D"/>
<path d="M149.41 210.49C149.41 212.76 146.07 212.27 142.28 212.27C138.49 212.27 135.7 212.76 135.7 210.49C135.7 208.22 138.77 206.38 142.55 206.38C146.33 206.38 149.4 208.22 149.4 210.49H149.41Z" fill="#B41D1D"/>
<path d="M188.005 97.3509C189.022 94.1682 188.073 91.021 185.885 90.3214C183.696 89.6217 181.097 91.6345 180.08 94.8171C179.062 97.9998 180.011 101.147 182.2 101.847C184.388 102.546 186.987 100.533 188.005 97.3509Z" fill="#F5DCBE"/>
<path d="M119.783 101.852C121.971 101.152 122.921 98.0052 121.903 94.8226C120.885 91.64 118.287 89.6272 116.098 90.3268C113.91 91.0265 112.961 94.1737 113.978 97.3563C114.996 100.539 117.595 102.552 119.783 101.852Z" fill="#DFAA84"/>
<path d="M138.94 78.17C146.19 77.81 151.5 73.85 153.25 71.91C153.25 77.72 160.4 80.4 168.51 80.4C176.62 80.4 173.28 76.53 174.71 85.92C176.14 95.3 183.29 89.05 178.05 97.54C173.85 104.33 174.75 106.92 176.5 110.5L185.5 112.5C185.82 108.03 190.9 108.98 190.14 97.55C189.19 83.25 173.76 60.91 162.32 56.44C150.87 51.97 136.57 62.7 125.12 66.72C115.96 69.94 116.38 81.17 117.5 89.06C119.25 89.21 123.88 93.71 130.37 89.06C138.48 83.25 129.89 78.63 138.95 78.18L138.94 78.17Z" fill="#BF9170"/>
<path d="M138.94 76.25C146.19 75.89 151.5 71.93 153.25 69.99C153.25 75.8 160.4 78.48 168.51 78.48C176.62 78.48 173.28 74.61 174.71 84C176.14 93.38 183.29 87.13 178.05 95.62C173.85 102.41 176.3 111.26 178.05 114.83H187.11C187.43 110.36 190.9 107.05 190.14 95.62C189.19 81.32 173.76 58.98 162.32 54.51C150.87 50.04 136.57 60.77 125.12 64.79C115.96 68.01 116.09 81.86 117.21 89.76C118.96 89.91 123.88 91.78 130.37 87.13C138.48 81.32 129.89 76.7 138.95 76.25H138.94Z" fill="#816F5A"/>
<path d="M183.8 56.73C188.43 64.39 185.18 71.98 185.72 75.64C180.17 85.45 134.76 79.46 114.48 79.09C114.24 78.81 114.65 75.73 116.51 73.8C118.83 71.39 115.28 71.81 114 66.75C112.72 61.69 117.38 59.8 119.18 57.62C120.99 55.45 119.73 52.61 120.14 50.45C120.82 46.82 126.01 45.52 125.16 43.31C124.31 41.1 125.32 33.5 129.13 33.72C132.95 33.94 139.82 38.32 144.28 37.57C148.74 36.83 153.16 43.64 159.93 43.28C166.7 42.92 170.72 47.71 171.42 49.11C172.12 50.51 180.23 50.82 183.8 56.71V56.73Z" fill="#C52828"/>
<path d="M168.48 82.73C175.91 81.51 180.53 82.36 184.83 83.66C187.23 84.38 189.97 83.45 190.2 80.96C190.43 78.45 189.71 76.29 189.22 75.93C188.25 75.23 182.7 69.84 167.15 73.78C155.69 76.68 131.8 74.5 116.79 72.89C115.61 72.53 112.61 75.9 114.86 80.05C117.67 85.24 155.15 84.93 168.48 82.73Z" fill="#B41D1D"/>
<path d="M125.29 34.8C127.864 34.8 129.95 32.7137 129.95 30.14C129.95 27.5664 127.864 25.48 125.29 25.48C122.716 25.48 120.63 27.5664 120.63 30.14C120.63 32.7137 122.716 34.8 125.29 34.8Z" fill="#D7D7D7"/>
<path d="M144.23 109.01C144.23 109.01 151.74 111.51 158 109.01C158 109.01 156.75 116.76 151.11 116.76C145.47 116.76 144.22 109.01 144.22 109.01H144.23Z" fill="#764C4C"/>
<path d="M147.08 115.02C147.08 115.02 152.55 113.25 155.27 114.89C155.27 114.89 153.31 116.99 151.27 116.76C149.23 116.53 148.68 116.03 147.08 115.03V115.02Z" fill="#C15142"/>
<path d="M166.82 87.05C160.13 87.05 154.66 92.33 154.33 98.94H144.85C144.22 92.62 138.88 87.67 132.39 87.67C125.49 87.67 119.87 93.29 119.87 100.19C119.87 107.09 125.49 112.71 132.39 112.71C138.87 112.71 144.21 107.76 144.85 101.44H154.46C155.37 107.45 160.56 112.08 166.82 112.08C173.72 112.08 179.34 106.46 179.34 99.56C179.34 92.66 173.72 87.04 166.82 87.04V87.05ZM132.39 110.21C126.87 110.21 122.38 105.72 122.38 100.2C122.38 94.68 126.87 90.19 132.39 90.19C137.91 90.19 142.4 94.68 142.4 100.2C142.4 105.72 137.91 110.21 132.39 110.21ZM166.82 109.59C161.3 109.59 156.81 105.1 156.81 99.58C156.81 94.06 161.3 89.57 166.82 89.57C172.34 89.57 176.83 94.06 176.83 99.58C176.83 105.1 172.34 109.59 166.82 109.59Z" fill="#BF9170"/>
<path d="M166.95 86.01C160.26 86.01 154.79 91.29 154.46 97.9H144.98C144.35 91.58 139.01 86.63 132.52 86.63C125.62 86.63 120 92.25 120 99.15C120 106.05 125.62 111.67 132.52 111.67C139 111.67 144.34 106.72 144.98 100.4H154.59C155.5 106.41 160.69 111.04 166.95 111.04C173.85 111.04 179.47 105.42 179.47 98.52C179.47 91.62 173.85 86 166.95 86V86.01ZM132.52 109.17C127 109.17 122.51 104.68 122.51 99.16C122.51 93.64 127 89.15 132.52 89.15C138.04 89.15 142.53 93.64 142.53 99.16C142.53 104.68 138.04 109.17 132.52 109.17ZM166.95 108.55C161.43 108.55 156.94 104.06 156.94 98.54C156.94 93.02 161.43 88.53 166.95 88.53C172.47 88.53 176.96 93.02 176.96 98.54C176.96 104.06 172.47 108.55 166.95 108.55Z" fill="#593A3A"/>
<path d="M134.39 152.52H167.31C167.31 152.52 169.19 169.9 153.61 169.9C138.03 169.9 134.39 164.16 134.39 152.52Z" fill="#494989"/>
<path d="M160.56 153.4H156.8V125.86L160.56 127.11V153.4Z" fill="#494989"/>
<path d="M144.29 153.4H140.53V127.11L144.29 125.86V153.4Z" fill="#494989"/>
<path d="M74.5101 116.05L98.5001 65.36L86.5201 59.69C83.0301 67.07 74.2101 70.22 66.8301 66.73C59.4501 63.24 56.3001 54.42 59.7901 47.04L47.8101 41.37L40.5601 56.69C39.2201 54.19 37.0901 52.09 34.3301 50.78C27.4601 47.53 19.2501 50.46 16.0001 57.33C12.7501 64.2 15.6801 72.41 22.5501 75.66C25.3101 76.97 28.2901 77.27 31.0701 76.73L23.8201 92.05L74.5101 116.04V116.05Z" fill="#80ABBA"/>
<path d="M75.5101 114.05L99.5001 63.36L87.5201 57.69C84.0301 65.07 75.2101 68.22 67.8301 64.73C60.4501 61.24 57.3001 52.42 60.7901 45.04L48.8101 39.37L41.5601 54.69C40.2201 52.19 38.0901 50.09 35.3301 48.78C28.4601 45.53 20.2501 48.46 17.0001 55.33C13.7501 62.2 16.6801 70.41 23.5501 73.66C26.3101 74.97 29.2901 75.27 32.0701 74.73L24.8201 90.05L75.5101 114.04V114.05Z" fill="#92C1D6"/>
<path d="M232.2 100.05L258.64 112.56L261.6 106.31C257.75 104.49 256.11 99.89 257.93 96.04C259.75 92.19 264.35 90.55 268.2 92.37L271.16 86.12L263.17 82.34C264.47 81.64 265.57 80.53 266.25 79.09C267.95 75.51 266.42 71.23 262.83 69.53C259.24 67.83 254.97 69.36 253.27 72.95C252.59 74.39 252.43 75.94 252.71 77.39L244.72 73.61L232.21 100.05H232.2Z" fill="#C16D6B"/>
<path d="M232.2 98.05L258.64 110.56L261.6 104.31C257.75 102.49 256.11 97.89 257.93 94.04C259.75 90.19 264.35 88.55 268.2 90.37L271.16 84.12L263.17 80.34C264.47 79.64 265.57 78.53 266.25 77.09C267.95 73.51 266.42 69.23 262.83 67.53C259.24 65.83 254.97 67.36 253.27 70.95C252.59 72.39 252.43 73.94 252.71 75.39L244.72 71.61L232.21 98.05H232.2Z" fill="#E3817A"/>
<path d="M218.05 216.04C218.34 215.82 218.63 215.63 218.92 215.45C217.77 214.29 216.95 212.56 216.75 210.55C216.37 206.75 218.35 203.44 221.18 203.16C223.97 202.88 226.54 205.66 226.97 209.39C227 209.36 227.04 209.34 227.07 209.31C227.81 208.45 228.57 207.6 229.38 206.8C229.07 206.3 228.73 205.82 228.4 205.34C227.13 203.49 225.99 201.56 224.98 199.55C224.24 198.08 223.57 196.49 223.7 194.84L223.61 194.79C222.14 194.99 221.1 194.79 219.63 194.99C219.26 195.04 218.87 195.1 218.57 195.32C218.23 195.58 218.06 196 217.92 196.4C216.41 200.62 215.33 204.99 214.7 209.42C214.42 211.4 214.24 213.48 214.99 215.33C215.34 216.19 215.89 216.96 216.53 217.64C216.9 217.06 217.39 216.51 218.05 216.02V216.04Z" fill="#91CEA1"/>
<path d="M225.19 154.09L215.44 192.04L219.99 196.95L223.53 195.64L226.12 154.2C226.12 154.2 226.35 151.34 225.2 154.1L225.19 154.09Z" fill="#91CEA1"/>
<path d="M194.83 200.53C194.4 201.48 193.97 202.46 193.93 203.5C193.87 204.9 194.52 206.22 195.23 207.43C196.11 208.94 197.2 210.47 198.83 211.1C199.4 211.32 200.02 211.42 200.63 211.48C201.98 211.6 203.37 211.52 204.63 211.01C206.48 210.26 207.85 208.68 209.07 207.1C211.81 203.56 214.19 199.73 216.17 195.71C216.36 195.33 216.55 194.91 216.49 194.49C216.44 194.12 216.21 193.8 215.99 193.5C215.11 192.3 214.24 191.7 213.36 190.51L213.26 190.49C212.18 191.73 210.56 192.35 208.99 192.85C206.85 193.53 204.67 194.06 202.45 194.43C201.05 194.67 199.6 194.86 198.39 195.59C196.62 196.65 195.67 198.65 194.83 200.54V200.53ZM200.45 198.36C203.44 195.99 207.3 195.87 209.06 198.09C210.83 200.31 209.83 204.04 206.84 206.42C203.85 208.79 199.99 208.91 198.23 206.69C196.46 204.47 197.46 200.74 200.45 198.36Z" fill="#91CEA1"/>
<path d="M241.46 161.02L221.03 194.45L214.34 194.61L212.82 191.16L240.75 160.43C240.75 160.43 242.64 158.27 241.46 161.02Z" fill="#91CEA1"/>
<path d="M219.9 192.77C221.015 192.77 221.92 191.866 221.92 190.75C221.92 189.634 221.015 188.73 219.9 188.73C218.784 188.73 217.88 189.634 217.88 190.75C217.88 191.866 218.784 192.77 219.9 192.77Z" fill="#91CEA1"/>
<path d="M229.4 207.07C229.08 205.69 228.2 204.52 227.4 203.35C226.13 201.5 224.99 199.57 223.98 197.56C223.24 196.09 222.57 194.5 222.7 192.85L222.61 192.8C221.14 193 220.1 192.8 218.63 193C218.26 193.05 217.87 193.11 217.57 193.33C217.23 193.59 217.06 194.01 216.92 194.41C215.41 198.63 214.33 203 213.7 207.43C213.42 209.41 213.24 211.49 213.99 213.34C214.5 214.59 215.41 215.65 216.44 216.53C216.91 216.93 217.41 217.3 217.97 217.56C219.56 218.29 221.41 218.01 223.11 217.59C224.47 217.25 225.87 216.8 226.84 215.78C227.55 215.02 227.95 214.03 228.34 213.07C229.1 211.15 229.88 209.08 229.41 207.07H229.4ZM221.55 214.92C218.72 215.2 216.12 212.35 215.74 208.55C215.36 204.75 217.34 201.44 220.17 201.16C223 200.88 225.6 203.73 225.98 207.53C226.36 211.33 224.38 214.64 221.55 214.92Z" fill="#F4DF7C"/>
<path d="M224.19 152.09L214.44 190.04L218.99 194.95L222.53 193.64L225.12 152.2C225.12 152.2 225.35 149.34 224.2 152.1L224.19 152.09Z" fill="#EDEDED"/>
<path d="M193.83 198.53C193.4 199.48 192.97 200.46 192.93 201.5C192.87 202.9 193.52 204.22 194.23 205.43C195.11 206.94 196.2 208.47 197.83 209.1C198.4 209.32 199.02 209.42 199.63 209.48C200.98 209.6 202.37 209.52 203.63 209.01C205.48 208.26 206.85 206.68 208.07 205.1C210.81 201.56 213.19 197.73 215.17 193.71C215.36 193.33 215.55 192.91 215.49 192.49C215.44 192.12 215.21 191.8 214.99 191.5C214.11 190.3 213.24 189.7 212.36 188.51L212.26 188.49C211.18 189.73 209.56 190.35 207.99 190.85C205.85 191.53 203.67 192.06 201.45 192.43C200.05 192.67 198.6 192.86 197.39 193.59C195.62 194.65 194.67 196.65 193.83 198.54V198.53ZM199.45 196.36C202.44 193.99 206.3 193.87 208.06 196.09C209.83 198.31 208.83 202.04 205.84 204.42C202.85 206.79 198.99 206.91 197.23 204.69C195.46 202.47 196.46 198.74 199.45 196.36Z" fill="#F4DF7C"/>
<path d="M240.46 159.02L220.03 192.45L213.34 192.61L211.82 189.16L239.75 158.43C239.75 158.43 241.64 156.27 240.46 159.02Z" fill="#EDEDED"/>
<path d="M218.9 190.77C220.015 190.77 220.92 189.866 220.92 188.75C220.92 187.634 220.015 186.73 218.9 186.73C217.784 186.73 216.88 187.634 216.88 188.75C216.88 189.866 217.784 190.77 218.9 190.77Z" fill="#5BA2DD"/>
<path d="M151.7 27.94L152.38 28.12C150.58 24.37 148.25 20.91 145.47 17.83L145.37 18.62C147.59 17.57 149.8 16.51 152.02 15.46C152.54 15.21 153.05 14.97 153.57 14.72C154.16 14.44 154.77 14.06 155.39 13.86C155.63 13.79 155.87 13.83 156.05 13.63C156.31 13.36 156.17 13.03 156 12.75C155.66 12.2 154.8 12.71 155.14 13.25C155.22 13.42 155.25 13.43 155.2 13.27L155.35 12.92C155.61 12.69 155.4 12.82 155.2 12.87C155.04 12.91 154.89 12.98 154.74 13.05C154.26 13.27 153.78 13.51 153.3 13.74C152.38 14.18 151.45 14.62 150.53 15.06C148.65 15.96 146.76 16.85 144.88 17.75C144.57 17.9 144.58 18.32 144.78 18.54C147.51 21.56 149.78 24.96 151.54 28.63C151.65 28.86 152.02 28.96 152.22 28.81C153.35 27.99 154.42 26.98 155.02 25.7C155.53 24.62 155.83 23.12 155.07 22.08C154.28 21 152.77 21.39 151.8 21.98C150.69 22.66 149.9 23.79 149.67 25.07C149.56 25.7 150.52 25.97 150.63 25.34" fill="#B29AD8"/>
<path d="M163.1 24.25C162.96 24.23 162.55 22.98 162.48 22.83C160.82 19.12 158.68 15.66 156.15 12.49C155.75 11.99 155.04 12.7 155.44 13.2C158.07 16.49 160.26 20.14 161.92 24.02C162.2 24.68 162.61 25.7 163.51 25.15C163.86 24.94 164.11 24.54 164.35 24.22C164.67 23.81 164.96 23.38 165.23 22.93C166.05 21.56 167.26 19.28 165.81 17.9C164.23 16.4 161.72 18.33 160.76 19.65" fill="#B29AD8"/>
<path d="M151.7 26.94L152.38 27.12C150.58 23.37 148.25 19.91 145.47 16.83L145.37 17.62C147.59 16.57 149.8 15.51 152.02 14.46C152.54 14.21 153.05 13.97 153.57 13.72C154.16 13.44 154.77 13.06 155.39 12.86C155.63 12.79 155.87 12.83 156.05 12.63C156.31 12.36 156.17 12.03 156 11.75C155.66 11.2 154.8 11.71 155.14 12.25C155.22 12.42 155.25 12.43 155.2 12.27L155.35 11.92C155.61 11.69 155.4 11.82 155.2 11.87C155.04 11.91 154.89 11.98 154.74 12.05C154.26 12.27 153.78 12.51 153.3 12.74C152.38 13.18 151.45 13.62 150.53 14.06C148.65 14.96 146.76 15.85 144.88 16.75C144.57 16.9 144.58 17.32 144.78 17.54C147.51 20.56 149.78 23.96 151.54 27.63C151.65 27.86 152.02 27.96 152.22 27.81C153.35 26.99 154.42 25.98 155.02 24.7C155.53 23.62 155.83 22.12 155.07 21.08C154.28 20 152.77 20.39 151.8 20.98C150.69 21.66 149.9 22.79 149.67 24.07C149.56 24.7 150.52 24.97 150.63 24.34" fill="#C8A9F2"/>
<path d="M163.1 23.25C162.96 23.23 162.55 21.98 162.48 21.83C160.82 18.12 158.68 14.66 156.15 11.49C155.75 10.99 155.04 11.7 155.44 12.2C158.07 15.49 160.26 19.14 161.92 23.02C162.2 23.68 162.61 24.7 163.51 24.15C163.86 23.94 164.11 23.54 164.35 23.22C164.67 22.81 164.96 22.38 165.23 21.93C166.05 20.56 167.26 18.28 165.81 16.9C164.23 15.4 161.72 17.33 160.76 18.65" fill="#C8A9F2"/>
<path d="M89.95 225.55L90.25 226.19C91.98 222.41 93.16 218.41 93.75 214.3L93.08 214.72C95.31 215.75 97.53 216.79 99.76 217.82C100.28 218.06 100.8 218.3 101.32 218.54C101.91 218.81 102.6 219.04 103.14 219.39C103.35 219.52 103.47 219.74 103.74 219.75C104.12 219.77 104.28 219.46 104.38 219.15C104.58 218.54 103.65 218.2 103.44 218.81C103.36 218.99 103.37 219.01 103.46 218.87L103.83 218.76C104.17 218.81 103.93 218.74 103.77 218.62C103.63 218.52 103.48 218.45 103.33 218.38C102.85 218.15 102.36 217.93 101.88 217.71C100.95 217.28 100.02 216.85 99.1 216.42C97.21 215.54 95.31 214.66 93.42 213.79C93.11 213.65 92.79 213.92 92.75 214.21C92.17 218.24 91.01 222.15 89.31 225.85C89.2 226.08 89.36 226.43 89.61 226.49C90.97 226.83 92.42 227.01 93.8 226.66C94.95 226.36 96.3 225.64 96.62 224.39C96.95 223.1 95.69 222.18 94.61 221.81C93.38 221.39 92.01 221.5 90.87 222.14C90.31 222.46 90.72 223.37 91.28 223.05" fill="#B29AD8"/>
<path d="M100.07 231.97C99.9999 231.85 100.7 230.74 100.77 230.59C102.56 226.95 103.86 223.09 104.68 219.11C104.81 218.48 103.81 218.39 103.68 219.02C102.83 223.15 101.42 227.16 99.4899 230.92C99.1599 231.56 98.6399 232.52 99.6299 232.87C100.01 233 100.48 232.94 100.88 232.92C101.4 232.9 101.92 232.85 102.44 232.77C104.01 232.53 106.54 232 106.68 230.01C106.83 227.83 103.74 227.14 102.1 227.24" fill="#B29AD8"/>
<path d="M90.72 224.91L91.02 225.55C92.75 221.77 93.93 217.77 94.52 213.66L93.85 214.08C96.08 215.11 98.3 216.15 100.53 217.18C101.05 217.42 101.57 217.66 102.09 217.9C102.68 218.17 103.37 218.4 103.91 218.75C104.12 218.88 104.24 219.1 104.51 219.11C104.89 219.13 105.05 218.82 105.15 218.51C105.35 217.9 104.42 217.56 104.21 218.17C104.13 218.35 104.14 218.37 104.23 218.23L104.6 218.12C104.94 218.17 104.7 218.1 104.54 217.98C104.4 217.88 104.25 217.81 104.1 217.74C103.62 217.51 103.13 217.29 102.65 217.07C101.72 216.64 100.79 216.21 99.87 215.78C97.98 214.9 96.08 214.02 94.19 213.15C93.88 213.01 93.56 213.28 93.52 213.57C92.94 217.6 91.78 221.51 90.08 225.21C89.97 225.44 90.13 225.79 90.38 225.85C91.74 226.19 93.19 226.37 94.57 226.02C95.72 225.72 97.07 225 97.39 223.75C97.72 222.46 96.46 221.54 95.38 221.17C94.15 220.75 92.78 220.86 91.64 221.5C91.08 221.82 91.49 222.73 92.05 222.41" fill="#C8A9F2"/>
<path d="M100.84 231.33C100.77 231.21 101.47 230.1 101.54 229.95C103.33 226.31 104.63 222.45 105.45 218.47C105.58 217.84 104.58 217.75 104.45 218.38C103.6 222.51 102.19 226.52 100.26 230.28C99.9299 230.92 99.4099 231.88 100.4 232.23C100.78 232.36 101.25 232.3 101.65 232.28C102.17 232.26 102.69 232.21 103.21 232.13C104.78 231.89 107.31 231.36 107.45 229.37C107.6 227.19 104.51 226.5 102.87 226.6" fill="#C8A9F2"/>
</g>
<defs>
<clipPath id="clip0_297_707">
<rect width="274.38" height="295.23" fill="white"/>
</clipPath>
</defs>
</svg>
