<svg width="198" height="162" viewBox="0 0 198 162" fill="none" xmlns="http://www.w3.org/2000/svg">
<path d="M145.75 38H50.25C33.5434 38 20 51.5434 20 68.25V106.75C20 123.457 33.5434 137 50.25 137H145.75C162.457 137 176 123.457 176 106.75V68.25C176 51.5434 162.457 38 145.75 38Z" fill="#9EE6B3"/>
<mask id="mask0_332_3556" style="mask-type:luminance" maskUnits="userSpaceOnUse" x="20" y="38" width="156" height="99">
<path d="M145.75 38H50.25C33.5434 38 20 51.5434 20 68.25V106.75C20 123.457 33.5434 137 50.25 137H145.75C162.457 137 176 123.457 176 106.75V68.25C176 51.5434 162.457 38 145.75 38Z" fill="white"/>
</mask>
<g mask="url(#mask0_332_3556)">
<path d="M198.08 94.8C144.06 89.87 89.33 90.13 35.39 95.57C26.86 96.43 18.32 97.43 10.1 99.49C5.34 100.69 0.600003 102.3 -2.99 105.11C-6.58 107.92 -8.84 112.15 -7.71 116.1C-6.17 121.51 0.710003 124.56 6.98 126.72C31.4 135.1 57.52 140.15 83.94 141.61C109.62 143.03 135.39 141.07 161.13 140.77C171.85 140.65 182.81 140.77 192.97 138C203.13 135.23 212.57 128.83 214.59 120.24C216.21 113.32 212.77 106.13 207.35 100.65C201.94 95.17 194.72 91.1 187.59 87.13C184.84 85.6 180.75 84.18 178.59 86.25" fill="#92C1D6"/>
</g>
<path d="M80.69 156.62C81.13 157.18 81.35 157.8 81.35 158.51C81.35 159.11 81.19 159.65 80.88 160.13C80.57 160.61 80.12 160.99 79.53 161.27C78.94 161.55 78.26 161.69 77.47 161.69H72.74V149.87H77.24C78.04 149.87 78.74 150.01 79.31 150.28C79.89 150.55 80.32 150.92 80.62 151.38C80.91 151.84 81.06 152.35 81.06 152.92C81.06 153.6 80.88 154.17 80.52 154.62C80.16 155.07 79.67 155.41 79.06 155.62C79.69 155.73 80.23 156.07 80.67 156.62H80.69ZM74.69 154.84H77.09C77.72 154.84 78.22 154.7 78.58 154.41C78.94 154.12 79.12 153.7 79.12 153.16C79.12 152.62 78.94 152.21 78.58 151.91C78.22 151.61 77.73 151.46 77.09 151.46H74.69V154.84ZM78.85 159.63C79.22 159.31 79.41 158.87 79.41 158.3C79.41 157.73 79.21 157.26 78.82 156.92C78.42 156.58 77.9 156.41 77.24 156.41H74.69V160.1H77.31C77.97 160.1 78.48 159.94 78.86 159.62L78.85 159.63Z" fill="#A8A8A8"/>
<path d="M92.17 157.73H85.01C85.07 158.48 85.34 159.08 85.84 159.53C86.34 159.98 86.95 160.21 87.68 160.21C88.72 160.21 89.46 159.77 89.89 158.9H91.98C91.7 159.76 91.18 160.47 90.44 161.02C89.7 161.57 88.78 161.85 87.68 161.85C86.78 161.85 85.98 161.65 85.27 161.25C84.56 160.85 84.01 160.28 83.6 159.55C83.2 158.82 83 157.97 83 157.01C83 156.05 83.2 155.2 83.59 154.47C83.98 153.74 84.53 153.18 85.24 152.78C85.95 152.38 86.76 152.19 87.68 152.19C88.6 152.19 89.35 152.38 90.04 152.77C90.73 153.16 91.27 153.7 91.66 154.39C92.04 155.09 92.24 155.89 92.24 156.8C92.24 157.15 92.22 157.47 92.17 157.75V157.73ZM90.21 156.17C90.2 155.46 89.94 154.88 89.44 154.45C88.94 154.02 88.32 153.8 87.59 153.8C86.92 153.8 86.35 154.01 85.87 154.44C85.39 154.87 85.11 155.44 85.02 156.17H90.21Z" fill="#A8A8A8"/>
<path d="M97.61 152.6C98.18 152.31 98.82 152.17 99.52 152.17C100.35 152.17 101.1 152.37 101.76 152.76C102.43 153.16 102.96 153.72 103.34 154.45C103.73 155.18 103.92 156.02 103.92 156.96C103.92 157.9 103.73 158.74 103.34 159.48C102.95 160.22 102.42 160.8 101.75 161.21C101.08 161.62 100.33 161.83 99.51 161.83C98.78 161.83 98.14 161.69 97.58 161.4C97.02 161.12 96.57 160.75 96.25 160.31V161.67H94.31V149.09H96.25V153.7C96.58 153.25 97.03 152.87 97.6 152.59L97.61 152.6ZM101.56 155.29C101.29 154.82 100.94 154.46 100.51 154.22C100.07 153.98 99.61 153.85 99.11 153.85C98.61 153.85 98.16 153.97 97.72 154.22C97.28 154.47 96.93 154.83 96.67 155.31C96.41 155.79 96.27 156.35 96.27 156.99C96.27 157.63 96.4 158.2 96.67 158.68C96.94 159.16 97.29 159.53 97.72 159.78C98.16 160.03 98.62 160.15 99.11 160.15C99.6 160.15 100.08 160.02 100.51 159.77C100.95 159.51 101.3 159.14 101.56 158.66C101.83 158.17 101.96 157.61 101.96 156.96C101.96 156.31 101.83 155.76 101.56 155.29Z" fill="#A8A8A8"/>
<path d="M114.55 157.73H107.39C107.45 158.48 107.72 159.08 108.22 159.53C108.72 159.98 109.33 160.21 110.06 160.21C111.1 160.21 111.84 159.77 112.27 158.9H114.36C114.08 159.76 113.56 160.47 112.82 161.02C112.08 161.57 111.16 161.85 110.06 161.85C109.16 161.85 108.36 161.65 107.65 161.25C106.94 160.85 106.39 160.28 105.98 159.55C105.58 158.82 105.38 157.97 105.38 157.01C105.38 156.05 105.58 155.2 105.97 154.47C106.36 153.74 106.91 153.18 107.62 152.78C108.33 152.38 109.14 152.19 110.06 152.19C110.98 152.19 111.73 152.38 112.42 152.77C113.11 153.16 113.65 153.7 114.04 154.39C114.42 155.09 114.62 155.89 114.62 156.8C114.62 157.15 114.6 157.47 114.55 157.75V157.73ZM112.6 156.17C112.59 155.46 112.33 154.88 111.83 154.45C111.33 154.02 110.71 153.8 109.98 153.8C109.31 153.8 108.74 154.01 108.26 154.44C107.78 154.87 107.5 155.44 107.41 156.17H112.6Z" fill="#A8A8A8"/>
<path d="M118.13 161.45C117.55 161.18 117.08 160.82 116.74 160.36C116.4 159.9 116.22 159.39 116.2 158.82H118.21C118.24 159.22 118.43 159.55 118.78 159.81C119.13 160.08 119.56 160.21 120.08 160.21C120.6 160.21 121.05 160.1 121.35 159.89C121.65 159.68 121.8 159.41 121.8 159.08C121.8 158.73 121.63 158.47 121.3 158.3C120.97 158.13 120.44 157.94 119.71 157.74C119.01 157.55 118.44 157.36 117.99 157.18C117.55 157 117.17 156.72 116.84 156.35C116.52 155.98 116.36 155.48 116.36 154.87C116.36 154.37 116.51 153.92 116.8 153.5C117.09 153.09 117.52 152.76 118.07 152.52C118.62 152.28 119.25 152.16 119.97 152.16C121.03 152.16 121.89 152.43 122.55 152.97C123.2 153.51 123.55 154.24 123.6 155.17H121.66C121.63 154.75 121.46 154.42 121.15 154.17C120.84 153.92 120.43 153.8 119.91 153.8C119.39 153.8 119.01 153.9 118.74 154.09C118.47 154.28 118.33 154.54 118.33 154.85C118.33 155.1 118.42 155.31 118.6 155.48C118.78 155.65 119 155.78 119.26 155.88C119.52 155.98 119.91 156.1 120.42 156.25C121.1 156.43 121.66 156.62 122.09 156.8C122.53 156.99 122.9 157.26 123.22 157.62C123.54 157.98 123.7 158.46 123.71 159.07C123.71 159.6 123.56 160.08 123.27 160.5C122.98 160.92 122.56 161.25 122.02 161.49C121.48 161.73 120.85 161.85 120.12 161.85C119.39 161.85 118.72 161.72 118.14 161.45H118.13Z" fill="#A8A8A8"/>
<path d="M152.21 87.87C173.998 87.87 191.66 70.2076 191.66 48.42C191.66 26.6324 173.998 8.97 152.21 8.97C130.422 8.97 112.76 26.6324 112.76 48.42C112.76 70.2076 130.422 87.87 152.21 87.87Z" fill="#F5DCBE"/>
<path d="M178.885 60.2408C179.359 55.7813 175.985 51.7672 171.35 51.2751C166.715 50.783 162.573 53.9992 162.1 58.4587C161.626 62.9182 165 66.9323 169.635 67.4244C174.271 67.9165 178.412 64.7002 178.885 60.2408Z" fill="#413A3A"/>
<path d="M139.348 57.3547C139.822 52.8952 136.448 48.8812 131.813 48.3891C127.178 47.897 123.036 51.1132 122.563 55.5727C122.089 60.0322 125.463 64.0463 130.098 64.5383C134.734 65.0304 138.875 61.8142 139.348 57.3547Z" fill="#413A3A"/>
<path d="M175.27 59.51C176.524 59.51 177.54 58.4937 177.54 57.24C177.54 55.9863 176.524 54.97 175.27 54.97C174.016 54.97 173 55.9863 173 57.24C173 58.4937 174.016 59.51 175.27 59.51Z" fill="white"/>
<path d="M135.74 56.62C136.994 56.62 138.01 55.6037 138.01 54.35C138.01 53.0963 136.994 52.08 135.74 52.08C134.486 52.08 133.47 53.0963 133.47 54.35C133.47 55.6037 134.486 56.62 135.74 56.62Z" fill="white"/>
<path d="M145.74 85.78L151.89 86.43C160.34 87.33 166.53 94.32 165.7 102.06L163.92 118.81C163.1 126.54 155.58 132.09 147.13 131.19L140.98 130.54C132.53 129.64 126.34 122.65 127.17 114.91L128.95 98.16C129.77 90.43 137.29 84.88 145.74 85.78Z" fill="#F5DCBE"/>
<path d="M132.53 94.36L121.56 100.68C120.4 101.35 118.89 100.97 118.19 99.84C117.49 98.7 117.87 97.24 119.04 96.57L130.01 90.25C131.17 89.58 132.68 89.96 133.38 91.09C134.08 92.23 133.7 93.69 132.53 94.36Z" fill="#F5DCBE"/>
<path d="M161.57 96.89L170.31 104.34C171.24 105.13 172.68 105.1 173.52 104.26C174.37 103.42 174.3 102.1 173.37 101.31L164.63 93.86C163.7 93.07 162.26 93.1 161.42 93.94C160.57 94.78 160.64 96.1 161.57 96.89Z" fill="#F5DCBE"/>
<path d="M121.79 100.29L114.48 110.44C113.7 111.52 112.17 111.77 111.06 111.01C109.95 110.25 109.67 108.76 110.45 107.68L117.76 97.53C118.54 96.45 120.07 96.2 121.18 96.96C122.29 97.72 122.57 99.21 121.79 100.29Z" fill="#F5DCBE"/>
<path d="M170.18 103.97L174.89 114C175.39 115.07 176.73 115.57 177.88 115.13C179.03 114.69 179.56 113.47 179.06 112.41L174.35 102.38C173.85 101.31 172.51 100.81 171.36 101.25C170.21 101.69 169.68 102.91 170.18 103.97Z" fill="#F5DCBE"/>
<path d="M149.59 126.28C150.44 124.6 152.63 123.89 154.48 124.7L170.97 131.91C172.82 132.72 173.64 134.74 172.79 136.43C171.94 138.11 169.75 138.82 167.9 138.01L151.41 130.8C149.56 129.99 148.74 127.97 149.59 126.28Z" fill="#F5DCBE"/>
<path d="M141.36 123.75C142.13 125.49 141.23 127.45 139.35 128.13L122.57 134.15C120.68 134.83 118.53 133.96 117.76 132.22C116.99 130.48 117.89 128.52 119.77 127.84L136.55 121.82C138.44 121.14 140.59 122.01 141.36 123.75Z" fill="#F5DCBE"/>
<path d="M173.08 134.84C173.54 136.67 172.31 138.47 170.33 138.86L152.67 142.35C150.69 142.74 148.7 141.58 148.24 139.75C147.78 137.92 149.01 136.12 150.99 135.73L168.65 132.24C170.63 131.85 172.62 133.01 173.08 134.84Z" fill="#F5DCBE"/>
<path d="M117.5 130.95C117.94 129.13 119.9 128.01 121.89 128.45L139.61 132.32C141.6 132.75 142.86 134.58 142.42 136.4C141.98 138.22 140.02 139.34 138.03 138.9L120.31 135.03C118.32 134.6 117.06 132.77 117.5 130.95Z" fill="#F5DCBE"/>
<path d="M150.61 77.7C153.64 78.02 155.86 80.53 155.57 83.31L155.14 87.33C154.85 90.11 152.15 92.1 149.12 91.77C146.09 91.45 143.87 88.94 144.16 86.16L144.59 82.14C144.88 79.36 147.58 77.37 150.61 77.7Z" fill="#F5DCBE"/>
<path d="M143.72 86.87C145.94 87.6 150.47 87.91 152.44 87.79C150.92 90.09 147.04 93.13 143.72 86.87Z" fill="#CFBFA0"/>
<g opacity="0.2">
<path d="M173.29 81.16C175.35 81.16 177.02 79.49 177.02 77.43C177.02 75.37 175.35 73.7 173.29 73.7C171.23 73.7 169.56 75.37 169.56 77.43C169.56 79.49 171.23 81.16 173.29 81.16Z" fill="#E3817A"/>
</g>
<g opacity="0.2">
<path d="M125.51 76.1C127.57 76.1 129.24 74.43 129.24 72.37C129.24 70.31 127.57 68.64 125.51 68.64C123.45 68.64 121.78 70.31 121.78 72.37C121.78 74.43 123.45 76.1 125.51 76.1Z" fill="#E3817A"/>
</g>
<path d="M107.2 115.64C105.68 114.37 105.5 112.14 106.8 110.67L108.19 109.1C109.49 107.63 111.78 107.47 113.31 108.74C114.83 110.01 115.01 112.24 113.71 113.71L112.32 115.28C111.02 116.75 108.73 116.91 107.2 115.64Z" fill="#F5DCBE"/>
<path d="M113.89 115.38C113.21 115.43 112.62 114.94 112.56 114.28L112.42 112.59C112.36 111.93 112.87 111.35 113.55 111.3C114.23 111.25 114.82 111.74 114.88 112.4L115.02 114.09C115.08 114.75 114.57 115.33 113.89 115.38Z" fill="#F5DCBE"/>
<path d="M180.49 119.81C182.11 119.01 182.69 117.15 181.79 115.65L180.83 114.05C179.93 112.55 177.89 111.98 176.26 112.78C174.64 113.58 174.06 115.44 174.96 116.94L175.92 118.54C176.82 120.04 178.86 120.61 180.49 119.81Z" fill="#F5DCBE"/>
<path d="M174.48 118.33C175.09 118.5 175.72 118.19 175.89 117.64L176.34 116.22C176.52 115.67 176.17 115.08 175.56 114.91C174.95 114.74 174.32 115.05 174.15 115.6L173.7 117.02C173.52 117.57 173.87 118.16 174.48 118.33Z" fill="#F5DCBE"/>
<path d="M144.62 146.15C142.96 145.06 144.95 142.99 147.08 140.23C149.21 137.47 150.69 135.07 152.34 136.16C153.99 137.25 153.61 140.37 151.48 143.13C149.35 145.89 146.27 147.24 144.62 146.15Z" fill="#F5DCBE"/>
<path d="M147.43 143.29C145.91 145.14 143.23 142.64 139.82 140.26C136.41 137.88 133.57 136.52 135.09 134.67C136.61 132.82 140.6 133.25 144.01 135.63C147.42 138.01 148.95 141.44 147.43 143.29Z" fill="#F5DCBE"/>
<path d="M194.964 62.0182C196.562 58.3948 195.837 54.5671 193.345 53.4688C190.854 52.3705 187.539 54.4174 185.942 58.0409C184.345 61.6643 185.069 65.492 187.561 66.5903C190.052 67.6886 193.367 65.6417 194.964 62.0182Z" fill="#F5DCBE"/>
<path d="M114.019 58.7903C116.686 58.2395 118.198 54.6493 117.397 50.7713C116.596 46.8932 113.785 44.1959 111.118 44.7467C108.452 45.2974 106.94 48.8877 107.741 52.7657C108.542 56.6437 111.353 59.341 114.019 58.7903Z" fill="#F5DCBE"/>
<path d="M157.152 76.4398C157.408 74.0233 154.108 71.692 149.78 71.2325C145.453 70.7731 141.736 72.3596 141.48 74.776C141.223 77.1925 144.524 79.5239 148.851 79.9833C153.179 80.4428 156.895 78.8563 157.152 76.4398Z" fill="#ABE0FE" stroke="#ABE0FE"/>
<path d="M152.017 79.5784C152.23 77.5683 151.019 75.7918 149.311 75.6105C147.603 75.4292 146.045 76.9117 145.832 78.9217C145.618 80.9318 146.83 82.7083 148.538 82.8896C150.246 83.0709 151.803 81.5884 152.017 79.5784Z" stroke="#668796" stroke-width="4"/>
<path d="M154.47 13.1C154.5 13.25 154.69 13.15 154.76 13.09C155.26 12.38 155.68 11.57 155.98 10.76C156.37 9.53 157 7.87 156.45 6.68C155.96 6.05 154.82 6.48 154.13 6.66C153.63 6.83 153.25 7.18 153.45 7.57C154.81 8.21 156.45 7.02 157.08 5.77C157.93 4.09 157.45 1.9 156.34 0.220001C158.76 2.49 158.89 7.03 155.46 8.46C154.59 8.78 153.53 8.96 152.74 8.27C152.14 7.64 152.39 6.69 152.98 6.19C153.72 5.63 154.54 5.53 155.44 5.43C156.99 5.3 157.72 6.66 157.42 7.98C157.1 9.93 156.2 11.78 154.8 13.16C154.71 13.22 154.47 13.28 154.47 13.11V13.1Z" fill="black"/>
<path d="M126.99 114.29C130 112.92 133.61 113.7 136.9 114.44C143.3 115.88 149.79 117.08 156.35 117.36C159.03 117.47 161.75 117.44 164.34 118.14C164.88 118.29 165.43 118.47 165.85 118.83C167.09 119.88 166.6 121.83 165.6 123.06C164.55 124.36 163.09 125.31 161.65 126.23C159.3 127.74 156.93 129.21 154.56 130.69C153.56 131.31 152.55 131.94 151.41 132.31C150.24 132.69 148.98 132.78 147.74 132.79C142.59 132.85 137.41 131.59 132.91 129.19C131.73 128.56 130.59 127.85 129.66 126.93C127.45 124.75 126.67 121.68 125.98 118.77C125.57 117.05 125.29 114.94 126.73 113.82" fill="#F9F9F9"/>
<path d="M81.41 62.95L82.03 63.5C82.34 57.69 82.64 51.88 82.95 46.07C82.98 45.42 81.87 45.32 81.79 45.98C81.57 47.82 80.79 49.52 79.53 50.88C78.21 52.31 76.58 53.09 74.71 53.55C73.98 53.73 74.34 54.84 75.07 54.66C77.13 54.16 78.94 53.25 80.39 51.67C81.84 50.09 82.69 48.26 82.93 46.23L81.77 46.14C81.46 51.95 81.16 57.76 80.85 63.57C80.83 63.86 81.18 64.17 81.47 64.12C83.54 63.76 85.79 63.34 87.24 61.67C88.41 60.32 88.73 58.24 87.51 56.8C86.29 55.36 84.2 55.64 82.87 56.77C81.03 58.33 81.07 60.93 81.18 63.13C81.22 63.88 82.39 63.82 82.35 63.07" fill="white"/>
<path d="M102.9 86.8C101.05 92.53 97.76 96.59 89.18 93.82C80.6 91.05 80.31 85.83 82.16 80.1C84.01 74.37 90.15 71.23 95.88 73.08C101.61 74.93 104.75 81.07 102.9 86.8Z" fill="#FDE176"/>
<path d="M99.4624 88.6595C99.8431 87.4824 99.1591 86.2072 97.9347 85.8113C96.7103 85.4153 95.4091 86.0486 95.0285 87.2257C94.6478 88.4028 95.3318 89.678 96.5562 90.0739C97.7806 90.4699 99.0818 89.8366 99.4624 88.6595Z" fill="black"/>
<path d="M88.5437 85.1236C88.9244 83.9465 88.2404 82.6713 87.016 82.2754C85.7916 81.8794 84.4904 82.5127 84.1098 83.6898C83.7291 84.8669 84.4131 86.1421 85.6375 86.538C86.8619 86.934 88.1631 86.3007 88.5437 85.1236Z" fill="black"/>
<path d="M87.773 84.8744C88.016 84.1229 87.5655 83.3044 86.7667 83.0461C85.968 82.7878 85.1235 83.1875 84.8805 83.939C84.6375 84.6904 85.088 85.509 85.8867 85.7673C86.6855 86.0256 87.53 85.6258 87.773 84.8744Z" fill="black"/>
<path d="M86.97 84.13C87.1909 84.13 87.37 83.9509 87.37 83.73C87.37 83.5091 87.1909 83.33 86.97 83.33C86.7491 83.33 86.57 83.5091 86.57 83.73C86.57 83.9509 86.7491 84.13 86.97 84.13Z" fill="white"/>
<path d="M97.89 87.66C98.1109 87.66 98.29 87.4809 98.29 87.26C98.29 87.0391 98.1109 86.86 97.89 86.86C97.6691 86.86 97.49 87.0391 97.49 87.26C97.49 87.4809 97.6691 87.66 97.89 87.66Z" fill="white"/>
<path d="M89.73 92.25C88.15 91.78 87.61 90.73 87.54 90.27L92.57 91.9C92.28 92.21 91.3 92.73 89.72 92.25H89.73Z" fill="#D68123"/>
<path d="M89.37 89.07C88.85 89.39 87.65 88.92 87.47 89.12C87.15 89.61 87.18 90.96 89.81 91.81C93.1 92.87 93.62 91.11 93.15 90.96C92.68 90.81 91.9 90.25 91.71 89.67C91.56 89.21 91.05 88.96 90.77 88.87C90.41 88.75 89.9 88.76 89.38 89.08L89.37 89.07Z" fill="#FB9728"/>
<path d="M91.2894 90.0253C91.3574 89.8151 91.3571 89.6268 91.2888 89.6047C91.2205 89.5826 91.11 89.7351 91.042 89.9453C90.9741 90.1555 90.9744 90.3438 91.0427 90.3659C91.111 90.388 91.2215 90.2355 91.2894 90.0253Z" fill="#D68123"/>
<path d="M90.1017 89.6407C90.1697 89.4305 90.1694 89.2422 90.1011 89.2201C90.0328 89.198 89.9223 89.3505 89.8543 89.5607C89.7864 89.7709 89.7866 89.9592 89.8549 89.9813C89.9233 90.0033 90.0337 89.8509 90.1017 89.6407Z" fill="#D68123"/>
<path d="M38.85 139.92L39.53 140.1C37.73 136.35 35.4 132.89 32.62 129.81L32.52 130.6C34.74 129.55 36.95 128.49 39.17 127.44C39.69 127.19 40.2 126.95 40.72 126.7C41.31 126.42 41.92 126.04 42.54 125.84C42.78 125.77 43.02 125.81 43.2 125.61C43.46 125.34 43.32 125.01 43.15 124.73C42.81 124.18 41.95 124.69 42.29 125.23C42.37 125.4 42.4 125.41 42.35 125.25L42.5 124.9C42.76 124.67 42.55 124.8 42.35 124.85C42.19 124.89 42.04 124.96 41.89 125.03C41.41 125.25 40.93 125.49 40.45 125.72C39.53 126.16 38.6 126.6 37.68 127.04C35.8 127.94 33.91 128.83 32.03 129.73C31.72 129.88 31.73 130.3 31.93 130.52C34.66 133.54 36.93 136.94 38.69 140.61C38.8 140.84 39.17 140.94 39.37 140.79C40.5 139.97 41.57 138.96 42.17 137.68C42.68 136.6 42.98 135.1 42.22 134.06C41.46 133.02 39.92 133.37 38.95 133.96C37.84 134.64 37.05 135.77 36.82 137.05C36.71 137.68 37.67 137.95 37.78 137.32" fill="#92C1D6"/>
<path d="M50.25 136.23C50.11 136.21 49.7 134.96 49.63 134.81C47.97 131.1 45.83 127.64 43.3 124.47C42.9 123.97 42.19 124.68 42.59 125.18C45.22 128.47 47.41 132.12 49.07 136C49.35 136.66 49.76 137.68 50.66 137.13C51.01 136.92 51.26 136.52 51.5 136.2C51.82 135.79 52.11 135.36 52.38 134.91C53.2 133.54 54.41 131.26 52.96 129.88C51.38 128.38 48.87 130.31 47.91 131.63" fill="#92C1D6"/>
<path d="M38.85 138.92L39.53 139.1C37.73 135.35 35.4 131.89 32.62 128.81L32.52 129.6C34.74 128.55 36.95 127.49 39.17 126.44C39.69 126.19 40.2 125.95 40.72 125.7C41.31 125.42 41.92 125.04 42.54 124.84C42.78 124.77 43.02 124.81 43.2 124.61C43.46 124.34 43.32 124.01 43.15 123.73C42.81 123.18 41.95 123.69 42.29 124.23C42.37 124.4 42.4 124.41 42.35 124.25L42.5 123.9C42.76 123.67 42.55 123.8 42.35 123.85C42.19 123.89 42.04 123.96 41.89 124.03C41.41 124.25 40.93 124.49 40.45 124.72C39.53 125.16 38.6 125.6 37.68 126.04C35.8 126.94 33.91 127.83 32.03 128.73C31.72 128.88 31.73 129.3 31.93 129.52C34.66 132.54 36.93 135.94 38.69 139.61C38.8 139.84 39.17 139.94 39.37 139.79C40.5 138.97 41.57 137.96 42.17 136.68C42.68 135.6 42.98 134.1 42.22 133.06C41.46 132.02 39.92 132.37 38.95 132.96C37.84 133.64 37.05 134.77 36.82 136.05C36.71 136.68 37.67 136.95 37.78 136.32" fill="white"/>
<path d="M50.25 135.23C50.11 135.21 49.7 133.96 49.63 133.81C47.97 130.1 45.83 126.64 43.3 123.47C42.9 122.97 42.19 123.68 42.59 124.18C45.22 127.47 47.41 131.12 49.07 135C49.35 135.66 49.76 136.68 50.66 136.13C51.01 135.92 51.26 135.52 51.5 135.2C51.82 134.79 52.11 134.36 52.38 133.91C53.2 132.54 54.41 130.26 52.96 128.88C51.38 127.38 48.87 129.31 47.91 130.63" fill="white"/>
<path d="M94.42 126.65C93.44 135.4 85.54 141.7 76.79 140.71C68.04 139.73 61.74 131.83 62.73 123.08C65.2 115.17 71.34 110.45 80.09 111.43C88.84 112.41 92.75 117.48 94.42 126.65Z" fill="#74BE21"/>
<path d="M88.26 126.51C92.3193 126.51 95.61 123.219 95.61 119.16C95.61 115.101 92.3193 111.81 88.26 111.81C84.2007 111.81 80.91 115.101 80.91 119.16C80.91 123.219 84.2007 126.51 88.26 126.51Z" fill="white"/>
<path d="M87.27 128.03C82.38 127.48 78.85 123.05 79.4 118.16C79.95 113.27 84.38 109.74 89.27 110.29C94.16 110.84 97.69 115.27 97.14 120.16C96.59 125.05 92.16 128.58 87.27 128.03ZM88.91 113.42C85.75 113.06 82.88 115.35 82.53 118.51C82.18 121.67 84.46 124.54 87.62 124.89C90.78 125.24 93.65 122.96 94 119.8C94.35 116.64 92.07 113.77 88.91 113.42Z" fill="#74BE21"/>
<path d="M69.35 124.38C73.4093 124.38 76.7 121.089 76.7 117.03C76.7 112.971 73.4093 109.68 69.35 109.68C65.2907 109.68 62 112.971 62 117.03C62 121.089 65.2907 124.38 69.35 124.38Z" fill="white"/>
<path d="M68.36 125.9C63.47 125.35 59.94 120.92 60.49 116.03C61.04 111.14 65.47 107.61 70.36 108.16C75.25 108.71 78.78 113.14 78.23 118.03C77.68 122.92 73.25 126.45 68.36 125.9ZM70 111.29C66.84 110.93 63.97 113.22 63.62 116.38C63.27 119.54 65.55 122.41 68.71 122.76C71.87 123.11 74.74 120.83 75.09 117.67C75.44 114.51 73.16 111.64 70 111.29Z" fill="#74BE21"/>
<path d="M69.0603 117.261C69.19 116.109 68.303 115.063 67.0791 114.925C65.8552 114.787 64.758 115.61 64.6283 116.763C64.4986 117.915 65.3856 118.961 66.6095 119.099C67.8333 119.237 68.9306 118.414 69.0603 117.261Z" fill="#423737"/>
<path d="M93.5296 118.167C93.6593 117.014 92.7723 115.968 91.5484 115.83C90.3245 115.693 89.2273 116.515 89.0976 117.668C88.9679 118.82 89.8549 119.866 91.0788 120.004C92.3026 120.142 93.3999 119.319 93.5296 118.167Z" fill="#423737"/>
<path d="M67.57 116.43C67.8958 116.43 68.16 116.166 68.16 115.84C68.16 115.514 67.8958 115.25 67.57 115.25C67.2442 115.25 66.98 115.514 66.98 115.84C66.98 116.166 67.2442 116.43 67.57 116.43Z" fill="white"/>
<path d="M92.04 117.33C92.3658 117.33 92.63 117.066 92.63 116.74C92.63 116.414 92.3658 116.15 92.04 116.15C91.7142 116.15 91.45 116.414 91.45 116.74C91.45 117.066 91.7142 117.33 92.04 117.33Z" fill="white"/>
<path d="M93.51 130.65C76.58 135.14 65.74 129.79 62.71 126.79C63.15 129.94 65.7 139.55 77.71 140.82C86.58 141.77 92.05 134.44 93.51 130.65Z" fill="#FFDE88"/>
<path d="M86.91 136.51C84.97 136.82 84.37 133.67 84.31 132.06C84.99 132.14 87.14 131.76 88.13 131.57C88.53 133.09 88.85 136.21 86.91 136.52V136.51Z" fill="#FF837B"/>
<path d="M79.74 130.61C80.2094 130.61 80.59 130.229 80.59 129.76C80.59 129.291 80.2094 128.91 79.74 128.91C79.2706 128.91 78.89 129.291 78.89 129.76C78.89 130.229 79.2706 130.61 79.74 130.61Z" fill="black"/>
<path d="M76.09 130.2C76.5594 130.2 76.94 129.819 76.94 129.35C76.94 128.881 76.5594 128.5 76.09 128.5C75.6206 128.5 75.24 128.881 75.24 129.35C75.24 129.819 75.6206 130.2 76.09 130.2Z" fill="black"/>
<mask id="mask1_332_3556" style="mask-type:luminance" maskUnits="userSpaceOnUse" x="0" y="49" width="76" height="64">
<path d="M64.9075 49.3168L0.289177 64.1994L11.3653 112.29L75.9836 97.4077L64.9075 49.3168Z" fill="white"/>
</mask>
<g mask="url(#mask1_332_3556)">
<path d="M6.51 74.42C6.51 74.42 0.560001 86.5 9.89 89.1C19.22 91.7 15.74 97.25 21.03 96.77C26.32 96.3 26.2 88.19 26.2 88.19C26.2 88.19 18.22 78.37 19.66 72.2C21.1 66.04 21.22 66.55 21.22 66.55C21.22 66.55 16.29 63.07 6.51 74.41V74.42Z" fill="#798280"/>
<path d="M6.48 74.28C6.48 74.28 12.97 62.46 20.53 65.64C20.53 65.64 17.73 70.73 20.12 77.65C20.12 77.65 17.24 67.2 6.48 74.28Z" fill="#5F6964"/>
<path d="M20.08 67.81C20.08 67.81 13.93 65.25 6.63 74.24C6.63 74.24 9.65 65.29 14.78 64.11C19.91 62.93 22.99 64.6 22.99 64.6L20.08 67.81Z" fill="#93988E"/>
<path d="M63.55 60.33C63.55 60.33 74.19 68.59 66.93 75.01C59.67 81.43 65.23 84.89 60.27 86.78C55.31 88.67 51.87 81.32 51.87 81.32C51.87 81.32 54.75 69 50.76 64.08C46.77 59.17 46.89 59.68 46.89 59.68C46.89 59.68 49.8 54.4 63.55 60.32V60.33Z" fill="#798280"/>
<path d="M64.18 60.99C64.18 60.99 53.17 53.2 47.77 59.37C47.77 59.37 52.51 62.72 53.39 69.99C53.39 69.99 51.41 59.33 64.18 60.99Z" fill="#5F6964"/>
<path d="M49.42 61.06C49.42 61.06 53.83 56.07 64.33 60.96C64.33 60.96 57.7 54.23 52.57 55.41C47.44 56.59 45.4 59.44 45.4 59.44L49.42 61.05V61.06Z" fill="#93988E"/>
<path d="M55.39 70.8C57.72 80.92 56.44 89.85 41.28 93.34C26.12 96.83 21.07 89.35 18.74 79.23C16.41 69.11 22.73 59.02 32.85 56.69C42.97 54.36 53.06 60.68 55.39 70.8Z" fill="#93988E"/>
<path d="M49.06 81.23C51.23 80.73 52.59 78.64 52.11 76.56C51.63 74.48 49.49 73.19 47.32 73.69C45.15 74.19 43.79 76.28 44.27 78.36C44.75 80.44 46.89 81.73 49.06 81.23Z" fill="black"/>
<path d="M29.75 85.68C31.92 85.18 33.28 83.09 32.8 81.01C32.32 78.93 30.18 77.64 28.01 78.14C25.84 78.64 24.48 80.73 24.96 82.81C25.44 84.89 27.58 86.18 29.75 85.68Z" fill="black"/>
<path d="M29.44 84.32C30.86 83.99 31.76 82.65 31.45 81.32C31.14 79.99 29.75 79.17 28.33 79.5C26.91 79.83 26.01 81.17 26.32 82.5C26.63 83.83 28.02 84.65 29.44 84.32Z" fill="black"/>
<path d="M29.39 81C29.76 80.91 30 80.54 29.91 80.17C29.82 79.8 29.45 79.56 29.08 79.65C28.71 79.74 28.47 80.11 28.56 80.48C28.65 80.85 29.02 81.09 29.39 81Z" fill="white"/>
<path d="M48.69 76.55C49.06 76.46 49.3 76.09 49.21 75.72C49.12 75.35 48.75 75.11 48.38 75.2C48.01 75.29 47.77 75.66 47.86 76.03C47.95 76.4 48.32 76.64 48.69 76.55Z" fill="white"/>
<path d="M32.24 88.36C33.42 90.18 34.61 92 35.79 93.82C36.44 94.82 37.1 95.86 37.28 97.04C37.46 98.22 36.99 99.58 35.91 100.08C34.83 100.58 33.27 99.69 33.44 98.51C33.54 97.82 33.23 97.2 32.63 96.85C32.48 96.76 31 97.26 30.82 97.27C28.74 97.36 27.63 98.5 26.6 100.31C26.23 100.96 27 101.68 27.24 102.39C27.41 102.89 28.54 103.39 28.98 103.68C34 107.08 41.91 106.81 46.16 102.48C46.16 102.48 54.1 96.63 45.33 85.36C39.78 78.22 32.24 88.37 32.24 88.37V88.36Z" fill="#93988E"/>
<path d="M48.46 89.75C48.41 89.94 49.56 91.04 51.11 90.84C52.65 90.64 50.03 88.23 50.03 88.23C50.03 88.23 48.95 87.78 48.46 89.75Z" fill="#FDFFCF"/>
<path d="M34.97 93.34C35.1 93.49 34.54 94.98 33.07 95.48C31.6 95.98 32.9 92.66 32.9 92.66C32.9 92.66 33.68 91.78 34.98 93.34H34.97Z" fill="#FDFFCF"/>
<path d="M46.05 90.29C43.65 89.84 41.13 90.46 39.17 91.91C38.62 92.32 38.12 92.8 37.69 93.34C37.61 93.44 37.67 93.6 37.76 93.66C37.88 93.73 38 93.68 38.08 93.59C39.51 91.84 41.73 90.75 43.98 90.62C44.63 90.58 45.28 90.62 45.92 90.74C46.21 90.8 46.35 90.35 46.06 90.3L46.05 90.29Z" fill="#848780"/>
<path d="M46.46 93.98C45.8 93.74 45.1 93.81 44.43 93.9C43.76 93.99 43.09 94.1 42.43 94.24C41.11 94.54 39.81 95.03 38.81 95.96C38.59 96.16 38.91 96.5 39.13 96.3C40.07 95.42 41.3 94.97 42.54 94.69C43.16 94.55 43.79 94.45 44.42 94.36C45.05 94.27 45.72 94.18 46.34 94.41C46.62 94.51 46.76 94.07 46.48 93.97L46.46 93.98Z" fill="#848780"/>
</g>
</svg>
