<svg width="281" height="286" viewBox="0 0 281 286" fill="none" xmlns="http://www.w3.org/2000/svg">
<g clip-path="url(#clip0_297_778)">
<path d="M82.29 274.42C82.96 273.27 83.88 272.37 85.04 271.73C86.2 271.09 87.46 270.76 88.84 270.76C90.42 270.76 91.82 271.15 93.04 271.92C94.26 272.69 95.16 273.79 95.71 275.21H92.79C92.41 274.43 91.87 273.85 91.19 273.46C90.51 273.07 89.72 272.88 88.83 272.88C87.85 272.88 86.98 273.1 86.21 273.54C85.44 273.98 84.84 274.61 84.41 275.43C83.98 276.25 83.76 277.21 83.76 278.3C83.76 279.39 83.98 280.35 84.41 281.17C84.84 281.99 85.44 282.63 86.21 283.08C86.98 283.53 87.85 283.75 88.83 283.75C89.72 283.75 90.51 283.56 91.19 283.18C91.87 282.8 92.4 282.22 92.79 281.43H95.71C95.16 282.85 94.27 283.94 93.04 284.71C91.81 285.48 90.41 285.86 88.84 285.86C87.45 285.86 86.18 285.54 85.03 284.89C83.88 284.24 82.97 283.35 82.3 282.2C81.63 281.05 81.29 279.75 81.29 278.31C81.29 276.87 81.63 275.56 82.3 274.42H82.29Z" fill="#A8A8A8"/>
<path d="M100.86 285.18C99.97 284.68 99.26 283.97 98.75 283.05C98.24 282.13 97.98 281.07 97.98 279.87C97.98 278.67 98.24 277.62 98.77 276.7C99.29 275.78 100.01 275.07 100.92 274.57C101.83 274.07 102.84 273.82 103.96 273.82C105.08 273.82 106.09 274.07 107 274.57C107.91 275.07 108.62 275.78 109.15 276.7C109.67 277.62 109.94 278.68 109.94 279.87C109.94 281.06 109.67 282.12 109.13 283.04C108.59 283.96 107.86 284.68 106.93 285.18C106 285.68 104.98 285.93 103.85 285.93C102.72 285.93 101.74 285.68 100.85 285.18H100.86ZM105.62 283.38C106.17 283.08 106.61 282.63 106.95 282.04C107.29 281.44 107.46 280.72 107.46 279.87C107.46 279.02 107.3 278.3 106.97 277.71C106.64 277.12 106.21 276.68 105.67 276.38C105.13 276.08 104.55 275.93 103.92 275.93C103.29 275.93 102.72 276.08 102.19 276.38C101.66 276.68 101.24 277.12 100.92 277.71C100.61 278.3 100.45 279.02 100.45 279.87C100.45 281.13 100.77 282.11 101.42 282.8C102.07 283.49 102.88 283.83 103.86 283.83C104.48 283.83 105.07 283.68 105.62 283.38Z" fill="#A8A8A8"/>
<path d="M120.98 274.4C121.71 274.78 122.28 275.35 122.69 276.1C123.1 276.85 123.31 277.76 123.31 278.82V285.74H120.91V279.19C120.91 278.14 120.65 277.34 120.12 276.77C119.6 276.21 118.88 275.93 117.97 275.93C117.06 275.93 116.34 276.21 115.81 276.77C115.28 277.33 115.01 278.14 115.01 279.19V285.74H112.58V274.01H115.01V275.35C115.41 274.87 115.91 274.49 116.53 274.22C117.15 273.95 117.8 273.82 118.5 273.82C119.42 273.82 120.25 274.01 120.98 274.4Z" fill="#A8A8A8"/>
<path d="M129.46 276V282.49C129.46 282.93 129.56 283.24 129.77 283.44C129.98 283.63 130.33 283.73 130.82 283.73H132.31V285.75H130.39C129.3 285.75 128.46 285.49 127.88 284.98C127.3 284.47 127.01 283.64 127.01 282.49V276H125.63V274.02H127.01V271.1H129.46V274.02H132.31V276H129.46Z" fill="#A8A8A8"/>
<path d="M145.44 280.79H136.48C136.55 281.73 136.9 282.48 137.52 283.05C138.14 283.62 138.91 283.9 139.82 283.9C141.13 283.9 142.05 283.35 142.59 282.26H145.21C144.86 283.34 144.21 284.22 143.28 284.91C142.35 285.6 141.2 285.94 139.82 285.94C138.7 285.94 137.7 285.69 136.81 285.19C135.92 284.69 135.23 283.98 134.72 283.06C134.22 282.14 133.96 281.08 133.96 279.88C133.96 278.68 134.2 277.61 134.69 276.7C135.18 275.78 135.87 275.08 136.75 274.58C137.64 274.08 138.65 273.83 139.8 273.83C140.95 273.83 141.89 274.07 142.76 274.55C143.63 275.03 144.3 275.71 144.78 276.58C145.26 277.45 145.5 278.46 145.5 279.59C145.5 280.03 145.47 280.43 145.42 280.78L145.44 280.79ZM143 278.83C142.99 277.94 142.67 277.22 142.04 276.68C141.42 276.14 140.64 275.87 139.72 275.87C138.88 275.87 138.17 276.14 137.57 276.67C136.97 277.2 136.62 277.92 136.51 278.83H143Z" fill="#A8A8A8"/>
<path d="M158.77 274.02V285.75H156.34V284.37C155.96 284.85 155.46 285.23 154.84 285.51C154.22 285.79 153.57 285.93 152.87 285.93C151.95 285.93 151.12 285.74 150.39 285.36C149.66 284.98 149.08 284.41 148.67 283.66C148.25 282.91 148.04 282 148.04 280.94V274.04H150.44V280.57C150.44 281.62 150.7 282.42 151.23 282.99C151.75 283.55 152.47 283.83 153.38 283.83C154.29 283.83 155.01 283.55 155.54 282.99C156.07 282.43 156.34 281.62 156.34 280.57V274.04H158.77V274.02ZM155.66 270.87L150.96 273.19V271.4L155.66 268.8V270.86V270.87Z" fill="#A8A8A8"/>
<path d="M162.12 276.7C162.61 275.79 163.28 275.09 164.12 274.58C164.96 274.07 165.9 273.82 166.94 273.82C167.71 273.82 168.46 273.99 169.21 274.32C169.96 274.65 170.55 275.1 170.99 275.65V269.99H173.44V285.74H170.99V283.97C170.59 284.54 170.04 285.01 169.34 285.38C168.64 285.75 167.83 285.93 166.92 285.93C165.9 285.93 164.97 285.67 164.12 285.15C163.27 284.63 162.61 283.91 162.12 282.98C161.63 282.05 161.39 281 161.39 279.82C161.39 278.64 161.63 277.6 162.12 276.69V276.7ZM170.48 277.77C170.15 277.17 169.71 276.72 169.17 276.41C168.63 276.1 168.05 275.94 167.42 275.94C166.79 275.94 166.21 276.09 165.67 276.4C165.13 276.71 164.69 277.15 164.36 277.74C164.03 278.33 163.86 279.03 163.86 279.84C163.86 280.65 164.03 281.36 164.36 281.97C164.69 282.58 165.13 283.04 165.68 283.36C166.23 283.68 166.8 283.84 167.41 283.84C168.02 283.84 168.62 283.68 169.16 283.37C169.7 283.06 170.14 282.6 170.47 282C170.8 281.4 170.97 280.69 170.97 279.88C170.97 279.07 170.8 278.37 170.47 277.77H170.48Z" fill="#A8A8A8"/>
<path d="M178.94 285.18C178.05 284.68 177.34 283.97 176.83 283.05C176.32 282.13 176.06 281.07 176.06 279.87C176.06 278.67 176.32 277.62 176.85 276.7C177.37 275.78 178.09 275.07 179 274.57C179.91 274.07 180.92 273.82 182.04 273.82C183.16 273.82 184.17 274.07 185.08 274.57C185.99 275.07 186.7 275.78 187.23 276.7C187.75 277.62 188.02 278.68 188.02 279.87C188.02 281.06 187.75 282.12 187.21 283.04C186.67 283.96 185.94 284.68 185.01 285.18C184.08 285.68 183.06 285.93 181.93 285.93C180.8 285.93 179.82 285.68 178.93 285.18H178.94ZM183.7 283.38C184.25 283.08 184.69 282.63 185.03 282.04C185.37 281.44 185.54 280.72 185.54 279.87C185.54 279.02 185.38 278.3 185.05 277.71C184.72 277.12 184.29 276.68 183.75 276.38C183.21 276.08 182.63 275.93 182 275.93C181.37 275.93 180.8 276.08 180.27 276.38C179.74 276.68 179.32 277.12 179 277.71C178.69 278.3 178.53 279.02 178.53 279.87C178.53 281.13 178.85 282.11 179.5 282.8C180.15 283.49 180.96 283.83 181.94 283.83C182.56 283.83 183.15 283.68 183.7 283.38Z" fill="#A8A8A8"/>
<path d="M192.44 285.44C191.71 285.11 191.13 284.65 190.71 284.08C190.28 283.51 190.06 282.86 190.03 282.15H192.54C192.58 282.65 192.82 283.06 193.25 283.4C193.68 283.74 194.23 283.9 194.88 283.9C195.53 283.9 196.09 283.77 196.47 283.51C196.85 283.25 197.03 282.91 197.03 282.5C197.03 282.06 196.82 281.73 196.4 281.52C195.98 281.31 195.32 281.07 194.41 280.82C193.53 280.58 192.81 280.35 192.26 280.12C191.71 279.89 191.23 279.55 190.82 279.08C190.42 278.61 190.21 278 190.21 277.23C190.21 276.61 190.39 276.03 190.76 275.52C191.13 275 191.66 274.59 192.35 274.3C193.04 274 193.83 273.85 194.72 273.85C196.05 273.85 197.13 274.19 197.94 274.86C198.76 275.53 199.19 276.45 199.25 277.62H196.82C196.78 277.09 196.56 276.68 196.18 276.36C195.8 276.05 195.28 275.89 194.63 275.89C193.98 275.89 193.5 276.01 193.16 276.25C192.82 276.49 192.65 276.81 192.65 277.21C192.65 277.52 192.76 277.79 192.99 278C193.22 278.21 193.49 278.38 193.82 278.5C194.15 278.62 194.63 278.77 195.27 278.96C196.12 279.19 196.82 279.42 197.37 279.65C197.92 279.88 198.39 280.23 198.79 280.68C199.19 281.13 199.39 281.74 199.41 282.49C199.41 283.16 199.23 283.75 198.86 284.28C198.49 284.8 197.97 285.22 197.3 285.51C196.63 285.81 195.83 285.96 194.93 285.96C194.03 285.96 193.18 285.79 192.45 285.46L192.44 285.44Z" fill="#A8A8A8"/>
<path d="M126.71 231.16C188.246 231.16 238.13 181.276 238.13 119.74C238.13 58.2044 188.246 8.31998 126.71 8.31998C65.1745 8.31998 15.29 58.2044 15.29 119.74C15.29 181.276 65.1745 231.16 126.71 231.16Z" fill="#92C1D6"/>
<path d="M0.26001 159.97L52.7 54.96L139.56 75.85L91.88 189.52L0.26001 159.97Z" fill="#5A89CC"/>
<path d="M91.8799 189.52L140.97 75.5L277.08 51.24L230.82 154.71L91.8799 189.52Z" fill="#5A89CC"/>
<path d="M10.3901 144.31C8.74008 144.43 2.83008 152.77 2.83008 152.77C2.83008 152.77 74.8801 156.59 99.0901 187.72C99.0901 187.72 90.0601 138.58 10.4001 144.31H10.3901Z" fill="#9E9EB7"/>
<path d="M3.34008 146.07C3.34008 146.07 83.3601 138.05 101.91 185.91C120.46 233.76 102.46 188.12 102.46 188.12C102.46 188.12 85.7001 118.87 7.96008 138.35C5.90008 138.87 3.33008 146.07 3.33008 146.07H3.34008Z" fill="#B1B1D0"/>
<path d="M4.11 140.41C2.69 140.9 16.79 121.16 16.79 121.16C16.79 121.16 101.62 110.51 100.88 177.42L101.4 188.23C101.4 188.23 71.52 116.97 4.11 140.42V140.41Z" fill="#BCBED4"/>
<path d="M90.6001 201.87C90.6001 201.87 113.01 158.26 228.5 158.57L277.9 59.67C277.9 59.67 256.1 29.16 150.82 96.01L90.6001 201.87Z" fill="#9E9EB7"/>
<path d="M94.95 202.02C94.95 202.02 108.64 148.36 224.12 149.83L266.98 57.97C266.98 57.97 245.49 27.25 139.54 93.04L94.95 202.02Z" fill="#B1B1D0"/>
<path d="M93.05 200.89C93.05 200.89 100.45 151.26 213.35 144.13C214.61 144.05 215.89 143.98 217.18 143.91L260.27 45.22C260.27 45.22 222.01 19.11 133.78 81.68L93.06 200.89H93.05Z" fill="#BCBED4"/>
<path d="M0 158.94L4.15 175.5L102.95 203.14C102.95 203.14 99.1 187.76 99.08 187.7C99.06 187.64 0 158.94 0 158.94Z" fill="#70A5FF"/>
<path d="M99.0801 187.71L102.95 203.15L237.18 171.38L230.82 154.71L99.0801 187.71Z" fill="#70A5FF"/>
<path d="M230.82 154.71L277.08 51.24L280.69 65.65L236.23 171.95L230.82 154.71Z" fill="#70A5FF"/>
<path d="M100.11 178.7L135.32 83.47C135.32 83.47 170.54 23.24 246.46 29.38C248.82 29.57 208.42 122.04 208.42 122.04C208.42 122.04 157.47 115.12 100.11 178.7Z" fill="#FCFCFC"/>
<path d="M100.11 178.7L140.97 75.49C140.97 75.49 106.77 26.1 58.3499 38.23C56.2899 38.75 56.5499 38.68 56.5499 38.68L5.38989 128.06C5.38989 128.06 63.0199 100.5 100.11 178.71V178.7Z" fill="#F4F4F4"/>
<path d="M123.82 82.68C142.454 82.68 157.56 67.5741 157.56 48.94C157.56 30.3059 142.454 15.2 123.82 15.2C105.186 15.2 90.0798 30.3059 90.0798 48.94C90.0798 67.5741 105.186 82.68 123.82 82.68Z" fill="#F5DCBE"/>
<mask id="mask0_297_778" style="mask-type:luminance" maskUnits="userSpaceOnUse" x="90" y="15" width="68" height="68">
<path d="M123.82 82.68C142.454 82.68 157.56 67.5741 157.56 48.94C157.56 30.3059 142.454 15.2 123.82 15.2C105.186 15.2 90.0798 30.3059 90.0798 48.94C90.0798 67.5741 105.186 82.68 123.82 82.68Z" fill="white"/>
</mask>
<g mask="url(#mask0_297_778)">
<path d="M97.9196 66.48C101.532 66.48 104.46 63.6683 104.46 60.2C104.46 56.7316 101.532 53.92 97.9196 53.92C94.3077 53.92 91.3796 56.7316 91.3796 60.2C91.3796 63.6683 94.3077 66.48 97.9196 66.48Z" fill="#413A3A"/>
<path d="M158.41 48.1L149.41 53.1C147.05 44.54 140.14 29.31 133.37 33.31C120.88 40.7 113.1 45.7 105.22 43.44C96.6697 41 98.7297 29.93 96.2097 29.93C95.0797 29.93 90.6597 43.14 89.6597 51.14C88.3597 40.08 96.6597 15.09 121.52 14.31C156.96 11.07 158.42 48.11 158.42 48.11L158.41 48.1Z" fill="#C9B49D"/>
</g>
<path d="M126.83 68.02C130.817 68.02 134.05 64.9128 134.05 61.08C134.05 57.2471 130.817 54.14 126.83 54.14C122.842 54.14 119.61 57.2471 119.61 61.08C119.61 64.9128 122.842 68.02 126.83 68.02Z" fill="#413A3A"/>
<path d="M109.92 74.69C110.66 75.74 112.76 77.2 115.2 74.69" stroke="#764C4C" stroke-linecap="round"/>
<path d="M122.57 84.06H127.47C134.2 84.06 139.65 90.28 139.65 97.95V114.56C139.65 122.23 134.2 128.45 127.47 128.45H122.57C115.84 128.45 110.39 122.23 110.39 114.56V97.95C110.39 90.28 115.84 84.06 122.57 84.06Z" fill="#7C85A7"/>
<path d="M115.27 92.36L103.71 101.01C102.48 101.93 100.74 101.68 99.8198 100.45C98.8998 99.22 99.1498 97.48 100.38 96.56L111.94 87.91C113.17 86.99 114.91 87.24 115.83 88.47C116.75 89.7 116.5 91.44 115.27 92.36Z" fill="#7C85A7"/>
<path d="M132.63 90.72L133.06 101.71C133.19 103.24 134.53 104.38 136.06 104.25C136.06 104.25 139.23 104.42 138.6 101.25L138.17 90.26C138.04 88.73 136.7 87.59 135.17 87.72C133.64 87.85 132.5 89.19 132.63 90.72Z" fill="#717A96"/>
<path d="M134 90.06L135.74 102.94C136.02 104.45 137.47 105.44 138.98 105.16C138.98 105.16 142.15 105.01 141.2 101.92L139.46 89.04C139.18 87.53 137.73 86.54 136.22 86.82C134.71 87.1 133.72 88.55 134 90.06Z" fill="#7C85A7"/>
<path d="M100.87 94.96L103.88 104.04C104.2 105 103.72 106.65 102.82 107.7C101.91 108.76 100.92 108.84 100.6 107.87L97.59 98.79C97.27 97.83 97.75 96.18 98.65 95.13C99.56 94.07 100.55 93.99 100.87 94.96Z" fill="#7C85A7"/>
<path d="M137.32 102.01L122.96 100.46C121.43 100.3 120.07 101.4 119.9 102.92C119.74 104.45 120.84 105.81 122.36 105.98L136.72 107.53C138.25 107.69 139.61 106.59 139.78 105.07C139.94 103.54 138.84 102.18 137.32 102.01Z" fill="#717A96"/>
<path d="M138.65 118.13C138.65 118.13 88.6499 122.13 88.6499 132.13C88.6499 143.18 104.65 135.13 114.65 142.13C121.65 137.13 129.26 145 132.65 133.13C134.65 126.13 142.65 123.13 138.65 118.13Z" fill="#E8E8E8"/>
<path d="M123.57 130.76C121.73 130.76 120.24 129.62 120.24 128.21V115.68C120.24 114.27 121.73 113.13 123.57 113.13C125.41 113.13 126.9 114.27 126.9 115.68V128.21C126.9 129.62 125.41 130.76 123.57 130.76Z" fill="#E3817A"/>
<path d="M121.11 125.61C120.27 127.25 118.26 127.9 116.63 127.06L102.04 119.6C100.4 118.76 99.7499 116.75 100.59 115.12C101.43 113.48 103.44 112.83 105.07 113.67L119.66 121.13C121.3 121.97 121.95 123.98 121.11 125.61Z" fill="#E3817A"/>
<path d="M101.83 112.78C103.67 112.78 105.16 114.27 105.16 116.11V132.5C105.16 134.34 103.67 135.83 101.83 135.83C99.99 135.83 98.5 134.34 98.5 132.5V116.11C98.5 114.27 99.99 112.78 101.83 112.78Z" fill="#F5DCBE"/>
<path d="M123.82 79.63C125.74 79.63 127.29 81.18 127.29 83.1V85.88C127.29 87.8 125.74 89.35 123.82 89.35C121.9 89.35 120.35 87.8 120.35 85.88V83.1C120.35 81.18 121.9 79.63 123.82 79.63Z" fill="#F5DCBE"/>
<path d="M120.07 82.41C122.03 82.83 125.9 82.69 127.57 82.41C126.48 84.51 123.46 87.44 120.07 82.41Z" fill="#CFBFA0"/>
<path d="M93.36 95.13C94.46 93.15 96.95 92.43 98.93 93.53L101.04 94.7C103.02 95.8 103.74 98.29 102.64 100.27C101.54 102.25 99.05 102.97 97.07 101.87L94.96 100.7C92.98 99.6 92.26 97.11 93.36 95.13Z" fill="#F5DCBE"/>
<g opacity="0.2">
<path d="M124.1 77.15C125.862 77.15 127.29 75.7218 127.29 73.96C127.29 72.1982 125.862 70.77 124.1 70.77C122.338 70.77 120.91 72.1982 120.91 73.96C120.91 75.7218 122.338 77.15 124.1 77.15Z" fill="#E3817A"/>
</g>
<g opacity="0.2">
<path d="M101.58 73.78C103.342 73.78 104.77 72.3518 104.77 70.59C104.77 68.8282 103.342 67.4 101.58 67.4C99.8181 67.4 98.3899 68.8282 98.3899 70.59C98.3899 72.3518 99.8181 73.78 101.58 73.78Z" fill="#E3817A"/>
</g>
<path d="M93.01 87.41L99.45 94.74L115.04 87.73L119.65 107.13L104.14 112L97.77 104.82L93.01 87.41Z" fill="#70A5FF"/>
<path d="M137.32 101.01L122.96 99.46C121.43 99.3 120.07 100.4 119.9 101.92C119.74 103.45 120.84 104.81 122.36 104.98L136.72 106.53C138.25 106.69 139.61 105.59 139.78 104.07C139.94 102.54 138.84 101.18 137.32 101.01Z" fill="#7C85A7"/>
<path d="M112.66 100.32C112.21 102.54 113.65 104.7 115.87 105.15L118.23 105.63C120.45 106.08 122.61 104.64 123.06 102.42C123.51 100.2 122.07 98.04 119.85 97.59L117.49 97.11C115.27 96.66 113.11 98.1 112.66 100.32Z" fill="#F5DCBE"/>
<path d="M117.82 94.81C117.18 95.23 117 96.1 117.42 96.74L118.51 98.39C118.93 99.03 119.8 99.21 120.44 98.79C121.08 98.37 121.26 97.5 120.84 96.86L119.75 95.21C119.33 94.57 118.46 94.39 117.82 94.81Z" fill="#F5DCBE"/>
<path d="M105.4 134.12C105.4 136.42 102.01 135.93 98.18 135.93C94.35 135.93 91.51 136.43 91.51 134.12C91.51 131.81 94.62 129.95 98.45 129.95C102.28 129.95 105.39 131.82 105.39 134.12H105.4Z" fill="#717A96"/>
<path d="M110.39 114.33H139.64V114.61C139.64 122.28 134.18 128.5 127.45 128.5H122.57C115.84 128.5 110.38 122.28 110.38 114.61V114.33H110.39Z" fill="#E3817A"/>
<path d="M158.019 53.2563C159.051 50.0263 158.089 46.8325 155.869 46.1228C153.649 45.413 151.012 47.4561 149.98 50.686C148.947 53.916 149.909 57.1098 152.129 57.8195C154.349 58.5293 156.986 56.4862 158.019 53.2563Z" fill="#F5DCBE"/>
<path d="M123.57 113.9C125.41 113.9 126.9 115.39 126.9 117.23V133.62C126.9 135.46 125.41 136.95 123.57 136.95C121.73 136.95 120.24 135.46 120.24 133.62V117.23C120.24 115.39 121.73 113.9 123.57 113.9Z" fill="#F5DCBE"/>
<path d="M128.26 137.22C128.26 139.52 125.15 139.16 121.32 139.16C117.49 139.16 114.38 139.52 114.38 137.22C114.38 134.92 117.49 133.05 121.32 133.05C125.15 133.05 128.26 134.92 128.26 137.22Z" fill="#717A96"/>
<path d="M94.6499 88.13L99.5499 93.87L114.07 87.71L115.04 87.73L99.4499 94.74L92.8499 87.41L94.6499 88.13Z" fill="#8DB3FF"/>
<path d="M105.65 111.13L100.74 94.16L99.4499 94.74L98.6699 93.88L102.65 110.13L104.14 112L105.65 111.13Z" fill="#7598D1"/>
<path d="M69.9201 49.12L64.1001 51.37L64.2301 54.48L60.2601 56.02L59.8701 38.25L64.2701 36.55L75.9301 49.96L71.9101 51.51L69.9101 49.12H69.9201ZM67.8101 46.57L63.6701 41.61L63.9701 48.05L67.8101 46.56V46.57Z" fill="#B489C6"/>
<path d="M71.9201 47.12L66.1001 49.37L66.2301 52.48L62.2601 54.02L61.8701 36.25L66.2701 34.55L77.9301 47.96L73.9101 49.51L71.9101 47.12H71.9201ZM69.8101 44.57L65.6701 39.61L65.9701 46.05L69.8101 44.56V44.57Z" fill="#DFA6F4"/>
<path d="M170.51 18.04L179.09 20.6L177.9 24.58L163.82 20.38L164.92 16.69L177.1 6.96999L168.58 4.42999L169.77 0.459991L183.85 4.65999L182.75 8.34999L170.51 18.06V18.04Z" fill="#8BC69B"/>
<path d="M174 17.6L182.57 20.16L181.38 24.14L167.3 19.94L168.4 16.25L180.58 6.52999L172.06 3.98999L173.25 0.019989L187.33 4.21999L186.23 7.90999L173.99 17.62L174 17.6Z" fill="#9EE6B3"/>
<path d="M27.0501 102.81L36.0901 126.2L30.3901 128.4L24.9701 114.37L25.1601 130.42L20.5601 132.2L9.86006 120.17L15.3001 134.23L9.60006 136.43L0.560059 113.05L7.29006 110.45L20.1201 124.11L20.3601 105.4L27.0601 102.81H27.0501Z" fill="#C4B558"/>
<path d="M30.0501 99.81L39.0901 123.2L33.3901 125.4L27.9701 111.37L28.1601 127.42L23.5601 129.2L12.8601 117.17L18.3001 131.23L12.6001 133.43L3.56006 110.04L10.2901 107.44L23.1201 121.1L23.3601 102.39L30.0601 99.8L30.0501 99.81Z" fill="#F8E86D"/>
<path d="M41.3 191.28C41.3 191.28 38.3 187.69 35.97 184.41L102.94 203.15L222.59 174.83C222.59 174.83 222.25 177.84 218.44 182.99C214.63 188.14 104.15 210.13 104.15 210.13L41.3 191.28Z" fill="#87B5C4"/>
<path d="M190.79 196.87C192.71 197.76 194.16 199.17 195.14 201.08C196.55 203.83 196.71 206.51 195.61 209.11C194.51 211.71 192.24 213.89 188.8 215.65L173.44 223.51L156.56 190.55L171.4 182.95C174.75 181.24 177.77 180.66 180.44 181.22C183.12 181.78 185.13 183.38 186.48 186.01C187.47 187.95 187.79 189.82 187.43 191.63C187.07 193.44 186.17 195.02 184.74 196.39C186.86 195.82 188.88 195.98 190.8 196.87H190.79ZM171.41 199.77L176.67 197.08C177.98 196.41 178.85 195.6 179.25 194.66C179.66 193.72 179.57 192.69 179 191.56C178.42 190.43 177.63 189.75 176.62 189.52C175.61 189.29 174.45 189.51 173.13 190.18L167.87 192.87L171.41 199.77ZM186.71 207.38C187.13 206.39 187.05 205.32 186.46 204.16C185.87 203 185.02 202.29 183.92 202.03C182.82 201.77 181.59 201.98 180.24 202.67L174.42 205.65L178.15 212.93L184.07 209.9C185.42 209.21 186.3 208.37 186.72 207.39L186.71 207.38Z" fill="#B7977D"/>
<path d="M194.74 192C196.66 192.89 198.11 194.3 199.09 196.21C200.5 198.97 200.66 201.64 199.56 204.24C198.46 206.84 196.19 209.02 192.75 210.78L177.39 218.64L160.51 185.67L175.35 178.07C178.7 176.35 181.71 175.78 184.39 176.34C187.07 176.9 189.08 178.5 190.43 181.13C191.42 183.07 191.74 184.94 191.38 186.75C191.02 188.56 190.12 190.14 188.69 191.51C190.81 190.94 192.83 191.1 194.75 191.99L194.74 192ZM175.36 194.9L180.62 192.21C181.93 191.54 182.8 190.73 183.2 189.79C183.61 188.85 183.52 187.82 182.95 186.69C182.37 185.56 181.58 184.88 180.57 184.65C179.56 184.42 178.4 184.64 177.08 185.31L171.82 188L175.36 194.9ZM190.66 202.51C191.08 201.52 191 200.45 190.4 199.29C189.81 198.13 188.96 197.42 187.86 197.16C186.76 196.9 185.53 197.11 184.18 197.8L178.36 200.78L182.09 208.06L188.01 205.03C189.35 204.34 190.24 203.5 190.66 202.51Z" fill="#EEC7A1"/>
<path d="M191.47 46.13C192.67 43.83 194.82 42.08 197.93 40.88C199.99 40.08 201.9 39.76 203.65 39.9C205.4 40.05 206.89 40.59 208.13 41.54C209.36 42.49 210.28 43.73 210.88 45.27C211.58 47.09 211.7 48.74 211.23 50.23C210.76 51.72 210 52.91 208.95 53.79L209.01 53.95C210.78 53.87 212.35 54.25 213.73 55.11C215.11 55.97 216.16 57.35 216.89 59.25C217.55 60.96 217.74 62.62 217.46 64.22C217.18 65.83 216.44 67.3 215.22 68.62C214.01 69.94 212.37 71 210.31 71.8C207.01 73.08 204.06 73.28 201.46 72.42C198.87 71.56 196.88 69.51 195.5 66.28L202.35 63.63C202.85 64.83 203.56 65.65 204.49 66.1C205.42 66.55 206.52 66.52 207.78 66.04C208.85 65.62 209.57 64.99 209.92 64.15C210.27 63.3 210.25 62.37 209.86 61.35C209.35 60.03 208.56 59.24 207.49 58.97C206.42 58.7 204.97 58.93 203.12 59.64L201.8 60.15L199.58 54.41L200.9 53.9C202.3 53.36 203.35 52.68 204.03 51.86C204.71 51.04 204.81 50.02 204.33 48.78C203.95 47.79 203.37 47.13 202.61 46.79C201.85 46.45 200.98 46.47 200.02 46.84C198.97 47.24 198.32 47.86 198.05 48.69C197.79 49.52 197.79 50.42 198.07 51.39L191.18 54.06C190.15 51.07 190.24 48.43 191.44 46.13H191.47Z" fill="#CC736E"/>
<path d="M192.47 43.13C193.67 40.83 195.82 39.08 198.93 37.88C200.99 37.08 202.9 36.76 204.65 36.9C206.4 37.05 207.89 37.59 209.13 38.54C210.36 39.49 211.28 40.73 211.88 42.27C212.58 44.09 212.7 45.74 212.23 47.23C211.76 48.72 211 49.91 209.95 50.79L210.01 50.95C211.78 50.87 213.35 51.25 214.73 52.11C216.11 52.97 217.16 54.35 217.89 56.25C218.55 57.96 218.74 59.62 218.46 61.22C218.18 62.83 217.44 64.3 216.22 65.62C215.01 66.94 213.37 68 211.31 68.8C208.01 70.08 205.06 70.28 202.46 69.42C199.87 68.56 197.88 66.51 196.5 63.28L203.35 60.63C203.85 61.83 204.56 62.65 205.49 63.1C206.42 63.55 207.52 63.52 208.78 63.04C209.85 62.62 210.57 61.99 210.92 61.15C211.27 60.3 211.25 59.37 210.86 58.35C210.35 57.03 209.56 56.24 208.49 55.97C207.42 55.7 205.97 55.93 204.12 56.64L202.8 57.15L200.58 51.41L201.9 50.9C203.3 50.36 204.35 49.68 205.03 48.86C205.71 48.04 205.81 47.02 205.33 45.78C204.95 44.79 204.37 44.13 203.61 43.79C202.85 43.45 201.98 43.47 201.02 43.84C199.97 44.24 199.32 44.86 199.05 45.69C198.79 46.52 198.79 47.42 199.07 48.39L192.18 51.06C191.15 48.07 191.24 45.43 192.44 43.13H192.47Z" fill="#E4827A"/>
<path d="M56.55 183.17L59.09 177.62L80.14 165.26L87.82 168.78L79.67 186.56L82.97 188.07L80.24 194.03L76.94 192.52L74.54 197.75L67.66 194.6L70.06 189.37L56.54 183.18L56.55 183.17ZM77.96 173.41L66.52 180.53L73.28 183.63L77.96 173.41Z" fill="#D1799D"/>
<path d="M56.3899 179.79L58.9299 174.24L79.9799 161.88L87.6599 165.4L79.5099 183.18L82.8099 184.69L80.0799 190.65L76.7799 189.14L74.3799 194.37L67.4999 191.22L69.8999 185.99L56.3799 179.8L56.3899 179.79ZM77.7999 170.03L66.3599 177.15L73.1199 180.25L77.7999 170.03Z" fill="#F28BB4"/>
<path d="M101.65 58.13C102.202 58.13 102.65 57.6823 102.65 57.13C102.65 56.5777 102.202 56.13 101.65 56.13C101.098 56.13 100.65 56.5777 100.65 57.13C100.65 57.6823 101.098 58.13 101.65 58.13Z" fill="#E8E8E8"/>
<path d="M130.65 58.13C131.202 58.13 131.65 57.6823 131.65 57.13C131.65 56.5777 131.202 56.13 130.65 56.13C130.098 56.13 129.65 56.5777 129.65 57.13C129.65 57.6823 130.098 58.13 130.65 58.13Z" fill="#E8E8E8"/>
</g>
<defs>
<clipPath id="clip0_297_778">
<rect width="280.69" height="285.94" fill="white"/>
</clipPath>
</defs>
</svg>
