<svg width="190" height="178" viewBox="0 0 190 178" fill="none" xmlns="http://www.w3.org/2000/svg">
<path d="M140.51 24H45.01C28.3034 24 14.76 37.5434 14.76 54.25V92.75C14.76 109.457 28.3034 123 45.01 123H140.51C157.217 123 170.76 109.457 170.76 92.75V54.25C170.76 37.5434 157.217 24 140.51 24Z" fill="#F28BB4"/>
<mask id="mask0_332_3659" style="mask-type:luminance" maskUnits="userSpaceOnUse" x="14" y="24" width="157" height="99">
<path d="M140.51 24H45.01C28.3034 24 14.76 37.5434 14.76 54.25V92.75C14.76 109.457 28.3034 123 45.01 123H140.51C157.217 123 170.76 109.457 170.76 92.75V54.25C170.76 37.5434 157.217 24 140.51 24Z" fill="white"/>
</mask>
<g mask="url(#mask0_332_3659)">
<path d="M174.42 77.82C169.85 74.03 163.4 73.56 157.49 74.06C151.6 74.57 145.78 75.88 140.24 77.96C136.25 79.46 132.19 81.38 127.95 81.03C122.87 80.61 118.63 77.02 113.74 75.58C105.3 73.1 96.5 77.28 88.57 81.08C80.63 84.88 71.35 88.44 63.31 84.86C60.37 83.55 57.78 81.33 54.62 80.71C50.85 79.97 47.04 81.66 43.8 83.71C40.56 85.76 37.52 88.27 33.88 89.48C29.35 90.98 24.42 90.3 19.67 90.75C14.92 91.2 9.66998 93.43 8.32998 98.01C7.26998 101.64 9.08001 105.55 11.64 108.33C15.49 112.51 20.88 114.86 26.1 117.1C34.47 120.7 42.92 124.32 51.87 126.02C65.72 128.65 79.99 126.57 94.07 127.21C105.52 127.74 116.88 130.08 128.35 129.84C137.69 129.65 146.91 127.75 156.06 125.86C159.74 125.1 163.54 124.28 166.56 122.05C169.48 119.89 171.36 116.6 172.73 113.24C176.3 104.45 176.84 94.76 177.33 85.29C177.47 82.52 177.58 79.58 176.26 77.14C174.94 74.7 171.64 73.1 169.29 74.59" fill="#DFA6F4"/>
<path d="M174.78 77.47C170.1 73.67 163.83 73.09 158.03 73.52C150.92 74.06 144.17 75.91 137.54 78.47C134.29 79.73 130.82 80.97 127.28 80.45C124.15 79.99 121.36 78.39 118.56 77.02C115.76 75.65 112.83 74.56 109.64 74.37C106.45 74.18 102.97 74.8 99.8 75.8C93.13 77.89 87.15 81.63 80.56 83.92C77.38 85.02 74.04 85.84 70.66 85.85C67.28 85.86 64.16 84.91 61.22 83.22C58.55 81.69 55.92 80.03 52.73 80.04C49.54 80.05 46.37 81.51 43.67 83.21C40.97 84.91 38.34 87.02 35.36 88.37C32.04 89.88 28.41 90 24.83 90.05C19.46 90.13 13.03 90.4 9.36998 95C5.44998 99.92 8.51999 106.25 12.57 109.96C17.33 114.32 23.65 116.62 29.51 119.1C36.08 121.88 42.75 124.53 49.73 126.09C64.27 129.34 79.19 127.06 93.92 127.71C101.47 128.05 108.96 129.18 116.49 129.85C124.02 130.52 131.4 130.49 138.87 129.5C142.51 129.02 146.13 128.37 149.74 127.67C153.35 126.97 156.68 126.38 160.08 125.48C163.05 124.7 165.92 123.5 168.18 121.37C170.44 119.24 171.87 116.63 173.02 113.88C175.72 107.48 176.76 100.54 177.32 93.66C177.6 90.21 177.86 86.73 177.92 83.26C177.97 80.41 177.59 77.2 175.36 75.18C173.66 73.64 171.13 72.92 169.06 74.15C168.51 74.48 169.01 75.34 169.56 75.01C172.06 73.53 175.05 75.55 176.1 77.9C177.43 80.87 176.89 84.46 176.72 87.61C176.35 94.36 175.85 101.16 174.07 107.71C172.45 113.69 169.84 120.21 163.92 123.06C161.07 124.43 157.88 124.99 154.8 125.62C151.3 126.34 147.79 127.05 144.26 127.66C137.14 128.89 129.97 129.58 122.74 129.27C115.51 128.96 108.36 127.92 101.17 127.23C93.98 126.54 86.94 126.53 79.79 126.7C72.64 126.87 65.47 127.11 58.35 126.43C51.23 125.75 44.6 123.92 38.02 121.45C34.73 120.22 31.49 118.86 28.26 117.48C25.39 116.25 22.49 115.06 19.73 113.6C14.68 110.95 8.35 106.38 8.54 99.96C8.71 94.1 15.19 91.6 20.15 91.2C23.52 90.93 26.92 91.17 30.28 90.76C33.64 90.35 36.3 89.2 39.02 87.49C44.29 84.18 50.1 79.02 56.73 81.88C59.47 83.06 61.83 84.95 64.68 85.91C67.53 86.87 70.68 87.01 73.69 86.62C80.13 85.79 85.94 82.82 91.74 80.11C97.54 77.4 104.34 74.56 111.06 75.49C117.1 76.33 121.86 80.99 127.97 81.5C131.22 81.77 134.4 80.72 137.39 79.57C140.57 78.35 143.74 77.17 147.04 76.32C150.34 75.47 153.87 74.85 157.35 74.55C160.29 74.29 163.3 74.25 166.21 74.76C169.12 75.27 171.82 76.3 174.08 78.14C174.58 78.54 175.29 77.84 174.79 77.43L174.78 77.47Z" fill="#DFA6F4"/>
</g>
<path d="M140.51 24H45.01C28.3034 24 14.76 37.5434 14.76 54.25V92.75C14.76 109.457 28.3034 123 45.01 123H140.51C157.217 123 170.76 109.457 170.76 92.75V54.25C170.76 37.5434 157.217 24 140.51 24Z" stroke="#DFA6F4" stroke-miterlimit="10"/>
<path d="M31.05 143.15C31.59 142.23 32.32 141.52 33.24 141C34.16 140.48 35.18 140.23 36.27 140.23C37.53 140.23 38.65 140.54 39.63 141.16C40.61 141.78 41.32 142.65 41.76 143.79H39.43C39.12 143.17 38.7 142.7 38.15 142.4C37.61 142.09 36.98 141.94 36.26 141.94C35.48 141.94 34.78 142.12 34.17 142.47C33.56 142.82 33.08 143.33 32.73 143.98C32.38 144.64 32.21 145.4 32.21 146.27C32.21 147.14 32.38 147.91 32.73 148.56C33.08 149.22 33.55 149.72 34.17 150.08C34.78 150.44 35.48 150.62 36.26 150.62C36.97 150.62 37.6 150.47 38.15 150.16C38.69 149.85 39.12 149.39 39.43 148.77H41.76C41.32 149.9 40.61 150.78 39.63 151.39C38.65 152 37.53 152.31 36.27 152.31C35.16 152.31 34.15 152.05 33.23 151.54C32.31 151.02 31.58 150.31 31.05 149.39C30.51 148.47 30.24 147.43 30.24 146.28C30.24 145.13 30.51 144.09 31.05 143.17V143.15Z" fill="#A8A8A8"/>
<path d="M47.29 143.07C47.76 142.8 48.32 142.67 48.96 142.67V144.68H48.47C47.71 144.68 47.14 144.87 46.74 145.26C46.35 145.64 46.15 146.31 46.15 147.27V152.2H44.21V142.83H46.15V144.19C46.43 143.71 46.81 143.34 47.28 143.08L47.29 143.07Z" fill="#A8A8A8"/>
<path d="M51.03 141.23C50.79 140.99 50.67 140.7 50.67 140.35C50.67 140 50.79 139.7 51.03 139.47C51.27 139.23 51.56 139.11 51.91 139.11C52.26 139.11 52.54 139.23 52.78 139.47C53.02 139.71 53.14 140 53.14 140.35C53.14 140.7 53.02 141 52.78 141.23C52.54 141.47 52.25 141.59 51.91 141.59C51.57 141.59 51.26 141.47 51.03 141.23ZM52.87 142.82V152.19H50.93V142.82H52.87Z" fill="#A8A8A8"/>
<path d="M55.55 144.97C55.94 144.24 56.47 143.68 57.15 143.28C57.83 142.88 58.57 142.68 59.39 142.68C60.13 142.68 60.77 142.82 61.32 143.11C61.87 143.4 62.31 143.76 62.64 144.19V142.83H64.6V152.2H62.64V150.81C62.31 151.25 61.86 151.62 61.3 151.91C60.73 152.2 60.09 152.35 59.36 152.35C58.55 152.35 57.82 152.14 57.15 151.73C56.48 151.32 55.95 150.74 55.56 150C55.17 149.26 54.97 148.42 54.97 147.48C54.97 146.54 55.17 145.71 55.56 144.98L55.55 144.97ZM62.23 145.82C61.96 145.34 61.62 144.98 61.18 144.73C60.75 144.48 60.28 144.36 59.79 144.36C59.3 144.36 58.83 144.48 58.4 144.73C57.97 144.97 57.62 145.33 57.35 145.8C57.08 146.27 56.95 146.83 56.95 147.47C56.95 148.11 57.08 148.68 57.35 149.17C57.62 149.66 57.97 150.03 58.4 150.28C58.84 150.53 59.3 150.66 59.79 150.66C60.28 150.66 60.75 150.54 61.18 150.29C61.61 150.04 61.96 149.68 62.23 149.19C62.5 148.71 62.63 148.15 62.63 147.5C62.63 146.85 62.5 146.29 62.23 145.82Z" fill="#A8A8A8"/>
<path d="M74.03 143.13C74.61 143.44 75.07 143.89 75.4 144.49C75.73 145.09 75.89 145.82 75.89 146.67V152.2H73.97V146.96C73.97 146.12 73.76 145.48 73.34 145.03C72.92 144.58 72.35 144.36 71.62 144.36C70.89 144.36 70.32 144.58 69.89 145.03C69.46 145.48 69.25 146.12 69.25 146.96V152.2H67.31V142.83H69.25V143.9C69.57 143.51 69.97 143.21 70.47 143C70.96 142.79 71.49 142.68 72.04 142.68C72.78 142.68 73.44 142.83 74.02 143.14L74.03 143.13Z" fill="#A8A8A8"/>
<path d="M84.71 149.23H86.8C86.55 150.09 86.11 150.8 85.47 151.35C84.83 151.9 84.03 152.22 83.06 152.31V153.01C83.72 153.01 84.25 153.17 84.66 153.48C85.07 153.79 85.27 154.23 85.27 154.8C85.27 155.37 85.07 155.82 84.66 156.15C84.25 156.48 83.74 156.65 83.11 156.65H80.87V155.43H82.72C83.04 155.43 83.28 155.38 83.43 155.29C83.58 155.2 83.67 155.04 83.67 154.8C83.67 154.56 83.59 154.4 83.43 154.31C83.27 154.22 83.03 154.17 82.72 154.17H81.78V152.3C81.01 152.21 80.33 151.95 79.74 151.53C79.15 151.11 78.69 150.55 78.37 149.86C78.05 149.17 77.89 148.39 77.89 147.51C77.89 146.55 78.09 145.7 78.48 144.97C78.87 144.24 79.41 143.68 80.1 143.28C80.79 142.88 81.58 142.69 82.48 142.69C83.61 142.69 84.55 142.96 85.29 143.5C86.03 144.04 86.53 144.81 86.79 145.8H84.7C84.53 145.34 84.26 144.97 83.88 144.71C83.5 144.45 83.04 144.32 82.47 144.32C81.68 144.32 81.04 144.6 80.57 145.16C80.1 145.72 79.86 146.51 79.86 147.51C79.86 148.51 80.09 149.31 80.57 149.87C81.04 150.44 81.67 150.72 82.47 150.72C83.59 150.72 84.33 150.23 84.7 149.24L84.71 149.23Z" fill="#A8A8A8"/>
<path d="M88.87 144.97C89.26 144.24 89.79 143.68 90.47 143.28C91.15 142.88 91.89 142.68 92.71 142.68C93.45 142.68 94.09 142.82 94.64 143.11C95.19 143.4 95.63 143.76 95.96 144.19V142.83H97.92V152.2H95.96V150.81C95.63 151.25 95.18 151.62 94.62 151.91C94.05 152.2 93.41 152.35 92.68 152.35C91.87 152.35 91.14 152.14 90.47 151.73C89.8 151.32 89.27 150.74 88.88 150C88.49 149.26 88.29 148.42 88.29 147.48C88.29 146.54 88.49 145.71 88.88 144.98L88.87 144.97ZM95.55 145.82C95.28 145.34 94.94 144.98 94.5 144.73C94.07 144.48 93.6 144.36 93.11 144.36C92.62 144.36 92.15 144.48 91.72 144.73C91.29 144.97 90.94 145.33 90.67 145.8C90.4 146.27 90.27 146.83 90.27 147.47C90.27 148.11 90.4 148.68 90.67 149.17C90.94 149.66 91.29 150.03 91.72 150.28C92.16 150.53 92.62 150.66 93.11 150.66C93.6 150.66 94.07 150.54 94.5 150.29C94.93 150.04 95.28 149.68 95.55 149.19C95.82 148.71 95.95 148.15 95.95 147.5C95.95 146.85 95.82 146.29 95.55 145.82Z" fill="#A8A8A8"/>
<path d="M102.06 151.95C101.48 151.68 101.01 151.32 100.67 150.86C100.33 150.4 100.15 149.89 100.13 149.32H102.14C102.17 149.72 102.36 150.05 102.71 150.31C103.06 150.58 103.49 150.71 104.01 150.71C104.53 150.71 104.98 150.6 105.28 150.39C105.58 150.18 105.73 149.91 105.73 149.58C105.73 149.23 105.56 148.97 105.23 148.8C104.9 148.63 104.37 148.44 103.64 148.24C102.94 148.05 102.37 147.86 101.92 147.68C101.48 147.5 101.1 147.22 100.77 146.85C100.45 146.48 100.29 145.98 100.29 145.37C100.29 144.87 100.44 144.42 100.73 144C101.02 143.59 101.45 143.26 102 143.02C102.55 142.78 103.18 142.66 103.9 142.66C104.96 142.66 105.82 142.93 106.48 143.47C107.13 144.01 107.48 144.74 107.53 145.67H105.59C105.56 145.25 105.39 144.92 105.08 144.67C104.77 144.42 104.36 144.3 103.84 144.3C103.32 144.3 102.94 144.4 102.67 144.59C102.4 144.78 102.26 145.04 102.26 145.35C102.26 145.6 102.35 145.81 102.53 145.98C102.71 146.15 102.93 146.28 103.19 146.38C103.45 146.48 103.84 146.6 104.35 146.75C105.03 146.93 105.59 147.12 106.02 147.3C106.46 147.49 106.83 147.76 107.15 148.12C107.47 148.48 107.63 148.96 107.64 149.57C107.64 150.1 107.49 150.58 107.2 151C106.91 151.42 106.49 151.75 105.95 151.99C105.41 152.23 104.78 152.35 104.05 152.35C103.32 152.35 102.65 152.22 102.07 151.95H102.06Z" fill="#A8A8A8"/>
<path d="M117.8 143.1C118.37 142.81 119.01 142.67 119.71 142.67C120.54 142.67 121.29 142.87 121.95 143.26C122.62 143.66 123.15 144.22 123.53 144.95C123.92 145.68 124.11 146.52 124.11 147.46C124.11 148.4 123.92 149.24 123.53 149.98C123.14 150.72 122.61 151.3 121.94 151.71C121.27 152.12 120.52 152.33 119.7 152.33C118.97 152.33 118.33 152.19 117.77 151.9C117.21 151.62 116.76 151.25 116.44 150.81V152.17H114.5V139.59H116.44V144.2C116.77 143.75 117.22 143.37 117.79 143.09L117.8 143.1ZM121.75 145.79C121.48 145.32 121.13 144.96 120.7 144.72C120.26 144.48 119.8 144.35 119.3 144.35C118.8 144.35 118.35 144.47 117.91 144.72C117.47 144.97 117.12 145.33 116.86 145.81C116.6 146.29 116.46 146.85 116.46 147.49C116.46 148.13 116.59 148.7 116.86 149.18C117.13 149.66 117.48 150.03 117.91 150.28C118.35 150.53 118.81 150.65 119.3 150.65C119.79 150.65 120.27 150.52 120.7 150.27C121.14 150.01 121.49 149.64 121.75 149.16C122.02 148.67 122.15 148.11 122.15 147.46C122.15 146.81 122.02 146.26 121.75 145.79Z" fill="#A8A8A8"/>
<path d="M134.74 148.23H127.58C127.64 148.98 127.91 149.58 128.41 150.03C128.91 150.48 129.52 150.71 130.25 150.71C131.29 150.71 132.03 150.27 132.46 149.4H134.55C134.27 150.26 133.75 150.97 133.01 151.52C132.27 152.07 131.35 152.35 130.25 152.35C129.35 152.35 128.55 152.15 127.84 151.75C127.13 151.35 126.58 150.78 126.17 150.05C125.77 149.32 125.57 148.47 125.57 147.51C125.57 146.55 125.77 145.7 126.16 144.97C126.55 144.24 127.1 143.68 127.81 143.28C128.52 142.88 129.33 142.69 130.25 142.69C131.17 142.69 131.92 142.88 132.61 143.27C133.3 143.66 133.84 144.2 134.23 144.89C134.61 145.59 134.81 146.39 134.81 147.3C134.81 147.65 134.79 147.97 134.74 148.25V148.23ZM132.79 146.67C132.78 145.96 132.52 145.38 132.02 144.95C131.52 144.52 130.9 144.3 130.17 144.3C129.5 144.3 128.93 144.51 128.45 144.94C127.97 145.37 127.69 145.94 127.6 146.67H132.79Z" fill="#A8A8A8"/>
<path d="M150.22 143.13C150.8 143.44 151.26 143.89 151.6 144.49C151.93 145.09 152.1 145.82 152.1 146.67V152.2H150.18V146.96C150.18 146.12 149.97 145.48 149.55 145.03C149.13 144.58 148.56 144.36 147.83 144.36C147.1 144.36 146.53 144.58 146.1 145.03C145.68 145.48 145.46 146.12 145.46 146.96V152.2H143.54V146.96C143.54 146.12 143.33 145.48 142.91 145.03C142.49 144.58 141.92 144.36 141.19 144.36C140.46 144.36 139.89 144.58 139.46 145.03C139.03 145.48 138.82 146.12 138.82 146.96V152.2H136.88V142.83H138.82V143.9C139.14 143.51 139.54 143.21 140.03 143C140.52 142.79 141.04 142.68 141.59 142.68C142.34 142.68 143.01 142.84 143.6 143.16C144.19 143.48 144.64 143.94 144.96 144.54C145.24 143.97 145.69 143.52 146.29 143.19C146.89 142.86 147.54 142.69 148.23 142.69C148.97 142.69 149.63 142.84 150.21 143.15L150.22 143.13Z" fill="#A8A8A8"/>
<path d="M54.31 163.51C54.88 163.22 55.52 163.07 56.23 163.07C57.05 163.07 57.79 163.27 58.47 163.67C59.15 164.07 59.67 164.64 60.06 165.36C60.45 166.08 60.64 166.92 60.64 167.86C60.64 168.8 60.45 169.64 60.06 170.38C59.67 171.12 59.14 171.7 58.47 172.11C57.8 172.52 57.05 172.73 56.23 172.73C55.52 172.73 54.88 172.59 54.33 172.3C53.77 172.01 53.32 171.65 52.97 171.22V177.03H51.03V163.21H52.97V164.59C53.3 164.16 53.75 163.8 54.31 163.5V163.51ZM58.26 166.19C57.99 165.72 57.64 165.36 57.21 165.12C56.77 164.88 56.31 164.75 55.81 164.75C55.31 164.75 54.86 164.87 54.42 165.12C53.98 165.37 53.63 165.73 53.37 166.21C53.11 166.69 52.97 167.25 52.97 167.89C52.97 168.53 53.1 169.1 53.37 169.58C53.64 170.06 53.99 170.43 54.42 170.68C54.86 170.93 55.32 171.05 55.81 171.05C56.3 171.05 56.78 170.92 57.21 170.67C57.65 170.41 58 170.04 58.26 169.56C58.53 169.07 58.66 168.51 58.66 167.86C58.66 167.21 58.53 166.66 58.26 166.19Z" fill="#A8A8A8"/>
<path d="M71.26 168.63H64.1C64.16 169.38 64.43 169.98 64.93 170.43C65.43 170.88 66.04 171.11 66.77 171.11C67.81 171.11 68.55 170.67 68.98 169.8H71.07C70.79 170.66 70.27 171.37 69.53 171.92C68.79 172.47 67.87 172.75 66.77 172.75C65.87 172.75 65.07 172.55 64.36 172.15C63.65 171.75 63.1 171.18 62.69 170.45C62.29 169.72 62.09 168.87 62.09 167.91C62.09 166.95 62.29 166.1 62.68 165.37C63.07 164.64 63.62 164.08 64.33 163.68C65.04 163.28 65.85 163.09 66.77 163.09C67.69 163.09 68.44 163.28 69.13 163.67C69.82 164.06 70.36 164.6 70.75 165.29C71.13 165.99 71.33 166.79 71.33 167.7C71.33 168.05 71.31 168.37 71.26 168.65V168.63ZM69.3 167.07C69.29 166.36 69.03 165.78 68.53 165.35C68.03 164.92 67.41 164.7 66.68 164.7C66.01 164.7 65.44 164.91 64.96 165.34C64.48 165.77 64.2 166.34 64.11 167.07H69.3Z" fill="#A8A8A8"/>
<path d="M73.36 165.37C73.75 164.64 74.28 164.08 74.96 163.68C75.64 163.28 76.39 163.08 77.21 163.08C77.94 163.08 78.58 163.23 79.14 163.52C79.7 163.81 80.13 164.17 80.44 164.59V163.23H82.4V177.05H80.44V171.24C80.13 171.66 79.69 172.02 79.11 172.31C78.53 172.6 77.87 172.75 77.14 172.75C76.34 172.75 75.6 172.54 74.94 172.13C74.28 171.72 73.75 171.14 73.36 170.4C72.97 169.66 72.77 168.82 72.77 167.88C72.77 166.94 72.97 166.11 73.36 165.38V165.37ZM80.04 166.22C79.77 165.74 79.43 165.38 78.99 165.13C78.56 164.88 78.09 164.76 77.6 164.76C77.11 164.76 76.64 164.88 76.21 165.13C75.78 165.37 75.43 165.73 75.16 166.2C74.89 166.67 74.76 167.23 74.76 167.87C74.76 168.51 74.89 169.08 75.16 169.57C75.43 170.06 75.78 170.43 76.21 170.68C76.65 170.93 77.11 171.06 77.6 171.06C78.09 171.06 78.56 170.94 78.99 170.69C79.42 170.44 79.77 170.08 80.04 169.59C80.31 169.11 80.44 168.55 80.44 167.9C80.44 167.25 80.31 166.69 80.04 166.22Z" fill="#A8A8A8"/>
<path d="M93.61 163.22V172.59H91.67V171.48C91.36 171.87 90.96 172.17 90.47 172.39C89.98 172.61 89.45 172.72 88.9 172.72C88.16 172.72 87.5 172.57 86.92 172.26C86.34 171.95 85.88 171.5 85.54 170.9C85.2 170.3 85.04 169.57 85.04 168.72V163.21H86.96V168.43C86.96 169.27 87.17 169.91 87.59 170.36C88.01 170.81 88.58 171.03 89.31 171.03C90.04 171.03 90.61 170.81 91.04 170.36C91.46 169.91 91.68 169.27 91.68 168.43V163.21H93.62L93.61 163.22Z" fill="#A8A8A8"/>
<path d="M104.86 168.63H97.7C97.76 169.38 98.03 169.98 98.53 170.43C99.03 170.88 99.64 171.11 100.37 171.11C101.41 171.11 102.15 170.67 102.58 169.8H104.67C104.39 170.66 103.87 171.37 103.13 171.92C102.39 172.47 101.47 172.75 100.37 172.75C99.47 172.75 98.67 172.55 97.96 172.15C97.25 171.75 96.7 171.18 96.29 170.45C95.89 169.72 95.69 168.87 95.69 167.91C95.69 166.95 95.89 166.1 96.28 165.37C96.67 164.64 97.22 164.08 97.93 163.68C98.64 163.28 99.45 163.09 100.37 163.09C101.29 163.09 102.04 163.28 102.73 163.67C103.42 164.06 103.96 164.6 104.35 165.29C104.73 165.99 104.93 166.79 104.93 167.7C104.93 168.05 104.91 168.37 104.86 168.65V168.63ZM102.91 167.07C102.9 166.36 102.64 165.78 102.14 165.35C101.64 164.92 101.02 164.7 100.29 164.7C99.62 164.7 99.05 164.91 98.57 165.34C98.09 165.77 97.81 166.34 97.72 167.07H102.91Z" fill="#A8A8A8"/>
<path d="M113.73 163.53C114.31 163.84 114.77 164.29 115.1 164.89C115.43 165.49 115.59 166.22 115.59 167.07V172.6H113.67V167.36C113.67 166.52 113.46 165.88 113.04 165.43C112.62 164.98 112.05 164.76 111.32 164.76C110.59 164.76 110.02 164.98 109.59 165.43C109.16 165.88 108.95 166.52 108.95 167.36V172.6H107.01V163.23H108.95V164.3C109.27 163.91 109.67 163.61 110.17 163.4C110.66 163.19 111.19 163.08 111.74 163.08C112.48 163.08 113.14 163.23 113.72 163.54L113.73 163.53Z" fill="#A8A8A8"/>
<path d="M118.18 165.37C118.57 164.64 119.1 164.08 119.78 163.68C120.46 163.28 121.2 163.08 122.02 163.08C122.76 163.08 123.4 163.22 123.95 163.51C124.5 163.8 124.94 164.16 125.27 164.59V163.23H127.23V172.6H125.27V171.21C124.94 171.65 124.49 172.02 123.93 172.31C123.36 172.6 122.72 172.75 121.99 172.75C121.18 172.75 120.45 172.54 119.78 172.13C119.11 171.72 118.58 171.14 118.19 170.4C117.8 169.66 117.6 168.82 117.6 167.88C117.6 166.94 117.8 166.11 118.19 165.38L118.18 165.37ZM124.86 166.22C124.59 165.74 124.25 165.38 123.81 165.13C123.38 164.88 122.91 164.76 122.42 164.76C121.93 164.76 121.46 164.88 121.03 165.13C120.6 165.37 120.25 165.73 119.98 166.2C119.71 166.67 119.58 167.23 119.58 167.87C119.58 168.51 119.71 169.08 119.98 169.57C120.25 170.06 120.6 170.43 121.03 170.68C121.47 170.93 121.93 171.06 122.42 171.06C122.91 171.06 123.38 170.94 123.81 170.69C124.24 170.44 124.59 170.08 124.86 169.59C125.13 169.11 125.26 168.55 125.26 167.9C125.26 167.25 125.13 166.69 124.86 166.22Z" fill="#A8A8A8"/>
<path d="M131.38 172.35C130.8 172.08 130.33 171.72 129.99 171.26C129.65 170.8 129.47 170.29 129.45 169.72H131.46C131.49 170.12 131.68 170.45 132.03 170.71C132.38 170.98 132.81 171.11 133.33 171.11C133.85 171.11 134.3 171 134.6 170.79C134.9 170.58 135.05 170.31 135.05 169.98C135.05 169.63 134.88 169.37 134.55 169.2C134.22 169.03 133.69 168.84 132.96 168.64C132.26 168.45 131.69 168.26 131.24 168.08C130.8 167.9 130.42 167.62 130.09 167.25C129.77 166.88 129.61 166.38 129.61 165.77C129.61 165.27 129.76 164.82 130.05 164.4C130.34 163.99 130.77 163.66 131.32 163.42C131.87 163.18 132.5 163.06 133.22 163.06C134.28 163.06 135.14 163.33 135.8 163.87C136.45 164.41 136.8 165.14 136.85 166.07H134.91C134.88 165.65 134.71 165.32 134.4 165.07C134.09 164.82 133.68 164.7 133.16 164.7C132.64 164.7 132.26 164.8 131.99 164.99C131.72 165.18 131.58 165.44 131.58 165.75C131.58 166 131.67 166.21 131.85 166.38C132.03 166.55 132.25 166.68 132.51 166.78C132.77 166.88 133.16 167 133.67 167.15C134.35 167.33 134.91 167.52 135.34 167.7C135.78 167.89 136.15 168.16 136.47 168.52C136.79 168.88 136.95 169.36 136.96 169.97C136.96 170.5 136.81 170.98 136.52 171.4C136.23 171.82 135.81 172.15 135.27 172.39C134.73 172.63 134.1 172.75 133.37 172.75C132.64 172.75 131.97 172.62 131.39 172.35H131.38Z" fill="#A8A8A8"/>
<path d="M151.36 5.02C152.2 3.5 154.23 0.92 155.63 2.74C157.38 5.02 156.99 0.92 158.93 1.37C160.87 1.83 161.65 2.05 162.03 2.74C162.42 3.42 162.22 1.37 164.55 1.37C166.88 1.37 167.46 1.14 167.85 2.74C168.24 4.34 169.6 1.6 170.37 2.74C171.15 3.88 172.89 5.25 172.5 6.16C172.11 7.07 173.28 5.25 174.25 6.84C176.11 8.66 176.19 9.27 176 9.35C177.42 9.2 180.19 9.35 179.88 11.17C179.57 12.99 180.01 13.45 180.27 13.45C181.05 13.22 182.64 13.04 182.79 14.13C182.95 15.22 182.85 16.41 182.79 16.87C183.89 15.96 186.13 14.77 186.28 17.33C186.4 19.37 186.04 20.28 185.73 20.61C187.01 19.84 189.19 19.36 189.19 22.8C189.19 26.45 188.41 26.9 188.03 26.68C188.87 27.97 189.89 31.06 187.25 33.06C187.38 33.97 187.21 36.12 185.5 37.39C183.37 38.99 182.78 38.53 182.78 40.35C182.78 42.17 180.65 43.77 180.26 43.31C179.87 42.85 180.65 45.59 180.26 46.27C179.87 46.95 178.32 46.73 177.74 46.73C177.16 46.73 177.93 50.15 175.22 50.15H171.73C171.6 51.14 170.88 53.07 169.01 52.89C167.15 52.71 166.42 52.05 166.29 51.75C166.1 53.19 164.85 55.9 161.44 55.17C158.03 54.44 149.8 55.47 146.12 56.08C143.86 57.22 138.9 58.41 137.2 54.03C136.42 54.49 134.37 55.03 132.35 53.57C130.99 52.59 130.61 52.1 130.61 51.89C129.89 52.39 128.55 52.91 127.7 51.75C126.77 50.47 126.67 49.09 126.73 48.56C126.15 48.48 124.87 48.01 124.4 46.74C123.93 45.46 124.59 44.84 124.98 44.69C124.2 44.77 122.57 44.46 122.26 42.64C121.95 40.82 122.39 40.06 122.65 39.9C121.87 39.75 120.4 38.9 120.71 36.71C121.02 34.52 121.49 32.91 121.68 32.38C120.45 32.08 118.03 30.87 118.19 28.5C118.35 26.13 119.68 25.08 120.32 24.85C119.35 23.71 117.84 20.84 119.54 18.47C121.25 16.1 122.06 16.42 122.26 16.87C122 15.88 122.26 13.45 125.36 11.63C128.11 10.01 129.14 10.43 129.38 10.97C129.04 9.58 129.07 6.75 131.57 5.02C134.21 3.2 135.77 4.26 136.23 5.02C136.29 3.8 136.81 1.37 138.36 1.37C139.91 1.37 141.2 1.83 141.66 2.05C141.85 1.37 142.63 0 144.18 0C145.73 0 146.51 0.91 146.7 1.37H148.25C149.34 1.37 150.77 3.8 151.35 5.02H151.36Z" fill="#49494C"/>
<path d="M129.147 44.9905C130.904 44.4288 131.666 41.9009 130.849 39.3442C130.031 36.7876 127.944 35.1705 126.187 35.7322C124.43 36.294 123.669 38.8219 124.486 41.3785C125.303 43.9351 127.39 45.5523 129.147 44.9905Z" fill="#CDA998"/>
<path d="M152.11 62C166.862 62 178.82 50.0415 178.82 35.29C178.82 20.5385 166.862 8.57999 152.11 8.57999C137.358 8.57999 125.4 20.5385 125.4 35.29C125.4 50.0415 137.358 62 152.11 62Z" fill="#CDA998"/>
<path d="M161.19 46.83C164.349 46.83 166.91 44.3676 166.91 41.33C166.91 38.2925 164.349 35.83 161.19 35.83C158.031 35.83 155.47 38.2925 155.47 41.33C155.47 44.3676 158.031 46.83 161.19 46.83Z" fill="#413A3A"/>
<path d="M134.37 47.71C137.529 47.71 140.09 45.2476 140.09 42.21C140.09 39.1724 137.529 36.71 134.37 36.71C131.211 36.71 128.65 39.1724 128.65 42.21C128.65 45.2476 131.211 47.71 134.37 47.71Z" fill="#413A3A"/>
<path d="M148.04 53.75C147.97 53.75 147.9 53.75 147.83 53.75C146.81 53.67 146 53.02 145.58 52.43C145.4 52.18 145.46 51.84 145.71 51.66C145.96 51.48 146.3 51.54 146.48 51.79C146.74 52.16 147.27 52.6 147.92 52.65C148.54 52.7 149.17 52.39 149.82 51.72C150.03 51.5 150.38 51.5 150.6 51.71C150.82 51.92 150.82 52.27 150.61 52.49C149.8 53.33 148.94 53.76 148.05 53.76L148.04 53.75Z" fill="#764C4C"/>
<path d="M164.27 41.12C165.121 41.12 165.81 40.4305 165.81 39.58C165.81 38.7295 165.121 38.04 164.27 38.04C163.419 38.04 162.73 38.7295 162.73 39.58C162.73 40.4305 163.419 41.12 164.27 41.12Z" fill="white"/>
<path d="M137.45 41.99C138.301 41.99 138.99 41.3005 138.99 40.45C138.99 39.5995 138.301 38.91 137.45 38.91C136.599 38.91 135.91 39.5995 135.91 40.45C135.91 41.3005 136.599 41.99 137.45 41.99Z" fill="white"/>
<path d="M150.27 63.53H155.04C161.59 63.53 166.9 68.27 166.9 74.12V86.78C166.9 92.63 161.59 97.37 155.04 97.37H150.27C143.72 97.37 138.41 92.63 138.41 86.78V74.12C138.41 68.27 143.72 63.53 150.27 63.53Z" fill="#F8E86D"/>
<path d="M140.65 71.57L130.77 78.17C129.72 78.87 128.23 78.68 127.45 77.74C126.66 76.8 126.88 75.48 127.93 74.78L137.81 68.18C138.86 67.48 140.35 67.67 141.13 68.61C141.92 69.55 141.7 70.87 140.65 71.57Z" fill="#F8E86D"/>
<path d="M163.56 71.57L173.44 78.17C174.49 78.87 175.98 78.68 176.76 77.74C177.55 76.8 177.33 75.48 176.28 74.78L166.4 68.18C165.35 67.48 163.86 67.67 163.08 68.61C162.29 69.55 162.51 70.87 163.56 71.57Z" fill="#F8E86D"/>
<path d="M129.25 78.68L121.08 86.54C120.21 87.37 118.72 87.38 117.75 86.54C116.78 85.71 116.69 84.36 117.56 83.52L125.73 75.66C126.6 74.83 128.09 74.82 129.06 75.66C130.03 76.49 130.12 77.84 129.25 78.68Z" fill="#CDA998"/>
<path d="M172.87 77.85L181.2 85.54C182.08 86.36 183.58 86.33 184.53 85.48C185.48 84.63 185.54 83.28 184.65 82.46L176.32 74.77C175.44 73.95 173.94 73.98 172.99 74.83C172.04 75.68 171.98 77.03 172.87 77.85Z" fill="#CDA998"/>
<path d="M159.29 94.44C160.86 94.44 162.14 95.58 162.14 96.98V109.47C162.14 110.87 160.87 112.01 159.29 112.01C157.72 112.01 156.44 110.87 156.44 109.47V96.98C156.44 95.58 157.71 94.44 159.29 94.44Z" fill="#CDA998"/>
<path d="M146.39 93.79C147.84 94.39 148.59 95.92 148.06 97.22L143.32 108.78C142.79 110.08 141.18 110.65 139.72 110.05C138.27 109.45 137.52 107.92 138.05 106.62L142.79 95.06C143.32 93.76 144.93 93.19 146.39 93.79Z" fill="#CDA998"/>
<path d="M159.29 110.32C160.86 110.32 162.14 111.46 162.14 112.86V125.35C162.14 126.75 160.87 127.89 159.29 127.89C157.72 127.89 156.44 126.75 156.44 125.35V112.86C156.44 111.46 157.71 110.32 159.29 110.32Z" fill="#CDA998"/>
<path d="M140.36 108.48C141.81 109.08 142.56 110.61 142.03 111.91L137.29 123.47C136.76 124.77 135.15 125.34 133.69 124.74C132.24 124.14 131.49 122.61 132.02 121.31L136.76 109.75C137.29 108.45 138.9 107.88 140.36 108.48Z" fill="#CDA998"/>
<path d="M152.11 59.58C153.63 59.58 154.86 60.81 154.86 62.33V64.53C154.86 66.05 153.63 67.28 152.11 67.28C150.59 67.28 149.36 66.05 149.36 64.53V62.33C149.36 60.81 150.59 59.58 152.11 59.58Z" fill="#CDA998"/>
<path d="M149.14 61.78C150.69 62.11 153.76 62 155.07 61.78C154.21 63.44 151.82 65.76 149.14 61.78Z" fill="black"/>
<g opacity="0.2">
<path d="M168.38 55.84C169.777 55.84 170.91 54.7073 170.91 53.31C170.91 51.9127 169.777 50.78 168.38 50.78C166.983 50.78 165.85 51.9127 165.85 53.31C165.85 54.7073 166.983 55.84 168.38 55.84Z" fill="#E3817A"/>
</g>
<g opacity="0.2">
<path d="M135.84 55.84C137.237 55.84 138.37 54.7073 138.37 53.31C138.37 51.9127 137.237 50.78 135.84 50.78C134.443 50.78 133.31 51.9127 133.31 53.31C133.31 54.7073 134.443 55.84 135.84 55.84Z" fill="#E3817A"/>
</g>
<path d="M113.53 90.06C112.23 88.72 112.32 86.73 113.74 85.63L115.25 84.45C116.66 83.34 118.87 83.54 120.17 84.88C121.47 86.22 121.38 88.21 119.96 89.31L118.45 90.49C117.04 91.6 114.83 91.4 113.53 90.06Z" fill="#CDA998"/>
<path d="M119.94 90.8C119.29 90.75 118.78 90.22 118.8 89.64L118.86 88.13C118.88 87.54 119.43 87.11 120.09 87.16C120.74 87.21 121.25 87.74 121.23 88.32L121.17 89.83C121.15 90.42 120.6 90.85 119.94 90.8Z" fill="#CDA998"/>
<path d="M188.82 88.9C190.09 87.53 189.96 85.55 188.52 84.47L186.99 83.32C185.55 82.24 183.35 82.48 182.08 83.85C180.81 85.22 180.94 87.2 182.38 88.28L183.91 89.43C185.35 90.51 187.55 90.27 188.82 88.9Z" fill="#CDA998"/>
<path d="M182.44 89.77C183.09 89.7 183.59 89.17 183.55 88.58L183.45 87.07C183.41 86.48 182.85 86.06 182.2 86.13C181.55 86.2 181.05 86.73 181.09 87.32L181.19 88.83C181.23 89.42 181.79 89.84 182.44 89.77Z" fill="#CDA998"/>
<path d="M164.22 128.95C164.22 130.7 161.56 130.43 158.29 130.43C155.02 130.43 152.36 130.7 152.36 128.95C152.36 127.2 155.02 125.77 158.29 125.77C161.56 125.77 164.22 127.19 164.22 128.95Z" fill="#CDA998"/>
<path d="M136.69 125.16C136.02 126.78 133.49 125.33 130.46 124.09C127.43 122.85 125.05 122.28 125.71 120.65C126.37 119.02 129.37 118.72 132.4 119.97C135.43 121.22 137.35 123.54 136.68 125.16H136.69Z" fill="#CDA998"/>
<path d="M179.854 42.374C180.671 39.8174 179.909 37.2894 178.152 36.7277C176.395 36.1659 174.308 37.7831 173.491 40.3397C172.673 42.8963 173.435 45.4242 175.192 45.986C176.949 46.5477 179.036 44.9306 179.854 42.374Z" fill="#CDA998"/>
<path d="M155.76 17.01C153.8 17.51 151.87 14.08 151.16 12.31C151.16 17.33 147.68 18.58 145.94 18.58C146.55 18.89 147.66 19.96 147.17 21.71C146.68 23.47 144.3 23.07 143.18 22.65C143.69 22.96 144.41 23.97 143.18 25.47C141.95 26.97 140.42 26.1 139.8 25.47C140 26.31 140.17 28.17 139.19 28.92C138.21 29.67 136.73 29.23 136.12 28.92C136.12 29.65 135.87 31.49 134.89 33C133.91 34.5 126.32 33.63 125.4 33L123.98 34.74L121.69 35.99V41.77C118.52 38.84 122.96 30.74 124.19 21.71C125.72 10.42 137.11 11.51 151.84 8.69001C166.58 5.87001 168.53 11.05 177.74 20.14C185.11 27.41 188.97 32.05 181.91 35.29L179.48 34.29L178.51 32.99C178.51 32.99 173.7 32.11 171.73 31.11C169.77 30.11 169.89 28.6 170.2 27.98C169.79 28.29 168.54 28.92 166.82 28.92C165.1 28.92 164.67 27.04 164.67 26.1C161.23 28.11 159.76 25.26 159.45 23.59C159.86 23.38 160.19 22.9 158.22 22.65C156.26 22.4 156.79 18.78 157.3 17.01C157.61 16.8 157.73 16.51 155.77 17.01H155.76Z" fill="black"/>
<path d="M152.94 16.04C151.05 16.52 149.19 13.26 148.5 11.57C148.5 16.34 145.15 17.53 143.47 17.53C144.06 17.83 145.13 18.84 144.65 20.51C144.18 22.18 141.89 21.8 140.8 21.4C141.29 21.7 141.98 22.65 140.8 24.08C139.62 25.51 138.14 24.68 137.54 24.08C137.74 24.87 137.9 26.64 136.95 27.36C136 28.07 134.58 27.66 133.99 27.36C133.99 28.06 133.75 29.8 132.81 31.23C131.86 32.66 124.54 31.83 123.66 31.23V35.28L120.09 34.07V39.57C117.03 36.79 121.32 29.09 122.5 20.51C123.98 9.78999 134.96 10.82 149.16 8.13999C163.37 5.45999 165.25 10.38 174.13 19.02C181.23 25.93 184.96 30.34 178.15 33.42L174.87 35.29V31.24C174.87 31.24 170.23 30.41 168.33 29.45C166.44 28.5 166.55 27.07 166.85 26.47C166.46 26.77 165.25 27.36 163.59 27.36C161.93 27.36 161.52 25.57 161.52 24.68C158.2 26.59 156.78 23.89 156.49 22.3C156.88 22.1 157.2 21.64 155.31 21.41C153.42 21.17 153.93 17.74 154.42 16.05C154.72 15.85 154.83 15.57 152.94 16.05V16.04Z" fill="#49494C"/>
<path d="M154.07 1.52C154.94 1.52 156.17 1.26 156.97 1.63C157.62 1.93 157.65 2.12 157.96 2.79C158.11 3.12 158.44 4.14 158.85 4.23C159.15 4.3 159.52 4.19 159.82 4.15C160.89 4.03 161.78 4.67 162.55 5.4C163.11 5.92 163.26 7.07 164.04 7.07C165.14 7.07 166.43 7.07 167.22 8.03C167.64 8.54 167.62 9.09 167.83 9.66C167.92 9.91 168.33 9.7 168.51 9.69C169.06 9.65 169.52 9.67 170.01 9.96C170.82 10.43 171.71 11.55 171.79 12.51C171.82 12.96 172.2 12.84 172.55 12.84C173.64 12.86 174.67 13.2 175.66 13.65C176.73 14.13 177.48 15.78 177.68 16.91C177.74 17.23 178.42 17.14 178.66 17.19C179.44 17.33 179.91 17.7 180.3 18.39C180.58 18.89 180.98 19.56 181 20.15C181 20.31 180.89 21.2 181.17 21.2C181.57 21.2 181.93 21.06 182.35 21.13C183.06 21.24 183.54 22.2 183.82 22.78C184.04 23.23 184.17 24.57 184.65 24.78C184.97 24.92 185.44 24.78 185.78 24.88C187.04 25.27 187.22 26.82 187.22 27.96" stroke="#646464" stroke-linecap="round"/>
<path d="M153.96 5.87C154.81 5.93 155.63 6.18 156.44 6.46C157.05 6.67 157.72 6.84 158.13 7.38C158.53 7.91 158.36 8.88 158.47 9.5C158.49 9.63 158.86 9.59 158.93 9.6C160 9.72 161.13 9.91 162.15 10.25C162.94 10.52 163.19 10.94 163.19 11.73C163.19 11.94 163.06 12.52 163.36 12.52C164.48 12.52 165.04 13.09 165.49 14.1C165.75 14.68 165.95 15.28 166.12 15.9C166.23 16.3 166.26 16.18 166.62 16.25C167.69 16.46 168.76 17.05 169.69 17.59C170.22 17.9 171.02 18.28 171.39 18.81C171.56 19.05 171.28 19.54 171.46 19.75C171.61 19.92 172.2 19.68 172.37 19.65C172.99 19.56 173.35 19.67 173.81 20.1C174.25 20.51 174.58 21.01 174.85 21.54C174.93 21.7 175.05 22.16 175.22 22.28C175.34 22.36 175.72 22.2 175.86 22.2C176.46 22.2 176.94 22.56 177.37 22.96C177.81 23.37 178.24 23.87 178.5 24.42C178.61 24.65 178.63 25.38 178.85 25.51C179.97 26.19 182.07 26.26 182.54 27.8C182.64 28.15 182.48 28.34 182.84 28.4C183.6 28.53 184.5 29.9 184.94 30.43C185.42 31.01 185.81 31.64 186.14 32.32" stroke="#646464" stroke-linecap="round"/>
<path d="M159.75 7.39001C161.19 7.54001 163.21 8.06002 163.51 9.72002C163.55 9.95002 163.61 10.12 163.85 10.11C164.51 10.09 165.08 9.86001 165.71 10.19C166.14 10.42 166.6 11.1 166.77 11.57C167.01 12.24 166.97 11.81 167.54 11.85C168.74 11.94 169.39 13.16 169.51 14.24C169.54 14.51 172.3 14.74 172.75 15C173.32 15.34 173.37 16.22 173.54 16.78C173.65 17.16 173.59 17.16 173.99 17.17C175.1 17.22 175.9 17.97 176.41 18.89C176.53 19.1 177.21 20.82 177.42 20.85C177.7 20.89 177.97 20.72 178.28 20.78C178.93 20.92 179.4 21.69 179.7 22.24C179.9 22.6 180.3 24.21 180.83 24.24C181.75 24.29 182.56 24.72 183.38 25.11C184.22 25.51 185.07 25.88 185.82 26.42" stroke="#646464" stroke-linecap="round"/>
<path d="M155.19 13.2C155.85 13.2 157.12 12.98 157.63 13.43C158.17 13.9 158.1 14.8 158.25 15.39C158.29 15.55 160.7 15.6 161.1 15.86C161.35 16.02 161.35 16.72 161.42 16.96C161.49 17.19 161.53 18.46 161.74 18.53C162.63 18.84 163.71 19.03 164.35 19.65C164.49 19.79 164.44 19.94 164.53 20.1C164.68 20.4 165.25 20.26 165.56 20.26C165.87 20.26 166.29 20.19 166.52 20.43C167.07 21.01 167.29 21.76 167.73 22.4C167.99 22.77 169.14 22.38 169.6 22.69C169.9 22.9 170.53 23.18 170.67 23.51C170.72 23.62 170.64 23.8 170.77 23.89C170.99 24.04 171.48 23.94 171.73 23.97C172.27 24.04 172.94 24.3 173.4 24.56C173.84 24.81 174.06 25.38 174.58 25.38C175.98 25.38 177.23 26.4 178.03 27.33C178.34 27.69 177.78 28.21 178.53 28.14C178.89 28.11 179.18 28.01 179.55 28.07C180.32 28.19 180.69 28.92 181.03 29.46C181.19 29.72 181.29 29.95 181.29 30.24C181.29 30.34 181.41 29.98 181.53 30.01C182.1 30.13 182.54 31.14 182.82 31.53C183.34 32.28 183.9 32.93 184.58 33.58" stroke="#646464" stroke-linecap="round"/>
<path d="M175.4 29.48C176.41 29.48 176.93 29.93 177.69 30.4C177.82 30.48 177.83 30.78 177.94 30.8C178.62 30.97 179.25 31.1 179.91 31.37C180.46 31.59 180.71 31.78 180.93 32.26C181.07 32.58 180.91 33.09 181.11 33.35C181.87 34.3 183.16 35.15 183.16 36.44" stroke="#646464" stroke-linecap="round"/>
<path d="M167.55 57.23C167.55 57.55 167.69 57.81 167.69 58.15C167.69 58.49 167.28 58.85 167.42 58.59" stroke="#646464" stroke-linecap="round"/>
<path d="M169.04 58.86V59" stroke="#646464" stroke-linecap="round"/>
<path d="M149.79 12.01C148.96 11.93 148.49 11.7 147.8 12.27C147.16 12.8 147.17 14.39 146.46 14.39C145.71 14.39 144.01 14.02 143.64 14.87C143.3 15.63 144.24 15.93 144.24 16.62" stroke="#646464" stroke-linecap="round"/>
<path d="M148.5 7.16999C147.24 6.12999 146.74 6.44999 146.17 8.02999C146 8.48999 146.06 9.86999 145.45 9.78999C144.99 9.72999 144.58 9.44999 144.1 9.44999C143.62 9.44999 143.47 9.47999 143.17 9.91999C143.05 10.09 142.71 11.38 142.67 11.38C141.59 11.63 140.2 10.66 139.43 11.91C139.28 12.16 139.22 12.57 139.27 12.86C139.3 13 139.65 13.33 139.37 13.3C138.62 13.24 138 12.75 137.24 12.75C136.41 12.75 136.07 14.17 136.37 14.85C136.61 15.41 135.96 15.13 135.5 15.02C135.06 14.92 134.55 14.72 134.08 14.8C133.41 14.93 133.27 16.12 133.27 16.68C133.27 17.13 132.7 16.96 132.38 16.96C131.97 16.96 131.54 17.08 131.23 17.39C130.79 17.84 130.66 18.26 130.66 18.9C130.66 19.3 130.97 19.41 130.47 19.5C129.66 19.64 129.03 20.07 129.03 21.07C129.03 21.41 129.08 21.77 129.25 22.07C129.39 22.32 128.99 22.21 128.83 22.21C128.2 22.21 127.98 22.14 127.54 22.49C127.08 22.86 126.78 23.51 126.65 24.09C126.57 24.42 126.53 24.75 126.54 25.09C126.54 25.13 126.64 25.48 126.62 25.5C126.36 25.75 125.33 25.54 124.93 25.7C124.41 25.92 123.84 26.31 123.82 26.97C123.81 27.36 123.78 27.79 123.93 28.15C123.95 28.2 124.11 28.47 124.1 28.52C124.05 28.78 123.45 28.72 123.28 28.81C122.45 29.27 122.51 28.6 122.41 29.5C122.37 29.89 125.34 28.59 123.82 30.45" stroke="#646464" stroke-linecap="round"/>
<path d="M148.94 5.22999C148.39 5.22999 147.53 4.47999 147.03 4.83999C146.35 5.32999 145.66 5.65999 145.14 6.36999C144.94 6.63999 144.54 7.40999 144.11 7.09999C143.03 6.31999 142.05 7.32999 141.54 8.40999C141.16 9.22999 141.41 9.67999 140.43 9.27999C140.09 9.13999 139.7 9.01999 139.33 9.12999C138.81 9.27999 138.52 9.66999 138.51 10.22C138.51 10.34 138.56 10.52 138.55 10.64C138.52 10.88 137.33 10.2 137.24 10.15C136.74 9.83999 136.51 9.65999 135.98 9.99999C135.53 10.29 135.3 10.74 135.26 11.28C135.24 11.55 135.54 12.18 135.23 12.19C134.68 12.2 134.12 11.99 133.57 12.09C132.88 12.22 132.07 13.28 132.81 13.9C133.01 14.07 132.81 14.24 132.63 14.24C132.09 14.24 131.54 14.19 131.01 14.33C130.44 14.48 129.86 15.42 130.33 15.98C130.62 16.32 130.38 16.18 129.98 16.18C129.61 16.18 128.91 16.01 128.66 16.35C128.25 16.91 128.5 18.29 127.8 18.4C127.37 18.47 126.51 18.24 126.27 18.76C126.03 19.28 125.99 19.94 126 20.52C126 20.79 126.3 21.29 125.89 21.31C125.62 21.33 123.98 21.08 123.85 21.43C123.65 21.93 123.83 22.82 123.83 23.37C123.83 23.81 123.79 23.72 123.53 23.97C122.79 24.67 122.31 25.16 122.31 26.23" stroke="#646464" stroke-linecap="round"/>
<path d="M149.16 3.52001C148.74 3.45001 148.07 1.69001 147.53 2.20001C146.91 2.79001 146.32 3.40001 145.85 4.13001C145.39 4.85001 143.89 3.34001 143.43 2.98001C142.39 2.16001 142.1 4.60001 142.1 5.23001C142.1 5.39001 142.19 5.81001 141.97 5.81001C141.26 5.81001 139.75 5.39001 139.3 4.78001C138.87 4.20001 137.98 5.50001 137.89 5.92001C137.8 6.31001 137.93 6.72001 137.86 7.11001C137.78 7.57001 135.41 6.57001 135.09 6.51001C134.31 6.35001 133.73 7.10001 133.63 7.87001C133.6 8.10001 133.7 8.45001 133.6 8.66001C133.36 9.19001 132.37 8.87001 132.01 8.82001C130.84 8.67001 130.34 9.06001 130.04 10.21C129.96 10.52 129.86 12.58 129.42 12.52C128.56 12.41 128.16 12.02 127.64 12.94C127.33 13.48 127.15 14.03 127.02 14.64C126.89 15.22 126.01 14.71 125.63 14.6C124.84 14.37 124.34 15.23 124.11 16.01C123.98 16.45 124.06 17.01 124.06 17.47C124.06 17.89 122.6 17.34 122.34 17.26C121.24 16.92 121.58 18.85 121.28 19.47C121.1 19.85 120.08 20.11 119.76 20.28C119.01 20.67 120.29 21.5 119.76 22.16" stroke="#646464" stroke-linecap="round"/>
<path d="M141.7 18.04C140.55 18.04 139.15 17.82 138.37 18.86C137.77 19.66 137.77 20.55 137.73 21.5C137.72 21.84 137.03 21.69 136.79 21.69C135.6 21.69 134.72 22.9 134.72 23.98C134.72 25.12 132.76 24.95 131.94 25.67C131.54 26.03 131.52 26.89 131.55 27.38C131.6 28.02 131.42 27.86 130.84 27.87C130.09 27.89 128.43 28.28 128.37 29.3C128.35 29.63 128.39 29.65 128.59 29.86C128.67 29.94 127.83 29.94 127.73 29.94C126.66 29.94 125.04 31.76 124.24 32.32" stroke="#646464" stroke-linecap="round"/>
<path d="M131.11 24.39C130.89 24.59 130.45 24.68 130.18 24.82C129.68 25.08 129.46 25.45 129.15 25.93C128.92 26.3 128.76 26.67 128.83 27.12C128.88 27.41 129.14 27.3 128.75 27.38C127.98 27.54 127.24 27.88 126.81 28.61C126.63 28.91 126.63 29.33 126.71 29.67C126.73 29.75 127.03 30.17 127.01 30.2C126.89 30.35 126.58 30.44 126.44 30.57C126.15 30.82 125.96 31.13 125.78 31.47C125.45 32.1 124.92 32.88 124.92 33.62" stroke="#646464" stroke-linecap="round"/>
<path d="M140.11 60.41C139.59 60.34 138.85 59.94 138.7 60.81C138.62 61.29 138.7 61.5 138.14 61.52C137.57 61.54 136.99 61.69 136.82 62.31C136.78 62.46 136.88 63.04 136.7 63.09C136.34 63.19 135.81 63.09 135.47 63.02C134.82 62.89 135.05 63.73 135.05 64.21" stroke="#646464" stroke-linecap="round"/>
<path d="M167.84 86.8C166.11 86.39 164.28 86.5 162.5 86.6C160.97 86.69 159.43 86.78 157.94 87.1C156.77 87.35 155.63 87.73 154.44 87.86C152.81 88.03 151.18 87.72 149.56 87.48C146.54 87.03 143.48 86.83 140.42 86.87C139.47 86.88 138.45 86.95 137.73 87.5C136.71 88.28 136.73 89.69 137.02 90.87C137.4 92.43 138.15 94 139.6 94.94C140.55 95.55 141.71 95.83 142.81 96.17C145.08 96.86 147.25 97.85 149.2 99.1C150.24 99.76 151.3 100.52 152.57 100.64C153.74 100.75 154.87 100.29 155.93 99.83C159.11 98.44 162.31 96.9 164.67 94.54C167.03 92.18 168.43 88.84 167.44 85.8" fill="white"/>
<path d="M167.98 86.31C166.6 86 165.2 85.97 163.79 86.03C162.38 86.09 160.83 86.17 159.37 86.35C158.02 86.52 156.74 86.9 155.42 87.18C153.83 87.52 152.26 87.37 150.67 87.13C147.79 86.7 144.91 86.39 142 86.36C139.84 86.33 136.78 86.2 136.4 88.98C136.11 91.05 137.19 93.61 138.78 94.93C139.73 95.72 140.89 96.1 142.06 96.45C143.43 96.86 144.78 97.33 146.08 97.93C147.26 98.48 148.38 99.14 149.48 99.84C150.58 100.54 151.64 101.12 152.91 101.13C154.18 101.14 155.42 100.57 156.59 100.06C157.76 99.55 158.97 98.99 160.12 98.37C162.57 97.06 164.93 95.4 166.52 93.08C168 90.92 168.73 88.2 167.94 85.64C167.75 85.03 166.78 85.29 166.98 85.91C168.42 90.55 164.57 94.57 160.93 96.77C159.94 97.37 158.92 97.9 157.88 98.39C156.75 98.93 155.59 99.51 154.39 99.88C153.19 100.25 152.03 100.15 150.89 99.52C149.86 98.96 148.91 98.26 147.87 97.71C146.83 97.16 145.75 96.66 144.64 96.24C143.53 95.82 142.33 95.52 141.19 95.12C139.02 94.35 137.74 92.46 137.41 90.21C137.25 89.11 137.49 87.97 138.66 87.58C139.83 87.19 141.19 87.35 142.37 87.37C145.07 87.42 147.74 87.7 150.41 88.1C151.82 88.31 153.25 88.5 154.67 88.32C156.09 88.14 157.4 87.67 158.79 87.44C160.25 87.2 161.74 87.13 163.21 87.06C164.68 86.99 166.23 86.95 167.72 87.28C168.35 87.42 168.61 86.45 167.99 86.32L167.98 86.31Z" fill="white"/>
<path d="M1.59 100.2L9.79999 76.59L33.41 84.8L1.59 100.2Z" fill="#E0CE65"/>
<path d="M0.589996 96.2L8.79999 72.59L32.41 80.8L0.589996 96.2Z" fill="#F8E86D"/>
<path d="M99.2498 42.4244L74.4032 34.7664L66.7451 59.613L91.5918 67.2711L99.2498 42.4244Z" fill="#C46F6C"/>
<path d="M101.246 41.4179L76.399 33.7598L68.741 58.6064L93.5876 66.2645L101.246 41.4179Z" fill="#E3817A"/>
<path d="M93 127C100.732 127 107 120.732 107 113C107 105.268 100.732 99 93 99C85.268 99 79 105.268 79 113C79 120.732 85.268 127 93 127Z" fill="#9CCFE5"/>
<path d="M95 127C102.732 127 109 120.732 109 113C109 105.268 102.732 99 95 99C87.268 99 81 105.268 81 113C81 120.732 87.268 127 95 127Z" fill="#5BA2DD"/>
<path d="M17.07 45.94C17.07 45.94 10.74 47.01 26.89 55.36C43.04 63.71 41.05 59.03 41.05 59.03C41.05 59.03 29.72 49.66 17.33 46.09" fill="#B29C74"/>
<path opacity="0.32" d="M29.8 27.5C29.66 27.46 29.51 27.45 29.36 27.47C28.67 27.56 26.83 28.03 25.47 30.53L16.52 46.93C16.3 47.34 16.38 47.86 16.74 48.2C17.95 49.37 21.15 52.14 27.43 55.57C33.71 59 37.31 60.03 38.84 60.38C39.32 60.49 39.8 60.28 40.02 59.87L49.52 42.47C49.52 42.47 51.03 39.7 49.13 37.8C48.84 37.51 48.73 37.09 48.85 36.71C49.04 36.12 50.6 34.35 49.97 34.19C48.43 33.81 44.65 32.1 40.88 30.18C37.15 28.29 33.47 26.13 32.21 25.08C31.78 24.72 31.25 26.93 30.85 27.29C30.61 27.5 30.28 27.64 29.81 27.51L29.8 27.5Z" fill="#AAA9D3"/>
<path d="M25.95 32.7L18.9 45.61C18.64 46.09 18.75 46.71 19.19 47.14C20.39 48.35 23.21 50.85 28.34 53.65C33.26 56.33 36.54 57.45 38.14 57.88C38.78 58.06 39.42 57.81 39.69 57.29L46.56 43.84C46.9 43.17 47.42 42.88 46.62 42.56C43.35 41.22 33.48 36.6 27.06 31.89C26.8 31.7 26.63 31.66 26.5 31.72C26.28 31.83 26.19 32.26 25.94 32.7H25.95Z" fill="#9EE6B3"/>
<path opacity="0.2" d="M43.65 32.39C43.43 32.27 42.52 34.22 42.75 34.87C42.98 35.52 44.02 37.11 43.11 38.86C42.2 40.61 32.94 58.29 32.94 58.29C32.94 58.29 37.15 60.05 38.28 60.23C39.41 60.41 39.47 60.89 40.73 58.6C41.99 56.31 49.32 42.85 49.32 42.85C49.32 42.85 51.02 39.34 49.14 37.79C49.14 37.79 48.45 37.21 49.24 36.02C50.03 34.83 50.06 34.33 50.06 34.33C50.06 34.33 49.27 35.49 43.65 32.37V32.39Z" fill="white"/>
<path d="M26.71 34.3C29.68 36.8 36.54 41.75 45.22 44.33C46.3 44.65 46.8 45.91 46.24 46.93L43.31 52.3C42.87 53.11 41.92 53.47 41.08 53.15C37.21 51.67 26.68 47.36 21.38 42.42C20.78 41.86 20.64 40.95 21.04 40.21L23.97 34.84C24.52 33.82 25.84 33.56 26.71 34.29V34.3Z" fill="#C1B4A3"/>
<mask id="mask1_332_3659" style="mask-type:luminance" maskUnits="userSpaceOnUse" x="20" y="33" width="27" height="21">
<path d="M26.71 34.3C29.68 36.8 36.54 41.75 45.22 44.33C46.3 44.65 46.8 45.91 46.24 46.93L43.31 52.3C42.87 53.11 41.92 53.47 41.08 53.15C37.21 51.67 26.68 47.36 21.38 42.42C20.78 41.86 20.64 40.95 21.04 40.21L23.97 34.84C24.52 33.82 25.84 33.56 26.71 34.29V34.3Z" fill="white"/>
</mask>
<g mask="url(#mask1_332_3659)">
<path d="M39.98 41.51C39.65 41.95 37.26 51.23 33.91 51.9C33.91 51.9 43.86 59.22 44.08 58.93C44.3 58.64 50.87 50.76 50.47 47.42C50.07 44.08 40.02 41.47 39.98 41.51Z" fill="#CEC0B2"/>
<path opacity="0.09" d="M44.86 49.81C44.86 49.81 28.76 47.49 20.44 40.69L20.9 43.53C20.9 43.53 32.29 52.65 37.22 53.41C42.15 54.17 42.55 54.05 42.55 54.05L44.79 49.6L44.86 49.81Z" fill="#262320"/>
</g>
<path d="M27.31 31.18C27.31 31.18 30.64 32.08 38.06 36.1C45.74 40.26 47.39 42.13 47.39 42.13C47.39 42.13 33.31 36.71 27.31 31.18Z" fill="#FFA39C"/>
<path opacity="0.32" d="M49.88 34.72C50.13 34.8 50.28 34.5 50.06 34.35C48.85 33.5 46.34 31.87 41.67 29.33C36.57 26.32 33.5 25.5 32.15 25.13C31.9 25.06 31.77 25.35 31.97 25.5C33.5 26.66 37.3 29.1 40.76 30.99C44.05 32.78 47.97 34.13 49.87 34.73L49.88 34.72Z" fill="#A1A1C6"/>
<path opacity="0.32" d="M31.33 26.26C31.33 26.26 31.92 28.85 39.13 32.78C39.13 32.78 34.84 30.86 33.09 29.16C30.31 26.47 31.33 26.26 31.33 26.26Z" fill="#AAA9D3"/>
<path opacity="0.32" d="M49.96 34.81C49.96 34.81 47.46 35.71 40.26 31.78C40.26 31.78 44.2 34.35 46.57 34.9C50.34 35.78 49.96 34.81 49.96 34.81Z" fill="#AAA9D3"/>
<path d="M62.17 88.8L61.81 88.64L63.1 85.73L53.24 81.37L51.95 84.28L51.59 84.12C46.34 81.8 40.21 84.17 37.89 89.42L26.51 111.72C24.19 116.97 26.56 123.1 31.81 125.42L44.93 131.22C50.18 133.54 56.31 131.17 58.63 125.92L67.48 102.5C69.8 97.25 67.43 91.12 62.18 88.8H62.17Z" fill="#F2F2F2"/>
<mask id="mask2_332_3659" style="mask-type:luminance" maskUnits="userSpaceOnUse" x="25" y="81" width="44" height="52">
<path d="M62.17 88.8L61.81 88.64L63.1 85.73L53.24 81.37L51.95 84.28L51.59 84.12C46.34 81.8 40.21 84.17 37.89 89.42L26.51 111.72C24.19 116.97 26.56 123.1 31.81 125.42L44.93 131.22C50.18 133.54 56.31 131.17 58.63 125.92L67.48 102.5C69.8 97.25 67.43 91.12 62.18 88.8H62.17Z" fill="white"/>
</mask>
<g mask="url(#mask2_332_3659)">
<path d="M34.12 98.55C33.97 98.94 25.33 108.79 30.38 118.67C35.5 128.69 45.63 131.55 46.86 131.75C48.09 131.95 20.24 124.9 24.97 114C29.7 103.1 34.11 98.55 34.11 98.55H34.12Z" fill="#CECECE"/>
</g>
<path d="M56.1178 98.6543L48.3717 95.2282C43.9118 93.2555 38.6972 95.2719 36.7246 99.7318L35.0864 103.436C33.1137 107.896 35.13 113.11 39.5899 115.083L47.3361 118.509C51.796 120.482 57.0106 118.465 58.9832 114.005L60.6214 110.301C62.5941 105.842 60.5777 100.627 56.1178 98.6543Z" fill="#C8A9F2"/>
<path d="M55.45 77.96L56.4 75.81C56.4 75.81 57.19 75.4 57.76 75.81C58.33 76.22 64.36 66.03 64.36 66.03C64.36 66.03 66.5 64.25 66.88 67.15L64.14 78.49C64.14 78.49 65.09 79.59 64.92 80.5C64.75 81.41 64.55 81.85 64.55 81.85L55.46 77.98L55.45 77.96Z" fill="#E1A9AF"/>
<path d="M63.6346 79.7482L57.3151 76.953C55.7544 76.2627 53.9296 76.9683 53.2393 78.529L52.6649 79.8277C51.9746 81.3884 52.6802 83.2132 54.2409 83.9035L60.5604 86.6986C62.1211 87.3889 63.9459 86.6833 64.6362 85.1226L65.2106 83.824C65.9009 82.2633 65.1953 80.4385 63.6346 79.7482Z" fill="#F1F0F1"/>
<path d="M55.6196 77.2588L54.8605 76.923L52.6236 81.9804L53.3827 82.3162L55.6196 77.2588Z" fill="#D8D8D8"/>
<path d="M56.8277 77.7921L56.0687 77.4563L53.8318 82.5137L54.5908 82.8495L56.8277 77.7921Z" fill="#D8D8D8"/>
<path d="M58.0451 78.3394L57.286 78.0037L55.0491 83.0611L55.8082 83.3968L58.0451 78.3394Z" fill="#D8D8D8"/>
<path d="M59.2624 78.8768L58.5033 78.541L56.2664 83.5984L57.0255 83.9341L59.2624 78.8768Z" fill="#D8D8D8"/>
<path d="M60.4746 79.4109L59.7155 79.0752L57.4786 84.1326L58.2377 84.4683L60.4746 79.4109Z" fill="#D8D8D8"/>
<path d="M61.7019 79.9483L60.9428 79.6125L58.7059 84.6699L59.465 85.0056L61.7019 79.9483Z" fill="#D8D8D8"/>
<path d="M62.9192 80.4856L62.1601 80.1498L59.9232 85.2072L60.6823 85.543L62.9192 80.4856Z" fill="#D8D8D8"/>
<path d="M64.1365 81.0329L63.3774 80.6972L61.1405 85.7546L61.8996 86.0903L64.1365 81.0329Z" fill="#D8D8D8"/>
<path d="M65.3446 81.5662L64.5856 81.2305L62.3487 86.2879L63.1077 86.6236L65.3446 81.5662Z" fill="#D8D8D8"/>
<path d="M62.2865 87.4614L52.5467 83.1534L52.211 83.9125L61.9508 88.2204L62.2865 87.4614Z" fill="#D8D8D8"/>
<path d="M60.8 92.81C63.46 95.26 64.01 98.6 63.65 102.07C63.45 103.99 66.45 103.97 66.65 102.07C67.09 97.86 66.12 93.63 62.92 90.69C61.5 89.38 59.37 91.5 60.8 92.81Z" fill="white"/>
<path d="M45.64 104.66L44.36 104.09L44.74 103.23C44.85 102.98 44.91 102.82 44.91 102.74C44.91 102.66 44.86 102.61 44.77 102.57C44.66 102.52 44.58 102.53 44.52 102.59C44.46 102.65 44.37 102.81 44.26 103.06L43.25 105.35C43.14 105.59 43.09 105.75 43.09 105.84C43.09 105.93 43.13 105.99 43.23 106.03C43.33 106.07 43.4 106.06 43.47 106C43.53 105.94 43.62 105.77 43.74 105.5L44.01 104.88L45.29 105.45L45.21 105.64C44.98 106.15 44.79 106.5 44.62 106.68C44.45 106.86 44.21 106.98 43.89 107.03C43.57 107.08 43.23 107.03 42.87 106.87C42.49 106.7 42.22 106.5 42.03 106.26C41.84 106.02 41.77 105.76 41.8 105.48C41.83 105.2 41.95 104.83 42.16 104.34L42.8 102.9C42.96 102.55 43.09 102.28 43.19 102.12C43.29 101.95 43.44 101.81 43.63 101.7C43.82 101.59 44.05 101.53 44.3 101.53C44.56 101.53 44.82 101.59 45.1 101.72C45.48 101.89 45.76 102.1 45.94 102.35C46.12 102.6 46.2 102.86 46.18 103.11C46.16 103.36 46.05 103.72 45.85 104.18L45.64 104.65V104.66Z" fill="white"/>
<path d="M48.7 106.9C48.48 107.4 48.31 107.74 48.2 107.94C48.09 108.14 47.93 108.29 47.73 108.41C47.53 108.53 47.31 108.58 47.06 108.58C46.81 108.58 46.55 108.52 46.27 108.39C46.01 108.27 45.79 108.12 45.62 107.95C45.45 107.77 45.34 107.57 45.28 107.34C45.23 107.11 45.24 106.89 45.3 106.68C45.37 106.47 45.51 106.11 45.73 105.6L46.1 104.76C46.32 104.26 46.49 103.92 46.6 103.72C46.71 103.52 46.87 103.37 47.07 103.25C47.27 103.13 47.49 103.08 47.74 103.08C47.99 103.08 48.25 103.14 48.53 103.27C48.79 103.39 49.01 103.53 49.18 103.71C49.35 103.89 49.46 104.09 49.51 104.32C49.56 104.55 49.55 104.77 49.49 104.98C49.43 105.19 49.28 105.55 49.06 106.06L48.69 106.9H48.7ZM48.13 104.71C48.23 104.48 48.28 104.33 48.29 104.25C48.29 104.17 48.25 104.12 48.18 104.08C48.11 104.05 48.05 104.05 47.99 104.08C47.93 104.12 47.85 104.26 47.73 104.52L46.71 106.82C46.58 107.11 46.52 107.29 46.51 107.37C46.51 107.45 46.54 107.5 46.63 107.54C46.72 107.58 46.79 107.57 46.85 107.5C46.91 107.43 47 107.25 47.13 106.96L48.13 104.7V104.71Z" fill="white"/>
<path d="M51.73 104.79L49.99 108.73L50.77 109.07L50.33 110.06L48.27 109.15L50.45 104.22L51.73 104.79Z" fill="white"/>
<path d="M55.19 106.32L53.74 111.57L52.43 110.99L52.75 110.07L52.29 109.87L51.82 110.72L50.5 110.13L53.33 105.49L55.18 106.31L55.19 106.32ZM53.11 109.19C53.29 108.6 53.53 107.88 53.83 107.03C53.28 107.92 52.89 108.57 52.67 108.99L53.11 109.19Z" fill="white"/>
</svg>
