<svg width="187" height="176" viewBox="0 0 187 176" fill="none" xmlns="http://www.w3.org/2000/svg">
<path d="M134.01 37H38.51C21.8034 37 8.26001 50.5434 8.26001 67.25V105.75C8.26001 122.457 21.8034 136 38.51 136H134.01C150.717 136 164.26 122.457 164.26 105.75V67.25C164.26 50.5434 150.717 37 134.01 37Z" fill="#FDFCC2"/>
<mask id="mask0_332_3791" style="mask-type:luminance" maskUnits="userSpaceOnUse" x="8" y="37" width="157" height="99">
<path d="M134.01 37H38.51C21.8034 37 8.26001 50.5434 8.26001 67.25V105.75C8.26001 122.457 21.8034 136 38.51 136H134.01C150.717 136 164.26 122.457 164.26 105.75V67.25C164.26 50.5434 150.717 37 134.01 37Z" fill="white"/>
</mask>
<g mask="url(#mask0_332_3791)">
<path d="M-8.26 79.34C-1.03 74.42 8.42999 72.93 16.83 75.38C30.24 79.29 39.05 91.8 50.49 99.83C62.36 108.17 77.22 111.6 91.71 111.21C106.21 110.82 120.41 106.81 133.84 101.34C140.28 98.72 146.81 95.7 153.76 95.68C160.71 95.66 168.27 99.69 169.7 106.49C170.76 111.54 168.3 116.6 165.91 121.17C162.58 127.54 159.25 133.91 155.92 140.28C154.57 142.86 153.2 145.47 151.14 147.53C147.65 151.02 142.64 152.46 137.8 153.4C100.43 160.65 62.71 145.49 24.78 142.24C17.84 141.64 10.76 141.43 4.16001 139.22C-2.43999 137.01 -8.68 132.36 -10.76 125.71C-12.2 121.09 -11.5 116.08 -10.33 111.39C-9.17998 106.8 -7.6 102.31 -5.6 98.02C-3.8 94.14 -1.63 90.32 -0.980005 86.09C-0.330006 81.86 -1.61999 76.97 -5.30999 74.8" fill="#EEC7A1"/>
</g>
<path d="M0.880005 161.65C1.42 160.73 2.15001 160.02 3.07001 159.5C3.99001 158.98 5.01001 158.73 6.10001 158.73C7.36001 158.73 8.47999 159.04 9.45999 159.66C10.44 160.28 11.15 161.15 11.59 162.29H9.26001C8.95001 161.67 8.53001 161.2 7.98001 160.9C7.44001 160.59 6.81 160.44 6.09 160.44C5.31 160.44 4.61 160.62 4 160.97C3.39 161.32 2.91 161.83 2.56 162.48C2.21 163.14 2.04001 163.9 2.04001 164.77C2.04001 165.64 2.21 166.41 2.56 167.06C2.91 167.72 3.38 168.22 4 168.58C4.61 168.94 5.31 169.12 6.09 169.12C6.8 169.12 7.43001 168.97 7.98001 168.66C8.52001 168.35 8.95001 167.89 9.26001 167.27H11.59C11.15 168.4 10.44 169.28 9.45999 169.89C8.47999 170.5 7.36001 170.81 6.10001 170.81C4.99001 170.81 3.98 170.55 3.06 170.04C2.14 169.52 1.41 168.81 0.880005 167.89C0.340005 166.97 0.0700073 165.93 0.0700073 164.78C0.0700073 163.63 0.340005 162.59 0.880005 161.67V161.65Z" fill="#A8A8A8"/>
<path d="M17.11 161.57C17.58 161.3 18.14 161.17 18.78 161.17V163.18H18.29C17.53 163.18 16.96 163.37 16.56 163.76C16.17 164.14 15.97 164.81 15.97 165.77V170.7H14.03V161.33H15.97V162.69C16.25 162.21 16.63 161.84 17.1 161.58L17.11 161.57Z" fill="#A8A8A8"/>
<path d="M20.86 159.73C20.62 159.49 20.5 159.2 20.5 158.85C20.5 158.5 20.62 158.2 20.86 157.97C21.1 157.73 21.39 157.61 21.74 157.61C22.09 157.61 22.37 157.73 22.61 157.97C22.85 158.21 22.97 158.5 22.97 158.85C22.97 159.2 22.85 159.5 22.61 159.73C22.37 159.97 22.08 160.09 21.74 160.09C21.4 160.09 21.09 159.97 20.86 159.73ZM22.7 161.32V170.69H20.76V161.32H22.7Z" fill="#A8A8A8"/>
<path d="M25.37 163.47C25.76 162.74 26.29 162.18 26.97 161.78C27.65 161.38 28.39 161.18 29.21 161.18C29.95 161.18 30.59 161.32 31.14 161.61C31.69 161.9 32.13 162.26 32.46 162.69V161.33H34.42V170.7H32.46V169.31C32.13 169.75 31.68 170.12 31.12 170.41C30.55 170.7 29.91 170.85 29.18 170.85C28.37 170.85 27.64 170.64 26.97 170.23C26.3 169.82 25.77 169.24 25.38 168.5C24.99 167.76 24.79 166.92 24.79 165.98C24.79 165.04 24.99 164.21 25.38 163.48L25.37 163.47ZM32.05 164.32C31.78 163.84 31.44 163.48 31 163.23C30.57 162.98 30.1 162.86 29.61 162.86C29.12 162.86 28.65 162.98 28.22 163.23C27.79 163.47 27.44 163.83 27.17 164.3C26.9 164.77 26.77 165.33 26.77 165.97C26.77 166.61 26.9 167.18 27.17 167.67C27.44 168.16 27.79 168.53 28.22 168.78C28.66 169.03 29.12 169.16 29.61 169.16C30.1 169.16 30.57 169.04 31 168.79C31.43 168.54 31.78 168.18 32.05 167.69C32.32 167.21 32.45 166.65 32.45 166C32.45 165.35 32.32 164.79 32.05 164.32Z" fill="#A8A8A8"/>
<path d="M43.85 161.63C44.43 161.94 44.89 162.39 45.22 162.99C45.55 163.59 45.71 164.32 45.71 165.17V170.7H43.79V165.46C43.79 164.62 43.58 163.98 43.16 163.53C42.74 163.08 42.17 162.86 41.44 162.86C40.71 162.86 40.14 163.08 39.71 163.53C39.28 163.98 39.07 164.62 39.07 165.46V170.7H37.13V161.33H39.07V162.4C39.39 162.01 39.79 161.71 40.29 161.5C40.78 161.29 41.31 161.18 41.86 161.18C42.6 161.18 43.26 161.33 43.84 161.64L43.85 161.63Z" fill="#A8A8A8"/>
<path d="M54.54 167.73H56.63C56.38 168.59 55.94 169.3 55.3 169.85C54.66 170.4 53.86 170.72 52.89 170.81V171.51C53.55 171.51 54.08 171.67 54.49 171.98C54.9 172.29 55.1 172.73 55.1 173.3C55.1 173.87 54.9 174.32 54.49 174.65C54.08 174.98 53.57 175.15 52.94 175.15H50.7V173.93H52.55C52.87 173.93 53.11 173.88 53.26 173.79C53.41 173.7 53.5 173.54 53.5 173.3C53.5 173.06 53.42 172.9 53.26 172.81C53.1 172.72 52.86 172.67 52.55 172.67H51.61V170.8C50.84 170.71 50.16 170.45 49.57 170.03C48.98 169.61 48.52 169.05 48.2 168.36C47.88 167.67 47.72 166.89 47.72 166.01C47.72 165.05 47.92 164.2 48.31 163.47C48.7 162.74 49.24 162.18 49.93 161.78C50.62 161.38 51.41 161.19 52.31 161.19C53.44 161.19 54.38 161.46 55.12 162C55.86 162.54 56.36 163.31 56.62 164.3H54.53C54.36 163.84 54.09 163.47 53.71 163.21C53.33 162.95 52.87 162.82 52.3 162.82C51.51 162.82 50.87 163.1 50.4 163.66C49.93 164.22 49.69 165.01 49.69 166.01C49.69 167.01 49.92 167.81 50.4 168.37C50.87 168.94 51.5 169.22 52.3 169.22C53.42 169.22 54.16 168.73 54.53 167.74L54.54 167.73Z" fill="#A8A8A8"/>
<path d="M58.69 163.47C59.08 162.74 59.61 162.18 60.29 161.78C60.97 161.38 61.71 161.18 62.53 161.18C63.27 161.18 63.91 161.32 64.46 161.61C65.01 161.9 65.45 162.26 65.78 162.69V161.33H67.74V170.7H65.78V169.31C65.45 169.75 65 170.12 64.44 170.41C63.87 170.7 63.23 170.85 62.5 170.85C61.69 170.85 60.96 170.64 60.29 170.23C59.62 169.82 59.09 169.24 58.7 168.5C58.31 167.76 58.11 166.92 58.11 165.98C58.11 165.04 58.31 164.21 58.7 163.48L58.69 163.47ZM65.37 164.32C65.1 163.84 64.76 163.48 64.32 163.23C63.89 162.98 63.42 162.86 62.93 162.86C62.44 162.86 61.97 162.98 61.54 163.23C61.11 163.47 60.76 163.83 60.49 164.3C60.22 164.77 60.09 165.33 60.09 165.97C60.09 166.61 60.22 167.18 60.49 167.67C60.76 168.16 61.11 168.53 61.54 168.78C61.98 169.03 62.44 169.16 62.93 169.16C63.42 169.16 63.89 169.04 64.32 168.79C64.75 168.54 65.1 168.18 65.37 167.69C65.64 167.21 65.77 166.65 65.77 166C65.77 165.35 65.64 164.79 65.37 164.32Z" fill="#A8A8A8"/>
<path d="M71.88 170.45C71.3 170.18 70.83 169.82 70.49 169.36C70.15 168.9 69.97 168.39 69.95 167.82H71.96C71.99 168.22 72.18 168.55 72.53 168.81C72.88 169.08 73.31 169.21 73.83 169.21C74.35 169.21 74.8 169.1 75.1 168.89C75.4 168.68 75.55 168.41 75.55 168.08C75.55 167.73 75.38 167.47 75.05 167.3C74.72 167.13 74.19 166.94 73.46 166.74C72.76 166.55 72.19 166.36 71.74 166.18C71.3 166 70.92 165.72 70.59 165.35C70.27 164.98 70.11 164.48 70.11 163.87C70.11 163.37 70.26 162.92 70.55 162.5C70.84 162.09 71.27 161.76 71.82 161.52C72.37 161.28 73 161.16 73.72 161.16C74.78 161.16 75.64 161.43 76.3 161.97C76.95 162.51 77.3 163.24 77.35 164.17H75.41C75.38 163.75 75.21 163.42 74.9 163.17C74.59 162.92 74.18 162.8 73.66 162.8C73.14 162.8 72.76 162.9 72.49 163.09C72.22 163.28 72.08 163.54 72.08 163.85C72.08 164.1 72.17 164.31 72.35 164.48C72.53 164.65 72.75 164.78 73.01 164.88C73.27 164.98 73.66 165.1 74.17 165.25C74.85 165.43 75.41 165.62 75.84 165.8C76.28 165.99 76.65 166.26 76.97 166.62C77.29 166.98 77.45 167.46 77.46 168.07C77.46 168.6 77.31 169.08 77.02 169.5C76.73 169.92 76.31 170.25 75.77 170.49C75.23 170.73 74.6 170.85 73.87 170.85C73.14 170.85 72.47 170.72 71.89 170.45H71.88Z" fill="#A8A8A8"/>
<path d="M87.62 161.61C88.19 161.32 88.83 161.17 89.54 161.17C90.36 161.17 91.1 161.37 91.78 161.77C92.46 162.17 92.98 162.74 93.37 163.46C93.76 164.18 93.95 165.02 93.95 165.96C93.95 166.9 93.76 167.74 93.37 168.48C92.98 169.22 92.45 169.8 91.78 170.21C91.11 170.62 90.36 170.83 89.54 170.83C88.83 170.83 88.19 170.69 87.64 170.4C87.08 170.11 86.63 169.75 86.28 169.32V175.13H84.34V161.31H86.28V162.69C86.61 162.26 87.06 161.9 87.62 161.6V161.61ZM91.57 164.29C91.3 163.82 90.95 163.46 90.52 163.22C90.08 162.98 89.62 162.85 89.12 162.85C88.62 162.85 88.17 162.97 87.73 163.22C87.29 163.47 86.94 163.83 86.68 164.31C86.42 164.79 86.28 165.35 86.28 165.99C86.28 166.63 86.41 167.2 86.68 167.68C86.95 168.16 87.3 168.53 87.73 168.78C88.17 169.03 88.63 169.15 89.12 169.15C89.61 169.15 90.09 169.02 90.52 168.77C90.96 168.51 91.31 168.14 91.57 167.66C91.84 167.17 91.97 166.61 91.97 165.96C91.97 165.31 91.84 164.76 91.57 164.29Z" fill="#A8A8A8"/>
<path d="M104.57 166.73H97.41C97.47 167.48 97.74 168.08 98.24 168.53C98.74 168.98 99.35 169.21 100.08 169.21C101.12 169.21 101.86 168.77 102.29 167.9H104.38C104.1 168.76 103.58 169.47 102.84 170.02C102.1 170.57 101.18 170.85 100.08 170.85C99.18 170.85 98.38 170.65 97.67 170.25C96.96 169.85 96.41 169.28 96 168.55C95.6 167.82 95.4 166.97 95.4 166.01C95.4 165.05 95.6 164.2 95.99 163.47C96.38 162.74 96.93 162.18 97.64 161.78C98.35 161.38 99.16 161.19 100.08 161.19C101 161.19 101.75 161.38 102.44 161.77C103.13 162.16 103.67 162.7 104.06 163.39C104.44 164.09 104.64 164.89 104.64 165.8C104.64 166.15 104.62 166.47 104.57 166.75V166.73ZM102.61 165.17C102.6 164.46 102.34 163.88 101.84 163.45C101.34 163.02 100.72 162.8 99.99 162.8C99.32 162.8 98.75 163.01 98.27 163.44C97.79 163.87 97.51 164.44 97.42 165.17H102.61Z" fill="#A8A8A8"/>
<path d="M106.67 163.47C107.06 162.74 107.59 162.18 108.27 161.78C108.95 161.38 109.7 161.18 110.52 161.18C111.25 161.18 111.89 161.33 112.45 161.62C113.01 161.91 113.44 162.27 113.75 162.69V161.33H115.71V175.15H113.75V169.34C113.44 169.76 113 170.12 112.42 170.41C111.84 170.7 111.18 170.85 110.45 170.85C109.65 170.85 108.91 170.64 108.25 170.23C107.59 169.82 107.06 169.24 106.67 168.5C106.28 167.76 106.08 166.92 106.08 165.98C106.08 165.04 106.28 164.21 106.67 163.48V163.47ZM113.35 164.32C113.08 163.84 112.74 163.48 112.3 163.23C111.87 162.98 111.4 162.86 110.91 162.86C110.42 162.86 109.95 162.98 109.52 163.23C109.09 163.47 108.74 163.83 108.47 164.3C108.2 164.77 108.07 165.33 108.07 165.97C108.07 166.61 108.2 167.18 108.47 167.67C108.74 168.16 109.09 168.53 109.52 168.78C109.96 169.03 110.42 169.16 110.91 169.16C111.4 169.16 111.87 169.04 112.3 168.79C112.73 168.54 113.08 168.18 113.35 167.69C113.62 167.21 113.75 166.65 113.75 166C113.75 165.35 113.62 164.79 113.35 164.32Z" fill="#A8A8A8"/>
<path d="M126.92 161.32V170.69H124.98V169.58C124.67 169.97 124.27 170.27 123.78 170.49C123.29 170.71 122.76 170.82 122.21 170.82C121.47 170.82 120.81 170.67 120.23 170.36C119.65 170.05 119.19 169.6 118.85 169C118.51 168.4 118.35 167.67 118.35 166.82V161.31H120.27V166.53C120.27 167.37 120.48 168.01 120.9 168.46C121.32 168.91 121.89 169.13 122.62 169.13C123.35 169.13 123.92 168.91 124.35 168.46C124.77 168.01 124.99 167.37 124.99 166.53V161.31H126.93L126.92 161.32Z" fill="#A8A8A8"/>
<path d="M138.18 166.73H131.02C131.08 167.48 131.35 168.08 131.85 168.53C132.35 168.98 132.96 169.21 133.69 169.21C134.73 169.21 135.47 168.77 135.9 167.9H137.99C137.71 168.76 137.19 169.47 136.45 170.02C135.71 170.57 134.79 170.85 133.69 170.85C132.79 170.85 131.99 170.65 131.28 170.25C130.57 169.85 130.02 169.28 129.61 168.55C129.21 167.82 129.01 166.97 129.01 166.01C129.01 165.05 129.21 164.2 129.6 163.47C129.99 162.74 130.54 162.18 131.25 161.78C131.96 161.38 132.77 161.19 133.69 161.19C134.61 161.19 135.36 161.38 136.05 161.77C136.74 162.16 137.28 162.7 137.67 163.39C138.05 164.09 138.25 164.89 138.25 165.8C138.25 166.15 138.23 166.47 138.18 166.75V166.73ZM136.22 165.17C136.21 164.46 135.95 163.88 135.45 163.45C134.95 163.02 134.33 162.8 133.6 162.8C132.93 162.8 132.36 163.01 131.88 163.44C131.4 163.87 131.12 164.44 131.03 165.17H136.22Z" fill="#A8A8A8"/>
<path d="M147.04 161.63C147.62 161.94 148.08 162.39 148.41 162.99C148.74 163.59 148.9 164.32 148.9 165.17V170.7H146.98V165.46C146.98 164.62 146.77 163.98 146.35 163.53C145.93 163.08 145.36 162.86 144.63 162.86C143.9 162.86 143.33 163.08 142.9 163.53C142.47 163.98 142.26 164.62 142.26 165.46V170.7H140.32V161.33H142.26V162.4C142.58 162.01 142.98 161.71 143.48 161.5C143.97 161.29 144.5 161.18 145.05 161.18C145.79 161.18 146.45 161.33 147.03 161.64L147.04 161.63Z" fill="#A8A8A8"/>
<path d="M151.49 163.47C151.88 162.74 152.41 162.18 153.09 161.78C153.77 161.38 154.51 161.18 155.33 161.18C156.07 161.18 156.71 161.32 157.26 161.61C157.81 161.9 158.25 162.26 158.58 162.69V161.33H160.54V170.7H158.58V169.31C158.25 169.75 157.8 170.12 157.24 170.41C156.67 170.7 156.03 170.85 155.3 170.85C154.49 170.85 153.76 170.64 153.09 170.23C152.42 169.82 151.89 169.24 151.5 168.5C151.11 167.76 150.91 166.92 150.91 165.98C150.91 165.04 151.11 164.21 151.5 163.48L151.49 163.47ZM158.18 164.32C157.91 163.84 157.57 163.48 157.13 163.23C156.7 162.98 156.23 162.86 155.74 162.86C155.25 162.86 154.78 162.98 154.35 163.23C153.92 163.47 153.57 163.83 153.3 164.3C153.03 164.77 152.9 165.33 152.9 165.97C152.9 166.61 153.03 167.18 153.3 167.67C153.57 168.16 153.92 168.53 154.35 168.78C154.79 169.03 155.25 169.16 155.74 169.16C156.23 169.16 156.7 169.04 157.13 168.79C157.56 168.54 157.91 168.18 158.18 167.69C158.45 167.21 158.58 166.65 158.58 166C158.58 165.35 158.45 164.79 158.18 164.32Z" fill="#A8A8A8"/>
<path d="M164.69 170.45C164.11 170.18 163.64 169.82 163.3 169.36C162.96 168.9 162.78 168.39 162.76 167.82H164.77C164.8 168.22 164.99 168.55 165.34 168.81C165.69 169.08 166.12 169.21 166.64 169.21C167.16 169.21 167.61 169.1 167.91 168.89C168.21 168.68 168.36 168.41 168.36 168.08C168.36 167.73 168.19 167.47 167.86 167.3C167.53 167.13 167 166.94 166.27 166.74C165.57 166.55 165 166.36 164.55 166.18C164.11 166 163.73 165.72 163.4 165.35C163.08 164.98 162.92 164.48 162.92 163.87C162.92 163.37 163.07 162.92 163.36 162.5C163.65 162.09 164.08 161.76 164.63 161.52C165.18 161.28 165.81 161.16 166.53 161.16C167.59 161.16 168.45 161.43 169.11 161.97C169.76 162.51 170.11 163.24 170.16 164.17H168.22C168.19 163.75 168.02 163.42 167.71 163.17C167.4 162.92 166.99 162.8 166.47 162.8C165.95 162.8 165.57 162.9 165.3 163.09C165.03 163.28 164.89 163.54 164.89 163.85C164.89 164.1 164.98 164.31 165.16 164.48C165.34 164.65 165.56 164.78 165.82 164.88C166.08 164.98 166.47 165.1 166.98 165.25C167.66 165.43 168.22 165.62 168.65 165.8C169.09 165.99 169.46 166.26 169.78 166.62C170.1 166.98 170.26 167.46 170.27 168.07C170.27 168.6 170.12 169.08 169.83 169.5C169.54 169.92 169.12 170.25 168.58 170.49C168.04 170.73 167.41 170.85 166.68 170.85C165.95 170.85 165.28 170.72 164.7 170.45H164.69Z" fill="#A8A8A8"/>
<path d="M65.9467 112.184L62.9806 117.192L92.9823 134.963L95.9484 129.955L65.9467 112.184Z" fill="#E2CF64"/>
<path d="M59.7848 110.818L58.6891 112.668C58.2078 113.48 58.4763 114.529 59.2888 115.011L61.7926 116.494C62.6051 116.975 63.654 116.707 64.1353 115.894L65.231 114.044C65.7123 113.232 65.4438 112.183 64.6313 111.701L62.1275 110.218C61.315 109.737 60.2661 110.006 59.7848 110.818Z" fill="#FF7676"/>
<path d="M69.3428 114.189L67.9209 116.59L94.5241 132.348L95.946 129.947L69.3428 114.189Z" fill="#F9E96D"/>
<path d="M95.75 129.99L103.71 138.03L92.83 134.9" fill="#CDA998"/>
<path d="M63.4525 112.539L62.0968 114.828C61.5085 115.821 61.8368 117.103 62.8299 117.691L65.1787 119.083C66.1719 119.671 67.4538 119.343 68.0421 118.35L69.3978 116.061C69.986 115.068 69.6578 113.786 68.6647 113.198L66.3158 111.806C65.3227 111.218 64.0407 111.546 63.4525 112.539Z" fill="#ABB9BA"/>
<path d="M92.82 135.14C92.58 134.94 92.34 134.73 92.16 134.49C91.98 134.25 91.87 133.96 91.93 133.72C92.01 133.42 92.34 133.25 92.7 133.23C93.06 133.21 93.44 133.3 93.82 133.4C93.37 133.07 92.88 132.68 92.83 132.22C92.81 132.06 92.86 131.9 92.93 131.77C93.1 131.43 93.45 131.18 93.9 131.17C94.24 131.17 94.6 131.3 94.94 131.44C94.6 131.19 94.21 130.99 93.96 130.67C93.71 130.35 93.72 129.87 94.08 129.82C94.23 129.8 94.39 129.85 94.55 129.9C94.91 130.01 95.28 130.13 95.64 130.24C94.69 131.95 93.76 133.68 92.86 135.42" fill="#CDA998"/>
<path d="M101.36 135.66C101.36 135.66 100.07 135.9 100.67 137.16L103.71 138.03L101.36 135.66Z" fill="black"/>
<path d="M65.8132 112.405L63.2344 116.759L63.5183 116.927L66.0971 112.574L65.8132 112.405Z" fill="#8F9999"/>
<path d="M66.6881 113.509L64.1093 117.862L64.3932 118.031L66.972 113.677L66.6881 113.509Z" fill="#8F9999"/>
<path d="M38.62 64.18C54.9952 64.18 68.27 50.9052 68.27 34.53C68.27 18.1548 54.9952 4.88 38.62 4.88C22.2448 4.88 8.97 18.1548 8.97 34.53C8.97 50.9052 22.2448 64.18 38.62 64.18Z" fill="#F5DCBE"/>
<path d="M53.14 47.34C56.6415 47.34 59.48 44.609 59.48 41.24C59.48 37.8711 56.6415 35.14 53.14 35.14C49.6385 35.14 46.8 37.8711 46.8 41.24C46.8 44.609 49.6385 47.34 53.14 47.34Z" fill="#413A3A"/>
<path d="M23.37 48.32C26.8715 48.32 29.71 45.5889 29.71 42.22C29.71 38.8511 26.8715 36.12 23.37 36.12C19.8685 36.12 17.03 38.8511 17.03 42.22C17.03 45.5889 19.8685 48.32 23.37 48.32Z" fill="#413A3A"/>
<path d="M36.3 53.2C36.95 54.12 38.8 55.41 40.94 53.2" stroke="#764C4C" stroke-linecap="round"/>
<path d="M56.56 41C57.5044 41 58.27 40.2344 58.27 39.29C58.27 38.3456 57.5044 37.58 56.56 37.58C55.6156 37.58 54.85 38.3456 54.85 39.29C54.85 40.2344 55.6156 41 56.56 41Z" fill="white"/>
<path d="M26.79 41.97C27.7344 41.97 28.5 41.2044 28.5 40.26C28.5 39.3156 27.7344 38.55 26.79 38.55C25.8456 38.55 25.08 39.3156 25.08 40.26C25.08 41.2044 25.8456 41.97 26.79 41.97Z" fill="white"/>
<path d="M40.97 66.37H36.06C29.3221 66.37 23.86 71.8321 23.86 78.57V93.17C23.86 99.9079 29.3221 105.37 36.06 105.37H40.97C47.7078 105.37 53.17 99.9079 53.17 93.17V78.57C53.17 71.8321 47.7078 66.37 40.97 66.37Z" fill="#7CA3B5"/>
<path d="M26.16 75.64L16 83.24C14.92 84.05 13.39 83.83 12.58 82.75C11.77 81.67 11.99 80.14 13.07 79.33L23.23 71.73C24.31 70.92 25.84 71.14 26.65 72.22C27.46 73.3 27.24 74.83 26.16 75.64Z" fill="#7CA3B5"/>
<path d="M49.73 75.64L59.89 83.24C60.97 84.05 62.5 83.83 63.31 82.75C64.12 81.67 63.9 80.14 62.82 79.33L52.6599 71.73C51.5799 70.92 50.05 71.14 49.24 72.22C48.43 73.3 48.65 74.83 49.73 75.64Z" fill="#7CA3B5"/>
<path d="M16.18 82.83L10.03 93.93C9.38001 95.11 7.89001 95.53 6.71001 94.88C5.53001 94.23 5.11003 92.74 5.76002 91.56L11.91 80.46C12.56 79.28 14.05 78.86 15.23 79.51C16.41 80.16 16.83 81.65 16.18 82.83Z" fill="#F5DCBE"/>
<path d="M59.71 82.83L65.86 93.93C66.51 95.11 68 95.53 69.18 94.88C70.36 94.23 70.78 92.74 70.13 91.56L63.98 80.46C63.33 79.28 61.84 78.86 60.66 79.51C59.48 80.16 59.06 81.65 59.71 82.83Z" fill="#F5DCBE"/>
<path d="M45.33 102C46.95 102 48.26 103.31 48.26 104.93V119.33C48.26 120.95 46.95 122.26 45.33 122.26C43.71 122.26 42.4 120.95 42.4 119.33V104.93C42.4 103.31 43.71 102 45.33 102Z" fill="#E4827A"/>
<path d="M31.18 102C32.8 102 34.11 103.31 34.11 104.93V119.33C34.11 120.95 32.8 122.26 31.18 122.26C29.56 122.26 28.25 120.95 28.25 119.33V104.93C28.25 103.31 29.56 102 31.18 102Z" fill="#E4827A"/>
<path d="M45.33 120.3C46.95 120.3 48.26 121.61 48.26 123.23V137.63C48.26 139.25 46.95 140.56 45.33 140.56C43.71 140.56 42.4 139.25 42.4 137.63V123.23C42.4 121.61 43.71 120.3 45.33 120.3Z" fill="#E4827A"/>
<path d="M31.18 120.3C32.8 120.3 34.11 121.61 34.11 123.23V137.63C34.11 139.25 32.8 140.56 31.18 140.56C29.56 140.56 28.25 139.25 28.25 137.63V123.23C28.25 121.61 29.56 120.3 31.18 120.3Z" fill="#E4827A"/>
<path d="M38.62 61.49C40.3 61.49 41.67 62.86 41.67 64.54V66.98C41.67 68.66 40.3 70.03 38.62 70.03C36.94 70.03 35.57 68.66 35.57 66.98V64.54C35.57 62.86 36.94 61.49 38.62 61.49Z" fill="#F5DCBE"/>
<path d="M35.33 63.93C37.05 64.3 40.45 64.17 41.92 63.93C40.97 65.77 38.31 68.35 35.33 63.93Z" fill="#CFBFA0"/>
<g opacity="0.2">
<path d="M56.68 57.35C58.2319 57.35 59.49 56.0919 59.49 54.54C59.49 52.9881 58.2319 51.73 56.68 51.73C55.1281 51.73 53.87 52.9881 53.87 54.54C53.87 56.0919 55.1281 57.35 56.68 57.35Z" fill="#E3817A"/>
</g>
<g opacity="0.2">
<path d="M20.57 57.35C22.1219 57.35 23.38 56.0919 23.38 54.54C23.38 52.9881 22.1219 51.73 20.57 51.73C19.0181 51.73 17.76 52.9881 17.76 54.54C17.76 56.0919 19.0181 57.35 20.57 57.35Z" fill="#E3817A"/>
</g>
<path d="M3.4 100.01C1.76 98.88 1.35002 96.64 2.48002 95L3.68 93.26C4.81 91.62 7.05001 91.21 8.69001 92.34C10.33 93.47 10.74 95.71 9.60999 97.35L8.41001 99.09C7.28001 100.73 5.04 101.14 3.4 100.01Z" fill="#F5DCBE"/>
<path d="M9.97001 99.02C9.31001 99.14 8.67002 98.71 8.54002 98.04L8.22001 96.33C8.10001 95.67 8.53002 95.03 9.20002 94.9C9.86002 94.78 10.5 95.21 10.63 95.88L10.95 97.59C11.07 98.25 10.64 98.89 9.97001 99.02Z" fill="#F5DCBE"/>
<path d="M72.49 100.01C74.13 98.88 74.5399 96.64 73.4099 95L72.21 93.26C71.08 91.62 68.84 91.21 67.2 92.34C65.56 93.47 65.15 95.71 66.28 97.35L67.48 99.09C68.61 100.73 70.85 101.14 72.49 100.01Z" fill="#F5DCBE"/>
<path d="M65.92 99.02C66.58 99.14 67.22 98.71 67.35 98.04L67.67 96.33C67.79 95.67 67.36 95.03 66.69 94.9C66.03 94.78 65.39 95.21 65.26 95.88L64.94 97.59C64.82 98.25 65.25 98.89 65.92 99.02Z" fill="#F5DCBE"/>
<path d="M51.43 141.77C51.43 143.79 48.7 143.48 45.33 143.48C41.96 143.48 39.23 143.79 39.23 141.77C39.23 139.75 41.96 138.11 45.33 138.11C48.7 138.11 51.43 139.75 51.43 141.77Z" fill="#544B42"/>
<path d="M37.28 142.02C37.28 144.04 34.3 143.61 30.94 143.61C27.58 143.61 25.08 144.05 25.08 142.02C25.08 139.99 27.81 138.36 31.18 138.36C34.55 138.36 37.28 140 37.28 142.02Z" fill="#544B42"/>
<path d="M71.6456 41.2936C72.5521 38.4581 71.7049 35.6537 69.7532 35.0298C67.8016 34.4058 65.4846 36.1985 64.578 39.0339C63.6715 41.8694 64.5187 44.6738 66.4704 45.2978C68.422 45.9217 70.739 44.129 71.6456 41.2936Z" fill="#F5DCBE"/>
<path d="M10.9068 45.2958C12.8585 44.6719 13.7057 41.8675 12.7992 39.032C11.8927 36.1966 9.57564 34.4039 7.62398 35.0279C5.67233 35.6519 4.8251 38.4562 5.73164 41.2917C6.63817 44.1271 8.95518 45.9198 10.9068 45.2958Z" fill="#F5DCBE"/>
<path d="M63.88 32.33C61.15 30.38 55.99 21.27 53.75 16.96C50.63 22.04 43.83 21.35 40.82 20.38C35.26 23.89 29.47 23.06 27.28 22.21C24.84 25.5 19.96 26.97 15.57 31.36C12.06 34.87 12.72 42.58 13.5 46H11.06L9.60001 35.14C5.49001 22.78 13.47 3.78001 37.3 2.93001C64.75 1.95001 72.03 24.65 68.53 35.14L66.33 46L64.74 45.02C65.59 41.6 66.62 34.28 63.89 32.33H63.88Z" fill="#E3817A"/>
<path d="M71 36.47C72.07 39.59 69.58 42.57 68.19 43.67C67.21 46.6 66.97 41.84 64.77 42.45C63.01 42.94 63.22 38.67 63.55 36.47C65.1 36.06 67.26 35.25 63.55 35.25C59.84 35.25 58.18 30.37 57.82 27.93C54.11 27.05 52.61 21.87 52.33 19.39C52.33 23.78 49.16 23.99 47.57 23.54C45.81 25.98 41.88 23.91 40.13 22.56C39.74 25.39 35.66 25.61 33.66 25.37C31.51 27.03 27.4 25.41 25.61 24.39C25.81 28.59 22.36 29.23 20.61 29.03C19.15 32.54 16.67 32.61 15.61 32.2C14.34 37.67 13.05 38.06 12.56 37.57H8.66L7.56 35.25C2.48 32.03 5.04001 27.32 6.95001 25.37C4.71001 18.54 8.78001 16.1 11.1 15.73C10.42 9.87 14.88 8.98 17.2 9.26C18.76 2.82 24.28 3.08 26.84 4.01C30.16 -2.82 35.79 0.590001 38.19 3.16C44.24 -2.79 49.01 1.98 50.63 5.11C56.88 1.79 59.41 7.39 59.9 10.6C67.81 8.75 69.38 14.87 69.17 18.16C74.34 20.01 72.55 25.44 71 27.92C74.81 30.56 72.59 34.71 71 36.46V36.47Z" fill="#E3817A"/>
<path d="M113.28 59.93C113.14 58.64 112.47 57.49 111.87 56.34C110.92 54.53 110.09 52.65 109.4 50.72C108.89 49.31 108.45 47.79 108.75 46.32L108.68 46.26C107.33 46.28 106.4 45.98 105.05 46.01C104.71 46.01 104.35 46.03 104.05 46.2C103.71 46.39 103.52 46.76 103.34 47.11C101.51 50.77 100.06 54.62 99.01 58.57C98.54 60.33 98.15 62.2 98.63 63.96C98.96 65.15 99.67 66.21 100.5 67.12C100.88 67.53 101.29 67.93 101.77 68.22C103.13 69.05 104.84 69 106.43 68.8C107.7 68.64 109.02 68.38 110 67.56C110.73 66.95 111.2 66.1 111.65 65.26C112.55 63.6 113.48 61.81 113.27 59.93H113.28ZM105.31 66.2C102.72 66.15 100.67 63.29 100.74 59.8C100.81 56.31 102.96 53.53 105.55 53.58C108.14 53.63 110.19 56.49 110.12 59.98C110.05 63.47 107.9 66.25 105.31 66.2Z" fill="#92C1D6"/>
<path d="M114.51 9.52001L101.56 42.86L105.15 47.8L108.5 47L115.34 9.71001C115.34 9.71001 115.86 7.14001 114.52 9.52001H114.51Z" fill="#92C1D6"/>
<path d="M81.96 48.34C81.47 49.15 80.97 49.99 80.82 50.93C80.61 52.19 81.06 53.46 81.57 54.64C82.2 56.1 83.03 57.61 84.44 58.35C84.94 58.61 85.48 58.77 86.03 58.89C87.24 59.15 88.51 59.22 89.7 58.89C91.46 58.41 92.87 57.13 94.15 55.83C97.02 52.91 99.59 49.71 101.82 46.28C102.03 45.95 102.25 45.6 102.24 45.21C102.24 44.87 102.06 44.55 101.89 44.25C101.22 43.07 100.49 42.43 99.83 41.25L99.74 41.22C98.62 42.23 97.09 42.62 95.62 42.9C93.61 43.28 91.57 43.53 89.52 43.63C88.23 43.69 86.89 43.71 85.71 44.24C83.99 45.01 82.92 46.72 81.94 48.34H81.96ZM87.28 46.97C90.25 45.14 93.76 45.45 95.12 47.66C96.48 49.87 95.18 53.14 92.21 54.97C89.24 56.8 85.73 56.49 84.37 54.28C83.01 52.07 84.31 48.8 87.28 46.97Z" fill="#92C1D6"/>
<path d="M128.52 17.56L106.38 45.66L100.3 45.08L99.29 41.79L127.94 16.96C127.94 16.96 129.89 15.21 128.52 17.57V17.56Z" fill="#92C1D6"/>
<path d="M105.75 44.03C106.772 44.03 107.6 43.2017 107.6 42.18C107.6 41.1583 106.772 40.33 105.75 40.33C104.728 40.33 103.9 41.1583 103.9 42.18C103.9 43.2017 104.728 44.03 105.75 44.03Z" fill="#92C1D6"/>
<path d="M113.28 56.93C113.14 55.64 112.47 54.49 111.87 53.34C110.92 51.53 110.09 49.65 109.4 47.72C108.89 46.31 108.45 44.79 108.75 43.32L108.68 43.26C107.33 43.28 106.4 42.98 105.05 43.01C104.71 43.01 104.35 43.03 104.05 43.2C103.71 43.39 103.52 43.76 103.34 44.11C101.51 47.77 100.06 51.62 99.01 55.57C98.54 57.33 98.15 59.2 98.63 60.96C98.96 62.15 99.67 63.21 100.5 64.12C100.88 64.53 101.29 64.93 101.77 65.22C103.13 66.05 104.84 66 106.43 65.8C107.7 65.64 109.02 65.38 110 64.56C110.73 63.95 111.2 63.1 111.65 62.26C112.55 60.6 113.48 58.81 113.27 56.93H113.28ZM105.31 63.2C102.72 63.15 100.67 60.29 100.74 56.8C100.81 53.31 102.96 50.53 105.55 50.58C108.14 50.63 110.19 53.49 110.12 56.98C110.05 60.47 107.9 63.25 105.31 63.2Z" fill="#ABE0FE"/>
<path d="M114.51 6.52001L101.56 39.86L105.15 44.8L108.5 44L115.34 6.71001C115.34 6.71001 115.86 4.14001 114.52 6.52001H114.51Z" fill="#EDEDED"/>
<path d="M81.96 45.34C81.47 46.15 80.97 46.99 80.82 47.93C80.61 49.19 81.06 50.46 81.57 51.64C82.2 53.1 83.03 54.61 84.44 55.35C84.94 55.61 85.48 55.77 86.03 55.89C87.24 56.15 88.51 56.22 89.7 55.89C91.46 55.41 92.87 54.13 94.15 52.83C97.02 49.91 99.59 46.71 101.82 43.28C102.03 42.95 102.25 42.6 102.24 42.21C102.24 41.87 102.06 41.55 101.89 41.25C101.22 40.07 100.49 39.43 99.83 38.25L99.74 38.22C98.62 39.23 97.09 39.62 95.62 39.9C93.61 40.28 91.57 40.53 89.52 40.63C88.23 40.69 86.89 40.71 85.71 41.24C83.99 42.01 82.92 43.72 81.94 45.34H81.96ZM87.28 43.97C90.25 42.14 93.76 42.45 95.12 44.66C96.48 46.87 95.18 50.14 92.21 51.97C89.24 53.8 85.73 53.49 84.37 51.28C83.01 49.07 84.31 45.8 87.28 43.97Z" fill="#ABE0FE"/>
<path d="M128.52 14.56L106.38 42.66L100.3 42.08L99.29 38.79L127.94 13.96C127.94 13.96 129.89 12.21 128.52 14.57V14.56Z" fill="#EDEDED"/>
<path d="M105.75 41.03C106.772 41.03 107.6 40.2017 107.6 39.18C107.6 38.1583 106.772 37.33 105.75 37.33C104.728 37.33 103.9 38.1583 103.9 39.18C103.9 40.2017 104.728 41.03 105.75 41.03Z" fill="#5BA2DD"/>
<path d="M156.25 51.28L150.43 53.53L150.56 56.64L146.59 58.18L146.2 40.41L150.6 38.71L162.26 52.12L158.24 53.67L156.24 51.28H156.25ZM154.14 48.72L150 43.76L150.3 50.2L154.14 48.71V48.72Z" fill="#B489C6"/>
<path d="M158.25 49.28L152.43 51.53L152.56 54.64L148.59 56.18L148.2 38.41L152.6 36.71L164.26 50.12L160.24 51.67L158.24 49.28H158.25ZM156.14 46.72L152 41.76L152.3 48.2L156.14 46.71V46.72Z" fill="#DFA6F4"/>
<path d="M104.25 108.12C105.45 105.82 107.6 104.07 110.71 102.87C112.77 102.07 114.68 101.75 116.43 101.89C118.18 102.04 119.67 102.58 120.91 103.53C122.14 104.48 123.06 105.72 123.66 107.26C124.36 109.08 124.48 110.73 124.01 112.22C123.54 113.71 122.78 114.9 121.73 115.78L121.79 115.95C123.56 115.87 125.13 116.25 126.51 117.11C127.89 117.97 128.94 119.35 129.67 121.25C130.33 122.96 130.52 124.62 130.24 126.22C129.96 127.83 129.22 129.3 128 130.62C126.79 131.94 125.15 133 123.09 133.8C119.79 135.08 116.84 135.28 114.24 134.42C111.65 133.56 109.66 131.51 108.28 128.28L115.13 125.63C115.63 126.83 116.34 127.65 117.27 128.1C118.2 128.55 119.3 128.52 120.56 128.04C121.63 127.62 122.35 126.99 122.7 126.15C123.05 125.3 123.03 124.37 122.64 123.35C122.13 122.03 121.34 121.24 120.27 120.97C119.2 120.7 117.75 120.93 115.9 121.64L114.58 122.15L112.36 116.41L113.68 115.9C115.08 115.36 116.13 114.68 116.81 113.86C117.49 113.04 117.59 112.02 117.11 110.78C116.73 109.79 116.15 109.13 115.39 108.79C114.63 108.45 113.76 108.47 112.8 108.84C111.75 109.24 111.1 109.86 110.83 110.69C110.56 111.52 110.57 112.42 110.85 113.39L103.96 116.06C102.93 113.07 103.02 110.43 104.22 108.13L104.25 108.12Z" fill="#CC736E"/>
<path d="M105.25 105.12C106.45 102.82 108.6 101.07 111.71 99.87C113.77 99.07 115.68 98.75 117.43 98.89C119.18 99.04 120.67 99.58 121.91 100.53C123.14 101.48 124.06 102.72 124.66 104.26C125.36 106.08 125.48 107.73 125.01 109.22C124.54 110.71 123.78 111.9 122.73 112.78L122.79 112.95C124.56 112.87 126.13 113.25 127.51 114.11C128.89 114.97 129.94 116.35 130.67 118.25C131.33 119.96 131.52 121.62 131.24 123.22C130.96 124.83 130.22 126.3 129 127.62C127.79 128.94 126.15 130 124.09 130.8C120.79 132.08 117.84 132.28 115.24 131.42C112.65 130.56 110.66 128.51 109.28 125.28L116.13 122.63C116.63 123.83 117.34 124.65 118.27 125.1C119.2 125.55 120.3 125.52 121.56 125.04C122.63 124.62 123.35 123.99 123.7 123.15C124.05 122.3 124.03 121.37 123.64 120.35C123.13 119.03 122.34 118.24 121.27 117.97C120.2 117.7 118.75 117.93 116.9 118.64L115.58 119.15L113.36 113.41L114.68 112.9C116.08 112.36 117.13 111.68 117.81 110.86C118.49 110.04 118.59 109.02 118.11 107.78C117.73 106.79 117.15 106.13 116.39 105.79C115.63 105.45 114.76 105.47 113.8 105.84C112.75 106.24 112.1 106.86 111.83 107.69C111.56 108.52 111.57 109.42 111.85 110.39L104.96 113.06C103.93 110.07 104.02 107.43 105.22 105.13L105.25 105.12Z" fill="#E4827A"/>
<path d="M92.41 80.7C93.39 80.63 94.39 80.82 95.41 81.27C96.63 81.81 97.59 82.6 98.31 83.66C99.02 84.71 99.41 85.94 99.48 87.34C99.55 88.74 99.24 90.2 98.57 91.72C97.9 93.24 97.02 94.45 95.94 95.35C94.85 96.25 93.68 96.8 92.42 96.99C91.15 97.18 89.91 97 88.7 96.47C87.66 96.01 86.84 95.4 86.25 94.64C85.66 93.88 85.29 93.06 85.16 92.18L84.25 94.24L79.73 92.24L88.39 72.67L92.91 74.67L89.86 81.57C90.59 81.07 91.44 80.78 92.42 80.71L92.41 80.7ZM94.21 86.6C93.87 85.68 93.24 85.02 92.32 84.61C91.42 84.21 90.51 84.2 89.6 84.58C88.69 84.96 87.98 85.71 87.48 86.84C86.98 87.97 86.9 89 87.24 89.93C87.58 90.86 88.2 91.52 89.09 91.92C89.99 92.32 90.9 92.33 91.83 91.95C92.76 91.57 93.47 90.82 93.97 89.69C94.47 88.56 94.55 87.54 94.21 86.62V86.6Z" fill="#8BC69B"/>
<path d="M94.41 82.7C95.39 82.63 96.39 82.82 97.41 83.27C98.63 83.81 99.59 84.6 100.31 85.66C101.02 86.71 101.41 87.94 101.48 89.34C101.55 90.74 101.24 92.2 100.57 93.72C99.9 95.24 99.02 96.45 97.94 97.35C96.85 98.25 95.68 98.8 94.42 98.99C93.15 99.18 91.91 99 90.7 98.47C89.66 98.01 88.84 97.4 88.25 96.64C87.66 95.88 87.29 95.06 87.16 94.18L86.25 96.24L81.73 94.24L90.39 74.67L94.91 76.67L91.86 83.57C92.59 83.07 93.44 82.78 94.42 82.71L94.41 82.7ZM96.21 88.6C95.87 87.68 95.24 87.02 94.32 86.61C93.42 86.21 92.51 86.2 91.6 86.58C90.69 86.96 89.98 87.71 89.48 88.84C88.98 89.97 88.9 91 89.24 91.93C89.58 92.86 90.2 93.52 91.09 93.92C91.99 94.32 92.9 94.33 93.83 93.95C94.76 93.57 95.47 92.82 95.97 91.69C96.47 90.56 96.55 89.54 96.21 88.62V88.6Z" fill="#9EE6B3"/>
<path d="M107.24 74.94L133.39 56.94L151.22 73.25L125.07 93.92L107.24 74.94Z" fill="#5A89CC"/>
<path d="M125.07 93.92L151.6 73.35L187 85.41L162.51 103.85L125.07 93.92Z" fill="#5A89CC"/>
<path d="M111.69 72.56C111.28 72.37 108.79 73.57 108.79 73.57C108.79 73.57 125.35 83.9 127.01 94.43C127.01 94.43 131.3 81.61 111.69 72.55V72.56Z" fill="#9E9EB7"/>
<path d="M109.79 72.06C109.79 72.06 129.78 80.63 127.92 94.38C126.05 108.14 127.76 94.98 127.76 94.98C127.76 94.98 132.85 76.39 111.9 70.84C111.35 70.69 109.79 72.06 109.79 72.06Z" fill="#B1B1D0"/>
<path d="M110.71 70.82C110.31 70.75 116.23 67.92 116.23 67.92C116.23 67.92 137.71 76.49 128.78 92.24L127.49 94.87C127.49 94.87 129.74 74.09 110.71 70.82Z" fill="#BCBED4"/>
<path d="M123.15 96.68C123.15 96.68 134.16 89.29 161.46 104.47L186.09 87.52C186.09 87.52 184.92 77.45 151.25 79.5L123.15 96.69V96.68Z" fill="#9E9EB7"/>
<path d="M124.16 97.28C124.16 97.28 134.42 86.37 161.57 101.82L183.73 85.68C183.73 85.68 182.66 75.59 148.97 77.32L124.16 97.29V97.28Z" fill="#B1B1D0"/>
<path d="M123.86 96.77C123.86 96.77 132.1 85.99 159.76 99.07C160.07 99.22 160.38 99.37 160.7 99.52L183.81 81.79C183.81 81.79 178.17 70.6 149.09 73.88L123.86 96.78V96.77Z" fill="#BCBED4"/>
<path d="M107.31 74.67L106.13 79.13L125.91 98.6L127.01 94.44L107.31 74.67Z" fill="#70A5FF"/>
<path d="M127.01 94.44L125.91 98.6L161.84 108.63L162.51 103.85L127.01 94.44Z" fill="#70A5FF"/>
<path d="M162.51 103.85L187 85.41L185.97 89.29L161.54 108.64L162.51 103.85Z" fill="#70A5FF"/>
<path d="M128.43 92.44L149.22 74.5C149.22 74.5 165.44 64.85 182.61 76.23C183.14 76.58 161.49 93.19 161.49 93.19C161.49 93.19 150.33 84.89 128.44 92.44H128.43Z" fill="#FCFCFC"/>
<path d="M128.43 92.44L151.6 73.35C151.6 73.35 149.96 57.18 136.91 53.72C136.36 53.57 136.43 53.59 136.43 53.59L112.63 68.06C112.63 68.06 129.88 69.07 128.43 92.44Z" fill="#F4F4F4"/>
</svg>
