<svg width="69" height="69" viewBox="0 0 69 69" fill="none" xmlns="http://www.w3.org/2000/svg">
<path d="M34.485 69C53.5305 69 68.97 54.1933 68.97 35.9283C68.97 17.6634 53.5305 2.85666 34.485 2.85666C15.4395 2.85666 0 17.6634 0 35.9283C0 54.1933 15.4395 69 34.485 69Z" fill="#E8E3E6"/>
<path d="M34.515 66.1434C53.5605 66.1434 69 51.3367 69 33.0717C69 14.8067 53.5605 0 34.515 0C15.4695 0 0.0299988 14.8067 0.0299988 33.0717C0.0299988 51.3367 15.4695 66.1434 34.515 66.1434Z" fill="#FFF8FC"/>
<path d="M53.9965 28.4992C48.4489 24.5881 42.9013 20.6674 37.3437 16.7563C36.734 16.1812 35.9643 15.8265 35.1047 15.8552C34.2551 15.8361 33.4854 16.1812 32.8757 16.7563C27.3281 20.6674 21.7705 24.5881 16.2229 28.4992C12.3746 31.212 16.113 37.4525 20.0113 34.7109C20.3811 34.4521 20.751 34.1932 21.1208 33.9344V44.0381C21.1208 47.4986 24.0395 50.2977 27.648 50.2977H31.6462C31.6362 50.1923 31.6162 50.0964 31.6162 49.991V43.9039C31.6162 42.6768 32.6558 41.6799 33.9352 41.6799H36.2842C37.5637 41.6799 38.6032 42.6768 38.6032 43.9039V49.991C38.6032 50.0964 38.5832 50.2019 38.5732 50.2977H42.5715C46.1799 50.2977 49.0986 47.4986 49.0986 44.0381V33.9344L50.2081 34.7109C54.0965 37.4525 57.8448 31.2216 53.9965 28.4992Z" fill="#EEC7A1"/>
</svg>
