<svg width="69" height="69" viewBox="0 0 69 69" fill="none" xmlns="http://www.w3.org/2000/svg">
<path d="M34.48 69C53.5228 69 68.96 54.1933 68.96 35.9283C68.96 17.6633 53.5228 2.85663 34.48 2.85663C15.4372 2.85663 0 17.6633 0 35.9283C0 54.1933 15.4372 69 34.48 69Z" fill="#D6B192"/>
<path d="M34.52 66.1434C53.5627 66.1434 69 51.3367 69 33.0717C69 14.8067 53.5627 0 34.52 0C15.4772 0 0.0399475 14.8067 0.0399475 33.0717C0.0399475 51.3367 15.4772 66.1434 34.52 66.1434Z" fill="#EEC7A1"/>
<path d="M53.9887 28.4992C48.4419 24.5881 42.8951 20.6674 37.3384 16.7563C36.7287 16.1812 35.9592 15.8265 35.0996 15.8552C34.2501 15.8361 33.4806 16.1812 32.8709 16.7563C27.3242 20.6674 21.7674 24.5881 16.2206 28.4992C12.3728 31.212 16.1107 37.4525 20.0084 34.7109C20.3782 34.4521 20.748 34.1932 21.1178 33.9344V44.0381C21.1178 47.4986 24.0361 50.2977 27.644 50.2977H31.6417C31.6317 50.1923 31.6117 50.0964 31.6117 49.991V43.9039C31.6117 42.6769 32.6511 41.6799 33.9303 41.6799H36.279C37.5582 41.6799 38.5976 42.6769 38.5976 43.9039V49.991C38.5976 50.0964 38.5776 50.2019 38.5676 50.2977H42.5653C46.1732 50.2977 49.0915 47.4986 49.0915 44.0381V33.9344L50.2009 34.7109C54.0886 37.4525 57.8365 31.2216 53.9887 28.4992Z" fill="white"/>
</svg>
