<svg width="69" height="69" viewBox="0 0 69 69" fill="none" xmlns="http://www.w3.org/2000/svg">
<g clip-path="url(#clip0_282_17)">
<path d="M34.485 69C53.5306 69 68.97 54.1933 68.97 35.9283C68.97 17.6633 53.5306 2.85663 34.485 2.85663C15.4395 2.85663 0 17.6633 0 35.9283C0 54.1933 15.4395 69 34.485 69Z" fill="#CE9DA4"/>
<path d="M34.515 66.1434C53.5606 66.1434 69 51.3367 69 33.0717C69 14.8067 53.5606 0 34.515 0C15.4695 0 0.0299988 14.8067 0.0299988 33.0717C0.0299988 51.3367 15.4695 66.1434 34.515 66.1434Z" fill="#E1A9AF"/>
<path d="M52.0074 29.6015H25.1391L28.5676 26.3136C31.8562 23.1598 26.7584 18.2613 23.4598 21.4151C20.3811 24.3676 17.3125 27.3105 14.2338 30.263C14.0139 30.4259 13.824 30.6272 13.6541 30.8381C13.0243 31.5379 12.7745 32.3144 12.8144 33.0621C12.7745 33.829 13.0343 34.6342 13.7041 35.3531C13.784 35.449 13.874 35.5257 13.9639 35.612C17.1326 38.6507 20.3012 41.6895 23.4698 44.7283C26.7584 47.882 31.8662 42.9932 28.5776 39.8298L25.1291 36.5226H52.0174C56.6654 36.5226 56.6654 29.6015 52.0174 29.6015H52.0074Z" fill="white"/>
</g>
<defs>
<clipPath id="clip0_282_17">
<rect width="69" height="69" fill="white"/>
</clipPath>
</defs>
</svg>
