<svg width="65" height="69" viewBox="0 0 65 69" fill="none" xmlns="http://www.w3.org/2000/svg">
<path d="M32.5 65.5C50.4493 65.5 65 50.9493 65 33C65 15.0507 50.4493 0.5 32.5 0.5C14.5507 0.5 0 15.0507 0 33C0 50.9493 14.5507 65.5 32.5 65.5Z" fill="#E8FFE6"/>
<path d="M32.5 68.5C50.4493 68.5 65 53.9493 65 36C65 18.0507 50.4493 3.5 32.5 3.5C14.5507 3.5 0 18.0507 0 36C0 53.9493 14.5507 68.5 32.5 68.5Z" fill="#C0F2C3"/>
<path opacity="0.09" d="M1 44.5C1 44.5 3.90001 63.5 33.95 63.5C64 63.5 63.71 44.5 63.71 44.5C63.71 44.5 59.26 68.46 34.13 68.46C7.00001 68.46 1 44.5 1 44.5Z" fill="#1A1515"/>
<path d="M32.37 52.73C38.1 52.73 42.74 48.09 42.74 42.36C42.74 36.63 38.1 31.99 32.37 31.99C26.64 31.99 22 36.63 22 42.36C22 48.09 26.65 52.73 32.37 52.73ZM32.37 33.36C37.34 33.36 41.36 37.39 41.36 42.35C41.36 47.31 37.33 51.34 32.37 51.34C27.41 51.34 23.38 47.31 23.38 42.35C23.38 37.39 27.41 33.36 32.37 33.36Z" fill="#92B793"/>
<path d="M11.71 39.59C11.71 40.74 12.64 41.66 13.78 41.66H17.24V51.7L14.04 54.26C13.74 54.5 13.69 54.93 13.93 55.23C14.17 55.53 14.6 55.58 14.9 55.34L17.93 52.92L20.96 55.34C21.26 55.58 21.69 55.53 21.93 55.23C22.17 54.93 22.12 54.5 21.82 54.26L18.62 51.7V41.66H18.66C18.65 41.89 18.62 42.12 18.62 42.35C18.62 46.31 20.41 50.06 23.5 52.55C23.48 52.61 23.47 52.66 23.47 52.72V54.79C23.47 55.17 23.78 55.48 24.16 55.48C24.54 55.48 24.85 55.17 24.85 54.79V53.49C29.08 56.14 34.45 56.14 38.68 53.49V54.79C38.68 55.17 38.99 55.48 39.37 55.48C39.75 55.48 40.06 55.17 40.06 54.79V52.72C40.06 52.66 40.04 52.6 40.03 52.55C43.11 50.06 44.91 46.31 44.91 42.35C44.91 42.12 44.89 41.89 44.87 41.66H44.91V51.7L41.71 54.26C41.41 54.5 41.36 54.93 41.6 55.23C41.84 55.53 42.27 55.58 42.57 55.34L45.6 52.92L48.63 55.34C48.93 55.58 49.36 55.53 49.6 55.24C49.84 54.94 49.79 54.51 49.5 54.27L46.3 51.71V41.67H49.76C50.91 41.67 51.83 40.74 51.83 39.6V35.6C52.27 35.21 52.52 34.65 52.52 34.06V30.6C52.52 29.45 51.59 28.53 50.45 28.53H46.3V20.23H51.83C52.21 20.23 52.52 19.92 52.52 19.54C52.52 17.63 50.97 16.08 49.06 16.08H46.29V14.7C46.29 14.32 45.98 14.01 45.6 14.01C45.22 14.01 44.91 14.32 44.91 14.7V16.08H42.14C40.23 16.08 38.68 17.63 38.68 19.54C38.68 19.92 38.99 20.23 39.37 20.23H44.9V28.53H40.75C39.6 28.53 38.68 29.46 38.68 30.6V31.21C36.8 30.04 34.66 29.37 32.46 29.26V26.46H38.68C39.06 26.46 39.37 26.15 39.37 25.77C39.37 23.86 37.82 22.31 35.91 22.31H32.45V20.93C32.45 20.55 32.14 20.24 31.76 20.24C31.38 20.24 31.07 20.55 31.07 20.93V22.31H27.61C25.7 22.31 24.15 23.86 24.15 25.77C24.15 26.15 24.46 26.46 24.84 26.46H31.06V29.26C28.85 29.37 26.71 30.05 24.84 31.21V30.6C24.84 29.45 23.91 28.53 22.77 28.53H18.62V20.23H24.15C24.53 20.23 24.84 19.92 24.84 19.54C24.84 17.63 23.29 16.08 21.38 16.08H18.61V14.7C18.61 14.32 18.3 14.01 17.92 14.01C17.54 14.01 17.23 14.32 17.23 14.7V16.08H14.46C12.55 16.08 11 17.63 11 19.54C11 19.92 11.31 20.23 11.69 20.23H17.22V28.53H13.07C11.92 28.53 11 29.46 11 30.6V34.06C11 34.65 11.25 35.21 11.69 35.6V39.6L11.71 39.59ZM13.79 40.28C13.41 40.28 13.1 39.97 13.1 39.59V36.13H20.2C19.51 37.42 19.04 38.83 18.81 40.28H13.79ZM15.86 34.75V32.68H20.01V34.75H15.86ZM50.44 39.59C50.44 39.97 50.13 40.28 49.75 40.28H44.73C44.5 38.83 44.03 37.43 43.34 36.13H50.44V39.59ZM43.53 34.75V32.68H47.68V34.75H43.53ZM51.13 34.06C51.13 34.44 50.82 34.75 50.44 34.75H49.06V32.68H51.13V34.06ZM40.19 18.84C40.48 18.01 41.27 17.46 42.15 17.46H49.07C49.95 17.46 50.73 18.01 51.03 18.84H40.2H40.19ZM40.07 30.6C40.07 30.22 40.38 29.91 40.76 29.91H50.44C50.82 29.91 51.13 30.22 51.13 30.6V31.29H40.06V30.6H40.07ZM42.14 32.67V34.32C41.68 33.73 41.17 33.18 40.62 32.67H42.14ZM25.66 25.07C25.95 24.24 26.74 23.69 27.62 23.69H35.92C36.8 23.69 37.58 24.24 37.88 25.07H25.67H25.66ZM31.77 30.6C38.26 30.6 43.53 35.86 43.53 42.36C43.53 48.86 38.27 54.12 31.77 54.12C25.27 54.12 20.01 48.86 20.01 42.36C20.01 35.87 25.28 30.61 31.77 30.6ZM21.39 34.32V32.67H22.91C22.36 33.17 21.85 33.73 21.39 34.32ZM12.52 18.84C12.81 18.01 13.6 17.46 14.48 17.46H21.4C22.28 17.46 23.06 18.01 23.36 18.84H12.53H12.52ZM12.4 30.6C12.4 30.22 12.71 29.91 13.09 29.91H22.77C23.15 29.91 23.46 30.22 23.46 30.6V31.29H12.39V30.6H12.4ZM12.4 32.67H14.47V34.74H13.09C12.71 34.74 12.4 34.43 12.4 34.05V32.67Z" fill="#92B793"/>
</svg>
