<svg width="65" height="66" viewBox="0 0 65 66" fill="none" xmlns="http://www.w3.org/2000/svg">
<path d="M32.5 65C50.4493 65 65 50.4493 65 32.5C65 14.5507 50.4493 0 32.5 0C14.5507 0 0 14.5507 0 32.5C0 50.4493 14.5507 65 32.5 65Z" fill="#F9F9F9"/>
<path d="M32.5 65C50.4493 65 65 50.4493 65 32.5C65 14.5507 50.4493 0 32.5 0C14.5507 0 0 14.5507 0 32.5C0 50.4493 14.5507 65 32.5 65Z" fill="#F9F9F9"/>
<path opacity="0.19" d="M63.71 25.96C63.71 25.96 60.81 1.96 30.76 1.96C0.710011 1.96 0 24.96 0 24.96C0 24.96 5.45002 0 30.58 0C57.71 0 63.71 25.96 63.71 25.96Z" fill="black"/>
<path d="M1 40.52C1 40.52 4.97997 63.52 34 63.52C60 63.52 63.7 41.73 63.61 41.73C63.61 41.73 59.16 65.69 34.03 65.69C6.9 65.69 1 40.52 1 40.52Z" fill="#46537F"/>
<path d="M32.37 50.73C38.1 50.73 42.74 46.09 42.74 40.36C42.74 34.63 38.1 29.99 32.37 29.99C26.64 29.99 22 34.63 22 40.36C22 46.09 26.65 50.73 32.37 50.73ZM32.37 31.36C37.34 31.36 41.36 35.39 41.36 40.35C41.36 45.31 37.33 49.34 32.37 49.34C27.41 49.34 23.38 45.31 23.38 40.35C23.38 35.39 27.41 31.36 32.37 31.36Z" fill="#92B793"/>
<path d="M11.71 37.59C11.71 38.74 12.64 39.66 13.78 39.66H17.24V49.7L14.04 52.26C13.74 52.5 13.69 52.93 13.93 53.23C14.17 53.53 14.6 53.58 14.9 53.34L17.93 50.92L20.96 53.34C21.26 53.58 21.69 53.53 21.93 53.23C22.17 52.93 22.12 52.5 21.82 52.26L18.62 49.7V39.66H18.66C18.65 39.89 18.62 40.12 18.62 40.35C18.62 44.31 20.41 48.06 23.5 50.55C23.48 50.61 23.47 50.66 23.47 50.72V52.79C23.47 53.17 23.78 53.48 24.16 53.48C24.54 53.48 24.85 53.17 24.85 52.79V51.49C29.08 54.14 34.45 54.14 38.68 51.49V52.79C38.68 53.17 38.99 53.48 39.37 53.48C39.75 53.48 40.06 53.17 40.06 52.79V50.72C40.06 50.66 40.04 50.6 40.03 50.55C43.11 48.06 44.91 44.31 44.91 40.35C44.91 40.12 44.89 39.89 44.87 39.66H44.91V49.7L41.71 52.26C41.41 52.5 41.36 52.93 41.6 53.23C41.84 53.53 42.27 53.58 42.57 53.34L45.6 50.92L48.63 53.34C48.93 53.58 49.36 53.53 49.6 53.24C49.84 52.94 49.79 52.51 49.5 52.27L46.3 49.71V39.67H49.76C50.91 39.67 51.83 38.74 51.83 37.6V33.6C52.27 33.21 52.52 32.65 52.52 32.06V28.6C52.52 27.45 51.59 26.53 50.45 26.53H46.3V18.23H51.83C52.21 18.23 52.52 17.92 52.52 17.54C52.52 15.63 50.97 14.08 49.06 14.08H46.29V12.7C46.29 12.32 45.98 12.01 45.6 12.01C45.22 12.01 44.91 12.32 44.91 12.7V14.08H42.14C40.23 14.08 38.68 15.63 38.68 17.54C38.68 17.92 38.99 18.23 39.37 18.23H44.9V26.53H40.75C39.6 26.53 38.68 27.46 38.68 28.6V29.21C36.8 28.04 34.66 27.37 32.46 27.26V24.46H38.68C39.06 24.46 39.37 24.15 39.37 23.77C39.37 21.86 37.82 20.31 35.91 20.31H32.45V18.93C32.45 18.55 32.14 18.24 31.76 18.24C31.38 18.24 31.07 18.55 31.07 18.93V20.31H27.61C25.7 20.31 24.15 21.86 24.15 23.77C24.15 24.15 24.46 24.46 24.84 24.46H31.06V27.26C28.85 27.37 26.71 28.05 24.84 29.21V28.6C24.84 27.45 23.91 26.53 22.77 26.53H18.62V18.23H24.15C24.53 18.23 24.84 17.92 24.84 17.54C24.84 15.63 23.29 14.08 21.38 14.08H18.61V12.7C18.61 12.32 18.3 12.01 17.92 12.01C17.54 12.01 17.23 12.32 17.23 12.7V14.08H14.46C12.55 14.08 11 15.63 11 17.54C11 17.92 11.31 18.23 11.69 18.23H17.22V26.53H13.07C11.92 26.53 11 27.46 11 28.6V32.06C11 32.65 11.25 33.21 11.69 33.6V37.6L11.71 37.59ZM13.79 38.28C13.41 38.28 13.1 37.97 13.1 37.59V34.13H20.2C19.51 35.42 19.04 36.83 18.81 38.28H13.79ZM15.86 32.75V30.68H20.01V32.75H15.86ZM50.44 37.59C50.44 37.97 50.13 38.28 49.75 38.28H44.73C44.5 36.83 44.03 35.43 43.34 34.13H50.44V37.59ZM43.53 32.75V30.68H47.68V32.75H43.53ZM51.13 32.06C51.13 32.44 50.82 32.75 50.44 32.75H49.06V30.68H51.13V32.06ZM40.19 16.84C40.48 16.01 41.27 15.46 42.15 15.46H49.07C49.95 15.46 50.73 16.01 51.03 16.84H40.2H40.19ZM40.07 28.6C40.07 28.22 40.38 27.91 40.76 27.91H50.44C50.82 27.91 51.13 28.22 51.13 28.6V29.29H40.06V28.6H40.07ZM42.14 30.67V32.32C41.68 31.73 41.17 31.18 40.62 30.67H42.14ZM25.66 23.07C25.95 22.24 26.74 21.69 27.62 21.69H35.92C36.8 21.69 37.58 22.24 37.88 23.07H25.67H25.66ZM31.77 28.6C38.26 28.6 43.53 33.86 43.53 40.36C43.53 46.86 38.27 52.12 31.77 52.12C25.27 52.12 20.01 46.86 20.01 40.36C20.01 33.87 25.28 28.61 31.77 28.6ZM21.39 32.32V30.67H22.91C22.36 31.17 21.85 31.73 21.39 32.32ZM12.52 16.84C12.81 16.01 13.6 15.46 14.48 15.46H21.4C22.28 15.46 23.06 16.01 23.36 16.84H12.53H12.52ZM12.4 28.6C12.4 28.22 12.71 27.91 13.09 27.91H22.77C23.15 27.91 23.46 28.22 23.46 28.6V29.29H12.39V28.6H12.4ZM12.4 30.67H14.47V32.74H13.09C12.71 32.74 12.4 32.43 12.4 32.05V30.67Z" fill="#92B793"/>
</svg>
