<svg width="66" height="66" viewBox="0 0 66 66" fill="none" xmlns="http://www.w3.org/2000/svg">
<path d="M33.02 65C50.9693 65 65.52 50.4493 65.52 32.5C65.52 14.5507 50.9693 0 33.02 0C15.0708 0 0.52002 14.5507 0.52002 32.5C0.52002 50.4493 15.0708 65 33.02 65Z" fill="#F9F9F9"/>
<path d="M33.02 65C50.9693 65 65.52 50.4493 65.52 32.5C65.52 14.5507 50.9693 0 33.02 0C15.0708 0 0.52002 14.5507 0.52002 32.5C0.52002 50.4493 15.0708 65 33.02 65Z" fill="#F9F9F9"/>
<path opacity="0.19" d="M65.23 25.96C65.23 25.96 62.33 1.96 32.28 1.96C2.23001 1.96 1.52002 24.96 1.52002 24.96C1.52002 24.96 6.97002 0 32.1 0C59.23 0 65.23 25.96 65.23 25.96Z" fill="black"/>
<path d="M1.44995 40.52C1.44995 40.52 5.42995 63.52 34.45 63.52C60.45 63.52 64.15 41.73 64.06 41.73C64.06 41.73 59.6099 65.69 34.4799 65.69C7.34995 65.69 1.44995 40.52 1.44995 40.52Z" fill="#46537F"/>
<path d="M24.88 21.24H16.56C16.25 21.24 15.99 20.99 15.99 20.67V15.67C15.99 14.31 17.09 13.21 18.45 13.21H22.98C24.34 13.21 25.44 14.31 25.44 15.67V20.67C25.44 20.98 25.19 21.24 24.87 21.24H24.88ZM17.13 20.11H24.32V15.67C24.32 14.94 23.72 14.34 22.99 14.34H18.46C17.73 14.34 17.13 14.93 17.13 15.67V20.11Z" fill="#92B793"/>
<path d="M20.72 50.21C18.11 50.21 16 48.96 16 47.42V25.74C16 25.56 16.25 25.41 16.57 25.41H24.89C25.2 25.41 25.46 25.56 25.46 25.74V47.32C25.49 48.85 23.47 50.13 20.88 50.21C20.83 50.21 20.78 50.21 20.73 50.21H20.72ZM17.13 26.08V47.42C17.13 48.59 18.74 49.54 20.73 49.54C20.77 49.54 20.8 49.54 20.84 49.54C22.82 49.47 24.36 48.49 24.32 47.32V26.08H17.13Z" fill="#92B793"/>
<path d="M33.19 21.24H24.87C24.56 21.24 24.3 20.99 24.3 20.67V15.67C24.3 14.31 25.4 13.21 26.76 13.21H31.29C32.65 13.21 33.75 14.31 33.75 15.67V20.67C33.75 20.98 33.5 21.24 33.18 21.24H33.19ZM25.44 20.11H32.6301V15.67C32.6301 14.94 32.03 14.34 31.3 14.34H26.7701C26.0401 14.34 25.44 14.93 25.44 15.67V20.11Z" fill="#92B793"/>
<path d="M29.0401 47.34C26.4301 47.34 24.3201 46.09 24.3201 44.55V25.74C24.3201 25.56 24.5701 25.41 24.8901 25.41H33.2101C33.5201 25.41 33.7801 25.56 33.7801 25.74V44.45C33.8101 45.98 31.7901 47.26 29.2001 47.34H29.0501H29.0401ZM25.4401 26.08V44.56C25.4401 45.73 27.0501 46.68 29.0401 46.68C29.0801 46.68 29.1101 46.68 29.1501 46.68C31.1301 46.61 32.6601 45.63 32.6301 44.46V26.09H25.4401V26.08Z" fill="#92B793"/>
<path d="M41.51 21.24H33.19C32.88 21.24 32.62 20.99 32.62 20.67V15.67C32.62 14.31 33.72 13.21 35.08 13.21H39.61C40.97 13.21 42.07 14.31 42.07 15.67V20.67C42.07 20.98 41.82 21.23 41.51 21.24ZM33.76 20.11H40.95V15.67C40.95 14.94 40.35 14.34 39.62 14.34H35.09C34.36 14.34 33.76 14.93 33.76 15.67V20.11Z" fill="#92B793"/>
<path d="M37.35 44.47C34.74 44.47 32.63 43.22 32.63 41.68V25.74C32.63 25.56 32.88 25.41 33.2 25.41H41.52C41.83 25.41 42.09 25.56 42.09 25.74V41.58C42.12 43.11 40.1 44.39 37.51 44.47C37.46 44.47 37.41 44.47 37.37 44.47H37.35ZM33.76 26.08V41.69C33.76 42.26 34.15 42.81 34.85 43.21C35.55 43.61 36.49 43.83 37.47 43.81C39.45 43.74 40.99 42.76 40.95 41.59V26.08H33.76Z" fill="#92B793"/>
<path d="M49.8299 21.24H41.5099C41.1999 21.24 40.9399 20.99 40.9399 20.67V15.67C40.9399 14.31 42.0399 13.21 43.3999 13.21H47.9299C49.2899 13.21 50.3899 14.31 50.3899 15.67V20.67C50.3899 20.98 50.1399 21.23 49.8299 21.24ZM42.0799 20.11H49.2699V15.67C49.2699 14.94 48.6699 14.34 47.9399 14.34H43.4099C42.6799 14.34 42.0799 14.93 42.0799 15.67V20.11Z" fill="#92B793"/>
<path d="M45.67 41.6C43.06 41.6 40.95 40.35 40.95 38.81V25.74C40.95 25.56 41.2 25.41 41.52 25.41H49.84C50.15 25.41 50.41 25.56 50.41 25.74V38.71C50.44 40.24 48.42 41.52 45.83 41.6C45.78 41.6 45.7299 41.6 45.6799 41.6H45.67ZM42.08 26.08V38.82C42.08 39.99 43.69 40.94 45.67 40.94C45.71 40.94 45.74 40.94 45.78 40.94C47.76 40.87 49.2999 39.89 49.2599 38.72V26.09H42.07L42.08 26.08Z" fill="#92B793"/>
<path d="M50.39 26.54H15.84C14.56 26.61 13.47 25.23 13.42 23.46C13.37 21.68 14.36 20.18 15.65 20.11C15.71 20.11 15.78 20.11 15.84 20.11H50.39C51.67 20.18 52.67 21.69 52.62 23.46C52.57 25.13 51.6 26.47 50.39 26.54ZM15.84 21.24C15.44 21.24 15.05 21.46 14.77 21.85C14.18 22.67 14.19 24 14.78 24.81C15.06 25.2 15.44 25.41 15.84 25.41H50.39C51.22 25.35 51.86 24.37 51.82 23.21C51.78 22.14 51.16 21.29 50.39 21.23H15.84V21.24Z" fill="#92B793"/>
<path d="M21.78 23.89H20.18C19.87 23.89 19.61 23.64 19.61 23.32C19.61 23 19.86 22.75 20.18 22.75H21.78C22.09 22.75 22.35 23 22.35 23.32C22.35 23.64 22.1 23.89 21.78 23.89Z" fill="#92B793"/>
<path d="M29.84 23.89H28.2401C27.9301 23.89 27.67 23.64 27.67 23.32C27.67 23 27.9201 22.75 28.2401 22.75H29.84C30.15 22.75 30.41 23 30.41 23.32C30.41 23.64 30.16 23.89 29.84 23.89Z" fill="#92B793"/>
<path d="M38.16 23.89H36.56C36.25 23.89 35.99 23.64 35.99 23.32C35.99 23 36.24 22.75 36.56 22.75H38.16C38.47 22.75 38.73 23 38.73 23.32C38.73 23.64 38.48 23.89 38.16 23.89Z" fill="#92B793"/>
<path d="M46.47 23.89H44.87C44.56 23.89 44.3 23.64 44.3 23.32C44.3 23 44.55 22.75 44.87 22.75H46.47C46.78 22.75 47.04 23 47.04 23.32C47.04 23.64 46.79 23.89 46.47 23.89Z" fill="#92B793"/>
</svg>
