<svg width="66" height="66" viewBox="0 0 66 66" fill="none" xmlns="http://www.w3.org/2000/svg">
<path d="M33.4399 65C51.3892 65 65.9399 50.4493 65.9399 32.5C65.9399 14.5507 51.3892 0 33.4399 0C15.4907 0 0.939941 14.5507 0.939941 32.5C0.939941 50.4493 15.4907 65 33.4399 65Z" fill="#F9F9F9"/>
<path d="M33.4399 65C51.3892 65 65.9399 50.4493 65.9399 32.5C65.9399 14.5507 51.3892 0 33.4399 0C15.4907 0 0.939941 14.5507 0.939941 32.5C0.939941 50.4493 15.4907 65 33.4399 65Z" fill="#F9F9F9"/>
<path opacity="0.19" d="M65.6499 25.96C65.6499 25.96 62.75 1.96 32.7 1.96C2.64995 1.96 1.93994 24.96 1.93994 24.96C1.93994 24.96 7.38993 0 32.5199 0C59.6499 0 65.6499 25.96 65.6499 25.96Z" fill="black"/>
<path d="M1.87 40.52C1.87 40.52 5.84999 63.52 34.87 63.52C60.87 63.52 64.57 41.73 64.48 41.73C64.48 41.73 60.03 65.69 34.9 65.69C7.76999 65.69 1.87 40.52 1.87 40.52Z" fill="#46537F"/>
<path d="M50.85 15.52C50.85 15.52 50.84 15.52 50.83 15.51C50.83 15.5 47.54 12.22 47.53 12.21C47.25 11.93 46.81 11.93 46.53 12.21L44.46 14.28C42.3 14.97 40.61 16.66 39.92 18.82L37.5 21.24C35.57 21.63 35.91 21.42 35.5 23.3L20.93 37.87C19.01 38.28 19.26 37.98 18.87 39.91L15.57 42.71C14.52 42.19 13.26 42.63 12.74 43.67C12.6 43.95 12.53 44.27 12.52 44.58C12.52 45.14 12.74 45.68 13.14 46.07L20.3 53.23C21.98 54.9 24.73 52.92 23.66 50.8L26.46 47.5C28.4 47.1 28.09 47.35 28.5 45.44L43.07 30.87C45.02 30.46 44.73 30.74 45.14 28.8L47.51 26.43C49.67 25.74 51.36 24.05 52.05 21.89L54.12 19.82C54.39 19.54 54.39 19.1 54.12 18.82L50.83 15.53L50.85 15.52ZM22.3 52.23C22.03 52.5 21.59 52.5 21.31 52.23L14.15 45.06C13.88 44.79 13.88 44.35 14.15 44.07C14.43 43.81 14.86 43.81 15.14 44.07L22.3 51.24C22.57 51.51 22.57 51.95 22.3 52.23ZM22.75 49.7L16.67 43.62L19.49 41.23L25.14 46.88L22.75 49.7ZM26.97 45.95L26.33 46.08L20.3 40.05L20.43 39.41L21.07 39.28L27.1 45.31L26.97 45.95ZM27.87 44.08L22.29 38.5L36.16 24.63L41.74 30.21L27.87 44.08ZM43.61 29.31L42.97 29.44L36.94 23.41L37.07 22.77L37.71 22.64L43.74 28.67L43.61 29.31ZM50.95 21C50.87 21.08 50.8 21.19 50.77 21.3C50.25 23.1 48.87 24.51 47.08 25.07C46.92 25.1 46.77 25.18 46.65 25.29L44.51 27.43L38.91 21.83L41.06 19.69C41.17 19.57 41.25 19.42 41.28 19.26C41.84 17.48 43.26 16.09 45.05 15.57C45.16 15.54 45.27 15.48 45.35 15.39L47.04 13.7C47.04 13.7 49.82 16.49 49.85 16.5C49.85 16.52 52.64 19.29 52.65 19.31L50.96 21H50.95Z" fill="#9AC19B"/>
<path d="M46.46 17.49C46.18 17.21 45.74 17.21 45.46 17.49L43.7601 19.19C42.8201 20.14 42.8201 21.66 43.7601 22.6C44.7001 23.54 46.2301 23.54 47.1701 22.6L48.87 20.9C49.15 20.62 49.15 20.18 48.87 19.9L46.4501 17.48L46.46 17.49ZM46.18 21.62C45.77 22.01 45.13 21.99 44.75 21.59C44.58 21.41 44.48 21.17 44.47 20.91C44.47 20.64 44.5701 20.39 44.7601 20.2L45.97 18.99L47.3901 20.41L46.18 21.62Z" fill="#9AC19B"/>
<path d="M33.8201 30.14C33.9001 33.32 38.5601 33.32 38.6401 30.14C38.5601 26.96 33.9001 26.96 33.8201 30.14ZM35.5201 29.44C35.9201 29.06 36.5601 29.08 36.9401 29.48C37.3001 29.87 37.3001 30.47 36.9401 30.85C36.5401 31.23 35.9001 31.21 35.5201 30.81C35.1601 30.42 35.1601 29.82 35.5201 29.44Z" fill="#9AC19B"/>
<path d="M30.31 32.65C28.13 34.97 31.39 38.24 33.72 36.06C35.9 33.74 32.64 30.47 30.31 32.65ZM32.73 35.06C32.33 35.44 31.69 35.42 31.31 35.02C30.94 34.63 30.94 34.03 31.31 33.64C31.71 33.26 32.35 33.28 32.73 33.68C33.1 34.07 33.1 34.67 32.73 35.06Z" fill="#9AC19B"/>
<path d="M26.1 36.86C23.91 39.17 27.2001 42.46 29.5101 40.27C31.7001 37.96 28.41 34.67 26.1 36.86ZM28.52 39.27C28.13 39.66 27.49 39.65 27.1 39.26C26.72 38.87 26.72 38.25 27.1 37.86C27.49 37.47 28.13 37.48 28.52 37.87C28.9 38.26 28.9 38.88 28.52 39.27Z" fill="#9AC19B"/>
</svg>
