<svg width="66" height="69" viewBox="0 0 66 69" fill="none" xmlns="http://www.w3.org/2000/svg">
<path d="M33.4399 65.5C51.3892 65.5 65.9399 50.9493 65.9399 33C65.9399 15.0507 51.3892 0.5 33.4399 0.5C15.4907 0.5 0.939941 15.0507 0.939941 33C0.939941 50.9493 15.4907 65.5 33.4399 65.5Z" fill="#E8FFE6"/>
<path d="M33.4399 68.5C51.3892 68.5 65.9399 53.9493 65.9399 36C65.9399 18.0507 51.3892 3.5 33.4399 3.5C15.4907 3.5 0.939941 18.0507 0.939941 36C0.939941 53.9493 15.4907 68.5 33.4399 68.5Z" fill="#C0F2C3"/>
<path opacity="0.09" d="M1.93994 44.5C1.93994 44.5 4.83995 63.5 34.89 63.5C64.94 63.5 64.6499 44.5 64.6499 44.5C64.6499 44.5 60.1999 68.46 35.0699 68.46C7.93995 68.46 1.93994 44.5 1.93994 44.5Z" fill="#1A1515"/>
<path d="M50.85 17.52C50.85 17.52 50.84 17.52 50.83 17.51C50.83 17.5 47.54 14.22 47.53 14.21C47.25 13.93 46.81 13.93 46.53 14.21L44.46 16.28C42.3 16.97 40.61 18.66 39.92 20.82L37.5 23.24C35.57 23.63 35.91 23.42 35.5 25.3L20.93 39.87C19.01 40.28 19.26 39.98 18.87 41.91L15.57 44.71C14.52 44.19 13.26 44.63 12.74 45.67C12.6 45.95 12.53 46.27 12.52 46.58C12.52 47.14 12.74 47.68 13.14 48.07L20.3 55.23C21.98 56.9 24.73 54.92 23.66 52.8L26.46 49.5C28.4 49.1 28.09 49.35 28.5 47.44L43.07 32.87C45.02 32.46 44.73 32.74 45.14 30.8L47.51 28.43C49.67 27.74 51.36 26.05 52.05 23.89L54.12 21.82C54.39 21.54 54.39 21.1 54.12 20.82L50.83 17.53L50.85 17.52ZM22.3 54.23C22.03 54.5 21.59 54.5 21.31 54.23L14.15 47.06C13.88 46.79 13.88 46.35 14.15 46.07C14.43 45.81 14.86 45.81 15.14 46.07L22.3 53.24C22.57 53.51 22.57 53.95 22.3 54.23ZM22.75 51.7L16.67 45.62L19.49 43.23L25.14 48.88L22.75 51.7ZM26.97 47.95L26.33 48.08L20.3 42.05L20.43 41.41L21.07 41.28L27.1 47.31L26.97 47.95ZM27.87 46.08L22.29 40.5L36.16 26.63L41.74 32.21L27.87 46.08ZM43.61 31.31L42.97 31.44L36.94 25.41L37.07 24.77L37.71 24.64L43.74 30.67L43.61 31.31ZM50.95 23C50.87 23.08 50.8 23.19 50.77 23.3C50.25 25.1 48.87 26.51 47.08 27.07C46.92 27.1 46.77 27.18 46.65 27.29L44.51 29.43L38.91 23.83L41.06 21.69C41.17 21.57 41.25 21.42 41.28 21.26C41.84 19.48 43.26 18.09 45.05 17.57C45.16 17.54 45.27 17.48 45.35 17.39L47.04 15.7C47.04 15.7 49.82 18.49 49.85 18.5C49.85 18.52 52.64 21.29 52.65 21.31L50.96 23H50.95Z" fill="#9AC19B"/>
<path d="M46.46 19.49C46.18 19.21 45.74 19.21 45.46 19.49L43.7601 21.19C42.8201 22.14 42.8201 23.66 43.7601 24.6C44.7001 25.54 46.2301 25.54 47.1701 24.6L48.87 22.9C49.15 22.62 49.15 22.18 48.87 21.9L46.4501 19.48L46.46 19.49ZM46.18 23.62C45.77 24.01 45.13 23.99 44.75 23.59C44.58 23.41 44.48 23.17 44.47 22.91C44.47 22.64 44.5701 22.39 44.7601 22.2L45.97 20.99L47.3901 22.41L46.18 23.62Z" fill="#9AC19B"/>
<path d="M33.8201 32.14C33.9001 35.32 38.5601 35.32 38.6401 32.14C38.5601 28.96 33.9001 28.96 33.8201 32.14ZM35.5201 31.44C35.9201 31.06 36.5601 31.08 36.9401 31.48C37.3001 31.87 37.3001 32.47 36.9401 32.85C36.5401 33.23 35.9001 33.21 35.5201 32.81C35.1601 32.42 35.1601 31.82 35.5201 31.44Z" fill="#9AC19B"/>
<path d="M30.31 34.65C28.13 36.97 31.39 40.24 33.72 38.06C35.9 35.74 32.64 32.47 30.31 34.65ZM32.73 37.06C32.33 37.44 31.69 37.42 31.31 37.02C30.94 36.63 30.94 36.03 31.31 35.64C31.71 35.26 32.35 35.28 32.73 35.68C33.1 36.07 33.1 36.67 32.73 37.06Z" fill="#9AC19B"/>
<path d="M26.1 38.86C23.91 41.17 27.2001 44.46 29.5101 42.27C31.7001 39.96 28.41 36.67 26.1 38.86ZM28.52 41.27C28.13 41.66 27.49 41.65 27.1 41.26C26.72 40.87 26.72 40.25 27.1 39.86C27.49 39.47 28.13 39.48 28.52 39.87C28.9 40.26 28.9 40.88 28.52 41.27Z" fill="#9AC19B"/>
</svg>
