<svg width="66" height="66" viewBox="0 0 66 66" fill="none" xmlns="http://www.w3.org/2000/svg">
<path d="M33.01 65C50.9593 65 65.51 50.4493 65.51 32.5C65.51 14.5507 50.9593 0 33.01 0C15.0608 0 0.51001 14.5507 0.51001 32.5C0.51001 50.4493 15.0608 65 33.01 65Z" fill="#F9F9F9"/>
<path d="M33.01 65C50.9593 65 65.51 50.4493 65.51 32.5C65.51 14.5507 50.9593 0 33.01 0C15.0608 0 0.51001 14.5507 0.51001 32.5C0.51001 50.4493 15.0608 65 33.01 65Z" fill="#F9F9F9"/>
<path opacity="0.19" d="M65.22 25.96C65.22 25.96 62.32 1.96 32.27 1.96C2.21999 1.96 1.51001 24.96 1.51001 24.96C1.51001 24.96 6.96 0 32.09 0C59.22 0 65.22 25.96 65.22 25.96Z" fill="black"/>
<path d="M1.43994 40.52C1.43994 40.52 5.41994 63.52 34.4399 63.52C60.4399 63.52 64.1399 41.73 64.0499 41.73C64.0499 41.73 59.5999 65.69 34.4699 65.69C7.33994 65.69 1.43994 40.52 1.43994 40.52Z" fill="#46537F"/>
<path d="M48.05 12.6C44.81 12.6 42.6 16.49 42.11 19.76H23.92C23.43 16.46 21.63 14.1 20.17 13.25C17.45 11.52 13.88 13.48 13.88 16.71C13.88 19.55 16.72 21.54 19.38 20.56C19.88 21.09 21.03 22.79 19.41 26.23C15.78 34 18.18 40.47 23.18 43.82C22.19 44.72 20.27 46.86 19.62 50.32C19.56 50.64 19.81 50.94 20.13 50.94C46.24 50.94 46.01 51.04 46.26 50.75C46.36 50.63 46.4 50.47 46.37 50.32C45.73 46.86 43.8 44.72 42.81 43.82C47.8 40.47 50.23 34.04 46.58 26.23C44.97 22.78 46.12 21.08 46.61 20.56C49.26 21.54 52.11 19.56 52.11 16.71C52.11 14.45 50.27 12.61 48.01 12.61H48.02L48.05 12.6ZM48.05 19.76C46.89 19.76 46.66 19.17 46.21 19.54C45.87 19.8 43.44 21.89 45.67 26.67C49.95 35.84 45.48 43.67 36.39 45.15C23.81 47.17 14.88 38.41 20.37 26.67C22.58 21.95 20.22 19.85 19.84 19.55C19.4 19.15 19.15 19.76 17.99 19.76C16.31 19.76 14.94 18.39 14.94 16.7C14.94 14.44 17.41 12.74 19.71 14.18C21.45 15.34 23.1 18.21 23.02 22.19C23 23.68 22.75 25.41 22.17 27.41C21.11 31.05 21.45 34.05 23.15 36.33C25.8 39.85 32.45 41.8 38.43 39.51C43.81 37.45 45.53 33.06 43.88 27.41C43.12 24.8 42.94 22.66 43.06 20.94C43.28 17.6 44.83 15.18 46.34 14.17C48.6 12.75 51.11 14.4 51.11 16.69C51.11 18.37 49.74 19.75 48.06 19.75L48.05 19.76ZM45.22 49.89H20.79C21.55 46.81 23.43 44.98 24.12 44.39C24.25 44.28 27.47 46.81 34.31 46.42C36.96 46.27 39.56 45.67 41.88 44.38C43.44 45.72 44.68 47.68 45.22 49.89ZM24.03 20.8H42C41.98 21.15 41.96 21.5 41.96 21.86H24.05C24.05 20.77 23.98 20.8 24.03 20.8ZM24.03 22.91H27.08V38.14C22.76 36.08 21.82 32.28 23.15 27.7C23.67 25.91 23.94 24.32 24.03 22.91ZM42.86 27.7C44.19 32.28 43.25 36.07 38.93 38.14V22.91H41.98C42.07 24.32 42.34 25.91 42.86 27.7ZM28.13 22.91H30.69V39.25C29.87 39.11 29 38.89 28.13 38.57V22.91ZM31.73 22.91H34.29V39.39C33.36 39.48 32.67 39.48 31.73 39.39V22.91ZM35.34 22.91H37.9V38.58C37.03 38.9 36.16 39.12 35.34 39.26V22.92V22.91Z" fill="#92B793"/>
</svg>
