<svg width="66" height="68" viewBox="0 0 66 68" fill="none" xmlns="http://www.w3.org/2000/svg">
<path d="M33.01 65C50.9593 65 65.51 50.4493 65.51 32.5C65.51 14.5507 50.9593 0 33.01 0C15.0608 0 0.51001 14.5507 0.51001 32.5C0.51001 50.4493 15.0608 65 33.01 65Z" fill="#E8FFE6"/>
<path d="M33.01 68C50.9593 68 65.51 53.4493 65.51 35.5C65.51 17.5507 50.9593 3 33.01 3C15.0608 3 0.51001 17.5507 0.51001 35.5C0.51001 53.4493 15.0608 68 33.01 68Z" fill="#C0F2C3"/>
<path opacity="0.09" d="M1.51001 44C1.51001 44 4.40999 63 34.46 63C64.51 63 64.22 44 64.22 44C64.22 44 59.77 67.96 34.64 67.96C7.51002 67.96 1.51001 44 1.51001 44Z" fill="#1A1515"/>
<path d="M48.05 15.6C44.81 15.6 42.6 19.49 42.11 22.76H23.92C23.43 19.46 21.63 17.1 20.17 16.25C17.45 14.52 13.88 16.48 13.88 19.71C13.88 22.55 16.72 24.54 19.38 23.56C19.88 24.09 21.03 25.79 19.41 29.23C15.78 37 18.18 43.47 23.18 46.82C22.19 47.72 20.27 49.86 19.62 53.32C19.56 53.64 19.81 53.94 20.13 53.94C46.24 53.94 46.01 54.04 46.26 53.75C46.36 53.63 46.4 53.47 46.37 53.32C45.73 49.86 43.8 47.72 42.81 46.82C47.8 43.47 50.23 37.04 46.58 29.23C44.97 25.78 46.12 24.08 46.61 23.56C49.26 24.54 52.11 22.56 52.11 19.71C52.11 17.45 50.27 15.61 48.01 15.61H48.02L48.05 15.6ZM48.05 22.76C46.89 22.76 46.66 22.17 46.21 22.54C45.87 22.8 43.44 24.89 45.67 29.67C49.95 38.84 45.48 46.67 36.39 48.15C23.81 50.17 14.88 41.41 20.37 29.67C22.58 24.95 20.22 22.85 19.84 22.55C19.4 22.15 19.15 22.76 17.99 22.76C16.31 22.76 14.94 21.39 14.94 19.7C14.94 17.44 17.41 15.74 19.71 17.18C21.45 18.34 23.1 21.21 23.02 25.19C23 26.68 22.75 28.41 22.17 30.41C21.11 34.05 21.45 37.05 23.15 39.33C25.8 42.85 32.45 44.8 38.43 42.51C43.81 40.45 45.53 36.06 43.88 30.41C43.12 27.8 42.94 25.66 43.06 23.94C43.28 20.6 44.83 18.18 46.34 17.17C48.6 15.75 51.11 17.4 51.11 19.69C51.11 21.37 49.74 22.75 48.06 22.75L48.05 22.76ZM45.22 52.89H20.79C21.55 49.81 23.43 47.98 24.12 47.39C24.25 47.28 27.47 49.81 34.31 49.42C36.96 49.27 39.56 48.67 41.88 47.38C43.44 48.72 44.68 50.68 45.22 52.89ZM24.03 23.8H42C41.98 24.15 41.96 24.5 41.96 24.86H24.05C24.05 23.77 23.98 23.8 24.03 23.8ZM24.03 25.91H27.08V41.14C22.76 39.08 21.82 35.28 23.15 30.7C23.67 28.91 23.94 27.32 24.03 25.91ZM42.86 30.7C44.19 35.28 43.25 39.07 38.93 41.14V25.91H41.98C42.07 27.32 42.34 28.91 42.86 30.7ZM28.13 25.91H30.69V42.25C29.87 42.11 29 41.89 28.13 41.57V25.91ZM31.73 25.91H34.29V42.39C33.36 42.48 32.67 42.48 31.73 42.39V25.91ZM35.34 25.91H37.9V41.58C37.03 41.9 36.16 42.12 35.34 42.26V25.92V25.91Z" fill="#92B793"/>
</svg>
