<svg width="65" height="66" viewBox="0 0 65 66" fill="none" xmlns="http://www.w3.org/2000/svg">
<path d="M32.5 65C50.4493 65 65 50.4493 65 32.5C65 14.5507 50.4493 0 32.5 0C14.5507 0 0 14.5507 0 32.5C0 50.4493 14.5507 65 32.5 65Z" fill="#F9F9F9"/>
<path d="M32.5 65C50.4493 65 65 50.4493 65 32.5C65 14.5507 50.4493 0 32.5 0C14.5507 0 0 14.5507 0 32.5C0 50.4493 14.5507 65 32.5 65Z" fill="#F9F9F9"/>
<path opacity="0.19" d="M64.71 25.96C64.71 25.96 61.81 1.96 31.76 1.96C1.71 1.96 1 24.96 1 24.96C1 24.96 6.45 0 31.58 0C58.71 0 64.71 25.96 64.71 25.96Z" fill="black"/>
<path d="M0.929993 40.52C0.929993 40.52 4.90999 63.52 33.93 63.52C59.93 63.52 63.63 41.73 63.54 41.73C63.54 41.73 59.09 65.69 33.96 65.69C6.82999 65.69 0.929993 40.52 0.929993 40.52Z" fill="#46537F"/>
<path fill-rule="evenodd" clip-rule="evenodd" d="M49.13 18.61H15.87C14.92 18.61 14.14 19.39 14.14 20.34V45.08C14.14 46.03 14.92 46.81 15.87 46.81H20.47C20.98 46.81 21.44 46.59 21.75 46.24C22.07 46.59 22.53 46.81 23.03 46.81H27.63C28.14 46.81 28.6 46.59 28.91 46.24C29.23 46.59 29.69 46.81 30.19 46.81H34.79C35.3 46.81 35.76 46.59 36.07 46.24C36.39 46.59 36.85 46.81 37.35 46.81H41.95C42.46 46.81 42.92 46.59 43.23 46.24C43.55 46.59 44.01 46.81 44.51 46.81H49.11C50.06 46.81 50.84 46.03 50.84 45.08V20.34C50.84 19.39 50.06 18.61 49.11 18.61H49.13ZM21.01 45.08C21.01 45.38 20.76 45.63 20.46 45.63H15.86C15.56 45.63 15.31 45.38 15.31 45.08V20.34C15.31 20.04 15.56 19.79 15.86 19.79H19.72V34.77C19.72 34.99 19.9 35.16 20.11 35.16H21.01V45.08ZM28.18 45.08C28.18 45.38 27.93 45.63 27.63 45.63H23.03C22.73 45.63 22.48 45.38 22.48 45.08V35.16H23.38C23.6 35.16 23.77 34.98 23.77 34.77V19.79H26.88V34.77C26.88 34.99 27.06 35.16 27.27 35.16H28.17V45.08H28.18ZM35.35 45.08C35.35 45.38 35.1 45.63 34.8 45.63H30.2C29.9 45.63 29.65 45.38 29.65 45.08V35.16H30.55C30.77 35.16 30.94 34.98 30.94 34.77V19.79H34.8C35.1 19.79 35.35 20.04 35.35 20.34V45.08ZM42.52 45.08C42.52 45.38 42.27 45.63 41.97 45.63H37.37C37.07 45.63 36.82 45.38 36.82 45.08V20.34C36.82 20.04 37.07 19.79 37.37 19.79H41.23V34.77C41.23 34.99 41.41 35.16 41.62 35.16H42.52V45.08ZM49.68 45.08C49.68 45.38 49.43 45.63 49.13 45.63H44.53C44.23 45.63 43.98 45.38 43.98 45.08V35.16H44.88C45.1 35.16 45.27 34.98 45.27 34.77V19.79H49.13C49.43 19.79 49.68 20.04 49.68 20.34V45.08Z" fill="#9AC19B"/>
</svg>
