<svg width="65" height="69" viewBox="0 0 65 69" fill="none" xmlns="http://www.w3.org/2000/svg">
<path d="M32.5 65.26C50.4493 65.26 65 50.7093 65 32.76C65 14.8108 50.4493 0.26001 32.5 0.26001C14.5507 0.26001 0 14.8108 0 32.76C0 50.7093 14.5507 65.26 32.5 65.26Z" fill="#E8FFE6"/>
<path d="M32.5 68.26C50.4493 68.26 65 53.7093 65 35.76C65 17.8108 50.4493 3.26001 32.5 3.26001C14.5507 3.26001 0 17.8108 0 35.76C0 53.7093 14.5507 68.26 32.5 68.26Z" fill="#C0F2C3"/>
<path opacity="0.09" d="M1 44.26C1 44.26 3.9 63.26 33.95 63.26C64 63.26 63.71 44.26 63.71 44.26C63.71 44.26 59.26 68.22 34.13 68.22C7 68.22 1 44.26 1 44.26Z" fill="#1A1515"/>
<path fill-rule="evenodd" clip-rule="evenodd" d="M49.13 20.17H15.87C14.92 20.17 14.14 20.95 14.14 21.9V46.64C14.14 47.59 14.92 48.37 15.87 48.37H20.47C20.98 48.37 21.44 48.15 21.75 47.8C22.07 48.15 22.53 48.37 23.03 48.37H27.63C28.14 48.37 28.6 48.15 28.91 47.8C29.23 48.15 29.69 48.37 30.19 48.37H34.79C35.3 48.37 35.76 48.15 36.07 47.8C36.39 48.15 36.85 48.37 37.35 48.37H41.95C42.46 48.37 42.92 48.15 43.23 47.8C43.55 48.15 44.01 48.37 44.51 48.37H49.11C50.06 48.37 50.84 47.59 50.84 46.64V21.9C50.84 20.95 50.06 20.17 49.11 20.17H49.13ZM21.01 46.63C21.01 46.93 20.76 47.18 20.46 47.18H15.86C15.56 47.18 15.31 46.93 15.31 46.63V21.89C15.31 21.59 15.56 21.34 15.86 21.34H19.72V36.32C19.72 36.54 19.9 36.71 20.11 36.71H21.01V46.63ZM28.18 46.63C28.18 46.93 27.93 47.18 27.63 47.18H23.03C22.73 47.18 22.48 46.93 22.48 46.63V36.71H23.38C23.6 36.71 23.77 36.53 23.77 36.32V21.34H26.88V36.32C26.88 36.54 27.06 36.71 27.27 36.71H28.17V46.63H28.18ZM35.35 46.63C35.35 46.93 35.1 47.18 34.8 47.18H30.2C29.9 47.18 29.65 46.93 29.65 46.63V36.71H30.55C30.77 36.71 30.94 36.53 30.94 36.32V21.34H34.8C35.1 21.34 35.35 21.59 35.35 21.89V46.63ZM42.52 46.63C42.52 46.93 42.27 47.18 41.97 47.18H37.37C37.07 47.18 36.82 46.93 36.82 46.63V21.89C36.82 21.59 37.07 21.34 37.37 21.34H41.23V36.32C41.23 36.54 41.41 36.71 41.62 36.71H42.52V46.63ZM49.68 46.63C49.68 46.93 49.43 47.18 49.13 47.18H44.53C44.23 47.18 43.98 46.93 43.98 46.63V36.71H44.88C45.1 36.71 45.27 36.53 45.27 36.32V21.34H49.13C49.43 21.34 49.68 21.59 49.68 21.89V46.63Z" fill="#9AC19B"/>
</svg>
