<svg width="66" height="66" viewBox="0 0 66 66" fill="none" xmlns="http://www.w3.org/2000/svg">
<path d="M32.78 65C50.7293 65 65.28 50.4493 65.28 32.5C65.28 14.5507 50.7293 0 32.78 0C14.8308 0 0.280029 14.5507 0.280029 32.5C0.280029 50.4493 14.8308 65 32.78 65Z" fill="#F9F9F9"/>
<path d="M32.78 65C50.7293 65 65.28 50.4493 65.28 32.5C65.28 14.5507 50.7293 0 32.78 0C14.8308 0 0.280029 14.5507 0.280029 32.5C0.280029 50.4493 14.8308 65 32.78 65Z" fill="#F9F9F9"/>
<path opacity="0.19" d="M64.99 25.96C64.99 25.96 62.09 1.96 32.04 1.96C1.99004 1.96 1.28003 24.96 1.28003 24.96C1.28003 24.96 6.73002 0 31.86 0C58.99 0 64.99 25.96 64.99 25.96Z" fill="black"/>
<path d="M1.20996 40.52C1.20996 40.52 5.18996 63.52 34.21 63.52C60.21 63.52 63.91 41.73 63.82 41.73C63.82 41.73 59.37 65.69 34.24 65.69C7.10996 65.69 1.20996 40.52 1.20996 40.52Z" fill="#46537F"/>
<path d="M52.19 14.93L49.56 12.3C48.78 11.52 47.51 11.52 46.73 12.3C46.69 12.34 46.66 12.37 46.62 12.41L43.92 15.57C43.61 15.93 43.44 16.39 43.44 16.87V17.42L35.84 24.5C34.72 23.37 33.23 22.68 31.65 22.55C30.02 22.45 28.43 23.06 27.3 24.23C26.92 24.61 26.58 25.04 26.31 25.51C25.45 26.87 23.97 27.7 22.36 27.73C16.8 28.01 12.51 32.75 12.8 38.32C12.93 40.82 13.98 43.18 15.74 44.94L19.55 48.75C23.49 52.69 29.87 52.7 33.82 48.76C35.59 46.99 36.64 44.63 36.77 42.13C36.79 40.52 37.63 39.04 38.99 38.18C39.46 37.91 39.89 37.57 40.27 37.19C42.61 34.85 42.48 31.2 39.99 28.64L47.07 21.04H47.62C48.1 21.04 48.56 20.87 48.92 20.56L52.08 17.86C52.92 17.14 53.02 15.88 52.3 15.04C52.27 15 52.23 14.96 52.19 14.93ZM31.14 30.7L33.05 28.92L35.56 31.43L33.78 33.34C33.3 32.13 32.35 31.18 31.14 30.7ZM29.44 31.71C31.28 31.71 32.77 33.2 32.77 35.04C32.77 36.88 31.28 38.37 29.44 38.37C27.6 38.37 26.11 36.88 26.11 35.04C26.11 33.2 27.6 31.71 29.44 31.71ZM36.47 30.46L34.03 28.02L35.81 26.36L38.13 28.68L36.47 30.47V30.46ZM36.79 25.45L38.57 23.79L40.7 25.92L39.04 27.7L36.79 25.44V25.45ZM39.55 22.87L41.33 21.21L43.27 23.16L41.61 24.94L39.54 22.87H39.55ZM42.31 20.3L44.09 18.64L45.85 20.4L44.19 22.18L42.31 20.3ZM40.61 32.92C40.69 34.16 40.22 35.38 39.32 36.25C39.02 36.55 38.68 36.82 38.31 37.03C36.56 38.11 35.48 40.01 35.43 42.07C35.18 46.9 31.07 50.61 26.24 50.37C24.07 50.26 22.03 49.35 20.49 47.82L16.68 44.01C13.26 40.59 13.25 35.05 16.67 31.63C18.2 30.09 20.25 29.18 22.42 29.07C24.48 29.03 26.37 27.94 27.46 26.19C27.68 25.82 27.94 25.48 28.24 25.18C29.04 24.35 30.14 23.88 31.28 23.88C31.37 23.88 31.47 23.88 31.56 23.88C32.81 23.99 33.97 24.53 34.86 25.41L29.53 30.38C29.53 30.38 29.47 30.38 29.44 30.38C26.86 30.38 24.77 32.47 24.77 35.05C24.77 37.63 26.86 39.72 29.44 39.72C32.02 39.72 34.11 37.63 34.11 35.05C34.11 35.02 34.11 34.99 34.11 34.96L39.08 29.63C39.96 30.52 40.51 31.68 40.61 32.93V32.92ZM51.21 16.85L48.05 19.55C47.93 19.65 47.78 19.71 47.62 19.71H47.06L44.78 17.43V16.87C44.78 16.71 44.84 16.56 44.94 16.44L47.64 13.28C47.76 13.14 47.94 13.05 48.12 13.05C48.31 13.05 48.49 13.11 48.62 13.24L51.25 15.87C51.51 16.13 51.51 16.55 51.25 16.81C51.24 16.82 51.22 16.83 51.21 16.85ZM22.78 37.32C22.26 36.8 21.42 36.8 20.89 37.32L19.83 38.38C19.31 38.9 19.31 39.74 19.83 40.26L24.22 44.65C24.74 45.17 25.58 45.17 26.11 44.65L27.17 43.59C27.69 43.07 27.69 42.23 27.17 41.7L22.78 37.31V37.32ZM25.17 43.71L20.78 39.32L21.84 38.26L26.23 42.65L25.17 43.71Z" fill="#92B793"/>
</svg>
