<svg width="66" height="68" viewBox="0 0 66 68" fill="none" xmlns="http://www.w3.org/2000/svg">
<path d="M32.78 65C50.7293 65 65.28 50.4493 65.28 32.5C65.28 14.5507 50.7293 0 32.78 0C14.8308 0 0.280029 14.5507 0.280029 32.5C0.280029 50.4493 14.8308 65 32.78 65Z" fill="#E8FFE6"/>
<path d="M32.78 68C50.7293 68 65.28 53.4493 65.28 35.5C65.28 17.5507 50.7293 3 32.78 3C14.8308 3 0.280029 17.5507 0.280029 35.5C0.280029 53.4493 14.8308 68 32.78 68Z" fill="#C0F2C3"/>
<path opacity="0.09" d="M1.28003 44C1.28003 44 4.18004 63 34.23 63C64.28 63 63.99 44 63.99 44C63.99 44 59.54 67.96 34.41 67.96C7.28004 67.96 1.28003 44 1.28003 44Z" fill="#1A1515"/>
<path d="M52.19 17.93L49.56 15.3C48.78 14.52 47.51 14.52 46.73 15.3C46.69 15.34 46.66 15.37 46.62 15.41L43.92 18.57C43.61 18.93 43.44 19.39 43.44 19.87V20.42L35.84 27.5C34.72 26.37 33.23 25.68 31.65 25.55C30.02 25.45 28.43 26.06 27.3 27.23C26.92 27.61 26.58 28.04 26.31 28.51C25.45 29.87 23.97 30.7 22.36 30.73C16.8 31.01 12.51 35.75 12.8 41.32C12.93 43.82 13.98 46.18 15.74 47.94L19.55 51.75C23.49 55.69 29.87 55.7 33.82 51.76C35.59 49.99 36.64 47.63 36.77 45.13C36.79 43.52 37.63 42.04 38.99 41.18C39.46 40.91 39.89 40.57 40.27 40.19C42.61 37.85 42.48 34.2 39.99 31.64L47.07 24.04H47.62C48.1 24.04 48.56 23.87 48.92 23.56L52.08 20.86C52.92 20.14 53.02 18.88 52.3 18.04C52.27 18 52.23 17.96 52.19 17.93ZM31.14 33.7L33.05 31.92L35.56 34.43L33.78 36.34C33.3 35.13 32.35 34.18 31.14 33.7ZM29.44 34.71C31.28 34.71 32.77 36.2 32.77 38.04C32.77 39.88 31.28 41.37 29.44 41.37C27.6 41.37 26.11 39.88 26.11 38.04C26.11 36.2 27.6 34.71 29.44 34.71ZM36.47 33.46L34.03 31.02L35.81 29.36L38.13 31.68L36.47 33.47V33.46ZM36.79 28.45L38.57 26.79L40.7 28.92L39.04 30.7L36.79 28.44V28.45ZM39.55 25.87L41.33 24.21L43.27 26.16L41.61 27.94L39.54 25.87H39.55ZM42.31 23.3L44.09 21.64L45.85 23.4L44.19 25.18L42.31 23.3ZM40.61 35.92C40.69 37.16 40.22 38.38 39.32 39.25C39.02 39.55 38.68 39.82 38.31 40.03C36.56 41.11 35.48 43.01 35.43 45.07C35.18 49.9 31.07 53.61 26.24 53.37C24.07 53.26 22.03 52.35 20.49 50.82L16.68 47.01C13.26 43.59 13.25 38.05 16.67 34.63C18.2 33.09 20.25 32.18 22.42 32.07C24.48 32.03 26.37 30.94 27.46 29.19C27.68 28.82 27.94 28.48 28.24 28.18C29.04 27.35 30.14 26.88 31.28 26.88C31.37 26.88 31.47 26.88 31.56 26.88C32.81 26.99 33.97 27.53 34.86 28.41L29.53 33.38C29.53 33.38 29.47 33.38 29.44 33.38C26.86 33.38 24.77 35.47 24.77 38.05C24.77 40.63 26.86 42.72 29.44 42.72C32.02 42.72 34.11 40.63 34.11 38.05C34.11 38.02 34.11 37.99 34.11 37.96L39.08 32.63C39.96 33.52 40.51 34.68 40.61 35.93V35.92ZM51.21 19.85L48.05 22.55C47.93 22.65 47.78 22.71 47.62 22.71H47.06L44.78 20.43V19.87C44.78 19.71 44.84 19.56 44.94 19.44L47.64 16.28C47.76 16.14 47.94 16.05 48.12 16.05C48.31 16.05 48.49 16.11 48.62 16.24L51.25 18.87C51.51 19.13 51.51 19.55 51.25 19.81C51.24 19.82 51.22 19.83 51.21 19.85ZM22.78 40.32C22.26 39.8 21.42 39.8 20.89 40.32L19.83 41.38C19.31 41.9 19.31 42.74 19.83 43.26L24.22 47.65C24.74 48.17 25.58 48.17 26.11 47.65L27.17 46.59C27.69 46.07 27.69 45.23 27.17 44.7L22.78 40.31V40.32ZM25.17 46.71L20.78 42.32L21.84 41.26L26.23 45.65L25.17 46.71Z" fill="#92B793"/>
</svg>
