<svg width="66" height="66" viewBox="0 0 66 66" fill="none" xmlns="http://www.w3.org/2000/svg">
<path d="M47.22 25.35C48.73 25.35 49.95 24.13 49.95 22.62C49.95 21.11 48.73 19.89 47.22 19.89C45.71 19.89 44.49 21.11 44.49 22.62C44.49 24.13 45.71 25.35 47.22 25.35ZM47.22 21.71C47.72 21.71 48.13 22.12 48.13 22.62C48.13 23.12 47.72 23.53 47.22 23.53C46.72 23.53 46.31 23.12 46.31 22.62C46.31 22.12 46.72 21.71 47.22 21.71Z" fill="#9AC19B"/>
<path d="M47.22 43.5299C48.73 43.5299 49.95 42.3099 49.95 40.7999C49.95 39.2899 48.73 38.0699 47.22 38.0699C45.71 38.0699 44.49 39.2899 44.49 40.7999C44.49 42.3099 45.71 43.5299 47.22 43.5299ZM47.22 39.8999C47.72 39.8999 48.13 40.3099 48.13 40.8099C48.13 41.3099 47.72 41.7199 47.22 41.7199C46.72 41.7199 46.31 41.3099 46.31 40.8099C46.31 40.3099 46.72 39.8999 47.22 39.8999Z" fill="#9AC19B"/>
<path d="M33.13 65C51.0793 65 65.63 50.4493 65.63 32.5C65.63 14.5507 51.0793 0 33.13 0C15.1807 0 0.630005 14.5507 0.630005 32.5C0.630005 50.4493 15.1807 65 33.13 65Z" fill="#F9F9F9"/>
<path d="M33.13 65C51.0793 65 65.63 50.4493 65.63 32.5C65.63 14.5507 51.0793 0 33.13 0C15.1807 0 0.630005 14.5507 0.630005 32.5C0.630005 50.4493 15.1807 65 33.13 65Z" fill="#F9F9F9"/>
<path opacity="0.19" d="M65.34 25.96C65.34 25.96 62.44 1.96 32.39 1.96C2.34001 1.96 1.63 24.96 1.63 24.96C1.63 24.96 7.08001 0 32.21 0C59.34 0 65.34 25.96 65.34 25.96Z" fill="black"/>
<path d="M1.56006 40.52C1.56006 40.52 5.54006 63.52 34.5601 63.52C60.5601 63.52 64.2601 41.73 64.1701 41.73C64.1701 41.73 59.7201 65.69 34.5901 65.69C7.46006 65.69 1.56006 40.52 1.56006 40.52Z" fill="#46537F"/>
<path d="M21.76 21.71C23.27 21.71 24.49 20.49 24.49 18.98C24.49 17.47 23.27 16.25 21.76 16.25C20.25 16.25 19.03 17.47 19.03 18.98C19.03 20.49 20.25 21.71 21.76 21.71ZM21.76 18.07C22.26 18.07 22.67 18.48 22.67 18.98C22.67 19.48 22.26 19.89 21.76 19.89C21.26 19.89 20.85 19.48 20.85 18.98C20.85 18.48 21.26 18.07 21.76 18.07Z" fill="#9AC19B"/>
<path d="M21.76 47.17C23.27 47.17 24.49 45.95 24.49 44.44C24.49 42.93 23.27 41.71 21.76 41.71C20.25 41.71 19.03 42.93 19.03 44.44C19.03 45.95 20.25 47.17 21.76 47.17ZM21.76 43.53C22.26 43.53 22.67 43.94 22.67 44.44C22.67 44.94 22.26 45.35 21.76 45.35C21.26 45.35 20.85 44.94 20.85 44.44C20.85 43.94 21.26 43.53 21.76 43.53Z" fill="#9AC19B"/>
<path d="M34.49 45.35C36 45.35 37.22 44.13 37.22 42.62C37.22 41.11 36 39.89 34.49 39.89C32.98 39.89 31.76 41.11 31.76 42.62C31.76 44.13 32.98 45.35 34.49 45.35ZM34.49 41.71C34.99 41.71 35.4 42.12 35.4 42.62C35.4 43.12 34.99 43.53 34.49 43.53C33.99 43.53 33.58 43.12 33.58 42.62C33.58 42.12 33.99 41.71 34.49 41.71Z" fill="#9AC19B"/>
<path d="M34.49 23.5299C36 23.5299 37.22 22.3099 37.22 20.7999C37.22 19.2899 36 18.0699 34.49 18.0699C32.98 18.0699 31.76 19.2899 31.76 20.7999C31.76 22.3099 32.98 23.5299 34.49 23.5299ZM34.49 19.8899C34.99 19.8899 35.4 20.2999 35.4 20.7999C35.4 21.2999 34.99 21.7099 34.49 21.7099C33.99 21.7099 33.58 21.2999 33.58 20.7999C33.58 20.2999 33.99 19.8899 34.49 19.8899Z" fill="#9AC19B"/>
<path d="M52.68 41.05V39.25V41.05ZM52.68 20.61V18.08C52.68 17.58 52.27 17.17 51.77 17.17H42.68C42.18 17.17 41.77 17.58 41.77 18.08V19.11L39.95 18.86V16.27C39.95 15.77 39.54 15.36 39.04 15.36H29.95C29.45 15.36 29.04 15.77 29.04 16.27V17.36L27.22 17.11V14.45C27.22 13.95 26.81 13.54 26.31 13.54H17.22C16.72 13.54 16.31 13.95 16.31 14.45V15.64C15.65 15.63 15.01 15.86 14.51 16.29C13.38 17.27 13.27 18.99 14.25 20.12C14.68 20.61 15.27 20.93 15.92 21.02L16.31 21.07V42.6L15.91 42.66C14.43 42.87 13.4 44.24 13.6 45.72C13.79 47.06 14.93 48.05 16.29 48.05H16.31V49C16.31 49.5 16.72 49.91 17.22 49.91H26.31C26.81 49.91 27.22 49.5 27.22 49V46.52L29.04 46.26V47.18C29.04 47.68 29.45 48.09 29.95 48.09H39.04C39.54 48.09 39.95 47.68 39.95 47.18V44.71L41.77 44.45V45.36C41.77 45.86 42.18 46.27 42.68 46.27H51.77C52.27 46.27 52.68 45.86 52.68 45.36V42.89M52.68 24.24V22.44V24.24ZM52.68 37.41V26.08V37.41ZM16.31 46.2C16.09 46.21 15.88 46.14 15.71 46C15.51 45.83 15.4 45.59 15.4 45.33C15.4 44.89 15.73 44.51 16.17 44.45L16.31 44.43V46.21V46.2ZM16.31 19.23L16.17 19.21C15.73 19.15 15.4 18.77 15.4 18.33C15.4 17.85 15.77 17.46 16.25 17.45C16.27 17.45 16.29 17.45 16.31 17.45V19.23ZM25.4 48.08H18.13V15.35H25.4V48.08ZM29.04 44.41L27.22 44.67V42.87L29.04 42.61V44.41ZM29.04 40.77L27.22 41.03V22.56L29.04 22.81V40.77ZM29.04 20.98L27.22 20.73V18.93L29.04 19.18V20.98ZM38.13 46.26H30.86V17.16H38.13V46.26ZM41.77 42.6L39.95 42.86V41.06L41.77 40.8V42.6ZM41.77 38.96L39.95 39.22V24.32L41.77 24.57V38.96ZM41.77 22.74L39.95 22.49V20.69L41.77 20.94V22.74ZM50.86 44.44H43.59V18.98H50.86V44.44Z" fill="#9AC19B"/>
<path d="M47.22 25.35C48.73 25.35 49.95 24.13 49.95 22.62C49.95 21.11 48.73 19.89 47.22 19.89C45.71 19.89 44.49 21.11 44.49 22.62C44.49 24.13 45.71 25.35 47.22 25.35ZM47.22 21.71C47.72 21.71 48.13 22.12 48.13 22.62C48.13 23.12 47.72 23.53 47.22 23.53C46.72 23.53 46.31 23.12 46.31 22.62C46.31 22.12 46.72 21.71 47.22 21.71Z" fill="#9AC19B"/>
<path d="M47.22 43.5299C48.73 43.5299 49.95 42.3099 49.95 40.7999C49.95 39.2899 48.73 38.0699 47.22 38.0699C45.71 38.0699 44.49 39.2899 44.49 40.7999C44.49 42.3099 45.71 43.5299 47.22 43.5299ZM47.22 39.8999C47.72 39.8999 48.13 40.3099 48.13 40.8099C48.13 41.3099 47.72 41.7199 47.22 41.7199C46.72 41.7199 46.31 41.3099 46.31 40.8099C46.31 40.3099 46.72 39.8999 47.22 39.8999Z" fill="#9AC19B"/>
</svg>
